<?xml version="1.0" encoding="UTF-8" standalone="no"?>
<!--Generator: Xara Designer (www.xara.com), SVG filter version: 3.0.0.6-->

<svg
   xmlns:dc="http://purl.org/dc/elements/1.1/"
   xmlns:cc="http://creativecommons.org/ns#"
   xmlns:rdf="http://www.w3.org/1999/02/22-rdf-syntax-ns#"
   xmlns:svg="http://www.w3.org/2000/svg"
   xmlns="http://www.w3.org/2000/svg"
   xmlns:sodipodi="http://sodipodi.sourceforge.net/DTD/sodipodi-0.dtd"
   xmlns:inkscape="http://www.inkscape.org/namespaces/inkscape"
   stroke-width="0.501"
   stroke-linejoin="bevel"
   fill-rule="evenodd"
   version="1.1"
   overflow="visible"
   width="389.249pt"
   height="402.194pt"
   viewBox="0 0 389.249 402.194"
   id="svg2"
   inkscape:version="0.91 r13725"
   sodipodi:docname="daisy_the_cow.svg">
  <title
     id="title4372">Daisy the Cow</title>
  <metadata
     id="metadata172">
    <rdf:RDF>
      <cc:Work
         rdf:about="">
        <dc:format>image/svg+xml</dc:format>
        <dc:type
           rdf:resource="http://purl.org/dc/dcmitype/StillImage" />
        <dc:title>Daisy the Cow</dc:title>
        <dc:date>06/09/2015</dc:date>
        <dc:contributor>
          <cc:Agent>
            <dc:title>ps, wpclipart</dc:title>
          </cc:Agent>
        </dc:contributor>
        <cc:license
           rdf:resource="http://creativecommons.org/publicdomain/zero/1.0/" />
      </cc:Work>
      <cc:License
         rdf:about="http://creativecommons.org/publicdomain/zero/1.0/">
        <cc:permits
           rdf:resource="http://creativecommons.org/ns#Reproduction" />
        <cc:permits
           rdf:resource="http://creativecommons.org/ns#Distribution" />
        <cc:permits
           rdf:resource="http://creativecommons.org/ns#DerivativeWorks" />
      </cc:License>
    </rdf:RDF>
  </metadata>
  <sodipodi:namedview
     pagecolor="#ffffff"
     bordercolor="#666666"
     borderopacity="1"
     objecttolerance="10"
     gridtolerance="10"
     guidetolerance="10"
     inkscape:pageopacity="0"
     inkscape:pageshadow="2"
     inkscape:window-width="934"
     inkscape:window-height="981"
     id="namedview170"
     showgrid="false"
     inkscape:zoom="0.4694252"
     inkscape:cx="247.54115"
     inkscape:cy="251.37125"
     inkscape:window-x="376"
     inkscape:window-y="-3"
     inkscape:window-maximized="0"
     inkscape:current-layer="svg2" />
  <defs
     id="defs4">
    <marker
       id="DefaultArrow2"
       markerUnits="strokeWidth"
       viewBox="0 0 1 1"
       markerWidth="1"
       markerHeight="1"
       overflow="visible"
       orient="auto">
      <!-- REF_ARROW_STRAIGHT (-2) -->
      <g
         transform="scale(0.0092592592)"
         id="g7">
        <!-- 1/108 -->
        <path
           d="M -9 54 L -9 -54 L 117 0 z"
           id="path9" />
      </g>
    </marker>
    <marker
       id="DefaultArrow3"
       markerUnits="strokeWidth"
       viewBox="0 0 1 1"
       markerWidth="1"
       markerHeight="1"
       overflow="visible"
       orient="auto">
      <!-- REF_ARROW_ANGLED -->
      <g
         transform="scale(0.0092592592)"
         id="g12">
        <path
           d="M -27 54 L -9 0 L -27 -54 L 135 0 z"
           id="path14" />
      </g>
    </marker>
    <marker
       id="DefaultArrow4"
       markerUnits="strokeWidth"
       viewBox="0 0 1 1"
       markerWidth="1"
       markerHeight="1"
       overflow="visible"
       orient="auto">
      <!-- REF_ARROW_ROUNDED -->
      <g
         transform="scale(0.0092592592)"
         id="g17">
        <path
           d="M -9,0 L -9,-45 C -9,-51.708 2.808,-56.580 9,-54 L 117,-9 C 120.916,-7.369 126.000,-4.242 126,0 C 126,4.242 120.916,7.369 117,9 L 9,54 C 2.808,56.580 -9,51.708 -9,45 z"
           id="path19" />
      </g>
    </marker>
    <marker
       id="DefaultArrow5"
       markerUnits="strokeWidth"
       viewBox="0 0 1 1"
       markerWidth="1"
       markerHeight="1"
       overflow="visible"
       orient="auto">
      <!-- REF_ARROW_SPOT -->
      <g
         transform="scale(0.0092592592)"
         id="g22">
        <path
           d="M -54, 0 C -54,29.807 -29.807,54 0,54 C 29.807,54 54,29.807 54,0 C 54,-29.807 29.807,-54 0,-54 C -29.807,-54 -54,-29.807 -54,0 z"
           id="path24" />
      </g>
    </marker>
    <marker
       id="DefaultArrow6"
       markerUnits="strokeWidth"
       viewBox="0 0 1 1"
       markerWidth="1"
       markerHeight="1"
       overflow="visible"
       orient="auto">
      <!-- REF_ARROW_DIAMOND -->
      <g
         transform="scale(0.0092592592)"
         id="g27">
        <path
           d="M -63,0 L 0,63 L 63,0 L 0,-63 z"
           id="path29" />
      </g>
    </marker>
    <marker
       id="DefaultArrow7"
       markerUnits="strokeWidth"
       viewBox="0 0 1 1"
       markerWidth="1"
       markerHeight="1"
       overflow="visible"
       orient="auto">
      <!-- REF_ARROW_FEATHER -->
      <g
         transform="scale(0.0092592592)"
         id="g32">
        <path
           d="M 18,-54 L 108,-54 L 63,0 L 108,54 L 18, 54 L -36,0 z"
           id="path34" />
      </g>
    </marker>
    <marker
       id="DefaultArrow8"
       markerUnits="strokeWidth"
       viewBox="0 0 1 1"
       markerWidth="1"
       markerHeight="1"
       overflow="visible"
       orient="auto">
      <!-- REF_ARROW_FEATHER2 -->
      <g
         transform="scale(0.0092592592)"
         id="g37">
        <path
           d="M -36,0 L 18,-54 L 54,-54 L 18,-18 L 27,-18 L 63,-54 L 99,-54 L 63,-18 L 72,-18 L 108,-54 L 144,-54 L 90,0 L 144,54 L 108,54 L 72,18 L 63,18 L 99,54 L 63,54 L 27,18 L 18,18 L 54,54 L 18,54 z"
           id="path39" />
      </g>
    </marker>
    <marker
       id="DefaultArrow9"
       markerUnits="strokeWidth"
       viewBox="0 0 1 1"
       markerWidth="1"
       markerHeight="1"
       overflow="visible"
       orient="auto">
      <!-- REF_ARROW_HOLLOWDIAMOND -->
      <g
         transform="scale(0.0092592592)"
         id="g42">
        <path
           d="M 0,45 L -45,0 L 0, -45 L 45, 0 z M 0, 63 L-63, 0 L 0, -63 L 63, 0 z"
           id="path44" />
      </g>
    </marker>
    <filter
       id="StainedFilter">
      <feBlend
         mode="multiply"
         in2="BackgroundImage"
         in="SourceGraphic"
         result="blend"
         id="feBlend47" />
      <feComposite
         in="blend"
         in2="SourceAlpha"
         operator="in"
         result="comp"
         id="feComposite49" />
    </filter>
    <filter
       id="BleachFilter">
      <feBlend
         mode="screen"
         in2="BackgroundImage"
         in="SourceGraphic"
         result="blend"
         id="feBlend52" />
      <feComposite
         in="blend"
         in2="SourceAlpha"
         operator="in"
         result="comp"
         id="feComposite54" />
    </filter>
    <filter
       id="InvertTransparencyBitmapFilter">
      <feComponentTransfer
         id="feComponentTransfer57">
        <feFuncR
           type="gamma"
           amplitude="1.055"
           exponent=".416666666"
           offset="-0.055"
           id="feFuncR59" />
        <feFuncG
           type="gamma"
           amplitude="1.055"
           exponent=".416666666"
           offset="-0.055"
           id="feFuncG61" />
        <feFuncB
           type="gamma"
           amplitude="1.055"
           exponent=".416666666"
           offset="-0.055"
           id="feFuncB63" />
      </feComponentTransfer>
      <feComponentTransfer
         id="feComponentTransfer65">
        <feFuncR
           type="linear"
           slope="-1"
           intercept="1"
           id="feFuncR67" />
        <feFuncG
           type="linear"
           slope="-1"
           intercept="1"
           id="feFuncG69" />
        <feFuncB
           type="linear"
           slope="-1"
           intercept="1"
           id="feFuncB71" />
        <feFuncA
           type="linear"
           slope="1"
           intercept="0"
           id="feFuncA73" />
      </feComponentTransfer>
      <feComponentTransfer
         id="feComponentTransfer75">
        <feFuncR
           type="gamma"
           amplitude="1"
           exponent="2.4"
           offset="0"
           id="feFuncR77" />
        <feFuncG
           type="gamma"
           amplitude="1"
           exponent="2.4"
           offset="0"
           id="feFuncG79" />
        <feFuncB
           type="gamma"
           amplitude="1"
           exponent="2.4"
           offset="0"
           id="feFuncB81" />
      </feComponentTransfer>
    </filter>
  </defs>
  <g
     id="Document"
     fill="none"
     stroke="black"
     font-family="Times New Roman"
     font-size="16"
     transform="scale(1 -1)">
    <g
       id="Spread"
       transform="translate(0 -402.194)">
      <g
         id="Layer 1">
        <g
           id="Group"
           stroke="none">
          <path
             d="M 272.87,12.488 L 271.454,14.129 L 270.989,13.777 C 267.899,11.877 264.047,10.499 259.923,11.384 L 259.453,11.504 L 258.53,11.782 L 258.071,11.94 C 256.91,12.395 255.823,13.028 254.824,13.827 L 254.612,14.004 L 254.162,14.399 L 253.947,14.597 C 252.572,15.929 251.616,17.491 251.036,19.154 C 250.335,21.163 250.193,23.226 250.422,25.235 L 251.159,27.88 L 248.563,28.126 C 246.66,28.554 244.85,29.257 243.296,30.325 C 240.427,32.296 238.462,35.533 238.695,39.754 L 238.726,40.151 C 238.855,41.475 239.188,42.648 239.653,43.707 L 241.582,46.731 L 233.588,51.391 C 227.999,55.153 222.828,59.598 218.105,64.204 L 207.373,75.954 L 206.874,75.549 C 196.232,67.874 183.408,64.42 169.481,71.574 L 166.19,73.67 L 163.802,72.043 C 161.643,70.776 159.296,69.66 156.793,68.948 C 149.523,66.873 137.67,67.83 133.736,76.654 L 133.552,77.119 L 133.224,78.057 L 133.079,78.535 C 131.991,82.749 133.268,87.006 135.812,90.826 C 137.146,92.809 138.537,94.122 139.73,95.255 L 141.502,97.437 L 135.088,104.812 L 127.342,113.75 L 118.228,115.557 C 106.987,118.414 96.381,123.186 87.149,131.105 C 59.29,154.977 55.161,192.08 79.326,221.092 C 82.281,224.684 85.684,227.891 89.443,230.737 L 98.895,236.507 L 106.514,280.047 L 99.705,275.493 C 75.406,262.271 39.724,258.105 22.709,255.679 C 18.956,255.141 15.288,255.553 12.222,257.501 C 11.227,258.134 10.358,258.892 9.617,259.746 C 3.846,266.4 6.819,276.912 9.387,282.052 C 15.819,294.878 25.599,307.555 35.352,317.309 C 58.851,340.82 93.94,319.253 111.695,329.719 L 114.884,332.169 L 115.362,332.754 L 115.729,335.813 L 116.94,341.72 L 115.903,342.14 C 112.777,344.085 110.585,347.522 111.038,352.024 C 111.195,353.571 111.672,354.966 112.315,356.174 C 112.869,357.214 113.56,358.15 114.344,358.978 L 116.889,361.109 L 116.337,364.664 C 116.617,368.425 119.389,371.093 122.26,372.194 L 125.251,372.783 L 124.619,374.221 C 124.14,376.336 124.39,378.38 124.962,380.09 C 125.717,382.349 127.141,384.375 128.949,385.84 C 130.558,387.143 132.825,388.274 135.519,388.274 C 137.487,388.274 139.231,387.708 140.677,386.917 C 143.698,385.261 145.949,382.317 147.531,379.351 L 148.222,377.772 L 148.964,378.672 C 151.041,380.964 153.832,383.321 157.769,384.195 C 161.071,384.932 164.86,384.861 168.273,383.767 L 169.956,382.901 L 172.012,384.086 C 173.047,384.455 174.122,384.642 175.149,384.662 L 178.138,384.202 L 178.029,385.781 C 178.294,387.942 179.234,389.788 180.359,391.204 C 181.84,393.067 183.872,394.485 186.071,395.244 C 188.019,395.916 190.528,396.207 193.04,395.298 C 194.9,394.636 196.366,393.501 197.468,392.251 C 199.742,389.67 200.854,386.144 201.333,382.826 L 201.444,381.144 L 202.426,381.724 C 205.175,383.182 208.602,384.456 212.608,383.942 C 215.958,383.51 219.49,382.158 222.326,379.977 L 223.578,378.634 L 224.099,379.977 C 224.9,381.427 225.947,382.78 227.311,383.896 C 228.694,385.027 230.361,385.873 232.285,386.281 L 232.722,386.357 L 233.638,386.481 L 234.101,386.526 L 234.154,386.529 C 236.798,386.671 239.163,385.93 241.115,384.635 C 242.696,383.585 243.963,382.217 244.972,380.692 L 245.586,379.391 L 246.843,380.359 C 248.397,381.284 250.057,381.982 251.772,382.297 C 255.398,382.963 259.336,381.89 262.033,378.244 C 262.951,376.994 263.53,375.65 263.864,374.333 C 264.152,373.192 264.269,372.035 264.247,370.896 L 263.797,367.587 L 266.576,365.355 C 268.912,362.382 268.667,358.536 267.273,355.772 L 267.16,355.623 L 268.184,354.197 C 271.677,348.51 274.15,341.881 275.883,334.822 L 276.071,333.901 L 277.464,332.194 L 280.579,329.817 C 297.979,319.701 333.039,341.315 357.01,317.329 C 366.761,307.578 376.544,294.915 382.968,282.069 C 385.525,276.934 388.493,266.475 382.786,259.819 C 382.029,258.937 381.137,258.155 380.11,257.507 C 377.054,255.577 373.404,255.17 369.667,255.7 C 348.854,258.67 303.99,264.225 281.421,283.099 L 278.389,285.979 L 277.485,274.193 C 276.516,266.63 275.228,259.491 273.765,253.167 C 272.7,248.582 271.625,242.266 270.315,235.486 L 266.445,219.216 L 270.876,215.832 C 287.906,201.28 296.797,181.825 286.302,159.694 C 277.363,140.847 258.788,123.713 240.665,115.942 L 238.719,115.23 L 235.084,109.242 C 231.678,103.757 227.788,97.843 223.46,92.269 L 220.264,88.513 L 230.671,77.092 C 236.442,71.464 242.21,66.856 247.963,63.659 L 251.943,61.78 L 254.212,62.258 L 253.328,64.276 C 252.943,65.992 253.027,67.681 253.371,69.178 C 254.088,72.303 256.052,75.115 258.611,76.871 C 260.175,77.944 262.233,78.802 264.603,78.802 C 266.371,78.802 267.976,78.36 269.36,77.695 C 272.747,76.069 275.255,72.89 277.01,69.665 L 278.142,67.12 L 279.33,68.557 C 281.544,71.014 284.471,73.513 288.643,74.434 C 294.634,75.764 301.403,74.59 305.769,70.444 C 311.002,65.475 311.012,58.127 306.195,51.711 L 304.898,50.433 L 308.389,48.463 C 312.177,45.626 315.252,41.65 315.814,36.679 C 315.915,35.76 315.932,34.84 315.842,33.921 C 315.524,30.664 313.947,28.204 311.861,26.513 C 309.356,24.484 305.892,23.54 304.5,23.079 C 302.742,22.492 301.033,22.17 299.379,22.056 L 295.519,22.244 L 295.521,21.957 C 295.428,20.634 295.217,19.343 294.838,18.179 L 294.621,17.612 L 294.216,16.696 L 293.682,15.736 L 293.306,15.187 L 293.105,14.911 C 288.736,9.24 278.974,7.445 272.87,12.488 Z M 277.505,19.324 C 277.907,19.753 277.548,19.208 279.167,20.824 L 279.279,20.95 L 275.4,18.611 L 276.047,17.86 L 277.495,19.313 Z M 258.121,18.908 L 261.821,22.731 L 261.883,22.936 L 261.557,22.822 L 258.121,18.908 Z M 274.872,19.726 L 278.809,21.175 L 274.638,21.02 L 274.872,19.726 Z M 283.437,22.168 L 283.529,25.05 C 283.427,26.42 283.205,27.942 282.91,29.118 L 291.423,35.942 C 295.283,34.002 297.995,33.559 300.715,34.466 C 301.993,34.889 302.803,35.16 303.337,35.361 L 303.774,35.576 L 303.048,37.023 C 302.076,38.269 300.356,39.669 298.369,40.579 L 295.464,41.432 L 294.395,41.359 C 293.414,41.299 292.236,41.238 291.89,41.248 C 292.003,41.245 289.057,41.1 286.902,43.202 C 283.65,46.516 285.48,50.332 286.389,51.528 C 287.187,52.577 288.172,53.222 288.561,53.471 C 289.234,53.903 290.116,54.347 290.818,54.678 L 291.797,55.116 L 294.621,57.033 C 295.475,57.692 296.152,58.32 296.596,58.912 C 300.399,63.977 291.21,62.711 291.238,62.717 C 287.662,61.928 286.526,56.099 280.247,52.513 L 280,52.379 L 279.477,52.112 C 278.644,51.73 276.848,51.102 277.088,51.21 L 276.884,51.112 L 271.766,54.077 L 264.304,50.308 L 264,48.83 L 262.558,49.426 L 262.251,49.271 L 262.045,49.422 L 262.825,47.559 C 263.259,45.024 261.972,42.526 260.085,41.255 C 258.176,40.005 256.154,40.017 255.548,40.021 C 254.996,40.024 254.189,40.091 253.526,40.158 L 252.766,40.244 L 251.654,39.753 L 251.702,39.739 C 253.886,39.424 257.452,39.606 259.366,40.368 L 265.827,30.55 C 263.994,28.719 262.777,25.983 262.423,24.327 L 262.378,23.158 L 262.467,23.128 L 264.699,24 C 265.802,24.684 267.178,25.781 268.599,27.366 L 268.71,27.487 C 268.889,27.679 269.383,28.135 269.833,28.544 L 270.491,29.138 L 270.736,29.451 L 281.296,24.339 C 281.079,23.451 280.908,22.822 280.794,22.342 L 280.703,21.717 L 280.512,21.738 L 283.437,22.168 Z M 292.217,53.242 C 291.971,53.249 291.927,53.271 292.03,53.27 L 292.217,53.242 Z M 265.099,55.312 L 265.273,55.617 L 265.204,55.312 L 265.333,55.312 L 265.587,56.545 L 265.132,55.649 L 265.305,56.42 L 264.846,56.092 L 264.344,55.312 L 265.099,55.312 Z M 266.396,64.043 L 266.548,63.726 L 266.472,63.925 L 266.396,64.043 Z M 203.975,88.625 L 207.786,88.354 L 207.917,92.493 C 216.392,101.479 223.617,113.339 229.527,123.214 L 232.913,125.868 C 233.966,126.192 234.973,126.558 235.936,126.971 C 251.493,133.642 267.828,148.748 275.459,164.837 C 283.746,182.31 276.013,198.375 256.33,211.863 L 253.994,218.6 C 257.934,231.226 259.454,244.597 262.076,255.878 C 264.824,267.76 266.942,282.858 267.292,297.899 L 267.292,301.69 L 277.709,305.75 L 278.74,304.628 C 280.215,302.874 281.746,300.938 283.244,298.675 C 296.494,278.784 340.9,271.927 371.358,267.581 C 372.309,267.446 372.914,267.476 373.272,267.534 L 373.681,267.646 L 373.968,268.578 C 374.185,270.068 374.037,273.084 372.231,276.71 C 366.499,288.17 357.56,299.809 348.523,308.846 C 326.381,331.002 292.249,300.767 268.924,323.736 L 268.484,324.219 L 265.84,327.46 L 264.611,330.049 L 264.174,332.187 C 262.176,340.327 259.165,347.057 255.154,351.832 L 255.378,356.527 L 255.06,356.455 C 254.982,356.439 253.518,356.056 251.922,356.404 C 248.095,357.239 246.431,360.883 247.226,364.04 L 247.636,364.896 L 236.569,367.717 C 236.668,369.889 235.898,372.393 235.166,373.736 L 234.76,374.269 L 233.983,372.496 C 233.702,371.37 233.498,369.868 233.517,368.129 L 233.512,367.823 C 233.497,367.358 233.439,366.759 233.386,366.28 L 233.314,365.697 L 233.336,365.352 L 222.051,362.164 C 221.678,362.864 221.412,363.38 221.197,363.766 L 220.751,364.428 L 220.26,364.82 L 220.428,365.031 L 215.995,369.253 C 215.974,369.391 214.858,371.553 211.077,372.039 C 207.946,372.441 205.045,367.737 198.377,366.576 L 198.093,366.534 L 197.518,366.462 L 197.178,366.429 C 196.615,366.391 194.793,366.393 195.173,366.417 L 194.914,366.392 L 191.282,370.779 L 183.311,369.874 L 182.976,369.345 L 182.871,369.411 L 182.43,369.774 L 182.187,369.746 L 181.845,369.382 L 181.922,368.083 C 181.466,365.5 179.341,363.58 177.224,363.094 L 176.276,363.064 L 178.954,351.931 C 178.435,351.687 177.604,351.186 176.704,350.455 L 169.264,350.353 C 168.76,350.74 168.208,351.102 167.632,351.423 L 165.05,354.278 C 164.943,354.524 164.284,356.104 164.244,356.197 L 171.42,363.957 L 170.832,364.218 C 170.32,364.465 169.943,364.662 169.987,364.644 L 169.75,364.731 L 165.911,371.451 L 165.921,371.549 L 164.535,372.364 C 163.617,372.69 162.24,372.898 160.376,372.482 C 157.274,371.793 156.157,366.387 150.132,362.973 L 149.525,362.663 L 149.238,362.527 C 147.363,361.693 148.526,362.371 147.124,361.746 L 147.01,361.693 L 142.111,364.627 L 134.935,361.024 L 134.804,360.443 L 134.687,360.47 L 134.185,360.648 L 133.93,360.52 L 133.757,360.123 L 134.276,358.909 C 134.725,356.364 133.431,353.852 131.557,352.594 C 129.62,351.314 127.537,351.358 126.973,351.366 C 126.45,351.373 125.729,351.436 125.125,351.499 L 130.126,343.398 C 128.932,340.705 128.154,337.623 127.618,334.178 L 127.07,329.597 L 125.761,326.517 L 123.865,324.194 L 123.426,323.712 C 100.395,301.033 65.497,330.494 43.839,308.824 C 34.804,299.79 25.862,288.135 20.118,276.681 C 18.308,273.058 18.168,270.04 18.389,268.552 L 18.678,267.623 L 19.087,267.509 C 19.446,267.451 20.055,267.421 21.012,267.558 C 50.274,271.73 95.438,278.134 109.112,298.658 L 109.334,298.97 L 111.72,302.099 L 122.354,297.183 L 118.978,281.695 C 115.625,265.161 112.758,248.56 110.276,231.946 L 106.983,227.445 C 99.435,223.744 93.21,219.079 88.569,213.439 C 68.718,189.605 71.919,159.96 94.96,140.216 C 104.984,131.618 117.325,127.252 131.416,125.163 L 135.034,123.198 C 141.554,115.809 146.844,109.421 153.276,102.186 L 154.335,95.904 C 154.058,95.234 153.777,94.564 153.492,93.9 C 151.455,89.112 146.904,85.815 145.785,84.151 C 145.107,83.134 144.846,82.439 144.749,82.019 L 144.703,81.583 L 144.726,81.516 L 145.323,81.056 C 146.496,80.352 149.287,79.285 153.504,80.489 C 156.205,81.258 159.063,83.073 162.457,85.63 L 169.704,85.61 C 182.547,75.824 193.408,79.103 203.975,88.625 Z M 119.072,347.235 L 119.59,348.068 L 119.155,348.261 L 118.911,347.56 L 119.072,347.235 Z M 216.506,347.437 L 210.965,349.524 L 207.92,352.119 L 207.112,352.345 C 206.262,352.588 205.235,352.894 204.88,353.031 C 205.009,352.982 202.137,353.834 200.8,356.591 C 198.878,360.859 202.186,363.955 203.279,364.625 C 204.355,365.284 205.454,365.534 205.882,365.627 C 206.599,365.783 207.5,365.89 208.208,365.957 L 209.149,366.028 L 212.24,366.829 L 219.729,363.19 L 219.885,362.762 L 221.14,361.223 C 221.815,360.538 222.69,359.753 223.657,359.016 L 221.512,348.438 C 220.022,348.053 218.319,347.722 216.506,347.437 Z M 259.414,359.736 L 259.725,360.511 L 259.327,360.207 L 259.153,359.868 L 259.414,359.736 Z M 259.751,360.531 L 260.133,360.874 L 260.579,361.313 L 260.889,361.665 L 260.578,362.632 L 259.744,360.526 Z M 253.767,362.314 L 253.747,362.4 L 253.045,362.577 L 253.767,362.314 Z M 122.602,362.644 L 124.607,363.606 L 124.12,363.608 L 123.494,363.583 L 123.006,363.529 L 122.602,362.644 Z M 125.091,363.567 L 125.508,363.722 L 125.406,363.989 L 124.628,363.606 L 125.091,363.567 Z M 209.182,364.232 C 208.946,364.323 208.911,364.359 209.009,364.324 L 209.182,364.232 Z M 221.557,366.451 L 223.089,368.376 L 223.696,369.662 L 221.929,370.144 L 221.557,366.451 Z M 167.24,371.716 L 170.879,372.046 L 170.984,372.301 L 171.647,372.985 L 171.232,374.371 L 167.07,372.14 L 167.24,371.716 Z M 234.661,374.907 L 234.687,374.946 L 233.529,380.411 L 234.198,375.473 L 234.661,374.907 Z M 234.789,375.1 L 235.115,375.591 L 234.516,380.009 L 234.789,375.1 Z M 172.224,375.56 L 173.77,375.714 L 173.875,376 L 174.344,375.828 L 174.449,375.782 L 175.313,375.868 L 175.261,378.663 L 172.224,375.56 Z"
             stroke-width="0.5"
             fill="#000000"
             fill-rule="evenodd"
             marker-start="none"
             marker-end="none"
             stroke-miterlimit="79.8403193612775"
             id="path87" />
          <g
             id="Group_1">
            <path
               d="M 107.009,142.748 C 127.02,126.075 141.685,104.54 160.239,85.974 C 195.005,51.197 221.833,98.734 236.53,123.23 C 239.869,128.812 253.47,151.122 245.398,155.17 C 238.044,158.836 223.996,160.495 215.24,160.495 C 185.363,160.495 116.728,176.784 107.009,142.748 Z"
               fill="#ffb2c5"
               stroke-width="0.56"
               marker-start="none"
               marker-end="none"
               stroke-miterlimit="79.8403193612775"
               id="path90" />
            <path
               d="M 170.823,186.673 C 148.187,186.73 126.089,188.702 108.242,194.207 C 99.396,196.918 101.649,202.985 101.649,213.713 C 104.71,236.786 108.431,259.873 113.107,282.931 L 116.492,298.461 L 114.106,295.332 C 98.554,271.989 48.351,265.396 21.861,261.619 C 10.191,259.948 11.074,272.002 14.753,279.367 C 20.841,291.507 30.202,303.673 39.596,313.067 C 63.374,336.858 99.295,308.371 119.217,327.988 L 121.113,330.311 L 121.674,334.996 C 123.075,344.001 126.056,351.904 134.577,357.43 C 141.247,361.746 155.026,367.351 164.195,364.528 C 169.948,362.756 169.814,355.57 172.435,353.888 C 178.265,350.097 218.929,351.723 223.459,355.66 C 226.934,358.652 230.957,366.287 236.632,366.287 C 255.33,366.287 265.388,352.42 270.029,333.505 L 270.49,331.253 L 273.134,328.012 C 293.068,308.382 328.989,336.882 352.767,313.088 C 362.161,303.694 371.522,291.543 377.6,279.39 C 381.275,272.011 382.173,259.985 370.513,261.641 C 344.012,265.423 293.797,272.011 278.247,295.356 C 276.911,297.373 275.534,299.12 274.234,300.665 L 273.292,301.69 L 273.292,297.83 C 272.931,282.292 270.758,266.788 267.921,254.523 C 263.023,233.444 260.388,193.208 236.632,190.653 C 216.62,188.489 193.456,186.639 170.823,186.673 Z"
               fill="#c2772e"
               stroke-width="0.56"
               marker-start="none"
               marker-end="none"
               stroke-miterlimit="79.8403193612775"
               id="path92" />
            <path
               d="M 119.432,219.543 C 122.974,245.262 144.264,246.921 162.01,263.031 C 176.955,276.607 177.022,283.446 179.747,303.324 C 180.476,308.515 183.177,315.68 190.397,314.594 C 197.403,313.528 197.393,272.886 201.048,266.272 C 207.662,254.231 219.254,244.456 225.88,232.425 C 244.21,199.15 177.235,207.032 158.456,209.881 C 143.669,212.109 131.807,213.118 119.432,219.543 Z"
               fill="#ffb2c5"
               stroke-width="0.56"
               marker-start="none"
               marker-end="none"
               stroke-miterlimit="79.8403193612775"
               id="path94" />
            <path
               d="M 132.436,132.242 C 146.157,120.807 156.18,106.064 168.904,93.339 C 192.727,69.513 211.103,102.084 221.171,118.88 C 223.459,122.691 232.774,137.983 227.257,140.751 C 222.213,143.263 212.584,144.395 206.597,144.395 C 186.113,144.395 139.093,155.55 132.436,132.242 Z"
               fill="#c60a45"
               stroke-width="0.368"
               marker-start="none"
               marker-end="none"
               stroke-miterlimit="79.8403193612775"
               id="path96" />
            <path
               d="M 222.294,68.501 C 207.948,82.489 195.312,100.729 186.238,111.16 C 185.151,112.409 185.283,114.305 186.533,115.392 C 187.782,116.479 189.678,116.347 190.765,115.097 C 200.61,103.78 212.248,86.677 226.483,72.796 C 240.637,58.995 256.054,49.8 272.541,53.514 C 274.157,53.878 275.763,52.862 276.127,51.247 C 276.491,49.631 275.475,48.025 273.86,47.661 C 254.195,43.231 236.722,54.432 222.294,68.501 Z"
               stroke-width="0.5"
               fill="#21b203"
               fill-rule="evenodd"
               marker-start="none"
               marker-end="none"
               stroke-miterlimit="79.8403193612775"
               id="path98" />
            <path
               d="M 274.267,56.511 C 274.122,57.712 274.49,58.954 274.267,60.144 C 273.426,64.202 269.726,72.802 264.603,72.802 C 261.486,72.802 258.448,68.867 259.188,65.569 C 259.871,62.421 262.774,58.474 264.603,55.918 C 264.86,55.548 265.612,55.716 265.812,55.312 C 265.981,54.95 266.092,54.381 265.812,54.101 C 265.612,53.901 265.489,54.651 265.209,54.707 C 264.222,54.91 263.763,55.623 262.798,55.918 C 261.542,56.287 260.477,56.408 259.188,56.511 C 256.026,56.781 248.862,56.688 250.734,51.69 C 251.206,50.457 252.562,48.867 253.75,48.071 C 254.278,47.722 255.039,47.834 255.567,47.452 C 256.128,47.06 257.348,46.646 256.766,46.254 C 255.824,45.637 253.066,46.464 251.945,46.254 C 248.795,45.693 245.04,43.068 244.704,39.628 C 243.964,32.172 257.169,33.035 261.586,34.794 C 258.29,31.5 253.437,22.606 258.571,18.514 C 263.56,14.526 270.041,19.986 273.043,23.335 C 273.852,24.232 275.085,24.998 275.467,25.761 C 275.13,24.379 274.2,21.52 274.872,19.726 C 277.002,13.832 286.038,14.648 288.729,19.123 C 290.252,21.669 289.412,27.867 288.729,30.582 C 293.259,28.305 297.732,27.147 302.608,28.773 C 306.33,30.006 310.4,31.015 309.851,36.016 C 309.189,41.879 301.432,46.792 295.97,47.452 C 295.143,47.577 291.678,46.926 291.139,47.452 C 290.445,48.159 294.39,49.66 294.75,49.875 C 296.993,51.266 299.749,53.115 301.396,55.312 C 308.18,64.348 299.077,70.605 289.941,68.576 C 283.74,67.207 282.16,60.515 277.272,57.723 C 276.33,57.184 275.209,57.004 274.267,56.511 Z"
               fill="#ffff03"
               stroke-width="0.168"
               marker-start="none"
               marker-end="none"
               stroke-miterlimit="79.8403193612775"
               id="path100" />
            <path
               d="M 276.107,50.525 C 280.434,50.525 283.947,46.743 283.947,42.083 C 283.947,37.423 280.434,33.641 276.107,33.641 C 271.78,33.641 268.267,37.423 268.267,42.083 C 268.267,46.743 271.78,50.525 276.107,50.525 Z"
               fill="#feb203"
               stroke-width="0.168"
               stroke-linejoin="miter"
               marker-start="none"
               marker-end="none"
               stroke-miterlimit="79.8403193612775"
               id="path102" />
            <path
               d="M 156.751,119.384 C 153.926,111.816 151.201,103.789 147.974,96.255 C 146.415,92.59 142.827,90.504 140.799,87.489 C 133.825,77.017 145.609,71.995 155.149,74.719 C 161.561,76.544 167.324,82.051 172.716,85.885 C 181.495,92.162 190.846,100.044 195.039,109.82 C 196.328,112.847 196.753,116.434 198.221,119.384 C 198.749,120.427 200.823,121.682 199.815,123.363 C 199.187,124.394 197.773,123.847 196.63,124.17 C 184.175,127.725 166.304,124.842 156.751,119.384 Z"
               fill="#ff6699"
               stroke-width="1.042"
               marker-start="none"
               marker-end="none"
               stroke-miterlimit="79.8403193612775"
               id="path104" />
            <path
               d="M 150.395,84.91 C 151.965,86.177 153.534,87.523 154.992,89.036 C 159.981,94.237 163.635,100.168 166.64,106.435 C 169.465,112.264 171.842,118.273 174.13,124.362 L 176.104,123.622 C 172.953,115.449 169.814,107.286 165.149,99.888 C 162.503,95.693 159.196,91.503 155.149,88.206 C 153.625,86.973 152.032,85.919 150.395,84.91 Z"
               stroke-width="1.076"
               fill="#ff99cc"
               fill-rule="evenodd"
               marker-start="none"
               marker-end="none"
               stroke-miterlimit="79.8403193612775"
               id="path106" />
            <path
               d="M 151.18,85.089 C 152.75,86.356 154.32,87.688 155.766,89.205 C 160.776,94.428 164.41,100.359 167.425,106.603 C 170.25,112.433 172.617,118.452 174.916,124.541 L 176.888,123.802 C 173.725,115.639 170.585,107.466 165.933,100.079 C 163.277,95.875 159.969,91.682 155.934,88.395 C 154.397,87.152 152.816,86.086 151.18,85.089 Z"
               stroke-width="1.076"
               fill="#990000"
               fill-rule="evenodd"
               marker-start="none"
               marker-end="none"
               stroke-miterlimit="79.8403193612775"
               id="path108" />
            <path
               d="M 83.948,217.266 C 61.94,190.843 65.605,157.469 91.055,135.661 C 117.659,112.847 157.76,117.905 195.722,117.905 C 210.307,117.905 226.284,116.301 238.301,121.457 C 255.141,128.678 272.596,144.798 280.881,162.266 C 313.595,231.247 131.203,274.693 83.948,217.266 Z"
               fill="#e27eab"
               stroke-width="0.56"
               marker-start="none"
               marker-end="none"
               stroke-miterlimit="79.8403193612775"
               id="path110" />
            <path
               d="M 161.371,325.36 C 174.575,319.28 178.273,299.095 169.623,280.304 C 160.973,261.513 143.235,251.198 130.031,257.278 C 116.827,263.358 113.129,283.543 121.779,302.334 C 130.429,321.125 148.167,331.44 161.371,325.36 Z"
               fill="#a45007"
               stroke-width="0.648"
               stroke-linejoin="miter"
               marker-start="none"
               marker-end="none"
               stroke-miterlimit="79.8403193612775"
               id="path112" />
            <path
               d="M 161.581,326.075 C 173.145,320.75 176.381,303.072 168.803,286.616 C 161.225,270.16 145.689,261.126 134.125,266.451 C 122.561,271.776 119.325,289.454 126.903,305.91 C 134.481,322.366 150.017,331.4 161.581,326.075 Z"
               fill="#ffffff"
               stroke-width="0.56"
               stroke-linejoin="miter"
               marker-start="none"
               marker-end="none"
               stroke-miterlimit="79.8403193612775"
               id="path114" />
            <path
               d="M 212.523,325.36 C 199.319,319.28 195.621,299.095 204.271,280.304 C 212.921,261.513 230.659,251.198 243.863,257.278 C 257.067,263.358 260.765,283.543 252.115,302.334 C 243.465,321.125 225.727,331.44 212.523,325.36 Z"
               fill="#a45007"
               stroke-width="0.648"
               stroke-linejoin="miter"
               marker-start="none"
               marker-end="none"
               stroke-miterlimit="79.8403193612775"
               id="path116" />
            <path
               d="M 214.027,325.122 C 202.463,319.797 199.227,302.119 206.805,285.663 C 214.383,269.207 229.919,260.173 241.483,265.498 C 253.047,270.823 256.283,288.501 248.705,304.957 C 241.127,321.413 225.591,330.447 214.027,325.122 Z"
               fill="#ffffff"
               stroke-width="0.56"
               stroke-linejoin="miter"
               marker-start="none"
               marker-end="none"
               stroke-miterlimit="79.8403193612775"
               id="path118" />
            <path
               d="M 127.266,226.729 C 114.261,216.415 116.425,203.377 131.46,194.868 C 147.178,185.966 170.866,187.939 193.301,187.939 C 201.909,187.939 211.351,187.311 218.446,189.329 C 228.402,192.143 238.717,198.432 243.605,205.249 C 262.932,232.179 155.171,249.14 127.266,226.729 Z"
               fill="#ffb2c5"
               stroke-width="0.323"
               marker-start="none"
               marker-end="none"
               stroke-miterlimit="79.8403193612775"
               id="path120" />
            <path
               d="M 118.129,221.999 C 96.986,221.999 106.75,200.081 110.102,189.329 C 113.343,178.994 118.466,170.092 133.456,174.654 C 160.698,182.961 135.07,217.581 118.129,221.999 Z"
               fill="#fce4eb"
               stroke-width="0.201"
               marker-start="none"
               marker-end="none"
               stroke-miterlimit="79.8403193612775"
               id="path122" />
            <path
               d="M 119.912,217.469 C 104.329,217.469 111.515,199.791 113.994,191.123 C 116.391,182.781 120.147,175.607 131.214,179.296 C 151.27,185.987 132.391,213.903 119.912,217.469 Z"
               fill="#8a2758"
               stroke-width="0.155"
               marker-start="none"
               marker-end="none"
               stroke-miterlimit="79.8403193612775"
               id="path124" />
            <path
               d="M 234.713,214.61 C 254.468,214.61 245.353,194.028 242.214,183.926 C 239.197,174.216 234.411,165.853 220.408,170.159 C 194.959,177.95 218.905,210.462 234.713,214.61 Z"
               fill="#fce4eb"
               stroke-width="0.189"
               marker-start="none"
               marker-end="none"
               stroke-miterlimit="79.8403193612775"
               id="path126" />
            <path
               d="M 234.657,211.954 C 250.243,211.954 243.055,194.274 240.577,185.609 C 238.188,177.267 234.411,170.092 223.379,173.781 C 203.312,180.472 222.191,208.388 234.657,211.954 Z"
               fill="#8a2758"
               stroke-width="0.155"
               marker-start="none"
               marker-end="none"
               stroke-miterlimit="79.8403193612775"
               id="path128" />
            <path
               d="M 138.175,267.798 L 136.28,268.504 C 125.552,273.46 122.547,289.87 129.577,305.152 C 136.605,320.422 151.033,328.808 161.764,323.864 C 163.12,323.235 164.343,322.449 165.429,321.51 L 165.653,321.285 L 165.485,321.342 C 155.037,324.435 141.931,316.172 135.338,301.858 C 129.62,289.433 130.541,276.271 136.841,269.119 L 138.175,267.798 Z"
               fill="#e5e5e5"
               stroke-linejoin="miter"
               stroke-width="0.516"
               marker-start="none"
               marker-end="none"
               stroke-miterlimit="79.8403193612775"
               id="path130" />
            <path
               d="M 244.726,269.736 L 243.022,268.658 C 232.607,263.052 217.696,270.521 209.725,285.341 C 201.742,300.142 203.728,316.71 214.13,322.318 C 215.43,323.023 216.81,323.506 218.222,323.807 L 218.537,323.864 L 218.379,323.763 C 209.613,317.284 208.346,301.858 215.823,287.967 C 222.304,275.924 233.367,268.738 242.864,269.48 L 244.726,269.736 Z"
               fill="#e5e5e5"
               stroke-linejoin="miter"
               stroke-width="0.516"
               marker-start="none"
               marker-end="none"
               stroke-miterlimit="79.8403193612775"
               id="path132" />
            <path
               d="M 141.676,303.401 C 151.223,303.401 158.971,295.141 158.971,284.963 C 158.971,274.785 151.223,266.525 141.676,266.525 C 132.129,266.525 124.381,274.785 124.381,284.963 C 124.381,295.141 132.129,303.401 141.676,303.401 Z"
               fill="#07a8ef"
               stroke-linejoin="miter"
               stroke-width="0.155"
               marker-start="none"
               marker-end="none"
               stroke-miterlimit="79.8403193612775"
               id="path134" />
            <path
               d="M 142.103,294.239 C 146.837,294.239 150.679,290.013 150.679,284.806 C 150.679,279.599 146.837,275.373 142.103,275.373 C 137.369,275.373 133.527,279.599 133.527,284.806 C 133.527,290.013 137.369,294.239 142.103,294.239 Z"
               stroke-linejoin="miter"
               stroke-width="0.155"
               fill="#000000"
               marker-start="none"
               marker-end="none"
               stroke-miterlimit="79.8403193612775"
               id="path136" />
            <path
               d="M 150.6,292.878 C 152.597,292.878 154.218,291.095 154.218,288.898 C 154.218,286.701 152.597,284.918 150.6,284.918 C 148.603,284.918 146.982,286.701 146.982,288.898 C 146.982,291.095 148.603,292.878 150.6,292.878 Z"
               stroke-linejoin="miter"
               fill="#ffffff"
               stroke-width="0.022"
               marker-start="none"
               marker-end="none"
               stroke-miterlimit="79.8403193612775"
               id="path138" />
            <path
               d="M 231.746,303.546 C 241.293,303.546 249.041,295.286 249.041,285.108 C 249.041,274.93 241.293,266.67 231.746,266.67 C 222.199,266.67 214.451,274.93 214.451,285.108 C 214.451,295.286 222.199,303.546 231.746,303.546 Z"
               fill="#07a8ef"
               stroke-linejoin="miter"
               stroke-width="0.155"
               marker-start="none"
               marker-end="none"
               stroke-miterlimit="79.8403193612775"
               id="path140" />
            <path
               d="M 232.183,294.407 C 236.917,294.407 240.759,290.181 240.759,284.974 C 240.759,279.767 236.917,275.541 232.183,275.541 C 227.449,275.541 223.607,279.767 223.607,284.974 C 223.607,290.181 227.449,294.407 232.183,294.407 Z"
               stroke-linejoin="miter"
               stroke-width="0.155"
               fill="#000000"
               marker-start="none"
               marker-end="none"
               stroke-miterlimit="79.8403193612775"
               id="path142" />
            <path
               d="M 239.212,295.452 C 237.094,295.452 235.375,293.561 235.375,291.231 C 235.375,288.901 237.094,287.01 239.212,287.01 C 241.33,287.01 243.049,288.901 243.049,291.231 C 243.049,293.561 241.33,295.452 239.212,295.452 Z"
               stroke-linejoin="miter"
               fill="#ffffff"
               stroke-width="0.022"
               marker-start="none"
               marker-end="none"
               stroke-miterlimit="79.8403193612775"
               id="path144" />
            <path
               d="M 112.817,315.266 C 99.799,307.83 87.523,308.886 71.996,310.838 C 47.791,313.851 38.418,295.299 28.531,277.998 C 18.81,260.979 126.302,283.772 112.817,315.266 Z"
               fill="#e27eab"
               stroke-width="0.56"
               marker-start="none"
               marker-end="none"
               stroke-miterlimit="79.8403193612775"
               id="path146" />
            <path
               d="M 282.093,317.25 C 295.107,309.805 307.373,310.857 322.9,312.808 C 347.116,315.827 356.488,297.283 366.378,279.983 C 376.097,262.964 268.616,285.755 282.093,317.25 Z"
               fill="#e27eab"
               stroke-width="0.56"
               marker-start="none"
               marker-end="none"
               stroke-miterlimit="79.8403193612775"
               id="path148" />
            <path
               d="M 144.488,367.138 C 144.362,368.238 144.699,369.394 144.488,370.491 C 143.735,374.281 140.26,382.274 135.519,382.274 C 132.615,382.274 129.778,378.608 130.474,375.536 C 131.123,372.621 133.813,368.945 135.519,366.567 C 135.765,366.23 136.449,366.386 136.627,366.007 C 136.808,365.658 136.908,365.144 136.627,364.886 C 136.449,364.704 136.325,365.39 136.079,365.433 C 135.159,365.637 134.735,366.287 133.837,366.567 C 132.671,366.914 131.673,367.026 130.474,367.138 C 127.535,367.375 120.876,367.296 122.602,362.644 C 123.041,361.49 124.318,360.009 125.416,359.28 C 125.899,358.944 126.617,359.044 127.087,358.719 C 127.636,358.338 128.779,357.956 128.231,357.588 C 127.346,357.003 124.767,357.777 123.735,357.588 C 120.809,357.06 117.333,354.617 117.008,351.421 C 116.314,344.505 128.601,345.29 132.716,346.937 C 129.644,343.853 125.136,335.603 129.9,331.791 C 134.532,328.079 140.564,333.158 143.367,336.285 C 144.106,337.117 145.26,337.819 145.609,338.529 C 145.284,337.239 144.431,334.594 145.048,332.921 C 147.043,327.419 155.451,328.191 157.941,332.36 C 159.364,334.715 158.58,340.491 157.941,343 C 162.156,340.894 166.325,339.818 170.845,341.331 C 174.32,342.487 178.097,343.425 177.582,348.058 C 176.976,353.517 169.758,358.081 164.69,358.719 C 163.894,358.81 160.71,358.205 160.194,358.719 C 159.553,359.357 163.232,360.748 163.557,360.961 C 165.632,362.251 168.189,363.956 169.745,366.007 C 176.037,374.404 167.559,380.233 159.073,378.339 C 153.31,377.06 151.842,370.838 147.29,368.259 C 146.415,367.745 145.396,367.576 144.488,367.138 Z"
               fill="#ffffff"
               stroke-width="0.155"
               marker-start="none"
               marker-end="none"
               stroke-miterlimit="79.8403193612775"
               id="path150" />
            <path
               d="M 146.206,361.547 C 150.231,361.547 153.498,358.031 153.498,353.698 C 153.498,349.365 150.231,345.849 146.206,345.849 C 142.181,345.849 138.914,349.365 138.914,353.698 C 138.914,358.031 142.181,361.547 146.206,361.547 Z"
               fill="#feb203"
               stroke-width="0.155"
               stroke-linejoin="miter"
               marker-start="none"
               marker-end="none"
               stroke-miterlimit="79.8403193612775"
               id="path152" />
            <path
               d="M 194.331,372.364 C 194.59,373.462 195.295,374.426 195.464,375.536 C 196.035,379.372 195.488,388.059 191.013,389.651 C 188.288,390.638 184.365,388.148 183.983,385.033 C 183.603,382.083 184.893,377.701 185.699,374.887 C 185.8,374.482 186.519,374.393 186.562,373.977 C 186.596,373.609 186.519,373.078 186.17,372.913 C 185.934,372.813 186.046,373.496 185.833,373.64 C 185.027,374.123 184.858,374.898 184.108,375.459 C 183.132,376.176 182.235,376.612 181.137,377.116 C 178.457,378.339 172.169,380.525 172.224,375.56 C 172.246,374.338 172.93,372.519 173.714,371.444 C 174.061,370.974 174.768,370.838 175.105,370.346 C 175.487,369.818 176.429,369.068 175.788,368.921 C 174.768,368.652 172.593,370.256 171.574,370.424 C 168.637,370.929 164.532,369.818 163.143,366.904 C 160.138,360.636 171.976,357.217 176.405,357.363 C 172.459,355.513 165.429,349.27 168.637,344.065 C 171.73,339.022 179.13,341.735 182.819,343.729 C 183.804,344.257 185.104,344.537 185.688,345.065 C 184.949,343.977 183.254,341.78 183.254,339.986 C 183.278,334.155 191.439,332.025 195.207,335.107 C 197.348,336.837 198.557,342.528 198.816,345.122 C 202.078,341.711 205.609,339.277 210.385,339.165 C 214.018,339.079 217.91,338.675 218.986,343.216 C 220.263,348.562 215.037,355.289 210.476,357.609 C 209.768,357.969 206.551,358.485 206.237,359.133 C 205.868,359.952 209.792,360.019 210.173,360.099 C 212.549,360.626 215.555,361.354 217.696,362.766 C 226.461,368.529 220.464,376.881 211.843,377.991 C 205.991,378.742 202.494,373.384 197.348,372.488 C 196.349,372.296 195.319,372.498 194.331,372.364 Z"
               fill="#ffffff"
               stroke-width="0.155"
               marker-start="none"
               marker-end="none"
               stroke-miterlimit="79.8403193612775"
               id="path154" />
            <path
               d="M 194.048,366.566 C 197.834,365.201 199.714,360.785 198.244,356.708 C 196.775,352.631 192.51,350.43 188.724,351.794 C 184.938,353.159 183.058,357.575 184.528,361.652 C 185.997,365.729 190.262,367.93 194.048,366.566 Z"
               fill="#feb203"
               stroke-width="0.155"
               stroke-linejoin="miter"
               marker-start="none"
               marker-end="none"
               stroke-miterlimit="79.8403193612775"
               id="path156" />
            <path
               d="M 247.427,344.582 C 248.267,343.832 248.795,342.753 249.703,342.095 C 252.797,339.796 260.746,336.22 264.256,339.414 C 266.397,341.374 266.037,345.971 263.458,347.778 C 261.026,349.516 256.553,350.412 253.694,351.029 C 253.291,351.107 252.887,350.546 252.471,350.692 C 252.148,350.826 251.711,351.15 251.721,351.523 C 251.756,351.792 252.292,351.344 252.517,351.478 C 253.325,351.961 254.087,351.758 254.927,352.172 C 256.038,352.7 256.833,353.271 257.809,354.009 C 260.14,355.805 265.017,360.345 260.578,362.632 C 259.513,363.182 257.562,363.417 256.251,363.227 C 255.679,363.127 255.218,362.577 254.636,362.499 C 253.985,362.419 252.887,361.949 253.045,362.577 C 253.301,363.596 255.736,364.76 256.374,365.593 C 258.168,367.958 259.099,372.106 257.204,374.684 C 253.066,380.279 244.501,371.422 242.563,367.442 C 242.763,371.792 240.531,380.907 234.445,380.536 C 228.514,380.156 227.471,372.341 227.517,368.147 C 227.517,367.04 227.145,365.737 227.348,364.984 C 226.721,366.162 225.565,368.665 223.996,369.516 C 218.828,372.218 213.12,366.007 214.074,361.231 C 214.624,358.54 219.074,354.806 221.238,353.372 C 216.698,352.083 212.907,350.076 210.566,345.915 C 208.772,342.744 206.618,339.516 210.129,336.418 C 214.231,332.79 222.65,334.258 226.822,337.218 C 227.471,337.666 229.433,340.267 230.151,340.229 C 231.058,340.2 229.289,336.689 229.164,336.297 C 228.514,333.966 227.762,330.983 228.01,328.428 C 228.985,317.978 239.176,319.358 244.188,326.467 C 247.595,331.287 244.501,336.892 246.115,341.855 C 246.431,342.832 247.069,343.64 247.427,344.582 Z"
               fill="#ffffff"
               stroke-width="0.155"
               marker-start="none"
               marker-end="none"
               stroke-miterlimit="79.8403193612775"
               id="path158" />
            <path
               d="M 242.453,347.632 C 239.475,344.926 234.693,345.331 231.778,348.537 C 228.863,351.743 228.914,356.543 231.891,359.25 C 234.869,361.956 239.651,361.551 242.566,358.345 C 245.481,355.139 245.43,350.339 242.453,347.632 Z"
               fill="#feb203"
               stroke-width="0.155"
               stroke-linejoin="miter"
               marker-start="none"
               marker-end="none"
               stroke-miterlimit="79.8403193612775"
               id="path160" />
            <path
               d="M 128.31,313.66 C 123.668,312.351 114.576,315.366 114.576,311.81 C 114.576,309.567 128.905,311.778 129.767,312.026 C 127.087,309.167 119.767,307.867 115.452,306.631 C 123.019,306.631 127.346,310.184 134.174,310.992 C 128.87,308.166 123.622,305.321 118.086,302.721 C 125.664,303.772 134.329,308.414 139.724,312.226 C 138.074,309.904 136.045,307.979 133.287,306.027 C 136.304,307.619 138.735,310.007 142.054,311.185 C 140.004,308.764 138.287,306.07 136.516,303.54 C 139.521,305.678 143.893,307.923 144.993,310.992 C 144.993,308.091 143.802,303.986 143.802,301.047 C 144.824,303.94 145.024,307.114 147.323,309.536 C 146.628,306.105 148.019,303.113 149.666,300.232 C 150.665,303.1 148.781,306.421 149.666,309.536 C 150.799,307.102 150.844,304.747 153.163,302.721 C 153.163,305.252 152.872,307.731 152.872,310.353 C 155.506,305.692 156.19,301.375 160.776,297.339 C 157.885,301.384 157.268,304.963 157.268,309.952 C 158.737,306.813 160.664,303.036 164.857,301.047 C 162.94,303.436 161.64,305.836 161.64,308.908 C 163.344,305.286 166.203,301.282 172.169,300.431 C 168.917,303.316 165.632,305.532 163.4,308.718 C 166.966,305.544 170.52,302.967 176.247,302.291 C 174.152,304.514 170.834,306.442 168.658,308.494 C 171.103,306.756 173.535,305.601 177.414,305.601 C 168.434,311.978 141.034,320.108 128.31,313.66 Z"
               fill="#000000"
               stroke-width="0.94"
               marker-start="none"
               marker-end="none"
               stroke-miterlimit="79.8403193612775"
               id="path162" />
            <path
               d="M 173.178,307.955 L 169.545,308.964 C 157.504,311.959 143.871,313.451 131.067,313.267 L 126.649,313.136 L 129.522,316.814 C 137.972,325.938 151.506,330.502 161.921,327.148 C 169.342,324.748 173.434,318.885 173.556,311.922 L 173.178,307.955 Z"
               fill="#d39936"
               stroke-width="0.56"
               marker-start="none"
               marker-end="none"
               stroke-miterlimit="79.8403193612775"
               id="path164" />
            <path
               d="M 246.486,313.123 C 251.15,311.847 260.22,314.761 260.22,311.329 C 260.22,309.167 245.892,311.273 245.016,311.51 C 247.696,308.764 255.039,307.506 259.344,306.34 C 251.778,306.34 247.451,309.749 240.633,310.521 C 245.936,307.81 251.182,305.051 256.71,302.518 C 249.143,303.562 240.476,308.035 235.083,311.721 C 236.731,309.469 238.738,307.606 241.509,305.723 C 238.503,307.261 236.047,309.591 232.74,310.712 C 234.792,308.391 236.52,305.769 238.301,303.324 C 235.286,305.387 230.902,307.563 229.825,310.521 C 229.825,307.731 230.991,303.751 230.991,300.935 C 229.982,303.708 229.769,306.778 227.482,309.12 C 228.178,305.804 226.777,302.923 225.141,300.129 C 224.142,302.897 226.024,306.116 225.141,309.12 C 223.996,306.778 223.963,304.501 221.63,302.518 C 221.63,304.971 221.911,307.373 221.911,309.916 C 219.287,305.411 218.604,301.226 214.028,297.339 C 216.9,301.263 217.538,304.704 217.538,309.512 C 216.07,306.485 214.13,302.833 209.95,300.935 C 211.866,303.225 213.166,305.532 213.166,308.515 C 211.439,305.006 208.614,301.138 202.628,300.33 C 205.889,303.1 209.164,305.252 211.406,308.315 C 207.841,305.286 204.275,302.764 198.557,302.123 C 200.644,304.277 203.962,306.139 206.138,308.123 C 203.682,306.442 201.271,305.321 197.358,305.321 C 206.372,311.465 233.759,319.323 246.486,313.123 Z"
               fill="#000000"
               stroke-width="0.94"
               marker-start="none"
               marker-end="none"
               stroke-miterlimit="79.8403193612775"
               id="path166" />
            <path
               d="M 202.201,307.461 L 205.844,308.414 C 217.886,311.329 231.507,312.763 244.322,312.595 L 248.74,312.45 L 245.857,316.004 C 237.416,324.84 223.884,329.235 213.468,325.994 C 206.037,323.696 201.945,318.012 201.832,311.297 L 202.201,307.461 Z"
               fill="#d39936"
               stroke-width="0.56"
               marker-start="none"
               marker-end="none"
               stroke-miterlimit="79.8403193612775"
               id="path168" />
          </g>
        </g>
      </g>
    </g>
  </g>
</svg>
