<?xml version="1.0" encoding="UTF-8" standalone="no"?>
<svg
   xmlns:dc="http://purl.org/dc/elements/1.1/"
   xmlns:cc="http://creativecommons.org/ns#"
   xmlns:rdf="http://www.w3.org/1999/02/22-rdf-syntax-ns#"
   xmlns:svg="http://www.w3.org/2000/svg"
   xmlns="http://www.w3.org/2000/svg"
   viewBox="0 0 800 600"
   height="600"
   width="800"
   version="1.1"
   id="svg9162">
  <metadata
     id="metadata9168">
    <rdf:RDF>
      <cc:Work
         rdf:about="">
        <dc:format>image/svg+xml</dc:format>
        <dc:type
           rdf:resource="http://purl.org/dc/dcmitype/StillImage" />
        <dc:title></dc:title>
      </cc:Work>
    </rdf:RDF>
  </metadata>
  <defs
     id="defs9166" />
  <g
     id="g10334">
    <path
       id="path10364"
       d="m 393,494.85743 c -4.675,-0.53832 -8.95,-0.96821 -9.5,-0.95532 -0.55,0.0129 -14.57861,0.15047 -31.17469,0.30573 l -30.17469,0.28229 -2.57531,-2.41938 c -3.35608,-3.15287 -3.3948,-7.28098 -0.0926,-9.87845 1.80235,-1.41773 4.878,-2.15239 11.22409,-2.68101 l 8.74144,-0.72816 -3.03438,-1.64157 c -7.97077,-4.3121 -19.45323,-19.01072 -21.30237,-27.26902 -4.11465,-18.37615 -3.50156,-33.72809 1.5955,-39.95128 0.71118,-0.86831 1.29306,-2.51323 1.29306,-3.65539 0,-2.40942 5.29215,-9.17792 11.25029,-14.38876 4.09027,-3.57725 4.12798,-3.67172 2.99358,-7.5 -3.01672,-10.1806 -4.00587,-44.08267 -1.43252,-49.09807 0.50205,-0.97847 1.17207,-4.08574 1.48893,-6.90503 l 0.57612,-5.126 -3.6882,-1.56721 c -2.02851,-0.86197 -7.30156,-3.09048 -11.71789,-4.95224 -10.07217,-4.24604 -19.5754,-11.07105 -25.72031,-18.47174 -3.97778,-4.79069 -4.75,-6.39266 -4.75,-9.85391 0,-5.36069 3.02773,-9.40291 7.04302,-9.40291 2.37943,0 4.0801,1.3865 9.50607,7.75 7.37397,8.64808 16.06976,15.2154 24.14952,18.23843 8.01853,3.00011 10.79365,2.72012 12.2747,-1.23843 2.69933,-7.21477 4.67392,-11.55417 8.0769,-17.75 5.00869,-9.11934 5.50186,-10.06118 7.3308,-14 0.89385,-1.925 3.21222,-6.2 5.15194,-9.5 1.93972,-3.3 4.18933,-7.575 4.99915,-9.5 0.80981,-1.925 2.59417,-5.75 3.96524,-8.5 2.51088,-5.03614 5.29296,-12.6094 7.34712,-20 0.61148,-2.2 2.47162,-8.54988 4.13366,-14.11084 1.66203,-5.56097 3.01733,-10.96097 3.01176,-12 -0.006,-1.03904 0.86107,-4.58916 1.92586,-7.88916 1.06479,-3.3 2.37764,-7.8 2.91745,-10 3.85016,-15.69143 8.90923,-26.96829 16.81944,-37.4912 7.13902,-9.49699 15.55714,-12.74977 33.84737,-13.07868 9.38173,-0.16871 12.39434,0.20418 20.47787,2.53466 19.46645,5.61217 30.18214,13.51649 35.7868,26.39775 9.13045,20.9846 11.73935,31.79646 14.26987,59.13747 1.68908,18.24978 2.66504,24.52341 4.30919,27.70034 0.91095,1.76019 1.65627,4.02262 1.65627,5.02764 0,1.00501 1.8,5.34701 4,9.64888 2.2,4.30187 4,8.3731 4,9.04717 0,1.67772 10.94327,23.02639 14.64796,28.57597 3.42724,5.13396 7.12661,14.39544 8.38815,21 0.47276,2.475 1.34831,6.075 1.94568,8 3.8184,12.30471 5.43648,38.74836 2.96059,48.38398 -4.59649,17.88858 -6.56969,23.88968 -10.88876,33.11602 -3.14194,6.71177 -5.50089,9.79224 -14.6493,19.13001 -9.79537,9.9981 -11.8196,11.56022 -19.90432,15.3603 -9.31911,4.3803 -30.2766,11.53313 -36.62954,12.50174 C 465.49609,456.15899 465,457.76472 465,471.25651 l 0,9.0065 7.40452,-0.47519 c 4.07249,-0.26136 11.15999,0.0722 15.75,0.74123 5.06528,0.73831 9.25543,0.8734 10.66058,0.34369 4.31488,-1.62661 8.95633,-1.03715 10.6282,1.34977 2.41805,3.45226 1.97307,8.45203 -1.0185,11.4436 -2.34663,2.34663 -3.07891,2.52214 -8.25,1.97737 -6.30971,-0.66473 -64.13661,-0.79637 -85.1748,-0.1939 -7.425,0.21263 -17.325,-0.0538 -22,-0.59215 z M 413.02137,479 c 1.13652,-1.79829 1.17874,-12.90944 0.0703,-18.5 l -0.79309,-4 -1.56608,3.5 c -1.69988,3.79906 -13.51058,16.28631 -17.96746,18.99671 -2.6843,1.63242 -2.46304,1.67494 8.27515,1.59028 8.65042,-0.0682 11.23792,-0.41094 11.9812,-1.58699 z m 34.56054,0.7179 c 0.1014,-0.11984 0.34946,-5.38491 0.55123,-11.70015 L 448.5,456.53549 441,456.36874 c -4.125,-0.0917 -8.34707,-0.3247 -9.38238,-0.51775 -2.28836,-0.42669 -2.64068,2.47441 -1.86366,15.34605 l 0.525,8.69705 3.11052,0.44574 c 2.79103,0.39997 13.73349,-0.0795 14.19243,-0.62193 z"
       style="fill:#eeeed8" />
    <path
       id="path10362"
       d="m 409.95936,494.63492 c -1.17018,-1.18942 -23.96779,-1.97119 -54.33214,-1.86313 C 320.32429,492.89742 319,492.68585 319,486.92017 c 0,-4.10602 2.58837,-5.05491 15.90365,-5.83023 L 346.5,480.4147 341,477.82617 c -3.025,-1.42369 -7.78573,-4.7795 -10.57941,-7.45735 -8.81131,-8.446 -13.15203,-15.59661 -14.434,-23.77764 -0.43878,-2.80015 -1.36969,-7.90368 -2.06869,-11.34118 -1.53219,-7.53492 -0.30008,-15.88515 3.49453,-23.68294 1.35617,-2.78688 2.75529,-6.10098 3.10916,-7.36465 0.35387,-1.26368 3.7509,-5.37444 7.54897,-9.13502 6.47394,-6.41006 6.84552,-7.0165 5.94487,-9.70241 -0.91238,-2.72088 -2.45502,-15.02079 -3.6961,-29.4701 -0.49632,-5.77835 1.74047,-21.85894 4.33518,-31.16625 0.51491,-1.84698 -1.14293,-2.75432 -16.87001,-9.23295 C 303.80611,309.7374 288,295.3979 288,288.4748 c 0,-2.07977 0.88866,-4.3964 2.32862,-6.07046 3.25278,-3.78157 6.51959,-2.74135 11.13454,3.54547 9.09464,12.38939 24.45441,22.00271 35.2136,22.03937 2.57,0.009 3.47724,-0.59152 4.75,-3.14282 0.86528,-1.7345 1.57324,-3.76849 1.57324,-4.51998 0,-1.20098 6.49862,-14.35512 10.53599,-21.32638 0.79633,-1.375 2.12331,-4.075 2.94885,-6 0.82554,-1.925 3.31693,-6.65 5.53641,-10.5 2.21949,-3.85 4.51898,-8.125 5.10998,-9.5 0.591,-1.375 2.34744,-5.2 3.90318,-8.5 1.55575,-3.3 3.95211,-9.6 5.32524,-14 3.57739,-11.46318 7.32762,-24.28044 8.63148,-29.5 0.61826,-2.475 1.73719,-6.75 2.48651,-9.5 0.74933,-2.75 2.0665,-7.7 2.92706,-11 3.49838,-13.41542 4.49392,-16.30144 7.98724,-23.15474 10.71354,-21.01812 20.45902,-26.87649 43.34002,-26.05332 6.55303,0.23576 13.76222,1.08289 16.26804,1.91162 2.475,0.81853 7.03452,2.23888 10.13227,3.15633 5.93944,1.75906 17.84941,9.7925 21.42999,14.45482 3.23967,4.21841 7.43774,11.88708 7.43774,13.58661 0,0.84985 0.84348,3.46972 1.8744,5.82193 4.84896,11.06368 6.71944,19.53331 9.22618,41.77675 3.00175,26.63584 3.55251,30.19744 5.29139,34.21788 0.88442,2.04484 1.60803,4.44931 1.60803,5.34327 0,0.89396 1.73555,5.07092 3.85679,9.28212 2.12123,4.2112 4.19452,8.78173 4.60731,10.15673 1.14798,3.82395 10.44549,21.97625 13.65152,26.653 3.27242,4.7736 7.65691,15.77472 8.90638,22.347 0.47052,2.475 1.51379,6.75 2.31837,9.5 2.25287,7.70015 2.70668,11.38956 3.1778,25.83506 0.52474,16.08946 -1.59868,27.72281 -8.33515,45.66494 -3.79644,10.11153 -6.29032,13.75047 -17.63152,25.72698 -8.43284,8.90524 -10.83762,10.80425 -18.60687,14.69355 -9.6875,4.84958 -32.15504,12.57012 -36.65205,12.59478 -5.04278,0.0276 -5.47298,0.94358 -6.33368,13.48466 -0.44301,6.45496 -0.58518,12.31036 -0.31594,13.01198 0.48792,1.27149 15.74994,1.95667 36.00776,1.61654 8.04889,-0.13514 8.16273,-0.10237 9.11263,2.62251 2.09623,6.01323 -2.90415,11.02122 -9.43064,9.44498 -4.03875,-0.97542 -68.45653,-0.67849 -81.33271,0.3749 -4.125,0.33746 -7.74329,0.36628 -8.04064,0.064 z M 412.25,481.11719 c 3.01684,-1.17129 3.23736,-2.65645 2.76441,-18.61719 -0.29387,-9.917 -1.15558,-10.83741 -4.58442,-4.89672 -4.94807,8.57284 -16.62914,20.28991 -22.66113,22.73097 -1.00371,0.40618 -0.98685,0.71131 0.0806,1.46014 1.75933,1.23412 20.84163,0.70452 24.40049,-0.6772 z M 442.5,482 c 0.33992,-0.55 1.94148,-1 3.55902,-1 2.63759,0 2.94791,-0.33527 3.00813,-3.25 0.0369,-1.7875 0.14943,-7.525 0.25,-12.75 l 0.18285,-9.5 -6,-0.0387 c -3.3,-0.0213 -7.85107,-0.38795 -10.1135,-0.81484 l -4.1135,-0.77616 -0.55463,5.81483 c -0.30505,3.19816 -0.25398,9.41484 0.11349,13.81484 l 0.66814,8 4,0.60809 c 6.43267,0.97792 8.34299,0.95498 9,-0.10809 z m -93.3496,-45.08049 c 2.14838,-1.14978 4.8496,-6.59095 4.8496,-9.76873 0,-1.05241 -1.43543,-3.31686 -3.18984,-5.03212 -5.23097,-5.11424 -11.58495,-3.98677 -14.31181,2.53953 -2.19413,5.25129 -1.88748,6.79297 2.03645,10.23822 3.67144,3.22357 7.13805,3.88423 10.6156,2.0231 z m -8.60673,-2.26392 c -1.45726,-1.06557 -1.66442,-1.94704 -0.99881,-4.25 0.46188,-1.59807 0.91161,-3.58059 0.9994,-4.40559 0.0878,-0.825 0.22625,-2.0625 0.30768,-2.75 0.21158,-1.7863 5.28267,-1.54445 8.03478,0.38321 1.92756,1.35012 2.23354,2.23828 1.76525,5.12403 -1.02775,6.3333 -5.74727,9.08721 -10.1083,5.89835 z m 50.49591,-7.69647 c 2.50205,-1.30704 4.27988,-5.55016 3.54772,-8.4673 -2.50748,-9.99061 -18.5873,-9.93865 -18.5873,0.06 0,1.76178 0.64841,3.74137 1.44092,4.39909 1.2008,0.99658 1.54304,0.55872 2.05379,-2.62755 0.88461,-5.51866 1.8253,-6.78525 5.29718,-7.13237 6.06788,-0.60668 9.70523,7.23912 5.23261,11.28679 -1.53545,1.38956 -3.03701,1.66815 -6.74095,1.25066 l -4.76546,-0.53713 2.40529,1.94768 c 2.39867,1.94232 6.18244,1.87503 10.1162,-0.17992 z"
       style="fill:#d6d6ab" />
    <path
       id="path10360"
       d="m 409.66316,493.32983 c -1.9222,-1.9222 -46.52886,-3.35235 -73.82948,-2.36708 C 323.51778,491.40722 321,490.7198 321,486.91274 c 0,-3.23312 3.30916,-3.96918 15.71485,-3.49545 6.48183,0.24752 12.74686,0.74409 13.92229,1.10349 1.17543,0.3594 2.42733,0.18392 2.782,-0.38995 0.3753,-0.60724 -3.01303,-2.78924 -8.10563,-5.21984 C 334.66805,473.83012 328.35823,468.58025 322.58439,460 c -4.71586,-7.00803 -5.73425,-10.05063 -7.60626,-22.72495 -1.5254,-10.32764 -0.62861,-17.83538 2.94101,-24.62134 1.52003,-2.88961 3.0643,-6.4516 3.43172,-7.91552 0.36743,-1.46393 3.88522,-5.82824 7.81732,-9.69846 l 7.14928,-7.03677 -1.12263,-3.75148 c -0.61745,-2.06331 -1.62331,-9.13767 -2.23525,-15.72078 -0.61194,-6.58312 -1.25932,-12.20812 -1.43861,-12.5 -0.58092,-0.94572 1.43354,-18.07492 2.332,-19.82918 0.47929,-0.93583 1.14237,-4.42622 1.47351,-7.75642 l 0.60207,-6.05489 -9.21427,-3.83079 c -18.1215,-7.53393 -22.66052,-10.31474 -31.06249,-19.03027 -7.9439,-8.24038 -9.20272,-12.91062 -4.60215,-17.07408 2.77874,-2.51472 6.39578,-1.11357 9.81832,3.80338 C 309.52225,298.69156 326.30094,309 337.88358,309 c 2.57647,0 3.40374,-0.64287 5.0961,-3.96016 1.11117,-2.17809 2.02032,-4.49701 2.02032,-5.15316 0,-1.73776 5.3681,-12.82082 8.9307,-18.43846 1.68812,-2.66188 3.0693,-5.37192 3.0693,-6.0223 0,-0.65039 1.97026,-4.72479 4.37837,-9.05422 7.71767,-13.87532 13.0927,-24.8533 14.42568,-29.46311 0.5421,-1.87472 3.28296,-10.7906 6.09079,-19.81306 C 384.70268,208.07307 387,199.67561 387,198.43451 c 0,-1.2411 0.85405,-4.65908 1.8979,-7.59553 1.91425,-5.38499 2.95808,-9.18829 5.03322,-18.33898 1.62301,-7.15695 8.66372,-21.23281 13.19619,-26.38197 2.12998,-2.41979 3.87269,-4.74349 3.87269,-5.1638 0,-1.24412 8.16074,-5.65254 12.75019,-6.88763 2.33761,-0.62909 9.53761,-1.29389 16,-1.47733 9.33482,-0.26499 12.98302,0.0486 17.74981,1.52569 3.3,1.02258 6.675,1.86944 7.5,1.88191 2.6569,0.0402 11.33936,4.56423 17.25223,8.98942 6.31938,4.72943 10.7909,10.74059 13.29573,17.87371 0.89615,2.552 2.08026,5.48673 2.63137,6.52162 3.05265,5.73239 7.44543,26.06798 8.77415,40.61838 0.62781,6.875 1.55436,14.975 2.059,18 0.50463,3.025 1.20182,7.74407 1.54931,10.48683 0.34748,2.74275 1.26323,6.2079 2.035,7.70034 0.77176,1.49243 1.40321,3.44095 1.40321,4.33005 0,0.88909 1.97676,5.74894 4.39279,10.79966 2.41604,5.05071 4.72154,10.30812 5.12334,11.68312 1.08031,3.69694 9.45993,19.8877 12.69241,24.52376 2.988,4.28543 7.45664,15.36822 8.86093,21.97624 0.46753,2.2 1.33344,5.575 1.92424,7.5 5.46475,17.80552 5.34573,40.49575 -0.31995,61 -5.13999,18.60178 -8.58451,24.59765 -21.99746,38.29089 -9.72813,9.93142 -12.20286,11.88698 -19.09884,15.09213 -10.95809,5.09316 -23.59513,9.47478 -33.07019,11.46638 -7.54763,1.58647 -8.02831,1.84627 -8.63168,4.66531 -1.1914,5.56633 -0.96108,24.31442 0.30833,25.09896 0.65115,0.40243 7.51365,0.93357 15.25,1.18029 7.73634,0.24673 15.41608,0.49263 17.06608,0.54645 1.65,0.0538 4.45646,-0.26018 6.23658,-0.69778 2.86562,-0.70445 3.36899,-0.50503 4.39185,1.7399 0.94551,2.07516 0.83961,3.0173 -0.58325,5.18886 -1.58059,2.41229 -2.11579,2.58717 -5.89185,1.92517 -7.16234,-1.25565 -25.83176,-1.38706 -33.65333,-0.23687 -9.80193,1.44142 -21.93305,1.40104 -24.68426,-0.0821 C 439.31033,490.55731 429.04342,490.76022 426,492.5 c -2.54248,1.45341 -15.07658,2.09008 -16.33684,0.82983 z m -0.0284,-10.27493 5.13479,-1.37394 0.59047,-7.59048 c 0.32476,-4.17476 0.39662,-9.84048 0.1597,-12.59048 -0.23693,-2.75 -0.4508,-6.0125 -0.47527,-7.25 -0.0712,-3.59954 -1.82102,-2.63588 -5.44754,3 -8.17548,12.70529 -16.43265,20.20611 -25.59296,23.24868 -4.94371,1.64204 -6.21266,3.64233 -1.77785,2.80249 1.25063,-0.23683 3.29869,-0.0495 4.55125,0.41631 3.44887,1.28258 17.06271,0.88795 22.85741,-0.66258 z m 32.42779,0.38847 c 0.94603,-0.85615 3.00646,-1.69254 4.57874,-1.85864 l 2.85868,-0.30201 0.67351,-12.39136 c 0.77732,-14.30127 0.37682,-15.1736 -6.56244,-14.29377 -2.26109,0.28668 -6.21397,0.10906 -8.78419,-0.39471 -2.57022,-0.50377 -5.12557,-0.63631 -5.67856,-0.29455 -1.91748,1.18507 -1.7384,27.35706 0.19819,28.96428 1.00907,0.83746 2.78984,1.20336 9.57475,1.96735 0.78169,0.088 2.19529,-0.54044 3.14132,-1.39659 z M 348.58261,437.7804 C 351.08612,436.63973 355,429.78037 355,426.53346 355,424.53785 347.26304,418 344.90141,418 c -3.80614,0 -7.69939,3.1825 -9.42691,7.70593 -1.54639,4.04919 -1.54744,4.53381 -0.0148,6.87296 1.72201,2.62811 7.17056,6.41093 9.24322,6.41737 0.66162,0.002 2.40747,-0.54508 3.87966,-1.21586 z M 342.5,434.80505 c -2.56545,-1.45477 -3.53215,-2.94401 -2.74148,-4.22334 0.3446,-0.55758 0.88425,-2.59922 1.19923,-4.53698 0.66875,-4.11424 2.926,-5.00615 6.59142,-2.60447 3.08078,2.0186 3.24329,6.28258 0.37825,9.92488 -2.32507,2.95584 -2.61737,3.03339 -5.42742,1.43991 z m 49.69238,-8.4703 c 3.30603,-2.97757 3.96763,-5.93134 2.17196,-9.6969 C 392.4534,412.63055 388.3535,410 384.01878,410 380.23583,410 375,414.67634 375,418.05504 c 0,2.60535 3.44463,8.49444 5.82774,9.96334 2.37176,1.46191 8.95496,0.48663 11.36464,-1.68363 z m -10.54954,-1.60665 c -1.39632,-1.02101 -1.60492,-2.11307 -1.05752,-5.53632 1.08212,-6.76721 6.92645,-7.97039 9.98508,-2.05564 3.05488,5.90748 -3.54993,11.52418 -8.92756,7.59196 z"
       style="fill:#f9d85c" />
    <path
       id="path10358"
       d="m 409.66316,493.32983 c -1.9222,-1.9222 -46.52886,-3.35235 -73.82948,-2.36708 -8.68019,0.31326 -12.07169,0.0846 -13.25,-0.8933 -2.17483,-1.80495 -1.98722,-4.78311 0.38117,-6.05064 2.13722,-1.1438 24.29582,-0.75398 27.29788,0.48024 0.97835,0.40222 2.40065,0.19528 3.1963,-0.46504 1.35955,-1.12833 19.94112,-0.99221 42.04097,0.30798 4.42182,0.26014 9.25793,-0.17018 13.13049,-1.16837 l 6.13049,-1.58019 0.60845,-7.04671 c 0.72262,-8.36881 -0.10034,-21.65784 -1.42389,-22.99297 -1.02559,-1.03456 -2.92552,0.981 -5.6051,5.94625 -2.57322,4.76814 -11.24917,14.34634 -15.73235,17.36843 C 384.89967,480.06464 377.48156,482 365.27328,482 c -9.7307,0 -11.53382,-0.2797 -15.39733,-2.38841 -2.40677,-1.31362 -6.1156,-2.94073 -8.24183,-3.61579 -6.66502,-2.1161 -20.69273,-17.59877 -22.58155,-24.92372 C 317.22306,443.97714 315,431.88078 315,429.0208 c 0,-5.27743 2.11103,-12.90532 4.5774,-16.53971 1.33243,-1.96345 2.4226,-4.22388 2.4226,-5.02318 0,-2.44417 6.87565,-11.18699 10.46185,-13.3029 3.27047,-1.92962 6.51871,-6.15501 4.73162,-6.15501 -1.53508,0 -3.08783,-7.14021 -4.23389,-19.4693 -0.61194,-6.58312 -1.25932,-12.20812 -1.43861,-12.5 -0.58092,-0.94572 1.43354,-18.07492 2.332,-19.82918 0.47929,-0.93583 1.14237,-4.42622 1.47351,-7.75642 l 0.60207,-6.05489 -9.21427,-3.83079 c -18.1215,-7.53393 -22.66052,-10.31474 -31.06249,-19.03027 -7.9439,-8.24038 -9.20272,-12.91062 -4.60215,-17.07408 2.77874,-2.51472 6.39578,-1.11357 9.81832,3.80338 C 309.52225,298.69156 326.30094,309 337.88358,309 c 2.57647,0 3.40374,-0.64287 5.0961,-3.96016 1.11117,-2.17809 2.02032,-4.49701 2.02032,-5.15316 0,-1.73776 5.3681,-12.82082 8.9307,-18.43846 1.68812,-2.66188 3.0693,-5.37192 3.0693,-6.0223 0,-0.65039 1.97026,-4.72479 4.37837,-9.05422 7.71767,-13.87532 13.0927,-24.8533 14.42568,-29.46311 0.5421,-1.87472 3.28296,-10.7906 6.09079,-19.81306 C 384.70268,208.07307 387,199.67561 387,198.43451 c 0,-1.2411 0.85405,-4.65908 1.8979,-7.59553 1.91425,-5.38499 2.95808,-9.18829 5.03322,-18.33898 1.62301,-7.15695 8.66372,-21.23281 13.19619,-26.38197 2.12998,-2.41979 3.87269,-4.74349 3.87269,-5.1638 0,-1.24412 8.16074,-5.65254 12.75019,-6.88763 2.33761,-0.62909 9.53761,-1.29389 16,-1.47733 9.33482,-0.26499 12.98302,0.0486 17.74981,1.52569 3.3,1.02258 6.675,1.86944 7.5,1.88191 2.6569,0.0402 11.33936,4.56423 17.25223,8.98942 6.31938,4.72943 10.7909,10.74059 13.29573,17.87371 0.89615,2.552 2.08026,5.48673 2.63137,6.52162 3.05265,5.73239 7.44543,26.06798 8.77415,40.61838 0.62781,6.875 1.55436,14.975 2.059,18 0.50463,3.025 1.20182,7.74407 1.54931,10.48683 0.34748,2.74275 1.26323,6.2079 2.035,7.70034 0.77176,1.49243 1.40321,3.44095 1.40321,4.33005 0,0.88909 1.97676,5.74894 4.39279,10.79966 2.41604,5.05071 4.72154,10.30812 5.12334,11.68312 1.08031,3.69694 9.45993,19.8877 12.69241,24.52376 2.988,4.28543 7.45664,15.36822 8.86093,21.97624 0.46753,2.2 1.33344,5.575 1.92424,7.5 5.46475,17.80552 5.34573,40.49575 -0.31995,61 -5.13999,18.60178 -8.58451,24.59765 -21.99746,38.29089 -9.72813,9.93142 -12.20286,11.88698 -19.09884,15.09213 -10.95809,5.09316 -23.59513,9.47478 -33.07019,11.46638 -7.54763,1.58647 -8.02831,1.84627 -8.63168,4.66531 -1.1914,5.56633 -0.96108,24.31442 0.30833,25.09896 0.65115,0.40243 7.51365,0.93357 15.25,1.18029 7.73634,0.24673 15.41608,0.49263 17.06608,0.54645 1.65,0.0538 4.45646,-0.26018 6.23658,-0.69778 2.86562,-0.70445 3.36899,-0.50503 4.39185,1.7399 0.94551,2.07516 0.83961,3.0173 -0.58325,5.18886 -1.58059,2.41229 -2.11579,2.58717 -5.89185,1.92517 -7.16234,-1.25565 -25.83176,-1.38706 -33.65333,-0.23687 -9.80193,1.44142 -21.93305,1.40104 -24.68426,-0.0821 C 439.31033,490.55731 429.04342,490.76022 426,492.5 c -2.54248,1.45341 -15.07658,2.09008 -16.33684,0.82983 z m 32.39942,-9.88646 c 0.94603,-0.85615 3.00646,-1.69254 4.57874,-1.85864 l 2.85868,-0.30201 0.67351,-12.39136 c 0.77732,-14.30127 0.37682,-15.1736 -6.56244,-14.29377 -2.26109,0.28668 -6.21397,0.10906 -8.78419,-0.39471 -2.57022,-0.50377 -5.12557,-0.63631 -5.67856,-0.29455 -1.91748,1.18507 -1.7384,27.35706 0.19819,28.96428 1.00907,0.83746 2.78984,1.20336 9.57475,1.96735 0.78169,0.088 2.19529,-0.54044 3.14132,-1.39659 z m -91.04259,-45.4576 c 3.51238,-2.50104 6.62213,-10.91744 5.09096,-13.77847 -1.96395,-3.66966 -7.77291,-7.20849 -11.79423,-7.18506 -4.38543,0.0255 -7.41239,2.10762 -9.70876,6.6781 -2.64259,5.25957 -2.07467,8.16536 2.43415,12.4545 4.72471,4.4945 9.38073,5.10439 13.97788,1.83093 z M 342.5,434.80505 c -2.56545,-1.45477 -3.53215,-2.94401 -2.74148,-4.22334 0.3446,-0.55758 0.88425,-2.59922 1.19923,-4.53698 0.66875,-4.11424 2.926,-5.00615 6.59142,-2.60447 3.08078,2.0186 3.24329,6.28258 0.37825,9.92488 -2.32507,2.95584 -2.61737,3.03339 -5.42742,1.43991 z m 48.5,-6.14053 c 1.375,-0.65298 3.3618,-2.79168 4.41511,-4.75267 1.8868,-3.51276 1.8868,-3.623 0,-7.46081 -2.24409,-4.56451 -6.97477,-7.60817 -12.04875,-7.75199 -2.96699,-0.0841 -4.22822,0.57371 -7.09255,3.69924 -3.82972,4.17894 -3.9703,7.0829 -0.59246,12.23814 3.84879,5.87399 8.72926,7.15733 15.31865,4.02809 z m -9.35716,-3.93642 c -1.39632,-1.02101 -1.60492,-2.11307 -1.05752,-5.53632 1.08212,-6.76721 6.92645,-7.97039 9.98508,-2.05564 3.05488,5.90748 -3.54993,11.52418 -8.92756,7.59196 z"
       style="fill:#fbd72b" />
    <path
       id="path10356"
       d="m 409.66316,493.32983 c -1.9222,-1.9222 -46.52886,-3.35235 -73.82948,-2.36708 -8.68019,0.31326 -12.07169,0.0846 -13.25,-0.8933 -2.17483,-1.80495 -1.98722,-4.78311 0.38117,-6.05064 2.13722,-1.1438 24.29582,-0.75398 27.29788,0.48024 0.97835,0.40222 2.40065,0.19528 3.1963,-0.46504 1.35955,-1.12833 19.94112,-0.99221 42.04097,0.30798 4.42182,0.26014 9.25793,-0.17018 13.13049,-1.16837 l 6.13049,-1.58019 0.60845,-7.04671 c 0.80106,-9.27731 -0.14378,-21.70967 -1.7756,-23.36375 -1.0706,-1.0852 -1.88974,-0.3811 -4.65354,4 -4.94801,7.84346 -11.7517,15.5912 -16.65234,18.96292 -7.78094,5.35343 -14.40907,7.04715 -27.18397,6.94645 -6.26782,-0.0494 -11.93448,-0.53671 -12.59259,-1.08289 -0.65811,-0.54618 -4.45048,-2.33486 -8.42747,-3.97485 -8.97344,-3.70034 -18.35441,-12.77684 -23.39615,-22.63679 -2.85236,-5.57826 -5.68388,-27.63842 -4.08299,-31.81028 0.94373,-2.4593 2.39514,-0.81072 2.39601,2.72149 0.002,8.41942 10.17328,21.83779 19.99921,26.38398 8.89571,4.11581 13.84846,4.64665 22.88613,2.45299 4.47478,-1.08613 9.57172,-2.81332 11.32652,-3.83818 3.12112,-1.82283 10.03069,-10.6117 11.81935,-15.03403 0.49523,-1.22442 2.5636,-3.02442 4.59639,-4 10.04787,-4.82221 10.09199,-15.27991 0.0875,-20.75655 -2.54075,-1.39086 -4.10126,-3.23766 -5.2274,-6.18642 -1.80155,-4.71727 -11.86346,-14.09673 -17.13802,-15.97562 -1.01779,-0.36255 -2.63768,-1.33523 -3.59978,-2.1615 -1.16694,-1.00221 -3.58039,-1.44248 -7.25,-1.32257 -6.24115,0.20395 -6.99455,-0.38261 -2.25074,-1.75234 2.87012,-0.82872 2.95779,-0.94859 0.75,-1.02551 -1.375,-0.0479 -5.6242,1.48651 -9.44267,3.40981 -3.81846,1.92331 -7.45973,3.49692 -8.09171,3.49692 -1.80068,0 -3.29739,-6.46686 -4.50604,-19.4693 -0.61194,-6.58312 -1.25932,-12.20812 -1.43861,-12.5 -0.58092,-0.94572 1.43354,-18.07492 2.332,-19.82918 0.47929,-0.93583 1.14237,-4.42622 1.47351,-7.75642 l 0.60207,-6.05489 -9.21427,-3.83079 c -18.1215,-7.53393 -22.66052,-10.31474 -31.06249,-19.03027 -7.9439,-8.24038 -9.20272,-12.91062 -4.60215,-17.07408 2.77874,-2.51472 6.39578,-1.11357 9.81832,3.80338 C 309.52225,298.69156 326.30094,309 337.88358,309 c 2.57647,0 3.40374,-0.64287 5.0961,-3.96016 1.11117,-2.17809 2.02032,-4.49701 2.02032,-5.15316 0,-1.73776 5.3681,-12.82082 8.9307,-18.43846 1.68812,-2.66188 3.0693,-5.37192 3.0693,-6.0223 0,-0.65039 1.97026,-4.72479 4.37837,-9.05422 7.71767,-13.87532 13.0927,-24.8533 14.42568,-29.46311 0.5421,-1.87472 3.28296,-10.7906 6.09079,-19.81306 C 384.70268,208.07307 387,199.67561 387,198.43451 c 0,-1.2411 0.85405,-4.65908 1.8979,-7.59553 1.91425,-5.38499 2.95808,-9.18829 5.03322,-18.33898 1.62301,-7.15695 8.66372,-21.23281 13.19619,-26.38197 2.12998,-2.41979 3.87269,-4.74349 3.87269,-5.1638 0,-1.24412 8.16074,-5.65254 12.75019,-6.88763 2.33761,-0.62909 9.53761,-1.29389 16,-1.47733 9.33482,-0.26499 12.98302,0.0486 17.74981,1.52569 3.3,1.02258 6.675,1.86944 7.5,1.88191 2.6569,0.0402 11.33936,4.56423 17.25223,8.98942 6.31938,4.72943 10.7909,10.74059 13.29573,17.87371 0.89615,2.552 2.08026,5.48673 2.63137,6.52162 3.05265,5.73239 7.44543,26.06798 8.77415,40.61838 0.62781,6.875 1.55436,14.975 2.059,18 0.50463,3.025 1.20182,7.74407 1.54931,10.48683 0.34748,2.74275 1.26323,6.2079 2.035,7.70034 0.77176,1.49243 1.40321,3.44095 1.40321,4.33005 0,0.88909 1.97676,5.74894 4.39279,10.79966 2.41604,5.05071 4.72154,10.30812 5.12334,11.68312 1.08031,3.69694 9.45993,19.8877 12.69241,24.52376 2.988,4.28543 7.45664,15.36822 8.86093,21.97624 0.46753,2.2 1.33344,5.575 1.92424,7.5 5.46475,17.80552 5.34573,40.49575 -0.31995,61 -5.13999,18.60178 -8.58451,24.59765 -21.99746,38.29089 -9.72813,9.93142 -12.20286,11.88698 -19.09884,15.09213 -10.95809,5.09316 -23.59513,9.47478 -33.07019,11.46638 -7.54763,1.58647 -8.02831,1.84627 -8.63168,4.66531 -1.1914,5.56633 -0.96108,24.31442 0.30833,25.09896 0.65115,0.40243 7.51365,0.93357 15.25,1.18029 7.73634,0.24673 15.41608,0.49263 17.06608,0.54645 1.65,0.0538 4.45646,-0.26018 6.23658,-0.69778 2.86562,-0.70445 3.36899,-0.50503 4.39185,1.7399 0.94551,2.07516 0.83961,3.0173 -0.58325,5.18886 -1.58059,2.41229 -2.11579,2.58717 -5.89185,1.92517 -7.16234,-1.25565 -25.83176,-1.38706 -33.65333,-0.23687 -9.80193,1.44142 -21.93305,1.40104 -24.68426,-0.0821 C 439.31033,490.55731 429.04342,490.76022 426,492.5 c -2.54248,1.45341 -15.07658,2.09008 -16.33684,0.82983 z m 32.39942,-9.88646 c 0.94603,-0.85615 3.00646,-1.69254 4.57874,-1.85864 l 2.85868,-0.30201 0.67351,-12.39136 c 0.77732,-14.30127 0.37682,-15.1736 -6.56244,-14.29377 -2.26109,0.28668 -6.21397,0.10906 -8.78419,-0.39471 -2.57022,-0.50377 -5.12557,-0.63631 -5.67856,-0.29455 -1.91748,1.18507 -1.7384,27.35706 0.19819,28.96428 1.00907,0.83746 2.78984,1.20336 9.57475,1.96735 0.78169,0.088 2.19529,-0.54044 3.14132,-1.39659 z m -83.55681,-39.42518 c -0.39374,-1.24057 -0.22592,-2.69804 0.38049,-3.30445 1.23684,-1.23684 11.73506,-4.67679 14.34069,-4.69901 2.19926,-0.0188 5.01146,4.2004 4.20335,6.3063 -0.76883,2.00354 -2.16709,2.41357 -11.07519,3.24767 -6.78461,0.63527 -7.18041,0.55709 -7.84934,-1.55051 z M 342.5,434.80505 c -2.56545,-1.45477 -3.53215,-2.94401 -2.74148,-4.22334 0.3446,-0.55758 0.88425,-2.59922 1.19923,-4.53698 0.66875,-4.11424 2.926,-5.00615 6.59142,-2.60447 3.08078,2.0186 3.24329,6.28258 0.37825,9.92488 -2.32507,2.95584 -2.61737,3.03339 -5.42742,1.43991 z m 39.14284,-10.07695 c -1.39632,-1.02101 -1.60492,-2.11307 -1.05752,-5.53632 1.08212,-6.76721 6.92645,-7.97039 9.98508,-2.05564 3.05488,5.90748 -3.54993,11.52418 -8.92756,7.59196 z"
       style="fill:#b1b095" />
    <path
       id="path10354"
       d="m 408.57143,491.42857 c -2.96564,-2.96564 -1.07943,-6.93343 3.92973,-8.26652 2.74325,-0.73006 3.05553,-1.26105 3.66402,-6.23007 0.36585,-2.98759 0.41269,-9.83879 0.10409,-15.22488 -0.45576,-7.95463 -0.89141,-9.96969 -2.32078,-10.73467 -1.45558,-0.779 -2.33021,-0.0371 -5.06105,4.29291 -4.89681,7.76439 -11.71592,15.52057 -16.59949,18.88055 -7.78094,5.35343 -14.40907,7.04715 -27.18397,6.94645 -6.26782,-0.0494 -11.93448,-0.53671 -12.59259,-1.08289 -0.65811,-0.54618 -4.45048,-2.33486 -8.42747,-3.97485 -8.97344,-3.70034 -18.35441,-12.77684 -23.39615,-22.63679 -2.85236,-5.57826 -5.68388,-27.63842 -4.08299,-31.81028 0.94373,-2.4593 2.39514,-0.81072 2.39601,2.72149 0.002,8.41942 10.17328,21.83779 19.99921,26.38398 8.89571,4.11581 13.84846,4.64665 22.88613,2.45299 4.47478,-1.08613 9.57172,-2.81332 11.32652,-3.83818 3.12112,-1.82283 10.03069,-10.6117 11.81935,-15.03403 0.49523,-1.22442 2.5636,-3.02442 4.59639,-4 10.04787,-4.82221 10.09199,-15.27991 0.0875,-20.75655 -2.54075,-1.39086 -4.10126,-3.23766 -5.2274,-6.18642 -1.80155,-4.71727 -11.86346,-14.09673 -17.13802,-15.97562 -1.01779,-0.36255 -2.63768,-1.33523 -3.59978,-2.1615 -1.16694,-1.00221 -3.58039,-1.44248 -7.25,-1.32257 -6.24115,0.20395 -6.99455,-0.38261 -2.25074,-1.75234 2.87012,-0.82872 2.95779,-0.94859 0.75,-1.02551 -1.375,-0.0479 -5.6242,1.48651 -9.44267,3.40981 -3.81846,1.92331 -7.48608,3.49692 -8.15026,3.49692 -3.61906,0 -7.00989,-38.31047 -4.29269,-48.5 0.58666,-2.2 1.44046,-6.25 1.89732,-9 0.45686,-2.75 0.97863,-5.82281 1.15948,-6.82846 0.26275,-1.46106 -1.58009,-2.62545 -9.17118,-5.79477 -17.71378,-7.3956 -22.99721,-10.69743 -31.76677,-19.85232 -6.01338,-6.27761 -7.18118,-9.24487 -5.09865,-12.95516 2.53238,-4.51173 5.564,-3.40916 12.13346,4.41283 7.10324,8.45754 17.50437,15.74949 26.3713,18.4882 10.23381,3.1609 11.63635,2.89085 14.12819,-2.72032 1.16017,-2.6125 2.4783,-5.875 2.92916,-7.25 0.45087,-1.375 2.52394,-5.65 4.60682,-9.5 4.62415,-8.54731 5.64349,-10.49615 9.15338,-17.5 1.51594,-3.025 5.18796,-10.225 8.16005,-16 2.97208,-5.775 6.29329,-12.86379 7.38046,-15.75287 3.07794,-8.1794 11.74647,-37.34829 12.25799,-41.24713 0.25256,-1.925 1.17048,-5.525 2.03983,-8 1.54255,-4.39158 2.32899,-7.27439 4.77407,-17.5 1.72675,-7.22145 8.20941,-20.22384 12.89259,-25.85888 2.22096,-2.67239 4.03812,-5.22142 4.03812,-5.66451 0,-1.30291 8.30133,-5.56325 13.28549,-6.81828 6.27812,-1.58085 24.00004,-1.43267 30.71451,0.25681 17.34452,4.36421 18.49245,4.85542 26.9886,11.54872 8.87714,6.99346 11.50309,11.5793 18.05825,31.53614 2.85718,8.69854 4.68037,18.42578 5.90407,31.5 0.592,6.325 1.50396,14.2 2.02657,17.5 0.52262,3.3 1.22236,8.025 1.55498,10.5 0.80607,5.99793 6.05356,21.47957 9.02524,26.62714 1.31043,2.26993 3.1177,6.31993 4.01615,9 1.4583,4.35007 8.84775,18.62365 14.75562,28.50219 2.36551,3.95539 5.0836,11.8778 9.39056,27.37067 2.57941,9.27858 2.77996,11.33463 2.77996,28.5 0,19.85977 -0.25857,21.33654 -7.35387,42 -3.88577,11.31642 -6.33109,14.97296 -17.96917,26.8697 -9.01871,9.21916 -11.84179,11.45814 -18.17696,14.41615 -10.38701,4.84989 -23.10395,9.33411 -32,11.28378 -4.125,0.90404 -8.17043,1.97936 -8.98984,2.38961 -2.364,1.18357 -3.18562,8.47118 -2.63091,23.33565 l 0.51479,13.7949 -2.51212,0.9551 C 456.8116,493.40233 446.95723,493.20101 444,491.71023 438.83799,489.10798 441.72533,482 447.94441,482 l 2.9444,0 0.3056,-13.10176 c 0.16807,-7.20597 0.0586,-13.49863 -0.24335,-13.9837 -0.30192,-0.48506 -5.70192,-1.00177 -12,-1.14824 L 427.5,453.5 l 0,18.32849 c 0,16.98832 -0.14193,18.43243 -1.94113,19.75 -2.7787,2.03488 -14.90971,1.92782 -16.98744,-0.14992 z m -50.06566,-47.41038 c -0.39374,-1.24057 -0.22592,-2.69804 0.38049,-3.30445 1.23684,-1.23684 11.73506,-4.67679 14.34069,-4.69901 2.19926,-0.0188 5.01146,4.2004 4.20335,6.3063 -0.76883,2.00354 -2.16709,2.41357 -11.07519,3.24767 -6.78461,0.63527 -7.18041,0.55709 -7.84934,-1.55051 z m -16.93236,-10.58764 c -1.15979,-1.15979 -1.30894,-2.05619 -0.57143,-3.43425 0.54891,-1.02565 0.99802,-2.80852 0.99802,-3.96194 0,-2.86305 2.49783,-3.59342 5.51911,-1.61379 2.01916,1.323 2.37872,2.16675 1.85797,4.35995 -0.76131,3.20641 -3.16453,6.21948 -4.96064,6.21948 -0.70047,0 -1.97983,-0.70625 -2.84303,-1.56945 z m 40.63804,-9.2787 c -1.69864,-1.07772 -0.48275,-9.11051 1.49383,-9.869 2.33802,-0.89718 6.19408,1.468 6.88565,4.22344 1.13942,4.5398 -4.32238,8.21961 -8.37948,5.64556 z"
       style="fill:#9dd352" />
    <path
       id="path10352"
       d="m 408.57143,491.42857 c -2.96564,-2.96564 -1.07943,-6.93343 3.92973,-8.26652 2.74197,-0.72972 3.05639,-1.26336 3.67071,-6.23007 0.84716,-6.84924 -0.10467,-24.02246 -1.42343,-25.68198 -1.61653,-2.03424 -2.37034,-1.51892 -5.85116,4 -4.90634,7.77912 -11.72256,15.53371 -16.60933,18.89589 -7.78094,5.35343 -14.40907,7.04715 -27.18397,6.94645 -6.26782,-0.0494 -11.93448,-0.53671 -12.59259,-1.08289 -0.65811,-0.54618 -4.45048,-2.33486 -8.42747,-3.97485 -8.97344,-3.70034 -18.35441,-12.77684 -23.39615,-22.63679 -2.85236,-5.57826 -5.68388,-27.63842 -4.08299,-31.81028 0.94373,-2.4593 2.39514,-0.81072 2.39601,2.72149 0.002,8.41942 10.17328,21.83779 19.99921,26.38398 8.89571,4.11581 13.84846,4.64665 22.88613,2.45299 4.47478,-1.08613 9.57172,-2.81332 11.32652,-3.83818 3.12112,-1.82283 10.03069,-10.6117 11.81935,-15.03403 0.49523,-1.22442 2.5636,-3.02442 4.59639,-4 10.04787,-4.82221 10.09199,-15.27991 0.0875,-20.75655 -2.54075,-1.39086 -4.10126,-3.23766 -5.2274,-6.18642 -1.80155,-4.71727 -11.86346,-14.09673 -17.13802,-15.97562 -1.01779,-0.36255 -2.63768,-1.33523 -3.59978,-2.1615 -1.16694,-1.00221 -3.58039,-1.44248 -7.25,-1.32257 -6.2626,0.20465 -6.95018,-0.357 -2.25074,-1.83851 l 3.25,-1.02457 -3.62085,0.41215 c -1.99146,0.22668 -5.67928,1.34987 -8.19513,2.49598 -5.81237,2.64784 -7.32453,2.61938 -8.82836,-0.16617 -3.07786,-5.70111 -4.30102,-39.91391 -1.63563,-45.75 0.87917,-1.925 1.81519,-6.24136 2.08006,-9.59191 l 0.48158,-6.09191 -9.14083,-3.80834 c -19.55649,-8.1478 -24.48713,-11.17094 -33.40761,-20.48339 -6.01338,-6.27761 -7.18118,-9.24487 -5.09865,-12.95516 2.53238,-4.51173 5.564,-3.40916 12.13346,4.41283 9.58442,11.41179 21.78602,18.41528 36.41166,20.89965 2.94587,0.50039 3.32465,0.23044 5.15063,-3.67083 1.08401,-2.31602 2.47527,-5.78594 3.09168,-7.71094 0.61641,-1.925 2.60924,-6.2 4.42849,-9.5 4.02696,-7.3046 5.23808,-9.63489 10.65446,-20.5 2.33054,-4.675 6.03145,-11.875 8.22424,-16 4.29038,-8.0709 6.91488,-15.07891 12.2781,-32.78529 1.88006,-6.20691 3.68075,-11.70996 4.00152,-12.22899 0.32078,-0.51903 1.21106,-3.99065 1.9784,-7.71471 0.76735,-3.72405 2.48944,-10.59601 3.82687,-15.27101 1.33744,-4.675 3.00429,-10.95537 3.70412,-13.95639 1.75157,-7.51115 7.49716,-18.57871 12.66788,-24.40176 2.37265,-2.67199 4.31391,-5.22916 4.31391,-5.68262 0,-0.45345 1.0125,-1.13301 2.25,-1.51012 1.2375,-0.37712 2.925,-1.23902 3.75,-1.91533 4.11027,-3.3695 27.34302,-5.27594 36.47081,-2.99273 16.70844,4.17943 18.0653,4.76391 26.51779,11.42281 8.87714,6.99346 11.50309,11.5793 18.05825,31.53614 2.85718,8.69854 4.68037,18.42578 5.90407,31.5 0.592,6.325 1.50396,14.2 2.02657,17.5 0.52262,3.3 1.22236,8.025 1.55498,10.5 0.80607,5.99793 6.05356,21.47957 9.02524,26.62714 1.31043,2.26993 3.1177,6.31993 4.01615,9 1.4583,4.35007 8.84775,18.62365 14.75562,28.50219 2.36551,3.95539 5.0836,11.8778 9.39056,27.37067 2.57941,9.27858 2.77996,11.33463 2.77996,28.5 0,19.85977 -0.25857,21.33654 -7.35387,42 -3.88577,11.31642 -6.33109,14.97296 -17.96917,26.8697 -9.01871,9.21916 -11.84179,11.45814 -18.17696,14.41615 -10.38701,4.84989 -23.10395,9.33411 -32,11.28378 -4.125,0.90404 -8.17043,1.97936 -8.98984,2.38961 -2.364,1.18357 -3.18562,8.47118 -2.63091,23.33565 l 0.51479,13.7949 -2.51212,0.9551 C 456.8116,493.40233 446.95723,493.20101 444,491.71023 438.83799,489.10798 441.72533,482 447.94441,482 l 2.9444,0 0.3056,-13.10176 c 0.16807,-7.20597 0.0586,-13.49863 -0.24335,-13.9837 -0.30192,-0.48506 -5.70192,-1.00177 -12,-1.14824 L 427.5,453.5 l 0,18.32849 c 0,16.98832 -0.14193,18.43243 -1.94113,19.75 -2.7787,2.03488 -14.90971,1.92782 -16.98744,-0.14992 z m 13.77372,-73.19518 c 9.30374,0.69536 20.61494,-0.82777 23.83677,-3.20977 C 449.41589,412.63264 452,412.40008 452,414.5 c 0,2.00903 1.62768,1.91262 2.41655,-0.14313 0.34679,-0.90372 0.92624,-1.34742 1.28766,-0.986 0.36142,0.36142 1.81332,-0.41936 3.22646,-1.73507 2.88132,-2.68269 14.06933,-9.065 14.06933,-8.02599 0,0.36847 1.49436,-0.91453 3.32079,-2.85111 1.82643,-1.93659 4.63893,-3.81126 6.25,-4.16593 1.79174,-0.39446 3.59272,-1.80322 4.63789,-3.62786 0.93977,-1.64064 2.85227,-3.41778 4.25,-3.9492 1.65694,-0.62997 2.54132,-1.73042 2.54132,-3.16222 0,-1.2078 0.59133,-2.90644 1.31406,-3.77475 5.68285,-6.82748 5.52895,-44.90014 -0.22088,-54.64539 C 493.94193,325.48213 493,322.58459 493,320.99436 c 0,-1.69806 -1.03176,-4.0046 -2.5,-5.58886 -1.375,-1.48365 -2.5,-3.32267 -2.5,-4.08671 0,-0.76403 -0.73431,-2.50985 -1.6318,-3.8796 -1.52063,-2.32077 -1.51007,-2.62494 0.15499,-4.46481 C 488.2486,301.06782 488.23751,301 486.2003,301 c -1.62241,0 -2.2625,-0.81464 -2.77136,-3.5271 -0.36393,-1.9399 -1.50932,-3.98073 -2.54531,-4.53518 -1.036,-0.55445 -1.88363,-1.83715 -1.88363,-2.85046 0,-1.0133 -0.675,-2.40257 -1.5,-3.08726 -0.825,-0.68469 -1.5,-2.06323 -1.5,-3.06343 0,-1.00019 -0.45,-2.09665 -1,-2.43657 -0.55,-0.33992 -1,-1.85148 -1,-3.35902 0,-1.50754 -0.53809,-3.27907 -1.19576,-3.93674 -0.65766,-0.65766 -1.09038,-2.98171 -0.96158,-5.16453 0.14327,-2.42806 -0.55716,-5.51992 -1.80424,-7.96441 C 468.66634,258.3858 468,255.14345 468,251.15647 c 0,-5.29674 0.23797,-5.98717 2.25,-6.52793 l 2.25,-0.60472 -2.73339,-2.26191 c -2.31229,-1.91344 -2.79114,-3.18626 -3.10827,-8.26191 -0.20618,-3.3 -0.6983,-6.75234 -1.09361,-7.67186 -0.3953,-0.91952 -0.24354,-2.55977 0.33725,-3.64499 0.80269,-1.49984 0.70123,-2.26757 -0.42299,-3.20059 C 464.66554,218.30746 464,216.82729 464,215.69328 c 0,-1.13401 -0.97351,-4.07284 -2.16336,-6.53074 -1.18985,-2.4579 -2.25206,-5.92983 -2.36047,-7.71539 -0.1084,-1.78557 -1.15989,-4.59861 -2.33663,-6.25119 C 455.96279,193.54337 455,191.64602 455,190.97961 455,189.46764 448.12169,180 447.02324,180 c -0.44353,0 -1.07529,-1.07123 -1.40389,-2.38051 -0.32861,-1.30928 -1.43415,-2.5993 -2.45676,-2.86672 -1.12816,-0.29502 -2.11535,-1.76659 -2.5105,-3.7423 -0.55105,-2.75528 -0.88199,-3.06456 -2.15165,-2.01083 -1.19709,0.99349 -1.8037,0.99356 -3.00044,3.6e-4 -1.21415,-1.00766 -1.5,-0.97295 -1.5,0.18214 0,2.10497 -6.47084,8.79937 -8.63487,8.93321 -1.02582,0.0634 -2.31513,0.2199 -2.86513,0.34769 -0.55,0.12778 -1.45,0.3294 -2,0.44803 -0.55,0.11864 0.0125,0.62268 1.25,1.12009 3.14451,1.26394 2.81984,2.94047 -1.41344,7.29885 -3.36243,3.46179 -3.5316,3.90352 -2.05893,5.37619 1.47267,1.47268 1.44502,1.91712 -0.33656,5.40932 -1.06759,2.09264 -1.94107,4.49392 -1.94107,5.33617 0,0.84225 -0.8784,2.07993 -1.95201,2.75041 -1.6239,1.01415 -1.85205,1.9483 -1.35733,5.55765 0.32707,2.38622 0.14535,5.32897 -0.40382,6.53942 -0.54917,1.21046 -2.05989,5.57583 -3.35716,9.70083 -1.29726,4.125 -2.74337,8.03373 -3.21357,8.68608 -0.48899,0.67842 -0.39803,2.03974 0.21251,3.18055 0.79816,1.49136 0.72825,2.33364 -0.27712,3.33901 -0.73949,0.73949 -1.67941,3.13324 -2.0887,5.31945 -0.89768,4.79489 -3.94202,11.71482 -5.85069,13.29887 -0.77087,0.63977 -1.46328,3.26641 -1.55888,5.91353 -0.10676,2.95655 -0.92683,5.78996 -2.1626,7.47202 -1.09485,1.49023 -1.99063,3.57958 -1.99063,4.64301 0,2.37283 -2.76034,3.59127 -4.62675,2.04229 C 386.48783,281.15997 386,281.12424 386,281.79422 c 0,0.57151 0.5625,1.23587 1.25,1.47635 0.93205,0.32602 0.83363,0.91952 -0.38696,2.33333 -1.07198,1.24168 -1.46874,2.98711 -1.14956,5.05716 0.36983,2.39852 0.0313,3.40518 -1.40346,4.17302 -1.2546,0.67145 -1.97698,2.29046 -2.14675,4.81137 -0.24889,3.69565 -2.46676,7.35455 -4.45801,7.35455 -1.67442,0 -3.64007,3.36113 -3.67346,6.28138 -0.0175,1.52977 -0.7068,3.04041 -1.5318,3.35699 -0.825,0.31659 -1.51407,1.76496 -1.53127,3.21862 -0.0172,1.45365 -1.13809,4.89301 -2.49086,7.64301 -1.35277,2.75 -2.4637,5.76094 -2.46873,6.69098 -0.005,0.93004 -0.45914,1.9691 -1.00914,2.30902 -0.55,0.33992 -1,1.5056 -1,2.5904 0,2.31511 -2.48965,3.56415 -4.26273,2.13858 -1.5552,-1.25039 -7.32799,-0.42706 -8.71385,1.2428 -0.80111,0.96528 -0.45193,1.14163 1.51566,0.7655 1.71129,-0.32713 2.98354,0.0952 3.84792,1.2773 1.1763,1.60869 1.34742,1.61989 1.92079,0.12572 0.78812,-2.05382 2.29526,-2.11712 3.05838,-0.12845 0.66809,1.74101 -1.23873,6.48815 -2.60614,6.48815 -0.50897,0 -0.61273,1.39415 -0.23259,3.12492 0.47456,2.16066 0.26765,3.38624 -0.67055,3.97181 -1.06765,0.66636 -0.87728,1.18472 0.89311,2.43178 2.66616,1.87804 2.93528,4.98861 0.54724,6.32502 -1.41085,0.78955 -1.48282,1.21793 -0.41985,2.49873 1.48339,1.78738 1.24209,9.78241 -0.32845,10.88243 -0.57692,0.40408 1.87606,0.74772 5.45106,0.76365 3.575,0.0159 7.625,0.28686 9,0.60206 1.55853,0.35727 2.04234,0.24384 1.28472,-0.30121 -0.72833,-0.52398 -1.10769,-2.72629 -0.94676,-5.49623 0.1477,-2.54205 -0.20831,-8.82515 -0.79111,-13.96244 -1.31489,-11.59052 -0.53688,-20.60918 2.10967,-24.45501 1.09213,-1.58703 2.80731,-5.09867 3.81151,-7.80365 1.2427,-3.34742 3.94471,-7.04547 8.46037,-11.57907 5.39644,-5.4179 8.02829,-7.20602 14.10307,-9.58186 6.42336,-2.51217 8.72801,-2.90479 16.46853,-2.80557 8.1109,0.10396 9.74092,0.4664 16.5,3.6688 8.64647,4.09664 17.88016,12.57244 21.51842,19.7522 7.8629,15.51668 6.66582,38.48846 -3.04659,58.46364 -4.72871,9.72537 -5.90602,11.36505 -10.16015,14.15034 C 432.02887,408.38279 427.61699,410 419.53324,410 414.4603,410 412,409.61898 412,408.83333 c 0,-0.64166 -0.28535,-0.88132 -0.6341,-0.53256 -0.34876,0.34876 0.4281,3.46126 1.72635,6.91667 1.4721,3.91812 2.49925,5.58131 2.72925,4.41925 0.32426,-1.63831 1.11198,-1.80776 6.52365,-1.4033 z m -63.84282,25.77396 c -0.91248,-2.87499 0.75448,-4.40408 6.49767,-5.96025 9.0074,-2.44063 9.7045,-2.42773 11.43381,0.21154 1.79605,2.74111 1.24211,5.41189 -1.27619,6.15314 -0.91169,0.26835 -4.87282,0.78897 -8.80251,1.15692 -6.7938,0.63613 -7.17967,0.55941 -7.85278,-1.56135 z m -16.92892,-10.5768 c -1.15979,-1.15979 -1.30894,-2.05619 -0.57143,-3.43425 0.54891,-1.02565 0.99802,-2.80852 0.99802,-3.96194 0,-2.86305 2.49783,-3.59342 5.51911,-1.61379 2.01916,1.323 2.37872,2.16675 1.85797,4.35995 -0.76131,3.20641 -3.16453,6.21948 -4.96064,6.21948 -0.70047,0 -1.97983,-0.70625 -2.84303,-1.56945 z m 40.63804,-9.2787 c -1.69864,-1.07772 -0.48275,-9.11051 1.49383,-9.869 2.33802,-0.89718 6.19408,1.468 6.88565,4.22344 1.13942,4.5398 -4.32238,8.21961 -8.37948,5.64556 z"
       style="fill:#fcb601" />
    <path
       id="path10350"
       d="m 408.57143,491.42857 c -2.96564,-2.96564 -1.07943,-6.93343 3.92973,-8.26652 2.74197,-0.72972 3.05639,-1.26336 3.67071,-6.23007 0.98299,-7.94745 -0.14125,-24.10882 -1.81041,-26.02521 -1.19179,-1.36832 -1.11398,-2.21532 0.55125,-6 2.15834,-4.90543 2.96232,-15.8283 1.67707,-22.78488 l -0.80887,-4.37812 6.35955,0.47482 c 9.48982,0.70852 20.79353,-0.79367 24.04146,-3.19497 C 449.41589,412.63264 452,412.40008 452,414.5 c 0,2.00903 1.62768,1.91262 2.41655,-0.14313 0.34679,-0.90372 0.92624,-1.34742 1.28766,-0.986 0.36142,0.36142 1.81332,-0.41936 3.22646,-1.73507 2.88132,-2.68269 14.06933,-9.065 14.06933,-8.02599 0,0.36847 1.49436,-0.91453 3.32079,-2.85111 1.82643,-1.93659 4.63893,-3.81126 6.25,-4.16593 1.79174,-0.39446 3.59272,-1.80322 4.63789,-3.62786 0.93977,-1.64064 2.85227,-3.41778 4.25,-3.9492 1.65694,-0.62997 2.54132,-1.73042 2.54132,-3.16222 0,-1.2078 0.59133,-2.90644 1.31406,-3.77475 5.68285,-6.82748 5.52895,-44.90014 -0.22088,-54.64539 C 493.94193,325.48213 493,322.58459 493,320.99436 c 0,-1.69806 -1.03176,-4.0046 -2.5,-5.58886 -1.375,-1.48365 -2.5,-3.32267 -2.5,-4.08671 0,-0.76403 -0.73431,-2.50985 -1.6318,-3.8796 -1.52063,-2.32077 -1.51007,-2.62494 0.15499,-4.46481 C 488.2486,301.06782 488.23751,301 486.2003,301 c -1.62241,0 -2.2625,-0.81464 -2.77136,-3.5271 -0.36393,-1.9399 -1.50932,-3.98073 -2.54531,-4.53518 -1.036,-0.55445 -1.88363,-1.83715 -1.88363,-2.85046 0,-1.0133 -0.675,-2.40257 -1.5,-3.08726 -0.825,-0.68469 -1.5,-2.06323 -1.5,-3.06343 0,-1.00019 -0.45,-2.09665 -1,-2.43657 -0.55,-0.33992 -1,-1.85148 -1,-3.35902 0,-1.50754 -0.53809,-3.27907 -1.19576,-3.93674 -0.65766,-0.65766 -1.09038,-2.98171 -0.96158,-5.16453 0.14327,-2.42806 -0.55716,-5.51992 -1.80424,-7.96441 C 468.66634,258.3858 468,255.14345 468,251.15647 c 0,-5.29674 0.23797,-5.98717 2.25,-6.52793 l 2.25,-0.60472 -2.73339,-2.26191 c -2.31229,-1.91344 -2.79114,-3.18626 -3.10827,-8.26191 -0.20618,-3.3 -0.6983,-6.75234 -1.09361,-7.67186 -0.3953,-0.91952 -0.24354,-2.55977 0.33725,-3.64499 0.80269,-1.49984 0.70123,-2.26757 -0.42299,-3.20059 C 464.66554,218.30746 464,216.82729 464,215.69328 c 0,-1.13401 -0.97351,-4.07284 -2.16336,-6.53074 -1.18985,-2.4579 -2.25206,-5.92983 -2.36047,-7.71539 -0.1084,-1.78557 -1.15989,-4.59861 -2.33663,-6.25119 C 455.96279,193.54337 455,191.64602 455,190.97961 455,189.46764 448.12169,180 447.02324,180 c -0.44353,0 -1.07529,-1.07123 -1.40389,-2.38051 -0.32861,-1.30928 -1.43415,-2.5993 -2.45676,-2.86672 -1.12816,-0.29502 -2.11535,-1.76659 -2.5105,-3.7423 -0.55105,-2.75528 -0.88199,-3.06456 -2.15165,-2.01083 -1.19709,0.99349 -1.8037,0.99356 -3.00044,3.6e-4 -1.21415,-1.00766 -1.5,-0.97295 -1.5,0.18214 0,2.10497 -6.47084,8.79937 -8.63487,8.93321 -1.02582,0.0634 -2.31513,0.2199 -2.86513,0.34769 -0.55,0.12778 -1.45,0.3294 -2,0.44803 -0.55,0.11864 0.0125,0.62268 1.25,1.12009 3.14451,1.26394 2.81984,2.94047 -1.41344,7.29885 -3.36243,3.46179 -3.5316,3.90352 -2.05893,5.37619 1.47267,1.47268 1.44502,1.91712 -0.33656,5.40932 -1.06759,2.09264 -1.94107,4.49392 -1.94107,5.33617 0,0.84225 -0.8784,2.07993 -1.95201,2.75041 -1.6239,1.01415 -1.85205,1.9483 -1.35733,5.55765 0.32707,2.38622 0.14535,5.32897 -0.40382,6.53942 -0.54917,1.21046 -2.05989,5.57583 -3.35716,9.70083 -1.29726,4.125 -2.74337,8.03373 -3.21357,8.68608 -0.48899,0.67842 -0.39803,2.03974 0.21251,3.18055 0.79816,1.49136 0.72825,2.33364 -0.27712,3.33901 -0.73949,0.73949 -1.67941,3.13324 -2.0887,5.31945 -0.89768,4.79489 -3.94202,11.71482 -5.85069,13.29887 -0.77087,0.63977 -1.46328,3.26641 -1.55888,5.91353 -0.10676,2.95655 -0.92683,5.78996 -2.1626,7.47202 -1.09485,1.49023 -1.99063,3.57958 -1.99063,4.64301 0,2.37283 -2.76034,3.59127 -4.62675,2.04229 C 386.48783,281.15997 386,281.12424 386,281.79422 c 0,0.57151 0.5625,1.23587 1.25,1.47635 0.93205,0.32602 0.83363,0.91952 -0.38696,2.33333 -1.07198,1.24168 -1.46874,2.98711 -1.14956,5.05716 0.36983,2.39852 0.0313,3.40518 -1.40346,4.17302 -1.2546,0.67145 -1.97698,2.29046 -2.14675,4.81137 -0.24889,3.69565 -2.46676,7.35455 -4.45801,7.35455 -1.67442,0 -3.64007,3.36113 -3.67346,6.28138 -0.0175,1.52977 -0.7068,3.04041 -1.5318,3.35699 -0.825,0.31659 -1.51407,1.76496 -1.53127,3.21862 -0.0172,1.45365 -1.13809,4.89301 -2.49086,7.64301 -1.35277,2.75 -2.4637,5.76094 -2.46873,6.69098 -0.005,0.93004 -0.45914,1.9691 -1.00914,2.30902 -0.55,0.33992 -1,1.5056 -1,2.5904 0,2.31511 -2.48965,3.56415 -4.26273,2.13858 -1.5552,-1.25039 -7.32799,-0.42706 -8.71385,1.2428 -0.80111,0.96528 -0.45193,1.14163 1.51566,0.7655 1.71129,-0.32713 2.98354,0.0952 3.84792,1.2773 1.1763,1.60869 1.34742,1.61989 1.92079,0.12572 0.78812,-2.05382 2.29526,-2.11712 3.05838,-0.12845 0.66809,1.74101 -1.23873,6.48815 -2.60614,6.48815 -0.50897,0 -0.61273,1.39415 -0.23259,3.12492 0.47456,2.16066 0.26765,3.38624 -0.67055,3.97181 -1.06765,0.66636 -0.87728,1.18472 0.89311,2.43178 2.66616,1.87804 2.93528,4.98861 0.54724,6.32502 -1.39238,0.77922 -1.47431,1.22819 -0.44944,2.46308 0.70027,0.84378 1.14791,3.54653 1.01444,6.12499 -0.20328,3.9271 -0.58338,4.68514 -2.55056,5.08661 -1.27142,0.25949 -3.53357,0.72968 -5.02699,1.04488 -1.49342,0.3152 -4.61873,1.4402 -6.94514,2.5 -5.4584,2.48659 -6.9987,2.42793 -8.48389,-0.32309 -3.07786,-5.70111 -4.30102,-39.91391 -1.63563,-45.75 0.87917,-1.925 1.81519,-6.24136 2.08006,-9.59191 l 0.48158,-6.09191 -9.14083,-3.80834 c -19.55649,-8.1478 -24.48713,-11.17094 -33.40761,-20.48339 -6.01338,-6.27761 -7.18118,-9.24487 -5.09865,-12.95516 2.53238,-4.51173 5.564,-3.40916 12.13346,4.41283 9.58442,11.41179 21.78602,18.41528 36.41166,20.89965 2.94587,0.50039 3.32465,0.23044 5.15063,-3.67083 1.08401,-2.31602 2.47527,-5.78594 3.09168,-7.71094 0.61641,-1.925 2.60924,-6.2 4.42849,-9.5 4.02696,-7.3046 5.23808,-9.63489 10.65446,-20.5 2.33054,-4.675 6.03145,-11.875 8.22424,-16 4.29038,-8.0709 6.91488,-15.07891 12.2781,-32.78529 1.88006,-6.20691 3.68075,-11.70996 4.00152,-12.22899 0.32078,-0.51903 1.21106,-3.99065 1.9784,-7.71471 0.76735,-3.72405 2.48944,-10.59601 3.82687,-15.27101 1.33744,-4.675 3.00429,-10.95537 3.70412,-13.95639 1.75157,-7.51115 7.49716,-18.57871 12.66788,-24.40176 2.37265,-2.67199 4.31391,-5.22916 4.31391,-5.68262 0,-0.45345 1.0125,-1.13301 2.25,-1.51012 1.2375,-0.37712 2.925,-1.23902 3.75,-1.91533 4.11027,-3.3695 27.34302,-5.27594 36.47081,-2.99273 16.70844,4.17943 18.0653,4.76391 26.51779,11.42281 8.87714,6.99346 11.50309,11.5793 18.05825,31.53614 2.85718,8.69854 4.68037,18.42578 5.90407,31.5 0.592,6.325 1.50396,14.2 2.02657,17.5 0.52262,3.3 1.22236,8.025 1.55498,10.5 0.80607,5.99793 6.05356,21.47957 9.02524,26.62714 1.31043,2.26993 3.1177,6.31993 4.01615,9 1.4583,4.35007 8.84775,18.62365 14.75562,28.50219 2.36551,3.95539 5.0836,11.8778 9.39056,27.37067 2.57941,9.27858 2.77996,11.33463 2.77996,28.5 0,19.85977 -0.25857,21.33654 -7.35387,42 -3.88577,11.31642 -6.33109,14.97296 -17.96917,26.8697 -9.01871,9.21916 -11.84179,11.45814 -18.17696,14.41615 -10.38701,4.84989 -23.10395,9.33411 -32,11.28378 -4.125,0.90404 -8.17043,1.97936 -8.98984,2.38961 -2.364,1.18357 -3.18562,8.47118 -2.63091,23.33565 l 0.51479,13.7949 -2.51212,0.9551 C 456.8116,493.40233 446.95723,493.20101 444,491.71023 438.83799,489.10798 441.72533,482 447.94441,482 l 2.9444,0 0.3056,-13.10176 c 0.16807,-7.20597 0.0586,-13.49863 -0.24335,-13.9837 -0.30192,-0.48506 -5.70192,-1.00177 -12,-1.14824 L 427.5,453.5 l 0,18.32849 c 0,16.98832 -0.14193,18.43243 -1.94113,19.75 -2.7787,2.03488 -14.90971,1.92782 -16.98744,-0.14992 z m -50.0691,-47.42122 c -0.91248,-2.87499 0.75448,-4.40408 6.49767,-5.96025 9.0074,-2.44063 9.7045,-2.42773 11.43381,0.21154 1.79605,2.74111 1.24211,5.41189 -1.27619,6.15314 -0.91169,0.26835 -4.87282,0.78897 -8.80251,1.15692 -6.7938,0.63613 -7.17967,0.55941 -7.85278,-1.56135 z m -16.92892,-10.5768 c -1.15979,-1.15979 -1.30894,-2.05619 -0.57143,-3.43425 0.54891,-1.02565 0.99802,-2.80852 0.99802,-3.96194 0,-2.86305 2.49783,-3.59342 5.51911,-1.61379 2.01916,1.323 2.37872,2.16675 1.85797,4.35995 -0.76131,3.20641 -3.16453,6.21948 -4.96064,6.21948 -0.70047,0 -1.97983,-0.70625 -2.84303,-1.56945 z m 40.63804,-9.2787 c -1.69864,-1.07772 -0.48275,-9.11051 1.49383,-9.869 2.33802,-0.89718 6.19408,1.468 6.88565,4.22344 1.13942,4.5398 -4.32238,8.21961 -8.37948,5.64556 z M 409.5,404.89152 c -3.54423,-5.98832 -11.22017,-13.45883 -15.79147,-15.36884 -1.78702,-0.74666 -4.0647,-2.25876 -5.0615,-3.36022 -0.99681,-1.10145 -4.13767,-2.52789 -6.9797,-3.16987 -9.2118,-2.08081 -8.664,-1.6244 -8.34653,-6.95388 0.15847,-2.66029 -0.18926,-9.0448 -0.77274,-14.1878 -1.31603,-11.60017 -0.53882,-20.61851 2.10846,-24.4654 1.09213,-1.58703 2.80731,-5.09867 3.81151,-7.80365 1.2427,-3.34742 3.94471,-7.04547 8.46037,-11.57907 5.39644,-5.4179 8.02829,-7.20602 14.10307,-9.58186 6.42336,-2.51217 8.72801,-2.90479 16.46853,-2.80557 8.1109,0.10396 9.74092,0.4664 16.5,3.6688 8.64647,4.09664 17.88016,12.57244 21.51842,19.7522 7.8629,15.51668 6.66582,38.48846 -3.04659,58.46364 -4.72871,9.72537 -5.90602,11.36505 -10.16015,14.15034 -10.21045,6.68507 -14.71633,8.3511 -22.52844,8.32982 l -7.28324,-0.0199 -3,-5.06879 z"
       style="fill:#96d04a" />
    <path
       id="path10348"
       d="m 408.57143,491.42857 c -2.96564,-2.96564 -1.07943,-6.93343 3.92973,-8.26652 2.74197,-0.72972 3.05639,-1.26336 3.67071,-6.23007 0.99218,-8.02176 -0.14085,-24.10858 -1.83493,-26.05231 -1.13977,-1.30773 -1.18107,-2.12767 -0.21407,-4.25 0.94232,-2.06815 1.90454,-2.62967 4.50626,-2.62967 2.42338,0 3.16454,-0.37411 2.77131,-1.39885 -0.9113,-2.37481 1.17429,-2.66432 6.59098,-0.91493 4.10827,1.32683 5.59185,1.43061 7.08856,0.4959 1.04109,-0.65017 2.74389,-1.18212 3.78401,-1.18212 1.04011,0 2.45132,-0.675 3.13601,-1.5 0.68469,-0.825 2.03483,-1.5 3.00032,-1.5 3.04943,0 8.88498,-2.91717 9.9988,-4.99835 C 455.5883,431.90074 456.91301,431 457.9429,431 c 6.31982,0 22.70632,-13.40138 27.10917,-22.1707 1.1955,-2.38112 2.99706,-5.23085 4.00347,-6.33274 1.80393,-1.97508 7.20574,-16.20085 9.11198,-23.99656 2.35222,-9.61957 3.04368,-21.96323 1.8632,-33.26099 -0.64715,-6.19355 -1.6465,-12.71855 -2.22077,-14.5 -0.57427,-1.78146 -1.40596,-5.48901 -1.84819,-8.23901 -0.44223,-2.75 -1.54865,-7.7 -2.4587,-11 -0.91006,-3.3 -1.74907,-7.45603 -1.86447,-9.23561 -0.1154,-1.77959 -0.75629,-3.78209 -1.4242,-4.45 C 489.54647,297.14647 489,295.44013 489,294.02251 c 0,-1.41763 -0.75902,-3.66114 -1.6867,-4.9856 -0.92769,-1.32446 -2.00842,-4.23709 -2.40164,-6.47251 -0.39321,-2.23542 -1.8781,-7.2144 -3.29975,-11.0644 -4.72081,-12.78453 -5.26687,-16.07431 -8.29924,-50 -0.24581,-2.75 -0.46753,-8.04886 -0.49272,-11.77525 -0.038,-5.62338 -0.37139,-6.9495 -1.96088,-7.80017 -1.0533,-0.56371 -1.64639,-1.45969 -1.31798,-1.99107 0.32841,-0.53137 0.98492,-0.72645 1.45891,-0.43351 1.60484,0.99184 1.83893,-1.02245 0.87414,-7.52169 -0.52892,-3.56307 -1.15173,-9.40331 -1.38401,-12.97831 -0.70882,-10.90931 -1.63338,-16.42861 -3.01523,-18 -0.72549,-0.825 -1.63958,-2.85 -2.0313,-4.5 -0.39172,-1.65 -1.26634,-3.675 -1.9436,-4.5 -0.67726,-0.825 -1.52539,-2.7375 -1.88474,-4.25 C 461.17462,145.89536 460.31692,145 458.98095,145 457.89143,145 457,144.35156 457,143.55902 c 0,-2.35773 -1.99305,-2.87529 -4.01741,-1.04326 -1.55206,1.40459 -2.44286,1.51944 -4.96517,0.64016 -1.69057,-0.58934 -3.79368,-0.79527 -4.67356,-0.45763 -1.01305,0.38874 -2.26184,-0.26382 -3.40497,-1.77931 l -1.8052,-2.3932 -2.31685,2.13447 c -2.28353,2.10378 -7.36924,2.873 -8.36309,1.26492 -0.28037,-0.45365 0.40284,-1.31323 1.51824,-1.91018 1.11541,-0.59695 2.02801,-1.96952 2.02801,-3.05017 0,-2.06379 1.0563,-2.31787 8.25269,-1.98505 2.06398,0.0955 5.21398,-0.30245 7,-0.88424 2.42361,-0.78948 4.64243,-0.70759 8.74731,0.32286 17.30405,4.34381 18.49253,4.85223 26.9886,11.54547 8.87714,6.99346 11.50309,11.5793 18.05825,31.53614 2.85718,8.69854 4.68037,18.42578 5.90407,31.5 0.592,6.325 1.50396,14.2 2.02657,17.5 0.52262,3.3 1.22236,8.025 1.55498,10.5 0.80607,5.99793 6.05356,21.47957 9.02524,26.62714 1.31043,2.26993 3.1177,6.31993 4.01615,9 1.4583,4.35007 8.84775,18.62365 14.75562,28.50219 2.36551,3.95539 5.0836,11.8778 9.39056,27.37067 2.57941,9.27858 2.77996,11.33463 2.77996,28.5 0,19.85977 -0.25857,21.33654 -7.35387,42 -3.88577,11.31642 -6.33109,14.97296 -17.96917,26.8697 -9.01871,9.21916 -11.84179,11.45814 -18.17696,14.41615 -10.38701,4.84989 -23.10395,9.33411 -32,11.28378 -4.125,0.90404 -8.17043,1.97936 -8.98984,2.38961 -2.364,1.18357 -3.18562,8.47118 -2.63091,23.33565 l 0.51479,13.7949 -2.51212,0.9551 C 456.8116,493.40233 446.95723,493.20101 444,491.71023 438.83799,489.10798 441.72533,482 447.94441,482 l 2.9444,0 0.3056,-13.10176 c 0.16807,-7.20597 0.0586,-13.49863 -0.24335,-13.9837 -0.30192,-0.48506 -5.70192,-1.00177 -12,-1.14824 L 427.5,453.5 l 0,18.32849 c 0,16.98832 -0.14193,18.43243 -1.94113,19.75 -2.7787,2.03488 -14.90971,1.92782 -16.98744,-0.14992 z M 359.08458,444.15805 C 357.82231,441.79947 359.91985,439 362.9493,439 c 0.99355,0 3.51219,-0.7127 5.59698,-1.58378 4.84385,-2.02389 8.45372,-0.70565 8.45372,3.08709 0,3.04479 -1.95846,3.95569 -10.6674,4.96156 -5.56306,0.64253 -6.27329,0.51448 -7.24802,-1.30682 z m -17.51117,-10.7275 c -1.15979,-1.15979 -1.30894,-2.05619 -0.57143,-3.43425 0.54891,-1.02565 0.99802,-2.80852 0.99802,-3.96194 0,-2.86305 2.49783,-3.59342 5.51911,-1.61379 2.01916,1.323 2.37872,2.16675 1.85797,4.35995 -0.76131,3.20641 -3.16453,6.21948 -4.96064,6.21948 -0.70047,0 -1.97983,-0.70625 -2.84303,-1.56945 z m 40.63804,-9.2787 c -1.69864,-1.07772 -0.48275,-9.11051 1.49383,-9.869 2.33802,-0.89718 6.19408,1.468 6.88565,4.22344 1.13942,4.5398 -4.32238,8.21961 -8.37948,5.64556 z m 26.51156,-20.55116 c -3.27375,-5.18206 -10.58948,-12.16259 -14.47482,-13.8116 -1.5115,-0.64151 -3.87319,-2.17463 -5.24819,-3.40693 -1.375,-1.23229 -4.975,-2.8622 -8,-3.62201 l -5.5,-1.38148 -0.2533,-6.43933 C 375.10739,371.3977 374.5946,364.9 374.10717,360.5 c -1.29978,-11.73307 -0.0646,-18.45796 5.31207,-28.9222 8.49645,-16.53592 20.56979,-24.14662 38.08076,-24.00503 7.70742,0.0623 9.74923,0.45727 14.21676,2.75 2.86921,1.47248 5.71209,2.67723 6.31749,2.67723 1.78377,0 11.88917,10.15021 14.54325,14.60775 4.16679,6.99813 5.78122,13.99998 5.85474,25.39225 0.0922,14.28273 -1.48064,21.44518 -7.37027,33.5636 -5.37489,11.05927 -7.33673,13.02353 -18.77873,18.80188 -4.30544,2.1743 -6.57641,2.63421 -13,2.63273 l -7.78324,-0.002 -2.77699,-4.39573 z M 327,317.90837 c -17.82613,-7.50181 -23.02002,-10.75285 -31.76677,-19.88392 -6.01338,-6.27761 -7.18118,-9.24487 -5.09865,-12.95516 2.53238,-4.51173 5.564,-3.40916 12.13346,4.41283 3.22525,3.84017 8.99966,9.11432 12.83203,11.72033 6.65056,4.52237 17.52751,8.79755 22.38282,8.79755 3.75492,0 4.89803,2.28356 3.35469,6.70156 -1.21658,3.48259 -2.56086,5.31682 -3.83758,5.23627 -0.275,-0.0174 -4.775,-1.83061 -10,-4.02946 z"
       style="fill:#869e60" />
    <path
       id="path10346"
       d="m 410.03039,491.22569 c -2.02944,-1.64334 -2.27413,-2.36438 -1.43818,-4.23782 0.55424,-1.24209 2.55928,-2.75916 4.45757,-3.37271 3.3799,-1.09243 3.46089,-1.24764 3.97386,-7.61516 0.28799,-3.575 0.28749,-10.47414 -10e-4,-15.33143 -0.41037,-6.90648 -0.91285,-9.11521 -2.30532,-10.13341 -1.51276,-1.10615 -1.60125,-1.69553 -0.58837,-3.91857 0.93612,-2.05455 1.90277,-2.61659 4.5003,-2.61659 2.42338,0 3.16454,-0.37411 2.77131,-1.39885 -0.9113,-2.37481 1.17429,-2.66432 6.59098,-0.91493 4.10827,1.32683 5.59185,1.43061 7.08856,0.4959 1.04109,-0.65017 2.74389,-1.18212 3.78401,-1.18212 1.04011,0 2.45132,-0.675 3.13601,-1.5 0.68469,-0.825 2.03483,-1.5 3.00032,-1.5 3.04943,0 8.88498,-2.91717 9.9988,-4.99835 0.58918,-1.10091 1.9316,-2.00165 2.98315,-2.00165 2.03141,0 8.23031,-3.11204 14.03058,-7.04378 4.17712,-2.83148 10.90068,-10.90624 13.77884,-16.5479 1.13417,-2.22316 2.72878,-4.59538 3.54357,-5.2716 0.81479,-0.67621 2.6995,-4.92111 4.18824,-9.4331 1.48875,-4.51199 3.13795,-9.02313 3.6649,-10.02475 2.07626,-3.94649 3.72346,-12.81714 3.95271,-21.28647 0.27385,-10.11672 -1.72672,-28.77852 -3.41363,-31.8432 -0.62037,-1.12706 -1.45236,-4.2992 -1.84886,-7.0492 -0.39651,-2.75 -1.46551,-7.7 -2.37556,-11 -0.91006,-3.3 -1.74907,-7.45603 -1.86447,-9.23561 -0.1154,-1.77959 -0.75629,-3.78209 -1.4242,-4.45 C 489.54647,297.14647 489,295.44013 489,294.02251 c 0,-1.41763 -0.75902,-3.66114 -1.6867,-4.9856 -0.92769,-1.32446 -2.00842,-4.23709 -2.40164,-6.47251 -0.39321,-2.23542 -1.8781,-7.2144 -3.29975,-11.0644 -3.31728,-8.98359 -5.63182,-18.18506 -5.53388,-22 0.0423,-1.65 -0.56275,-8.625 -1.34467,-15.5 -1.67622,-14.73806 -1.73265,-15.47434 -1.86066,-24.27525 -0.0813,-5.59055 -0.43341,-6.95447 -2.01363,-7.80017 -1.0533,-0.56371 -1.64639,-1.45969 -1.31798,-1.99107 0.32841,-0.53137 0.98492,-0.72645 1.45891,-0.43351 1.60484,0.99184 1.83893,-1.02245 0.87414,-7.52169 -0.52892,-3.56307 -1.15173,-9.40331 -1.38401,-12.97831 -0.70882,-10.90931 -1.63338,-16.42861 -3.01523,-18 -0.72549,-0.825 -1.63958,-2.85 -2.0313,-4.5 -0.39172,-1.65 -1.26634,-3.675 -1.9436,-4.5 -0.67726,-0.825 -1.52539,-2.7375 -1.88474,-4.25 C 461.17462,145.89536 460.31692,145 458.98095,145 457.89143,145 457,144.35156 457,143.55902 c 0,-2.35773 -1.99305,-2.87529 -4.01741,-1.04326 -1.55206,1.40459 -2.44286,1.51944 -4.96517,0.64016 -1.69057,-0.58934 -3.79368,-0.79527 -4.67356,-0.45763 -1.01305,0.38874 -2.26184,-0.26382 -3.40497,-1.77931 l -1.8052,-2.3932 -2.31685,2.13447 c -2.28353,2.10378 -7.36924,2.873 -8.36309,1.26492 -0.28037,-0.45365 0.40284,-1.31323 1.51824,-1.91018 1.11541,-0.59695 2.02801,-1.96952 2.02801,-3.05017 0,-1.19636 0.68444,-1.97327 1.75,-1.98642 0.9625,-0.0119 5.125,-0.18506 9.25,-0.38486 7.65073,-0.37056 12.22886,0.19152 22.02334,2.70389 6.94919,1.78254 10.59412,3.66813 18.04685,9.33598 8.02373,6.10209 11.05777,11.50722 17.32623,30.86659 3.75495,11.59668 5.5331,21.29507 6.50875,35.5 0.50998,7.425 1.41495,14.76679 2.01103,16.3151 0.59609,1.5483 1.10355,4.6983 1.12769,7 0.0241,2.30169 0.7297,5.9849 1.56791,8.1849 0.83821,2.2 1.88597,5.41776 2.32837,7.15057 0.4424,1.73281 2.25464,6.00781 4.02721,9.5 1.77258,3.49219 4.05729,8.71619 5.07714,11.60891 1.99672,5.6635 10.93104,22.93349 14.0494,27.15743 2.39456,3.24352 6.87983,15.13849 7.94986,21.08309 0.4455,2.475 1.54513,6.525 2.44363,9 1.07367,2.95755 1.93481,10.25285 2.51232,21.28351 1.0559,20.16812 0.44477,24.2911 -6.77635,45.71649 -4.64536,13.78299 -8.05218,18.81902 -21.72338,32.11201 -4.97915,4.84141 -9.36324,7.95608 -15.18602,10.7889 -9.59002,4.66559 -27.14754,10.77392 -33.42152,11.62747 -8.84071,1.20273 -8.56701,1.00751 -9.40444,6.70788 -0.4253,2.89506 -0.8216,11.11374 -0.88065,18.26374 -0.0591,7.15 -0.47143,13.5625 -0.91639,14.25 -0.53358,0.82443 -3.47086,1.25 -8.62755,1.25 -9.0254,0 -11.06113,-1.24927 -9.46725,-5.80975 0.76027,-2.17528 1.65459,-2.74966 4.67203,-3.00062 2.05249,-0.1707 3.76874,-0.6207 3.81391,-1 0.0452,-0.37929 0.28008,-6.84366 0.52203,-14.36525 0.50111,-15.57786 0.7623,-15.11504 -8.30941,-14.72417 -2.63711,0.11363 -7.09958,-0.13776 -9.91661,-0.55864 -3.82444,-0.57139 -5.32822,-0.43134 -5.9365,0.55287 -0.44805,0.72496 -0.78174,9.08407 -0.74154,18.57581 0.0523,12.3447 -0.2834,17.74521 -1.17912,18.97019 -0.85889,1.1746 -3.10428,1.84647 -7.14864,2.13901 -4.80364,0.34746 -6.34964,0.0595 -8.34194,-1.55376 z M 359.62746,444.4846 C 358.73236,443.5895 358,442.69643 358,442.5 c 0,-1.24244 3.51994,-3.5 5.45712,-3.5 1.27285,0 3.52344,-0.62733 5.00132,-1.39406 3.89985,-2.02327 7.95493,-0.70861 8.35794,2.70964 0.37278,3.1619 -1.3641,4.05429 -9.93892,5.10653 -4.5094,0.55336 -5.94474,0.36775 -7.25,-0.93751 z m -18.06369,-11.38143 c -0.34373,-0.55615 -0.29089,-2.26939 0.11742,-3.80718 0.4083,-1.5378 0.75957,-3.24599 0.78059,-3.79599 0.065,-1.70092 4.7568,-1.10062 5.92923,0.75863 0.84403,1.33845 0.74262,2.41361 -0.42443,4.5 -1.56757,2.80243 -5.27973,4.16173 -6.40281,2.34454 z m 40.06662,-9.89219 c -0.30547,-0.49427 -0.10113,-2.54394 0.45411,-4.55483 0.79343,-2.87356 1.50835,-3.65615 3.34006,-3.65615 3.07777,0 4.79529,2.22205 4.3977,5.68953 -0.27995,2.4415 -0.80238,2.85049 -3.97936,3.1153 -2.0114,0.16765 -3.90703,-0.0996 -4.21251,-0.59385 z m 27.09262,-19.61029 c -3.27375,-5.18206 -10.58948,-12.16259 -14.47482,-13.8116 -1.5115,-0.64151 -3.87319,-2.17463 -5.24819,-3.40693 -1.375,-1.23229 -4.975,-2.8622 -8,-3.62201 l -5.5,-1.38148 -0.2533,-6.43933 C 375.10739,371.3977 374.5946,364.9 374.10717,360.5 c -1.29978,-11.73307 -0.0646,-18.45796 5.31207,-28.9222 8.49645,-16.53592 20.56979,-24.14662 38.08076,-24.00503 7.70742,0.0623 9.74923,0.45727 14.21676,2.75 2.86921,1.47248 5.71209,2.67723 6.31749,2.67723 1.78377,0 11.88917,10.15021 14.54325,14.60775 4.16679,6.99813 5.78122,13.99998 5.85474,25.39225 0.0922,14.28273 -1.48064,21.44518 -7.37027,33.5636 -5.37489,11.05927 -7.33673,13.02353 -18.77873,18.80188 -4.30544,2.1743 -6.57641,2.63421 -13,2.63273 l -7.78324,-0.002 -2.77699,-4.39573 z M 326,316.903 c -16.91104,-7.12628 -21.16902,-9.85063 -30.25,-19.35461 -4.47765,-4.68623 -5.75,-6.70608 -5.75,-9.12813 0,-3.02105 2.51099,-6.42026 4.74264,-6.42026 0.59683,0 3.41636,2.92966 6.26561,6.51036 8.74023,10.98401 18.96333,18.06163 30.13589,20.86361 3.566,0.89431 7.21583,1.62603 8.11073,1.62603 2.51295,0 2.90379,1.52312 1.52472,5.94183 -1.6,5.12659 -2.52754,5.12416 -14.77959,-0.0388 z"
       style="fill:#86c533" />
    <path
       id="path10344"
       d="m 410.02392,491.22045 c -2.17861,-1.76413 -2.31903,-2.27734 -1.2594,-4.60298 0.65593,-1.43961 2.01624,-2.61747 3.02291,-2.61747 1.00667,0 2.63391,-0.58761 3.61608,-1.30579 1.56932,-1.14751 1.77901,-2.96934 1.72995,-15.03 -0.0448,-11.01304 -0.3894,-14.2889 -1.74441,-16.58274 -2.77829,-4.70328 -1.5608,-5.70091 7.77011,-6.36695 13.94796,-0.9956 17.99103,-2.49138 40.91508,-15.13697 14.96395,-8.25456 26.21934,-23.55275 32.42932,-44.07755 1.49767,-4.95 2.95433,-9.675 3.23702,-10.5 0.28269,-0.825 0.86104,-5.325 1.28523,-10 1.07393,-11.83582 -0.69844,-25.55334 -7.42925,-57.5 -1.5822,-7.50964 -5.02479,-18.08289 -6.47688,-19.89246 -0.4888,-0.60915 -1.21682,-2.68254 -1.61781,-4.60754 -0.401,-1.925 -1.83923,-6.875 -3.19608,-11 -4.374,-13.29756 -5.18086,-17.43399 -6.28488,-32.22001 -0.59663,-7.99048 -1.5178,-17.17231 -2.04705,-20.40407 -0.52925,-3.23175 -0.96488,-9.69442 -0.96807,-14.36147 -0.01,-14.48314 -2.92351,-41.05485 -4.99072,-45.51445 -1.01979,-2.2 -2.64555,-6.025 -3.61279,-8.5 -1.89417,-4.84684 -8.07366,-12.09089 -12.87213,-15.08964 l -2.96985,-1.85597 3.96985,0.58374 c 2.18342,0.32106 5.89808,1.20882 8.2548,1.97281 2.35672,0.76398 4.96215,1.38906 5.78984,1.38906 2.37167,0 8.98717,3.68386 15.47205,8.61564 8.04813,6.12066 11.07712,11.51263 17.34958,30.88436 3.75495,11.59668 5.5331,21.29507 6.50875,35.5 0.50998,7.425 1.41495,14.76679 2.01103,16.3151 0.59609,1.5483 1.10355,4.6983 1.12769,7 0.0241,2.30169 0.7297,5.9849 1.56791,8.1849 0.83821,2.2 1.88597,5.41776 2.32837,7.15057 0.4424,1.73281 2.25464,6.00781 4.02721,9.5 1.77258,3.49219 4.05729,8.71619 5.07714,11.60891 1.99672,5.6635 10.93104,22.93349 14.0494,27.15743 2.39456,3.24352 6.87983,15.13849 7.94986,21.08309 0.4455,2.475 1.54513,6.525 2.44363,9 1.07367,2.95755 1.93481,10.25285 2.51232,21.28351 1.0559,20.16812 0.44477,24.2911 -6.77635,45.71649 -4.64536,13.78299 -8.05218,18.81902 -21.72338,32.11201 -4.97915,4.84141 -9.36324,7.95608 -15.18602,10.7889 -9.59002,4.66559 -27.14754,10.77392 -33.42152,11.62747 -8.84071,1.20273 -8.56701,1.00751 -9.40444,6.70788 -0.4253,2.89506 -0.8216,11.11374 -0.88065,18.26374 -0.0591,7.15 -0.47143,13.5625 -0.91639,14.25 -0.53358,0.82443 -3.47086,1.25 -8.62755,1.25 -9.0254,0 -11.06113,-1.24927 -9.46725,-5.80975 0.76027,-2.17528 1.65459,-2.74966 4.67203,-3.00062 2.05249,-0.1707 3.76874,-0.6207 3.81391,-1 0.0452,-0.37929 0.28008,-6.84366 0.52203,-14.36525 0.50111,-15.57786 0.7623,-15.11504 -8.30941,-14.72417 -2.63711,0.11363 -7.09958,-0.13776 -9.91661,-0.55864 -3.82444,-0.57139 -5.32822,-0.43134 -5.9365,0.55287 -0.44805,0.72496 -0.78174,9.08407 -0.74154,18.57581 0.0523,12.3447 -0.2834,17.74521 -1.17912,18.97019 -0.85889,1.1746 -3.10428,1.84647 -7.14864,2.13901 -4.8081,0.34779 -6.34899,0.06 -8.34841,-1.559 z M 360.25,445.34918 c -2.07915,-0.85802 -1.41712,-4.32888 1,-5.24273 9.06353,-3.42669 12.88283,-3.85626 14.71013,-1.65449 2.0608,2.48312 0.79873,4.91311 -2.94995,5.67979 -6.03139,1.23355 -11.46491,1.75196 -12.76018,1.21743 z m -18.68623,-12.24601 c -0.34373,-0.55615 -0.29089,-2.26939 0.11742,-3.80718 0.4083,-1.5378 0.75957,-3.24599 0.78059,-3.79599 0.065,-1.70092 4.7568,-1.10062 5.92923,0.75863 0.84403,1.33845 0.74262,2.41361 -0.42443,4.5 -1.56757,2.80243 -5.27973,4.16173 -6.40281,2.34454 z m 40.06662,-9.89219 c -0.30547,-0.49427 -0.10113,-2.54394 0.45411,-4.55483 0.79343,-2.87356 1.50835,-3.65615 3.34006,-3.65615 3.07777,0 4.79529,2.22205 4.3977,5.68953 -0.27995,2.4415 -0.80238,2.85049 -3.97936,3.1153 -2.0114,0.16765 -3.90703,-0.0996 -4.21251,-0.59385 z M 326,316.903 c -16.91104,-7.12628 -21.16902,-9.85063 -30.25,-19.35461 -4.47765,-4.68623 -5.75,-6.70608 -5.75,-9.12813 0,-3.02105 2.51099,-6.42026 4.74264,-6.42026 0.59683,0 3.41636,2.92966 6.26561,6.51036 9.10839,11.44668 19.33932,18.32457 31.44862,21.1418 8.09221,1.88265 8.64979,2.61646 6.91284,9.09784 -0.81123,3.02712 -2.28695,2.82325 -13.36971,-1.847 z"
       style="fill:#749844" />
    <path
       id="path10342"
       d="m 410.02392,491.22045 c -2.17861,-1.76413 -2.31903,-2.27734 -1.2594,-4.60298 0.65593,-1.43961 2.01624,-2.61747 3.02291,-2.61747 1.00667,0 2.63391,-0.58761 3.61608,-1.30579 1.56871,-1.14706 1.77902,-2.96725 1.73018,-14.97416 -0.0409,-10.0548 -0.44894,-14.429 -1.5434,-16.54545 -1.96889,-3.80742 -0.56438,-5.16862 5.35971,-5.19441 9.82703,-0.0428 18.47745,-2.01118 26.54364,-6.04 15.08276,-7.53339 24.4507,-13.44369 29.99512,-18.92417 7.19616,-7.11315 16.31474,-21.53647 18.21421,-28.81032 0.81723,-3.12952 1.90577,-6.47463 2.41898,-7.43357 1.34917,-2.52095 2.82534,-10.02479 3.88962,-19.77213 0.90929,-8.32795 0.29826,-17.18783 -2.17244,-31.5 -0.56968,-3.3 -1.39128,-8.2782 -1.82578,-11.06267 -1.93514,-12.40127 -6.61869,-29.51011 -9.70097,-35.43733 -0.71503,-1.375 -1.30283,-3.27062 -1.30622,-4.21249 -0.003,-0.94187 -0.84818,-4.09187 -1.87731,-7 -3.0879,-8.72578 -4.98408,-15.42675 -6.08936,-21.51933 -1.41205,-7.78362 -3.96801,-36.98888 -4.53061,-51.76818 -0.42658,-11.20602 -1.70714,-25.70824 -3.09054,-35 -0.58612,-3.93671 -4.22461,-14.12087 -7.1454,-20 -0.81973,-1.65 -3.32592,-4.90307 -5.56931,-7.22903 -2.24339,-2.32597 -3.81213,-4.4958 -3.48608,-4.82185 0.32604,-0.32605 2.67621,0.11452 5.22258,0.97903 2.54637,0.86452 5.30697,1.57185 6.13466,1.57185 2.37167,0 8.98717,3.68386 15.47205,8.61564 8.04813,6.12066 11.07712,11.51263 17.34958,30.88436 3.75495,11.59668 5.5331,21.29507 6.50875,35.5 0.50998,7.425 1.41495,14.76679 2.01103,16.3151 0.59609,1.5483 1.10355,4.6983 1.12769,7 0.0241,2.30169 0.7297,5.9849 1.56791,8.1849 0.83821,2.2 1.88597,5.41776 2.32837,7.15057 0.4424,1.73281 2.25464,6.00781 4.02721,9.5 1.77258,3.49219 4.05729,8.71619 5.07714,11.60891 1.99672,5.6635 10.93104,22.93349 14.0494,27.15743 2.39456,3.24352 6.87983,15.13849 7.94986,21.08309 0.4455,2.475 1.54513,6.525 2.44363,9 1.07367,2.95755 1.93481,10.25285 2.51232,21.28351 1.0559,20.16812 0.44477,24.2911 -6.77635,45.71649 -4.64536,13.78299 -8.05218,18.81902 -21.72338,32.11201 -4.97915,4.84141 -9.36324,7.95608 -15.18602,10.7889 -9.59002,4.66559 -27.14754,10.77392 -33.42152,11.62747 -8.84071,1.20273 -8.56701,1.00751 -9.40444,6.70788 -0.4253,2.89506 -0.8216,11.11374 -0.88065,18.26374 -0.0591,7.15 -0.47143,13.5625 -0.91639,14.25 -0.53358,0.82443 -3.47086,1.25 -8.62755,1.25 -9.0254,0 -11.06113,-1.24927 -9.46725,-5.80975 0.76027,-2.17528 1.65459,-2.74966 4.67203,-3.00062 2.05249,-0.1707 3.76874,-0.6207 3.81391,-1 0.0452,-0.37929 0.28008,-6.84366 0.52203,-14.36525 0.50111,-15.57786 0.7623,-15.11504 -8.30941,-14.72417 -2.63711,0.11363 -7.09958,-0.13776 -9.91661,-0.55864 -3.82444,-0.57139 -5.32822,-0.43134 -5.9365,0.55287 -0.44805,0.72496 -0.78174,9.08407 -0.74154,18.57581 0.0523,12.3447 -0.2834,17.74521 -1.17912,18.97019 -0.85889,1.1746 -3.10428,1.84647 -7.14864,2.13901 -4.8081,0.34779 -6.34899,0.06 -8.34841,-1.559 z m -49.66475,-47.72684 c -0.79822,-2.08013 -0.7416,-2.11881 6.3181,-4.31603 6.29036,-1.95778 9.32273,-1.50343 9.32273,1.39686 0,1.81005 -2.86483,2.93054 -9.76729,3.82016 -4.29907,0.55408 -5.37872,0.38847 -5.87354,-0.90099 z m -18.7954,-10.39044 c -0.34373,-0.55615 -0.29089,-2.26939 0.11742,-3.80718 0.4083,-1.5378 0.75957,-3.24599 0.78059,-3.79599 0.065,-1.70092 4.7568,-1.10062 5.92923,0.75863 0.84403,1.33845 0.74262,2.41361 -0.42443,4.5 -1.56757,2.80243 -5.27973,4.16173 -6.40281,2.34454 z m 40.06662,-9.89219 c -0.30547,-0.49427 -0.10113,-2.54394 0.45411,-4.55483 0.79343,-2.87356 1.50835,-3.65615 3.34006,-3.65615 3.07777,0 4.79529,2.22205 4.3977,5.68953 -0.27995,2.4415 -0.80238,2.85049 -3.97936,3.1153 -2.0114,0.16765 -3.90703,-0.0996 -4.21251,-0.59385 z M 326,316.87231 c -16.82494,-7.03565 -21.14631,-9.79618 -30.25,-19.32392 -4.47765,-4.68623 -5.75,-6.70608 -5.75,-9.12813 0,-3.02105 2.51099,-6.42026 4.74264,-6.42026 0.59683,0 3.41636,2.92966 6.26561,6.51036 8.95158,11.24961 19.12082,18.17347 30.89483,21.03514 l 7.13508,1.73418 -0.6355,3.61016 c -1.10089,6.254 -1.88724,6.37969 -12.40266,1.98247 z"
       style="fill:#5f6351" />
    <path
       id="path10340"
       d="m 409.96579,489.93608 c -1.3956,-2.6077 0.043,-4.55947 4.00161,-5.42892 1.55607,-0.34177 3.01984,-1.3832 3.25283,-2.31428 0.233,-0.93108 0.39126,-8.26026 0.3517,-16.28706 -0.053,-10.76077 -0.42985,-15.026 -1.43455,-16.23817 -1.74578,-2.10626 -1.13777,-2.31001 9.36262,-3.13748 4.4,-0.34674 9.8,-1.11079 12,-1.69789 4.57811,-1.22173 16.2667,-6.50171 18.5,-8.35684 0.825,-0.6853 4.79764,-2.95976 8.82809,-5.05437 8.29808,-4.31247 17.68728,-12.99071 21.82575,-20.1731 1.50468,-2.61138 3.78042,-6.15003 5.05721,-7.86366 2.33046,-3.12779 8.06752,-19.54155 10.09586,-28.88431 2.10882,-9.71346 2.29799,-17.92809 0.70237,-30.5 -0.87257,-6.875 -2.01911,-13.80465 -2.54788,-15.39922 C 499.43263,327.0062 499,324.61401 499,323.28479 c 0,-5.16576 -4.44317,-22.95603 -8.43784,-33.78479 -1.21736,-3.3 -3.24533,-9.375 -4.50662,-13.5 -1.26129,-4.125 -2.85422,-9.075 -3.53984,-11 -2.60344,-7.30954 -6.28885,-38.85235 -7.08094,-60.60466 -0.42982,-11.80344 -2.08814,-30.74553 -3.31763,-37.89534 -1.27939,-7.43999 -7.84247,-21.46823 -11.90599,-25.44842 -1.93634,-1.89663 -3.04349,-3.60746 -2.46033,-3.80185 1.68118,-0.56039 13.23843,2.70102 16.12651,4.55084 10.65858,6.82681 15.22145,11.64018 18.78092,19.81196 7.66226,17.59091 10.60909,29.62678 12.33673,50.38747 1.12718,13.54521 2.27146,21.15969 4.58344,30.5 2.73551,11.05137 3.15221,12.27349 6.35921,18.65057 1.7562,3.49219 4.52948,9.72443 6.16284,13.84943 1.63335,4.125 5.18753,11.325 7.89816,16 9.5566,16.48213 13.34796,26.63811 17.13012,45.88675 1.54826,7.87961 1.78054,32.06414 0.37053,38.57954 -3.1436,14.52605 -8.19123,29.60339 -11.6374,34.76107 -3.79478,5.67941 -12.1318,15.13066 -18.17222,20.60089 -8.61359,7.80051 -32.75756,18.05656 -47.38328,20.12782 -3.62815,0.51381 -6.96836,1.30592 -7.42268,1.76024 -1.19703,1.19703 -2.87371,25.57236 -2.16856,31.52623 0.49722,4.1982 0.28549,5.28384 -1.24936,6.40615 -3.45327,2.52509 -15.01515,1.34644 -15.95885,-1.62689 -1.00175,-3.15623 0.49948,-5.0218 4.04105,-5.0218 1.8337,0 3.58692,-0.40923 3.89604,-0.90941 0.30913,-0.50018 0.78351,-7.23551 1.05418,-14.9674 0.5691,-16.25639 0.51491,-16.35549 -8.76764,-16.03222 -2.8768,0.10019 -7.48055,-0.12581 -10.23055,-0.50223 -7.98563,-1.09306 -7.89843,-1.31176 -7.6773,19.25534 C 426.05106,492.0837 426.0861,492 416.96376,492 c -4.93078,0 -6.07381,-0.33712 -6.99797,-2.06392 z M 323,314.67849 c -11.12426,-4.47682 -19.73272,-10.13366 -26.81229,-17.61902 -5.64512,-5.9687 -6.70755,-8.61715 -4.69123,-11.69445 0.8523,-1.30076 2.17318,-2.36502 2.93529,-2.36502 0.76212,0 3.67508,2.91322 6.47324,6.47382 5.37116,6.83467 12.97718,13.40511 19.18273,16.57094 5.10074,2.60221 11.96074,4.92313 14.60324,4.94069 2.78675,0.0185 3.18612,0.75704 2.57645,4.76455 -0.3302,2.17047 -1.03802,3.23407 -2.13093,3.20204 -0.90007,-0.0264 -6.3615,-1.94947 -12.1365,-4.27355 z"
       style="fill:#45473a" />
    <path
       id="path10338"
       d="m 410.70762,490.37429 c -1.7977,-1.7977 -0.60025,-4.44576 2.26995,-5.0198 1.63767,-0.32754 3.48156,-1.20279 4.09755,-1.945 1.29733,-1.5632 1.78861,-25.93556 0.63516,-31.51063 l -0.74505,-3.60113 8.26738,-0.67775 c 9.98991,-0.81895 18.81061,-2.83642 21.91832,-5.01314 1.26174,-0.88376 2.91619,-1.60684 3.67655,-1.60684 0.76036,0 3.38279,-1.35 5.82763,-3 2.44483,-1.65 5.04945,-3 5.78803,-3 0.73859,0 1.6215,-0.72605 1.96202,-1.61345 0.39271,-1.02338 1.34614,-1.42334 2.60699,-1.09362 1.29995,0.33994 1.98785,0.0246 1.98785,-0.9113 0,-0.78712 1.01273,-1.81617 2.25052,-2.28678 2.86571,-1.08954 14.45623,-12.59554 15.2696,-15.15825 0.33806,-1.06513 1.05774,-1.9366 1.59929,-1.9366 0.54154,0 1.45524,-1.35 2.03043,-3 0.5752,-1.65 1.39297,-3 1.81727,-3 0.42431,0 1.98935,-2.8082 3.47787,-6.24044 2.24045,-5.16604 2.87409,-5.9408 3.6804,-4.5 0.5357,0.95724 1.40164,1.74044 1.92431,1.74044 1.54049,0 1.08672,-3.72073 -0.66774,-5.4752 -1.48736,-1.48735 -1.48855,-1.95757 -0.0147,-5.82142 1.54124,-4.04062 2.52103,-8.02525 4.80124,-19.52579 0.8112,-4.09138 1.61299,-5.57652 3.46659,-6.42108 l 2.41132,-1.09867 -2.40697,-2.57892 c -2.50681,-2.68589 -2.76502,-3.63296 -5.13671,-18.84017 -0.7944,-5.09368 -1.83488,-10.04368 -2.31219,-11 -0.47731,-0.95631 -0.95832,-3.64535 -1.0689,-5.97565 -0.11059,-2.33029 -0.85819,-6.09937 -1.66134,-8.37573 -0.80314,-2.27635 -1.46026,-5.40295 -1.46026,-6.948 0,-1.54504 -0.49829,-4.07597 -1.10732,-5.62427 -5.03397,-12.79765 -5.7648,-15.54701 -4.61997,-17.38017 0.97108,-1.55495 0.73079,-2.33312 -1.43622,-4.65115 -1.43133,-1.53108 -3.16033,-4.58378 -3.84221,-6.78378 -0.68189,-2.2 -1.63455,-4.78139 -2.11704,-5.73643 C 483.39476,263.80853 483,261.95261 483,260.6393 c 0,-1.31332 -0.5814,-4.13192 -1.292,-6.26357 -1.68966,-5.06861 -1.66223,-13.96658 0.042,-13.62573 0.6875,0.1375 1.25,-0.47314 1.25,-1.35699 0,-1.01759 -0.55016,-1.39587 -1.5,-1.03138 -0.825,0.31658 -1.53802,0.25222 -1.58448,-0.14301 -0.0465,-0.39524 -0.27724,-3.64362 -0.51283,-7.21862 -0.2356,-3.575 -0.91629,-8.91935 -1.51265,-11.87632 -0.59635,-2.95698 -1.24825,-11.28198 -1.44864,-18.5 -0.31143,-11.21716 -1.56196,-25.9336 -2.81469,-33.12368 -1.22455,-7.02831 -1.99836,-9.56355 -3.23132,-10.58682 C 469.62793,156.27624 469,155.27729 469,154.69328 c 0,-2.24048 -4.43051,-10.341 -7.39641,-13.52325 l -3.10359,-3.32996 4,0.69435 c 5.07146,0.88035 11.74078,3.73925 15.58816,6.68208 11.50334,8.79885 12.92131,11.07914 20.07501,32.2835 3.41751,10.12984 5.65457,22.68687 6.41349,36 0.31353,5.5 0.95115,11.575 1.41693,13.5 0.46578,1.925 1.14353,5.975 1.50612,9 0.83884,6.99827 4.67971,18.56484 9.07524,27.32964 1.88378,3.7563 3.42505,7.43188 3.42505,8.16795 0,1.69842 12.66834,26.4257 14.70941,28.71124 1.4238,1.59434 5.36104,11.44964 7.30741,18.29117 4.35227,15.29833 5.29445,19.97836 5.62153,27.92354 0.91086,22.12578 0.44161,27.95919 -3.20042,39.78592 -7.41938,24.09284 -8.08821,25.23401 -24.07755,41.08088 -5.87754,5.82517 -9.75231,8.68937 -15.36038,11.35431 -10.8213,5.14224 -28.50778,11.00146 -35.70468,11.82833 -3.55476,0.40842 -6.74091,1.359 -7.46025,2.22575 -0.87528,1.05465 -1.34484,6.84337 -1.55028,19.11203 -0.16209,9.67953 -0.67458,17.97903 -1.13888,18.44333 -0.46429,0.46429 -3.94956,0.70956 -7.74504,0.54504 L 444.5,490.5 l 0,-3 c 0,-2.75 0.33333,-3.04167 4,-3.5 l 4,-0.5 0.60427,-14.5 c 0.45412,-10.89698 0.29433,-14.83728 -0.64307,-15.85736 -1.61646,-1.75902 -24.72299,-3.21419 -26.28203,-1.65515 -1.15823,1.15824 -1.81601,13.00815 -0.94953,17.10596 0.47605,2.2514 0.50664,8.1014 0.068,13 L 424.5,490.5 l -6.54238,0.29096 c -3.5983,0.16002 -6.8608,-0.0275 -7.25,-0.41667 z M 322.77586,314.02728 c -5.34827,-2.09328 -11.1203,-4.98076 -12.82672,-6.41662 C 308.24271,306.1748 306.49196,305 306.05857,305 304.15925,305 291,291.26113 291,289.27816 c 0,-7.34356 3.54907,-6.88515 10.0619,1.29963 5.25431,6.60318 11.98918,12.21599 19.4381,16.19963 5.65968,3.02676 11.41499,5.22258 13.68855,5.22258 1.52986,0 1.87685,0.58435 1.62787,2.74145 -0.17578,1.52295 -0.98313,2.81931 -1.81642,2.91662 -0.825,0.0963 -5.87586,-1.53751 -11.22414,-3.63079 z"
       style="fill:#403e38" />
    <path
       id="path10336"
       d="m 410.60374,489.40976 c -0.85342,-2.22399 -0.0458,-3.15377 3.39626,-3.90976 1.63739,-0.35963 3.24239,-1.08319 3.56669,-1.6079 0.32429,-0.52472 0.79118,-7.49918 1.03752,-15.4988 0.40176,-13.04625 0.67604,-14.85334 2.66214,-17.53968 1.70283,-2.30321 2.7914,-2.88457 4.71329,-2.51718 1.37449,0.26275 3.17886,0.12595 4.00972,-0.30401 0.83085,-0.42995 4.1896,-1.10694 7.46388,-1.50443 5.25477,-0.63791 5.80556,-0.54476 4.69455,0.79393 -1.03501,1.24711 -0.93785,1.69673 0.54676,2.5301 1.58178,0.88791 1.61001,1.0888 0.2279,1.62153 -0.86765,0.33444 -2.80945,0.1397 -4.3151,-0.43275 C 437.1017,450.46837 433.4241,450 430.4349,450 l -5.4349,0 -0.1235,6.25 c -0.0679,3.4375 -0.0216,11.99807 0.10296,19.02348 0.15794,8.9088 -0.14429,13.22021 -0.99895,14.25 -1.78075,2.14567 -12.54487,2.05416 -13.37677,-0.11372 z m 34.32669,0.006 c -1.87347,-2.2574 0.0716,-5.00411 3.26887,-4.61611 1.35998,0.16504 2.93607,-0.28496 3.50242,-1 0.56635,-0.71504 1.32766,-7.88371 1.69179,-15.93037 l 0.66207,-14.6303 -4.02779,-1.6116 c -3.9672,-1.58736 -4.7547,-2.56075 -3.27779,-4.05149 0.4125,-0.41636 0.75,-1.60765 0.75,-2.6473 0,-2.65912 1.93498,-2.88533 2.30766,-0.26977 0.26099,1.8317 0.91131,2.13508 4.28727,2 2.18878,-0.0876 4.30034,-0.65653 4.69234,-1.26433 1.08312,-1.67938 7.91818,-3.62317 10.19703,-2.89989 2.02687,0.6433 2.09572,0.5107 2.41376,-4.6488 0.0561,-0.90958 1.29185,-2.59231 2.74619,-3.7394 l 2.64426,-2.08562 0.60807,2.42275 c 0.81301,3.23932 4.31202,4.32185 6.13072,1.89675 1.18344,-1.57803 1.16398,-2.0057 -0.13634,-2.99694 -1.13856,-0.86793 -1.33887,-2.1045 -0.80332,-4.9592 0.6092,-3.24735 0.82671,-3.49675 1.48877,-1.70705 1.15372,3.11881 7.7481,2.27335 12.31969,-1.57951 1.40814,-1.18676 2.00747,-1.27976 2.32887,-0.36138 0.23803,0.68014 1.26825,2.25514 2.28939,3.5 1.79221,2.18487 1.91956,2.20056 3.67113,0.45226 1.75266,-1.74938 1.75058,-1.85853 -0.0609,-3.20195 C 502.74076,424.08987 502.97768,421 504.96862,421 505.53588,421 506,419.02748 506,416.61663 c 0,-3.50416 0.39093,-4.4856 1.94904,-4.89305 1.21398,-0.31747 2.43967,0.20238 3.25,1.37842 0.90455,1.31279 1.98654,1.70172 3.55096,1.27642 2.4933,-0.67782 3.07175,-2.37842 0.80902,-2.37842 -2.94852,0 -2.52541,-2.00281 0.89064,-4.21593 3.70964,-2.40332 4.12312,-3.3355 2.56554,-5.78407 -0.78896,-1.24028 -1.30575,-1.2821 -2.98469,-0.24153 C 514.36117,402.7931 514,402.77041 514,401.63092 c 0,-2.03039 2.6432,-4.01726 3.5,-2.63092 0.48336,0.78209 1.10012,0.74683 2.14797,-0.12281 1.06322,-0.88238 1.29095,-2.27925 0.82308,-5.04856 C 519.95146,390.75324 520.13043,390 521.38072,390 c 0.85608,0 1.36211,0.5625 1.12451,1.25 -0.2376,0.6875 -0.11098,3.68818 0.28138,6.66818 0.82833,6.29115 3.21339,8.2693 3.21339,2.66515 0,-2.4436 0.45566,-3.58333 1.43261,-3.58333 0.78794,0 1.73609,-0.95618 2.10701,-2.12485 0.62639,-1.97356 -0.24688,-3.21231 -2.92947,-4.15551 -0.48942,-0.17208 -0.87312,-2.3169 -0.85267,-4.76626 0.0543,-6.50126 0.17073,-7.35851 0.90051,-6.62872 0.93768,0.93768 3.29355,-1.23885 2.86594,-2.64777 -0.19645,-0.64729 -0.62502,-3.08939 -0.95237,-5.42689 -0.55972,-3.99668 -0.45045,-4.25 1.83329,-4.25 1.33567,0 2.5956,0.50136 2.79986,1.11414 0.20426,0.61278 1.25426,0.88548 2.33334,0.606 1.84026,-0.47663 1.82239,-0.55297 -0.28805,-1.23077 -1.2375,-0.39745 -2.25,-1.2754 -2.25,-1.95101 0,-0.67561 -0.9,-2.04287 -2,-3.03836 -3.01029,-2.72428 -2.56934,-5.43613 1,-6.15 4.0146,-0.80292 3.85477,-3.14066 -0.24181,-3.53664 C 528.38866,352.48765 526.25629,349 529.42668,349 c 1.75805,0 2.11313,-1.54835 0.57332,-2.5 -1.61255,-0.99661 -1.14891,-3.31902 0.75,-3.75683 1.41062,-0.32522 1.22243,-0.65885 -0.97039,-1.72034 -2.2226,-1.07591 -3.00469,-1.08092 -4.27416,-0.0274 -2.2541,1.87074 -3.13483,0.35746 -1.10035,-1.89062 1.45866,-1.6118 2.27699,-1.75531 5.28043,-0.92602 4.72128,1.30361 6.18714,-0.11558 3.67708,-3.56002 -2.00286,-2.74843 -4.27827,-3.30316 -6.09539,-1.48604 -1.56434,1.56434 -4.26722,0.33148 -4.26722,-1.94641 0,-3.1226 3.24071,-5.28823 6.83711,-4.56895 2.45743,0.49149 3.16289,0.28838 3.16289,-0.91063 0,-0.84877 0.29024,-2.29958 0.64499,-3.22402 0.56047,-1.46058 0.38129,-1.51613 -1.36754,-0.42397 -2.72671,1.70286 -5.27745,0.533 -5.27745,-2.42043 0,-1.33341 -0.70603,-2.69532 -1.56895,-3.02646 -1.05779,-0.40591 -1.35667,-1.27089 -0.91738,-2.65497 C 525.35069,311.31971 523.41511,309 520.37756,309 c -2.749,0 -3.1278,-1.48076 -0.72307,-2.82652 1.05894,-0.59261 1.41265,-1.55613 0.98263,-2.67675 -0.4279,-1.11509 -0.0307,-2.21968 1.09394,-3.04202 2.81221,-2.05634 0.71464,-2.82354 -2.8533,-1.04362 -3.54865,1.7703 -6.35169,0.66284 -4.07776,-1.61109 1.84988,-1.84988 1.42322,-3.8 -0.83138,-3.8 -1.11727,0 -2.29041,-0.675 -2.60699,-1.5 -0.31659,-0.825 -1.65246,-1.5 -2.96862,-1.5 -2.86933,0 -2.83888,0.27379 -0.50348,-4.52754 1.03924,-2.13656 1.66755,-4.46312 1.39624,-5.17013 -0.2713,-0.70701 0.22841,-1.56241 1.11048,-1.90089 0.88206,-0.33848 1.60375,-1.03311 1.60375,-1.54361 0,-0.53517 -0.8162,-0.49138 -1.92756,0.1034 -2.50155,1.33879 -4.81336,0.40629 -5.71101,-2.30361 -1.39842,-4.22167 -1.10091,-5.40762 1.35656,-5.40762 3.49698,0 4.04684,-1.16449 1.46829,-3.10949 -1.4574,-1.09932 -2.05719,-2.31334 -1.6575,-3.35491 0.85687,-2.23297 -2.19776,-3.6722 -6.43095,-3.03004 l -3.40216,0.51611 0.72956,-3.38584 C 498.10769,250.07772 498.27445,247 497.01504,247 c -0.74206,0 -1.04306,-0.78485 -0.74221,-1.93531 0.5789,-2.21373 -1.75436,-6.06469 -3.67455,-6.06469 -0.70857,0 -2.10136,0.89841 -3.09508,1.99647 -2.14093,2.36569 -4.50476,1.10058 -4.3953,-2.35235 0.0374,-1.17926 -0.24909,-3.15662 -0.6366,-4.39412 -0.95175,-3.03937 0.88385,-2.88311 2.93674,0.25 1.98194,3.02482 5.59196,3.3857 5.59196,0.55902 0,-1.06754 0.45,-2.2191 1,-2.55902 1.78578,-1.10368 1.0568,-2.48262 -1.18324,-2.23821 -1.89557,0.20682 -2.20652,-0.28882 -2.36001,-3.76179 -0.0972,-2.2 0.17455,-4.22951 0.60395,-4.51002 0.4294,-0.28051 1.07277,-1.85551 1.4297,-3.5 l 0.64898,-2.98998 -2.06735,2.35789 c -2.62288,2.9915 -5.55723,2.21143 -4.68932,-1.24661 0.397,-1.58176 -0.0985,-3.2515 -1.48963,-5.02008 -2.68699,-3.41596 -1.87612,-5.87603 1.64548,-4.99217 1.89755,0.47626 3.09688,0.096 4.52196,-1.43362 1.06672,-1.14498 1.93948,-2.25183 1.93948,-2.45966 0,-0.50101 -7.5362,-1.04275 -12.25,-0.88059 -4.03004,0.13864 -5.39554,-2.16158 -1.83581,-3.09247 1.05281,-0.27531 3.08345,-2.3528 4.51254,-4.61663 2.55505,-4.04745 3.33396,-4.52329 6.82327,-4.16836 2.58514,0.26297 2.12543,-2.45561 -0.62733,-3.70985 -1.63928,-0.74691 -2.69882,-0.7617 -3.41287,-0.0477 -0.56954,0.56954 -1.53281,0.7282 -2.14059,0.35257 -0.70889,-0.43812 0.15833,-2.15895 2.41901,-4.80005 2.5584,-2.98891 3.18178,-4.32864 2.27491,-4.88911 -0.79007,-0.48829 -1.51553,-0.052 -1.97392,1.18718 -0.39862,1.07757 -1.15246,1.95921 -1.6752,1.95921 -0.52274,0 -1.72878,0.29868 -2.6801,0.66373 -1.44019,0.55266 -1.64331,0.21201 -1.21369,-2.0354 0.37536,-1.9636 0.007,-2.9716 -1.35212,-3.69892 -1.02746,-0.54988 -1.8681,-1.51744 -1.8681,-2.15014 0,-0.6327 -0.9423,-2.1534 -2.094,-3.37933 l -2.094,-2.22896 2.094,-1.12067 C 478.45821,164.6844 478.91183,159 476.46862,159 c -0.84227,0 -1.78942,0.67242 -2.10479,1.49426 -0.87835,2.28895 -2.155,0.86413 -1.63993,-1.83028 0.34249,-1.79158 -0.0635,-2.51951 -1.63411,-2.93025 C 469.53818,155.32798 469,154.39054 469,152.09362 469,150.39213 468.52704,149 467.94897,149 c -0.57806,0 -1.67056,-1.4625 -2.42777,-3.25 -0.75722,-1.7875 -2.30925,-3.81631 -3.44898,-4.50847 -3.66535,-2.22599 -2.21724,-3.01268 3.21932,-1.74891 6.61828,1.53847 8.68886,2.7108 16.38339,9.27604 6.12629,5.22715 10.82655,11.9653 12.36866,17.73134 0.44128,1.65 1.93658,6.15 3.32287,10 3.31633,9.21009 5.28127,19.31936 6.60857,34 0.59671,6.6 1.49973,14.475 2.0067,17.5 2.41382,14.40273 3.26527,18.57646 3.97807,19.5 0.4245,0.55 1.02032,2.125 1.32405,3.5 0.97547,4.41596 3.77029,11.26729 5.70396,13.98288 1.03356,1.45151 2.20008,3.96166 2.59226,5.57811 1.02761,4.23553 12.24661,26.42702 15.04836,29.76608 1.30469,1.55489 2.63912,4.02989 2.96542,5.5 0.32629,1.47011 1.40397,4.92293 2.39484,7.67293 0.99087,2.75 2.36057,7.25 3.04378,10 0.6832,2.75 1.87752,7.25 2.65404,10 1.91042,6.76566 2.72752,35.42258 1.19755,42 -2.32377,9.99001 -8.14014,28.02656 -10.48254,32.50631 -1.31956,2.52361 -4.08722,6.3675 -6.15036,8.54197 -2.06314,2.17447 -4.88125,5.30316 -6.26248,6.95265 -3.48456,4.16133 -14.16291,13.4989 -15.4383,13.49986 -0.57771,4.3e-4 -3.85377,1.32702 -7.28013,2.94796 -9.78724,4.63015 -24.06766,9.21307 -31.6905,10.17023 -3.83596,0.48166 -7.41147,1.31274 -7.94558,1.84685 -1.10852,1.10852 -1.48769,6.47057 -1.66417,23.53417 -0.0683,6.6 -0.34476,12.7875 -0.61444,13.75 -0.6776,2.41833 -12.44351,2.55388 -14.42513,0.16618 z M 517,331.5 c 0,-0.825 -0.675,-1.5 -1.5,-1.5 -1.91787,0 -1.89537,-0.99051 0.0868,-3.82045 1.25,-1.78462 1.33238,-2.57202 0.38813,-3.70977 -1.87799,-2.26284 -0.39072,-4.65201 2.66853,-4.28675 4.31464,0.51514 5.04871,2.96707 1.90413,6.36013 -2.05449,2.21683 -2.57196,3.58494 -2.15137,5.68788 C 518.70079,331.75397 518.51125,333 517.975,333 517.43875,333 517,332.325 517,331.5 Z M 320.66851,312.95803 c -10.28928,-3.38084 -29.50737,-19.2805 -29.62312,-24.50803 -0.0497,-2.24632 1.69142,-4.45 3.51599,-4.45 0.63876,0 3.74642,3.375 6.90592,7.5 3.15949,4.125 6.11234,7.5 6.56189,7.5 0.44955,0 2.27996,1.2375 4.06758,2.75 1.78762,1.5125 6.85087,4.55 11.25166,6.75 4.40079,2.2 8.18521,4.5625 8.40983,5.25 0.59368,1.81705 -4.18887,1.47551 -11.08975,-0.79197 z"
       style="fill:#36382f" />
  </g>
</svg>
