<?xml version="1.0" encoding="UTF-8" standalone="no"?>
<svg
   xmlns:dc="http://purl.org/dc/elements/1.1/"
   xmlns:cc="http://creativecommons.org/ns#"
   xmlns:rdf="http://www.w3.org/1999/02/22-rdf-syntax-ns#"
   xmlns:svg="http://www.w3.org/2000/svg"
   xmlns="http://www.w3.org/2000/svg"
   viewBox="0 0 800 600"
   height="600"
   width="800"
   version="1.1"
   id="svg9352">
  <metadata
     id="metadata9358">
    <rdf:RDF>
      <cc:Work
         rdf:about="">
        <dc:format>image/svg+xml</dc:format>
        <dc:type
           rdf:resource="http://purl.org/dc/dcmitype/StillImage" />
        <dc:title></dc:title>
      </cc:Work>
    </rdf:RDF>
  </metadata>
  <defs
     id="defs9356" />
  <g
     id="g11138">
    <path
       id="path11168"
       d="m 372.52283,495.95998 c -2.29912,-0.70161 -43.0887,-1.43674 -54.02283,-0.97363 -1.1,0.0466 -11,0.075 -22,0.0631 -49.90509,-0.0539 -43.88366,0.32871 -47.46392,-3.01576 -4.13539,-3.86303 -3.87508,-7.56981 0.7497,-10.67585 l 3.28578,-2.20676 -2.86917,-3.32554 c -5.48609,-6.35873 -9.19014,-16.46652 -10.7948,-29.45735 -0.68982,-5.58455 1.59158,-18.28416 4.37757,-24.3682 2.43151,-5.30992 10.95111,-17.78743 16.64086,-24.37165 11.09858,-12.84334 14.28249,-16.01373 19.32398,-19.24186 2.8875,-1.84891 5.25,-3.80405 5.25,-4.34476 0,-0.54071 -2.06223,-3.1338 -4.58274,-5.76242 -2.5205,-2.62862 -5.48206,-6.72685 -6.58124,-9.10718 -1.22432,-2.65134 -3.68749,-5.51838 -6.35853,-7.4011 -2.39801,-1.69028 -4.87633,-4.3197 -5.50736,-5.84315 -0.63104,-1.52345 -3.89793,-4.71796 -7.25977,-7.0989 -3.36184,-2.38094 -8.38446,-6.39277 -11.1614,-8.91518 -5.7612,-5.23315 -18.09336,-13.63576 -25.58233,-17.43071 -2.79424,-1.41595 -6.45725,-3.89021 -8.14002,-5.49835 -1.68277,-1.60815 -3.90686,-3.19282 -4.94243,-3.5215 -4.45388,-1.41361 -12.48424,-7.95836 -16.84694,-13.73026 -6.68402,-8.84305 -7.29937,-10.31615 -7.38137,-17.67038 -0.1995,-17.89267 10.59632,-32.76827 28.34413,-39.05548 9.17203,-3.24922 36.35695,-4.64397 48,-2.4627 4.125,0.7728 12.45,2.29394 18.5,3.38031 12.31316,2.21102 22.88118,4.57478 24.25829,5.42589 0.50189,0.31018 4.4741,1.29131 8.82712,2.18029 4.35302,0.88897 9.21624,2.2557 10.80714,3.03717 6.41964,3.1534 19.11297,4.51826 45.27679,4.86841 24.38061,0.32629 26.22362,0.48351 32.83066,2.80057 19.11017,6.70184 27.43646,10.06981 32,12.94395 2.75,1.73196 6.8,4.13618 9,5.34271 13.05525,7.15979 19.35271,12.83412 32.5,29.2841 7.45839,9.33199 19,29.57915 19,33.33124 0,0.99006 0.88219,3.37077 1.96042,5.29048 4.17626,7.43547 5.23082,13.85299 5.19378,31.60669 -0.0194,9.2801 -0.46725,17.68085 -0.99531,18.66834 -0.52806,0.98748 -0.95983,3.43669 -0.9595,5.44268 8.3e-4,4.97513 -0.72852,6.95176 -6.40297,17.35275 -9.91715,18.17769 -13.06929,22.10718 -25.26848,31.5 l -8.44206,6.5 0.12911,6.5 c 0.071,3.575 0.91376,9.2 1.87277,12.5 0.95901,3.3 2.00816,7.20961 2.33144,8.68802 l 0.58779,2.68802 14.63312,-0.46343 c 8.04821,-0.25489 14.95534,-0.66259 15.34917,-0.90599 1.72817,-1.06806 16.22142,1.37408 18.06702,3.04433 2.27856,2.06207 2.50087,6.81463 0.48878,10.44905 -1.37387,2.48161 -1.49315,2.501 -16.21457,2.63629 -29.00246,0.26654 -68.30888,1.23228 -69.06379,1.69687 -0.4217,0.25952 -4.59172,0.0842 -9.26672,-0.38962 -12.61555,-1.2786 -29.90339,-1.12001 -36,0.33026 -1.375,0.32709 -3.83972,0.18587 -5.47717,-0.31382 z M 398.75,480.38501 c 4.5375,-0.3105 8.25,-0.9179 8.25,-1.34978 0,-0.43188 -0.27692,-2.16985 -0.61538,-3.86215 -0.5411,-2.70549 -0.93851,-3.0123 -3.29206,-2.54159 -1.47217,0.29443 -6.12628,-0.1772 -10.34246,-1.04808 C 388.53392,470.71254 383.43911,470 381.42831,470 c -2.0108,0 -5.29227,-0.84974 -7.29216,-1.88832 -1.99988,-1.03857 -5.59208,-2.47493 -7.98266,-3.19191 -4.27277,-1.28148 -15.41031,-7.90826 -16.64272,-9.90235 -1.24742,-2.01836 -2.43157,-0.94552 -3.01608,2.73258 -0.83819,5.27437 -4.01271,11.82521 -8.21655,16.95545 -2.13804,2.60919 -3.22406,4.74525 -2.68442,5.27991 0.5202,0.51541 4.58425,0.56091 9.53983,0.10681 7.67356,-0.70315 28.43298,0.14103 29.49122,1.19926 0.4221,0.42211 9.9326,0.0648 24.12523,-0.90642 z m 42.83849,-0.87247 c 0.99009,-0.29636 0.42583,-4.85359 -2.12107,-17.13092 -0.42426,-2.04515 -0.73409,-1.97601 -8.96214,2 -8.52172,4.11791 -8.52262,4.11876 -7.95196,7.45745 0.81748,4.78273 2.47612,8.01063 4.33601,8.43838 1.67291,0.38474 12.79133,-0.19383 14.69916,-0.76491 z"
       style="fill:#eeeed8" />
    <path
       id="path11166"
       d="m 304,494.68573 c -0.275,-0.27786 -11.83875,-0.75218 -25.69722,-1.05404 -25.98326,-0.56594 -28.6506,-1.00148 -29.88134,-4.87921 -0.9651,-3.04075 0.51353,-5.45587 4.21054,-6.87731 L 256.20864,480.5 252.30719,476 c -8.70769,-10.04359 -12.60983,-25.93521 -10.30932,-41.98512 1.15587,-8.06415 1.93124,-10.2118 6.40855,-17.75078 2.80147,-4.71716 7.56858,-11.39032 10.59358,-14.82926 3.025,-3.43893 7.94843,-9.05416 10.94097,-12.4783 2.99253,-3.42413 7.80024,-7.73491 10.6838,-9.5795 2.88356,-1.8446 5.53598,-3.82812 5.89427,-4.40784 0.35828,-0.57972 -1.52443,-3.57343 -4.18381,-6.65267 -2.65937,-3.07925 -5.73523,-7.42993 -6.83523,-9.66817 -1.1,-2.23824 -3.88218,-5.43726 -6.18263,-7.10894 -2.30044,-1.67168 -4.89402,-4.47024 -5.7635,-6.21901 -0.86949,-1.74878 -4.79878,-5.5201 -8.73177,-8.38071 -3.93299,-2.86062 -8.78195,-6.8298 -10.77546,-8.82041 -3.66867,-3.66333 -17.99228,-13.11835 -25.80677,-17.03505 -2.34308,-1.17438 -5.49308,-3.25187 -7,-4.61665 -1.50693,-1.36479 -5.66487,-4.27447 -9.23987,-6.46596 -3.575,-2.19149 -7.00913,-4.32587 -7.63141,-4.74308 -0.62227,-0.4172 -3.70928,-4.35855 -6.86001,-8.75855 l -5.7286,-8 0.45399,-7.5 c 0.67872,-11.21244 3.33893,-18.37151 9.21611,-24.80208 2.73355,-2.99094 6.56305,-6.4398 8.51001,-7.66413 12.21978,-7.68432 43.33802,-10.18061 65.53991,-5.25756 3.85,0.8537 12.85,2.71095 20,4.12724 15.44342,3.05906 31.27646,7.09429 33.83526,8.62331 4.57539,2.73403 18.58839,4.15128 44.16474,4.46674 28.74299,0.35451 25.14879,-0.27728 49.5,8.70108 10.77946,3.97441 15.98438,6.51617 20.94428,10.22789 1.89435,1.41763 3.79817,2.57751 4.23071,2.57751 0.43253,0 4.0576,2.21293 8.05572,4.91763 9.86914,6.67641 20.06577,17.60165 29.47613,31.58237 4.70328,6.98754 13.29316,23.1149 13.29316,24.95769 0,0.69612 1.45779,4.36542 3.23954,8.15399 l 3.23953,6.88832 -0.0336,19 c -0.0349,19.74987 -1.19469,31.37399 -3.5615,35.6957 -0.7612,1.3899 -3.08063,5.62697 -5.1543,9.4157 -8.48602,15.50447 -12.96055,20.8343 -25.51206,30.3886 l -7.22537,5.5 0.38938,8.5 c 0.38564,8.41864 3.28319,21.06483 5.28515,23.06679 0.64161,0.64161 6.34758,0.9496 14.93574,0.80617 31.49042,-0.5259 33.39747,-0.14563 33.39747,6.65958 0,5.21648 -1.2063,5.56623 -18.65324,5.40826 -8.71572,-0.0789 -21.92176,0.23963 -29.34676,0.70786 -12.57375,0.79293 -41.34683,0.91364 -57.5,0.24124 -3.85,-0.16026 -12.4,-0.22854 -19,-0.15172 -6.6,0.0768 -25.05,0.0795 -41,0.006 -15.95,-0.0735 -31.025,0.22191 -33.5,0.65655 -2.475,0.43464 -4.725,0.56291 -5,0.28504 z m 104.12641,-13.43279 c 0.40275,-0.41412 0.22926,-2.92977 -0.38554,-5.59034 -1.10808,-4.79523 -1.14888,-4.83365 -4.67935,-4.40705 -1.95883,0.23669 -4.91152,0.0499 -6.56152,-0.41504 -1.65,-0.46496 -6.81246,-1.31936 -11.47214,-1.89867 -4.65967,-0.57931 -9.83467,-1.86919 -11.5,-2.86639 -1.66532,-0.9972 -4.59361,-2.10652 -6.50731,-2.46516 -3.22907,-0.60515 -16.20541,-8.48235 -17.54572,-10.65101 -1.42688,-2.30874 -3.33562,-0.73309 -3.98639,3.29072 -0.99907,6.17737 -3.76708,11.96446 -8.93521,18.68082 -2.50428,3.2545 -4.55323,6.21096 -4.55323,6.56993 0,0.35896 5.5125,0.38398 12.25,0.0556 6.7375,-0.32839 15.625,-0.20127 19.75,0.28249 8.57875,1.00607 43.0229,0.54873 44.12641,-0.5859 z m 34.54891,-0.0311 c 1.50882,-0.95966 -1.74741,-21.41252 -3.50213,-21.99742 -0.64808,-0.21603 -3.31943,0.92464 -5.93632,2.53483 -2.61689,1.61019 -6.44073,3.48297 -8.49742,4.16175 -4.08692,1.3488 -4.53765,2.80907 -2.76974,8.97341 1.75025,6.10275 3.44144,7.10742 11.93528,7.0903 4.17725,-0.008 8.12391,-0.35171 8.77033,-0.76287 z M 294.25,461.18409 c 3.58827,-3.3381 3.67341,-7.93323 0.22297,-12.03385 -4.92689,-5.85528 -11.52651,-4.77187 -14.95598,2.45519 -4.81014,10.13663 6.34041,17.38616 14.73301,9.57866 z m -6.67017,-1.05493 c -0.29602,-0.47896 -1.89758,-1.14271 -3.55902,-1.475 -2.3115,-0.4623 -3.02081,-1.1448 -3.02081,-2.90665 0,-6.36935 6.47352,-8.81831 11.35398,-4.29526 2.98262,2.7642 3.12025,3.41282 1.4855,7.0007 -1.14847,2.52062 -5.08611,3.57505 -6.25965,1.67621 z m 7.88537,-40.23275 c 2.76059,-2.42383 3.5348,-3.85745 3.5348,-6.54546 0,-9.72756 -14.18708,-11.55616 -18.01215,-2.32161 -1.36618,3.29825 -0.63523,7.57938 1.74505,10.22066 2.62989,2.91826 8.5884,2.2848 12.7323,-1.35359 z M 289.5,419 c -0.33992,-0.55 -1.66138,-1 -2.93657,-1 -4.9584,0 -5.40347,-5.14912 -0.80315,-9.2919 1.87673,-1.69007 2.22473,-1.6979 6.12388,-0.13777 4.88504,1.9546 6.19947,5.12689 3.70302,8.93696 -1.65171,2.52083 -4.95164,3.33005 -6.08718,1.49271 z"
       style="fill:#d5d4ab" />
    <path
       id="path11164"
       d="m 415.5,494.03521 c -2.75,-0.37575 -6.18262,-1.25962 -7.62805,-1.96415 -2.09548,-1.02138 -5.71025,-1.05605 -17.83757,-0.17111 -8.36523,0.61042 -15.6981,0.80788 -16.29528,0.43881 -2.06056,-1.2735 -58.03567,-1.04466 -60.7391,0.24832 -2.39308,1.14455 -13.03622,0.96589 -50.72228,-0.85145 -9.80309,-0.47273 -12.57928,-1.64854 -12.07598,-5.11457 0.21097,-1.45284 1.39573,-2.31233 4.04826,-2.93684 2.0625,-0.4856 3.7352,-1.4007 3.71711,-2.03356 -0.0181,-0.63286 -1.84969,-2.95066 -4.0702,-5.15066 -5.32227,-5.27309 -9.22203,-13.90583 -11.36523,-25.15878 -1.62039,-8.50787 -1.6302,-9.61399 -0.13802,-15.56389 0.88349,-3.52281 1.60634,-7.17068 1.60634,-8.10637 0,-3.58785 9.87807,-19.23436 18.18983,-28.81205 11.60137,-13.36833 15.26113,-16.9225 20.42765,-19.8383 2.96039,-1.67074 5.38252,-3.72857 5.38252,-4.57297 0,-0.84439 -2.31572,-4.31787 -5.14604,-7.71885 -2.83032,-3.40098 -5.7588,-7.65013 -6.50773,-9.44257 -0.74893,-1.79244 -3.57784,-4.91349 -6.28648,-6.93568 -2.70864,-2.02218 -5.18523,-4.71435 -5.50354,-5.98258 -0.33053,-1.31696 -3.68324,-4.61855 -7.81747,-7.69829 -3.98131,-2.96582 -9.07633,-7.14229 -11.32228,-9.28104 -4.17367,-3.97445 -18.55538,-13.48483 -26.13866,-17.28504 -2.3222,-1.16373 -5.6972,-3.37286 -7.5,-4.90918 -1.80279,-1.53633 -6.45634,-4.68446 -10.34122,-6.99586 -6.94391,-4.13144 -8.42618,-5.63954 -14.75202,-15.00901 -2.88084,-4.26695 -3.15997,-5.36539 -3.09758,-12.18954 0.10355,-11.32526 3.10283,-19.25723 9.66435,-25.55853 6.56977,-6.30922 9.00858,-7.83402 16.64393,-10.40618 11.47846,-3.86682 39.86421,-5.00688 50.12034,-2.01299 1.91642,0.55943 7.7594,1.66806 12.9844,2.46364 5.225,0.79557 14,2.61822 19.5,4.05032 5.5,1.43211 13.5692,3.48502 17.93156,4.56202 4.36235,1.077 8.41982,2.36342 9.0166,2.8587 2.94269,2.44221 20.78692,4.22225 45.05184,4.4941 27.56793,0.30887 25.00722,-0.14335 49,8.65325 8.30494,3.04488 19.83439,9.29133 33.5,18.14969 10.35684,6.71354 26.09336,25.51287 34.52613,41.24598 2.06356,3.85 4.36159,8.125 5.10674,9.5 0.74514,1.375 1.35758,3.23698 1.36097,4.13773 0.003,0.90075 1.46621,4.72575 3.25072,8.5 3.14887,6.65989 3.26031,7.34888 3.7787,23.36227 0.38325,11.83869 0.16283,18.03563 -0.78024,21.93581 -0.72292,2.98969 -1.10423,5.9835 -0.84735,6.6529 0.89114,2.32228 -2.26688,9.9708 -8.82864,21.38236 -7.33952,12.76417 -12.47339,18.66879 -23.93547,27.52893 l -7.76201,6 0.62068,8 c 0.7478,9.63848 4.03385,22.32241 6.42435,24.79756 1.51276,1.56632 3.33438,1.76942 14.16075,1.57887 30.00922,-0.52819 29.97449,-0.52991 31.50568,1.5647 1.59888,2.18721 1.74698,3.4942 0.60051,5.29941 -0.74884,1.1791 -3.82471,1.31486 -28.18152,1.24382 -3.025,-0.009 -9.1,0.46791 -13.5,1.05942 -9.52103,1.27994 -18.3724,1.41973 -28.24066,0.44602 -5.61818,-0.55435 -8.14359,-0.35315 -11.27023,0.89788 -2.21627,0.88678 -4.13298,1.54896 -4.25935,1.47152 -0.12637,-0.0774 -2.47976,-0.44823 -5.22976,-0.82399 z m -7.47983,-11.046 c 2.30039,-1.23113 2.28261,-1.00079 0.57794,-7.48921 l -1.31363,-5 -6.89224,-0.62986 C 396.60151,469.52372 391.7,468.73873 389.5,468.12572 c -2.2,-0.61301 -5.58166,-1.11708 -7.51481,-1.12014 -1.93314,-0.003 -5.08314,-0.84558 -7,-1.87225 -1.91685,-1.02668 -5.06019,-2.18813 -6.98519,-2.58101 -3.8247,-0.78061 -12.6408,-6.20563 -17.71359,-10.90013 l -3.21358,-2.97394 -0.97108,2.55411 c -0.53408,1.40477 -1.2872,4.28966 -1.67358,6.41088 -1.06437,5.84327 -3.90276,11.16563 -9.87947,18.52534 -4.4611,5.49338 -5.12381,6.78049 -3.7605,7.30364 0.91022,0.34929 7.29275,0.37027 14.18338,0.0466 6.89063,-0.32363 15.67842,-0.17974 19.52842,0.31976 8.97538,1.16448 40.92226,0.54095 43.52017,-0.84941 z m 34.31088,-0.68666 c 1.55708,-0.79075 2.6317,-1.96982 2.38805,-2.62014 -0.24365,-0.65033 -1.25417,-5.82511 -2.2456,-11.49952 -1.78418,-10.21161 -1.82843,-10.31063 -4.32706,-9.68351 -1.38845,0.34848 -3.6769,1.44781 -5.08545,2.44296 -1.40854,0.99514 -4.96901,2.84022 -7.91215,4.10017 l -5.35116,2.29081 0.64622,4.04119 c 0.93279,5.83335 2.59508,8.74049 6.50144,11.37014 2.86672,1.9298 4.21025,2.20816 8,1.65748 2.50506,-0.36401 5.82863,-1.30882 7.38571,-2.09958 z M 294.10483,462.19764 c 2.65268,-2.37017 3.12706,-3.4883 3.07587,-7.25 -0.0498,-3.66279 -0.60332,-4.93292 -3.13639,-7.19764 -4.50752,-4.02999 -8.94982,-3.76058 -12.94072,0.7848 -4.6838,5.33455 -4.0566,13.33554 1.21178,15.45822 4.34928,1.75236 8.53169,1.11544 11.78946,-1.79538 z M 288,459.5 c -0.68469,-0.825 -2.26664,-1.5 -3.51546,-1.5 -2.68095,0 -3.53434,-1.65916 -2.40955,-4.68463 1.39165,-3.74324 4.5332,-4.72747 8.22582,-2.57711 3.47297,2.02245 4.45535,4.98032 2.7268,8.21016 C 291.73129,461.3706 289.73429,461.5897 288,459.5 Z m 4.31574,-36.62496 C 297.12144,420.39995 299,417.77871 299,413.54819 299,407.12513 296.91927,405 290.63039,405 c -4.4515,0 -5.64515,0.42102 -7.79671,2.75 -3.39674,3.67685 -3.89637,5.43909 -2.73481,9.64592 1.59437,5.77431 6.96606,8.18345 12.21687,5.47912 z m -2.29398,-4.34882 C 289.3251,417.6868 287.71177,417 286.43657,417 c -3.12609,0 -3.86943,-1.54076 -2.42534,-5.0271 1.56631,-3.78141 4.09351,-4.49156 8.51591,-2.393 3.07995,1.46154 3.5366,2.1161 3.27585,4.6957 -0.39397,3.89753 -3.92167,6.49125 -5.78123,4.25062 z M 299,390.67431 c 0,-0.72912 -1.08672,-2.3466 -2.41492,-3.59439 -2.82584,-2.65473 -4.58346,-2.30367 -9.58508,1.91451 l -3.5,2.95177 7.75,0.0269 c 5.78284,0.0201 7.75,-0.30959 7.75,-1.29879 z"
       style="fill:#f9d85d" />
    <path
       id="path11162"
       d="m 415.5,494.03521 c -2.75,-0.37575 -6.18262,-1.25962 -7.62805,-1.96415 -2.08497,-1.01625 -5.70133,-1.05965 -17.5,-0.21002 -8.61755,0.62056 -16.43073,0.71311 -18.57849,0.22007 -2.03859,-0.46799 -11.71359,-0.65548 -21.5,-0.41666 -9.7864,0.23883 -21.39346,0.1299 -25.79346,-0.24207 -7.10513,-0.60065 -7.77628,-0.82501 -6,-2.00579 3.93436,-2.61535 5.93205,-4.56576 2.5,-2.44084 -7.55653,4.67857 -12.07977,6.23784 -16.36269,5.64064 -2.27552,-0.31729 -10.78584,-0.64975 -18.91183,-0.73879 -8.12599,-0.089 -14.53617,-0.40024 -14.24485,-0.69156 0.29131,-0.29131 -1.5207,-1.98742 -4.02669,-3.76911 -6.34813,-4.51336 -15.68391,-14.95704 -18.69798,-20.91693 -3.92472,-7.76057 -5.98792,-19.78084 -5.32964,-31.0507 0.49866,-8.53734 1.65564,-13.4493 3.16788,-13.4493 0.28811,0 0.20275,0.51953 -0.18969,1.15451 -0.43207,0.6991 -0.27535,0.8837 0.39731,0.46797 0.61096,-0.37759 0.82901,-1.42094 0.48457,-2.31855 -0.41578,-1.0835 -0.2369,-1.39138 0.53222,-0.91604 0.78071,0.48251 0.94376,0.15642 0.5,-1 -0.48212,-1.25638 -0.30375,-1.49674 0.66596,-0.89743 0.88867,0.54923 1.08593,0.43262 0.59952,-0.3544 -0.88007,-1.42399 5.24758,-10.80135 12.57247,-19.24011 11.64543,-13.41629 15.29124,-16.95776 20.46092,-19.87534 2.96039,-1.67074 5.38252,-3.72857 5.38252,-4.57297 0,-0.84439 -2.31572,-4.31787 -5.14604,-7.71885 -2.83032,-3.40098 -5.7588,-7.65013 -6.50773,-9.44257 -0.74893,-1.79244 -3.57784,-4.91349 -6.28648,-6.93568 -2.70864,-2.02218 -5.18523,-4.71435 -5.50354,-5.98258 -0.33053,-1.31696 -3.68324,-4.61855 -7.81747,-7.69829 -3.98131,-2.96582 -9.07633,-7.14229 -11.32228,-9.28104 -4.17367,-3.97445 -18.55538,-13.48483 -26.13866,-17.28504 -2.3222,-1.16373 -5.6972,-3.37286 -7.5,-4.90918 -1.80279,-1.53633 -6.45634,-4.68446 -10.34122,-6.99586 -6.94391,-4.13144 -8.42618,-5.63954 -14.75202,-15.00901 -2.88084,-4.26695 -3.15997,-5.36539 -3.09758,-12.18954 0.10355,-11.32526 3.10283,-19.25723 9.66435,-25.55853 6.56977,-6.30922 9.00858,-7.83402 16.64393,-10.40618 11.47846,-3.86682 39.86421,-5.00688 50.12034,-2.01299 1.91642,0.55943 7.7594,1.66806 12.9844,2.46364 5.225,0.79557 14,2.61822 19.5,4.05032 5.5,1.43211 13.5692,3.48502 17.93156,4.56202 4.36235,1.077 8.41982,2.36342 9.0166,2.8587 2.94269,2.44221 20.78692,4.22225 45.05184,4.4941 27.56793,0.30887 25.00722,-0.14335 49,8.65325 8.30494,3.04488 19.83439,9.29133 33.5,18.14969 10.35684,6.71354 26.09336,25.51287 34.52613,41.24598 2.06356,3.85 4.36159,8.125 5.10674,9.5 0.74514,1.375 1.35758,3.23698 1.36097,4.13773 0.003,0.90075 1.46621,4.72575 3.25072,8.5 3.14887,6.65989 3.26031,7.34888 3.7787,23.36227 0.38325,11.83869 0.16283,18.03563 -0.78024,21.93581 -0.72292,2.98969 -1.10423,5.9835 -0.84735,6.6529 0.89114,2.32228 -2.26688,9.9708 -8.82864,21.38236 -7.33952,12.76417 -12.47339,18.66879 -23.93547,27.52893 l -7.76201,6 0.62068,8 c 0.7478,9.63848 4.03385,22.32241 6.42435,24.79756 1.51276,1.56632 3.33438,1.76942 14.16075,1.57887 30.00922,-0.52819 29.97449,-0.52991 31.50568,1.5647 1.59888,2.18721 1.74698,3.4942 0.60051,5.29941 -0.74884,1.1791 -3.82471,1.31486 -28.18152,1.24382 -3.025,-0.009 -9.1,0.46791 -13.5,1.05942 -9.52103,1.27994 -18.3724,1.41973 -28.24066,0.44602 -5.61818,-0.55435 -8.14359,-0.35315 -11.27023,0.89788 -2.21627,0.88678 -4.13298,1.54896 -4.25935,1.47152 -0.12637,-0.0774 -2.47976,-0.44823 -5.22976,-0.82399 z m -68,-10.33704 c 10.45,0.15973 24.625,0.45989 31.5,0.66702 15.27482,0.46021 27.49274,-0.27379 29.54573,-1.77497 1.35423,-0.99024 1.36972,-1.76175 0.13266,-6.6057 L 407.27773,470.5 400.38886,469.87014 C 396.59999,469.52372 391.7,468.73873 389.5,468.12572 c -2.2,-0.61301 -5.58166,-1.11708 -7.51481,-1.12014 -1.93314,-0.003 -5.08314,-0.84558 -7,-1.87225 -1.91685,-1.02668 -5.06019,-2.19332 -6.98519,-2.59254 -3.71864,-0.77121 -15.22319,-7.91995 -18.40658,-11.43756 -3.22974,-3.56882 -4.35267,-2.57217 -6.13668,5.4466 -1.87818,8.44209 -5.58309,14.68935 -13.82801,23.31695 -2.8208,2.95172 -4.22873,4.95597 -3.12873,4.45387 1.1,-0.50209 10.55,-0.78221 21,-0.62248 z m 94.83105,-1.39562 c 1.55708,-0.79075 2.6317,-1.96982 2.38805,-2.62014 -0.24365,-0.65033 -1.25417,-5.82511 -2.2456,-11.49952 -1.78418,-10.21161 -1.82843,-10.31063 -4.32706,-9.68351 -1.38845,0.34848 -3.6769,1.44781 -5.08545,2.44296 -1.40854,0.99514 -4.96901,2.84022 -7.91215,4.10017 l -5.35116,2.29081 0.64622,4.04119 c 0.93279,5.83335 2.59508,8.74049 6.50144,11.37014 2.86672,1.9298 4.21025,2.20816 8,1.65748 2.50506,-0.36401 5.82863,-1.30882 7.38571,-2.09958 z M 295.75,462.49887 c 4.28058,-4.56968 4.48118,-9.88225 0.54958,-14.55469 -6.03525,-7.17248 -12.50539,-6.84278 -17.4075,0.88705 -3.25765,5.13678 -3.57553,7.94644 -1.37951,12.19308 3.56357,6.89119 12.4876,7.61273 18.23743,1.47456 z M 288,459.5 c -0.68469,-0.825 -2.26664,-1.5 -3.51546,-1.5 -2.68095,0 -3.53434,-1.65916 -2.40955,-4.68463 1.39165,-3.74324 4.5332,-4.72747 8.22582,-2.57711 3.47297,2.02245 4.45535,4.98032 2.7268,8.21016 C 291.73129,461.3706 289.73429,461.5897 288,459.5 Z m 3.05685,-34.49925 c 1.95626,-0.54345 4.88126,-2.37069 6.5,-4.06053 3.77484,-3.94066 4.01435,-10.63885 0.51366,-14.36517 -2.75819,-2.93595 -9.36662,-3.8603 -13.36473,-1.86938 -3.26154,1.62413 -6.69668,6.79783 -6.70204,10.09399 -0.006,3.46559 2.6849,7.96706 5.75883,9.63495 3.32491,1.80408 2.94438,1.77455 7.29428,0.56614 z m -1.03509,-6.47453 C 289.3251,417.6868 287.71177,417 286.43657,417 c -3.12609,0 -3.86943,-1.54076 -2.42534,-5.0271 1.56631,-3.78141 4.09351,-4.49156 8.51591,-2.393 3.07995,1.46154 3.5366,2.1161 3.27585,4.6957 -0.39397,3.89753 -3.92167,6.49125 -5.78123,4.25062 z m 7.19686,-25.51911 c 2.15642,-0.006 2.59089,-0.369 2.10098,-1.75711 -0.86666,-2.45563 -4.43252,-6.25 -5.87359,-6.25 -0.66296,0 -3.84701,2.08154 -7.07569,4.62564 l -5.87032,4.62564 7,-0.61853 c 3.85,-0.34019 8.22338,-0.62173 9.71862,-0.62564 z m -44.64003,97.46336 c -1.23424,-0.61133 -2.07859,-1.99641 -2.07859,-3.40976 0,-1.91789 0.77694,-2.60439 4,-3.53437 3.85104,-1.11118 4.21413,-1.0048 9.75,2.85661 3.1625,2.20592 5.75,4.38384 5.75,4.83982 0,1.15174 -14.874,0.50944 -17.42141,-0.7523 z"
       style="fill:#fcd82b" />
    <path
       id="path11160"
       d="m 415.5,494.03521 c -2.75,-0.37575 -6.18262,-1.25962 -7.62805,-1.96415 -2.08497,-1.01625 -5.70133,-1.05965 -17.5,-0.21002 -8.50386,0.61237 -16.44,0.71091 -18.53395,0.23011 -2.01411,-0.46246 -12.81411,-0.67844 -24,-0.47995 -11.1859,0.19849 -22.813,0.0269 -25.838,-0.38135 l -5.5,-0.74223 5.56981,-3.4943 5.5698,-3.49429 20.4302,0.28149 c 11.2366,0.15481 25.60519,0.42943 31.93019,0.61026 14.48875,0.41423 26.55794,-0.34705 28.54573,-1.80056 1.35423,-0.99024 1.36972,-1.76175 0.13266,-6.6057 L 407.27773,470.5 400.38886,469.87014 C 396.59999,469.52372 391.7,468.73873 389.5,468.12572 c -2.2,-0.61301 -5.575,-1.11985 -7.5,-1.1263 -1.925,-0.006 -4.85,-0.73666 -6.5,-1.62268 -1.65,-0.88602 -5.05905,-2.17182 -7.57567,-2.85734 C 361.30483,460.71627 346,449.78754 346,446.86388 c 0,-3.01653 -1.35044,0.73415 -3.11397,8.6487 -3.05524,13.71158 -11.89491,25.01161 -25.49804,32.59492 l -6.47122,3.6075 -18.45305,-0.22494 c -17.60976,-0.21467 -18.61253,-0.33383 -21.94273,-2.6075 -4.30389,-2.93846 -5.61477,-5.46274 -2.28585,-4.40171 5.5065,1.75509 15.15219,2.26815 19.1689,1.0196 2.25278,-0.70026 5.95879,-1.77751 8.23558,-2.39389 3.83651,-1.03864 5.02183,-2.1389 8.84825,-8.21331 0.55667,-0.88371 2.44223,-3.494 4.19013,-5.80064 4.79084,-6.3223 6.9885,-20.34092 4.16148,-26.54556 -1.45109,-3.18481 -2.45035,-3.23361 -3.22244,-0.15735 -0.80527,3.20844 -3.04679,3.89265 -5.70388,1.74107 -1.83689,-1.48743 -2.16282,-2.71233 -2.04792,-7.69645 0.0752,-3.26012 0.40312,-7.34791 0.72881,-9.08397 0.48943,-2.60888 0.22904,-3.27172 -1.50094,-3.8208 -2.1902,-0.69514 -2.80734,-2.9701 -1.09311,-4.02955 0.55,-0.33992 1,-2.95857 1,-5.81924 0,-4.1844 -0.49664,-5.7368 -2.54047,-7.94098 C 296.2968,403.40737 295.11871,403 290.53626,403 c -6.4654,0 -10.71639,2.95973 -12.61442,8.78273 -1.41549,4.34258 -2.41842,5.18116 -6.2215,5.20196 -7.69,0.0421 -24.4867,14.64108 -27.05521,23.51531 -0.31838,1.1 -0.36346,0.0875 -0.10018,-2.25 0.28652,-2.54384 0.0677,-4.25 -0.54495,-4.25 -0.6418,0 -0.77588,-1.58535 -0.35945,-4.25 1.04589,-6.69251 8.89962,-19.77173 18.54928,-30.89109 11.60137,-13.36833 15.26113,-16.9225 20.42765,-19.8383 2.96039,-1.67074 5.38252,-3.72857 5.38252,-4.57297 0,-0.84439 -2.31572,-4.31787 -5.14604,-7.71885 -2.83032,-3.40098 -5.7588,-7.65013 -6.50773,-9.44257 -0.74893,-1.79244 -3.57784,-4.91349 -6.28648,-6.93568 -2.70864,-2.02218 -5.18523,-4.71435 -5.50354,-5.98258 -0.33053,-1.31696 -3.68324,-4.61855 -7.81747,-7.69829 -3.98131,-2.96582 -9.07633,-7.14229 -11.32228,-9.28104 -4.17367,-3.97445 -18.55538,-13.48483 -26.13866,-17.28504 -2.3222,-1.16373 -5.6972,-3.37286 -7.5,-4.90918 -1.80279,-1.53633 -6.45634,-4.68446 -10.34122,-6.99586 -6.94391,-4.13144 -8.42618,-5.63954 -14.75202,-15.00901 -2.88084,-4.26695 -3.15997,-5.36539 -3.09758,-12.18954 0.10355,-11.32526 3.10283,-19.25723 9.66435,-25.55853 6.56977,-6.30922 9.00858,-7.83402 16.64393,-10.40618 11.47846,-3.86682 39.86421,-5.00688 50.12034,-2.01299 1.91642,0.55943 7.7594,1.66806 12.9844,2.46364 5.225,0.79557 14,2.61822 19.5,4.05032 5.5,1.43211 13.5692,3.48502 17.93156,4.56202 4.36235,1.077 8.41982,2.36342 9.0166,2.8587 2.94269,2.44221 20.78692,4.22225 45.05184,4.4941 27.56793,0.30887 25.00722,-0.14335 49,8.65325 8.30494,3.04488 19.83439,9.29133 33.5,18.14969 10.35684,6.71354 26.09336,25.51287 34.52613,41.24598 2.06356,3.85 4.36159,8.125 5.10674,9.5 0.74514,1.375 1.35758,3.23698 1.36097,4.13773 0.003,0.90075 1.46621,4.72575 3.25072,8.5 3.14887,6.65989 3.26031,7.34888 3.7787,23.36227 0.38325,11.83869 0.16283,18.03563 -0.78024,21.93581 -0.72292,2.98969 -1.10423,5.9835 -0.84735,6.6529 0.89114,2.32228 -2.26688,9.9708 -8.82864,21.38236 -7.33952,12.76417 -12.47339,18.66879 -23.93547,27.52893 l -7.76201,6 0.62068,8 c 0.7478,9.63848 4.03385,22.32241 6.42435,24.79756 1.51276,1.56632 3.33438,1.76942 14.16075,1.57887 30.00922,-0.52819 29.97449,-0.52991 31.50568,1.5647 1.59888,2.18721 1.74698,3.4942 0.60051,5.29941 -0.74884,1.1791 -3.82471,1.31486 -28.18152,1.24382 -3.025,-0.009 -9.1,0.46791 -13.5,1.05942 -9.52103,1.27994 -18.3724,1.41973 -28.24066,0.44602 -5.61818,-0.55435 -8.14359,-0.35315 -11.27023,0.89788 -2.21627,0.88678 -4.13298,1.54896 -4.25935,1.47152 -0.12637,-0.0774 -2.47976,-0.44823 -5.22976,-0.82399 z m 26.83105,-11.73266 c 1.55708,-0.79075 2.6317,-1.96982 2.38805,-2.62014 -0.24365,-0.65033 -1.25417,-5.82511 -2.2456,-11.49952 -1.78418,-10.21161 -1.82843,-10.31063 -4.32706,-9.68351 -1.38845,0.34848 -3.6769,1.44781 -5.08545,2.44296 -1.40854,0.99514 -4.96901,2.84022 -7.91215,4.10017 l -5.35116,2.29081 0.64622,4.04119 c 0.93279,5.83335 2.59508,8.74049 6.50144,11.37014 2.86672,1.9298 4.21025,2.20816 8,1.65748 2.50506,-0.36401 5.82863,-1.30882 7.38571,-2.09958 z M 293.63347,394 c 7.36315,0 7.38001,-0.006 6.125,-2.25 -1.98452,-3.5481 -4.99336,-6.75 -6.34299,-6.75 -0.67973,0 -3.63879,1.86492 -6.57568,4.14428 -7.6465,5.93453 -7.84964,6.2157 -3.9648,5.48796 C 284.73125,394.28451 289.57256,394 293.63347,394 Z m -41.05488,96.47047 c -1.23424,-0.61133 -2.07859,-1.99641 -2.07859,-3.40976 0,-1.91789 0.77694,-2.60439 4,-3.53437 3.85104,-1.11118 4.21413,-1.0048 9.75,2.85661 3.1625,2.20592 5.75,4.38384 5.75,4.83982 0,1.15174 -14.874,0.50944 -17.42141,-0.7523 z M 288,459.5 c -0.68469,-0.825 -2.26664,-1.5 -3.51546,-1.5 -2.68095,0 -3.53434,-1.65916 -2.40955,-4.68463 1.39165,-3.74324 4.5332,-4.72747 8.22582,-2.57711 3.47297,2.02245 4.45535,4.98032 2.7268,8.21016 C 291.73129,461.3706 289.73429,461.5897 288,459.5 Z m 2.02176,-40.97378 C 289.3251,417.6868 287.71177,417 286.43657,417 c -3.12609,0 -3.86943,-1.54076 -2.42534,-5.0271 1.56631,-3.78141 4.09351,-4.49156 8.51591,-2.393 3.07995,1.46154 3.5366,2.1161 3.27585,4.6957 -0.39397,3.89753 -3.92167,6.49125 -5.78123,4.25062 z"
       style="fill:#b2b093" />
    <path
       id="path11158"
       d="m 416.00181,493.25567 c -2.47401,-0.21721 -5.28651,-1.10833 -6.25,-1.98028 -2.20384,-1.99445 -2.26707,-6.17814 -0.11713,-7.75021 1.61572,-1.18144 1.44161,-3.12199 -1.17944,-13.14552 -0.17066,-0.65262 -3.77104,-1.36122 -8.6241,-1.69734 -13.68548,-0.94782 -22.41135,-2.32711 -25.45792,-4.02411 -1.58027,-0.88024 -4.72514,-2.06447 -6.9886,-2.63162 -2.26347,-0.56715 -5.7477,-2.26765 -7.74275,-3.77889 -1.99505,-1.51123 -5.87575,-4.3227 -8.62379,-6.2477 -2.74803,-1.925 -5.00129,-4.1375 -5.00725,-4.91667 -0.0244,-3.18964 -1.3065,0.2689 -3.1248,8.42925 -3.05524,13.71158 -11.89491,25.01161 -25.49804,32.59492 l -6.47122,3.6075 -18.45305,-0.22494 c -17.60976,-0.21467 -18.61253,-0.33383 -21.94273,-2.6075 -4.30389,-2.93846 -5.61477,-5.46274 -2.28585,-4.40171 5.5065,1.75509 15.15219,2.26815 19.1689,1.0196 2.25278,-0.70026 5.95879,-1.77751 8.23558,-2.39389 3.83651,-1.03864 5.02183,-2.1389 8.84825,-8.21331 0.55667,-0.88371 2.44223,-3.494 4.19013,-5.80064 4.79084,-6.3223 6.9885,-20.34092 4.16148,-26.54556 -1.45109,-3.18481 -2.45035,-3.23361 -3.22244,-0.15735 -0.80527,3.20844 -3.04679,3.89265 -5.70388,1.74107 -1.83689,-1.48743 -2.16282,-2.71233 -2.04792,-7.69645 0.0752,-3.26012 0.40312,-7.34791 0.72881,-9.08397 0.48943,-2.60888 0.22904,-3.27172 -1.50094,-3.8208 -2.1902,-0.69514 -2.80734,-2.9701 -1.09311,-4.02955 0.55,-0.33992 1,-2.95857 1,-5.81924 0,-4.1844 -0.49664,-5.7368 -2.54047,-7.94098 C 296.2968,403.40737 295.11871,403 290.53626,403 c -6.4654,0 -10.71639,2.95973 -12.61442,8.78273 -1.41549,4.34258 -2.41842,5.18116 -6.2215,5.20196 -3.53839,0.0193 -7.84394,2.21573 -14.1883,7.23783 -5.08605,4.02604 -11.88041,12.6696 -12.79508,16.27748 -0.27888,1.1 -0.34115,-1.47921 -0.13838,-5.73158 0.29218,-6.12766 0.88007,-8.51334 2.83384,-11.5 1.35585,-2.07263 2.60522,-4.44342 2.77638,-5.26842 0.4904,-2.36375 7.69464,-12.92762 13.24749,-19.42534 10.44132,-12.218 13.90662,-15.57727 19.08192,-18.49803 2.92422,-1.65032 5.5997,-3.4584 5.94552,-4.01794 0.86901,-1.40609 -0.96227,-4.54373 -6.61937,-11.34144 -2.65492,-3.1902 -5.10401,-6.90358 -5.44243,-8.25195 -0.33842,-1.34838 -2.85296,-4.09418 -5.58787,-6.10179 -2.73491,-2.00761 -5.37239,-4.70182 -5.86107,-5.98715 -0.48867,-1.28532 -3.45998,-4.25831 -6.6029,-6.60665 -3.14292,-2.34834 -8.21993,-6.53687 -11.28224,-9.30784 -3.06232,-2.77096 -7.59285,-6.3311 -10.06785,-7.9114 -2.475,-1.58031 -6.3,-4.0977 -8.5,-5.59421 -2.2,-1.49651 -5.6378,-3.40515 -7.63956,-4.24142 -2.00176,-0.83628 -5.37676,-3.07976 -7.5,-4.98552 -2.12324,-1.90576 -5.66044,-4.38333 -7.86044,-5.50571 -7.43405,-3.79263 -12.07633,-7.91492 -16.95629,-15.05699 -4.41195,-6.45712 -4.86348,-7.64684 -4.89212,-12.89015 -0.0514,-9.40881 3.85824,-19.64114 9.84841,-25.77539 6.1388,-6.28646 8.56336,-7.82742 16.54783,-10.51719 12.61244,-4.24883 38.64908,-5.03563 52.95957,-1.60038 3.57093,0.8572 10.7676,2.29253 15.9926,3.18961 5.225,0.89708 12.875,2.54738 17,3.66734 4.125,1.11995 10.425,2.7733 14,3.6741 3.575,0.9008 7.4,2.13076 8.5,2.73324 4.87799,2.67173 22.63626,4.4587 47.19016,4.74861 L 390.5,252.68934 406,258.3489 c 17.22719,6.29022 18.38056,6.79822 25.5,11.23143 2.75,1.7124 8.15,5.06388 12,7.44773 8.59616,5.32258 11.97441,8.37345 19.85229,17.92841 7.08467,8.59289 16.64771,22.05158 16.64771,23.42941 0,0.51646 1.36087,3.05976 3.02415,5.65176 1.66329,2.59201 3.64198,6.9064 4.3971,9.58755 0.75511,2.68114 2.61405,7.79981 4.13098,11.37481 2.54414,5.9959 2.77919,7.67727 3.03087,21.67994 0.18722,10.41625 -0.15443,16.79964 -1.08871,20.34131 -0.74885,2.83876 -1.12541,5.77673 -0.8368,6.52882 0.89247,2.32574 -1.68354,8.41768 -8.84945,20.92788 -7.49452,13.08389 -11.25007,17.44124 -23.09117,26.79136 -4.28067,3.38016 -8.03214,7.13826 -8.33661,8.35134 -0.80147,3.19331 1.26314,18.59035 3.07393,22.9242 0.85014,2.03467 1.54571,4.52163 1.54571,5.52659 0,1.00495 1.41211,3.14692 3.13801,4.75992 2.54404,2.37761 3.01196,3.43496 2.47207,5.58605 -0.8847,3.52495 -3.83004,4.48874 -13.03873,4.26662 -8.08633,-0.19505 -9.52551,-1.00493 -9.55604,-5.37749 -0.01,-1.39394 1.09545,-2.84961 3.03197,-3.99354 2.50852,-1.48182 2.93505,-2.24322 2.41245,-4.30654 -0.83389,-3.29234 -2.45597,-12.41143 -3.16256,-17.77942 -0.30935,-2.35013 -0.9211,-4.49462 -1.35946,-4.76553 -0.43835,-0.27092 -3.19116,0.91947 -6.11736,2.64532 -2.92619,1.72585 -7.68285,4.18307 -10.57035,5.46051 -2.8875,1.27743 -5.25,2.77522 -5.25,3.32841 0,4.41631 2.51003,11.27351 5.03221,13.74757 3.9468,3.87151 4.15806,9.49333 0.42074,11.19616 -1.40088,0.63829 -2.86338,1.0819 -3.25,0.98581 -0.38662,-0.0961 -2.72714,-0.35242 -5.20114,-0.56962 z M 293.60792,394 l 7.35791,0 -2.08948,-3.75 C 296.13837,385.33613 295.00561,384 293.57764,384 291.83813,384 280,392.83783 280,394.13647 c 0,0.71382 1.12174,0.88918 3.125,0.48853 1.71875,-0.34375 6.43606,-0.625 10.48292,-0.625 z m -5.5581,64.56003 c -0.65728,-0.79198 -2.13963,-1.57948 -3.29411,-1.75 -2.88259,-0.42576 -3.18062,-2.06372 -0.89017,-4.89231 1.90458,-2.35205 1.98109,-2.36128 5.53287,-0.66755 2.3023,1.09788 3.60159,2.41532 3.60159,3.65186 0,4.72969 -2.51707,6.58971 -4.95018,3.658 z m 1.93274,-41.08104 C 289.30746,416.66554 287.68521,416 286.37756,416 c -2.92331,0 -3.22358,-2.92439 -0.54882,-5.34501 2.40695,-2.17826 4.35055,-2.0884 7.44301,0.34413 1.74508,1.37268 2.37491,2.63603 2.00995,4.03167 -0.76474,2.92436 -3.75675,4.30667 -5.29914,2.4482 z"
       style="fill:#fbb502" />
    <path
       id="path11156"
       d="m 416.00181,493.25567 c -2.47401,-0.21721 -5.28651,-1.10833 -6.25,-1.98028 -2.20384,-1.99445 -2.26707,-6.17814 -0.11713,-7.75021 1.61572,-1.18144 1.44161,-3.12199 -1.17944,-13.14552 -0.17066,-0.65262 -3.77104,-1.36122 -8.6241,-1.69734 -13.68548,-0.94782 -22.41135,-2.32711 -25.45792,-4.02411 -1.58027,-0.88024 -4.72514,-2.06447 -6.9886,-2.63162 -2.26347,-0.56715 -5.7477,-2.26765 -7.74275,-3.77889 -1.99505,-1.51123 -5.87615,-4.3227 -8.62467,-6.2477 -4.00565,-2.80547 -5.09958,-4.19453 -5.51268,-7 -1.69795,-11.53116 -2.91939,-16.17523 -5.74947,-21.86028 -1.74142,-3.49815 -3.77161,-6.59258 -4.51152,-6.87651 -0.73991,-0.28393 -2.3349,0.40734 -3.54441,1.53615 C 327.1729,422.02356 321,421.49339 321,416.88044 c 0,-1.03107 1.575,-3.61802 3.5,-5.74876 1.925,-2.13074 3.5,-4.15188 3.5,-4.49141 C 328,405.48558 315.60792,397 313.92166,397 c -0.923,0 -4.44377,-1.03967 -7.82393,-2.31038 -4.82742,-1.81478 -6.53554,-3.03717 -7.9628,-5.69845 -3.04615,-5.67987 -4.25319,-5.842 -10.65701,-1.43152 -3.13977,2.16244 -6.25203,4.70747 -6.91614,5.65561 -0.6641,0.94814 -2.97468,2.52832 -5.13462,3.51152 -5.68116,2.58603 -16.38243,10.06705 -20.32157,14.20634 l -3.3944,3.56688 3.33771,-5 c 3.33876,-5.00157 9.62292,-12.63947 17.80182,-21.63673 2.3929,-2.63232 6.74327,-6.13631 9.66749,-7.78664 2.92422,-1.65032 5.5997,-3.4584 5.94552,-4.01794 0.86901,-1.40609 -0.96227,-4.54373 -6.61937,-11.34144 -2.65492,-3.1902 -5.10401,-6.90358 -5.44243,-8.25195 -0.33842,-1.34838 -2.85296,-4.09418 -5.58787,-6.10179 -2.73491,-2.00761 -5.37239,-4.70182 -5.86107,-5.98715 -0.48867,-1.28532 -3.45998,-4.25831 -6.6029,-6.60665 -3.14292,-2.34834 -8.21993,-6.53687 -11.28224,-9.30784 -3.06232,-2.77096 -7.59285,-6.3311 -10.06785,-7.9114 -2.475,-1.58031 -6.3,-4.0977 -8.5,-5.59421 -2.2,-1.49651 -5.6378,-3.40515 -7.63956,-4.24142 -2.00176,-0.83628 -5.37676,-3.07976 -7.5,-4.98552 -2.12324,-1.90576 -5.66044,-4.38333 -7.86044,-5.50571 -7.43405,-3.79263 -12.07633,-7.91492 -16.95629,-15.05699 -4.41195,-6.45712 -4.86348,-7.64684 -4.89212,-12.89015 -0.0514,-9.40881 3.85824,-19.64114 9.84841,-25.77539 6.1388,-6.28646 8.56336,-7.82742 16.54783,-10.51719 12.61244,-4.24883 38.64908,-5.03563 52.95957,-1.60038 3.57093,0.8572 10.7676,2.29253 15.9926,3.18961 5.225,0.89708 12.875,2.54738 17,3.66734 4.125,1.11995 10.425,2.7733 14,3.6741 3.575,0.9008 7.4,2.13076 8.5,2.73324 4.87799,2.67173 22.63626,4.4587 47.19016,4.74861 L 390.5,252.68934 406,258.3489 c 17.22719,6.29022 18.38056,6.79822 25.5,11.23143 2.75,1.7124 8.15,5.06388 12,7.44773 8.59616,5.32258 11.97441,8.37345 19.85229,17.92841 7.08467,8.59289 16.64771,22.05158 16.64771,23.42941 0,0.51646 1.36087,3.05976 3.02415,5.65176 1.66329,2.59201 3.64198,6.9064 4.3971,9.58755 0.75511,2.68114 2.61405,7.79981 4.13098,11.37481 2.54414,5.9959 2.77919,7.67727 3.03087,21.67994 0.18722,10.41625 -0.15443,16.79964 -1.08871,20.34131 -0.74885,2.83876 -1.12541,5.77673 -0.8368,6.52882 0.89247,2.32574 -1.68354,8.41768 -8.84945,20.92788 -7.49452,13.08389 -11.25007,17.44124 -23.09117,26.79136 -4.28067,3.38016 -8.03214,7.13826 -8.33661,8.35134 -0.80147,3.19331 1.26314,18.59035 3.07393,22.9242 0.85014,2.03467 1.54571,4.52163 1.54571,5.52659 0,1.00495 1.41211,3.14692 3.13801,4.75992 2.54404,2.37761 3.01196,3.43496 2.47207,5.58605 -0.8847,3.52495 -3.83004,4.48874 -13.03873,4.26662 -8.08633,-0.19505 -9.52551,-1.00493 -9.55604,-5.37749 -0.01,-1.39394 1.09545,-2.84961 3.03197,-3.99354 2.50852,-1.48182 2.93505,-2.24322 2.41245,-4.30654 -0.83389,-3.29234 -2.45597,-12.41143 -3.16256,-17.77942 -0.30935,-2.35013 -0.9211,-4.49462 -1.35946,-4.76553 -0.43835,-0.27092 -3.19116,0.91947 -6.11736,2.64532 -2.92619,1.72585 -7.68285,4.18307 -10.57035,5.46051 -2.8875,1.27743 -5.25,2.77522 -5.25,3.32841 0,4.41631 2.51003,11.27351 5.03221,13.74757 3.9468,3.87151 4.15806,9.49333 0.42074,11.19616 -1.40088,0.63829 -2.86338,1.0819 -3.25,0.98581 -0.38662,-0.0961 -2.72714,-0.35242 -5.20114,-0.56962 z M 288.04982,458.56003 c -0.65728,-0.79198 -2.13963,-1.57948 -3.29411,-1.75 -2.88259,-0.42576 -3.18062,-2.06372 -0.89017,-4.89231 1.90458,-2.35205 1.98109,-2.36128 5.53287,-0.66755 2.3023,1.09788 3.60159,2.41532 3.60159,3.65186 0,4.72969 -2.51707,6.58971 -4.95018,3.658 z M 303.9779,444.18319 C 299.91556,440.89371 301.66015,425 306.08356,425 c 0.42547,0 1.48073,0.70714 2.34501,1.57143 1.14378,1.14378 1.57143,3.57359 1.57143,8.92857 0,5.35498 -0.42765,7.78479 -1.57143,8.92857 -1.93818,1.93818 -1.74063,1.94908 -4.45067,-0.24538 z m -13.99534,-26.7042 C 289.30746,416.66554 287.68521,416 286.37756,416 c -2.92331,0 -3.22358,-2.92439 -0.54882,-5.34501 2.40695,-2.17826 4.35055,-2.0884 7.44301,0.34413 1.74508,1.37268 2.37491,2.63603 2.00995,4.03167 -0.76474,2.92436 -3.75675,4.30667 -5.29914,2.4482 z"
       style="fill:#97d04b" />
    <path
       id="path11154"
       d="m 416.00181,493.25567 c -2.47401,-0.21721 -5.28651,-1.10833 -6.25,-1.98028 -2.20384,-1.99445 -2.26707,-6.17814 -0.11713,-7.75021 1.60165,-1.17116 1.35295,-3.85712 -1.2292,-13.27518 -0.19173,-0.69932 -1.89843,-1.25 -3.8741,-1.25 C 402.58912,469 401,468.6125 401,468.13889 c 0,-0.75048 -3.30197,-1.29613 -15.34512,-2.53581 -2.99768,-0.30857 -4.61407,-1.97879 -4.63957,-4.79406 -0.0229,-2.52522 1.87831,-3.21527 3.87644,-1.40698 2.20228,1.99303 3.51459,2.0182 5.10825,0.098 1.9809,-2.38684 2.99983,-1.74913 2.35519,1.47405 -0.57186,2.85931 -0.46066,2.96901 2.88229,2.84334 3.48079,-0.13086 8.33227,2.27952 7.08949,3.5223 -0.36317,0.36317 -0.15576,0.66031 0.46091,0.66031 0.61667,0 2.24621,-1.125 3.62121,-2.5 1.4036,-1.4036 3.6574,-2.5 5.13908,-2.5 1.76654,0 2.806,-0.63836 3.14399,-1.9308 0.30734,-1.1753 1.06786,-1.71478 1.94362,-1.37872 2.08182,0.79886 5.24557,-2.42818 4.64229,-4.73515 -0.62812,-2.40193 2.14775,-3.67675 4.23466,-1.94476 1.15602,0.9594 1.48727,0.96377 1.48727,0.0196 0,-1.98653 3.99568,-6.48945 6.26487,-7.06016 1.159,-0.2915 2.41017,-1.66255 2.78037,-3.04678 0.3702,-1.38423 1.83637,-4.35954 3.25816,-6.6118 2.97023,-4.70514 4.05649,-14.85294 1.74297,-16.28277 -0.76882,-0.47516 -0.97404,-1.33667 -0.50081,-2.10238 1.2274,-1.98597 0.45966,-12.18875 -1.0065,-13.37581 -0.7136,-0.57776 -1.58194,-3.30047 -1.92965,-6.05047 -0.41243,-3.26197 -1.80532,-6.73803 -4.00707,-10 -1.85619,-2.75 -3.90725,-6.0412 -4.55793,-7.31377 -0.65067,-1.27257 -3.91116,-5.08458 -7.24553,-8.47113 -3.33438,-3.38654 -7.8002,-8.50958 -9.92404,-11.38453 -2.12385,-2.87494 -5.0064,-6.03793 -6.40566,-7.02887 -1.39927,-0.99093 -5.51501,-4.18511 -9.1461,-7.09817 -3.63108,-2.91306 -7.32672,-5.15782 -8.21253,-4.98836 -0.98576,0.18858 -2.05707,2.11248 -2.76158,4.95933 -0.63306,2.55817 -2.77056,7.41454 -4.75,10.79194 -1.97943,3.37739 -3.59897,6.44565 -3.59897,6.81835 0,0.3727 4.03533,4.73609 8.9674,9.69642 12.08996,12.15925 15.83763,19.64214 17.29034,34.5233 0.99581,10.20074 0.95229,10.66342 -1.50484,16 -3.21664,6.98616 -6.65108,9.05524 -16.65772,10.03549 -6.40299,0.62724 -8.4585,0.42428 -13.09518,-1.29301 -3.025,-1.12037 -6.38763,-2.64678 -7.47251,-3.39202 C 363.44262,429.60974 361.77012,429 360.81083,429 c -1.70939,0 -3.35888,-1.39937 -15.13597,-12.84086 l -5.82514,-5.65914 -2.37689,2.75 c -1.3073,1.5125 -2.77874,2.75 -3.26988,2.75 -0.49113,0 -1.68438,0.87449 -2.65165,1.94332 -2.27475,2.51357 -7.18467,3.60584 -9.09226,2.02269 -2.62306,-2.17695 -1.557,-4.78979 5.04096,-12.35498 3.575,-4.09908 6.5,-8.00119 6.5,-8.67135 0,-0.67017 -1.37725,-3.45679 -3.06055,-6.19251 -3.64152,-5.91822 -4.55967,-12.02329 -3.03852,-20.20398 1.23962,-6.66667 5.11807,-11.71782 10.90155,-14.19778 4.71383,-2.02129 18.1904,-2.89322 22.32915,-1.44468 3.05185,1.06813 3.54268,0.96463 5.22337,-1.10137 2.81253,-3.45732 6.79545,-11.73123 8.20225,-17.03894 1.2494,-4.71382 1.23907,-4.75405 -1.90051,-7.40154 -1.73621,-1.46408 -4.73174,-3.31061 -6.65674,-4.10342 -1.925,-0.7928 -9.35,-4.26749 -16.5,-7.72153 -7.15,-3.45404 -16.15,-7.71813 -20,-9.47575 -7.48735,-3.41816 -7.88372,-3.60992 -14,-6.7733 -2.2,-1.13786 -7.56684,-3.50505 -11.92631,-5.26044 -4.35947,-1.75539 -9.49528,-4.3915 -11.41292,-5.85803 -3.24691,-2.48311 -7.8373,-4.92387 -38.14404,-20.28165 -6.31579,-3.2005 -13.69121,-6.29261 -16.38981,-6.87135 -2.6986,-0.57875 -6.30613,-1.69352 -8.01673,-2.47727 -5.53208,-2.53463 -14.35487,-4.63833 -16.83857,-4.01496 -1.57772,0.39599 -2.87189,0.0629 -3.71827,-0.95689 -1.55101,-1.86886 -4.17483,-1.96268 -10.97706,-0.39254 -5.40141,1.24679 -5.96274,1.84767 -3.57629,3.82825 2.08854,1.73334 1.88629,2.50297 -1.00383,3.81979 -2.13811,0.97419 -2.68446,0.85158 -3.74054,-0.83949 -1.596,-2.55559 -2.71601,-2.5448 -2.04538,0.0197 0.28766,1.1 0.073,2 -0.47699,2 -1.87907,0 -2.04895,-4.00136 -0.3904,-9.1955 1.68142,-5.26574 8.6002,-13.52291 14.30134,-17.06783 4.61382,-2.86882 14.87559,-5.8283 23.75942,-6.85217 10.92061,-1.25862 29.69249,-0.52013 38.10378,1.49901 3.57093,0.8572 10.7676,2.29253 15.9926,3.18961 5.225,0.89708 12.875,2.54738 17,3.66734 4.125,1.11995 10.425,2.7733 14,3.6741 3.575,0.9008 7.4,2.13076 8.5,2.73324 4.87799,2.67173 22.63626,4.4587 47.19016,4.74861 L 390.5,252.68934 406,258.3489 c 17.22719,6.29022 18.38056,6.79822 25.5,11.23143 2.75,1.7124 8.15,5.06388 12,7.44773 8.59616,5.32258 11.97441,8.37345 19.85229,17.92841 7.08467,8.59289 16.64771,22.05158 16.64771,23.42941 0,0.51646 1.36087,3.05976 3.02415,5.65176 1.66329,2.59201 3.64198,6.9064 4.3971,9.58755 0.75511,2.68114 2.61405,7.79981 4.13098,11.37481 2.54414,5.9959 2.77919,7.67727 3.03087,21.67994 0.18722,10.41625 -0.15443,16.79964 -1.08871,20.34131 -0.74885,2.83876 -1.12541,5.77673 -0.8368,6.52882 0.89247,2.32574 -1.68354,8.41768 -8.84945,20.92788 -7.49452,13.08389 -11.25007,17.44124 -23.09117,26.79136 -4.28067,3.38016 -8.03214,7.13826 -8.33661,8.35134 -0.80147,3.19331 1.26314,18.59035 3.07393,22.9242 0.85014,2.03467 1.54571,4.52163 1.54571,5.52659 0,1.00495 1.41211,3.14692 3.13801,4.75992 2.54404,2.37761 3.01196,3.43496 2.47207,5.58605 -0.8847,3.52495 -3.83004,4.48874 -13.03873,4.26662 -8.08633,-0.19505 -9.52551,-1.00493 -9.55604,-5.37749 -0.01,-1.39394 1.09545,-2.84961 3.03197,-3.99354 2.50852,-1.48182 2.93505,-2.24322 2.41245,-4.30654 -0.83389,-3.29234 -2.45597,-12.41143 -3.16256,-17.77942 -0.30935,-2.35013 -0.9211,-4.49462 -1.35946,-4.76553 -0.43835,-0.27092 -3.19116,0.91947 -6.11736,2.64532 -2.92619,1.72585 -7.68285,4.18307 -10.57035,5.46051 -2.8875,1.27743 -5.25,2.77522 -5.25,3.32841 0,4.41631 2.51003,11.27351 5.03221,13.74757 3.9468,3.87151 4.15806,9.49333 0.42074,11.19616 -1.40088,0.63829 -2.86338,1.0819 -3.25,0.98581 -0.38662,-0.0961 -2.72714,-0.35242 -5.20114,-0.56962 z M 369.5,460.95537 c -3.3,-0.98743 -6.2025,-1.83133 -6.45,-1.87535 -0.2475,-0.044 0.09,-0.62002 0.75,-1.28002 0.66,-0.66 1.2,-2.01 1.2,-3 0,-2.55026 4.03586,-2.37889 4.71025,0.2 0.6386,2.44202 1.63735,2.49846 5.35469,0.30257 1.58044,-0.93359 3.11945,-1.45151 3.42003,-1.15094 0.84161,0.84162 -0.9171,8.17537 -2.01446,8.40021 -0.53378,0.10937 -3.67051,-0.60905 -6.97051,-1.59647 z m 29.72379,-0.13158 C 397.53762,459.13762 399.58261,457 402.8819,457 c 1.554,0 3.14997,-0.82139 3.88603,-2 1.99682,-3.19742 4.24472,-2.52085 4.15312,1.25 -0.0434,1.7875 -0.30592,2.6875 -0.58333,2 -0.27741,-0.6875 -1.41503,-1.25 -2.52804,-1.25 -1.30844,0 -1.83675,0.48708 -1.49481,1.37814 1.16011,3.02322 -4.54564,4.99109 -7.09108,2.44565 z m -111.17397,-2.26376 c -0.65728,-0.79198 -2.13963,-1.57948 -3.29411,-1.75 -2.88259,-0.42576 -3.18062,-2.06372 -0.89017,-4.89231 1.90458,-2.35205 1.98109,-2.36128 5.53287,-0.66755 2.3023,1.09788 3.60159,2.41532 3.60159,3.65186 0,4.72969 -2.51707,6.58971 -4.95018,3.658 z m 14.98536,-15.49429 c -1.42074,-2.65469 -1.27708,-12.03385 0.22956,-14.98677 C 306.34814,422.03569 310,425.59154 310,434.63717 310,441.9595 308.82638,445 306,445 c -1.0613,0 -2.39547,-0.87042 -2.96482,-1.93426 z M 289.98256,417.47899 C 289.30746,416.66554 287.68521,416 286.37756,416 c -2.92331,0 -3.22358,-2.92439 -0.54882,-5.34501 2.40695,-2.17826 4.35055,-2.0884 7.44301,0.34413 1.74508,1.37268 2.37491,2.63603 2.00995,4.03167 -0.76474,2.92436 -3.75675,4.30667 -5.29914,2.4482 z m -33.86649,-9.69682 c 2.54128,-3.62952 10.0324,-12.54604 16.73465,-19.9189 2.3929,-2.63232 6.8929,-6.26202 10,-8.066 8.90846,-5.17223 8.70888,-5.16172 10.23464,-0.53863 0.91639,2.77669 1.01012,4.20953 0.29105,4.44922 C 291.39834,384.36722 280,393.01774 280,393.85959 c 0,0.46017 -1.9125,1.67824 -4.25,2.70684 -2.3375,1.0286 -8.22845,4.71142 -13.091,8.18404 -7.89821,5.64057 -8.59594,5.96386 -6.54293,3.0317 z M 289.5,367 c -0.33992,-0.55 -1.43638,-1 -2.43657,-1 -2.26773,0 -3.88708,-1.8983 -5.03563,-5.90308 -1.06222,-3.70373 0.56862,-4.2886 1.93527,-0.69406 1.36964,3.60242 2.56146,3.87354 7.19236,1.63613 C 296.04323,358.67746 296,358.68673 296,360 c 0,0.55 -0.56675,1 -1.25945,1 -1.7655,0 -3.82703,3.61106 -3.11735,5.46047 0.64878,1.69067 -1.13207,2.14321 -2.1232,0.53953 z m -23.07088,-23.4264 c -0.33495,-1.33453 -1.46852,-3.20427 -2.51906,-4.15499 C 262.85953,338.46789 262,337.08477 262,336.34501 262,335.60388 260.95582,335 259.67431,335 c -1.27912,0 -3.36601,-1.10738 -4.63753,-2.46085 -2.07376,-2.20741 -2.18416,-2.76914 -1.07195,-5.45425 l 1.23991,-2.9934 2.80938,2.07706 c 1.70667,1.2618 3.05806,3.40264 3.44294,5.45425 0.34846,1.85746 0.98933,3.37719 1.42414,3.37719 0.43482,0 2.92228,1.66079 5.52768,3.69064 l 4.7371,3.69064 -2.32299,1.78713 c -3.07483,2.36552 -3.67114,2.2848 -4.39387,-0.59481 z m -21.441,-19.90862 c -1.91847,-1.28427 -5.41763,-3.60726 -7.77592,-5.1622 -2.81929,-1.85891 -3.94996,-3.16502 -3.30135,-3.81363 0.64861,-0.64861 1.94588,-0.33619 3.7878,0.9122 1.54074,1.04426 4.37635,2.12365 6.30135,2.39865 2.93333,0.41905 3.5,0.90476 3.5,3 0,1.375 0.36406,3.0625 0.80902,3.75 1.12364,1.73612 0.67389,1.58917 -3.3209,-1.08502 z m -17.77249,-11.90081 c -1.25641,-0.60526 -2.20084,-1.8123 -2.09874,-2.68232 0.1021,-0.87002 -0.27959,-2.70685 -0.84821,-4.08185 -1.50203,-3.63211 -0.58723,-4.22764 2.20498,-1.43543 2.69261,2.69261 4.51356,3.04821 6.32634,1.23543 0.93333,-0.93333 1.2,-0.52333 1.2,1.84501 0,1.67997 -0.8198,3.78693 -1.82874,4.7 -2.09091,1.89225 -1.92662,1.87835 -4.95563,0.41916 z M 209.70297,300.5 c -1.98211,-1.925 -4.06031,-3.5 -4.61822,-3.5 -0.55791,0 -1.49605,-0.9 -2.08475,-2 -0.68496,-1.27986 -2.09382,-2 -3.91274,-2 -3.25456,0 -4.62397,-1.3059 -5.64804,-5.38613 -0.39686,-1.58122 -1.52691,-3.08555 -2.51122,-3.34295 -2.19461,-0.5739 -3.35179,-3.24713 -1.99357,-4.60535 0.66667,-0.66667 1.21486,-0.44011 1.64456,0.67969 0.58704,1.5298 0.95162,1.48992 4.08539,-0.44685 4.35876,-2.69386 5.20457,-1.93907 1.86504,1.66434 -1.88986,2.0392 -2.28097,3.07355 -1.46003,3.86129 0.8092,0.77647 1.54625,0.44968 2.64794,-1.17404 3.04527,-4.48827 6.82887,-2.00763 4.25975,2.79282 -1.46009,2.72822 2.22262,6.45586 4.94083,5.00111 1.37976,-0.73842 2.19488,-0.61296 3.09953,0.47708 1.83722,2.21372 3.75412,1.79307 5.30337,-1.16378 1.9826,-3.78393 2.83033,-1.45586 1.16846,3.20889 -0.77082,2.16364 -1.42124,5.17138 -1.44538,6.68388 -0.0575,3.60164 -0.99587,3.46986 -5.34092,-0.75 z m -23.45244,-24 c 0.10976,-1.1 -0.16659,-2.58405 -0.6141,-3.29789 -1.13479,-1.81013 -0.0255,-4.20211 1.94876,-4.20211 1.21322,0 1.52342,0.65154 1.17584,2.46974 -0.25966,1.35835 -0.19962,2.34963 0.13343,2.20284 0.33305,-0.14679 1.85213,-0.88908 3.37575,-1.64953 2.89384,-1.44435 5.62981,-0.28832 4.32278,1.82649 -1.28209,2.07446 -6.83673,4.19307 -8.14557,3.10682 -0.88677,-0.73595 -1.42002,-0.66234 -1.82468,0.2519 -0.31447,0.71046 -0.48196,0.39174 -0.37221,-0.70826 z"
       style="fill:#88a25d" />
    <path
       id="path11152"
       d="m 410.89552,491.71436 c -2.58417,-1.9682 -3.18174,-5.28528 -1.2925,-7.17453 1.46372,-1.46371 1.53432,-2.49979 0.56935,-8.35537 -0.75794,-4.59932 -1.7433,-7.20789 -3.15882,-8.36245 l -2.05726,-1.67799 2.24436,-1.57201 C 408.43505,463.7074 410.51201,463 411.81613,463 c 1.50178,0 2.55623,-0.7079 2.87603,-1.9308 0.30734,-1.1753 1.06786,-1.71478 1.94362,-1.37872 2.08182,0.79886 5.24557,-2.42818 4.64229,-4.73515 -0.62812,-2.40193 2.14775,-3.67675 4.23466,-1.94476 1.15602,0.9594 1.48727,0.96377 1.48727,0.0196 0,-1.98653 3.99568,-6.48945 6.26487,-7.06016 1.159,-0.2915 2.41017,-1.66255 2.78037,-3.04678 0.3702,-1.38423 1.83637,-4.35954 3.25816,-6.6118 2.97023,-4.70514 4.05649,-14.85294 1.74297,-16.28277 -0.76882,-0.47516 -0.97404,-1.33667 -0.50081,-2.10238 1.25744,-2.03458 0.45728,-12.19537 -1.05335,-13.37581 -0.73936,-0.57776 -1.55521,-3.4528 -1.81299,-6.38898 -0.3524,-4.01383 -1.3633,-6.63743 -4.07396,-10.57318 C 431.62237,384.70923 430,381.8074 430,381.13978 c 0,-0.66762 -2.59589,-3.78469 -5.76864,-6.92682 -3.17275,-3.14213 -8.1492,-8.63796 -11.05878,-12.21296 -2.90958,-3.575 -7.05161,-7.85 -9.20452,-9.5 -2.15291,-1.65 -6.39576,-4.96283 -9.42856,-7.36185 -3.16442,-2.50312 -6.13644,-4.12306 -6.97443,-3.80149 -0.80314,0.30819 -1.97093,2.49602 -2.59509,4.86184 -0.62416,2.36583 -2.67274,7.07462 -4.55241,10.46398 C 378.53791,360.05185 377,363.4184 377,364.1437 c 0,0.7253 4.03533,5.37718 8.9674,10.33751 12.08996,12.15925 15.83763,19.64214 17.29034,34.5233 0.99581,10.20074 0.95229,10.66342 -1.50484,16 -3.21664,6.98616 -6.65108,9.05524 -16.65772,10.03549 -6.40299,0.62724 -8.4585,0.42428 -13.09518,-1.29301 -3.025,-1.12037 -6.38763,-2.64678 -7.47251,-3.39202 C 363.44262,429.60974 361.77012,429 360.81083,429 c -1.70709,0 -3.43794,-1.46748 -15.00295,-12.72006 -5.90465,-5.74512 -8.45273,-6.35405 -9.51945,-2.27489 -0.28693,1.09722 -1.07446,1.99495 -1.75007,1.99495 -0.67561,0 -2.01979,0.87449 -2.98706,1.94332 -2.47896,2.73922 -7.37736,3.65919 -9.2915,1.74505 -2.40636,-2.40635 -0.87296,-5.6945 5.6925,-12.20678 3.31674,-3.28987 6.03433,-6.83182 6.03907,-7.87099 0.005,-1.03917 -1.36862,-4.12771 -3.05192,-6.86343 -3.64152,-5.91822 -4.55967,-12.02329 -3.03852,-20.20398 1.23962,-6.66667 5.11807,-11.71782 10.90155,-14.19778 4.55346,-1.95252 18.18531,-2.89392 22.10733,-1.5267 1.7306,0.60329 3.8319,0.8339 4.66957,0.51246 1.9319,-0.74134 7.96939,-12.65353 9.50586,-18.75541 1.01002,-4.01117 0.9404,-4.88995 -0.51483,-6.49795 C 373.03935,330.386 358.1992,322.79215 336,312.34096 331.325,310.14001 323.12397,306.23791 317.77548,303.66962 312.42699,301.10133 307.39105,299 306.5845,299 c -0.80656,0 -1.72429,-0.41717 -2.03941,-0.92704 -0.31512,-0.50988 -2.19541,-1.46251 -4.17842,-2.11696 -1.983,-0.65445 -6.36424,-3.08075 -9.73607,-5.39178 -3.37183,-2.31102 -9.0556,-5.46979 -12.6306,-7.01948 -3.575,-1.54969 -8.3,-4.00605 -10.5,-5.45858 -5.00758,-3.30621 -15.44752,-8.41949 -17.19033,-8.41949 -0.72032,0 -1.30967,-0.3401 -1.30967,-0.75578 0,-0.61739 -5.16141,-2.80285 -8.25,-3.49324 -0.4125,-0.0922 -0.8625,-0.25263 -1,-0.35649 -0.1375,-0.10386 -1.63367,-0.32658 -3.32481,-0.49495 -1.69115,-0.16836 -4.61615,-1.01463 -6.5,-1.88059 -5.79502,-2.66383 -14.60788,-4.80336 -17.15357,-4.16444 -1.57772,0.39599 -2.87189,0.0629 -3.71827,-0.95689 -1.55101,-1.86886 -4.17483,-1.96268 -10.97706,-0.39254 -5.40141,1.24679 -5.96274,1.84767 -3.57629,3.82825 2.08854,1.73334 1.88629,2.50297 -1.00383,3.81979 -2.13811,0.97419 -2.68446,0.85158 -3.74054,-0.83949 -1.596,-2.55559 -2.71601,-2.5448 -2.04538,0.0197 0.29241,1.11819 0.0307,2 -0.59362,2 -1.40947,0 -1.47095,-3.66298 -0.0759,-4.52514 0.57237,-0.35375 0.78591,-1.44587 0.47453,-2.42694 -0.88954,-2.8027 1.23529,-7.16814 5.79288,-11.90141 5.52987,-5.74301 9.72918,-8.33443 18.19191,-11.22634 6.43527,-2.19907 8.57318,-2.39319 26.5,-2.40611 14.79889,-0.0107 21.18758,0.38874 26.5,1.65672 3.85,0.91893 12.85,2.83206 20,4.2514 15.06411,2.99037 30.38038,6.90825 33.46937,8.56143 5.54728,2.96881 23.37144,4.78578 47.18219,4.80967 l 23.65156,0.0237 10.34844,3.67896 c 5.69164,2.02342 13.10555,4.66772 16.47535,5.87621 11.7491,4.2135 33.56734,18.05716 41.44718,26.29821 8.52559,8.91641 21.92591,26.6663 21.92591,29.04278 0,0.4924 1.41652,3.12087 3.14783,5.84105 1.73131,2.72018 3.70646,6.97078 4.38922,9.44578 0.68276,2.475 2.52873,7.2 4.10216,10.5 2.81954,5.91349 2.86079,6.25954 2.86079,24 0,26.27864 -0.98489,31.14213 -9.18738,45.36843 -7.91982,13.73603 -12.57855,19.24117 -23.62483,27.91705 -4.50329,3.53693 -8.35097,6.58281 -8.55042,6.76862 -0.19945,0.1858 -0.34615,3.19425 -0.32601,6.68543 0.0521,9.02426 4.4835,25.41502 7.80998,28.88712 1.97278,2.05914 2.47178,3.36621 2.00108,5.24162 -0.76988,3.06746 -2.28243,3.58052 -11.46515,3.88909 -5.52398,0.18562 -7.44494,-0.10988 -8.17383,-1.25736 -1.65231,-2.60121 -1.07163,-5.35455 1.57423,-7.46428 l 2.55767,-2.03942 -1.66392,-10.49815 C 442.0449,455.81466 442.09342,456 440.52495,456 c -0.79031,0 -3.70152,1.33524 -6.46933,2.96721 -2.76782,1.63196 -7.28762,3.93738 -10.04401,5.12314 -5.36366,2.30739 -5.58361,2.81646 -4.3752,10.12616 0.35286,2.1344 2.09417,5.44529 4.09049,7.77754 2.81621,3.2901 3.34686,4.57595 2.79531,6.77347 -0.37443,1.49185 -1.2076,3.04756 -1.85149,3.45715 -1.88479,1.19893 -12.02421,0.82331 -13.7752,-0.51031 z M 395.5,466.80862 c -3.3,-0.44338 -7.51214,-0.97296 -9.36031,-1.17685 -3.47912,-0.38382 -5.09798,-1.90738 -5.12438,-4.82275 -0.0229,-2.52522 1.87831,-3.21527 3.87644,-1.40698 2.20228,1.99303 3.51459,2.0182 5.10825,0.098 1.9809,-2.38684 2.99983,-1.74913 2.35519,1.47405 -0.57186,2.85931 -0.46066,2.96901 2.88229,2.84334 3.30537,-0.12426 8.82805,2.5144 7.08596,3.38558 -0.45289,0.22648 -3.52344,0.049 -6.82344,-0.39435 z m -26,-5.85325 c -3.3,-0.98743 -6.2025,-1.83133 -6.45,-1.87535 -0.2475,-0.044 0.09,-0.62002 0.75,-1.28002 0.66,-0.66 1.2,-2.01 1.2,-3 0,-2.55026 4.03586,-2.37889 4.71025,0.2 0.6386,2.44202 1.63735,2.49846 5.35469,0.30257 1.58044,-0.93359 3.11945,-1.45151 3.42003,-1.15094 0.84161,0.84162 -0.9171,8.17537 -2.01446,8.40021 -0.53378,0.10937 -3.67051,-0.60905 -6.97051,-1.59647 z m 29.72379,-0.13158 C 397.53762,459.13762 399.58261,457 402.8819,457 c 1.554,0 3.14997,-0.82139 3.88603,-2 1.99682,-3.19742 4.24472,-2.52085 4.15312,1.25 -0.0434,1.7875 -0.30592,2.6875 -0.58333,2 -0.27741,-0.6875 -1.41503,-1.25 -2.52804,-1.25 -1.30844,0 -1.83675,0.48708 -1.49481,1.37814 1.16011,3.02322 -4.54564,4.99109 -7.09108,2.44565 z M 288,458 c 0,-0.55 -0.91412,-1 -2.03138,-1 -2.51746,0 -3.61121,-2.52079 -1.95805,-4.51273 2.77835,-3.34772 9.84898,0.22917 8.54908,4.3248 C 291.87292,458.97574 288,459.98476 288,458 Z m 14.91025,-15.16769 c -1.30515,-2.43871 -0.58472,-12.70353 1.11442,-15.87841 1.26547,-2.36456 2.32941,-2.45696 4.4039,-0.38247 1.83666,1.83666 2.21143,13.3642 0.53625,16.49431 -1.38122,2.58083 -4.61515,2.45615 -6.05457,-0.23343 z M 289,417.01334 c -0.825,-0.47797 -2.2875,-1.11238 -3.25,-1.4098 -2.18997,-0.67673 -2.1728,-1.49608 0.0931,-4.4418 1.73589,-2.25668 1.92701,-2.28463 5.47777,-0.80103 3.80854,1.59131 4.78662,4.13179 2.47912,6.43929 -1.38315,1.38315 -2.68128,1.44085 -4.8,0.21334 z m -31,-9.89971 c 0,-1.1166 14.81614,-18.75536 18.63585,-22.18616 1.57528,-1.4149 5.60202,-4.16373 8.94832,-6.10852 l 6.08416,-3.53599 1.15015,3.04711 c 1.38923,3.68048 0.44442,4.97343 -7.47605,10.23073 -2.92712,1.94291 -5.75942,4.34984 -6.29401,5.34873 -0.53459,0.9989 -2.45168,2.42045 -4.2602,3.159 -1.80852,0.73856 -6.32572,3.49912 -10.03822,6.13457 -3.7125,2.63546 -6.75,4.3952 -6.75,3.91053 z M 289.5,367 c -0.33992,-0.55 -1.43638,-1 -2.43657,-1 -2.26773,0 -3.88708,-1.8983 -5.03563,-5.90308 -1.06222,-3.70373 0.56862,-4.2886 1.93527,-0.69406 1.36964,3.60242 2.56146,3.87354 7.19236,1.63613 C 296.04323,358.67746 296,358.68673 296,360 c 0,0.55 -0.56675,1 -1.25945,1 -1.7655,0 -3.82703,3.61106 -3.11735,5.46047 0.64878,1.69067 -1.13207,2.14321 -2.1232,0.53953 z m -23.07088,-23.4264 c -0.33495,-1.33453 -1.46852,-3.20427 -2.51906,-4.15499 C 262.85953,338.46789 262,337.08477 262,336.34501 262,335.60388 260.95582,335 259.67431,335 c -1.27912,0 -3.36601,-1.10738 -4.63753,-2.46085 -2.07376,-2.20741 -2.18416,-2.76914 -1.07195,-5.45425 l 1.23991,-2.9934 2.80938,2.07706 c 1.70667,1.2618 3.05806,3.40264 3.44294,5.45425 0.34846,1.85746 0.98933,3.37719 1.42414,3.37719 0.43482,0 2.92228,1.66079 5.52768,3.69064 l 4.7371,3.69064 -2.32299,1.78713 c -3.07483,2.36552 -3.67114,2.2848 -4.39387,-0.59481 z m -21.441,-19.90862 c -1.91847,-1.28427 -5.41763,-3.60726 -7.77592,-5.1622 -2.81929,-1.85891 -3.94996,-3.16502 -3.30135,-3.81363 0.64861,-0.64861 1.94588,-0.33619 3.7878,0.9122 1.54074,1.04426 4.37635,2.12365 6.30135,2.39865 2.93333,0.41905 3.5,0.90476 3.5,3 0,1.375 0.36406,3.0625 0.80902,3.75 1.12364,1.73612 0.67389,1.58917 -3.3209,-1.08502 z m -17.77249,-11.90081 c -1.25641,-0.60526 -2.20084,-1.8123 -2.09874,-2.68232 0.1021,-0.87002 -0.27959,-2.70685 -0.84821,-4.08185 -1.50203,-3.63211 -0.58723,-4.22764 2.20498,-1.43543 2.69261,2.69261 4.51356,3.04821 6.32634,1.23543 0.93333,-0.93333 1.2,-0.52333 1.2,1.84501 0,1.67997 -0.8198,3.78693 -1.82874,4.7 -2.09091,1.89225 -1.92662,1.87835 -4.95563,0.41916 z M 209.70297,300.5 c -1.98211,-1.925 -4.06031,-3.5 -4.61822,-3.5 -0.55791,0 -1.49605,-0.9 -2.08475,-2 -0.68496,-1.27986 -2.09382,-2 -3.91274,-2 -3.25456,0 -4.62397,-1.3059 -5.64804,-5.38613 -0.39686,-1.58122 -1.52691,-3.08555 -2.51122,-3.34295 -2.19461,-0.5739 -3.35179,-3.24713 -1.99357,-4.60535 0.66667,-0.66667 1.21486,-0.44011 1.64456,0.67969 0.58704,1.5298 0.95162,1.48992 4.08539,-0.44685 4.35876,-2.69386 5.20457,-1.93907 1.86504,1.66434 -1.88986,2.0392 -2.28097,3.07355 -1.46003,3.86129 0.8092,0.77647 1.54625,0.44968 2.64794,-1.17404 3.04527,-4.48827 6.82887,-2.00763 4.25975,2.79282 -1.46009,2.72822 2.22262,6.45586 4.94083,5.00111 1.37976,-0.73842 2.19488,-0.61296 3.09953,0.47708 1.83722,2.21372 3.75412,1.79307 5.30337,-1.16378 1.9826,-3.78393 2.83033,-1.45586 1.16846,3.20889 -0.77082,2.16364 -1.42124,5.17138 -1.44538,6.68388 -0.0575,3.60164 -0.99587,3.46986 -5.34092,-0.75 z m -23.45244,-24 c 0.10976,-1.1 -0.16659,-2.58405 -0.6141,-3.29789 -1.13479,-1.81013 -0.0255,-4.20211 1.94876,-4.20211 1.21322,0 1.52342,0.65154 1.17584,2.46974 -0.25966,1.35835 -0.19962,2.34963 0.13343,2.20284 0.33305,-0.14679 1.85213,-0.88908 3.37575,-1.64953 2.89384,-1.44435 5.62981,-0.28832 4.32278,1.82649 -1.28209,2.07446 -6.83673,4.19307 -8.14557,3.10682 -0.88677,-0.73595 -1.42002,-0.66234 -1.82468,0.2519 -0.31447,0.71046 -0.48196,0.39174 -0.37221,-0.70826 z"
       style="fill:#86c635" />
    <path
       id="path11150"
       d="m 410.89552,491.71436 c -2.55651,-1.94713 -3.18297,-5.28405 -1.33834,-7.12869 1.28817,-1.28816 1.48309,-2.70941 0.94021,-6.85537 -0.37668,-2.87666 -1.31964,-6.54085 -2.09547,-8.14263 -0.77582,-1.60178 -1.28492,-3.038 -1.13133,-3.19159 0.15359,-0.1536 4.09305,-1.9069 8.75434,-3.89622 12.41614,-5.29891 19.472,-12.80416 24.43601,-25.99233 C 442.01369,432.38228 443,427.69972 443,424.4533 c 0,-7.67461 -1.93452,-20.426 -3.58225,-23.61235 -0.77976,-1.5079 -1.41775,-3.6127 -1.41775,-4.67734 0,-1.06464 -1.8,-4.63123 -4,-7.92575 -2.2,-3.29453 -4,-6.51247 -4,-7.15099 0,-0.63852 -2.59589,-3.73178 -5.76864,-6.87391 -3.17275,-3.14213 -8.1492,-8.63796 -11.05878,-12.21296 -2.90958,-3.575 -7.05161,-7.85 -9.20452,-9.5 -2.15291,-1.65 -6.39576,-4.96283 -9.42856,-7.36185 -3.16442,-2.50312 -6.13644,-4.12306 -6.97443,-3.80149 -0.80314,0.30819 -1.97093,2.49602 -2.59509,4.86184 -0.62416,2.36583 -2.67274,7.07462 -4.55241,10.46398 -1.87966,3.38937 -3.41757,7.08685 -3.41757,8.21663 0,1.12977 -2.02152,4.33025 -4.49226,7.11217 -2.47074,2.78193 -5.43412,6.90424 -6.58528,9.1607 -3.19298,6.25876 -20.33362,26.14736 -24.62319,28.57075 -2.0896,1.18051 -5.55858,3.95586 -7.70886,6.16743 -4.24218,4.36311 -8.78221,6.02548 -11.13137,4.07585 -2.68829,-2.23109 -1.50297,-5.02227 5.29096,-12.45917 7.23297,-7.91748 13.64169,-15.60625 21.93286,-26.31361 2.85057,-3.68127 6.06603,-7.8326 7.14547,-9.22517 1.07943,-1.39257 2.62836,-4.1253 3.44204,-6.07273 0.81369,-1.94743 2.82707,-5.08306 4.47418,-6.96806 3.7462,-4.28727 8.79956,-14.23115 10.339,-20.34482 1.01188,-4.01854 0.94266,-4.896 -0.51314,-6.50464 C 373.03935,330.386 358.1992,322.79215 336,312.34096 331.325,310.14001 323.12397,306.23791 317.77548,303.66962 312.42699,301.10133 307.39105,299 306.5845,299 c -0.80656,0 -1.72429,-0.41717 -2.03941,-0.92704 -0.31512,-0.50988 -2.19541,-1.46251 -4.17842,-2.11696 -1.983,-0.65445 -6.36424,-3.08075 -9.73607,-5.39178 -3.37183,-2.31102 -9.0556,-5.46979 -12.6306,-7.01948 -3.575,-1.54969 -8.3,-4.00948 -10.5,-5.4662 -4.77783,-3.16362 -19.2033,-10.14297 -25.5,-12.33746 -11.0682,-3.85741 -24.00936,-7.67981 -29.791,-8.79931 -7.20625,-1.39533 -16.85606,-0.69276 -21.17733,1.54185 -6.57756,3.40139 -4.39457,-4.78372 3.2277,-12.10224 6.54625,-6.28537 8.52818,-7.48817 17.24063,-10.46308 6.43318,-2.19664 8.57899,-2.39132 26.5,-2.40424 14.79889,-0.0107 21.18758,0.38874 26.5,1.65672 3.85,0.91893 12.85,2.83206 20,4.2514 15.06411,2.99037 30.38038,6.90825 33.46937,8.56143 5.54728,2.96881 23.37144,4.78578 47.18219,4.80967 l 23.65156,0.0237 10.34844,3.67896 c 5.69164,2.02342 13.10555,4.66772 16.47535,5.87621 11.7491,4.2135 33.56734,18.05716 41.44718,26.29821 8.52559,8.91641 21.92591,26.6663 21.92591,29.04278 0,0.4924 1.41652,3.12087 3.14783,5.84105 1.73131,2.72018 3.70646,6.97078 4.38922,9.44578 0.68276,2.475 2.52873,7.2 4.10216,10.5 2.81954,5.91349 2.86079,6.25954 2.86079,24 0,26.27864 -0.98489,31.14213 -9.18738,45.36843 -7.91982,13.73603 -12.57855,19.24117 -23.62483,27.91705 -4.50329,3.53693 -8.35097,6.58281 -8.55042,6.76862 -0.19945,0.1858 -0.34615,3.19425 -0.32601,6.68543 0.0521,9.02426 4.4835,25.41502 7.80998,28.88712 1.97278,2.05914 2.47178,3.36621 2.00108,5.24162 -0.76988,3.06746 -2.28243,3.58052 -11.46515,3.88909 -5.52398,0.18562 -7.44494,-0.10988 -8.17383,-1.25736 -1.65231,-2.60121 -1.07163,-5.35455 1.57423,-7.46428 l 2.55767,-2.03942 -1.66392,-10.49815 C 442.0449,455.81466 442.09342,456 440.52495,456 c -0.79031,0 -3.70152,1.33524 -6.46933,2.96721 -2.76782,1.63196 -7.28762,3.93738 -10.04401,5.12314 -5.36366,2.30739 -5.58361,2.81646 -4.3752,10.12616 0.35286,2.1344 2.09417,5.44529 4.09049,7.77754 2.81621,3.2901 3.34686,4.57595 2.79531,6.77347 -0.37443,1.49185 -1.2076,3.04756 -1.85149,3.45715 -1.88479,1.19893 -12.02421,0.82331 -13.7752,-0.51031 z M 288,458 c 0,-0.55 -0.91412,-1 -2.03138,-1 -2.51746,0 -3.61121,-2.52079 -1.95805,-4.51273 2.77835,-3.34772 9.84898,0.22917 8.54908,4.3248 C 291.87292,458.97574 288,459.98476 288,458 Z m 15.38882,-15.52934 C 300.87033,438.62696 302.87876,425 305.96376,425 c 0.49136,0 1.65477,0.76138 2.58535,1.69196 1.42423,1.42424 1.58443,2.87859 1.01242,9.19097 -0.37375,4.12445 -0.90455,7.86306 -1.17955,8.30803 -0.98163,1.58832 -3.36281,0.76792 -4.99316,-1.7203 z M 289,417.01334 c -0.825,-0.47797 -2.2875,-1.11238 -3.25,-1.4098 -2.18997,-0.67673 -2.1728,-1.49608 0.0931,-4.4418 1.73589,-2.25668 1.92701,-2.28463 5.47777,-0.80103 3.80854,1.59131 4.78662,4.13179 2.47912,6.43929 -1.38315,1.38315 -2.68128,1.44085 -4.8,0.21334 z m -31,-9.89971 c 0,-1.10109 14.75901,-18.69411 18.63585,-22.21428 1.57528,-1.43036 5.39646,-4.01931 8.4915,-5.75322 l 5.62735,-3.15256 1.24434,3.00412 c 1.52291,3.67663 0.93797,4.52212 -6.58179,9.51345 -2.96827,1.97023 -5.83424,4.3995 -6.36883,5.39839 -0.53459,0.9989 -2.45168,2.42045 -4.2602,3.159 -1.80852,0.73856 -6.32572,3.49912 -10.03822,6.13457 -3.7125,2.63546 -6.75,4.3952 -6.75,3.91053 z"
       style="fill:#74ab34" />
    <path
       id="path11148"
       d="m 410.89552,491.71436 c -2.55651,-1.94713 -3.18297,-5.28405 -1.33834,-7.12869 1.28817,-1.28816 1.48309,-2.70941 0.94021,-6.85537 -0.37668,-2.87666 -1.23849,-6.37818 -1.91514,-7.78116 -1.36471,-2.8296 -2.53148,-1.98105 11.59573,-8.43306 12.89832,-5.89077 22.93256,-21.81692 23.08169,-36.63483 0.15351,-15.25305 -3.56147,-29.08776 -10.25483,-38.18931 C 431.35218,384.44467 430,382.00298 430,381.26596 c 0,-0.73702 -2.59589,-3.91087 -5.76864,-7.053 -3.17275,-3.14213 -8.1492,-8.63796 -11.05878,-12.21296 -2.90958,-3.575 -7.05161,-7.85 -9.20452,-9.5 -2.15291,-1.65 -6.39576,-4.96283 -9.42856,-7.36185 -3.16442,-2.50312 -6.13644,-4.12306 -6.97443,-3.80149 -0.80314,0.30819 -1.95983,2.41564 -2.57042,4.68323 -1.74088,6.4651 -9.39255,20.55846 -14.2671,26.27807 -2.4384,2.86112 -5.23154,6.77704 -6.20698,8.70204 -3.4542,6.81671 -15.94404,21.15055 -28.23099,32.39901 -5.95562,5.45225 -7.80777,6.60099 -10.64301,6.60099 -2.19052,0 -3.64967,-0.56569 -4.0325,-1.56335 -0.70994,-1.85006 1.64377,-6.76805 4.13022,-8.62996 0.96564,-0.72309 5.08158,-5.13791 9.14654,-9.8107 4.06496,-4.6728 8.60936,-9.62099 10.09868,-10.99599 3.9329,-3.63101 13.88694,-17.4565 15.68561,-21.78626 0.84852,-2.04256 2.86323,-5.67767 4.47712,-8.07802 4.33528,-6.4479 8.60409,-15.28237 9.93131,-20.55327 1.01188,-4.01854 0.94266,-4.896 -0.51314,-6.50464 C 373.03935,330.386 358.1992,322.79215 336,312.34096 331.325,310.14001 323.12397,306.23791 317.77548,303.66962 312.42699,301.10133 307.39105,299 306.5845,299 c -0.80656,0 -1.72429,-0.41717 -2.03941,-0.92704 -0.31512,-0.50988 -2.19541,-1.46251 -4.17842,-2.11696 -1.983,-0.65445 -6.36424,-3.08075 -9.73607,-5.39178 -3.37183,-2.31102 -9.0556,-5.46979 -12.6306,-7.01948 -3.575,-1.54969 -8.3,-4.00958 -10.5,-5.46643 C 253.21884,268.62129 215.72204,255 203.96983,255 c -2.73597,0 -11.48731,2.02042 -15.21983,3.5138 -3.83902,1.536 -0.96509,-5.63121 4.55809,-11.36729 5.52987,-5.74301 9.72918,-8.33443 18.19191,-11.22634 6.43527,-2.19907 8.57318,-2.39319 26.5,-2.40611 14.79889,-0.0107 21.18758,0.38874 26.5,1.65672 3.85,0.91893 12.85,2.83206 20,4.2514 15.06411,2.99037 30.38038,6.90825 33.46937,8.56143 5.54728,2.96881 23.37144,4.78578 47.18219,4.80967 l 23.65156,0.0237 10.34844,3.67896 c 5.69164,2.02342 13.10555,4.66772 16.47535,5.87621 11.7491,4.2135 33.56734,18.05716 41.44718,26.29821 8.52559,8.91641 21.92591,26.6663 21.92591,29.04278 0,0.4924 1.41652,3.12087 3.14783,5.84105 1.73131,2.72018 3.70646,6.97078 4.38922,9.44578 0.68276,2.475 2.52873,7.2 4.10216,10.5 2.81954,5.91349 2.86079,6.25954 2.86079,24 0,26.27864 -0.98489,31.14213 -9.18738,45.36843 -7.91982,13.73603 -12.57855,19.24117 -23.62483,27.91705 -4.50329,3.53693 -8.35097,6.58281 -8.55042,6.76862 -0.19945,0.1858 -0.34615,3.19425 -0.32601,6.68543 0.0521,9.02426 4.4835,25.41502 7.80998,28.88712 1.97278,2.05914 2.47178,3.36621 2.00108,5.24162 -0.76988,3.06746 -2.28243,3.58052 -11.46515,3.88909 -5.52398,0.18562 -7.44494,-0.10988 -8.17383,-1.25736 -1.65231,-2.60121 -1.07163,-5.35455 1.57423,-7.46428 l 2.55767,-2.03942 -1.66392,-10.49815 C 442.0449,455.81466 442.09342,456 440.52495,456 c -0.79031,0 -3.70152,1.33524 -6.46933,2.96721 -2.76782,1.63196 -7.28762,3.93738 -10.04401,5.12314 -5.36366,2.30739 -5.58361,2.81646 -4.3752,10.12616 0.35286,2.1344 2.09417,5.44529 4.09049,7.77754 2.81621,3.2901 3.34686,4.57595 2.79531,6.77347 -0.37443,1.49185 -1.2076,3.04756 -1.85149,3.45715 -1.88479,1.19893 -12.02421,0.82331 -13.7752,-0.51031 z M 288,458 c 0,-0.55 -0.91412,-1 -2.03138,-1 -2.51746,0 -3.61121,-2.52079 -1.95805,-4.51273 2.77835,-3.34772 9.84898,0.22917 8.54908,4.3248 C 291.87292,458.97574 288,459.98476 288,458 Z m 15.4289,-15.46817 c -1.31426,-2.00582 -1.5545,-3.80606 -1.0644,-7.97609 0.82501,-7.0195 1.47501,-8.55574 3.62004,-8.55574 3.09842,0 3.7454,2.17646 3.11823,10.48982 -0.48302,6.40248 -0.9379,8.05367 -2.28964,8.31117 -0.9557,0.18206 -2.42258,-0.8015 -3.38423,-2.26916 z M 289,417.01334 c -0.825,-0.47797 -2.2875,-1.11238 -3.25,-1.4098 -2.18997,-0.67673 -2.1728,-1.49608 0.0931,-4.4418 1.73589,-2.25668 1.92701,-2.28463 5.47777,-0.80103 3.80854,1.59131 4.78662,4.13179 2.47912,6.43929 -1.38315,1.38315 -2.68128,1.44085 -4.8,0.21334 z M 258.49231,406 c 1.59263,-2.61097 15.17662,-18.39025 18.15273,-21.08637 C 279.68076,382.16351 288.24298,377 289.76755,377 c 0.50128,0 1.44695,1.17537 2.10149,2.61192 1.46378,3.21265 0.86135,4.04504 -6.43052,8.88511 -2.95658,1.96246 -5.72725,4.16991 -6.15706,4.90543 -0.4298,0.73553 -2.80646,2.3608 -5.28146,3.61172 -2.475,1.25091 -5.85,3.27491 -7.5,4.49777 -5.85737,4.34105 -8.98845,6.09592 -8.00769,4.48805 z"
       style="fill:#759249" />
    <path
       id="path11146"
       d="m 412,491.71023 c -3.06574,-1.54549 -3.74955,-5.22451 -1.44448,-7.77158 1.45809,-1.61117 1.55387,-2.53883 0.63678,-6.16753 -2.35009,-9.29875 -2.34873,-9.62676 0.0463,-11.11999 1.24376,-0.77545 4.51139,-2.22538 7.26139,-3.22208 2.75,-0.99669 6.41244,-2.96347 8.13876,-4.37061 5.11516,-4.16942 13.52282,-14.87289 14.40558,-18.3392 0.45092,-1.77058 1.50565,-5.01924 2.34386,-7.21924 3.93456,-10.32683 -0.52191,-35.15573 -8.25393,-45.98623 -1.57602,-2.20757 -3.19799,-5.0789 -3.60439,-6.38073 -0.40639,-1.30183 -2.66107,-4.22683 -5.0104,-6.5 -2.34932,-2.27317 -7.77124,-8.18304 -12.04871,-13.13304 -4.27747,-4.95 -8.49577,-9.40389 -9.37399,-9.89753 -0.87823,-0.49364 -3.84678,-2.78235 -6.59678,-5.08603 -8.11248,-6.79584 -10.2616,-7.95918 -12.0151,-6.50391 -0.8278,0.68702 -2.20664,3.66236 -3.06409,6.61188 -0.85745,2.94952 -3.10291,7.92668 -4.9899,11.06035 -1.887,3.13367 -3.43091,6.2102 -3.43091,6.83673 0,0.62652 -1.80434,3.128 -4.00964,5.55882 -2.20531,2.43083 -5.41487,6.89469 -7.13235,9.91969 -4.02194,7.08382 -17.54804,23.09143 -23.63294,27.96866 -2.59879,2.083 -6.27585,5.41719 -8.17124,7.40931 -3.4188,3.59327 -8.14849,4.89591 -9.54894,2.62995 -0.89135,-1.44224 0.24737,-3.07329 7.49511,-10.73564 17.14343,-18.12411 32,-36.62465 32,-39.84883 0,-0.53298 1.62434,-3.4338 3.60964,-6.44625 5.03641,-7.64216 9.46242,-16.62446 10.9451,-22.21238 1.13076,-4.2616 1.06783,-4.97492 -0.62916,-7.13231 -1.66984,-2.12284 -15.05221,-9.07501 -41.92558,-21.7804 -4.675,-2.21028 -11.65,-5.53308 -15.5,-7.38401 -3.85,-1.85093 -10.375,-4.80139 -14.5,-6.55659 -4.125,-1.75519 -9.975,-4.85986 -13,-6.89925 -3.025,-2.0394 -8.425,-4.98817 -12,-6.55283 -3.575,-1.56466 -8.3,-4.05084 -10.5,-5.52485 -6.39051,-4.28165 -27.00704,-13.23245 -39.5,-17.14918 -20.17794,-6.3261 -25.0988,-6.93292 -34.9535,-4.31036 -2.99942,0.79821 -5.59951,1.30528 -5.77798,1.12682 -1.55431,-1.55432 6.96211,-11.90205 13.11219,-15.93174 4.34682,-2.84815 13.9406,-5.6683 23.05115,-6.77604 10.80681,-1.31398 31.1832,-0.53362 38.06814,1.4579 2.75,0.79545 7.475,1.72601 10.5,2.06789 8.69317,0.9825 28.64029,5.75988 40.5,9.69984 13.08736,4.3478 25.68993,5.85437 52,6.21631 l 25,0.34391 8.5,3.08274 c 24.14901,8.75824 24.92877,9.09035 32.5,13.84249 19.97827,12.5395 21.4844,13.71069 29.22647,22.72693 8.65607,10.08066 16.75964,21.18607 18.17412,24.90643 0.50043,1.31623 2.30252,4.58912 4.00464,7.27309 1.70212,2.68398 3.09477,5.67005 3.09477,6.63574 0,0.96568 1.67916,5.49007 3.73147,10.05421 l 3.73148,8.29844 -0.0315,16.5 c -0.0331,17.37363 -1.48046,31.45823 -3.64104,35.43291 -6.8868,12.66916 -13.77581,23.7356 -16.71791,26.85547 -1.96489,2.08361 -7.51181,6.96239 -12.32649,10.84174 -4.81469,3.87934 -9.00279,8.04473 -9.30691,9.25641 -0.76441,3.04567 1.12718,17.18403 3.00886,22.4892 0.85361,2.40665 1.55202,5.18462 1.55202,6.17327 0,0.98865 1.125,3.13454 2.5,4.76863 2.99186,3.55563 3.21234,6.73077 0.56574,8.14719 C 458.0019,491.53417 453.94225,492 450.0443,492 c -6.66577,0 -7.15777,-0.15492 -8.27433,-2.60552 -1.08051,-2.37146 -0.90274,-2.84306 1.979,-5.25 L 446.91513,481.5 444.96786,472 c -1.07099,-5.225 -1.9519,-10.97662 -1.95756,-12.78138 -0.0144,-4.57485 -1.87204,-4.83802 -8.12373,-1.15083 -2.96261,1.74732 -7.75464,4.22458 -10.64894,5.50502 -2.8943,1.28044 -5.50075,2.9493 -5.79212,3.70858 -1.00171,2.61042 1.65809,11.22348 4.60434,14.90997 3.41264,4.27005 3.82823,8.26834 1.01589,9.77346 -2.63946,1.41259 -9.0259,1.27784 -12.06574,-0.25459 z M 304.5135,442.37064 c -1.45047,-1.45047 -1.64802,-2.80953 -1.12949,-7.77051 0.6856,-6.55952 1.61564,-8.19798 4.1101,-7.24076 1.38839,0.53277 1.52822,1.69521 0.94821,7.88278 -0.7807,8.32859 -1.47286,9.58445 -3.92882,7.12849 z m -37.7766,-45.88697 c 6.37069,-8.72524 10.32466,-12.4425 17.0397,-16.01962 5.38617,-2.86923 6.75571,-2.69238 7.38983,0.95427 0.23031,1.32449 -1.05943,2.94046 -4.16643,5.22029 -2.475,1.81608 -5.81916,4.32784 -7.43147,5.58168 -1.61231,1.25384 -4.98731,3.42435 -7.5,4.82335 -2.51269,1.399 -5.88752,3.41665 -7.49962,4.48367 -2.57586,1.7049 -2.3131,1.09362 2.16799,-5.04364 z"
       style="fill:#4d4b44" />
    <path
       id="path11144"
       d="m 412.25,490.99197 c -2.61299,-1.07716 -2.95159,-4.16481 -0.66484,-6.06264 1.02277,-0.84883 1.39343,-2.22269 1.04476,-3.87245 -1.7356,-8.21208 -2.22539,-12.09338 -1.64468,-13.033 0.36046,-0.58323 2.10863,-1.47721 3.88483,-1.98662 2.89285,-0.82965 3.16821,-0.73322 2.64185,0.92518 -0.97166,3.06142 1.5414,11.28911 4.67596,15.309 1.97829,2.53704 2.83794,4.66451 2.62647,6.5 -0.29175,2.53238 -0.67384,2.74364 -5.31435,2.93831 -2.75,0.11536 -6.0125,-0.20764 -7.25,-0.71778 z m 32.54699,0.29972 c -0.93666,-0.23113 -2.00453,-1.37022 -2.37304,-2.53131 -0.50709,-1.5977 0.0734,-2.73716 2.38713,-4.68572 L 447.86825,481.5 445.95792,473 c -1.05068,-4.675 -1.92103,-10.1507 -1.93412,-12.16821 C 443.994,456.24249 443.16202,454 441.48908,454 c -0.71332,0 -4.08341,1.575 -7.48908,3.5 -3.40567,1.925 -6.56806,3.5 -7.02752,3.5 -0.45946,0 1.11359,-1.9125 3.49568,-4.25 6.22873,-6.11215 11.16952,-12.9495 11.79791,-16.32662 0.29917,-1.60786 1.3041,-4.94838 2.23318,-7.42338 1.3636,-3.63256 1.56109,-6.33125 1.02449,-14 -0.98935,-14.13926 -1.22865,-15.93548 -2.30149,-17.2752 C 441.9745,400.16665 439,389.861 439,387.09609 439,385.94324 439.45,385 440,385 c 0.55,0 1,-0.52002 1,-1.15561 0,-0.63558 1.125,-2.63056 2.5,-4.43328 1.375,-1.80272 2.5,-4.38455 2.5,-5.7374 0,-1.35285 0.675,-2.71875 1.5,-3.03534 1.51581,-0.58167 2.14144,-3.63837 0.74469,-3.63837 -0.92732,0 -3.38376,-6.81229 -3.36747,-9.33879 0.007,-1.01134 -1.53818,-3.38884 -3.43268,-5.28334 -1.8945,-1.89449 -3.44454,-3.88444 -3.44454,-4.4221 0,-0.53766 -0.90078,-2.88516 -2.00172,-5.21667 -1.99933,-4.23403 -7.42306,-8.47884 -8.53495,-6.67976 -0.749,1.2119 -2.46333,1.22031 -2.46333,0.0121 0,-0.51072 0.70714,-1.63572 1.57143,-2.5 0.86428,-0.86429 1.08928,-1.57143 0.5,-1.57143 C 426.48214,332 426,331.535 426,330.96667 426,329.84724 419.48226,323 418.4167,323 c -0.35748,0 -0.39538,0.97353 -0.0842,2.16339 0.54028,2.06606 0.48929,2.08317 -1.13337,0.38011 -1.25317,-1.31526 -1.37104,-1.90493 -0.44911,-2.24673 1.89936,-0.70418 1.49286,-3.08491 -0.64245,-3.76264 -1.04085,-0.33035 -2.43002,-1.89844 -3.08705,-3.48464 -1.1688,-2.82174 -6.63905,-6.40328 -8.25481,-5.40468 -0.44838,0.27712 -0.69159,0.11923 -0.54047,-0.35086 0.56057,-1.74368 -7.86333,-9.05534 -11.27449,-9.78588 -1.8979,-0.40646 -3.90073,-1.075 -4.45073,-1.48566 -2.19524,-1.63905 -6.81221,-2.13563 -7.72065,-0.8304 -0.61555,0.88441 -0.71406,0.60661 -0.30418,-0.85785 0.81631,-2.91659 -1.40402,-4.15195 -3.15601,-1.75596 -1.30085,1.77903 -1.36191,1.74826 -1.0983,-0.55334 0.23956,-2.09154 -0.23026,-2.52371 -3.31348,-3.04797 -1.97593,-0.33599 -5.35093,-1.52412 -7.5,-2.6403 -2.14906,-1.11617 -5.36388,-2.06825 -7.14404,-2.11573 -1.78016,-0.0475 -3.79725,-0.4328 -4.48242,-0.85626 -2.00279,-1.23779 -4.44949,-1.45836 -20.09207,-1.81127 l -14.81115,-0.33415 -2.50996,2.64041 -2.50997,2.64041 0.32111,-2.5 c 0.30952,-2.40973 0.11013,-2.50321 -5.52206,-2.58895 -4.01311,-0.0611 -6.00342,0.32861 -6.35479,1.24425 -0.28138,0.73327 -0.96249,1.05455 -1.51358,0.71396 -0.63045,-0.38964 -0.54409,-0.90225 0.2329,-1.38246 1.51947,-0.93908 0.38296,-3.07325 -1.30338,-2.4475 C 297.35758,283.41517 290,283.62639 290,282.81828 290,282.36823 289.12656,282 288.05902,282 c -1.06754,0 -2.2191,-0.45 -2.55902,-1 -0.33992,-0.55 -1.59488,-1 -2.7888,-1 -1.19392,0 -6.22986,-1.97908 -11.19098,-4.39795 C 266.5591,273.18318 260.475,270.40441 258,269.42701 c -2.475,-0.97741 -6.975,-2.87019 -10,-4.20619 -9.47269,-4.18364 -18.25885,-7.2878 -25,-8.83254 -20.43344,-4.68234 -19.11139,-4.52809 -25,-2.91689 -9.55546,2.6145 -10.1642,1.8318 -3.87874,-4.98712 7.62243,-8.26936 15.81633,-11.8987 30.60307,-13.55509 11.39714,-1.27669 29.61657,-0.60263 38.27567,1.41607 3.575,0.83344 10.775,2.26875 16,3.18956 10.90283,1.92144 34.86451,8.00999 39.42136,10.01679 6.35066,2.79677 22.58467,4.56469 41.54097,4.5239 25.53516,-0.055 30.93689,0.72439 47.3554,6.83222 14.35733,5.34106 17.20158,6.63416 25.3217,11.51218 15.67557,9.41681 20.16685,12.91706 27.64506,21.54496 7.85524,9.0629 17.692,22.68843 17.71281,24.53514 0.006,0.55 1.36475,3.025 3.01901,5.5 1.65425,2.475 3.48705,6.25205 4.07289,8.39345 0.58583,2.1414 2.472,6.8664 4.19148,10.5 3.12378,6.60114 3.12638,6.62088 3.17036,24.10655 0.0582,23.13236 -1.34612,32.75413 -5.7545,39.42783 -1.84277,2.78969 -5.07315,8.22217 -7.17863,12.07217 -4.05303,7.41121 -12.00726,15.79833 -22.28707,23.5 -5.20276,3.89792 -6.07977,5.03309 -6.55489,8.48439 -0.57774,4.19666 1.68729,19.4573 3.34865,22.56157 0.53647,1.00241 0.9754,2.82216 0.9754,4.04391 0,1.22174 1.125,3.6963 2.5,5.49902 3.16337,4.14739 3.26148,7.21919 0.25,7.8275 -4.06097,0.82031 -11.21637,1.30383 -12.95301,0.8753 z M 267,398.39763 c 0,-0.50179 2.53235,-3.83404 5.62744,-7.40499 6.42954,-7.41806 15.942,-13.27823 17.01497,-10.48211 0.76596,1.99604 -1.77198,4.78932 -7.28932,8.0227 -2.3942,1.40309 -4.35309,3.00507 -4.35309,3.55995 0,0.55488 -1.6875,1.70572 -3.75,2.55743 -2.0625,0.85171 -4.5375,2.24849 -5.5,3.10396 -0.9625,0.85547 -1.75,1.14485 -1.75,0.64306 z"
       style="fill:#44433a" />
    <path
       id="path11142"
       d="m 416.10158,491.09981 c -5.47973,-0.74727 -7.31742,-3.09884 -4.69025,-6.00183 1.37301,-1.51716 1.65724,-2.83682 1.14337,-5.30853 -0.37613,-1.8092 -0.92465,-5.19604 -1.21893,-7.52631 -0.49395,-3.91124 -0.32461,-4.31688 2.20327,-5.27798 1.50608,-0.57262 2.82201,-0.91603 2.92427,-0.76314 0.10226,0.15289 0.70201,3.16831 1.33279,6.70095 0.86795,4.86094 1.88337,7.18285 4.17538,9.5476 1.66568,1.71856 3.02852,4.02572 3.02852,5.12704 0,2.22547 -1.83214,4.48362 -3.45,4.2522 -0.5775,-0.0826 -3.02929,-0.42011 -5.44842,-0.75 z m 27.56509,-0.76648 c -1.44578,-1.44578 -0.5368,-4.26112 1.96393,-6.08277 l 2.63059,-1.91626 -2.13059,-9.95116 C 444.95877,466.90999 444,460.81488 444,458.83843 c 0,-5.82425 -2.06235,-6.58692 -7.97463,-2.94906 -2.76395,1.70068 -5.02537,2.67194 -5.02537,2.15835 0,-0.51359 2.67749,-4.037 5.94997,-7.82981 3.39069,-3.92982 5.88579,-7.74818 5.80074,-8.87717 -0.0821,-1.08963 0.65888,-3.68412 1.64657,-5.76553 1.3859,-2.92055 1.78918,-6.2143 1.76679,-14.42979 -0.0369,-13.54691 -0.43809,-16.89708 -2.49609,-20.84576 C 441.47266,396.08752 441.5904,392.08049 444,389 c 1.07554,-1.375 1.96553,-3.0625 1.97776,-3.75 0.0122,-0.6875 0.58474,-1.26431 1.27224,-1.2818 0.72542,-0.0185 0.46609,-0.6255 -0.61796,-1.4465 -1.79412,-1.35877 -1.76262,-1.50576 0.79686,-3.7182 1.63539,-1.41364 2.83119,-3.63535 3.09547,-5.75116 0.23685,-1.89621 1.11577,-3.83107 1.95314,-4.29969 0.83737,-0.46862 1.52249,-1.73824 1.52249,-2.82139 0,-1.60131 -0.46722,-1.8521 -2.5,-1.3419 -1.62812,0.40863 -2.5,0.20825 -2.5,-0.57457 0,-0.66112 0.9,-1.43738 2,-1.72504 1.1,-0.28766 2,-1.17209 2,-1.9654 0,-0.79331 -0.46971,-1.15209 -1.0438,-0.79728 C 450.83381,360.22075 448,358.32291 448,356.87756 448,356.3949 448.62252,356 449.38337,356 c 0.76085,0 1.63427,-0.95944 1.94092,-2.13208 0.40964,-1.56648 1.10352,-1.98931 2.61563,-1.59388 1.13195,0.29601 2.31009,0.13045 2.6181,-0.36792 0.94811,-1.53407 2.69226,-1.00071 2.06583,0.63173 -0.85695,2.23317 2.39076,3.16266 3.8894,1.11314 0.6812,-0.93159 2.28011,-1.558 3.60539,-1.41248 1.80186,0.19786 2.38136,-0.22521 2.38136,-1.73851 0,-1.7074 -0.55548,-1.9512 -3.79686,-1.66645 -2.1651,0.1902 -4.49127,-0.23956 -5.41263,-1 -1.26947,-1.04774 -1.70592,-1.06565 -2.03646,-0.0836 -0.2314,0.6875 -1.68073,1.25 -3.22075,1.25 -1.95903,0 -2.95713,0.60071 -3.32305,2 -0.62334,2.38366 -3.92451,2.65168 -5.73854,0.46591 -0.94123,-1.13411 -0.99679,-2.11184 -0.21312,-3.75 0.58303,-1.21875 1.33005,-3.05114 1.66005,-4.07198 0.44917,-1.38948 1.21071,-1.70279 3.02939,-1.24633 2.45081,0.61512 5.0011,-1.41456 2.72902,-2.17192 C 451.52967,340.00989 451,338.74583 451,337.41667 c 0,-3.55756 -2.87664,-2.85558 -4.43937,1.08333 -0.50571,1.27467 -0.96281,1.54667 -1.26039,0.75 -0.6473,-1.73295 -3.24086,-1.56833 -3.93861,0.25 -1.03332,2.69279 -2.92143,1.58578 -5.16236,-3.02675 C 434.98967,333.98354 434,331.48814 434,330.92794 c 0,-1.20343 6.86523,-0.17071 8.73727,1.31433 1.69174,1.34201 4.35828,0.17031 3.67351,-1.61417 -0.30552,-0.79618 -1.68885,-1.73206 -3.07406,-2.07972 -1.69067,-0.42434 -2.32432,-1.11143 -1.92764,-2.09025 0.32501,-0.80197 0.86406,-2.13313 1.19791,-2.95813 0.38963,-0.96286 0.0315,-1.5 -1,-1.5 -0.88385,0 -1.60699,0.45 -1.60699,1 0,0.55 -1.125,1 -2.5,1 -1.82854,0 -2.5,0.5341 -2.5,1.98857 0,2.94187 -3.07381,6.19506 -4.63177,4.90207 -0.68714,-0.57028 -1.01018,-1.66012 -0.71787,-2.42188 0.33985,-0.88564 -0.4027,-1.61948 -2.05944,-2.0353 C 426.16591,326.07581 425,325.15697 425,324.39159 425,323.62622 424.54035,323 423.97856,323 c -0.56179,0 -1.49051,-1.0125 -2.06383,-2.25 -0.57331,-1.2375 -2.56817,-3.375 -4.43302,-4.75 -3.02034,-2.22698 -3.35417,-2.93683 -3.05684,-6.5 0.26742,-3.20478 0.76402,-4.06466 2.49795,-4.32525 1.63033,-0.24502 2.01311,-0.80126 1.55173,-2.25493 -0.41436,-1.30553 -0.0435,-2.14799 1.14653,-2.60466 1.01421,-0.38918 1.92551,-0.17539 2.15228,0.50493 0.46486,1.39458 4.22664,1.60723 4.22664,0.23893 0,-0.51754 -0.4892,-1.24333 -1.08712,-1.61286 -0.59791,-0.36953 -0.86504,-1.52109 -0.59362,-2.55902 0.64149,-2.45306 -0.80244,-2.40396 -3.31926,0.11286 -2.35783,2.35783 -3.0171,2.4392 -5.43548,0.67083 -1.45045,-1.06059 -1.60047,-1.73514 -0.74247,-3.33832 1.4019,-2.61948 0.39851,-6.33251 -1.71128,-6.33251 -0.91078,0 -2.50416,1.575 -3.54084,3.5 -2.52398,4.68676 -4.8904,4.72517 -4.01618,0.0652 0.53354,-2.84403 -0.94051,-10.5652 -2.017,-10.5652 -0.16947,0 -1.59707,0.67223 -3.17244,1.49384 -4.20007,2.19049 -7.6869,1.85613 -10.36431,-0.99384 -3.03282,-3.22829 -4,-3.15575 -4,0.3 0,1.54 -0.55874,3.35874 -1.24164,4.04164 -0.98886,0.98886 -0.93932,1.42849 0.24333,2.1594 1.09636,0.67759 1.82218,0.27415 2.77357,-1.54164 1.38289,-2.63934 4.84793,-3.52578 3.8754,-0.99143 -0.70911,1.84791 1.03987,3.0142 2.64314,1.76255 2.14263,-1.67272 5.60421,-2.05833 6.69363,-0.74567 0.58353,0.70311 0.84903,2.98707 0.59001,5.07546 -0.49311,3.97572 1.17458,6.34123 4.51757,6.40789 2.6526,0.0529 4.79218,3.24945 4.20465,6.2818 -0.66277,3.42072 -2.55428,3.51306 -5.121,0.25 -1.08158,-1.375 -2.51197,-2.5 -3.17866,-2.5 -0.66669,0 -2.12375,-1.15889 -3.23791,-2.57532 -1.48292,-1.88523 -2.63239,-2.42307 -4.28966,-2.00712 -1.48639,0.37306 -2.46066,0.0555 -2.83679,-0.92468 C 391.32056,295.6718 389.90216,295 388.48364,295 c -1.49065,0 -3.59244,-1.09337 -4.98012,-2.5907 -1.32054,-1.42489 -2.86084,-2.3065 -3.42288,-1.95914 -0.56205,0.34737 -2.36277,-0.0618 -4.00161,-0.90929 C 374.44019,288.69339 372.04197,288 370.74966,288 368.43312,288 366,286.36072 366,284.8 c 0,-0.44 0.87344,-0.8 1.94098,-0.8 2.4793,0 3.63368,-1.83046 2.10457,-3.33713 -0.89873,-0.88554 -1.47408,-0.76528 -2.41249,0.50423 -0.67777,0.9169 -2.89747,1.97948 -4.93268,2.36129 -3.1849,0.59749 -3.70462,0.43491 -3.73079,-1.1671 -0.0293,-1.79388 -0.0689,-1.79511 -1.09286,-0.0341 -0.97214,1.67183 -1.20333,1.69216 -2.7196,0.23915 -0.91142,-0.8734 -2.73471,-2.40496 -4.05175,-3.40347 l -2.39461,-1.81546 2.33317,-2.17368 C 352.67036,273.65845 352.93308,273 351.91125,273 c -0.80624,0 -2.70452,-1.41157 -4.2184,-3.13683 -1.51389,-1.72526 -3.07589,-2.81346 -3.47111,-2.41824 -0.39523,0.39523 0.12275,1.3338 1.15107,2.08572 1.35288,0.98925 1.69352,2.06893 1.23241,3.90616 -0.3563,1.41958 -0.0901,3.41514 0.60372,4.52615 1.99259,3.19064 -0.36195,4.82203 -3.75285,2.60023 -2.28481,-1.49707 -2.55904,-2.2009 -2.00603,-5.14866 0.89923,-4.79334 -0.68,-4.24659 -3.38637,1.1724 -1.81767,3.63952 -2.70126,4.47961 -4.27791,4.0673 -1.0929,-0.2858 -3.05346,-0.0338 -4.35682,0.56009 -1.66724,0.75965 -2.74907,0.76632 -3.64935,0.0225 -0.90408,-0.74695 -2.30676,-0.70548 -4.77961,0.14132 -4.17552,1.42984 -7.55,0.16253 -9.38032,-3.52286 C 310.26915,275.13598 306,274.00872 306,276.37143 c 0,0.8308 0.45,1.78865 1,2.12857 1.65252,1.02131 1.12907,2.5 -0.88499,2.5 -1.03674,0 -2.62212,-1.125 -3.52305,-2.5 C 300.52319,275.34266 296,274.99958 296,278 c 0,1.1 -0.64571,2 -1.4349,2 -2.83363,0 -6.5651,-1.98008 -6.5651,-3.48372 0,-1.28743 -0.32552,-1.33148 -2.03051,-0.27475 -1.65314,1.02458 -2.1875,1.00626 -2.87516,-0.0985 -0.50197,-0.80647 -1.64295,-1.10364 -2.81236,-0.73249 -1.19472,0.37919 -2.91333,-0.10139 -4.37484,-1.22337 -1.32392,-1.01634 -4.56282,-2.4378 -7.19756,-3.15879 -2.63473,-0.721 -5.23806,-2.14732 -5.78518,-3.16962 C 262.37727,266.83642 261.44773,266 260.85874,266 258.83825,266 253,257.32789 253,254.32668 c 0,-3.1025 -1.68052,-0.20484 -1.80524,3.1127 -0.0966,2.56924 0.40079,3.80898 1.83639,4.57729 2.2521,1.20529 2.65881,3.98333 0.58316,3.98333 -0.76213,0 -2.54545,-0.60169 -3.96292,-1.33708 -2.02675,-1.05149 -2.31816,-1.59985 -1.36431,-2.56732 0.95275,-0.96635 0.78392,-1.53024 -0.78708,-2.62881 -1.1,-0.76922 -2.54351,-1.86393 -3.20779,-2.43268 -2.033,-1.74065 -3.03883,-1.15947 -2.53696,1.46589 0.62266,3.25722 -1.58571,3.31324 -5.02326,0.12742 -1.40804,-1.30492 -4.17375,-2.67531 -6.14603,-3.04532 -3.97098,-0.74496 -4.40085,-1.97366 -1.92645,-5.50637 1.56082,-2.22839 1.54836,-2.45056 -0.20956,-3.73599 -2.59824,-1.89988 -3.78854,-1.22804 -4.5669,2.57767 -0.36759,1.79734 -1.12303,3.72257 -1.67875,4.27829 -1.11706,1.11706 -8.59108,0.60709 -14.53781,-0.99194 -3.01914,-0.81183 -5.19657,-0.65284 -10.25,0.74843 -7.09232,1.96665 -8.15188,1.18906 -4.16649,-3.05771 7.25845,-7.73447 17.0225,-12.82795 27.75,-14.47594 8.23074,-1.26443 34.40317,-0.67893 40.65153,0.90941 3.21666,0.81768 10.12347,2.25339 15.34847,3.19046 13.32516,2.38979 36.96987,8.3196 40.23005,10.08923 1.50153,0.81502 5.10153,1.74879 8,2.07503 2.89847,0.32624 6.12381,1.03245 7.16743,1.56936 1.04361,0.5369 12.74361,1.11479 26,1.28418 13.25638,0.16939 26.38948,0.51633 29.18465,0.77096 4.67762,0.42612 16.5675,4.04609 18.91787,5.75969 0.55,0.40099 3.25,1.39472 6,2.20828 6.46515,1.91265 17.94602,7.35243 19.51981,9.24873 0.67379,0.81187 1.66335,1.47613 2.199,1.47613 1.68002,0 12.86556,7.3203 17.5722,11.5 7.80598,6.93204 26.20899,30.41831 26.20899,33.4484 0,0.62177 1.575,3.46924 3.5,6.3277 1.925,2.85846 3.5,6.03031 3.5,7.04855 0,1.01824 1.65756,5.52425 3.68346,10.01335 l 3.68347,8.162 0.0206,16.5 c 0.0309,24.68797 -1.51122,33.23469 -7.57813,42 -2.09375,3.025 -3.8074,5.83074 -3.80812,6.23498 -7.2e-4,0.40423 -1.41611,3.03431 -3.1453,5.84461 -3.12609,5.08055 -7.80086,9.87681 -17.35601,17.8071 -11.87635,9.85676 -10.85822,8.15694 -10.10677,16.87366 0.9597,11.13243 4.33645,23.03495 8.33917,29.39423 2.66594,4.2355 0.5485,5.84542 -7.68818,5.84542 -3.69099,0 -7.01089,-0.3 -7.37755,-0.66667 z m 10.79535,-87.27187 c 0.31902,-0.5162 -0.0892,-1.3131 -0.90728,-1.77089 -2.22843,-1.24709 -0.84097,-5.59868 1.58297,-4.96481 1.02426,0.26785 1.86229,0.0845 1.86229,-0.40756 0,-0.49201 1.8,-1.1824 4,-1.53419 4.50727,-0.72074 5.17483,-1.87233 1.60478,-2.76836 -2.87416,-0.72136 -9.12648,1.69553 -9.95211,3.84709 -0.32445,0.84549 -1.72902,1.53726 -3.12129,1.53726 -3.3207,0 -3.34077,2.6741 -0.0314,4.18195 1.375,0.6265 2.5,1.51685 2.5,1.97857 0,1.13663 1.74163,1.06656 2.46202,-0.0991 z m 8.48448,-15.9615 c 0.75118,-1.40359 0.66671,-2.03441 -0.3233,-2.41431 -0.7371,-0.28285 -1.62334,-2.24033 -1.96943,-4.34996 -0.76133,-4.64084 -4.75497,-10.00921 -6.59847,-8.86987 -2.06039,1.27339 -0.5288,7.37389 2.43698,9.70677 1.42832,1.12352 2.47561,2.78181 2.3273,3.68509 -0.31146,1.8969 0.8834,4.14232 2.20425,4.14232 0.49819,0 1.36339,-0.85502 1.92267,-1.90004 z M 326.48113,275.02085 c 1.52864,-1.68912 1.57321,-2.06277 0.30419,-2.54974 -0.8178,-0.31382 -2.08983,-0.4357 -2.82673,-0.27084 -0.73689,0.16485 -1.49208,-0.38419 -1.67819,-1.22009 -0.21316,-0.95736 0.87511,-1.979 2.9406,-2.76057 l 3.279,-1.24075 -2.91739,-1.51697 c -3.55315,-1.84755 -7.80987,-0.75618 -8.17204,2.09522 -0.13573,1.06859 -0.54943,2.91068 -0.91932,4.09353 -0.56515,1.80722 -0.18087,2.25862 2.40664,2.82693 1.69354,0.37197 3.33589,1.09168 3.64966,1.59937 0.87162,1.4103 1.96789,1.11598 3.93358,-1.05609 z m -54.76745,117.84562 c 1.21752,-1.30156 3.46752,-3.80019 5,-5.55252 2.98794,-3.41659 10.06554,-7.56843 11.44669,-6.71483 1.90804,1.17923 0.58772,3.53297 -3.41037,6.07965 -2.3375,1.48893 -5.375,3.71322 -6.75,4.94287 -1.375,1.22964 -3.85,2.54522 -5.5,2.9235 l -3,0.6878 2.21368,-2.36647 z"
       style="fill:#403e38" />
    <path
       id="path11140"
       d="m 411.60864,489.46578 c -1.50266,-1.50265 -1.47345,-1.82219 0.38218,-4.18124 2.39886,-3.04965 2.45516,-3.90579 0.50302,-7.64885 -1.99562,-3.82643 -1.94808,-9.2474 0.088,-10.0287 2.73233,-1.0485 3.41821,-0.6805 3.41821,1.83399 0,1.34254 0.39188,2.68318 0.87084,2.97919 0.47896,0.29602 1.15314,1.94974 1.49818,3.67494 0.34504,1.7252 2.00361,4.7042 3.68571,6.62001 1.84153,2.09738 2.9364,4.33903 2.75182,5.63408 -0.26619,1.86761 -1.04812,2.18982 -5.93873,2.44719 -4.16585,0.21922 -6.05577,-0.1272 -7.25918,-1.33061 z m 32.10601,0.91553 c -1.50118,-1.50117 -0.60929,-4.29125 1.9731,-6.17239 l 2.68776,-1.95789 -2.17804,-10.87552 c -1.19792,-5.98153 -2.29491,-12.44682 -2.43775,-14.36732 -0.33379,-4.48763 -2.37795,-4.90555 -7.66607,-1.56731 C 433.864,456.8484 431.7894,458 431.48342,458 c -0.81629,0 9.552,-12.35894 11.16022,-13.30292 0.84759,-0.49751 1.14533,-1.6897 0.78277,-3.13427 -0.35961,-1.43281 0.26691,-4.0015 1.62556,-6.66467 1.47673,-2.89464 2.25009,-6.30833 2.32936,-10.28207 0.0756,-3.78723 0.57401,-6.10065 1.37183,-6.3668 0.79659,-0.26573 1.16093,0.39231 1,1.80611 -0.41782,3.6708 2.05401,3.34188 3.65347,-0.48616 1.3941,-3.33655 2.78608,-4.12089 6.43106,-3.62373 0.91883,0.12533 1.13208,-0.46537 0.68105,-1.88644 -0.44474,-1.40127 -0.15034,-2.26319 0.91231,-2.67096 C 463.14039,410.73215 463.62429,407 462,407 c -0.55,0 -1,-0.45 -1,-1 0,-1.70828 4.84664,-1.09646 5.87531,0.74167 1.17207,2.09438 1.81129,1.60543 2.27691,-1.74167 0.28191,-2.02647 -0.0663,-2.48626 -1.83849,-2.42745 -1.91444,0.0635 -2.14383,-0.37163 -1.84495,-3.5 0.24243,-2.53736 0.80348,-3.53231 1.93627,-3.43366 0.91055,0.0793 1.59495,-0.6193 1.59495,-1.62803 0,-0.9718 1.0125,-2.45771 2.25,-3.30201 2.20396,-1.50369 2.21051,-1.56487 0.31978,-2.99034 -1.90028,-1.43267 -1.89863,-1.47215 0.10691,-2.54548 2.58564,-1.38379 2.57484,-6.55658 -0.0217,-10.38872 -1.80308,-2.66112 -1.79664,-2.77665 0.32057,-5.75 1.18834,-1.66887 2.57998,-3.03431 3.09252,-3.03431 1.27615,0 1.18309,-4.72673 -0.10877,-5.52514 -0.57237,-0.35375 -0.75435,-1.5453 -0.4044,-2.64791 0.44349,-1.39729 -0.0131,-2.4596 -1.50699,-3.50593 -1.69622,-1.18808 -1.8992,-1.7953 -0.97316,-2.91112 0.64357,-0.77544 1.82752,-1.4099 2.63101,-1.4099 2.25506,0 0.91721,-2.45885 -1.53411,-2.81955 -2.31287,-0.34033 -2.85217,-1.64184 -1.12311,-2.71046 0.62999,-0.38936 0.69416,-1.11148 0.16074,-1.80902 -0.48831,-0.63853 -0.81022,-2.8914 -0.71536,-5.00636 0.1083,-2.41474 -0.32354,-4.03573 -1.16074,-4.35699 -0.73326,-0.28138 -1.3332,-1.13845 -1.3332,-1.90461 0,-1.6501 -1.40936,-1.77948 -4.04116,-0.37098 -1.62716,0.87083 -2.00104,0.61193 -2.5272,-1.75 -1.25415,-5.62977 -1.61294,-6.26606 -4.49249,-7.96705 C 454.50384,319.2757 454.20999,318.01935 457,317.28975 462.2071,315.92806 456.38973,310 449.84636,310 c -2.81747,0 -3.77971,-1.30512 -1.84419,-2.50134 0.57061,-0.35266 0.73745,-2.27477 0.38745,-4.4636 -0.51875,-3.24405 -0.2849,-4.02074 1.49783,-4.97482 2.5558,-1.36783 2.86546,-3.5724 0.36255,-2.58114 -0.9625,0.3812 -2.425,0.8406 -3.25,1.0209 -0.825,0.1803 -2.28371,0.63825 -3.24157,1.01766 -2.30395,0.91261 -3.37043,-1.87904 -1.9276,-5.04572 1.46504,-3.21541 -0.17619,-4.1309 -3.5006,-1.95266 -2.1298,1.3955 -2.73219,1.45436 -3.44071,0.3362 -0.47239,-0.74552 -0.86579,-1.91798 -0.87421,-2.60548 C 434.00689,287.5625 433.55,287 433,287 c -0.55,0 -1,-0.64844 -1,-1.44098 0,-1.94676 -1.29231,-2.61443 -3.00798,-1.55409 -1.17614,0.7269 -1.08689,1.23276 0.53342,3.02318 l 1.94592,2.15022 -2.98568,-0.33917 c -2.26376,-0.25715 -3.06728,-0.9163 -3.32317,-2.72607 -0.18562,-1.3128 0.23544,-2.741 0.9357,-3.17378 1.92296,-1.18846 -0.81465,-4.19738 -2.80532,-3.08335 -2.06711,1.15682 -6.29289,0.19161 -6.29289,-1.43735 0,-1.88499 -3.42279,-3.59582 -4.67959,-2.33902 -1.77194,1.77194 -4.38094,-0.10603 -4.09029,-2.94421 0.21448,-2.09437 -0.20694,-2.70294 -2.05285,-2.96446 -1.2775,-0.181 -3.0775,6.6e-4 -4,0.40369 -1.56354,0.68308 -5.25912,0.62973 -6.00829,-0.0867 -0.18206,-0.17412 0.19009,-1.29028 0.827,-2.48036 1.4494,-2.70823 0.5069,-5.91039 -1.22876,-4.17473 C 395.12525,264.47475 393.565,265 392.3,265 c -2.50442,0 -2.92922,0.97078 -1.18713,2.71287 1.18338,1.18338 0.41754,3.28713 -1.19664,3.28713 -0.53115,0 -1.39784,-1.13653 -1.92597,-2.52563 -1.33724,-3.5172 -3.47378,-4.02579 -6.59572,-1.57008 C 378.56147,269.13279 376,269.65306 376,268 c 0,-0.55 -0.85186,-1 -1.89301,-1 -2.33572,0 -3.35857,-2.3146 -1.77885,-4.02532 0.9208,-0.99715 0.79693,-1.13711 -0.57814,-0.65324 -1.28257,0.45131 -1.75,0.09 -1.75,-1.35282 0,-2.10513 -2.43365,-2.61275 -4.9357,-1.02952 -1.00824,0.63799 -1.13667,1.30333 -0.43136,2.23468 1.13445,1.49805 1.64901,6.561 0.80551,7.92581 -0.30565,0.49456 -2.5817,-0.23189 -5.05788,-1.61432 -4.1253,-2.30314 -4.68309,-2.38679 -6.66386,-0.9994 -2.99287,2.09629 -5.42923,2.07759 -3.68154,-0.0282 1.77559,-2.13946 -0.2773,-4.33148 -2.40376,-2.56668 -2.26087,1.87636 -2.97275,-0.44035 -1.04117,-3.38832 1.57639,-2.40587 1.56688,-2.67153 -0.16415,-4.58428 -1.82927,-2.02133 -1.81082,-2.02905 4.11821,-1.72438 5.45238,0.28018 5.93053,0.4887 5.65785,2.46745 -0.35243,2.55745 1.50388,4.03256 3.08498,2.45146 0.81716,-0.81716 0.79401,-1.43173 -0.0871,-2.31287 -0.66,-0.66 -1.2,-1.56 -1.2,-2 0,-0.44 5.37764,-0.8 11.95031,-0.8 10.3147,0 12.09398,0.23952 13,1.75 0.99727,1.6626 1.10302,1.66097 2.11761,-0.0326 1.27184,-2.12296 4.43849,-1.72742 14.09841,1.76099 4.8638,1.75642 6.41015,2.79631 6.66324,4.48086 0.24307,1.61788 0.768,2.00733 2,1.48383 3.93574,-1.67238 14.05862,1.31076 12.5779,3.70661 -0.42953,0.695 0.0817,0.82979 1.47272,0.3883 1.91086,-0.60648 6.97684,1.76669 16.11981,7.55134 0.825,0.52197 3.52246,2.1779 5.99435,3.67984 5.06083,3.075 11.17562,8.88063 18.67501,17.7308 5.84825,6.90164 14.06673,18.67567 15.29984,21.91899 0.46269,1.21697 2.23391,4.40865 3.93603,7.09262 1.70212,2.68398 3.09477,5.67005 3.09477,6.63574 0,0.96568 1.63756,5.48027 3.63903,10.03242 3.61391,8.21951 3.64029,8.38033 3.82296,23.29844 0.12375,10.10637 -0.26921,16.77816 -1.20091,20.38934 -0.76166,2.95216 -1.16288,5.94596 -0.8916,6.6529 0.7955,2.07306 -2.0373,10.13388 -5.17658,14.73009 -1.59634,2.3372 -4.4303,7.12389 -6.29767,10.63708 -3.58113,6.73736 -15.40144,18.67142 -23.67687,23.90472 -2.38231,1.50655 -4.55294,3.76732 -4.89324,5.09646 -0.83871,3.2758 1.37002,20.44579 3.19064,24.80317 0.81633,1.95375 1.48424,4.42735 1.48424,5.49688 0,1.06952 1.13348,3.43066 2.51885,5.24697 1.50203,1.96928 2.26621,3.96074 1.89301,4.93328 -0.34421,0.89699 -0.69019,1.65952 -0.76885,1.69451 -1.2461,0.55422 -14.41165,0.83441 -14.92836,0.3177 z M 275.03596,391.25 c 0.0551,-2.67943 4.04878,-6.88761 8.13248,-8.5692 3.52332,-1.45083 4.83156,-1.31591 4.83156,0.49829 0,0.46516 -2.475,2.42899 -5.5,4.36406 -3.025,1.93507 -5.5,3.95448 -5.5,4.48758 0,0.5331 -0.45,0.96927 -1,0.96927 -0.55,0 -0.98382,-0.7875 -0.96404,-1.75 z M 338,269.12197 c 0,-1.03291 -0.91477,-2.49541 -2.03282,-3.25 -2.52408,-1.70353 -4.09906,-9.24354 -1.74187,-8.33901 0.82142,0.31521 2.08281,1.67425 2.80307,3.02008 0.72027,1.34583 1.90854,2.44696 2.6406,2.44696 1.80205,0 1.68707,-0.68783 -0.78305,-4.68457 -2.44805,-3.96102 -1.92152,-5.07076 1.78,-3.75161 3.64755,1.29992 5.09182,3.81822 3.3757,5.88602 -0.73832,0.88962 -1.44769,2.95604 -1.57639,4.59204 C 342.09698,269.72314 338,273.46673 338,269.12197 Z m -24.3775,-6.98445 c 0.99528,-4.97644 -6.74463,-8.95173 -11.56628,-5.94055 -1.62201,1.01295 -2.23485,0.8208 -3.98658,-1.25 -1.90918,-2.25694 -2.15144,-2.31106 -3.11948,-0.69697 -1.33381,2.22399 -3.5732,2.24601 -4.80369,0.0472 -0.80352,-1.43581 -1.20326,-1.495 -2.54969,-0.37756 -1.28516,1.06659 -1.89209,1.08013 -3.10998,0.0694 -0.83226,-0.69071 -1.39476,-1.98331 -1.25,-2.87244 0.21979,-1.34999 -0.80878,-1.6166 -6.2368,-1.6166 -6.26043,0 -6.50086,-0.0921 -6.52341,-2.5 -0.0183,-1.95595 -0.56236,-2.52494 -2.5,-2.61462 -1.36212,-0.063 -3.24254,-0.44042 -4.1787,-0.83861 C 261.74071,242.67175 260,243.59403 260,245.55902 260,246.47433 258.96724,247 257.16898,247 c -2.96045,0 -5.60368,-3.21156 -4.98383,-6.05544 0.43553,-1.99823 -3.16144,-1.30335 -5.60974,1.08372 -1.57971,1.54021 -2.11729,1.63616 -3,0.53548 -0.59147,-0.73753 -2.74983,-1.63403 -4.79635,-1.99222 -3.38986,-0.59331 -3.77762,-0.42547 -4.35785,1.88636 -0.3503,1.3957 -0.3775,3.21363 -0.0604,4.03986 0.79129,2.06208 -1.54069,1.90015 -3.56816,-0.24776 -2.63693,-2.79358 -4.28844,-3.95521 -6.72074,-4.72719 -2.10311,-0.6675 -2.22478,-0.4955 -1.61464,2.28244 0.74992,3.41438 -0.76143,5.0171 -2.9883,3.16896 -0.85604,-0.71045 -2.16081,-0.876 -3.2062,-0.4068 -0.9695,0.43514 -2.54212,0.87365 -3.49471,0.97447 -0.95259,0.10083 -2.40936,0.74549 -3.23726,1.4326 -0.82791,0.6871 -2.18602,0.98805 -3.01803,0.66878 C 204.55403,248.89164 204.54393,246 206.5,246 c 2.23262,0 1.81415,-2.10509 -0.54089,-2.72094 -1.12249,-0.29354 -1.87474,-1.03891 -1.67167,-1.65638 0.48165,-1.46455 4.71256,-2.08603 4.71256,-0.69223 0,0.58825 0.46973,1.06955 1.04384,1.06955 0.57411,0 0.91161,-0.74082 0.75,-1.64626 -0.16161,-0.90544 0.26866,-1.84294 0.95616,-2.08333 0.6875,-0.24039 1.25,0.31292 1.25,1.22959 0,0.91667 0.5625,1.47793 1.25,1.24725 0.6875,-0.23069 1.25232,-1.28069 1.25516,-2.33334 0.005,-1.70866 0.78227,-1.91391 7.25173,-1.91391 3.98561,0 7.24579,-0.23981 7.24484,-0.53292 -0.004,-1.26127 25.69743,-0.73218 30.44621,0.62675 2.72137,0.77877 9.24637,2.0941 14.5,2.92298 12.13746,1.91494 37.31996,8.12943 42.55206,10.50091 2.2,0.99716 6.3625,2.11833 9.25,2.49149 5.76296,0.74476 6.40021,1.71066 3,4.54723 -2.42499,2.02301 -4.75,2.51759 -4.75,1.01044 0,-0.51321 -1.41381,-0.89292 -3.14181,-0.84379 -2.68331,0.0763 -3.36215,0.65027 -4.65169,3.93312 -1.80793,4.60255 -4.4531,5.3268 -3.584,0.98131 z"
       style="fill:#383931" />
  </g>
</svg>
