<?xml version="1.0" encoding="UTF-8" standalone="no"?>
<svg
   xmlns:dc="http://purl.org/dc/elements/1.1/"
   xmlns:cc="http://creativecommons.org/ns#"
   xmlns:rdf="http://www.w3.org/1999/02/22-rdf-syntax-ns#"
   xmlns:svg="http://www.w3.org/2000/svg"
   xmlns="http://www.w3.org/2000/svg"
   viewBox="0 0 800 600"
   height="600"
   width="800"
   version="1.1"
   id="svg6962">
  <metadata
     id="metadata6968">
    <rdf:RDF>
      <cc:Work
         rdf:about="">
        <dc:format>image/svg+xml</dc:format>
        <dc:type
           rdf:resource="http://purl.org/dc/dcmitype/StillImage" />
        <dc:title></dc:title>
      </cc:Work>
    </rdf:RDF>
  </metadata>
  <defs
     id="defs6966" />
  <g
     id="g9396">
    <path
       id="path9426"
       d="m 416.5,495.91501 c -5.86398,-0.94959 -73.3244,-1.22618 -78.15248,-0.32043 -4.6425,0.87094 -13.06293,-1.35018 -14.86333,-3.92062 -2.2055,-3.14879 -1.81671,-7.01294 0.96889,-9.62989 l 2.45309,-2.30455 39.29691,0.0764 c 21.61331,0.042 40.58145,-0.17044 42.15144,-0.47217 2.62601,-0.50468 2.79601,-0.80056 2.12369,-3.69618 -0.40195,-1.73118 -0.84926,-6.11128 -0.99401,-9.73357 -0.38323,-9.5894 -2.10563,-12.30068 -8.66713,-13.64317 -7.97648,-1.63201 -25.63791,-8.07701 -29.70269,-10.83909 C 369.14612,440.09429 367.21275,439 366.818,439 c -1.16359,0 -10.06666,-6.08021 -13.318,-9.09531 -1.65,-1.53011 -4.20469,-3.23601 -5.6771,-3.79089 -1.57111,-0.59207 -3.82302,-2.9929 -5.45087,-5.81133 -1.52558,-2.64136 -4.29746,-6.60247 -6.15974,-8.80247 -4.12525,-4.87335 -8.83098,-16.35336 -10.1897,-24.85861 -0.55299,-3.46154 -1.44528,-7.60944 -1.98288,-9.21755 -0.53759,-1.60811 -0.92056,-3.59884 -0.85104,-4.42384 0.0695,-0.825 0.0382,-5.55 -0.0697,-10.5 -0.19462,-8.93422 -0.2192,-9.01462 -3.36288,-11 -5.10683,-3.22519 -9.75846,-10.06674 -9.74158,-14.32774 0.0306,-7.71973 5.30618,-17.90295 11.84518,-22.86421 C 331.98819,306.62338 338,299.11964 338,294.16228 c 0,-1.05456 0.63355,-2.44319 1.40789,-3.08583 0.77433,-0.64264 2.1814,-2.83524 3.12681,-4.87245 0.94541,-2.0372 4.47437,-8.429 7.84212,-14.204 9.41353,-16.14227 19.18011,-36.54568 22.23501,-46.45127 1.51832,-4.9232 3.80179,-10.90951 5.07438,-13.30292 1.27258,-2.3934 2.32148,-5.11533 2.33089,-6.04872 0.009,-0.9334 0.85614,-4.84709 1.88164,-8.69709 1.0255,-3.85 3.71634,-14.17385 5.97965,-22.94188 2.94538,-11.4104 4.78333,-16.66903 6.46596,-18.5 1.29297,-1.40697 4.55693,-6.05487 7.25325,-10.32868 4.71908,-7.47998 5.22026,-7.92668 13.4024,-11.94555 l 8.5,-4.17499 14.5,-0.0182 c 13.15069,-0.0165 15.17577,0.22536 21.76197,2.5995 12.24839,4.41521 21.4202,10.83995 28.03999,19.64171 8.35383,11.10733 8.87013,12.08498 11.2482,21.29918 3.24089,12.5573 3.85856,15.90705 3.90629,21.18468 0.0239,2.64866 0.54221,5.74749 1.15168,6.88629 0.60946,1.13881 1.23848,5.94672 1.39781,10.68426 0.35046,10.42058 0.35553,10.45282 5.59898,35.61371 0.68771,3.3 1.84544,6.88763 2.57273,7.97251 0.72729,1.08487 1.32235,3.16169 1.32235,4.61514 0,1.45345 0.94755,3.84725 2.10566,5.31955 2.16778,2.75588 8.89434,18.06224 8.89434,20.23916 0,2.06113 5.23261,13.73206 7.10791,15.85364 0.97231,1.1 2.28554,4.25 2.91829,7 0.63275,2.75 1.76771,7.025 2.52213,9.5 3.0026,9.85044 5.45167,21.51729 5.45167,25.9706 0,2.58271 0.50763,7.22353 1.12807,10.31294 3.12021,15.53666 -5.5209,49.69695 -16.76428,66.27307 -1.88642,2.78114 -6.20194,7.50614 -9.59006,10.5 -5.94578,5.25392 -8.51719,6.86814 -22.94933,14.40665 -3.67157,1.91782 -6.93643,3.90899 -7.25524,4.42483 -0.3188,0.51584 -2.48978,1.2456 -4.8244,1.6217 -2.33462,0.3761 -7.49899,1.54025 -11.47638,2.58701 -3.97739,1.04676 -8.58989,1.9032 -10.25,1.9032 -3.4844,0 -3.87024,1.68847 -1.62883,7.12788 0.76425,1.85466 1.71221,6.21715 2.10658,9.6944 0.7704,6.79295 1.49923,7.57914 6.95263,7.4999 1.67818,-0.0244 10.30256,-0.15542 19.16529,-0.2912 10.01283,-0.1534 16.87085,0.15816 18.11285,0.82286 2.56446,1.37246 4.67434,6.45147 3.89522,9.37675 -1.47588,5.54127 0.81161,5.26941 -44.33751,5.26941 -22.98153,0 -42.45961,0.27556 -43.28461,0.61235 -0.825,0.33679 -3.75,0.24799 -6.5,-0.19734 z m 29.89805,-16.75006 c 0.66552,-1.07683 -1.42546,-19.59126 -2.38859,-21.14965 -0.4616,-0.74689 -4.31767,-1.28474 -10.45003,-1.4576 -9.48088,-0.26725 -9.70251,-0.2224 -9.06498,1.83418 0.35943,1.15947 1.48557,6.03253 2.50253,10.82902 1.01696,4.7965 2.13523,9.184 2.48504,9.75 0.75637,1.22385 16.17031,1.40067 16.91603,0.19405 z"
       style="fill:#eeeed8" />
    <path
       id="path9424"
       d="m 413.9028,494.58095 c -1.35206,-1.37806 -20.66488,-1.85098 -59.09511,-1.44709 -24.8556,0.26123 -26.8339,0.1524 -28.75,-1.58165 -2.80494,-2.53844 -2.70394,-7.12344 0.19231,-8.72968 1.67873,-0.93101 12.27901,-1.28348 41.75,-1.38823 26.58981,-0.0945 40.39881,-0.50719 42.25,-1.2626 1.5125,-0.61721 2.74513,-1.24584 2.73918,-1.39695 -0.006,-0.15111 -0.66561,-2.43276 -1.46589,-5.07033 -0.80028,-2.63756 -1.20574,-6.04216 -0.90102,-7.56576 0.67629,-3.38147 -1.12758,-10.50111 -3.18084,-12.55438 -0.82815,-0.82814 -3.17876,-1.79197 -5.22358,-2.14185 -3.59262,-0.6147 -21.63859,-6.61874 -25.71785,-8.55654 -1.1,-0.52254 -4.475,-2.49627 -7.5,-4.38607 -3.025,-1.8898 -6.175,-3.73982 -7,-4.11117 -0.825,-0.37134 -3.525,-2.34167 -6,-4.37851 -2.475,-2.03685 -5.85484,-4.40326 -7.51076,-5.25871 -1.65592,-0.85545 -4.09345,-3.51197 -5.41673,-5.90339 -1.32328,-2.39142 -3.68636,-5.83237 -5.25128,-7.64655 -4.36691,-5.06247 -8.81916,-15.82092 -10.31059,-24.9146 -0.74085,-4.51721 -1.62128,-8.65689 -1.9565,-9.19929 -0.33522,-0.5424 -0.79972,-6.28906 -1.03221,-12.77036 -0.23573,-6.5714 -0.86482,-11.93154 -1.42214,-12.11731 -2.13511,-0.7117 -6.44508,-4.69391 -9.20743,-8.50722 -3.63229,-5.01424 -3.71096,-9.08619 -0.31423,-16.26627 2.76328,-5.84111 5.03299,-8.39189 16.2117,-18.21933 5.94273,-5.22438 7.40985,-7.14041 8.64042,-11.2842 0.81524,-2.74521 2.31138,-6.21341 3.32476,-7.7071 1.01338,-1.4937 2.38455,-3.84081 3.04705,-5.21581 0.6625,-1.375 3.19347,-5.875 5.62438,-10 8.9299,-15.15307 19.44038,-36.82361 23.04635,-47.51701 2.03699,-6.04064 4.51787,-12.55799 5.51306,-14.48299 0.99519,-1.925 2.32331,-6.2 2.95137,-9.5 0.62807,-3.3 2.20825,-9.6 3.51151,-14 2.49525,-8.42433 4.98315,-18.01929 6.59679,-25.44148 0.53109,-2.44281 1.83376,-5.36781 2.89483,-6.5 2.67497,-2.85425 6.60986,-8.39284 8.92219,-12.55852 2.81036,-5.06287 5.74778,-7.3896 13.63746,-10.80222 5.25949,-2.27495 9.2378,-3.19427 16,-3.69731 22.83421,-1.69863 41.58677,6.53687 54.87821,24.10069 4.71119,6.22555 7.13675,10.48778 8.18013,14.37424 0.81574,3.03853 2.16015,7.85007 2.98757,10.6923 1.44119,4.95056 2.57617,13.28434 4.47144,32.8323 0.47993,4.95 1.32551,11.475 1.87908,14.5 0.55357,3.025 1.75035,9.77259 2.65952,14.99465 0.90916,5.22206 2.50601,11.16663 3.54854,13.21016 1.04253,2.04353 1.89551,4.82391 1.89551,6.17863 0,1.35471 1.16383,3.84624 2.58629,5.53674 2.48629,2.95478 8.41371,16.74712 8.41371,19.5776 0,2.31126 5.21981,13.86719 7.33814,16.24561 1.09893,1.23386 2.57025,4.83386 3.2696,8 0.69934,3.16613 2.58777,10.93161 4.1965,17.25661 5.0713,19.93872 5.8023,39.53121 2.07023,55.48758 -2.64343,11.30194 -9.92958,29.36811 -14.61932,36.24896 -3.78118,5.54778 -13.36958,14.45316 -18.61385,17.28789 -1.72772,0.9339 -7.84692,4.26476 -13.59823,7.40191 -5.75131,3.13715 -12.50131,6.10556 -15,6.59647 -2.49869,0.4909 -7.15253,1.58659 -10.34186,2.43487 -3.18933,0.84828 -7.12683,1.54232 -8.75,1.54232 -2.58463,0 -2.95121,0.35748 -2.95121,2.87788 0,1.58283 0.6311,4.39533 1.40244,6.25 0.77135,1.85466 1.72688,6.07212 2.1234,9.37212 0.39652,3.3 1.19629,6.59355 1.77726,7.31899 0.82797,1.03388 5.46661,1.25004 21.459,1 l 20.4027,-0.31899 1.9176,2.36078 c 2.25526,2.77648 2.46044,6.01458 0.54693,8.63146 -1.21583,1.66276 -2.54311,1.83916 -11.75,1.56168 -17.27011,-0.52051 -67.94115,-0.1839 -74.87933,0.49742 -3.575,0.35106 -6.76874,0.36438 -7.0972,0.0296 z m 33.46789,-14.47363 c 1.06271,-0.88197 1.22635,-2.04253 0.62075,-4.40251 -0.45231,-1.76265 -1.12553,-6.28242 -1.49605,-10.04395 -0.95717,-9.71723 -1.88633,-10.41363 -13.98231,-10.47947 l -9.72122,-0.0529 0.55293,2.68576 c 0.30411,1.47717 1.25756,5.83576 2.11877,9.68576 0.86122,3.85 1.83948,8.44014 2.17392,10.20032 0.33445,1.76018 1.34033,3.42177 2.2353,3.69242 2.95838,0.89467 16.02792,-0.0654 17.49791,-1.28542 z M 390.24387,339.20058 c 4.92396,-4.92397 3.35001,-13.21884 -3.01273,-15.87736 -3.1702,-1.3246 -3.68037,-1.25 -7.74608,1.13267 -2.3938,1.40286 -4.60511,3.347 -4.91403,4.32031 -0.68964,2.17287 0.79565,7.60829 2.99723,10.96832 1.47952,2.25804 2.08438,2.43787 6.26996,1.86418 2.54787,-0.34923 5.4304,-1.43288 6.40565,-2.40812 z M 381,338.71023 c -2.69114,-1.35665 -3.84956,-5.26067 -2.08466,-7.02557 C 379.5119,331.0881 380,329.61314 380,328.40699 c 0,-3.01727 2.15672,-3.57351 6.14142,-1.58394 2.76074,1.37844 3.41261,2.32405 3.66211,5.31226 0.24665,2.95413 -0.20023,4.03157 -2.38486,5.75 -3.13701,2.46757 -3.15547,2.46995 -6.41867,0.82492 z m -31.25,-2.21364 c 1.2375,-1.43447 2.25,-3.20145 2.25,-3.92663 0,-2.35655 -3.02587,-9.96734 -4.27944,-10.76383 -2.43686,-1.54831 -11.3297,-0.89921 -12.93126,0.94387 -1.88293,2.16688 -2.98958,6.56451 -2.18172,8.66976 0.50556,1.31745 0.9191,1.18039 2.49911,-0.82827 1.04132,-1.32382 1.89331,-3.03347 1.89331,-3.79922 0,-3.76826 6.46522,-5.20178 9.2107,-2.04227 0.83638,0.9625 1.81992,3.00832 2.18565,4.54626 0.53806,2.26255 0.10121,3.36003 -2.28876,5.75 -3.4412,3.44119 -7.03581,3.79553 -9.61314,0.94761 -2.2278,-2.46169 -3.06167,-1.92226 -1.5101,0.97689 2.44219,4.56328 10.64719,4.29979 14.76565,-0.47417 z"
       style="fill:#d2d5ad" />
    <path
       id="path9422"
       d="m 411.87081,492.98751 c -1.44164,-0.84212 -22.14282,-2.53362 -27.37081,-2.23648 -11.77708,0.66936 -54.5337,0.75809 -56.27563,0.11678 -3.0214,-1.11236 -3.87568,-3.64507 -1.89691,-5.62384 1.40616,-1.40616 6.38096,-1.62644 40.88674,-1.81045 35.30228,-0.18825 39.64069,-0.38856 42.7858,-1.9754 1.925,-0.97125 3.6048,-1.83896 3.7329,-1.92825 0.12809,-0.0893 -0.25425,-1.70753 -0.84965,-3.5961 -0.59539,-1.88857 -1.21569,-6.62772 -1.37844,-10.53143 -0.16384,-3.93021 -0.99835,-8.45606 -1.86997,-10.14158 C 408.12032,452.33199 403.82642,450 399.94819,450 c -0.96434,0 -6.85969,-1.94374 -13.10077,-4.31943 C 375.8713,441.50248 363.22708,434.35162 356,428.235 c -1.925,-1.62921 -4.85484,-3.65447 -6.51076,-4.50057 -1.65592,-0.8461 -4.09724,-3.49497 -5.42516,-5.88639 -1.32792,-2.39142 -3.8854,-6.16366 -5.68329,-8.38275 C 334.41627,404.57198 329,391.45222 329,386.74234 c 0,-1.88346 -0.67013,-5.6335 -1.48918,-8.33341 -0.82216,-2.71018 -1.49402,-8.79897 -1.5,-13.59383 -0.0115,-9.2073 -1.10877,-13.8151 -3.2899,-13.8151 -1.41142,0 -6.32226,-4.85816 -9.0698,-8.97251 -4.45787,-6.67551 1.11091,-19.81088 11.73626,-27.68292 7.08981,-5.25265 14.26253,-13.47413 15.10609,-17.31483 0.37681,-1.7156 2.38234,-5.91297 4.45673,-9.3275 2.0744,-3.41452 5.29672,-9.04395 7.16072,-12.50985 16.69271,-31.03821 19.46955,-36.57826 21.14812,-42.19239 2.8357,-9.48429 5.71329,-17.30882 7.20006,-19.57792 0.78766,-1.20213 2.1623,-6.08241 3.05474,-10.84506 0.89244,-4.76265 2.34049,-10.32833 3.21789,-12.36819 0.87739,-2.03986 2.15336,-6.40883 2.83547,-9.70883 2.90394,-14.04901 4.82705,-20.10032 7.2097,-22.68623 1.3613,-1.47742 2.98089,-3.55832 3.59909,-4.62422 5.95584,-10.269 8.63944,-13.11597 15.70645,-16.66266 8.93502,-4.48417 18.09875,-5.83695 31.16222,-4.60026 15.89676,1.50491 30.08895,9.37041 39.69288,21.99831 6.61082,8.69235 8.54208,12.15901 9.51243,17.07506 0.37997,1.925 1.34066,5.54818 2.13488,8.0515 1.39658,4.40196 2.56753,13.06436 4.45386,32.9485 0.49567,5.225 1.33716,11.975 1.86997,15 2.83164,16.07657 5.03514,25.99686 6.3513,28.59396 0.81,1.59832 1.76977,4.54832 2.13283,6.55556 0.36306,2.00723 1.35288,4.22446 2.19959,4.92716 2.16249,1.79471 3.66278,5.0231 7.39986,15.92332 3.94201,11.49796 6.661,17.71858 9.11401,20.85145 1.01264,1.29329 2.13044,3.99329 2.484,6 0.35356,2.0067 1.97726,8.37355 3.60823,14.14855 3.4098,12.07359 5.23923,27.18365 5.00814,41.36449 -0.20123,12.34836 -3.56628,26.5996 -9.51884,40.31298 -7.39433,17.03491 -15.40859,25.44664 -33.1878,34.83379 -6.05,3.1943 -11.70629,6.40728 -12.56952,7.13994 -0.86324,0.73266 -4.01324,1.83125 -7,2.44131 -2.98677,0.61006 -7.23048,1.5501 -9.43048,2.08898 -2.2,0.53888 -6.25,1.28099 -9,1.64914 -4.27183,0.57189 -5.049,1.01587 -5.33649,3.04864 -0.18507,1.30859 0.34689,4.23359 1.18213,6.5 0.83524,2.2664 1.98044,7.22951 2.5449,11.02914 0.56445,3.79963 1.52228,7.39963 2.12851,8 0.74188,0.73472 7.588,1.00018 20.94058,0.812 22.19389,-0.31278 23.44096,0.0232 22.84437,6.15502 L 506.5,492.5 l -9,-0.23454 c -23.26918,-0.60639 -35.28657,-0.4521 -37.06274,0.47585 -1.29528,0.67672 -4.91973,0.68804 -10.93726,0.0342 -13.7377,-1.49276 -18.68793,-1.51107 -22.37212,-0.0828 -3.90093,1.51232 -12.87592,1.68574 -15.25707,0.29482 z m 32.09576,-10.68617 c 5.44789,-2.04131 6.06911,-2.80643 5.0299,-6.1951 -0.43959,-1.43343 -1.33464,-6.50613 -1.989,-11.27267 -1.42352,-10.36925 -1.69962,-10.55478 -15.50747,-10.42086 -10.58879,0.1027 -10.06161,-1.16234 -6.4957,15.58729 1.53556,7.21279 2.85869,11.04787 4.22633,12.25 2.55524,2.24601 8.82048,2.26784 14.73594,0.0513 z M 388.79837,340.87896 C 391.19389,339.97611 394,334.61011 394,330.93212 394,327.98753 387.79796,322 384.74788,322 c -2.64767,0 -8.44787,3.51428 -10.04597,6.08676 -1.47488,2.37412 0.0366,8.44901 2.96934,11.93439 2.69754,3.20585 4.52359,3.34662 11.12712,0.85781 z m -8.73531,-3.8159 c -1.65892,-1.65892 -1.7807,-2.41247 -0.84839,-5.25 0.59871,-1.82218 1.23121,-3.87556 1.40556,-4.56306 0.52959,-2.08827 4.31943,-1.40125 6.98733,1.26665 2.85008,2.85008 2.5773,5.80856 -0.80524,8.73335 -2.61192,2.25846 -4.34185,2.21047 -6.73926,-0.18694 z m -31.14964,1.15985 c 1.42262,-1.05796 2.73904,-2.95705 2.92539,-4.22021 0.46185,-3.13067 -1.75181,-10.68561 -3.57411,-12.19798 -2.19599,-1.82251 -11.91666,-1.58133 -13.8414,0.34341 -3.76006,3.76006 -2.35265,13.76293 2.48038,17.62872 2.14899,1.71892 8.75883,0.86368 12.00974,-1.55394 z m -12.52217,-3.74853 c -1.48738,-2.27003 -1.50016,-2.70013 -0.12629,-4.25 0.84071,-0.94841 1.69121,-2.62438 1.88999,-3.72438 0.55472,-3.06962 6.17346,-3.29691 8.24899,-0.33369 2.2322,3.18692 1.98922,6.1157 -0.71839,8.65938 -3.17018,2.97822 -7.21282,2.82542 -9.2943,-0.35131 z"
       style="fill:#f9e05a" />
    <path
       id="path9420"
       d="m 411.87081,492.98751 c -1.44164,-0.84212 -22.14282,-2.53362 -27.37081,-2.23648 -11.77708,0.66936 -54.5337,0.75809 -56.27563,0.11678 -3.0214,-1.11236 -3.87568,-3.64507 -1.89691,-5.62384 1.40616,-1.40616 6.38096,-1.62644 40.88674,-1.81045 35.30228,-0.18825 39.64069,-0.38856 42.7858,-1.9754 1.925,-0.97125 3.6048,-1.83896 3.7329,-1.92825 0.12809,-0.0893 -0.25425,-1.70753 -0.84965,-3.5961 -0.59539,-1.88857 -1.21569,-6.62772 -1.37844,-10.53143 -0.16384,-3.93021 -0.99835,-8.45606 -1.86997,-10.14158 C 408.12032,452.33199 403.82642,450 399.94819,450 c -0.96434,0 -6.85969,-1.94374 -13.10077,-4.31943 C 375.8713,441.50248 363.22708,434.35162 356,428.235 c -1.925,-1.62921 -4.85484,-3.65447 -6.51076,-4.50057 -1.65592,-0.8461 -4.09724,-3.49497 -5.42516,-5.88639 -1.32792,-2.39142 -3.8854,-6.16366 -5.68329,-8.38275 C 334.42444,404.58206 329,391.45557 329,386.76492 c 0,-1.87106 -0.71684,-5.81577 -1.59297,-8.76604 -1.0273,-3.45929 -1.51526,-8.40643 -1.37412,-13.9315 0.31396,-12.29024 0.25875,-12.6198 -2.14481,-12.80086 C 319.54164,350.93912 312,341.55373 312,336.47209 c 0,-3.73655 2.08477,-9.13196 5.55445,-14.37501 C 320.29988,317.94846 328.90167,311 331.292,311 c 2.69525,0 8.78526,-8.41739 9.21495,-12.73656 0.21875,-2.19878 2.08434,-6.67835 4.30061,-10.3264 2.15285,-3.54366 5.43936,-9.27875 7.30336,-12.74465 16.69271,-31.03821 19.46955,-36.57826 21.14812,-42.19239 2.8357,-9.48429 5.71329,-17.30882 7.20006,-19.57792 0.78766,-1.20213 2.1623,-6.08241 3.05474,-10.84506 0.89244,-4.76265 2.34049,-10.32833 3.21789,-12.36819 0.87739,-2.03986 2.15336,-6.40883 2.83547,-9.70883 2.90394,-14.04901 4.82705,-20.10032 7.2097,-22.68623 1.3613,-1.47742 2.98089,-3.55832 3.59909,-4.62422 5.95584,-10.269 8.63944,-13.11597 15.70645,-16.66266 8.93502,-4.48417 18.09875,-5.83695 31.16222,-4.60026 15.89676,1.50491 30.08895,9.37041 39.69288,21.99831 6.61082,8.69235 8.54208,12.15901 9.51243,17.07506 0.37997,1.925 1.34066,5.54818 2.13488,8.0515 1.39658,4.40196 2.56753,13.06436 4.45386,32.9485 0.49567,5.225 1.33716,11.975 1.86997,15 2.83164,16.07657 5.03514,25.99686 6.3513,28.59396 0.81,1.59832 1.76977,4.54832 2.13283,6.55556 0.36306,2.00723 1.35288,4.22446 2.19959,4.92716 2.16249,1.79471 3.66278,5.0231 7.39986,15.92332 3.94201,11.49796 6.661,17.71858 9.11401,20.85145 1.01264,1.29329 2.13044,3.99329 2.484,6 0.35356,2.0067 1.97726,8.37355 3.60823,14.14855 3.4098,12.07359 5.23923,27.18365 5.00814,41.36449 -0.20123,12.34836 -3.56628,26.5996 -9.51884,40.31298 -7.39433,17.03491 -15.40859,25.44664 -33.1878,34.83379 -6.05,3.1943 -11.70629,6.40728 -12.56952,7.13994 -0.86324,0.73266 -4.01324,1.83125 -7,2.44131 -2.98677,0.61006 -7.23048,1.5501 -9.43048,2.08898 -2.2,0.53888 -6.25,1.28099 -9,1.64914 -4.27183,0.57189 -5.049,1.01587 -5.33649,3.04864 -0.18507,1.30859 0.34689,4.23359 1.18213,6.5 0.83524,2.2664 1.98044,7.22951 2.5449,11.02914 0.56445,3.79963 1.52228,7.39963 2.12851,8 0.74188,0.73472 7.588,1.00018 20.94058,0.812 22.19389,-0.31278 23.44096,0.0232 22.84437,6.15502 L 506.5,492.5 l -9,-0.23454 c -23.26918,-0.60639 -35.28657,-0.4521 -37.06274,0.47585 -1.29528,0.67672 -4.91973,0.68804 -10.93726,0.0342 -13.7377,-1.49276 -18.68793,-1.51107 -22.37212,-0.0828 -3.90093,1.51232 -12.87592,1.68574 -15.25707,0.29482 z m 32.09576,-10.68617 c 5.44789,-2.04131 6.06911,-2.80643 5.0299,-6.1951 -0.43959,-1.43343 -1.33464,-6.50613 -1.989,-11.27267 -1.42352,-10.36925 -1.69962,-10.55478 -15.50747,-10.42086 -10.58879,0.1027 -10.06161,-1.16234 -6.4957,15.58729 1.53556,7.21279 2.85869,11.04787 4.22633,12.25 2.55524,2.24601 8.82048,2.26784 14.73594,0.0513 z M 388.84811,342.80026 c 2.52276,-0.76865 3.81154,-2.0407 5.22804,-5.16019 2.3914,-5.26646 2.38478,-7.37186 -0.0357,-11.34152 -4.36962,-7.16643 -12.13916,-7.90054 -18.64795,-1.76196 -3.41678,3.22243 -3.62462,3.75349 -3.06549,7.83276 1.54933,11.30364 5.49027,13.79183 16.52107,10.43091 z m -8.78505,-5.7372 c -1.65892,-1.65892 -1.7807,-2.41247 -0.84839,-5.25 0.59871,-1.82218 1.23121,-3.87556 1.40556,-4.56306 0.52959,-2.08827 4.31943,-1.40125 6.98733,1.26665 2.85008,2.85008 2.5773,5.80856 -0.80524,8.73335 -2.61192,2.25846 -4.34185,2.21047 -6.73926,-0.18694 z m -34.86985,4.76091 c 4.42422,-1.32553 8.80882,-5.88343 8.80276,-9.1507 -0.002,-1.1953 -0.80956,-4.42327 -1.79409,-7.17327 -1.50041,-4.19097 -2.35531,-5.18682 -5.28349,-6.15458 -4.22436,-1.39614 -11.16354,-0.33852 -13.87422,2.11461 -1.04416,0.94495 -2.18759,3.42941 -2.54097,5.52103 -1.0966,6.49074 4.72379,15.9182 9.88078,16.0042 0.48619,0.008 2.65034,-0.51447 4.80923,-1.16129 z m -8.80196,-7.34959 c -1.48738,-2.27003 -1.50016,-2.70013 -0.12629,-4.25 0.84071,-0.94841 1.69121,-2.62438 1.88999,-3.72438 0.55472,-3.06962 6.17346,-3.29691 8.24899,-0.33369 2.2322,3.18692 1.98922,6.1157 -0.71839,8.65938 -3.17018,2.97822 -7.21282,2.82542 -9.2943,-0.35131 z"
       style="fill:#f9d62a" />
    <path
       id="path9418"
       d="m 411.87081,492.98751 c -1.44164,-0.84212 -22.14282,-2.53362 -27.37081,-2.23648 -11.77708,0.66936 -54.5337,0.75809 -56.27563,0.11678 -3.0214,-1.11236 -3.87568,-3.64507 -1.89691,-5.62384 1.40616,-1.40616 6.38096,-1.62644 40.88674,-1.81045 35.30228,-0.18825 39.64069,-0.38856 42.7858,-1.9754 1.925,-0.97125 3.6048,-1.83896 3.7329,-1.92825 0.12809,-0.0893 -0.25425,-1.70753 -0.84965,-3.5961 -0.59539,-1.88857 -1.21569,-6.62772 -1.37844,-10.53143 -0.16384,-3.93021 -0.99835,-8.45606 -1.86997,-10.14158 C 408.12032,452.33199 403.82642,450 399.94819,450 c -0.96434,0 -6.85969,-1.94374 -13.10077,-4.31943 C 375.8713,441.50248 363.22708,434.35162 356,428.235 c -1.925,-1.62921 -4.85484,-3.65447 -6.51076,-4.50057 -1.65592,-0.8461 -4.09724,-3.49497 -5.42516,-5.88639 -1.32792,-2.39142 -3.8854,-6.16366 -5.68329,-8.38275 C 334.41627,404.57198 329,391.45222 329,386.74234 c 0,-1.88346 -0.67013,-5.6335 -1.48918,-8.33341 C 325.82862,372.8637 325.47628,358.44171 327,357.5 c 0.55,-0.33992 1,0.15852 1,1.10765 0,0.94913 0.26631,1.45937 0.5918,1.13388 0.32549,-0.32549 0.009,-2.31299 -0.70414,-4.41666 C 326.48559,351.18678 325,348.84276 325,350.76862 c 0,0.68272 -0.72762,0.91057 -1.75,0.548 -4.77469,-1.69329 -11.25,-10.23755 -11.25,-14.84453 0,-6.7974 5.54809,-16.19127 12.8527,-21.76183 5.31323,-4.05192 7.82636,-4.79695 6.61232,-1.96026 -0.41193,0.9625 -1.6108,4.225 -2.66414,7.25 -1.82504,5.24113 -1.83718,5.7824 -0.25789,11.5 4.48271,16.22905 7.67844,20.2253 21.85351,27.32778 8.41196,4.21485 8.81305,4.30939 15.37043,3.62278 8.85077,-0.92673 16.37201,-5.03046 24.81694,-13.54058 3.25425,-3.27936 4.45374,-5.54141 5.90452,-11.13496 2.41392,-9.30699 2.30814,-14.97346 -0.42097,-22.54994 C 391.63261,302.91327 377.71015,292 366.43831,292 c -4.53987,0 -5.58201,-1.9185 -1.12929,-2.07895 1.20504,-0.0434 1.6246,-0.30721 0.93236,-0.58621 -2.28135,-0.91944 -18.42262,4.8854 -21.77898,7.83232 -1.77454,1.55806 -3.54028,2.83284 -3.92387,2.83284 -1.47719,0 0.80442,-6.36011 4.41167,-12.29776 2.0744,-3.41452 5.29672,-9.04395 7.16072,-12.50985 16.69271,-31.03821 19.46955,-36.57826 21.14812,-42.19239 2.8357,-9.48429 5.71329,-17.30882 7.20006,-19.57792 0.78766,-1.20213 2.1623,-6.08241 3.05474,-10.84506 0.89244,-4.76265 2.34049,-10.32833 3.21789,-12.36819 0.87739,-2.03986 2.15336,-6.40883 2.83547,-9.70883 2.90394,-14.04901 4.82705,-20.10032 7.2097,-22.68623 1.3613,-1.47742 2.98089,-3.55832 3.59909,-4.62422 5.95584,-10.269 8.63944,-13.11597 15.70645,-16.66266 8.93502,-4.48417 18.09875,-5.83695 31.16222,-4.60026 15.89676,1.50491 30.08895,9.37041 39.69288,21.99831 6.61082,8.69235 8.54208,12.15901 9.51243,17.07506 0.37997,1.925 1.34066,5.54818 2.13488,8.0515 1.39658,4.40196 2.56753,13.06436 4.45386,32.9485 0.49567,5.225 1.33716,11.975 1.86997,15 2.83164,16.07657 5.03514,25.99686 6.3513,28.59396 0.81,1.59832 1.76977,4.54832 2.13283,6.55556 0.36306,2.00723 1.35288,4.22446 2.19959,4.92716 2.16249,1.79471 3.66278,5.0231 7.39986,15.92332 3.94201,11.49796 6.661,17.71858 9.11401,20.85145 1.01264,1.29329 2.13044,3.99329 2.484,6 0.35356,2.0067 1.97726,8.37355 3.60823,14.14855 3.4098,12.07359 5.23923,27.18365 5.00814,41.36449 -0.20123,12.34836 -3.56628,26.5996 -9.51884,40.31298 -7.39433,17.03491 -15.40859,25.44664 -33.1878,34.83379 -6.05,3.1943 -11.70629,6.40728 -12.56952,7.13994 -0.86324,0.73266 -4.01324,1.83125 -7,2.44131 -2.98677,0.61006 -7.23048,1.5501 -9.43048,2.08898 -2.2,0.53888 -6.25,1.28099 -9,1.64914 -4.27183,0.57189 -5.049,1.01587 -5.33649,3.04864 -0.18507,1.30859 0.34689,4.23359 1.18213,6.5 0.83524,2.2664 1.98044,7.22951 2.5449,11.02914 0.56445,3.79963 1.52228,7.39963 2.12851,8 0.74188,0.73472 7.588,1.00018 20.94058,0.812 22.19389,-0.31278 23.44096,0.0232 22.84437,6.15502 L 506.5,492.5 l -9,-0.23454 c -23.26918,-0.60639 -35.28657,-0.4521 -37.06274,0.47585 -1.29528,0.67672 -4.91973,0.68804 -10.93726,0.0342 -13.7377,-1.49276 -18.68793,-1.51107 -22.37212,-0.0828 -3.90093,1.51232 -12.87592,1.68574 -15.25707,0.29482 z m 32.09576,-10.68617 c 5.44789,-2.04131 6.06911,-2.80643 5.0299,-6.1951 -0.43959,-1.43343 -1.33464,-6.50613 -1.989,-11.27267 -1.42352,-10.36925 -1.69962,-10.55478 -15.50747,-10.42086 -10.58879,0.1027 -10.06161,-1.16234 -6.4957,15.58729 1.53556,7.21279 2.85869,11.04787 4.22633,12.25 2.55524,2.24601 8.82048,2.26784 14.73594,0.0513 z M 357.15735,352.00499 c -4.10373,-0.97023 -5.45264,-2.22647 -4.99167,-4.64877 0.29109,-1.52966 1.55052,-1.94418 7.15881,-2.35622 6.96826,-0.51195 10.53325,0.17807 11.88197,2.29981 1.10168,1.73312 0.98188,2.369 -0.77789,4.12876 -1.6864,1.68641 -7.50704,1.93922 -13.27122,0.57642 z m 22.90571,-14.94193 c -1.65892,-1.65892 -1.7807,-2.41247 -0.84839,-5.25 0.59871,-1.82218 1.23121,-3.87556 1.40556,-4.56306 0.52959,-2.08827 4.31943,-1.40125 6.98733,1.26665 2.85008,2.85008 2.5773,5.80856 -0.80524,8.73335 -2.61192,2.25846 -4.34185,2.21047 -6.73926,-0.18694 z m -43.67181,-2.58868 c -1.48738,-2.27003 -1.50016,-2.70013 -0.12629,-4.25 0.84071,-0.94841 1.69121,-2.62438 1.88999,-3.72438 0.55472,-3.06962 6.17346,-3.29691 8.24899,-0.33369 2.2322,3.18692 1.98922,6.1157 -0.71839,8.65938 -3.17018,2.97822 -7.21282,2.82542 -9.2943,-0.35131 z"
       style="fill:#b1af93" />
    <path
       id="path9416"
       d="m 411.5,491.80505 c -2.7269,-1.54632 -3.46671,-2.82899 -3.48469,-6.04163 -0.0122,-2.17565 0.68453,-3.02899 3.39897,-4.16316 3.34959,-1.39954 3.39531,-1.49926 2.41338,-5.26342 -0.55049,-2.11026 -1.15375,-7.11347 -1.34057,-11.11825 -0.4486,-9.61635 -2.53458,-13.27998 -8.53219,-14.98517 -9.28026,-2.63849 -20.61954,-6.59816 -24.9549,-8.71423 -9.8375,-4.80165 -18.72043,-9.98041 -23.00429,-13.41152 -2.47736,-1.98422 -5.40236,-4.09989 -6.5,-4.7015 -1.09764,-0.6016 -2.98753,-2.6266 -4.19976,-4.5 -1.21223,-1.87339 -3.91223,-5.64188 -6,-8.37442 -5.13622,-6.72245 -9.13979,-16.50477 -10.39527,-25.39982 -0.57198,-4.05243 -1.45862,-8.46923 -1.97032,-9.8151 C 325.71058,372.10857 325.7596,359.91938 327,358 c 0.81102,-1.25497 0.97188,-1.18691 0.98469,0.41667 0.008,1.05416 0.27189,1.66008 0.58549,1.34648 0.87425,-0.87424 -2.21951,-9.24625 -3.46925,-9.38815 -0.60551,-0.0688 -1.76547,-0.18125 -2.57768,-0.25 -0.81221,-0.0688 -3.28721,-2.41541 -5.5,-5.2148 -4.83948,-6.12241 -5.15094,-9.65031 -1.52805,-17.30846 2.66065,-5.62416 4.44612,-7.69261 11.38867,-13.19368 4.71294,-3.7344 5.96379,-3.86044 4.11992,-0.41514 -0.63704,1.19032 -1.81863,4.38795 -2.62576,7.10584 -1.31663,4.43357 -1.29701,5.53069 0.19088,10.67143 4.70155,16.24411 7.72422,19.99104 21.82759,27.05759 8.41196,4.21485 8.81305,4.30939 15.37043,3.62278 8.85077,-0.92673 16.37201,-5.03046 24.81694,-13.54058 3.25425,-3.27936 4.45374,-5.54141 5.90452,-11.13496 2.41392,-9.30699 2.30814,-14.97346 -0.42097,-22.54994 C 391.63261,302.91327 377.71015,292 366.43831,292 c -4.53987,0 -5.58201,-1.9185 -1.12929,-2.07895 1.20504,-0.0434 1.6246,-0.30721 0.93236,-0.58621 -2.28135,-0.91944 -18.42262,4.8854 -21.77898,7.83232 -1.77454,1.55806 -3.55331,2.83284 -3.95282,2.83284 -1.56572,0 0.87944,-5.77323 7.04436,-16.63233 C 351.09927,277.1228 354,271.61546 354,271.12913 c 0,-0.48633 0.57328,-1.36002 1.27395,-1.94152 2.25983,-1.8755 17.43896,-33.44696 19.80244,-41.18761 1.2595,-4.125 3.51244,-10.2 5.00653,-13.5 1.4941,-3.3 3.23856,-9.11634 3.87659,-12.92519 0.63803,-3.80885 1.84132,-8.53385 2.67398,-10.5 0.83267,-1.96615 2.37809,-7.39981 3.43427,-12.07481 3.31427,-14.67003 4.84389,-19.2946 7.25581,-21.93687 1.28683,-1.40972 4.46481,-5.84809 7.0622,-9.86305 4.43029,-6.84822 5.18862,-7.51233 12.25546,-10.73279 23.18218,-10.56446 54.24445,-2.58343 69.6602,17.89826 6.96901,9.25917 8.00191,11.35915 10.64108,21.63445 2.10157,8.18218 3.01757,14.50356 5.07169,35 1.60921,16.0571 6.31263,40.91621 8.51282,44.99303 0.74413,1.37884 1.61377,4.13269 1.93253,6.11968 0.31876,1.98699 1.40844,4.36283 2.4215,5.27964 1.01306,0.91681 2.62468,3.56609 3.58138,5.88729 0.9567,2.3212 2.36903,5.69813 3.13851,7.50429 0.76948,1.80616 1.39906,3.9397 1.39906,4.7412 0,2.01768 5.95924,15.24375 8.72498,19.36442 1.25126,1.86425 2.27502,4.44237 2.27502,5.72916 0,1.28678 1.40389,7.18649 3.11976,13.11045 5.26932,18.1921 6.79245,44.53979 3.36857,58.27084 -0.89143,3.575 -2.0352,8.15165 -2.5417,10.17032 -1.44758,5.76942 -8.39778,21.1716 -11.75654,26.05339 -6.68316,9.71364 -14.72259,16.08209 -29.69009,23.51907 -3.85,1.91297 -7.70629,4.09966 -8.56952,4.85933 -0.86324,0.75966 -4.01324,1.88034 -7,2.4904 -2.98677,0.61006 -7.23048,1.55998 -9.43048,2.11093 -2.2,0.55095 -6.39329,1.224 -9.31842,1.49566 -2.92513,0.27166 -5.51926,1.0173 -5.76472,1.65696 -0.24546,0.63967 0.0315,3.40874 0.61552,6.15349 0.584,2.74475 1.97486,9.26545 3.09081,14.49045 3.64927,17.08628 3.10484,18.13862 -8.95083,17.30089 -8.14091,-0.5657 -10.51265,-1.94403 -9.9601,-5.78824 0.24029,-1.67178 3.39705,-3.89365 8.18481,-5.76084 0.50067,-0.19526 0.0958,-5.76494 -0.91629,-12.60464 -1.52006,-10.27268 -2.1458,-12.43271 -3.8687,-13.35478 -1.13043,-0.60499 -6.6755,-1.24194 -12.32237,-1.41544 -10.09103,-0.31006 -10.27726,-0.27474 -10.8634,2.06065 -0.32801,1.30687 -0.15071,3.20884 0.39399,4.22662 0.54469,1.01777 1.7563,6.12219 2.69245,11.34314 0.93616,5.22095 2.32876,10.48931 3.09468,11.70746 2.06366,3.28214 1.71531,6.94572 -0.82994,8.72848 -2.61865,1.83417 -12.2776,2.06289 -15.27749,0.36175 z M 357.15735,352.00499 c -4.10373,-0.97023 -5.45264,-2.22647 -4.99167,-4.64877 0.29109,-1.52966 1.55052,-1.94418 7.15881,-2.35622 6.96826,-0.51195 10.53325,0.17807 11.88197,2.29981 1.10168,1.73312 0.98188,2.369 -0.77789,4.12876 -1.6864,1.68641 -7.50704,1.93922 -13.27122,0.57642 z m 23.52004,-15.47045 c -1.24059,-1.2406 -1.26767,-2.04081 -0.17643,-5.215 1.53687,-4.47048 2.73983,-5.04701 6.03108,-2.8905 2.9864,1.95676 3.16661,4.87231 0.46796,7.57096 -2.37311,2.37311 -4.31948,2.53766 -6.32261,0.53454 z M 338,335 c -2.39298,-2.39298 -2.48864,-3.34957 -0.5,-5 0.825,-0.68469 1.5,-2.08979 1.5,-3.12244 C 339,325.463 339.73112,325 341.96482,325 c 5.29334,0 6.8478,6.42903 2.40032,9.92742 -3.26217,2.56602 -3.86482,2.5729 -6.36514,0.0726 z"
       style="fill:#9dd352" />
    <path
       id="path9414"
       d="m 411.5,491.80505 c -2.7269,-1.54632 -3.46671,-2.82899 -3.48469,-6.04163 -0.0122,-2.17565 0.68453,-3.02899 3.39897,-4.16316 3.34959,-1.39954 3.39531,-1.49926 2.41338,-5.26342 -0.55049,-2.11026 -1.15203,-7.05423 -1.33676,-10.9866 -0.34983,-7.44694 -2.26709,-12.62491 -5.26966,-14.23184 -0.96693,-0.51748 -3.54977,-1.27421 -5.73965,-1.68162 -13.03265,-2.42459 -33.56963,-12.8161 -44.99968,-22.76938 -2.20994,-1.92442 -5.22576,-4.0492 -6.70181,-4.72173 -1.47604,-0.67253 -3.43945,-2.84793 -4.36313,-4.83423 -0.92368,-1.98629 -3.22123,-5.51873 -5.10566,-7.84987 -4.75367,-5.88052 -9.21991,-16.18894 -9.74018,-22.48106 -0.24014,-2.90428 -0.87844,-6.7185 -1.41845,-8.47604 -1.78089,-5.79622 -2.48887,-16.19446 -1.20772,-17.73815 0.91208,-1.09899 0.8482,-2.4005 -0.2819,-5.74365 -0.80366,-2.37747 -1.95662,-4.37892 -2.56213,-4.44767 -0.60551,-0.0688 -1.76547,-0.18125 -2.57768,-0.25 -0.81221,-0.0688 -3.28721,-2.41541 -5.5,-5.2148 C 314.07534,341.18081 313,338.89237 313,336.34828 c 0,-4.07556 4.02296,-13.07937 7.2452,-16.21551 4.29891,-4.18406 9.8245,-8.3964 10.33907,-7.88183 0.2844,0.2844 -0.43662,3.46918 -1.60228,7.07728 -2.05082,6.34798 -2.06495,6.74797 -0.43703,12.36598 4.73379,16.33647 7.73133,20.05859 21.85154,27.13358 8.41196,4.21485 8.81305,4.30939 15.37043,3.62278 8.85077,-0.92673 16.37201,-5.03046 24.81694,-13.54058 3.25425,-3.27936 4.45374,-5.54141 5.90452,-11.13496 2.41392,-9.30699 2.30814,-14.97346 -0.42097,-22.54994 C 391.60437,302.83487 377.71615,292 366.29733,292 c -4.61886,0 -5.01735,-1.18299 -0.79733,-2.36702 1.1,-0.30863 0.65,-0.33815 -1,-0.0656 -1.65,0.27256 -4.96712,0.77108 -7.37139,1.10782 -2.40426,0.33674 -6.36557,1.67258 -8.80291,2.96852 -2.43734,1.29595 -4.63272,2.35627 -4.87861,2.35627 -1.16444,0 -0.20727,-2.88866 2.06538,-6.23316 1.38185,-2.03358 4.20352,-6.97554 6.27037,-10.98213 2.06685,-4.00659 4.9205,-9.08471 6.34144,-11.28471 1.42095,-2.2 2.93332,-5.125 3.36082,-6.5 0.42751,-1.375 1.56678,-3.625 2.5317,-5 0.96493,-1.375 2.48089,-4.075 3.3688,-6 0.88791,-1.925 2.73939,-5.48328 4.11439,-7.90728 1.37501,-2.424 2.50001,-5.21533 2.50001,-6.20294 0,-1.7044 0.60556,-3.47001 3.56342,-10.38977 0.70529,-1.65 1.61067,-4.35 2.01196,-6 0.40128,-1.65 1.56098,-4.07319 2.57711,-5.38486 1.01613,-1.31167 1.84751,-3.44271 1.84751,-4.73565 0,-3.12865 1.77288,-10.30001 4.68329,-18.94408 1.30824,-3.88553 2.75738,-9.28553 3.22032,-12 2.1842,-12.80725 4.71715,-20.18027 7.20394,-20.96954 1.04085,-0.33036 1.89245,-1.1579 1.89245,-1.83898 0,-2.80624 11.72156,-16.60693 14.11514,-16.61885 0.88833,-0.004 2.73938,-0.89236 4.11344,-1.9732 3.72859,-2.93291 11.02449,-4.25144 22.95497,-4.14845 13.81131,0.11922 20.6549,2.33818 33.48582,10.85743 5.03157,3.34077 14.19156,14.17899 17.57599,20.79614 0.83268,1.62802 2.4964,6.78504 3.69715,11.46004 2.10157,8.18218 3.01757,14.50356 5.07169,35 1.60921,16.0571 6.31263,40.91621 8.51282,44.99303 0.74413,1.37884 1.61377,4.13269 1.93253,6.11968 0.31876,1.98699 1.40844,4.36283 2.4215,5.27964 1.01306,0.91681 2.62468,3.56609 3.58138,5.88729 0.9567,2.3212 2.36903,5.69813 3.13851,7.50429 0.76948,1.80616 1.39906,3.9397 1.39906,4.7412 0,2.01768 5.95924,15.24375 8.72498,19.36442 1.25126,1.86425 2.27502,4.44237 2.27502,5.72916 0,1.28678 1.40389,7.18649 3.11976,13.11045 5.26932,18.1921 6.79245,44.53979 3.36857,58.27084 -0.89143,3.575 -2.0352,8.15165 -2.5417,10.17032 -1.44758,5.76942 -8.39778,21.1716 -11.75654,26.05339 -6.68316,9.71364 -14.72259,16.08209 -29.69009,23.51907 -3.85,1.91297 -7.70629,4.09966 -8.56952,4.85933 -0.86324,0.75966 -4.01324,1.88034 -7,2.4904 -2.98677,0.61006 -7.23048,1.55998 -9.43048,2.11093 -2.2,0.55095 -6.39329,1.224 -9.31842,1.49566 -2.92513,0.27166 -5.51926,1.0173 -5.76472,1.65696 -0.24546,0.63967 0.0315,3.40874 0.61552,6.15349 0.584,2.74475 1.97486,9.26545 3.09081,14.49045 3.64927,17.08628 3.10484,18.13862 -8.95083,17.30089 -8.14091,-0.5657 -10.51265,-1.94403 -9.9601,-5.78824 0.24029,-1.67178 3.39705,-3.89365 8.18481,-5.76084 0.50067,-0.19526 0.0958,-5.76494 -0.91629,-12.60464 -1.52006,-10.27268 -2.1458,-12.43271 -3.8687,-13.35478 -1.13043,-0.60499 -6.6755,-1.24194 -12.32237,-1.41544 -10.09103,-0.31006 -10.27726,-0.27474 -10.8634,2.06065 -0.32801,1.30687 -0.15071,3.20884 0.39399,4.22662 0.54469,1.01777 1.7563,6.12219 2.69245,11.34314 0.93616,5.22095 2.32876,10.48931 3.09468,11.70746 2.06366,3.28214 1.71531,6.94572 -0.82994,8.72848 -2.61865,1.83417 -12.2776,2.06289 -15.27749,0.36175 z m 28,-75.49635 c 3.3,-0.87383 6.24337,-1.96251 6.54082,-2.4193 0.42329,-0.65003 8.30915,-3.8894 9.46828,-3.8894 0.1417,0 0.59225,1.0125 1.00122,2.25 l 0.74358,2.25 0.45852,-2.37148 c 0.53705,-2.77767 5.04284,-7.05143 7.48221,-7.09692 0.93205,-0.0174 3.8594,-2.1691 6.50524,-4.7816 2.64583,-2.6125 6.25459,-5.5073 8.01947,-6.43289 1.99003,-1.04367 3.47491,-2.75292 3.9093,-4.5 C 484.01387,387.7677 485.1365,385.375 486.12337,384 488.64681,380.4841 492,367.08556 492,360.51838 492,357.48327 491.78841,355 491.52979,355 c -0.25862,0 -3.78639,2.25 -7.83949,5 -4.05311,2.75 -7.84683,5 -8.4305,5 -0.58366,0 -3.46839,1.1206 -6.4105,2.49023 -3.43938,1.60112 -7.13665,2.49372 -10.3553,2.5 l -5.00599,0.01 -4.99401,10.56806 c -4.27225,9.04073 -5.99825,11.51876 -11.94272,17.1463 -7.22728,6.84195 -13.28476,10.2377 -22.43746,12.57819 l -5.38618,1.37733 2.98795,2.1276 c 3.59594,2.56054 11.40599,4.46109 14.8156,3.60534 1.61876,-0.40629 2.46881,-0.19783 2.46881,0.6054 0,0.80164 0.77765,0.9942 2.25,0.55715 1.2375,-0.36734 4.95,-1.38284 8.25,-2.25667 z m 32.59943,-65.61488 c 5.59241,-2.68492 7.46166,-4.30847 12.25,-10.63979 5.90389,-7.80635 7.04466,-11.83061 4.24509,-14.97529 -0.77302,-0.86831 -1.56052,-3.82874 -1.75,-6.57874 -0.28239,-4.09834 -0.94885,-5.60061 -3.69569,-8.33059 -3.31748,-3.29709 -3.59845,-4.84327 -1.69844,-9.34645 0.56842,-1.34718 0.28167,-1.56565 -1.45785,-1.11076 -1.70905,0.44693 -2.10682,0.16811 -1.88734,-1.32296 C 478.46472,295.94678 477.13041,292 475.94516,292 c -2.04074,0 -6.27321,-8.5382 -6.43835,-12.98814 -0.17381,-4.68331 -2.05836,-11.61729 -3.73087,-13.72727 C 465.24232,264.6114 465.11922,262.25382 465.5,260 c 0.41386,-2.4496 0.26259,-4.58113 -0.38006,-5.35548 -0.58714,-0.70746 -1.05951,-2.6044 -1.04971,-4.21541 0.01,-1.61101 0.009,-3.82911 -0.003,-4.92911 -0.0301,-2.92426 0.41555,-6.50093 1.33955,-10.74964 0.69844,-3.21159 0.50229,-4.00324 -1.367,-5.51689 -1.83009,-1.48192 -2.19899,-2.85784 -2.28489,-8.52204 -0.0649,-4.28026 -0.58832,-7.15805 -1.42877,-7.85556 C 459.59685,212.25045 459,210.40083 459,208.74559 c 0,-1.65524 -0.84198,-4.41264 -1.87108,-6.12756 -1.02909,-1.71491 -2.14707,-5.26712 -2.48439,-7.89378 -0.53727,-4.18351 -1.45233,-5.64956 -7.37893,-11.82206 -3.72108,-3.87547 -7.12546,-7.68888 -7.56529,-8.47425 C 439.26048,173.64257 438.24798,173 437.45031,173 436.65264,173 436,172.175 436,171.16667 c 0,-3.41966 -1.29988,-3.15342 -6.56488,1.34461 -2.88976,2.4688 -5.70261,4.48872 -6.25077,4.48872 -0.54817,0 -1.31099,2.3625 -1.69516,5.25 -0.42133,3.16683 -1.84734,7.0044 -3.59384,9.67144 -1.90297,2.90601 -2.89535,5.71665 -2.89535,8.20031 0,2.38409 -0.57589,4.10115 -1.56024,4.65203 -1.03006,0.57645 -1.58076,2.37732 -1.62062,5.29969 -0.0669,4.9062 -1.32863,9.00535 -3.11088,10.10683 -0.64164,0.39656 -1.03292,2.27277 -0.86952,4.16936 0.1634,1.8966 -0.18347,3.74536 -0.77082,4.10837 -0.58736,0.363 -1.06792,1.47276 -1.06792,2.46613 0,0.99337 -0.85618,2.89458 -1.90263,4.22492 -1.26663,1.61027 -1.72556,3.34508 -1.37291,5.18983 0.29134,1.52407 -0.15412,4.4338 -0.98991,6.46606 -0.83579,2.03227 -2.1128,5.72003 -2.83779,8.19503 -1.90758,6.51212 -8.01017,19.3368 -9.99279,21 -0.32781,0.275 -0.88098,1.625 -1.22927,3 -0.34828,1.375 -1.53595,3.9625 -2.63927,5.75 -1.54998,2.51114 -2.74823,3.28406 -5.27073,3.39983 l -3.2647,0.14983 3,0.41038 c 4.17609,0.57126 16.48023,4.72906 21.35665,7.21683 2.23405,1.13972 5.76773,3.91647 7.85263,6.17054 3.69298,3.99263 8.3126,7.36504 6.85238,5.00236 -1.28031,-2.07159 3.61172,-1.1305 12.81436,2.46512 11.07127,4.32572 16.37084,9.3357 21.92581,20.72768 3.06281,6.28112 3.70052,8.66846 3.71182,13.89576 0.0226,10.4458 0.33542,10.95068 6.35778,10.26111 2.82071,-0.32298 8.09831,-2.01301 11.728,-3.75562 z m -114.68672,1.3634 C 353.15585,351.03955 352,350.1834 352,348.04797 352,345.60853 353.91301,345 361.58179,345 c 5.06034,0 6.83654,0.41833 8.39553,1.97732 2.67754,2.67754 1.65425,4.6562 -2.78787,5.39066 -4.34152,0.71782 -5.64789,0.6763 -9.77674,-0.31076 z m 23.26468,-15.52268 c -1.24059,-1.2406 -1.26767,-2.04081 -0.17643,-5.215 1.53687,-4.47048 2.73983,-5.04701 6.03108,-2.8905 2.9864,1.95676 3.16661,4.87231 0.46796,7.57096 -2.37311,2.37311 -4.31948,2.53766 -6.32261,0.53454 z M 338,335 c -2.39298,-2.39298 -2.48864,-3.34957 -0.5,-5 0.825,-0.68469 1.5,-2.08979 1.5,-3.12244 C 339,325.463 339.73112,325 341.96482,325 c 5.29334,0 6.8478,6.42903 2.40032,9.92742 -3.26217,2.56602 -3.86482,2.5729 -6.36514,0.0726 z"
       style="fill:#f9ba04" />
    <path
       id="path9412"
       d="m 411.5,491.80505 c -2.7269,-1.54632 -3.46671,-2.82899 -3.48469,-6.04163 -0.0122,-2.17565 0.68453,-3.02899 3.39897,-4.16316 3.34959,-1.39954 3.39531,-1.49926 2.41338,-5.26342 -0.55049,-2.11026 -1.15203,-7.05423 -1.33676,-10.9866 -0.34983,-7.44694 -2.26709,-12.62491 -5.26966,-14.23184 -0.96693,-0.51748 -3.54977,-1.27421 -5.73965,-1.68162 -13.03265,-2.42459 -33.56963,-12.8161 -44.99968,-22.76938 -2.20994,-1.92442 -5.22576,-4.0492 -6.70181,-4.72173 -1.47604,-0.67253 -3.43945,-2.84793 -4.36313,-4.83423 -0.92368,-1.98629 -3.22123,-5.51873 -5.10566,-7.84987 -4.75367,-5.88052 -9.21991,-16.18894 -9.74018,-22.48106 -0.24014,-2.90428 -0.89181,-6.76513 -1.44817,-8.57966 -1.62848,-5.31128 -2.49555,-16.85254 -1.32064,-17.57867 0.59288,-0.36643 1.33995,0.75228 1.74902,2.61909 0.41573,1.89719 2.64325,5.19504 5.33137,7.8931 6.62018,6.64468 9.11729,9.52489 9.11729,10.51603 0,1.2051 3.90056,3.52909 4.89336,2.91551 0.4466,-0.27601 1.66579,0.14443 2.70932,0.93432 1.04353,0.78989 2.79732,1.46574 3.89732,1.5019 1.1,0.0361 3.72816,0.88344 5.84035,1.88285 3.19428,1.51143 5.80186,1.75755 15.5,1.46303 10.82196,-0.32866 12.09072,-0.58198 17.65965,-3.52595 9.22098,-4.87458 15.72589,-9.57853 18.75,-13.55882 C 416.48849,369.00078 416.65674,368 414.13486,368 411.20191,368 407,364.14281 407,361.45047 c 0,-3.75207 3.81342,-5.63317 10.6716,-5.26411 L 423.5,356.5 l 1.18496,-8 c 0.65172,-4.4 1.2123,-10.925 1.24571,-14.5 0.0524,-5.60515 -0.35106,-7.11951 -2.93067,-11 -1.64529,-2.475 -2.99336,-5.22048 -2.99572,-6.10106 -0.002,-0.88058 -1.11662,-3.69308 -2.47615,-6.25 C 415.08102,306.04654 415.07727,306 417.15415,306 c 1.15384,0 6.20367,1.6042 11.22187,3.56489 11.07127,4.32572 16.37084,9.3357 21.92581,20.72768 3.06281,6.28112 3.70052,8.66846 3.71182,13.89576 0.0226,10.4458 0.33542,10.95068 6.35778,10.26111 2.82071,-0.32298 8.09831,-2.01301 11.728,-3.75562 5.59241,-2.68492 7.46166,-4.30847 12.25,-10.63979 5.90389,-7.80635 7.04466,-11.83061 4.24509,-14.97529 -0.77302,-0.86831 -1.56052,-3.82874 -1.75,-6.57874 -0.28239,-4.09834 -0.94885,-5.60061 -3.69569,-8.33059 -3.31748,-3.29709 -3.59845,-4.84327 -1.69844,-9.34645 0.56842,-1.34718 0.28167,-1.56565 -1.45785,-1.11076 -1.70905,0.44693 -2.10682,0.16811 -1.88734,-1.32296 C 478.46472,295.94678 477.13041,292 475.94516,292 c -2.04074,0 -6.27321,-8.5382 -6.43835,-12.98814 -0.17381,-4.68331 -2.05836,-11.61729 -3.73087,-13.72727 C 465.24232,264.6114 465.11922,262.25382 465.5,260 c 0.41386,-2.4496 0.26259,-4.58113 -0.38006,-5.35548 -0.58714,-0.70746 -1.05951,-2.6044 -1.04971,-4.21541 0.01,-1.61101 0.009,-3.82911 -0.003,-4.92911 -0.0301,-2.92426 0.41555,-6.50093 1.33955,-10.74964 0.69844,-3.21159 0.50229,-4.00324 -1.367,-5.51689 -1.83009,-1.48192 -2.19899,-2.85784 -2.28489,-8.52204 -0.0649,-4.28026 -0.58832,-7.15805 -1.42877,-7.85556 C 459.59685,212.25045 459,210.40083 459,208.74559 c 0,-1.65524 -0.84198,-4.41264 -1.87108,-6.12756 -1.02909,-1.71491 -2.14707,-5.26712 -2.48439,-7.89378 -0.53727,-4.18351 -1.45233,-5.64956 -7.37893,-11.82206 -3.72108,-3.87547 -7.12546,-7.68888 -7.56529,-8.47425 C 439.26048,173.64257 438.24798,173 437.45031,173 436.65264,173 436,172.175 436,171.16667 c 0,-3.41966 -1.29988,-3.15342 -6.56488,1.34461 -2.88976,2.4688 -5.70261,4.48872 -6.25077,4.48872 -0.54817,0 -1.31099,2.3625 -1.69516,5.25 -0.42133,3.16683 -1.84734,7.0044 -3.59384,9.67144 -1.90297,2.90601 -2.89535,5.71665 -2.89535,8.20031 0,2.38409 -0.57589,4.10115 -1.56024,4.65203 -1.03006,0.57645 -1.58076,2.37732 -1.62062,5.29969 -0.0669,4.9062 -1.32863,9.00535 -3.11088,10.10683 -0.64164,0.39656 -1.03292,2.27277 -0.86952,4.16936 0.1634,1.8966 -0.18347,3.74536 -0.77082,4.10837 -0.58736,0.363 -1.06792,1.47276 -1.06792,2.46613 0,0.99337 -0.85618,2.89458 -1.90263,4.22492 -1.26663,1.61027 -1.72556,3.34508 -1.37291,5.18983 0.29134,1.52407 -0.15412,4.4338 -0.98991,6.46606 -0.83579,2.03227 -2.1128,5.72003 -2.83779,8.19503 -1.90758,6.51212 -8.01017,19.3368 -9.99279,21 -0.32781,0.275 -0.88098,1.625 -1.22927,3 -0.34828,1.375 -1.53595,3.9625 -2.63927,5.75 -2.07797,3.36655 -4.0204,3.9221 -11.82359,3.38165 -1.80849,-0.12525 -6.00734,0.46888 -9.33077,1.32031 -3.32343,0.85142 -7.06424,1.54804 -8.3129,1.54804 -1.24866,0 -4.38613,1.125 -6.97215,2.5 -2.58601,1.375 -4.90304,2.5 -5.14893,2.5 -1.16444,0 -0.20727,-2.88866 2.06538,-6.23316 1.38185,-2.03358 4.20352,-6.97554 6.27037,-10.98213 2.06685,-4.00659 4.9205,-9.08471 6.34144,-11.28471 1.42095,-2.2 2.93332,-5.125 3.36082,-6.5 0.42751,-1.375 1.56678,-3.625 2.5317,-5 0.96493,-1.375 2.48089,-4.075 3.3688,-6 0.88791,-1.925 2.73939,-5.48328 4.11439,-7.90728 C 372.875,239.66871 374,236.87738 374,235.88977 c 0,-1.7044 0.60556,-3.47001 3.56342,-10.38977 0.70529,-1.65 1.61067,-4.35 2.01196,-6 0.40128,-1.65 1.56098,-4.07319 2.57711,-5.38486 1.01613,-1.31167 1.84751,-3.44271 1.84751,-4.73565 0,-3.12865 1.77288,-10.30001 4.68329,-18.94408 1.30824,-3.88553 2.75738,-9.28553 3.22032,-12 2.1842,-12.80725 4.71715,-20.18027 7.20394,-20.96954 1.04085,-0.33036 1.89245,-1.1579 1.89245,-1.83898 0,-2.80624 11.72156,-16.60693 14.11514,-16.61885 0.88833,-0.004 2.73938,-0.89236 4.11344,-1.9732 3.72859,-2.93291 11.02449,-4.25144 22.95497,-4.14845 13.81131,0.11922 20.6549,2.33818 33.48582,10.85743 5.03157,3.34077 14.19156,14.17899 17.57599,20.79614 0.83268,1.62802 2.4964,6.78504 3.69715,11.46004 2.10157,8.18218 3.01757,14.50356 5.07169,35 1.60921,16.0571 6.31263,40.91621 8.51282,44.99303 0.74413,1.37884 1.61377,4.13269 1.93253,6.11968 0.31876,1.98699 1.40844,4.36283 2.4215,5.27964 1.01306,0.91681 2.62468,3.56609 3.58138,5.88729 0.9567,2.3212 2.36903,5.69813 3.13851,7.50429 0.76948,1.80616 1.39906,3.9397 1.39906,4.7412 0,2.01768 5.95924,15.24375 8.72498,19.36442 1.25126,1.86425 2.27502,4.44237 2.27502,5.72916 0,1.28678 1.40389,7.18649 3.11976,13.11045 5.26932,18.1921 6.79245,44.53979 3.36857,58.27084 -0.89143,3.575 -2.0352,8.15165 -2.5417,10.17032 -1.44758,5.76942 -8.39778,21.1716 -11.75654,26.05339 -6.68316,9.71364 -14.72259,16.08209 -29.69009,23.51907 -3.85,1.91297 -7.70629,4.09966 -8.56952,4.85933 -0.86324,0.75966 -4.01324,1.88034 -7,2.4904 -2.98677,0.61006 -7.23048,1.55998 -9.43048,2.11093 -2.2,0.55095 -6.39329,1.224 -9.31842,1.49566 -2.92513,0.27166 -5.51926,1.0173 -5.76472,1.65696 -0.24546,0.63967 0.0315,3.40874 0.61552,6.15349 0.584,2.74475 1.97486,9.26545 3.09081,14.49045 3.64927,17.08628 3.10484,18.13862 -8.95083,17.30089 -8.14091,-0.5657 -10.51265,-1.94403 -9.9601,-5.78824 0.24029,-1.67178 3.39705,-3.89365 8.18481,-5.76084 0.50067,-0.19526 0.0958,-5.76494 -0.91629,-12.60464 -1.52006,-10.27268 -2.1458,-12.43271 -3.8687,-13.35478 -1.13043,-0.60499 -6.6755,-1.24194 -12.32237,-1.41544 -10.09103,-0.31006 -10.27726,-0.27474 -10.8634,2.06065 -0.32801,1.30687 -0.15071,3.20884 0.39399,4.22662 0.54469,1.01777 1.7563,6.12219 2.69245,11.34314 0.93616,5.22095 2.32876,10.48931 3.09468,11.70746 2.06366,3.28214 1.71531,6.94572 -0.82994,8.72848 -2.61865,1.83417 -12.2776,2.06289 -15.27749,0.36175 z m 28,-75.49635 c 3.3,-0.87383 6.24337,-1.96251 6.54082,-2.4193 0.42329,-0.65003 8.30915,-3.8894 9.46828,-3.8894 0.1417,0 0.59225,1.0125 1.00122,2.25 l 0.74358,2.25 0.45852,-2.37148 c 0.53705,-2.77767 5.04284,-7.05143 7.48221,-7.09692 0.93205,-0.0174 3.8594,-2.1691 6.50524,-4.7816 2.64583,-2.6125 6.25459,-5.5073 8.01947,-6.43289 1.99003,-1.04367 3.47491,-2.75292 3.9093,-4.5 C 484.01387,387.7677 485.1365,385.375 486.12337,384 488.64681,380.4841 492,367.08556 492,360.51838 492,357.48327 491.78841,355 491.52979,355 c -0.25862,0 -3.78639,2.25 -7.83949,5 -4.05311,2.75 -7.84683,5 -8.4305,5 -0.58366,0 -3.46839,1.1206 -6.4105,2.49023 -3.43938,1.60112 -7.13665,2.49372 -10.3553,2.5 l -5.00599,0.01 -4.99401,10.56806 c -4.27225,9.04073 -5.99825,11.51876 -11.94272,17.1463 -7.22728,6.84195 -13.28476,10.2377 -22.43746,12.57819 l -5.38618,1.37733 2.98795,2.1276 c 3.59594,2.56054 11.40599,4.46109 14.8156,3.60534 1.61876,-0.40629 2.46881,-0.19783 2.46881,0.6054 0,0.80164 0.77765,0.9942 2.25,0.55715 1.2375,-0.36734 4.95,-1.38284 8.25,-2.25667 z M 357.41271,352.05722 C 353.15585,351.03955 352,350.1834 352,348.04797 352,345.60853 353.91301,345 361.58179,345 c 5.06034,0 6.83654,0.41833 8.39553,1.97732 2.67754,2.67754 1.65425,4.6562 -2.78787,5.39066 -4.34152,0.71782 -5.64789,0.6763 -9.77674,-0.31076 z m -35.06458,-2.05208 C 318.71074,348.53777 313,340.16185 313,336.29427 c 0,-4.02972 4.04032,-13.04225 7.2452,-16.1615 4.57786,-4.45556 9.83967,-8.38123 10.43538,-7.78552 0.33738,0.33738 -1.00061,3.88476 -2.97332,7.88308 -3.57393,7.24372 -3.58574,7.31162 -3.30674,19.01967 0.154,6.4625 0.23939,11.72148 0.18974,11.68661 -0.0496,-0.0349 -1.0586,-0.45402 -2.24213,-0.93147 z m 58.32926,-13.4706 c -1.24059,-1.2406 -1.26767,-2.04081 -0.17643,-5.215 1.53687,-4.47048 2.73983,-5.04701 6.03108,-2.8905 2.9864,1.95676 3.16661,4.87231 0.46796,7.57096 -2.37311,2.37311 -4.31948,2.53766 -6.32261,0.53454 z M 338,335 c -2.39298,-2.39298 -2.48864,-3.34957 -0.5,-5 0.825,-0.68469 1.5,-2.08979 1.5,-3.12244 C 339,325.463 339.73112,325 341.96482,325 c 5.29334,0 6.8478,6.42903 2.40032,9.92742 -3.26217,2.56602 -3.86482,2.5729 -6.36514,0.0726 z"
       style="fill:#95d049" />
    <path
       id="path9410"
       d="m 411.5,491.80505 c -2.7269,-1.54632 -3.46671,-2.82899 -3.48469,-6.04163 -0.0122,-2.17565 0.68453,-3.02899 3.39897,-4.16316 3.34959,-1.39954 3.39531,-1.49926 2.41338,-5.26342 -0.55049,-2.11026 -1.15203,-7.05423 -1.33676,-10.9866 -0.34983,-7.44694 -2.26709,-12.62491 -5.26966,-14.23184 -0.96693,-0.51748 -3.54977,-1.27421 -5.73965,-1.68162 -6.18566,-1.15078 -23.95342,-8.00578 -28.16072,-10.86471 -2.08183,-1.41464 -3.34318,-2.57375 -2.803,-2.57581 0.54017,-0.002 -0.36787,-0.82913 -2.01787,-1.83794 -1.65,-1.00881 -3.6176,-2.58213 -4.37244,-3.49626 C 363.37271,429.74793 362.13423,429 361.37537,429 c -1.73951,0 -8.31749,-6.89503 -8.54642,-8.95834 -0.0941,-0.84791 -0.21935,-2.3255 -0.27838,-3.28352 -0.059,-0.95803 -0.43206,-1.74553 -0.82895,-1.75 -0.39689,-0.004 -1.2204,-0.008 -1.83003,-0.008 -0.68296,0 -0.86756,0.9596 -0.48095,2.5 0.66781,2.66073 -0.49094,3.32125 -2.19286,1.25 -0.56491,-0.6875 -1.79681,-3.6125 -2.73755,-6.5 -1.13035,-3.46948 -2.26491,-5.2578 -3.34533,-5.27301 -1.05983,-0.0149 -3.16885,-3.1895 -5.99582,-9.02511 -3.98973,-8.23586 -4.25604,-9.25531 -3.12868,-11.97699 C 333.2911,382.88301 336,381.88157 336,384.5 c 0,0.825 -0.44914,1.5 -0.99809,1.5 -1.0525,0 -0.73519,7.60005 0.36316,8.6984 0.34921,0.34922 0.63493,1.43893 0.63493,2.42158 0,0.98266 1.16635,2.59516 2.59188,3.58334 1.42554,0.98817 3.32555,2.58418 4.22224,3.54668 0.8967,0.9625 2.4038,1.75 3.3491,1.75 2.44922,0 3.42124,2.09342 1.47718,3.18137 -0.90222,0.5049 -1.6404,1.58052 -1.6404,2.39026 0,1.19318 1.13731,1.36916 6,0.92837 6.39002,-0.57923 6.59046,-0.4718 4.92518,2.6398 -0.89743,1.67687 -0.7324,2.09785 1,2.55089 2.73964,0.71643 2.65077,2.99173 -0.15158,3.88117 -1.92923,0.61231 -1.41343,1.0785 3.86432,3.49264 3.34991,1.5323 6.34222,3.44135 6.64958,4.24233 0.45471,1.18495 1.28319,1.26298 4.44609,0.41876 5.66734,-1.5127 9.19364,-0.33946 9.92174,3.30108 0.60213,3.01062 2.95213,3.96587 4.91864,1.99936 1.54768,-1.54768 6.88347,0.33484 7.21601,2.54589 0.27303,1.8154 0.20814,1.8258 -1.11024,0.17808 -1.52065,-1.9005 -4.21035,-2.31851 -5.14873,-0.80017 -0.64768,1.04797 2.16485,2.84663 7.34051,4.69438 3.07343,1.09724 3.58582,0.98936 5.79545,-1.22027 3.09935,-3.09935 5.8565,-3.08086 7.90991,0.053 1.46789,2.24028 2.14613,2.43722 7.09728,2.06084 3.01086,-0.22888 6.08244,-0.92087 6.82574,-1.53775 0.74329,-0.61688 3.97239,-1.25639 7.17577,-1.42114 3.75754,-0.19326 7.06632,-1.0575 9.32433,-2.43551 1.925,-1.17477 4.4,-2.14001 5.5,-2.14496 2.03082,-0.009 2.90399,-0.5104 12.81021,-7.35389 5.14058,-3.55126 13.08797,-12.04152 19.99448,-21.36029 6.72598,-9.07518 8.50278,-12.87258 10.19285,-21.78429 0.93874,-4.95 2.30316,-11.25 3.03205,-14 1.92822,-7.27499 2.42091,-17.5 0.84324,-17.5 -0.69014,0 -1.54118,0.46338 -1.89121,1.02974 C 489.60871,355.44213 476.5232,364 475.23647,364 c -0.57083,0 -3.44506,1.1206 -6.38717,2.49023 -3.4932,1.62617 -7.12846,2.49362 -10.47686,2.5 -3.04492,0.006 -5.57749,0.55191 -6.23532,1.34456 -0.60928,0.73413 -3.2117,5.57163 -5.78317,10.75 -6.08963,12.26316 -14.34014,20.47392 -25.05546,24.93472 -6.90593,2.87495 -7.76948,2.99792 -17.47601,2.48867 -5.6161,-0.29466 -11.8209,-0.96921 -13.78844,-1.49901 -3.9757,-1.07055 -14.3804,-10.26577 -15.42868,-13.63521 -0.79537,-2.55651 1.30378,-3.33973 9.00615,-3.36031 4.03943,-0.0108 6.5563,-0.81513 12,-3.835 10.21291,-5.66555 14.57543,-8.85674 17.63849,-12.90259 C 416.48867,368.99827 416.65609,368 414.13486,368 411.20191,368 407,364.14281 407,361.45047 c 0,-3.75207 3.81342,-5.63317 10.6716,-5.26411 L 423.5,356.5 l 1.18496,-8 c 0.65172,-4.4 1.2123,-10.925 1.24571,-14.5 0.0524,-5.60515 -0.35106,-7.11951 -2.93067,-11 -1.64529,-2.475 -2.99336,-5.19235 -2.99572,-6.03856 -0.002,-0.84621 -0.89748,-3.29051 -1.98916,-5.43178 -1.09168,-2.14128 -1.8228,-4.05531 -1.6247,-4.25341 0.1981,-0.19811 5.02119,1.51902 10.71798,3.81584 8.05369,3.24707 11.19626,5.09162 14.12701,8.29197 5.07552,5.5424 10.76224,17.27178 10.77328,22.22087 0.005,2.14229 0.29089,6.24428 0.6358,9.11554 l 0.6271,5.22048 6.1142,-0.58441 c 3.7924,-0.36248 8.67627,-1.79515 12.86108,-3.77275 5.85219,-2.76555 7.55172,-4.24228 12.81626,-11.13607 5.70459,-7.47003 6.03042,-8.18814 5.42101,-11.94772 -0.35661,-2.2 -0.73753,-6.25 -0.84648,-9 -0.10896,-2.75 -0.91665,-7.025 -1.79487,-9.5 -0.87822,-2.475 -2.3594,-7.62002 -3.29152,-11.43339 -0.93212,-3.81336 -2.33748,-7.85099 -3.12302,-8.9725 C 480.64271,288.47259 480,286.66046 480,285.56714 c 0,-1.09332 -1.09808,-5.38069 -2.44017,-9.5275 -4.14803,-12.81658 -5.85292,-20.29695 -6.04876,-26.53964 -0.10353,-3.3 -0.71987,-11.3692 -1.36964,-17.93155 -0.64977,-6.56235 -1.42135,-21.41235 -1.71461,-33 C 468.13356,186.9808 467.41412,175.475 466.82806,173 c -0.58606,-2.475 -1.23652,-6.3 -1.44546,-8.5 -0.6253,-6.58391 -4.63095,-17.83784 -7.23956,-20.33964 -2.08196,-1.99671 -2.76395,-2.16602 -4.65288,-1.15509 -1.74174,0.93215 -2.69684,0.89798 -4.48241,-0.16036 -1.78866,-1.06017 -2.3649,-1.08027 -2.72174,-0.0949 -0.75659,2.08921 -2.80967,1.41357 -5.75731,-1.89464 -2.79854,-3.1409 -2.80381,-3.14216 -4.41529,-1.06063 -0.88738,1.14621 -2.84672,2.38403 -4.35409,2.75071 -3.81009,0.92684 -4.80727,-1.85683 -1.61721,-4.51452 2.21493,-1.84528 2.23663,-1.96447 0.35789,-1.96585 -3.02843,-0.002 -5.5,2.35078 -5.5,5.23616 0,3.26766 -0.94294,3.83152 -4.58568,2.74219 -1.60288,-0.47934 -2.36469,-0.91019 -1.69291,-0.95747 0.67177,-0.0473 1.59826,-1.54845 2.05885,-3.33595 1.24541,-4.83321 5.73041,-6.07924 22.21974,-6.17313 12.77404,-0.0727 13.82265,0.0737 19.5,2.72405 11.17564,5.21701 18.06984,10.44952 23.80143,18.06463 6.96901,9.25917 8.00191,11.35915 10.64108,21.63445 2.10157,8.18218 3.01757,14.50356 5.07169,35 1.60921,16.0571 6.31263,40.91621 8.51282,44.99303 0.74413,1.37884 1.61377,4.13269 1.93253,6.11968 0.31876,1.98699 1.40844,4.36283 2.4215,5.27964 1.01306,0.91681 2.62468,3.56609 3.58138,5.88729 0.9567,2.3212 2.36903,5.69813 3.13851,7.50429 0.76948,1.80616 1.39906,3.9397 1.39906,4.7412 0,2.01768 5.95924,15.24375 8.72498,19.36442 1.25126,1.86425 2.27502,4.44237 2.27502,5.72916 0,1.28678 1.40389,7.18649 3.11976,13.11045 5.26932,18.1921 6.79245,44.53979 3.36857,58.27084 -0.89143,3.575 -2.0352,8.15165 -2.5417,10.17032 -1.44758,5.76942 -8.39778,21.1716 -11.75654,26.05339 -6.68316,9.71364 -14.72259,16.08209 -29.69009,23.51907 -3.85,1.91297 -7.70629,4.09966 -8.56952,4.85933 -0.86324,0.75966 -4.01324,1.88034 -7,2.4904 -2.98677,0.61006 -7.23048,1.55998 -9.43048,2.11093 -2.2,0.55095 -6.39329,1.224 -9.31842,1.49566 -2.92513,0.27166 -5.51926,1.0173 -5.76472,1.65696 -0.24546,0.63967 0.0315,3.40874 0.61552,6.15349 0.584,2.74475 1.97486,9.26545 3.09081,14.49045 3.64927,17.08628 3.10484,18.13862 -8.95083,17.30089 -8.14091,-0.5657 -10.51265,-1.94403 -9.9601,-5.78824 0.24029,-1.67178 3.39705,-3.89365 8.18481,-5.76084 0.50067,-0.19526 0.0958,-5.76494 -0.91629,-12.60464 -1.52006,-10.27268 -2.1458,-12.43271 -3.8687,-13.35478 -1.13043,-0.60499 -6.6755,-1.24194 -12.32237,-1.41544 -10.09103,-0.31006 -10.27726,-0.27474 -10.8634,2.06065 -0.32801,1.30687 -0.15071,3.20884 0.39399,4.22662 0.54469,1.01777 1.7563,6.12219 2.69245,11.34314 0.93616,5.22095 2.32876,10.48931 3.09468,11.70746 2.06366,3.28214 1.71531,6.94572 -0.82994,8.72848 -2.61865,1.83417 -12.2776,2.06289 -15.27749,0.36175 z M 357.96603,352.12 C 353.5291,351.19728 352,350.26337 352,348.47617 352,346.24784 355.41021,345 361.5,345 c 3.09732,0 6.5019,0.46583 7.56574,1.03518 1.95866,1.04824 2.64048,4.41032 1.08888,5.36926 -1.65719,1.0242 -8.7127,1.43841 -12.18859,0.71556 z m -35.6179,-2.11486 C 318.71074,348.53777 313,340.16185 313,336.29427 c 0,-4.02972 4.04032,-13.04225 7.2452,-16.1615 4.57786,-4.45556 9.83967,-8.38123 10.43538,-7.78552 0.33738,0.33738 -1.00061,3.88476 -2.97332,7.88308 -3.57393,7.24372 -3.58574,7.31162 -3.30674,19.01967 0.154,6.4625 0.23939,11.72148 0.18974,11.68661 -0.0496,-0.0349 -1.0586,-0.45402 -2.24213,-0.93147 z m 58.32926,-13.4706 c -1.24059,-1.2406 -1.26767,-2.04081 -0.17643,-5.215 1.53687,-4.47048 2.73983,-5.04701 6.03108,-2.8905 2.9864,1.95676 3.16661,4.87231 0.46796,7.57096 -2.37311,2.37311 -4.31948,2.53766 -6.32261,0.53454 z M 338,335 c -2.39298,-2.39298 -2.48864,-3.34957 -0.5,-5 0.825,-0.68469 1.5,-2.08979 1.5,-3.12244 C 339,325.463 339.73112,325 341.96482,325 c 5.29334,0 6.8478,6.42903 2.40032,9.92742 -3.26217,2.56602 -3.86482,2.5729 -6.36514,0.0726 z"
       style="fill:#87a35c" />
    <path
       id="path9408"
       d="m 416,492.26178 c -4.46052,-0.53289 -7,-2.8253 -7,-6.31894 0,-2.17595 0.64777,-2.973 3.11524,-3.83317 2.83496,-0.98827 3.0614,-1.37944 2.51684,-4.34782 -0.32912,-1.79402 -1.02215,-7.21236 -1.54007,-12.04076 -1.1431,-10.6567 -3.25108,-14.81317 -8.13308,-16.0366 -15.77755,-3.95383 -33.25188,-11.93974 -40.01365,-18.28655 C 363.54019,430.07907 361.8517,429 361.19309,429 c -1.60153,0 -8.14816,-7.0117 -8.36414,-8.95834 -0.0941,-0.84791 -0.21935,-2.3255 -0.27838,-3.28352 -0.059,-0.95803 -0.43206,-1.74553 -0.82895,-1.75 -0.39689,-0.004 -1.2204,-0.008 -1.83003,-0.008 -0.68296,0 -0.86756,0.9596 -0.48095,2.5 0.66781,2.66073 -0.49094,3.32125 -2.19286,1.25 -0.56491,-0.6875 -1.79681,-3.6125 -2.73755,-6.5 -1.13035,-3.46948 -2.26491,-5.2578 -3.34533,-5.27301 -1.05983,-0.0149 -3.16885,-3.1895 -5.99582,-9.02511 -3.98973,-8.23586 -4.25604,-9.25531 -3.12868,-11.97699 C 333.2911,382.88301 336,381.88157 336,384.5 c 0,0.825 -0.44914,1.5 -0.99809,1.5 -1.0525,0 -0.73519,7.60005 0.36316,8.6984 0.34921,0.34922 0.63493,1.43893 0.63493,2.42158 0,0.98266 1.16635,2.59516 2.59188,3.58334 1.42554,0.98817 3.32555,2.58418 4.22224,3.54668 0.8967,0.9625 2.4038,1.75 3.3491,1.75 2.44922,0 3.42124,2.09342 1.47718,3.18137 -0.90222,0.5049 -1.6404,1.58052 -1.6404,2.39026 0,1.19318 1.13731,1.36916 6,0.92837 6.39002,-0.57923 6.59046,-0.4718 4.92518,2.6398 -0.89743,1.67687 -0.7324,2.09785 1,2.55089 2.73964,0.71643 2.65077,2.99173 -0.15158,3.88117 -1.92923,0.61231 -1.41343,1.0785 3.86432,3.49264 3.34991,1.5323 6.34222,3.44135 6.64958,4.24233 0.45471,1.18495 1.28319,1.26298 4.44609,0.41876 5.66734,-1.5127 9.19364,-0.33946 9.92174,3.30108 0.60213,3.01062 2.95213,3.96587 4.91864,1.99936 1.54768,-1.54768 6.88347,0.33484 7.21601,2.54589 0.27303,1.8154 0.20814,1.8258 -1.11024,0.17808 -1.52065,-1.9005 -4.21035,-2.31851 -5.14873,-0.80017 -0.64768,1.04797 2.16485,2.84663 7.34051,4.69438 3.07343,1.09724 3.58582,0.98936 5.79545,-1.22027 3.09935,-3.09935 5.8565,-3.08086 7.90991,0.053 1.46789,2.24028 2.14613,2.43722 7.09728,2.06084 3.01086,-0.22888 6.11307,-0.94629 6.8938,-1.59423 0.78073,-0.64795 4.00983,-1.26161 7.17577,-1.3637 3.94673,-0.12727 6.85653,-0.87514 9.25627,-2.37902 1.925,-1.20637 4.4,-2.19746 5.5,-2.20241 2.02668,-0.009 3.43442,-0.80721 12.14567,-6.88571 5.02624,-3.5072 17.61378,-16.24862 18.17127,-18.39342 0.17432,-0.67064 1.85859,-2.73003 3.74283,-4.57643 1.88425,-1.84639 3.20111,-3.72079 2.92638,-4.16532 -0.27474,-0.44454 0.56691,-2.08385 1.87033,-3.64292 2.59076,-3.09891 3.63616,-5.77182 4.16542,-10.65029 0.19001,-1.75141 1.31677,-6.78438 2.50391,-11.18438 2.08335,-7.72168 3.60514,-23.5 2.26652,-23.5 -0.35952,0 -3.83487,2.19097 -7.723,4.86881 -8.87181,6.11022 -20.23208,11.12701 -25.23694,11.14484 -7.18471,0.0256 -7.73914,0.51623 -13.35305,11.81634 -6.75926,13.60557 -14.55847,21.55926 -25.68085,26.18952 -6.90593,2.87495 -7.76948,2.99792 -17.47601,2.48867 -5.6161,-0.29466 -11.8209,-0.96921 -13.78844,-1.49901 -3.9757,-1.07055 -14.3804,-10.26577 -15.42868,-13.63521 -0.79537,-2.55651 1.30378,-3.33973 9.00615,-3.36031 4.03943,-0.0108 6.5563,-0.81513 12,-3.835 10.21291,-5.66555 14.57543,-8.85674 17.63849,-12.90259 C 416.48867,368.99827 416.65609,368 414.13486,368 411.20191,368 407,364.14281 407,361.45047 c 0,-3.75207 3.81342,-5.63317 10.6716,-5.26411 L 423.5,356.5 l 1.18496,-8 c 0.65172,-4.4 1.2123,-10.925 1.24571,-14.5 0.0524,-5.60515 -0.35106,-7.11951 -2.93067,-11 -1.64529,-2.475 -2.99336,-5.19235 -2.99572,-6.03856 -0.002,-0.84621 -0.89748,-3.29051 -1.98916,-5.43178 -1.09168,-2.14128 -1.8228,-4.05531 -1.6247,-4.25341 0.1981,-0.19811 5.02119,1.51902 10.71798,3.81584 8.05369,3.24707 11.19626,5.09162 14.12701,8.29197 5.53171,6.04056 10.74778,17.21546 10.83871,23.22087 0.0408,2.69229 0.37866,6.92007 0.75087,9.39507 l 0.67675,4.5 5.49913,-0.31802 c 3.79041,-0.21921 7.89079,-1.46211 13.19618,-4 6.88738,-3.29466 8.284,-4.47093 13.27682,-11.18198 6.65715,-8.94816 7.2288,-10.71698 4.98895,-15.4371 -1.19874,-2.52617 -1.52022,-4.80249 -1.07311,-7.59854 0.44104,-2.75812 0.17955,-4.69212 -0.84605,-6.25738 -0.81641,-1.24599 -1.77371,-4.05229 -2.12733,-6.23621 C 485.62782,300.60112 485.20091,298.5 485,298.5 c -0.1439,0 -0.65328,-1.90348 -1.27294,-4.75678 -0.15012,-0.69123 -1.05012,-2.36636 -2,-3.72251 C 480.77718,288.66456 480,286.51566 480,285.24538 c 0,-1.27029 -0.65204,-3.87016 -1.44897,-5.7775 C 477.75409,277.56055 477.35919,276 477.67347,276 c 0.31428,0 0.0112,-0.675 -0.67347,-1.5 -0.68469,-0.825 -0.87479,-1.5 -0.42244,-1.5 0.45234,0 0.28244,-0.54 -0.37756,-1.2 -0.66,-0.66 -1.2,-2.39015 -1.2,-3.84477 0,-1.45463 -0.88894,-5.30213 -1.97541,-8.55 -2.25623,-6.7447 -2.49088,-9.53894 -0.93195,-11.09787 0.73604,-0.73604 0.77361,-1.69883 0.11514,-2.95 -1.20816,-2.29562 -2.04476,-8.97061 -2.67679,-21.35736 -0.2666,-5.225 -0.77793,-13.43426 -1.13628,-18.2428 -0.42375,-5.68604 -0.27715,-9.19393 0.41931,-10.0331 0.74473,-0.89736 0.76404,-2.65066 0.0634,-5.7572 -0.5541,-2.4568 -0.7912,-5.5919 -0.52688,-6.9669 0.26431,-1.375 -0.18142,-4.975 -0.99052,-8 -0.8091,-3.025 -1.67474,-7.525 -1.92363,-10 -0.71553,-7.11522 -4.62216,-18.27784 -7.29334,-20.83964 -2.08196,-1.99671 -2.76395,-2.16602 -4.65288,-1.15509 -1.74174,0.93215 -2.69684,0.89798 -4.48241,-0.16036 -1.78866,-1.06017 -2.3649,-1.08027 -2.72174,-0.0949 -0.75659,2.08921 -2.80967,1.41357 -5.75731,-1.89464 -2.79854,-3.1409 -2.80381,-3.14216 -4.41529,-1.06063 -0.88738,1.14621 -2.84672,2.38403 -4.35409,2.75071 -3.81009,0.92684 -4.80727,-1.85683 -1.61721,-4.51452 2.21493,-1.84528 2.23663,-1.96447 0.35789,-1.96585 -3.02843,-0.002 -5.5,2.35078 -5.5,5.23616 0,3.26766 -0.94294,3.83152 -4.58568,2.74219 -1.60288,-0.47934 -2.36469,-0.91019 -1.69291,-0.95747 0.67177,-0.0473 1.59826,-1.54845 2.05885,-3.33595 1.247,-4.8394 5.81464,-6.14557 21.21974,-6.06804 14.33,0.0721 18.72085,1.31377 30.5,8.62481 6.81994,4.23297 15.96208,14.26042 20.16914,22.12228 3.27972,6.12892 8.10123,31.42565 8.87633,46.57095 0.29315,5.72821 1.97806,16.97062 3.44702,23 0.46899,1.925 1.52933,7.1 2.3563,11.5 2.16667,11.5281 5.27393,20.33276 8.6469,24.50171 1.11323,1.37594 3.54799,7.03577 5.41057,12.57741 3.93139,11.69687 7.16997,19.1867 9.37937,21.69159 0.85901,0.97389 2.11506,4.34889 2.79122,7.5 0.67617,3.15111 2.62299,11.0472 4.32627,17.54687 1.70328,6.49967 3.10762,14.37467 3.12074,17.5 0.0131,3.12533 0.42949,7.43093 0.92526,9.56799 1.54418,6.65626 -2.17891,31.88602 -5.91958,40.11443 -0.50007,1.1 -2.50281,5.71501 -4.45053,10.25558 -6.60887,15.4067 -15.05708,23.77465 -34.48353,34.15597 -13.52179,7.22592 -24.42799,10.7831 -36.34548,11.85446 l -4.75,0.42702 0,4.28136 c 0,2.35475 0.6311,5.79882 1.40244,7.65349 0.77135,1.85466 1.71007,6.07212 2.08605,9.37212 0.37598,3.3 1.0847,7.55702 1.57494,9.46004 0.66601,2.58531 0.51202,4.03896 -0.6091,5.75 C 459.13033,491.73072 458.14188,492 452.04838,492 444.76076,492 442,490.64028 442,487.05102 c 0,-2.16675 1.47969,-3.44853 5.5,-4.76436 3.45325,-1.13024 3.42771,-0.81202 1.28833,-16.0494 -1.09353,-7.78852 -1.89575,-10.59533 -3.3275,-11.64225 -1.86511,-1.3638 -20.45792,-2.78826 -23.30028,-1.78511 -1.87604,0.66211 -0.49906,10.11141 3.8165,26.1901 2.41546,8.9994 2.40176,10.62126 -0.10454,12.37674 -2.3016,1.61211 -3.15005,1.68817 -9.87251,0.88504 z m -56.23733,-140.4221 c -0.69447,-0.43671 -1.96128,-0.57719 -2.81513,-0.31216 -0.85385,0.26502 -2.33185,-0.0881 -3.28444,-0.7846 -3.02995,-2.21555 0.002,-4.42245 7.00555,-5.09919 5.16265,-0.49885 6.54885,-0.2843 8.5,1.31559 2.11749,1.7363 2.18796,2.05769 0.76814,3.50367 -1.7219,1.75361 -8.18418,2.62804 -10.17412,1.37669 z m -42.16996,-7.0024 c -5.79676,-6.77221 -5.56352,-11.87986 0.99506,-21.79054 2.24484,-3.39218 9.3877,-9.04674 11.42788,-9.04674 0.45989,0 -0.64105,2.83406 -2.44654,6.29791 -3.17617,6.09355 -3.27828,6.66142 -3.14662,17.5 0.15904,13.0928 -0.80116,14.08246 -6.82978,7.03937 z m 63.04551,-8.61363 C 379.70169,334.70831 382.48046,328 384.04469,328 c 2.17988,0 3.95531,2.01993 3.95531,4.5 0,1.155 -0.54,2.64 -1.2,3.3 -1.34161,1.34161 -5.4211,1.6221 -6.16178,0.42365 z m -42.70561,-1.80485 c -1.02914,-1.24003 -1.05555,-1.99229 -0.12245,-3.48643 0.65441,-1.04788 1.18984,-2.55601 1.18984,-3.35141 0,-1.97665 3.76354,-3.02209 5.54799,-1.54113 2.23741,1.85688 1.8024,6.60134 -0.7705,8.40347 -2.81196,1.96957 -4.19475,1.96378 -5.84488,-0.0245 z"
       style="fill:#89c634" />
    <path
       id="path9406"
       d="m 416,492.26178 c -4.46052,-0.53289 -7,-2.8253 -7,-6.31894 0,-2.17595 0.64777,-2.973 3.11524,-3.83317 2.83496,-0.98827 3.0614,-1.37944 2.51684,-4.34782 -0.32912,-1.79402 -1.02215,-7.21236 -1.54007,-12.04076 -1.14358,-10.66119 -3.25146,-14.81585 -8.13308,-16.03033 -13.34914,-3.32108 -31.22283,-10.53606 -26.36889,-10.6442 1.14952,-0.0256 5.42452,0.7956 9.5,1.82491 24.24344,6.12294 50.62383,1.36113 70.9839,-12.813 7.7822,-5.41776 16.71248,-15.825 24.46121,-28.50677 2.75153,-4.50322 4.2206,-8.71612 6.04706,-17.34127 1.32692,-6.26613 2.68389,-11.83197 3.01549,-12.36852 C 493.45439,368.45577 494.1051,352 493.30323,352 c -0.36551,0 -3.84577,2.19097 -7.7339,4.86881 -8.9008,6.13019 -20.24764,11.13268 -25.23694,11.12624 -2.10782,-0.003 -5.97287,0.76225 -8.58901,1.69993 -4.27819,1.53339 -6.11171,1.58247 -18.22947,0.488 -7.41007,-0.66928 -14.63639,-1.65925 -16.05848,-2.19993 C 416.03333,367.44237 413.84384,367 412.58989,367 c -3.27914,0 -5.97372,-3.33456 -5.1966,-6.43084 1.03477,-4.12286 3.38938,-4.68391 15.30729,-3.6474 22.31803,1.94101 40.16406,0.14974 50.478,-5.06666 5.47589,-2.7695 7.61134,-4.6256 11.85825,-10.30696 6.87134,-9.19225 7.47487,-10.64151 6.08817,-14.61941 -0.61875,-1.77495 -1.125,-5.43237 -1.125,-8.12761 0,-2.69524 -0.63307,-6.12467 -1.40683,-7.62095 -0.77376,-1.49629 -1.86509,-5.19946 -2.42519,-8.22929 -0.56009,-3.02982 -3.07701,-11.55725 -5.59316,-18.94985 -2.51615,-7.39259 -4.58588,-14.35457 -4.59941,-15.47106 -0.0135,-1.11648 -0.90608,-4.66476 -1.98346,-7.88506 -1.12284,-3.35618 -1.91155,-8.2643 -1.848,-11.5 0.061,-3.1047 -0.43138,-9.45573 -1.09413,-14.11341 -0.66275,-4.65767 -1.37172,-16.13267 -1.57548,-25.5 -0.44164,-20.30318 -1.37507,-37.56186 -2.09447,-38.72588 -0.28577,-0.46239 -0.72172,-3.06504 -0.96878,-5.78367 -0.61226,-6.73743 -4.67383,-18.36657 -7.88513,-22.57681 -1.45301,-1.90498 -4.52825,-4.47195 -6.83389,-5.70437 L 447.5,134.5 l 3.57848,-0.30014 c 4.61572,-0.38714 12.61193,2.63901 21.42152,8.10691 6.81994,4.23297 15.96208,14.26042 20.16914,22.12228 3.27972,6.12892 8.10123,31.42565 8.87633,46.57095 0.29315,5.72821 1.97806,16.97062 3.44702,23 0.46899,1.925 1.52933,7.1 2.3563,11.5 2.16667,11.5281 5.27393,20.33276 8.6469,24.50171 1.11323,1.37594 3.54799,7.03577 5.41057,12.57741 3.93139,11.69687 7.16997,19.1867 9.37937,21.69159 0.85901,0.97389 2.11506,4.34889 2.79122,7.5 0.67617,3.15111 2.62299,11.0472 4.32627,17.54687 1.70328,6.49967 3.10762,14.37467 3.12074,17.5 0.0131,3.12533 0.42949,7.43093 0.92526,9.56799 1.54418,6.65626 -2.17891,31.88602 -5.91958,40.11443 -0.50007,1.1 -2.50281,5.71501 -4.45053,10.25558 -6.60887,15.4067 -15.05708,23.77465 -34.48353,34.15597 -13.52179,7.22592 -24.42799,10.7831 -36.34548,11.85446 l -4.75,0.42702 0,4.28136 c 0,2.35475 0.6311,5.79882 1.40244,7.65349 0.77135,1.85466 1.71007,6.07212 2.08605,9.37212 0.37598,3.3 1.0847,7.55702 1.57494,9.46004 0.66601,2.58531 0.51202,4.03896 -0.6091,5.75 C 459.13033,491.73072 458.14188,492 452.04838,492 444.76076,492 442,490.64028 442,487.05102 c 0,-2.16675 1.47969,-3.44853 5.5,-4.76436 3.45325,-1.13024 3.42771,-0.81202 1.28833,-16.0494 -1.09353,-7.78852 -1.89575,-10.59533 -3.3275,-11.64225 -1.86511,-1.3638 -20.45792,-2.78826 -23.30028,-1.78511 -1.87604,0.66211 -0.49906,10.11141 3.8165,26.1901 2.41546,8.9994 2.40176,10.62126 -0.10454,12.37674 -2.3016,1.61211 -3.15005,1.68817 -9.87251,0.88504 z M 356.69094,351.27805 c -2.90112,-0.43613 -4.62619,-2.80256 -3.07372,-4.2165 0.48553,-0.4422 3.65867,-1.07623 7.05143,-1.40894 5.11859,-0.50196 6.55999,-0.28806 8.46757,1.25661 4.81774,3.90117 -1.29113,6.04564 -12.44528,4.36883 z m -39.09823,-6.44077 c -5.79676,-6.77221 -5.56352,-11.87986 0.99506,-21.79054 2.31811,-3.50291 10.16733,-9.62497 11.11953,-8.67277 0.23916,0.23916 -0.90952,3.06536 -2.55262,6.28043 -2.83624,5.54971 -2.97904,6.41507 -2.82107,17.09586 0.19429,13.13636 -0.73059,14.10872 -6.7409,7.08702 z m 63.04551,-8.61363 C 379.70169,334.70831 382.48046,328 384.04469,328 c 2.17988,0 3.95531,2.01993 3.95531,4.5 0,1.155 -0.54,2.64 -1.2,3.3 -1.34161,1.34161 -5.4211,1.6221 -6.16178,0.42365 z m -42.70561,-1.80485 c -1.02914,-1.24003 -1.05555,-1.99229 -0.12245,-3.48643 0.65441,-1.04788 1.18984,-2.55601 1.18984,-3.35141 0,-1.97665 3.76354,-3.02209 5.54799,-1.54113 2.23741,1.85688 1.8024,6.60134 -0.7705,8.40347 -2.81196,1.96957 -4.19475,1.96378 -5.84488,-0.0245 z"
       style="fill:#739a41" />
    <path
       id="path9404"
       d="m 416,492.26178 c -4.46052,-0.53289 -7,-2.8253 -7,-6.31894 0,-2.17595 0.64777,-2.973 3.11524,-3.83317 2.83496,-0.98827 3.0614,-1.37944 2.51684,-4.34782 -0.32912,-1.79402 -1.02215,-7.21236 -1.54007,-12.04076 -1.14196,-10.64608 -3.25018,-14.80686 -8.13308,-16.05138 -9.2774,-2.36456 -16.87399,-4.89186 -18.5749,-6.17966 -1.80621,-1.36753 -1.78838,-1.42776 0.43171,-1.45825 1.27366,-0.0175 3.28933,0.48925 4.47928,1.12609 3.58952,1.92105 28.87676,2.30495 34.47455,0.52337 2.60174,-0.82805 6.53043,-1.96351 8.73043,-2.52327 8.08667,-2.05752 16.09041,-5.37171 19.5,-8.07457 1.925,-1.52599 4.93566,-3.5167 6.69036,-4.42381 3.13342,-1.61985 13.77005,-13.2514 19.94632,-21.81202 5.51076,-7.6382 8.40316,-14.67944 10.33322,-25.15515 1.03283,-5.60584 2.30048,-11.31744 2.81701,-12.69244 1.13346,-3.01726 1.38062,-17.77843 0.30878,-18.44086 -0.41836,-0.25856 -3.67597,1.64736 -7.23915,4.23538 -3.56319,2.58801 -7.57607,5.19001 -8.91753,5.78221 -1.34145,0.59221 -4.54573,2.10091 -7.12061,3.35268 -2.57489,1.25177 -7.97489,2.65412 -12,3.11634 -4.02512,0.46222 -8.79362,1.36448 -10.59667,2.00501 -3.35729,1.19267 -9.66647,0.68812 -30.04344,-2.40258 -10.02951,-1.52124 -12.65832,-4.09381 -8.2552,-8.07858 1.73865,-1.57346 2.76964,-1.62899 10.75,-0.57901 13.71171,1.80405 27.63212,2.22815 30.92352,0.94213 1.59687,-0.62393 5.60339,-1.48707 8.90339,-1.91809 3.37287,-0.44054 9.03921,-2.25904 12.94113,-4.15319 5.79264,-2.81198 7.83517,-4.52706 12.3445,-10.36547 2.97186,-3.84778 5.79141,-7.98663 6.26567,-9.19744 0.99898,-2.55042 -1.29935,-22.02498 -2.96708,-25.14116 -0.59632,-1.11424 -1.08222,-2.84297 -1.07977,-3.84163 0.005,-2.06831 -4.014,-15.6565 -7.4878,-25.31574 -3.7008,-10.29044 -6.79954,-23.93191 -7.04182,-31 -0.12255,-3.575 -0.73256,-11.225 -1.35558,-17 -0.62303,-5.775 -1.0653,-12.75 -0.98282,-15.5 0.28596,-9.53531 -1.13114,-34.0011 -2.63249,-45.44916 -2.2389,-17.07197 -4.82782,-24.04911 -11.43339,-30.81302 l -5.42946,-5.5596 3.36683,0.67336 c 4.50456,0.90092 12.22913,4.51889 19.20008,8.99279 5.29208,3.39642 15.08555,14.65309 18.74167,21.54178 3.00733,5.66628 7.85738,31.68531 8.5958,46.11385 0.29315,5.72821 1.97806,16.97062 3.44702,23 0.46899,1.925 1.52933,7.1 2.3563,11.5 2.16667,11.5281 5.27393,20.33276 8.6469,24.50171 1.11323,1.37594 3.54799,7.03577 5.41057,12.57741 3.93139,11.69687 7.16997,19.1867 9.37937,21.69159 0.85901,0.97389 2.11506,4.34889 2.79122,7.5 0.67617,3.15111 2.62299,11.0472 4.32627,17.54687 1.70328,6.49967 3.10762,14.37467 3.12074,17.5 0.0131,3.12533 0.42949,7.43093 0.92526,9.56799 1.54418,6.65626 -2.17891,31.88602 -5.91958,40.11443 -0.50007,1.1 -2.50281,5.71501 -4.45053,10.25558 -6.60887,15.4067 -15.05708,23.77465 -34.48353,34.15597 -13.52179,7.22592 -24.42799,10.7831 -36.34548,11.85446 l -4.75,0.42702 0,4.28136 c 0,2.35475 0.6311,5.79882 1.40244,7.65349 0.77135,1.85466 1.71007,6.07212 2.08605,9.37212 0.37598,3.3 1.0847,7.55702 1.57494,9.46004 0.66601,2.58531 0.51202,4.03896 -0.6091,5.75 C 459.13033,491.73072 458.14188,492 452.04838,492 444.76076,492 442,490.64028 442,487.05102 c 0,-2.16675 1.47969,-3.44853 5.5,-4.76436 3.45325,-1.13024 3.42771,-0.81202 1.28833,-16.0494 -1.09353,-7.78852 -1.89575,-10.59533 -3.3275,-11.64225 -1.86511,-1.3638 -20.45792,-2.78826 -23.30028,-1.78511 -1.87604,0.66211 -0.49906,10.11141 3.8165,26.1901 2.41546,8.9994 2.40176,10.62126 -0.10454,12.37674 -2.3016,1.61211 -3.15005,1.68817 -9.87251,0.88504 z M 356.25,350.29427 c -1.2375,-0.23836 -2.25,-1.02459 -2.25,-1.74719 0,-1.5936 3.11319,-2.51511 8.55887,-2.53343 4.43855,-0.0149 8.16027,2.01374 7.03489,3.83465 -0.68578,1.10961 -8.53604,1.37198 -13.34376,0.44597 z m -38.65729,-5.45699 c -5.81925,-6.79849 -5.56959,-11.87069 1.07877,-21.91704 2.17563,-3.28759 9.32852,-8.90392 9.32852,-7.32459 0,0.29051 -1.09402,2.86283 -2.43117,5.71628 -2.17091,4.63271 -2.41177,6.39238 -2.25,16.43843 0.12944,8.03792 -0.15351,11.25026 -0.99091,11.25 -0.64464,-2e-4 -2.77549,-1.87359 -4.73521,-4.16308 z m 63.04551,-8.61363 C 379.70169,334.70831 382.48046,328 384.04469,328 c 2.17988,0 3.95531,2.01993 3.95531,4.5 0,1.155 -0.54,2.64 -1.2,3.3 -1.34161,1.34161 -5.4211,1.6221 -6.16178,0.42365 z m -42.70561,-1.80485 c -1.02914,-1.24003 -1.05555,-1.99229 -0.12245,-3.48643 0.65441,-1.04788 1.18984,-2.55601 1.18984,-3.35141 0,-1.97665 3.76354,-3.02209 5.54799,-1.54113 2.23741,1.85688 1.8024,6.60134 -0.7705,8.40347 -2.81196,1.96957 -4.19475,1.96378 -5.84488,-0.0245 z"
       style="fill:#58594b" />
    <path
       id="path9402"
       d="m 412.81471,490.59494 c -3.37499,-1.68261 -3.25079,-6.78019 0.18529,-7.60457 2.87661,-0.69016 2.916,-1.28873 1.13619,-17.26183 -1.53556,-13.78095 -2.94198,-15.92363 -11.63686,-17.72868 C 399.4747,447.37195 397,446.50505 397,446.07342 c 0,-0.43163 5.7375,-0.67955 12.75,-0.55093 8.63968,0.15847 13.71713,-0.1803 15.75,-1.05084 1.65,-0.70659 4.95379,-1.56369 7.34177,-1.90467 2.38797,-0.34098 6.08254,-1.50804 8.21016,-2.59347 2.12762,-1.08543 4.75185,-1.97351 5.83164,-1.97351 1.07978,0 3.98784,-1.54541 6.46235,-3.43425 2.47452,-1.88884 5.77149,-4.10354 7.3266,-4.92155 1.55511,-0.81801 4.89876,-3.66009 7.43033,-6.31574 14.63638,-15.35379 21.9047,-27.90607 23.93098,-41.32846 0.70575,-4.675 1.83692,-9.85 2.51372,-11.5 0.67679,-1.65 1.39297,-7.05 1.59149,-12 0.33612,-8.38057 0.22331,-9.01929 -1.63904,-9.28026 -1.11853,-0.15674 -4.35839,1.49622 -7.35101,3.75045 -16.86984,12.70741 -35.88642,16.75617 -62.54231,13.3157 -10.75097,-1.38763 -14.1398,-2.18395 -14.98305,-3.52079 -0.84038,-1.33227 -0.70118,-2.11612 0.60833,-3.42564 1.5304,-1.53039 2.36801,-1.57048 8.48305,-0.40599 11.6201,2.21282 28.96687,2.55112 35.21649,0.6868 2.98733,-0.89115 6.71556,-1.62027 8.28496,-1.62027 4.7659,0 17.71102,-6.12675 20.64761,-9.77224 1.44976,-1.79973 4.0176,-4.94973 5.7063,-7 4.92524,-5.97978 5.82468,-9.19821 4.56659,-16.34048 -0.59695,-3.38896 -0.85951,-6.52719 -0.58346,-6.97384 0.27604,-0.44665 -0.41057,-3.5207 -1.5258,-6.83122 C 489.91246,307.7717 489,304.31594 489,303.40276 c 0,-1.94663 -4.17707,-15.27915 -7.51483,-23.98608 -1.2826,-3.34582 -2.635,-7.84582 -3.00532,-10 -0.37033,-2.15417 -1.56156,-6.99686 -2.64718,-10.76153 -1.08562,-3.76466 -1.71858,-7.51009 -1.40657,-8.32317 0.31201,-0.81308 -0.0914,-7.6329 -0.89653,-15.15515 C 472.72446,227.65457 472.09578,219.025 472.1325,216 472.44806,190.00073 468.51394,154.63724 464.85131,150.55 464.38309,150.0275 464,148.84878 464,147.93063 c 0,-0.91816 -1.83828,-3.97816 -4.08507,-6.8 -4.44803,-5.5865 -3.84316,-6.18482 3.08507,-3.05168 14.89477,6.73584 29.11044,22.06846 31.44997,33.92105 0.37997,1.925 1.32066,5.525 2.09042,8 0.76976,2.475 1.6769,8.09329 2.01586,12.48509 0.33897,4.39181 0.79578,8.27549 1.01513,8.63041 0.21936,0.35493 0.87472,5.53663 1.45635,11.51491 0.58164,5.97827 1.45637,13.11959 1.94385,15.86959 3.09732,17.4728 4.21292,22.54311 5.9407,27 1.06607,2.75 2.22244,6.41584 2.5697,8.14631 0.34726,1.73047 1.48648,3.92016 2.53159,4.86597 1.76912,1.60103 5.16023,9.60392 8.04578,18.98772 1.69588,5.51501 5.80559,14.3983 8.09159,17.49029 1.04504,1.41349 2.28117,4.80642 2.74695,7.53985 0.46578,2.73342 2.25431,10.03986 3.9745,16.23654 1.79033,6.44935 3.13806,13.71809 3.15206,17 0.0134,3.15332 0.46186,7.62871 0.99649,9.94529 1.22825,5.32214 -0.24737,20.35671 -3.06477,31.22581 -5.66854,21.86831 -16.38259,38.49631 -30.45617,47.26737 -8.55735,5.33318 -25.20824,13.49113 -29.00743,14.21191 -2.19591,0.41661 -6.01757,1.19695 -8.49257,1.73409 -2.475,0.53714 -6.75,1.28537 -9.5,1.66273 l -5,0.68612 -0.30266,4.69783 c -0.17416,2.70331 0.307,5.88752 1.13333,7.5 0.78979,1.54119 1.96714,6.82899 2.61632,11.75066 0.64918,4.92167 1.32384,9.19667 1.49925,9.5 0.17542,0.30333 -0.0637,1.56401 -0.53143,2.80151 -0.7688,2.03421 -1.51307,2.25 -7.76014,2.25 -4.82047,0 -7.27414,-0.43903 -8.1148,-1.45196 -1.88414,-2.27025 -0.82412,-4.79067 2.46013,-5.84945 4.58284,-1.47741 5.73493,-2.76101 5.06018,-5.63777 -0.33035,-1.40845 -1.23104,-7.00925 -2.00152,-12.44622 -0.87813,-6.19655 -2.00332,-10.48791 -3.01527,-11.5 -1.16939,-1.16954 -4.42998,-1.79524 -11.82889,-2.26994 -5.61798,-0.36043 -11.26647,-0.41424 -12.55222,-0.11957 -2.13223,0.48866 -2.29375,0.94182 -1.83752,5.15533 0.54179,5.00366 2.68508,15.19582 5.13489,24.41837 1.89446,7.13187 1.89451,7.2042 0.006,9.0926 -1.80684,1.80684 -9.19669,1.92574 -12.65105,0.20355 z M 318.94989,344.784 c -6.03144,-6.60358 -5.97847,-11.13662 0.23823,-20.38931 4.78621,-7.12361 8.63812,-8.82693 5.2812,-2.33535 -1.24854,2.41439 -1.71543,6.1502 -1.82374,14.59246 -0.0801,6.241 -0.28345,11.34748 -0.45195,11.34773 -0.1685,2.6e-4 -1.62819,-1.44673 -3.24374,-3.21553 z"
       style="fill:#47493a" />
    <path
       id="path9400"
       d="m 411.44703,488.94146 c -2.13876,-2.36329 -1.08241,-5.19397 2.16015,-5.78852 3.32927,-0.61046 3.5824,-1.76922 1.87431,-8.58007 -0.92034,-3.66976 -1.42065,-7.67915 -1.11179,-8.90975 0.58455,-2.32903 -1.34082,-10.9991 -3.17009,-14.27513 -0.65491,-1.17287 -3.40119,-2.48612 -7.25046,-3.46712 l -6.19624,-1.57912 12.87354,-0.006 c 7.08045,-0.004 14.22355,-0.49393 15.87355,-1.08978 1.65,-0.59585 5.25,-1.58069 8,-2.18852 2.75,-0.60784 6.35,-1.74597 8,-2.52917 1.65,-0.78321 4.22925,-1.67888 5.73166,-1.99038 1.50241,-0.31151 4.20241,-1.84747 6,-3.41326 1.79759,-1.56578 4.84334,-3.63994 6.76834,-4.60925 3.85079,-1.939 15.32543,-13.48745 17.53103,-17.64379 0.76725,-1.44585 2.0336,-2.87387 2.81412,-3.17339 0.78052,-0.29951 3.66889,-4.96654 6.41862,-10.37118 4.21984,-8.29419 5.09243,-10.97874 5.59547,-17.21464 0.34204,-4.24006 1.45771,-9.16811 2.61837,-11.56572 1.11232,-2.29774 2.02239,-5.17508 2.02239,-6.39409 0,-1.21902 0.63475,-3.73556 1.41055,-5.59231 1.30227,-3.11678 1.22551,-3.74142 -1,-8.13736 C 497.08475,347.80411 496,344.8219 496,343.79576 c 0,-1.02614 -0.72849,-2.97753 -1.61888,-4.33642 -1.31049,-2.00007 -1.40236,-2.99345 -0.48226,-5.21482 1.46193,-3.52954 -0.0676,-19.34487 -2.40263,-24.84368 -0.91098,-2.14523 -1.81376,-5.25042 -2.0062,-6.90042 -0.19243,-1.65 -1.09932,-5.475 -2.01531,-8.5 -0.91598,-3.025 -1.87699,-6.85 -2.13556,-8.5 -0.25857,-1.65 -1.38266,-4.71101 -2.49799,-6.80224 -1.11532,-2.09123 -2.38704,-6.14123 -2.82603,-9 -0.439,-2.85877 -1.76325,-7.67276 -2.94278,-10.69776 -1.29511,-3.32142 -1.94112,-6.68832 -1.63091,-8.5 0.28253,-1.65 -0.1705,-8.625 -1.00674,-15.5 -0.83623,-6.875 -1.45828,-13.0625 -1.38233,-13.75 0.72686,-6.5793 -0.89383,-39.67444 -2.5092,-51.23915 -2.10886,-15.09768 -4.54022,-22.1158 -10.36127,-29.90785 -1.27496,-1.70665 -1.8225,-3.103 -1.21676,-3.103 1.55288,0 9.6291,4.27026 15.48588,8.18807 5.02953,3.36445 14.3151,14.44636 17.43837,20.81193 3.33181,6.79059 8.1106,32.58683 8.1106,43.78159 0,2.29779 0.69598,7.89943 1.54663,12.4481 4.77328,25.52424 5.82271,30.54392 6.95557,33.27031 0.6856,1.65 1.74916,4.83913 2.36347,7.08695 0.6143,2.24782 1.99754,5.10232 3.07386,6.34332 1.90865,2.2007 6.27822,12.8786 7.47114,18.25723 0.81996,3.69703 6.46743,15.78969 8.73197,18.69736 1.02155,1.31167 1.85736,3.3511 1.85736,4.53207 0,2.0291 1.13609,6.58895 4.50541,18.08307 2.15707,7.35862 4.00389,24.51634 3.92878,36.5 -0.15,23.93383 -11.28071,50.98929 -26.14374,63.54764 -8.72159,7.36922 -28.43189,17.73551 -36.93613,19.42591 -3.21988,0.64002 -7.48153,1.5828 -9.47034,2.09506 -1.98881,0.51227 -5.21917,0.93139 -7.17857,0.93139 -6.72228,0 -7.91273,4.43642 -4.15919,15.5 0.74639,2.2 1.85089,7.97731 2.45444,12.83848 1.35602,10.92166 0.91591,11.6674 -6.8731,11.64621 -6.04005,-0.0164 -7.42484,-0.5382 -8.39106,-3.16158 -0.73146,-1.98598 0.74398,-3.40363 4.53187,-4.35433 3.458,-0.8679 4.73669,-3.07141 3.70983,-6.393 -0.43796,-1.41668 -1.31923,-6.17578 -1.95838,-10.57578 -0.63915,-4.4 -1.3616,-9.00432 -1.60544,-10.23181 -0.72819,-3.66567 -4.90343,-4.91348 -17.13959,-5.12231 l -11.22522,-0.19158 -0.65221,2.59864 c -0.37133,1.4795 0.0487,4.76877 0.97521,7.63768 0.89509,2.77148 1.64104,5.99987 1.65768,7.17421 0.0166,1.17435 1.08005,6.01365 2.36315,10.75401 2.95115,10.90292 2.51575,11.88116 -5.2881,11.88116 -4.58026,0 -6.18592,-0.4316 -7.65827,-2.05854 z M 317.51254,342.01987 C 316.13065,339.8308 315,336.86642 315,335.43236 c 0,-3.10027 6.43125,-15.00013 8.54519,-15.81133 1.27188,-0.48806 1.25989,-0.14478 -0.0858,2.45748 -1.08009,2.08866 -1.62116,6.2584 -1.74831,13.47314 C 321.60982,341.29824 321.18904,346 320.77603,346 c -0.41302,0 -1.88159,-1.79106 -3.26349,-3.98013 z"
       style="fill:#403e38" />
    <path
       id="path9398"
       d="m 412.75,489.9199 c -0.9625,-0.5606 -1.75,-2.06567 -1.75,-3.34459 0,-1.80538 0.7002,-2.46535 3.13149,-2.95161 3.05541,-0.61108 3.11569,-0.72953 2.48089,-4.875 -0.35783,-2.33678 -1.07881,-8.39406 -1.60216,-13.46062 C 414.02915,455.79042 411.93708,449 409.99201,449 c -0.61052,0 -0.83193,-0.45 -0.49201,-1 0.95482,-1.54493 5.21641,-1.18142 5.86163,0.5 0.31658,0.825 1.22308,1.5 2.01444,1.5 1.00322,0 1.59581,1.58943 1.95734,5.25 0.56001,5.67021 2.50628,15.28712 5.25348,25.95843 1.41215,5.48541 1.49375,6.98948 0.44761,8.25 -1.47193,1.77356 -9.51315,2.07563 -12.2845,0.46147 z M 450,490.087 c -4.64143,-0.49537 -5.5478,-0.9223 -5.80618,-2.73494 -0.24824,-1.74155 0.50856,-2.42222 4,-3.59762 4.83191,-1.62666 4.80039,-1.48813 2.90238,-12.75444 -0.60227,-3.575 -1.36313,-8.74713 -1.69081,-11.49361 -0.32768,-2.74649 -1.0394,-5.82253 -1.5816,-6.83565 -0.54221,-1.01312 -0.83687,-1.94922 -0.65481,-2.08022 4.91398,-3.53595 6.81569,-4.40729 8.60034,-3.94059 1.15585,0.30226 2.69309,0.0393 3.41611,-0.58429 0.72301,-0.62362 2.21457,-1.82177 3.31457,-2.66257 1.4023,-1.07186 1.62644,-1.68427 0.75,-2.04922 C 461.5278,440.63671 461.67137,438 463.43261,438 c 0.78794,0 1.72613,0.92477 2.08486,2.05505 0.81726,2.57495 2.44169,2.08579 4.43937,-1.33682 0.84874,-1.45413 2.82817,-3.63064 4.39875,-4.83669 2.39146,-1.83641 2.76973,-2.72186 2.32736,-5.44787 -0.63245,-3.89734 -0.0484,-4.69961 2.44853,-3.3633 2.25772,1.20829 2.35414,2.30115 0.37745,4.27784 -1.77122,1.77122 -0.97754,7.65179 1.03274,7.65179 1.76118,0 2.35781,-2.15061 1.14229,-4.11753 -1.90312,-3.0796 -0.18781,-4.75974 4.25146,-4.16431 2.45984,0.32994 4.06458,0.14118 4.06458,-0.47808 0,-0.5628 1.125,-1.30562 2.5,-1.65072 1.375,-0.34511 2.5,-1.29389 2.5,-2.10841 0,-1.42463 1.12126,-1.89432 3.72651,-1.56099 1.52603,0.19525 6.52734,-2.99944 5.81337,-3.71341 -0.28739,-0.28739 0.0139,-1.16887 0.66951,-1.95884 0.95698,-1.1531 0.72973,-1.78503 -1.1525,-3.2048 -2.97249,-2.24215 -1.87313,-4.3811 1.83334,-3.56702 3.38131,0.74266 12.10977,-2.93485 12.10977,-5.10214 0,-1.18271 -0.68498,-1.38221 -3,-0.87375 -3.53506,0.77643 -3.85218,-0.52468 -1.5,-6.15424 0.825,-1.97451 1.53046,-4.54755 1.56768,-5.71788 0.0669,-2.10236 0.0807,-2.10089 1.15281,0.12212 1.26737,2.62784 3.34577,3.08809 2.2579,0.5 -0.40457,-0.9625 -0.96153,-2.79573 -1.23768,-4.07385 -0.4007,-1.85454 -0.12229,-2.25845 1.3786,-2 1.36171,0.23448 1.97484,-0.36603 2.22187,-2.17615 0.18764,-1.375 0.97612,-3.21152 1.75218,-4.08115 1.58058,-1.77118 0.93317,-2.91885 -1.64653,-2.91885 -2.77932,0 -3.18432,-5.97419 -0.5538,-8.16917 2.01909,-1.6848 2.16419,-1.67623 3.47894,0.20552 1.93874,2.77484 3.82134,2.43571 4.36526,-0.78635 0.25533,-1.5125 0.64391,-3.35438 0.8635,-4.09306 0.2196,-0.73868 -0.41459,-1.86368 -1.4093,-2.5 -1.45549,-0.93108 -2.06269,-0.8153 -3.11024,0.59306 -1.39102,1.87012 -4.10433,2.3306 -5.01836,0.85167 -0.30536,-0.49408 0.79309,-2.34167 2.44099,-4.10576 3.51263,-3.76028 3.98897,-6.48879 0.99618,-5.70616 -1.66121,0.43441 -2,0.0307 -2,-2.38337 0,-1.91678 0.51074,-2.90638 1.5,-2.90638 1.67158,0 2.06417,-3.53329 0.5,-4.5 -0.55,-0.33992 -1,0.058 -1,0.88428 0,1.69134 -3.90623,4.79171 -5.10429,4.05127 -0.42809,-0.26458 -0.63944,-2.83331 -0.46965,-5.7083 0.23969,-4.05881 0.7056,-5.30568 2.08433,-5.57812 1.37136,-0.27098 1.65061,0.12722 1.2265,1.74901 -0.94305,3.60621 0.96736,3.2683 3.23311,-0.57187 1.91719,-3.24939 1.98582,-3.77149 0.5979,-4.54821 C 522.70556,334.29547 522,333.09272 522,332.1053 c 0,-2.031 -3.66399,-5.77464 -4.66857,-4.77006 -0.36097,0.36097 -0.1275,1.81693 0.51883,3.23547 0.64633,1.41854 0.91787,2.99544 0.60343,3.50423 -1.03775,1.6791 -3.45369,0.96192 -3.45369,-1.02525 0,-1.07267 -0.5625,-2.31017 -1.25,-2.75 -0.6875,-0.43983 -1.81631,-1.81219 -2.50847,-3.04969 -1.05999,-1.89513 -1.02056,-2.25 0.25,-2.25 2.12568,0 1.93452,-4.66023 -0.24153,-5.88803 -1.40166,-0.79087 -1.50119,-1.23867 -0.5,-2.24969 0.6875,-0.69425 1.25,-2.74728 1.25,-4.56228 0,-3.38666 1.58149,-4.31851 3.7125,-2.1875 1.86283,1.86283 3.5587,0.64064 2.02377,-1.4585 -0.86432,-1.18203 -2.81032,-1.89886 -5.53506,-2.03891 -4.40316,-0.22632 -6.875,-1.71586 -5.78205,-3.48428 0.35469,-0.57391 1.30548,-0.78997 2.11287,-0.48015 0.81881,0.31421 1.46797,-0.002 1.46797,-0.71493 0,-0.70304 0.75166,-2.10882 1.67035,-3.12396 1.56814,-1.73278 1.53871,-1.96834 -0.48093,-3.84993 -1.1832,-1.10231 -3.58374,-2.2907 -5.33454,-2.64086 l -3.18326,-0.63666 2.16419,-1.75245 c 2.43183,-1.96918 2.8951,-4.93187 0.77118,-4.93187 -0.76616,0 -1.66616,-0.7118 -2,-1.58179 C 502.74931,281.18315 502.81695,281 504.5,281 c 1.95333,0 1.92697,-2.40075 -0.0443,-4.03678 -1.2907,-1.07118 -1.79159,-0.92865 -3.04994,0.86789 -1.4084,2.01077 -1.66016,2.04829 -3.89931,0.58114 -2.1482,-1.40755 -2.33392,-2.07321 -1.81078,-6.49033 0.5282,-4.45982 0.39382,-4.92192 -1.43136,-4.92192 -1.46073,0 -2.18796,-0.86835 -2.64623,-3.15972 -0.8439,-4.21949 -0.23381,-4.54694 2.80671,-1.50642 l 2.54598,2.54598 1.54419,-2.18992 c 1.47358,-2.08978 1.41709,-2.20332 -1.23537,-2.48292 -5.29632,-0.55828 -5.7737,-1.05212 -3.42937,-3.54755 2.26491,-2.41089 3.01163,-9.00878 1.1498,-10.15945 -0.55,-0.33992 -1.00689,-1.60398 -1.01531,-2.80902 -0.008,-1.20504 -0.44469,-2.86598 -0.96949,-3.69098 -0.80002,-1.25766 -1.29232,-1.29037 -3.04724,-0.20246 -2.70305,1.67568 -6.34131,0.61777 -5.4915,-1.59679 0.39371,-1.026 -0.22048,-2.25681 -1.67768,-3.36194 -2.18315,-1.6557 -2.21146,-1.83131 -0.56267,-3.4915 1.65183,-1.66324 1.88883,-1.60487 4.88164,1.20229 l 3.14553,2.9504 -0.69238,-3 c -0.3808,-1.65 -0.78054,-3.9 -0.88829,-5 -0.10775,-1.1 -0.64055,-2.675 -1.18399,-3.5 -2.61449,-3.96907 -3.43549,-6.40334 -2.89114,-8.57223 0.37286,-1.48559 0.0136,-2.94955 -0.96368,-3.92683 -2.57051,-2.57051 -0.63801,-6.00094 3.38057,-6.00094 1.80933,0 3.46102,-0.50097 3.67042,-1.11327 0.49965,-1.46104 -7.54077,-2.53952 -9.82379,-1.31769 -3.00568,1.60859 -5.871,1.11927 -5.871,-1.00262 0,-1.36598 0.80725,-2.02646 2.75,-2.25 2.14908,-0.24728 2.99258,-1.08122 3.86011,-3.81642 0.83108,-2.62023 1.89937,-3.7405 4.25,-4.4568 4.49365,-1.36932 3.9806,-3.30888 -0.84181,-3.18243 -2.41204,0.0633 -4.60322,-0.51712 -5.5583,-1.4722 -1.43548,-1.43548 -1.38705,-1.89789 0.54099,-5.16567 l 2.1176,-3.58907 -2.04749,-1.09578 c -1.12612,-0.60268 -2.33985,-2.32029 -2.69718,-3.81691 -0.35733,-1.49663 -1.10442,-3.29771 -1.66019,-4.0024 -0.70963,-0.89976 -0.55771,-1.64413 0.51022,-2.5 0.8364,-0.67031 1.76825,-2.25877 2.07077,-3.52991 0.70472,-2.96114 -1.89249,-4.12118 -3.69816,-1.65178 -0.88449,1.20962 -1.91804,1.55356 -3.19543,1.06338 -1.77528,-0.68124 -1.74546,-0.8321 0.49922,-2.52526 2.70428,-2.03985 1.99911,-4.54365 -1.05476,-3.74504 -1.49964,0.39216 -2.05749,-0.13962 -2.50766,-2.39046 -0.31843,-1.59215 -1.19973,-3.41001 -1.95844,-4.03969 C 465.62077,149.2703 465,147.97695 465,147.02587 c 0,-0.95108 -1.43451,-3.23031 -3.18779,-5.06496 -3.83577,-4.01376 -2.4775,-4.85113 3.18393,-1.96288 8.44776,4.30972 15.34878,9.97023 20.49469,16.8106 5.30627,7.05354 7.0617,10.82545 9.99001,21.46565 1.47895,5.37389 2.02407,9.36476 4.53829,33.22572 1.936,18.37341 6.70203,43.1828 8.80716,45.84534 0.50211,0.63506 1.21451,2.82891 1.58311,4.87522 0.3686,2.04631 1.78248,5.04246 3.14196,6.65811 1.35948,1.61565 4.03437,7.70769 5.94419,13.53788 1.90983,5.83018 4.37962,12.3786 5.48843,14.55205 1.10881,2.17345 2.01602,4.46719 2.01602,5.09721 0,0.63001 1.125,2.48246 2.5,4.11656 1.375,1.63409 2.5,4.21329 2.5,5.73154 0,1.51826 1.36294,7.22123 3.02875,12.67328 1.66582,5.45204 3.48314,14.41281 4.0385,19.91281 0.55536,5.5 1.2626,11.89056 1.57164,14.20124 0.65152,4.87151 -1.03399,19.12204 -3.28796,27.79876 -2.17941,8.38968 -9.31207,25.44152 -12.05801,28.82673 -1.2611,1.55469 -2.29507,3.12969 -2.2977,3.5 -0.006,0.83615 -5.60003,6.81389 -9.5482,10.203 -3.02541,2.59701 -12.61188,8.4743 -17.94702,11.00299 -1.65,0.78205 -4.60308,2.39697 -6.5624,3.58871 C 485.01678,446.00624 474.46384,449 469.97825,449 c -1.57312,0 -3.13833,0.45 -3.47825,1 -0.33992,0.55 -2.78638,1 -5.43657,1 -6.31647,0 -7.52396,1.47069 -6.64536,8.09389 0.37068,2.79434 1.08592,5.82885 1.58943,6.74336 0.50351,0.91451 1.58132,6.1293 2.39515,11.58843 1.48921,9.98962 1.01298,13.7737 -1.68783,13.41132 -0.66815,-0.0896 -3.68982,-0.42714 -6.71482,-0.75 z m -23.75,-39.81624 c -3.93596,-0.48137 -4.12047,-1.6543 -0.62096,-3.94727 2.51119,-1.64539 7.83736,-2.44403 15.33325,-2.29916 4.50135,0.087 5.01432,0.73041 2.24672,2.81801 -1.78533,1.34668 -2.00313,1.96354 -1.03506,2.93161 0.96807,0.96807 0.4475,1.22605 -2.47395,1.22605 -2.05764,0 -3.7,-0.49565 -3.7,-1.11663 0,-0.61415 -0.7875,-0.8902 -1.75,-0.61345 -0.9625,0.27674 -2.425,0.70458 -3.25,0.95075 -0.825,0.24616 -2.9625,0.2687 -4.75,0.0501 z"
       style="fill:#36382f" />
  </g>
</svg>
