<?xml version="1.0" encoding="UTF-8" standalone="no"?>
<svg
   xmlns:dc="http://purl.org/dc/elements/1.1/"
   xmlns:cc="http://creativecommons.org/ns#"
   xmlns:rdf="http://www.w3.org/1999/02/22-rdf-syntax-ns#"
   xmlns:svg="http://www.w3.org/2000/svg"
   xmlns="http://www.w3.org/2000/svg"
   viewBox="0 0 800 600"
   height="600"
   width="800"
   version="1.1"
   id="svg4206">
  <metadata
     id="metadata4212">
    <rdf:RDF>
      <cc:Work
         rdf:about="">
        <dc:format>image/svg+xml</dc:format>
        <dc:type
           rdf:resource="http://purl.org/dc/dcmitype/StillImage" />
        <dc:title></dc:title>
      </cc:Work>
    </rdf:RDF>
  </metadata>
  <defs
     id="defs4210" />
  <g
     id="g4762">
    <path
       id="path4792"
       d="m 477.59739,496.26405 c -0.89934,-0.89933 -28.88356,-1.39039 -73.09739,-1.28269 -17.6,0.0429 -37.175,0.0102 -43.5,-0.0727 -6.325,-0.0829 -12.85,-0.1144 -14.5,-0.0701 -1.65,0.0443 -17.11424,0.12858 -34.36498,0.18729 -31.36198,0.10672 -31.36522,0.10652 -33.79733,-2.17833 -3.36593,-3.16213 -2.90984,-8.3524 0.98841,-11.24818 2.33448,-1.73414 4.11755,-2.07229 10.25,-1.94384 4.08315,0.0855 7.4239,-0.0231 7.4239,-0.24134 0,-0.35278 -3.30568,-5.01732 -8.7977,-12.41416 -3.0762,-4.14313 -6.17956,-19.09642 -6.19475,-29.84887 -0.007,-5.17814 0.51699,-6.83653 5.61187,-17.7508 1.30932,-2.80482 2.38058,-5.80779 2.38058,-6.67328 0,-6.64673 26.50557,-23.81752 37.43174,-24.24896 5.71243,-0.22557 5.46798,0.46634 3.70184,-10.47809 -2.98077,-18.47123 -2.84853,-28.18969 0.6548,-48.1208 l 0.8122,-4.62079 -7.55029,-0.53488 C 320.89763,324.42935 314.575,323.27157 311,322.15069 c -3.575,-1.12088 -10.54053,-3.30082 -15.47896,-4.84432 -10.10113,-3.1571 -20.06364,-9.63575 -21.08694,-13.7129 -1.71628,-6.83821 5.80007,-11.49783 13.22906,-8.20112 3.83648,1.70249 4.44448,2.04883 9.58114,5.45771 2.91544,1.9348 9.92286,4.27396 18.44281,6.15644 5.07882,1.12216 21.90698,1.82176 22.60855,0.93991 1.16236,-1.46105 8.64623,-17.86887 9.09788,-19.94641 0.29892,-1.375 2.14531,-4.92099 4.10309,-7.87998 1.95778,-2.95898 4.47618,-7.68398 5.59643,-10.5 1.12026,-2.81601 3.1494,-7.14502 4.5092,-9.62002 2.44707,-4.45394 4.40762,-8.53979 8.51716,-17.75 1.16569,-2.6125 3.59381,-9.25 5.39582,-14.75 1.80202,-5.5 3.76322,-11.35 4.35821,-13 1.51486,-4.20091 9.65507,-34.46093 11.70187,-43.5 2.26403,-9.99834 6.1226,-17.99312 12.87613,-26.67873 6.62218,-8.51668 9.44603,-10.39662 20.03797,-13.33998 6.81956,-1.89507 9.38202,-2.12199 17.5,-1.54974 12.19915,0.85994 25.2131,3.91555 30.97941,7.27382 11.66618,6.79431 19.38465,14.46982 21.57083,21.45077 0.4037,1.28912 1.77952,3.59461 3.05738,5.1233 1.27786,1.52869 2.63461,4.43845 3.01501,6.46614 0.38039,2.02768 1.52971,5.58132 2.55403,7.89697 1.02433,2.31565 2.50944,8.63089 3.30025,14.03386 0.79082,5.40298 1.9068,12.52359 2.47997,15.82359 0.57316,3.3 1.04472,8.49296 1.04791,11.5399 0.003,3.04695 0.68079,8.1314 1.50579,11.29879 0.825,3.16739 1.5,6.76733 1.5,7.99986 0,3.16975 5.78072,21.28862 8.50618,26.66145 1.25548,2.475 3.86239,6.8441 5.79313,9.70912 1.93073,2.86502 4.51313,8.26502 5.73866,12 1.22554,3.73498 2.63116,7.30243 3.12362,7.92766 1.38215,1.75481 5.82952,10.74791 5.83422,11.7975 0.002,0.51385 0.8661,2.76385 1.91955,5 7.67671,16.29526 9.25562,25.74496 8.53235,51.06572 -0.4947,17.31876 -0.75354,19.44243 -2.92523,24 -1.31038,2.75 -2.66854,6.73626 -3.01813,8.85836 -0.65033,3.94759 -2.67632,9.03754 -7.35719,18.48368 -4.28775,8.6528 -24.25309,26.26096 -33.59837,29.63162 -1.67684,0.6048 -4.39879,1.81364 -6.04879,2.6863 -1.65,0.87267 -4.125,1.92772 -5.5,2.34455 -1.375,0.41684 -3.625,1.53401 -5,2.4826 -1.375,0.9486 -5.05225,2.01435 -8.17167,2.36834 -3.11942,0.35398 -7.91029,1.16034 -10.64637,1.79191 l -4.97469,1.14829 -0.69241,7.38901 c -0.38082,4.06396 -0.4007,9.50994 -0.0442,12.10218 l 0.64823,4.71316 5.69054,0.0566 c 3.1298,0.0311 7.26555,0.1854 9.19055,0.34281 1.925,0.15742 8.70542,-0.0434 15.06759,-0.44622 l 11.5676,-0.73243 2.1824,2.77448 c 2.17447,2.76438 2.72992,5.91439 1.57405,8.92654 -0.99408,2.59054 -10.35255,4.71401 -19.58454,4.4438 -4.5689,-0.13373 -9.23965,0.0718 -10.37943,0.45664 -1.13979,0.38488 -2.41341,0.3587 -2.83028,-0.0582 z m -65.4307,-16.86707 C 412.62501,479.11372 413,473.0861 413,466.00226 l 0,-12.87971 -4.75,-0.62205 c -2.6125,-0.34212 -6.56504,-1.26969 -8.78343,-2.06127 C 397.24818,449.64765 394.03576,449 392.32786,449 c -2.75769,0 -3.17884,0.39213 -3.76248,3.50317 -0.90247,4.81061 -6.42217,17.74837 -8.15164,19.10687 -0.77725,0.61051 -2.5065,2.72114 -3.8428,4.69028 -2.15914,3.18168 -2.24267,3.63771 -0.75028,4.09646 2.05379,0.63132 35.18129,-0.27995 36.34603,-0.9998 z m 32.97945,-0.0762 2.91282,-0.58256 -0.20679,-11.36911 -0.20679,-11.3691 -8.81403,0 -8.81402,0 0.17542,4.75 c 0.0965,2.6125 -0.19436,7.9836 -0.6463,11.93578 l -0.82171,7.18577 4.38763,0.40634 c 4.26185,0.39469 5.9435,0.26094 12.03377,-0.95712 z M 323.92848,448.53699 c 3.33171,-1.7229 4.07152,-3.30294 4.07152,-8.6957 0,-3.08234 -0.66785,-4.66299 -2.92308,-6.91821 C 321.99011,429.83626 320.44884,429.41744 318,431 c -1.16423,0.75239 -0.86971,0.9728 1.31574,0.98469 4.30966,0.0234 6.38744,1.61959 7.10797,5.46035 0.91288,4.86608 -1.56367,9.43295 -5.54743,10.2297 -2.15289,0.43058 -2.65004,0.85321 -1.70694,1.45108 1.70978,1.08389 1.46614,1.11404 4.75914,-0.58883 z M 313.95288,436.5 c -0.0154,-3.73303 -0.11448,-3.87044 -1.48468,-2.05887 -1.51748,2.00629 -1.9852,6.70854 -0.78651,7.90723 1.17659,1.17658 2.28835,-1.68623 2.27119,-5.84836 z m 39.68236,-10.00817 c -0.34161,-0.89023 -1.07429,-1.33851 -1.62818,-0.9962 -1.16403,0.71942 -1.3556,4.82249 -0.27559,5.90251 1.06177,1.06176 2.63655,-2.9967 1.90377,-4.90631 z"
       style="fill:#eeeed8" />
    <path
       id="path4790"
       d="m 328,493.98598 c -4.125,-0.44023 -15.54669,-0.5871 -25.38154,-0.32637 -18.80778,0.49861 -22.10561,-0.008 -24.44372,-3.75141 -1.75557,-2.81112 -0.60635,-5.63365 3.0673,-7.53336 2.45584,-1.26997 4.70763,-1.46302 10.83283,-0.92871 4.36572,0.38083 7.97668,0.27947 8.29327,-0.23278 0.30841,-0.49902 -0.80478,-2.21366 -2.47375,-3.81033 -1.66897,-1.59666 -3.97576,-4.47802 -5.1262,-6.40302 -1.15045,-1.925 -2.8734,-4.4 -3.82878,-5.5 -2.39147,-2.75348 -5.17511,-16.15159 -5.26992,-25.36503 -0.0779,-7.57014 2.08684,-15.66087 5.73032,-21.41705 0.77213,-1.21986 1.69302,-3.60861 2.04643,-5.30833 1.07253,-5.1583 9.94212,-12.5345 23.18751,-19.28336 C 321.19747,390.78185 323.76791,390 328.1993,390 c 3.00705,0 5.71052,-0.24315 6.0077,-0.54034 0.29719,-0.29718 -0.0525,-3.55968 -0.77705,-7.25 -0.72457,-3.69031 -1.85448,-11.79318 -2.51092,-18.00638 -1.02942,-9.74352 -0.95978,-12.83707 0.50651,-22.5 0.93502,-6.1618 2.0923,-12.46622 2.57172,-14.00981 1.0403,-3.3494 1.06979,-3.33619 -9.12041,-4.08577 -4.19274,-0.30841 -8.91774,-1.0642 -10.5,-1.67954 -1.58227,-0.61534 -7.60185,-2.453 -13.37685,-4.0837 -15.86501,-4.47984 -25,-10.43984 -25,-16.31091 0,-5.8563 5.03523,-7.73255 12.22112,-4.55389 2.58282,1.14251 4.99252,2.557 5.35489,3.14332 C 294.64893,301.859 306.9479,307 310.02812,307 c 1.56292,0 4.10848,0.48981 5.65678,1.08847 3.8654,1.49458 21.04269,2.12769 23.40635,0.8627 1.04981,-0.56185 1.91095,-1.5682 1.91363,-2.23635 0.003,-0.66815 1.5256,-4.17795 3.38425,-7.79956 1.85865,-3.62161 3.67641,-7.93717 4.03946,-9.59014 0.36305,-1.65296 2.22419,-5.38034 4.13586,-8.28307 1.91167,-2.90272 4.83219,-8.53596 6.49004,-12.5183 1.65786,-3.98235 4.29803,-9.2649 5.86706,-11.739 1.56903,-2.47409 3.19055,-5.5753 3.60338,-6.89155 0.41283,-1.31626 1.76981,-4.6432 3.01552,-7.3932 1.24571,-2.75 3.49429,-9.05 4.99684,-14 1.50255,-4.95 3.57134,-10.56834 4.59731,-12.48519 1.02597,-1.91686 1.8654,-4.28884 1.8654,-5.27109 0,-0.98224 0.96398,-5.2639 2.14219,-9.5148 1.1782,-4.25091 2.9491,-10.65392 3.93533,-14.22892 0.98624,-3.575 2.75247,-10.5417 3.92497,-15.48156 2.44012,-10.28047 6.93427,-19.3476 13.9338,-28.11196 5.25712,-6.58263 9.1073,-8.86541 19.97608,-11.84385 5.71047,-1.56488 7.68078,-1.6275 18,-0.57205 17.98381,1.83937 22.86764,3.42628 34.24202,11.12629 6.69444,4.53187 11.02022,9.50323 14.33258,16.47156 1.33031,2.79864 3.10306,5.65636 3.93943,6.35049 0.83637,0.69412 1.79231,2.90433 2.1243,4.91156 0.33199,2.00724 1.48335,5.79153 2.55857,8.40954 2.02772,4.9372 4.12611,17.01956 5.94659,34.23998 1.30679,12.36121 3.74122,27.99989 4.98136,32 4.57912,14.7701 6.59926,19.94758 10.14466,26 2.25526,3.85 4.63721,7.675 5.29321,8.5 0.65601,0.825 2.22573,4.425 3.48827,8 1.26255,3.575 3.81228,9.32379 5.66609,12.77508 1.8538,3.4513 3.37223,7.0513 3.37429,8 0.002,0.94871 0.7977,3.07492 1.76811,4.72492 6.65861,11.32181 8.67812,22.89226 8.43849,48.34713 -0.1725,18.32401 -0.39228,20.71033 -2.21033,24 -1.11033,2.00908 -2.86608,6.80287 -3.90166,10.65287 -2.39474,8.90293 -3.96847,12.87527 -7.35535,18.5661 -3.30788,5.55809 -16.21935,18.08214 -23.858,23.1421 C 508.95586,440.47335 493.3383,448 491.49237,448 c -0.376,0 -1.8781,0.83473 -3.338,1.85497 -1.49285,1.04325 -5.33781,2.12513 -8.78671,2.47237 -3.37279,0.33957 -8.16381,1.16073 -10.6467,1.82481 l -4.51436,1.2074 -0.6946,8.33865 c -0.38204,4.58626 -0.37906,10.63297 0.007,13.43715 l 0.70122,5.0985 3.89361,-0.52224 c 2.14148,-0.28723 5.39404,-0.0618 7.22791,0.50108 2.15118,0.66022 6.49667,0.71533 12.24647,0.15532 4.9017,-0.4774 11.27529,-0.73197 14.16354,-0.5657 4.66874,0.26876 5.421,0.63034 6.78035,3.25903 2.07977,4.02183 0.58654,6.539 -4.79873,8.08936 -3.72347,1.07194 -8.3128,1.17233 -32.73299,0.71604 -17.06499,-0.31887 -128.14739,0.0654 -131.5,0.45495 -2.2,0.25559 -7.375,0.10452 -11.5,-0.33571 z m 77.5,-12.41758 c 1.65,-0.10759 4.2375,-0.2795 5.75,-0.38201 L 414,481 l 0,-14.45469 0,-14.45468 -3.75,-0.55703 c -2.0625,-0.30637 -5.55,-1.0293 -7.75,-1.60653 -13.40155,-3.51622 -15.45319,-3.22231 -15.48469,2.21822 -0.0174,3.00451 -5.57356,16.83579 -7.37327,18.35471 C 377.9755,471.90652 372,480.23652 372,481.15319 c 0,1.51721 13.94911,1.6901 33.5,0.41521 z m 40.75976,-1.39119 2.75976,-1.13513 -0.0904,-12.02104 -0.0904,-12.02104 -9.95092,0 -9.95091,0 0.18365,4.75 c 0.10101,2.6125 -0.17945,8.28039 -0.62326,12.59532 -0.64727,6.29317 -0.52899,8.03258 0.59788,8.79185 1.77872,1.19849 13.51229,0.54227 17.16455,-0.95996 z M 326.35398,447.54775 c 2.10117,-1.9473 2.64602,-3.3729 2.64602,-6.92328 0,-9.7333 -9.49607,-14.28224 -16.07692,-7.70139 -4.3427,4.3427 -4.00302,8.35927 1.11903,13.23176 4.8153,4.58068 8.43083,4.98973 12.31187,1.39291 z m -10.70276,-2.38066 c -1.27789,-1.41205 -1.51222,-2.90203 -1.02056,-6.48912 0.77069,-5.62275 2.26342,-7.07978 6.3367,-6.18514 3.43888,0.75531 5.03264,3.04142 5.03264,7.21892 0,6.31958 -6.47681,9.73382 -10.34878,5.45534 z m 49.95656,-8.69512 c 4.74194,-2.99598 3.25285,-14.43386 -2.14639,-16.48665 -2.04445,-0.7773 -3.62367,-0.56478 -7.04313,0.94781 -7.36395,3.25743 -8.26761,8.80512 -2.44889,15.03408 2.58737,2.76979 3.43011,3.10883 6.26024,2.51856 1.79872,-0.37515 4.21889,-1.28136 5.37817,-2.0138 z m -10.64425,-1.50844 c -1.20563,-1.20563 -1.71924,-2.53158 -1.25889,-3.25 0.42767,-0.66744 0.78158,-3.01353 0.78647,-5.21353 0.009,-3.8873 0.11294,-4.00865 3.70192,-4.30697 6.93066,-0.57608 10.23872,6.44578 5.73439,12.17211 -2.50165,3.18033 -6.13913,3.42315 -8.96389,0.59839 z"
       style="fill:#d6d6ab" />
    <path
       id="path4788"
       d="m 324.5,492.42515 c -6.81082,-0.91531 -14.84703,-1.14994 -25.19838,-0.7357 -13.19434,0.52801 -15.53484,0.38776 -17.75,-1.06367 -3.15668,-2.06833 -3.25061,-4.12168 -0.27768,-6.06962 2.60412,-1.70628 5.31878,-1.8902 15.47606,-1.04849 3.9875,0.33043 7.25,0.305 7.25,-0.0565 0,-0.36152 -2.08689,-2.97342 -4.63754,-5.80423 -4.42752,-4.91385 -8.44704,-10.39297 -11.07829,-15.10114 -1.45645,-2.60605 -4.27449,-19.29692 -4.28015,-25.35065 -0.004,-4.18793 1.95102,-9.84774 6.00775,-17.39326 1.09353,-2.03396 1.98823,-4.6058 1.98823,-5.7152 0,-4.54974 9.04676,-12.00361 23.94314,-19.7274 6.4264,-3.3321 8.2307,-3.82903 13.20861,-3.63781 3.17101,0.12181 6.03648,-0.21701 6.36769,-0.75293 0.33122,-0.53592 -0.091,-4.68558 -0.9383,-9.22147 -3.57882,-19.15898 -3.43824,-34.90875 0.46085,-51.6316 0.56226,-2.41148 0.78952,-4.61729 0.50502,-4.90179 -0.28449,-0.2845 -4.47425,-0.84504 -9.31057,-1.24566 -4.83632,-0.40061 -11.03052,-1.45782 -13.76488,-2.34936 -2.73436,-0.89153 -8.97303,-2.83189 -13.86372,-4.3119 -9.76035,-2.95366 -20.02842,-8.94096 -21.72702,-12.669 -1.40705,-3.08813 0.25434,-6.3826 3.64831,-7.23443 2.98129,-0.74825 9.71568,1.78343 13.73067,5.16183 1.59151,1.33916 3.42162,2.45011 4.06693,2.46877 0.6453,0.0187 2.97327,0.90339 5.17327,1.96607 2.2,1.06268 5.12797,1.94741 6.5066,1.96607 1.37863,0.0187 4.07863,0.50956 6,1.09088 1.92137,0.58132 7.0934,1.05809 11.4934,1.0595 14.54324,0.005 13.29811,0.39168 15.65628,-4.86645 1.17165,-2.6125 3.1908,-7.00646 4.487,-9.76435 1.2962,-2.7579 2.35672,-5.69316 2.35672,-6.52281 0,-0.82964 1.58405,-3.9137 3.5201,-6.85346 1.93606,-2.93975 4.87654,-8.60329 6.53439,-12.58563 1.65786,-3.98235 4.41108,-9.44183 6.11828,-12.13219 1.7072,-2.69036 3.89228,-7.18079 4.85573,-9.97873 0.96345,-2.79794 2.40566,-6.39794 3.2049,-8 0.79924,-1.60206 2.2505,-5.83783 3.22501,-9.41283 0.9745,-3.575 2.68486,-8.29665 3.80078,-10.49256 1.11592,-2.19591 2.58269,-6.47091 3.25948,-9.5 1.57364,-7.04306 5.31419,-21.61657 6.54694,-25.50744 0.52277,-1.65 1.87648,-7.00899 3.00824,-11.90887 2.50789,-10.85772 6.4139,-18.82614 13.56966,-27.68268 5.54109,-6.8581 7.802,-8.35498 17.23784,-11.41263 4.45771,-1.44451 7.71882,-1.65064 19,-1.20097 16.25664,0.64798 21.75882,2.1522 32.12259,8.78183 9.16388,5.86207 11.97226,8.72929 15.9135,16.24687 1.67921,3.20295 3.89972,6.89985 4.93448,8.21533 1.03476,1.31548 2.17926,4.25462 2.54333,6.53142 0.36408,2.27681 1.28275,5.34013 2.0415,6.80739 0.75875,1.46727 2.11,6.93253 3.00277,12.14503 0.89277,5.2125 2.0591,11.91483 2.59185,14.89406 0.53275,2.97923 0.96863,7.95493 0.96863,11.05711 0,7.39392 3.16963,24.35833 6.54427,35.02611 2.93616,9.28165 5.90699,15.64493 11.11014,23.797 1.85948,2.91334 4.29589,7.941 5.41424,11.17257 1.11835,3.23156 3.81041,9.30963 5.98236,13.50681 2.17194,4.19718 3.94899,8.4069 3.94899,9.35493 0,0.94802 0.6593,2.66496 1.46511,3.81541 2.28391,3.26075 5.21616,12.08387 6.9303,20.85328 2.29427,11.73727 1.49687,44.79633 -1.21128,50.21823 -1.03892,2.07997 -2.41266,6.03177 -3.05277,8.78177 -1.10105,4.7303 -3.3111,10.61061 -6.95302,18.5 -1.64228,3.55763 -15.84644,18.33742 -22.23185,23.13282 -1.92818,1.44805 -7.54245,4.51461 -12.47614,6.81457 -4.93369,2.29997 -11.22035,5.27137 -13.97035,6.60312 -2.75,1.33175 -8.375,2.87166 -12.5,3.42202 -13.9589,1.86239 -13.3773,1.41568 -14.3174,10.99672 -0.44957,4.58177 -0.44957,11.07555 0,14.43062 L 463.5,483.5 l 5,0.28858 c 9.14869,0.52802 17.90412,0.52706 27.21312,-0.003 8.00775,-0.45596 9.42565,-0.28974 10.83765,1.2705 4.97534,5.49769 -2.24533,8.09682 -20.38877,7.33906 -16.48873,-0.68865 -21.99986,-0.55278 -25.67782,0.63303 -2.96115,0.95472 -5.9475,0.85419 -23.98418,-0.80733 -5.0775,-0.46773 -10.74333,-0.44149 -13,0.0602 -2.2,0.4891 -6.475,0.59228 -9.5,0.22929 -3.025,-0.36299 -19.225,-0.78817 -36,-0.94486 -23.91984,-0.22342 -31.22751,0.008 -33.87212,1.07481 -3.96988,1.60071 -6.30656,1.5751 -19.62788,-0.21516 z m 81,-9.51899 c 10.51743,-1.78825 9.5892,-0.11398 9.2763,-16.73189 L 414.5,451.5 l -5,-0.81035 c -2.75,-0.44569 -7.025,-1.42088 -9.5,-2.16708 -2.475,-0.7462 -6.4125,-1.62436 -8.75,-1.95147 -4.20916,-0.58902 -4.25,-0.56513 -4.25,2.4866 0,5.05487 -5.96483,17.83667 -12.18159,26.10343 -3.20012,4.25539 -5.81841,7.96923 -5.81841,8.25299 0,0.62211 18.48648,1.20139 25.5,0.79904 2.75,-0.15776 7.7,-0.74591 11,-1.307 z m 35.45755,0.64499 c 0.66134,-0.79686 2.71994,-1.94967 4.57466,-2.56178 1.85473,-0.61212 3.61789,-1.88695 3.91815,-2.83296 0.93949,-2.96009 0.16733,-22.6175 -0.91883,-23.3911 -0.56734,-0.40408 -5.46826,-0.74158 -10.89094,-0.75 l -9.8594,-0.0153 0.51589,3.75 c 0.28375,2.0625 0.0319,7.65036 -0.55967,12.41747 -1.31907,10.62965 -0.11361,13.46527 5.99542,14.10304 2.07194,0.21631 4.27457,0.46893 4.89473,0.56139 0.62015,0.0924 1.66865,-0.48388 2.32999,-1.28075 z M 326.04597,448.25 c 5.79892,-5.18179 4.36741,-15.28201 -2.61697,-18.4643 -3.97064,-1.80915 -10.1243,0.75415 -12.7391,5.30646 -1.85517,3.22981 -1.92649,3.92246 -0.70698,6.8666 1.48016,3.57344 8.22408,9.04124 11.15134,9.04124 1.0088,0 3.21907,-1.2375 4.91171,-2.75 z m -8.81257,-2.4779 c -1.96887,-0.94903 -2.23158,-1.74706 -2,-6.07542 0.31639,-5.91351 2.14472,-7.65016 6.46383,-6.13972 2.38333,0.83348 2.84839,1.60521 3.10759,5.15678 0.23029,3.15546 -0.19757,4.67901 -1.75,6.23144 -2.31033,2.31033 -2.64523,2.3579 -5.82142,0.82692 z m 48.68623,-8.5221 c 1.17766,-0.9625 2.40743,-3.41307 2.73282,-5.44571 1.59817,-9.98343 -5.25678,-15.64586 -13.67247,-11.29394 -6.20469,3.20857 -6.7193,10.40819 -1.19649,16.73965 1.00381,1.15079 2.9763,1.75 5.76071,1.75 2.55024,0 5.08581,-0.69599 6.37543,-1.75 z m -10.68484,-2.9416 c -0.49394,-0.99462 -0.70483,-3.92954 -0.46863,-6.52205 0.4925,-5.40571 2.49869,-6.74894 6.86833,-4.59863 3.72688,1.834 4.58637,4.86014 2.54283,8.95293 -1.29937,2.60238 -2.39468,3.42884 -4.86088,3.66775 -2.28153,0.22102 -3.43802,-0.20399 -4.08165,-1.5 z"
       style="fill:#f9d75c" />
    <path
       id="path4786"
       d="m 444.21107,492.9157 c -1.25891,-0.48403 -6.43391,-0.83995 -11.5,-0.79093 -12.15819,0.11763 -15.71396,0.11128 -45.71107,-0.0816 -14.025,-0.0902 -28.47847,-0.61749 -32.11883,-1.17179 -5.49136,-0.83614 -7.27996,-0.72947 -10.5,0.62619 -4.11257,1.7314 -14.09013,1.43915 -21.38117,-0.62629 -7.50182,-2.12515 -16.46545,-7.46412 -21.60969,-12.87128 -11.73177,-12.3314 -15.52137,-21.52365 -15.66591,-38 -0.0702,-8.00648 0.16785,-8.99999 4.10052,-17.1113 2.29629,-4.73621 4.17508,-9.26044 4.17508,-10.05383 0,-3.03535 9.74126,-10.57825 21.7193,-16.81779 7.04059,-3.66756 9.02669,-4.26295 13.84944,-4.15177 3.09659,0.0714 5.97048,-0.0805 6.38642,-0.3376 0.41595,-0.25707 -0.0573,-4.41847 -1.05176,-9.24755 -3.89528,-18.91623 -3.8506,-36.05542 0.13859,-53.16469 0.56226,-2.41148 0.78952,-4.61729 0.50502,-4.90179 -0.28449,-0.2845 -4.47425,-0.84504 -9.31057,-1.24566 -4.83632,-0.40061 -11.03052,-1.45782 -13.76488,-2.34936 -2.73436,-0.89153 -8.97303,-2.83189 -13.86372,-4.3119 -9.76035,-2.95366 -20.02842,-8.94096 -21.72702,-12.669 -1.40705,-3.08813 0.25434,-6.3826 3.64831,-7.23443 2.98129,-0.74825 9.71568,1.78343 13.73067,5.16183 1.59151,1.33916 3.42162,2.45011 4.06693,2.46877 0.6453,0.0187 2.97327,0.90339 5.17327,1.96607 2.2,1.06268 5.12797,1.94741 6.5066,1.96607 1.37863,0.0187 4.07863,0.50956 6,1.09088 1.92137,0.58132 7.0934,1.05809 11.4934,1.0595 14.54324,0.005 13.29811,0.39168 15.65628,-4.86645 1.17165,-2.6125 3.1908,-7.00646 4.487,-9.76435 1.2962,-2.7579 2.35672,-5.69316 2.35672,-6.52281 0,-0.82964 1.58405,-3.9137 3.5201,-6.85346 1.93606,-2.93975 4.87654,-8.60329 6.53439,-12.58563 1.65786,-3.98235 4.41108,-9.44183 6.11828,-12.13219 1.7072,-2.69036 3.89228,-7.18079 4.85573,-9.97873 0.96345,-2.79794 2.40566,-6.39794 3.2049,-8 0.79924,-1.60206 2.2505,-5.83783 3.22501,-9.41283 0.9745,-3.575 2.68486,-8.29665 3.80078,-10.49256 1.11592,-2.19591 2.58269,-6.47091 3.25948,-9.5 1.57364,-7.04306 5.31419,-21.61657 6.54694,-25.50744 0.52277,-1.65 1.87648,-7.00899 3.00824,-11.90887 2.50789,-10.85772 6.4139,-18.82614 13.56966,-27.68268 5.54109,-6.8581 7.802,-8.35498 17.23784,-11.41263 4.45771,-1.44451 7.71882,-1.65064 19,-1.20097 16.25664,0.64798 21.75882,2.1522 32.12259,8.78183 9.16388,5.86207 11.97226,8.72929 15.9135,16.24687 1.67921,3.20295 3.89972,6.89985 4.93448,8.21533 1.03476,1.31548 2.17926,4.25462 2.54333,6.53142 0.36408,2.27681 1.28275,5.34013 2.0415,6.80739 0.75875,1.46727 2.11,6.93253 3.00277,12.14503 0.89277,5.2125 2.0591,11.91483 2.59185,14.89406 0.53275,2.97923 0.96863,7.95493 0.96863,11.05711 0,7.39392 3.16963,24.35833 6.54427,35.02611 2.93616,9.28165 5.90699,15.64493 11.11014,23.797 1.85948,2.91334 4.29589,7.941 5.41424,11.17257 1.11835,3.23156 3.81041,9.30963 5.98236,13.50681 2.17194,4.19718 3.94899,8.4069 3.94899,9.35493 0,0.94802 0.6593,2.66496 1.46511,3.81541 2.28391,3.26075 5.21616,12.08387 6.9303,20.85328 2.29427,11.73727 1.49687,44.79633 -1.21128,50.21823 -1.03892,2.07997 -2.41266,6.03177 -3.05277,8.78177 -1.10105,4.7303 -3.3111,10.61061 -6.95302,18.5 -1.64228,3.55763 -15.84644,18.33742 -22.23185,23.13282 -1.92818,1.44805 -7.54245,4.51461 -12.47614,6.81457 -4.93369,2.29997 -11.22035,5.27137 -13.97035,6.60312 -2.75,1.33175 -8.375,2.87166 -12.5,3.42202 -13.9589,1.86239 -13.3773,1.41568 -14.3174,10.99672 -0.44957,4.58177 -0.44957,11.07555 0,14.43062 L 463.5,483.5 l 5,0.28858 c 9.00629,0.51981 17.84894,0.51632 27,-0.0106 7.17942,-0.41342 9.354,-0.20974 10.75,1.00689 2.60172,2.26744 2.16131,5.09262 -1,6.41504 -3.17912,1.32986 -27.70245,1.90038 -30.90183,0.71892 -1.1835,-0.43705 -5.0085,-0.31409 -8.5,0.27324 -8.62108,1.45022 -18.85704,1.79257 -21.6371,0.72368 z m -81.98984,-6.3771 c 3.58745,-1.90377 6.73349,-3.25054 6.99121,-2.99283 0.95967,0.95967 31.47455,0.55262 36.28756,-0.48406 10.79551,-2.32525 9.59028,-0.13769 9.27659,-16.83743 L 414.5,451.5 l -5,-0.8239 c -2.75,-0.45315 -7.25,-1.42982 -10,-2.17039 -10.32048,-2.77928 -13.49553,-3.27311 -13.60963,-2.11678 -0.0603,0.61109 -0.22793,2.47994 -0.37252,4.153 -0.43437,5.02616 -6.30303,17.12694 -11.828,24.38855 -5.05167,6.63954 -11.38527,11.46441 -18.18985,13.85685 -1.65,0.58013 -2.28032,1.0903 -1.4007,1.13372 0.87961,0.0434 4.53448,-1.47868 8.12193,-3.38245 z m 78.73632,-2.98745 c 0.66134,-0.79686 2.71994,-1.94967 4.57466,-2.56178 1.85473,-0.61212 3.61789,-1.88695 3.91815,-2.83296 0.93949,-2.96009 0.16733,-22.6175 -0.91883,-23.3911 -0.56734,-0.40408 -5.46826,-0.74158 -10.89094,-0.75 l -9.8594,-0.0153 0.51589,3.75 c 0.28375,2.0625 0.0319,7.65036 -0.55967,12.41747 -1.31907,10.62965 -0.11361,13.46527 5.99542,14.10304 2.07194,0.21631 4.27457,0.46893 4.89473,0.56139 0.62015,0.0924 1.66865,-0.48388 2.32999,-1.28075 z M 326.69553,450.04409 c 4.64788,-2.83399 6.17396,-8.47884 3.90117,-14.43006 C 328.48466,430.08374 325.42134,428 319.40326,428 c -4.05615,0 -5.10801,0.4675 -8.03518,3.5712 -5.28407,5.60274 -4.5072,11.00807 2.46682,17.16392 4.29326,3.78959 8.14871,4.182 12.86063,1.30897 z m -9.46213,-4.27199 c -1.96887,-0.94903 -2.23158,-1.74706 -2,-6.07542 0.31639,-5.91351 2.14472,-7.65016 6.46383,-6.13972 2.38333,0.83348 2.84839,1.60521 3.10759,5.15678 0.23029,3.15546 -0.19757,4.67901 -1.75,6.23144 -2.31033,2.31033 -2.64523,2.3579 -5.82142,0.82692 z m 45.09352,-5.75845 c 1.00481,-0.008 3.14231,-1.32903 4.75,-2.93673 2.45132,-2.45131 2.92308,-3.73007 2.92308,-7.92327 0,-7.03317 -3.45251,-11.1552 -9.33889,-11.14991 -11.79034,0.0106 -16.44118,11.41619 -8.06906,19.78831 2.57982,2.57982 3.99086,3.28515 5.67113,2.83479 1.23025,-0.32974 3.05894,-0.60568 4.06374,-0.61319 z m -7.09213,-5.70525 c -0.49394,-0.99462 -0.70483,-3.92954 -0.46863,-6.52205 0.4925,-5.40571 2.49869,-6.74894 6.86833,-4.59863 3.72688,1.834 4.58637,4.86014 2.54283,8.95293 -1.29937,2.60238 -2.39468,3.42884 -4.86088,3.66775 -2.28153,0.22102 -3.43802,-0.20399 -4.08165,-1.5 z M 281.25,490.46677 c -1.2375,-0.8691 -2.25,-2.21929 -2.25,-3.00042 0,-2.02897 4.03493,-4.39734 7.52394,-4.41631 8.04005,-0.0437 19.32074,0.73593 20.41264,1.41077 0.67449,0.41685 4.00219,2.1712 7.39488,3.89855 L 320.5,491.5 302,491.77347 c -15.55292,0.22991 -18.85843,0.0217 -20.75,-1.3067 z"
       style="fill:#fbd82a" />
    <path
       id="path4784"
       d="m 444.21107,492.9157 c -1.25891,-0.48403 -6.43391,-0.83995 -11.5,-0.79093 -15.58131,0.15074 -19.26326,0.13212 -49.87777,-0.25227 -16.31669,-0.20488 -30.00419,-0.71 -30.41667,-1.1225 -0.41248,-0.4125 0.15722,-0.75 1.266,-0.75 1.10878,0 4.95115,-1.55763 8.5386,-3.4614 3.58745,-1.90377 6.73349,-3.25054 6.99121,-2.99283 0.95967,0.95967 31.47455,0.55262 36.28756,-0.48406 10.79551,-2.32525 9.59028,-0.13769 9.27659,-16.83743 L 414.5,451.5 l -5,-0.8239 c -2.75,-0.45315 -7.25,-1.45517 -10,-2.22672 -2.75,-0.77156 -6.6875,-1.65869 -8.75,-1.97142 -2.0625,-0.31272 -3.75,-1.02475 -3.75,-1.58229 0,-0.55754 -0.45,-0.73559 -1,-0.39567 -0.55,0.33992 -1,2.31638 -1,4.39213 0,5.16493 -5.48013,17.24697 -11.41465,25.16589 -5.60756,7.48263 -12.41852,12.43929 -19.32559,14.06415 -2.61787,0.61584 -7.08772,1.93674 -9.93301,2.93535 -4.76439,1.67214 -5.86117,1.70428 -13.87732,0.40663 -4.78724,-0.77495 -10.58885,-2.32142 -12.89248,-3.43658 C 315.25333,486.91241 312.83698,486 312.18729,486 c -1.84703,0 -15.80575,-13.699 -17.61209,-17.28441 -0.89102,-1.76857 -2.4983,-4.34059 -3.57172,-5.71559 -3.16508,-4.05429 -6.61688,-29.05326 -4.3277,-31.34245 0.64046,-0.64045 1.20916,0.65612 4.97505,11.34245 2.24205,6.36221 4.35406,8.98775 11.30592,14.05493 11.03103,8.04046 20.7767,9.75661 33.01759,5.81417 10.25555,-3.30302 16.70227,-9.47474 7.23369,-6.92512 -2.19662,0.59149 -4.69991,0.8045 -5.56288,0.47335 -1.99475,-0.76546 -3.15595,-4.30653 -1.84282,-5.61966 1.8334,-1.8334 15.40882,-4.98652 16.55107,-3.84427 1.64633,1.64633 2.30708,1.28721 4.5141,-2.4534 1.49071,-2.52657 2.76535,-3.5 4.583,-3.5 1.38487,0 3.91929,-1.2521 5.63204,-2.78244 2.4291,-2.17041 3.23476,-3.85301 3.66268,-7.64948 C 371.66053,422.44742 367.37586,417 360.07324,417 c -2.36822,0 -3.45437,-0.97588 -6.62445,-5.9519 -4.00213,-6.28207 -11.52986,-12.26743 -16.94879,-13.47611 -6.17595,-1.37753 -11.64613,-3.86364 -10.31344,-4.68729 0.71326,-0.44082 2.31602,-0.54568 3.56171,-0.23303 1.24568,0.31264 3.88317,0.26485 5.86109,-0.10621 3.01355,-0.56534 3.34921,-0.86672 2.07171,-1.86006 -1.72308,-1.3398 -4.2046,-13.61029 -5.49784,-27.1854 -0.84982,-8.92051 0.38528,-23.77598 2.85876,-34.38453 0.56226,-2.41148 0.78952,-4.61729 0.50502,-4.90179 -0.28449,-0.2845 -4.47425,-0.84504 -9.31057,-1.24566 -4.83632,-0.40061 -11.03052,-1.45782 -13.76488,-2.34936 -2.73436,-0.89153 -8.97303,-2.83189 -13.86372,-4.3119 -9.76035,-2.95366 -20.02842,-8.94096 -21.72702,-12.669 -1.40705,-3.08813 0.25434,-6.3826 3.64831,-7.23443 2.98129,-0.74825 9.71568,1.78343 13.73067,5.16183 1.59151,1.33916 3.42162,2.45011 4.06693,2.46877 0.6453,0.0187 2.97327,0.90339 5.17327,1.96607 2.2,1.06268 5.12797,1.94741 6.5066,1.96607 1.37863,0.0187 4.07863,0.50956 6,1.09088 1.92137,0.58132 7.0934,1.05809 11.4934,1.0595 14.54324,0.005 13.29811,0.39168 15.65628,-4.86645 1.17165,-2.6125 3.1908,-7.00646 4.487,-9.76435 1.2962,-2.7579 2.35672,-5.69316 2.35672,-6.52281 0,-0.82964 1.58405,-3.9137 3.5201,-6.85346 1.93606,-2.93975 4.87654,-8.60329 6.53439,-12.58563 1.65786,-3.98235 4.41108,-9.44183 6.11828,-12.13219 1.7072,-2.69036 3.89228,-7.18079 4.85573,-9.97873 0.96345,-2.79794 2.40566,-6.39794 3.2049,-8 0.79924,-1.60206 2.2505,-5.83783 3.22501,-9.41283 0.9745,-3.575 2.68486,-8.29665 3.80078,-10.49256 1.11592,-2.19591 2.58269,-6.47091 3.25948,-9.5 1.57364,-7.04306 5.31419,-21.61657 6.54694,-25.50744 0.52277,-1.65 1.87648,-7.00899 3.00824,-11.90887 2.50789,-10.85772 6.4139,-18.82614 13.56966,-27.68268 5.54109,-6.8581 7.802,-8.35498 17.23784,-11.41263 4.45771,-1.44451 7.71882,-1.65064 19,-1.20097 16.25664,0.64798 21.75882,2.1522 32.12259,8.78183 9.16388,5.86207 11.97226,8.72929 15.9135,16.24687 1.67921,3.20295 3.89972,6.89985 4.93448,8.21533 1.03476,1.31548 2.17926,4.25462 2.54333,6.53142 0.36408,2.27681 1.28275,5.34013 2.0415,6.80739 0.75875,1.46727 2.11,6.93253 3.00277,12.14503 0.89277,5.2125 2.0591,11.91483 2.59185,14.89406 0.53275,2.97923 0.96863,7.95493 0.96863,11.05711 0,7.39392 3.16963,24.35833 6.54427,35.02611 2.93616,9.28165 5.90699,15.64493 11.11014,23.797 1.85948,2.91334 4.29589,7.941 5.41424,11.17257 1.11835,3.23156 3.81041,9.30963 5.98236,13.50681 2.17194,4.19718 3.94899,8.4069 3.94899,9.35493 0,0.94802 0.6593,2.66496 1.46511,3.81541 2.28391,3.26075 5.21616,12.08387 6.9303,20.85328 2.29427,11.73727 1.49687,44.79633 -1.21128,50.21823 -1.03892,2.07997 -2.41266,6.03177 -3.05277,8.78177 -1.10105,4.7303 -3.3111,10.61061 -6.95302,18.5 -1.64228,3.55763 -15.84644,18.33742 -22.23185,23.13282 -1.92818,1.44805 -7.54245,4.51461 -12.47614,6.81457 -4.93369,2.29997 -11.22035,5.27137 -13.97035,6.60312 -2.75,1.33175 -8.375,2.87166 -12.5,3.42202 -13.9589,1.86239 -13.3773,1.41568 -14.3174,10.99672 -0.44957,4.58177 -0.44957,11.07555 0,14.43062 L 463.5,483.5 l 5,0.28858 c 9.00629,0.51981 17.84894,0.51632 27,-0.0106 7.17942,-0.41342 9.354,-0.20974 10.75,1.00689 2.60172,2.26744 2.16131,5.09262 -1,6.41504 -3.17912,1.32986 -27.70245,1.90038 -30.90183,0.71892 -1.1835,-0.43705 -5.0085,-0.31409 -8.5,0.27324 -8.62108,1.45022 -18.85704,1.79257 -21.6371,0.72368 z m -3.25352,-9.36455 c 0.66134,-0.79686 2.71994,-1.94967 4.57466,-2.56178 1.85473,-0.61212 3.61789,-1.88695 3.91815,-2.83296 0.93949,-2.96009 0.16733,-22.6175 -0.91883,-23.3911 -0.56734,-0.40408 -5.46826,-0.74158 -10.89094,-0.75 l -9.8594,-0.0153 0.51589,3.75 c 0.28375,2.0625 0.0319,7.65036 -0.55967,12.41747 -1.31907,10.62965 -0.11361,13.46527 5.99542,14.10304 2.07194,0.21631 4.27457,0.46893 4.89473,0.56139 0.62015,0.0924 1.66865,-0.48388 2.32999,-1.28075 z M 376.12701,409.25 c -2.66281,-4.9397 -19.92229,-16.30383 -24.50532,-16.135 -3.09319,0.11395 -3.08835,0.12149 0.53029,0.82665 4.10984,0.80087 16.00908,8.56583 20.96992,13.68412 3.67735,3.79406 4.3793,4.17346 3.00511,1.62423 z M 281.25,490.46677 c -1.2375,-0.8691 -2.25,-2.21929 -2.25,-3.00042 0,-2.02897 4.03493,-4.39734 7.52394,-4.41631 8.04005,-0.0437 19.32074,0.73593 20.41264,1.41077 0.67449,0.41685 4.00219,2.1712 7.39488,3.89855 L 320.5,491.5 302,491.77347 c -15.55292,0.22991 -18.85843,0.0217 -20.75,-1.3067 z m 35.9834,-44.69467 c -1.96887,-0.94903 -2.23158,-1.74706 -2,-6.07542 0.31639,-5.91351 2.14472,-7.65016 6.46383,-6.13972 2.38333,0.83348 2.84839,1.60521 3.10759,5.15678 0.23029,3.15546 -0.19757,4.67901 -1.75,6.23144 -2.31033,2.31033 -2.64523,2.3579 -5.82142,0.82692 z m 38.00139,-11.4637 c -0.49394,-0.99462 -0.70483,-3.92954 -0.46863,-6.52205 0.4925,-5.40571 2.49869,-6.74894 6.86833,-4.59863 3.72688,1.834 4.58637,4.86014 2.54283,8.95293 -1.29937,2.60238 -2.39468,3.42884 -4.86088,3.66775 -2.28153,0.22102 -3.43802,-0.20399 -4.08165,-1.5 z"
       style="fill:#b1b094" />
    <path
       id="path4782"
       d="m 329.6995,491.44285 c -4.29028,-0.72233 -9.71985,-2.24247 -12.06573,-3.37809 C 315.2879,486.92914 312.83698,486 312.18729,486 c -1.84703,0 -15.80575,-13.699 -17.61209,-17.28441 -0.89102,-1.76857 -2.4983,-4.34059 -3.57172,-5.71559 -3.16508,-4.05429 -6.61688,-29.05326 -4.3277,-31.34245 0.64046,-0.64045 1.20916,0.65612 4.97505,11.34245 2.24205,6.36221 4.35406,8.98775 11.30592,14.05493 11.03103,8.04046 20.7767,9.75661 33.01759,5.81417 10.25555,-3.30302 16.70227,-9.47474 7.23369,-6.92512 -2.19662,0.59149 -4.69991,0.8045 -5.56288,0.47335 -1.99475,-0.76546 -3.15595,-4.30653 -1.84282,-5.61966 1.8334,-1.8334 15.40882,-4.98652 16.55107,-3.84427 1.64633,1.64633 2.30708,1.28721 4.5141,-2.4534 1.49071,-2.52657 2.76535,-3.5 4.583,-3.5 1.38487,0 3.91929,-1.2521 5.63204,-2.78244 2.4291,-2.17041 3.23476,-3.85301 3.66268,-7.64948 C 371.66053,422.44742 367.37586,417 360.07324,417 c -2.36822,0 -3.45437,-0.97588 -6.62445,-5.9519 -4.00213,-6.28207 -11.52986,-12.26743 -16.94879,-13.47611 -6.17595,-1.37753 -11.64613,-3.86364 -10.31344,-4.68729 0.71326,-0.44082 2.31602,-0.54568 3.56171,-0.23303 1.24568,0.31264 3.88317,0.26485 5.86109,-0.10621 2.97902,-0.55887 3.34323,-0.8781 2.12213,-1.86006 -2.06671,-1.66197 -3.67242,-9.97416 -4.92468,-25.49331 -0.913,-11.31468 -0.81501,-15.13287 0.65422,-25.4924 0.95043,-6.70147 2.13673,-12.9481 2.63622,-13.8814 1.28406,-2.39929 0.006,-2.90072 -8.88062,-3.48439 -4.24414,-0.27876 -10.41663,-1.3298 -13.71663,-2.33566 -3.3,-1.00585 -10.05,-3.05304 -15,-4.5493 -8.14099,-2.46083 -19.17358,-8.49374 -21.03213,-11.50092 -1.27264,-2.05919 0.52002,-5.90688 3.04762,-6.54126 2.83752,-0.71218 9.96856,1.8146 12.98451,4.60085 5.3551,4.94726 23.36271,9.17122 37.42867,8.77946 l 10.30748,-0.28707 3.95764,-9 c 2.17669,-4.95 4.365,-10.35 4.8629,-12 0.4979,-1.65 2.40689,-5.27737 4.24221,-8.06082 1.83532,-2.78344 4.50175,-7.95844 5.9254,-11.5 1.42365,-3.54155 4.43058,-9.58204 6.68207,-13.42331 2.2515,-3.84127 4.09363,-7.56873 4.09363,-8.28324 0,-0.71452 1.05327,-3.42166 2.34061,-6.01587 1.28733,-2.59422 3.12818,-7.64176 4.09077,-11.21676 0.96259,-3.575 2.77425,-8.975 4.02591,-12 1.25166,-3.025 2.85134,-7.75 3.55484,-10.5 0.7035,-2.75 2.36653,-9.05 3.69562,-14 1.32909,-4.95 3.04583,-11.7 3.81498,-15 3.12356,-13.40153 4.73494,-18.26791 7.94555,-23.99554 4.19629,-7.48605 13.53263,-17.899 17.24031,-19.22835 13.50377,-4.84164 19.3538,-5.31221 34.83137,-2.80184 11.78934,1.91217 15.83633,3.41352 24.38821,9.04753 7.85397,5.17422 11.9972,9.6606 15.18529,16.44297 1.17016,2.4894 2.93601,5.55396 3.92412,6.81014 0.98812,1.25618 2.1121,4.18322 2.49774,6.50453 0.38565,2.32131 1.27833,5.3494 1.98374,6.72909 1.14479,2.23906 2.4477,8.34287 5.53032,25.90825 0.52284,2.97923 0.97744,8.15423 1.01023,11.5 0.0328,3.34577 0.44196,8.10822 0.90927,10.58322 0.4673,2.475 1.33592,7.22317 1.93025,10.5515 2.37163,13.28132 7.79604,27.33124 14.77855,38.27831 1.86978,2.9314 4.5205,8.3314 5.89051,12 1.37001,3.66861 4.05262,9.661 5.96137,13.31642 1.90874,3.65543 3.47044,7.29606 3.47044,8.09028 0,0.79423 1.35391,4.15346 3.00869,7.46496 1.65477,3.3115 3.92091,10.24588 5.03585,15.40972 1.76551,8.17695 1.972,11.99696 1.59977,29.5953 -0.37926,17.93041 -0.6512,20.57747 -2.41417,23.5 -1.09273,1.81143 -2.29289,5.01285 -2.66704,7.11427 -0.99359,5.58051 -6.37251,18.52516 -9.72823,23.41149 -3.4053,4.95852 -20.21559,20.02616 -25.01775,22.42425 -1.82442,0.91108 -6.46712,3.06858 -10.31712,4.79445 -3.85,1.72588 -8.59114,3.97593 -10.53586,5.00012 -1.94472,1.02419 -5.76972,2.16012 -8.5,2.52429 -7.84752,1.04672 -15.86482,2.77988 -17.06588,3.68926 -1.75372,1.32783 -2.46849,16.39903 -1.26264,26.62356 0.81534,6.91341 0.81062,9.66558 -0.018,10.4942 -1.32132,1.32132 -12.9312,2.23221 -16.62729,1.30455 -2.77385,-0.69619 -4.89831,-4.72613 -3.99381,-7.57596 0.3011,-0.94867 2.27244,-2.40246 4.38077,-3.23063 3.74732,-1.47199 3.84348,-1.63785 4.28629,-7.39306 0.24914,-3.238 0.42676,-9.02403 0.3947,-12.85784 l -0.0583,-6.97057 -4,-0.62534 c -2.2,-0.34394 -7.34552,-0.58219 -11.43449,-0.52944 l -7.4345,0.0959 -0.43224,9.5 c -0.43121,9.47705 -0.41839,14.96764 0.0524,22.45904 0.21018,3.34439 -0.13932,4.15717 -2.25119,5.23526 -1.375,0.70192 -4.88295,1.28285 -7.79545,1.29096 -4.34248,0.0121 -5.75048,-0.44028 -7.82387,-2.51367 -3.56802,-3.56802 -3.00927,-4.62846 3.86932,-7.34333 l 2.75,-1.08538 0,-14.399 c 0,-16.32692 0.004,-16.31773 -7.60089,-17.22705 -2.69451,-0.32218 -6.92411,-1.18323 -9.39911,-1.91344 -7.1336,-2.10467 -12.9114,-3.25865 -13.47811,-2.69195 -0.28704,0.28704 -0.52189,2.1718 -0.52189,4.18834 0,5.06846 -5.52717,17.2021 -11.41465,25.05824 -5.60756,7.48263 -12.41852,12.43929 -19.32559,14.06415 -2.61787,0.61584 -7.1623,1.96528 -10.09874,2.99877 -2.93645,1.03348 -5.63645,1.8242 -6,1.75716 -0.36356,-0.067 -4.17125,-0.71291 -8.46152,-1.43525 z M 376.12701,409.25 c -2.66281,-4.9397 -19.92229,-16.30383 -24.50532,-16.135 -3.09319,0.11395 -3.08835,0.12149 0.53029,0.82665 4.10984,0.80087 16.00908,8.56583 20.96992,13.68412 3.67735,3.79406 4.3793,4.17346 3.00511,1.62423 z m -59.26312,35 c -0.97498,-1.17989 -1.26981,-3.05312 -0.90499,-5.75 0.45438,-3.35895 0.94175,-4.04152 3.0411,-4.25905 3.65904,-0.37915 5.03062,0.95355 5.18414,5.03716 0.22502,5.98545 -4.07139,8.90355 -7.32025,4.97189 z m 39.44367,-10.34244 c -1.16801,-1.16801 -0.61517,-8.79383 0.74557,-10.28434 1.36028,-1.49002 5.95766,0.30636 7.07824,2.76576 2.29544,5.03794 -4.12984,11.21255 -7.82381,7.51858 z"
       style="fill:#9dd352" />
    <path
       id="path4780"
       d="m 329.6995,491.44285 c -4.29028,-0.72233 -9.71985,-2.24247 -12.06573,-3.37809 C 315.2879,486.92914 312.83698,486 312.18729,486 c -1.84703,0 -15.80575,-13.699 -17.61209,-17.28441 -0.89102,-1.76857 -2.4983,-4.34059 -3.57172,-5.71559 -3.16508,-4.05429 -6.61688,-29.05326 -4.3277,-31.34245 0.64046,-0.64045 1.20916,0.65612 4.97505,11.34245 2.24205,6.36221 4.35406,8.98775 11.30592,14.05493 11.06551,8.0656 21.09231,9.81588 33.09908,5.77777 6.5047,-2.18765 11.94417,-5.43433 11.94417,-7.12917 0,-0.50619 -1.125,-0.64656 -2.5,-0.31194 -1.375,0.33463 -3.56031,0.86596 -4.85624,1.18074 -1.48678,0.36113 -2.9628,-0.0342 -4,-1.07143 -3.30095,-3.30094 -1.5599,-5.09733 7.32716,-7.56006 5.10694,-1.4152 7.65474,-1.71518 8.38294,-0.98698 1.64584,1.64584 2.30676,1.28653 4.51364,-2.45386 1.49071,-2.52657 2.76535,-3.5 4.583,-3.5 1.38487,0 3.91929,-1.2521 5.63204,-2.78244 2.4291,-2.17041 3.23476,-3.85301 3.66268,-7.64948 C 371.66053,422.44742 367.37586,417 360.07324,417 c -2.36822,0 -3.45437,-0.97588 -6.62445,-5.9519 -4.00213,-6.28207 -11.52986,-12.26743 -16.94879,-13.47611 -6.17595,-1.37753 -11.64613,-3.86364 -10.31344,-4.68729 0.71326,-0.44082 2.31602,-0.54568 3.56171,-0.23303 1.24568,0.31264 3.78277,0.28369 5.63797,-0.0644 l 3.3731,-0.6328 -1.81155,-7.72726 c -3.13668,-13.37963 -4.42082,-29.81023 -2.9949,-38.31985 0.68267,-4.07407 1.59886,-9.88241 2.03597,-12.90741 0.43711,-3.025 1.10344,-6.44567 1.48074,-7.6015 0.62446,-1.91299 0.2081,-2.15888 -4.6418,-2.7413 -2.93029,-0.3519 -7.15292,-0.64373 -9.38363,-0.64851 -2.2307,-0.005 -6.7307,-0.87254 -10,-1.92835 -3.26929,-1.05581 -9.99417,-3.1419 -14.94417,-4.63577 -8.14343,-2.45761 -19.17128,-8.48564 -21.03213,-11.49655 -1.27264,-2.05919 0.52002,-5.90688 3.04762,-6.54126 2.83752,-0.71218 9.96856,1.8146 12.98451,4.60085 5.27253,4.87097 22.73162,8.99239 38.09344,8.99239 10.04116,0 11.53972,-0.21791 12.0346,-1.75 0.3109,-0.9625 1.15043,-3.1 1.86562,-4.75 0.7152,-1.65 2.28086,-5.475 3.47924,-8.5 1.19839,-3.025 3.35574,-7.75 4.79411,-10.5 3.11401,-5.95359 6.27144,-12.34184 9.14375,-18.5 1.1544,-2.475 3.51483,-6.975 5.2454,-10 1.73057,-3.025 4.02116,-7.75 5.09018,-10.5 4.23854,-10.90334 6.71248,-18.07169 6.73257,-19.50796 0.0116,-0.82937 1.14609,-3.62126 2.52109,-6.20419 1.375,-2.58293 2.5,-5.4372 2.5,-6.34282 0,-0.90562 1.2784,-6.21373 2.84088,-11.79581 4.74659,-16.95749 5.27382,-18.98136 6.16074,-23.64922 2.79998,-14.73619 6.69896,-23.42155 14.99838,-33.41036 8.34882,-10.04825 17.1534,-13.06843 35.81667,-12.28597 15.36892,0.64434 21.94254,2.51878 31.94647,9.1094 8.01188,5.27825 12.14708,9.73709 15.35032,16.5517 1.17016,2.4894 2.93601,5.55396 3.92412,6.81014 0.98812,1.25618 2.1121,4.18322 2.49774,6.50453 0.38565,2.32131 1.27833,5.3494 1.98374,6.72909 1.14479,2.23906 2.4477,8.34287 5.53032,25.90825 0.52284,2.97923 0.97744,8.15423 1.01023,11.5 0.0328,3.34577 0.44196,8.10822 0.90927,10.58322 0.4673,2.475 1.33592,7.22317 1.93025,10.5515 2.37163,13.28132 7.79604,27.33124 14.77855,38.27831 1.86978,2.9314 4.5205,8.3314 5.89051,12 1.37001,3.66861 4.05262,9.661 5.96137,13.31642 1.90874,3.65543 3.47044,7.29606 3.47044,8.09028 0,0.79423 1.35391,4.15346 3.00869,7.46496 1.65477,3.3115 3.92091,10.24588 5.03585,15.40972 1.76551,8.17695 1.972,11.99696 1.59977,29.5953 -0.37926,17.93041 -0.6512,20.57747 -2.41417,23.5 -1.09273,1.81143 -2.29289,5.01285 -2.66704,7.11427 -0.99359,5.58051 -6.37251,18.52516 -9.72823,23.41149 -3.4053,4.95852 -20.21559,20.02616 -25.01775,22.42425 -1.82442,0.91108 -6.46712,3.06858 -10.31712,4.79445 -3.85,1.72588 -8.59114,3.97593 -10.53586,5.00012 -1.94472,1.02419 -5.76972,2.16012 -8.5,2.52429 -7.84752,1.04672 -15.86482,2.77988 -17.06588,3.68926 -1.75372,1.32783 -2.46849,16.39903 -1.26264,26.62356 0.81534,6.91341 0.81062,9.66558 -0.018,10.4942 -1.32132,1.32132 -12.9312,2.23221 -16.62729,1.30455 -2.77385,-0.69619 -4.89831,-4.72613 -3.99381,-7.57596 0.3011,-0.94867 2.27244,-2.40246 4.38077,-3.23063 3.74732,-1.47199 3.84348,-1.63785 4.28629,-7.39306 0.24914,-3.238 0.42676,-9.02403 0.3947,-12.85784 l -0.0583,-6.97057 -4,-0.62534 c -2.2,-0.34394 -7.34552,-0.58219 -11.43449,-0.52944 l -7.4345,0.0959 -0.43224,9.5 c -0.43121,9.47705 -0.41839,14.96764 0.0524,22.45904 0.21018,3.34439 -0.13932,4.15717 -2.25119,5.23526 -1.375,0.70192 -4.88295,1.28285 -7.79545,1.29096 -4.34248,0.0121 -5.75048,-0.44028 -7.82387,-2.51367 -3.56802,-3.56802 -3.00927,-4.62846 3.86932,-7.34333 l 2.75,-1.08538 0,-14.399 c 0,-16.32692 0.004,-16.31773 -7.60089,-17.22705 -2.69451,-0.32218 -6.92411,-1.18323 -9.39911,-1.91344 -7.1336,-2.10467 -12.9114,-3.25865 -13.47811,-2.69195 -0.28704,0.28704 -0.52189,2.1718 -0.52189,4.18834 0,5.06846 -5.52717,17.2021 -11.41465,25.05824 -5.60756,7.48263 -12.41852,12.43929 -19.32559,14.06415 -2.61787,0.61584 -7.1623,1.96528 -10.09874,2.99877 -2.93645,1.03348 -5.63645,1.8242 -6,1.75716 -0.36356,-0.067 -4.17125,-0.71291 -8.46152,-1.43525 z M 427.74595,416.75 c 0.84635,2.51461 15.7797,0.66776 19.33279,-2.39093 2.25975,-1.94532 3.86661,-1.68102 4.77927,0.78612 0.79197,2.14092 0.79738,2.14123 2.71777,0.15344 1.05832,-1.09546 4.51172,-3.2386 7.67422,-4.76254 3.1625,-1.52393 5.75,-3.11173 5.75,-3.52844 0,-0.41671 1.40081,-1.03781 3.11292,-1.38023 1.71626,-0.34326 4.55226,-2.19399 6.321,-4.125 1.76445,-1.92633 3.9259,-3.50242 4.80323,-3.50242 0.87733,0 3.52547,-1.8 5.88476,-4 2.35928,-2.2 4.64702,-4 5.08385,-4 0.43683,0 0.79424,-1.24987 0.79424,-2.77749 0,-1.52763 0.68023,-3.74866 1.51162,-4.93563 3.73092,-5.32664 5.04568,-25.12014 2.92717,-44.06797 l -0.59047,-5.28108 -3.17416,0.53101 c -7.60737,1.27265 -28.11594,2.48415 -31.87545,1.88298 l -4.11247,-0.65761 0.89535,4.9029 c 3.43729,18.82239 -1.74234,44.54867 -10.95326,54.40289 -1.79934,1.925 -4.03338,4.73171 -4.96455,6.23714 -2.66622,4.3105 -15.597,9.76286 -23.15355,9.76286 -3.19084,0 -3.70543,1.11596 -1.68202,3.64768 2.56899,3.21437 5.3849,4.41896 7.07384,3.02606 1.096,-0.9039 1.51991,-0.88637 1.8439,0.0763 z m -47.30129,-2.11446 c -0.63451,-2.5281 1.33569,-4.04079 3.95419,-3.03598 0.76937,0.29523 1.69592,0.0561 2.05902,-0.53139 1.06876,-1.7293 7.51402,-1.30501 8.22251,0.54129 0.56705,1.47772 0.69159,1.47725 1.52153,-0.006 0.62344,-1.11402 1.66327,-1.42465 3.35101,-1.00105 4.19315,1.05241 2.72819,-0.13306 -5.17779,-4.18998 -15.95509,-8.18726 -20.79077,-18.09624 -22.40586,-45.91266 -0.58628,-10.09738 3.63268,-26.64921 8.91638,-34.98074 9.40625,-14.83211 30.52085,-24.13504 43.61435,-19.21613 2.2,0.82648 7.15,2.64501 11,4.04116 3.85,1.39616 8.19262,3.71996 9.65026,5.16401 3.96128,3.92435 13.45627,5.58543 28.92464,5.06015 7.13104,-0.24216 13.98742,-1.00044 15.80604,-1.74807 l 3.21187,-1.32038 -2.5464,-3.44428 C 489.14588,312.16137 488,310.12387 488,309.52796 c 0,-0.59591 -0.86009,-1.81991 -1.9113,-2.71999 -1.07884,-0.92373 -2.43631,-4.17825 -3.11669,-7.47224 -0.66296,-3.20965 -1.49037,-6.06073 -1.8387,-6.33573 -0.69721,-0.55045 -2.74644,-4.00606 -4.8806,-8.23012 -0.75865,-1.50157 -1.80086,-2.99062 -2.31603,-3.30902 C 473.4215,281.14247 473,279.58508 473,278 c 0,-1.58508 -0.39359,-3.12522 -0.87464,-3.42252 -1.80965,-1.11843 -3.23663,-22.90023 -1.78283,-27.21362 0.51801,-1.53694 0.0184,-2.96984 -1.78095,-5.1083 -2.19913,-2.61353 -2.42721,-3.59447 -1.89014,-8.1292 0.48701,-4.11202 0.2542,-5.55104 -1.14885,-7.1014 -1.17542,-1.29883 -1.55306,-2.76742 -1.13744,-4.42338 0.3422,-1.36346 0.17054,-2.75815 -0.38148,-3.09931 -0.55202,-0.34117 -1.00535,-2.28125 -1.00741,-4.31129 -0.002,-2.03004 -0.90205,-5.16436 -2,-6.96515 -1.09794,-1.80079 -1.99626,-4.83829 -1.99626,-6.75 0,-1.91171 -0.3375,-3.47934 -0.75,-3.48363 -1.0044,-0.0104 -3.25,-4.94731 -3.25,-7.14501 0,-0.96474 -1.95252,-3.68752 -4.33894,-6.05063 -2.38642,-2.36311 -4.64499,-5.53406 -5.01905,-7.04656 -0.37406,-1.5125 -1.1445,-2.75 -1.71209,-2.75 -0.56758,0 -1.65902,-1.50073 -2.42541,-3.33496 -1.22783,-2.93861 -1.75657,-3.28166 -4.44897,-2.8865 -1.68055,0.24665 -3.08423,0.95988 -3.11929,1.58496 -0.0351,0.62507 -2.12773,2.8558 -4.65037,4.95717 -3.57644,2.97918 -5.15918,3.69427 -7.18625,3.24681 l -2.59963,-0.57385 2.75,1.53512 c 3.35867,1.8749 3.43109,2.79034 0.40881,5.16767 -2.99918,2.35915 -4.80955,5.74718 -4.08287,7.64088 0.31282,0.8152 -0.13879,2.85045 -1.00359,4.52278 -0.86479,1.67233 -1.57235,4.17757 -1.57235,5.56721 0,1.59156 -0.9252,3.13282 -2.5,4.16467 C 411.0227,208.21515 410.07505,211 412,211 c 1.26603,0 1.32319,7.68222 0.063,8.46109 -0.51538,0.31852 -0.91124,2.44903 -0.8797,4.73446 0.0346,2.50485 -0.51329,4.58215 -1.3793,5.2299 -2.37451,1.77602 -4.52466,7.0308 -3.73825,9.13592 0.40988,1.09717 0.17869,2.80847 -0.53262,3.94264 -0.69126,1.10221 -1.50649,3.57721 -1.81162,5.5 -1.47995,9.32599 -2.92402,13.13115 -5.41382,14.26558 -2.15919,0.9838 -2.42622,1.61234 -1.94494,4.57813 0.40838,2.51655 0.0326,4.10559 -1.40242,5.92989 -1.07816,1.37066 -1.96029,3.79554 -1.96029,5.38863 0,1.73336 -0.64289,3.14323 -1.60092,3.51086 -1.89435,0.72693 -3.43526,-1.33244 -2.68352,-3.58642 0.29179,-0.87487 -0.26909,-0.51574 -1.24641,0.79808 -1.45482,1.95572 -1.55735,2.74036 -0.56563,4.32836 0.9262,1.48308 0.93609,2.27122 0.042,3.34851 -0.64311,0.77489 -0.90836,2.08886 -0.58945,2.91993 0.34356,0.89532 -0.62385,2.74238 -2.37414,4.5329 -1.62468,1.66203 -3.20887,4.2503 -3.52041,5.75171 C 379.7488,303.20508 375.79876,311 374.77089,311 374.3469,311 374,311.88631 374,312.96958 c 0,1.08327 -0.9,3.57196 -2,5.53042 -1.1,1.95846 -2,4.20631 -2,4.99523 0,0.78892 -0.92163,1.92764 -2.04806,2.53049 -1.41588,0.75776 -1.85847,1.69343 -1.43384,3.03131 0.34811,1.0968 -0.24277,3.56157 -1.36386,5.6891 -1.08794,2.06463 -2.23133,4.54851 -2.54086,5.51973 -0.45982,1.4428 -1.27625,1.65178 -4.46249,1.14228 -5.39519,-0.86273 -6.04846,1.01556 -1.04896,3.01597 3.26262,1.30544 3.93203,1.98365 3.31246,3.35598 -0.42706,0.94595 -0.81299,3.22269 -0.85761,5.05942 -0.05,2.06036 -0.81166,3.87369 -1.98833,4.7341 -1.79179,1.31019 -1.80547,1.50701 -0.22599,3.25231 0.92817,1.02562 1.64845,3.3843 1.60806,5.2659 -0.0402,1.8745 0.23064,4.87153 0.60194,6.66006 0.45723,2.20244 0.1824,4.00383 -0.85159,5.5819 -0.98891,1.50926 -1.21051,2.82955 -0.62909,3.74812 1.11393,1.75988 1.22468,12.9181 0.12822,12.9181 -0.44,0 -1.31965,-0.51965 -1.95478,-1.15478 -0.63513,-0.63513 -3.76263,-1.27545 -6.95,-1.42292 l -5.79522,-0.26813 6.26016,1.28515 c 6.69658,1.37475 15.21886,6.5086 22.80065,13.73518 2.23344,2.1288 4.44309,3.52292 4.91032,3.09803 0.46724,-0.42489 0.52832,-0.21407 0.13573,0.46848 -0.39258,0.68256 0.0978,2.35592 1.08968,3.71858 2.25707,3.10072 2.48803,3.12396 1.74812,0.17595 z M 399,221.16667 c 0,-2.35918 -0.84053,-3.16509 -2.59777,-2.49078 C 394.19011,219.52476 394.67053,223 397,223 c 1.27273,0 2,-0.66667 2,-1.83333 z M 316.86389,444.25 c -0.97498,-1.17989 -1.26981,-3.05312 -0.90499,-5.75 0.45438,-3.35895 0.94175,-4.04152 3.0411,-4.25905 3.65904,-0.37915 5.03062,0.95355 5.18414,5.03716 0.22502,5.98545 -4.07139,8.90355 -7.32025,4.97189 z m 39.44367,-10.34244 c -1.16801,-1.16801 -0.61517,-8.79383 0.74557,-10.28434 1.36028,-1.49002 5.95766,0.30636 7.07824,2.76576 2.29544,5.03794 -4.12984,11.21255 -7.82381,7.51858 z"
       style="fill:#fcb402" />
    <path
       id="path4778"
       d="m 443.74586,491.75 c -1.92562,-1.47093 -3.091,-5.76314 -2.00581,-7.38761 0.41797,-0.62568 2.38371,-1.81359 4.36832,-2.63979 3.46902,-1.44418 3.62574,-1.72849 4.05828,-7.36239 0.24745,-3.22312 0.42369,-8.99696 0.39163,-12.83077 l -0.0583,-6.97057 -4,-0.62534 c -2.2,-0.34394 -7.34552,-0.58219 -11.43449,-0.52944 l -7.4345,0.0959 -0.43224,9.5 c -0.43121,9.47705 -0.41839,14.96764 0.0524,22.45904 0.21018,3.34439 -0.13932,4.15717 -2.25119,5.23526 -1.375,0.70192 -4.88295,1.28285 -7.79545,1.29096 -4.34248,0.0121 -5.75048,-0.44028 -7.82387,-2.51367 -3.56802,-3.56802 -3.00927,-4.62846 3.86932,-7.34333 l 2.75,-1.08538 0,-14.399 c 0,-16.32692 0.004,-16.31773 -7.60089,-17.22705 -2.69451,-0.32218 -6.92411,-1.2088 -9.39911,-1.97026 -2.475,-0.76145 -6.12558,-1.63221 -8.11241,-1.93502 l -3.6124,-0.55055 -0.50758,-8.90209 c -0.36859,-6.46461 -1.05758,-9.81344 -2.51631,-12.2305 -1.10481,-1.83063 -2.56586,-5.06938 -3.24679,-7.19723 -1.35649,-4.23897 -0.18968,-6.10938 3.16133,-5.06767 0.91622,0.28481 1.95527,0.0495 2.30902,-0.52283 1.05589,-1.70847 7.50315,-1.26157 8.20552,0.56878 0.56705,1.47772 0.69159,1.47725 1.52153,-0.006 0.62344,-1.11402 1.66327,-1.42465 3.35101,-1.00105 4.19315,1.05241 2.72819,-0.13306 -5.17779,-4.18998 -15.95509,-8.18726 -20.79077,-18.09624 -22.40586,-45.91266 -0.58628,-10.09738 3.63268,-26.64921 8.91638,-34.98074 9.40625,-14.83211 30.52085,-24.13504 43.61435,-19.21613 2.2,0.82648 7.15,2.64501 11,4.04116 3.85,1.39616 8.19262,3.71996 9.65026,5.16401 3.96128,3.92435 13.45627,5.58543 28.92464,5.06015 7.13104,-0.24216 13.98742,-1.00044 15.80604,-1.74807 l 3.21187,-1.32038 -2.5464,-3.44428 C 489.14588,312.16137 488,310.12387 488,309.52796 c 0,-0.59591 -0.86009,-1.81991 -1.9113,-2.71999 -1.07884,-0.92373 -2.43631,-4.17825 -3.11669,-7.47224 -0.66296,-3.20965 -1.49037,-6.06073 -1.8387,-6.33573 -0.69721,-0.55045 -2.74644,-4.00606 -4.8806,-8.23012 -0.75865,-1.50157 -1.80086,-2.99062 -2.31603,-3.30902 C 473.4215,281.14247 473,279.58508 473,278 c 0,-1.58508 -0.39359,-3.12522 -0.87464,-3.42252 -1.80965,-1.11843 -3.23663,-22.90023 -1.78283,-27.21362 0.51801,-1.53694 0.0184,-2.96984 -1.78095,-5.1083 -2.19913,-2.61353 -2.42721,-3.59447 -1.89014,-8.1292 0.48701,-4.11202 0.2542,-5.55104 -1.14885,-7.1014 -1.17542,-1.29883 -1.55306,-2.76742 -1.13744,-4.42338 0.3422,-1.36346 0.17054,-2.75815 -0.38148,-3.09931 -0.55202,-0.34117 -1.00535,-2.28125 -1.00741,-4.31129 -0.002,-2.03004 -0.90205,-5.16436 -2,-6.96515 -1.09794,-1.80079 -1.99626,-4.83829 -1.99626,-6.75 0,-1.91171 -0.3375,-3.47934 -0.75,-3.48363 -1.0044,-0.0104 -3.25,-4.94731 -3.25,-7.14501 0,-0.96474 -1.95252,-3.68752 -4.33894,-6.05063 -2.38642,-2.36311 -4.64499,-5.53406 -5.01905,-7.04656 -0.37406,-1.5125 -1.1445,-2.75 -1.71209,-2.75 -0.56758,0 -1.65902,-1.50073 -2.42541,-3.33496 -1.22783,-2.93861 -1.75657,-3.28166 -4.44897,-2.8865 -1.68055,0.24665 -3.08423,0.95988 -3.11929,1.58496 -0.0351,0.62507 -2.12773,2.8558 -4.65037,4.95717 -3.57644,2.97918 -5.15918,3.69427 -7.18625,3.24681 l -2.59963,-0.57385 2.75,1.53512 c 3.35867,1.8749 3.43109,2.79034 0.40881,5.16767 -2.99918,2.35915 -4.80955,5.74718 -4.08287,7.64088 0.31282,0.8152 -0.13879,2.85045 -1.00359,4.52278 -0.86479,1.67233 -1.57235,4.17757 -1.57235,5.56721 0,1.59156 -0.9252,3.13282 -2.5,4.16467 C 411.0227,208.21515 410.07505,211 412,211 c 1.26603,0 1.32319,7.68222 0.063,8.46109 -0.51538,0.31852 -0.91124,2.44903 -0.8797,4.73446 0.0346,2.50485 -0.51329,4.58215 -1.3793,5.2299 -2.37451,1.77602 -4.52466,7.0308 -3.73825,9.13592 0.40988,1.09717 0.17869,2.80847 -0.53262,3.94264 -0.69126,1.10221 -1.50649,3.57721 -1.81162,5.5 -1.47995,9.32599 -2.92402,13.13115 -5.41382,14.26558 -2.15919,0.9838 -2.42622,1.61234 -1.94494,4.57813 0.40838,2.51655 0.0326,4.10559 -1.40242,5.92989 -1.07816,1.37066 -1.96029,3.79554 -1.96029,5.38863 0,1.73336 -0.64289,3.14323 -1.60092,3.51086 -1.89435,0.72693 -3.43526,-1.33244 -2.68352,-3.58642 0.29179,-0.87487 -0.26909,-0.51574 -1.24641,0.79808 -1.45482,1.95572 -1.55735,2.74036 -0.56563,4.32836 0.9262,1.48308 0.93609,2.27122 0.042,3.34851 -0.64311,0.77489 -0.90836,2.08886 -0.58945,2.91993 0.34356,0.89532 -0.62385,2.74238 -2.37414,4.5329 -1.62468,1.66203 -3.20887,4.2503 -3.52041,5.75171 C 379.7488,303.20508 375.79876,311 374.77089,311 374.3469,311 374,311.88631 374,312.96958 c 0,1.08327 -0.9,3.57196 -2,5.53042 -1.1,1.95846 -2,4.20631 -2,4.99523 0,0.78892 -0.92163,1.92764 -2.04806,2.53049 -1.41588,0.75776 -1.85847,1.69343 -1.43384,3.03131 0.34811,1.0968 -0.24277,3.56157 -1.36386,5.6891 -1.08794,2.06463 -2.23133,4.54851 -2.54086,5.51973 -0.45982,1.4428 -1.27625,1.65178 -4.46249,1.14228 -5.39519,-0.86273 -6.04846,1.01556 -1.04896,3.01597 3.26262,1.30544 3.93203,1.98365 3.31246,3.35598 -0.42706,0.94595 -0.81299,3.22269 -0.85761,5.05942 -0.05,2.06036 -0.81166,3.87369 -1.98833,4.7341 -1.79179,1.31019 -1.80547,1.50701 -0.22599,3.25231 0.92817,1.02562 1.64845,3.3843 1.60806,5.2659 -0.0402,1.8745 0.23064,4.87153 0.60194,6.66006 0.45723,2.20244 0.1824,4.00383 -0.85159,5.5819 -0.98891,1.50926 -1.21051,2.82955 -0.62909,3.74812 1.11393,1.75988 1.22468,12.9181 0.12822,12.9181 -0.44,0 -1.31447,-0.51447 -1.94327,-1.14327 -0.6288,-0.6288 -2.50864,-1.25068 -4.17742,-1.38196 -1.66879,-0.13127 -5.4424,-0.53957 -8.38582,-0.90733 l -5.35166,-0.66864 -1.58632,-7.1994 c -2.99409,-13.58851 -4.1796,-29.57446 -2.80262,-37.79199 0.68267,-4.07407 1.59886,-9.88241 2.03597,-12.90741 0.43711,-3.025 1.10344,-6.44567 1.48074,-7.6015 0.62446,-1.91299 0.2081,-2.15888 -4.6418,-2.7413 -2.93029,-0.3519 -7.15292,-0.64373 -9.38363,-0.64851 -2.2307,-0.005 -6.7307,-0.87254 -10,-1.92835 -3.26929,-1.05581 -9.99417,-3.1419 -14.94417,-4.63577 -8.14343,-2.45761 -19.17128,-8.48564 -21.03213,-11.49655 -1.27264,-2.05919 0.52002,-5.90688 3.04762,-6.54126 2.83752,-0.71218 9.96856,1.8146 12.98451,4.60085 5.27253,4.87097 22.73162,8.99239 38.09344,8.99239 10.04116,0 11.53972,-0.21791 12.0346,-1.75 0.3109,-0.9625 1.15043,-3.1 1.86562,-4.75 0.7152,-1.65 2.28086,-5.475 3.47924,-8.5 1.19839,-3.025 3.35574,-7.75 4.79411,-10.5 3.11401,-5.95359 6.27144,-12.34184 9.14375,-18.5 1.1544,-2.475 3.51483,-6.975 5.2454,-10 1.73057,-3.025 4.02116,-7.75 5.09018,-10.5 4.23854,-10.90334 6.71248,-18.07169 6.73257,-19.50796 0.0116,-0.82937 1.14609,-3.62126 2.52109,-6.20419 1.375,-2.58293 2.5,-5.4372 2.5,-6.34282 0,-0.90562 1.2784,-6.21373 2.84088,-11.79581 4.74659,-16.95749 5.27382,-18.98136 6.16074,-23.64922 2.79998,-14.73619 6.69896,-23.42155 14.99838,-33.41036 8.34882,-10.04825 17.1534,-13.06843 35.81667,-12.28597 15.36892,0.64434 21.94254,2.51878 31.94647,9.1094 8.01188,5.27825 12.14708,9.73709 15.35032,16.5517 1.17016,2.4894 2.93601,5.55396 3.92412,6.81014 0.98812,1.25618 2.1121,4.18322 2.49774,6.50453 0.38565,2.32131 1.27833,5.3494 1.98374,6.72909 1.14479,2.23906 2.4477,8.34287 5.53032,25.90825 0.52284,2.97923 0.97744,8.15423 1.01023,11.5 0.0328,3.34577 0.44196,8.10822 0.90927,10.58322 0.4673,2.475 1.33592,7.22317 1.93025,10.5515 2.37163,13.28132 7.79604,27.33124 14.77855,38.27831 1.86978,2.9314 4.5205,8.3314 5.89051,12 1.37001,3.66861 4.05262,9.661 5.96137,13.31642 1.90874,3.65543 3.47044,7.29606 3.47044,8.09028 0,0.79423 1.35391,4.15346 3.00869,7.46496 1.65477,3.3115 3.92091,10.24588 5.03585,15.40972 1.76551,8.17695 1.972,11.99696 1.59977,29.5953 -0.37926,17.93041 -0.6512,20.57747 -2.41417,23.5 -1.09273,1.81143 -2.29289,5.01285 -2.66704,7.11427 -0.99359,5.58051 -6.37251,18.52516 -9.72823,23.41149 -3.4053,4.95852 -20.21559,20.02616 -25.01775,22.42425 -1.82442,0.91108 -6.46712,3.06858 -10.31712,4.79445 -3.85,1.72588 -8.575,3.96255 -10.5,4.97039 -1.925,1.00784 -5.525,2.1291 -8,2.49169 -10.50493,1.539 -17.13108,3.03998 -17.99026,4.07523 -1.26871,1.5287 -1.68744,19.36325 -0.67512,28.75432 l 0.83463,7.74257 -2.64973,1.00743 c -3.72794,1.41736 -14.81042,1.25709 -16.77366,-0.24258 z m -15.99991,-75 c 0.84635,2.51461 15.7797,0.66776 19.33279,-2.39093 2.25975,-1.94532 3.86661,-1.68102 4.77927,0.78612 0.79197,2.14092 0.79738,2.14123 2.71777,0.15344 1.05832,-1.09546 4.51172,-3.2386 7.67422,-4.76254 3.1625,-1.52393 5.75,-3.11173 5.75,-3.52844 0,-0.41671 1.40081,-1.03781 3.11292,-1.38023 1.71626,-0.34326 4.55226,-2.19399 6.321,-4.125 1.76445,-1.92633 3.9259,-3.50242 4.80323,-3.50242 0.87733,0 3.52547,-1.8 5.88476,-4 2.35928,-2.2 4.64702,-4 5.08385,-4 0.43683,0 0.79424,-1.24987 0.79424,-2.77749 0,-1.52763 0.68023,-3.74866 1.51162,-4.93563 3.73092,-5.32664 5.04568,-25.12014 2.92717,-44.06797 l -0.59047,-5.28108 -3.17416,0.53101 c -7.60737,1.27265 -28.11594,2.48415 -31.87545,1.88298 l -4.11247,-0.65761 0.89535,4.9029 c 3.43729,18.82239 -1.74234,44.54867 -10.95326,54.40289 -1.79934,1.925 -4.03338,4.73171 -4.96455,6.23714 -2.66622,4.3105 -15.597,9.76286 -23.15355,9.76286 -3.19084,0 -3.70543,1.11596 -1.68202,3.64768 2.56899,3.21437 5.3849,4.41896 7.07384,3.02606 1.096,-0.9039 1.51991,-0.88637 1.8439,0.0763 z M 399,221.16667 c 0,-2.35918 -0.84053,-3.16509 -2.59777,-2.49078 C 394.19011,219.52476 394.67053,223 397,223 c 1.27273,0 2,-0.66667 2,-1.83333 z m -62.37629,234.31418 c -1.82544,-1.82544 -1.93921,-2.43558 -0.79134,-4.24386 0.95346,-1.502 14.87878,-5.53354 16.22964,-4.69867 0.5159,0.31884 0.93799,1.70346 0.93799,3.07693 0,1.98223 -0.87645,2.87715 -4.25,4.33958 -6.80375,2.94943 -10.26705,3.38526 -12.12629,1.52602 z M 316.86389,444.25 c -0.97498,-1.17989 -1.26981,-3.05312 -0.90499,-5.75 0.45438,-3.35895 0.94175,-4.04152 3.0411,-4.25905 3.65904,-0.37915 5.03062,0.95355 5.18414,5.03716 0.22502,5.98545 -4.07139,8.90355 -7.32025,4.97189 z m 39.44367,-10.34244 c -1.16801,-1.16801 -0.61517,-8.79383 0.74557,-10.28434 1.36028,-1.49002 5.95766,0.30636 7.07824,2.76576 2.29544,5.03794 -4.12984,11.21255 -7.82381,7.51858 z"
       style="fill:#95d04a" />
    <path
       id="path4776"
       d="m 443.74586,491.75 c -1.92562,-1.47093 -3.091,-5.76314 -2.00581,-7.38761 0.41797,-0.62568 2.38371,-1.81359 4.36832,-2.63979 3.46902,-1.44418 3.62574,-1.72849 4.05828,-7.36239 0.24745,-3.22312 0.42369,-8.99696 0.39163,-12.83077 l -0.0583,-6.97057 -4,-0.62534 c -2.2,-0.34394 -7.34552,-0.58219 -11.43449,-0.52944 l -7.4345,0.0959 -0.43224,9.5 c -0.43121,9.47705 -0.41839,14.96764 0.0524,22.45904 0.21018,3.34439 -0.13932,4.15717 -2.25119,5.23526 -1.375,0.70192 -4.88295,1.28285 -7.79545,1.29096 -4.34248,0.0121 -5.75048,-0.44028 -7.82387,-2.51367 -3.56802,-3.56802 -3.00927,-4.62846 3.86932,-7.34333 l 2.75,-1.08538 0,-14.399 c 0,-16.32692 0.004,-16.31773 -7.60089,-17.22705 -2.69451,-0.32218 -6.92411,-1.2088 -9.39911,-1.97026 -2.475,-0.76145 -6.1875,-1.64383 -8.25,-1.96083 -2.91542,-0.44809 -3.75,-1.02908 -3.75,-2.61051 0,-1.74801 0.42969,-1.93977 3.05469,-1.36322 2.96936,0.65218 3.04619,0.57757 2.75,-2.67054 -0.39418,-4.32291 1.3851,-4.73285 2.7642,-0.63685 1.37755,4.09135 2.98963,4.55876 5.9927,1.73752 2.06453,-1.93952 2.78321,-2.10607 4.90881,-1.13758 1.62653,0.7411 2.2865,1.66538 1.9029,2.66502 -0.323,0.84173 -0.20163,1.57011 0.26971,1.61861 9.71314,0.99956 12.35699,0.85409 12.35699,-0.67991 0,-1.41315 1.00798,-1.52721 8.01469,-0.90698 6.2407,0.55243 8.50947,0.38844 10.25,-0.74089 1.22942,-0.79769 4.22135,-1.71215 6.64873,-2.03214 2.42739,-0.31999 5.57739,-1.51409 7,-2.65355 1.42262,-1.13947 5.12265,-3.40295 8.2223,-5.02995 7.88906,-4.14096 14.62658,-8.81901 16.38261,-11.3749 13.79296,-20.07563 14.02124,-20.47885 17.6319,-31.14493 4.31836,-12.75668 5.94054,-23.33133 5.37293,-35.02494 -0.63291,-13.03859 -1.46286,-20.35705 -2.36684,-20.87066 -0.36098,-0.20509 -7.40632,0.224 -15.65632,0.95355 -8.25,0.72954 -17.41975,1.05315 -20.37723,0.71914 l -5.37722,-0.6073 0.66404,3.90264 c 0.36522,2.14644 0.9147,8.62763 1.22108,14.40263 0.59287,11.17522 -1.17884,21.1143 -5.60399,31.43775 -2.72954,6.36776 -12.61079,18.31638 -16.94037,20.48467 -7.00188,3.50659 -17.6541,5.39879 -26.44609,4.69773 -18.55935,-1.4799 -31.16763,-13.16552 -34.11678,-31.62015 -1.55476,-9.72911 -2.17529,-19.72712 -1.39355,-22.4529 0.47856,-1.66864 0.87011,-4.82817 0.87011,-7.02117 0,-3.76731 2.18181,-10.6785 5.8485,-18.52593 2.18182,-4.66952 11.785,-14.77068 16.1515,-16.98905 11.26876,-5.725 21.2153,-6.60889 30.58985,-2.71835 3.25058,1.34903 7.71015,3.01435 9.91015,3.70072 2.2,0.68636 5.13318,2.30289 6.51817,3.59229 5.35481,4.9852 30.61534,6.88261 45.76045,3.43723 l 5.27861,-1.20084 -0.66382,-3.661 c -0.3651,-2.01355 -1.44109,-5.236 -2.39109,-7.161 -0.95,-1.925 -2.02582,-5.8336 -2.39072,-8.68578 -0.3649,-2.85218 -1.81266,-7.80218 -3.21724,-11 -1.40459,-3.19782 -2.93298,-6.71422 -3.39641,-7.81422 -2.30377,-5.46814 -3.91065,-11.79431 -4.9531,-19.5 -0.63245,-4.675 -1.63165,-10.40142 -2.22045,-12.72538 -0.58879,-2.32396 -0.81374,-5.20737 -0.49988,-6.40757 0.31386,-1.2002 -0.10961,-3.79878 -0.94103,-5.77462 -1.88558,-4.48099 -2.34755,-12.30915 -1.04385,-17.68823 0.54814,-2.26163 0.62374,-4.94853 0.1688,-6 -0.45313,-1.04731 -0.72128,-2.51851 -0.59588,-3.26933 0.12539,-0.75082 -0.45118,-5.70082 -1.28128,-11 -0.83009,-5.29918 -1.46697,-10.30987 -1.41529,-11.13487 0.24896,-3.97387 -2.61276,-23.20838 -4.27917,-28.76171 -2.17106,-7.23506 -3.28285,-9.50526 -6.85046,-13.98826 -2.90838,-3.65462 -4.53157,-4.06379 -5.96438,-1.50351 -0.85569,1.52904 -1.38592,1.59233 -4.25795,0.50826 -2.06859,-0.78081 -3.631,-0.88781 -4.22917,-0.28964 -0.59817,0.59817 -2.04542,0.0257 -3.91746,-1.54948 -2.78885,-2.34666 -3.08045,-2.39708 -4.81023,-0.83165 -1.02315,0.92594 -2.72344,1.43579 -3.82634,1.14738 -1.09171,-0.28549 -2.14557,-0.0372 -2.3419,0.55182 C 429.2414,143.7758 427,142.21307 427,140.3736 c 0,-1.08791 0.59872,-1.31835 2.14786,-0.82667 1.95921,0.62183 2.09316,0.40816 1.525,-2.43261 -0.72304,-3.6152 -2.07478,-3.31533 14.82714,-3.28923 14.60616,0.0226 20.87594,1.74487 31.26314,8.58798 8.01188,5.27825 12.14708,9.73709 15.35032,16.5517 1.17016,2.4894 2.93601,5.55396 3.92412,6.81014 0.98812,1.25618 2.1121,4.18322 2.49774,6.50453 0.38565,2.32131 1.27833,5.3494 1.98374,6.72909 1.14479,2.23906 2.4477,8.34287 5.53032,25.90825 0.52284,2.97923 0.97744,8.15423 1.01023,11.5 0.0328,3.34577 0.44196,8.10822 0.90927,10.58322 0.4673,2.475 1.33592,7.22317 1.93025,10.5515 2.37163,13.28132 7.79604,27.33124 14.77855,38.27831 1.86978,2.9314 4.5205,8.3314 5.89051,12 1.37001,3.66861 4.05262,9.661 5.96137,13.31642 1.90874,3.65543 3.47044,7.29606 3.47044,8.09028 0,0.79423 1.35391,4.15346 3.00869,7.46496 1.65477,3.3115 3.92091,10.24588 5.03585,15.40972 1.76551,8.17695 1.972,11.99696 1.59977,29.5953 -0.37926,17.93041 -0.6512,20.57747 -2.41417,23.5 -1.09273,1.81143 -2.29289,5.01285 -2.66704,7.11427 -0.99359,5.58051 -6.37251,18.52516 -9.72823,23.41149 -3.4053,4.95852 -20.21559,20.02616 -25.01775,22.42425 -1.82442,0.91108 -6.46712,3.06858 -10.31712,4.79445 -3.85,1.72588 -8.575,3.96255 -10.5,4.97039 -1.925,1.00784 -5.525,2.1291 -8,2.49169 -10.50493,1.539 -17.13108,3.03998 -17.99026,4.07523 -1.26871,1.5287 -1.68744,19.36325 -0.67512,28.75432 l 0.83463,7.74257 -2.64973,1.00743 c -3.72794,1.41736 -14.81042,1.25709 -16.77366,-0.24258 z M 336.74925,454.90969 334.5,453 l 2.36078,-2 c 1.29844,-1.1 3.15436,-2 4.12428,-2 0.96992,0 3.50756,-0.60763 5.63921,-1.35028 4.7754,-1.66373 6.37573,-1.18721 6.37573,1.89843 0,2.72843 -2.18496,4.15408 -9.20462,6.00583 -4.34754,1.14686 -5.00757,1.0865 -7.04613,-0.64429 z M 316.86389,444.25 c -0.97498,-1.17989 -1.26981,-3.05312 -0.90499,-5.75 0.45438,-3.35895 0.94175,-4.04152 3.0411,-4.25905 3.65904,-0.37915 5.03062,0.95355 5.18414,5.03716 0.22502,5.98545 -4.07139,8.90355 -7.32025,4.97189 z m 39.44367,-10.34244 c -1.16801,-1.16801 -0.61517,-8.79383 0.74557,-10.28434 1.36028,-1.49002 5.95766,0.30636 7.07824,2.76576 2.29544,5.03794 -4.12984,11.21255 -7.82381,7.51858 z M 324,321.97454 c -4.125,-0.39799 -9.525,-1.41921 -12,-2.26937 -2.475,-0.85016 -8.55,-2.76772 -13.5,-4.26123 -8.14378,-2.45714 -19.17094,-8.48447 -21.03213,-11.49592 -1.27264,-2.05919 0.52002,-5.90688 3.04762,-6.54126 2.83752,-0.71218 9.96856,1.8146 12.98451,4.60085 5.06556,4.67977 22.74832,8.99239 36.87092,8.99239 7.11259,0 10.82161,0.4203 12.126,1.37409 1.82567,1.33496 1.81971,1.41122 -0.20909,2.67823 -1.14855,0.71728 -1.8536,1.9157 -1.56677,2.66316 0.28683,0.74746 -0.27782,2.24225 -1.25477,3.32177 -1.89557,2.09458 -2.86356,2.15324 -15.46629,0.93729 z m 26.29454,-14.54948 c -1.13205,-2.47456 -1.07115,-2.59294 1,-1.94399 1.213,0.38007 3.55508,0.63662 5.20462,0.57012 2.65091,-0.10689 2.82508,0.0496 1.5,1.34814 -0.82454,0.80798 -2.62416,1.73719 -3.99916,2.06491 -2.02282,0.48211 -2.73009,0.0929 -3.70546,-2.03918 z m 12.98889,-36.54163 C 361.80759,269.40759 363.37883,266 365.53518,266 c 1.79952,0 1.89368,2.03123 0.20145,4.3455 -0.97662,1.33561 -1.53343,1.4577 -2.4532,0.53793 z M 379.2,252.8 c -2.22191,-2.22191 -1.33597,-3.8 2.13333,-3.8 4.45593,0 5.08381,0.88404 2.22503,3.13275 -2.80535,2.20669 -2.81712,2.20849 -4.35836,0.66725 z m 16.5811,-74.83808 c -0.55684,-3.79404 1.65167,-7.26961 3.15829,-4.97023 0.86684,1.32297 0.52838,5.18162 -0.63667,7.25831 -0.92627,1.65108 -2.09975,0.58628 -2.52162,-2.28808 z m 23.74759,-33.9155 c -1.13693,-1.8396 0.35294,-4.54528 3.53926,-6.42749 3.25602,-1.92338 5.57709,-1.29498 2.77765,0.75202 -0.90818,0.66408 -1.80748,2.31019 -1.99842,3.65802 -0.36153,2.55188 -3.17568,3.86656 -4.31849,2.01745 z"
       style="fill:#87a15e" />
    <path
       id="path4774"
       d="m 450.5,492.32596 c -6.16716,-0.76961 -7.28228,-1.32238 -7.93797,-3.93485 -0.74938,-2.98577 1.63262,-6.39111 4.47051,-6.39111 3.47181,0 4.03796,-2.36228 3.74816,-15.63946 L 450.5,453.5 l -11.91931,0 -11.91931,0 -0.10049,17.83142 c -0.11503,20.41277 0.24502,19.63239 -9.17231,19.88016 -4.84157,0.12738 -5.95599,-0.19408 -7.5661,-2.18248 -2.40573,-2.97095 -1.94875,-4.27208 1.95414,-5.56395 1.71953,-0.56916 3.41687,-1.32531 3.77189,-1.68032 0.95029,-0.95029 0.50823,-30.12809 -0.4713,-31.10762 -0.45927,-0.45927 -2.80203,-1.05776 -5.20613,-1.32998 -2.40409,-0.27221 -6.84608,-1.33049 -9.87108,-2.35171 -3.025,-1.02123 -7.1875,-2.13339 -9.25,-2.47146 -2.43665,-0.39941 -3.75,-1.15199 -3.75,-2.14883 0,-1.19046 0.68431,-1.38384 3.05469,-0.86322 2.96936,0.65218 3.04619,0.57757 2.75,-2.67054 -0.41552,-4.55686 1.25475,-5.11997 2.67498,-0.90184 1.46567,4.35307 3.03118,4.86853 6.08192,2.00251 2.06453,-1.93952 2.78321,-2.10607 4.90881,-1.13758 1.62653,0.7411 2.2865,1.66538 1.9029,2.66502 -0.323,0.84173 -0.20163,1.57011 0.26971,1.61861 9.71314,0.99956 12.35699,0.85409 12.35699,-0.67991 0,-1.41315 1.00798,-1.52721 8.01469,-0.90698 6.2407,0.55243 8.50947,0.38844 10.25,-0.74089 1.22942,-0.79769 4.16495,-1.70459 6.52341,-2.01533 2.35845,-0.31074 5.43743,-1.39301 6.84216,-2.40503 2.57942,-1.85832 14.30373,-8.84915 19.90819,-11.87062 1.67114,-0.90095 4.10338,-3.28764 5.40498,-5.30376 C 485.17388,407.96596 489.42088,402 490.1632,402 c 0.46024,0 0.8368,-0.68111 0.8368,-1.51357 0,-1.52548 0.28924,-2.24776 3.3308,-8.31747 0.91806,-1.83207 1.67197,-4.30707 1.67536,-5.5 0.003,-1.19293 0.64033,-3.38454 1.41542,-4.87024 3.48337,-6.67694 4.89628,-32.41001 2.45328,-44.6809 l -1.07154,-5.38218 -6.15166,0.64931 c -3.38341,0.35713 -12.67666,0.92481 -20.65166,1.26152 -7.975,0.33672 -14.69996,0.79147 -14.94436,1.01056 -0.24439,0.21909 0.0931,3.00048 0.75,6.18086 2.63333,12.74931 0.72509,29.75943 -4.77896,42.59986 -2.72954,6.36776 -12.61079,18.31638 -16.94037,20.48467 -7.00188,3.50659 -17.6541,5.39879 -26.44609,4.69773 -18.55935,-1.4799 -31.16763,-13.16552 -34.11678,-31.62015 -1.55476,-9.72911 -2.17529,-19.72712 -1.39355,-22.4529 0.47856,-1.66864 0.87011,-4.82817 0.87011,-7.02117 0,-3.76731 2.18181,-10.6785 5.8485,-18.52593 2.18182,-4.66952 11.785,-14.77068 16.1515,-16.98905 11.26876,-5.725 21.2153,-6.60889 30.58985,-2.71835 3.25058,1.34903 7.71015,3.01345 9.91015,3.69871 2.2,0.68526 5.35,2.48016 7,3.98867 1.90206,1.73895 5.19588,3.22986 9,4.07374 7.0186,1.55697 26.38373,1.33495 35.13383,-0.4028 l 5.86617,-1.16501 -0.31387,-3.90799 c -0.17263,-2.1494 -1.12325,-5.52123 -2.11248,-7.49296 -0.98923,-1.97173 -2.0989,-5.93172 -2.46593,-8.79999 -0.36703,-2.86827 -1.77452,-7.59327 -3.12776,-10.5 -1.35323,-2.90673 -2.46482,-6.07247 -2.47019,-7.03497 -0.005,-0.9625 -0.34736,-1.75 -0.75997,-1.75 -1.62958,0 -4.35009,-11.93372 -6.61109,-29 -0.18217,-1.375 -0.67642,-3.29501 -1.09835,-4.26668 -0.42193,-0.97167 -0.53203,-2.99656 -0.24468,-4.49974 0.28735,-1.50319 -0.14046,-4.30818 -0.95071,-6.23332 -1.85075,-4.39742 -2.29971,-12.25544 -1.00533,-17.59606 0.54814,-2.26163 0.62374,-4.94853 0.1688,-6 -0.45313,-1.04731 -0.72128,-2.51851 -0.59588,-3.26933 0.12539,-0.75082 -0.45118,-5.70082 -1.28128,-11 -0.83009,-5.29918 -1.46697,-10.30987 -1.41529,-11.13487 0.24896,-3.97387 -2.61276,-23.20838 -4.27917,-28.76171 -2.17106,-7.23506 -3.28285,-9.50526 -6.85046,-13.98826 -2.90838,-3.65462 -4.53157,-4.06379 -5.96438,-1.50351 -0.85569,1.52904 -1.38592,1.59233 -4.25795,0.50826 -2.06859,-0.78081 -3.631,-0.88781 -4.22917,-0.28964 -0.59817,0.59817 -2.04542,0.0257 -3.91746,-1.54948 -2.78885,-2.34666 -3.08045,-2.39708 -4.81023,-0.83165 -1.02315,0.92594 -2.72344,1.43579 -3.82634,1.14738 -1.09171,-0.28549 -2.14557,-0.0372 -2.3419,0.55182 C 429.2414,143.7758 427,142.21307 427,140.3736 c 0,-1.08791 0.59872,-1.31835 2.14786,-0.82667 1.94756,0.61813 2.09173,0.40103 1.54593,-2.32799 -0.79441,-3.97203 -0.005,-4.12674 15.33644,-3.00488 16.27127,1.18987 21.1246,2.52783 29.72697,8.1951 8.10165,5.33739 12.72317,10.17194 15.33325,16.04003 0.99097,2.22795 2.95101,5.60074 4.35566,7.49509 1.40464,1.89435 2.55389,4.72478 2.55389,6.28984 0,1.56505 0.85032,4.51513 1.88959,6.55572 1.03927,2.04059 2.40673,7.31016 3.0388,11.71016 0.63206,4.4 1.58772,10.25 2.12367,13 0.53595,2.75 1.40521,10.175 1.93169,16.5 1.81881,21.85104 6.78303,38.63736 15.92408,53.84665 2.61948,4.3584 5.82135,10.78838 7.11527,14.28885 1.29392,3.50048 3.84305,9.10187 5.66474,12.44755 1.82169,3.34567 3.31384,6.94567 3.3159,8 0.002,1.05432 0.91581,3.41294 2.03056,5.24138 6.08444,9.97978 8.25545,22.43025 8.1,46.45257 -0.12068,18.64988 -0.26256,20.04618 -2.48939,24.5 -1.29878,2.59765 -2.65526,6.63387 -3.0144,8.96938 -0.60116,3.90932 -2.24298,8.24888 -6.49634,17.17067 -4.19453,8.7984 -21.48336,23.87035 -34.36379,29.95746 -4.80129,2.26902 -9.35311,4.12549 -10.11514,4.12549 -0.76204,0 -2.55486,0.9198 -3.98404,2.044 -1.75498,1.38046 -5.72396,2.51317 -12.22635,3.48928 -5.29531,0.79491 -10.82416,2.02062 -12.28634,2.7238 l -2.65851,1.27852 0,17.95131 0,17.95131 -2.5,1.26615 c -2.51342,1.27294 -2.99705,1.30831 -8.5,0.62159 z M 336.74925,454.90969 334.5,453 l 2.36078,-2 c 1.29844,-1.1 3.15436,-2 4.12428,-2 0.96992,0 3.50756,-0.60763 5.63921,-1.35028 4.7754,-1.66373 6.37573,-1.18721 6.37573,1.89843 0,2.72843 -2.18496,4.15408 -9.20462,6.00583 -4.34754,1.14686 -5.00757,1.0865 -7.04613,-0.64429 z M 317.25143,444.3382 c -1.32237,-0.5337 -0.72133,-8.03935 0.77577,-9.68754 1.36782,-1.50586 4.94918,0.40705 5.59739,2.98973 1.25298,4.99225 -2.03564,8.44838 -6.37316,6.69781 z m 40.08096,-10.11161 c -0.66876,-0.42544 -1.07075,-2.66187 -0.94091,-5.23468 0.19222,-3.80893 0.56818,-4.54159 2.47264,-4.81867 4.68305,-0.68134 6.69512,4.15563 3.57918,8.60425 -1.6127,2.30245 -3.10458,2.72544 -5.11091,1.4491 z M 324,321.31657 c -5.25999,-0.2998 -8.20234,-1.05643 -26.64825,-6.85264 -10.14602,-3.18816 -18.71975,-8.88794 -19.16813,-12.74291 -0.47539,-4.08726 3.40056,-5.25684 9.19288,-2.77396 2.42174,1.03808 4.73059,2.41719 5.13076,3.06469 0.93713,1.5163 13.10306,6.98825 15.53717,6.98825 1.02189,0 4.44949,0.675 7.61688,1.5 3.38764,0.88237 10.17738,1.5 16.48977,1.5 10.76795,0 13.59738,0.89112 9.9875,3.14553 -1.06646,0.66601 -1.70858,1.81146 -1.42692,2.54544 0.28165,0.73397 -0.0433,2.00377 -0.72223,2.82176 -1.2287,1.4805 -2.76332,1.55765 -15.98943,0.80384 z m 26.29454,-13.89151 c -1.13205,-2.47456 -1.07115,-2.59294 1,-1.94399 1.213,0.38007 3.55508,0.63662 5.20462,0.57012 2.65091,-0.10689 2.82508,0.0496 1.5,1.34814 -0.82454,0.80798 -2.62416,1.73719 -3.99916,2.06491 -2.02282,0.48211 -2.73009,0.0929 -3.70546,-2.03918 z m 12.98889,-36.54163 C 361.80759,269.40759 363.37883,266 365.53518,266 c 1.79952,0 1.89368,2.03123 0.20145,4.3455 -0.97662,1.33561 -1.53343,1.4577 -2.4532,0.53793 z M 379.2,252.8 c -2.22191,-2.22191 -1.33597,-3.8 2.13333,-3.8 4.45593,0 5.08381,0.88404 2.22503,3.13275 -2.80535,2.20669 -2.81712,2.20849 -4.35836,0.66725 z m 16.5811,-74.83808 c -0.55684,-3.79404 1.65167,-7.26961 3.15829,-4.97023 0.86684,1.32297 0.52838,5.18162 -0.63667,7.25831 -0.92627,1.65108 -2.09975,0.58628 -2.52162,-2.28808 z m 23.74759,-33.9155 c -1.13693,-1.8396 0.35294,-4.54528 3.53926,-6.42749 3.25602,-1.92338 5.57709,-1.29498 2.77765,0.75202 -0.90818,0.66408 -1.80748,2.31019 -1.99842,3.65802 -0.36153,2.55188 -3.17568,3.86656 -4.31849,2.01745 z"
       style="fill:#85c533" />
    <path
       id="path4772"
       d="m 450.5,492.32596 c -6.16716,-0.76961 -7.28228,-1.32238 -7.93797,-3.93485 -0.74938,-2.98577 1.63262,-6.39111 4.47051,-6.39111 3.47181,0 4.03796,-2.36228 3.74816,-15.63946 L 450.5,453.5 l -11.91931,0 -11.91931,0 -0.10049,17.83142 c -0.11503,20.41277 0.24502,19.63239 -9.17231,19.88016 -4.84157,0.12738 -5.95599,-0.19408 -7.5661,-2.18248 -2.4243,-2.99388 -1.94834,-4.27247 2.08719,-5.60691 1.7927,-0.5928 3.5589,-1.55929 3.92489,-2.14777 0.36599,-0.58847 0.44044,-7.75346 0.16544,-15.92219 L 415.5,450.5 l -4,-0.79981 c -7.2502,-1.4497 -19.21524,-4.61127 -22,-5.81315 -1.14559,-0.49442 3.34009,-0.54787 10.5,-0.12511 28.42123,1.67815 45.77787,-1.16074 57.25231,-9.3643 2.61378,-1.8687 4.99815,-3.39763 5.2986,-3.39763 0.30046,0 3.24996,-1.79583 6.55445,-3.99073 6.14479,-4.08149 9.85439,-7.84566 13.39464,-13.59173 1.1,-1.78537 3.37366,-5.1972 5.05259,-7.58183 4.86684,-6.91257 10.52612,-22.44999 12.50628,-34.33571 1.40031,-8.4053 1.30148,-26.9207 -0.18352,-34.3798 l -1.07104,-5.37981 -5.65216,0.62931 c -3.10868,0.34612 -13.41719,0.92115 -22.90778,1.27785 -14.59564,0.54856 -18.41393,0.37576 -24.76955,-1.12097 -11.55304,-2.72069 -14.99873,-6.49157 -11.37567,-12.44922 2.13988,-3.51876 5.62342,-4.03642 11.11692,-1.65199 7.94929,3.45035 16.81547,4.53558 29.78393,3.64558 12.55134,-0.86137 21,-2.45224 21,-3.95427 0,-0.44342 -0.92116,-3.46358 -2.04702,-6.71145 -1.12587,-3.24788 -2.66925,-8.67893 -3.42974,-12.069 -0.76048,-3.39008 -2.08192,-7.51593 -2.93653,-9.16855 -0.85461,-1.65263 -2.5008,-5.62893 -3.6582,-8.83623 -1.15741,-3.2073 -2.73981,-7.24946 -3.51644,-8.98258 -0.77664,-1.73312 -1.40758,-4.43312 -1.4021,-6 0.0105,-3.00216 -2.16709,-19.04857 -4.52564,-33.34887 -0.77105,-4.675 -1.1649,-10.525 -0.87522,-13 0.28968,-2.475 -0.0119,-9 -0.67017,-14.5 -0.65827,-5.5 -1.3112,-12.925 -1.45094,-16.5 -0.41914,-10.72251 -3.40422,-28.53365 -5.89058,-35.14754 C 462.85893,146.56791 454.82828,136 452.03117,136 c -1.05223,0 -2.13621,-0.36095 -2.40886,-0.8021 -0.58655,-0.94905 11.50804,0.29741 15.99717,1.64865 4.52595,1.36233 16.74089,9.66092 20.46735,13.90512 1.76102,2.0057 4.01265,5.46958 5.00362,7.69752 0.99097,2.22795 2.95101,5.60074 4.35566,7.49509 1.40464,1.89435 2.55389,4.72478 2.55389,6.28984 0,1.56505 0.85032,4.51513 1.88959,6.55572 1.03927,2.04059 2.40673,7.31016 3.0388,11.71016 0.63206,4.4 1.58772,10.25 2.12367,13 0.53595,2.75 1.40521,10.175 1.93169,16.5 1.81881,21.85104 6.78303,38.63736 15.92408,53.84665 2.61948,4.3584 5.82135,10.78838 7.11527,14.28885 1.29392,3.50048 3.84305,9.10187 5.66474,12.44755 1.82169,3.34567 3.31384,6.94567 3.3159,8 0.002,1.05432 0.91581,3.41294 2.03056,5.24138 6.08444,9.97978 8.25545,22.43025 8.1,46.45257 -0.12068,18.64988 -0.26256,20.04618 -2.48939,24.5 -1.29878,2.59765 -2.65526,6.63387 -3.0144,8.96938 -0.60116,3.90932 -2.24298,8.24888 -6.49634,17.17067 -4.19453,8.7984 -21.48336,23.87035 -34.36379,29.95746 -4.80129,2.26902 -9.35311,4.12549 -10.11514,4.12549 -0.76204,0 -2.55486,0.9198 -3.98404,2.044 -1.75498,1.38046 -5.72396,2.51317 -12.22635,3.48928 -5.29531,0.79491 -10.82416,2.02062 -12.28634,2.7238 l -2.65851,1.27852 0,17.95131 0,17.95131 -2.5,1.26615 c -2.51342,1.27294 -2.99705,1.30831 -8.5,0.62159 z M 336.75,455.42881 c -1.51684,-1.54139 -0.68648,-4.49613 1.5,-5.33764 4.29898,-1.65452 12.67965,-3.25268 13.71181,-2.61478 2.19304,1.35538 0.95271,4.19395 -2.56572,5.87177 -4.15769,1.98266 -11.54625,3.19829 -12.64609,2.08065 z M 317.25143,444.3382 c -1.32237,-0.5337 -0.72133,-8.03935 0.77577,-9.68754 1.36782,-1.50586 4.94918,0.40705 5.59739,2.98973 1.25298,4.99225 -2.03564,8.44838 -6.37316,6.69781 z m 40.08096,-10.11161 c -0.66876,-0.42544 -1.07075,-2.66187 -0.94091,-5.23468 0.19222,-3.80893 0.56818,-4.54159 2.47264,-4.81867 4.68305,-0.68134 6.69512,4.15563 3.57918,8.60425 -1.6127,2.30245 -3.10458,2.72544 -5.11091,1.4491 z M 324,321.31657 c -5.25999,-0.2998 -8.20234,-1.05643 -26.64825,-6.85264 -10.14602,-3.18816 -18.71975,-8.88794 -19.16813,-12.74291 -0.47539,-4.08726 3.40056,-5.25684 9.19288,-2.77396 2.42174,1.03808 4.73059,2.41719 5.13076,3.06469 0.93713,1.5163 13.10306,6.98825 15.53717,6.98825 1.02189,0 4.44949,0.675 7.61688,1.5 3.22122,0.83902 10.07283,1.5 15.54879,1.5 5.38444,0 9.7899,0.32246 9.7899,0.71657 0,0.39411 -0.73614,2.64411 -1.63586,5 -1.81777,4.75975 -0.4869,4.44792 -15.36414,3.6 z"
       style="fill:#749942" />
    <path
       id="path4770"
       d="m 450.5,492.32596 c -6.16716,-0.76961 -7.28228,-1.32238 -7.93797,-3.93485 -0.74938,-2.98577 1.63262,-6.39111 4.47051,-6.39111 3.47181,0 4.03796,-2.36228 3.74816,-15.63946 L 450.5,453.5 l -11.91931,0 -11.91931,0 -0.10049,17.83142 c -0.11503,20.41277 0.24502,19.63239 -9.17231,19.88016 -4.84157,0.12738 -5.95599,-0.19408 -7.5661,-2.18248 -2.4243,-2.99388 -1.94834,-4.27247 2.08719,-5.60691 1.7927,-0.5928 3.5589,-1.55929 3.92489,-2.14777 0.36599,-0.58847 0.44044,-7.75346 0.16544,-15.92219 L 415.5,450.5 412,449.77305 c -1.925,-0.39983 -5.10932,-0.96805 -7.07627,-1.26272 -1.96694,-0.29468 -4.44194,-1.19164 -5.5,-1.99327 -1.71223,-1.29726 -0.43953,-1.43812 11.57627,-1.2813 27.14016,0.35421 34.10208,-1.34371 52.00015,-12.68215 11.97756,-7.5878 17.28388,-12.32579 20.21916,-18.05361 1.12742,-2.2 3.27183,-5.40133 4.76536,-7.11406 1.49353,-1.71273 4.16801,-6.60311 5.94328,-10.86752 2.84198,-6.82674 4.32822,-12.04393 7.98171,-28.01842 0.9148,-3.99984 -0.20785,-30.84575 -1.4712,-35.18083 -0.8569,-2.94037 -1.80697,-3.14999 -9.93846,-2.19275 -3.85,0.45323 -13.89603,1.05342 -22.3245,1.33377 -13.35438,0.4442 -16.31127,0.24533 -23,-1.54691 -11.20238,-3.00165 -14.01824,-6.53202 -8.6058,-10.78945 2.03528,-1.60095 3.09585,-1.82129 5.09959,-1.05947 1.39144,0.52903 6.53162,1.83526 11.42262,2.90273 7.90017,1.72424 10.42831,1.83192 22.65041,0.96471 17.07975,-1.21186 20.637,-1.94741 21.10227,-4.36336 0.19617,-1.01861 -0.77344,-5.50072 -2.1547,-9.96023 -1.38125,-4.45952 -3.1869,-10.35821 -4.01256,-13.10821 -0.82566,-2.75 -3.2956,-9.60518 -5.48876,-15.23374 -3.81797,-9.79848 -4.99124,-15.40236 -8.43043,-40.26626 -0.57058,-4.125 -1.13709,-12.9 -1.25893,-19.5 -0.12184,-6.6 -0.80178,-15.375 -1.51098,-19.5 -0.70919,-4.125 -1.35652,-10.425 -1.43849,-14 -0.2191,-9.55485 -3.10804,-26.64445 -5.66453,-33.50862 -1.22728,-3.29526 -4.17853,-8.40558 -6.55832,-11.35626 -2.37979,-2.95069 -4.32689,-5.76319 -4.32689,-6.25 0,-2.66014 11.66751,1.19453 19.76714,6.53059 8.09221,5.33117 12.71404,10.16721 15.32331,16.03348 0.99097,2.22795 2.95101,5.60074 4.35566,7.49509 1.40464,1.89435 2.55389,4.72478 2.55389,6.28984 0,1.56505 0.85032,4.51513 1.88959,6.55572 1.03927,2.04059 2.40673,7.31016 3.0388,11.71016 0.63206,4.4 1.58772,10.25 2.12367,13 0.53595,2.75 1.40521,10.175 1.93169,16.5 1.81881,21.85104 6.78303,38.63736 15.92408,53.84665 2.61948,4.3584 5.82135,10.78838 7.11527,14.28885 1.29392,3.50048 3.84305,9.10187 5.66474,12.44755 1.82169,3.34567 3.31384,6.94567 3.3159,8 0.002,1.05432 0.91581,3.41294 2.03056,5.24138 6.08444,9.97978 8.25545,22.43025 8.1,46.45257 -0.12068,18.64988 -0.26256,20.04618 -2.48939,24.5 -1.29878,2.59765 -2.65526,6.63387 -3.0144,8.96938 -0.60116,3.90932 -2.24298,8.24888 -6.49634,17.17067 -4.19453,8.7984 -21.48336,23.87035 -34.36379,29.95746 -4.80129,2.26902 -9.35311,4.12549 -10.11514,4.12549 -0.76204,0 -2.55486,0.9198 -3.98404,2.044 -1.75498,1.38046 -5.72396,2.51317 -12.22635,3.48928 -5.29531,0.79491 -10.82416,2.02062 -12.28634,2.7238 l -2.65851,1.27852 0,17.95131 0,17.95131 -2.5,1.26615 c -2.51342,1.27294 -2.99705,1.30831 -8.5,0.62159 z M 337.51273,454.02059 c -1.11348,-1.80165 0.50993,-2.87547 6.83962,-4.52415 7.11344,-1.85281 7.64765,-1.85436 7.64765,-0.0221 0,3.07674 -12.89463,7.12322 -14.48727,4.54627 z m -20.2613,-9.68239 c -1.32237,-0.5337 -0.72133,-8.03935 0.77577,-9.68754 1.36782,-1.50586 4.94918,0.40705 5.59739,2.98973 1.25298,4.99225 -2.03564,8.44838 -6.37316,6.69781 z m 40.08096,-10.11161 c -0.66876,-0.42544 -1.07075,-2.66187 -0.94091,-5.23468 0.19222,-3.80893 0.56818,-4.54159 2.47264,-4.81867 4.68305,-0.68134 6.69512,4.15563 3.57918,8.60425 -1.6127,2.30245 -3.10458,2.72544 -5.11091,1.4491 z M 324,321.31657 c -5.25999,-0.2998 -8.20234,-1.05643 -26.64825,-6.85264 -10.14602,-3.18816 -18.71975,-8.88794 -19.16813,-12.74291 -0.47539,-4.08726 3.40056,-5.25684 9.19288,-2.77396 2.42174,1.03808 4.73059,2.41719 5.13076,3.06469 0.93713,1.5163 13.10306,6.98825 15.53717,6.98825 1.02189,0 4.44949,0.675 7.61688,1.5 3.16739,0.825 9.76313,1.5 14.6572,1.5 l 8.89831,0 -0.61639,2.4559 c -1.64868,6.56884 -2.42629,7.55114 -5.82568,7.35912 -1.80111,-0.10174 -5.74975,-0.32605 -8.77475,-0.49845 z"
       style="fill:#5a5c4c" />
    <path
       id="path4768"
       d="m 444.78958,489.78958 c -2.9497,-2.9497 -1.5995,-6.78958 2.38737,-6.78958 3.75349,0 4.82087,-3.88819 4.75395,-17.3175 -0.0746,-14.9814 1.1415,-13.91289 -15.33506,-13.47337 l -10.90416,0.29087 -0.0855,18.2911 -0.0855,18.2911 -2.51033,0.67068 c -5.24427,1.4011 -11.10563,0.83728 -12.60443,-1.21244 -1.90085,-2.59958 -1.31729,-3.97313 1.84803,-4.3498 4.49774,-0.53523 4.81706,-1.86426 4.52204,-18.82097 L 416.5,449.50687 412,448.69013 c -10.58278,-1.92076 -10.58278,-2.55087 0,-2.43915 23.59492,0.24908 34.70253,-2.08432 46.65611,-9.80115 2.93914,-1.89741 7.93139,-5.11605 11.09389,-7.15255 7.28563,-4.69159 12.3014,-9.86726 14.68502,-15.15318 1.0278,-2.27925 2.19059,-4.1441 2.58397,-4.1441 2.55038,0 10.63212,-18.32278 13.46761,-30.53351 0.88973,-3.83157 2.05912,-8.64339 2.59863,-10.69293 1.86659,-7.09092 -0.83428,-36.49047 -3.56011,-38.75271 -0.88116,-0.7313 -5.89586,-0.64098 -16.64314,0.29976 -22.55023,1.9739 -29.72262,1.51143 -44.56281,-2.87333 -2.71997,-0.80367 -3.62804,-3.00163 -2.2804,-5.51972 1.30932,-2.44649 1.62054,-2.43299 13.88778,0.60224 9.04496,2.23796 11.68664,2.47348 22.89896,2.04154 6.97097,-0.26855 15.37449,-1.06947 18.67449,-1.77981 5.02829,-1.08236 6.05267,-1.66291 6.32521,-3.5847 0.42613,-3.00484 -5.48112,-22.7129 -11.75178,-39.20683 -3.93938,-10.36189 -4.4053,-12.33548 -6.4921,-27.5 -0.90823,-6.6 -2.11285,-14.70396 -2.67692,-18.00881 -0.56408,-3.30484 -0.93844,-9.82984 -0.8319,-14.5 0.10653,-4.67015 -0.38154,-12.76619 -1.0846,-17.99119 -0.70306,-5.225 -1.3578,-12.425 -1.45497,-16 -0.26474,-9.73985 -3.21416,-25.68032 -6.08275,-32.87489 -1.39797,-3.5062 -4.39369,-8.57117 -6.65715,-11.2555 -2.26346,-2.68433 -3.84214,-5.15384 -3.50819,-5.4878 1.38317,-1.38316 10.84601,2.04093 17.29879,6.2595 9.29348,6.07572 11.67979,8.49398 15.51053,15.71824 1.79083,3.37725 4.03519,7.26545 4.98747,8.64045 0.95228,1.375 2.03706,4.28445 2.41062,6.46544 0.37356,2.181 1.29116,5.14884 2.03911,6.59521 1.77352,3.42962 5.29065,24.92649 6.41297,39.1964 1.80868,22.99687 8.87042,45.04305 19.16833,59.84202 0.99472,1.42949 2.55522,4.80449 3.46778,7.5 0.91256,2.69551 3.40528,8.37844 5.53937,12.62873 2.1341,4.25029 3.88018,8.31765 3.88018,9.03856 0,0.72092 0.93569,3.09341 2.07932,5.2722 6.80513,12.96489 8.84475,24.94855 8.24988,48.47178 -0.39109,15.46545 -0.7792,19.14391 -2.37282,22.48966 -1.04788,2.2 -2.61834,6.86759 -3.48991,10.37241 -2.21975,8.92628 -7.09098,18.76492 -11.84345,23.92074 -10.24432,11.11377 -27.40973,22.566 -38.62302,25.76807 -1.375,0.39265 -3.49707,1.49213 -4.71572,2.4433 -1.24133,0.96887 -4.9793,2.02182 -8.5,2.39437 -9.92926,1.05067 -16.82672,2.8101 -17.73124,4.52295 -0.45838,0.86799 -0.74144,9.11188 -0.62902,18.31977 0.11241,9.20789 -0.14556,17.30789 -0.57326,18 -1.27963,2.0707 -12.88682,1.72233 -15.06118,-0.45203 z M 338,453.17868 c 0,-1.05205 1.01011,-1.46125 6.5,-2.63322 1.65,-0.35224 3.7875,-0.87439 4.75,-1.16034 2.85572,-0.84839 1.98866,1.27845 -1,2.45294 -4.45994,1.75267 -10.25,2.50997 -10.25,1.34062 z M 317.89404,443.25 c -0.2093,-1.48143 0.31289,-6.76452 0.737,-7.45633 0.23815,-0.38848 1.04692,-0.47074 1.79725,-0.18281 1.7269,0.66267 2.53781,4.69833 1.36512,6.79381 -0.9044,1.61607 -3.70471,2.22314 -3.89937,0.84533 z m 39.80438,-10 c -0.23078,-0.4125 -0.20542,-2.4605 0.0564,-4.55111 0.34109,-2.72399 0.90879,-3.71578 2.00341,-3.5 2.89063,0.56984 3.75049,3.37583 1.89994,6.20012 -1.69803,2.59152 -3.16241,3.27606 -3.95971,1.85099 z M 320.5,320.22436 c -1.1,-0.1516 -4.25,-0.94165 -7,-1.75568 -2.75,-0.81402 -9.05,-2.66321 -14,-4.10931 -10.97825,-3.20719 -20.5,-9.16606 -20.5,-12.82924 0,-1.44717 0.72794,-2.62639 1.83894,-2.97901 2.20481,-0.69978 8.83793,1.88115 11.75757,4.57485 2.48207,2.28999 11.08364,5.72465 17.40349,6.94931 2.475,0.47961 6.3,1.32314 8.5,1.87451 2.2,0.55137 7.51782,1.01323 11.81739,1.02635 7.33457,0.0224 7.78234,0.14738 7.25,2.02386 -0.31207,1.1 -0.8142,2.87317 -1.11585,3.94038 -0.48024,1.69898 -1.38217,1.91669 -7.25,1.75 -3.68585,-0.10471 -7.60154,-0.31442 -8.70154,-0.46602 z"
       style="fill:#46483a" />
    <path
       id="path4766"
       d="m 450,491.00458 c -5.35786,-0.49154 -5.50812,-0.58888 -5.81426,-3.76673 -0.28349,-2.94264 -0.0107,-3.32287 2.78551,-3.8821 1.70488,-0.34098 3.5214,-1.40775 4.0367,-2.37061 0.51531,-0.96285 1.06182,-7.52658 1.21448,-14.58605 0.27689,-12.80392 0.27144,-12.83856 -2.22243,-14.11939 -1.69175,-0.86888 -6.05594,-1.20247 -13.49892,-1.03184 l -10.99892,0.25214 -0.35093,11 c -0.46371,14.53473 -0.46892,16.24197 -0.065,21.30822 0.40899,5.13052 -0.73535,6.15459 -6.90193,6.17647 -7.47766,0.0265 -11.4494,-4.10863 -5.25336,-5.46951 1.612,-0.35406 3.35479,-1.17731 3.87287,-1.82946 0.51809,-0.65215 0.88668,-8.68376 0.8191,-17.84803 L 417.5,448.17538 l 4,-0.66702 c 2.2,-0.36686 6.925,-0.85339 10.5,-1.08118 8.80593,-0.56107 18.97736,-3.96286 28,-9.36447 15.57117,-9.32203 21.31996,-14.18793 24.78154,-20.97561 1.00614,-1.97291 3.08457,-4.9371 4.61874,-6.5871 1.53417,-1.65 4.00937,-5.925 5.50044,-9.5 2.14177,-5.13514 3.10797,-6.42884 4.60138,-6.1611 1.60043,0.28692 1.69379,0.10205 0.6087,-1.20539 -2.15948,-2.60202 4.69223,-27.97677 8.67039,-32.11006 l 2.00312,-2.08124 -2.89216,-3.23688 c -1.59068,-1.78029 -2.94148,-4.24228 -3.00178,-5.47111 -0.37635,-7.67008 -1.40821,-14.38847 -2.97035,-19.33983 -0.78547,-2.48962 -1.42571,-3.02038 -3.22785,-2.67588 -1.41608,0.2707 -2.94218,-0.33729 -4.1237,-1.64286 -1.85375,-2.04836 -1.83881,-2.08545 1.27792,-3.17195 2.66492,-0.92899 3.15361,-1.6025 3.15361,-4.3463 0,-1.78582 -0.92966,-5.9043 -2.0659,-9.15217 -1.13625,-3.24788 -2.49135,-7.91777 -3.01133,-10.37754 -0.51999,-2.45977 -1.83016,-6.83697 -2.9115,-9.72711 -1.08134,-2.89014 -1.73537,-5.85599 -1.4534,-6.59078 0.28196,-0.7348 -0.40321,-2.16484 -1.5226,-3.17788 C 486.91587,278.51888 486,276.84394 486,275.80983 c 0,-1.03411 -0.64851,-2.87686 -1.44114,-4.09501 -1.34063,-2.06036 -4.32673,-19.42291 -5.1105,-29.71482 -0.18848,-2.475 -0.65004,-6.3 -1.0257,-8.5 -0.37565,-2.2 -0.80062,-8.05 -0.94438,-13 -0.14375,-4.95 -0.52245,-11.25 -0.84154,-14 -1.41387,-12.18499 -1.88261,-17.14541 -2.07013,-21.90699 -0.74631,-18.95076 -6.12634,-36.13391 -13.80547,-44.09301 -2.27713,-2.36014 -2.5586,-3.06929 -1.31972,-3.32488 2.81031,-0.57978 8.91048,1.95072 15.81211,6.55925 7.52399,5.02411 11.75293,9.39781 14.73094,15.23518 1.09821,2.15267 3.12597,5.57796 4.50614,7.61174 1.38016,2.03379 2.50939,4.97115 2.50939,6.52746 0,1.55632 0.87567,4.53102 1.94593,6.61046 1.08961,2.11703 2.6186,8.66623 3.47454,14.88267 0.84074,6.10603 1.74684,11.73103 2.01355,12.5 0.26671,0.76897 0.70003,5.97703 0.96294,11.57347 0.26292,5.59644 0.92992,11.89644 1.48225,14 0.55232,2.10356 1.70838,6.97465 2.56903,10.82465 2.33953,10.46558 6.93412,21.98266 12.35716,30.97525 2.66166,4.41361 5.66081,10.27475 6.66477,13.02475 1.00396,2.75 3.55889,8.47751 5.67761,12.7278 2.11872,4.25029 3.85519,8.52529 3.85881,9.5 0.004,0.97471 0.899,3.1222 1.98973,4.7722 1.96973,2.9797 4.73043,11.41985 6.86891,21 0.61386,2.75 1.1188,13.78447 1.12209,24.52105 0.005,17.47337 -0.19926,19.904 -1.95068,23.17178 -1.07617,2.0079 -2.64281,6.60927 -3.48142,10.22528 -3.27745,14.13212 -10.33085,24.83186 -23.17876,35.16131 -2.68205,2.15632 -5.32646,4.44341 -5.87646,5.08241 -1.35353,1.57258 -8.64098,5.33817 -10.33082,5.33817 -0.74824,0 -2.55491,0.84405 -4.01481,1.87566 -1.4599,1.03162 -4.09574,2.18773 -5.85741,2.56914 -1.76167,0.38142 -4.31887,1.5712 -5.68267,2.64396 -1.60397,1.26168 -5.259,2.29897 -10.35009,2.93734 -4.32876,0.54278 -9.87156,1.56478 -12.31734,2.2711 l -4.44686,1.28423 -0.61461,8.95928 c -0.33803,4.92761 -0.29651,12.78429 0.0923,17.45929 1.00752,12.11531 0.31476,12.94881 -9.97765,12.00458 z m 59.96858,-160.14759 c 0.0173,-0.35366 -0.72347,-0.93269 -1.64612,-1.28675 -2.15515,-0.827 -4.58576,1.58003 -3.76234,3.72584 0.58522,1.52506 0.81473,1.51953 3.00532,-0.0725 1.30444,-0.94799 2.38585,-2.01298 2.40314,-2.36663 z M 330.5,320.05257 c -1.1,-0.45668 -4.05778,-0.60209 -6.57285,-0.32314 -3.09742,0.34355 -6.48525,-0.1414 -10.5,-1.503 -3.25993,-1.10561 -9.52715,-3.05118 -13.92715,-4.32349 -10.31712,-2.98332 -20.73085,-9.27991 -20.30339,-12.2763 0.47325,-3.31727 6.78779,-2.69503 12.21691,1.20387 7.2896,5.23499 24.04665,10.10558 35.22956,10.23978 7.63249,0.0916 8.97624,0.75684 8.91053,4.41134 -0.0575,3.19827 -1.62356,3.99497 -5.05361,2.57094 z"
       style="fill:#403e38" />
    <path
       id="path4764"
       d="m 445.03987,489.54804 c -1.95864,-2.36002 -0.7902,-4.97304 2.68123,-5.99612 1.76932,-0.52144 3.49105,-1.64644 3.82608,-2.5 0.33502,-0.85356 0.79739,-7.52478 1.02749,-14.82495 0.41749,-13.24579 0.41339,-13.27529 -1.99902,-14.37445 -1.43516,-0.65391 -2.20091,-1.6655 -1.88463,-2.48971 0.293,-0.76355 -0.0385,-2.07662 -0.73676,-2.91793 -0.93732,-1.12939 -0.97632,-1.82282 -0.14904,-2.6501 0.82728,-0.82728 1.40157,-0.38109 2.19478,1.70522 0.79068,2.07964 1.36898,2.53102 2.19036,1.70964 0.74913,-0.74913 1.70937,-0.79849 2.92085,-0.15012 1.39985,0.74918 2.05226,0.50356 2.9076,-1.09467 0.60654,-1.13332 2.20043,-2.47791 3.54199,-2.98797 2.43479,-0.9257 3.38579,-2.97688 1.38018,-2.97688 -0.58246,0 -0.7809,-0.45 -0.44098,-1 1.08749,-1.7596 3.5,-1.07031 3.5,1 0,1.31306 0.66667,2 1.94098,2 2.35581,0 3.59148,-1.77053 3.22375,-4.61914 -0.19266,-1.49246 0.40791,-2.30166 2.03085,-2.73634 3.33785,-0.894 3.80442,-0.80221 3.80442,0.74849 0,0.76616 0.72605,1.67163 1.61345,2.01215 1.02338,0.39271 1.42334,1.34614 1.09362,2.60699 -0.34966,1.33711 -0.0244,1.98785 0.99354,1.98785 0.93964,0 1.29343,-0.57315 0.93322,-1.51185 -0.31909,-0.83152 -0.0644,-2.64372 0.56588,-4.02713 0.86709,-1.90304 0.86056,-2.80075 -0.0268,-3.68815 -1.4011,-1.4011 -1.56492,-4.77287 -0.23189,-4.77287 0.51754,0 1.21485,0.44311 1.54956,0.9847 1.12525,1.82069 5.97903,0.71695 9.80557,-2.22977 3.06492,-2.36022 4.07615,-2.69087 5.25,-1.71666 0.79964,0.66364 1.45389,1.77142 1.45389,2.46173 0,0.69031 0.69758,1.83405 1.55019,2.54165 1.27947,1.06187 1.83536,1.00137 3.18316,-0.34642 1.51062,-1.51063 1.50686,-1.77232 -0.0502,-3.49284 -2.14347,-2.36851 -2.11445,-2.85634 0.20599,-3.46315 1.38042,-0.36099 1.84779,-1.31636 1.73557,-3.54773 -0.0845,-1.67954 -0.48459,-3.38471 -0.88915,-3.78927 C 504.15595,413.82262 505.10118,412 507.5,412 c 1.83333,0 2.5,0.53333 2.5,2 0,1.47328 0.66667,2 2.53138,2 3.23549,0 4.31181,-2.6435 1.84405,-4.52904 -1.59263,-1.21687 -1.65644,-1.57666 -0.42318,-2.38597 0.79874,-0.52416 1.78015,-0.75038 2.18091,-0.5027 0.40075,0.24769 1.01205,-0.008 1.35843,-0.56868 0.41342,-0.66893 1.25087,-0.68663 2.43762,-0.0515 C 521.71734,408.91909 523,408.44761 523,406.83333 523,406.375 522.37378,406 521.60841,406 c -1.8787,0 -2.99753,-4.82622 -1.52902,-6.59565 1.75273,-2.11192 2.75236,-1.70341 3.10419,1.26853 0.44345,3.7459 2.81642,4.27898 2.81642,0.63269 0,-1.6236 0.86504,-3.60176 2,-4.57354 2.51193,-2.15078 2.58818,-5.34496 0.14286,-5.98442 -1.53216,-0.40067 -1.85715,-1.47104 -1.85715,-6.11663 0,-4.27982 0.35166,-5.63098 1.46556,-5.63098 1.08801,0 1.29328,-0.68635 0.79684,-2.66435 -0.54064,-2.15406 -0.13047,-3.1048 2.14159,-4.96404 2.68043,-2.19341 2.70847,-2.30135 0.60681,-2.33565 -2.16124,-0.0353 -2.17082,-0.0944 -0.5,-3.08559 1.61017,-2.88256 1.60762,-3.12143 -0.0465,-4.36024 -2.29217,-1.71666 -2.21508,-3.27086 0.22708,-4.57786 1.0874,-0.58196 2.46713,-1.97376 3.06607,-3.0929 1.0211,-1.90793 0.87381,-1.99442 -2.36256,-1.38727 -1.95346,0.36647 -3.7187,0.21525 -4.06707,-0.34841 -0.33853,-0.54776 -1.57531,-0.74494 -2.7484,-0.43817 -1.5375,0.40207 -2.00107,0.16651 -1.66068,-0.84388 0.25971,-0.7709 1.33245,-1.40164 2.38388,-1.40164 2.91778,0 4.55702,-1.46672 3.91168,-3.5 -0.31975,-1.00743 -0.10571,-2.12565 0.47563,-2.48494 0.58135,-0.35929 0.7981,-1.07216 0.48166,-1.58416 -0.86705,-1.40292 -3.41212,-1.11893 -5.10015,0.5691 -1.89393,1.89394 -3.35714,1.92331 -3.35714,0.0674 0,-0.78794 0.9,-1.71826 2,-2.06739 1.1,-0.34913 2,-1.10453 2,-1.67868 0,-0.6469 1.30141,-0.79976 3.42202,-0.40193 4.22524,0.79266 5.3368,-0.66057 2.59922,-3.39815 -1.45306,-1.45306 -2.77398,-1.87042 -4.52715,-1.4304 -1.8314,0.45965 -2.65477,0.154 -3.16468,-1.1748 -0.40379,-1.05224 -0.20057,-1.95899 0.49068,-2.1894 0.64895,-0.21632 1.17991,-1.03081 1.17991,-1.80997 0,-1.68978 2.1509,-1.86577 3.71287,-0.3038 1.41715,1.41715 3.28713,0.29538 3.28713,-1.97189 0,-0.95754 0.5325,-2.27348 1.18333,-2.92431 2.04125,-2.04125 -0.0629,-2.6356 -2.26752,-0.64048 -2.05927,1.86362 -2.12144,1.86308 -3.50613,-0.0306 C 527.63436,321.48528 527,320.08385 527,319.43132 c 0,-0.65254 -0.67065,-1.74302 -1.49033,-2.4233 -0.9431,-0.7827 -1.27049,-2.11283 -0.8916,-3.62244 C 524.97934,311.94619 524.77719,311 524.10841,311 523.49878,311 523,311.45 523,312 c 0,1.95602 -2.51841,0.94468 -3.63282,-1.45886 -0.94146,-2.03053 -0.8202,-2.72618 0.71782,-4.11807 1.38561,-1.25396 1.60677,-2.13049 0.88012,-3.48825 -0.63642,-1.18916 -0.62291,-2.02828 0.0392,-2.43751 0.55537,-0.34324 1.27973,0.0794 1.60969,0.93931 0.91319,2.37973 2.56783,1.86461 2.2055,-0.68662 -0.2729,-1.92153 -0.8305,-2.20161 -3.81955,-1.91855 -1.925,0.18229 -3.9275,0.74479 -4.45,1.25 -1.72229,1.66528 -2.5982,0.95878 -1.96064,-1.58145 0.54917,-2.18808 0.30201,-2.5 -1.98095,-2.5 C 511.17378,296 510,295.56753 510,295.03896 c 0,-0.52858 -0.9388,-1.83567 -2.08621,-2.90465 -1.80182,-1.67865 -1.91773,-2.26334 -0.8503,-4.28896 0.67975,-1.28994 1.73105,-2.69108 2.33621,-3.11365 0.73997,-0.51668 0.51284,-1.1141 -0.69353,-1.82422 -1.17677,-0.69269 -1.58366,-1.7181 -1.18286,-2.98092 0.45739,-1.44112 -0.0343,-2.17035 -1.95617,-2.90103 C 504.15521,276.48871 503,275.67836 503,275.22475 503,273.75615 505.34988,272 507.31501,272 c 1.80554,0 1.82269,-0.1409 0.3,-2.46482 -0.88826,-1.35565 -1.62608,-3.26815 -1.63961,-4.25 -0.0282,-2.0462 -6.21329,-5.51486 -8.36287,-4.68999 -2.08898,0.80162 -2.87772,-1.23307 -1.48257,-3.82452 1.35233,-2.51193 1.51766,-6.33343 0.39026,-9.02067 -0.40381,-0.9625 -0.50269,-2.35331 -0.21973,-3.09068 1.07475,-2.80074 -4.2488,-6.29253 -7.19204,-4.71736 -2.04136,1.0925 -3.10845,0.4923 -3.10845,-1.74838 0,-0.8102 -0.72393,-2.00245 -1.60874,-2.64943 -0.88481,-0.64699 -1.44731,-1.94641 -1.25,-2.88761 0.3045,-1.45251 0.91535,-1.25109 4.03983,1.3321 3.8796,3.20748 4.15252,3.14247 5.1997,-1.23864 0.4793,-2.00524 0.27749,-2.75 -0.74516,-2.75 -0.77136,0 -1.61753,-1.125 -1.88038,-2.5 -0.32047,-1.67641 -0.0294,-2.5 0.88342,-2.5 0.91183,0 1.35129,-1.23822 1.33092,-3.75 -0.0246,-3.03272 -0.22537,-3.41527 -1.04969,-2 -1.17721,2.02114 -3.97932,2.29058 -5.7199,0.55 -1.70036,-1.70036 -1.49608,-2.48931 0.8,-3.08975 2.7062,-0.70769 2.51628,-2.8766 -0.5,-5.71025 -3.86449,-3.6305 -2.78038,-7.44107 1.37812,-4.84404 1.56057,0.97459 2.28138,0.95656 3.54068,-0.0886 2.34272,-1.94428 2.07041,-5.00808 -0.38798,-4.3652 -1.08304,0.28322 -3.36102,0.0298 -5.06216,-0.56327 -2.28948,-0.79812 -3.58993,-0.76788 -5.00587,0.11639 -1.42972,0.89288 -2.20026,0.90722 -3.0507,0.0568 C 475.54821,199.94821 476.53491,198 478.58957,198 c 0.80934,0 2.8544,-1.575 4.54457,-3.5 1.96049,-2.23287 3.9708,-3.5 5.55279,-3.5 3.44512,0 2.46006,-2.26611 -1.50264,-3.4568 -3.59473,-1.08012 -4.1838,-3.09119 -1.18429,-4.0432 2.82613,-0.89698 2.4854,-2.5 -0.53138,-2.5 -1.49881,0 -2.79413,-0.71385 -3.17549,-1.75 -0.35426,-0.9625 -1.71547,-2.76449 -3.02491,-4.00442 -1.30943,-1.23993 -2.08638,-2.73078 -1.72655,-3.31301 0.35984,-0.58223 -0.0762,-1.86572 -0.96894,-2.8522 -1.451,-1.60334 -1.46139,-1.92788 -0.098,-3.05943 1.9685,-1.63371 2.04266,-7.02094 0.0967,-7.02094 -0.78572,0 -2.21162,0.78304 -3.16867,1.7401 -1.65346,1.65346 -1.70636,1.60566 -1.06242,-0.96 0.52775,-2.10272 0.23582,-2.93657 -1.31952,-3.76896 -1.09846,-0.58788 -2.2987,-2.29338 -2.6672,-3.79 -0.85883,-3.4881 -2.94652,-6.89417 -6.71536,-10.95616 -1.65086,-1.77926 -2.76901,-3.46757 -2.48478,-3.75179 1.19721,-1.19721 10.46636,2.66723 16.98777,7.08244 7.65281,5.1812 10.35152,8.21188 14.26467,16.01929 1.41,2.81321 3.22343,5.66251 4.02985,6.33177 0.80641,0.66927 1.7793,3.31755 2.16197,5.88508 0.38266,2.56753 1.27043,5.56823 1.9728,6.66823 0.70238,1.1 1.99495,6.275 2.87239,11.5 0.87743,5.225 2.03672,11.67183 2.5762,14.32629 0.53948,2.65446 0.98444,8.05446 0.9888,12 0.008,7.52807 3.64232,27.00303 6.47006,34.67371 0.91239,2.475 2.00762,5.86017 2.43385,7.5226 0.86705,3.38176 5.90277,12.8065 10.23606,19.15758 1.56865,2.29909 2.8521,4.90295 2.8521,5.78634 0,0.88339 2.2062,6.20231 4.90266,11.81982 2.69647,5.61751 5.20139,11.53621 5.56649,13.15267 0.36511,1.61645 1.47124,4.09145 2.45807,5.5 1.78013,2.54085 4.8043,11.95459 6.92648,21.56099 0.66437,3.0074 0.98422,12.77114 0.80259,24.5 -0.26788,17.29839 -0.53252,19.95161 -2.34393,23.5 -1.12307,2.2 -2.36226,5.76251 -2.75374,7.91668 -0.99221,5.45973 -5.45961,16.31101 -8.67987,21.08332 -5.35678,7.93857 -23.201,22.95068 -29.35788,24.6984 -2.21148,0.62776 -4.92087,1.90451 -6.02087,2.83722 -1.1,0.93271 -3.46662,1.97083 -5.25915,2.30694 -1.79254,0.33611 -4.49254,1.50512 -6,2.59781 -1.78447,1.29348 -5.64501,2.34177 -11.06373,3.00425 -4.57758,0.55965 -10.02238,1.47517 -12.09955,2.03449 l -3.77667,1.01696 -0.60714,9.75196 c -0.33393,5.36358 -0.37394,13.4975 -0.0889,18.07537 0.3513,5.64229 0.13685,8.78292 -0.66575,9.75 -1.63308,1.96773 -12.26119,1.94835 -13.89922,-0.0254 z m -33.38488,-1.37678 C 409.41802,485.69943 409.5702,485 412.34501,485 c 4.76053,0 5.48053,-2.29362 5.83073,-18.57431 0.26337,-12.24371 0.62761,-15.37711 1.93975,-16.68691 1.10767,-1.1057 4.4083,-1.83364 10.5,-2.31572 4.88648,-0.38671 9.89701,-1.07895 11.13451,-1.53833 2.21963,-0.82395 3.21648,0.39992 1.29367,1.58828 -0.52598,0.32507 -0.70166,1.25469 -0.3904,2.06582 0.46221,1.20448 -0.23309,1.38136 -3.79367,0.9651 -4.53997,-0.53077 -5.16173,-0.54276 -10.76753,-0.20765 l -3.40793,0.20372 -0.009,19.17691 c -0.008,18.58387 -0.073,19.1942 -2.09207,19.73634 -4.29318,1.15275 -9.27353,0.58675 -10.92852,-1.24199 z M 514.01531,328.75 c 0.008,-0.6875 0.4047,-1.86462 0.88061,-2.61583 0.52807,-0.83354 0.32882,-2.39242 -0.51125,-4 -1.21094,-2.3173 -1.17359,-2.78454 0.31053,-3.88417 2.20872,-1.63651 3.39324,-1.57678 6.08229,0.3067 2.67409,1.873 2.89702,4.45415 0.44019,5.09663 -0.98027,0.25634 -2.36799,1.78921 -3.08381,3.40638 -1.29121,2.91704 -4.14795,4.08947 -4.11856,1.69029 z M 314,318.06303 c -3.025,-1.01953 -9.22737,-2.88902 -13.78305,-4.15442 -13.07432,-3.63156 -25.04806,-12.50124 -19.66487,-14.56697 2.11323,-0.81092 8.27415,1.28447 10.95801,3.72693 4.98821,4.53954 19.71537,8.97675 34.98696,10.54137 4.90131,0.50216 6.47509,1.02027 6.09644,2.00703 -0.28073,0.73158 0.25464,1.75829 1.18971,2.28158 2.91181,1.62953 0.62145,2.2875 -3.80946,1.09438 -3.01004,-0.81052 -4.53721,-0.82946 -5.30094,-0.0657 -1.50657,1.50657 -4.31291,1.27934 -10.6728,-0.86417 z M 497,272.5 c 0,-2.475 0.19204,-4.5 0.42676,-4.5 0.68749,0 3.57324,6.18108 3.57324,7.65364 0,0.7405 -0.9,1.34636 -2,1.34636 -1.7037,0 -2,-0.66667 -2,-4.5 z"
       style="fill:#36382f" />
  </g>
</svg>
