<?xml version="1.0" encoding="UTF-8" standalone="no"?>
<svg
   xmlns:dc="http://purl.org/dc/elements/1.1/"
   xmlns:cc="http://creativecommons.org/ns#"
   xmlns:rdf="http://www.w3.org/1999/02/22-rdf-syntax-ns#"
   xmlns:svg="http://www.w3.org/2000/svg"
   xmlns="http://www.w3.org/2000/svg"
   viewBox="0 0 800 600"
   height="600"
   width="800"
   version="1.1"
   id="svg9712">
  <metadata
     id="metadata9718">
    <rdf:RDF>
      <cc:Work
         rdf:about="">
        <dc:format>image/svg+xml</dc:format>
        <dc:type
           rdf:resource="http://purl.org/dc/dcmitype/StillImage" />
        <dc:title></dc:title>
      </cc:Work>
    </rdf:RDF>
  </metadata>
  <defs
     id="defs9716" />
  <g
     id="g10262">
    <path
       id="path10292"
       d="M 305.61203,495.02882 C 300.02178,494.28386 297,491.4529 297,486.96064 c 0,-5.91839 4.18041,-7.51399 17.37838,-6.63304 l 9.12162,0.60885 -2.80285,-2.21822 c -7.42716,-5.87801 -11.93519,-10.35432 -15.17219,-15.06543 -1.94726,-2.83404 -4.19891,-6.06295 -5.00367,-7.17535 -0.80476,-1.1124 -2.32567,-6.40674 -3.37981,-11.7652 -2.11003,-10.72582 -2.01681,-21.04268 0.24136,-26.71225 0.76672,-1.925 2.65187,-6.875 4.18921,-11 2.37319,-6.36776 3.76165,-8.40579 9.19717,-13.5 6.00085,-5.62403 10.84523,-8.81898 17.57254,-11.58936 2.36202,-0.9727 2.74991,-1.61261 2.29767,-3.79045 -2.10115,-10.11844 -2.84271,-24.92538 -1.65431,-33.03171 0.6925,-4.72367 1.59179,-9.26348 1.99843,-10.08848 0.40663,-0.825 1.00881,-3.56989 1.33817,-6.09976 l 0.59883,-4.59976 -5.71027,-1.23631 c -12.69884,-2.74939 -27.68886,-8.30069 -32.91737,-12.1904 C 291.42901,308.7432 288.64855,307 288.11411,307 c -0.53444,0 -2.57875,-1.51563 -4.54291,-3.36808 -2.95973,-2.79139 -3.5712,-4.06584 -3.5712,-7.44329 0,-3.0776 0.54407,-4.45631 2.22251,-5.63193 3.67371,-2.57316 6.87384,-1.79309 15.43494,3.76247 4.4866,2.91149 9.8866,6.00625 12,6.87725 16.21543,6.68289 17.0145,6.90841 23.40342,6.60503 l 6.34826,-0.30145 2.69282,-7 c 2.15828,-5.61046 17.65116,-37.13938 22.60378,-46 5.34357,-9.56006 9.7631,-21.27375 15.84642,-42 1.45286,-4.95 3.04798,-10.03367 3.54471,-11.29705 0.49673,-1.26338 0.90314,-3.39178 0.90314,-4.72977 0,-1.33799 0.61747,-4.12931 1.37216,-6.20294 0.75469,-2.07363 1.92361,-6.24524 2.59759,-9.27024 3.65217,-16.39191 9.22643,-28.55093 18.50095,-40.35576 5.4466,-6.93257 16.71705,-11.27088 29.89047,-11.50568 4.87364,-0.0869 9.16768,-0.34737 9.54232,-0.57891 1.19605,-0.7392 24.29922,6.40399 28.01742,8.6626 4.44444,2.69977 12.73743,9.44717 15.70468,12.77775 2.71541,3.04791 7.87348,14.33727 12.33619,27 1.23371,3.50059 3.94992,16.84596 4.57947,22.5 3.47476,31.20691 5.04019,41.00037 7.46243,46.68538 1.09798,2.57696 2.00386,5.27696 2.01307,6 0.009,0.72304 1.80167,4.91462 3.98325,9.31462 2.18158,4.4 3.97404,8.64043 3.98325,9.42317 0.0258,2.18919 8.78479,19.96385 12.60503,25.57932 8.00503,11.76681 13.16137,31.61038 14.44724,55.59858 1.0264,19.14766 -0.39579,28.29453 -7.43233,47.80148 -4.24609,11.77113 -6.6766,15.55553 -17.26739,26.88593 -8.17509,8.746 -11.5588,11.59346 -17.29056,14.55038 C 499.41542,446.82259 474.65414,455 468.67916,455 465.62683,455 465,457.6698 465,470.67022 l 0,9.42022 9.25,-0.19325 c 5.0875,-0.10628 14.76797,-0.0824 21.51215,0.0531 11.21801,0.22536 12.38885,0.42721 13.75,2.37053 3.68945,5.26743 -0.3086,13.0917 -6.60541,12.92693 -2.99462,-0.0784 -33.19899,-0.21854 -94.90674,-0.44048 -29.87724,-0.10745 -64.31212,0.10494 -81.5,0.50268 -8.8,0.20364 -18.19959,0.0771 -20.88797,-0.28112 z m 107.68468,-15.92553 c 0.86361,-0.86361 1.30151,-24.8384 0.46888,-25.67103 -0.18268,-0.18268 -3.24217,-0.61122 -6.79887,-0.95231 l -6.46672,-0.62016 -5.13133,6.90852 c -2.82223,3.79969 -5.41815,7.81224 -5.76872,8.91678 -0.65629,2.06779 -8.81035,8.14771 -14.07047,10.49138 -2.86346,1.27583 -2.7013,1.3428 4.5,1.85825 10.97832,0.7858 32.14257,0.19323 33.26723,-0.93143 z m 30.83727,0.73842 c 2.85422,-0.85514 3.87913,-1.70572 3.91611,-3.25 0.0275,-1.15044 0.25789,-6.25421 0.51187,-11.34171 l 0.46179,-9.25 -6.38687,0 c -3.51279,0 -7.79313,-0.28125 -9.51188,-0.625 L 430,454.75 l 0,6.47831 c 0,3.56307 0.28661,9.2204 0.6369,12.57185 0.69128,6.61383 0.0846,6.09593 8.24708,7.0398 0.76119,0.088 3.12369,-0.36119 5.25,-0.99825 z"
       style="fill:#eeeed8" />
    <path
       id="path10290"
       d="m 306.27845,493.26523 c -3.06868,-0.27437 -4.77551,-1.08169 -6.25,-2.9562 -2.53986,-3.2289 -2.53015,-3.80733 0.10819,-6.44567 1.96843,-1.96843 2.93281,-2.10168 12.25,-1.69251 5.56235,0.24427 11.68836,0.15892 13.61336,-0.18967 l 3.5,-0.6338 -2.67005,-1.11854 c -6.18592,-2.59142 -14.80057,-9.96266 -19.48365,-16.67144 -6.93006,-9.92771 -7.5078,-11.18476 -8.98167,-19.54235 -1.99905,-11.33565 -1.73916,-20.50576 0.76507,-26.99572 7.00203,-18.14645 11.70306,-23.98034 25.20743,-31.28193 l 7.83712,-4.2374 -0.59532,-5.24539 c -0.32742,-2.88497 -0.87692,-10.53497 -1.2211,-17 -0.53046,-9.96397 -0.30848,-13.04946 1.45715,-20.25461 1.14561,-4.675 2.2184,-10.05103 2.38398,-11.94674 l 0.30104,-3.44674 -10,-2.63353 c -17.64254,-4.64621 -24.34843,-7.07698 -28.72303,-10.41163 -2.35233,-1.79312 -5.69974,-3.99399 -7.43867,-4.89081 -6.88397,-3.55027 -9.57962,-10.98726 -5.11579,-14.11385 2.48046,-1.73738 6.34761,-2.06128 7.24645,-0.60692 1.37174,2.21952 17.76694,11.15251 26.53104,14.45555 7.443,2.80513 10.95715,3.58193 16.22968,3.58753 l 6.72967,0.007 2.02033,-3.96016 C 343.09085,302.86175 344,300.62436 344,300.06787 c 0,-0.86629 6.2606,-14.14912 10.40126,-22.06787 1.11386,-2.13019 4.18604,-8.212 11.87085,-23.5 6.4575,-12.84643 9.73973,-21.49429 15.18172,-40 1.45565,-4.95 3.07404,-10.03367 3.59641,-11.29705 0.52237,-1.26338 0.94976,-3.61678 0.94976,-5.22977 0,-1.61299 0.62261,-4.62931 1.38358,-6.70294 1.26036,-3.43447 2.24606,-6.99961 5.60437,-20.27024 1.72024,-6.79763 7.80135,-18.72504 13.21752,-25.92466 7.93406,-10.54661 14.86785,-13.64838 32.36931,-14.48015 10.13481,-0.48166 11.93414,-0.27901 21.19993,2.38767 5.56883,1.6027 11.38518,3.57547 12.92522,4.38394 4.13378,2.17011 14.86825,10.75465 17.04752,13.6332 2.79549,3.69249 7.25255,12.0499 7.25255,13.5992 0,0.74101 0.84912,3.27184 1.88694,5.62405 4.94172,11.20041 7.52537,23.80025 8.66901,42.27675 0.30639,4.95 1.17845,11.925 1.93792,15.5 0.75946,3.575 1.80596,8.75 2.32556,11.5 1.17286,6.20749 6.02596,19.38398 9.53896,25.89894 1.45289,2.69442 2.64453,5.61942 2.6481,6.5 0.008,1.94618 9.64107,21.13025 13.24417,26.3752 2.76979,4.03192 8.74934,18.78126 8.74934,21.5814 0,0.92656 0.94298,5.05061 2.09551,9.16456 2.80615,10.01655 4.14187,35.02811 2.38527,44.66464 -2.41698,13.25935 -8.37934,31.86549 -12.18244,38.01655 -6.63949,10.73857 -21.83099,25.28096 -31.08728,29.75896 C 496.07167,446.84926 473.83127,454 468.20964,454 c -2.74259,0 -3.03366,0.34194 -3.61771,4.25 -1.28711,8.61241 -1.47423,21.70471 -0.32041,22.41781 0.94482,0.58393 6.4947,0.84423 32.22848,1.51156 1.1,0.0285 3.60919,-0.27133 5.57597,-0.66635 2.70991,-0.54428 3.9814,-0.31279 5.25,0.95581 2.18213,2.18213 2.14167,7.06378 -0.0769,9.28117 -1.60892,1.60805 -4.58988,1.73355 -36.75,1.54716 -19.24948,-0.11156 -37.24905,-0.15314 -39.99905,-0.0924 -12.37818,0.27344 -30.9192,0.26245 -41,-0.0243 -6.05,-0.17209 -11.9,-0.23547 -13,-0.14084 -1.1,0.0946 -7.625,0.12085 -14.5,0.0583 -6.875,-0.0626 -21.275,0.0344 -32,0.2155 -10.725,0.18111 -21.3997,0.15944 -23.72155,-0.0482 z M 411.5,481.17489 c 2.74784,-0.74276 3.0535,-1.2675 3.6365,-6.24291 0.35008,-2.98759 0.3983,-9.32566 0.10717,-14.0846 l -0.52933,-8.65262 -5.60717,-0.6715 c -3.08394,-0.36933 -6.5349,-0.89066 -7.6688,-1.15851 -1.46232,-0.34544 -2.36841,0.18483 -3.11695,1.82412 -0.58043,1.27112 -2.75488,4.33613 -4.83211,6.81113 -2.07724,2.475 -4.29872,5.73097 -4.93664,7.2355 -1.41705,3.34215 -9.095,8.94059 -16.23691,11.83928 -7.29376,2.96032 -5.8343,4.29336 4.07495,3.722 4.46011,-0.25717 9.21859,-0.18757 10.57441,0.15467 3.22943,0.81518 20.69088,0.26251 24.53488,-0.77656 z m 32.46657,0.14768 c 2.49339,-0.92258 4.65904,-1.76069 4.81257,-1.86247 0.15352,-0.10177 0.53143,-5.64693 0.8398,-12.32257 L 450.1796,455 l -5.95023,0 c -3.27262,0 -8.05862,-0.28899 -10.63555,-0.6422 l -4.68533,-0.64219 0.24527,13.57047 0.24528,13.57046 4.55048,0.95352 c 2.50276,0.52443 4.76044,1.0067 5.01705,1.07172 0.25661,0.065 2.50661,-0.63662 5,-1.55921 z M 333.22052,436.95556 c 10.17242,-2.82515 8.62878,-15.22719 -2.07396,-16.66273 -3.54813,-0.4759 -4.42776,-0.16547 -7.09829,2.50505 -4.07805,4.07805 -4.06871,8.02783 0.0286,12.1252 3.4149,3.4149 3.83208,3.50763 9.1436,2.03248 z m -7.15761,-3.37976 c -0.74328,-0.8956 -0.92958,-2.76958 -0.50195,-5.04906 1.1627,-6.1977 4.72286,-8.11753 9.21653,-4.97004 2.77649,1.94473 2.82785,4.78444 0.15442,8.53893 -2.28991,3.21588 -6.80334,3.96914 -8.869,1.48017 z m 42.0971,-7.62469 c -3.97137,-2.41513 -4.63722,-3.76221 -2.84915,-5.76412 0.82874,-0.92785 1.66032,-2.81199 1.84796,-4.18699 0.48525,-3.55566 5.95144,-4.10837 8.24512,-0.83369 2.49983,3.56901 2.071,8.24155 -0.90243,9.83288 -3.08422,1.65063 -2.63361,2.32305 0.95342,1.42277 5.52276,-1.38613 5.62174,-11.16498 0.14725,-14.54839 -3.89856,-2.40944 -7.05281,-1.74487 -11.35218,2.39177 -3.6109,3.47424 -3.96599,5.44941 -1.75002,9.73462 1.79104,3.46349 4.09041,4.91992 6.69295,4.23934 1.6797,-0.43926 1.5557,-0.71395 -1.03292,-2.28819 z"
       style="fill:#d6d5aa" />
    <path
       id="path10288"
       d="m 409.29911,492.76487 c -2.60255,-0.71739 -18.97239,-2.00478 -25.79911,-2.02894 -1.65,-0.006 -18.975,0.2467 -38.5,0.56119 -19.525,0.3145 -37.20385,0.31617 -39.28633,0.004 -4.50235,-0.67551 -6.75723,-3.68586 -4.47234,-5.97075 1.01564,-1.01564 3.60805,-1.40144 8.84762,-1.31667 17.82209,0.28832 27.91865,0.0313 27.99097,-0.71249 0.0428,-0.44052 -3.04932,-1.75618 -6.87147,-2.9237 -6.55297,-2.00167 -15.52833,-7.57188 -19.32588,-11.99386 -2.24163,-2.61022 -8.27605,-11.38068 -9.83537,-14.29478 C 299.85914,449.99948 298,438.91689 298,429.96265 c 0,-7.54134 0.41658,-9.52601 3.56837,-17.00038 1.9626,-4.65425 3.94231,-9.36227 4.39935,-10.46227 1.63825,-3.94294 12.75691,-13.26654 20.37141,-17.08255 5.46521,-2.73889 7.53153,-4.28081 7.20776,-5.37854 -0.89666,-3.04007 -2.04484,-19.70884 -1.94223,-28.19647 0.0576,-4.76167 0.79384,-10.83667 1.63616,-13.5 0.84232,-2.66334 1.81629,-7.15265 2.16437,-9.97624 l 0.63287,-5.1338 -6.76903,-1.66862 c -17.63852,-4.34803 -27.68002,-8.10492 -35.69313,-13.35408 -4.44174,-2.90967 -8.8634,-6.22202 -9.8259,-7.36079 -2.61186,-3.09018 -2.25312,-7.47315 0.77402,-9.4566 2.45946,-1.61151 2.6966,-1.53904 9.27238,2.83356 8.54195,5.68001 11.70385,7.30905 22.18659,11.43075 8.48228,3.33514 18.78666,5.12027 23.18302,4.01623 2.29344,-0.57595 5.03981,-4.74442 6.37288,-9.67285 0.58291,-2.15502 3.22923,-7.74728 9.70083,-20.5 0.83732,-1.65 3.38076,-6.825 5.6521,-11.5 2.27133,-4.675 4.99136,-10.075 6.04451,-12 4.45951,-8.15135 7.46273,-15.09636 10.59451,-24.5 C 383.60569,213.25931 387,201.75267 387,199.3997 c 0,-1.27857 0.84902,-4.70406 1.8867,-7.61219 1.03769,-2.90813 2.41882,-7.53751 3.06919,-10.28751 3.1198,-13.19175 4.54837,-17.44566 8.20877,-24.44355 2.17391,-4.15605 4.99293,-8.68145 6.2645,-10.05645 1.27156,-1.375 3.05664,-3.67598 3.96683,-5.1133 0.91019,-1.43731 4.61102,-4.11375 8.22406,-5.94764 6.00841,-3.0497 7.64949,-3.4 19.22456,-4.10358 11.8928,-0.72289 13.19771,-0.61283 21.65539,1.82654 10.8499,3.12932 15.0465,5.16794 22.20594,10.78713 6.3622,4.99347 11.56144,11.91233 13.84926,18.42982 0.89217,2.54157 2.07302,5.46776 2.62413,6.50265 3.15496,5.9245 6.71005,22.84167 8.85106,42.11838 1.03847,9.35 2.52994,20.375 3.31436,24.5 1.61004,8.46667 6.39338,22.20228 10.14618,29.13533 1.37999,2.54943 2.50907,5.29534 2.50907,6.10203 0,2.11584 10.55432,23.31177 13.58908,27.29054 2.86013,3.74983 7.11019,14.58347 8.42354,21.4721 0.47187,2.475 1.58432,6.75 2.47212,9.5 2.42684,7.5173 3.75332,36.80795 2.05401,45.35578 -2.58474,13.0018 -7.42542,28.20846 -11.2525,35.34895 -3.11859,5.81862 -19.04716,23.20224 -24.98888,27.27159 -6.7876,4.64866 -37.36895,15.49657 -43.79737,15.53594 -5.5426,0.0339 -5.80027,0.66315 -6.2995,15.38319 -0.37086,10.93487 -0.19239,13.66605 0.91968,14.07458 0.7589,0.27879 10.56714,0.66208 21.79609,0.85175 20.03845,0.33847 20.43148,0.38599 21.23875,2.56824 1.17795,3.1843 -3.22275,7.58529 -6.42167,6.42208 -3.59897,-1.30868 -32.55232,-0.92797 -40.73335,0.5356 -6.00237,1.07382 -8.59826,1.10081 -13,0.13519 -9.46032,-2.07535 -17.58239,-2.29956 -22.24385,-0.61405 -4.3899,1.58732 -10.56163,1.74544 -15.45704,0.39603 z M 410,482.71905 c 4.39187,-1.39118 4.52708,-1.56009 5.62691,-7.02904 0.62688,-3.11713 0.89772,-9.62342 0.61039,-14.6628 -0.57616,-10.10492 0.17707,-9.27822 -9.61515,-10.55306 -2.68282,-0.34927 -5.4649,-0.86031 -6.18241,-1.13565 -0.74196,-0.28471 -1.95427,0.75582 -2.81114,2.41282 -0.82862,1.60237 -3.16999,4.90135 -5.20304,7.33105 -2.03306,2.42969 -4.09341,5.54263 -4.57857,6.91763 -1.17044,3.31714 -10.34655,9.1215 -20.60097,13.03115 -4.53969,1.73083 -8.01082,3.5404 -7.71362,4.02127 0.29719,0.48087 6.26148,0.75363 13.25398,0.60613 6.99249,-0.14751 13.75758,-0.0185 15.03353,0.28663 4.11392,0.98387 17.54772,0.24124 22.18009,-1.22613 z M 442.5,483 c 1.65,-1.09275 4.0125,-1.98979 5.25,-1.99341 2.37972,-0.007 2.47496,-0.7908 2.70455,-22.25659 l 0.0455,-4.25 -6,-0.10796 c -3.3,-0.0594 -8.07343,-0.43836 -10.60763,-0.84219 -3.55106,-0.56587 -4.7319,-0.4104 -5.14956,0.678 -0.78875,2.05544 -0.27077,27.57753 0.5769,28.4252 0.39459,0.39458 2.62158,1.02775 4.94886,1.40702 2.32729,0.37928 4.45643,0.74296 4.73143,0.80817 0.275,0.0652 1.85,-0.77549 3.5,-1.86824 z M 335.85497,436.575 c 4.77425,-2.46886 6.42136,-8.30777 3.51434,-12.45813 -4.14964,-5.92443 -13.19769,-5.97917 -17.1571,-0.10381 -2.74738,4.07684 -2.32168,7.17057 1.5462,11.23694 2.98532,3.13851 7.61002,3.64508 12.09656,1.325 z m -8.73754,-3.325 c -1.97062,-1.63895 -2.01572,-2.00384 -0.71077,-5.75 1.09449,-3.14196 1.96408,-4.06913 4.05383,-4.32226 5.60722,-0.67919 7.47134,4.98134 3.08496,9.36771 -2.92103,2.92104 -3.66495,3.00258 -6.42802,0.70455 z m 46.96602,-5.77944 c 5.13288,-1.81099 5.88095,-2.77932 5.90124,-7.63877 0.0211,-5.04495 -0.76505,-6.66685 -4.05621,-8.36878 -4.77446,-2.46896 -7.78409,-1.84269 -12.15639,2.5296 -4.42083,4.42083 -4.54073,6.71482 -0.63751,12.1964 2.2978,3.22696 4.65349,3.50269 10.94887,1.28155 z m -7.51202,-3.04199 C 364.75894,422.61608 364.57889,421.37829 366,420.5 c 0.55,-0.33992 1,-1.72612 1,-3.08046 0,-3.24722 4.1524,-5.36787 6.57456,-3.35766 2.14188,1.7776 3.61654,5.76065 2.93168,7.91844 -0.55616,1.75234 -4.49436,4.01968 -6.98186,4.01968 -0.75984,0 -2.08867,-0.70714 -2.95295,-1.57143 z"
       style="fill:#f9d75c" />
    <path
       id="path10286"
       d="m 409.29911,492.76487 c -2.60255,-0.71739 -18.97239,-2.00478 -25.79911,-2.02894 -1.65,-0.006 -18.975,0.2467 -38.5,0.56119 -19.525,0.3145 -37.20385,0.31617 -39.28633,0.004 -4.50235,-0.67551 -6.75723,-3.68586 -4.47234,-5.97075 1.01564,-1.01564 3.60805,-1.40144 8.84762,-1.31667 13.7389,0.22226 28.14474,0.0862 28.50011,-0.26916 0.38432,-0.38432 45.26427,0.003 57.41094,0.49542 4.89587,0.19849 9.4097,-0.26915 13,-1.34683 l 5.5,-1.6509 1.12691,-5.57778 c 0.62747,-3.10569 0.89799,-9.59285 0.61039,-14.63697 -0.57675,-10.11537 0.19912,-9.27303 -9.7373,-10.57131 -2.75,-0.35931 -5.77204,-1.06644 -6.71564,-1.57139 -1.36501,-0.73046 -2.05338,-0.26497 -3.36825,2.27772 -0.90895,1.7577 -3.37017,5.36868 -5.46939,8.02439 -2.09922,2.65571 -4.0789,5.65448 -4.39929,6.66393 -0.93029,2.9311 -18.23188,13.10859 -22.33727,13.13968 -0.70941,0.005 -3.15842,0.96305 -5.44224,2.12817 -3.48446,1.77764 -5.20728,2.01858 -10.71016,1.49786 -10.73537,-1.01585 -21.92215,-4.59308 -28.05776,-8.9721 -6.3908,-4.56115 -7.50737,-5.78363 -13.72661,-15.0286 -5.19661,-7.72483 -6.20734,-11.49933 -6.9572,-25.98129 l -0.51084,-9.86574 4.84733,-10.94503 c 4.45136,-10.05098 5.40449,-11.43019 11.66818,-16.88427 3.75148,-3.26658 7.43183,-5.93923 8.17857,-5.93923 0.74674,0 1.97436,-0.61665 2.72804,-1.37033 0.75368,-0.75367 2.84065,-2.13066 4.63771,-3.05995 2.76522,-1.42995 3.18306,-2.10307 2.71866,-4.37968 -2.36402,-11.58897 -2.55472,-34.85444 -0.34302,-41.8476 0.84232,-2.66334 1.81629,-7.15265 2.16437,-9.97624 l 0.63287,-5.1338 -6.76903,-1.66862 c -17.63852,-4.34803 -27.68002,-8.10492 -35.69313,-13.35408 -4.44174,-2.90967 -8.8634,-6.22202 -9.8259,-7.36079 -2.61186,-3.09018 -2.25312,-7.47315 0.77402,-9.4566 2.45946,-1.61151 2.6966,-1.53904 9.27238,2.83356 8.54195,5.68001 11.70385,7.30905 22.18659,11.43075 8.48228,3.33514 18.78666,5.12027 23.18302,4.01623 2.29344,-0.57595 5.03981,-4.74442 6.37288,-9.67285 0.58291,-2.15502 3.22923,-7.74728 9.70083,-20.5 0.83732,-1.65 3.38076,-6.825 5.6521,-11.5 2.27133,-4.675 4.99136,-10.075 6.04451,-12 4.45951,-8.15135 7.46273,-15.09636 10.59451,-24.5 C 383.60569,213.25931 387,201.75267 387,199.3997 c 0,-1.27857 0.84902,-4.70406 1.8867,-7.61219 1.03769,-2.90813 2.41882,-7.53751 3.06919,-10.28751 3.1198,-13.19175 4.54837,-17.44566 8.20877,-24.44355 2.17391,-4.15605 4.99293,-8.68145 6.2645,-10.05645 1.27156,-1.375 3.05664,-3.67598 3.96683,-5.1133 0.91019,-1.43731 4.61102,-4.11375 8.22406,-5.94764 6.00841,-3.0497 7.64949,-3.4 19.22456,-4.10358 11.8928,-0.72289 13.19771,-0.61283 21.65539,1.82654 10.8499,3.12932 15.0465,5.16794 22.20594,10.78713 6.3622,4.99347 11.56144,11.91233 13.84926,18.42982 0.89217,2.54157 2.07302,5.46776 2.62413,6.50265 3.15496,5.9245 6.71005,22.84167 8.85106,42.11838 1.03847,9.35 2.52994,20.375 3.31436,24.5 1.61004,8.46667 6.39338,22.20228 10.14618,29.13533 1.37999,2.54943 2.50907,5.29534 2.50907,6.10203 0,2.11584 10.55432,23.31177 13.58908,27.29054 2.86013,3.74983 7.11019,14.58347 8.42354,21.4721 0.47187,2.475 1.58432,6.75 2.47212,9.5 2.42684,7.5173 3.75332,36.80795 2.05401,45.35578 -2.58474,13.0018 -7.42542,28.20846 -11.2525,35.34895 -3.11859,5.81862 -19.04716,23.20224 -24.98888,27.27159 -6.7876,4.64866 -37.36895,15.49657 -43.79737,15.53594 -5.5426,0.0339 -5.80027,0.66315 -6.2995,15.38319 -0.37086,10.93487 -0.19239,13.66605 0.91968,14.07458 0.7589,0.27879 10.56714,0.66208 21.79609,0.85175 20.03845,0.33847 20.43148,0.38599 21.23875,2.56824 1.17795,3.1843 -3.22275,7.58529 -6.42167,6.42208 -3.59897,-1.30868 -32.55232,-0.92797 -40.73335,0.5356 -6.00237,1.07382 -8.59826,1.10081 -13,0.13519 -9.46032,-2.07535 -17.58239,-2.29956 -22.24385,-0.61405 -4.3899,1.58732 -10.56163,1.74544 -15.45704,0.39603 z M 442.5,483 c 1.65,-1.09275 4.0125,-1.98979 5.25,-1.99341 2.37972,-0.007 2.47496,-0.7908 2.70455,-22.25659 l 0.0455,-4.25 -6,-0.10796 c -3.3,-0.0594 -8.07343,-0.43836 -10.60763,-0.84219 -3.55106,-0.56587 -4.7319,-0.4104 -5.14956,0.678 -0.78875,2.05544 -0.27077,27.57753 0.5769,28.4252 0.39459,0.39458 2.62158,1.02775 4.94886,1.40702 2.32729,0.37928 4.45643,0.74296 4.73143,0.80817 0.275,0.0652 1.85,-0.77549 3.5,-1.86824 z M 338,437.14874 c 3.36309,-2.47491 5.23409,-8.17878 3.91966,-11.94935 C 340.65845,421.58148 334.48693,418 329.51385,418 c -5.06218,0 -10.51686,5.26922 -10.50726,10.15 0.007,3.51113 2.3245,7.83332 5.57365,10.39456 2.4653,1.94335 9.93851,1.16604 13.41976,-1.39582 z M 327.11743,433.25 c -1.97062,-1.63895 -2.01572,-2.00384 -0.71077,-5.75 1.09449,-3.14196 1.96408,-4.06913 4.05383,-4.32226 5.60722,-0.67919 7.47134,4.98134 3.08496,9.36771 -2.92103,2.92104 -3.66495,3.00258 -6.42802,0.70455 z M 373,428.91095 c 7.4396,-2.82439 8,-3.44159 8,-8.81089 0,-5.3284 -1.78448,-8.42013 -6.16841,-10.68715 -4.04266,-2.09054 -7.43407,-1.14805 -12.08159,3.35752 -5.18863,5.03016 -5.02253,9.86223 0.54928,15.97957 2.51008,2.75584 2.85076,2.76149 9.70072,0.16095 z m -6.42857,-4.48238 C 364.75894,422.61608 364.57889,421.37829 366,420.5 c 0.55,-0.33992 1,-1.72612 1,-3.08046 0,-3.24722 4.1524,-5.36787 6.57456,-3.35766 2.14188,1.7776 3.61654,5.76065 2.93168,7.91844 -0.55616,1.75234 -4.49436,4.01968 -6.98186,4.01968 -0.75984,0 -2.08867,-0.70714 -2.95295,-1.57143 z"
       style="fill:#fbd72a" />
    <path
       id="path10284"
       d="m 409.29911,492.76487 c -2.60255,-0.71739 -18.97239,-2.00478 -25.79911,-2.02894 -1.65,-0.006 -18.975,0.2467 -38.5,0.56119 -19.525,0.3145 -37.20385,0.31617 -39.28633,0.004 -4.50235,-0.67551 -6.75723,-3.68586 -4.47234,-5.97075 1.01564,-1.01564 3.60805,-1.40144 8.84762,-1.31667 13.7389,0.22226 28.14474,0.0862 28.50011,-0.26916 0.38432,-0.38432 45.26427,0.003 57.41094,0.49542 4.89587,0.19849 9.4097,-0.26915 13,-1.34683 l 5.5,-1.6509 1.12691,-5.57778 c 0.62577,-3.09728 0.89822,-9.5888 0.61266,-14.59719 -0.57475,-10.08022 -0.0371,-9.48213 -9.49017,-10.55711 -3.16283,-0.35967 -6.46617,-1.36951 -7.34075,-2.24409 -1.35064,-1.35063 -1.7248,-1.37744 -2.48409,-0.17797 -0.49166,0.7767 -0.90083,1.89602 -0.90925,2.48739 -0.008,0.59136 -2.01809,3.65439 -4.46593,6.80672 -2.44783,3.15233 -4.72658,6.60101 -5.06387,7.66374 -0.96978,3.05549 -10.03555,8.43931 -21.98551,13.05637 -12.63655,4.88234 -14.56226,4.97455 -28.67229,1.37296 -13.56305,-3.46197 -20.08997,-8.08754 -27.92546,-19.79053 C 304.65601,454.83592 302,449.80272 302,448.49957 c 0,-1.30316 -0.46788,-3.59999 -1.03974,-5.10408 -1.3193,-3.47005 -1.47318,-21.28257 -0.19488,-22.56087 0.61372,-0.61372 1.21071,0.92746 1.65416,4.27038 0.99312,7.48651 2.57704,10.63327 8.68032,17.2451 7.34268,7.9545 13.12645,10.76057 23.51523,11.4087 6.40342,0.39949 9.36047,0.10434 13.53887,-1.35137 9.27611,-3.23169 17.32706,-9.63524 10.09604,-8.03017 -1.5125,0.33573 -4.878,0.89975 -7.47889,1.25337 -3.96804,0.5395 -4.83835,0.35773 -5.40915,-1.12976 -1.07306,-2.79636 0.83345,-4.70573 6.70015,-6.7102 6.71607,-2.29467 10.12291,-2.00861 11.42502,0.95933 0.54292,1.2375 1.27532,2.25 1.62755,2.25 1.16174,0 2.79149,-2.55772 4.09811,-6.43154 1.11256,-3.29849 1.99484,-4.07857 6.50258,-5.74934 4.61537,-1.71067 5.28969,-2.32917 5.8613,-5.37609 1.43897,-7.6704 -1.37782,-12.79069 -8.72531,-15.86067 -2.63397,-1.10054 -4.45199,-2.98491 -6.66782,-6.91114 -5.36049,-9.49826 -12.83038,-14.31385 -25.17835,-16.23164 -5.58125,-0.86683 -7.96461,-3.45773 -8.13428,-8.84259 -0.071,-2.25334 -0.35983,-6.12199 -0.64184,-8.59699 -1.043,-9.15375 -0.49532,-24.46611 1.03725,-29 0.83661,-2.475 1.80251,-6.81021 2.14643,-9.6338 l 0.62531,-5.1338 -6.76903,-1.66862 c -17.63852,-4.34803 -27.68002,-8.10492 -35.69313,-13.35408 -4.44174,-2.90967 -8.8634,-6.22202 -9.8259,-7.36079 -2.61186,-3.09018 -2.25312,-7.47315 0.77402,-9.4566 2.45946,-1.61151 2.6966,-1.53904 9.27238,2.83356 8.54195,5.68001 11.70385,7.30905 22.18659,11.43075 8.48228,3.33514 18.78666,5.12027 23.18302,4.01623 2.29344,-0.57595 5.03981,-4.74442 6.37288,-9.67285 0.58291,-2.15502 3.22923,-7.74728 9.70083,-20.5 0.83732,-1.65 3.38076,-6.825 5.6521,-11.5 2.27133,-4.675 4.99136,-10.075 6.04451,-12 4.45951,-8.15135 7.46273,-15.09636 10.59451,-24.5 C 383.60569,213.25931 387,201.75267 387,199.3997 c 0,-1.27857 0.84902,-4.70406 1.8867,-7.61219 1.03769,-2.90813 2.41882,-7.53751 3.06919,-10.28751 3.1198,-13.19175 4.54837,-17.44566 8.20877,-24.44355 2.17391,-4.15605 4.99293,-8.68145 6.2645,-10.05645 1.27156,-1.375 3.05664,-3.67598 3.96683,-5.1133 0.91019,-1.43731 4.61102,-4.11375 8.22406,-5.94764 6.00841,-3.0497 7.64949,-3.4 19.22456,-4.10358 11.8928,-0.72289 13.19771,-0.61283 21.65539,1.82654 10.8499,3.12932 15.0465,5.16794 22.20594,10.78713 6.3622,4.99347 11.56144,11.91233 13.84926,18.42982 0.89217,2.54157 2.07302,5.46776 2.62413,6.50265 3.15496,5.9245 6.71005,22.84167 8.85106,42.11838 1.03847,9.35 2.52994,20.375 3.31436,24.5 1.61004,8.46667 6.39338,22.20228 10.14618,29.13533 1.37999,2.54943 2.50907,5.29534 2.50907,6.10203 0,2.11584 10.55432,23.31177 13.58908,27.29054 2.86013,3.74983 7.11019,14.58347 8.42354,21.4721 0.47187,2.475 1.58432,6.75 2.47212,9.5 2.42684,7.5173 3.75332,36.80795 2.05401,45.35578 -2.58474,13.0018 -7.42542,28.20846 -11.2525,35.34895 -3.11859,5.81862 -19.04716,23.20224 -24.98888,27.27159 -6.7876,4.64866 -37.36895,15.49657 -43.79737,15.53594 -5.5426,0.0339 -5.80027,0.66315 -6.2995,15.38319 -0.37086,10.93487 -0.19239,13.66605 0.91968,14.07458 0.7589,0.27879 10.56714,0.66208 21.79609,0.85175 20.03845,0.33847 20.43148,0.38599 21.23875,2.56824 1.17795,3.1843 -3.22275,7.58529 -6.42167,6.42208 -3.59897,-1.30868 -32.55232,-0.92797 -40.73335,0.5356 -6.00237,1.07382 -8.59826,1.10081 -13,0.13519 -9.46032,-2.07535 -17.58239,-2.29956 -22.24385,-0.61405 -4.3899,1.58732 -10.56163,1.74544 -15.45704,0.39603 z M 442.5,483 c 1.65,-1.09275 4.0125,-1.98979 5.25,-1.99341 2.37972,-0.007 2.47496,-0.7908 2.70455,-22.25659 l 0.0455,-4.25 -6,-0.10796 c -3.3,-0.0594 -8.07343,-0.43836 -10.60763,-0.84219 -3.55106,-0.56587 -4.7319,-0.4104 -5.14956,0.678 -0.78875,2.05544 -0.27077,27.57753 0.5769,28.4252 0.39459,0.39458 2.62158,1.02775 4.94886,1.40702 2.32729,0.37928 4.45643,0.74296 4.73143,0.80817 0.275,0.0652 1.85,-0.77549 3.5,-1.86824 z M 327.11743,433.25 c -1.97062,-1.63895 -2.01572,-2.00384 -0.71077,-5.75 1.09449,-3.14196 1.96408,-4.06913 4.05383,-4.32226 5.60722,-0.67919 7.47134,4.98134 3.08496,9.36771 -2.92103,2.92104 -3.66495,3.00258 -6.42802,0.70455 z m 39.454,-8.82143 C 364.75894,422.61608 364.57889,421.37829 366,420.5 c 0.55,-0.33992 1,-1.72612 1,-3.08046 0,-3.24722 4.1524,-5.36787 6.57456,-3.35766 2.14188,1.7776 3.61654,5.76065 2.93168,7.91844 -0.55616,1.75234 -4.49436,4.01968 -6.98186,4.01968 -0.75984,0 -2.08867,-0.70714 -2.95295,-1.57143 z"
       style="fill:#b2b094" />
    <path
       id="path10282"
       d="m 409,491 c -3.41383,-3.41383 -2.26973,-6.58101 2.87803,-7.96716 3.62138,-0.97513 3.68632,-1.08292 4.67537,-7.76085 0.55163,-3.7246 0.76529,-10.58201 0.47479,-15.2387 L 416.5,451.56659 413,450.87625 c -8.04637,-1.58705 -12.59596,-2.65095 -14.13082,-3.30443 -1.21011,-0.51521 -1.90027,0.0786 -2.67529,2.30182 -0.57445,1.64789 -2.84884,5.27887 -5.0542,8.06885 -2.20535,2.78999 -4.29272,5.96431 -4.63859,7.05405 -0.98446,3.10174 -9.98378,8.46242 -22.0011,13.1055 -12.63655,4.88234 -14.56226,4.97455 -28.67229,1.37296 -13.56305,-3.46197 -20.08997,-8.08754 -27.92546,-19.79053 C 304.65601,454.83592 302,449.80272 302,448.49957 c 0,-1.30316 -0.46788,-3.59999 -1.03974,-5.10408 -1.3193,-3.47005 -1.47318,-21.28257 -0.19488,-22.56087 0.61372,-0.61372 1.21071,0.92746 1.65416,4.27038 0.99312,7.48651 2.57704,10.63327 8.68032,17.2451 7.34268,7.9545 13.12645,10.76057 23.51523,11.4087 6.40342,0.39949 9.36047,0.10434 13.53887,-1.35137 9.27611,-3.23169 17.32706,-9.63524 10.09604,-8.03017 -1.5125,0.33573 -4.878,0.89975 -7.47889,1.25337 -3.96804,0.5395 -4.83835,0.35773 -5.40915,-1.12976 -1.07306,-2.79636 0.83345,-4.70573 6.70015,-6.7102 6.71607,-2.29467 10.12291,-2.00861 11.42502,0.95933 0.54292,1.2375 1.27532,2.25 1.62755,2.25 1.16174,0 2.79149,-2.55772 4.09811,-6.43154 1.11256,-3.29849 1.99484,-4.07857 6.50258,-5.74934 4.61537,-1.71067 5.28969,-2.32917 5.8613,-5.37609 1.43897,-7.6704 -1.37782,-12.79069 -8.72531,-15.86067 -2.63397,-1.10054 -4.45199,-2.98491 -6.66782,-6.91114 -5.35241,-9.48396 -12.83622,-14.31604 -25.12526,-16.22267 -2.44294,-0.37902 -5.07322,-1.32063 -5.84505,-2.09246 -0.84155,-0.84156 -1.75194,-5.09684 -2.27415,-10.62972 -0.47895,-5.0745 -1.13979,-11.70137 -1.46854,-14.72637 -0.54988,-5.0598 0.12411,-10.01284 3.53797,-26 1.83935,-8.6137 2.03811,-8.16612 -4.50851,-10.1524 -3.3,-1.00124 -6.78687,-1.82654 -7.7486,-1.83402 -3.25322,-0.0253 -23.23316,-7.11789 -25.24943,-8.96322 -1.10108,-1.00773 -4.37166,-3.27434 -7.26796,-5.03691 -2.89629,-1.76257 -5.70879,-4.03206 -6.25,-5.04332 -1.65873,-3.09938 -1.15289,-6.80938 1.09226,-8.01095 1.76994,-0.94724 3.20845,-0.37346 9.75,3.88899 7.62397,4.96774 10.97795,6.65647 22.8855,11.52287 7.55254,3.08658 20.46323,4.55854 22.82091,2.60184 1.61965,-1.34419 5.46732,-9.0419 5.46732,-10.938 0,-1.59862 8.77791,-18.77959 9.97157,-19.51731 0.56564,-0.34958 1.03551,-1.39655 1.04417,-2.32659 0.009,-0.93004 2.27137,-5.96598 5.02825,-11.19098 6.35253,-12.03969 11.59667,-23.09562 13.99268,-29.5 3.11634,-8.32976 11.09715,-34.70151 11.95379,-39.5 0.44184,-2.475 1.27203,-5.85 1.84486,-7.5 0.57283,-1.65 1.48697,-4.8 2.03143,-7 0.54445,-2.2 1.7228,-6.94759 2.61854,-10.55019 3.43236,-13.80462 14.66301,-31.00159 23.01471,-35.24134 8.35563,-4.24175 12.31717,-4.96712 24.59801,-4.50395 12.42036,0.46843 25.91382,3.88404 32.98935,8.35063 7.45905,4.70869 15.3627,13.05373 18.07336,19.08271 7.6104,16.92681 10.80058,29.73714 12.79082,51.36214 0.58212,6.325 1.78044,15.55 2.66294,20.5 1.76764,9.91475 7.72652,28.57941 10.37597,32.5 0.9292,1.375 2.47197,4.94311 3.4284,7.92912 2.09741,6.54826 8.48386,19.43513 13.10977,26.4535 3.51017,5.32559 6.8749,14.16468 9.94197,26.11738 3.05872,11.9202 3.49152,15.23711 3.94113,30.2044 0.41979,13.9747 -0.48105,22.30265 -3.43935,31.7956 -7.19514,23.08857 -8.57141,25.63542 -20.89461,38.6666 -8.81473,9.32115 -11.12713,11.16811 -18.33242,14.64247 -10.60017,5.11136 -28.06209,10.98861 -35.78714,12.04508 -3.32096,0.45417 -6.58263,1.37114 -7.24816,2.03772 -0.85753,0.85889 -1.20681,6.43415 -1.19896,19.13769 l 0.0111,17.92573 -2.7926,1.15673 c -4.13373,1.71225 -15.7532,0.57612 -17.41994,-1.70328 C 441.58932,489.42369 441,488.02875 441,487.30887 441,485.01523 444.90035,482 447.86727,482 l 2.86727,0 0.50423,-13.25 c 0.31176,-8.19257 0.11915,-13.73397 -0.50462,-14.51796 -0.66414,-0.83471 -3.0975,-1.1764 -7.1215,-1 -3.36196,0.14738 -7.68765,-0.0621 -9.61265,-0.46551 -6.25878,-1.31161 -6.4004,-0.89191 -6.30081,18.67363 l 0.0895,17.58091 -2.5292,1.98947 C 421.67313,493.83156 411.82518,493.82518 409,491 Z m -81.80274,-58.26232 c -0.73342,-0.88371 -0.69675,-2.38334 0.12224,-5 0.97471,-3.11413 1.62367,-3.73768 3.89001,-3.73768 3.99818,0 5.1544,2.87246 2.74859,6.8285 -1.99858,3.2864 -4.93068,4.11439 -6.76084,1.90918 z M 367,423.5 c -0.86418,-1.04127 -0.93093,-1.88227 -0.21826,-2.75 0.56464,-0.6875 1.18224,-2.375 1.37244,-3.75 0.7069,-5.1103 7.84582,-2.31916 7.84582,3.06752 0,3.96581 -6.49998,6.44482 -9,3.43248 z"
       style="fill:#9dd352" />
    <path
       id="path10280"
       d="m 409,491 c -3.43652,-3.43652 -2.26614,-6.58197 2.9741,-7.99302 3.71723,-1.00095 3.77929,-1.09963 4.5666,-7.26086 0.89072,-6.97048 0.63685,-22.86574 -0.38235,-23.94009 C 415.79626,451.42435 412.35,450.61164 408.5,450 c -3.85,-0.61164 -7.4275,-1.53685 -7.95,-2.05603 -1.72795,-1.71698 -3.34055,-0.98355 -4.37746,1.99093 -0.56271,1.61419 -2.82749,5.21761 -5.03285,8.00759 -2.20535,2.78999 -4.29272,5.96431 -4.63859,7.05405 -0.98446,3.10174 -9.98378,8.46242 -22.0011,13.1055 -12.63655,4.88234 -14.56226,4.97455 -28.67229,1.37296 -13.56305,-3.46197 -20.08997,-8.08754 -27.92546,-19.79053 C 304.65601,454.83592 302,449.80272 302,448.49957 c 0,-1.30316 -0.46788,-3.59999 -1.03974,-5.10408 -1.3193,-3.47005 -1.47318,-21.28257 -0.19488,-22.56087 0.61372,-0.61372 1.21071,0.92746 1.65416,4.27038 0.99312,7.48651 2.57704,10.63327 8.68032,17.2451 7.34268,7.9545 13.12645,10.76057 23.51523,11.4087 6.40342,0.39949 9.36047,0.10434 13.53887,-1.35137 9.27611,-3.23169 17.32706,-9.63524 10.09604,-8.03017 -1.5125,0.33573 -4.878,0.89975 -7.47889,1.25337 -3.96804,0.5395 -4.83835,0.35773 -5.40915,-1.12976 -1.07306,-2.79636 0.83345,-4.70573 6.70015,-6.7102 6.71607,-2.29467 10.12291,-2.00861 11.42502,0.95933 0.54292,1.2375 1.27532,2.25 1.62755,2.25 1.16174,0 2.79149,-2.55772 4.09811,-6.43154 1.11256,-3.29849 1.99484,-4.07857 6.50258,-5.74934 4.61537,-1.71067 5.28969,-2.32917 5.8613,-5.37609 1.43897,-7.6704 -1.37782,-12.79069 -8.72531,-15.86067 -2.63397,-1.10054 -4.45199,-2.98491 -6.66782,-6.91114 -5.40162,-9.57115 -13.11566,-14.50553 -25.35833,-16.22079 -4.60726,-0.6455 -4.68941,-0.72211 -5.68617,-5.3027 -0.83301,-3.82808 -2.45121,-20.96736 -2.32711,-24.64773 0.33253,-9.86097 0.71536,-12.62061 2.21958,-16 0.97927,-2.2 2.01433,-6.57841 2.30015,-9.72979 l 0.51966,-5.7298 -6.78347,-2.0202 C 327.33694,319.90909 323.54602,319 322.64359,319 c -3.12936,0 -23.14975,-7.12664 -25.14162,-8.94964 -1.10108,-1.00773 -4.37166,-3.27434 -7.26796,-5.03691 -2.89629,-1.76257 -5.70879,-4.03206 -6.25,-5.04332 -1.65873,-3.09938 -1.15289,-6.80938 1.09226,-8.01095 1.76994,-0.94724 3.20845,-0.37346 9.75,3.88899 7.77056,5.06326 11.36086,6.86249 23.2854,11.66918 5.2368,2.11091 8.4498,2.69812 15.45118,2.82388 8.33358,0.14968 8.90721,0.0252 10.02251,-2.17541 0.65065,-1.28381 1.68513,-2.83631 2.29882,-3.45 0.6137,-0.6137 1.11002,-2.03832 1.10294,-3.16582 -0.0136,-2.16822 10.84615,-24.94942 22.90539,-48.05 2.29694,-4.4 5.30456,-11.15 6.68361,-15 3.91521,-10.93042 8.42325,-24.81249 8.43004,-25.95947 0.003,-0.57229 0.68112,-2.33474 1.50608,-3.91655 0.82495,-1.58181 1.78351,-5.40681 2.13013,-8.5 0.34662,-3.09319 0.99532,-6.0917 1.44156,-6.66335 0.8246,-1.05635 1.9342,-4.96589 3.96228,-13.96063 3.43927,-15.25353 8.19181,-25.77994 14.94901,-33.11064 2.20263,-2.38957 4.00478,-4.73114 4.00478,-5.2035 0,-1.0138 8.99427,-5.55393 14,-7.06692 1.925,-0.58184 8.675,-1.15562 15,-1.27506 10.18031,-0.19226 12.52981,0.10591 20.47393,2.59829 10.4229,3.27006 14.06948,5.38901 22.15203,12.87202 3.99669,3.70023 6.74909,7.35203 8.53476,11.32367 7.6104,16.92681 10.80058,29.73714 12.79082,51.36214 0.58212,6.325 1.78044,15.55 2.66294,20.5 1.76764,9.91475 7.72652,28.57941 10.37597,32.5 0.9292,1.375 2.47197,4.94311 3.4284,7.92912 2.09741,6.54826 8.48386,19.43513 13.10977,26.4535 3.51017,5.32559 6.8749,14.16468 9.94197,26.11738 3.05872,11.9202 3.49152,15.23711 3.94113,30.2044 0.41979,13.9747 -0.48105,22.30265 -3.43935,31.7956 -7.19514,23.08857 -8.57141,25.63542 -20.89461,38.6666 -8.81473,9.32115 -11.12713,11.16811 -18.33242,14.64247 -10.60017,5.11136 -28.06209,10.98861 -35.78714,12.04508 -3.32096,0.45417 -6.58263,1.37114 -7.24816,2.03772 -0.85753,0.85889 -1.20681,6.43415 -1.19896,19.13769 l 0.0111,17.92573 -2.7926,1.15673 c -4.13373,1.71225 -15.7532,0.57612 -17.41994,-1.70328 C 441.58932,489.42369 441,488.02875 441,487.30887 441,485.01523 444.90035,482 447.86727,482 l 2.86727,0 0.50423,-13.25 c 0.31176,-8.19257 0.11915,-13.73397 -0.50462,-14.51796 -0.66414,-0.83471 -3.0975,-1.1764 -7.1215,-1 -3.36196,0.14738 -7.68765,-0.0621 -9.61265,-0.46551 -6.25878,-1.31161 -6.4004,-0.89191 -6.30081,18.67363 l 0.0895,17.58091 -2.5292,1.98947 C 421.67313,493.83156 411.82518,493.82518 409,491 Z m -9.9493,-74.90527 c -0.66004,-1.23329 -0.69796,-2.1947 -0.10113,-2.56356 1.3189,-0.81513 12.4294,1.06474 15.24595,2.57957 1.48874,0.80069 7.14241,1.26594 15.97173,1.31434 12.85008,0.0704 13.81058,-0.0596 16.06445,-2.17508 2.88307,-2.70603 4.30249,-2.82889 5.77665,-0.5 0.79327,1.25321 1.25685,1.39515 1.63302,0.5 0.28891,-0.6875 1.3878,-1.25 2.44196,-1.25 1.05417,0 1.91667,-0.68082 1.91667,-1.51294 0,-0.85218 2.41031,-2.65417 5.51885,-4.126 3.03537,-1.43718 5.76193,-3.00635 6.05902,-3.48706 0.29709,-0.4807 1.24657,-0.874 2.10995,-0.874 0.86338,0 3.31312,-1.575 5.44386,-3.5 2.13074,-1.925 4.7794,-3.5 5.8859,-3.5 1.19835,0 2.80962,-1.31413 3.98488,-3.25 1.08518,-1.7875 2.99107,-3.4928 4.2353,-3.78955 1.60566,-0.38295 2.35908,-1.39877 2.5959,-3.5 0.18352,-1.62825 0.91621,-3.63545 1.6282,-4.46045 3.18889,-3.69503 4.89652,-21.93888 3.4473,-36.83003 -1.13025,-11.61359 -1.34057,-12.38349 -3.61967,-13.25 C 493.95866,331.41398 491.34791,331 489.48781,331 c -1.86009,0 -5.49782,-1.125 -8.08383,-2.5 -2.58602,-1.375 -5.42234,-2.50767 -6.30292,-2.51705 C 474.22048,325.97357 471.25,324.63124 468.5,323 c -2.75,-1.63124 -5.80795,-2.97357 -6.79545,-2.98295 C 459.07708,319.9921 455,315.48248 455,312.60122 c 0,-1.36933 1.05001,-3.7104 2.33335,-5.20237 2.94936,-3.42884 7.43574,-3.47422 12.52086,-0.12665 5.32619,3.50627 19.39895,9.68937 20.50176,9.0078 0.52086,-0.32191 0.20384,-1.12871 -0.70448,-1.79289 C 488.74317,313.82293 488,312.37172 488,311.2622 c 0,-1.10952 -0.675,-2.57751 -1.5,-3.2622 -1.78775,-1.4837 -1.97016,-4.59139 -0.32903,-5.60566 0.78221,-0.48343 0.48147,-0.97876 -0.90582,-1.49196 -1.22546,-0.45333 -2.359,-2.05321 -2.76526,-3.90288 -0.37867,-1.72405 -1.32105,-3.37738 -2.09419,-3.67406 -0.77313,-0.29668 -1.4057,-1.10559 -1.4057,-1.79757 0,-0.69198 -0.9,-2.40232 -2,-3.80074 -1.1,-1.39842 -2,-3.48411 -2,-4.63486 C 475,281.94152 474.55,281 474,281 c -0.55,0 -1,-1.32344 -1,-2.94098 0,-1.61754 -0.45,-3.2191 -1,-3.55902 -0.55,-0.33992 -1,-2.55927 -1,-4.9319 0,-2.37262 -0.90192,-6.35281 -2.00427,-8.84485 -2.57394,-5.81883 -2.44959,-14.3713 0.21911,-15.06918 2.48937,-0.65099 2.22899,-2.98509 -0.46484,-4.16694 -1.80852,-0.79344 -2.35492,-2.03177 -2.78474,-6.31115 -0.2941,-2.92821 -0.15975,-5.55578 0.29856,-5.83903 0.45831,-0.28325 0.32164,-1.13151 -0.30371,-1.88502 -0.656,-0.79043 -0.8633,-2.61622 -0.49002,-4.31577 0.37409,-1.7032 0.20049,-3.22172 -0.41154,-3.59998 C 464.47635,219.17636 464,217.58508 464,216 c 0,-1.58508 -0.39597,-3.12669 -0.87993,-3.42579 -1.37729,-0.85122 -4.30528,-10.64918 -3.67398,-12.29432 0.31157,-0.81193 -0.56134,-2.81658 -1.9398,-4.45479 C 456.12783,194.1869 455,192.11776 455,191.22703 c 0,-1.92543 -4.76624,-9.17914 -7.25,-11.03373 -0.9625,-0.71869 -1.75,-1.96733 -1.75,-2.77475 0,-0.80743 -1.125,-1.89578 -2.5,-2.41855 -1.89983,-0.72231 -2.5,-1.67065 -2.5,-3.95025 0,-2.84676 -0.16575,-2.96765 -3.25,-2.37041 -1.7875,0.34613 -3.66576,1.34738 -4.1739,2.225 -2.27501,3.92913 -7.65597,8.30804 -9.58829,7.80272 -1.0922,-0.28561 -2.23782,-0.11155 -2.54583,0.38682 -0.30801,0.49837 0.14154,0.90612 0.999,0.90612 2.47231,0 1.82623,2.78477 -1.64952,7.10988 -2.73547,3.40393 -3.03109,4.27676 -2.00499,5.91982 0.98511,1.5774 0.84146,2.57191 -0.79145,5.47917 -1.09726,1.95358 -1.99502,4.4524 -1.99502,5.55293 0,1.10053 -0.7875,2.29152 -1.75,2.64664 -2.73753,1.01003 -3.10783,2.26927 -1.5724,5.34712 1.22746,2.46049 1.22827,3.23374 0.006,5.64763 -0.77894,1.53824 -1.71328,4.43901 -2.07632,6.44615 -0.36304,2.00714 -1.35536,5.04306 -2.20515,6.7465 -0.84978,1.70344 -1.71319,5.16037 -1.91867,7.68206 -0.20549,2.52168 -0.78336,5.11076 -1.28417,5.75349 -0.50082,0.64274 -1.42552,3.28039 -2.05491,5.86146 C 401.90349,255.28143 398.351,262 396.90122,262 396.40555,262 396,264.07623 396,266.61385 c 0,2.60843 -0.83102,6.1943 -1.91192,8.25 -1.05155,1.99988 -2.18215,4.47504 -2.51243,5.50035 -0.43663,1.35542 -1.27943,1.73442 -3.08809,1.38867 -2.69975,-0.51609 -3.15549,0.1792 -1.32034,2.01435 0.88962,0.88962 0.76511,1.32152 -0.52355,1.81602 -1.31011,0.50274 -1.55079,1.39496 -1.06902,3.96299 0.50347,2.68371 0.2226,3.56344 -1.47645,4.62452 -1.55283,0.96975 -2.0982,2.33203 -2.0982,5.24106 0,3.95182 -2.17947,7.58819 -4.548,7.58819 -0.68091,0 -1.49704,0.675 -1.81363,1.5 C 374.80197,310.67963 373,310.33813 373,308 c 0,-1.1 -0.45,-2 -1,-2 -1.58682,0 -1.15984,3.72469 0.5,4.36163 1.88419,0.72303 1.97495,5.51888 0.11794,6.23149 -0.76014,0.29169 -1.6686,2.32222 -2.0188,4.51229 -0.35021,2.19007 -1.02903,4.74979 -1.5085,5.68826 -2.45096,4.79735 -5.02133,10.93055 -5.32512,12.70633 -0.23277,1.36061 -0.96929,1.88968 -2.30383,1.65492 -4.1182,-0.72444 -8.9853,-0.0587 -10.44361,1.42852 -1.36474,1.39179 -1.25007,1.48252 1.13515,0.89824 1.98177,-0.48544 2.91504,-0.18575 3.68772,1.1842 0.82869,1.46924 1.28561,1.58545 2.29677,0.58412 1.92799,-1.90924 2.86228,-1.50399 2.86228,1.24153 0,1.37034 -0.81405,2.99991 -1.80901,3.62127 -1.24078,0.77488 -1.68175,1.99678 -1.40388,3.89005 0.22282,1.51817 -0.0789,3.05946 -0.67051,3.42509 -0.7613,0.47051 -0.74327,1.197 0.0617,2.48595 0.64367,1.03068 0.80419,2.63828 0.36983,3.70364 -0.42214,1.03536 -0.76792,4.91997 -0.76841,8.63247 -4.9e-4,3.7125 -0.40113,6.75 -0.89031,6.75 -0.48917,0 -0.88941,0.45 -0.88941,1 0,0.55 1.2375,1.00988 2.75,1.02196 3.11307,0.0249 9.93267,2.90383 14.38021,6.07076 3.53375,2.51625 4.28817,2.1379 2.91879,-1.46383 -1.21407,-3.19326 -2.44561,-20.21497 -2.50542,-34.62889 -0.0377,-9.09317 0.23796,-10.90195 2.05772,-13.5 1.15572,-1.65 2.93669,-5.22218 3.95772,-7.93818 2.35582,-6.26659 12.41288,-16.77498 18.52045,-19.3516 12.52974,-5.28595 25.28942,-5.61982 35.01702,-0.91627 3.07807,1.48833 6.13731,2.70605 6.79832,2.70605 2.0217,0 14.71774,13.23647 16.96776,17.69002 1.16429,2.30452 2.7593,8.15452 3.54448,13 2.68059,16.54236 0.80509,28.98824 -6.64928,44.12498 -5.51661,11.20194 -8.22204,14.03852 -19.25777,20.19128 -5.83219,3.25163 -6.32164,3.34522 -17.5,3.34603 -7.43614,5.4e-4 -13.54929,-0.56261 -17.29912,-1.59363 l -5.79912,-1.59447 3.04912,5.40275 c 2.0565,3.64392 3.1078,6.954 3.22937,10.16789 l 0.18025,4.76515 0.37315,-4.71596 c 0.20523,-2.59378 -0.1021,-5.60397 -0.68295,-6.68931 z m -71.85344,16.64295 c -0.73342,-0.88371 -0.69675,-2.38334 0.12224,-5 0.97471,-3.11413 1.62367,-3.73768 3.89001,-3.73768 3.99818,0 5.1544,2.87246 2.74859,6.8285 -1.99858,3.2864 -4.93068,4.11439 -6.76084,1.90918 z M 367,423.5 c -0.86418,-1.04127 -0.93093,-1.88227 -0.21826,-2.75 0.56464,-0.6875 1.18224,-2.375 1.37244,-3.75 0.7069,-5.1103 7.84582,-2.31916 7.84582,3.06752 0,3.96581 -6.49998,6.44482 -9,3.43248 z"
       style="fill:#fbb603" />
    <path
       id="path10278"
       d="m 409,491 c -3.43652,-3.43652 -2.26614,-6.58197 2.9741,-7.99302 3.71723,-1.00095 3.77929,-1.09963 4.5666,-7.26086 0.89072,-6.97048 0.63685,-22.86574 -0.38235,-23.94009 -0.36209,-0.38168 -3.79095,-1.19301 -7.61969,-1.80295 -9.21433,-1.4679 -9.67029,-1.91531 -7.91065,-7.76218 0.77684,-2.58122 1.12617,-5.37888 0.77629,-6.21702 -0.34988,-0.83813 -0.95527,-5.57388 -1.34531,-10.52388 -0.39005,-4.95 -0.90038,-9.675 -1.13408,-10.5 -0.57404,-2.02645 7.84842,-1.59834 14.07509,0.71544 3.32661,1.23614 7.93357,1.68681 17.66795,1.72836 12.31938,0.0526 13.32239,-0.0888 15.56445,-2.1938 2.88223,-2.70603 4.30177,-2.82892 5.77595,-0.5 0.79327,1.25321 1.25685,1.39515 1.63302,0.5 0.28891,-0.6875 1.3878,-1.25 2.44196,-1.25 1.05417,0 1.91667,-0.68082 1.91667,-1.51294 0,-0.85218 2.41031,-2.65417 5.51885,-4.126 3.03537,-1.43718 5.76193,-3.00635 6.05902,-3.48706 0.29709,-0.4807 1.24657,-0.874 2.10995,-0.874 0.86338,0 3.31312,-1.575 5.44386,-3.5 2.13074,-1.925 4.7794,-3.5 5.8859,-3.5 1.19835,0 2.80962,-1.31413 3.98488,-3.25 1.08518,-1.7875 2.99107,-3.4928 4.2353,-3.78955 1.60566,-0.38295 2.35908,-1.39877 2.5959,-3.5 0.18352,-1.62825 0.91621,-3.63545 1.6282,-4.46045 3.18889,-3.69503 4.89652,-21.93888 3.4473,-36.83003 -1.13025,-11.61359 -1.34057,-12.38349 -3.61967,-13.25 C 493.95866,331.41398 491.34791,331 489.48781,331 c -1.86009,0 -5.49782,-1.125 -8.08383,-2.5 -2.58602,-1.375 -5.42234,-2.50767 -6.30292,-2.51705 C 474.22048,325.97357 471.25,324.63124 468.5,323 c -2.75,-1.63124 -5.80795,-2.97357 -6.79545,-2.98295 C 459.07708,319.9921 455,315.48248 455,312.60122 c 0,-1.36933 1.05001,-3.7104 2.33335,-5.20237 2.94936,-3.42884 7.43574,-3.47422 12.52086,-0.12665 5.32619,3.50627 19.39895,9.68937 20.50176,9.0078 0.52086,-0.32191 0.20384,-1.12871 -0.70448,-1.79289 C 488.74317,313.82293 488,312.37172 488,311.2622 c 0,-1.10952 -0.675,-2.57751 -1.5,-3.2622 -1.78775,-1.4837 -1.97016,-4.59139 -0.32903,-5.60566 0.78221,-0.48343 0.48147,-0.97876 -0.90582,-1.49196 -1.22546,-0.45333 -2.359,-2.05321 -2.76526,-3.90288 -0.37867,-1.72405 -1.32105,-3.37738 -2.09419,-3.67406 -0.77313,-0.29668 -1.4057,-1.10559 -1.4057,-1.79757 0,-0.69198 -0.9,-2.40232 -2,-3.80074 -1.1,-1.39842 -2,-3.48411 -2,-4.63486 C 475,281.94152 474.55,281 474,281 c -0.55,0 -1,-1.32344 -1,-2.94098 0,-1.61754 -0.45,-3.2191 -1,-3.55902 -0.55,-0.33992 -1,-2.55927 -1,-4.9319 0,-2.37262 -0.90192,-6.35281 -2.00427,-8.84485 -2.57394,-5.81883 -2.44959,-14.3713 0.21911,-15.06918 2.48937,-0.65099 2.22899,-2.98509 -0.46484,-4.16694 -1.80852,-0.79344 -2.35492,-2.03177 -2.78474,-6.31115 -0.2941,-2.92821 -0.15975,-5.55578 0.29856,-5.83903 0.45831,-0.28325 0.32164,-1.13151 -0.30371,-1.88502 -0.656,-0.79043 -0.8633,-2.61622 -0.49002,-4.31577 0.37409,-1.7032 0.20049,-3.22172 -0.41154,-3.59998 C 464.47635,219.17636 464,217.58508 464,216 c 0,-1.58508 -0.39597,-3.12669 -0.87993,-3.42579 -1.37729,-0.85122 -4.30528,-10.64918 -3.67398,-12.29432 0.31157,-0.81193 -0.56134,-2.81658 -1.9398,-4.45479 C 456.12783,194.1869 455,192.11776 455,191.22703 c 0,-1.92543 -4.76624,-9.17914 -7.25,-11.03373 -0.9625,-0.71869 -1.75,-1.96733 -1.75,-2.77475 0,-0.80743 -1.125,-1.89578 -2.5,-2.41855 -1.89983,-0.72231 -2.5,-1.67065 -2.5,-3.95025 0,-2.84676 -0.16575,-2.96765 -3.25,-2.37041 -1.7875,0.34613 -3.66576,1.34738 -4.1739,2.225 -2.27501,3.92913 -7.65597,8.30804 -9.58829,7.80272 -1.0922,-0.28561 -2.23782,-0.11155 -2.54583,0.38682 -0.30801,0.49837 0.14154,0.90612 0.999,0.90612 2.47231,0 1.82623,2.78477 -1.64952,7.10988 -2.73547,3.40393 -3.03109,4.27676 -2.00499,5.91982 0.98511,1.5774 0.84146,2.57191 -0.79145,5.47917 -1.09726,1.95358 -1.99502,4.4524 -1.99502,5.55293 0,1.10053 -0.7875,2.29152 -1.75,2.64664 -2.73753,1.01003 -3.10783,2.26927 -1.5724,5.34712 1.22746,2.46049 1.22827,3.23374 0.006,5.64763 -0.77894,1.53824 -1.71328,4.43901 -2.07632,6.44615 -0.36304,2.00714 -1.35536,5.04306 -2.20515,6.7465 -0.84978,1.70344 -1.71319,5.16037 -1.91867,7.68206 -0.20549,2.52168 -0.78336,5.11076 -1.28417,5.75349 -0.50082,0.64274 -1.42552,3.28039 -2.05491,5.86146 C 401.90349,255.28143 398.351,262 396.90122,262 396.40555,262 396,264.07623 396,266.61385 c 0,2.60843 -0.83102,6.1943 -1.91192,8.25 -1.05155,1.99988 -2.18215,4.47504 -2.51243,5.50035 -0.43663,1.35542 -1.27943,1.73442 -3.08809,1.38867 -2.69975,-0.51609 -3.15549,0.1792 -1.32034,2.01435 0.88962,0.88962 0.76511,1.32152 -0.52355,1.81602 -1.31011,0.50274 -1.55079,1.39496 -1.06902,3.96299 0.50347,2.68371 0.2226,3.56344 -1.47645,4.62452 -1.5773,0.98504 -2.0982,2.32932 -2.0982,5.41481 0,3.99775 -2.17586,7.41444 -4.72175,7.41444 -0.58535,0 -1.32329,0.675 -1.63988,1.5 C 374.80197,310.67963 373,310.33813 373,308 c 0,-1.1 -0.45,-2 -1,-2 -1.58682,0 -1.15984,3.72469 0.5,4.36163 1.88419,0.72303 1.97495,5.51888 0.11794,6.23149 -0.76014,0.29169 -1.6686,2.32222 -2.0188,4.51229 -0.35021,2.19007 -1.02903,4.74979 -1.5085,5.68826 -2.45096,4.79735 -5.02133,10.93055 -5.32512,12.70633 -0.23277,1.36061 -0.96929,1.88968 -2.30383,1.65492 -4.1182,-0.72444 -8.9853,-0.0587 -10.44361,1.42852 -1.36474,1.39179 -1.25007,1.48252 1.13515,0.89824 1.98177,-0.48544 2.91504,-0.18575 3.68772,1.1842 0.82869,1.46924 1.28561,1.58545 2.29677,0.58412 1.92799,-1.90924 2.86228,-1.50399 2.86228,1.24153 0,1.37034 -0.81405,2.99991 -1.80901,3.62127 -1.24078,0.77488 -1.68175,1.99678 -1.40388,3.89005 0.22282,1.51817 -0.0789,3.05946 -0.67051,3.42509 -0.7613,0.47051 -0.74327,1.197 0.0617,2.48595 0.64367,1.03068 0.80419,2.63828 0.36983,3.70364 -0.42214,1.03536 -0.768,4.90547 -0.7686,8.60024 -9e-4,5.6593 -0.2928,6.81036 -1.85253,7.3054 -1.0183,0.3232 -2.77495,0.0934 -3.90367,-0.51068 -1.58121,-0.84624 -3.54093,-0.65169 -8.53866,0.84766 -4.04157,1.2125 -6.71556,1.57528 -7.09429,0.96248 C 334.56504,379.4872 332.9095,359.8131 333.04916,353 c 0.062,-3.025 0.0803,-6.52579 0.0406,-7.77953 -0.0397,-1.25374 0.78156,-4.17874 1.82504,-6.5 1.04348,-2.32126 2.13109,-6.79888 2.41691,-9.95026 l 0.51966,-5.7298 -6.78347,-2.0202 C 327.33694,319.90909 323.54602,319 322.64359,319 c -3.12936,0 -23.14975,-7.12664 -25.14162,-8.94964 -1.10108,-1.00773 -4.37166,-3.27434 -7.26796,-5.03691 -2.89629,-1.76257 -5.70879,-4.03206 -6.25,-5.04332 -1.65873,-3.09938 -1.15289,-6.80938 1.09226,-8.01095 1.76994,-0.94724 3.20845,-0.37346 9.75,3.88899 7.77056,5.06326 11.36086,6.86249 23.2854,11.66918 5.2368,2.11091 8.4498,2.69812 15.45118,2.82388 8.33358,0.14968 8.90721,0.0252 10.02251,-2.17541 0.65065,-1.28381 1.68513,-2.83631 2.29882,-3.45 0.6137,-0.6137 1.11002,-2.03832 1.10294,-3.16582 -0.0136,-2.16822 10.84615,-24.94942 22.90539,-48.05 2.29694,-4.4 5.30456,-11.15 6.68361,-15 3.91521,-10.93042 8.42325,-24.81249 8.43004,-25.95947 0.003,-0.57229 0.68112,-2.33474 1.50608,-3.91655 0.82495,-1.58181 1.78351,-5.40681 2.13013,-8.5 0.34662,-3.09319 0.99532,-6.0917 1.44156,-6.66335 0.8246,-1.05635 1.9342,-4.96589 3.96228,-13.96063 3.43927,-15.25353 8.19181,-25.77994 14.94901,-33.11064 2.20263,-2.38957 4.00478,-4.73114 4.00478,-5.2035 0,-1.0138 8.99427,-5.55393 14,-7.06692 1.925,-0.58184 8.675,-1.15562 15,-1.27506 10.18031,-0.19226 12.52981,0.10591 20.47393,2.59829 10.4229,3.27006 14.06948,5.38901 22.15203,12.87202 3.99669,3.70023 6.74909,7.35203 8.53476,11.32367 7.6104,16.92681 10.80058,29.73714 12.79082,51.36214 0.58212,6.325 1.78044,15.55 2.66294,20.5 1.76764,9.91475 7.72652,28.57941 10.37597,32.5 0.9292,1.375 2.47197,4.94311 3.4284,7.92912 2.09741,6.54826 8.48386,19.43513 13.10977,26.4535 3.51017,5.32559 6.8749,14.16468 9.94197,26.11738 3.05872,11.9202 3.49152,15.23711 3.94113,30.2044 0.41979,13.9747 -0.48105,22.30265 -3.43935,31.7956 -7.19514,23.08857 -8.57141,25.63542 -20.89461,38.6666 -8.81473,9.32115 -11.12713,11.16811 -18.33242,14.64247 -10.60017,5.11136 -28.06209,10.98861 -35.78714,12.04508 -3.32096,0.45417 -6.58263,1.37114 -7.24816,2.03772 -0.85753,0.85889 -1.20681,6.43415 -1.19896,19.13769 l 0.0111,17.92573 -2.7926,1.15673 c -4.13373,1.71225 -15.7532,0.57612 -17.41994,-1.70328 C 441.58932,489.42369 441,488.02875 441,487.30887 441,485.01523 444.90035,482 447.86727,482 l 2.86727,0 0.50423,-13.25 c 0.31176,-8.19257 0.11915,-13.73397 -0.50462,-14.51796 -0.66414,-0.83471 -3.0975,-1.1764 -7.1215,-1 -3.36196,0.14738 -7.68765,-0.0621 -9.61265,-0.46551 -6.25878,-1.31161 -6.4004,-0.89191 -6.30081,18.67363 l 0.0895,17.58091 -2.5292,1.98947 C 421.67313,493.83156 411.82518,493.82518 409,491 Z m -63.63804,-46.49913 c -1.04786,-2.73068 0.81165,-4.71093 6.20716,-6.61017 6.16471,-2.17001 9.8368,-2.31144 11.39101,-0.43874 3.15795,3.80509 -1.50903,6.96453 -12.18902,8.25169 -3.92855,0.47347 -4.84403,0.26991 -5.40915,-1.20278 z m -18.1647,-11.76319 c -0.73342,-0.88371 -0.69675,-2.38334 0.12224,-5 0.97471,-3.11413 1.62367,-3.73768 3.89001,-3.73768 3.99818,0 5.1544,2.87246 2.74859,6.8285 -1.99858,3.2864 -4.93068,4.11439 -6.76084,1.90918 z M 367,423.5 c -0.86418,-1.04127 -0.93093,-1.88227 -0.21826,-2.75 0.56464,-0.6875 1.18224,-2.375 1.37244,-3.75 0.7069,-5.1103 7.84582,-2.31916 7.84582,3.06752 0,3.96581 -6.49998,6.44482 -9,3.43248 z m 35.5,-14.04095 c -3.3,-0.73185 -6.57849,-1.35953 -7.28554,-1.39485 -0.70704,-0.0353 -2.1983,-2.2017 -3.3139,-4.8142 -2.09299,-4.90134 -4.35608,-7.21648 -11.63573,-11.90334 -2.59995,-1.67394 -4.6233,-3.90819 -5.24044,-5.7867 -1.22858,-3.73965 -2.42416,-20.38899 -2.48173,-34.55996 -0.0369,-9.09227 0.23906,-10.90221 2.05864,-13.5 1.15572,-1.65 2.93669,-5.22218 3.95772,-7.93818 2.35582,-6.26659 12.41288,-16.77498 18.52045,-19.3516 12.52974,-5.28595 25.28942,-5.61982 35.01702,-0.91627 3.07807,1.48833 6.13731,2.70605 6.79832,2.70605 2.0217,0 14.71774,13.23647 16.96776,17.69002 1.16429,2.30452 2.7593,8.15452 3.54448,13 2.68059,16.54236 0.80509,28.98824 -6.64928,44.12498 -5.50777,11.184 -8.274,14.09052 -19.11539,20.08484 -5.27122,2.9145 -6.82294,3.27133 -15.5,3.5643 -5.61795,0.18968 -12.14659,-0.22982 -15.64238,-1.00509 z"
       style="fill:#95d04a" />
    <path
       id="path10276"
       d="m 409,491 c -3.43652,-3.43652 -2.26614,-6.58197 2.9741,-7.99302 3.71723,-1.00095 3.77929,-1.09963 4.5666,-7.26086 0.89072,-6.97048 0.63685,-22.86574 -0.38235,-23.94009 -0.36209,-0.38168 -3.80835,-1.19221 -7.65835,-1.80119 -9.16585,-1.44981 -10.10003,-2.40373 -7.37737,-7.53326 2.66775,-5.02608 2.35681,-4.77157 4.85929,-3.97732 1.17296,0.37228 2.51584,1.68475 2.98419,2.91659 0.75472,1.98508 1.5868,2.25086 7.31883,2.33778 5.46551,0.0829 6.44775,-0.16112 6.34117,-1.57528 -0.13949,-1.85082 1.5241,-1.86082 7.48483,-0.045 2.95857,0.90126 4.05699,0.80773 6.07983,-0.51768 1.35788,-0.88972 2.74676,-1.33979 3.08639,-1.00016 0.33964,0.33963 1.81911,-0.32766 3.28771,-1.48287 1.46861,-1.15521 3.05188,-1.86449 3.51837,-1.57618 1.36582,0.84411 8.91676,-3.4508 8.91676,-5.07178 0,-0.81383 0.86931,-1.47968 1.9318,-1.47968 6.74028,0 23.79871,-13.54905 28.26134,-22.44722 1.11791,-2.22903 2.85599,-4.95433 3.8624,-6.05622 1.8348,-2.00889 7.31345,-16.49992 9.07242,-23.99656 2.26953,-9.67264 2.9831,-22.05069 1.87355,-32.5 -0.61321,-5.775 -1.3509,-11.46355 -1.63932,-12.64122 -0.53189,-2.17178 -3.77986,-3.35426 -9.23719,-3.36297 -1.44375,-0.002 -4.83877,-1.1273 -7.54448,-2.5 -2.70571,-1.37269 -5.63071,-2.52971 -6.5,-2.57115 -2.42537,-0.11561 -17.2353,-8.21207 -18.39505,-10.05642 -1.43543,-2.28275 0.79902,-7.31233 3.87027,-8.71168 2.68688,-1.22423 4.2975,-0.82135 9.44426,2.3624 7.15744,4.42753 19.99029,9.6189 22.11251,8.94533 2.19865,-0.69782 2.19628,-0.87737 -0.11813,-8.96429 -0.62962,-2.2 -1.13067,-4.89662 -1.11345,-5.9925 0.0172,-1.09587 -0.62395,-2.99254 -1.42481,-4.21482 C 488.65525,297.07041 488,295.1529 488,294.03156 c 0,-1.12135 -0.9,-3.71801 -2,-5.77038 -1.1,-2.05236 -2.00931,-4.63823 -2.02069,-5.74637 C 483.96793,281.40666 482.38366,276 480.4587,270.5 c -4.17555,-11.93042 -6.14371,-26.05445 -7.93299,-56.92912 -0.49374,-8.51965 -1.00732,-11.23832 -2.32954,-12.33164 -1.55393,-1.2849 -1.55636,-1.35903 -0.0289,-0.88402 2.35618,0.73275 2.68061,-0.93134 1.62895,-8.35522 -0.50643,-3.575 -1.0787,-9.425 -1.27171,-13 -0.53245,-9.862 -1.49375,-15.04986 -3.70597,-20 -1.10607,-2.475 -2.61404,-5.85 -3.35104,-7.5 -0.737,-1.65 -1.59595,-3.83022 -1.90878,-4.84494 -0.31283,-1.01472 -1.42491,-2.06882 -2.47128,-2.34245 -1.04638,-0.27364 -2.14979,-1.44314 -2.45203,-2.5989 -0.53318,-2.0389 -0.60923,-2.04735 -2.55741,-0.28427 -1.45867,1.32007 -2.76968,1.62333 -4.79293,1.10868 -1.53177,-0.38963 -4.06846,-0.68462 -5.63709,-0.65552 -2.02203,0.0375 -3.00181,-0.51977 -3.36663,-1.91485 -0.674,-2.57736 -2.03327,-2.48831 -4.30838,0.28225 -1.52161,1.85297 -2.1675,2.04585 -3.66029,1.09306 -0.99696,-0.63632 -1.63652,-1.76132 -1.42124,-2.5 0.21527,-0.73868 0.35922,-2.08434 0.31988,-2.99035 -0.0587,-1.35235 1.39309,-1.76107 8.1086,-2.28279 4.49906,-0.34953 9.56814,-0.65793 11.26463,-0.68533 4.26784,-0.0689 20.08779,4.88346 24.50284,7.67056 7.45905,4.70869 15.3627,13.05373 18.07336,19.08271 7.6104,16.92681 10.80058,29.73714 12.79082,51.36214 0.58212,6.325 1.78044,15.55 2.66294,20.5 1.76764,9.91475 7.72652,28.57941 10.37597,32.5 0.9292,1.375 2.47197,4.94311 3.4284,7.92912 2.09741,6.54826 8.48386,19.43513 13.10977,26.4535 3.51017,5.32559 6.8749,14.16468 9.94197,26.11738 3.05872,11.9202 3.49152,15.23711 3.94113,30.2044 0.41979,13.9747 -0.48105,22.30265 -3.43935,31.7956 -7.19514,23.08857 -8.57141,25.63542 -20.89461,38.6666 -8.81473,9.32115 -11.12713,11.16811 -18.33242,14.64247 -10.60017,5.11136 -28.06209,10.98861 -35.78714,12.04508 -3.32096,0.45417 -6.58263,1.37114 -7.24816,2.03772 -0.85753,0.85889 -1.20681,6.43415 -1.19896,19.13769 l 0.0111,17.92573 -2.7926,1.15673 c -4.13373,1.71225 -15.7532,0.57612 -17.41994,-1.70328 C 441.58932,489.42369 441,488.02875 441,487.30887 441,485.01523 444.90035,482 447.86727,482 l 2.86727,0 0.50423,-13.25 c 0.31176,-8.19257 0.11915,-13.73397 -0.50462,-14.51796 -0.66414,-0.83471 -3.0975,-1.1764 -7.1215,-1 -3.36196,0.14738 -7.68765,-0.0621 -9.61265,-0.46551 -6.25878,-1.31161 -6.4004,-0.89191 -6.30081,18.67363 l 0.0895,17.58091 -2.5292,1.98947 C 421.67313,493.83156 411.82518,493.82518 409,491 Z m -63.63837,-46.5 c -1.08639,-2.83107 0.50534,-4.29267 7.04477,-6.46885 7.1157,-2.36796 10.13079,-2.06469 11.14178,1.12067 0.89544,2.82127 -0.32722,3.7388 -7.15513,5.36951 -7.64871,1.82673 -10.32424,1.82156 -11.03142,-0.0213 z m -18.16437,-11.76232 c -0.73342,-0.88371 -0.69675,-2.38334 0.12224,-5 0.97471,-3.11413 1.62367,-3.73768 3.89001,-3.73768 3.99818,0 5.1544,2.87246 2.74859,6.8285 -1.99858,3.2864 -4.93068,4.11439 -6.76084,1.90918 z M 367,423.5 c -0.86418,-1.04127 -0.93093,-1.88227 -0.21826,-2.75 0.56464,-0.6875 1.18224,-2.375 1.37244,-3.75 0.7069,-5.1103 7.84582,-2.31916 7.84582,3.06752 0,3.96581 -6.49998,6.44482 -9,3.43248 z m 33.15716,-16.3753 c -6.84005,-1.54728 -7.44287,-1.89942 -8.80379,-5.14286 -1.51256,-3.60485 -4.85275,-6.91817 -9.59994,-9.52274 -3.59285,-1.97123 -5.71202,-7.25528 -6.17096,-15.387 C 375.37846,373.45744 374.886,364.425 374.4881,357 l -0.72345,-13.5 4.59719,-9.51103 c 8.81568,-18.23858 20.45028,-25.99376 38.98395,-25.98521 7.04795,0.003 8.96821,0.40974 14.15421,2.99624 3.3,1.64586 6.46952,2.99417 7.04338,2.99624 1.82384,0.007 13.37065,11.91493 15.38861,15.87044 2.79927,5.48702 5.09801,18.51746 4.69848,26.63332 -0.61597,12.5125 -2.43036,19.48612 -7.89756,30.35445 -5.47504,10.88391 -5.81134,11.22201 -18.95259,19.05425 -5.05679,3.01386 -20.97025,3.62578 -31.62316,1.216 z M 330.5,320.92237 c -3.3,-1.04236 -6.78687,-1.90131 -7.7486,-1.90879 -3.25322,-0.0253 -23.23316,-7.11789 -25.24943,-8.96322 -1.10108,-1.00773 -4.37166,-3.27434 -7.26796,-5.03691 -2.89629,-1.76257 -5.70879,-4.03206 -6.25,-5.04332 -1.65873,-3.09938 -1.15289,-6.80938 1.09226,-8.01095 1.76994,-0.94724 3.20845,-0.37346 9.75,3.88899 13.43312,8.75296 26.65456,13.94652 37.65719,14.79225 10.00003,0.76866 11.54234,1.45016 9.76654,4.3155 -0.6875,1.10932 -1.25,2.90722 -1.25,3.99533 0,1.60182 -2.88694,4.33233 -4.18426,3.95753 -0.17366,-0.0502 -3.01574,-0.94405 -6.31574,-1.98641 z"
       style="fill:#86a15d" />
    <path
       id="path10274"
       d="m 409.2,490.8 c -2.75211,-2.75211 0.46008,-7.8 4.96349,-7.8 0.94516,0 1.98013,-0.42337 2.29994,-0.94083 0.9645,-1.5606 1.53868,-25.40388 0.68853,-28.59211 -0.74097,-2.7788 -1.2309,-3.03392 -7.72157,-4.02078 -3.81171,-0.57955 -7.71326,-1.49485 -8.67011,-2.034 -1.63231,-0.91976 -1.60976,-1.22511 0.36534,-4.94628 2.66434,-5.01971 2.35403,-4.76593 4.8563,-3.97174 1.17296,0.37228 2.51584,1.68475 2.98419,2.91659 0.75472,1.98508 1.5868,2.25086 7.31883,2.33778 5.46551,0.0829 6.44775,-0.16112 6.34117,-1.57528 -0.13949,-1.85082 1.5241,-1.86082 7.48483,-0.045 2.95857,0.90126 4.05699,0.80773 6.07983,-0.51768 1.35788,-0.88972 2.74676,-1.33979 3.08639,-1.00016 0.33964,0.33963 1.81911,-0.32766 3.28771,-1.48287 1.46861,-1.15521 3.05188,-1.86449 3.51837,-1.57618 1.36582,0.84411 8.91676,-3.4508 8.91676,-5.07178 0,-0.81383 0.88986,-1.47968 1.97746,-1.47968 1.0876,0 4.5751,-1.42035 7.75,-3.15634 3.1749,-1.73598 6.67858,-3.64848 7.78596,-4.25 2.51226,-1.36462 6.48658,-5.30959 6.48658,-6.43867 0,-0.46476 0.94864,-1.70226 2.10809,-2.75 1.15944,-1.04775 3.16357,-3.98633 4.45361,-6.5302 1.29003,-2.54386 2.9705,-4.86504 3.73437,-5.15816 0.76386,-0.29312 2.15389,-3.25956 3.08895,-6.59208 0.93505,-3.33252 2.13095,-6.3254 2.65754,-6.65085 0.52659,-0.32546 0.95744,-1.42871 0.95744,-2.45168 0,-1.02297 0.63676,-3.13391 1.41503,-4.69098 2.14922,-4.29993 3.49485,-11.91057 3.77152,-21.33104 0.27899,-9.49957 -1.81641,-27.82623 -3.4015,-29.75 -0.56647,-0.6875 -3.02219,-1.25 -5.45715,-1.25 -2.43497,0 -5.82815,-0.72445 -7.54039,-1.60988 -1.71225,-0.88544 -5.5323,-2.44219 -8.48902,-3.45945 -2.95671,-1.01726 -6.59594,-2.70535 -8.08717,-3.75131 -1.49122,-1.04596 -4.39902,-2.44918 -6.46177,-3.11825 -4.24407,-1.37662 -5.72239,-4.63054 -3.91047,-8.60726 2.01251,-4.417 4.86681,-4.01601 17.7062,2.48747 11.911,6.03323 14.66513,6.84408 17.39002,5.11983 1.17894,-0.74601 1.22984,-1.59165 0.285,-4.73469 -2.4078,-8.00961 -2.60543,-8.86233 -2.35404,-10.15689 0.14209,-0.73174 -0.46929,-2.44096 -1.35863,-3.79827 -0.88935,-1.35731 -1.48308,-3.25829 -1.31941,-4.22438 0.16367,-0.9661 -0.56264,-3.06941 -1.61402,-4.67401 -1.05137,-1.60461 -1.96129,-4.27994 -2.02204,-5.94519 -0.0608,-1.66525 -0.46139,-3.59022 -0.89032,-4.27772 -0.42893,-0.6875 -0.41582,-1.25689 0.0291,-1.26531 0.44496,-0.008 0.27398,-0.35551 -0.37995,-0.7713 -0.65394,-0.41579 -1.3971,-1.8714 -1.65148,-3.23469 -0.25437,-1.36328 -1.42394,-4.90126 -2.59904,-7.86216 -1.28878,-3.24736 -2.52235,-9.59598 -3.10887,-16 -0.53479,-5.8391 -1.27364,-11.96654 -1.6419,-13.61654 -0.36825,-1.65 -0.7778,-5.025 -0.91011,-7.5 -1.30076,-24.3336 -1.53725,-26.38301 -3.20346,-27.76076 -1.55393,-1.2849 -1.55636,-1.35903 -0.0289,-0.88402 2.35618,0.73275 2.68061,-0.93134 1.62895,-8.35522 -0.50643,-3.575 -1.0787,-9.425 -1.27171,-13 -0.53245,-9.862 -1.49375,-15.04986 -3.70597,-20 -1.10607,-2.475 -2.61404,-5.85 -3.35104,-7.5 -0.737,-1.65 -1.59595,-3.83022 -1.90878,-4.84494 -0.31283,-1.01472 -1.42491,-2.06882 -2.47128,-2.34245 -1.04638,-0.27364 -2.14979,-1.44314 -2.45203,-2.5989 -0.53318,-2.0389 -0.60923,-2.04735 -2.55741,-0.28427 -1.45867,1.32007 -2.76968,1.62333 -4.79293,1.10868 -1.53177,-0.38963 -4.06846,-0.68462 -5.63709,-0.65552 -2.02203,0.0375 -3.00181,-0.51977 -3.36663,-1.91485 -0.674,-2.57736 -2.03327,-2.48831 -4.30838,0.28225 -1.52161,1.85297 -2.1675,2.04585 -3.66029,1.09306 -0.99696,-0.63632 -1.63652,-1.76132 -1.42124,-2.5 0.21527,-0.73868 0.35574,-2.13056 0.31215,-3.09306 -0.0676,-1.49283 0.97703,-1.78173 7.10859,-1.96588 19.63389,-0.5897 30.51608,2.42516 42.58586,11.79818 8.24235,6.40076 11.01671,10.65506 15.92354,24.4177 5.70589,16.00382 7.49524,24.77693 8.66826,42.5 0.6969,10.52934 3.96702,28.26262 6.54641,35.5 3.53003,9.90472 4.31104,11.8501 6.42355,16 1.2599,2.475 2.85948,6.3 3.55462,8.5 1.66611,5.27295 9.49795,20.91019 13.10246,26.1607 6.71026,9.77449 12.94665,33.67287 13.78866,52.8393 0.7655,17.4249 0.0169,23.34666 -5.02917,39.78111 -5.86288,19.09489 -8.67298,23.66381 -23.37634,38.00752 -5.25016,5.12174 -9.1226,7.82571 -15.49119,10.81689 -9.98409,4.6893 -29.03347,10.86796 -36.26974,11.76408 l -5.0905,0.6304 -1.11496,5 c -0.61322,2.75 -1.04061,11.075 -0.94975,18.5 0.0947,7.73804 -0.26032,14.03351 -0.83178,14.75 -1.53473,1.92424 -15.19047,1.66876 -17.18065,-0.32143 C 440.3473,487.20444 442.33171,483 447.07756,483 c 1.47265,0 3.10694,-0.5625 3.63175,-1.25 0.52481,-0.6875 0.91741,-7.325 0.87244,-14.75 L 451.5,453.5 440.10109,452.69891 c -6.70413,-0.47115 -11.77399,-0.42601 -12.3096,0.1096 -0.50089,0.50089 -0.88063,8.69736 -0.84389,18.21439 0.081,20.98956 0.0869,20.9771 -9.90259,20.9771 -3.83501,0 -7.15246,-0.50745 -7.84501,-1.2 z m -63.78419,-46.15879 c -0.33246,-0.86638 -0.43061,-2.0968 -0.21812,-2.73427 0.58425,-1.75276 11.6892,-5.57715 14.84817,-5.11352 5.44568,0.79926 4.16475,7.07306 -1.48699,7.28309 -1.13238,0.0421 -2.95887,0.30742 -4.05887,0.58965 -5.9213,1.51921 -8.49435,1.51214 -9.08419,-0.0249 z M 327.47342,431.75 c -0.25509,-0.6875 -0.0961,-2.6 0.35333,-4.25 0.60905,-2.23601 1.40772,-3 3.13621,-3 3.51286,0 4.76485,2.74027 2.69517,5.89901 -1.77977,2.71627 -5.38585,3.50398 -6.18471,1.35099 z m 39.99068,-10 c 0.38355,-1.2375 0.9385,-3.2625 1.23321,-4.5 1.05097,-4.41302 6.30269,-2.04408 6.30269,2.84301 0,2.86431 -1.52077,3.90699 -5.69842,3.90699 -2.16869,0 -2.43411,-0.32501 -1.83748,-2.25 z m 32.69306,-14.6253 c -6.84005,-1.54728 -7.44287,-1.89942 -8.80379,-5.14286 -1.51256,-3.60485 -4.85275,-6.91817 -9.59994,-9.52274 -3.59285,-1.97123 -5.71202,-7.25528 -6.17096,-15.387 C 375.37846,373.45744 374.886,364.425 374.4881,357 l -0.72345,-13.5 4.59719,-9.51103 c 8.81568,-18.23858 20.45028,-25.99376 38.98395,-25.98521 7.04795,0.003 8.96821,0.40974 14.15421,2.99624 3.3,1.64586 6.46952,2.99417 7.04338,2.99624 1.82384,0.007 13.37065,11.91493 15.38861,15.87044 2.79927,5.48702 5.09801,18.51746 4.69848,26.63332 -0.61597,12.5125 -2.43036,19.48612 -7.89756,30.35445 -5.47504,10.88391 -5.81134,11.22201 -18.95259,19.05425 -5.05679,3.01386 -20.97025,3.62578 -31.62316,1.216 z M 328.5,319.88424 c -17.16775,-4.15247 -27.67311,-8.01861 -33.9044,-12.47735 -3.35258,-2.39891 -7.10403,-5.06477 -8.33655,-5.92413 -2.76859,-1.93037 -3.9108,-5.99252 -2.24827,-7.99575 1.8703,-2.25357 3.57589,-1.84112 9.79409,2.36846 12.92649,8.75092 26.68345,14.08867 38.99962,15.13198 5.11747,0.43351 9.58065,1.06435 9.91817,1.40188 0.33753,0.33753 0.11121,1.62551 -0.50294,2.86218 -0.61414,1.23667 -1.25232,3.1041 -1.41817,4.14985 -0.41692,2.62882 -3.00887,2.73056 -12.30155,0.48288 z"
       style="fill:#85c533" />
    <path
       id="path10272"
       d="m 409.2,490.8 c -2.75211,-2.75211 0.46008,-7.8 4.96349,-7.8 0.94516,0 1.98013,-0.42337 2.29994,-0.94083 0.9645,-1.5606 1.53868,-25.40388 0.68853,-28.59211 -0.74155,-2.78097 -1.22746,-3.03306 -7.74725,-4.01941 -7.61243,-1.15164 -9.71263,-2.02386 -9.12417,-3.78929 0.26881,-0.80647 5.06947,-1.18175 15.80278,-1.23535 9.36619,-0.0468 17.18277,-0.58351 19.91668,-1.36759 5.65916,-1.62304 16.05437,-6.501 21.40788,-10.04567 2.25067,-1.4902 6.31063,-3.78953 9.02214,-5.10961 8.31281,-4.04702 19.31137,-16.77008 25.41519,-29.40014 2.19263,-4.53699 5.83329,-15.04092 7.27859,-21 1.08039,-4.45452 2.97114,-23.53657 2.42061,-24.42954 C 501.35098,352.75671 500.65772,348 500.00385,342.5 c -0.65387,-5.5 -1.65233,-10.5625 -2.2188,-11.25 -0.56647,-0.6875 -3.02219,-1.25 -5.45715,-1.25 -2.43497,0 -5.82815,-0.72445 -7.54039,-1.60988 -1.71225,-0.88544 -5.5323,-2.44219 -8.48902,-3.45945 -2.95671,-1.01726 -6.59594,-2.70535 -8.08717,-3.75131 -1.49122,-1.04596 -4.39902,-2.44918 -6.46177,-3.11825 -4.24407,-1.37662 -5.72239,-4.63054 -3.91047,-8.60726 2.01251,-4.417 4.86681,-4.01601 17.7062,2.48747 8.29514,4.2017 13.10267,6.05588 15.70472,6.05703 2.0625,9.1e-4 3.75118,-0.33585 3.75261,-0.74835 0.007,-1.97207 -3.50347,-15.45965 -5.53064,-21.25 -5.11758,-14.61774 -10.23642,-30.63262 -11.91298,-37.27117 -0.7263,-2.87585 -1.65498,-10.40383 -2.06374,-16.72883 -0.40876,-6.325 -0.8786,-12.85 -1.0441,-14.5 -0.16549,-1.65 -0.78918,-12 -1.38598,-23 -1.89483,-34.92478 -2.52306,-40.40122 -5.21783,-45.48519 C 466.8313,157.09795 466,154.94549 466,154.23157 c 0,-2.99729 -5.15342,-11.10139 -9.85736,-15.50137 -5.75817,-5.38611 -4.95183,-5.91502 4.76947,-3.12846 15.65475,4.48734 27.41774,13.69553 32.44498,25.39826 7.42104,17.27515 10.82337,31.71709 12.13272,51.5 0.6969,10.52934 3.96702,28.26262 6.54641,35.5 3.53003,9.90472 4.31104,11.8501 6.42355,16 1.2599,2.475 2.85948,6.3 3.55462,8.5 1.66611,5.27295 9.49795,20.91019 13.10246,26.1607 6.71026,9.77449 12.94665,33.67287 13.78866,52.8393 0.7655,17.4249 0.0169,23.34666 -5.02917,39.78111 -5.86288,19.09489 -8.67298,23.66381 -23.37634,38.00752 -5.25016,5.12174 -9.1226,7.82571 -15.49119,10.81689 -9.98409,4.6893 -29.03347,10.86796 -36.26974,11.76408 l -5.0905,0.6304 -1.11496,5 c -0.61322,2.75 -1.04061,11.075 -0.94975,18.5 0.0947,7.73804 -0.26032,14.03351 -0.83178,14.75 -1.53473,1.92424 -15.19047,1.66876 -17.18065,-0.32143 C 440.3473,487.20444 442.33171,483 447.07756,483 c 1.47265,0 3.10694,-0.5625 3.63175,-1.25 0.52481,-0.6875 0.91741,-7.325 0.87244,-14.75 L 451.5,453.5 440.10109,452.69891 c -6.70413,-0.47115 -11.77399,-0.42601 -12.3096,0.1096 -0.50089,0.50089 -0.88063,8.69736 -0.84389,18.21439 0.081,20.98956 0.0869,20.9771 -9.90259,20.9771 -3.83501,0 -7.15246,-0.50745 -7.84501,-1.2 z M 346,444.5 c -1.7628,-2.12404 0.039,-3.98455 5.74009,-5.92711 6.23461,-2.12434 9.95161,-2.01748 11.20371,0.3221 1.36983,2.55954 0.0111,3.52033 -7.77457,5.49739 -7.72163,1.96081 -7.63209,1.95976 -9.16923,0.10762 z m -18.52658,-12.75 c -0.25509,-0.6875 -0.0961,-2.6 0.35333,-4.25 0.60905,-2.23601 1.40772,-3 3.13621,-3 3.51286,0 4.76485,2.74027 2.69517,5.89901 -1.77977,2.71627 -5.38585,3.50398 -6.18471,1.35099 z m 39.99068,-10 c 0.38355,-1.2375 0.9385,-3.2625 1.23321,-4.5 1.05097,-4.41302 6.30269,-2.04408 6.30269,2.84301 0,2.86431 -1.52077,3.90699 -5.69842,3.90699 -2.16869,0 -2.43411,-0.32501 -1.83748,-2.25 z M 328.5,319.90769 c -17.38736,-4.25656 -27.6931,-8.05636 -33.9044,-12.5008 -3.35258,-2.39891 -7.10403,-5.06477 -8.33655,-5.92413 -2.76859,-1.93037 -3.9108,-5.99252 -2.24827,-7.99575 1.87075,-2.25412 3.57668,-1.84093 9.79409,2.37224 12.16668,8.24462 29.5718,15.14075 38.21369,15.14075 8.21561,0 8.94258,0.42455 8.26715,4.82801 -0.55258,3.60253 -1.91569,6.23757 -3.15815,6.10507 -0.34516,-0.0368 -4.22756,-0.94824 -8.62756,-2.02539 z"
       style="fill:#739843" />
    <path
       id="path10270"
       d="m 409.2,490.8 c -2.75211,-2.75211 0.46008,-7.8 4.96349,-7.8 0.94516,0 1.98013,-0.42337 2.29994,-0.94083 0.9645,-1.5606 1.53868,-25.40388 0.68853,-28.59211 -0.74563,-2.79628 -1.21884,-3.03539 -8.22157,-4.1543 -4.08671,-0.65298 -7.58039,-1.21548 -7.76372,-1.25 -0.18334,-0.0345 -0.18334,-0.50015 0,-1.03473 0.18969,-0.55312 7.44366,-1.15281 16.83333,-1.39163 9.6068,-0.24433 17.96219,-0.94393 20,-1.67461 5.87835,-2.10774 14.33554,-6.18255 17.5,-8.43178 1.65,-1.17279 5.68313,-3.45932 8.96251,-5.08118 3.27937,-1.62185 8.72854,-5.52868 12.10926,-8.68183 6.69423,-6.24363 17.02399,-21.56756 18.55865,-27.53128 0.52873,-2.05465 1.788,-6.21072 2.79837,-9.23572 2.9042,-8.69498 4.00225,-14.85836 4.27578,-24 0.27282,-9.11811 -1.62967,-27.05728 -3.17589,-29.94642 -0.66959,-1.25113 -2.69158,-1.94247 -6.9975,-2.39253 -3.33068,-0.34813 -7.73775,-1.47542 -9.79349,-2.5051 -2.05573,-1.02968 -4.98731,-2.17262 -6.51461,-2.53986 -1.52731,-0.36724 -4.95208,-2.00609 -7.6106,-3.6419 C 465.45396,318.33839 462.63107,317 461.8394,317 459.75199,317 458,314.92602 458,312.45499 458,310.28127 460.81182,307 462.67454,307 c 0.55939,0 6.30196,2.723 12.76129,6.05111 10.1931,5.25192 12.35969,6.01135 16.40419,5.75 3.42143,-0.22108 4.62246,-0.69979 4.51882,-1.80111 -0.41735,-4.43477 -3.27418,-14.26384 -9.15551,-31.5 -0.56301,-1.65 -2.02896,-6.375 -3.25767,-10.5 -1.22871,-4.125 -2.56401,-8.4 -2.96734,-9.5 -3.06808,-8.36757 -5.45681,-31.69912 -7.01317,-68.5 -0.54662,-12.925 -1.38001,-24.85 -1.85198,-26.5 -0.47197,-1.65 -0.91723,-4.3191 -0.98946,-5.93134 -0.0722,-1.61223 -0.80461,-3.9589 -1.62752,-5.21481 -0.8229,-1.25592 -1.49655,-2.86182 -1.49698,-3.56867 -0.002,-2.66898 -5.87292,-13.40255 -8.87361,-16.22227 -4.78657,-4.49789 -4.14113,-5.672 2.1244,-3.86449 15.35642,4.43008 27.12514,13.70427 32.10709,25.30158 7.42104,17.27515 10.82337,31.71709 12.13272,51.5 0.6969,10.52934 3.96702,28.26262 6.54641,35.5 3.53003,9.90472 4.31104,11.8501 6.42355,16 1.2599,2.475 2.85948,6.3 3.55462,8.5 1.66611,5.27295 9.49795,20.91019 13.10246,26.1607 6.71026,9.77449 12.94665,33.67287 13.78866,52.8393 0.7655,17.4249 0.0169,23.34666 -5.02917,39.78111 -5.86288,19.09489 -8.67298,23.66381 -23.37634,38.00752 -5.25016,5.12174 -9.1226,7.82571 -15.49119,10.81689 -9.98409,4.6893 -29.03347,10.86796 -36.26974,11.76408 l -5.0905,0.6304 -1.11496,5 c -0.61322,2.75 -1.04061,11.075 -0.94975,18.5 0.0947,7.73804 -0.26032,14.03351 -0.83178,14.75 -1.53473,1.92424 -15.19047,1.66876 -17.18065,-0.32143 C 440.3473,487.20444 442.33171,483 447.07756,483 c 1.47265,0 3.10694,-0.5625 3.63175,-1.25 0.52481,-0.6875 0.91741,-7.325 0.87244,-14.75 L 451.5,453.5 440.10109,452.69891 c -6.70413,-0.47115 -11.77399,-0.42601 -12.3096,0.1096 -0.50089,0.50089 -0.88063,8.69736 -0.84389,18.21439 0.081,20.98956 0.0869,20.9771 -9.90259,20.9771 -3.83501,0 -7.15246,-0.50745 -7.84501,-1.2 z m -62.75385,-46.88713 c -0.99572,-1.61111 0.47355,-2.64892 6.86194,-4.84684 5.93479,-2.04187 8.14835,-1.92492 9.07092,0.47926 0.6796,1.77101 0.35077,1.95172 -7.03264,3.86496 -7.27117,1.88415 -8.02024,1.92645 -8.90022,0.50262 z M 327.47342,431.75 c -0.25509,-0.6875 -0.0961,-2.6 0.35333,-4.25 0.60905,-2.23601 1.40772,-3 3.13621,-3 3.51286,0 4.76485,2.74027 2.69517,5.89901 -1.77977,2.71627 -5.38585,3.50398 -6.18471,1.35099 z m 39.99068,-10 c 0.38355,-1.2375 0.9385,-3.2625 1.23321,-4.5 1.05097,-4.41302 6.30269,-2.04408 6.30269,2.84301 0,2.86431 -1.52077,3.90699 -5.69842,3.90699 -2.16869,0 -2.43411,-0.32501 -1.83748,-2.25 z M 326,319.34038 c -16.28827,-4.22554 -25.55154,-7.74553 -31.4044,-11.93349 -3.35258,-2.39891 -7.10403,-5.06477 -8.33655,-5.92413 -2.76859,-1.93037 -3.9108,-5.99252 -2.24827,-7.99575 1.87075,-2.25412 3.57668,-1.84093 9.79409,2.37224 C 306.05194,304.15835 323.3707,311 332.13174,311 c 6.68779,0 7.49958,0.82122 6.43283,6.50753 -0.59311,3.16153 -0.95887,3.48144 -3.85988,3.37607 -1.76258,-0.064 -5.67969,-0.75847 -8.70469,-1.54322 z"
       style="fill:#5c5f4e" />
    <path
       id="path10268"
       d="m 448,491.15418 c -2.98229,-0.41253 -5,-1.90773 -5,-3.7052 0,-2.05741 3.04394,-4.56871 4.85537,-4.00575 3.80195,1.18156 4.37056,-0.69195 4.79528,-15.79988 0.47782,-16.99723 2.10221,-15.15177 -14.22219,-16.15771 -8.21696,-0.50634 -10.29766,-0.34817 -11.29949,0.85897 -0.81764,0.98519 -1.18277,4.93393 -1.09272,11.81749 0.22203,16.97244 -0.12916,24.24493 -1.23514,25.57755 -0.654,0.78802 -3.59816,1.26035 -7.85617,1.26035 -6.11341,0 -6.88075,-0.22241 -7.5001,-2.1738 -0.75435,-2.37673 1.59242,-4.8262 4.62384,-4.8262 3.52512,0 4.16145,-2.5821 4.29825,-17.44148 0.0975,-10.59687 -0.21054,-14.80225 -1.15437,-15.75665 -0.70808,-0.71603 -4.08308,-1.80943 -7.5,-2.42978 -7.00704,-1.27216 -7.61008,-1.18311 12.28744,-1.81441 5.775,-0.18322 12.975,-1.02238 16,-1.8648 5.4346,-1.51345 15.81491,-6.43894 18.90598,-8.97094 0.87671,-0.71815 3.76697,-2.41187 6.42279,-3.76383 8.50869,-4.33139 9.16248,-4.78028 14.41761,-9.89907 4.15637,-4.04855 12.21106,-15.08263 16.67562,-22.84387 0.69733,-1.21223 2.98005,-8.43215 6.23334,-19.71517 3.67621,-12.74973 3.66371,-29.57335 -0.0342,-45.97208 l -1.12119,-4.97208 -7,-1.12515 c -3.85,-0.61884 -9.025,-2.08402 -11.5,-3.25596 -2.475,-1.17194 -5.175,-2.14262 -6,-2.15705 -0.825,-0.0144 -3.525,-1.37239 -6,-3.01768 -2.475,-1.64529 -5.2324,-2.99336 -6.12756,-2.99572 -3.7774,-0.01 -4.90416,-6.01066 -1.38238,-7.36209 0.77765,-0.29842 6.79237,2.13501 13.36604,5.40762 9.79166,4.87463 12.85392,5.95019 16.94102,5.95019 6.00636,0 6.67658,-1.08722 4.77255,-7.74193 -0.74875,-2.61694 -1.88327,-6.99562 -2.52115,-9.73041 -0.63787,-2.73478 -2.48474,-8.28129 -4.10415,-12.32556 C 488.32497,286.15783 487,281.96054 487,280.87478 c 0,-1.08575 -0.66211,-3.25448 -1.47136,-4.8194 -0.80925,-1.56491 -1.90284,-4.58007 -2.43021,-6.70034 -0.52736,-2.12027 -1.6702,-6.33004 -2.53963,-9.35504 -2.02259,-7.03715 -4.41487,-34.13475 -5.60601,-63.5 -0.51312,-12.65 -1.38741,-24.30465 -1.94287,-25.89922 C 472.45446,169.0062 472,166.29383 472,164.57328 c 0,-1.72055 -0.58844,-4.0159 -1.30764,-5.10077 -0.7192,-1.08488 -2.4067,-4.82574 -3.75,-8.31302 -1.3433,-3.48728 -4.12992,-8.17472 -6.19249,-10.41653 -2.06258,-2.24182 -3.58911,-4.23705 -3.39231,-4.43385 0.61616,-0.61616 11.25457,2.43974 14.77928,4.24536 7.07456,3.62414 16.25537,12.42392 19.42834,18.62202 6.7252,13.13708 12.06356,34.54364 13.00959,52.16788 0.32935,6.1356 1.1874,13.40563 1.90679,16.15563 0.71938,2.75 1.60615,7.44034 1.97059,10.42297 0.36445,2.98264 1.15718,6.34705 1.76163,7.47648 0.60445,1.12942 1.44783,3.41409 1.87417,5.07702 1.39045,5.42342 3.98236,11.81353 5.86295,14.45458 1.01327,1.42301 2.38145,4.5895 3.0404,7.03665 1.41873,5.26875 8.77065,20.17433 13.51829,27.40751 3.25041,4.95209 5.92575,12.30671 10.59457,29.12479 2.66518,9.60058 4.16945,34.63567 2.6438,44 -1.62541,9.97668 -7.66959,29.56853 -11.28732,36.58717 -2.29619,4.45477 -8.37576,11.68284 -16.46064,19.57025 -4.57567,4.46391 -8.95259,7.52228 -14.78434,10.33054 -10.81149,5.20624 -28.09495,10.91985 -35.95191,11.88508 -3.42994,0.42137 -6.45482,0.9847 -6.72197,1.25185 -0.88286,0.88286 -2.54737,27.31046 -1.92847,30.61854 0.33374,1.78388 0.33465,4.32779 0.002,5.65313 -0.51547,2.0538 -1.30713,2.46093 -5.36006,2.75657 -2.61539,0.19078 -5.88026,0.19125 -7.25526,0.001 z M 325.5,318.25957 c -13.42006,-3.28609 -24.86641,-7.44502 -28.99775,-10.53608 -2.36958,-1.77292 -5.70211,-3.99015 -7.40562,-4.92717 -3.41846,-1.88034 -5.68958,-5.80874 -4.75947,-8.23255 0.96096,-2.50424 3.13282,-1.86883 10.89064,3.18623 4.00931,2.6125 9.08573,5.50122 11.28093,6.41938 16.03019,6.70475 19.61792,7.83062 24.95314,7.83062 6.10965,0 7.25071,1.02472 6.12692,5.50224 -0.73408,2.92484 -2.72701,3.04969 -12.08879,0.75733 z"
       style="fill:#45473a" />
    <path
       id="path10266"
       d="m 410.37429,489.53299 c -0.93509,-2.4368 0.0399,-3.74276 3.67008,-4.91609 3.22347,-1.04186 3.50974,-1.48641 4.26099,-6.6169 0.97426,-6.65338 1.08341,-21.95346 0.18578,-26.04035 -0.49649,-2.2605 -1.2079,-2.95965 -3.01158,-2.95965 -1.29884,0 -2.5697,-0.3375 -2.82413,-0.75 -0.25443,-0.4125 3.65651,-0.78248 8.69099,-0.82219 10.41566,-0.0821 22.8302,-2.46157 25.19825,-4.82962 0.879,-0.879 2.28828,-1.59819 3.13173,-1.59819 0.84345,0 3.53387,-1.35 5.97871,-3 2.44483,-1.65 5.53347,-3 6.86364,-3 1.73892,0 2.25674,-0.42148 1.84288,-1.5 -0.39941,-1.04085 0.0693,-1.5 1.53138,-1.5 1.15885,0 2.97899,-0.7875 4.04478,-1.75 1.06578,-0.9625 3.62944,-3.1 5.69701,-4.75 4.14043,-3.30421 10.35291,-9.65855 10.36042,-10.59699 0.003,-0.32834 0.90478,-1.6347 2.00478,-2.90301 1.1,-1.26831 2,-2.84242 2,-3.49802 0,-0.6556 0.85888,-1.96928 1.90862,-2.91929 1.80643,-1.63479 2.48426,-2.95734 5.16758,-10.08269 1.1039,-2.93132 1.14956,-2.94849 1.99456,-0.75 0.47563,1.2375 1.32929,2.25 1.89702,2.25 1.58305,0 1.22546,-3.6639 -0.5288,-5.41816 -1.41469,-1.4147 -1.35842,-2.2416 0.60032,-8.82143 2.64284,-8.87791 3.6907,-13.11043 4.47027,-18.05643 0.42279,-2.68237 1.29271,-4.1124 2.96523,-4.87445 2.46242,-1.12196 2.41806,-3.82953 -0.0627,-3.82953 -0.75567,0 -1.64411,-1.2375 -1.97429,-2.75 -0.33019,-1.5125 -1.02392,-3.88023 -1.54163,-5.26162 -1.33318,-3.55725 -2.7926,-13.31769 -2.14933,-14.37441 0.29665,-0.48732 1.31803,0.14626 2.26973,1.40796 l 1.73036,2.29399 1.64923,-2.51706 C 511.12104,330.64014 508.07922,326.78977 505,330.5 c -1.77981,2.14453 -2.91207,1.86147 -4,-1 -0.56612,-1.48902 -1.74041,-2.5 -2.90382,-2.5 C 496.07959,327 493,324.55117 493,322.94762 c 0,-0.50023 1.12892,-1.19286 2.50871,-1.53916 3.3603,-0.84338 4.07096,-4.25898 2.09359,-10.06225 -0.88127,-2.58637 -1.6023,-6.1128 -1.6023,-7.83652 0,-1.72372 -0.89313,-4.98261 -1.98474,-7.24198 -3.85799,-7.98512 -5.25633,-13.27232 -3.93218,-14.86782 0.9681,-1.16648 0.83068,-1.90317 -0.68631,-3.67921 -4.61692,-5.40535 -6.664,-11.79524 -9.50923,-29.68279 -0.87728,-5.51536 -0.79783,-6.63032 0.54229,-7.61024 1.87292,-1.36951 2.05631,-2.52685 0.34506,-2.17765 -1.77058,0.36131 -3.79173,-15.65863 -4.25807,-33.75 -0.7278,-28.23497 -2.87295,-44.87133 -6.23075,-48.32143 C 469.57873,155.45179 469,154.41142 469,153.86665 c 0,-1.99945 -5.18958,-11.88718 -6.8797,-13.10792 -0.95849,-0.6923 -2.07504,-1.81445 -2.48122,-2.49367 -1.83192,-3.06338 14.29479,2.67318 18.70928,6.65522 1.1834,1.06748 3.72664,3.27211 5.65164,4.89918 5.34913,4.52126 9.30882,12.52366 14.43892,29.18054 2.83723,9.21216 4.27203,17.4913 6.06563,35 1.75708,17.15233 3.79003,27.66346 7.05942,36.5 1.42445,3.85 2.85503,7.9 3.17907,9 0.32403,1.1 1.58157,3.58693 2.79451,5.5265 1.21295,1.93958 2.54497,5.08958 2.96006,7 0.91347,4.20428 9.66628,21.92465 13.57028,27.4735 2.54535,3.61778 5.91082,12.0647 7.96851,20 0.42786,1.65 1.74026,6.6 2.91646,11 2.89445,10.82781 3.75888,35.46275 1.60787,45.82185 -2.03389,9.79509 -8.44016,29.82093 -10.15902,31.75689 -0.77094,0.86831 -1.40171,2.05564 -1.40171,2.63852 0,1.4575 -6.04873,8.36236 -15,17.12309 -5.48745,5.37064 -9.51255,8.28487 -15,10.86021 C 495.33385,443.23704 474.7042,450 470.53236,450 c -1.77865,0 -4.59534,0.4746 -6.25931,1.05466 -2.86648,0.99926 -3.06105,1.41645 -3.70407,7.94209 -0.37327,3.78809 -0.58454,12.01908 -0.46948,18.2911 0.11505,6.27201 -0.11182,11.92307 -0.50417,12.55791 -0.82793,1.33962 -12.40547,1.56089 -14.43282,0.27584 -0.73562,-0.46628 -1.18562,-1.92189 -1,-3.23469 0.26316,-1.86119 1.0369,-2.4547 3.51302,-2.69471 1.74654,-0.1693 3.60555,-0.8443 4.13113,-1.5 0.52558,-0.65571 1.15777,-7.41934 1.40486,-15.03028 0.52737,-16.24375 0.32978,-16.58169 -9.75908,-16.69135 -3.27384,-0.0356 -8.27988,-0.15357 -11.12454,-0.2622 -2.84465,-0.10863 -5.43953,0.0699 -5.7664,0.3968 -0.32687,0.32687 -0.77042,8.7783 -0.98566,18.78096 -0.26408,12.27204 -0.7864,18.66265 -1.60605,19.65026 -1.69907,2.04727 -12.80966,2.04448 -13.5955,-0.003 z M 330,318.44828 c -2.475,-0.77985 -5.71176,-1.42475 -7.19279,-1.4331 -1.48103,-0.008 -5.75603,-1.10541 -9.5,-2.43791 -3.74397,-1.33251 -7.99852,-2.67949 -9.45456,-2.99329 -1.45605,-0.31381 -4.44149,-2.03608 -6.63431,-3.82727 -2.19283,-1.79119 -5.35041,-4.00112 -7.01686,-4.91096 -1.66645,-0.90984 -3.81295,-2.84933 -4.77,-4.30998 -1.60925,-2.45602 -1.61739,-2.77844 -0.10823,-4.28759 1.50916,-1.50916 2.14113,-1.28921 8.40431,2.92502 11.15034,7.50261 27.85057,14.60433 36.459,15.50409 5.80963,0.60722 5.81344,0.60982 5.81344,3.96517 0,3.77968 0.13519,3.73899 -6,1.80582 z"
       style="fill:#403e38" />
    <path
       id="path10264"
       d="m 411.75,489.9781 c -2.92028,-1.79803 -2.00434,-3.83252 2.23994,-4.97539 5.11746,-1.37799 5.0302,-0.98805 5.19704,-23.22445 0.0525,-6.99696 0.4819,-12.4829 0.95423,-12.19099 0.47234,0.29192 0.85879,0.0542 0.85879,-0.52825 0,-0.58246 1.9125,-1.0684 4.25,-1.07986 2.3375,-0.0115 7.175,-0.63872 10.75,-1.39391 6.56092,-1.38595 8.66843,-1.23443 5.97591,0.42964 -1.24079,0.76685 -1.15948,1.15311 0.52896,2.5128 1.89925,1.52944 1.8029,1.58454 -2.00487,1.14649 -2.2,-0.2531 -4.45,-0.56162 -5,-0.6856 -0.55,-0.12398 -3.058,-0.17213 -5.57332,-0.107 L 425.35335,450 l -0.28902,5.75 c -0.15897,3.1625 -0.21519,6.875 -0.12493,8.25 0.52394,7.98187 -0.0341,24.49469 -0.85553,25.31613 -1.43012,1.43012 -10.31203,1.90682 -12.33387,0.66197 z m 33.83239,-0.2942 c -3.05742,-2.23564 -1.61498,-5.13853 2.73175,-5.49759 2.08863,-0.17253 3.96296,-0.84753 4.16517,-1.5 0.20221,-0.65247 0.65991,-7.62212 1.01711,-15.48811 l 0.64944,-14.30179 -4.07293,-1.5999 c -4.09127,-1.60709 -4.93194,-2.64758 -3.06926,-3.79878 0.55202,-0.34116 0.72824,-1.71772 0.39159,-3.05902 -0.83493,-3.32662 1.37052,-3.18495 2.64606,0.16998 0.74212,1.95193 1.3108,2.34397 2.25879,1.5572 0.774,-0.64235 1.82868,-0.70433 2.71059,-0.15928 0.91526,0.56567 2.00097,0.4304 2.96646,-0.36957 0.83756,-0.69398 3.46952,-2.10497 5.84879,-3.13554 3.70313,-1.60398 4.45899,-1.66698 5.25,-0.43762 0.79868,1.24128 1.05408,1.23374 1.88244,-0.0556 0.52712,-0.82043 0.71725,-2.45247 0.42253,-3.62674 -0.39769,-1.58451 0.25769,-2.70011 2.54161,-4.32641 2.88968,-2.05763 3.07747,-2.07735 3.07747,-0.32325 0,4.15186 4.62379,5.70141 6.76793,2.26809 1.10122,-1.76334 0.99869,-2 -0.86644,-2 -1.52441,0 -1.94468,-0.44506 -1.50421,-1.5929 0.33619,-0.8761 0.8973,-2.73263 1.24692,-4.12563 0.53616,-2.13622 0.77811,-2.27824 1.54543,-0.9071 C 485.17468,429.13455 491,429.6697 491,428 c 0,-0.55 0.91412,-1 2.03138,-1 1.11727,0 2.29041,-0.675 2.60699,-1.5 0.93243,-2.42986 2.83824,-1.72496 4.05553,1.5 1.13323,3.00228 3.59179,3.9648 4.86503,1.90465 0.37233,-0.60245 0.0736,-2.22268 -0.66376,-3.60052 -1.17035,-2.18683 -1.12181,-2.66524 0.38205,-3.76489 C 505.42729,420.69829 506,418.90332 506,416.13976 506,412.39068 506.23593,412 508.5,412 c 1.55556,0 2.5,0.56667 2.5,1.5 0,1.63567 2.69958,1.97659 4.85185,0.61273 1.07083,-0.67858 0.91625,-1.16175 -0.74364,-2.32439 -2.23312,-1.56413 -1.8426,-2.78834 0.88948,-2.78834 2.51268,0 4.64862,-4.51631 3.04804,-6.4449 -0.93646,-1.12836 -1.73755,-1.25521 -3.15074,-0.4989 -1.44433,0.77298 -1.89499,0.6782 -1.89499,-0.39857 0,-2.0509 2.63732,-4.05348 3.5,-2.65763 0.89824,1.45339 3.5,-0.6447 3.5,-2.82244 0,-2.94522 1.84906,0.23352 2.1787,3.74543 0.17672,1.88264 0.9521,3.63041 1.72309,3.88393 1.09025,0.3585 1.25825,-0.2567 0.75596,-2.76817 -0.53433,-2.67167 -0.30731,-3.31763 1.31509,-3.7419 3.82675,-1.00072 3.60923,-5.17934 -0.34203,-6.57032 -0.47805,-0.16829 -1.02722,-2.41691 -1.22037,-4.99693 -0.28517,-3.80912 0.007,-4.88244 1.55222,-5.70962 1.61728,-0.86554 1.84838,-1.92069 1.53738,-7.01932 -0.34985,-5.7355 -0.26219,-6.00066 1.98364,-6.00066 1.29231,0 2.51677,0.50136 2.72103,1.11414 0.20426,0.61278 1.25426,0.88548 2.33334,0.606 1.84026,-0.47663 1.82239,-0.55297 -0.28805,-1.23077 -1.2375,-0.39745 -2.25,-1.29339 -2.25,-1.99099 0,-0.6976 -1.06778,-1.968 -2.37285,-2.82311 C 527.36099,360.5352 528.08982,356 531.69991,356 c 3.12278,0 2.55391,-2.23188 -0.7688,-3.01626 C 527.82739,352.25105 527.00769,349 529.92668,349 c 3.16072,0 2.47073,-1.83984 -1.03021,-2.74702 l -3.10353,-0.80421 2.60353,-1.39336 c 3.12064,-1.67012 3.29583,-2.64111 0.60353,-3.34516 -3.66219,-0.95768 -2.32092,-2.99304 1.5,-2.27623 2.98685,0.56034 3.5,0.38229 3.5,-1.21439 C 534,335.37904 530.15987,331 528.54579,331 c -0.45392,0 -1.38872,0.77051 -2.07733,1.71225 -1.03731,1.4186 -1.51773,1.49175 -2.80125,0.42652 -1.39562,-1.15826 -1.38156,-1.62304 0.14178,-4.68765 1.68572,-3.39127 3.5182,-4.34877 4.69101,-2.45112 0.8853,1.43245 3.5,1.23607 3.5,-0.26287 0,-0.69458 -1.00987,-1.70708 -2.24416,-2.25 -1.23429,-0.54292 -2.40785,-1.88713 -2.60791,-2.98713 -0.20007,-1.1 -1.25934,-2.84616 -2.35395,-3.88035 -1.44472,-1.36499 -1.66031,-2.08423 -0.78661,-2.62421 1.97492,-1.22056 -1.62764,-5.9075 -4.05319,-5.27321 -2.06484,0.53997 -2.7094,-1.13744 -0.87315,-2.27231 0.59456,-0.36746 0.81099,-1.74402 0.48095,-3.05901 C 519.0776,301.46101 519.3512,301 520.98095,301 522.09143,301 523,300.3557 523,299.56822 c 0,-1.69969 -4.46213,-1.50609 -6.23891,0.27069 -2.07529,2.07529 -2.86531,1.23353 -2.19511,-2.33891 0.57298,-3.05424 0.40133,-3.5 -1.3477,-3.5 -1.10237,0 -2.26332,-0.675 -2.57991,-1.5 -0.31658,-0.825 -1.71472,-1.5 -3.10699,-1.5 -2.80913,0 -3.39871,-1.4532 -0.968,-2.38595 0.85986,-0.32996 1.30252,-1.02201 0.98369,-1.53789 -0.31883,-0.51588 -0.0859,-1.24315 0.51765,-1.61616 0.60353,-0.373 0.83498,-1.72349 0.51433,-3.00108 -0.4385,-1.74709 -0.0868,-2.48039 1.41897,-2.95829 1.10109,-0.34947 2.00198,-1.25339 2.00198,-2.00871 0,-1.15641 -0.42798,-1.15127 -2.70977,0.0325 -2.38001,1.23477 -2.92763,1.20869 -4.5,-0.21429 -2.04007,-1.84624 -2.44408,-7.11222 -0.54023,-7.04151 5.24488,0.19478 6.45195,-1.67107 2.14131,-3.30997 -2.19624,-0.83501 -2.40848,-1.23307 -1.34238,-2.51763 1.89306,-2.28101 -0.2589,-3.86274 -5.31323,-3.90535 -4.67145,-0.0394 -4.6756,-0.0509 -2.6555,-7.3457 0.82944,-2.9952 0.88471,-4.97808 0.18118,-6.5 -0.5568,-1.2045 -1.50874,-3.4275 -2.11543,-4.94 -1.24032,-3.09216 -3.62501,-3.53142 -6.2542,-1.15204 -2.07318,1.8762 -3.89175,1.09557 -3.89175,-1.67055 0,-1.075 -0.54547,-2.82798 -1.21215,-3.8955 -1.96548,-3.14725 0.001,-3.60792 3.0273,-0.70901 3.49527,3.34869 4.96891,3.37527 6.2096,0.112 1.38724,-3.64871 1.21962,-4.5636 -0.77475,-4.22874 -1.2515,0.21014 -1.78944,-0.41831 -1.88845,-2.20616 -0.0762,-1.375 -0.46179,-3.2875 -0.85699,-4.25 -0.49488,-1.20527 -0.25463,-1.75 0.77182,-1.75 0.8197,0 1.74999,-0.99285 2.06733,-2.20633 0.77385,-2.95922 -0.19347,-3.71962 -1.84996,-1.45423 -1.92587,2.63377 -5.06753,1.72272 -4.71364,-1.36692 0.15406,-1.34502 -0.50645,-3.90606 -1.46781,-5.6912 -1.3392,-2.48674 -1.47307,-3.52055 -0.57249,-4.42113 0.90057,-0.90057 1.52491,-0.88538 2.66999,0.065 1.2101,1.00429 1.9735,0.89155 4.01095,-0.59238 3.65125,-2.6593 3.29513,-4.32319 -0.7836,-3.6613 -1.84956,0.30014 -4.37288,0.005 -5.60736,-0.65552 -1.62321,-0.86871 -2.54696,-0.89877 -3.33715,-0.10858 C 478.94766,203.65234 477,203.17376 477,201 c 0,-1.30739 0.66667,-2 1.92508,-2 1.23146,0 2.76727,-1.53129 4.26255,-4.25 1.90384,-3.46157 2.93807,-4.30813 5.57492,-4.56336 1.7806,-0.17235 3.23745,-0.71901 3.23745,-1.21481 0,-1.60431 -3.88969,-3.03762 -6.47948,-2.38762 -3.15416,0.79164 -3.28526,-0.80698 -0.27052,-3.29872 1.2375,-1.02283 2.81631,-2.85549 3.50847,-4.07258 C 489.81743,177.35084 489.77779,177 488.50847,177 487.67881,177 487,177.43844 487,177.97432 487,178.83461 481.94757,182 480.57441,182 c -0.2887,0 -0.0738,-1.18654 0.47759,-2.63676 0.83494,-2.19606 0.66366,-2.8741 -1.02475,-4.05671 C 478.91226,174.52556 478,173.38504 478,172.77204 c 0,-0.61301 -0.74474,-1.93749 -1.65499,-2.9433 -1.53998,-1.70166 -1.53998,-1.95582 0,-3.65748 2.07523,-2.2931 2.21446,-7.17126 0.20468,-7.17126 -0.79767,0 -1.90899,0.7875 -2.46959,1.75 -0.85623,1.47006 -1.02415,1.2686 -1.04969,-1.25945 -0.0192,-1.903 -0.76573,-3.46867 -2.03041,-4.25848 -2.46622,-1.54018 -2.57214,-4.04994 -0.25,-5.92361 1.61773,-1.30529 1.58414,-1.36655 -0.44436,-0.81051 -1.67832,0.46005 -2.60304,-0.0569 -3.93215,-2.19822 -0.95577,-1.53985 -2.89331,-4.09462 -4.30563,-5.67727 l -2.56786,-2.87753 4,0.69153 c 11.76801,2.0345 27.34748,16.33923 30.56438,28.06354 0.45273,1.65 1.99185,6.375 3.42027,10.5 3.46404,10.0035 5.28028,19.91594 6.41297,35 0.51626,6.875 1.70253,16.325 2.63617,21 2.08344,10.43248 8.08079,28.51581 10.70525,32.2787 1.06591,1.52829 2.38559,4.45329 2.93262,6.5 1.14333,4.27777 10.95353,24.11904 13.88716,28.08699 2.22693,3.01208 6.68442,14.60755 7.93218,20.63431 0.45549,2.2 1.58451,6.25 2.50895,9 2.55925,7.61316 3.81391,36.38431 1.99566,45.76325 -1.91756,9.89123 -8.2051,29.394 -10.99017,34.08946 -4.20135,7.08321 -20.49201,24.37983 -24.95079,26.49151 -9.41408,4.45852 -16.53286,7.51568 -19.05465,8.18302 -1.65,0.43664 -5.6623,1.76437 -8.91622,2.95053 -3.25392,1.18615 -9.24497,2.52994 -13.31343,2.9862 -4.06847,0.45626 -7.63973,1.07207 -7.93613,1.36847 -0.73782,0.73783 -1.31233,10.79843 -1.43719,25.16756 -0.0573,6.6 -0.56274,12.5625 -1.12309,13.25 -1.35352,1.66063 -10.8955,1.61282 -13.19155,-0.0661 z m 68.84296,-162.21031 c 1.13603,-1.73381 1.45915,-3.57236 1.02991,-5.86036 -0.71414,-3.80674 1.28759,-5.35641 4.61718,-3.57446 2.73833,1.46551 2.39421,3.93941 -1.14524,8.23339 -3.65105,4.42935 -7.24539,5.38859 -4.50185,1.20143 z m -184.90551,-9.97877 c -2.18908,-0.77957 -4.90602,-1.18502 -6.03763,-0.901 -1.13161,0.28402 -5.19054,-0.5842 -9.01984,-1.92936 -3.8293,-1.34517 -8.27693,-2.74788 -9.88362,-3.11714 -1.60669,-0.36926 -4.98169,-2.23915 -7.5,-4.1553 -2.51831,-1.91616 -6.15375,-4.49121 -8.07875,-5.72233 -2.03693,-1.30271 -3.64108,-3.22182 -3.83749,-4.59096 -0.62016,-4.32291 1.93267,-4.16683 8.64994,0.52888 7.75449,5.42078 25.46216,13.09858 37.00093,16.04311 0.72236,0.18433 1.0333,0.78833 0.69099,1.34222 -0.34232,0.55388 -0.19399,1.00706 0.32962,1.00706 0.52362,0 1.21105,0.675 1.52764,1.5 0.31658,0.825 0.47722,1.48025 0.35699,1.45611 -0.12024,-0.0241 -2.00969,-0.68172 -4.19878,-1.46129 z"
       style="fill:#36382f" />
  </g>
</svg>
