<?xml version="1.0" encoding="UTF-8" standalone="no"?>
<svg
   xmlns:dc="http://purl.org/dc/elements/1.1/"
   xmlns:cc="http://creativecommons.org/ns#"
   xmlns:rdf="http://www.w3.org/1999/02/22-rdf-syntax-ns#"
   xmlns:svg="http://www.w3.org/2000/svg"
   xmlns="http://www.w3.org/2000/svg"
   viewBox="0 0 800 600"
   height="600"
   width="800"
   version="1.1"
   id="svg5862">
  <metadata
     id="metadata5868">
    <rdf:RDF>
      <cc:Work
         rdf:about="">
        <dc:format>image/svg+xml</dc:format>
        <dc:type
           rdf:resource="http://purl.org/dc/dcmitype/StillImage" />
        <dc:title></dc:title>
      </cc:Work>
    </rdf:RDF>
  </metadata>
  <defs
     id="defs5866" />
  <g
     id="g9540">
    <path
       id="path9570"
       d="m 323,496.0338 c -1.375,-0.48207 -4.64698,-1.16588 -7.27107,-1.51958 -5.99974,-0.8087 -8.72893,-3.51871 -8.72893,-8.6676 0,-2.88676 0.52998,-4.06458 2.25,-5.00031 1.69193,-0.92045 14.37525,-1.20923 51.13557,-1.16426 26.88706,0.0329 49.61206,-0.12995 50.5,-0.36187 1.31605,-0.34374 1.5686,-1.65983 1.36646,-7.12093 C 412.11564,468.51466 411.4192,462.575 410.70438,459 l -1.29968,-6.5 -6.45235,-0.61365 c -8.47827,-0.80633 -21.07445,-5.19673 -27.89134,-9.72152 -3.00428,-1.99413 -7.67154,-4.64923 -10.37169,-5.90023 -2.70014,-1.25099 -6.77235,-4.02566 -9.04934,-6.16594 C 344.87655,419.98151 341.353,416.23488 339.55942,413 c -3.85566,-6.95402 -9.79656,-21.64595 -11.48633,-28.40585 -1.31159,-5.247 -2.42849,-7.46775 -4.64967,-9.24504 -1.60788,-1.28655 -3.53715,-2.34141 -4.28727,-2.34414 -4.56389,-0.0166 -13.60076,-8.56902 -21.76209,-20.59541 -4.78062,-7.04465 -7.58065,-19.50502 -6.38404,-28.40956 2.23271,-16.61457 6.19771,-25.55585 15.79085,-35.60913 6.10984,-6.40289 7.53525,-7.34312 15.71913,-10.36857 9.42335,-3.48368 16.68392,-5.06104 24.89255,-5.40793 l 4.89255,-0.20676 8.34469,-16.4538 c 4.58957,-9.0496 8.35043,-16.99651 8.35745,-17.6598 0.007,-0.6633 1.41735,-3.58819 3.13408,-6.49976 3.27917,-5.5615 4.58983,-9.56408 7.94354,-24.25853 1.12526,-4.93035 2.44206,-9.4416 2.92624,-10.025 0.48418,-0.58339 1.19413,-3.52447 1.57767,-6.53572 0.38354,-3.01125 1.01865,-5.925 1.41135,-6.475 0.3927,-0.55 1.92231,-5.05 3.39913,-10 4.68932,-15.71768 5.82092,-18.90618 8.16272,-23 3.52419,-6.16082 9.27986,-12.36846 13.43195,-14.48669 2.06746,-1.05474 5.154,-3.09151 6.85897,-4.52615 2.64137,-2.22257 4.47328,-2.72216 12.38353,-3.37722 5.10597,-0.42283 10.44457,-0.4489 11.86356,-0.0579 1.419,0.39097 5.919,1.01083 10,1.37747 12.97419,1.1656 26.27524,7.74408 32.49301,16.07052 2.05357,2.75 4.81623,6.17728 6.13926,7.61617 2.30145,2.50301 7.2405,15.02775 11.39014,28.88383 2.20262,7.3548 4.14941,20.45481 5.87006,39.5 0.64597,7.15 1.54287,13.9 1.99311,15 0.45024,1.1 1.30084,4.87152 1.89023,8.38115 0.58939,3.50963 1.79831,7.18414 2.6865,8.16558 0.88818,0.98143 2.46182,4.50566 3.49698,7.83162 2.04742,6.57836 5.38022,13.64484 6.8695,14.56527 0.51555,0.31862 1.24206,2.03665 1.61447,3.81785 0.37241,1.78119 2.43203,6.71904 4.57693,10.973 2.14491,4.25397 3.89983,8.32811 3.89983,9.05366 0,0.72555 1.04342,3.54504 2.3187,6.26553 2.82489,6.02616 6.45331,17.56176 7.17563,22.81303 0.29253,2.12668 0.85494,4.37668 1.2498,5 1.39237,2.198 2.62264,16.27993 2.5056,28.67972 -0.0956,10.12498 -0.51709,13.55785 -2.18408,17.78702 -1.13611,2.88234 -2.07052,6.68645 -2.07647,8.45359 -0.0248,7.34944 -8.99829,27.17848 -13.69094,30.25322 -1.26403,0.82823 -2.29824,2.08222 -2.29824,2.78665 0,1.5055 -5.03417,6.38064 -10,9.6841 -1.925,1.28059 -4.8078,3.61928 -6.40622,5.1971 -6.70868,6.62219 -26.5409,15.17115 -41.32304,17.81286 -8.23498,1.47167 -8.64078,2.08116 -7.2083,10.82615 0.50929,3.10909 0.92858,7.5654 0.93177,9.9029 0.006,4.1855 0.95163,5.0788 4.50579,4.25508 0.55,-0.12747 8.56989,-0.17557 17.82198,-0.10688 18.32037,0.13601 21.92685,0.99587 23.69623,5.6497 1.26255,3.32075 -0.36184,7.27495 -3.23284,7.86957 -7.83879,1.62353 -40.60725,2.04582 -101.28537,1.30527 -26.41002,-0.32232 -72.53409,0.67895 -77.5,1.68239 -1.375,0.27784 -3.625,0.11074 -5,-0.37133 z m 124.48076,-16.18122 c 0.73893,-0.73894 -0.69372,-20.5791 -1.59085,-22.03092 -0.53359,-0.8635 -4.03593,-1.52855 -10.1033,-1.91848 -5.10764,-0.32826 -9.44396,-0.47091 -9.63627,-0.31701 -0.19232,0.15391 0.20991,1.97536 0.89383,4.04768 0.68393,2.07232 1.29128,7.2941 1.34967,11.60395 0.0771,5.69269 0.50435,8.08206 1.56192,8.73533 1.43023,0.88347 16.6255,0.77894 17.525,-0.12055 z"
       style="fill:#eeeed8" />
    <path
       id="path9568"
       d="m 324.8487,494.51537 c -0.35057,-0.35058 -3.45744,-1.03602 -6.90416,-1.52321 -3.44671,-0.48719 -6.82096,-1.47223 -7.49832,-2.18898 -2.06743,-2.18764 -2.52846,-5.30845 -1.07737,-7.29293 1.31421,-1.79729 3.67812,-1.89494 50.89252,-2.10233 32.51795,-0.14283 50.19338,-0.58093 51.49264,-1.27627 1.72447,-0.92291 1.9394,-1.9297 1.67481,-7.84522 -0.48366,-10.81348 -1.95809,-19.37563 -3.50515,-20.35476 -0.78302,-0.49558 -3.26103,-0.90794 -5.50669,-0.91636 -5.84042,-0.0219 -21.68999,-5.37039 -27.21557,-9.18397 -2.58578,-1.78462 -7.03781,-4.38925 -9.89341,-5.78805 -7.57095,-3.70861 -21.95215,-16.64655 -26.04111,-23.4277 -1.22821,-2.03686 -3.62501,-6.94613 -5.32624,-10.90949 -1.70122,-3.96335 -3.68799,-8.5561 -4.41505,-10.2061 -0.72705,-1.65 -1.89791,-5.62575 -2.60191,-8.83499 -1.40955,-6.42559 -4.25659,-9.40371 -11.07687,-11.58684 -3.9869,-1.27619 -6.24597,-3.22154 -12.39413,-10.67294 -8.14412,-9.87045 -9.71409,-12.52827 -11.60519,-19.64651 -2.9129,-10.96434 -1.17826,-25.806 4.45331,-38.10288 2.6426,-5.77027 11.00968,-15.82706 15.95383,-19.17566 5.61327,-3.80177 18.66967,-7.79903 29.13721,-8.92044 L 353.28369,273.5 361.53886,257 c 14.46454,-28.91099 16.34465,-33.28 18.50416,-43 1.16084,-5.225 2.94323,-11.75 3.96085,-14.5 1.01762,-2.75 2.05651,-6.8 2.30863,-9 0.25213,-2.2 1.61298,-7.375 3.02411,-11.5 1.41114,-4.125 3.70509,-11.21674 5.09767,-15.75943 4.0532,-13.22176 8.35259,-18.91821 20.25667,-26.83891 8.30055,-5.523 8.9461,-5.76838 16.22675,-6.16805 4.17027,-0.22892 12.89586,0.29098 19.3902,1.15534 10.0364,1.33578 13.05678,2.1904 20.13218,5.6964 7.53565,3.73406 8.97354,4.94147 15.17761,12.74475 6.95588,8.74889 8.47673,12.00916 14.89468,31.92994 2.34269,7.27153 6.17229,33.59244 6.8005,46.73996 0.18396,3.85 0.80175,7.9 1.37288,9 0.57113,1.1 1.30086,4.33362 1.62162,7.18583 0.32076,2.85221 1.93188,7.80221 3.58027,11 1.64839,3.19779 3.31187,7.16417 3.69662,8.81417 0.85415,3.66305 4.03577,10.1615 6.55319,13.38486 1.0244,1.31167 1.86255,3.23416 1.86255,4.2722 0,1.03803 1.8,5.46736 4,9.84294 2.2,4.37558 4,8.4205 4,8.9887 0,0.5682 0.8715,2.94069 1.93667,5.2722 3.07835,6.73805 7.06333,19.14954 7.06333,21.99918 0,1.43535 0.52317,3.87652 1.16259,5.42482 3.40489,8.24458 3.92181,37.02062 0.84097,46.8151 -1.03801,3.3 -2.40201,8.925 -3.03113,12.5 -1.17782,6.69312 -7.53989,20.32006 -11.66385,24.98283 -1.22446,1.38444 -3.43022,4.00393 -4.90169,5.82108 -1.47147,1.81715 -5.31499,5.09642 -8.54115,7.28726 C 513.63958,433.28201 511,435.48708 511,435.99132 511,437.09705 492.95453,448 491.12443,448 c -0.70867,0 -4.51407,1.10234 -8.45646,2.44965 -3.94238,1.34731 -10.15676,2.96003 -13.80973,3.58381 -6.24951,1.06717 -6.67742,1.31244 -7.24554,4.15305 -0.33208,1.6604 -0.40431,3.34165 -0.16051,3.73613 0.2438,0.39447 0.695,4.67142 1.00268,9.50433 0.30767,4.83292 0.77403,9.13438 1.03635,9.55882 0.26231,0.42443 8.27342,0.60503 17.80247,0.40132 20.23848,-0.43266 25.60498,0.53997 27.14529,4.9198 2.30577,6.55645 -3.22971,7.34446 -49.43898,7.03794 -16.225,-0.10763 -30.85,-0.14611 -32.5,-0.0855 -1.65,0.0606 -6.375,0.0796 -10.5,0.0421 -57.39334,-0.52064 -81.59777,-0.19991 -87.50694,1.15954 -1.65382,0.38047 -3.29378,0.40493 -3.64436,0.0544 z m 123.59598,-13.62498 c 1.1185,-1.1217 -0.69698,-22.99984 -2.01819,-24.32105 -1.49255,-1.49255 -20.3518,-3.04403 -21.61745,-1.77838 -0.47325,0.47325 -0.17503,2.4822 0.66801,4.49987 0.86942,2.08083 1.52295,6.63461 1.52295,10.61195 0,3.83186 0.45531,8.16457 1.0118,9.62825 1.01068,2.6583 1.02213,2.66085 10.4184,2.3151 5.17364,-0.19037 9.68016,-0.62045 10.01448,-0.95574 z M 321.55103,331.53212 c 2.50811,-6.00276 1.92921,-8.92731 -2.35478,-11.89612 -5.95262,-4.12517 -12.19187,-2.95593 -14.14647,2.65106 -1.60878,4.61493 -1.29603,6.23782 1.85143,9.60718 2.51911,2.69672 3.57947,3.10576 8.05103,3.10576 4.9312,0 5.21132,-0.14721 6.59879,-3.46788 z m -11.89626,-0.15399 c -2.25472,-1.22181 -2.70229,-1.99179 -2.15651,-3.70996 0.37879,-1.1925 0.92272,-3.40567 1.20873,-4.91817 0.29591,-1.56486 1.22528,-2.81828 2.15651,-2.90844 5.77986,-0.5596 9.1365,1.91733 9.1365,6.742 0,5.91318 -4.46349,7.98181 -10.34523,4.79457 z M 356.54574,326 C 358.50771,326 363,319.02596 363,315.98009 c 0,-3.72176 -4.80027,-8.77854 -9.02687,-9.50923 -4.52802,-0.7828 -8.63529,2.2114 -9.52278,6.9421 -1.14575,6.10737 4.89752,14.4974 9.38144,13.02451 C 354.56427,326.19686 355.78555,326 356.54574,326 Z m -5.39443,-3.57842 c -3.03741,-1.27714 -3.12006,-1.4776 -2.72895,-6.6193 0.22182,-2.91626 0.44254,-5.63978 0.49048,-6.05228 0.0479,-0.4125 1.59645,-0.75 3.44114,-0.75 6.55336,0 10.66379,6.67421 7.17661,11.65286 -1.96535,2.80593 -4.59323,3.36063 -8.37928,1.76872 z"
       style="fill:#d6d6ab" />
    <path
       id="path9566"
       d="m 412.54168,493.28122 c -1.07707,-0.27946 -2.89554,-1.1222 -4.04103,-1.87275 -1.65623,-1.08521 -3.40532,-1.15141 -8.54168,-0.32332 -3.55243,0.57273 -7.97645,0.75717 -9.83115,0.40985 -1.8547,-0.34731 -12.2047,-0.51958 -23,-0.38283 -10.7953,0.13675 -21.87782,0.17883 -24.62782,0.0935 -2.75,-0.0853 -7.44661,0.28377 -10.4369,0.8202 -3.7251,0.66824 -7.34587,0.62455 -11.5,-0.13877 C 311.58373,490.23717 310,489.43269 310,486.52144 c 0,-1.38679 0.3375,-2.56432 0.75,-2.61672 0.98342,-0.12494 32.30324,-1.04324 34.25,-1.00422 13.98825,0.28039 61.48991,-0.12267 62.76819,-0.5326 7.31479,-2.34576 6.95789,-1.79889 6.64175,-10.17712 -0.15961,-4.22993 -0.76714,-9.26281 -1.35007,-11.18418 C 412.47694,459.08523 412,456.28857 412,454.79179 412,451.40901 409.57509,450 403.75333,450 c -6.09281,0 -20.92839,-5.2248 -26.55827,-9.3533 -2.58228,-1.89364 -6.84904,-4.58694 -9.48168,-5.98512 -7.90431,-4.19792 -21.547,-16.59198 -25.56618,-23.22625 -3.61551,-5.96796 -11.14369,-25.13058 -11.82473,-30.09927 -0.52176,-3.80671 -1.21669,-4.85522 -4.89545,-7.38627 C 323.06897,372.3274 320.63588,371 320.02016,371 c -5.06139,0 -21.58318,-18.36937 -24.54832,-27.29348 -3.75723,-11.30805 -2.21919,-27.84148 3.81639,-41.02492 2.63593,-5.75764 10.22432,-14.92272 15.17085,-18.323 7.01847,-4.82456 22.80246,-9.18467 34.98471,-9.66406 l 4.94379,-0.19454 8.55621,-17.03876 c 4.70591,-9.37131 9.53969,-19.27131 10.74172,-22 1.20203,-2.72868 2.83611,-6.08624 3.6313,-7.46124 1.4724,-2.54602 2.82621,-7.38554 5.31507,-19 0.76608,-3.575 2.28731,-8.60842 3.3805,-11.18538 1.09319,-2.57696 1.98762,-5.85366 1.98762,-7.28155 0,-1.42789 0.94497,-5.39447 2.09992,-8.81462 1.15496,-3.42015 3.18742,-9.96351 4.51659,-14.5408 4.51356,-15.54349 8.43232,-21.14558 20.53936,-29.36216 10.25951,-6.96273 13.59217,-7.56576 32.07677,-5.80414 12.29235,1.17148 13.92876,1.58001 22.26736,5.5591 8.38401,4.00075 9.44488,4.86122 15.5,12.57194 6.79078,8.64754 10.54071,16.98088 15.46062,34.35761 2.0622,7.28351 4.53508,25.0867 6.18109,44.5 0.34975,4.125 1.24845,8.71515 1.9971,10.20034 0.74866,1.48519 1.36119,4.44642 1.36119,6.58052 0,2.1341 1.06711,5.988 2.37136,8.56423 1.30425,2.57622 3.58148,8.00197 5.06051,12.05721 1.47903,4.05525 3.78692,8.86112 5.12864,10.67972 1.34172,1.8186 2.43949,4.08085 2.43949,5.02724 0,0.94638 1.8,5.11807 4,9.27043 2.2,4.15236 4,8.23065 4,9.06287 0,0.83222 1.07886,3.8856 2.39746,6.78529 4.4727,9.8357 8.21447,24.39078 10.63789,41.38029 1.38004,9.67481 0.49724,26.46127 -1.60545,30.52741 -0.80489,1.55649 -1.70802,4.97524 -2.00696,7.59722 -1.17227,10.28204 -7.89642,25.82431 -13.8186,31.94051 -1.15739,1.1953 -3.17877,3.59125 -4.49195,5.32432 -1.31319,1.73308 -4.15516,4.26686 -6.31549,5.63061 -2.16033,1.36376 -5.3609,3.8508 -7.11239,5.52677 -8.10368,7.75428 -29.12014,16.50612 -44.14552,18.38342 l -5.81651,0.72672 0.69548,12.61744 c 0.42538,7.71731 1.21417,13.41376 2.03107,14.6679 1.27899,1.96357 2.1135,2.03764 19.69328,1.7479 19.62844,-0.3235 23.07741,0.31051 23.66056,4.34939 0.18564,1.28572 -0.39499,2.37912 -1.5,2.82473 -3.7565,1.51487 -59.42278,2.51637 -70.47043,1.26785 -3.66716,-0.41443 -7.71716,-0.36188 -9,0.11678 -3.24376,1.21034 -10.9374,2.03471 -13.29076,1.42411 z M 444,483.02637 l 5.5,-1.90833 -0.37603,-10.80902 c -0.20682,-5.94496 -0.74898,-11.79731 -1.2048,-13.00523 -0.93416,-2.47551 -3.14765,-3.00015 -15.25605,-3.61598 -8.88683,-0.45199 -9.81114,0.2485 -7.77133,5.88949 0.66135,1.82894 1.31075,7.14377 1.4431,11.81076 0.2864,10.09919 1.65989,12.30508 8.02283,12.885 2.27825,0.20764 4.14228,0.44145 4.14228,0.51959 0,0.0781 2.475,-0.71669 5.5,-1.76628 z M 320.39296,334.11828 c 2.09963,-2.32007 3.91583,-8.58792 3.1592,-10.90262 -0.88828,-2.71743 -7.66888,-6.59302 -11.36605,-6.4965 -4.01803,0.10489 -6.73571,2.38607 -8.22741,6.90599 -0.95556,2.89536 -0.81933,3.86429 0.94456,6.71832 1.13364,1.83426 3.08166,3.82691 4.32895,4.4281 3.6959,1.78141 9.25168,1.45621 11.16075,-0.65329 z m -10.67553,-3.1909 c -1.41361,-0.84315 -1.64824,-1.82535 -1.13358,-4.7453 0.86119,-4.88604 2.58859,-6.6066 5.81886,-5.79585 3.66287,0.91932 5.7307,4.463 4.75304,8.14539 -0.66011,2.48633 -1.34572,3.00821 -4.22192,3.21368 -1.88861,0.13491 -4.23599,-0.23315 -5.2164,-0.81792 z m 48.97672,-5.42571 c 1.17653,-0.82407 2.90347,-3.49964 3.83762,-5.94569 1.65642,-4.33727 1.64389,-4.53568 -0.50603,-8.01433 C 359.35461,307.21967 357.26254,306 352.52029,306 c -9.33368,0 -11.74537,13.05269 -3.64913,19.75 2.06053,1.70449 7.22121,1.57403 9.82299,-0.24833 z m -8.46924,-4.27676 c -1.33075,-1.33075 -1.68175,-2.94875 -1.4022,-6.46366 0.43656,-5.48903 2.42078,-6.72093 7.00613,-4.34976 4.62583,2.39211 5.60283,7.15684 2.17116,10.58851 -2.47391,2.47391 -5.44028,2.55972 -7.77509,0.22491 z"
       style="fill:#f9da5b" />
    <path
       id="path9564"
       d="m 412.54168,493.28122 c -1.07707,-0.27946 -2.89554,-1.1222 -4.04103,-1.87275 -1.65623,-1.08521 -3.40532,-1.15141 -8.54168,-0.32332 -3.55243,0.57273 -7.97645,0.75717 -9.83115,0.40985 -1.8547,-0.34731 -12.2047,-0.51958 -23,-0.38283 -10.7953,0.13675 -21.87782,0.17883 -24.62782,0.0935 -2.75,-0.0853 -7.44661,0.28377 -10.4369,0.8202 -3.7251,0.66824 -7.34587,0.62455 -11.5,-0.13877 C 311.58373,490.23717 310,489.43269 310,486.52144 c 0,-1.38679 0.3375,-2.56432 0.75,-2.61672 0.98342,-0.12494 32.30324,-1.04324 34.25,-1.00422 13.98825,0.28039 61.48991,-0.12267 62.76819,-0.5326 7.31479,-2.34576 6.95789,-1.79889 6.64175,-10.17712 -0.15961,-4.22993 -0.76714,-9.26281 -1.35007,-11.18418 C 412.47694,459.08523 412,456.28857 412,454.79179 412,451.40901 409.57509,450 403.75333,450 c -6.09281,0 -20.92839,-5.2248 -26.55827,-9.3533 -2.58228,-1.89364 -6.84904,-4.58694 -9.48168,-5.98512 -7.90431,-4.19792 -21.547,-16.59198 -25.56618,-23.22625 -3.86199,-6.3748 -11.24711,-25.48326 -11.8649,-30.69955 -0.65818,-5.55734 -3.11505,-7.96084 -11.99544,-11.73486 -3.25845,-1.38478 -6.231,-3.58136 -7.92774,-5.85821 -1.49302,-2.00349 -4.47471,-5.58866 -6.62596,-7.96704 -2.15126,-2.37838 -4.77296,-6.27207 -5.82599,-8.65263 C 295.65287,341.42684 292.93249,328 294.15426,328 c 0.46515,0 0.85155,-1.9125 0.85864,-4.25 0.0317,-10.45508 6.20007,-23.56081 15.65419,-33.26013 6.23859,-6.4004 7.61572,-7.28762 15.83291,-10.20044 6.25027,-2.2156 11.78732,-3.39913 18.12304,-3.87377 l 9.12305,-0.68345 8.6128,-17.11611 c 4.73705,-9.41385 9.71694,-19.5911 11.06642,-22.6161 1.34948,-3.025 3.10243,-6.625 3.89544,-8 1.46898,-2.54705 2.8248,-7.39737 5.31113,-19 0.76608,-3.575 2.28731,-8.60842 3.3805,-11.18538 1.09319,-2.57696 1.98762,-5.85366 1.98762,-7.28155 0,-1.42789 0.94497,-5.39447 2.09992,-8.81462 1.15496,-3.42015 3.18742,-9.96351 4.51659,-14.5408 4.51356,-15.54349 8.43232,-21.14558 20.53936,-29.36216 10.25951,-6.96273 13.59217,-7.56576 32.07677,-5.80414 12.29235,1.17148 13.92876,1.58001 22.26736,5.5591 8.38401,4.00075 9.44488,4.86122 15.5,12.57194 6.79078,8.64754 10.54071,16.98088 15.46062,34.35761 2.0622,7.28351 4.53508,25.0867 6.18109,44.5 0.34975,4.125 1.24845,8.71515 1.9971,10.20034 0.74866,1.48519 1.36119,4.44642 1.36119,6.58052 0,2.1341 1.06711,5.988 2.37136,8.56423 1.30425,2.57622 3.58148,8.00197 5.06051,12.05721 1.47903,4.05525 3.78692,8.86112 5.12864,10.67972 1.34172,1.8186 2.43949,4.08085 2.43949,5.02724 0,0.94638 1.8,5.11807 4,9.27043 2.2,4.15236 4,8.23065 4,9.06287 0,0.83222 1.07886,3.8856 2.39746,6.78529 4.4727,9.8357 8.21447,24.39078 10.63789,41.38029 1.38004,9.67481 0.49724,26.46127 -1.60545,30.52741 -0.80489,1.55649 -1.70802,4.97524 -2.00696,7.59722 -1.17227,10.28204 -7.89642,25.82431 -13.8186,31.94051 -1.15739,1.1953 -3.17877,3.59125 -4.49195,5.32432 -1.31319,1.73308 -4.15516,4.26686 -6.31549,5.63061 -2.16033,1.36376 -5.3609,3.8508 -7.11239,5.52677 -8.10368,7.75428 -29.12014,16.50612 -44.14552,18.38342 l -5.81651,0.72672 0.69548,12.61744 c 0.42538,7.71731 1.21417,13.41376 2.03107,14.6679 1.27899,1.96357 2.1135,2.03764 19.69328,1.7479 19.62844,-0.3235 23.07741,0.31051 23.66056,4.34939 0.18564,1.28572 -0.39499,2.37912 -1.5,2.82473 -3.7565,1.51487 -59.42278,2.51637 -70.47043,1.26785 -3.66716,-0.41443 -7.71716,-0.36188 -9,0.11678 -3.24376,1.21034 -10.9374,2.03471 -13.29076,1.42411 z M 444,483.02637 l 5.5,-1.90833 -0.37603,-10.80902 c -0.20682,-5.94496 -0.74898,-11.79731 -1.2048,-13.00523 -0.93416,-2.47551 -3.14765,-3.00015 -15.25605,-3.61598 -8.88683,-0.45199 -9.81114,0.2485 -7.77133,5.88949 0.66135,1.82894 1.31075,7.14377 1.4431,11.81076 0.2864,10.09919 1.65989,12.30508 8.02283,12.885 2.27825,0.20764 4.14228,0.44145 4.14228,0.51959 0,0.0781 2.475,-0.71669 5.5,-1.76628 z M 322.65231,334.40788 c 0.93413,-1.42566 1.89399,-4.95034 2.13301,-7.83263 0.43087,-5.19577 0.39781,-5.26755 -3.87237,-8.40788 C 311.94821,311.57463 302,315.89402 302,326.37914 c 0,2.57589 0.87393,4.40509 3.36808,7.04966 3.1478,3.33764 3.76759,3.5712 9.47694,3.5712 5.47054,0 6.28635,-0.27086 7.80729,-2.59212 z m -12.93488,-3.4805 c -1.41361,-0.84315 -1.64824,-1.82535 -1.13358,-4.7453 0.86119,-4.88604 2.58859,-6.6066 5.81886,-5.79585 3.66287,0.91932 5.7307,4.463 4.75304,8.14539 -0.66011,2.48633 -1.34572,3.00821 -4.22192,3.21368 -1.88861,0.13491 -4.23599,-0.23315 -5.2164,-0.81792 z m 48.66824,-3.05724 C 360.81866,326.7616 365,318.94093 365,315.49888 c 0,-4.85211 -5.15264,-10.24926 -10.55893,-11.05999 -9.98776,-1.49776 -16.00146,9.06422 -10.35905,18.19382 3.7495,6.06682 8.59185,7.8399 14.30365,5.23743 z m -8.16076,-6.64523 c -1.33075,-1.33075 -1.68175,-2.94875 -1.4022,-6.46366 0.43656,-5.48903 2.42078,-6.72093 7.00613,-4.34976 4.62583,2.39211 5.60283,7.15684 2.17116,10.58851 -2.47391,2.47391 -5.44028,2.55972 -7.77509,0.22491 z"
       style="fill:#fad72a" />
    <path
       id="path9562"
       d="m 412.54168,493.28122 c -1.07707,-0.27946 -2.89554,-1.1222 -4.04103,-1.87275 -1.65623,-1.08521 -3.40532,-1.15141 -8.54168,-0.32332 -3.55243,0.57273 -7.97645,0.75717 -9.83115,0.40985 -1.8547,-0.34731 -12.2047,-0.51958 -23,-0.38283 -10.7953,0.13675 -21.87782,0.17883 -24.62782,0.0935 -2.75,-0.0853 -7.44661,0.28377 -10.4369,0.8202 -3.7251,0.66824 -7.34587,0.62455 -11.5,-0.13877 C 311.58373,490.23717 310,489.43269 310,486.52144 c 0,-1.38679 0.3375,-2.56432 0.75,-2.61672 0.98342,-0.12494 32.30324,-1.04324 34.25,-1.00422 13.98825,0.28039 61.48991,-0.12267 62.76819,-0.5326 7.31479,-2.34576 6.95789,-1.79889 6.64175,-10.17712 -0.15961,-4.22993 -0.76714,-9.26281 -1.35007,-11.18418 C 412.47694,459.08523 412,456.28857 412,454.79179 412,451.40901 409.57509,450 403.75333,450 c -6.09281,0 -20.92839,-5.2248 -26.55827,-9.3533 -2.58228,-1.89364 -6.84904,-4.58694 -9.48168,-5.98512 -7.90431,-4.19792 -21.547,-16.59198 -25.56618,-23.22625 -4.72609,-7.80115 -11.40481,-25.73846 -11.70451,-31.43533 -0.27809,-5.28581 -0.45785,-5.60636 -4.61602,-8.23112 -2.37967,-1.50211 -4.70866,-2.73961 -5.17554,-2.75 -4.26555,-0.0949 -10.67066,-6.28093 -19.88063,-19.20065 -3.24388,-4.55051 -7.00773,-18.49418 -5.66925,-21.00249 0.49431,-0.92634 0.91749,-2.72634 0.94039,-4 0.0239,-1.32822 0.93688,0.24288 2.14101,3.68426 2.74276,7.83878 4.86836,10.73585 11.43765,15.58887 8.1233,6.00103 15.62218,8.08487 24.87328,6.91194 7.9081,-1.00265 18.91666,-5.38815 21.58722,-8.59975 5.91213,-7.10988 9.15092,-16.79928 9.32623,-27.90106 0.12812,-8.11329 -5.69781,-18.85174 -13.52552,-24.93051 -7.4009,-5.74731 -9.93786,-6.56652 -20.37491,-6.57926 l -8.0066,-0.01 5.00073,-2.32874 c 4.32987,-2.01633 13.46461,-3.75731 19.99927,-3.81165 3.1258,-0.026 6.79024,-0.88316 6.21875,-1.45466 -0.28449,-0.28448 3.37491,-8.2663 8.132,-17.73738 4.75709,-9.47107 9.63273,-19.4539 10.83476,-22.18408 1.20203,-2.73017 2.83611,-6.08895 3.6313,-7.46395 1.4724,-2.54602 2.82621,-7.38554 5.31507,-19 0.76608,-3.575 2.28731,-8.60842 3.3805,-11.18538 1.09319,-2.57696 1.98762,-5.85366 1.98762,-7.28155 0,-1.42789 0.94497,-5.39447 2.09992,-8.81462 1.15496,-3.42015 3.18742,-9.96351 4.51659,-14.5408 4.51356,-15.54349 8.43232,-21.14558 20.53936,-29.36216 10.25951,-6.96273 13.59217,-7.56576 32.07677,-5.80414 12.29235,1.17148 13.92876,1.58001 22.26736,5.5591 8.38401,4.00075 9.44488,4.86122 15.5,12.57194 6.79078,8.64754 10.54071,16.98088 15.46062,34.35761 2.0622,7.28351 4.53508,25.0867 6.18109,44.5 0.34975,4.125 1.24845,8.71515 1.9971,10.20034 0.74866,1.48519 1.36119,4.44642 1.36119,6.58052 0,2.1341 1.06711,5.988 2.37136,8.56423 1.30425,2.57622 3.58148,8.00197 5.06051,12.05721 1.47903,4.05525 3.78692,8.86112 5.12864,10.67972 1.34172,1.8186 2.43949,4.08085 2.43949,5.02724 0,0.94638 1.8,5.11807 4,9.27043 2.2,4.15236 4,8.23065 4,9.06287 0,0.83222 1.07886,3.8856 2.39746,6.78529 4.4727,9.8357 8.21447,24.39078 10.63789,41.38029 1.38004,9.67481 0.49724,26.46127 -1.60545,30.52741 -0.80489,1.55649 -1.70802,4.97524 -2.00696,7.59722 -1.17227,10.28204 -7.89642,25.82431 -13.8186,31.94051 -1.15739,1.1953 -3.17877,3.59125 -4.49195,5.32432 -1.31319,1.73308 -4.15516,4.26686 -6.31549,5.63061 -2.16033,1.36376 -5.3609,3.8508 -7.11239,5.52677 -8.10368,7.75428 -29.12014,16.50612 -44.14552,18.38342 l -5.81651,0.72672 0.69548,12.61744 c 0.42538,7.71731 1.21417,13.41376 2.03107,14.6679 1.27899,1.96357 2.1135,2.03764 19.69328,1.7479 19.62844,-0.3235 23.07741,0.31051 23.66056,4.34939 0.18564,1.28572 -0.39499,2.37912 -1.5,2.82473 -3.7565,1.51487 -59.42278,2.51637 -70.47043,1.26785 -3.66716,-0.41443 -7.71716,-0.36188 -9,0.11678 -3.24376,1.21034 -10.9374,2.03471 -13.29076,1.42411 z M 444,483.02637 l 5.5,-1.90833 -0.37603,-10.80902 c -0.20682,-5.94496 -0.74898,-11.79731 -1.2048,-13.00523 -0.93416,-2.47551 -3.14765,-3.00015 -15.25605,-3.61598 -8.88683,-0.45199 -9.81114,0.2485 -7.77133,5.88949 0.66135,1.82894 1.31075,7.14377 1.4431,11.81076 0.2864,10.09919 1.65989,12.30508 8.02283,12.885 2.27825,0.20764 4.14228,0.44145 4.14228,0.51959 0,0.0781 2.475,-0.71669 5.5,-1.76628 z M 327.63837,341.5 c -1.56039,-4.06632 1.81434,-6.33738 10.64214,-7.16173 5.06102,-0.47261 6.52918,-0.27251 7.61692,1.03814 2.12606,2.56175 -0.10187,4.22693 -8.05996,6.02409 -8.71985,1.96919 -9.47879,1.9766 -10.1991,0.0995 z m -17.92094,-10.57262 c -1.41361,-0.84315 -1.64824,-1.82535 -1.13358,-4.7453 0.86119,-4.88604 2.58859,-6.6066 5.81886,-5.79585 3.66287,0.91932 5.7307,4.463 4.75304,8.14539 -0.66011,2.48633 -1.34572,3.00821 -4.22192,3.21368 -1.88861,0.13491 -4.23599,-0.23315 -5.2164,-0.81792 z m 40.50748,-9.70247 c -1.33075,-1.33075 -1.68175,-2.94875 -1.4022,-6.46366 0.43656,-5.48903 2.42078,-6.72093 7.00613,-4.34976 4.62583,2.39211 5.60283,7.15684 2.17116,10.58851 -2.47391,2.47391 -5.44028,2.55972 -7.77509,0.22491 z"
       style="fill:#b2b193" />
    <path
       id="path9560"
       d="m 412,492.30602 c -2.25746,-0.8068 -4,-3.41051 -4,-5.97683 0,-1.64417 1.07276,-2.83582 3.81,-4.23226 l 3.81001,-1.94372 -0.26857,-7.06581 c -0.22738,-5.98194 -1.67487,-16.20536 -2.95242,-20.85241 C 411.9214,450.49766 407.62676,449 403.12249,449 c -5.48056,0 -20.96895,-5.54188 -25.36764,-9.07677 -2.08923,-1.67895 -6.15126,-4.09436 -9.02673,-5.36758 -6.09053,-2.6968 -22.50308,-16.81419 -25.54846,-21.97572 -1.15126,-1.95124 -3.48315,-6.81746 -5.18198,-10.81382 -1.69883,-3.99636 -3.68498,-8.39111 -4.41365,-9.76611 -1.90719,-3.59883 -3.88965,-12.72331 -3.27502,-15.07365 0.39953,-1.52781 -0.42104,-2.60326 -3.4408,-4.50954 -2.18099,-1.37681 -5.18107,-2.94311 -6.66683,-3.48068 -6.43788,-2.32932 -9.87056,-5.70671 -19.43088,-19.1179 -3.24388,-4.55051 -7.00773,-18.49418 -5.66925,-21.00249 0.49431,-0.92634 0.91749,-2.72634 0.94039,-4 0.0239,-1.32822 0.93688,0.24288 2.14101,3.68426 2.74276,7.83878 4.86836,10.73585 11.43765,15.58887 8.1233,6.00103 15.62218,8.08487 24.87328,6.91194 7.9081,-1.00265 18.91666,-5.38815 21.58722,-8.59975 5.91213,-7.10988 9.15092,-16.79928 9.32623,-27.90106 0.12812,-8.11329 -5.69781,-18.85174 -13.52552,-24.93051 -7.4009,-5.74731 -9.93786,-6.56652 -20.37491,-6.57926 l -8.0066,-0.01 5.00073,-2.32874 c 4.32987,-2.01633 13.46461,-3.75731 19.99927,-3.81165 3.36067,-0.028 6.50103,-0.83475 6.25752,-1.60765 C 354.6306,274.82959 356.82497,270.225 359.6339,265 366.00149,253.15538 372,240.63975 372,239.19864 c 0,-0.60032 1.65305,-3.91199 3.67344,-7.35926 2.0204,-3.44728 4.00215,-7.85889 4.40389,-9.80358 2.52269,-12.21133 4.83448,-20.96458 6.2701,-23.74076 0.90891,-1.75764 1.65257,-4.58483 1.65257,-6.28262 0,-1.6978 1.33068,-7.23265 2.95708,-12.29966 1.62639,-5.06702 3.93337,-12.36276 5.12661,-16.21276 3.81231,-12.30037 8.1584,-17.89158 20.50285,-26.37676 5.31567,-3.65383 7.08879,-4.2972 14,-5.07988 5.8804,-0.66594 9.84029,-0.52976 15.41346,0.53006 4.125,0.78443 8.93757,1.42631 10.6946,1.42641 3.44625,1.8e-4 17.53493,6.00117 20.64306,8.79278 1.04554,0.93906 4.59613,5.02569 7.8902,9.0814 5.33391,6.56717 6.52431,8.92481 10.87955,21.54747 2.70599,7.84267 5.35992,17.72559 5.94166,22.126 1.75887,13.30456 2.88467,23.53124 3.57254,32.45252 0.36047,4.675 1.26807,9.71515 2.01689,11.20034 0.74883,1.48519 1.3615,4.41175 1.3615,6.50348 0,2.30554 1.37823,6.64415 3.5,11.01788 1.925,3.9681 3.5,7.62304 3.5,8.12209 0,1.5635 4.84454,11.9421 5.87027,12.57603 0.53725,0.33204 1.7534,2.96091 2.70257,5.84194 0.94916,2.88103 3.00857,7.52463 4.57646,10.3191 1.56788,2.79447 2.8507,5.822 2.8507,6.72784 0,0.90585 1.07003,4.01946 2.37784,6.91915 3.2059,7.10814 4.60443,11.15721 6.31114,18.27215 0.7916,3.3 1.83476,7.575 2.31814,9.5 3.38439,13.47794 3.79579,37.61288 0.7418,43.51863 -0.85544,1.65425 -1.84565,5.25179 -2.20047,7.99454 -0.35482,2.74276 -1.14763,7.01183 -1.7618,9.48683 -1.24839,5.0308 -8.54234,18.57141 -12.02253,22.31881 -1.24526,1.34088 -3.0836,3.63223 -4.08518,5.09189 -1.00158,1.45966 -3.70158,3.83354 -6,5.27529 -2.29842,1.44175 -6.2461,4.46471 -8.77264,6.71769 -8.3217,7.42068 -24.88448,14.2939 -40.90547,16.97496 -5.28765,0.88487 -7.58722,1.71216 -7.79774,2.80531 -0.28216,1.46516 1.23464,20.76114 2.44098,31.05291 0.51199,4.36799 0.36044,4.81093 -1.9461,5.68787 -1.37573,0.52305 -5.73204,0.83402 -9.68069,0.69103 -7.75069,-0.28066 -9.231,-1.22788 -8.77633,-5.61576 0.19434,-1.8755 1.13335,-2.78401 3.75905,-3.63695 l 3.5,-1.13695 -0.01,-12.58739 c -0.0128,-16.07188 0.12784,-15.89972 -13.57561,-16.61409 -5.53491,-0.28854 -10.70492,-0.16476 -11.4889,0.27507 -1.71397,0.96156 -1.84421,4.04932 -0.29304,6.94769 0.62281,1.16375 1.21099,5.97167 1.30705,10.68426 0.12296,6.03224 0.70457,9.57135 1.96496,11.95697 2.65874,5.03234 1.11177,7.6205 -5.38803,9.01446 -5.46024,1.17101 -7.62377,1.25805 -10.01638,0.40295 z M 327.63837,341.5 c -1.56039,-4.06632 1.81434,-6.33738 10.64214,-7.16173 5.06102,-0.47261 6.52918,-0.27251 7.61692,1.03814 2.12606,2.56175 -0.10187,4.22693 -8.05996,6.02409 -8.71985,1.96919 -9.47879,1.9766 -10.1991,0.0995 z m -17.40969,-11.3375 c -0.9154,-0.58099 -1.04438,-1.90651 -0.46071,-4.73469 0.671,-3.25133 1.26669,-3.98127 3.45871,-4.23819 3.70305,-0.43403 6.55132,3.80745 4.93661,7.35134 -1.15172,2.52775 -5.20246,3.35557 -7.93461,1.62154 z m 40.82182,-9.11013 c -1.56643,-0.99097 -1.64024,-8.85274 -0.0977,-10.40171 1.05918,-1.06356 4.55201,-0.003 6.54124,1.98628 4.40776,4.40776 -1.20056,11.73234 -6.44358,8.41543 z"
       style="fill:#fab903" />
    <path
       id="path9558"
       d="m 412,492.30602 c -2.25746,-0.8068 -4,-3.41051 -4,-5.97683 0,-1.64417 1.07276,-2.83582 3.81,-4.23226 l 3.81001,-1.94372 -0.26857,-7.06581 c -0.22738,-5.98194 -1.67487,-16.20536 -2.95242,-20.85241 C 411.9214,450.49766 407.62676,449 403.12249,449 c -5.48056,0 -20.96895,-5.54188 -25.36764,-9.07677 -2.08923,-1.67895 -6.15126,-4.09436 -9.02673,-5.36758 -6.09053,-2.6968 -22.50308,-16.81419 -25.54846,-21.97572 -1.15126,-1.95124 -3.48315,-6.81746 -5.18198,-10.81382 -1.69883,-3.99636 -3.70248,-8.39146 -4.45256,-9.7669 -1.4944,-2.74033 -4.20198,-14.67776 -3.48948,-15.38474 0.2444,-0.2425 2.46936,-0.0496 4.94436,0.42876 2.475,0.47832 6.76796,0.88927 9.5399,0.91322 9.05867,0.0783 25.40813,-5.14332 29.39615,-9.38838 l 2.14683,-2.28519 -3.54144,-3.54144 c -6.45905,-6.45905 -4.14614,-9.30274 6.88763,-8.46826 6.68478,0.50557 7.56647,0.354 9.35086,-1.60749 4.36184,-4.79477 7.00095,-14.54934 7.34972,-27.16569 0.20659,-7.47295 -0.061,-8.64216 -4.06187,-17.74715 -5.0286,-11.44388 -9.13993,-17.16734 -15.89241,-22.12412 -4.11026,-3.01721 -13.05923,-7.38 -20.38416,-9.93767 -1.48577,-0.51879 -1.11219,-1.67524 2.86232,-8.86063 C 364.26961,256.67731 372,240.67111 372,239.19582 c 0,-0.59877 1.65305,-3.90917 3.67344,-7.35644 2.0204,-3.44728 4.00215,-7.85889 4.40389,-9.80358 2.52269,-12.21133 4.83448,-20.96458 6.2701,-23.74076 0.90891,-1.75764 1.65257,-4.58483 1.65257,-6.28262 0,-1.6978 1.33068,-7.23265 2.95708,-12.29966 1.62639,-5.06702 3.93337,-12.36276 5.12661,-16.21276 3.81231,-12.30037 8.1584,-17.89158 20.50285,-26.37676 5.31567,-3.65383 7.08879,-4.2972 14,-5.07988 5.8804,-0.66594 9.84029,-0.52976 15.41346,0.53006 4.125,0.78443 8.93757,1.42631 10.6946,1.42641 3.44625,1.8e-4 17.53493,6.00117 20.64306,8.79278 1.04554,0.93906 4.59613,5.02569 7.8902,9.0814 5.33391,6.56717 6.52431,8.92481 10.87955,21.54747 2.70599,7.84267 5.35992,17.72559 5.94166,22.126 1.75887,13.30456 2.88467,23.53124 3.57254,32.45252 0.36047,4.675 1.26807,9.71515 2.01689,11.20034 0.74883,1.48519 1.3615,4.41175 1.3615,6.50348 0,2.30554 1.37823,6.64415 3.5,11.01788 1.925,3.9681 3.5,7.62304 3.5,8.12209 0,1.5635 4.84454,11.9421 5.87027,12.57603 0.53725,0.33204 1.7534,2.96091 2.70257,5.84194 0.94916,2.88103 3.00857,7.52463 4.57646,10.3191 1.56788,2.79447 2.8507,5.822 2.8507,6.72784 0,0.90585 1.07003,4.01946 2.37784,6.91915 3.2059,7.10814 4.60443,11.15721 6.31114,18.27215 0.7916,3.3 1.83476,7.575 2.31814,9.5 3.38439,13.47794 3.79579,37.61288 0.7418,43.51863 -0.85544,1.65425 -1.84565,5.25179 -2.20047,7.99454 -0.35482,2.74276 -1.14763,7.01183 -1.7618,9.48683 -1.24839,5.0308 -8.54234,18.57141 -12.02253,22.31881 -1.24526,1.34088 -3.0836,3.63223 -4.08518,5.09189 -1.00158,1.45966 -3.70158,3.83354 -6,5.27529 -2.29842,1.44175 -6.2461,4.46471 -8.77264,6.71769 -8.3217,7.42068 -24.88448,14.2939 -40.90547,16.97496 -5.28765,0.88487 -7.58722,1.71216 -7.79774,2.80531 -0.28216,1.46516 1.23464,20.76114 2.44098,31.05291 0.51199,4.36799 0.36044,4.81093 -1.9461,5.68787 -1.37573,0.52305 -5.73204,0.83402 -9.68069,0.69103 -7.75069,-0.28066 -9.231,-1.22788 -8.77633,-5.61576 0.19434,-1.8755 1.13335,-2.78401 3.75905,-3.63695 l 3.5,-1.13695 -0.01,-12.58739 c -0.0128,-16.07188 0.12784,-15.89972 -13.57561,-16.61409 -5.53491,-0.28854 -10.70492,-0.16476 -11.4889,0.27507 -1.71397,0.96156 -1.84421,4.04932 -0.29304,6.94769 0.62281,1.16375 1.21099,5.97167 1.30705,10.68426 0.12296,6.03224 0.70457,9.57135 1.96496,11.95697 2.65874,5.03234 1.11177,7.6205 -5.38803,9.01446 -5.46024,1.17101 -7.62377,1.25805 -10.01638,0.40295 z M 327.63837,341.5 c -1.56039,-4.06632 1.81434,-6.33738 10.64214,-7.16173 5.06102,-0.47261 6.52918,-0.27251 7.61692,1.03814 2.12606,2.56175 -0.10187,4.22693 -8.05996,6.02409 -8.71985,1.96919 -9.47879,1.9766 -10.1991,0.0995 z m -17.40969,-11.3375 c -0.9154,-0.58099 -1.04438,-1.90651 -0.46071,-4.73469 0.671,-3.25133 1.26669,-3.98127 3.45871,-4.23819 3.70305,-0.43403 6.55132,3.80745 4.93661,7.35134 -1.15172,2.52775 -5.20246,3.35557 -7.93461,1.62154 z m 40.82182,-9.11013 c -1.56643,-0.99097 -1.64024,-8.85274 -0.0977,-10.40171 1.05918,-1.06356 4.55201,-0.003 6.54124,1.98628 4.40776,4.40776 -1.20056,11.73234 -6.44358,8.41543 z"
       style="fill:#98d14d" />
    <path
       id="path9556"
       d="m 412,492.30602 c -2.25746,-0.8068 -4,-3.41051 -4,-5.97683 0,-1.64417 1.07276,-2.83582 3.81,-4.23226 l 3.81001,-1.94372 -0.26857,-7.06581 c -0.22738,-5.98194 -1.67487,-16.20536 -2.95242,-20.85241 C 411.92386,450.50659 407.63384,449 403.18737,449 c -2.02533,0 -7.87785,-1.39771 -13.0056,-3.10602 -7.53169,-2.50918 -10.20056,-3.95874 -13.88924,-7.54372 -2.51133,-2.44074 -5.96702,-5.03107 -7.67929,-5.75629 -1.71228,-0.72522 -5.86612,-3.78717 -9.23075,-6.80433 -3.36464,-3.01716 -7.72328,-6.71053 -9.68587,-8.20747 -2.01158,-1.53431 -3.84113,-3.96365 -4.1936,-5.5684 -0.34388,-1.56568 -1.31942,-3.11308 -2.16788,-3.43866 -0.84846,-0.32558 -1.29771,-1.23027 -0.99834,-2.01043 0.29938,-0.78015 -0.10393,-1.95645 -0.89624,-2.61401 C 340.64825,403.29311 340,402.25231 340,401.63777 c 0,-0.61453 1.1031,0.0723 2.45134,1.52633 1.48919,1.60602 4.04046,2.91214 6.5,3.32768 3.89904,0.65874 5.71689,2.50822 2.46533,2.50822 -0.87084,0 -1.39549,0.5625 -1.1659,1.25 0.22959,0.6875 1.72961,1.26642 3.33337,1.28649 4.07778,0.051 5.22356,1.01863 4.66517,3.93964 -0.31824,1.6648 -0.0343,2.52387 0.83411,2.52387 1.03186,0 1.05425,0.26233 0.10356,1.21302 -0.95069,0.95069 -0.414,1.92386 2.48166,4.5 2.03206,1.80784 4.13999,3.28698 4.68427,3.28698 0.54429,0 1.76792,0.70436 2.71919,1.56525 1.44393,1.30674 2.42021,1.37927 5.91145,0.43918 5.44023,-1.4649 9.01645,0.52565 9.01645,5.01862 0,3.42335 1.4398,3.89222 3,0.97695 0.69228,-1.29354 2.09382,-2 3.9678,-2 2.01917,0 3.08984,-0.60623 3.5322,-2 0.34913,-1.1 1.27945,-2 2.06739,-2 1.79876,0 1.81701,0.75846 0.0605,2.51498 -1.84248,1.84247 -0.95203,5.83187 1.89965,8.51088 l 2.32457,2.18382 1.3145,-2.10484 c 1.65897,-2.65644 6.24041,-2.78955 8.03086,-0.23332 1.53286,2.18848 8.98612,3.28688 12.80254,1.88674 1.375,-0.50445 4.87815,-1.06431 7.78478,-1.24414 2.90662,-0.17982 5.83162,-0.75455 6.5,-1.27717 0.66837,-0.52261 4.36522,-2.14576 8.21522,-3.60698 3.85,-1.46123 8.8,-3.75105 11,-5.0885 2.2,-1.33745 5.40375,-3.08391 7.11945,-3.88102 1.7157,-0.79712 3.73805,-2.84681 4.49411,-4.55488 0.75607,-1.70806 1.6993,-3.10557 2.09607,-3.10557 1.50788,0 6.79037,-6.01282 6.79037,-7.72917 0,-0.98811 0.96125,-2.24078 2.13612,-2.7837 3.52748,-1.63009 11.41443,-18.1454 13.51279,-28.29585 C 495.81466,364.87757 496.3739,340 493.5524,340 c -0.63712,0 -2.93455,1.27973 -5.1054,2.84385 C 482.48171,347.14189 460.72987,358 458.08498,358 c -1.99026,0 -3.86476,4.54376 -4.538,11 -0.37279,3.575 -1.48843,7.88664 -2.4792,9.58143 -0.99077,1.69478 -2.34297,4.72237 -3.00488,6.72797 -1.81511,5.49984 -11.78348,14.7696 -20.76992,19.31432 l -7.66472,3.87628 -12.35957,-0.14421 c -11.8906,-0.13873 -12.60448,-0.26982 -18.81413,-3.45474 -3.55001,-1.8208 -6.45456,-3.5605 -6.45456,-3.86601 0,-0.30551 -1.0627,-1.70155 -2.36155,-3.1023 -3.34935,-3.61213 -4.3099,-5.69683 -5.98745,-12.9947 -2.42666,-10.55679 -2.39574,-13.5164 0.16977,-16.24725 l 2.26211,-2.40791 -3.54144,-3.54144 c -6.47543,-6.47543 -4.14989,-9.30302 6.96017,-8.46277 7.33814,0.55498 7.49208,0.51754 9.96722,-2.42399 5.10307,-6.06466 8.65385,-28.03657 5.85503,-36.23041 C 394.59574,313.49262 394,311.58927 394,311.3946 c 0,-0.19467 1.78207,-1.2631 3.96016,-2.37428 7.68229,-3.9192 29.27617,-1.74558 38.346,3.85988 6.1973,3.83014 12.14003,11.23094 15.49784,19.30028 1.7578,4.22427 3.196,8.58521 3.196,9.69099 0,1.10577 0.40915,2.26337 0.90923,2.57243 1.18309,0.73119 16.29866,-5.98293 22.09077,-9.8124 2.475,-1.63635 6.67593,-4.77194 9.33541,-6.96797 4.7202,-3.89766 4.82376,-4.10204 4.34639,-8.57816 -0.66845,-6.2677 -2.02664,-11.63029 -4.48957,-17.72629 -1.14238,-2.82751 -1.86148,-5.3565 -1.59799,-5.61999 0.47245,-0.47245 -2.30531,-8.24963 -5.13972,-14.39022 C 479.65453,279.61575 479,276.60481 479,274.65789 c 0,-1.94692 -0.424,-3.8019 -0.94222,-4.12218 -0.51822,-0.32028 -1.22966,-2.70934 -1.58096,-5.30902 -0.68436,-5.06433 -2.06839,-10.48963 -3.50177,-13.72669 -1.0282,-2.32202 -1.88467,-10.37567 -2.41466,-22.70573 -0.41433,-9.63928 -2.44687,-29.80157 -3.1129,-30.87923 -0.23401,-0.37864 0.24458,-1.24451 1.06352,-1.92418 1.77861,-1.47611 1.9561,-7.252 0.31671,-10.3066 -0.64475,-1.20134 -1.14201,-5.77499 -1.10501,-10.16365 0.0473,-5.60532 -0.49654,-9.40978 -1.82772,-12.78702 C 464.85275,160.08939 464,156.84418 464,155.522 c 0,-1.32218 -0.45682,-2.6863 -1.01515,-3.03136 -0.55833,-0.34507 -1.6739,-2.20402 -2.47905,-4.13099 -1.67396,-4.00637 -3.5058,-3.64094 -3.5058,0.69937 0,1.94754 0.50669,2.94098 1.5,2.94098 0.825,0 1.5,0.64844 1.5,1.44098 0,2.09173 -1.91275,2.94997 -2.59752,1.16549 -0.41599,-1.08407 -1.41822,-1.35332 -3.49293,-0.93838 C 450.52964,154.34407 449.9467,152.63407 453,151 c 1.1,-0.5887 2,-1.86453 2,-2.83518 0,-0.97065 0.50975,-2.27457 1.13278,-2.8976 0.62303,-0.62303 0.84271,-1.88871 0.48817,-2.81263 -0.52393,-1.36532 -0.92371,-1.44821 -2.13526,-0.44271 -0.9075,0.75316 -2.7193,0.9914 -4.63133,0.60899 -1.8978,-0.37956 -3.72299,-0.14486 -4.61214,0.59307 -1.19536,0.99206 -1.80837,0.80511 -3.26713,-0.99637 -2.1205,-2.61871 -3.27041,-2.77158 -5.01705,-0.66701 -0.83252,1.00312 -2.55279,1.44445 -4.87245,1.25 -2.84727,-0.23867 -3.65151,-0.76479 -3.90573,-2.55503 -0.19408,-1.36679 0.30983,-2.49621 1.2798,-2.86843 1.07149,-0.41116 1.38972,-1.2763 0.96347,-2.61928 -0.62381,-1.96547 -0.33643,-1.99256 14.45679,-1.36245 14.49082,0.61724 15.40186,0.78353 22.82501,4.16637 9.03922,4.11931 9.64799,4.61653 17.52293,14.31227 5.33391,6.56717 6.52431,8.92481 10.87955,21.54747 2.70599,7.84267 5.35992,17.72559 5.94166,22.126 1.75887,13.30456 2.88467,23.53124 3.57254,32.45252 0.36047,4.675 1.26807,9.71515 2.01689,11.20034 0.74883,1.48519 1.3615,4.41175 1.3615,6.50348 0,2.30554 1.37823,6.64415 3.5,11.01788 1.925,3.9681 3.5,7.62304 3.5,8.12209 0,1.5635 4.84454,11.9421 5.87027,12.57603 0.53725,0.33204 1.7534,2.96091 2.70257,5.84194 0.94916,2.88103 3.00857,7.52463 4.57646,10.3191 1.56788,2.79447 2.8507,5.822 2.8507,6.72784 0,0.90585 1.07003,4.01946 2.37784,6.91915 3.2059,7.10814 4.60443,11.15721 6.31114,18.27215 0.7916,3.3 1.83476,7.575 2.31814,9.5 3.38439,13.47794 3.79579,37.61288 0.7418,43.51863 -0.85544,1.65425 -1.84565,5.25179 -2.20047,7.99454 -0.35482,2.74276 -1.14763,7.01183 -1.7618,9.48683 -1.24839,5.0308 -8.54234,18.57141 -12.02253,22.31881 -1.24526,1.34088 -3.0836,3.63223 -4.08518,5.09189 -1.00158,1.45966 -3.70158,3.83354 -6,5.27529 -2.29842,1.44175 -6.2461,4.46471 -8.77264,6.71769 -8.3217,7.42068 -24.88448,14.2939 -40.90547,16.97496 -5.28765,0.88487 -7.58722,1.71216 -7.79774,2.80531 -0.28216,1.46516 1.23464,20.76114 2.44098,31.05291 0.51199,4.36799 0.36044,4.81093 -1.9461,5.68787 -1.37573,0.52305 -5.73204,0.83402 -9.68069,0.69103 -7.75069,-0.28066 -9.231,-1.22788 -8.77633,-5.61576 0.19434,-1.8755 1.13335,-2.78401 3.75905,-3.63695 l 3.5,-1.13695 -0.01,-12.58739 c -0.0128,-16.07188 0.12784,-15.89972 -13.57561,-16.61409 -5.53491,-0.28854 -10.70492,-0.16476 -11.4889,0.27507 -1.71397,0.96156 -1.84421,4.04932 -0.29304,6.94769 0.62281,1.16375 1.21099,5.97167 1.30705,10.68426 0.12296,6.03224 0.70457,9.57135 1.96496,11.95697 2.65874,5.03234 1.11177,7.6205 -5.38803,9.01446 -5.46024,1.17101 -7.62377,1.25805 -10.01638,0.40295 z M 328.66667,342.33333 c -1.39371,-1.3937 -0.57849,-4.34375 1.58333,-5.72968 2.78278,-1.78402 12.76774,-2.99246 14.59839,-1.76678 0.74162,0.49653 1.1914,1.71799 0.99952,2.71436 -0.45229,2.34854 -15.44253,6.52082 -17.18124,4.7821 z M 310.22868,330.1625 c -0.9154,-0.58099 -1.04438,-1.90651 -0.46071,-4.73469 0.671,-3.25133 1.26669,-3.98127 3.45871,-4.23819 3.70305,-0.43403 6.55132,3.80745 4.93661,7.35134 -1.15172,2.52775 -5.20246,3.35557 -7.93461,1.62154 z m 40.82182,-9.11013 c -1.56643,-0.99097 -1.64024,-8.85274 -0.0977,-10.40171 1.05918,-1.06356 4.55201,-0.003 6.54124,1.98628 4.40776,4.40776 -1.20056,11.73234 -6.44358,8.41543 z"
       style="fill:#87a25d" />
    <path
       id="path9554"
       d="m 410.2,490.8 c -0.66,-0.66 -1.2,-2.44844 -1.2,-3.97432 0,-2.12175 0.76445,-3.16601 3.25,-4.43953 3.63304,-1.86148 4.89826,-3.33724 4.0449,-4.71801 -0.31523,-0.51005 -0.70397,-3.90654 -0.86388,-7.54775 -0.47185,-10.74442 -1.90771,-18.26456 -3.74367,-19.60705 -0.9233,-0.67514 -4.31598,-1.50317 -7.53929,-1.84008 -8.58143,-0.89693 -19.73876,-5.25194 -27.14806,-10.59662 -3.575,-2.57881 -7.625,-5.16962 -9,-5.75734 -1.375,-0.58772 -5.25288,-3.53162 -8.61751,-6.542 -3.36464,-3.01038 -7.72328,-6.69819 -9.68587,-8.19513 -2.01158,-1.53431 -3.84113,-3.96365 -4.1936,-5.5684 -0.34388,-1.56568 -1.31942,-3.11308 -2.16788,-3.43866 -0.84846,-0.32558 -1.29771,-1.23027 -0.99834,-2.01043 0.29938,-0.78015 -0.10393,-1.95645 -0.89624,-2.61401 C 340.64825,403.29311 340,402.25231 340,401.63777 c 0,-0.61453 1.1031,0.0723 2.45134,1.52633 1.48919,1.60602 4.04046,2.91214 6.5,3.32768 3.89904,0.65874 5.71689,2.50822 2.46533,2.50822 -0.87084,0 -1.39549,0.5625 -1.1659,1.25 0.22959,0.6875 1.72961,1.26642 3.33337,1.28649 4.07778,0.051 5.22356,1.01863 4.66517,3.93964 -0.31824,1.6648 -0.0343,2.52387 0.83411,2.52387 1.03186,0 1.05425,0.26233 0.10356,1.21302 -0.95069,0.95069 -0.414,1.92386 2.48166,4.5 2.03206,1.80784 4.13999,3.28698 4.68427,3.28698 0.54429,0 1.76792,0.70436 2.71919,1.56525 1.44393,1.30674 2.42021,1.37927 5.91145,0.43918 5.44023,-1.4649 9.01645,0.52565 9.01645,5.01862 0,3.42335 1.4398,3.89222 3,0.97695 0.69228,-1.29354 2.09382,-2 3.9678,-2 2.01917,0 3.08984,-0.60623 3.5322,-2 0.34913,-1.1 1.27945,-2 2.06739,-2 1.79876,0 1.81701,0.75846 0.0605,2.51498 -1.84248,1.84247 -0.95203,5.83187 1.89965,8.51088 l 2.32457,2.18382 1.3145,-2.10484 c 1.65897,-2.65644 6.24041,-2.78955 8.03086,-0.23332 1.53286,2.18848 8.98612,3.28688 12.80254,1.88674 1.375,-0.50445 4.87815,-1.06431 7.78478,-1.24414 2.90662,-0.17982 5.83162,-0.75455 6.5,-1.27717 0.66837,-0.52261 4.36522,-2.14576 8.21522,-3.60698 3.85,-1.46123 8.8,-3.75105 11,-5.0885 2.2,-1.33745 5.40375,-3.08391 7.11945,-3.88102 1.71848,-0.79841 3.73916,-2.84931 4.49931,-4.56662 0.75892,-1.71452 2.16767,-3.36735 3.13055,-3.67296 C 472.21219,418.11527 473,417.47587 473,417 c 0,-0.47587 0.89086,-1.14797 1.97969,-1.49355 1.08882,-0.34558 1.93553,-0.93841 1.88158,-1.31739 -0.4558,-3.20131 0.4109,-5.04055 2.63873,-5.5997 1.375,-0.34511 2.5,-1.11192 2.5,-1.70404 0,-0.59212 1.01075,-2.49605 2.24611,-4.23095 1.23536,-1.7349 2.13536,-3.26687 2,-3.40437 -0.75697,-0.76893 -0.0216,-3.12155 1.50389,-4.81144 0.9625,-1.06621 1.89805,-2.83856 2.079,-3.93856 0.18095,-1.1 0.96845,-2.99667 1.75,-4.21482 0.78155,-1.21815 1.421,-3.49897 1.421,-5.0685 0,-1.56952 0.70809,-5.23809 1.57354,-8.15236 1.18699,-3.99704 1.49406,-8.6893 1.25,-19.10106 -0.17795,-7.5913 -0.68655,-14.16408 -1.13024,-14.60618 -0.81643,-0.8135 -1.6019,-0.40047 -10.1523,5.33854 -2.61859,1.7576 -10.10173,5.5826 -16.6292,8.5 -13.1733,5.88772 -13.30963,6.04185 -14.42139,16.30438 -0.35749,3.3 -1.45415,7.38664 -2.43701,9.08143 -0.98287,1.69478 -2.32859,4.72237 -2.9905,6.72797 -1.81511,5.49984 -11.78348,14.7696 -20.76992,19.31432 l -7.66472,3.87628 -12.35957,-0.14421 c -11.8906,-0.13873 -12.60448,-0.26982 -18.81413,-3.45474 -3.55001,-1.8208 -6.45456,-3.5605 -6.45456,-3.86601 0,-0.30551 -1.0627,-1.70155 -2.36155,-3.1023 -3.34935,-3.61213 -4.3099,-5.69683 -5.98745,-12.9947 -2.42666,-10.55679 -2.39574,-13.5164 0.16977,-16.24725 l 2.26211,-2.40791 -3.54144,-3.54144 c -6.47543,-6.47543 -4.14989,-9.30302 6.96017,-8.46277 7.33814,0.55498 7.49208,0.51754 9.96722,-2.42399 5.10307,-6.06466 8.65385,-28.03657 5.85503,-36.23041 C 394.59574,313.49262 394,311.58927 394,311.3946 c 0,-0.19467 1.78207,-1.2631 3.96016,-2.37428 7.68229,-3.9192 29.27617,-1.74558 38.346,3.85988 6.1973,3.83014 12.14003,11.23094 15.49784,19.30028 1.7578,4.22427 3.196,8.34996 3.196,9.16821 0,4.562 0.86877,4.59701 10.32304,0.41598 20.56727,-9.09561 30.41892,-18.79974 26.49325,-26.09653 -0.64155,-1.19248 -1.54286,-3.96814 -2.0029,-6.16814 -1.70394,-8.14853 -1.95683,-8.97061 -2.94794,-9.58316 -0.55687,-0.34416 -1.11166,-2.15374 -1.23287,-4.02129 -0.1212,-1.86755 -0.78393,-4.41735 -1.47272,-5.66622 -0.68879,-1.24886 -0.97998,-2.71136 -0.64709,-3.25 0.3329,-0.53863 0.23486,-0.97933 -0.21785,-0.97933 -1.47052,0 -4.47448,-8.32325 -4.04935,-11.21979 0.2281,-1.5542 -0.16074,-3.29484 -0.86697,-3.88096 -1.08883,-0.90365 -1.79612,-3.95821 -2.75528,-11.89925 -0.0996,-0.825 -0.53222,-2.0625 -0.96127,-2.75 -0.42904,-0.6875 -0.53348,-1.64901 -0.23208,-2.13669 0.30141,-0.48768 -0.0757,-1.40432 -0.838,-2.03698 -0.85374,-0.70854 -1.41104,-3.24639 -1.4512,-6.60845 -0.0359,-3.00198 -0.50212,-6.27455 -1.03614,-7.27237 -0.53401,-0.99782 -0.9544,-5.61251 -0.9342,-10.25486 0.0345,-7.93324 -1.83776,-28.59336 -2.72069,-30.02197 -0.22142,-0.35826 0.48681,-1.45627 1.57384,-2.44002 2.46743,-2.233 2.48461,-4.05899 0.0825,-8.7706 -1.45305,-2.85008 -1.70336,-4.55974 -1.07531,-7.34444 0.45301,-2.0086 0.41817,-4.68285 -0.078,-5.98793 -0.49315,-1.29708 -0.6631,-2.9669 -0.37767,-3.71071 0.28542,-0.74382 -0.4022,-3.68938 -1.52806,-6.54571 C 464.92116,160.26295 464,156.84418 464,155.522 c 0,-1.32218 -0.45682,-2.6863 -1.01515,-3.03136 -0.55833,-0.34507 -1.6739,-2.20402 -2.47905,-4.13099 -1.67396,-4.00637 -3.5058,-3.64094 -3.5058,0.69937 0,1.94754 0.50669,2.94098 1.5,2.94098 0.825,0 1.5,0.64844 1.5,1.44098 0,2.09173 -1.91275,2.94997 -2.59752,1.16549 -0.41599,-1.08407 -1.41822,-1.35332 -3.49293,-0.93838 C 450.52964,154.34407 449.9467,152.63407 453,151 c 1.1,-0.5887 2,-1.86453 2,-2.83518 0,-0.97065 0.50975,-2.27457 1.13278,-2.8976 0.62303,-0.62303 0.84271,-1.88871 0.48817,-2.81263 -0.52393,-1.36532 -0.92371,-1.44821 -2.13526,-0.44271 -0.9075,0.75316 -2.7193,0.9914 -4.63133,0.60899 -1.8978,-0.37956 -3.72299,-0.14486 -4.61214,0.59307 -1.19536,0.99206 -1.80837,0.80511 -3.26713,-0.99637 -2.1205,-2.61871 -3.27041,-2.77158 -5.01705,-0.66701 -0.83252,1.00312 -2.55279,1.44445 -4.87245,1.25 -2.84727,-0.23867 -3.65151,-0.76479 -3.90573,-2.55503 -0.19408,-1.36679 0.30983,-2.49621 1.2798,-2.86843 1.08054,-0.41463 1.39043,-1.27406 0.95458,-2.64731 -0.62893,-1.98157 -0.39414,-2.01551 9.2202,-1.33281 19.19159,1.36277 22.56462,2.01127 30.36556,5.83808 6.58333,3.22949 8.30097,4.69276 14.05331,11.97206 5.78241,7.31735 7.10995,9.87334 11.28529,21.72817 5.18605,14.72451 8.3375,32.06003 9.28313,51.06471 0.28735,5.775 1.13162,12.075 1.87615,14 0.74452,1.925 1.60383,5.64007 1.90955,8.25571 0.30573,2.61564 1.85691,7.34064 3.44706,10.5 1.59015,3.15936 3.89337,8.53031 5.11826,11.93544 1.2249,3.40513 3.30712,7.65506 4.62717,9.44428 1.32004,1.78922 2.40008,4.02001 2.40008,4.9573 0,0.9373 1.39853,4.33737 3.10784,7.55572 1.70932,3.21835 3.9196,8.10155 4.91175,10.85155 0.99214,2.75 3.2207,8.825 4.95234,13.5 1.73164,4.675 3.57132,10.75 4.08818,13.5 4.47932,23.83256 5.22097,42.6263 2.01184,50.98067 -1.06044,2.76063 -2.58444,8.61933 -3.38669,13.01933 -1.52995,8.39115 -6.98993,19.58059 -12.82588,26.2848 -1.57266,1.80663 -2.85938,3.66531 -2.85938,4.13038 0,0.46507 -3.15,2.97824 -7,5.58482 -3.85,2.60658 -7,5.09411 -7,5.52786 0,1.23136 -13.76549,9.73218 -18.36831,11.34328 -9.42231,3.29803 -17.54244,5.53559 -24.26486,6.68634 l -7.13316,1.22107 -0.61189,4.46422 c -0.33654,2.45532 -0.42418,4.76794 -0.19476,5.13915 0.49417,0.79957 1.79484,16.48597 1.95835,23.61808 l 0.11463,5 -7.8448,0.29377 c -8.76808,0.32835 -10.92815,-0.64432 -10.45576,-4.70817 0.22735,-1.95576 1.15315,-2.865 3.80056,-3.73258 l 3.5,-1.14697 -0.33125,-11.85303 c -0.47516,-17.00307 -0.20639,-16.66351 -14.02553,-17.71942 -9.60116,-0.73362 -11.57131,-0.63409 -12.85486,0.64947 -1.3545,1.3545 -1.34467,2.03224 0.0924,6.3664 0.88452,2.66779 1.57626,7.77553 1.53721,11.35053 -0.0394,3.60881 0.63667,8.46456 1.52,10.91673 1.97598,5.48541 1.35524,7.61112 -2.628,8.99969 C 419.66004,492.36307 411.69494,492.29494 410.2,490.8 Z M 328.25859,341.23149 c -1.45052,-3.77999 3.54557,-6.37245 12.1435,-6.30124 5.65717,0.0469 5.99731,0.23598 5.16138,2.86976 -0.45706,1.44007 -2.24796,2.29516 -6.8413,3.26648 -8.74037,1.84825 -9.81118,1.86514 -10.46358,0.165 z m -16.61483,-10.94128 c -1.47957,-0.38083 -1.73323,-1.09288 -1.25,-3.50899 C 310.72719,325.11405 311,323.35625 311,322.875 c 0,-1.30462 4.41793,-1.05707 5.8,0.325 2.37584,2.37584 0.72527,8.0127 -2.25,7.684 -0.5775,-0.0638 -1.88531,-0.33101 -2.90624,-0.59379 z m 38.98292,-10.08524 c -0.27024,-0.43726 -0.23755,-2.68726 0.0726,-5 0.64564,-4.81356 2.90233,-5.60331 6.30067,-2.20497 2.26853,2.26853 2.43543,3.31787 0.96482,6.06574 -1.04246,1.94784 -6.33097,2.76887 -7.33814,1.13923 z"
       style="fill:#86c533" />
    <path
       id="path9552"
       d="m 410.2,490.8 c -0.66,-0.66 -1.2,-2.44844 -1.2,-3.97432 0,-2.12175 0.76445,-3.16601 3.25,-4.43953 3.63304,-1.86148 4.89826,-3.33724 4.0449,-4.71801 -0.31523,-0.51005 -0.70397,-3.90654 -0.86388,-7.54775 -0.40958,-9.32655 -1.83346,-17.92283 -3.19409,-19.28346 -0.63636,-0.63636 -3.9875,-1.53446 -7.44697,-1.99579 -7.44242,-0.99245 -20.4296,-5.29911 -23.86118,-7.91256 -2.27978,-1.73625 -2.03049,-1.72653 4.06336,0.15848 3.57068,1.10451 7.50833,1.75316 8.75034,1.44144 1.242,-0.31173 5.09336,-0.11385 8.55856,0.43972 3.95558,0.6319 7.50145,0.66202 9.52765,0.0809 2.11608,-0.60688 4.30438,-0.5501 6.35546,0.16491 6.35387,2.21497 27.97984,-5.11359 43.92025,-14.88359 11.03295,-6.76219 24.9822,-26.65505 29.68291,-42.33045 3.31281,-11.0472 5.35856,-35.04261 3.72994,-43.75 -0.76008,-4.06373 -2.2111,-4.08471 -7.12975,-0.10306 -2.13812,1.73082 -9.5125,5.78239 -16.3875,9.00348 -6.875,3.2211 -14.13579,6.73865 -16.1351,7.81679 -16.48681,8.89062 -64.33785,12.29376 -80.12299,5.69831 -4.76015,-1.98892 -7.28805,-5.77653 -5.76041,-8.63095 1.06854,-1.99659 1.70972,-2.07621 13.07498,-1.62366 6.57324,0.26174 12.33395,0.71235 12.80158,1.00137 0.46764,0.28901 7.32838,0.0594 15.24609,-0.51028 15.72335,-1.13126 29.24725,-3.76727 35.38682,-6.8974 2.16255,-1.10253 5.12994,-2.0046 6.5942,-2.0046 3.26172,0 19.59253,-7.11947 26.41483,-11.51563 7.69662,-4.95956 13.50263,-10.80771 13.4829,-13.58076 -0.0192,-2.70472 -2.89675,-14.09096 -5.28273,-20.90361 -0.86681,-2.475 -2.1346,-6.525 -2.81731,-9 -0.68271,-2.475 -2.06064,-6.16957 -3.06207,-8.21016 C 480.81935,280.74925 480,277.68217 480,275.9741 c 0,-1.70807 -0.52857,-4.0885 -1.1746,-5.28984 -0.64603,-1.20134 -1.95855,-5.78426 -2.9167,-10.18426 -0.95816,-4.4 -2.22581,-10.025 -2.81702,-12.5 -1.73531,-7.26471 -3.97259,-48.84743 -2.84739,-52.92256 0.64345,-2.33039 0.61561,-5.20935 -0.0826,-8.54587 C 469.58256,183.76421 468.67892,177.45 468.1536,172.5 466.31382,155.16419 462.026,144.76992 454.31187,138.94569 451.39033,136.73992 449,134.80857 449,134.6538 c 0,-0.15478 2.8125,-0.0876 6.25,0.14933 4.57372,0.31522 8.39564,1.45919 14.25,4.2653 7.21707,3.45927 8.64135,4.64669 14.55331,12.13306 5.78029,7.31963 7.11148,9.88331 11.28529,21.7338 5.18605,14.72451 8.3375,32.06003 9.28313,51.06471 0.28735,5.775 1.13162,12.075 1.87615,14 0.74452,1.925 1.60383,5.64007 1.90955,8.25571 0.30573,2.61564 1.85691,7.34064 3.44706,10.5 1.59015,3.15936 3.89337,8.53031 5.11826,11.93544 1.2249,3.40513 3.30712,7.65506 4.62717,9.44428 1.32004,1.78922 2.40008,4.02001 2.40008,4.9573 0,0.9373 1.39853,4.33737 3.10784,7.55572 1.70932,3.21835 3.9196,8.10155 4.91175,10.85155 0.99214,2.75 3.2207,8.825 4.95234,13.5 1.73164,4.675 3.57132,10.75 4.08818,13.5 4.47932,23.83256 5.22097,42.6263 2.01184,50.98067 -1.06044,2.76063 -2.58444,8.61933 -3.38669,13.01933 -1.52995,8.39115 -6.98993,19.58059 -12.82588,26.2848 -1.57266,1.80663 -2.85938,3.66531 -2.85938,4.13038 0,0.46507 -3.15,2.97824 -7,5.58482 -3.85,2.60658 -7,5.09411 -7,5.52786 0,1.23136 -13.76549,9.73218 -18.36831,11.34328 -9.42231,3.29803 -17.54244,5.53559 -24.26486,6.68634 l -7.13316,1.22107 -0.61189,4.46422 c -0.33654,2.45532 -0.42418,4.76794 -0.19476,5.13915 0.49417,0.79957 1.79484,16.48597 1.95835,23.61808 l 0.11463,5 -7.8448,0.29377 c -8.76808,0.32835 -10.92815,-0.64432 -10.45576,-4.70817 0.22735,-1.95576 1.15315,-2.865 3.80056,-3.73258 l 3.5,-1.14697 -0.33125,-11.85303 c -0.47516,-17.00307 -0.20639,-16.66351 -14.02553,-17.71942 -9.60116,-0.73362 -11.57131,-0.63409 -12.85486,0.64947 -1.3545,1.3545 -1.34467,2.03224 0.0924,6.3664 0.88452,2.66779 1.57626,7.77553 1.53721,11.35053 -0.0394,3.60881 0.63667,8.46456 1.52,10.91673 1.97598,5.48541 1.35524,7.61112 -2.628,8.99969 C 419.66004,492.36307 411.69494,492.29494 410.2,490.8 Z M 328,340.12244 c 0,-3.06551 2.62489,-4.36264 9.87856,-4.88164 10.80105,-0.77281 11.01357,3.25697 0.29515,5.59658 C 330.40731,342.53263 328,342.36346 328,340.12244 Z m -16.35624,-9.83223 c -1.47957,-0.38083 -1.73323,-1.09288 -1.25,-3.50899 C 310.72719,325.11405 311,323.35625 311,322.875 c 0,-1.30462 4.41793,-1.05707 5.8,0.325 2.37584,2.37584 0.72527,8.0127 -2.25,7.684 -0.5775,-0.0638 -1.88531,-0.33101 -2.90624,-0.59379 z m 38.98292,-10.08524 c -0.27024,-0.43726 -0.23755,-2.68726 0.0726,-5 0.64564,-4.81356 2.90233,-5.60331 6.30067,-2.20497 2.26853,2.26853 2.43543,3.31787 0.96482,6.06574 -1.04246,1.94784 -6.33097,2.76887 -7.33814,1.13923 z"
       style="fill:#749548" />
    <path
       id="path9550"
       d="m 410.69283,490.54997 c -2.86164,-2.86164 -2.10326,-5.82742 2.05987,-8.0555 l 3.7473,-2.00553 -0.36574,-7.98379 c -0.20116,-4.39108 -0.76366,-9.03039 -1.25,-10.30957 C 414.39792,460.9164 414,458.16884 414,456.08989 c 0,-5.01382 -2.12294,-6.69577 -9.5,-7.52661 -6.97563,-0.78562 -12.5,-2.35786 -12.5,-3.5575 0,-0.46151 -1.2375,-1.3316 -2.75,-1.93353 -2.7666,-1.10103 -0.81616,-0.8237 3.65637,0.5199 1.70515,0.51224 2.19791,0.38559 1.69098,-0.43463 C 394.12511,442.39341 394.77177,442 396.5,442 c 1.43992,0 2.40709,0.34132 2.14927,0.75848 -0.25783,0.41717 2.64461,0.72564 6.44985,0.6855 4.06875,-0.0429 6.40007,0.27504 5.65975,0.7719 -0.75155,0.50439 -0.19757,0.59923 1.37464,0.23533 1.44842,-0.33525 4.26591,-0.15882 6.26109,0.39208 2.47915,0.68452 3.42617,0.67573 2.99139,-0.0278 -0.41702,-0.67475 0.52656,-0.79939 2.7389,-0.36178 2.17488,0.4302 2.90053,0.33976 2.04058,-0.25433 -1.81194,-1.25174 2.03306,-2.25447 6.23322,-1.62556 2.62339,0.39282 2.7931,0.30438 1.10131,-0.57385 -1.65532,-0.8593 -1.43133,-0.95136 1.29971,-0.53417 1.81484,0.27723 3.06142,0.1185 2.77018,-0.35274 -0.29124,-0.47123 1.59679,-1.70196 4.19561,-2.73494 6.3806,-2.53617 6.98097,-2.70472 5.2345,-1.46959 -2.48103,1.75461 -0.33764,1.22948 4.42392,-1.08386 2.46259,-1.19642 4.28874,-2.48061 4.05811,-2.85377 -0.45671,-0.73899 4.52978,-3.43545 5.79817,-3.13538 0.4291,0.10152 2.05408,-0.47417 3.61105,-1.27932 3.09927,-1.60269 13.32752,-12.88577 12.89401,-14.22375 -0.14835,-0.45786 0.51428,-1.94511 1.47251,-3.30499 C 480.216,409.66762 481,408.95718 481,409.44875 c 0,0.49157 -0.7875,1.82145 -1.75,2.95528 -1.6774,1.97598 -1.67466,2.00301 0.0659,0.65157 2.37589,-1.84469 4.93379,-6.84251 4.1506,-8.10974 -0.33836,-0.54748 -0.0192,-0.87176 0.70913,-0.72064 0.73245,0.15198 1.26306,-0.50253 1.18723,-1.46446 -0.0754,-0.95658 0.20988,-1.5248 0.63395,-1.26271 1.07761,0.66601 3.34479,-5.13626 2.52514,-6.46247 -0.36886,-0.59682 -0.10917,-0.96148 0.57709,-0.81036 1.42415,0.31363 4.76488,-7.45145 4.84654,-11.26512 0.0299,-1.39695 0.75185,-5.21768 1.60432,-8.49053 1.63099,-6.26177 2.35231,-31.05146 1.0252,-35.23282 -0.99418,-3.13238 -2.43161,-2.82514 -8.64453,1.84771 -5.59437,4.20762 -21.45663,12.19724 -31.7481,15.99112 -2.16134,0.79677 -2.89323,1.48517 -2.10011,1.97535 0.73397,0.45362 -1.12539,1.43219 -4.68251,2.46437 -3.24494,0.9416 -7.69989,2.29088 -9.89989,2.99841 -3.41695,1.09891 -13.44267,2.27604 -33.5,3.93326 -10.03383,0.82903 -31.66941,-2.55483 -30.31779,-4.74179 0.38619,-0.62488 0.036,-0.81101 -0.87111,-0.46293 -2.36974,0.90935 -4.55728,-2.35979 -3.70685,-5.53967 0.48964,-1.83082 0.37771,-2.50045 -0.34346,-2.05474 -0.58839,0.36365 -0.80933,0.23971 -0.49096,-0.27542 0.31837,-0.51513 3.11956,-1.04291 6.22487,-1.17286 3.64617,-0.15257 5.42216,0.12595 5.01402,0.78634 -0.39007,0.63114 0.63571,0.94575 2.67964,0.82184 1.8214,-0.11041 4.88664,0.12372 6.81164,0.52029 l 3.5,0.72104 -3,-1.44332 c -3.51382,-1.69052 -2.38717,-2.00737 2.32864,-0.6549 4.53429,1.30042 29.36248,-0.56247 40.21965,-3.01773 9.20368,-2.08133 11.61933,-2.33037 8.45171,-0.87132 -2,0.92122 -2,0.92122 0,0.62032 1.1,-0.16549 1.88078,-0.85683 1.73507,-1.5363 -0.31426,-1.46545 5.73049,-4.1882 8.98281,-4.04614 2.22348,0.0971 2.21789,0.12025 -0.21788,0.90032 -1.87959,0.60195 -2.0349,0.82538 -0.62586,0.90032 1.75219,0.0932 13.13295,-4.59122 22.04896,-9.07554 6.83972,-3.44005 18.74071,-12.95553 18.145,-14.50791 -0.3018,-0.78648 -0.10387,-1.14799 0.44335,-0.80979 1.6253,1.00449 1.13917,-6.84703 -0.57551,-9.29507 -0.89664,-1.28013 -1.2946,-3.08197 -0.93261,-4.22251 0.74439,-2.34536 -0.28848,-6.24032 -1.46242,-5.51478 -0.44831,0.27706 -0.79502,-0.0539 -0.77047,-0.73548 0.12322,-3.42145 -0.35299,-4.80626 -1.42495,-4.14375 -0.73722,0.45563 -0.88212,0.27279 -0.40088,-0.50587 1.11715,-1.80758 -0.31523,-8.28761 -1.64964,-7.4629 -0.67253,0.41564 -0.8204,0.22345 -0.37838,-0.49176 0.93825,-1.51813 -1.29198,-8.33 -2.48573,-7.59223 -0.49937,0.30863 -0.61163,-0.21105 -0.24947,-1.15484 0.36385,-0.94816 0.24686,-1.46445 -0.26145,-1.15385 -0.50597,0.30917 -1.02145,-1.30451 -1.14552,-3.58596 -0.29312,-5.39007 -1.14843,-8.84256 -2.05374,-8.29002 -0.39637,0.24192 -0.80665,-1.20218 -0.91173,-3.2091 -0.29957,-5.72165 -1.33333,-10.25193 -2.21502,-9.70701 -0.44276,0.27364 -0.57978,-0.68074 -0.30448,-2.12084 0.27529,-1.4401 0.0978,-2.37274 -0.39446,-2.07255 -0.49225,0.3002 -0.96825,-1.32042 -1.0578,-3.60137 -0.0895,-2.28096 -0.48405,-7.07219 -0.87667,-10.64719 -0.5346,-4.86774 -0.92564,-5.99777 -1.55718,-4.5 -0.51529,1.22207 -0.77425,-2.2786 -0.66576,-9 0.0977,-6.05 -0.12501,-13.025 -0.49481,-15.5 -0.4981,-3.33371 -0.42855,-3.85206 0.26834,-2 0.7174,1.90656 0.81874,1.31313 0.42692,-2.5 -0.28258,-2.75 -0.74904,-6.35 -1.03658,-8 -0.39734,-2.28005 -0.27193,-2.64003 0.52256,-1.5 0.80131,1.1498 1.04894,0.53696 1.06068,-2.625 0.008,-2.26875 -0.28423,-5.62269 -0.65033,-7.45319 -0.56905,-2.84525 -0.78139,-3.04477 -1.46332,-1.375 -0.43873,1.07425 -0.53102,-1.49122 -0.20511,-5.70106 0.67452,-8.7127 -0.18696,-15.25981 -1.87096,-14.21903 -0.64962,0.40148 -0.82202,0.22606 -0.41888,-0.42622 0.3768,-0.60969 0.38682,-2.29698 0.0223,-3.74953 -0.49814,-1.98474 -0.8877,-2.30678 -1.5677,-1.29599 -0.57053,0.84808 -0.67875,-0.13286 -0.29292,-2.65498 0.48222,-3.15213 0.36571,-3.68205 -0.54964,-2.5 -0.96482,1.24592 -1.07956,1.12467 -0.67739,-0.71581 0.29297,-1.34074 0.031,-2.13059 -0.66325,-2 -0.63109,0.11869 -1.11411,-0.77432 -1.07338,-1.98447 0.0407,-1.21015 -0.29677,-1.9711 -0.75,-1.69098 -0.45323,0.28011 -0.8926,-0.0798 -0.97637,-0.79972 -0.0838,-0.71996 -0.20817,-1.75902 -0.27644,-2.30902 -0.25193,-2.0298 -1.67394,-3.39783 -3.00212,-2.88815 -1.47224,0.56495 -2.8459,-1.05047 -3.28393,-3.86185 -0.21592,-1.38585 0.45716,-1.75 3.23464,-1.75 1.92902,0 4.28869,0.40995 5.24373,0.91099 0.95504,0.50105 4.21143,2.10154 7.23643,3.55665 7.10514,3.41777 7.43969,3.70545 14.31566,12.31027 5.69913,7.13209 8.43593,13.00286 13.8212,29.64812 2.29554,7.09525 5.72397,30.18146 6.54524,44.07397 0.32514,5.5 1.0668,10.9 1.64813,12 0.58134,1.1 1.36975,4.57853 1.75202,7.73006 0.38227,3.15154 1.67778,7.61551 2.87892,9.91995 1.20114,2.30444 3.49968,7.79523 5.10787,12.20177 1.60818,4.40653 3.78531,8.94256 4.83805,10.08005 1.05274,1.13749 2.4028,3.86817 3.00013,6.06817 0.59733,2.2 2.25567,6.025 3.6852,8.5 1.42953,2.475 3.41654,6.975 4.41556,10 0.99903,3.025 3.01894,8.65 4.48869,12.5 7.56101,19.80602 11.007,53.5962 6.55893,64.31462 -1.06942,2.57696 -2.40463,7.83538 -2.96714,11.68538 -1.09695,7.50798 -7.58853,22.13427 -11.50465,25.92131 -1.18225,1.14328 -2.95282,3.34701 -3.9346,4.89718 -0.98179,1.55017 -3.87159,4.25017 -6.42178,6 -2.55019,1.74983 -6.45712,4.79921 -8.68207,6.77639 C 504.83444,438.28121 492.07579,446 489.86699,446 c -0.83418,0 -4.71961,1.08938 -8.63429,2.42085 -3.91468,1.33147 -9.731,2.73788 -12.92515,3.12535 -9.60678,1.16537 -9.60661,1.16515 -8.87619,11.79206 0.34634,5.03896 1.13579,12.85651 1.75433,17.37233 1.46896,10.72458 1.03003,11.28941 -8.77295,11.28941 -6.41094,0 -7.48346,-0.26363 -8.45456,-2.07814 -1.56575,-2.92563 -0.54667,-4.77802 3.57631,-6.50072 l 3.5626,-1.48855 -0.46613,-11.21629 c -0.63546,-15.29093 -1.0125,-16.49803 -5.48685,-17.5662 -2.00426,-0.47848 -7.50897,-0.95413 -12.23269,-1.05699 -11.03428,-0.24028 -11.92324,0.56047 -9.42824,8.49273 1.10345,3.50814 1.5266,6.95156 1.14642,9.32908 -0.34316,2.14596 0.0374,6.2257 0.88389,9.47558 2.65178,10.18087 1.87699,11.49172 -7.2833,12.32234 -4.65126,0.42176 -6.19015,0.18434 -7.53736,-1.16287 z M 328.43114,339.82143 c -0.001,-0.92322 0.4635,-1.59822 1.03315,-1.5 0.56964,0.0982 0.95535,-0.2875 0.85714,-0.85714 -0.0982,-0.56965 0.57678,-1.0867 1.5,-1.14902 7.1651,-0.48362 12.33821,-0.48896 12.81393,-0.0132 1.1016,1.10159 -0.7885,2.69797 -3.19438,2.69797 -1.34254,0 -2.44098,0.3876 -2.44098,0.86133 0,0.47373 -1.19188,0.63348 -2.64862,0.35501 -1.56951,-0.30003 -2.40491,-0.11196 -2.05043,0.4616 0.3414,0.55238 -0.7896,0.9366 -2.63451,0.89498 -2.32966,-0.0525 -3.23344,-0.54183 -3.2353,-1.75149 z m -16.29517,-9.89477 c -1.82155,-0.72936 -2.22626,-1.4606 -1.76365,-3.18662 0.3302,-1.23202 0.60652,-2.80254 0.61403,-3.49004 0.0174,-1.59462 4.23278,-1.63087 5.81365,-0.05 2.12495,2.12495 0.78941,8.02927 -1.75,7.73661 -0.3025,-0.0349 -1.61381,-0.48934 -2.91403,-1.00995 z M 351.26159,319.75 c -0.54082,-0.6875 -0.77169,-2.9375 -0.51304,-5 0.54552,-4.35011 2.60601,-4.93162 6.06289,-1.71104 2.53634,2.36296 2.4732,2.08217 1.21331,5.39594 -1.06456,2.8 -4.99402,3.56408 -6.76316,1.3151 z"
       style="fill:#72a038" />
    <path
       id="path9548"
       d="m 410.69283,490.54997 c -2.86164,-2.86164 -2.10326,-5.82742 2.05987,-8.0555 l 3.7473,-2.00553 -0.36574,-7.98379 c -0.20116,-4.39108 -0.76366,-9.03039 -1.25,-10.30957 C 414.39792,460.9164 414,458.16884 414,456.08989 c 0,-5.01382 -2.12294,-6.69577 -9.5,-7.52661 -3.3,-0.37166 -7.4625,-1.13534 -9.25,-1.69706 -6.70473,-2.10698 -3.10632,-2.86565 11,-2.31919 7.8375,0.30362 15.24725,0.53605 16.46612,0.51651 5.6756,-0.091 18.97915,-4.68787 31.16654,-10.76922 12.95694,-6.46536 13.61564,-6.95003 20.70682,-15.23605 9.22559,-10.78008 17.99343,-27.46352 19.47566,-37.05827 0.55227,-3.575 1.46,-7.92176 2.01717,-9.65947 1.16569,-3.63557 1.5546,-29.75846 0.49283,-33.10378 -0.99418,-3.13238 -2.43161,-2.82514 -8.64453,1.84771 -2.98684,2.24645 -9.25561,5.88437 -13.93061,8.08427 -26.8112,12.61647 -33.33563,14.40591 -61.30763,16.8147 -10.00668,0.86173 -14.48139,0.76862 -24.18309,-0.50316 C 373.98525,363.57634 371.5,362.55447 371.5,358.48653 l 0,-2.98653 8.83609,0.29629 c 4.85985,0.16296 10.82266,0.66742 13.25068,1.12102 5.79301,1.08225 33.82949,-1.16483 42.85566,-3.43481 3.81834,-0.96027 8.31834,-2.58499 10,-3.61048 1.68166,-1.0255 4.12593,-1.86623 5.43171,-1.86828 2.19626,-0.003 13.26091,-4.50752 22.54896,-9.17896 7.05995,-3.55081 18.54463,-12.84801 19.22638,-15.56435 0.78215,-3.11631 -1.07605,-13.96205 -3.55687,-20.76043 -3.16092,-8.66208 -7.18701,-20.84576 -8.26124,-25 -0.5689,-2.2 -1.63257,-6.25 -2.36373,-9 -5.82092,-21.89329 -7.33364,-34.7951 -7.97292,-68 -0.15884,-8.25 -0.57277,-18.825 -0.91985,-23.5 -1.15243,-15.52278 -7.34804,-33.06414 -13.27495,-37.58481 C 455.48496,138.03085 454,136.47112 454,135.94911 c 0,-1.21106 6.47417,-1.23922 8.76357,-0.0381 0.95504,0.50105 4.21143,2.10154 7.23643,3.55665 7.10514,3.41777 7.43969,3.70545 14.31566,12.31027 5.69913,7.13209 8.43593,13.00286 13.8212,29.64812 2.29554,7.09525 5.72397,30.18146 6.54524,44.07397 0.32514,5.5 1.0668,10.9 1.64813,12 0.58134,1.1 1.36975,4.57853 1.75202,7.73006 0.38227,3.15154 1.67778,7.61551 2.87892,9.91995 1.20114,2.30444 3.49968,7.79523 5.10787,12.20177 1.60818,4.40653 3.78531,8.94256 4.83805,10.08005 1.05274,1.13749 2.4028,3.86817 3.00013,6.06817 0.59733,2.2 2.25567,6.025 3.6852,8.5 1.42953,2.475 3.41654,6.975 4.41556,10 0.99903,3.025 3.01894,8.65 4.48869,12.5 7.56101,19.80602 11.007,53.5962 6.55893,64.31462 -1.06942,2.57696 -2.40463,7.83538 -2.96714,11.68538 -1.09695,7.50798 -7.58853,22.13427 -11.50465,25.92131 -1.18225,1.14328 -2.95282,3.34701 -3.9346,4.89718 -0.98179,1.55017 -3.87159,4.25017 -6.42178,6 -2.55019,1.74983 -6.45712,4.79921 -8.68207,6.77639 C 504.83444,438.28121 492.07579,446 489.86699,446 c -0.83418,0 -4.71961,1.08938 -8.63429,2.42085 -3.91468,1.33147 -9.731,2.73788 -12.92515,3.12535 -9.60678,1.16537 -9.60661,1.16515 -8.87619,11.79206 0.34634,5.03896 1.13579,12.85651 1.75433,17.37233 1.46896,10.72458 1.03003,11.28941 -8.77295,11.28941 -6.41094,0 -7.48346,-0.26363 -8.45456,-2.07814 -1.56575,-2.92563 -0.54667,-4.77802 3.57631,-6.50072 l 3.5626,-1.48855 -0.46613,-11.21629 c -0.63546,-15.29093 -1.0125,-16.49803 -5.48685,-17.5662 -2.00426,-0.47848 -7.50897,-0.95413 -12.23269,-1.05699 -11.03428,-0.24028 -11.92324,0.56047 -9.42824,8.49273 1.10345,3.50814 1.5266,6.95156 1.14642,9.32908 -0.34316,2.14596 0.0374,6.2257 0.88389,9.47558 2.65178,10.18087 1.87699,11.49172 -7.2833,12.32234 -4.65126,0.42176 -6.19015,0.18434 -7.53736,-1.16287 z M 329,340.02305 c 0,-2.63123 6.12996,-4.45886 13.83333,-4.12437 4.33509,0.18824 1.60395,2.53133 -4.408,3.7817 -7.3199,1.52239 -9.42533,1.59894 -9.42533,0.34267 z m -16.86403,-10.09639 c -1.82155,-0.72936 -2.22626,-1.4606 -1.76365,-3.18662 0.3302,-1.23202 0.60652,-2.80254 0.61403,-3.49004 0.0174,-1.59462 4.23278,-1.63087 5.81365,-0.05 2.12495,2.12495 0.78941,8.02927 -1.75,7.73661 -0.3025,-0.0349 -1.61381,-0.48934 -2.91403,-1.00995 z M 351.26159,319.75 c -0.54082,-0.6875 -0.77169,-2.9375 -0.51304,-5 0.54552,-4.35011 2.60601,-4.93162 6.06289,-1.71104 2.53634,2.36296 2.4732,2.08217 1.21331,5.39594 -1.06456,2.8 -4.99402,3.56408 -6.76316,1.3151 z"
       style="fill:#565849" />
    <path
       id="path9546"
       d="m 411.03987,489.54804 c -1.8496,-2.22863 -0.83109,-4.88363 2.47236,-6.4448 3.73617,-1.76567 4.6153,-3.06075 3.80362,-5.60324 -0.35116,-1.1 -0.7358,-4.7 -0.85475,-8 -0.11894,-3.3 -0.64626,-8.87613 -1.17182,-12.3914 C 414.22059,449.96044 412.52987,448 407.43387,448 402.97112,448 398,446.90613 398,445.92412 c 0,-0.45424 5.9625,-0.64838 13.25,-0.43143 7.2875,0.21695 14.825,0.004 16.75,-0.47422 1.925,-0.47776 5.525,-1.38314 8,-2.01194 6.28492,-1.59676 29.87435,-13.4102 33.5,-16.7766 12.06654,-11.20373 23.83606,-31.69713 25.67972,-44.7142 0.54406,-3.84135 1.57255,-8.38041 2.28553,-10.0868 1.92475,-4.60658 1.29546,-32.09679 -0.78231,-34.17456 -2.10698,-2.10698 -5.58518,-1.01797 -10.83029,3.39092 -2.39396,2.0123 -7.72765,5.20583 -11.85265,7.09675 -4.125,1.89092 -9.33792,4.29184 -11.58426,5.33538 -20.97536,9.7441 -53.94129,14.18947 -77.23334,10.41474 C 373.85911,361.65709 372,360.86835 372,357.89945 c 0,-1.70202 0.68309,-1.81016 8.25,-1.30599 4.5375,0.30232 9.825,0.97593 11.75,1.4969 8.17229,2.21172 47.14129,-2.56916 55.37073,-6.79312 1.57891,-0.81041 4.05391,-1.67145 5.5,-1.91343 3.80233,-0.63626 20.85925,-8.31453 26.12927,-11.76225 6.87081,-4.49497 15.0907,-11.69253 15.92308,-13.94267 0.86036,-2.32577 -1.90506,-16.40421 -4.30117,-21.89677 C 489.72986,299.73728 489,297.14678 489,296.02544 c 0,-1.12134 -1.575,-6.02171 -3.5,-10.88972 -1.925,-4.868 -3.5,-9.6421 -3.5,-10.6091 0,-0.96701 -0.65713,-3.84359 -1.46029,-6.39241 -1.86544,-5.91993 -5.21539,-22.00617 -6.06718,-29.13421 -0.95683,-8.00709 -1.52087,-19.37081 -1.86131,-37.5 -0.16525,-8.8 -0.61371,-19.825 -0.99658,-24.5 -1.29098,-15.76348 -7.09989,-31.95917 -13.52632,-37.71245 l -3.58832,-3.21246 3.31167,-0.0375 c 5.69114,-0.0645 17.74204,6.57974 23.02829,12.69666 7.69954,8.90942 9.50071,12.27382 14.36345,26.82943 3.77809,11.30896 5.04618,17.01952 6.72622,30.29016 1.1387,8.99459 2.07037,19.25444 2.07037,22.79966 0,3.91282 0.61952,7.64388 1.57651,9.49449 0.86708,1.67674 1.73729,5.20822 1.9338,7.84773 0.19872,2.66905 1.65627,7.39674 3.28394,10.65171 1.60965,3.21893 3.91633,8.74461 5.12596,12.27928 1.20962,3.53466 3.29742,7.73169 4.63955,9.32672 1.34213,1.59503 2.44024,3.68258 2.44024,4.639 0,0.95641 1.8,5.27984 4,9.60761 2.2,4.32777 4,8.44739 4,9.1547 0,0.70732 1.125,3.74553 2.5,6.75159 1.375,3.00605 2.5,6.10025 2.5,6.87599 0,0.77575 0.69406,2.80171 1.54235,4.50215 1.52769,3.06234 2.32271,6.75149 5.00297,23.21557 1.93776,11.90314 1.90095,31.23633 -0.0667,35.04138 -0.83677,1.61814 -2.20815,6.88017 -3.0475,11.69341 -1.54594,8.86504 -7.25354,21.60633 -12.23653,27.31607 -9.85108,11.28781 -26.64243,24.15529 -35.69457,27.35331 -9.2368,3.26327 -17.4545,5.50875 -24.5,6.6946 -4.125,0.6943 -7.725,1.58836 -8,1.98679 -0.66857,0.96867 -0.47051,8.3485 0.53445,19.91444 0.454,5.225 0.85697,11.3 0.8955,13.5 l 0.07,4 -7.66972,0.29062 c -7.03111,0.26642 -7.72492,0.11671 -8.33262,-1.79799 -0.85053,-2.67978 1.07483,-4.99263 4.15617,-4.99263 1.32492,0 2.67028,-0.68105 2.9897,-1.51344 1.11171,-2.89707 -1.19192,-27.46637 -2.71348,-28.94051 -0.96388,-0.93384 -5.41151,-1.61582 -13.64393,-2.0921 l -12.21388,-0.70662 -1.1543,2.53344 c -0.92872,2.0383 -0.81238,3.42876 0.59525,7.11459 1.18165,3.09412 1.57786,6.10453 1.22059,9.27422 -0.30545,2.70993 0.057,6.62363 0.8578,9.26174 2.15138,7.08765 1.85302,9.94914 -1.15668,11.09343 -3.87085,1.4717 -11.00573,1.19729 -12.39503,-0.47671 z"
       style="fill:#47493a" />
    <path
       id="path9544"
       d="m 411.57143,489.42857 c -2.30791,-2.30791 -1.98288,-3.14374 2.26534,-5.82553 l 3.83677,-2.42205 -0.22302,-8.34049 c -0.12266,-4.58728 -0.72421,-9.60729 -1.33677,-11.1556 C 415.50119,460.1366 415,457.13124 415,455.00633 415,451.01579 413.00688,448 410.36955,448 c -0.81817,0 -1.20947,-0.45 -0.86955,-1 0.71056,-1.14971 6.09023,-1.21613 8.91136,-0.11003 2.12898,0.83473 20.34629,-3.13472 24.99228,-5.44567 1.597,-0.79437 3.44881,-1.4443 4.11514,-1.4443 0.66633,0 2.28469,-0.82798 3.59636,-1.83995 1.31167,-1.01198 3.74774,-2.30384 5.41348,-2.87081 3.77805,-1.28594 13.18343,-7.28733 16.3456,-10.42981 C 476.47781,421.27829 486,408.03793 486,406.60837 c 0,-0.69286 1.125,-2.31662 2.5,-3.60837 1.375,-1.29175 2.5,-3.15422 2.5,-4.13883 0,-0.98461 1.06755,-3.71867 2.37233,-6.07569 1.43632,-2.59464 2.64883,-6.92487 3.07313,-10.97509 0.38543,-3.67928 1.52576,-8.86073 2.53404,-11.51433 1.00829,-2.6536 1.60757,-6.00535 1.33172,-7.44834 -0.27584,-1.44298 0.0225,-3.60279 0.66302,-4.79958 0.83128,-1.55327 0.85825,-2.54505 0.0942,-3.46563 -0.58867,-0.70931 -1.06347,-2.36804 -1.0551,-3.68608 0.0403,-6.3554 -1.74504,-14.22704 -3.52147,-15.526 C 495.46112,334.61669 494.28674,334 493.88219,334 c -1.72823,0 -1.30622,-3.82545 0.88254,-8 1.29766,-2.475 2.13246,-5.4 1.8551,-6.5 -0.27736,-1.1 -1.17121,-4.7 -1.98635,-8 -0.81513,-3.3 -2.17138,-7.8 -3.01388,-10 -0.8425,-2.2 -1.55434,-5.125 -1.58187,-6.5 -0.0275,-1.375 -0.72228,-3.78894 -1.54389,-5.36431 -0.82161,-1.57537 -1.50385,-3.82537 -1.51608,-5 C 486.96553,283.46106 486.07554,281.375 485,280 c -1.07554,-1.375 -1.96553,-3.70821 -1.97776,-5.1849 -0.0122,-1.4767 -0.53749,-3.9517 -1.16725,-5.5 -0.62975,-1.54831 -1.4925,-4.8401 -1.91723,-7.3151 -0.42473,-2.475 -1.28189,-6.50217 -1.90481,-8.94928 -1.66271,-6.53188 -3.24094,-18.49488 -3.5687,-27.05072 -0.15802,-4.125 -0.58974,-12.225 -0.95938,-18 -0.36964,-5.775 -0.27091,-11.55605 0.2194,-12.84679 0.55807,-1.46909 0.42216,-5.20906 -0.36341,-10 -0.69019,-4.20926 -1.27873,-10.26306 -1.30787,-13.45287 -0.0292,-3.18981 -0.71579,-7.08137 -1.52587,-8.6479 -0.81009,-1.56654 -1.96058,-5.02442 -2.55665,-7.68419 -0.59606,-2.65977 -1.69821,-5.51821 -2.4492,-6.3521 -0.751,-0.83388 -1.68125,-2.78139 -2.06724,-4.3278 -0.38599,-1.54641 -1.99605,-3.76854 -3.57791,-4.93806 C 458.29425,138.58077 457,137.25851 457,136.81194 c 0,-1.66201 3.4221,-0.70116 11.42119,3.20681 7.45425,3.64179 8.8439,4.80511 14.81497,12.40212 5.87538,7.47526 7.08409,9.82926 11.15832,21.73125 3.32585,9.71573 4.98141,16.61325 6.08405,25.34788 0.83317,6.6 1.96932,15.375 2.52477,19.5 0.55545,4.125 1.00694,9.65985 1.00331,12.29966 -0.004,2.63981 0.60545,6.01481 1.35351,7.5 0.74807,1.48519 1.63151,5.10205 1.96321,8.03747 0.33169,2.93543 1.70058,7.30077 3.04196,9.70077 1.34138,2.39999 3.43985,7.42328 4.66327,11.16286 1.22341,3.73958 3.2242,8.14924 4.4462,9.79924 1.22201,1.65 2.79467,4.8 3.49481,7 0.70014,2.2 2.17069,5.48771 3.26789,7.30601 1.77327,2.93874 3.59749,7.43999 7.7787,19.19399 0.68478,1.925 1.87934,5.01563 2.65457,6.86808 6.06581,14.49434 9.3026,50.02752 5.4514,59.8449 -1.03283,2.63286 -2.17463,6.81202 -2.53734,9.28702 -1.63065,11.12715 -6.89827,22.94194 -13.72541,30.7848 -1.57266,1.80663 -2.85938,3.69752 -2.85938,4.20196 0,0.50444 -2.1375,2.37003 -4.75,4.14576 -2.6125,1.77573 -6.81716,5.05985 -9.3437,7.29804 -8.69278,7.70071 -28.0775,15.53739 -42.4063,17.14363 -8.80989,0.98758 -8.80429,0.97789 -8.02349,13.878 0.36778,6.0763 1.07046,13.69396 1.56151,16.92815 1.32526,8.7284 0.44956,9.77898 -7.84694,9.41401 -6.43606,-0.28313 -6.70293,-0.397 -7.00203,-2.9876 -0.27578,-2.38866 0.10041,-2.77043 3.32626,-3.3756 l 3.6372,-0.68234 -0.44292,-13.69101 c -0.3632,-11.22678 -1.43264,-17.69583 -2.99477,-18.11551 -2.83748,-0.76231 -23.84185,-1.46429 -25.45561,-0.85074 -2.68664,1.02146 -2.94624,4.40233 -0.79919,10.40845 0.89404,2.50099 1.22739,5.87376 0.88952,9 -0.35313,3.2674 0.007,6.55934 1.04049,9.5 2.5242,7.18523 2.18857,8.74531 -2.14003,9.94742 -5.30892,1.47436 -8.85779,1.30193 -10.67857,-0.51885 z"
       style="fill:#403e38" />
    <path
       id="path9542"
       d="m 412.75,489.94502 c -2.94464,-1.75736 -2.12014,-4.76353 1.75,-6.38057 3.27146,-1.36691 4.1443,-2.64854 3.44907,-5.06445 -0.15827,-0.55 -0.38606,-4.15 -0.50619,-8 -0.3638,-11.65886 -1.89661,-20.62739 -3.75806,-21.98851 -2.0738,-1.5164 -2.16097,-2.51149 -0.22,-2.51149 0.80565,0 1.93017,0.86952 2.49893,1.93228 0.56877,1.06275 1.9355,2.21835 3.03717,2.56801 1.53831,0.48824 1.86141,1.20006 1.39259,3.06799 -0.33764,1.34527 0.10818,4.2283 0.99759,6.45115 0.93594,2.33915 1.56523,6.62317 1.50561,10.24974 -0.0563,3.42696 0.61398,8.48083 1.4896,11.23083 0.87562,2.75 1.59691,5.32167 1.60287,5.71482 0.0334,2.20685 -10.48241,4.37544 -13.23918,2.7302 z m 33.24081,0.0493 c -2.13879,-1.32184 -0.65281,-4.47365 2.26812,-4.81078 3.61682,-0.41745 4.80616,-2.91366 4.20626,-8.82823 -0.27085,-2.67042 -0.58112,-8.60439 -0.68948,-13.18659 -0.16914,-7.15195 -0.52294,-8.68295 -2.49937,-10.81556 -1.62467,-1.75304 -2.04267,-2.94829 -1.42011,-4.06075 0.48524,-0.86706 0.6636,-2.41256 0.39638,-3.43444 -0.54653,-2.08994 0.75409,-2.45127 2.50848,-0.69688 2.02816,2.02816 6.33802,1.82015 9.60494,-0.46356 1.72368,-1.20492 3.32612,-2.30944 3.56097,-2.45448 0.23485,-0.14504 -0.44015,-0.91975 -1.5,-1.72158 -1.88146,-1.42341 -1.87635,-1.45861 0.21601,-1.48967 1.17866,-0.0175 2.40203,0.6432 2.71862,1.4682 0.33849,0.8821 1.83882,1.5 3.64217,1.5 2.78835,0 2.96635,-0.18725 1.96199,-2.06392 -2.23847,-4.18262 3.55848,-7.41181 7.04556,-3.92473 2.81868,2.81868 4.48865,2.04874 4.48865,-2.06952 0,-3.12713 0.25361,-3.39539 3.46313,-3.66318 1.90472,-0.15892 3.81616,-0.91978 4.24764,-1.69079 0.47142,-0.84238 1.63412,-1.17968 2.91334,-0.84515 1.37721,0.36015 2.45479,-0.0258 3.05205,-1.09301 0.50777,-0.90733 1.91336,-1.65277 3.12353,-1.65653 2.45683,-0.008 7.31296,-6.19287 6.23345,-7.93955 C 504.41101,414.23797 502,414.90519 502,417.03138 c 0,2.40487 -2.65586,3.71276 -4.26722,2.1014 -0.84371,-0.84371 -0.82655,-1.43901 0.0672,-2.33278 1.90641,-1.90641 1.40457,-3.53184 -1.3,-4.21064 -1.375,-0.34511 -2.5,-1.06889 -2.5,-1.60841 0,-1.40129 1.22101,-1.21487 3.77925,0.57698 1.22334,0.85687 2.73565,1.24188 3.36068,0.85559 2.39026,-1.47726 8.9262,-1.40476 9.50572,0.10544 0.81946,2.13547 2.26003,0.83638 1.65179,-1.48956 -0.38444,-1.47011 0.38469,-2.49932 3.03738,-4.06444 3.75764,-2.21707 4.17273,-5.57821 0.54676,-4.42737 -1.47485,0.46809 -1.87827,0.0962 -1.86627,-1.7202 0.008,-1.27457 0.46698,-2.99239 1.01901,-3.81739 0.87349,-1.30542 1.18551,-1.26227 2.40531,0.33258 1.35362,1.76982 1.43725,1.76598 2.44233,-0.11202 0.84064,-1.57074 0.56383,-2.39258 -1.43984,-4.27493 -2.78686,-2.61813 -2.72967,-4.43504 0.1398,-4.44139 1.49478,-0.003 1.85456,-0.61113 1.63023,-2.75424 -0.3311,-3.16321 0.49268,-3.50706 2.3958,-1 1.21372,1.59887 1.33119,1.5259 1.36025,-0.84501 0.0175,-1.42726 0.9318,-3.4095 2.0318,-4.40499 1.41725,-1.28259 2,-3.07997 2,-6.16856 0,-2.39722 0.52102,-5.19286 1.15782,-6.21254 0.6368,-1.01968 0.86436,-2.61872 0.50569,-3.55341 -0.95355,-2.4849 -5.90028,-1.66548 -7.15064,1.18451 C 521.07146,368.03546 520,367.50247 520,363.5 c 0,-2.08078 0.50686,-3.53996 1.25,-3.59854 0.6875,-0.0542 2.375,-0.1667 3.75,-0.25 2.16008,-0.13087 2.45431,-0.55936 2.16399,-3.15146 -0.4308,-3.84625 -1.53089,-4.95368 -3.70965,-3.73439 -2.12471,1.18905 -5.67704,0.4025 -5.1619,-1.14293 0.20583,-0.61748 0.91564,-1.12268 1.57737,-1.12268 0.66173,0 1.53079,-0.53016 1.93126,-1.17812 0.40047,-0.64797 1.5724,-1.09797 2.6043,-1 1.40493,0.13338 1.91271,-0.53097 2.02163,-2.64499 0.18832,-3.65525 -0.91161,-4.2446 -4.0653,-2.17823 -2.50714,1.64274 -2.53847,1.6315 -1.84952,-0.66381 1.27616,-4.25167 7.33418,-7.51049 8.98782,-4.83485 0.94483,1.52876 3.5,1.18942 3.5,-0.46482 0,-2.12019 -3.00582,-3.37081 -6.73848,-2.80364 -4.1184,0.62578 -5.27426,-1.74709 -2.85008,-5.85091 1.45417,-2.46171 1.49437,-2.97954 0.26784,-3.45021 -1.92259,-0.73776 -6.88567,3.95518 -6.49105,6.13775 0.17147,0.94839 -0.25073,1.92103 -0.93823,2.16142 -0.6875,0.24039 -1.25,-0.25306 -1.25,-1.09657 0,-0.8435 -0.7875,-2.00048 -1.75,-2.57106 -1.60765,-0.95305 -1.54665,-1.19751 0.75,-3.00541 2.17265,-1.71028 2.33632,-2.23388 1.25,-3.99869 -1.87489,-3.04591 -1.5498,-4.52541 1.77687,-8.08662 2.82074,-3.01962 2.92541,-3.39512 1.53704,-5.51405 -1.30665,-1.9942 -1.30996,-2.42306 -0.0269,-3.48793 0.80463,-0.66778 1.46296,-2.3198 1.46296,-3.67116 0,-2.23342 -0.28536,-2.39433 -3.13584,-1.76826 -2.96278,0.65073 -3.10117,0.55062 -2.50767,-1.81407 0.52224,-2.08078 0.2079,-2.60828 -1.86416,-3.12834 -1.37075,-0.34404 -2.4923,-1.23948 -2.4923,-1.98985 0,-0.75037 -0.9,-1.59967 -2,-1.88733 -2.30227,-0.60206 -2.49643,-2.17072 -0.70658,-5.70854 1.10879,-2.19161 0.96242,-2.95884 -1.19237,-6.25 -2.7281,-4.16683 -4.60015,-4.77515 -5.3908,-1.75171 -0.28766,1.1 -1.06328,2 -1.72362,2 -0.66033,0 -0.9586,-0.63066 -0.66282,-1.40146 0.31725,-0.82673 -0.23527,-1.60363 -1.34727,-1.89442 -1.57388,-0.41158 -1.78858,-1.12943 -1.30057,-4.34854 0.8606,-5.67679 1.8494,-5.99907 3.75946,-1.22534 1.78697,4.46608 3.69302,3.99254 2.79696,-0.69489 -0.50714,-2.65297 0.62104,-3.15483 2.66467,-1.18535 1.04897,1.01091 1.23029,0.86745 0.94792,-0.75 -0.21795,-1.24849 -1.56957,-2.35952 -3.59706,-2.9568 -3.91056,-1.152 -4.25271,-2.5432 -0.62548,-2.5432 2.25123,0 2.44101,-0.21862 1.34066,-1.54446 -0.86656,-1.04415 -2.17946,-1.34729 -4.05291,-0.93581 -2.13514,0.46895 -3.01721,0.14883 -3.84336,-1.39486 -0.70965,-1.32599 -0.73317,-2.21305 -0.0695,-2.6232 C 496.38828,255.64201 496.28466,247 494.8834,247 c -0.62841,0 -0.88541,-0.88421 -0.58778,-2.02232 C 494.94967,242.47647 492.34008,237 490.49415,237 c -0.74766,0 -1.65289,0.92477 -2.01162,2.05505 -0.70924,2.2346 -2.44575,2.17785 -3.50566,-0.11457 -0.36631,-0.79226 -1.18596,-2.44687 -1.82144,-3.67691 -0.63549,-1.23004 -1.15543,-2.69254 -1.15543,-3.25 0,-1.93637 2.77945,-0.99912 4.40804,1.48643 1.94727,2.9719 4.59196,3.29386 4.59196,0.55902 0,-1.06754 0.45,-2.2191 1,-2.55902 1.69104,-1.04512 1.10908,-2.5 -1,-2.5 -1.55556,0 -2,-0.66667 -2,-3 0,-1.65 0.4875,-3 1.08333,-3 1.59139,0 0.49221,-2.47641 -1.16942,-2.63465 -0.77765,-0.0741 -1.90418,-0.18656 -2.50339,-0.25 -0.59922,-0.0634 -1.58484,-1.20252 -2.19026,-2.53129 -0.87385,-1.91787 -0.80386,-2.52987 0.33948,-2.96861 0.79214,-0.30397 1.44026,-1.47538 1.44026,-2.60312 0,-1.68779 -0.44216,-1.93946 -2.5,-1.42297 -2.55717,0.6418 -3.01237,-0.0906 -1.88398,-3.03112 0.46174,-1.20326 1.41704,-1.45506 3.81414,-1.00537 2.2323,0.41879 3.58288,0.13635 4.47222,-0.93525 1.0853,-1.3077 0.85349,-1.62437 -1.56413,-2.13682 -1.56104,-0.33088 -3.63611,-1.03471 -4.61128,-1.56406 -1.15237,-0.62554 -2.44207,-0.6044 -3.68426,0.0604 -2.47753,1.32593 -2.61373,1.30898 -4.48047,-0.55776 C 473.47001,199.32715 474.43907,198 478.05902,198 479.83469,198 481,197.47472 481,196.67431 c 0,-1.53667 3.70551,-5.09613 6.23314,-5.98744 C 489.49747,189.8884 488.42298,187 485.86163,187 c -1.05842,0 -2.18243,-0.67242 -2.4978,-1.49426 -0.31537,-0.82184 -0.97625,-1.24528 -1.46861,-0.94098 -0.49237,0.3043 -0.89522,-1.22514 -0.89522,-3.39875 0,-2.49724 -0.52435,-4.15324 -1.42443,-4.49864 -0.78343,-0.30063 -2.21326,-2.20894 -3.17739,-4.24069 -1.63773,-3.45127 -1.6427,-3.77471 -0.0756,-4.92063 C 478.53854,165.8857 478.6621,159 476.47522,159 c -0.83861,0 -1.97107,1.17391 -2.51657,2.60869 -0.82984,2.18264 -1.23822,2.4042 -2.50048,1.35662 -1.34074,-1.11272 -1.32799,-1.45171 0.11453,-3.04568 1.79718,-1.98586 1.01347,-4.35855 -1.16369,-3.5231 -0.90101,0.34575 -1.62136,-0.42042 -2.05134,-2.18183 -0.36447,-1.49308 -1.49406,-3.78789 -2.51019,-5.09956 C 464.83138,147.80347 464,146.02489 464,145.16275 c 0,-0.86215 -1.43174,-3.04472 -3.18165,-4.85016 -1.7499,-1.80545 -2.96395,-3.50033 -2.69787,-3.7664 0.53138,-0.53139 10.94263,3.50546 13.05737,5.06286 0.72718,0.53553 2.55965,1.59362 4.07215,2.3513 1.5125,0.75769 2.75,1.68271 2.75,2.05562 0,0.37291 0.95024,1.75936 2.11165,3.08102 7.46687,8.49715 9.0096,11.16945 13.23117,22.91894 2.46703,6.86624 4.95701,14.95907 5.53328,17.98407 1.16331,6.10646 3.65129,27.15171 4.6697,39.5 0.36289,4.4 1.21862,8.9 1.90163,10 0.68301,1.1 1.50676,4.61202 1.83057,7.80448 0.33035,3.257 1.55561,7.42639 2.79176,9.5 1.21165,2.03254 3.27865,7.05843 4.59331,11.16866 1.31467,4.11022 3.44533,8.61022 4.7348,10 1.28948,1.38977 2.65966,3.87686 3.04486,5.52686 0.3852,1.65 2.24317,6.03804 4.12882,9.7512 1.88565,3.71317 3.42845,7.44063 3.42845,8.28325 0,0.84262 1.125,3.75212 2.5,6.46555 1.375,2.71343 2.5,5.64582 2.5,6.51642 0,0.87059 0.65713,2.85366 1.4603,4.4068 1.46123,2.82571 3.90583,12.73704 5.69181,23.07678 0.52251,3.025 0.96407,11.86324 0.98125,19.64052 0.0251,11.37034 -0.30021,14.78145 -1.6606,17.41215 -0.9305,1.7994 -1.93119,5.91145 -2.22376,9.13789 -0.29256,3.22645 -0.91827,6.10504 -1.39047,6.39687 -0.47219,0.29183 -0.85853,1.44728 -0.85853,2.56766 0,2.88239 -8.49995,18.09199 -10.95542,19.60338 C 524.92006,417.45063 524,418.64152 524,419.40488 524,420.8399 517.58109,427 516.08579,427 c -0.46455,0 -2.58639,1.68933 -4.71521,3.75406 -5.43241,5.26887 -16.15501,11.82902 -22.50302,13.76747 -2.95216,0.90148 -7.16756,2.24838 -9.36756,2.99311 -2.2,0.74473 -7.6,1.89027 -12,2.54565 -4.4,0.65538 -8.46581,1.76371 -9.03513,2.46294 -0.71538,0.87861 -0.64383,6.63169 0.23163,18.62405 0.69672,9.544 1.13212,17.78146 0.96755,18.30547 -0.35657,1.13539 -11.96826,1.5953 -13.67324,0.54157 z m -10.20477,-39.54161 c -0.30101,-0.30101 -3.77997,-0.55751 -7.73102,-0.57 -6.32887,-0.02 -7.03284,-0.20451 -5.91576,-1.55051 0.86101,-1.03746 2.30694,-1.3592 4.50518,-1.00247 1.96776,0.31932 3.38615,0.0785 3.61702,-0.61412 0.2089,-0.6267 3.27303,-1.67423 6.80918,-2.32784 7.48568,-1.38365 9.79572,-0.36227 6.06858,2.68321 -1.29844,1.06096 -1.86094,1.92902 -1.25,1.92902 0.61093,0 1.11078,0.45 1.11078,1 0,1.03296 -6.24199,1.42468 -7.21396,0.45271 z"
       style="fill:#36382f" />
  </g>
</svg>
