<?xml version="1.0" encoding="UTF-8" standalone="no"?>
<svg
   xmlns:dc="http://purl.org/dc/elements/1.1/"
   xmlns:cc="http://creativecommons.org/ns#"
   xmlns:rdf="http://www.w3.org/1999/02/22-rdf-syntax-ns#"
   xmlns:svg="http://www.w3.org/2000/svg"
   xmlns="http://www.w3.org/2000/svg"
   viewBox="0 0 800 600"
   height="600"
   width="800"
   version="1.1"
   id="svg4212">
  <metadata
     id="metadata4218">
    <rdf:RDF>
      <cc:Work
         rdf:about="">
        <dc:format>image/svg+xml</dc:format>
        <dc:type
           rdf:resource="http://purl.org/dc/dcmitype/StillImage" />
        <dc:title></dc:title>
      </cc:Work>
    </rdf:RDF>
  </metadata>
  <defs
     id="defs4216" />
  <g
     id="g9756">
    <path
       id="path9786"
       d="m 291.62569,495.06259 c -5.0217,-0.70274 -7.19167,-2.48821 -8.27697,-6.81035 -0.83866,-3.33994 0.24077,-5.18277 3.94149,-6.72903 3.49322,-1.45956 13.87739,-1.70629 66.50906,-1.58028 14.46459,0.0346 28.63959,-0.18781 31.5,-0.4943 2.8604,-0.30649 9.57617,-0.18092 14.92393,0.27904 13.86082,1.19218 13.7768,1.25057 13.7768,-9.57525 l 0,-8.91204 -5.75,-0.53527 c -9.11436,-0.84845 -29.26915,-4.48058 -30.5679,-5.50869 -0.65015,-0.51468 -2.9821,-1.50411 -5.1821,-2.19875 -4.31501,-1.36244 -17.49093,-9.23829 -20.90798,-12.49767 -6.1193,-5.83693 -5.97732,-5.78709 -10.2221,-3.58834 C 335.68174,439.85808 326.43225,442 319.39687,442 312.16494,442 298.16236,439.33668 296,437.54986 c -0.825,-0.68172 -3.975,-2.62868 -7,-4.32658 -5.41975,-3.04204 -9.00915,-6.31581 -12.30532,-11.22328 -0.92354,-1.375 -3.1993,-4.75 -5.05724,-7.5 -3.20595,-4.74522 -4.8114,-8.55325 -7.69389,-18.2494 -0.97215,-3.27012 -1.00471,-5.45938 -0.14128,-9.5 2.31336,-10.82584 2.26976,-12.47338 -0.37597,-14.20693 -1.89535,-1.24188 -2.4263,-2.46028 -2.4263,-5.56774 0,-3.60424 0.61898,-4.56338 6.58862,-10.20943 3.62375,-3.4273 8.01125,-7.2416 9.75,-8.47621 3.85,-2.73371 31.79501,-14.31055 36.66138,-15.1878 l 3.5,-0.63093 0.73949,-10.48578 c 0.40672,-5.76718 1.25725,-14.76078 1.89007,-19.98578 1.56091,-12.88791 2.03566,-40.82277 0.73508,-43.25293 -0.56487,-1.05545 -1.66054,-6.94282 -2.43484,-13.08304 -0.77429,-6.14022 -2.11736,-14.76403 -2.98459,-19.16403 -0.86723,-4.4 -1.97927,-10.475 -2.4712,-13.5 -0.49193,-3.025 -1.79297,-10 -2.89121,-15.5 -2.71075,-13.57553 -2.63322,-17.98195 0.4172,-23.71215 1.375,-2.58293 2.5,-5.21022 2.5,-5.83841 0,-0.6282 1.66499,-3.7228 3.69997,-6.87689 4.46237,-6.91638 13.1876,-12.98014 24.30003,-16.88776 6.23154,-2.19128 9.05236,-2.61009 16.67864,-2.47629 8.54716,0.14995 13.38885,1.19427 25.42172,5.4833 1.4302,0.50978 6.50269,4.16349 11.2722,8.11935 7.77003,6.44451 11.55836,10.8755 21.10799,24.68885 1.33082,1.925 3.33212,4.625 4.44733,6 1.1152,1.375 2.03765,3.01075 2.04988,3.63499 0.0122,0.62424 1.14878,1.87313 2.52566,2.7753 2.77511,1.81832 7.49658,8.74196 7.49658,10.99311 0,0.79373 1.05341,2.71518 2.34092,4.26987 1.28751,1.5547 3.61821,5.07673 5.17934,7.82673 1.56113,2.75 5.14497,7.7 7.96409,11 2.81912,3.3 6.14406,7.4625 7.38875,9.25 1.2447,1.7875 2.85067,3.25 3.56883,3.25 1.90409,0 19.39415,15.16053 29.84341,25.86854 3.41806,3.50269 6.94295,7.0494 7.83308,7.88158 8.55503,7.99799 10.81,10.45024 11.43898,12.43971 0.40171,1.27059 1.78878,3.70023 3.08239,5.39919 1.2936,1.69895 2.87318,4.62395 3.51017,6.5 0.63699,1.87604 3.14293,6.88064 5.56875,11.12133 4.25715,7.44211 8.28129,20.3709 8.28129,26.60618 0,1.47941 0.9,5.83697 2,9.68347 2.39511,8.37528 2.55772,18.83662 0.51294,33 -2.43976,16.89925 -4.63753,23.65112 -10.13365,31.13198 -1.26558,1.7226 -3.02962,4.95287 -3.9201,7.1784 -1.18679,2.96609 -4.9394,7.00232 -14.0557,15.11801 C 495.56334,437.01778 489.31059,442 488.50851,442 c -0.80209,0 -4.28213,1.51907 -7.73343,3.37572 -3.45129,1.85664 -7.62508,3.67793 -9.27508,4.0473 -6.31472,1.41361 -6.61064,2.12543 -6.87787,16.54421 -0.14651,7.90548 0.15257,13.39353 0.75004,13.76278 0.54655,0.33779 8.94429,0.55064 18.66165,0.473 16.41655,-0.13116 17.97949,0.016 22.06705,2.07792 3.84086,1.93746 4.43758,2.67917 4.70208,5.84469 0.19596,2.34514 -0.27074,4.19931 -1.32143,5.25 -1.75119,1.75119 -1.7359,1.75011 -25.48152,1.7961 -43.36551,0.084 -54.52031,0.0716 -66,-0.0734 -6.875,-0.0868 -14.3,-0.17559 -16.5,-0.1973 -2.2,-0.0217 -26.725,0.15922 -54.5,0.40208 -27.775,0.24286 -52.69344,0.13461 -55.37431,-0.24055 z m 154.33884,-15.7055 3.21452,-0.6429 -0.62402,-10.55826 c -0.34321,-5.80704 -0.84796,-10.7822 -1.12167,-11.0559 -0.2737,-0.27371 -2.51464,0.0418 -4.97985,0.70116 -2.46522,0.65935 -5.56861,1.19881 -6.89643,1.19881 -4.2217,0 -5.32886,2.2151 -5.45597,10.91573 l -0.11673,7.99071 3.75781,0.61337 c 2.06679,0.33735 4.43281,0.7562 5.25781,0.93078 2.70002,0.57134 3.70802,0.55781 6.96453,-0.0935 z"
       style="fill:#eeedd8" />
    <path
       id="path9784"
       d="m 308.08569,494.01186 c -18.55024,-0.66834 -19.49601,-0.80036 -21.25,-2.96645 -2.4911,-3.07637 -2.30685,-5.69059 0.53218,-7.55079 2.03477,-1.33324 9.31453,-1.61297 51.75,-1.98854 C 366.27804,481.2657 389.4,481.0345 390.5,480.9923 c 1.1,-0.0422 5.825,0.20897 10.5,0.55816 5.26726,0.39343 9.55924,0.22366 11.28511,-0.44638 l 2.78511,-1.08128 -0.28511,-10.2614 L 414.5,459.5 l -3.22814,0.32307 c -1.77548,0.17769 -6.50048,-0.34518 -10.5,-1.16194 -3.99952,-0.81675 -10.19686,-1.96698 -13.77186,-2.55607 -11.71048,-1.92963 -28.88508,-10.9825 -36.94617,-19.47462 -3.99498,-4.2086 -4.33322,-4.27975 -7.98484,-1.67957 -3.45399,2.45946 -16.24597,6.04957 -21.54889,6.04776 -9.28826,-0.003 -20.1364,-2.78442 -28.00669,-7.18041 -9.14713,-5.10916 -10.78276,-6.63536 -16.92939,-15.79676 -7.39519,-11.02234 -12.20048,-24.03864 -10.56247,-28.61102 0.37642,-1.05074 0.97398,-5.12222 1.32793,-9.04772 0.61646,-6.83709 0.53853,-7.20608 -1.85297,-8.77305 -4.5215,-2.9626 -3.43684,-6.70234 3.97788,-13.71513 9.41034,-8.90022 11.3448,-10.12405 24.2975,-15.37167 6.45046,-2.61332 13.25332,-5.45158 15.11747,-6.30725 1.86414,-0.85567 5.01414,-1.81896 7,-2.14064 l 3.61064,-0.58489 0.70426,-7.98504 c 1.52789,-17.32349 2.85829,-30.2318 3.64267,-35.34314 0.9204,-5.99771 -0.17744,-29.18173 -1.8535,-39.14191 -0.60159,-3.575 -1.2249,-7.85 -1.38514,-9.5 -0.16024,-1.65 -1.01466,-6.375 -1.89872,-10.5 -0.88405,-4.125 -2.06878,-10.875 -2.63272,-15 -0.56394,-4.125 -1.73579,-9.975 -2.60412,-13 -0.86833,-3.025 -1.84549,-9.65333 -2.17146,-14.72962 -0.54704,-8.51877 -0.38505,-9.71257 2.10322,-15.5 1.48274,-3.44871 3.01081,-6.76556 3.39571,-7.37079 7.68631,-12.08635 16.30263,-17.99717 31.90031,-21.88369 8.80593,-2.19421 22.77439,-0.20799 34.84631,4.95491 5.10693,2.18412 19.97597,15.11503 23.84157,20.73391 11.23544,16.33136 15.83115,22.60431 18.53191,25.29528 1.65601,1.65 4.16958,5.475 5.58572,8.5 4.55797,9.73626 23.42144,35.34765 26.94132,36.57888 1.07103,0.37464 4.22103,2.81018 7,5.41231 2.77896,2.60212 5.56875,4.90612 6.19952,5.11997 1.13379,0.38441 18.3004,16.70971 23.58655,22.43062 1.50337,1.62702 4.3812,4.2971 6.39516,5.93351 2.01396,1.63641 4.31252,4.53281 5.10792,6.43646 0.79539,1.90364 2.52822,4.87982 3.85074,6.61372 1.32251,1.73391 2.92876,4.6875 3.56944,6.56355 0.64069,1.87604 3.14347,6.83859 5.56175,11.0279 4.34753,7.53146 6.62177,14.72249 8.34391,26.38308 0.48737,3.3 1.57273,8.46057 2.4119,11.46793 2.44828,8.77394 1.64265,25.7677 -2.00393,42.27054 -1.45044,6.56407 -6.55964,18.08068 -8.57341,19.32526 -0.55189,0.34108 -2.03768,2.94128 -3.30176,5.77821 -1.53095,3.43585 -4.26773,6.88755 -8.19673,10.33792 -3.24412,2.84892 -8.34837,7.43369 -11.34277,10.18837 -2.99441,2.75469 -7.49441,5.77614 -10,6.71434 -2.5056,0.93821 -6.35563,2.72182 -8.55563,3.96359 -2.2,1.24177 -5.40169,2.54928 -7.11487,2.90557 -1.71317,0.3563 -4.02904,1.4995 -5.14636,2.54045 -1.86365,1.73626 -2.01941,3.00599 -1.88514,15.36735 0.0805,7.41109 0.40893,13.73707 0.72984,14.05773 1.52596,1.52477 26.27144,2.28472 31.51794,0.96793 2.97843,-0.74754 10.45326,1.91275 12.86626,4.57908 2.17086,2.39878 1.2086,5.82811 -1.97499,7.03851 -1.2849,0.48852 -20.4839,0.85943 -42.66443,0.82423 -22.18054,-0.0352 -42.82125,0.25438 -45.86825,0.64349 -3.98416,0.50879 -7.14655,0.24043 -11.26062,-0.95556 -4.26856,-1.24091 -6.54287,-1.41593 -8.96,-0.68955 -1.79121,0.53829 -16.45764,0.96537 -32.80698,0.95534 -16.26219,-0.01 -31.33719,0.19531 -33.5,0.45622 -2.16282,0.26091 -12.66884,0.15962 -23.34671,-0.22509 z m 139.45846,-14.02864 2.63235,-1.00082 -0.59709,-11.16671 c -0.3284,-6.14169 -0.79966,-11.36927 -1.04724,-11.61686 -0.74505,-0.74504 -16.57011,2.10273 -18.02074,3.24289 -0.85426,0.67142 -1.42894,3.61713 -1.57208,8.05828 -0.40907,12.69162 -0.69557,12.04022 5.81065,13.21087 6.00154,1.07983 8.39868,0.9435 12.79415,-0.72765 z M 309.19964,408.71121 c 1.92348,-3.02669 0.80103,-7.91054 -2.59964,-11.31121 -1.87,-1.87 -4.14958,-3.4 -5.06574,-3.4 -2.39054,0 -5.76032,1.89589 -7.76202,4.36704 -3.77391,4.65896 -0.72697,13.1083 4.99976,13.86467 3.07379,0.40597 9.25952,-1.68241 10.42764,-3.5205 z m -12.10378,-1.23586 c -3.01658,-3.1045 -3.27661,-3.78324 -2.284,-5.96176 2.06473,-4.5316 8.23533,-4.67716 11.52129,-0.2718 1.95916,2.62658 1.9748,2.88923 0.37215,6.25 -2.19063,4.59382 -5.13464,4.58878 -9.60944,-0.0164 z m 30.19823,-32.30322 c 1.39781,-1.21692 1.72913,-2.76641 1.5,-7.0152 -0.32031,-5.9394 -2.31083,-8.28825 -8.13623,-9.60087 -2.38613,-0.53766 -3.38893,-0.0607 -6.25,2.97296 -2.02293,2.14493 -3.40786,4.63929 -3.40786,6.13781 0,2.39881 3.203,8.01039 5.45182,9.55147 1.5865,1.0872 8.80871,-0.27579 10.84227,-2.04617 z m -10.61646,-3.26187 c -3.21444,-4.90966 -3.28554,-5.88062 -0.63867,-8.7217 3.61919,-3.88475 7.70853,-2.54745 10.86289,3.55241 1.94586,3.76288 -1.79737,9.25903 -6.30601,9.25903 -0.68231,0 -2.44551,-1.84038 -3.91821,-4.08974 z"
       style="fill:#d5d5ac" />
    <path
       id="path9782"
       d="m 407.83578,492.73666 c -1.28455,-1.02789 -6.07544,-1.27038 -21,-1.06294 -26.14856,0.36346 -90.73191,0.32576 -93.83578,-0.0548 -1.375,-0.16858 -2.99027,-0.3768 -3.58948,-0.46273 -0.59922,-0.0859 -1.5865,-1.24705 -2.19397,-2.58028 -1.65896,-3.64104 0.34579,-4.61247 9.40355,-4.55663 10.81736,0.0667 9.38974,0.0799 51.3799,-0.47562 20.625,-0.27286 39.3,-0.51849 41.5,-0.54583 2.2,-0.0273 7.6,0.0745 12,0.22622 5.61521,0.19367 8.8943,-0.17459 11,-1.23537 l 3,-1.5113 0.28383,-10.7387 0.28383,-10.73871 -5.28383,-0.0148 c -2.90611,-0.008 -7.98383,-0.63313 -11.28383,-1.3889 -3.3,-0.75576 -8.25,-1.69284 -11,-2.0824 -10.6404,-1.50729 -29.22592,-11.30651 -37.90465,-19.98524 l -3.88986,-3.88986 -5.10275,2.68794 c -6.32886,3.33382 -15.4272,5.67329 -22.06284,5.67307 -6.74552,-2.3e-4 -20.5443,-2.70434 -22.48349,-4.40604 -0.85603,-0.75118 -3.80641,-2.50013 -6.55641,-3.88654 -5.99109,-3.02041 -8.6527,-5.76633 -15.38009,-15.86728 -6.54956,-9.83394 -10.83014,-22.36384 -9.21903,-26.98548 0.60452,-1.73412 1.14398,-4.99829 1.1988,-7.25371 0.0548,-2.25543 0.41649,-5.22578 0.80371,-6.60078 0.59207,-2.10245 0.25817,-2.6911 -2.09968,-3.70173 C 263.63498,370.36871 263,369.42673 263,367.13904 c 0,-4.61447 14.30433,-17.81869 21.91133,-20.22618 1.97377,-0.62467 4.48867,-1.68081 5.58867,-2.34699 3.37564,-2.04434 23.07438,-9.56492 25.09608,-9.58118 3.50972,-0.0282 4.57996,-1.59358 4.85432,-7.09998 0.52429,-10.52284 2.62249,-31.43828 3.49956,-34.88471 1.44955,-5.69601 1.16686,-30.56808 -0.40159,-35.33155 C 322.79348,255.3758 321.87208,250.125 321.5008,246 c -0.37128,-4.125 -1.28215,-9.75 -2.02415,-12.5 -0.74201,-2.75 -1.86121,-9.275 -2.48712,-14.5 -0.62591,-5.225 -1.59491,-10.62213 -2.15333,-11.99363 -1.51129,-3.71171 -3.83327,-17.8211 -3.83483,-23.30218 -9.1e-4,-3.1986 0.83123,-6.35984 2.49863,-9.49204 1.375,-2.58293 2.5,-5.43222 2.5,-6.33175 0,-0.89953 0.70467,-2.22034 1.56594,-2.93512 0.86126,-0.71479 2.21808,-2.56073 3.01516,-4.1021 1.59009,-3.0749 9.37841,-9.13679 16.4189,-12.77933 6.96508,-3.60354 15.51378,-5.29845 23,-4.56012 7.214,0.71149 21.13066,4.72902 25,7.21712 6.01528,3.86801 17.20775,13.87207 19.75147,17.65428 1.5258,2.26868 5.28467,7.49987 8.35303,11.62487 3.06836,4.125 6.16172,8.625 6.87414,10 0.71241,1.375 2.7726,3.74054 4.5782,5.25676 1.82769,1.53476 4.05723,4.85929 5.02975,7.5 0.96076,2.60878 2.47204,5.64324 3.35839,6.74324 0.88635,1.1 3.71311,5.15 6.28168,9 2.56857,3.85 6.94335,9.68052 9.72174,12.95672 2.77838,3.27619 5.0516,6.30455 5.0516,6.72968 0,0.42512 1.6875,1.6383 3.75,2.69596 2.0625,1.05765 4.875,3.15166 6.25,4.65336 1.375,1.50169 3.71124,3.48211 5.19164,4.40093 2.72564,1.69168 17.6916,15.82005 23.43932,22.12749 1.72203,1.88972 4.82011,4.78586 6.88462,6.43586 2.06451,1.65 4.40918,4.54641 5.21037,6.43646 0.80119,1.89005 2.50859,4.81555 3.79423,6.50111 1.28563,1.68555 3.29331,5.29442 4.46151,8.01971 1.16819,2.72528 3.63009,7.44978 5.4709,10.49889 3.36495,5.57371 6.93162,17.3779 7.97539,26.39521 0.30885,2.66826 1.25908,6.90591 2.11162,9.41701 3.96516,11.67909 0.42351,42.72928 -6.31561,55.37001 -9.1093,17.08653 -9.68495,17.86636 -20.22399,27.39712 -8.39357,7.59055 -12.53185,10.49541 -20.62824,14.47997 -5.57054,2.74148 -10.97054,4.99452 -12,5.00675 -1.02947,0.0122 -2.99188,0.88284 -4.36091,1.93469 -2.47631,1.90259 -2.48783,1.98866 -2.23443,16.69333 0.1463,8.48992 0.69493,15.22114 1.28903,15.81531 0.63416,0.63423 8.32679,1.06117 19.8839,1.10355 15.99554,0.0587 19.24334,0.32712 21.45012,1.77305 3.24786,2.12808 3.43863,5.44365 0.35053,6.09243 -2.22727,0.46793 -50.77246,1.80019 -58,1.59174 -16.31097,-0.47043 -21.35894,-0.42555 -29.25,0.26005 -6.93596,0.60263 -9.38167,0.47655 -10.66422,-0.54973 z m 39.03666,-11.55737 3.62756,-1.72114 -0.35257,-11.47908 c -0.19391,-6.31349 -0.64391,-11.74118 -1,-12.06153 -1.07866,-0.97042 -17.98871,1.52374 -19.31365,2.84868 -1.83989,1.83989 -2.4365,22.10782 -0.66572,22.6156 9.47317,2.71645 11.60357,2.69208 17.70438,-0.20253 z M 308.07692,410.07692 c 3.76459,-3.76459 3.74519,-7.25111 -0.0671,-12.06457 -3.72058,-4.69761 -7.04099,-5.4659 -11.27917,-2.60979 -6.50865,4.38618 -7.30573,10.3064 -2.04414,15.18267 3.82464,3.54456 9.55512,3.32703 13.39045,-0.50831 z m -10.38983,-2.88164 C 293.3608,402.67961 294.64398,399 300.54501,399 c 5.19621,0 7.87425,4.47957 5.41981,9.06574 -1.48341,2.77176 -5.15851,2.3853 -8.27773,-0.87046 z m 29.331,-31.00885 c 1.62687,-1.31735 2.37554,-3.2276 2.73625,-6.98159 0.46343,-4.82305 0.28089,-5.36951 -2.73463,-8.18643 -3.17007,-2.96129 -8.09867,-4.01527 -10.5358,-2.2531 -2.3706,1.71407 -6.48391,7.52593 -6.48391,9.16138 0,0.97528 1.35282,3.64075 3.00627,5.92327 2.73692,3.77821 3.39897,4.15004 7.38922,4.15004 2.74279,0 5.22105,-0.67866 6.6226,-1.81357 z m -9.9853,-4.85544 c -2.62176,-4.44354 -2.03812,-7.91581 1.60992,-9.57797 2.34623,-1.06901 2.85655,-0.87786 5.47241,2.04979 3.3899,3.79396 3.64427,6.4378 0.88488,9.19719 -3.01035,3.01035 -5.51602,2.48545 -7.96721,-1.66901 z"
       style="fill:#fad95c" />
    <path
       id="path9780"
       d="m 407.83578,492.73666 c -1.28455,-1.02789 -6.07544,-1.27038 -21,-1.06294 -26.14856,0.36346 -90.73191,0.32576 -93.83578,-0.0548 -1.375,-0.16858 -2.99027,-0.3768 -3.58948,-0.46273 -0.59922,-0.0859 -1.5865,-1.24705 -2.19397,-2.58028 -1.65896,-3.64104 0.34579,-4.61247 9.40355,-4.55663 10.81736,0.0667 9.38974,0.0799 51.3799,-0.47562 20.625,-0.27286 39.3,-0.51849 41.5,-0.54583 2.2,-0.0273 7.6,0.0745 12,0.22622 5.61521,0.19367 8.8943,-0.17459 11,-1.23537 l 3,-1.5113 0.28383,-10.7387 0.28383,-10.73871 -5.28383,-0.0148 c -2.90611,-0.008 -7.98383,-0.63313 -11.28383,-1.3889 -3.3,-0.75576 -8.25,-1.69284 -11,-2.0824 -10.94106,-1.54988 -29.72266,-11.5889 -38.38996,-20.51997 l -4.14779,-4.27402 -6.23113,3.12844 c -9.27363,4.65597 -17.99279,5.80242 -29.73112,3.90922 -8.06259,-1.30036 -10.78207,-2.27369 -17.97331,-6.43278 -8.18284,-4.73259 -8.68821,-5.24208 -14.74254,-14.8627 -3.44808,-5.47916 -7.20278,-12.95471 -8.34379,-16.61234 -2.0886,-6.69527 -1.96353,-11.74335 0.60381,-24.37069 0.56097,-2.7591 0.32565,-3.10579 -2.71499,-4 -2.7345,-0.80419 -3.38327,-1.53434 -3.63199,-4.08759 -0.26003,-2.66945 0.56216,-3.94067 5.82095,-9 6.2112,-5.97562 13.37956,-11.32303 15.38234,-11.47482 0.60474,-0.0458 1.99952,-0.22459 3.09952,-0.39723 2.46414,-0.38675 19.80994,-7.61897 20.5,-8.54735 0.99644,-1.34056 4.92085,-2.97244 7.18426,-2.9874 3.94027,-0.0261 4.98378,-1.43295 5.26614,-7.09998 0.52429,-10.52284 2.62249,-31.43828 3.49956,-34.88471 1.44955,-5.69601 1.16686,-30.56808 -0.40159,-35.33155 -0.75489,-2.2926 -1.67629,-7.5434 -2.04757,-11.6684 -0.37128,-4.125 -1.28215,-9.75 -2.02415,-12.5 -0.74201,-2.75 -1.86121,-9.275 -2.48712,-14.5 -0.62591,-5.225 -1.59491,-10.62213 -2.15333,-11.99363 -1.51129,-3.71171 -3.83327,-17.8211 -3.83483,-23.30218 -9.1e-4,-3.1986 0.83123,-6.35984 2.49863,-9.49204 1.375,-2.58293 2.5,-5.43222 2.5,-6.33175 0,-0.89953 0.70467,-2.22034 1.56594,-2.93512 0.86126,-0.71479 2.21808,-2.56073 3.01516,-4.1021 1.59009,-3.0749 9.37841,-9.13679 16.4189,-12.77933 6.96508,-3.60354 15.51378,-5.29845 23,-4.56012 7.214,0.71149 21.13066,4.72902 25,7.21712 6.01528,3.86801 17.20775,13.87207 19.75147,17.65428 1.5258,2.26868 5.28467,7.49987 8.35303,11.62487 3.06836,4.125 6.16172,8.625 6.87414,10 0.71241,1.375 2.7726,3.74054 4.5782,5.25676 1.82769,1.53476 4.05723,4.85929 5.02975,7.5 0.96076,2.60878 2.47204,5.64324 3.35839,6.74324 0.88635,1.1 3.71311,5.15 6.28168,9 2.56857,3.85 6.94335,9.68052 9.72174,12.95672 2.77838,3.27619 5.0516,6.30455 5.0516,6.72968 0,0.42512 1.6875,1.6383 3.75,2.69596 2.0625,1.05765 4.875,3.15166 6.25,4.65336 1.375,1.50169 3.71124,3.48211 5.19164,4.40093 2.72564,1.69168 17.6916,15.82005 23.43932,22.12749 1.72203,1.88972 4.82011,4.78586 6.88462,6.43586 2.06451,1.65 4.40918,4.54641 5.21037,6.43646 0.80119,1.89005 2.50859,4.81555 3.79423,6.50111 1.28563,1.68555 3.29331,5.29442 4.46151,8.01971 1.16819,2.72528 3.63009,7.44978 5.4709,10.49889 3.36495,5.57371 6.93162,17.3779 7.97539,26.39521 0.30885,2.66826 1.25908,6.90591 2.11162,9.41701 3.96516,11.67909 0.42351,42.72928 -6.31561,55.37001 -9.1093,17.08653 -9.68495,17.86636 -20.22399,27.39712 -8.39357,7.59055 -12.53185,10.49541 -20.62824,14.47997 -5.57054,2.74148 -10.97054,4.99452 -12,5.00675 -1.02947,0.0122 -2.99188,0.88284 -4.36091,1.93469 -2.47631,1.90259 -2.48783,1.98866 -2.23443,16.69333 0.1463,8.48992 0.69493,15.22114 1.28903,15.81531 0.63416,0.63423 8.32679,1.06117 19.8839,1.10355 15.99554,0.0587 19.24334,0.32712 21.45012,1.77305 3.24786,2.12808 3.43863,5.44365 0.35053,6.09243 -2.22727,0.46793 -50.77246,1.80019 -58,1.59174 -16.31097,-0.47043 -21.35894,-0.42555 -29.25,0.26005 -6.93596,0.60263 -9.38167,0.47655 -10.66422,-0.54973 z m 39.03666,-11.55737 3.62756,-1.72114 -0.35257,-11.47908 c -0.19391,-6.31349 -0.64391,-11.74118 -1,-12.06153 -1.07866,-0.97042 -17.98871,1.52374 -19.31365,2.84868 -1.83989,1.83989 -2.4365,22.10782 -0.66572,22.6156 9.47317,2.71645 11.60357,2.69208 17.70438,-0.20253 z M 306.3598,413.62303 c 3.98343,-1.66439 6.92776,-7.07621 5.81771,-10.69324 -1.26663,-4.12722 -4.54316,-8.77536 -6.96309,-9.87795 -8.05039,-3.66801 -17.9643,5.11593 -15.20621,13.47304 2.33611,7.07849 9.2331,10.07244 16.35159,7.09815 z m -8.67271,-6.42775 C 293.3608,402.67961 294.64398,399 300.54501,399 c 5.19621,0 7.87425,4.47957 5.41981,9.06574 -1.48341,2.77176 -5.15851,2.3853 -8.27773,-0.87046 z m 31.00407,-30.62262 C 330.47967,374.49339 331,372.68489 331,368.54783 c 0,-4.8616 -0.31706,-5.61903 -3.5348,-8.44424 -5.08683,-4.4663 -9.91991,-4.31554 -14.69379,0.45834 -1.95906,1.95906 -3.76742,4.63688 -4.01858,5.95072 -0.53765,2.81252 1.49186,7.38032 4.92509,11.08482 2.19122,2.36438 2.99417,2.59241 7.57766,2.15199 3.9624,-0.38073 5.6511,-1.10222 7.43558,-3.1768 z m -11.65837,-5.24167 c -2.62176,-4.44354 -2.03812,-7.91581 1.60992,-9.57797 2.34623,-1.06901 2.85655,-0.87786 5.47241,2.04979 3.3899,3.79396 3.64427,6.4378 0.88488,9.19719 -3.01035,3.01035 -5.51602,2.48545 -7.96721,-1.66901 z"
       style="fill:#fbd72a" />
    <path
       id="path9778"
       d="m 407.83578,492.73666 c -1.28455,-1.02789 -6.07544,-1.27038 -21,-1.06294 -26.14856,0.36346 -90.73191,0.32576 -93.83578,-0.0548 -1.375,-0.16858 -2.99027,-0.3768 -3.58948,-0.46273 -0.59922,-0.0859 -1.5865,-1.24705 -2.19397,-2.58028 -1.65896,-3.64104 0.34579,-4.61247 9.40355,-4.55663 10.81736,0.0667 9.38974,0.0799 51.3799,-0.47562 20.625,-0.27286 39.3,-0.51849 41.5,-0.54583 2.2,-0.0273 7.6,0.0745 12,0.22622 5.61521,0.19367 8.8943,-0.17459 11,-1.23537 l 3,-1.5113 0.28383,-10.7387 0.28383,-10.73871 -5.28383,-0.0148 c -2.90611,-0.008 -7.98383,-0.63313 -11.28383,-1.3889 -3.3,-0.75576 -8.25,-1.69284 -11,-2.0824 -10.59591,-1.50098 -29.22322,-11.3038 -37.82547,-19.90606 -2.15521,-2.15521 -3.57783,-4.41748 -3.27468,-5.20747 0.33516,-0.87341 -1.7939,-0.21746 -5.68192,1.75057 -11.56847,5.85567 -22.42858,7.23958 -35.21793,4.48782 -6.93657,-1.49247 -21.53256,-9.51333 -23.9073,-13.13765 -2.56687,-3.91754 -1.87098,-4.59802 2.6573,-2.59843 9.72294,4.29344 14.91592,4.96033 26.37914,3.38764 5.31151,-0.72871 6.88947,-1.49045 11.82872,-5.71019 7.16077,-6.11763 9.52897,-9.97797 12.44568,-20.28732 1.83037,-6.4696 2.10174,-8.79846 1.28174,-11 -0.57213,-1.53606 -1.97287,-5.26148 -3.11276,-8.27871 C 332.93264,375.99688 332,371.58703 332,369.21446 c 0,-2.37258 -0.65518,-5.58075 -1.45595,-7.12927 -2.5022,-4.83873 -10.91754,-7.56122 -15.60979,-5.05001 -1.31054,0.70138 -2.54346,0.70916 -3.82348,0.0241 -1.03907,-0.5561 -4.14144,-1.23527 -6.89414,-1.50928 -4.13657,-0.41177 -6.79351,0.17668 -15.31375,3.39164 -8.576,3.23601 -11.02652,4.66042 -14.57855,8.4741 -4.39164,4.71513 -6.0442,5.33973 -9.39008,3.54907 -3.78806,-2.02731 -2.47182,-6.2681 3.81574,-12.29395 3.1625,-3.03086 6.9612,-6.45868 8.44155,-7.61737 3.19634,-2.50181 10.27105,-5.61102 9.34018,-4.10484 -0.94266,1.52526 -0.0136,1.32306 5.78235,-1.25848 2.85225,-1.2704 7.97993,-3.39277 11.39484,-4.71637 3.4149,-1.32361 5.76463,-2.68114 5.22162,-3.01674 -1.24561,-0.76983 3.42826,-2.95196 6.36651,-2.97238 3.82212,-0.0266 4.87306,-1.4745 5.15335,-7.09998 0.52429,-10.52284 2.62249,-31.43828 3.49956,-34.88471 1.44955,-5.69601 1.16686,-30.56808 -0.40159,-35.33155 C 322.79348,255.3758 321.87208,250.125 321.5008,246 c -0.37128,-4.125 -1.28215,-9.75 -2.02415,-12.5 -0.74201,-2.75 -1.86121,-9.275 -2.48712,-14.5 -0.62591,-5.225 -1.59491,-10.62213 -2.15333,-11.99363 -1.51129,-3.71171 -3.83327,-17.8211 -3.83483,-23.30218 -9.1e-4,-3.1986 0.83123,-6.35984 2.49863,-9.49204 1.375,-2.58293 2.5,-5.43222 2.5,-6.33175 0,-0.89953 0.70467,-2.22034 1.56594,-2.93512 0.86126,-0.71479 2.21808,-2.56073 3.01516,-4.1021 1.59009,-3.0749 9.37841,-9.13679 16.4189,-12.77933 6.96508,-3.60354 15.51378,-5.29845 23,-4.56012 7.214,0.71149 21.13066,4.72902 25,7.21712 6.01528,3.86801 17.20775,13.87207 19.75147,17.65428 1.5258,2.26868 5.28467,7.49987 8.35303,11.62487 3.06836,4.125 6.16172,8.625 6.87414,10 0.71241,1.375 2.7726,3.74054 4.5782,5.25676 1.82769,1.53476 4.05723,4.85929 5.02975,7.5 0.96076,2.60878 2.47204,5.64324 3.35839,6.74324 0.88635,1.1 3.71311,5.15 6.28168,9 2.56857,3.85 6.94335,9.68052 9.72174,12.95672 2.77838,3.27619 5.0516,6.30455 5.0516,6.72968 0,0.42512 1.6875,1.6383 3.75,2.69596 2.0625,1.05765 4.875,3.15166 6.25,4.65336 1.375,1.50169 3.71124,3.48211 5.19164,4.40093 2.72564,1.69168 17.6916,15.82005 23.43932,22.12749 1.72203,1.88972 4.82011,4.78586 6.88462,6.43586 2.06451,1.65 4.40918,4.54641 5.21037,6.43646 0.80119,1.89005 2.50859,4.81555 3.79423,6.50111 1.28563,1.68555 3.29331,5.29442 4.46151,8.01971 1.16819,2.72528 3.63009,7.44978 5.4709,10.49889 3.36495,5.57371 6.93162,17.3779 7.97539,26.39521 0.30885,2.66826 1.25908,6.90591 2.11162,9.41701 3.96516,11.67909 0.42351,42.72928 -6.31561,55.37001 -9.1093,17.08653 -9.68495,17.86636 -20.22399,27.39712 -8.39357,7.59055 -12.53185,10.49541 -20.62824,14.47997 -5.57054,2.74148 -10.97054,4.99452 -12,5.00675 -1.02947,0.0122 -2.99188,0.88284 -4.36091,1.93469 -2.47631,1.90259 -2.48783,1.98866 -2.23443,16.69333 0.1463,8.48992 0.69493,15.22114 1.28903,15.81531 0.63416,0.63423 8.32679,1.06117 19.8839,1.10355 15.99554,0.0587 19.24334,0.32712 21.45012,1.77305 3.24786,2.12808 3.43863,5.44365 0.35053,6.09243 -2.22727,0.46793 -50.77246,1.80019 -58,1.59174 -16.31097,-0.47043 -21.35894,-0.42555 -29.25,0.26005 -6.93596,0.60263 -9.38167,0.47655 -10.66422,-0.54973 z m 39.03666,-11.55737 3.62756,-1.72114 -0.35257,-11.47908 c -0.19391,-6.31349 -0.64391,-11.74118 -1,-12.06153 -1.07866,-0.97042 -17.98871,1.52374 -19.31365,2.84868 -1.83989,1.83989 -2.4365,22.10782 -0.66572,22.6156 9.47317,2.71645 11.60357,2.69208 17.70438,-0.20253 z M 297.68709,407.19528 C 293.3608,402.67961 294.64398,399 300.54501,399 c 5.19621,0 7.87425,4.47957 5.41981,9.06574 -1.48341,2.77176 -5.15851,2.3853 -8.27773,-0.87046 z m 23.02549,-3.81604 c -1.34617,-1.34616 -0.70841,-4.88938 1.99852,-11.10331 3.02544,-6.94507 4.10441,-7.79388 7.1741,-5.64379 2.76056,1.93358 2.59493,4.64898 -0.6934,11.36786 -2.08557,4.26133 -3.26326,5.56664 -5.22922,5.79591 -1.39559,0.16275 -2.85809,-0.0247 -3.25,-0.41667 z m -3.67979,-32.04825 c -2.62176,-4.44354 -2.03812,-7.91581 1.60992,-9.57797 2.34623,-1.06901 2.85655,-0.87786 5.47241,2.04979 3.3899,3.79396 3.64427,6.4378 0.88488,9.19719 -3.01035,3.01035 -5.51602,2.48545 -7.96721,-1.66901 z"
       style="fill:#b2b193" />
    <path
       id="path9776"
       d="m 407.91307,490.70855 c -1.60626,-3.52535 -0.65027,-5.39908 3.80611,-7.46003 2.07945,-0.96169 4.13547,-2.19852 4.56894,-2.74852 0.43346,-0.55 0.61394,-5.725 0.40105,-11.5 l -0.38706,-10.5 -7.40106,-0.62669 c -4.07058,-0.34468 -9.20105,-1.10203 -11.40105,-1.683 -2.2,-0.58098 -6.7,-1.36949 -10,-1.75226 -3.3,-0.38277 -7.66957,-1.53792 -9.71016,-2.567 C 375.74925,450.84197 373.46853,450 372.72157,450 c -2.09568,0 -18.80949,-11.3138 -22.58399,-15.2874 -1.9062,-2.00675 -3.05444,-4.03811 -2.65129,-4.69042 0.39112,-0.63284 -2.14579,0.2954 -5.63758,2.06276 -11.70517,5.92454 -22.50923,7.31639 -35.34871,4.55384 -6.93657,-1.49247 -21.53256,-9.51333 -23.9073,-13.13765 -2.56687,-3.91754 -1.87098,-4.59802 2.6573,-2.59843 9.72294,4.29344 14.91592,4.96033 26.37914,3.38764 5.31151,-0.72871 6.88947,-1.49045 11.82872,-5.71019 7.16077,-6.11763 9.52897,-9.97797 12.44568,-20.28732 1.83037,-6.4696 2.10174,-8.79846 1.28174,-11 -0.57213,-1.53606 -1.97287,-5.26148 -3.11276,-8.27871 C 332.93264,375.99688 332,371.58703 332,369.21446 c 0,-2.37258 -0.65518,-5.58075 -1.45595,-7.12927 -2.5022,-4.83873 -10.91754,-7.56122 -15.60979,-5.05001 -1.31054,0.70138 -2.54346,0.70916 -3.82348,0.0241 -1.03907,-0.5561 -4.14144,-1.23527 -6.89414,-1.50928 -4.13657,-0.41177 -6.79351,0.17668 -15.31375,3.39164 -8.56861,3.23322 -11.02791,4.66192 -14.56867,8.46349 -3.93161,4.22122 -4.47304,4.49258 -7.02668,3.52169 -2.6933,-1.02399 -4.26112,-2.57678 -4.29223,-4.25107 -0.0276,-1.48769 11.22448,-12.64612 15.82543,-15.69366 2.47618,-1.64015 5.34969,-2.9821 6.38557,-2.9821 1.03588,0 3.77123,-0.85015 6.07855,-1.88922 2.30733,-1.03908 7.34514,-3.13197 11.19514,-4.65089 3.85,-1.51891 7.26161,-3.16002 7.58136,-3.64692 0.31974,-0.4869 2.79474,-1.4315 5.5,-2.09912 L 320.5,334.5 l 0.64343,-9 c 0.35389,-4.95 0.93851,-13.05 1.29917,-18 0.36066,-4.95 1.06914,-10.575 1.57441,-12.5 1.65076,-6.2891 1.6077,-33.2401 -0.0601,-37.58592 -0.61507,-1.60274 -1.30459,-4.48908 -1.53226,-6.41408 -0.82406,-6.96745 -2.21485,-15.66056 -3.75972,-23.5 -0.86708,-4.4 -1.79887,-10.57495 -2.07063,-13.7221 -0.27177,-3.14716 -0.9126,-6.52216 -1.42408,-7.5 -1.67364,-3.19966 -4.43471,-21.2697 -3.88089,-25.39876 0.29762,-2.2189 1.2192,-4.78694 2.04796,-5.70676 0.82876,-0.91981 1.84094,-3.02238 2.24929,-4.67238 1.19736,-4.83808 7.16632,-12.65838 12.74057,-16.69219 2.84504,-2.05881 5.79468,-3.75781 6.55477,-3.77555 0.76008,-0.0177 2.78508,-0.87731 4.5,-1.91016 8.10029,-4.87856 21.4399,-5.04166 35.61803,-0.43548 8.46938,2.75152 9.9816,3.61503 18.79303,10.73113 5.95159,4.8065 21.55075,24.54501 25.62655,32.42673 0.89212,1.72518 2.79722,3.90669 4.23356,4.84782 1.43633,0.94112 3.91281,4.43286 5.50328,7.75941 3.06016,6.4005 6.98514,12.53398 13.78935,21.54829 9.2003,12.18871 12.07746,15.4619 14.89637,16.94685 4.0834,2.15105 9.75809,7.16634 27.78139,24.55315 8.55201,8.25 16.18527,15.59464 16.96279,16.32143 0.77752,0.72678 1.41368,1.87686 1.41368,2.55572 0,0.67886 1.17538,2.78422 2.61196,4.67857 1.43658,1.89435 3.52063,5.46928 4.63123,7.94428 1.1106,2.475 3.81942,7.60488 6.01959,11.39973 3.91936,6.76006 6.87288,16.13742 8.22064,26.10027 0.37202,2.75 1.36379,7.17419 2.20393,9.83153 2.14441,6.78265 1.89701,24.53646 -0.52565,37.72241 -1.44312,7.85453 -2.92671,12.40677 -5.8004,17.79796 -2.12371,3.98421 -5.02879,9.50467 -6.45571,12.26769 -1.7415,3.37213 -6.01528,8.13891 -13,14.4996 -8.43316,7.67972 -12.32856,10.41469 -20.55022,14.42837 -5.57954,2.72384 -10.97954,4.95468 -12,4.95741 -1.02045,0.003 -3.15399,1.04411 -4.7412,2.31417 l -2.88583,2.30921 0.14367,12.93582 c 0.079,7.11471 0.41409,15.44224 0.74461,18.50562 0.78415,7.26796 -0.40498,8.45386 -9.36189,9.33645 -8.04625,0.79286 -10.0555,0.23574 -10.87121,-3.01431 -0.90866,-3.6204 0.22646,-5.39961 4.52118,-7.08663 2.66574,-1.04713 4.04729,-2.27382 4.35116,-3.86342 0.70606,-3.69349 -0.4337,-22.88256 -1.39605,-23.50421 -0.99148,-0.64046 -17.51828,1.40478 -19.97683,2.4722 -2.04428,0.88755 -3.27923,14.13776 -2.31224,24.80885 0.82929,9.15155 0.36528,9.61747 -10.40514,10.44803 -7.97132,0.6147 -8.09186,0.58919 -9.25253,-1.9582 z M 299.10283,407.27732 c -3.81135,-3.34441 -3.98045,-5.99315 -0.46785,-7.32864 5.40416,-2.05466 9.83819,4.43529 5.79359,8.47989 -1.98569,1.9857 -1.67403,2.05307 -5.32574,-1.15125 z m 21.60975,-3.89808 c -1.34617,-1.34616 -0.70841,-4.88938 1.99852,-11.10331 3.02544,-6.94507 4.10441,-7.79388 7.1741,-5.64379 2.76056,1.93358 2.59493,4.64898 -0.6934,11.36786 -2.08557,4.26133 -3.26326,5.56664 -5.22922,5.79591 -1.39559,0.16275 -2.85809,-0.0247 -3.25,-0.41667 z m -3.08597,-32.77399 c -3.46731,-6.43841 1.49376,-11.49177 6.0648,-6.17762 2.69451,3.13256 2.94009,5.79801 0.73716,8.00094 -2.48046,2.48047 -4.82228,1.85272 -6.80196,-1.82332 z"
       style="fill:#98d14d" />
    <path
       id="path9774"
       d="m 407.91307,490.70855 c -1.60626,-3.52535 -0.65027,-5.39908 3.80611,-7.46003 2.07945,-0.96169 4.13547,-2.19852 4.56894,-2.74852 0.43346,-0.55 0.61491,-5.725 0.40321,-11.5 l -0.3849,-10.5 -4.40321,-0.23471 c -4.27022,-0.22762 -16.79682,-2.35543 -25.83245,-4.38799 -2.43608,-0.548 -5.65554,-1.86957 -7.15437,-2.93683 C 377.41757,449.87321 375.6803,449 375.05579,449 c -1.78857,0 -8.86307,-3.846 -9.75216,-5.30169 -0.442,-0.72367 -2.28455,-1.91405 -4.09456,-2.64531 -7.2845,-2.94297 -10.89148,-8.053 -5.68432,-8.053 1.72233,0 2.80572,0.73901 3.4088,2.32524 1.67707,4.41102 9.40949,7.55035 10.64794,4.32301 0.30583,-0.79699 1.46665,-1.17054 2.8285,-0.91021 1.73721,0.33209 2.45178,-0.10144 2.88259,-1.74886 0.31504,-1.20473 1.01085,-1.91969 1.54623,-1.5888 0.53539,0.33089 0.73819,1.50116 0.45068,2.60062 -0.37158,1.42093 -0.0301,1.999 1.18074,1.999 0.96598,0 2.183,1.27034 2.81104,2.93421 1.49118,3.95059 4.48767,4.66702 5.96437,1.42602 0.91913,-2.01728 1.61075,-2.3621 3.69068,-1.84008 1.40777,0.35333 2.59386,0.71834 2.63575,0.81113 3.51901,7.7947 3.10554,7.43493 9.38202,8.16339 3.76522,0.437 7.27635,0.25435 9.55276,-0.49693 1.97965,-0.65334 4.6512,-0.9239 5.93677,-0.60125 1.76932,0.44407 2.73687,-0.023 3.98103,-1.92183 1.33634,-2.03952 1.9998,-2.31787 3.5488,-1.48887 1.04784,0.56079 2.13872,0.64174 2.42416,0.17988 C 429.17278,445.91142 426.1155,442 424.35996,442 c -2.29637,0 -1.02795,-2.4522 1.45771,-2.81815 1.38669,-0.20416 3.01417,0.67369 4.54204,2.44995 2.31552,2.69195 2.45192,2.72165 4.95826,1.07943 1.41748,-0.92877 3.2303,-1.43807 4.02848,-1.13178 1.70369,0.65377 3.15863,-1.14926 1.66986,-2.06937 C 440.45734,439.16462 440,438.53076 440,438.1015 c 0,-1.28489 4.85565,-3.09412 6.55449,-2.44222 C 448.62484,436.45375 463,421.90443 463,419.01453 c 0,-2.15783 0.18679,-2.61962 4.25319,-10.51453 4.87723,-9.46917 5.62302,-25.2206 2.10695,-44.5 -3.1607,-17.33084 -6.40048,-28.36023 -9.89889,-33.69948 l -1.63853,-2.50072 -9.66136,9.3501 c -5.31375,5.14256 -11.6186,11.04483 -14.01078,13.11618 -4.88557,4.23032 -4.65777,1.93333 -2.17743,21.95642 1.32585,10.70314 0.57086,16.79971 -2.99522,24.18652 -6.41589,13.28998 -12.45747,18.37042 -23.19919,19.50853 -3.45331,0.36589 -7.55464,1.51104 -9.11408,2.54478 -1.59732,1.05885 -3.12556,1.47741 -3.5,0.9586 -0.36556,-0.50651 -2.89374,-2.04593 -5.61817,-3.42093 -7.43417,-3.75196 -11.68535,-6.70658 -15.36551,-10.6792 -3.65485,-3.9453 -4.12725,-3.76938 -6.52241,2.42897 -1.65241,4.27621 -12.60013,18.65507 -14.91557,19.59028 -0.73426,0.29657 -0.52675,0.53437 0.507,0.581 1.03848,0.0469 1.75,0.86812 1.75,2.01993 0,2.86683 -1.71252,3.41764 -3.63713,1.16985 -1.67267,-1.95354 -1.75435,-1.94191 -7.77665,1.10661 -11.43088,5.78638 -22.34804,7.16209 -35.08622,4.42134 -6.93657,-1.49247 -21.53256,-9.51333 -23.9073,-13.13765 -2.56687,-3.91754 -1.87098,-4.59802 2.6573,-2.59843 9.72294,4.29344 14.91592,4.96033 26.37914,3.38764 5.31151,-0.72871 6.88947,-1.49045 11.82872,-5.71019 7.16077,-6.11763 9.52897,-9.97797 12.44568,-20.28732 1.83037,-6.4696 2.10174,-8.79846 1.28174,-11 -0.57213,-1.53606 -1.97287,-5.26148 -3.11276,-8.27871 C 332.93264,375.99688 332,371.58703 332,369.21446 c 0,-2.37258 -0.65518,-5.58075 -1.45595,-7.12927 -2.5022,-4.83873 -10.91754,-7.56122 -15.60979,-5.05001 -1.31054,0.70138 -2.54346,0.70916 -3.82348,0.0241 -1.03907,-0.5561 -4.14144,-1.23527 -6.89414,-1.50928 -4.13547,-0.41166 -6.80396,0.17884 -15.36078,3.39914 -8.40101,3.16166 -11.0422,4.66691 -13.99173,7.9741 C 272.41435,369.67009 270.39879,371 268.68556,371 266.12788,371 263,368.71928 263,366.85433 c 0,-1.64616 10.99361,-12.66163 15.84074,-15.87223 2.47618,-1.64015 5.34969,-2.9821 6.38557,-2.9821 1.03588,0 3.77123,-0.85015 6.07855,-1.88922 2.30733,-1.03908 7.34514,-3.1229 11.19514,-4.63072 3.85,-1.50783 7.7361,-3.38091 8.63578,-4.1624 C 313.34587,335.39789 324,334.74579 324,336.53029 c 0,0.71667 -0.5625,1.53002 -1.25,1.80743 -0.6875,0.27741 1,0.54145 3.75,0.58676 7.35354,0.12115 18.94703,5.14215 24.53435,10.62552 2.49389,2.4475 4.84382,4.45 5.22206,4.45 0.37825,0 1.43288,-2.5875 2.34364,-5.75 3.6468,-12.66317 9.49342,-20.09956 19.39309,-24.66635 8.17816,-3.77264 12.52272,-4.11963 20.59697,-1.64504 8.63809,2.64741 16.36111,7.86471 21.0036,14.18905 1.96715,2.67979 3.79333,4.87234 4.05818,4.87234 0.69996,0 7.17223,-4.874 12.15529,-9.15364 C 440.94615,327.43282 450,315.73639 450,313.51104 c 0,-3.97227 -9.43342,-19.2478 -18.94839,-30.68309 -3.05338,-3.66963 -6.67661,-8.33828 -8.05161,-10.37479 -1.375,-2.03651 -3.45318,-4.65909 -4.61818,-5.82795 -1.16499,-1.16887 -3.5813,-5.27521 -5.36957,-9.12521 -1.78827,-3.85 -4.77259,-9.08529 -6.63182,-11.63398 C 404.52119,243.31734 403,240.05022 403,238.60577 c 0,-1.44446 -1.575,-4.86705 -3.5,-7.60577 -1.925,-2.73872 -3.5,-5.72818 -3.5,-6.64325 0,-1.83454 -3.70028,-9.63827 -7.51877,-15.85675 -1.35092,-2.2 -4.23265,-7.7125 -6.40386,-12.25 -2.29978,-4.80622 -4.56177,-8.25 -5.41888,-8.25 -0.97408,0 -1.29624,-0.66924 -0.95335,-1.98045 0.62125,-2.37565 -4.46631,-12.53286 -8.41611,-16.80258 -12.95515,-14.00449 -14.48919,-15.41681 -15.57066,-14.33534 -1.61829,1.61829 -2.41547,1.38465 -3.00812,-0.88163 -0.30682,-1.1733 -1.36401,-2 -2.55761,-2 -3.15889,0 -3.70092,2.07783 -1.0614,4.06882 1.30838,0.98692 2.05201,2.12127 1.6525,2.52078 -0.39952,0.39951 -0.22519,1.33029 0.38738,2.06839 0.7441,0.89659 0.76531,1.34201 0.0639,1.34201 -0.57742,0 -1.87337,-1.04692 -2.87987,-2.32649 -2.48781,-3.16272 -7.98895,-4.27663 -8.78192,-1.77821 -0.31822,1.00262 -0.29523,2.56134 0.0511,3.46382 0.42519,1.10803 0.0998,1.64088 -1.00207,1.64088 -0.89746,0 -2.05947,-1.125 -2.58224,-2.5 -1.06484,-2.80075 -2.76776,-3.2688 -3.63837,-1 -0.7118,1.85487 -2.36165,1.97665 -2.36165,0.17431 0,-1.3843 4.07194,-5.67431 5.38588,-5.67431 0.41634,0 1.43198,-0.675 2.25698,-1.5 0.825,-0.825 2.31537,-1.5 3.31194,-1.5 0.99656,0 2.03922,-0.86914 2.31701,-1.93142 1.36249,-5.21016 21.00883,-6.06765 35.23465,-1.53786 8.21673,2.61637 10.96995,4.24926 21.86755,12.96928 3.71937,2.97616 19.93215,24.32379 23.04557,30.34448 0.89212,1.72518 2.79722,3.90669 4.23356,4.84782 1.43633,0.94112 3.91281,4.43286 5.50328,7.75941 3.06016,6.4005 6.98514,12.53398 13.78935,21.54829 9.2003,12.18871 12.07746,15.4619 14.89637,16.94685 4.0834,2.15105 9.75809,7.16634 27.78139,24.55315 8.55201,8.25 16.18527,15.59464 16.96279,16.32143 0.77752,0.72678 1.41368,1.87686 1.41368,2.55572 0,0.67886 1.17538,2.78422 2.61196,4.67857 1.43658,1.89435 3.52063,5.46928 4.63123,7.94428 1.1106,2.475 3.81942,7.60488 6.01959,11.39973 3.91936,6.76006 6.87288,16.13742 8.22064,26.10027 0.37202,2.75 1.36379,7.17419 2.20393,9.83153 2.14441,6.78265 1.89701,24.53646 -0.52565,37.72241 -1.44312,7.85453 -2.92671,12.40677 -5.8004,17.79796 -2.12371,3.98421 -5.02879,9.50467 -6.45571,12.26769 -1.7415,3.37213 -6.01528,8.13891 -13,14.4996 -8.43316,7.67972 -12.32856,10.41469 -20.55022,14.42837 -5.57954,2.72384 -10.97954,4.95468 -12,4.95741 -1.02045,0.003 -3.15399,1.04411 -4.7412,2.31417 l -2.88583,2.30921 0.14367,12.93582 c 0.079,7.11471 0.41409,15.44224 0.74461,18.50562 0.78415,7.26796 -0.40498,8.45386 -9.36189,9.33645 -8.04625,0.79286 -10.0555,0.23574 -10.87121,-3.01431 -0.90866,-3.6204 0.22646,-5.39961 4.52118,-7.08663 2.66574,-1.04713 4.04729,-2.27382 4.35116,-3.86342 0.70606,-3.69349 -0.4337,-22.88256 -1.39605,-23.50421 -0.99148,-0.64046 -17.51828,1.40478 -19.97683,2.4722 -2.04428,0.88755 -3.27923,14.13776 -2.31224,24.80885 0.82929,9.15155 0.36528,9.61747 -10.40514,10.44803 -7.97132,0.6147 -8.09186,0.58919 -9.25253,-1.9582 z m -2.60863,-42.65236 c -0.27957,-1.06909 -1.47494,-2.08159 -2.65638,-2.25 -1.50727,-0.21485 -2.05931,-0.90281 -1.85055,-2.30619 0.55829,-3.75312 1.13993,-4.5 3.50444,-4.5 3.1269,0 3.96008,0.9718 2.43937,2.84522 -1.04358,1.28564 -0.95653,1.42246 0.54653,0.85887 1.13823,-0.42679 1.99466,-0.13147 2.35699,0.81277 0.31303,0.81573 1.42099,1.48314 2.46215,1.48314 1.22901,0 1.89301,0.7045 1.89301,2.00847 0,1.76805 -0.24605,1.85783 -2.05548,0.75 -1.73974,-1.06516 -2.20819,-0.98966 -3.04969,0.49153 -1.31304,2.31121 -2.95854,2.22238 -3.59039,-0.19381 z M 299.10283,407.27732 c -3.81135,-3.34441 -3.98045,-5.99315 -0.46785,-7.32864 5.40416,-2.05466 9.83819,4.43529 5.79359,8.47989 -1.98569,1.9857 -1.67403,2.05307 -5.32574,-1.15125 z m 22.14717,-3.9211 c -1.98458,-0.83017 -1.47753,-3.95296 1.7695,-10.89792 3.32241,-7.1062 6.10003,-8.48483 8.12788,-4.03418 1.06054,2.32762 0.0726,5.62279 -4.07027,13.57588 -0.81963,1.57346 -3.70332,2.24462 -5.82711,1.35622 z m -3.62339,-32.75097 c -3.46731,-6.43841 1.49376,-11.49177 6.0648,-6.17762 2.69451,3.13256 2.94009,5.79801 0.73716,8.00094 -2.48046,2.48047 -4.82228,1.85272 -6.80196,-1.82332 z M 313,182.89301 c 0,-1.49364 0.4519,-1.93358 1.5524,-1.51128 0.85381,0.32764 2.68542,-0.14667 4.07023,-1.05404 2.00708,-1.31508 2.47524,-2.3778 2.30783,-5.23872 -0.28862,-4.93236 0.11743,-8.86377 0.75181,-7.27901 0.80038,1.99948 4.54884,5.7439 7.09574,7.0881 2.73321,1.44253 1.88831,3.47975 -1.1371,2.74177 -2.43547,-0.59408 -4.78543,0.86726 -6.46448,4.01997 -0.76066,1.42827 -1.79387,1.9915 -3.05048,1.66288 -1.04513,-0.2733 -2.20258,-0.008 -2.57211,0.5902 C 314.44068,185.71402 313,185.13868 313,182.89301 Z"
       style="fill:#fcb801" />
    <path
       id="path9772"
       d="m 407.91307,490.70855 c -1.60626,-3.52535 -0.65027,-5.39908 3.80611,-7.46003 2.07945,-0.96169 4.13547,-2.19852 4.56894,-2.74852 0.43346,-0.55 0.61491,-5.725 0.40321,-11.5 l -0.3849,-10.5 -4.40321,-0.23471 c -4.27022,-0.22762 -16.79682,-2.35543 -25.83245,-4.38799 -2.43608,-0.548 -5.65554,-1.86957 -7.15437,-2.93683 C 377.41757,449.87321 375.6803,449 375.05579,449 c -1.78857,0 -8.86307,-3.846 -9.75216,-5.30169 -0.442,-0.72367 -2.28455,-1.91405 -4.09456,-2.64531 -7.2845,-2.94297 -10.89148,-8.053 -5.68432,-8.053 1.72233,0 2.80572,0.73901 3.4088,2.32524 1.67707,4.41102 9.40949,7.55035 10.64794,4.32301 0.30583,-0.79699 1.46665,-1.17054 2.8285,-0.91021 1.73721,0.33209 2.45178,-0.10144 2.88259,-1.74886 0.31504,-1.20473 1.01085,-1.91969 1.54623,-1.5888 0.53539,0.33089 0.73819,1.50116 0.45068,2.60062 -0.37158,1.42093 -0.0301,1.999 1.18074,1.999 0.96598,0 2.183,1.27034 2.81104,2.93421 1.49118,3.95059 4.48767,4.66702 5.96437,1.42602 0.91913,-2.01728 1.61075,-2.3621 3.69068,-1.84008 1.40777,0.35333 2.59386,0.71834 2.63575,0.81113 3.51901,7.7947 3.10554,7.43493 9.38202,8.16339 3.76522,0.437 7.27635,0.25435 9.55276,-0.49693 1.97965,-0.65334 4.6512,-0.9239 5.93677,-0.60125 1.76932,0.44407 2.73687,-0.023 3.98103,-1.92183 1.33634,-2.03952 1.9998,-2.31787 3.5488,-1.48887 1.04784,0.56079 2.13872,0.64174 2.42416,0.17988 C 429.17278,445.91142 426.1155,442 424.35996,442 c -2.29637,0 -1.02795,-2.4522 1.45771,-2.81815 1.38669,-0.20416 3.01417,0.67369 4.54204,2.44995 2.31552,2.69195 2.45192,2.72165 4.95826,1.07943 1.41748,-0.92877 3.2303,-1.43807 4.02848,-1.13178 1.70369,0.65377 3.15863,-1.14926 1.66986,-2.06937 C 440.45734,439.16462 440,438.53076 440,438.1015 c 0,-1.28489 4.85565,-3.09412 6.55449,-2.44222 C 448.62484,436.45375 463,421.90443 463,419.01453 c 0,-2.15783 0.18679,-2.61962 4.25319,-10.51453 4.87723,-9.46917 5.62302,-25.2206 2.10695,-44.5 -3.1607,-17.33084 -6.40048,-28.36023 -9.89889,-33.69948 l -1.63853,-2.50072 -9.66136,9.3501 c -5.31375,5.14256 -11.6186,11.04483 -14.01078,13.11618 -4.88557,4.23032 -4.65777,1.93333 -2.17743,21.95642 1.32585,10.70314 0.57086,16.79971 -2.99522,24.18652 -6.41589,13.28998 -12.45747,18.37042 -23.19919,19.50853 -3.45331,0.36589 -7.55464,1.51104 -9.11408,2.54478 -1.59732,1.05885 -3.12556,1.47741 -3.5,0.9586 -0.36556,-0.50651 -2.89374,-2.04593 -5.61817,-3.42093 -7.30494,-3.68674 -11.62316,-6.69139 -15.5478,-10.81827 L 368.49738,401.5 369.23945,394 c 0.40815,-4.125 0.509,-8.91905 0.22411,-10.65345 -0.49835,-3.03405 -2.71946,-4.92446 -4.49594,-3.82654 -0.46854,0.28957 -3.34324,0.98705 -6.38823,1.54995 C 351.74265,382.3338 349,381.20284 349,377.1198 c 0,-4.07085 4.91634,-7.48129 12,-8.32431 2.10066,-0.25 2.46489,-0.7734 2.28021,-3.27675 -0.12088,-1.63857 -1.58957,-4.92255 -3.26376,-7.29774 l -3.04397,-4.31852 1.64174,-5.70124 c 3.6317,-12.61173 9.49256,-20.05694 19.37892,-24.61759 8.17816,-3.77264 12.52272,-4.11963 20.59697,-1.64504 8.63809,2.64741 16.36111,7.86471 21.0036,14.18905 1.96715,2.67979 3.79333,4.87234 4.05818,4.87234 0.69996,0 7.17223,-4.874 12.15529,-9.15364 C 440.94615,327.43282 450,315.73639 450,313.51104 c 0,-3.97227 -9.43342,-19.2478 -18.94839,-30.68309 -3.05338,-3.66963 -6.67661,-8.33828 -8.05161,-10.37479 -1.375,-2.03651 -3.45318,-4.65909 -4.61818,-5.82795 -1.16499,-1.16887 -3.5813,-5.27521 -5.36957,-9.12521 -1.78827,-3.85 -4.77259,-9.08529 -6.63182,-11.63398 C 404.52119,243.31734 403,240.05022 403,238.60577 c 0,-1.44446 -1.575,-4.86705 -3.5,-7.60577 -1.925,-2.73872 -3.5,-5.72818 -3.5,-6.64325 0,-1.83454 -3.70028,-9.63827 -7.51877,-15.85675 -1.35092,-2.2 -4.23265,-7.7125 -6.40386,-12.25 -2.29978,-4.80622 -4.56177,-8.25 -5.41888,-8.25 -0.97408,0 -1.29624,-0.66924 -0.95335,-1.98045 0.62125,-2.37565 -4.46631,-12.53286 -8.41611,-16.80258 -12.95515,-14.00449 -14.48919,-15.41681 -15.57066,-14.33534 -1.61829,1.61829 -2.41547,1.38465 -3.00812,-0.88163 -0.30682,-1.1733 -1.36401,-2 -2.55761,-2 -3.15889,0 -3.70092,2.07783 -1.0614,4.06882 1.30838,0.98692 2.05201,2.12127 1.6525,2.52078 -0.39952,0.39951 -0.22519,1.33029 0.38738,2.06839 0.7441,0.89659 0.76531,1.34201 0.0639,1.34201 -0.57742,0 -1.87337,-1.04692 -2.87987,-2.32649 -2.48781,-3.16272 -7.98895,-4.27663 -8.78192,-1.77821 -0.31822,1.00262 -0.29523,2.56134 0.0511,3.46382 0.42519,1.10803 0.0998,1.64088 -1.00207,1.64088 -0.89746,0 -2.05947,-1.125 -2.58224,-2.5 -1.06484,-2.80075 -2.76776,-3.2688 -3.63837,-1 -0.7118,1.85487 -2.36165,1.97665 -2.36165,0.17431 0,-1.3843 4.07194,-5.67431 5.38588,-5.67431 0.41634,0 1.43198,-0.675 2.25698,-1.5 0.825,-0.825 2.31537,-1.5 3.31194,-1.5 0.99656,0 2.03922,-0.86914 2.31701,-1.93142 1.36249,-5.21016 21.00883,-6.06765 35.23465,-1.53786 8.21673,2.61637 10.96995,4.24926 21.86755,12.96928 3.71937,2.97616 19.93215,24.32379 23.04557,30.34448 0.89212,1.72518 2.79722,3.90669 4.23356,4.84782 1.43633,0.94112 3.91281,4.43286 5.50328,7.75941 3.06016,6.4005 6.98514,12.53398 13.78935,21.54829 9.2003,12.18871 12.07746,15.4619 14.89637,16.94685 4.0834,2.15105 9.75809,7.16634 27.78139,24.55315 8.55201,8.25 16.18527,15.59464 16.96279,16.32143 0.77752,0.72678 1.41368,1.87686 1.41368,2.55572 0,0.67886 1.17538,2.78422 2.61196,4.67857 1.43658,1.89435 3.52063,5.46928 4.63123,7.94428 1.1106,2.475 3.81942,7.60488 6.01959,11.39973 3.91936,6.76006 6.87288,16.13742 8.22064,26.10027 0.37202,2.75 1.36379,7.17419 2.20393,9.83153 2.14441,6.78265 1.89701,24.53646 -0.52565,37.72241 -1.44312,7.85453 -2.92671,12.40677 -5.8004,17.79796 -2.12371,3.98421 -5.02879,9.50467 -6.45571,12.26769 -1.7415,3.37213 -6.01528,8.13891 -13,14.4996 -8.43316,7.67972 -12.32856,10.41469 -20.55022,14.42837 -5.57954,2.72384 -10.97954,4.95468 -12,4.95741 -1.02045,0.003 -3.15399,1.04411 -4.7412,2.31417 l -2.88583,2.30921 0.14367,12.93582 c 0.079,7.11471 0.41409,15.44224 0.74461,18.50562 0.78415,7.26796 -0.40498,8.45386 -9.36189,9.33645 -8.04625,0.79286 -10.0555,0.23574 -10.87121,-3.01431 -0.90866,-3.6204 0.22646,-5.39961 4.52118,-7.08663 2.66574,-1.04713 4.04729,-2.27382 4.35116,-3.86342 0.70606,-3.69349 -0.4337,-22.88256 -1.39605,-23.50421 -0.99148,-0.64046 -17.51828,1.40478 -19.97683,2.4722 -2.04428,0.88755 -3.27923,14.13776 -2.31224,24.80885 0.82929,9.15155 0.36528,9.61747 -10.40514,10.44803 -7.97132,0.6147 -8.09186,0.58919 -9.25253,-1.9582 z m -2.60863,-42.65236 c -0.27957,-1.06909 -1.47494,-2.08159 -2.65638,-2.25 -1.50727,-0.21485 -2.05931,-0.90281 -1.85055,-2.30619 0.55829,-3.75312 1.13993,-4.5 3.50444,-4.5 3.1269,0 3.96008,0.9718 2.43937,2.84522 -1.04358,1.28564 -0.95653,1.42246 0.54653,0.85887 1.13823,-0.42679 1.99466,-0.13147 2.35699,0.81277 0.31303,0.81573 1.42099,1.48314 2.46215,1.48314 1.22901,0 1.89301,0.7045 1.89301,2.00847 0,1.76805 -0.24605,1.85783 -2.05548,0.75 -1.73974,-1.06516 -2.20819,-0.98966 -3.04969,0.49153 -1.31304,2.31121 -2.95854,2.22238 -3.59039,-0.19381 z M 299.10283,407.27732 c -3.81135,-3.34441 -3.98045,-5.99315 -0.46785,-7.32864 5.40416,-2.05466 9.83819,4.43529 5.79359,8.47989 -1.98569,1.9857 -1.67403,2.05307 -5.32574,-1.15125 z m 22.14717,-3.9211 c -1.98458,-0.83017 -1.47753,-3.95296 1.7695,-10.89792 3.32241,-7.1062 6.10003,-8.48483 8.12788,-4.03418 1.06054,2.32762 0.0726,5.62279 -4.07027,13.57588 -0.81963,1.57346 -3.70332,2.24462 -5.82711,1.35622 z m -3.62339,-32.75097 c -3.46731,-6.43841 1.49376,-11.49177 6.0648,-6.17762 2.69451,3.13256 2.94009,5.79801 0.73716,8.00094 -2.48046,2.48047 -4.82228,1.85272 -6.80196,-1.82332 z m -53.00196,-1.12346 C 263.73109,368.58823 263,367.34209 263,366.71257 c 0,-3.14692 20.00446,-20.04144 21.71054,-18.33537 0.28857,0.28857 -1.96807,3.13806 -5.01476,6.3322 -3.2412,3.39805 -6.35035,7.87844 -7.49399,10.79906 -2.13039,5.44056 -4.74097,6.8095 -7.57714,3.97333 z M 313,182.89301 c 0,-1.49364 0.4519,-1.93358 1.5524,-1.51128 0.85381,0.32764 2.68542,-0.14667 4.07023,-1.05404 2.00708,-1.31508 2.47524,-2.3778 2.30783,-5.23872 -0.28862,-4.93236 0.11743,-8.86377 0.75181,-7.27901 0.80038,1.99948 4.54884,5.7439 7.09574,7.0881 2.73321,1.44253 1.88831,3.47975 -1.1371,2.74177 -2.43547,-0.59408 -4.78543,0.86726 -6.46448,4.01997 -0.76066,1.42827 -1.79387,1.9915 -3.05048,1.66288 -1.04513,-0.2733 -2.20258,-0.008 -2.57211,0.5902 C 314.44068,185.71402 313,185.13868 313,182.89301 Z"
       style="fill:#88a25d" />
    <path
       id="path9770"
       d="m 409.65503,491.76515 c -3.02104,-2.25511 -1.76148,-5.94205 2.84497,-8.32771 l 4,-2.07157 0,-11.93294 0,-11.93293 -6.81721,-0.27808 c -3.74946,-0.15294 -8.69946,-1.00715 -11,-1.89824 -2.30053,-0.8911 -7.09867,-1.82144 -10.66253,-2.06742 -4.17964,-0.2885 -7.42916,-1.12329 -9.15437,-2.35176 -1.47105,-1.04747 -3.18559,-1.9045 -3.8101,-1.9045 -1.78857,0 -8.86307,-3.846 -9.75216,-5.30169 -0.442,-0.72367 -2.28455,-1.91405 -4.09456,-2.64531 -7.2845,-2.94297 -10.89148,-8.053 -5.68432,-8.053 1.72233,0 2.80572,0.73901 3.4088,2.32524 1.67707,4.41102 9.40949,7.55035 10.64794,4.32301 0.30583,-0.79699 1.46665,-1.17054 2.8285,-0.91021 1.73721,0.33209 2.45178,-0.10144 2.88259,-1.74886 0.31504,-1.20473 1.01085,-1.91969 1.54623,-1.5888 0.53539,0.33089 0.73819,1.50116 0.45068,2.60062 -0.37158,1.42093 -0.0301,1.999 1.18074,1.999 0.96598,0 2.183,1.27034 2.81104,2.93421 1.49118,3.95059 4.48767,4.66702 5.96437,1.42602 0.91913,-2.01728 1.61075,-2.3621 3.69068,-1.84008 1.40777,0.35333 2.59386,0.71834 2.63575,0.81113 3.51901,7.7947 3.10554,7.43493 9.38202,8.16339 3.76522,0.437 7.27635,0.25435 9.55276,-0.49693 1.97965,-0.65334 4.6512,-0.9239 5.93677,-0.60125 1.76932,0.44407 2.73687,-0.023 3.98103,-1.92183 1.33634,-2.03952 1.9998,-2.31787 3.5488,-1.48887 1.04784,0.56079 2.13872,0.64174 2.42416,0.17988 C 429.17278,445.91142 426.1155,442 424.35996,442 c -2.29637,0 -1.02795,-2.4522 1.45771,-2.81815 1.38669,-0.20416 3.01417,0.67369 4.54204,2.44995 2.31552,2.69195 2.45192,2.72165 4.95826,1.07943 1.41748,-0.92877 3.2303,-1.43807 4.02848,-1.13178 1.70369,0.65377 3.15863,-1.14926 1.66986,-2.06937 C 440.45734,439.16462 440,438.53076 440,438.1015 c 0,-1.30424 4.86763,-3.08952 6.60545,-2.42266 1.14447,0.43917 3.45851,-1.30589 7.7781,-5.86559 3.38193,-3.56991 6.75195,-6.69175 7.48893,-6.93741 0.73698,-0.24566 1.41669,-1.97223 1.51047,-3.83682 0.0938,-1.8646 0.69569,-3.56523 1.3376,-3.7792 0.6419,-0.21397 0.93716,-0.98824 0.65613,-1.7206 -0.28104,-0.73236 0.8093,-3.74079 2.42297,-6.68539 1.80189,-3.28809 3.07844,-7.28305 3.30843,-10.35383 0.76393,-10.19936 0.23429,-27.21322 -1.05841,-34 -2.34946,-12.3349 -7.07695,-27.88394 -9.68509,-31.85499 l -2.53191,-3.85498 -9.66633,9.39924 c -5.31649,5.16959 -11.52583,10.95433 -13.79853,12.85499 -3.92266,3.28051 -4.12057,3.70928 -3.90283,8.45574 0.12615,2.75 0.78808,9.37513 1.47095,14.7225 1.36692,10.70388 0.62592,16.76275 -2.958,24.18652 -6.41589,13.28998 -12.45747,18.37042 -23.19919,19.50853 -3.45331,0.36589 -7.55464,1.51104 -9.11408,2.54478 -1.59732,1.05885 -3.12556,1.47741 -3.5,0.9586 -0.36556,-0.50651 -2.89374,-2.04593 -5.61817,-3.42093 -7.30494,-3.68674 -11.62316,-6.69139 -15.5478,-10.81827 L 368.49738,401.5 369.23945,394 c 0.40815,-4.125 0.509,-8.91905 0.22411,-10.65345 -0.49835,-3.03405 -2.71946,-4.92446 -4.49594,-3.82654 -0.46854,0.28957 -3.34324,0.98705 -6.38823,1.54995 C 351.74265,382.3338 349,381.20284 349,377.1198 c 0,-4.07085 4.91634,-7.48129 12,-8.32431 2.10066,-0.25 2.46489,-0.7734 2.28021,-3.27675 -0.12088,-1.63857 -1.58957,-4.92255 -3.26376,-7.29774 l -3.04397,-4.31852 1.64174,-5.70124 c 3.6317,-12.61173 9.49256,-20.05694 19.37892,-24.61759 8.17816,-3.77264 12.52272,-4.11963 20.59697,-1.64504 8.63809,2.64741 16.36111,7.86471 21.0036,14.18905 1.96715,2.67979 4.00752,4.87234 4.53416,4.87234 1.5173,0 11.02323,-7.40685 14.9413,-11.64199 C 445.00743,322.9392 451,315.2891 451,314.12715 c 0,-4.23583 -13.47592,-25.6557 -20.66147,-32.84125 -2.40066,-2.40067 -4.47142,-4.84324 -4.60169,-5.42794 -0.21541,-0.96689 -2.67042,-3.97613 -7.63447,-9.35796 -1.01461,-1.1 -3.30652,-5.15 -5.09313,-9 -1.78661,-3.85 -4.70669,-9.025 -6.48906,-11.5 -2.1059,-2.92426 -3.23124,-5.6443 -3.21376,-7.76789 0.0153,-1.85601 -0.66942,-3.80021 -1.5848,-4.5 -0.88644,-0.67766 -1.74894,-1.90711 -1.91666,-2.73211 -0.16773,-0.825 -1.09246,-2.08802 -2.05496,-2.8067 -0.9625,-0.71869 -1.75,-2.60463 -1.75,-4.19099 0,-1.58635 -0.45734,-3.16693 -1.01631,-3.51239 -0.55897,-0.34546 -0.75742,-1.04702 -0.44098,-1.55902 C 394.85914,218.41891 394.64148,218 394.05902,218 393.47656,218 393,217.38569 393,216.63486 c 0,-0.75083 -0.9,-2.50931 -2,-3.90773 -1.1,-1.39842 -2,-3.25911 -2,-4.13486 C 389,207.71652 388.59241,207 388.09424,207 c -0.49817,0 -2.95816,-4.275 -5.46665,-9.5 -2.50848,-5.225 -5.13839,-9.49997 -5.84424,-9.49993 -0.80327,5e-5 -1.24316,-1.21571 -1.17591,-3.25 0.0591,-1.78754 -0.72228,-4.31546 -1.73638,-5.61761 -1.01409,-1.30214 -1.59838,-2.76464 -1.29842,-3.25 0.29997,-0.48535 -0.006,-0.88246 -0.68029,-0.88246 -0.67413,0 -0.96349,-0.26219 -0.64304,-0.58265 0.32046,-0.32045 -1.06704,-2.29091 -3.08333,-4.37878 -2.01629,-2.08788 -6.29021,-6.60395 -9.49761,-10.03572 -4.29924,-4.59999 -6.12551,-5.94571 -6.95,-5.12122 -1.61829,1.61829 -2.41547,1.38465 -3.00812,-0.88163 -0.30682,-1.1733 -1.36401,-2 -2.55761,-2 -3.15889,0 -3.70092,2.07783 -1.0614,4.06882 1.30838,0.98692 2.05201,2.12127 1.6525,2.52078 -0.39952,0.39951 -0.22519,1.33029 0.38738,2.06839 0.7441,0.89659 0.76531,1.34201 0.0639,1.34201 -0.57742,0 -1.87337,-1.04692 -2.87987,-2.32649 -2.48781,-3.16272 -7.98895,-4.27663 -8.78192,-1.77821 -0.31822,1.00262 -0.29523,2.56134 0.0511,3.46382 0.42519,1.10803 0.0998,1.64088 -1.00207,1.64088 -0.89746,0 -2.05947,-1.125 -2.58224,-2.5 -1.06484,-2.80075 -2.76776,-3.2688 -3.63837,-1 -0.7118,1.85487 -2.36165,1.97665 -2.36165,0.17431 0,-1.3843 4.07194,-5.67431 5.38588,-5.67431 0.41634,0 1.43198,-0.675 2.25698,-1.5 0.825,-0.825 2.36785,-1.5 3.42857,-1.5 1.06071,0 1.92857,-0.35298 1.92857,-0.78439 0,-1.40041 5.3885,-3.96977 10,-4.76823 9.70177,-1.67982 20.81911,0.0893 32.94627,5.24292 5.3518,2.27431 18.7215,13.95267 23.11065,20.18703 2.17718,3.09247 6.48371,9.22267 9.57006,13.62267 3.08636,4.4 7.34264,9.8859 9.4584,12.19089 2.11577,2.305 4.13981,5.455 4.49789,7 0.35807,1.54501 1.85899,4.38411 3.33537,6.30911 1.47639,1.925 3.77203,5.3 5.10144,7.5 6.35327,10.5139 15.77645,21.04151 26.4052,29.5 C 477.0132,257.81344 504,283.99176 504,286.35917 c 0,0.81806 1.13401,2.83508 2.52003,4.48226 1.38601,1.64719 3.47007,5.16921 4.63123,7.82673 1.16116,2.65751 3.80263,7.75684 5.86994,11.33184 3.6672,6.34171 6.7637,16.38825 8.78414,28.5 0.55049,3.3 1.48376,7.8 2.07392,10 3.18728,11.88149 -0.69603,40.8304 -7.00123,52.19208 -2.07795,3.74436 -4.87903,9.07801 -6.22463,11.85257 -3.86251,7.96429 -19.98856,22.23 -32.04992,28.35257 -5.29102,2.68582 -11.13651,5.1678 -12.98997,5.51551 -1.85347,0.34771 -4.58738,1.76048 -6.07535,3.13949 l -2.7054,2.50728 0.56332,18.16394 C 462.0834,492.38604 462.26125,492 451.36406,492 c -7.09426,0 -7.34703,-0.084 -7.99226,-2.65478 -0.84142,-3.35246 0.53326,-5.57189 4.23178,-6.83223 1.59303,-0.54285 3.23893,-1.44285 3.65756,-2 0.41863,-0.55714 0.55552,-5.28799 0.3042,-10.51299 -0.25132,-5.225 -0.48134,-10.9625 -0.51115,-12.75 -0.0516,-3.09373 -0.2345,-3.2462 -3.80419,-3.171 -6.72224,0.14161 -17.162,2.40443 -18.84147,4.0839 -1.3815,1.3815 -1.63352,4.02293 -1.5906,16.6713 0.0354,10.42319 -0.31204,15.3269 -1.13347,15.99937 -2.16825,1.77507 -13.97986,2.46152 -16.02943,0.93158 z m -4.35059,-43.70896 c -0.27957,-1.06909 -1.47494,-2.08159 -2.65638,-2.25 -1.50727,-0.21485 -2.05931,-0.90281 -1.85055,-2.30619 0.55829,-3.75312 1.13993,-4.5 3.50444,-4.5 3.1269,0 3.96008,0.9718 2.43937,2.84522 -1.04358,1.28564 -0.95653,1.42246 0.54653,0.85887 1.13823,-0.42679 1.99466,-0.13147 2.35699,0.81277 0.31303,0.81573 1.42099,1.48314 2.46215,1.48314 1.22901,0 1.89301,0.7045 1.89301,2.00847 0,1.76805 -0.24605,1.85783 -2.05548,0.75 -1.73974,-1.06516 -2.20819,-0.98966 -3.04969,0.49153 -1.31304,2.31121 -2.95854,2.22238 -3.59039,-0.19381 z M 298.43709,405.92572 c -2.85641,-2.98983 -2.88377,-3.11345 -0.99596,-4.5 2.53192,-1.85964 5.03427,-1.80746 6.98744,0.14571 1.84273,1.84273 1.94264,2.86643 0.53625,5.49431 -1.45074,2.71072 -3.12881,2.41766 -6.52773,-1.14002 z m 23.21878,-2.62274 c -1.53792,-0.4052 -1.73024,-1.093 -1.15822,-4.14214 0.37725,-2.01094 1.07716,-3.89806 1.55535,-4.19359 0.47818,-0.29554 1.55506,-2.1783 2.39306,-4.18391 2.01242,-4.81641 3.48572,-5.58582 5.6286,-2.93946 1.67347,2.06664 1.6608,2.39373 -0.28706,7.4091 -3.47346,8.94352 -3.7398,9.20718 -8.13173,8.05 z M 319.31662,372.25 c -0.34134,-0.9625 -1.26309,-2.50007 -2.04832,-3.41681 C 315.39064,366.64107 317.205,363 320.17494,363 c 4.42446,0 6.72065,7.91514 2.8908,9.96482 -2.61388,1.3989 -3.02749,1.32005 -3.74912,-0.71482 z m -53.77295,-2.59441 c -2.994,-2.18926 -1.13241,-5.54018 7.16964,-12.90559 9.45905,-8.39188 14.44296,-9.52943 6.57194,-1.5 -2.83054,2.8875 -5.93418,7.275 -6.89699,9.75 -2.36911,6.09009 -3.6714,6.97588 -6.84459,4.65559 z M 313,182.89301 c 0,-1.49364 0.4519,-1.93358 1.5524,-1.51128 0.85381,0.32764 2.68542,-0.14667 4.07023,-1.05404 2.00708,-1.31508 2.47524,-2.3778 2.30783,-5.23872 -0.28862,-4.93236 0.11743,-8.86377 0.75181,-7.27901 0.80038,1.99948 4.54884,5.7439 7.09574,7.0881 2.73321,1.44253 1.88831,3.47975 -1.1371,2.74177 -2.43547,-0.59408 -4.78543,0.86726 -6.46448,4.01997 -0.76066,1.42827 -1.79387,1.9915 -3.05048,1.66288 -1.04513,-0.2733 -2.20258,-0.008 -2.57211,0.5902 C 314.44068,185.71402 313,185.13868 313,182.89301 Z"
       style="fill:#86c533" />
    <path
       id="path9768"
       d="m 409.65503,491.76515 c -3.02104,-2.25511 -1.76148,-5.94205 2.84497,-8.32771 l 4,-2.07157 0,-11.93294 0,-11.93293 -5,-0.20106 c -7.63537,-0.30703 -12.74412,-1.248 -15.5,-2.85492 -2.30867,-1.34616 -1.80778,-1.44298 6.545,-1.26516 4.97476,0.10591 9.549,-0.11892 10.16499,-0.49963 0.616,-0.3807 3.229,-0.88988 5.80669,-1.13152 4.32929,-0.40582 6.94255,-1.42541 14.98332,-5.84585 1.65,-0.90709 4.8,-2.42278 7,-3.3682 4.64553,-1.99634 21.96971,-18.95622 22.96243,-22.47957 0.73852,-2.62118 1.33418,-4.10193 4.56737,-11.35409 4.12987,-9.26345 5.00968,-29.66706 1.98352,-46 -2.2372,-12.07473 -7.01303,-27.84197 -9.64874,-31.85499 l -2.53191,-3.85498 -9.7141,9.35498 c -18.15577,17.48458 -20.78297,19.66326 -29.20302,24.21742 -4.62855,2.50345 -9.96548,5.69604 -11.85983,7.09465 -1.89435,1.3986 -4.03422,2.54292 -4.75525,2.54292 -0.72104,0 -5.50268,1.74454 -10.62588,3.87676 -13.18975,5.48943 -19.98795,7.3348 -22.91753,6.22097 -1.60313,-0.60951 -4.51939,-0.42285 -8.78316,0.56218 -7.99724,1.84754 -10.9739,0.85662 -10.9739,-3.65317 0,-3.48469 4.02576,-6.55629 10,-7.62988 1.925,-0.34593 6.75068,-1.67463 10.72374,-2.95267 3.97306,-1.27804 8.92306,-2.62534 11,-2.994 3.31997,-0.5893 18.16487,-6.94312 22.27626,-9.53454 0.825,-0.52 3.37289,-1.83779 5.66199,-2.92842 5.51864,-2.62933 22.96753,-14.39789 27.1903,-18.33874 C 440.39375,328.39021 451,315.41296 451,314.09454 c 0,-3.76023 -11.50932,-22.47909 -20.15164,-32.77481 -7.78046,-9.26898 -14.09946,-18.26678 -17.52622,-24.95607 -1.84731,-3.60608 -4.63126,-8.42562 -6.18656,-10.71008 -1.5553,-2.28447 -3.10339,-5.57898 -3.44021,-7.32113 -0.33681,-1.74215 -1.98106,-5.39192 -3.65388,-8.11059 -1.67282,-2.71868 -3.04991,-5.56829 -3.0602,-6.33246 -0.0103,-0.76417 -2.03163,-4.9894 -4.49186,-9.3894 -2.46024,-4.4 -8.11914,-15.39318 -12.57534,-24.42928 -8.13937,-16.50468 -10.3466,-19.90589 -19.22751,-29.62847 C 356.14403,155.46918 347.25211,150 343.70935,150 c -0.87523,0 -1.85548,-0.42742 -2.17834,-0.94983 -1.39548,-2.25792 8.25491,-4.50697 17.94,-4.18096 5.64542,0.19004 14.81006,2.56368 22.47526,5.82109 5.3518,2.27431 18.7215,13.95267 23.11065,20.18703 2.17718,3.09247 6.48371,9.22267 9.57006,13.62267 3.08636,4.4 7.34264,9.8859 9.4584,12.19089 2.11577,2.305 4.13981,5.455 4.49789,7 0.35807,1.54501 1.85899,4.38411 3.33537,6.30911 1.47639,1.925 3.77203,5.3 5.10144,7.5 6.35327,10.5139 15.77645,21.04151 26.4052,29.5 C 477.0132,257.81344 504,283.99176 504,286.35917 c 0,0.81806 1.13401,2.83508 2.52003,4.48226 1.38601,1.64719 3.47007,5.16921 4.63123,7.82673 1.16116,2.65751 3.80263,7.75684 5.86994,11.33184 3.6672,6.34171 6.7637,16.38825 8.78414,28.5 0.55049,3.3 1.48376,7.8 2.07392,10 3.18728,11.88149 -0.69603,40.8304 -7.00123,52.19208 -2.07795,3.74436 -4.87903,9.07801 -6.22463,11.85257 -3.86251,7.96429 -19.98856,22.23 -32.04992,28.35257 -5.29102,2.68582 -11.13651,5.1678 -12.98997,5.51551 -1.85347,0.34771 -4.58738,1.76048 -6.07535,3.13949 l -2.7054,2.50728 0.56332,18.16394 C 462.0834,492.38604 462.26125,492 451.36406,492 c -7.09426,0 -7.34703,-0.084 -7.99226,-2.65478 -0.84142,-3.35246 0.53326,-5.57189 4.23178,-6.83223 1.59303,-0.54285 3.23893,-1.44285 3.65756,-2 0.41863,-0.55714 0.55552,-5.28799 0.3042,-10.51299 -0.25132,-5.225 -0.48134,-10.9625 -0.51115,-12.75 -0.0516,-3.09373 -0.2345,-3.2462 -3.80419,-3.171 -6.72224,0.14161 -17.162,2.40443 -18.84147,4.0839 -1.3815,1.3815 -1.63352,4.02293 -1.5906,16.6713 0.0354,10.42319 -0.31204,15.3269 -1.13347,15.99937 -2.16825,1.77507 -13.97986,2.46152 -16.02943,0.93158 z M 298.43709,405.92572 c -2.85641,-2.98983 -2.88377,-3.11345 -0.99596,-4.5 2.53192,-1.85964 5.03427,-1.80746 6.98744,0.14571 1.84273,1.84273 1.94264,2.86643 0.53625,5.49431 -1.45074,2.71072 -3.12881,2.41766 -6.52773,-1.14002 z M 321.75,402.9199 c -0.9625,-0.5606 -1.75,-1.47527 -1.75,-2.0326 0,-1.61073 6.10634,-13.83499 7.27028,-14.55434 0.57949,-0.35815 1.83381,0.31231 2.78737,1.4899 1.65417,2.04282 1.63216,2.39101 -0.47963,7.58696 -2.19546,5.40181 -4.24354,8.61825 -5.45046,8.55977 -0.34516,-0.0167 -1.41506,-0.48908 -2.37756,-1.04969 z M 319.31662,372.25 c -0.34134,-0.9625 -1.26309,-2.50007 -2.04832,-3.41681 C 315.39064,366.64107 317.205,363 320.17494,363 c 4.42446,0 6.72065,7.91514 2.8908,9.96482 -2.61388,1.3989 -3.02749,1.32005 -3.74912,-0.71482 z m -53.75452,-2.58093 c -1.3516,-0.98832 -1.66652,-2.01261 -1.1571,-3.76348 C 265.3224,362.75256 279.72872,350 282.37325,350 c 1.68813,0 1.18696,0.87781 -2.82908,4.95516 -2.68436,2.72534 -6.04244,7.31968 -7.46241,10.20966 -2.86842,5.83792 -3.808,6.48706 -6.51966,4.50425 z"
       style="fill:#749448" />
    <path
       id="path9766"
       d="m 410.85648,492.36006 c -1.91879,-0.54369 -2.91976,-4.49561 -1.69363,-6.68658 0.46699,-0.83445 2.20013,-1.81393 3.85142,-2.17662 1.6513,-0.36268 3.38747,-1.41035 3.85815,-2.32814 0.47068,-0.9178 0.63413,-6.73122 0.36323,-12.91872 L 416.7431,457 l -6.31253,0 c -6.55043,0 -10.15361,-1.85564 -4.23959,-2.18338 C 408.01094,454.71576 405.9,454.34828 401.5,454 l -8,-0.63324 7.31574,-0.18338 c 4.02366,-0.10086 8.19212,0.28564 9.26325,0.85889 1.36469,0.73037 2.46726,0.71608 3.68426,-0.0477 1.45076,-0.91053 1.32508,-0.98904 -0.76325,-0.47677 -1.83848,0.45098 -2.11755,0.3499 -1.05465,-0.382 0.79494,-0.54739 3.71994,-0.76498 6.5,-0.48353 3.74467,0.37911 4.66591,0.23529 3.55465,-0.55494 -0.88598,-0.63002 -1.02179,-1.07293 -0.33179,-1.08198 0.64252,-0.008 1.99252,-0.28276 3,-0.60964 1.52346,-0.49429 1.5793,-0.41271 0.33179,0.48468 -0.825,0.59347 -1.20324,1.08592 -0.84053,1.09434 C 425.18581,452.00852 445,441.95776 445,441.41332 c 0,-0.26603 -1.0125,-0.005 -2.25,0.58038 -1.91572,0.90598 -1.87858,0.80109 0.25,-0.70606 1.375,-0.97358 4.975,-4.01306 8,-6.75441 3.66793,-3.32399 4.35207,-3.74329 2.05383,-1.25875 -1.89539,2.04904 -3.02039,3.71741 -2.5,3.70749 0.98335,-0.0187 7.44617,-7.37342 7.44617,-8.47373 0,-0.34445 -0.5625,-0.30215 -1.25,0.094 -0.6875,0.39615 -0.15906,-0.47729 1.17431,-1.94098 1.33338,-1.46369 2.64062,-2.66125 2.90499,-2.66125 0.26437,0 -0.33381,0.9 -1.3293,2 -0.99549,1.1 -1.33023,2 -0.74388,2 1.42938,0 6.24388,-5.7995 6.24388,-7.52132 0,-0.75233 1.52313,-4.71016 3.38473,-8.79518 6.80792,-14.939 6.89244,-28.6702 0.37355,-60.6835 -1.957,-9.6105 -8.70039,-26 -10.6976,-26 -0.49427,0 -3.74762,3.07806 -7.22968,6.84014 -3.48205,3.76208 -10.4935,10.34635 -15.581,14.63171 -9.42786,7.94138 -10.8981,9.48055 -7.12932,7.46357 1.35519,-0.72528 1.88609,-0.75539 1.47079,-0.0834 -0.84135,1.36134 -20.7718,12.30101 -21.35256,11.72026 -0.24271,-0.24271 2.30424,-1.82724 5.6599,-3.52117 3.35565,-1.69393 6.10119,-3.32322 6.10119,-3.62064 0,-0.29742 -2.8125,0.94656 -6.25,2.7644 -3.4375,1.81784 -6.25,3.9629 -6.25,4.76682 0,1.71774 -1.54582,2.50998 -15.5,7.9438 -14.10883,5.49403 -19.95903,7.14293 -22.80686,6.42817 -1.78334,-0.44759 -2.04464,-0.8127 -1.03816,-1.45057 0.92763,-0.5879 0.47331,-0.85719 -1.464,-0.86775 -1.85894,-0.0101 -2.56949,0.37224 -2.10084,1.13053 0.50085,0.81041 -0.0919,0.94504 -2.02478,0.45992 -1.78954,-0.44915 -2.51104,-0.32689 -2.09013,0.35416 0.7543,1.22049 -0.45594,1.24699 -6.19821,0.13574 -3.01098,-0.58268 -4.04122,-0.49843 -3.58967,0.29356 0.35315,0.6194 0.23698,0.74852 -0.26259,0.29188 -1.55815,-1.42424 -1.26958,-6.56898 0.44348,-7.90679 1.3886,-1.08441 1.48274,-1.04376 0.63176,0.27282 -0.55,0.85092 -0.22507,0.70409 0.72206,-0.32628 0.95852,-1.04276 2.24635,-1.54939 2.90451,-1.14262 0.77841,0.48108 0.91602,0.29969 0.40271,-0.53086 C 354.94927,370.1089 355.326,369.96869 357,370.5 c 1.67215,0.53072 2.05045,0.39065 1.47215,-0.54507 -0.59908,-0.96932 0.22369,-1.12494 3.57279,-0.67573 2.51214,0.33695 3.77618,0.22828 2.99079,-0.25712 -1.34362,-0.8304 8.14601,-4.16821 16.03694,-5.64071 3.06974,-0.57283 18.10783,-7.07828 21.92733,-9.48572 0.825,-0.52 3.48606,-1.88785 5.91347,-3.03966 2.42741,-1.15181 6.6846,-3.72584 9.46042,-5.72007 2.77583,-1.99423 4.70071,-3.06564 4.27751,-2.3809 -3.45707,5.59367 16.03186,-10.19574 21.73849,-17.61193 2.42668,-3.15364 5.13168,-6.33107 6.01112,-7.06094 2.29095,-1.90131 1.97964,-5.39746 -1.00507,-11.28751 -5.54793,-10.9483 -19.74119,-30.31733 -21.44455,-29.2646 -0.51879,0.32063 -0.63792,-0.18335 -0.27,-1.14215 0.44376,-1.15641 0.28072,-1.4825 -0.5,-1 -0.72277,0.4467 -0.96147,0.20259 -0.63467,-0.64905 0.2881,-0.75077 -0.4968,-2.23664 -1.74422,-3.30194 -2.25321,-1.92424 -2.25834,-1.92383 -0.78527,0.0631 1.37102,1.84927 1.35171,1.89725 -0.25622,0.63669 -0.95644,-0.74982 -1.4802,-1.78203 -1.16391,-2.2938 0.80343,-1.29998 -1.59629,-3.96142 -2.86492,-3.17737 -0.61824,0.38209 -0.74035,0.15672 -0.3006,-0.55482 0.92482,-1.49638 -1.28637,-4.31848 -2.6994,-3.44518 -0.60751,0.37547 -0.74169,0.15889 -0.32214,-0.51996 0.85277,-1.37982 -0.23097,-5.37427 -1.28189,-4.72476 -0.40031,0.24741 -1.34021,-0.53356 -2.08865,-1.73548 -1.27745,-2.05146 -1.24962,-2.09344 0.45437,-0.68532 1.74631,1.44309 1.75079,1.37544 0.11807,-1.7827 -0.93341,-1.80548 -2.1228,-3.01961 -2.64307,-2.69806 -0.52028,0.32155 -0.69544,-0.0682 -0.38924,-0.86615 0.30619,-0.79793 0.007,-1.79084 -0.66596,-2.20645 -0.83338,-0.51505 -0.96509,-0.33886 -0.41367,0.55336 0.53934,0.87268 0.41874,1.06781 -0.3618,0.58541 -0.64395,-0.39798 -0.91767,-1.13321 -0.60827,-1.63384 0.81573,-1.31988 -1.3729,-4.97431 -2.80979,-4.69162 -0.80385,0.15815 -1.11571,-0.84872 -0.91405,-2.95114 0.32748,-3.41407 -2.33331,-9.71904 -3.73577,-8.85227 -0.46448,0.28707 -0.78282,-0.26072 -0.70742,-1.2173 0.0758,-0.96193 -0.45478,-1.61644 -1.18723,-1.46446 -0.73161,0.15179 -1.02515,-0.20932 -0.65586,-0.80684 1.03072,-1.66774 -0.39885,-6.16073 -1.70364,-5.35433 -0.65258,0.40332 -0.84894,0.24843 -0.46749,-0.36876 1.29189,-2.09033 -6.44752,-16.91983 -8.24921,-15.80633 -0.41117,0.25412 -0.71426,-0.52809 -0.67353,-1.73824 0.0407,-1.21015 -0.40882,-2.11432 -0.999,-2.00926 -0.59019,0.10506 -1.04019,-0.79494 -1,-2 0.0404,-1.21115 -0.46987,-2.08458 -1.14095,-1.95302 -0.74852,0.14675 -0.97094,-0.39544 -0.58006,-1.41404 0.42245,-1.1009 0.24746,-1.41318 -0.52454,-0.93607 -0.78071,0.48251 -0.94376,0.15642 -0.5,-1 0.44376,-1.15641 0.28072,-1.4825 -0.5,-1 -0.75109,0.46421 -0.95382,0.18264 -0.57648,-0.80068 0.67703,-1.76431 -5.60864,-14.70294 -6.78853,-13.97373 -0.43641,0.26972 -0.49715,-0.2818 -0.13499,-1.22559 0.48212,-1.25638 0.30375,-1.49674 -0.66596,-0.89743 -0.87262,0.53931 -1.08539,0.43175 -0.62369,-0.31528 0.86991,-1.40756 -1.07448,-5.24222 -2.4923,-4.91523 -0.57246,0.13203 -2.24652,-1.31004 -3.72014,-3.20459 -1.47361,-1.89455 -2.1168,-3.10549 -1.4293,-2.69098 2.61625,1.5774 1.09355,-1.1159 -2.4979,-4.41821 l -3.74791,-3.44617 2.99791,3.5 2.9979,3.5 -3.21444,-2.90302 c -1.76795,-1.59667 -3.01931,-3.21876 -2.78082,-3.60465 0.53022,-0.85792 -3.14612,-4.29882 -6.37542,-5.96714 -1.87401,-0.96814 -2.21148,-0.96714 -1.6108,0.005 0.49526,0.80135 0.2761,1.05374 -0.62932,0.72477 -0.76406,-0.2776 -1.29093,-0.96829 -1.17082,-1.53487 0.12011,-0.56658 -0.46576,-1.29268 -1.30194,-1.61355 -0.89726,-0.34431 -1.25978,-0.16185 -0.88459,0.44523 0.41293,0.66812 -0.35742,0.79004 -2.19806,0.34787 C 341.90132,149.57483 341.0796,149 343.33333,149 c 0.91667,0 1.55417,-0.52301 1.41667,-1.16224 -0.8046,-3.74052 18.62235,-3.3925 30.76984,0.55122 6.58686,2.13844 9.53508,3.85253 16.5,9.59307 8.30458,6.8447 12.63991,12.10143 24.53148,29.74522 3.04976,4.52499 6.29982,8.64967 7.22235,9.16595 0.92254,0.51627 3.03836,3.61722 4.70183,6.89098 7.13309,14.03815 22.9507,35.22115 28.53621,38.2158 3.77906,2.02613 9.97618,7.59034 29.49045,26.47863 9.07951,8.78824 16.79094,16.88824 17.13653,18 0.34559,1.11175 1.92388,3.66822 3.50732,5.68104 1.58343,2.01283 3.49462,5.40461 4.24708,7.53731 0.75246,2.1327 3.13263,6.78585 5.28927,10.34033 3.88861,6.40904 8.31764,20.75119 8.31764,26.93428 0,1.59402 0.50091,4.16501 1.11313,5.71331 3.20961,8.1171 2.88532,29.59172 -0.69111,45.76489 -1.42246,6.43262 -5.79403,16.00517 -8.92813,19.55021 -0.72937,0.825 -2.04295,3.3 -2.91907,5.5 -2.21678,5.5665 -21.67185,23.08724 -29.1271,26.23112 -2.99338,1.26231 -6.90619,3.18753 -8.69512,4.27826 -1.78893,1.09073 -4.16064,1.98483 -5.27047,1.98688 -1.10982,0.002 -3.71556,1.15735 -5.79052,2.56733 l -3.77266,2.56359 0.29052,18.88604 c 0.18336,11.9195 -0.0864,19.2631 -0.73128,19.90823 -0.562,0.56219 -4.2555,1.32271 -8.2078,1.69004 -7.11614,0.66137 -7.19802,0.64145 -8.42409,-2.04947 -1.58372,-3.4759 -0.35275,-5.54335 4.22062,-7.08867 l 3.43308,-1.16002 0,-13.40666 0,-13.40667 -9.3658,0.2842 c -5.57225,0.16909 -10.47235,0.85643 -12.09773,1.69694 -2.55872,1.32316 -2.76931,1.94265 -3.32179,9.77129 -0.32443,4.59721 -0.329,11.80791 -0.0102,16.02378 0.5602,7.40722 0.4992,7.69568 -1.81241,8.57025 -3.07876,1.16481 -11.90679,2.11682 -14.03564,1.5136 z M 298.79752,406.06383 c -2.5751,-2.70599 -2.61852,-2.91584 -0.92126,-4.45184 2.43126,-2.20027 4.7226,-2.02279 6.4916,0.50281 1.50179,2.14412 1.15918,4.78184 -0.79492,6.11989 -1.55687,1.06605 -1.80048,0.95531 -4.77542,-2.17086 z m 23.81653,-3.62721 c -0.32996,-0.85986 -1.0531,-1.2833 -1.60699,-0.94099 C 320.45318,401.83795 320,401.41648 320,400.55902 320,399.70156 320.39118,399 320.86929,399 c 0.47811,0 2.04024,-2.7 3.47141,-6 2.70035,-6.22648 3.90368,-7.17264 5.49829,-4.32322 0.64868,1.15912 0.35432,3.03935 -0.95349,6.09034 -1.04053,2.42745 -1.59591,4.89243 -1.23418,5.47773 0.36173,0.58529 0.25067,0.81687 -0.24681,0.51462 -1.08354,-0.65832 -3.54691,1.76479 -2.67773,2.63397 0.3336,0.33361 0.1297,0.60656 -0.45312,0.60656 -0.58283,0 -1.32965,-0.70352 -1.65961,-1.56338 z m -3.9767,-32.01968 c -1.93978,-2.85465 -2.30555,-4.1684 -1.55235,-5.57576 1.34096,-2.5056 4.46755,-2.31809 6.3583,0.38133 2.06932,2.95437 1.9633,5.09955 -0.35576,7.19827 -1.83655,1.66205 -2.0132,1.58251 -4.45019,-2.00384 z m -54.20308,-2.62404 c -0.58051,-1.82902 0.44338,-3.29082 5.9772,-8.5336 3.84002,-3.63805 7.40242,-6.20598 8.38312,-6.0429 1.0793,0.17948 1.58303,-0.2671 1.37208,-1.2164 -0.18334,-0.825 2.6e-4,-1.1664 0.40799,-0.75868 0.40773,0.40773 1.45773,0.19239 2.33333,-0.47853 0.87561,-0.67093 -0.99549,1.54957 -4.15799,4.93444 -3.1625,3.38486 -5.75,6.83056 -5.75,7.6571 0,0.82655 -0.70714,2.20996 -1.57143,3.07424 -0.86428,0.86429 -1.20178,1.57832 -0.75,1.58674 0.45179,0.008 0.14643,0.45153 -0.67857,0.98469 -2.50989,1.62202 -4.82733,1.11941 -5.56573,-1.2071 z"
       style="fill:#739f38" />
    <path
       id="path9764"
       d="m 410.85648,492.36006 c -1.91879,-0.54369 -2.91976,-4.49561 -1.69363,-6.68658 0.46699,-0.83445 2.20013,-1.81393 3.85142,-2.17662 1.6513,-0.36268 3.38747,-1.41035 3.85815,-2.32814 0.47068,-0.9178 0.63413,-6.73122 0.36323,-12.91872 L 416.7431,457 l -6.31253,0 c -7.80097,0 -9.32815,-1.62942 -2.18233,-2.32842 11.95538,-1.16947 16.59267,-2.58015 28.28438,-8.60421 6.63271,-3.41745 13.23465,-7.59001 14.81821,-9.3654 1.5708,-1.76109 5.28446,-5.76845 8.25258,-8.90525 2.96812,-3.1368 5.39659,-6.37437 5.39659,-7.1946 0,-0.82022 1.52313,-4.8336 3.38473,-8.91862 6.80792,-14.939 6.89244,-28.6702 0.37355,-60.6835 -1.95294,-9.5906 -8.69974,-26 -10.69001,-26 -0.4901,0 -3.54544,2.89676 -6.78965,6.43724 -8.92773,9.74305 -25.91049,23.5986 -34.30023,27.98419 -4.11311,2.15005 -8.86597,4.95607 -10.5619,6.23558 -1.69593,1.27952 -4.62093,2.61845 -6.5,2.97541 -1.87907,0.35695 -3.86649,0.98494 -4.41649,1.39554 -1.16205,0.8675 -12.17664,5.19082 -18,7.06515 -3.81152,1.22679 -9.32824,1.7962 -21.48008,2.21708 -4.5947,0.15914 -5.53785,-0.10495 -5.83765,-1.63459 -0.19667,-1.00343 0.37939,-2.63875 1.28014,-3.63406 1.61723,-1.78702 3.2986,-2.32796 17.03759,-5.48145 21.63406,-4.96563 38.51934,-12.70355 56.30036,-25.80044 C 438.45406,332.70279 452,318.39546 452,314.03117 c 0,-4.21412 -9.09169,-19.50476 -19.17955,-32.25668 -10.18946,-12.88035 -15.2413,-19.9986 -17.03265,-23.99971 -0.99164,-2.2149 -3.82456,-7.27059 -6.29539,-11.23487 C 407.02158,242.57563 405,238.44551 405,237.36185 c 0,-1.08366 -1.35,-4.09902 -3,-6.7008 -1.65,-2.60178 -3,-5.10264 -3,-5.55746 0,-1.5986 -6.22702,-14.63732 -8.4071,-17.60359 -1.21268,-1.65 -3.93246,-6.6 -6.04395,-11 -12.08486,-25.1829 -13.30129,-27.16409 -22.80042,-37.13502 -3.98921,-4.18734 -7.76581,-6.99716 -11.89597,-8.85066 -8.32566,-3.73633 -6.68247,-5.01432 6.44726,-5.01432 15.30763,0 24.4496,3.19274 35.70503,12.46963 8.3207,6.85805 12.64954,12.10588 24.54647,29.75764 3.04976,4.52499 6.29982,8.64967 7.22235,9.16595 0.92254,0.51627 3.03836,3.61722 4.70183,6.89098 7.13309,14.03815 22.9507,35.22115 28.53621,38.2158 3.77906,2.02613 9.97618,7.59034 29.49045,26.47863 9.07951,8.78824 16.79094,16.88824 17.13653,18 0.34559,1.11175 1.92388,3.66822 3.50732,5.68104 1.58343,2.01283 3.49462,5.40461 4.24708,7.53731 0.75246,2.1327 3.13263,6.78585 5.28927,10.34033 3.88861,6.40904 8.31764,20.75119 8.31764,26.93428 0,1.59402 0.50091,4.16501 1.11313,5.71331 3.20961,8.1171 2.88532,29.59172 -0.69111,45.76489 -1.42246,6.43262 -5.79403,16.00517 -8.92813,19.55021 -0.72937,0.825 -2.04295,3.3 -2.91907,5.5 -2.21678,5.5665 -21.67185,23.08724 -29.1271,26.23112 -2.99338,1.26231 -6.90619,3.18753 -8.69512,4.27826 -1.78893,1.09073 -4.16064,1.98483 -5.27047,1.98688 -1.10982,0.002 -3.71556,1.15735 -5.79052,2.56733 l -3.77266,2.56359 0.29052,18.88604 c 0.18336,11.9195 -0.0864,19.2631 -0.73128,19.90823 -0.562,0.56219 -4.2555,1.32271 -8.2078,1.69004 -7.11614,0.66137 -7.19802,0.64145 -8.42409,-2.04947 -1.58372,-3.4759 -0.35275,-5.54335 4.22062,-7.08867 l 3.43308,-1.16002 0,-13.40666 0,-13.40667 -9.3658,0.2842 c -5.57225,0.16909 -10.47235,0.85643 -12.09773,1.69694 -2.55872,1.32316 -2.76931,1.94265 -3.32179,9.77129 -0.32443,4.59721 -0.329,11.80791 -0.0102,16.02378 0.5602,7.40722 0.4992,7.69568 -1.81241,8.57025 -3.07876,1.16481 -11.90679,2.11682 -14.03564,1.5136 z M 298.79752,406.06383 c -2.5751,-2.70599 -2.61852,-2.91584 -0.92126,-4.45184 2.43126,-2.20027 4.7226,-2.02279 6.4916,0.50281 1.50179,2.14412 1.15918,4.78184 -0.79492,6.11989 -1.55687,1.06605 -1.80048,0.95531 -4.77542,-2.17086 z m 23.27289,-4.47899 c -0.79351,-0.95612 -0.28526,-3.03982 1.93684,-7.94056 3.12482,-6.89164 4.28546,-7.8651 5.83539,-4.89428 0.64225,1.23103 0.17908,3.43451 -1.56184,7.43024 -2.60316,5.97475 -4.42291,7.55839 -6.21039,5.4046 z m -3.43306,-31.1679 c -1.93978,-2.85465 -2.30555,-4.1684 -1.55235,-5.57576 1.34096,-2.5056 4.46755,-2.31809 6.3583,0.38133 2.06932,2.95437 1.9633,5.09955 -0.35576,7.19827 -1.83655,1.66205 -2.0132,1.58251 -4.45019,-2.00384 z m -54.20308,-2.62404 c -0.58031,-1.8284 0.43917,-3.28683 5.94174,-8.5 6.51946,-6.17657 11.50998,-8.94287 6.39155,-3.5429 -1.43364,1.5125 -3.74307,5.3375 -5.13206,8.5 -2.74157,6.24208 -5.85793,7.77528 -7.20123,3.5429 z"
       style="fill:#535347" />
    <path
       id="path9762"
       d="m 410.01865,490.03485 c -0.96259,-1.79862 -0.87003,-2.54159 0.50608,-4.06217 0.92627,-1.02352 2.63837,-1.99859 3.80467,-2.16681 3.41635,-0.49278 4.19212,-3.64369 3.8572,-15.66667 -0.29256,-10.50262 -0.45876,-11.30667 -2.5,-12.09472 -2.56035,-0.98845 -1.44434,-1.55672 4.77299,-2.43037 2.17778,-0.30601 9.40366,-3.25077 16.05752,-6.5439 11.53032,-5.70658 12.50576,-6.43649 20.79041,-15.55704 4.78086,-5.26325 8.69248,-10.1129 8.69248,-10.777 0,-0.66411 1.18321,-3.68892 2.62936,-6.72182 4.20551,-8.8199 4.28824,-9.1007 5.30717,-18.01435 1.38159,-12.0863 1.20948,-22.40961 -0.50852,-30.5 -0.81754,-3.85 -2.20463,-10.375 -3.08241,-14.5 -0.87779,-4.125 -2.21464,-8.91801 -2.97079,-10.65113 C 466.61867,338.61575 466,336.85131 466,336.4279 c 0,-0.42342 -1.38748,-3.61791 -3.08329,-7.09887 -2.02875,-4.16439 -3.65334,-6.29643 -4.75,-6.23373 -0.91669,0.0524 -4.14171,2.86501 -7.16671,6.25021 -6.34799,7.10387 -22.95424,21.60543 -29.4811,25.74464 -2.45426,1.55645 -6.69294,3.7895 -9.41929,4.96235 -2.72635,1.17284 -5.72587,2.98203 -6.6656,4.02041 -0.93972,1.03839 -3.33431,2.17986 -5.3213,2.53661 -1.98699,0.35675 -4.73771,1.25316 -6.11271,1.99201 -6.38407,3.43048 -19.52542,7.54598 -26.71294,8.36573 -4.35916,0.49717 -9.13103,1.20646 -10.60416,1.57619 -3.66253,0.91924 -5.63673,-0.004 -5.02344,-2.34923 0.57065,-2.18215 2.4699,-2.82852 19.84054,-6.75224 12.81466,-2.89462 14.07886,-3.36078 30.96839,-11.41927 16.24288,-7.74995 35.9226,-22.34855 42.88442,-31.81205 1.90597,-2.59086 4.6313,-5.8016 6.05629,-7.13497 1.425,-1.33338 2.5909,-3.1897 2.5909,-4.12516 0,-4.42768 -9.15387,-20.49346 -16.77817,-29.44705 -8.46729,-9.94354 -18.00367,-23.04558 -19.66112,-27.01242 -0.89528,-2.14271 -3.86269,-7.37987 -6.59425,-11.63812 C 408.23491,242.59469 406,238.02848 406,236.70581 c 0,-1.32266 -1.34181,-4.38506 -2.9818,-6.80533 -1.63999,-2.42026 -2.98999,-4.98359 -3,-5.69629 -0.01,-0.71269 -1.1432,-3.40911 -2.5182,-5.99204 -1.375,-2.58293 -2.5,-5.22779 -2.5,-5.87747 0,-0.64968 -1.05225,-2.45326 -2.33833,-4.00795 -2.42698,-2.93389 -4.72429,-7.25447 -13.73238,-25.82673 -2.93443,-6.05 -6.70647,-12.72478 -8.38231,-14.83285 -5.67892,-7.14361 -14.02604,-14.75254 -19.03776,-17.35414 -4.82955,-2.50703 -4.91083,-2.6203 -2.51603,-3.5062 5.69017,-2.10493 22.24829,0.2599 32.50681,4.64262 3.42549,1.46346 16.79338,12.38253 19.72975,16.11552 3.00117,3.81538 8.19263,11.11015 14.18714,19.93505 2.9888,4.4 6.78066,9.16441 8.42636,10.58757 1.68807,1.4598 3.46702,4.35095 4.08164,6.63351 0.59921,2.22527 1.73893,4.58495 2.53271,5.24373 0.79379,0.65879 2.76448,3.52371 4.37932,6.36649 2.60679,4.58903 10.73106,15.29253 17.33101,22.83315 1.28264,1.46545 3.78659,3.38538 5.56434,4.26651 1.77775,0.88114 4.25275,2.98849 5.5,4.68302 1.24725,1.69453 3.55867,3.75129 5.13649,4.57058 3.66142,1.90122 34.63124,32.51912 34.63124,34.23771 0,0.70946 1.31876,2.95499 2.93057,4.99007 1.61181,2.03508 3.72749,5.69984 4.7015,8.1439 0.97401,2.44407 3.45956,7.14376 5.52343,10.44376 3.92004,6.26787 6.38225,14.26289 7.96868,25.87501 0.5166,3.78126 1.40155,7.7388 1.96656,8.79455 1.8135,3.38855 2.03533,17.19717 0.48936,30.46247 -1.60307,13.75531 -3.06687,19.0595 -7.2629,26.31757 -1.44686,2.50272 -4.02263,7.07788 -5.72393,10.16702 -4.29278,7.79464 -22.09282,24.0228 -29.43865,26.839 -2.93997,1.1271 -6.48815,2.94818 -7.88486,4.04683 -1.39671,1.09865 -3.442,1.99755 -4.54509,1.99755 -1.10308,0 -3.96141,0.97677 -6.35183,2.17061 -5.4083,2.70103 -5.50697,3.18011 -5.14747,24.99269 0.15105,9.16481 -0.0694,17.00882 -0.48984,17.43113 -0.99847,1.00287 -10.67071,2.23528 -12.92217,1.64651 -3.97897,-1.04052 -3.20467,-6.87395 1.04694,-7.88746 4.99249,-1.19012 5.1302,-1.64901 4.7148,-15.71072 -0.21354,-7.22852 -0.4303,-13.48026 -0.48168,-13.89276 -0.27675,-2.2218 -22.05854,0.78655 -24.68072,3.40873 -1.37776,1.37776 -1.63446,4.10031 -1.61875,17.16831 0.021,17.45804 0.65935,16.18295 -8.62807,17.2337 -5.4821,0.62023 -6.06529,0.49572 -7.14723,-1.52589 z"
       style="fill:#46463a" />
    <path
       id="path9760"
       d="m 411.75,491.30784 c -1.06306,-0.27608 -1.75,-1.41023 -1.75,-2.88926 0,-1.90716 0.8668,-2.7816 4,-4.03526 2.2,-0.88026 4.08129,-2.11412 4.18065,-2.7419 0.0994,-0.62778 0.21186,-6.65373 0.25,-13.391 0.0536,-9.46265 -0.22847,-12.24967 -1.23967,-12.25 -0.71996,-2.3e-4 -1.01194,-0.4811 -0.64885,-1.06859 0.3631,-0.5875 1.28173,-0.82966 2.04141,-0.53815 1.9808,0.76011 8.2997,-1.65476 21.13265,-8.07618 8.85816,-4.4325 11.78892,-6.43887 13.94043,-9.54351 1.49834,-2.1621 4.8633,-5.85428 7.47769,-8.20484 2.64428,-2.37743 5.0598,-5.5595 5.44388,-7.17145 0.37973,-1.59374 1.23277,-3.5727 1.89564,-4.3977 3.50991,-4.36843 8.77539,-27.16971 6.9546,-30.1158 -1.18624,-1.91937 0.71918,-4.8842 3.13896,-4.8842 1.33793,0 2.43261,-0.45 2.43261,-1 0,-0.55 -0.675,-1 -1.5,-1 -0.825,0 -1.5,-0.6 -1.5,-1.33333 0,-2.07545 1.18357,-2.75921 2.65799,-1.53555 1.08224,0.89818 1.34201,0.38551 1.34201,-2.64843 0,-2.27637 0.62466,-4.21897 1.58166,-4.91874 1.90842,-1.39547 2.42399,-15.64729 0.64366,-17.79246 -0.60874,-0.73348 -1.32124,-2.51614 -1.58332,-3.96146 -0.26209,-1.44531 -1.15033,-3.68134 -1.97387,-4.96894 -0.95685,-1.49601 -1.37342,-4.05615 -1.15402,-7.09225 0.33199,-4.59405 0.26303,-4.73101 -2.08539,-4.1416 -2.53852,0.63713 -2.66011,0.39789 -2.84976,-5.60724 -0.0604,-1.91162 -0.56869,-2.45099 -2.15981,-2.29176 -1.61728,0.16185 -2.56663,-0.90431 -4.26146,-4.78578 -1.19933,-2.74671 -2.96295,-5.2857 -3.91915,-5.64219 -0.9562,-0.3565 -3.3737,-2.18353 -5.37224,-4.06007 -2.84656,-2.67281 -3.90632,-4.69655 -4.89222,-9.34233 -1.17528,-5.53821 -1.37334,-5.82652 -2.99456,-4.35933 -1.59687,1.44514 -1.99402,1.31311 -4.95399,-1.64685 l -3.21794,-3.21795 2.3462,-1.80463 c 2.30614,-1.77381 2.30987,-1.80502 0.21865,-1.82687 C 444.20229,287.01001 442.68469,286.325 442,285.5 c -0.68469,-0.825 -2.05198,-1.5 -3.03842,-1.5 -2.6648,0 -14.42918,-15.43439 -13.23597,-17.36505 0.32087,-0.51918 0.0836,-0.6351 -0.52717,-0.25759 -0.61843,0.38221 -1.8705,-0.47342 -2.82544,-1.93084 -1.45926,-2.22712 -1.50307,-2.75354 -0.29393,-3.53189 1.14509,-0.73712 1.01509,-1.02629 -0.66969,-1.48961 -1.14984,-0.31621 -2.82842,-2.2287 -3.73018,-4.24997 -0.90175,-2.02128 -2.99742,-5.25005 -4.65703,-7.17505 -1.65961,-1.925 -3.01853,-4.2875 -3.01982,-5.25 C 410.00106,241.7875 409.55,241 409,241 c -0.55,0 -1,-1.8 -1,-4 0,-2.2 0.47656,-4 1.05902,-4 0.58246,0 0.76739,-0.47185 0.41097,-1.04856 -0.4463,-0.72213 -1.03529,-0.72717 -1.89198,-0.0162 -0.92138,0.76468 -1.9355,-0.0239 -3.91097,-3.04119 C 402.20017,226.65362 401,224.16529 401,223.36445 c 0,-0.80083 -1.125,-3.56937 -2.5,-6.1523 -1.375,-2.58293 -2.5,-5.21974 -2.5,-5.85958 0,-0.63984 -1.5017,-2.96076 -3.33711,-5.15761 -1.83542,-2.19684 -3.93453,-5.50192 -4.6647,-7.34461 -0.73017,-1.84269 -1.86126,-4.02535 -2.51353,-4.85035 -0.65228,-0.825 -1.94716,-3.89261 -2.87751,-6.81691 -0.93035,-2.9243 -3.02256,-7.15432 -4.64935,-9.40004 -1.62679,-2.24572 -2.9578,-4.67561 -2.9578,-5.39976 0,-0.72414 -1.575,-2.89162 -3.5,-4.81662 -1.925,-1.925 -3.5,-4.19 -3.5,-5.03334 C 368,161.69 367.64363,161 367.20806,161 c -0.43556,0 -3.02306,-2.06174 -5.75,-4.58165 -2.72693,-2.51991 -6.98306,-5.50228 -9.45806,-6.62749 l -4.5,-2.04583 3,-0.89016 c 4.25948,-1.26387 14.63331,-0.0719 24.17165,2.77736 6.9466,2.07506 9.42722,3.47041 16.54699,9.3077 8.293,6.79919 10.45054,9.41029 23.35687,28.26691 3.65409,5.33876 7.67764,10.38423 8.94121,11.21216 1.28337,0.84089 3.03426,3.72376 3.9668,6.5314 0.91817,2.76434 2.0741,5.27619 2.56873,5.58189 0.49462,0.3057 2.58955,3.12349 4.65539,6.26176 8.36324,12.70485 18.4268,24.70699 22.469,26.7973 1.55102,0.80206 4.28328,3.06785 6.07169,5.03508 1.78842,1.96724 4.37667,4.18054 5.75167,4.91844 4.15083,2.22758 32.73682,30.76891 33.50747,33.45513 0.39447,1.375 1.76273,3.625 3.04058,5 1.27784,1.375 3.24694,4.66233 4.37577,7.30517 1.12882,2.64285 3.8684,7.91459 6.08796,11.71499 3.87128,6.62856 4.91215,9.84013 7.12367,21.97984 0.55107,3.025 1.70204,8.33478 2.5577,11.79952 2.00179,8.10559 1.94355,24.8986 -0.12772,36.82908 -1.91373,11.02306 -3.06391,14.49463 -6.74934,20.3714 -1.55212,2.475 -3.90816,6.75 -5.23564,9.5 -3.67519,7.6135 -21.44874,24.03227 -29.23369,27.00537 -2.58561,0.98746 -6.25918,2.85271 -8.16348,4.145 -1.90431,1.2923 -4.64512,2.34963 -6.09069,2.34963 -1.44558,0 -4.30778,1.14122 -6.36046,2.53605 -3.52959,2.39842 -4.66333,5.36085 -3.78866,9.89964 0.57153,2.9657 -0.0182,31.03862 -0.66554,31.68408 -0.42786,0.4266 -3.84883,1.08973 -7.60216,1.47363 l -6.82422,0.698 0.32422,-3.31285 c 0.27219,-2.78113 0.88599,-3.50076 3.82423,-4.48362 l 3.5,-1.17077 0.27658,-14.01758 c 0.21224,-10.75716 -0.0348,-14.276 -1.06214,-15.12861 -2.02241,-1.67845 -22.28172,0.96074 -24.5145,3.19351 -1.44803,1.44804 -1.6983,3.98095 -1.71372,17.34441 l -0.0181,15.64873 -2.48409,0.66188 c -4.40467,1.17362 -9.43821,1.74774 -11.23408,1.28134 z"
       style="fill:#403e38" />
    <path
       id="path9758"
       d="m 410.66667,490.33333 c -1.77369,-1.77368 -0.45649,-4.24759 2.84101,-5.33586 1.92922,-0.6367 3.97225,-2.02571 4.54006,-3.08668 0.56782,-1.06097 0.97032,-6.31244 0.89446,-11.66992 -0.19703,-13.91349 0.0383,-14.47527 7.1343,-17.02843 3.27151,-1.17711 6.61764,-1.8833 7.43585,-1.56933 0.93333,0.35816 1.48765,-0.0229 1.48765,-1.0227 0,-0.88624 1.60774,-2.26533 3.62212,-3.10699 4.44562,-1.8575 4.44715,-1.8575 3.74274,-0.0218 -0.82982,2.16248 2.29135,2.99507 4.1732,1.11323 0.8742,-0.8742 1.3343,-2.0023 1.02245,-2.50689 -1.18671,-1.92013 0.67169,-4.13736 3.24183,-3.86779 2.19678,0.23041 2.67737,-0.22465 3.28595,-3.11145 0.39206,-1.85973 2.10529,-4.77379 3.80719,-6.47569 l 3.09436,-3.09436 -0.99492,3.46909 c -0.54721,1.908 -0.99492,3.72993 -0.99492,4.04873 0,0.31881 2.21123,0.54678 4.91385,0.5066 3.96293,-0.0589 4.70107,-0.32969 3.8143,-1.39926 -1.41741,-1.70961 0.66403,-3.13717 4.60518,-3.15847 1.83214,-0.01 2.6766,-0.45702 2.38977,-1.26531 -0.24396,-0.6875 -1.51896,-1.14282 -2.83333,-1.01182 l -2.38977,0.23819 2.75,-2.44022 c 1.5125,-1.34212 2.75,-2.9118 2.75,-3.48818 0,-0.57639 1.09468,-1.04797 2.43261,-1.04797 2.70931,0 4.10514,-2.73033 3.06739,-6 -0.49505,-1.55976 -0.1797,-2 1.43261,-2 1.5139,0 2.06739,-0.64067 2.06739,-2.39301 0,-2.97528 2.98711,-4.34511 4.61636,-2.11697 1.02791,1.40574 1.47257,1.21113 3.68142,-1.61126 1.38176,-1.76556 2.27969,-3.81629 1.99538,-4.55717 -0.2843,-0.74088 0.0365,-2.01393 0.71299,-2.829 0.67644,-0.81506 0.99935,-2.36357 0.71756,-3.44113 -0.43979,-1.68175 -0.1204,-1.8808 2.25544,-1.40563 2.13849,0.4277 3.1376,0.0256 4.39432,-1.76864 2.30093,-3.28504 2.03141,-4.75185 -1.12347,-6.11424 l -2.75,-1.18755 3.64756,-0.34196 c 2.59999,-0.24375 3.79369,-0.90077 4.15638,-2.2877 0.2997,-1.14605 1.36929,-1.94574 2.60244,-1.94574 1.15149,0 2.09976,-0.5625 2.10727,-1.25 0.008,-0.6875 0.26879,-2.20053 0.58062,-3.36229 0.42078,-1.56764 0.0308,-2.25251 -1.51266,-2.65612 -1.14379,-0.2991 -2.33162,-0.13608 -2.63963,0.36229 C 506.39,378.79602 503,378.07948 503,376.15499 c 0,-2.72094 3.30614,-5.44885 4.79699,-3.958 2.19569,2.19569 2.55116,-0.1975 0.37362,-2.51538 C 506.97677,368.41083 506,366.6677 506,365.80799 c 0,-2.36947 2.68473,-4.10141 5.51812,-3.55978 3.5648,0.68146 3.94365,-0.69553 1.00099,-3.63819 -2.87576,-2.87576 -3.17577,-4.42081 -1.01911,-5.24839 C 514.22042,352.3177 513.18623,350 510,350 c -1.66667,0 -3.88889,-0.88889 -5,-2 -2.5825,-2.5825 -4.62452,-2.54385 -5.31606,0.10062 -0.95639,3.65722 -2.80377,1.07271 -2.09333,-2.9286 0.83781,-4.71871 2.16814,-6.17666 3.72671,-4.08425 0.65047,0.87327 1.66764,1.42412 2.26037,1.22411 0.59272,-0.20002 1.59558,0.77298 2.22856,2.16222 0.67825,1.48861 1.981,2.5259 3.17231,2.5259 2.2442,0 2.66867,-1.95277 0.82519,-3.79625 -0.92834,-0.92834 -0.76037,-1.53319 0.75,-2.70067 1.91062,-1.47687 1.90229,-1.54162 -0.45513,-3.53662 -2.16348,-1.83088 -2.27066,-2.27649 -1.08183,-4.49783 1.56267,-2.91989 1.15566,-3.47583 -3.21604,-4.39282 -2.5579,-0.53653 -3.28288,-1.18561 -3.22135,-2.88408 C 502.6231,323.98628 502.09807,323 501.41273,323 c -2.1237,0 -2.16613,-2.3791 -0.0727,-4.07429 1.17226,-0.94925 1.74599,-2.25902 1.39276,-3.17954 -0.48296,-1.25858 -1.33774,-1.39912 -4.36156,-0.71714 -4.85268,1.09446 -6.07565,0.27585 -3.36318,-2.2512 1.62297,-1.51203 1.8731,-2.29234 1.00795,-3.14446 -0.85948,-0.84654 -1.4779,-0.69049 -2.44361,0.61663 -1.59266,2.1557 -3.57244,2.28039 -3.57244,0.225 0,-0.90388 1.25688,-1.77638 3.08595,-2.14219 4.00349,-0.8007 4.61405,-2.62744 1.99224,-5.96054 -1.19704,-1.52179 -1.87122,-3.44901 -1.55503,-4.44524 0.68471,-2.15733 -1.31148,-3.64223 -2.10754,-1.56773 -0.70471,1.83644 -2.93655,2.76177 -4.87089,2.01949 -1.20159,-0.46109 -1.11443,-0.92428 0.5,-2.65718 2.21292,-2.37529 2.3467,-3.1217 1.00786,-5.62334 -0.62108,-1.16051 -2.23687,-1.81873 -4.69102,-1.91099 -4.48031,-0.16843 -7.26437,-2.39454 -5.56123,-4.4467 0.74612,-0.89903 0.83085,-2.35616 0.25005,-4.30019 -0.48317,-1.61721 -0.91716,-2.43858 -0.96444,-1.82525 -0.0473,0.61333 -0.98743,2.26118 -2.08923,3.6619 -1.80538,2.29517 -2.29931,2.43502 -5,1.41562 -3.54564,-1.33833 -4.06703,-4.82958 -1.03809,-6.95113 2.5161,-1.76235 4.02305,-9.74153 1.83978,-9.74153 -0.84881,0 -1.42406,0.89714 -1.37781,2.14879 0.12056,3.26277 -2.2656,3.38757 -3.48915,0.18249 -0.992,-2.59853 -1.18654,-2.68742 -2.3664,-1.08128 -1.82159,2.47973 -3.77124,2.18968 -3.36086,-0.5 0.18881,-1.2375 0.93037,-2.12575 1.64791,-1.97388 2.41381,0.51088 0.68321,-3.23225 -2.11433,-4.57307 -1.50577,-0.7217 -2.73777,-1.6955 -2.73777,-2.164 0,-0.46849 -0.81894,-0.63765 -1.81986,-0.37591 -1.00092,0.26175 -2.41544,-0.24173 -3.14338,-1.11885 -1.13812,-1.37135 -1.54858,-1.39938 -2.93014,-0.20009 -1.34108,1.16415 -7.10662,2.90263 -7.10662,2.14285 0,-0.12958 0.68372,-2.17346 1.51937,-4.54195 0.90844,-2.5748 1.15487,-4.67086 0.61287,-5.21286 -0.54201,-0.54201 -1.17667,-0.46938 -1.57839,0.18063 -1.08764,1.75984 -3.70165,1.25812 -3.45357,-0.66287 0.59031,-4.57111 -2.73507,-16.25 -4.62694,-16.25 -0.75436,0 -2.5372,-1.52823 -3.96187,-3.39607 -1.84625,-2.42056 -3.15348,-3.2488 -4.55089,-2.88337 C 424.61022,226.07369 424,225.7301 424,224.61663 424,223.72748 423.325,223 422.5,223 c -0.83333,0 -1.5,0.88889 -1.5,2 0,1.1 -0.48263,2 -1.0725,2 -0.64718,0 -1.00994,-2.08201 -0.91475,-5.25 0.27048,-9.00149 0.0726,-9.78481 -3.23561,-12.80637 C 411.98894,205.48364 410.4606,205.27084 409,208 c -1.28256,2.39648 -3,2.62912 -3,0.40638 0,-0.87649 0.9,-1.82897 2,-2.11663 2.34207,-0.61247 2.69449,-4.08602 0.5,-4.92812 -0.825,-0.31659 -1.5,-1.20246 -1.5,-1.96862 C 407,198.62686 406.57757,198 406.06127,198 c -0.5163,0 -1.23629,-1.98428 -1.59997,-4.40951 -0.69062,-4.60537 -1.40757,-5.19117 -7.9613,-6.50497 -2.30489,-0.46206 -2.91892,-1.06297 -2.65005,-2.59346 0.19247,-1.09563 0.80302,-2.27331 1.35676,-2.61706 0.65732,-0.40805 0.62263,-0.86244 -0.0999,-1.30902 C 394.49804,180.18977 394,178.83862 394,177.56343 c 0,-3.22312 -2.50602,-5.21828 -4.48817,-3.57325 -1.20766,1.00227 -1.60854,0.92137 -2.12679,-0.42916 -0.46932,-1.22304 -1.36588,-1.5045 -3.38189,-1.06171 -2.20429,0.48414 -2.84863,0.19957 -3.27958,-1.4484 C 380.40541,169.83428 379.363,169 378.16101,169 c -1.1725,0 -2.30377,-0.87443 -2.68493,-2.07536 C 374.60157,164.16931 375.36296,163.5887 378,165 c 2.70676,1.44861 2.95668,1.19392 2.28088,-2.32449 -0.72195,-3.75871 -4.7794,-5.43932 -7.40198,-3.06592 -1.50945,1.36604 -2.11738,1.43738 -3.37247,0.39574 -1.17946,-0.97885 -1.26587,-1.59026 -0.37626,-2.66217 1.45666,-1.75517 0.24975,-3.12308 -1.34684,-1.52649 C 365.78468,157.81532 362,157.28088 362,155 c 0,-1.28986 -0.66667,-2 -1.87756,-2 -1.03265,0 -2.39274,-0.62077 -3.02242,-1.37949 -0.62968,-0.75871 -2.48478,-1.64746 -4.12245,-1.975 -4.04482,-0.80896 -3.7495,-2.27811 0.62281,-3.09836 3.81938,-0.71652 7.39962,1.29957 7.39962,4.16685 0,0.77222 0.43035,1.13807 0.95633,0.81299 0.52598,-0.32507 0.72511,-1.19356 0.44253,-1.92997 -0.28259,-0.73642 0.17299,-1.60248 1.0124,-1.92459 1.87387,-0.71908 16.98584,3.70251 20.48065,5.9924 C 393.0051,159.63602 405,171.53771 405,174.60888 405,175.374 405.39871,176 405.88602,176 c 0.48731,0 4.19981,4.91822 8.25,10.92937 4.05019,6.01116 8.33439,11.38233 9.52046,11.93595 1.27946,0.59722 2.43612,2.35436 2.8441,4.32063 0.37819,1.82273 1.86642,5.05197 3.30717,7.17609 1.44074,2.12412 3.0859,4.6521 3.65589,5.61773 2.0693,3.5056 4.92164,7.54268 6.01984,8.52023 0.61789,0.55 2.58349,3.1375 4.36802,5.75 1.78452,2.6125 3.63626,4.75 4.11498,4.75 0.47872,0 1.85245,1.58899 3.05273,3.53109 1.20028,1.94209 3.9304,4.42288 6.06694,5.51286 2.13653,1.08998 4.63301,3.12399 5.54772,4.52002 0.91472,1.39604 3.0001,3.22963 4.63417,4.07464 1.63407,0.84501 8.55412,7.00951 15.37789,13.69889 6.82377,6.68937 13.96998,13.66304 15.88046,15.49703 1.91049,1.83399 3.47361,3.93702 3.47361,4.6734 0,0.73638 1.47906,3.28585 3.2868,5.66547 1.80774,2.37963 3.90508,5.9016 4.66076,7.8266 0.75568,1.925 3.29317,6.65 5.63886,10.5 4.10157,6.73193 5.34655,10.70673 7.4674,23.8409 0.51874,3.2125 1.6732,8.35214 2.56546,11.42143 2.02842,6.97751 1.40562,29.86978 -1.12038,41.18216 -1.66754,7.46786 -5.47694,16.30587 -7.59153,17.61276 -0.62186,0.38433 -2.24082,3.22868 -3.59769,6.32077 -3.39202,7.7299 -19.9124,23.30816 -28.72267,27.08468 -2.64922,1.13559 -6.00257,2.90259 -7.45188,3.92667 -1.44932,1.02407 -4.21013,2.17166 -6.13513,2.55018 -5.43316,1.06836 -9.86898,3.74229 -10.82532,6.52555 -0.47905,1.3942 -0.69459,10.1849 -0.47897,19.5349 0.21562,9.35 0.009,17.56059 -0.45823,18.24576 -0.49552,0.726 -3.53868,1.35183 -7.29388,1.5 L 445.5,490.5 l 0,-3 c 0,-2.5264 0.43241,-3.04979 2.73908,-3.31537 4.85698,-0.55921 5.55037,-2.88384 5.0627,-16.97281 -0.242,-6.9915 -0.63976,-13.32637 -0.88389,-14.07749 -0.4614,-1.41952 -5.55699,-1.24356 -18.68697,0.64532 -8.79893,1.26581 -8.81663,1.30582 -8.81663,19.91887 l 0,16.04138 -4.59672,0.63005 c -5.90266,0.80905 -8.81629,0.79799 -9.6509,-0.0366 z"
       style="fill:#373930" />
  </g>
</svg>
