<?xml version="1.0" encoding="UTF-8" standalone="no"?>
<svg
   xmlns:dc="http://purl.org/dc/elements/1.1/"
   xmlns:cc="http://creativecommons.org/ns#"
   xmlns:rdf="http://www.w3.org/1999/02/22-rdf-syntax-ns#"
   xmlns:svg="http://www.w3.org/2000/svg"
   xmlns="http://www.w3.org/2000/svg"
   viewBox="0 0 800 600"
   height="600"
   width="800"
   version="1.1"
   id="svg8612">
  <metadata
     id="metadata8618">
    <rdf:RDF>
      <cc:Work
         rdf:about="">
        <dc:format>image/svg+xml</dc:format>
        <dc:type
           rdf:resource="http://purl.org/dc/dcmitype/StillImage" />
        <dc:title></dc:title>
      </cc:Work>
    </rdf:RDF>
  </metadata>
  <defs
     id="defs8616" />
  <g
     id="g9162">
    <path
       id="path9192"
       d="m 370.43077,495.09187 c -0.22753,-0.22447 -6.60503,-0.36951 -14.17223,-0.32231 C 340.56743,494.86743 338,494.04592 338,488.92729 c 0,-3.61376 2.55641,-8.937 4.27568,-8.90328 13.58215,0.26633 71.62936,-0.84729 72.50923,-1.39107 C 415.45321,478.2199 416,476.13508 416,474 c 0,-2.13508 0.45,-4.16008 1,-4.5 0.55,-0.33992 1,-1.73882 1,-3.10868 0,-1.36985 0.70231,-3.84875 1.56068,-5.50866 2.93051,-5.66699 1.83483,-7.17201 -6.56068,-9.01171 -9.72931,-2.13198 -12.3779,-3.01829 -19.00921,-6.36113 C 385.82099,441.39143 372,432.81134 372,431.85791 c 0,-0.45805 -1.8379,-1.99304 -4.08422,-3.41108 -2.24633,-1.41804 -4.83383,-3.95119 -5.75,-5.62923 -0.91618,-1.67804 -3.35221,-5.58596 -5.4134,-8.68429 -2.06119,-3.09832 -3.74869,-6.01384 -3.75,-6.47894 -0.001,-0.4651 -0.90574,-2.11428 -2.00984,-3.66484 -1.1041,-1.55057 -2.26808,-4.99504 -2.58661,-7.65438 -0.31854,-2.65933 -1.19115,-6.47169 -1.93913,-8.4719 -0.74799,-2.00021 -1.15785,-3.83887 -0.9108,-4.08592 0.24705,-0.24705 -0.47592,-3.11051 -1.6066,-6.36325 -1.82416,-5.24777 -1.98978,-7.43507 -1.47005,-19.41408 0.32215,-7.425 0.83545,-15.61676 1.14068,-18.20391 0.73318,-6.21447 0.11553,-7.00137 -4.10975,-5.23594 -4.68777,1.95868 -8.86625,1.80898 -10.85529,-0.38889 -1.65892,-1.83308 -2.18398,-6.62915 -1.04943,-9.58574 0.33305,-0.86793 5.39555,-3.91996 11.25,-6.78229 5.85444,-2.86234 10.7969,-5.30398 10.98324,-5.42587 0.18634,-0.1219 0.77001,-2.16917 1.29704,-4.5495 1.38432,-6.25228 5.17483,-15.63732 11.84517,-29.32786 3.21568,-6.6 7.03763,-15.15 8.49324,-19 1.4556,-3.85 4.41937,-10.4284 6.58615,-14.61867 2.36706,-4.57758 3.9396,-9.00472 3.9396,-11.09107 0,-1.90982 0.68695,-5.68142 1.52657,-8.38133 0.83961,-2.69991 1.94804,-6.93393 2.46317,-9.40893 1.02005,-4.90089 3.3309,-15.05141 5.57763,-24.5 0.78469,-3.3 2.49875,-11.175 3.80901,-17.5 2.98897,-14.42856 8.53747,-26.05517 15.68967,-32.87692 3.68877,-3.51834 7.35324,-5.66648 14.60635,-8.56235 10.67273,-4.26119 10.5916,-4.2509 24.8276,-3.14676 13.06341,1.0132 27.1128,5.92268 33,11.53166 2.2,2.09603 6.025,5.24756 8.5,7.00339 4.58849,3.2552 6.90116,6.29224 6.96456,9.14599 0.0195,0.87726 0.93544,2.4095 2.03544,3.40499 1.1,0.99549 2,2.33071 2,2.96716 0,0.63645 0.9,3.01997 2,5.2967 1.1,2.27674 2,5.08595 2,6.2427 0,1.15674 0.90185,4.08285 2.00411,6.50246 2.49519,5.47729 4.8677,16.55843 5.66338,26.45164 0.3335,4.14664 0.95447,7.98934 1.37995,8.53934 0.42547,0.55 1.08174,2.8 1.45837,5 3.59174,20.98039 5.01948,25.89052 9.72518,33.44578 1.52296,2.44518 2.76901,5.42758 2.76901,6.62756 0,1.19997 0.65757,2.72751 1.46127,3.39452 0.8037,0.66701 1.76066,2.18461 2.12656,3.37245 0.36591,1.18783 2.1053,4.18469 3.86532,6.65969 1.76001,2.475 4.45109,6.975 5.98017,10 1.52908,3.025 4.20602,7.75 5.94876,10.5 3.07791,4.85686 4.06877,7.08623 7.33356,16.5 0.85836,2.475 2.1234,5.175 2.81121,6 2.81576,3.3774 5.17441,25.51489 5.06091,47.5 -0.0931,18.03961 0.063,17.25052 -6.53027,33 -0.4605,1.1 -1.32405,3.8 -1.91899,6 -1.66075,6.14115 -12.91005,19.41511 -24.86667,29.34219 C 525.60896,438.54383 514.23267,445 511.61086,445 c -0.73113,0 -3.91785,1.38131 -7.0816,3.06959 -3.54672,1.89263 -8.98543,3.63392 -14.18464,4.54143 -4.63779,0.80951 -9.56691,1.9032 -10.95359,2.43041 -1.38668,0.52721 -3.77071,0.95857 -5.29784,0.95857 -2.35694,0 -2.95169,0.58433 -3.9349,3.86602 -0.63706,2.12631 -1.15829,5.26985 -1.15829,6.98565 0,1.71579 -0.53946,5.13662 -1.19881,7.60184 -0.65934,2.46521 -0.94671,4.7343 -0.6386,5.04241 0.30811,0.30811 9.16741,0.69816 19.68733,0.86677 21.8392,0.35003 23.15008,0.78722 23.15008,7.72087 0,6.69905 -0.65547,6.89771 -23.32143,7.06835 -46.90946,0.35315 -115.86507,0.31754 -116.2478,-0.06 z m 73.83153,-15.68049 c 2.61926,-0.35319 5.00498,-1.03483 5.30159,-1.51476 1.15394,-1.86711 3.48803,-12.37628 3.70633,-16.68764 L 453.5,456.67076 449,456.33724 c -12.62296,-0.93554 -11.19268,-1.40426 -12.7025,4.16276 -0.74582,2.75 -1.80992,7.7 -2.36468,11 -0.55475,3.3 -1.26189,6.83471 -1.57142,7.85491 -0.49915,1.64521 -0.12746,1.78955 3.28792,1.27676 2.11787,-0.31798 5.99371,-0.86711 8.61298,-1.22029 z M 431.76377,350.74387 c 0.85652,-0.96587 1.27589,-2.03754 0.93195,-2.38148 -0.34394,-0.34395 -0.14969,-1.51414 0.43168,-2.60043 1.34226,-2.50805 6.17572,-1.76527 9.63005,1.4799 1.8822,1.76823 2.21806,1.85789 1.67689,0.44763 C 443.53435,345.34416 438.83583,343 435.03496,343 c -2.38408,0 -3.50426,0.72149 -5.04592,3.25 -2.00542,3.28913 -2.61302,7.78738 -1.23904,9.17304 0.4125,0.41601 0.90896,-0.0715 1.10324,-1.08333 0.19428,-1.01184 1.05402,-2.62997 1.91053,-3.59584 z"
       style="fill:#eeeed8" />
    <path
       id="path9190"
       d="m 448.71541,494.40394 c -0.43153,-0.44355 -21.13153,-0.9398 -46,-1.10277 -24.86848,-0.16297 -45.79358,-0.51429 -46.50023,-0.78072 -0.70665,-0.26642 -3.49053,-0.0114 -6.1864,0.5668 -5.44923,1.16865 -8.21597,0.30002 -10.06824,-3.16098 -0.84569,-1.58019 -0.68517,-2.7036 0.72708,-5.08856 l 1.81238,-3.06068 33,-0.34698 c 18.15,-0.19085 34.8,-0.70835 37,-1.15002 3.66828,-0.73643 4.02327,-1.09232 4.28059,-4.29153 0.15432,-1.91867 0.65379,-4.3885 1.10992,-5.4885 1.47848,-3.56549 4.14397,-12.93587 4.3798,-15.39695 0.21298,-2.22256 -0.35237,-2.52497 -7.77031,-4.15643 -4.4,-0.96771 -10.56049,-2.72381 -13.68997,-3.90244 -6.171,-2.32412 -27.09821,-14.5055 -27.64738,-16.09307 -0.18555,-0.53638 -2.28784,-2.3172 -4.67176,-3.95737 -2.60143,-1.78984 -5.50035,-5.0835 -7.25064,-8.23794 -1.60393,-2.89069 -4.77752,-8.48399 -7.05241,-12.42954 -2.46083,-4.26804 -4.56881,-9.53367 -5.20427,-13 -1.49381,-8.14844 -2.57202,-12.95856 -4.33208,-19.32626 -1.31542,-4.75902 -1.36067,-8.0261 -0.33586,-24.25018 0.6514,-10.3126 0.94202,-18.7501 0.64581,-18.75 -0.29621,10e-5 -2.30385,0.90018 -4.46144,2.00018 -7.06515,3.60202 -12.5,1.71993 -12.5,-4.32874 0,-2.68151 3.04745,-6.67126 5.09563,-6.67126 0.6026,0 2.2901,-0.82793 3.75,-1.83984 1.4599,-1.01191 5.24744,-2.89702 8.41676,-4.18915 5.2727,-2.14966 5.84861,-2.6944 6.77705,-6.41016 2.04278,-8.1756 9.81286,-26.84524 13.68028,-32.87045 0.42025,-0.65472 1.28813,-2.5404 1.92864,-4.1904 3.76392,-9.69625 9.52418,-22.9557 12.69614,-29.22504 2.35223,-4.64914 3.6555,-8.61908 3.6555,-11.13516 0,-2.15057 0.63101,-6.09931 1.40224,-8.77497 2.28714,-7.93486 10.46686,-43.22268 12.02226,-51.86483 1.91647,-10.64825 8.16185,-23.14108 14.61203,-29.22886 3.35299,-3.16461 7.66728,-5.74423 14.14405,-8.4571 l 9.31942,-3.90354 12,0.66225 c 10.1272,0.55889 13.48263,1.19746 21.5,4.09163 5.30822,1.91621 10.82372,4.65507 12.5,6.2072 1.65,1.5278 5.475,4.69331 8.5,7.03448 3.49546,2.70527 6.33183,5.9582 7.78234,8.9253 1.25529,2.56775 3.35465,6.69364 4.66525,9.16864 1.31059,2.475 2.6944,6.23962 3.07512,8.36583 0.38072,2.1262 1.51807,5.73278 2.52743,8.01461 2.13965,4.83705 4.58264,16.0697 5.92544,27.24467 2.14078,17.81587 6.35443,34.68385 11.08493,44.37489 6.75325,13.83493 9.11451,18.27562 11.96397,22.5 1.48395,2.2 4.20309,6.925 6.04252,10.5 1.83943,3.575 4.60185,8.25502 6.13871,10.40004 1.53686,2.14502 2.79583,4.39502 2.79772,5 0.005,1.49854 5.82917,15.69333 7.03613,17.14762 1.96768,2.37092 4.07168,23.31715 4.26422,42.45234 l 0.19622,19.5 -3.63734,9.5 c -2.00053,5.225 -4.36735,11.55134 -5.25958,14.05853 -0.89224,2.50719 -3.30544,6.4114 -5.36266,8.67602 -2.05723,2.26462 -4.80377,5.52086 -6.10342,7.23608 C 537.25326,428.73573 515.73309,444 510.66929,444 c -0.76327,0 -3.8136,1.28709 -6.77852,2.86019 -5.10659,2.70942 -23.69845,7.33737 -30.31882,7.54706 -3.26033,0.10327 -3.98125,1.60373 -5.5699,11.59275 -0.48109,3.025 -1.28837,7.3875 -1.79395,9.69443 -0.61412,2.80224 -0.56887,4.5448 0.13633,5.25 0.66574,0.66574 7.9842,1.05557 19.81661,1.05557 18.14385,0 18.82971,0.0737 20.84812,2.24021 1.99489,2.14126 2.07946,6.07595 0.17008,7.91346 -0.37358,0.35952 -10.80424,0.90246 -23.17924,1.20654 -12.375,0.30407 -25.2,0.84476 -28.5,1.20152 -3.3,0.35677 -6.35307,0.28576 -6.78459,-0.15779 z m -4.53115,-13.54083 C 445.1106,480.3884 446.77154,480 447.87524,480 c 1.1037,0 2.31957,-0.50619 2.70193,-1.12486 1.09182,-1.7666 4.36867,-17.0344 4.39716,-20.48762 l 0.0257,-3.11248 -8.63674,-0.70078 c -4.75021,-0.38543 -8.94179,-0.33481 -9.31463,0.11248 C 435.92257,456.03766 431,478.42267 431,482.1924 c 0,0.98773 10.78469,-0.0996 13.18426,-1.32929 z M 402,360.3813 c 1.92849,-1.87199 2.5,-3.44392 2.5,-6.87625 0,-5.51854 -2.58965,-8.43913 -8.14337,-9.18404 -3.63203,-0.48716 -4.22903,-0.20465 -7.71015,3.64854 -3.25519,3.6031 -3.68065,4.6128 -3.09859,7.35352 1.76105,8.29219 10.38808,10.94459 16.45211,5.05823 z m -10.77749,-0.938 C 388.65557,357.64534 388.33605,354.79592 390.5,353 c 0.825,-0.68469 1.5,-2.31479 1.5,-3.62244 0,-3.70113 4.3339,-3.57275 7.75,0.22958 2.79581,3.11191 2.84158,5.37108 0.17742,8.758 -2.34577,2.98216 -5.43951,3.36534 -8.70491,1.07816 z m 53.12309,-1.34446 c 2.45832,-2.45831 2.597,-8.01131 0.28807,-11.53517 -1.71575,-2.61857 -7.32749,-4.89057 -10.83195,-4.38549 -2.79521,0.40285 -6.80172,6.21443 -6.80172,9.86611 0,1.91209 1.1139,3.72655 3.66027,5.96229 3.17427,2.78705 4.1896,3.14277 7.64675,2.67907 2.19256,-0.29409 4.90992,-1.45815 6.03858,-2.58681 z M 433.22251,357.4433 C 430.92088,355.83117 430.25217,352.58022 432,351.5 c 0.55,-0.33992 1,-1.7306 1,-3.0904 0,-4.51545 6.61882,-4.44718 9.59759,0.099 2.36999,3.61707 1.10973,7.29793 -3.10106,9.05731 -4.16961,1.74217 -3.59567,1.75339 -6.27402,-0.1226 z"
       style="fill:#d1d6ad" />
    <path
       id="path9188"
       d="m 445,492.57942 c -2.31061,-0.8448 -6.55843,-1.11848 -12.5,-0.80535 -10.38926,0.54753 -11.36033,0.53688 -72.5,-0.79532 -4.675,-0.10187 -10.075,0.11135 -12,0.47381 -2.41344,0.45444 -4.12089,0.19356 -5.5,-0.84031 -1.84749,-1.38501 -1.88562,-1.7052 -0.5,-4.19908 l 1.5,-2.69974 31.5,-0.26271 c 21.78068,-0.18164 32.57992,-0.64298 35,-1.4952 8.18411,-2.88197 8,-2.73498 8,-6.38703 0,-1.91091 0.39799,-4.50806 0.88441,-5.77144 0.48643,-1.26338 1.90195,-5.605 3.1456,-9.64805 2.59142,-8.42454 2.52025,-8.55303 -5.31299,-9.59215 -6.06627,-0.80472 -15.72823,-4.05073 -21.29156,-7.15307 -13.88248,-7.74143 -23.04917,-14.19454 -29.69398,-20.90378 -3.66604,-3.70159 -14.71339,-23.89554 -14.72259,-26.91211 -0.008,-2.63715 -0.63418,-5.23976 -4.35156,-18.08789 -1.23961,-4.28436 -1.35221,-21.56207 -0.24527,-37.63406 0.76455,-11.10069 0.67262,-11.223 -5.91206,-7.86594 -4.43215,2.25964 -8.52265,2.57735 -10.3,0.8 -1.3256,-1.3256 -1.58368,-5.69885 -0.43469,-7.36603 1.05594,-1.53218 10.76865,-6.75664 17.45923,-9.39132 5.21111,-2.05208 5.7841,-2.58111 6.38871,-5.89846 1.25941,-6.91018 7.55408,-22.53285 13.35442,-33.14419 1.5568,-2.84805 7.86036,-17.50714 8.56898,-19.92735 0.39088,-1.33504 2.68005,-6.33221 5.08703,-11.10482 2.8928,-5.73591 4.37632,-9.97384 4.37632,-12.5017 0,-2.10333 0.86997,-6.78116 1.93327,-10.39518 1.06331,-3.61402 2.67216,-10.17095 3.57524,-14.57095 0.90308,-4.4 2.23188,-10.025 2.9529,-12.5 0.72102,-2.475 1.80656,-6.975 2.4123,-10 0.60574,-3.025 1.83901,-9.1 2.7406,-13.5 0.9016,-4.4 3.43994,-11.75214 5.64077,-16.33809 5.43857,-11.33255 10.30153,-15.83397 22.61393,-20.93267 l 9.63099,-3.9883 11.5,0.47546 c 14.02634,0.57991 26.67315,4.43149 33.51883,10.20814 2.33043,1.9665 6.28891,5.15046 8.79663,7.07546 2.66908,2.04886 5.43973,5.36575 6.68255,8 1.16768,2.475 3.0792,6.28447 4.24782,8.46548 1.16863,2.18101 2.90347,6.68101 3.85521,10 0.95173,3.31899 2.41482,7.87064 3.2513,10.11479 1.83357,4.91921 4.64003,20.44978 4.64447,25.70185 0.002,2.08016 0.69229,5.43137 1.53453,7.44713 0.84224,2.01576 1.3094,4.24338 1.03815,4.95027 -0.27126,0.70689 0.10818,2.98975 0.84321,5.07304 0.73502,2.08328 1.66293,6.2537 2.06202,9.26761 0.87113,6.57882 11.04186,28.86127 17.56394,38.47983 1.49176,2.2 4.35511,7.09707 6.36299,10.88238 2.00788,3.78531 4.52948,8.11653 5.60356,9.62493 1.07408,1.50841 3.26016,6.28634 4.85795,10.61763 1.59779,4.33128 3.82709,9.67506 4.95399,11.87506 2.9848,5.82711 5.32358,27.97708 5.21258,49.3669 -0.0529,10.18639 -2.18702,19.39144 -6.52253,28.1331 -0.68195,1.375 -1.52916,4.10076 -1.8827,6.05725 -0.4068,2.25121 -2.65368,5.92269 -6.1198,10 -3.01235,3.54351 -5.48323,6.68431 -5.49085,6.97956 -0.008,0.29524 -4.26785,4.24025 -9.46719,8.76668 C 524.71029,436.49626 512.10095,444 508.01035,444 c -0.85035,0 -3.12145,1.07049 -5.04691,2.37887 -3.14076,2.13421 -14.78537,5.08995 -29.44414,7.47378 l -3.98069,0.64735 -1.31645,6.5 c -0.72404,3.575 -1.74523,8.41896 -2.2693,10.76435 -0.52407,2.34539 -0.95286,5.83289 -0.95286,7.75 0,4.07832 -1.92027,3.73859 22.73006,4.02143 C 504.57427,483.72906 507,484.299 507,488.06343 c 0,1.00019 -0.50573,2.13109 -1.12385,2.51311 -0.61811,0.38202 -10.63061,0.77936 -22.25,0.88299 -13.94494,0.12437 -21.86862,0.58817 -23.31041,1.36444 -2.82136,1.51906 -10.84238,1.39098 -15.31574,-0.24455 z M 442.23614,483 c 2.27673,-1.1 4.8999,-2 5.82924,-2 0.92935,0 2.21068,-0.62771 2.8474,-1.39491 1.49108,-1.79663 5.56684,-21.91282 4.82924,-23.83499 -0.40222,-1.04817 -3.01016,-1.64939 -9.22788,-2.12732 -4.76696,-0.36642 -9.02004,-0.44815 -9.45129,-0.18163 -1.83026,1.13117 -7.65893,27.5431 -6.65541,30.15824 0.77977,2.03205 7.01681,1.70546 11.8287,-0.61939 z M 401.66051,362.30287 c 2.24416,-1.47042 4.33949,-6.08061 4.33949,-9.5478 0,-2.88468 -2.99635,-7.43238 -5.71232,-8.66986 -5.63163,-2.56594 -10.47898,-0.74782 -14.24277,5.34212 -2.45139,3.96643 -2.01493,7.70021 1.33633,11.43203 3.87623,4.3164 9.09024,4.84349 14.27927,1.44351 z m -8.43268,-2.39626 c -3.17199,-1.19857 -3.71503,-3.36014 -1.83793,-7.31584 0.88556,-1.86617 1.6101,-3.88752 1.6101,-4.4919 0,-1.73745 2.49385,-1.28485 5.36514,0.97371 4.15889,3.27138 3.30246,8.39483 -1.86514,11.1579 -0.55,0.29408 -2.02247,0.14834 -3.27217,-0.32387 z m 50.69544,-0.4955 c 2.63005,-2.21304 3.07673,-3.26959 3.07673,-7.2775 0,-6.03909 -1.84145,-8.54931 -7.41671,-10.11029 -6.28331,-1.75922 -9.15806,-0.77717 -11.57113,3.95284 -3.33554,6.5382 -2.38055,10.60892 3.30166,14.07361 4.44921,2.71288 8.89392,2.48775 12.60945,-0.63866 z M 433.2,356.8 c -1.45789,-1.45789 -1.5709,-4.45274 -0.2,-5.3 0.55,-0.33992 1,-1.71648 1,-3.05902 C 434,346.425 434.49534,346 436.84501,346 c 3.46212,0 6.15499,2.74408 6.15499,6.27204 0,4.41214 -6.78219,7.54577 -9.8,4.52796 z"
       style="fill:#f6d52c" />
    <path
       id="path9186"
       d="m 445,492.57942 c -2.31061,-0.8448 -6.55843,-1.11848 -12.5,-0.80535 -10.38926,0.54753 -11.36033,0.53688 -72.5,-0.79532 -4.675,-0.10187 -10.075,0.11135 -12,0.47381 -2.41344,0.45444 -4.12089,0.19356 -5.5,-0.84031 -1.84749,-1.38501 -1.88562,-1.7052 -0.5,-4.19908 l 1.5,-2.69974 31.5,-0.26271 c 21.78068,-0.18164 32.57992,-0.64298 35,-1.4952 8.18411,-2.88197 8,-2.73498 8,-6.38703 0,-1.91091 0.39799,-4.50806 0.88441,-5.77144 0.48643,-1.26338 1.90195,-5.605 3.1456,-9.64805 2.59142,-8.42454 2.52025,-8.55303 -5.31299,-9.59215 -6.06627,-0.80472 -15.72823,-4.05073 -21.29156,-7.15307 -13.88248,-7.74143 -23.04917,-14.19454 -29.69398,-20.90378 -3.66604,-3.70159 -14.71339,-23.89554 -14.72259,-26.91211 -0.008,-2.63715 -0.63418,-5.23976 -4.35156,-18.08789 -1.23961,-4.28436 -1.35221,-21.56207 -0.24527,-37.63406 0.76455,-11.10069 0.67262,-11.223 -5.91206,-7.86594 -4.43215,2.25964 -8.52265,2.57735 -10.3,0.8 -1.3256,-1.3256 -1.58368,-5.69885 -0.43469,-7.36603 1.05594,-1.53218 10.76865,-6.75664 17.45923,-9.39132 5.21111,-2.05208 5.7841,-2.58111 6.38871,-5.89846 1.25941,-6.91018 7.55408,-22.53285 13.35442,-33.14419 1.5568,-2.84805 7.86036,-17.50714 8.56898,-19.92735 0.39088,-1.33504 2.68005,-6.33221 5.08703,-11.10482 2.8928,-5.73591 4.37632,-9.97384 4.37632,-12.5017 0,-2.10333 0.86997,-6.78116 1.93327,-10.39518 1.06331,-3.61402 2.67216,-10.17095 3.57524,-14.57095 0.90308,-4.4 2.23188,-10.025 2.9529,-12.5 0.72102,-2.475 1.80656,-6.975 2.4123,-10 0.60574,-3.025 1.83901,-9.1 2.7406,-13.5 0.9016,-4.4 3.43994,-11.75214 5.64077,-16.33809 5.43857,-11.33255 10.30153,-15.83397 22.61393,-20.93267 l 9.63099,-3.9883 11.5,0.47546 c 14.02634,0.57991 26.67315,4.43149 33.51883,10.20814 2.33043,1.9665 6.28891,5.15046 8.79663,7.07546 2.66908,2.04886 5.43973,5.36575 6.68255,8 1.16768,2.475 3.0792,6.28447 4.24782,8.46548 1.16863,2.18101 2.90347,6.68101 3.85521,10 0.95173,3.31899 2.41482,7.87064 3.2513,10.11479 1.83357,4.91921 4.64003,20.44978 4.64447,25.70185 0.002,2.08016 0.69229,5.43137 1.53453,7.44713 0.84224,2.01576 1.3094,4.24338 1.03815,4.95027 -0.27126,0.70689 0.10818,2.98975 0.84321,5.07304 0.73502,2.08328 1.66293,6.2537 2.06202,9.26761 0.87113,6.57882 11.04186,28.86127 17.56394,38.47983 1.49176,2.2 4.35511,7.09707 6.36299,10.88238 2.00788,3.78531 4.52948,8.11653 5.60356,9.62493 1.07408,1.50841 3.26016,6.28634 4.85795,10.61763 1.59779,4.33128 3.82709,9.67506 4.95399,11.87506 2.9848,5.82711 5.32358,27.97708 5.21258,49.3669 -0.0529,10.18639 -2.18702,19.39144 -6.52253,28.1331 -0.68195,1.375 -1.52916,4.10076 -1.8827,6.05725 -0.4068,2.25121 -2.65368,5.92269 -6.1198,10 -3.01235,3.54351 -5.48323,6.68431 -5.49085,6.97956 -0.008,0.29524 -4.26785,4.24025 -9.46719,8.76668 C 524.71029,436.49626 512.10095,444 508.01035,444 c -0.85035,0 -3.12145,1.07049 -5.04691,2.37887 -3.14076,2.13421 -14.78537,5.08995 -29.44414,7.47378 l -3.98069,0.64735 -1.31645,6.5 c -0.72404,3.575 -1.74523,8.41896 -2.2693,10.76435 -0.52407,2.34539 -0.95286,5.83289 -0.95286,7.75 0,4.07832 -1.92027,3.73859 22.73006,4.02143 C 504.57427,483.72906 507,484.299 507,488.06343 c 0,1.00019 -0.50573,2.13109 -1.12385,2.51311 -0.61811,0.38202 -10.63061,0.77936 -22.25,0.88299 -13.94494,0.12437 -21.86862,0.58817 -23.31041,1.36444 -2.82136,1.51906 -10.84238,1.39098 -15.31574,-0.24455 z M 442.23614,483 c 2.27673,-1.1 4.8999,-2 5.82924,-2 0.92935,0 2.21068,-0.62771 2.8474,-1.39491 1.49108,-1.79663 5.56684,-21.91282 4.82924,-23.83499 -0.40222,-1.04817 -3.01016,-1.64939 -9.22788,-2.12732 -4.76696,-0.36642 -9.02004,-0.44815 -9.45129,-0.18163 -1.83026,1.13117 -7.65893,27.5431 -6.65541,30.15824 0.77977,2.03205 7.01681,1.70546 11.8287,-0.61939 z m -2.726,-73.54466 c 3.26169,-0.84956 9.99374,-3.55157 14.9601,-6.00447 l 9.02976,-4.45981 5.17419,-11.24553 c 6.02773,-13.10063 6.7725,-17.5328 5.25042,-31.24553 -1.07947,-9.72515 -5.62724,-27.05329 -8.63131,-32.8874 -4.98459,-9.68043 -22.94934,-16.54805 -40.15861,-15.35194 -16.67593,1.15903 -34.64656,11.9011 -40.98668,24.50006 -6.39775,12.71347 -8.96689,29.95033 -5.64801,37.89352 0.825,1.97451 1.5,4.48456 1.5,5.57791 0,2.95112 6.02473,13.71072 8.38427,14.97351 1.7971,0.96177 1.74601,0.73741 -0.41869,-1.83855 -5.36008,-6.37843 -9.04048,-17.02772 -9.74432,-28.19528 C 377.77957,354.1637 378.48066,350 380.10239,350 c 0.58535,0 0.87288,0.5625 0.63896,1.25 -1.25802,3.69728 6.17146,19.83887 10.68835,23.22195 8.60479,6.44485 18.1457,9.03936 29.53382,8.03128 7.5163,-0.66535 8.31007,-0.97564 14.9725,-5.85291 6.07828,-4.44964 7.52696,-6.14484 10.64838,-12.46042 2.89134,-5.85005 3.71829,-8.84677 4.1403,-15.00386 0.50796,-7.41089 0.37926,-8.00615 -3.50031,-16.1899 -2.21521,-4.67288 -5.08442,-9.47589 -6.37602,-10.67337 C 437.06293,318.8132 423.96146,313 419.83723,313 c -4.08703,0 -5.8255,-1.39718 -3.08149,-2.47654 0.95934,-0.37735 4.89426,-0.92359 8.74426,-1.21385 14.36012,-1.08264 31.71876,4.86831 37.50655,12.85813 1.6464,2.27279 2.99345,4.79788 2.99345,5.61131 0,0.81344 1.15221,4.67316 2.56046,8.57716 3.12049,8.65074 5.40254,26.89786 4.40181,35.19657 -0.47091,3.90508 -2.34953,9.381 -5.47099,15.94722 -5.26993,11.08568 -6.45157,12.19631 -18.78518,17.6563 -7.71624,3.41591 -19.90304,5.12002 -26.7061,3.73437 -8.56726,-1.74497 -18.70693,-5.27709 -21,-7.31528 -3.80364,-3.38084 -11,-8.8022 -11,-8.28681 0,0.25115 3.07885,2.92682 6.8419,5.94593 5.40432,4.33592 8.60855,6.02868 15.25,8.05639 13.93996,4.25604 18.12091,4.58609 27.41824,2.16444 z M 409.5,372.35044 c -3.14217,-0.81564 -4.61288,-3.271 -3.3607,-5.61072 0.90229,-1.68596 1.73301,-1.89201 5.52975,-1.3716 3.11092,0.4264 5.38573,0.13779 7.48971,-0.95022 1.66196,-0.85943 3.65614,-1.31917 4.4315,-1.02164 2.35796,0.90484 1.67083,5.38656 -1.10469,7.20515 -2.61783,1.71527 -9.52935,2.64618 -12.98557,1.74903 z m -16.27217,-12.44383 c -3.17199,-1.19857 -3.71503,-3.36014 -1.83793,-7.31584 0.88556,-1.86617 1.6101,-3.88752 1.6101,-4.4919 0,-1.73745 2.49385,-1.28485 5.36514,0.97371 4.15889,3.27138 3.30246,8.39483 -1.86514,11.1579 -0.55,0.29408 -2.02247,0.14834 -3.27217,-0.32387 z M 433.2,356.8 c -1.45789,-1.45789 -1.5709,-4.45274 -0.2,-5.3 0.55,-0.33992 1,-1.71648 1,-3.05902 C 434,346.425 434.49534,346 436.84501,346 c 3.46212,0 6.15499,2.74408 6.15499,6.27204 0,4.41214 -6.78219,7.54577 -9.8,4.52796 z"
       style="fill:#b0af93" />
    <path
       id="path9184"
       d="m 412.5,492.25064 c -1.65,-0.22988 -3.75715,-1.0976 -4.68256,-1.92826 -3.14661,-2.82445 0.55402,-8.03833 6.36484,-8.96752 3.98231,-0.6368 4.11685,-0.8419 5.1522,-7.85486 0.2436,-1.65 1.18643,-5.475 2.09518,-8.5 3.48393,-11.59707 3.60687,-12.42572 2.02119,-13.62359 -0.81805,-0.61798 -3.82365,-1.43351 -6.67911,-1.8123 -12.06998,-1.60114 -33.72109,-12.12869 -44.66253,-21.71652 C 369.69428,425.73142 367.37051,424 366.94528,424 c -0.42523,0 -2.49938,-2.96528 -4.60921,-6.58951 -2.10984,-3.62423 -5.07426,-8.68673 -6.5876,-11.25 C 351.94483,399.71794 351,397.31504 351,394.08412 c 0,-1.53212 -0.40214,-4.09032 -0.89365,-5.6849 -5.43743,-17.64038 -5.40488,-17.35055 -4.20659,-37.45182 0.61784,-10.36421 1.39129,-19.54228 1.71878,-20.39571 0.83952,-2.18775 -1.84745,-1.98572 -6.73197,0.50618 -2.28065,1.1635 -5.41426,1.92407 -7.21017,1.75 -2.7643,-0.26793 -3.21657,-0.72301 -3.48602,-3.50769 -0.27121,-2.80298 0.20393,-3.52401 3.83119,-5.8138 2.27744,-1.43768 6.91677,-3.77619 10.30962,-5.19668 7.45452,-3.12099 9.19163,-4.90413 10.05846,-10.32494 0.91066,-5.69498 7.27734,-20.75088 16.05412,-37.96476 0.70106,-1.375 2.52574,-5.82369 4.05483,-9.88598 1.5291,-4.06229 4.51745,-10.70383 6.64079,-14.75898 C 383.66779,240.5263 385,236.6584 385,234.14625 c 0,-2.10969 0.88894,-6.49315 1.97541,-9.74102 1.08648,-3.24788 1.98648,-6.72292 2,-7.72231 0.021,-1.55242 4.08216,-19.3237 7.01176,-30.68292 0.49647,-1.925 1.66928,-7.55 2.60624,-12.5 0.93696,-4.95 2.72844,-11.025 3.98108,-13.5 1.25263,-2.475 3.02149,-6.15464 3.9308,-8.17697 2.07291,-4.61025 9.8264,-12.34322 13.90792,-13.87113 1.69773,-0.63554 5.60091,-2.22702 8.67373,-3.53662 7.0843,-3.01923 7.25303,-3.03603 20.41306,-2.0318 16.17965,1.23465 24.81291,4.61089 36.36882,14.22291 5.57292,4.63547 9.35211,8.58862 10.00723,10.46789 0.57895,1.66078 1.97761,4.19552 3.10813,5.63274 1.13053,1.43723 2.9838,5.80361 4.11838,9.70306 1.13458,3.89946 2.88314,9.11492 3.88567,11.58992 2.26227,5.58494 5.01177,20.06475 5.01177,26.39367 0,2.6058 0.49662,5.66576 1.10361,6.79992 0.60698,1.13416 1.47758,4.36707 1.93466,7.18426 2.24396,13.83041 4.46195,21.66121 8.63438,30.4843 6.58379,13.92221 9.38097,19.24586 11.89451,22.63785 1.22268,1.65 4.12798,6.6 6.45621,11 2.32824,4.4 5.04686,9.03684 6.04137,10.30409 0.99451,1.26726 2.78785,5.31726 3.98521,9 1.19735,3.68275 3.22308,8.5285 4.50162,10.76834 4.85685,8.50858 7.68431,55.30968 3.95278,65.42757 -0.9128,2.475 -3.15063,8.75044 -4.97296,13.94542 -2.43714,6.94764 -4.59827,11.01273 -8.17236,15.37226 -12.75618,15.55946 -27.13906,26.32554 -40.35903,30.21011 -1.375,0.40403 -3.72246,1.59549 -5.21657,2.64769 -1.49411,1.0522 -6.57635,2.58681 -11.29387,3.41024 -4.71751,0.82343 -9.71185,1.9285 -11.09853,2.45571 -1.38668,0.52721 -4.26161,0.95857 -6.38874,0.95857 -2.81232,0 -4.01388,0.47746 -4.40396,1.75 -0.99261,3.23812 -3.84946,19.6931 -4.55742,26.25 -0.76661,7.10019 -2.1104,10.42895 -4.59492,11.38235 -3.0133,1.15631 -11.53606,0.62243 -14.49565,-0.90803 -5.33202,-2.75729 -3.19384,-8.45673 3.72372,-9.9258 2.27099,-0.48229 3.45158,-1.47018 4.14949,-3.4722 1.51454,-4.34462 4.59573,-22.99037 3.9121,-23.674 -0.91007,-0.91007 -16.92236,-2.55941 -19.24795,-1.98262 -1.65705,0.41098 -2.50342,2.58055 -4.79429,12.28969 -1.53011,6.48484 -3.09957,14.44283 -3.48771,17.68442 -0.56236,4.69669 -1.21349,6.25098 -3.2057,7.65225 -2.6979,1.89764 -8.68523,2.87538 -13.5,2.20458 z m 27.01014,-82.7953 c 3.26169,-0.84956 9.99374,-3.55157 14.9601,-6.00447 l 9.02976,-4.45981 5.17419,-11.24553 c 6.02773,-13.10063 6.7725,-17.5328 5.25042,-31.24553 -1.07947,-9.72515 -5.62724,-27.05329 -8.63131,-32.8874 -4.98459,-9.68043 -22.94934,-16.54805 -40.15861,-15.35194 -16.67593,1.15903 -34.64656,11.9011 -40.98668,24.50006 -6.39775,12.71347 -8.96689,29.95033 -5.64801,37.89352 0.825,1.97451 1.5,4.48456 1.5,5.57791 0,2.95112 6.02473,13.71072 8.38427,14.97351 1.7971,0.96177 1.74601,0.73741 -0.41869,-1.83855 -5.36008,-6.37843 -9.04048,-17.02772 -9.74432,-28.19528 C 377.77957,354.1637 378.48066,350 380.10239,350 c 0.58535,0 0.87288,0.5625 0.63896,1.25 -1.25802,3.69728 6.17146,19.83887 10.68835,23.22195 8.60479,6.44485 18.1457,9.03936 29.53382,8.03128 7.5163,-0.66535 8.31007,-0.97564 14.9725,-5.85291 6.07828,-4.44964 7.52696,-6.14484 10.64838,-12.46042 2.89134,-5.85005 3.71829,-8.84677 4.1403,-15.00386 0.50796,-7.41089 0.37926,-8.00615 -3.50031,-16.1899 -2.21521,-4.67288 -5.08442,-9.47589 -6.37602,-10.67337 C 437.06293,318.8132 423.96146,313 419.83723,313 c -4.08703,0 -5.8255,-1.39718 -3.08149,-2.47654 0.95934,-0.37735 4.89426,-0.92359 8.74426,-1.21385 14.36012,-1.08264 31.71876,4.86831 37.50655,12.85813 1.6464,2.27279 2.99345,4.79788 2.99345,5.61131 0,0.81344 1.15221,4.67316 2.56046,8.57716 3.12049,8.65074 5.40254,26.89786 4.40181,35.19657 -0.47091,3.90508 -2.34953,9.381 -5.47099,15.94722 -5.26993,11.08568 -6.45157,12.19631 -18.78518,17.6563 -7.71624,3.41591 -19.90304,5.12002 -26.7061,3.73437 -8.56726,-1.74497 -18.70693,-5.27709 -21,-7.31528 -3.80364,-3.38084 -11,-8.8022 -11,-8.28681 0,0.25115 3.07885,2.92682 6.8419,5.94593 5.40432,4.33592 8.60855,6.02868 15.25,8.05639 13.93996,4.25604 18.12091,4.58609 27.41824,2.16444 z M 409.5,372.35044 c -3.14217,-0.81564 -4.61288,-3.271 -3.3607,-5.61072 0.90229,-1.68596 1.73301,-1.89201 5.52975,-1.3716 3.11092,0.4264 5.38573,0.13779 7.48971,-0.95022 1.66196,-0.85943 3.65614,-1.31917 4.4315,-1.02164 2.35796,0.90484 1.67083,5.38656 -1.10469,7.20515 -2.61783,1.71527 -9.52935,2.64618 -12.98557,1.74903 z M 392.75,358.9199 c -1.90049,-1.10693 -2.35965,-4.42508 -0.75,-5.4199 0.55,-0.33992 1,-1.46492 1,-2.5 0,-2.77736 1.76447,-3.38434 4.54398,-1.56314 3.22229,2.11133 3.34457,6.82737 0.23351,9.00644 -2.58462,1.81034 -2.71619,1.82281 -5.02749,0.4766 z m 40.56079,-3.55237 c -0.34454,-0.89785 -0.10541,-2.46675 0.53139,-3.48643 0.6368,-1.01968 1.15782,-2.53507 1.15782,-3.36753 0,-1.82734 4.06638,-2.04719 5.8,-0.31357 1.90147,1.90147 1.45796,6.59158 -0.73426,7.76482 -2.87005,1.536 -6.04402,1.25536 -6.75495,-0.59729 z"
       style="fill:#9dd352" />
    <path
       id="path9182"
       d="m 412.5,492.25064 c -1.65,-0.22988 -3.75715,-1.0976 -4.68256,-1.92826 -3.14661,-2.82445 0.55402,-8.03833 6.36484,-8.96752 3.98231,-0.6368 4.11685,-0.8419 5.1522,-7.85486 0.2436,-1.65 1.18643,-5.475 2.09518,-8.5 3.48393,-11.59707 3.60687,-12.42572 2.02119,-13.62359 -0.81805,-0.61798 -3.68781,-1.41549 -6.37725,-1.77226 -8.55135,-1.13438 -17.30024,-4.86286 -29.5736,-12.60327 -1.65,-1.0406 -4.97477,-2.92736 -7.38837,-4.1928 -2.4136,-1.26544 -5.04766,-3.30701 -5.85347,-4.53683 -0.80581,-1.22981 -3.00958,-3.19057 -4.89728,-4.35723 -2.05625,-1.27083 -4.46772,-4.16476 -6.0153,-7.21875 -2.51165,-4.95651 -3.47663,-6.53783 -8.2712,-13.55417 -2.08509,-3.05131 -2.65997,-5.49692 -4.7345,-20.1411 -0.2727,-1.925 -1.21514,-5.075 -2.09432,-7 -0.87917,-1.925 -1.60243,-4.85 -1.60724,-6.5 -0.0109,-3.72862 1.29568,-28.15586 1.88544,-35.25 0.39444,-4.74466 0.24202,-5.25 -1.58349,-5.25 -1.11097,0 -3.83514,0.92604 -6.0537,2.05787 -2.28065,1.1635 -5.41426,1.92407 -7.21017,1.75 -2.7643,-0.26793 -3.21657,-0.72301 -3.48602,-3.50769 -0.27037,-2.79425 0.20498,-3.52467 3.75035,-5.76276 C 339.6754,319.91728 348.83079,316 351.55704,316 c 2.43391,0 3.29237,-1.56997 4.00642,-7.32701 0.47122,-3.79917 4.03352,-12.93787 9.42272,-24.17299 7.19499,-14.99973 10.71986,-22.99527 12.42919,-28.19342 0.93928,-2.85638 2.58007,-6.30236 3.6462,-7.65773 1.06614,-1.35537 1.9537,-2.84333 1.97236,-3.30658 0.0187,-0.46325 0.90339,-2.64227 1.96607,-4.84227 1.06268,-2.2 1.94741,-5.90339 1.96607,-8.22976 0.0187,-2.32637 0.68777,-5.92637 1.4869,-8 0.79914,-2.07363 2.13752,-7.59524 2.97418,-12.27024 0.83665,-4.675 2.25081,-10.975 3.14256,-14 2.13945,-7.25746 3.26742,-12.22223 4.43029,-19.5 1.77132,-11.08576 2.69464,-13.9608 7.43012,-23.13588 3.92751,-7.60964 5.64293,-9.82318 10.26831,-13.25 3.05418,-2.26276 6.19738,-4.11412 6.98487,-4.11412 0.7875,0 3.44951,-1.12647 5.91559,-2.50327 4.18868,-2.33851 5.35256,-2.49606 17.68368,-2.3938 11.97725,0.0993 13.96088,0.38483 21.41577,3.08233 6.58336,2.38213 9.99521,4.45286 17.17048,10.42113 5.57292,4.63547 9.35211,8.58862 10.00723,10.46789 0.57895,1.66078 1.97761,4.19552 3.10813,5.63274 1.13053,1.43723 2.9838,5.80361 4.11838,9.70306 1.13458,3.89946 2.88314,9.11492 3.88567,11.58992 2.26227,5.58494 5.01177,20.06475 5.01177,26.39367 0,2.6058 0.49662,5.66576 1.10361,6.79992 0.60698,1.13416 1.47758,4.36707 1.93466,7.18426 2.24396,13.83041 4.46195,21.66121 8.63438,30.4843 6.58379,13.92221 9.38097,19.24586 11.89451,22.63785 1.22268,1.65 4.12798,6.6 6.45621,11 2.32824,4.4 5.04686,9.03684 6.04137,10.30409 0.99451,1.26726 2.78785,5.31726 3.98521,9 1.19735,3.68275 3.22308,8.5285 4.50162,10.76834 4.85685,8.50858 7.68431,55.30968 3.95278,65.42757 -0.9128,2.475 -3.15063,8.75044 -4.97296,13.94542 -2.43714,6.94764 -4.59827,11.01273 -8.17236,15.37226 -12.75618,15.55946 -27.13906,26.32554 -40.35903,30.21011 -1.375,0.40403 -3.72246,1.59549 -5.21657,2.64769 -1.49411,1.0522 -6.57635,2.58681 -11.29387,3.41024 -4.71751,0.82343 -9.71185,1.9285 -11.09853,2.45571 -1.38668,0.52721 -4.26161,0.95857 -6.38874,0.95857 -2.81232,0 -4.01388,0.47746 -4.40396,1.75 -0.99261,3.23812 -3.84946,19.6931 -4.55742,26.25 -0.76661,7.10019 -2.1104,10.42895 -4.59492,11.38235 -3.0133,1.15631 -11.53606,0.62243 -14.49565,-0.90803 -5.33202,-2.75729 -3.19384,-8.45673 3.72372,-9.9258 2.27099,-0.48229 3.45158,-1.47018 4.14949,-3.4722 1.51454,-4.34462 4.59573,-22.99037 3.9121,-23.674 -0.91007,-0.91007 -16.92236,-2.55941 -19.24795,-1.98262 -1.65705,0.41098 -2.50342,2.58055 -4.79429,12.28969 -1.53011,6.48484 -3.09957,14.44283 -3.48771,17.68442 -0.56236,4.69669 -1.21349,6.25098 -3.2057,7.65225 -2.6979,1.89764 -8.68523,2.87538 -13.5,2.20458 z m 42.58992,-76.83202 c 1.13539,-1.02751 3.70225,-1.59895 7.32874,-1.63153 C 465.4884,413.7595 468,413.38888 468,412.96349 468,411.58915 476.77663,407 479.40502,407 c 1.58459,0 3.14178,-0.90489 4.11608,-2.39186 1.71852,-2.6228 5.42296,-3.77858 7.8169,-2.43886 1.70315,0.95313 3.31955,-0.64486 1.67831,-1.6592 C 491.33408,399.4704 491.83804,396 493.67126,396 c 0.91919,0 2.50135,-0.75122 3.5159,-1.66938 1.72834,-1.56413 1.93372,-1.54836 3.25732,0.25 1.28069,1.74004 1.47326,1.76317 2.0611,0.24752 0.35664,-0.91952 0.17199,-2.56208 -0.41031,-3.65014 -0.89526,-1.67279 -0.47616,-2.5046 2.71405,-5.38677 6.8648,-6.20193 8.53279,-13.78985 7.23141,-32.8968 -0.7193,-10.56077 -1.52345,-15.26037 -3.59333,-21 -1.46665,-4.06694 -2.90282,-8.44903 -3.19148,-9.738 -0.28867,-1.28896 -1.58934,-3.49217 -2.89038,-4.89602 -1.30105,-1.40385 -2.37331,-3.04925 -2.38282,-3.65643 -0.009,-0.60719 -1.1345,-2.16371 -2.5,-3.45894 C 496.11723,308.84981 495,307.34407 495,306.79895 c 0,-3.55519 -3.60299,-12.14342 -6.52821,-15.56088 -3.94333,-4.60689 -4.40367,-7.18162 -1.42337,-7.96098 3.22915,-0.84445 1.95709,-3.72664 -1.80528,-4.09035 -3.49323,-0.33769 -5.64632,-2.9725 -4.61827,-5.65154 0.34316,-0.89428 -0.15677,-2.46547 -1.12487,-3.5352 -1.00291,-1.10821 -1.47153,-2.63181 -1.10403,-3.5895 0.3512,-0.9152 0.14729,-2.25591 -0.45312,-2.97936 -0.60041,-0.72345 -1.26271,-4.56471 -1.47176,-8.53612 -0.21657,-4.11405 -0.89242,-7.53738 -1.57084,-7.95667 -0.7393,-0.45691 -0.95878,-1.89569 -0.57892,-3.79501 0.36687,-1.83432 -0.006,-4.5387 -0.9323,-6.75469 C 471.50235,231.87319 469,219.17081 469,214.10913 c 0,-2.29548 -1.54496,-6.90969 -4.0434,-12.07617 -2.9318,-6.06258 -3.88002,-9.10515 -3.44909,-11.06716 0.4646,-2.11529 0.17758,-2.81489 -1.31494,-3.20519 -1.05009,-0.27461 -2.53286,-1.90808 -3.29503,-3.62995 C 456.13537,182.4088 455.09108,181 454.57689,181 c -0.51418,0 -2.35769,-1.4625 -4.09668,-3.25 -1.73899,-1.7875 -4.38934,-4.08181 -5.88966,-5.09847 -1.50032,-1.01665 -3.06845,-2.7692 -3.48474,-3.89455 -0.71254,-1.92616 -0.84039,-1.94411 -2.18135,-0.30633 -0.78346,0.95687 -2.43696,2.84237 -3.67446,4.19001 -1.2375,1.34764 -2.25,2.80135 -2.25,3.23048 0,0.42913 -1.12918,1.84104 -2.50929,3.13759 -1.50378,1.41273 -2.29617,3.02887 -1.97742,4.03313 0.29252,0.92168 -0.15329,2.24441 -0.99071,2.9394 -0.83742,0.695 -1.52258,2.03058 -1.52258,2.96796 0,0.93738 -2.01175,3.89554 -4.47055,6.57368 -4.57318,4.98114 -5.1388,6.40877 -1.83957,4.64307 1.66518,-0.89117 1.84835,-0.6101 1.7394,2.66898 -0.067,2.01578 -0.70259,5.01505 -1.41246,6.66505 -1.13171,2.63052 -1.64278,4.74083 -3.39051,14 -0.69769,3.69623 -1.89789,7.99194 -2.51457,9 -0.33646,0.55 -0.61174,2.56324 -0.61174,4.47388 0,2.80042 -0.53312,3.73184 -2.75,4.80456 -3.25705,1.57604 -3.67196,3.27542 -0.60382,2.47308 1.85383,-0.48478 2.06631,-0.23365 1.55982,1.84362 -0.32249,1.32267 -1.08398,4.65486 -1.69218,7.40486 -0.6082,2.75 -1.79933,6.2608 -2.64694,7.80178 -0.84762,1.54097 -1.27853,3.48607 -0.95759,4.32244 0.32095,0.83636 0.0435,2.50057 -0.61664,3.69822 -0.66011,1.19766 -1.23721,2.62756 -1.28247,3.17756 -0.30853,3.74968 -3.34173,10.02192 -5.87894,12.15684 -1.65918,1.39611 -3.07693,3.28196 -3.15055,4.19077 -0.20474,2.52752 -2.3615,9.1228 -4.70981,14.40239 -1.41302,3.17683 -2.72134,4.75 -3.95029,4.75 -1.54377,0 -1.65108,0.29857 -0.67124,1.86753 1.16697,1.86863 1.02778,2.46176 -1.67383,7.13247 -0.79532,1.375 -1.45267,3.7375 -1.46078,5.25 -0.008,1.5125 -0.43442,2.75 -0.94735,2.75 -0.51294,0 -1.2013,0.84655 -1.52969,1.88122 -0.32839,1.03467 -1.48992,2.91068 -2.58117,4.1689 -1.14889,1.32469 -1.74467,3.04204 -1.41532,4.07973 0.54872,1.72884 -1.32456,8.59724 -4.3284,15.87015 -1.91503,4.63667 -5.04937,7.06679 -8.12723,6.30121 -1.99295,-0.49572 -2.29844,-0.29831 -1.75,1.1309 0.36543,0.95231 0.66442,2.14466 0.66442,2.64968 0,0.50501 0.675,0.91821 1.5,0.91821 0.825,0 1.50351,-0.5625 1.5078,-1.25 0.007,-1.1894 4.95636,-4.11917 5.70071,-3.37482 0.19482,0.19481 0.55655,1.40487 0.80385,2.68901 0.24731,1.28415 2.03319,4.90036 3.96864,8.03604 1.93545,3.13567 3.519,6.66824 3.519,7.85016 0,1.18191 0.65705,3.41953 1.46012,4.97249 0.80306,1.55295 1.21344,3.07023 0.91194,3.37173 -0.88743,0.88742 3.71082,6.4938 5.76715,7.03154 1.69841,0.44415 1.66086,0.22457 -0.37624,-2.19983 -5.15605,-6.13636 -8.8484,-16.95387 -9.54171,-27.95449 C 377.77957,354.1637 378.48066,350 380.10239,350 c 0.58535,0 0.87288,0.5625 0.63896,1.25 -1.25802,3.69728 6.17146,19.83887 10.68835,23.22195 8.60479,6.44485 18.1457,9.03936 29.53382,8.03128 7.5163,-0.66535 8.31007,-0.97564 14.9725,-5.85291 6.07828,-4.44964 7.52696,-6.14484 10.64838,-12.46042 2.89134,-5.85005 3.71829,-8.84677 4.1403,-15.00386 0.50796,-7.41089 0.37926,-8.00615 -3.50031,-16.1899 -2.21521,-4.67288 -5.08442,-9.47589 -6.37602,-10.67337 C 437.06293,318.8132 423.96146,313 419.83723,313 c -4.08703,0 -5.8255,-1.39718 -3.08149,-2.47654 0.95934,-0.37735 4.89426,-0.92359 8.74426,-1.21385 14.36012,-1.08264 31.71876,4.86831 37.50655,12.85813 1.6464,2.27279 2.99345,4.79788 2.99345,5.61131 0,0.81344 1.15221,4.67316 2.56046,8.57716 3.12049,8.65074 5.40254,26.89786 4.40181,35.19657 -0.46904,3.88957 -2.35628,9.40708 -5.45468,15.94722 -5.18038,10.93483 -6.49457,12.18282 -18.3588,17.43414 -3.38601,1.49871 -5.88517,2.99615 -5.55367,3.32764 0.33149,0.33149 -0.4543,0.36917 -1.74621,0.0837 -1.40015,-0.30937 -1.8814,-0.18102 -1.19147,0.31775 1.9928,1.44065 -19.28002,0.54389 -23.85904,-1.00577 -2.36412,-0.80008 -6.3234,-1.98934 -8.7984,-2.64279 -2.475,-0.65344 -5.625,-2.19458 -7,-3.42475 -4.25356,-3.80551 -11.5682,-9.13802 -10.25868,-7.47877 0.68273,0.86507 0.94523,1.86894 0.58334,2.23084 -0.3619,0.36189 0.17555,0.65799 1.19432,0.65799 1.01877,0 3.94188,1.76195 6.49579,3.91545 2.55392,2.15349 6.50155,4.41576 8.77251,5.02727 2.82419,0.76048 3.96269,1.54526 3.6027,2.4834 -0.77109,2.00942 1.7069,3.15216 2.75892,1.2723 0.96625,-1.72661 3.78156,-1.17195 10.8511,2.13782 9.32928,4.36771 26.90938,6.46073 30.08992,3.58238 z M 409.5,372.35044 c -3.14217,-0.81564 -4.61288,-3.271 -3.3607,-5.61072 0.90229,-1.68596 1.73301,-1.89201 5.52975,-1.3716 3.11092,0.4264 5.38573,0.13779 7.48971,-0.95022 1.66196,-0.85943 3.65614,-1.31917 4.4315,-1.02164 2.35796,0.90484 1.67083,5.38656 -1.10469,7.20515 -2.61783,1.71527 -9.52935,2.64618 -12.98557,1.74903 z M 392.75,358.9199 c -1.90049,-1.10693 -2.35965,-4.42508 -0.75,-5.4199 0.55,-0.33992 1,-1.46492 1,-2.5 0,-2.77736 1.76447,-3.38434 4.54398,-1.56314 3.22229,2.11133 3.34457,6.82737 0.23351,9.00644 -2.58462,1.81034 -2.71619,1.82281 -5.02749,0.4766 z m 40.56079,-3.55237 c -0.34454,-0.89785 -0.10541,-2.46675 0.53139,-3.48643 0.6368,-1.01968 1.15782,-2.53507 1.15782,-3.36753 0,-1.82734 4.06638,-2.04719 5.8,-0.31357 1.90147,1.90147 1.45796,6.59158 -0.73426,7.76482 -2.87005,1.536 -6.04402,1.25536 -6.75495,-0.59729 z"
       style="fill:#fbbb03" />
    <path
       id="path9180"
       d="m 412.5,492.25064 c -1.65,-0.22988 -3.75715,-1.0976 -4.68256,-1.92826 -3.14661,-2.82445 0.55402,-8.03833 6.36484,-8.96752 3.98231,-0.6368 4.11685,-0.8419 5.1522,-7.85486 0.2436,-1.65 1.18643,-5.475 2.09518,-8.5 3.48393,-11.59707 3.60687,-12.42572 2.02119,-13.62359 -0.81805,-0.61798 -3.68781,-1.41549 -6.37725,-1.77226 -8.55135,-1.13438 -17.30024,-4.86286 -29.5736,-12.60327 -1.65,-1.0406 -4.97477,-2.92736 -7.38837,-4.1928 -2.4136,-1.26544 -5.04766,-3.30701 -5.85347,-4.53683 -0.80581,-1.22981 -3.00958,-3.19057 -4.89728,-4.35723 -2.05625,-1.27083 -4.46772,-4.16476 -6.0153,-7.21875 -2.51165,-4.95651 -3.47663,-6.53783 -8.2712,-13.55417 -2.08509,-3.05131 -2.65997,-5.49692 -4.7345,-20.1411 -0.2727,-1.925 -1.21514,-5.075 -2.09432,-7 -0.87917,-1.925 -1.60243,-4.85 -1.60724,-6.5 -0.0109,-3.72862 1.29568,-28.15586 1.88544,-35.25 0.39444,-4.74466 0.24202,-5.25 -1.58349,-5.25 -1.11097,0 -3.83514,0.92604 -6.0537,2.05787 -2.28065,1.1635 -5.41426,1.92407 -7.21017,1.75 -2.7643,-0.26793 -3.21657,-0.72301 -3.48602,-3.50769 -0.27037,-2.79425 0.20498,-3.52467 3.75035,-5.76276 C 339.6754,319.91728 348.83079,316 351.55704,316 c 2.43391,0 3.29237,-1.56997 4.00642,-7.32701 0.47122,-3.79917 4.03352,-12.93787 9.42272,-24.17299 7.19499,-14.99973 10.71986,-22.99527 12.42919,-28.19342 0.93928,-2.85638 2.58007,-6.30236 3.6462,-7.65773 1.06614,-1.35537 1.9537,-2.84333 1.97236,-3.30658 0.0187,-0.46325 0.90339,-2.64227 1.96607,-4.84227 1.06268,-2.2 1.94741,-5.90339 1.96607,-8.22976 0.0187,-2.32637 0.68777,-5.92637 1.4869,-8 0.79914,-2.07363 2.13752,-7.59524 2.97418,-12.27024 0.83665,-4.675 2.25081,-10.975 3.14256,-14 2.13945,-7.25746 3.26742,-12.22223 4.43029,-19.5 1.77132,-11.08576 2.69464,-13.9608 7.43012,-23.13588 3.92751,-7.60964 5.64293,-9.82318 10.26831,-13.25 3.05418,-2.26276 6.19738,-4.11412 6.98487,-4.11412 0.7875,0 3.44951,-1.12647 5.91559,-2.50327 4.18868,-2.33851 5.35256,-2.49606 17.68368,-2.3938 11.97725,0.0993 13.96088,0.38483 21.41577,3.08233 6.58336,2.38213 9.99521,4.45286 17.17048,10.42113 5.57292,4.63547 9.35211,8.58862 10.00723,10.46789 0.57895,1.66078 1.97761,4.19552 3.10813,5.63274 1.13053,1.43723 2.9838,5.80361 4.11838,9.70306 1.13458,3.89946 2.88314,9.11492 3.88567,11.58992 2.26227,5.58494 5.01177,20.06475 5.01177,26.39367 0,2.6058 0.49662,5.66576 1.10361,6.79992 0.60698,1.13416 1.47758,4.36707 1.93466,7.18426 2.24396,13.83041 4.46195,21.66121 8.63438,30.4843 6.58379,13.92221 9.38097,19.24586 11.89451,22.63785 1.22268,1.65 4.12798,6.6 6.45621,11 2.32824,4.4 5.04686,9.03684 6.04137,10.30409 0.99451,1.26726 2.78785,5.31726 3.98521,9 1.19735,3.68275 3.22308,8.5285 4.50162,10.76834 4.85685,8.50858 7.68431,55.30968 3.95278,65.42757 -0.9128,2.475 -3.15063,8.75044 -4.97296,13.94542 -2.43714,6.94764 -4.59827,11.01273 -8.17236,15.37226 -12.75618,15.55946 -27.13906,26.32554 -40.35903,30.21011 -1.375,0.40403 -3.72246,1.59549 -5.21657,2.64769 -1.49411,1.0522 -6.57635,2.58681 -11.29387,3.41024 -4.71751,0.82343 -9.71185,1.9285 -11.09853,2.45571 -1.38668,0.52721 -4.26161,0.95857 -6.38874,0.95857 -2.81232,0 -4.01388,0.47746 -4.40396,1.75 -0.99261,3.23812 -3.84946,19.6931 -4.55742,26.25 -0.76661,7.10019 -2.1104,10.42895 -4.59492,11.38235 -3.0133,1.15631 -11.53606,0.62243 -14.49565,-0.90803 -5.33202,-2.75729 -3.19384,-8.45673 3.72372,-9.9258 2.27099,-0.48229 3.45158,-1.47018 4.14949,-3.4722 1.51454,-4.34462 4.59573,-22.99037 3.9121,-23.674 -0.91007,-0.91007 -16.92236,-2.55941 -19.24795,-1.98262 -1.65705,0.41098 -2.50342,2.58055 -4.79429,12.28969 -1.53011,6.48484 -3.09957,14.44283 -3.48771,17.68442 -0.56236,4.69669 -1.21349,6.25098 -3.2057,7.65225 -2.6979,1.89764 -8.68523,2.87538 -13.5,2.20458 z m 42.58992,-76.83202 c 1.13539,-1.02751 3.70225,-1.59895 7.32874,-1.63153 C 465.4884,413.7595 468,413.38888 468,412.96349 468,411.58915 476.77663,407 479.40502,407 c 1.58459,0 3.14178,-0.90489 4.11608,-2.39186 1.71852,-2.6228 5.42296,-3.77858 7.8169,-2.43886 1.70315,0.95313 3.31955,-0.64486 1.67831,-1.6592 C 491.33408,399.4704 491.83804,396 493.67126,396 c 0.91919,0 2.50135,-0.75122 3.5159,-1.66938 1.72834,-1.56413 1.93372,-1.54836 3.25732,0.25 1.28069,1.74004 1.47326,1.76317 2.0611,0.24752 0.35664,-0.91952 0.17199,-2.56208 -0.41031,-3.65014 -0.89526,-1.67279 -0.47616,-2.5046 2.71405,-5.38677 6.8648,-6.20193 8.53279,-13.78985 7.23141,-32.8968 -0.7193,-10.56077 -1.52345,-15.26037 -3.59333,-21 -1.46665,-4.06694 -2.90282,-8.44903 -3.19148,-9.738 -0.28867,-1.28896 -1.58934,-3.49217 -2.89038,-4.89602 -1.30105,-1.40385 -2.37331,-3.04925 -2.38282,-3.65643 -0.009,-0.60719 -1.1345,-2.16371 -2.5,-3.45894 C 496.11723,308.84981 495,307.34407 495,306.79895 c 0,-3.55519 -3.60299,-12.14342 -6.52821,-15.56088 -3.94333,-4.60689 -4.40367,-7.18162 -1.42337,-7.96098 3.22915,-0.84445 1.95709,-3.72664 -1.80528,-4.09035 -3.49323,-0.33769 -5.64632,-2.9725 -4.61827,-5.65154 0.34316,-0.89428 -0.15677,-2.46547 -1.12487,-3.5352 -1.00291,-1.10821 -1.47153,-2.63181 -1.10403,-3.5895 0.3512,-0.9152 0.14729,-2.25591 -0.45312,-2.97936 -0.60041,-0.72345 -1.26271,-4.56471 -1.47176,-8.53612 -0.21657,-4.11405 -0.89242,-7.53738 -1.57084,-7.95667 -0.7393,-0.45691 -0.95878,-1.89569 -0.57892,-3.79501 0.36687,-1.83432 -0.006,-4.5387 -0.9323,-6.75469 C 471.50235,231.87319 469,219.17081 469,214.10913 c 0,-2.29548 -1.54496,-6.90969 -4.0434,-12.07617 -2.9318,-6.06258 -3.88002,-9.10515 -3.44909,-11.06716 0.4646,-2.11529 0.17758,-2.81489 -1.31494,-3.20519 -1.05009,-0.27461 -2.53286,-1.90808 -3.29503,-3.62995 C 456.13537,182.4088 455.09108,181 454.57689,181 c -0.51418,0 -2.35769,-1.4625 -4.09668,-3.25 -1.73899,-1.7875 -4.38934,-4.08181 -5.88966,-5.09847 -1.50032,-1.01665 -3.06845,-2.7692 -3.48474,-3.89455 -0.71254,-1.92616 -0.84039,-1.94411 -2.18135,-0.30633 -0.78346,0.95687 -2.43696,2.84237 -3.67446,4.19001 -1.2375,1.34764 -2.25,2.80135 -2.25,3.23048 0,0.42913 -1.12918,1.84104 -2.50929,3.13759 -1.50378,1.41273 -2.29617,3.02887 -1.97742,4.03313 0.29252,0.92168 -0.15329,2.24441 -0.99071,2.9394 -0.83742,0.695 -1.52258,2.03058 -1.52258,2.96796 0,0.93738 -2.01175,3.89554 -4.47055,6.57368 -4.57318,4.98114 -5.1388,6.40877 -1.83957,4.64307 1.66518,-0.89117 1.84835,-0.6101 1.7394,2.66898 -0.067,2.01578 -0.70259,5.01505 -1.41246,6.66505 -1.13171,2.63052 -1.64278,4.74083 -3.39051,14 -0.69769,3.69623 -1.89789,7.99194 -2.51457,9 -0.33646,0.55 -0.61174,2.56324 -0.61174,4.47388 0,2.80042 -0.53312,3.73184 -2.75,4.80456 -3.25705,1.57604 -3.67196,3.27542 -0.60382,2.47308 1.85383,-0.48478 2.06631,-0.23365 1.55982,1.84362 -0.32249,1.32267 -1.08398,4.65486 -1.69218,7.40486 -0.6082,2.75 -1.79933,6.2608 -2.64694,7.80178 -0.84762,1.54097 -1.27853,3.48607 -0.95759,4.32244 0.32095,0.83636 0.0435,2.50057 -0.61664,3.69822 -0.66011,1.19766 -1.23721,2.62756 -1.28247,3.17756 -0.30853,3.74968 -3.34173,10.02192 -5.87894,12.15684 -1.65918,1.39611 -3.07693,3.28196 -3.15055,4.19077 -0.20474,2.52752 -2.3615,9.1228 -4.70981,14.40239 -1.41302,3.17683 -2.72134,4.75 -3.95029,4.75 -1.54377,0 -1.65108,0.29857 -0.67124,1.86753 1.16697,1.86863 1.02778,2.46176 -1.67383,7.13247 -0.79532,1.375 -1.45267,3.7375 -1.46078,5.25 -0.008,1.5125 -0.43442,2.75 -0.94735,2.75 -0.51294,0 -1.2013,0.84655 -1.52969,1.88122 -0.32839,1.03467 -1.48992,2.91068 -2.58117,4.1689 -1.14889,1.32469 -1.74467,3.04204 -1.41532,4.07973 0.54872,1.72884 -1.32456,8.59724 -4.3284,15.87015 -1.91503,4.63667 -5.04937,7.06679 -8.12723,6.30121 -1.99295,-0.49572 -2.29844,-0.29831 -1.75,1.1309 0.36543,0.95231 0.66442,2.14466 0.66442,2.64968 0,0.50501 0.675,0.91821 1.5,0.91821 0.825,0 1.50351,-0.5625 1.5078,-1.25 0.007,-1.1894 4.95636,-4.11917 5.70071,-3.37482 0.19482,0.19481 0.55655,1.40487 0.80385,2.68901 0.24731,1.28415 2.03319,4.90036 3.96864,8.03604 1.93545,3.13567 3.519,6.66824 3.519,7.85016 0,1.18191 0.65705,3.41953 1.46012,4.97249 0.80306,1.55295 1.21344,3.07023 0.91194,3.37173 -0.82299,0.82299 3.80967,6.70539 5.28081,6.70539 1.30392,0 3.94382,3.89357 3.55958,5.25 -0.11685,0.4125 0.54609,0.75 1.47319,0.75 0.92711,0 3.77522,1.76195 6.32913,3.91545 2.55392,2.15349 6.50155,4.41576 8.77251,5.02727 2.82419,0.76048 3.96269,1.54526 3.6027,2.4834 -0.77109,2.00942 1.7069,3.15216 2.75892,1.2723 0.96625,-1.72661 3.78156,-1.17195 10.8511,2.13782 9.32928,4.36771 26.90938,6.46073 30.08992,3.58238 z M 409.5,372.35044 c -3.14217,-0.81564 -4.61288,-3.271 -3.3607,-5.61072 0.90229,-1.68596 1.73301,-1.89201 5.52975,-1.3716 3.11092,0.4264 5.38573,0.13779 7.48971,-0.95022 1.66196,-0.85943 3.65614,-1.31917 4.4315,-1.02164 2.35796,0.90484 1.67083,5.38656 -1.10469,7.20515 -2.61783,1.71527 -9.52935,2.64618 -12.98557,1.74903 z M 392.75,358.9199 c -1.90049,-1.10693 -2.35965,-4.42508 -0.75,-5.4199 0.55,-0.33992 1,-1.46492 1,-2.5 0,-2.77736 1.76447,-3.38434 4.54398,-1.56314 3.22229,2.11133 3.34457,6.82737 0.23351,9.00644 -2.58462,1.81034 -2.71619,1.82281 -5.02749,0.4766 z m 40.56079,-3.55237 c -0.34454,-0.89785 -0.10541,-2.46675 0.53139,-3.48643 0.6368,-1.01968 1.15782,-2.53507 1.15782,-3.36753 0,-1.82734 4.06638,-2.04719 5.8,-0.31357 1.90147,1.90147 1.45796,6.59158 -0.73426,7.76482 -2.87005,1.536 -6.04402,1.25536 -6.75495,-0.59729 z"
       style="fill:#95d049" />
    <path
       id="path9178"
       d="m 412.5,492.25064 c -1.65,-0.22988 -3.75715,-1.0976 -4.68256,-1.92826 -3.14661,-2.82445 0.55402,-8.03833 6.36484,-8.96752 3.98231,-0.6368 4.11685,-0.8419 5.1522,-7.85486 0.2436,-1.65 1.18643,-5.475 2.09518,-8.5 3.48393,-11.59707 3.60687,-12.42572 2.02119,-13.62359 -0.81805,-0.61798 -3.68781,-1.41549 -6.37725,-1.77226 -5.76872,-0.76525 -16.21013,-4.20702 -17.09206,-5.63401 -0.33984,-0.54987 -2.47291,-2.0056 -4.74016,-3.23496 -14.42848,-7.82343 -19.0717,-11.00481 -22.24736,-15.24315 -1.96731,-2.62565 -3.96542,-4.33325 -4.72802,-4.04061 -1.39428,0.53503 -5.22591,-4.84902 -5.3029,-7.45142 -0.0244,-0.825 -1.37609,-3.058 -3.00374,-4.96223 C 358.33171,407.13355 357,405.06579 357,404.44276 c 0,-0.62303 -0.9,-1.94727 -2,-2.94276 -2.32716,-2.10605 -2.74669,-7.5 -0.58333,-7.5 0.77916,0 1.59322,-0.52967 1.80901,-1.17705 0.56941,-1.70823 2.77432,-0.0284 2.77432,2.11362 0,3.08845 2.65598,4.58551 5.46663,3.08129 1.31915,-0.70599 3.10381,-1.01294 3.96591,-0.68212 3.69676,1.41858 0.2242,7.66426 -4.26128,7.66426 -1.21375,0 -2.17126,0.62916 -2.17126,1.42668 0,1.91143 3.23859,2.48761 4.52638,0.80529 0.61946,-0.80923 1.75806,-1.06005 2.87189,-0.63264 1.73091,0.66422 1.70664,0.81293 -0.39084,2.39507 -1.82271,1.37487 -2.10846,2.26911 -1.54495,4.83477 0.80261,3.65427 1.83685,4.52799 4.39774,3.7152 1.55635,-0.49397 1.76804,-1.35772 1.36382,-5.56455 -0.30459,-3.16991 -0.0894,-4.97982 0.59203,-4.97982 1.32698,0 4.26458,4.06048 3.65324,5.04966 -0.24601,0.39805 0.22276,1.27981 1.0417,1.95948 1.71634,1.42443 1.99284,3.99086 0.42997,3.99086 -0.58246,0 -0.76739,0.47185 -0.41097,1.04856 0.44032,0.71245 1.04046,0.72288 1.87225,0.0326 0.67331,-0.5588 2.91592,-0.74147 4.98358,-0.40593 3.34539,0.54288 3.69423,0.86966 3.16772,2.96744 -0.41233,1.64286 -0.16368,2.35737 0.8204,2.35737 1.85326,0 2.77622,2.55344 2.01674,5.57946 -0.69541,2.77075 1.16415,3.38218 2.03934,0.67054 0.31065,-0.9625 1.91098,-2.51371 3.55629,-3.44712 1.99824,-1.13364 2.79363,-2.21272 2.39559,-3.25 -0.32774,-0.85409 -0.0977,-1.55288 0.51109,-1.55288 0.60885,0 1.10699,0.87961 1.10699,1.95469 0,1.48128 0.9082,2.10562 3.75,2.57791 2.0625,0.34277 4.3125,0.79904 5,1.01393 1.80358,0.56373 1.55781,4.45347 -0.28138,4.45347 -0.84227,0 -1.7552,0.58323 -2.02874,1.29606 -0.63345,1.65075 -5.63702,1.61351 -6.19002,-0.0461 -0.55562,-1.66741 -3.90129,-1.60074 -4.55035,0.0907 -0.92004,2.39758 0.69449,3.37582 6.80049,4.12041 6.6421,0.80996 8.67721,1.91352 7.79043,4.22445 -0.48192,1.25587 -0.034,1.41704 2.43265,0.87528 2.24542,-0.49318 3.17653,-0.2648 3.61874,0.88757 0.32748,0.85339 1.50953,1.55161 2.6268,1.55161 2.36861,0 2.71173,-1.52495 0.53138,-2.36163 -0.825,-0.31658 -1.5,-1.25186 -1.5,-2.07839 0,-0.8559 -1.39835,-1.86514 -3.24847,-2.34456 -1.87281,-0.48529 -3.39281,-1.59124 -3.5893,-2.61157 -0.29292,-1.52099 -0.0381,-1.60779 1.81239,-0.61743 1.63457,0.87479 2.49674,0.86728 3.57934,-0.0312 1.14721,-0.95211 1.96054,-0.57454 4.15876,1.9306 2.65074,3.02084 5.28728,4.09987 5.28728,2.16387 0,-0.52267 -0.66316,-1.32143 -1.47368,-1.77502 -1.78388,-0.99831 -0.69241,-6.38597 1.43755,-7.09596 0.89368,-0.29789 1.15063,0.0805 0.75492,1.11173 -0.32995,0.85983 0.0483,2.10133 0.84065,2.75889 1.73999,1.44406 1.86806,4.12317 0.27334,5.71789 -0.88962,0.88962 -0.74671,1.32858 0.60093,1.84571 1.02466,0.39321 2.09917,0.14288 2.55541,-0.59533 0.99891,-1.61627 3.00122,-0.43684 3.04129,1.79142 0.0273,1.51876 0.13738,1.50711 1.08072,-0.11447 0.84227,-1.44783 1.33834,-1.56641 2.50443,-0.59864 1.33025,1.104 6.30347,0.52454 14.03478,-1.63529 0.63268,-0.17675 1.45974,-2.1527 1.8379,-4.39099 0.52389,-3.10088 1.14272,-4.06963 2.59966,-4.06963 2.46854,0 2.58018,3.791 0.16367,5.558 -0.96163,0.70316 -1.51841,1.50849 -1.23728,1.78962 1.05286,1.05286 10.57058,-1.64147 12.69822,-3.59469 1.21689,-1.11712 3.24189,-2.54138 4.5,-3.16502 1.65836,-0.82204 2.37285,-2.15894 2.59786,-4.8609 0.34755,-4.17359 0.40898,-4.22021 3.2641,-2.47701 1.70249,1.03945 2.24827,0.97974 3.24027,-0.35448 0.65612,-0.88247 2.11808,-1.89812 3.24882,-2.257 3.56344,-1.13099 10.5344,-8.75451 9.8827,-10.80784 -0.37332,-1.17621 -0.083,-1.83068 0.81204,-1.83068 2.24264,0 5.65663,-4.31238 6.37144,-8.04807 0.36328,-1.89856 1.7202,-5.3804 3.01538,-7.73741 1.29519,-2.35702 2.35488,-5.07952 2.35488,-6.05 0,-0.97049 0.47467,-2.23919 1.05482,-2.81934 2.11618,-2.11618 4.18921,-13.83324 3.95341,-22.34518 -0.12951,-4.675 -0.19957,-10.3 -0.15569,-12.5 0.0999,-5.00657 -1.47721,-13.27537 -3.95154,-20.71845 -1.04555,-3.14515 -1.901,-6.84214 -1.901,-8.21553 0,-1.42586 -1.28696,-3.8136 -3,-5.56602 -1.65,-1.68793 -3,-3.96756 -3,-5.06586 0,-1.0983 -0.67276,-2.25507 -1.49502,-2.5706 -1.13028,-0.43373 -1.34387,-1.51889 -0.87548,-4.448 0.44982,-2.81301 0.007,-5.3834 -1.61643,-9.38333 -1.22977,-3.02996 -1.97337,-6.19328 -1.65245,-7.02959 0.34469,-0.89824 -0.22361,-2.02462 -1.38856,-2.75214 C 492.88743,284.07311 492,282.7067 492,281.714 c 0,-0.9927 -1.01436,-2.81927 -2.25414,-4.05905 -1.23978,-1.23978 -2.09982,-3.05551 -1.9112,-4.03495 0.18863,-0.97944 -0.32511,-3.88212 -1.14164,-6.4504 -0.81653,-2.56828 -1.78481,-7.63705 -2.15174,-11.26394 -0.36692,-3.62689 -1.25445,-7.7264 -1.97229,-9.11003 -0.84567,-1.63004 -0.98466,-3.08838 -0.3948,-4.14241 0.53777,-0.96094 0.54471,-2.34838 0.017,-3.38997 C 481.33586,237.57524 479.1653,227.134 479.01817,224 c -0.0387,-0.825 -0.24159,-3.75 -0.4508,-6.5 -0.2092,-2.75 -0.42244,-5.79607 -0.47387,-6.76905 -0.0727,-1.37575 -0.64931,-1.62956 -2.5935,-1.14159 -1.375,0.3451 -2.5,0.32409 -2.5,-0.0467 0,-1.69762 2.21407,-4.54267 3.53518,-4.54267 1.96237,0 1.86185,-1.67843 -0.16858,-2.81472 -1.25183,-0.70055 -1.4717,-1.70499 -0.94119,-4.29969 0.8084,-3.95388 0.85524,-6.25934 0.211,-10.38559 -0.98929,-6.33631 -2.74246,-17.14063 -3.28829,-20.26484 -0.31372,-1.79566 -1.64538,-4.11043 -2.95926,-5.14392 -2.70027,-2.12404 -3.13125,-3.31335 -0.88886,-2.45287 0.91821,0.35236 1.5,-1.8e-4 1.5,-0.90894 0,-0.8165 -0.675,-2.04474 -1.5,-2.72943 C 467.675,155.3153 467,154.1352 467,153.37755 467,152.6199 466.12716,152 465.06037,152 c -1.51952,0 -2.00686,-0.81224 -2.25,-3.75 -0.28171,-3.40369 -0.56433,-3.73261 -3.06037,-3.56174 -1.5125,0.10355 -2.75,-0.15046 -2.75,-0.56445 0,-0.89786 -10.06115,-0.84385 -11.5057,0.0618 -0.55313,0.34677 -2.24063,0.39442 -3.75,0.10588 -1.95543,-0.3738 -2.75386,-1.13787 -2.77757,-2.65803 l -0.0333,-2.13342 -1.87702,2.25 c -1.03236,1.2375 -2.56584,2.25 -3.40772,2.25 -0.84188,0 -1.82692,0.47931 -2.18898,1.06514 -0.96217,1.55683 -4.45193,-1.91348 -4.49518,-4.47013 -0.0329,-1.94782 -0.13672,-1.91937 -1.47714,0.40499 -0.82138,1.4243 -1.20222,3.68327 -0.88511,5.25 0.41982,2.0742 0.16845,2.75 -1.02285,2.75 C 422.68267,149 422,148.16107 422,147.05902 c 0,-2.57694 -1.4856,-3.38376 -2.95981,-1.60745 -0.65253,0.78625 -1.82852,1.18315 -2.6133,0.882 -2.74841,-1.05466 -1.44433,2.68522 1.57701,4.52261 2.94557,1.79131 2.96638,1.86074 1.07167,3.57543 -2.20213,1.9929 -4.93051,1.49115 -7.53382,-1.38548 -2.52065,-2.78529 -1.25849,-5.22218 5.21039,-10.05991 4.42786,-3.31135 6.70252,-4.32085 10.22156,-4.53637 5.84574,-0.35801 5.76291,-0.33065 4.13068,-1.36418 -1.07916,-0.68332 -0.70615,-1.24024 1.64495,-2.45604 2.41938,-1.25112 5.769,-1.51118 16.39562,-1.27294 12.07048,0.27061 14.07821,0.58557 20.87335,3.27442 8.9219,3.53041 24.16701,15.5931 25.86582,20.46633 0.57451,1.64805 1.96954,4.17236 3.10006,5.60958 1.13053,1.43723 2.9838,5.80361 4.11838,9.70306 1.13458,3.89946 2.88314,9.11492 3.88567,11.58992 2.26227,5.58494 5.01177,20.06475 5.01177,26.39367 0,2.6058 0.49662,5.66576 1.10361,6.79992 0.60698,1.13416 1.47758,4.36707 1.93466,7.18426 2.24396,13.83041 4.46195,21.66121 8.63438,30.4843 6.58379,13.92221 9.38097,19.24586 11.89451,22.63785 1.22268,1.65 4.12798,6.6 6.45621,11 2.32824,4.4 5.04686,9.03684 6.04137,10.30409 0.99451,1.26726 2.78785,5.31726 3.98521,9 1.19735,3.68275 3.22308,8.5285 4.50162,10.76834 4.85685,8.50858 7.68431,55.30968 3.95278,65.42757 -0.9128,2.475 -3.15063,8.75044 -4.97296,13.94542 -2.43714,6.94764 -4.59827,11.01273 -8.17236,15.37226 -12.75618,15.55946 -27.13906,26.32554 -40.35903,30.21011 -1.375,0.40403 -3.72246,1.59549 -5.21657,2.64769 -1.49411,1.0522 -6.57635,2.58681 -11.29387,3.41024 -4.71751,0.82343 -9.71185,1.9285 -11.09853,2.45571 -1.38668,0.52721 -4.26161,0.95857 -6.38874,0.95857 -2.81232,0 -4.01388,0.47746 -4.40396,1.75 -0.99261,3.23812 -3.84946,19.6931 -4.55742,26.25 -0.76661,7.10019 -2.1104,10.42895 -4.59492,11.38235 -3.0133,1.15631 -11.53606,0.62243 -14.49565,-0.90803 -5.33202,-2.75729 -3.19384,-8.45673 3.72372,-9.9258 2.27099,-0.48229 3.45158,-1.47018 4.14949,-3.4722 1.51454,-4.34462 4.59573,-22.99037 3.9121,-23.674 -0.91007,-0.91007 -16.92236,-2.55941 -19.24795,-1.98262 -1.65705,0.41098 -2.50342,2.58055 -4.79429,12.28969 -1.53011,6.48484 -3.09957,14.44283 -3.48771,17.68442 -0.56236,4.69669 -1.21349,6.25098 -3.2057,7.65225 -2.6979,1.89764 -8.68523,2.87538 -13.5,2.20458 z m -3,-119.9002 c -3.14217,-0.81564 -4.61288,-3.271 -3.3607,-5.61072 0.90229,-1.68596 1.73301,-1.89201 5.52975,-1.3716 3.11092,0.4264 5.38573,0.13779 7.48971,-0.95022 1.66196,-0.85943 3.65614,-1.31917 4.4315,-1.02164 2.35796,0.90484 1.67083,5.38656 -1.10469,7.20515 -2.61783,1.71527 -9.52935,2.64618 -12.98557,1.74903 z M 392.75,358.9199 c -1.90049,-1.10693 -2.35965,-4.42508 -0.75,-5.4199 0.55,-0.33992 1,-1.46492 1,-2.5 0,-2.77736 1.76447,-3.38434 4.54398,-1.56314 3.22229,2.11133 3.34457,6.82737 0.23351,9.00644 -2.58462,1.81034 -2.71619,1.82281 -5.02749,0.4766 z m 40.56079,-3.55237 c -0.34454,-0.89785 -0.10541,-2.46675 0.53139,-3.48643 0.6368,-1.01968 1.15782,-2.53507 1.15782,-3.36753 0,-1.82734 4.06638,-2.04719 5.8,-0.31357 1.90147,1.90147 1.45796,6.59158 -0.73426,7.76482 -2.87005,1.536 -6.04402,1.25536 -6.75495,-0.59729 z M 330.66667,332.33333 C 330.3,331.96667 330,330.39731 330,328.84588 c 0,-2.21276 0.87971,-3.37613 4.08119,-5.39713 6.91022,-4.36223 15.88253,-7.88503 17.06667,-6.70089 1.09667,1.09667 1.49068,4.74946 0.77086,7.14649 -0.2673,0.89012 0.75654,1.71411 2.83128,2.27859 3.61122,0.98252 4.0221,1.94138 1.6688,3.89445 -1.24003,1.02914 -1.99229,1.05555 -3.48643,0.12245 C 350.10678,328.42523 345.42371,328.74319 341,331 c -3.86182,1.97015 -9.02969,2.63698 -10.33333,1.33333 z m 48.88416,-72.6725 c -1.68423,-1.23154 -1.69612,-1.3911 -0.14801,-1.98517 1.36865,-0.5252 1.47509,-1.03527 0.56923,-2.72788 -2.05239,-3.83493 4.25538,-9.62487 6.51049,-5.97603 0.67152,1.08654 -2.21575,6.0787 -4.25236,7.35247 -0.7587,0.47451 -1.05851,1.6413 -0.70662,2.75 0.72442,2.28244 0.45573,2.36234 -1.97273,0.58661 z M 393,215.36024 c 0,-0.90186 0.69949,-2.15124 1.55443,-2.77638 1.57441,-1.15124 1.07911,-4.58386 -0.66142,-4.58386 -1.20574,0 -1.14113,-3.72862 0.0777,-4.48188 0.53388,-0.32995 1.24177,0.48015 1.57308,1.80022 0.38696,1.54175 2.18994,3.193 5.04129,4.61703 4.86534,2.42987 4.95015,4.62167 0.14161,3.65996 -2.33972,-0.46794 -3.35105,-0.14889 -4.43542,1.39926 -1.7002,2.42738 -3.29124,2.60414 -3.29124,0.36565 z m 7.66667,-8.02691 C 400.3,206.96667 400,205.8575 400,204.86852 c 0,-0.98899 -0.9,-2.27982 -2,-2.86852 -1.40923,-0.7542 -2,-2.09382 -2,-4.53518 0,-3.90123 -0.0991,-3.83321 3.55911,-2.44234 2.46228,0.93615 2.63644,1.35316 2.06294,4.93964 -0.35963,2.24899 -0.1996,4.18094 0.37578,4.53654 0.5512,0.34066 1.00217,1.26782 1.00217,2.06036 0,1.51115 -1.19871,1.90894 -2.33333,0.77431 z m -2.29379,-21.53901 c -0.34601,-0.55986 -0.0733,-1.36143 0.60602,-1.78128 0.71832,-0.44394 0.96523,-1.61371 0.5901,-2.79563 C 398.57045,178.07126 403.68193,160 405.57037,160 c 0.275,0 1.65733,0.75832 3.07185,1.68515 2.42003,1.58566 2.4657,1.76276 0.77369,3 -0.98899,0.72317 -2.5856,1.31485 -3.54802,1.31485 -2.29147,0 -3.39652,1.87137 -1.9558,3.31209 0.85044,0.85044 1.63668,0.82629 3.11287,-0.0956 C 408.204,168.48016 409,168.3895 409,168.99153 409,169.54619 408.58032,170 408.06739,170 c -0.51294,0 -1.22423,0.91881 -1.58065,2.04179 -0.4461,1.40554 -1.20997,1.86344 -2.45132,1.46945 -1.35605,-0.43039 -1.97478,0.11101 -2.49483,2.18305 -0.42474,1.69232 -0.26973,2.896 0.40178,3.11983 0.60134,0.20045 1.78165,1.05276 2.62291,1.89402 1.37276,1.37276 1.36429,1.7122 -0.0826,3.31102 -1.98478,2.19316 -5.26282,3.14557 -6.10978,1.77516 z"
       style="fill:#90ca3b" />
    <path
       id="path9176"
       d="m 412.5,492.25064 c -1.65,-0.22988 -3.75715,-1.0976 -4.68256,-1.92826 -3.14661,-2.82445 0.55402,-8.03833 6.36484,-8.96752 3.98231,-0.6368 4.11685,-0.8419 5.1522,-7.85486 0.2436,-1.65 1.18643,-5.475 2.09518,-8.5 3.47881,-11.58001 3.60527,-12.42691 2.03299,-13.61496 -0.81155,-0.61323 -3.61015,-1.40464 -6.2191,-1.75869 -7.5397,-1.02319 -17.60893,-4.66097 -16.35956,-5.91034 0.74901,-0.74901 1.87977,-0.68388 3.83888,0.22114 3.81627,1.76292 28.14273,2.50865 34.6668,1.06271 21.03121,-4.66119 27.3092,-6.46589 29.61033,-8.51192 1.375,-1.22257 4.73427,-3.50697 7.46505,-5.07645 5.54229,-3.18535 22.48271,-19.53303 24.26036,-23.41149 8.70241,-18.98693 12.78617,-32.69246 12.66348,-42.5 -0.167,-13.34973 -1.46512,-25.32663 -3.76488,-34.73604 C 508.1808,324.85915 507,319.1734 507,318.12897 c 0,-1.04442 -1.125,-2.63608 -2.5,-3.53701 -1.97855,-1.2964 -2.5,-2.47428 -2.5,-5.64713 0,-2.20499 -0.68006,-5.63667 -1.51124,-7.62596 -0.83117,-1.98929 -2.20834,-6.30713 -3.06037,-9.5952 -0.85202,-3.28807 -2.16331,-6.93351 -2.91398,-8.10099 -3.06807,-4.77161 -9.89531,-25.19736 -8.93921,-26.74436 0.31185,-0.50458 0.091,-2.37112 -0.49066,-4.14787 -2.72848,-8.33365 -4.27698,-19.83474 -8.04209,-59.73045 -0.54501,-5.775 -1.40699,-12.525 -1.91551,-15 -0.50852,-2.475 -1.65687,-8.1831 -2.5519,-12.68467 -2.50027,-12.57525 -5.66377,-18.71051 -13.39896,-25.98581 l -6.67608,-6.27915 4,0.008 c 2.2,0.004 7.825,1.46733 12.5,3.25097 6.67994,2.54858 10.35642,4.80061 17.16978,10.51733 5.27509,4.42604 9.07878,8.44761 9.71434,10.27078 0.57451,1.64805 1.96954,4.17236 3.10006,5.60958 1.13053,1.43723 2.9838,5.80361 4.11838,9.70306 1.13458,3.89946 2.88314,9.11492 3.88567,11.58992 2.26227,5.58494 5.01177,20.06475 5.01177,26.39367 0,2.6058 0.49662,5.66576 1.10361,6.79992 0.60698,1.13416 1.47758,4.36707 1.93466,7.18426 2.24396,13.83041 4.46195,21.66121 8.63438,30.4843 6.58379,13.92221 9.38097,19.24586 11.89451,22.63785 1.22268,1.65 4.12798,6.6 6.45621,11 2.32824,4.4 5.04686,9.03684 6.04137,10.30409 0.99451,1.26726 2.78785,5.31726 3.98521,9 1.19735,3.68275 3.22308,8.5285 4.50162,10.76834 4.85685,8.50858 7.68431,55.30968 3.95278,65.42757 -0.9128,2.475 -3.15063,8.75044 -4.97296,13.94542 -2.43714,6.94764 -4.59827,11.01273 -8.17236,15.37226 -12.75618,15.55946 -27.13906,26.32554 -40.35903,30.21011 -1.375,0.40403 -3.72246,1.59549 -5.21657,2.64769 -1.49411,1.0522 -6.57635,2.58681 -11.29387,3.41024 -4.71751,0.82343 -9.71185,1.9285 -11.09853,2.45571 -1.38668,0.52721 -4.26161,0.95857 -6.38874,0.95857 -2.81232,0 -4.01388,0.47746 -4.40396,1.75 -0.99261,3.23812 -3.84946,19.6931 -4.55742,26.25 -0.76661,7.10019 -2.1104,10.42895 -4.59492,11.38235 -3.0133,1.15631 -11.53606,0.62243 -14.49565,-0.90803 -5.33202,-2.75729 -3.19384,-8.45673 3.72372,-9.9258 2.27099,-0.48229 3.45158,-1.47018 4.14949,-3.4722 1.51454,-4.34462 4.59573,-22.99037 3.9121,-23.674 -0.91007,-0.91007 -16.92236,-2.55941 -19.24795,-1.98262 -1.65705,0.41098 -2.50342,2.58055 -4.79429,12.28969 -1.53011,6.48484 -3.09957,14.44283 -3.48771,17.68442 -0.56236,4.69669 -1.21349,6.25098 -3.2057,7.65225 -2.6979,1.89764 -8.68523,2.87538 -13.5,2.20458 z m -5.56957,-121.83446 c -2.3851,-2.87387 0.10593,-4.9014 6.18206,-5.03179 2.96313,-0.0636 6.61941,-0.45247 8.12507,-0.86419 4.11213,-1.12448 4.96164,2.05154 1.37414,5.13738 -2.18154,1.87648 -3.88126,2.34242 -8.54502,2.34242 -4.09191,0 -6.21237,-0.47061 -7.13625,-1.58382 z M 392.75,358.9199 c -1.90049,-1.10693 -2.35965,-4.42508 -0.75,-5.4199 0.55,-0.33992 1,-1.46492 1,-2.5 0,-2.77736 1.76447,-3.38434 4.54398,-1.56314 3.22229,2.11133 3.34457,6.82737 0.23351,9.00644 -2.58462,1.81034 -2.71619,1.82281 -5.02749,0.4766 z m 40.56079,-3.55237 c -0.34454,-0.89785 -0.10541,-2.46675 0.53139,-3.48643 0.6368,-1.01968 1.15782,-2.53507 1.15782,-3.36753 0,-1.82734 4.06638,-2.04719 5.8,-0.31357 1.90147,1.90147 1.45796,6.59158 -0.73426,7.76482 -2.87005,1.536 -6.04402,1.25536 -6.75495,-0.59729 z M 330.66667,332.33333 C 330.3,331.96667 330,330.39731 330,328.84588 c 0,-2.20345 0.87549,-3.37347 4.00035,-5.3461 4.19762,-2.64984 14.6247,-7.49978 16.12408,-7.49978 1.0095,0 1.00231,6.33006 -0.0113,9.96661 -0.46844,1.68059 -1.63167,2.66295 -3.65032,3.08271 -1.62954,0.33885 -4.40295,1.36638 -6.16314,2.28339 -3.23798,1.6869 -8.40953,2.22409 -9.63299,1.00062 z"
       style="fill:#87a15e" />
    <path
       id="path9174"
       d="M 446.25,491.50913 C 443.88213,490.47996 443,489.44695 443,487.70326 443,484.85034 445.85186,482 448.7063,482 c 1.12684,0 2.56133,-0.61754 3.18773,-1.37232 1.64093,-1.9772 5.2586,-19.35585 4.90523,-23.56389 L 456.5,453.5 l -9.79645,-0.90355 c -6.43932,-0.59391 -10.1408,-0.5592 -10.80128,0.10128 -1.67333,1.67333 -6.18011,20.28437 -7.62471,31.48668 -0.67273,5.21679 -3.2359,7.11262 -10.30791,7.62417 -6.85886,0.49612 -11.36943,-1.50385 -10.2855,-4.56057 C 408.81457,484.06017 411.27626,482 413.95499,482 417.35085,482 419,480.31029 419,476.8309 c 0,-1.52301 1.15369,-6.27051 2.56375,-10.55 1.41007,-4.2795 2.64757,-9.53539 2.75,-11.67977 L 424.5,450.70225 418,449.25509 c -3.575,-0.79594 -8.075,-2.04079 -10,-2.76635 -1.925,-0.72555 -4.4,-1.63472 -5.5,-2.02039 -1.16377,-0.40801 -1.50053,-0.8887 -0.80544,-1.14963 0.65701,-0.24663 2.19222,0.0855 3.41157,0.73808 3.11543,1.66733 27.93516,2.35006 34.28354,0.94306 20.87007,-4.62548 27.32092,-6.47407 29.61033,-8.4853 1.375,-1.20794 4.3,-3.25673 6.5,-4.55288 11.10189,-6.54079 25.12332,-21.24015 27.62599,-28.96168 0.62393,-1.925 2.41581,-6.27232 3.98197,-9.66072 1.56615,-3.3884 3.7752,-10.32532 4.90899,-15.41539 3.12524,-14.03049 1.84809,-33.37042 -3.4289,-51.92389 -0.86037,-3.025 -1.56965,-6.46075 -1.57618,-7.63499 -0.007,-1.17424 -1.13687,-2.87212 -2.51187,-3.77305 -1.97855,-1.2964 -2.5,-2.47428 -2.5,-5.64713 0,-2.20499 -0.68006,-5.63667 -1.51124,-7.62596 -0.83117,-1.98929 -2.20834,-6.30713 -3.06037,-9.5952 -0.85202,-3.28807 -2.16331,-6.93351 -2.91398,-8.10099 -1.34077,-2.08523 -5.11672,-11.66278 -7.36998,-18.69368 C 486.51499,262.96495 486,260.14566 486,258.6639 c 0,-1.48175 -0.64544,-5.2748 -1.4343,-8.429 -3.03527,-12.13621 -6.43025,-37.87088 -7.08883,-53.7349 -0.23087,-5.56147 -2.15433,-19.10327 -3.47993,-24.5 -0.47284,-1.925 -1.38055,-6.12187 -2.01714,-9.32639 -1.96917,-9.91265 -5.5323,-16.53041 -12.31198,-22.86689 L 453.5,134.0421 l 3.72121,-0.0211 c 5.0404,-0.0285 19.13817,5.23885 23.23977,8.6831 1.8312,1.53772 5.59906,4.59585 8.37303,6.79585 2.77397,2.2 5.45866,5.12547 5.96598,6.50105 0.50732,1.37558 2.03186,4.13594 3.38787,6.13412 1.356,1.99818 3.24083,6.27271 4.1885,9.49895 0.94767,3.22623 2.59194,8.11588 3.65392,10.86588 2.22534,5.76252 4.51529,16.50827 5.96687,28 2.42447,19.19368 6.00146,33.53457 10.98797,44.05297 6.19068,13.05843 8.94654,18.24858 13.14957,24.76482 2.06389,3.19979 4.74584,7.92479 5.95987,10.5 1.21404,2.57522 3.06501,5.63846 4.11327,6.80721 1.04826,1.16874 3.47059,6.33351 5.38295,11.47727 1.91237,5.14375 4.13311,10.35358 4.93498,11.5774 2.29746,3.50635 4.43921,20.77409 5.00859,40.38136 l 0.52258,17.99586 -3.14536,8.72156 c -1.72994,4.79685 -3.81162,10.74655 -4.62594,13.22155 -2.08683,6.34261 -4.56541,11.13213 -6.07037,11.73014 -0.70661,0.28077 -2.6162,2.44571 -4.24355,4.81097 C 537.66929,425.70137 513.59307,443 507.14625,443 c -0.7756,0 -2.95375,0.95398 -4.84033,2.11995 -3.44321,2.12802 -23.19228,6.85187 -28.80592,6.8902 -1.65,0.0113 -3.47628,0.35108 -4.0584,0.75516 -0.98009,0.68033 -2.78505,7.63035 -3.82668,14.73469 -1.42931,9.74853 -3.64666,20.69079 -4.52559,22.33308 -1.71081,3.19669 -9.35445,4.06001 -14.83933,1.67605 z M 407.75,370.9199 c -3.95869,-2.30573 -0.0959,-6.72326 4.41865,-5.05322 1.5466,0.57213 3.72992,0.3339 6.56302,-0.71612 3.09712,-1.14788 4.54406,-1.27483 5.34952,-0.46937 1.56211,1.56211 -0.53267,5.15977 -3.70709,6.36668 -3.26384,1.24091 -10.39805,1.16859 -12.6241,-0.12797 z m -15.59372,-13.2316 c -0.79979,-0.96369 -0.6333,-2.28159 0.62755,-4.96743 1.93458,-4.12098 3.16518,-4.53968 5.56118,-1.89213 2.15105,2.37688 2.09544,4.46269 -0.17375,6.51627 -2.20111,1.99198 -4.53609,2.12524 -6.01498,0.34329 z m 41.89926,-2.12138 c -0.93127,-1.12211 -0.84858,-1.95315 0.38106,-3.82982 0.86373,-1.31821 1.27943,-2.68774 0.92378,-3.04339 -1.61218,-1.61217 2.90159,-1.7666 4.67687,-0.16 2.58556,2.3399 2.48608,4.98633 -0.25976,6.90959 -2.76037,1.93344 -4.19423,1.96442 -5.72195,0.12362 z M 331.01078,331.51299 c -2.65655,-3.20095 -0.39442,-5.99593 8.36637,-10.33707 C 349.168,316.32436 351,316.0405 351,319.375 c 0,5.52397 -1.20883,8.62439 -3.375,8.65627 -1.16875,0.0172 -4.375,1.13809 -7.125,2.49086 -5.78946,2.84793 -7.77584,3.05535 -9.48922,0.99086 z"
       style="fill:#749943" />
    <path
       id="path9172"
       d="M 446.25,491.50913 C 443.88213,490.47996 443,489.44695 443,487.70326 443,484.85034 445.85186,482 448.7063,482 c 1.12684,0 2.56133,-0.61754 3.18773,-1.37232 1.64093,-1.9772 5.2586,-19.35585 4.90523,-23.56389 L 456.5,453.5 l -9.79645,-0.90355 c -6.43932,-0.59391 -10.1408,-0.5592 -10.80128,0.10128 -1.67333,1.67333 -6.18011,20.28437 -7.62471,31.48668 -0.67273,5.21679 -3.2359,7.11262 -10.30791,7.62417 -6.85886,0.49612 -11.36943,-1.50385 -10.2855,-4.56057 C 408.81457,484.06017 411.27626,482 413.95499,482 417.35085,482 419,480.31029 419,476.8309 c 0,-1.52301 1.15369,-6.27051 2.56375,-10.55 1.41007,-4.2795 2.64757,-9.55623 2.75,-11.72608 0.18471,-3.91259 0.14908,-3.95283 -4.31375,-4.87126 -4.24333,-0.87325 -4.3574,-0.98086 -2,-1.88656 1.375,-0.52827 5.07455,-0.67782 8.22123,-0.33234 8.95847,0.98357 39.39411,-5.91045 43.77877,-9.91639 1.375,-1.25623 5.01653,-3.86752 8.09228,-5.80285 6.83629,-4.30155 18.08787,-14.69345 21.88591,-20.21371 1.5428,-2.24239 4.0075,-6.99186 5.4771,-10.55439 1.46961,-3.56253 3.47479,-8.27732 4.45595,-10.47732 3.62183,-8.12104 5.28561,-20.68083 4.55025,-34.34967 -0.37431,-6.95768 -1.30722,-15.57533 -2.07313,-19.15033 -0.76591,-3.575 -2.12263,-9.875 -3.01495,-14 -1.13011,-5.2243 -2.35082,-8.1753 -4.02308,-9.72559 -1.68125,-1.55862 -2.23549,-2.90718 -1.84945,-4.5 0.30319,-1.25092 -0.39619,-4.74941 -1.55416,-7.77441 -1.15797,-3.025 -2.68407,-7.85584 -3.39134,-10.73521 -0.70727,-2.87936 -1.82253,-5.88176 -2.47837,-6.67199 -2.46114,-2.9655 -8.5689,-20.9669 -9.5317,-28.0928 -1.32299,-9.79173 -2.27186,-15.09732 -3.98713,-22.29391 -0.95615,-4.01165 -1.52353,-7.854 -1.26084,-8.53856 0.26269,-0.68456 -0.16089,-6.6273 -0.94129,-13.20609 -0.7804,-6.57879 -1.62155,-15.43837 -1.86924,-19.68795 -0.24768,-4.24958 -1.17644,-10.99958 -2.06391,-15 -0.88747,-4.00042 -2.02971,-9.65384 -2.53833,-12.56316 -1.71277,-9.79718 -5.77509,-18.09841 -11.81112,-24.13571 -4.81817,-4.81918 -5.29042,-5.61506 -3.48486,-5.87302 3.18663,-0.45528 18.11621,5.34836 21.87239,8.50255 1.8312,1.53772 5.59906,4.59585 8.37303,6.79585 2.77397,2.2 5.45866,5.12547 5.96598,6.50105 0.50732,1.37558 2.03186,4.13594 3.38787,6.13412 1.356,1.99818 3.24083,6.27271 4.1885,9.49895 0.94767,3.22623 2.59194,8.11588 3.65392,10.86588 2.22534,5.76252 4.51529,16.50827 5.96687,28 2.42447,19.19368 6.00146,33.53457 10.98797,44.05297 6.19068,13.05843 8.94654,18.24858 13.14957,24.76482 2.06389,3.19979 4.74584,7.92479 5.95987,10.5 1.21404,2.57522 3.06501,5.63846 4.11327,6.80721 1.04826,1.16874 3.47059,6.33351 5.38295,11.47727 1.91237,5.14375 4.13311,10.35358 4.93498,11.5774 2.29746,3.50635 4.43921,20.77409 5.00859,40.38136 l 0.52258,17.99586 -3.14536,8.72156 c -1.72994,4.79685 -3.81162,10.74655 -4.62594,13.22155 -2.08683,6.34261 -4.56541,11.13213 -6.07037,11.73014 -0.70661,0.28077 -2.6162,2.44571 -4.24355,4.81097 C 537.66929,425.70137 513.59307,443 507.14625,443 c -0.7756,0 -2.95375,0.95398 -4.84033,2.11995 -3.44321,2.12802 -23.19228,6.85187 -28.80592,6.8902 -1.65,0.0113 -3.47628,0.35108 -4.0584,0.75516 -0.98009,0.68033 -2.78505,7.63035 -3.82668,14.73469 -1.42931,9.74853 -3.64666,20.69079 -4.52559,22.33308 -1.71081,3.19669 -9.35445,4.06001 -14.83933,1.67605 z M 408.12812,370.10034 c -2.89259,-1.83233 -0.53359,-3.59885 4.95563,-3.71099 2.97894,-0.0609 6.65375,-0.45082 8.16625,-0.86658 3.32107,-0.9129 3.64381,0.58342 0.75,3.47723 -1.49742,1.49742 -3.31928,1.99615 -7.25,1.98469 -2.8875,-0.008 -5.86735,-0.40638 -6.62188,-0.88435 z M 392.15628,357.6883 c -0.79979,-0.96369 -0.6333,-2.28159 0.62755,-4.96743 1.93458,-4.12098 3.16518,-4.53968 5.56118,-1.89213 2.15105,2.37688 2.09544,4.46269 -0.17375,6.51627 -2.20111,1.99198 -4.53609,2.12524 -6.01498,0.34329 z m 41.89926,-2.12138 c -0.93127,-1.12211 -0.84858,-1.95315 0.38106,-3.82982 0.86373,-1.31821 1.27943,-2.68774 0.92378,-3.04339 -1.61218,-1.61217 2.90159,-1.7666 4.67687,-0.16 2.58556,2.3399 2.48608,4.98633 -0.25976,6.90959 -2.76037,1.93344 -4.19423,1.96442 -5.72195,0.12362 z M 331.01078,331.51299 c -2.66585,-3.21215 -0.39633,-5.99498 8.47362,-10.39022 8.15005,-4.03851 10.52236,-4.44791 10.51002,-1.81375 -0.0136,2.90361 -2.1986,8.69384 -3.29142,8.72225 -0.66165,0.0172 -3.453,1.13809 -6.203,2.49086 -5.78946,2.84793 -7.77584,3.05535 -9.48922,0.99086 z"
       style="fill:#5f6251" />
    <path
       id="path9170"
       d="m 446.16561,490.40344 c -4.06005,-2.84376 -2.16576,-6.552 4.00669,-7.84343 1.91796,-0.40129 2.95883,-1.47665 3.68735,-3.80956 1.93662,-6.20152 4.26677,-19.74949 3.95437,-22.99152 -0.30658,-3.18176 -0.45609,-3.27714 -6.31402,-4.02796 -3.3,-0.42296 -8.41432,-0.64796 -11.36516,-0.5 l -5.36516,0.26903 -2.25485,8 c -1.24016,4.4 -3.04688,12.5 -4.01492,18 -2.14315,12.17652 -3.26379,13.50667 -11.36069,13.48469 -7.28013,-0.0198 -8.87841,-0.98529 -7.60297,-4.59295 0.75418,-2.13324 1.94229,-2.96149 5.46375,-3.80888 4.45026,-1.07089 4.50737,-1.13812 5.16703,-6.08286 0.36687,-2.75 1.82937,-8.7918 3.25,-13.42623 3.17894,-10.3704 3.22908,-12.45654 0.33297,-13.85328 -1.84516,-0.88988 -0.92221,-1.09731 5.12959,-1.15281 12.22036,-0.11208 39.4515,-6.66767 41.8356,-10.07145 0.77934,-1.11265 3.2352,-2.9506 5.45748,-4.08432 10.17434,-5.19056 24.94812,-20.06231 28.45205,-28.64071 0.84721,-2.07416 2.89701,-6.67756 4.55512,-10.22978 4.87506,-10.44401 6.26351,-18.53726 6.09739,-35.54142 -0.0968,-9.90407 -0.70337,-17.3781 -1.78558,-22 -0.90146,-3.85 -2.4535,-10.74595 -3.44896,-15.32434 -1.30528,-6.00327 -2.40119,-8.73846 -3.93042,-9.80957 -1.45689,-1.02045 -1.95456,-2.17071 -1.59031,-3.67567 0.29159,-1.20473 -0.41727,-4.66542 -1.57524,-7.69042 -1.15797,-3.025 -2.68159,-7.84518 -3.38583,-10.71151 -0.70424,-2.86633 -2.04202,-6.37385 -2.97286,-7.79448 -2.3891,-3.64623 -8.56375,-21.44933 -8.57699,-24.72966 -0.006,-1.50461 -0.44356,-4.65461 -0.97219,-7 -3.46074,-15.35439 -5.17915,-24.95636 -4.69301,-26.2232 0.30937,-0.80623 -0.11659,-6.7703 -0.94658,-13.25351 -0.83,-6.4832 -1.67422,-14.26264 -1.87606,-17.28764 -0.88143,-13.21024 -1.51522,-17.73666 -2.97156,-21.22217 -0.8534,-2.04248 -1.55164,-5.0523 -1.55164,-6.6885 0,-3.79616 -4.6941,-16.53308 -7.76361,-21.06568 -1.29481,-1.912 -3.7902,-4.6806 -5.5453,-6.15246 -1.7551,-1.47185 -2.86104,-3.01254 -2.45766,-3.42374 1.25484,-1.27916 17.43941,5.17263 21.82522,8.70038 8.84458,7.11416 12.16433,10.34601 13.77301,13.40837 0.91759,1.74676 2.84987,5.3737 4.29396,8.05986 1.44409,2.68617 3.13167,7.26893 3.75016,10.18391 0.6185,2.91498 1.78526,6.57766 2.5928,8.13927 1.79492,3.47099 4.16487,14.6628 5.51857,26.06076 2.25341,18.9733 6.01296,33.80896 11.34262,44.75933 2.40165,4.93447 4.64689,9.81977 4.98941,10.85622 0.34251,1.03645 1.18738,2.78445 1.87747,3.88445 0.6901,1.1 2.8516,4.7 4.80335,8 1.95175,3.3 4.10981,6.9 4.79569,8 0.68588,1.1 2.02624,3.575 2.97859,5.5 0.95234,1.925 2.7772,4.89467 4.05525,6.59928 1.27804,1.7046 3.6303,6.83245 5.22724,11.39523 1.59694,4.56277 3.58305,9.33304 4.41358,10.60058 2.73939,4.18083 4.66741,20.82807 4.85328,41.90491 l 0.17637,20 -3.63061,9 c -1.99683,4.95 -3.93044,10.39584 -4.29692,12.10187 -0.36647,1.70603 -3.11396,5.98103 -6.10554,9.5 -2.99157,3.51897 -5.44546,6.68718 -5.45308,7.04045 -0.008,0.35328 -3.94388,3.95328 -8.74726,8 C 524.19903,433.93903 510.64422,442 507.28285,442 c -0.78469,0 -3.30684,1.08529 -5.60478,2.41176 -4.24239,2.4489 -22.43195,6.58824 -28.95075,6.58824 -4.04813,0 -5.24464,1.17899 -6.08918,6 -6.16187,35.17491 -6.09471,35 -13.43869,35 -2.7355,0 -5.72237,-0.67797 -7.03384,-1.59656 z M 331.66667,331.33333 c -1.73834,-1.73834 -0.33742,-4.51609 3.49907,-6.93796 4.37065,-2.75907 12.6211,-5.94186 13.3954,-5.16756 0.24901,0.24901 0.16238,1.9046 -0.19252,3.67908 -0.55171,2.75858 -1.54539,3.65163 -6.85379,6.15973 -6.24655,2.95135 -8.61776,3.49712 -9.84816,2.26671 z"
       style="fill:#45473a" />
    <path
       id="path9168"
       d="m 412.5825,490.12882 c -1.60463,-0.34585 -3.09525,-1.1632 -3.3125,-1.81632 -0.60703,-1.82494 3.43596,-5.3125 6.15857,-5.3125 3.37629,0 5.57143,-2.54068 5.57143,-6.44844 0,-1.81807 1.37446,-7.74843 3.05435,-13.17857 1.67989,-5.43015 2.86391,-10.90317 2.63116,-12.16228 -0.38709,-2.09403 -0.0719,-2.28185 3.69565,-2.2021 5.44027,0.11516 13.69459,-1.26584 27.11884,-4.53714 8.98781,-2.19021 11.46524,-3.20375 13.54334,-5.54069 1.39883,-1.57307 4.13466,-3.52503 6.0796,-4.33768 1.94495,-0.81265 4.0783,-2.13065 4.74077,-2.92888 0.66248,-0.79824 3.61844,-2.9594 6.5688,-4.80259 2.95037,-1.84318 6.42123,-4.92858 7.71302,-6.85644 1.29179,-1.92785 4.11095,-5.41795 6.26481,-7.75576 2.41639,-2.62278 4.04788,-5.45431 4.26021,-7.39382 0.32836,-2.99946 3.58561,-9.3571 5.14124,-10.0349 0.90391,-0.39383 4.96046,-20.97651 5.84564,-29.66036 0.39731,-3.8977 1.16552,-6.53891 1.9944,-6.85698 1.81185,-0.69528 1.71438,-3.22561 -0.15183,-3.94174 -0.825,-0.31659 -1.5,-1.26797 -1.5,-2.11419 0,-1.93601 -3.97999,-19.06167 -5.05408,-21.74744 -0.43992,-1.1 -1.04667,-4.025 -1.34835,-6.5 -1.1041,-9.05809 -1.62506,-11.37564 -2.90468,-12.92178 -1.8344,-2.21647 -3.69289,-6.8107 -3.69289,-9.1289 0,-1.07611 -0.9,-3.63577 -2,-5.68814 -1.1,-2.05236 -2,-4.68738 -2,-5.8556 0,-1.16822 -1.28273,-4.54989 -2.8505,-7.51481 -1.56778,-2.96492 -3.17748,-6.74077 -3.57712,-8.39077 -0.39963,-1.65 -1.30367,-4.35 -2.00896,-6 -3.16687,-7.40872 -3.53993,-8.7454 -3.01951,-10.81892 0.30428,-1.21237 -0.0893,-3.77408 -0.87457,-5.69269 -0.7853,-1.91862 -1.75269,-6.18839 -2.14975,-9.48839 -0.39706,-3.3 -1.1064,-6.72053 -1.5763,-7.60118 -0.4699,-0.88065 -1.10612,-8.49267 -1.41382,-16.9156 -0.3077,-8.42293 -0.94756,-15.8024 -1.42191,-16.39882 -0.47435,-0.59642 -1.1827,-6.18034 -1.57411,-12.40871 -0.49909,-7.94176 -1.31587,-12.69024 -2.73447,-15.89723 -1.35386,-3.06061 -1.85658,-5.81233 -1.52015,-8.32065 0.31383,-2.33975 0.015,-4.2568 -0.79534,-5.10277 -0.71391,-0.74527 -2.0235,-3.53404 -2.9102,-6.19725 -1.75371,-5.26733 -5.45566,-10.89129 -9.45472,-14.36354 -1.39723,-1.21316 -2.28743,-2.45872 -1.97824,-2.76791 1.18708,-1.18708 15.10011,4.44855 18.84784,7.63454 2.16033,1.83651 5.94391,4.91412 8.40795,6.83912 2.46404,1.925 4.97487,4.90809 5.57962,6.62908 0.60475,1.721 1.91129,3.86369 2.90341,4.76155 0.99212,0.89786 2.60686,4.21477 3.5883,7.37092 0.98145,3.15615 2.9123,9.03898 4.29078,13.07297 3.04035,8.89726 5.22363,19.91408 5.28448,26.66548 0.0248,2.75 0.69355,6.8 1.48613,9 0.79257,2.2 1.44782,5.46861 1.4561,7.26357 0.008,1.79496 0.42533,4.04496 0.92677,5 0.50144,0.95504 1.44361,4.43643 2.09371,7.73643 1.47244,7.47437 12.61876,32.77166 16.52299,37.5 0.68121,0.825 2.25285,3.525 3.49253,6 1.23967,2.475 3.09211,5.57319 4.11651,6.88486 1.0244,1.31167 1.86255,3.05226 1.86255,3.86798 0,0.81572 1.29931,2.96296 2.88735,4.77165 1.58805,1.80868 3.90005,6.36809 5.13779,10.13201 1.23774,3.76393 3.12191,8.57871 4.18705,10.69952 4.17007,8.30301 6.51882,28.13981 6.03887,51.00225 -0.22816,10.86866 -0.53643,12.57946 -3.69381,20.5 -1.89468,4.75295 -3.93836,10.55744 -4.54152,12.89886 -0.61374,2.38248 -2.51855,5.68515 -4.32562,7.5 -1.77593,1.78358 -4.53652,4.96367 -6.13466,7.06686 -3.39634,4.46969 -19.9211,18.66159 -21.7823,18.70722 -0.70023,0.0172 -3.07315,1.13986 -5.27315,2.49488 -2.2,1.35501 -4.9,2.47139 -6,2.48083 -1.1,0.009 -4.025,1.19204 -6.5,2.628 -4.41698,2.56266 -18.20437,6.01417 -28.93242,7.24289 -6.35467,0.72782 -5.9218,-0.15353 -9.14622,18.62219 -1.13344,6.6 -2.74059,14.1375 -3.57145,16.75 l -1.51064,4.75 -5.84821,0 C 447.42325,491 444,489.47144 444,486.98528 c 0,-1.38406 4.10098,-3.88376 5.49441,-3.34905 3.32123,1.27447 6.57825,-8.01752 9.06752,-25.86881 0.62059,-4.45047 0.50403,-4.79184 -1.95556,-5.72698 -3.53789,-1.3451 -17.76868,-2.4675 -21.0006,-1.65634 -2.06239,0.51762 -2.60577,1.26204 -2.60577,3.56985 0,1.60372 -0.48058,4.17988 -1.06796,5.72481 -0.58738,1.54492 -1.95466,7.53672 -3.03839,13.3151 -2.84211,15.15394 -2.7575,14.86594 -4.65546,15.84565 -2.6314,1.35831 -8.38347,1.99458 -11.65569,1.28931 z m -80.88299,-160.4695 c -0.82352,-2.14606 0.5063,-3.40998 6.33183,-6.01811 8.41681,-3.76826 10.40377,-4.21746 9.61993,-2.17482 C 347.29307,322.39984 347,323.73788 347,324.43982 347,326.05223 337.58345,331 334.5147,331 c -1.2654,0 -2.53223,-0.60331 -2.81519,-1.34068 z"
       style="fill:#403e38" />
    <path
       id="path9166"
       d="m 412.5825,490.12882 c -1.60463,-0.34585 -3.09525,-1.1632 -3.3125,-1.81632 C 408.66297,486.48756 412.70596,483 415.42857,483 418.6536,483 421,480.5032 421,477.07145 c 0,-1.53213 1.38838,-7.62891 3.0853,-13.5484 1.69691,-5.91949 2.85912,-11.62759 2.58269,-12.68467 -0.43888,-1.67827 0.0258,-1.9106 3.6647,-1.83228 5.48486,0.11806 13.70444,-1.25391 27.16731,-4.53463 8.78301,-2.1403 11.50386,-3.23576 13.5,-5.43529 2.18611,-2.40887 5.99926,-5.03618 7.30926,-5.03618 0.24241,0 0.71074,1.35 1.04074,3 0.37255,1.86274 1.21867,3 2.23199,3 1.04399,0 1.4234,-0.54357 1.05305,-1.50868 -0.31841,-0.82978 -0.1527,-2.62978 0.36826,-4 1.03131,-2.71255 0.21876,-3.20739 -2.03832,-1.24132 -0.78926,0.6875 -0.38481,0.0487 0.89878,-1.41959 1.28359,-1.46828 3.63934,-3.21038 5.23502,-3.87132 1.59567,-0.66095 2.90122,-1.64889 2.90122,-2.19542 0,-0.54653 1.0125,-0.33033 2.25,0.48044 1.69856,1.11284 2.67623,1.20523 3.98913,0.37698 1.39999,-0.8832 2.04481,-0.66072 3.3067,1.14088 1.82729,2.60882 3.69745,2.85475 5.46974,0.71927 1.03275,-1.24439 0.92656,-1.8877 -0.58779,-3.56105 -1.58306,-1.74925 -1.63873,-2.17482 -0.38802,-2.96593 1.98207,-1.2537 2.96024,-1.18352 2.96024,0.21241 0,0.64166 0.28913,0.87754 0.6425,0.52416 0.35338,-0.35337 0.19105,-1.21587 -0.36073,-1.91666 -0.55178,-0.7008 -1.0522,-2.96167 -1.11205,-5.02417 -0.1322,-4.55569 1.98688,-5.04261 5.27779,-1.21273 2.0107,2.33999 2.38617,2.43041 4.82927,1.16292 2.01345,-1.0446 2.37003,-1.65338 1.48614,-2.53727 C 517.12331,412.52331 516.015,412 515.3,412 c -0.715,0 -1.3,-0.39825 -1.3,-0.88499 0,-0.97797 4.92518,-4.47419 5.125,-3.63806 0.0688,0.28768 0.1972,0.86055 0.28544,1.27305 0.0882,0.4125 0.72956,1.7751 1.42517,3.02801 1.44872,2.60939 3.5857,1.94107 2.84539,-0.88987 -0.47758,-1.82625 0.76446,-3.30741 2.819,-3.36171 1.47916,-0.0391 1.72912,-1.20678 0.98426,-4.59808 -0.54145,-2.46523 -0.19959,-3.45238 1.81241,-5.23335 1.36386,-1.20725 2.78538,-3.2075 3.15893,-4.445 0.37354,-1.2375 1.1686,-2.25 1.76678,-2.25 0.59818,0 0.34285,-0.82293 -0.56739,-1.82874 C 531.82968,387.15432 531.43016,384 533,384 c 0.55,0 1,-0.63287 1,-1.40638 0,-0.91405 -0.70014,-1.22329 -2,-0.88337 -1.59255,0.41646 -2,0.0307 -2,-1.89362 0,-1.32915 -0.50079,-2.91742 -1.11287,-3.5295 C 527.41907,374.81907 528.62098,373 531.05902,373 532.12656,373 533,372.325 533,371.5 c 0,-0.825 0.825,-1.5 1.83333,-1.5 2.82939,0 3.35676,1.17855 1.20256,2.68741 -2.31424,1.62096 -1.42691,5.49116 1.35251,5.89909 2.01688,0.29601 5.63754,-6.27501 4.07499,-7.3956 -0.52986,-0.37999 -1.73071,-2.0409 -2.66856,-3.6909 -0.95512,-1.68042 -2.38467,-2.87075 -3.25,-2.70616 -0.8529,0.16222 -1.54483,-0.39765 -1.54483,-1.25 0,-1.00413 0.92816,-1.54384 2.65499,-1.54384 2.50876,0 2.56384,-0.10072 1,-1.82874 -2.08307,-2.30176 -2.11154,-4.85757 -0.0768,-6.89231 1.22602,-1.22603 1.517,-1.26588 1.30395,-0.17858 -0.15084,0.7698 0.0692,2.41179 0.48895,3.64888 0.60846,1.79321 1.12843,2.05378 2.56457,1.28518 0.99075,-0.53023 1.99007,-0.77536 2.2207,-0.54472 0.23064,0.23063 1.00634,-0.5206 1.72378,-1.66941 1.21517,-1.9458 1.12533,-2.0545 -1.31274,-1.58844 -2.20202,0.42095 -2.52299,0.20355 -2.02341,-1.37048 0.58601,-1.84637 -2.74473,-7.22662 -4.63457,-7.48638 -2.24546,-0.30864 -2.26225,-0.5608 -0.0952,-1.42993 2.90582,-1.16541 2.15024,-2.50217 -1.86862,-3.30595 l -3.096,-0.6192 2.07519,-2.91433 c 2.5763,-3.61808 2.57301,-3.78279 -0.0736,-3.68499 -2.89137,0.10684 -3.4011,-1.87071 -1.08038,-4.19143 1.04271,-1.04271 1.97143,-2.53334 2.06383,-3.3125 0.0924,-0.77917 0.44079,-3.09691 0.77419,-5.15054 0.53854,-3.31712 0.33038,-3.83873 -1.86494,-4.6734 -3.07753,-1.17007 -4.07257,-3.34044 -4.16871,-9.09273 -0.0593,-3.5465 -0.43787,-4.50246 -1.78681,-4.51161 -0.94138,-0.006 -2.26888,-0.56888 -2.95,-1.25 -0.9845,-0.98452 -0.89631,-1.23839 0.43025,-1.23839 0.95668,0 1.45616,-0.55363 1.17068,-1.29759 -0.62544,-1.62986 -6.34381,-2.06941 -9.80455,-0.75364 -1.43872,0.547 -2.5245,0.6698 -2.41285,0.27289 0.11165,-0.39691 -0.29467,-1.62166 -0.90295,-2.72166 -0.83566,-1.51122 -0.79143,-2.2908 0.181,-3.18989 0.70781,-0.65444 1.55989,-0.91694 1.89349,-0.58333 0.33361,0.3336 0.60656,0.0815 0.60656,-0.56011 0,-1.94083 2.85398,-1.30804 4.03252,0.8941 1.34467,2.51253 2.98539,2.12312 4.13371,-0.98109 0.77972,-2.1078 0.62147,-2.27225 -1.75034,-1.81885 -2.40479,0.4597 -2.57364,0.26734 -2.17132,-2.47381 0.27822,-1.89565 -0.0493,-3.15859 -0.90417,-3.48664 -1.69082,-0.64883 -1.75548,-3.96622 -0.0904,-4.6381 0.96849,-0.39079 0.95774,-0.52216 -0.0477,-0.58333 -1.33736,-0.0814 -6.20225,4.61214 -6.20225,5.98374 0,0.42385 0.43558,0.92064 0.96795,1.10398 0.53238,0.18333 0.6089,0.91107 0.17005,1.6172 -0.43884,0.70613 -1.43692,1.03658 -2.21795,0.73434 C 511.09296,286.81117 508,281.4053 508,278.91896 508,277.73774 507.30799,277 506.2,277 c -2.10574,0 -4.2,-1.84494 -4.2,-3.7 0,-1.93503 4.74611,-1.57258 5.89255,0.45 0.93025,1.64116 1.08281,1.62698 2.45304,-0.22806 1.32848,-1.79852 1.19757,-2.27823 -1.44224,-5.2848 -3.00594,-3.42357 -3.83432,-6.42333 -1.65335,-5.98714 0.6875,0.1375 1.205,-0.3125 1.15,-1 -0.055,-0.6875 -0.1675,-2.36088 -0.25,-3.71862 -0.10501,-1.7282 -0.59041,-2.29961 -1.61838,-1.90514 -0.80761,0.30991 -1.42932,0.85829 -1.38158,1.21862 0.2971,2.24238 -0.672,2.77052 -5.0837,2.77052 -4.11048,0 -5.02188,-0.33735 -5.4624,-2.02191 -0.49368,-1.88783 1.06902,-3.91363 2.38945,-3.09756 0.32388,0.20018 0.57135,-0.95452 0.54992,-2.56598 -0.0214,-1.61146 -0.32495,-2.92993 -0.6745,-2.92993 -0.34955,0 -0.8621,-0.86633 -1.13899,-1.92518 -0.38034,-1.45442 -0.1032,-1.78325 1.13336,-1.34477 0.90025,0.31923 2.194,1.01124 2.87499,1.53781 0.84723,0.6551 1.42775,0.46334 1.83861,-0.60735 0.75082,-1.9566 -0.24336,-3.66051 -2.1358,-3.66051 -1.83143,0 -1.85195,-1.41403 -0.0423,-2.9159 1.11016,-0.92134 1.16807,-1.7717 0.28077,-4.12244 -1.39515,-3.69616 -2.44959,-3.76382 -3.29864,-0.21166 -0.90891,3.80264 -1.24578,4.23904 -2.80918,3.63911 C 491.68246,238.66417 490.91381,233 492.70458,233 c 0.747,0 1.61721,-0.675 1.93379,-1.5 0.31659,-0.825 1.22902,-1.5 2.02764,-1.5 0.79861,0 1.20038,-0.40717 0.89282,-0.90482 -0.30757,-0.49765 -2.30288,-0.67094 -4.43402,-0.38509 -3.6176,0.48522 -3.87481,0.35141 -3.87481,-2.01584 0,-1.5664 0.46035,-2.35889 1.2044,-2.07337 0.67619,0.25947 1.9983,-1.29838 3.01459,-3.5521 0.9956,-2.20785 2.25575,-3.7389 2.80033,-3.40233 0.54458,0.33657 0.78176,-0.0132 0.52708,-0.77725 -0.25469,-0.76406 -1.77557,-1.3892 -3.37973,-1.3892 -2.22199,0 -2.9896,0.51162 -3.22286,2.14806 -0.43427,3.04659 -3.77049,3.65154 -5.49464,0.99634 -1.49801,-2.30693 -2.03447,-11.31914 -0.72207,-12.13024 1.02096,-0.63099 3.51654,2.32553 2.67408,3.168 -0.34861,0.3486 -0.0752,1.32198 0.6075,2.16306 1.04457,1.28685 0.95571,1.42213 -0.56062,0.85347 -1.0082,-0.37811 -1.55163,-0.27077 -1.23369,0.24367 0.31254,0.50569 0.11091,1.2021 -0.44806,1.54756 -1.58565,0.97998 -1.19352,2.35912 0.59608,2.09646 0.88681,-0.13015 2.08585,-1.10283 2.66453,-2.16151 0.57869,-1.05868 1.46136,-2.19698 1.96151,-2.52955 0.50014,-0.33258 0.23003,-1.28401 -0.60026,-2.11429 C 487.90449,208.04734 489.22854,206 492.08342,206 c 1.80295,0 3.28829,-4.65224 1.78247,-5.58288 -0.47624,-0.29434 -0.86589,-0.0586 -0.86589,0.52386 0,0.58246 -0.3375,0.96986 -0.75,0.86089 -0.4125,-0.10896 -1.7455,0.14097 -2.96223,0.5554 -1.31665,0.44848 -3.13838,0.24027 -4.5,-0.51432 -1.25827,-0.69732 -2.62527,-1.17225 -3.03777,-1.0554 C 481.3375,200.9044 481,199.2 481,197 c 0,-3.85561 0.58038,-4.48624 3.75,-4.07465 0.6875,0.0893 1.25,-0.31598 1.25,-0.90057 0,-0.62147 0.99294,-0.81367 2.39091,-0.4628 1.31499,0.33004 2.66113,0.16283 2.99141,-0.37157 0.75923,-1.22846 -4.29785,-4.61553 -6.63432,-4.44344 -1.43221,0.10548 -1.56269,-0.22471 -0.71482,-1.80897 0.57045,-1.0659 1.47135,-1.938 2.002,-1.938 0.53065,0 0.96482,-0.3876 0.96482,-0.86133 0,-0.47373 -1.17435,-0.63684 -2.60966,-0.36246 -2.47258,0.47267 -2.57314,0.33255 -1.91427,-2.66725 0.38247,-1.74136 0.31931,-3.09997 -0.14034,-3.01912 -2.41998,0.42566 -3.57319,-0.41392 -4.88676,-3.55772 -1.61348,-3.86162 -1.9335,-7.94961 -0.55564,-7.09805 1.09064,0.67406 2.41822,-4.12096 1.53611,-5.54823 -0.34746,-0.5622 -1.2611,-0.78068 -2.03033,-0.4855 -1.42669,0.54747 -3.93123,-4.09298 -4.57818,-8.48256 -0.32643,-2.2148 -3.01216,-5.83664 -8.20818,-11.06911 -1.58798,-1.59913 -2.66742,-3.12733 -2.39875,-3.39601 1.12903,-1.12903 15.15084,4.62798 18.77417,7.70822 2.16033,1.83651 5.94391,4.91412 8.40795,6.83912 2.46404,1.925 4.97487,4.90809 5.57962,6.62908 0.60475,1.721 1.91129,3.86369 2.90341,4.76155 0.99212,0.89786 2.60686,4.21477 3.5883,7.37092 0.98145,3.15615 2.9123,9.03898 4.29078,13.07297 3.04035,8.89726 5.22363,19.91408 5.28448,26.66548 0.0248,2.75 0.69355,6.8 1.48613,9 0.79257,2.2 1.44782,5.46861 1.4561,7.26357 0.008,1.79496 0.42533,4.04496 0.92677,5 0.50144,0.95504 1.44361,4.43643 2.09371,7.73643 1.47244,7.47437 12.61876,32.77166 16.52299,37.5 0.68121,0.825 2.25285,3.525 3.49253,6 1.23967,2.475 3.09211,5.57319 4.11651,6.88486 1.0244,1.31167 1.86255,3.05226 1.86255,3.86798 0,0.81572 1.29931,2.96296 2.88735,4.77165 1.58805,1.80868 3.90005,6.36809 5.13779,10.13201 1.23774,3.76393 3.12191,8.57871 4.18705,10.69952 4.17007,8.30301 6.51882,28.13981 6.03887,51.00225 -0.22816,10.86866 -0.53643,12.57946 -3.69381,20.5 -1.89468,4.75295 -3.93836,10.55744 -4.54152,12.89886 -0.61374,2.38248 -2.51855,5.68515 -4.32562,7.5 -1.77593,1.78358 -4.53652,4.96367 -6.13466,7.06686 -3.39634,4.46969 -19.9211,18.66159 -21.7823,18.70722 -0.70023,0.0172 -3.07315,1.13986 -5.27315,2.49488 -2.2,1.35501 -4.9,2.47139 -6,2.48083 -1.1,0.009 -4.025,1.19204 -6.5,2.628 -4.75404,2.75822 -19.6047,6.36431 -29.25,7.1026 -3.1625,0.24207 -5.7875,0.73765 -5.83333,1.1013 -1.05504,8.37081 -5.21065,30.1471 -6.56676,34.41118 l -1.51064,4.75 -5.84821,0 C 447.42325,491 444,489.47144 444,486.98528 c 0,-1.38406 4.10098,-3.88376 5.49441,-3.34905 2.35287,0.90288 5.19679,-4.45718 6.80935,-12.8339 2.54138,-13.20167 2.98368,-17.50665 1.8694,-18.19531 -1.99998,-1.23606 -11.75908,-2.79599 -16.67316,-2.6651 -7.31859,0.19493 -8.5,0.75928 -8.5,4.06037 0,1.57713 -0.48058,4.13154 -1.06796,5.67647 -0.58738,1.54492 -1.95466,7.53672 -3.03839,13.3151 -2.84211,15.15394 -2.7575,14.86594 -4.65546,15.84565 -2.6314,1.35831 -8.38347,1.99458 -11.65569,1.28931 z M 514.22251,331.4433 c -2.80608,-1.96546 -2.87006,-5.103 -0.12185,-5.97525 1.52853,-0.48513 1.80089,-0.9665 1,-1.76739 C 514.4953,323.0953 514,321.34 514,319.8 c 0,-3.52086 2.15725,-3.67429 6.40561,-0.45558 1.70191,1.28943 3.76939,2.60391 4.59439,2.92105 0.825,0.31715 -0.19864,0.61216 -2.27475,0.65558 -3.00105,0.0628 -3.95748,0.55956 -4.66625,2.42377 -0.49033,1.28965 -1.63633,3.08965 -2.54668,4 -1.46918,1.46918 -1.47859,1.65518 -0.0838,1.65518 0.86429,0 1.57143,0.45 1.57143,1 0,1.3096 -0.15826,1.27788 -2.77749,-0.5567 z m -182.523,-1.78398 c -0.28296,-0.73738 -0.2186,-1.80193 0.14301,-2.36567 0.77283,-1.20481 9.15748,-5.589 9.15748,-4.78829 0,0.3003 1.39182,-0.17374 3.09293,-1.05342 3.68294,-1.90452 4.06629,-1.68397 3.124,1.79733 -1.27738,4.71934 -14.12901,10.02818 -15.51742,6.41005 z"
       style="fill:#3e4136" />
    <path
       id="path9164"
       d="m 446.58239,489.6839 c -2.84672,-2.08157 -1.62993,-5.12947 2.19521,-5.49871 2.01097,-0.19412 3.80545,-1.15254 4.68082,-2.5 1.19696,-1.8425 3.42471,-11.42066 5.89558,-25.34797 0.69263,-3.90411 -0.42106,-4.87756 -6.604,-5.77235 -2.6125,-0.37808 -4.75,-1.10984 -4.75,-1.62614 0,-0.5163 0.3375,-0.84313 0.75,-0.72628 0.4125,0.11685 1.7718,-0.35396 3.02067,-1.04624 1.24886,-0.69229 2.67682,-1.00768 3.17323,-0.70088 0.49641,0.30679 2.48117,-0.37359 4.41058,-1.51197 2.6333,-1.55369 4.39285,-1.90379 7.0566,-1.40406 4.14185,0.77701 5.05744,0.72406 5.17529,-0.2993 0.0475,-0.4125 0.385,-1.5375 0.75,-2.5 0.36499,-0.9625 0.87451,-2.425 1.13225,-3.25 0.25773,-0.825 1.33459,-1.5 2.39301,-1.5 1.9927,0 3.56829,2.49536 2.5826,4.09024 -0.67077,1.08532 1.57398,1.18641 3.20773,0.14445 0.63357,-0.40408 1.46606,-2.83147 1.84997,-5.3942 0.53519,-3.57259 1.18937,-4.78801 2.80437,-5.21034 2.65571,-0.69448 3.3093,-0.0768 1.81895,1.71894 -1.6277,1.96125 -0.32535,4.65698 2.23174,4.61949 1.17865,-0.0173 2.95457,-1.14633 3.94647,-2.50899 1.91212,-2.62682 1.41442,-4.94904 -0.87259,-4.07144 -0.75175,0.28848 -1.63279,0.0942 -1.95786,-0.43182 -0.32508,-0.52598 0.24551,-0.95633 1.26797,-0.95633 1.02246,0 2.38734,-0.52832 3.03306,-1.17404 0.89871,-0.89871 1.76402,-0.53743 3.68988,1.5406 2.0422,2.20358 2.87885,2.52036 4.4441,1.68267 1.06054,-0.56759 3.31509,-0.75461 5.01012,-0.4156 2.431,0.4862 3.08186,0.27318 3.08186,-1.00863 0,-0.89375 -0.43912,-1.625 -0.97583,-1.625 -0.53671,0 -2.35824,-0.84069 -4.04785,-1.8682 l -3.07201,-1.86821 6.2575,-0.14145 c 6.43844,-0.14554 8.60699,-1.06918 7.33654,-3.12481 -0.68435,-1.1073 -5.33105,-0.76623 -9.06093,0.66506 -2.00688,0.77011 -2.71421,-1.80418 -1.42641,-5.19136 l 1.09265,-2.87387 2.3263,2.91746 c 2.12338,2.66297 2.55911,2.81139 4.99522,1.70142 1.46791,-0.66882 4.009,-1.21604 5.64687,-1.21604 2.50883,0 3.07247,-0.47259 3.57795,-3 0.45101,-2.25506 1.15269,-3 2.82578,-3 3.68579,0 8.79271,-2.13151 7.70734,-3.21688 -0.62454,-0.62454 -1.69335,-0.58042 -3.01002,0.12424 -2.79415,1.49538 -3.33439,1.38017 -3.08227,-0.65736 0.1191,-0.9625 -0.13455,-2.5604 -0.56366,-3.55088 -0.52893,-1.2209 -0.13933,-2.50912 1.20975,-4 1.09447,-1.20952 2.44781,-3.05992 3.00742,-4.11201 0.97945,-1.84139 1.04315,-1.83205 1.70396,0.25 0.40407,1.27309 1.51422,2.16289 2.69854,2.16289 1.73611,0 1.91731,-0.43145 1.32114,-3.14578 -0.62591,-2.84974 -0.49222,-3.09382 1.42055,-2.59362 1.84345,0.48207 2.11147,0.11978 2.11147,-2.85422 0,-3.49738 -1.33696,-4.57662 -2.36163,-1.90638 -0.31658,0.825 -1.48008,1.5 -2.58555,1.5 -1.78103,0 -1.88021,-0.28473 -0.87087,-2.5 0.6265,-1.375 1.94029,-2.5 2.91955,-2.5 2.38599,0 3.3425,-1.76009 1.90065,-3.49741 -0.91039,-1.09696 -0.76307,-2.1023 0.66391,-4.53045 1.74313,-2.96611 1.74729,-3.18432 0.0839,-4.40663 -0.9625,-0.7073 -1.75,-2.22233 -1.75,-3.36674 0,-1.1444 -0.45,-2.35885 -1,-2.69877 -1.54783,-0.95661 -1.18405,-2.49807 0.75,-3.17798 5.03103,-1.76864 10.27,-10.41531 5.3679,-8.85944 -1.47351,0.46767 -1.99142,-0.006 -2.38565,-2.18261 -0.75677,-4.17788 -3.07491,-9.67899 -4.45083,-10.56208 -0.74106,-0.47562 -0.9932,-1.90899 -0.64344,-3.65778 0.45041,-2.25208 0.11832,-3.12017 -1.53142,-4.00308 -3.13395,-1.67724 -2.54926,-3.23309 1.14344,-3.04268 3.74837,0.19329 7.75,-0.8734 7.75,-2.06588 0,-0.45005 -0.46377,-2.03807 -1.0306,-3.52894 l -1.03059,-2.71067 -2.28386,2.14557 c -3.18029,2.98773 -3.97919,2.68743 -3.24611,-1.22019 0.77049,-4.10705 -0.17587,-6.93762 -2.07574,-6.20857 -1.92544,0.73886 -2.91216,-2.2688 -1.49092,-4.54457 1.60364,-2.56783 1.57448,-4.69776 -0.0422,-3.0811 -2.04499,2.04499 -2.98762,1.33071 -2.31077,-1.75098 0.48948,-2.22855 0.17207,-3.3586 -1.29657,-4.61608 -1.14018,-0.97626 -1.74221,-2.43946 -1.45523,-3.53688 0.30446,-1.16426 -0.15255,-2.11813 -1.20907,-2.52355 -1.32862,-0.50984 -1.55995,-1.3906 -1.06215,-4.04408 0.60212,-3.20956 0.50485,-3.35927 -1.80581,-2.77933 -2.81638,0.70686 -4.36857,-0.99088 -2.72097,-2.97612 0.84193,-1.01446 0.72219,-1.48885 -0.49354,-1.95537 -1.20532,-0.46253 -1.44099,-1.36345 -0.94607,-3.61678 0.55853,-2.54296 0.35813,-3.00083 -1.31338,-3.00083 -1.08485,0 -2.23148,0.675 -2.54807,1.5 -0.31658,0.825 -1.03972,1.5 -1.60699,1.5 -1.60958,0 -1.21018,-3.71741 0.46862,-4.36163 1.92598,-0.73907 1.95131,-2.63837 0.0352,-2.63837 -0.80565,0 -1.94648,-0.9 -2.53518,-2 -0.5887,-1.1 -1.69921,-2 -2.4678,-2 -1.86844,0 -2.88206,-3.47776 -1.67239,-5.73805 0.62679,-1.17116 0.62724,-2.42716 10e-4,-3.54569 -0.53314,-0.95266 -0.69342,-2.17854 -0.3562,-2.72418 0.33723,-0.54564 0.33428,-1.4433 -0.007,-1.99478 -0.88102,-1.42552 -4.49833,0.67427 -4.49833,2.61121 0,0.92606 -0.69573,1.40415 -1.74835,1.20144 -1.13791,-0.21914 -2.05175,-1.77497 -2.61733,-4.456 -0.76066,-3.60582 -0.58503,-4.40324 1.40903,-6.3973 l 2.27801,-2.27801 -2.23696,-1.81138 c -1.44153,-1.16728 -1.94325,-2.26581 -1.41097,-3.08932 1.08992,-1.68625 1.18534,-8.77794 0.11812,-8.77794 -0.45815,0 -0.67537,-2.7 -0.4827,-6 0.36058,-6.1759 -0.9354,-8.55902 -1.49549,-2.75 -0.43094,4.46949 -3.20296,4.4019 -3.63333,-0.0886 -0.22212,-2.31768 0.22502,-3.7371 1.46226,-4.64178 1.50975,-1.10396 1.57817,-1.54906 0.44752,-2.91141 C 495.35572,214.7237 494.06547,214 493.22257,214 c -1.35764,0 -1.36336,-0.19973 -0.0501,-1.75 0.84203,-0.99401 1.55923,-4.06893 1.66021,-7.118 0.16979,-5.12703 0.0765,-5.33917 -2.07745,-4.72592 -5.60575,1.59598 -7.36193,1.63835 -9.25522,0.22333 -1.60315,-1.19817 -1.75197,-1.74624 -0.75,-2.76209 0.97222,-0.98569 1.51667,-1.00065 2.45,-0.0673 2.14329,2.14329 3.03663,1.27486 2.36598,-2.3 -0.60738,-3.23758 -0.47019,-3.5 1.82969,-3.5 3.34917,0 3.97152,-1.35772 1.60433,-3.5 -1.07406,-0.97201 -1.6683,-2.22769 -1.32053,-2.7904 C 490.75776,183.9649 491.1117,176 490.11094,176 487.80395,176 486,177.3634 486,179.10699 486,180.14814 485.325,181 484.5,181 c -2.08357,0 -1.87423,-1.57481 0.66608,-5.01077 l 2.16609,-2.92979 -2.65044,-2.65044 c -1.75056,-1.75056 -3.33319,-2.4719 -4.66133,-2.12459 -2.06285,0.53945 -2.09988,-0.0634 -0.39474,-6.42518 0.29684,-1.10749 -0.48281,-1.96238 -2.39879,-2.6303 -2.10233,-0.73287 -3.14829,-2.0233 -4.03272,-4.97525 C 472.53737,152.06154 472,149.55503 472,148.68367 c 0,-0.87136 -0.59524,-1.94415 -1.32275,-2.38398 -0.72751,-0.43983 -3.08314,-2.77114 -5.23472,-5.1807 l -3.91197,-4.38101 3.48472,0.76184 c 1.9166,0.41902 5.95972,1.94047 8.98472,3.38101 4.21652,2.00796 5.484,3.12066 5.43145,4.76816 -0.042,1.31737 0.41146,1.96478 1.17186,1.67299 0.68223,-0.26179 2.28807,0.0658 3.56855,0.7279 2.94424,1.52249 9.82814,8.51149 9.82814,9.9782 0,0.60795 1.05714,2.53784 2.34919,4.28864 2.70864,3.67035 5.65081,10.81094 5.65081,13.71441 0,1.09487 0.85502,3.89826 1.90005,6.22977 3.03863,6.77933 3.82277,9.86717 5.03871,19.84167 0.63007,5.16859 1.60824,11.64743 2.17372,14.39743 0.56547,2.75 1.0107,6.28732 0.98939,7.86071 -0.0213,1.57339 0.54342,4.04839 1.25493,5.5 0.71151,1.45161 1.87755,5.78929 2.5912,9.63929 0.73384,3.95891 2.95894,10.25831 5.12175,14.5 2.10331,4.125 4.12291,8.74175 4.488,10.25945 0.3651,1.5177 1.05115,2.99883 1.52456,3.29142 0.47341,0.29258 1.78539,2.42583 2.91551,4.74055 1.13013,2.31472 3.82333,7.13358 5.9849,10.70858 2.16157,3.575 4.49247,7.625 5.17978,9 0.68731,1.375 2.44205,4.075 3.89944,6 1.45738,1.925 3.67665,6.65 4.93171,10.5 1.25505,3.85 3.13078,8.69088 4.16829,10.7575 3.55606,7.08341 6.17271,28.30077 5.98825,48.55639 -0.10542,11.57674 -0.31942,12.83386 -3.57497,21 -1.90456,4.77736 -3.96098,10.61909 -4.56983,12.98162 -0.68488,2.65759 -2.89883,6.3072 -5.80619,9.5713 -2.58456,2.90169 -5.5992,6.43623 -6.6992,7.85454 -2.28613,2.94766 -18.90176,16.7765 -20.16492,16.78284 -0.45929,0.002 -3.04885,1.1273 -5.75456,2.5 -2.70571,1.37269 -5.59118,2.49581 -6.41214,2.49581 -0.82097,0 -3.45051,1.14737 -5.84343,2.54972 -4.83755,2.83499 -22.42035,6.84467 -28.9521,6.60239 -4.86542,-0.18047 -5.8588,0.81701 -6.81981,6.84789 -3.41636,21.43959 -4.50241,26.94307 -6.04596,30.63731 -1.32155,3.1629 -1.69377,3.36269 -6.26492,3.36269 -2.67295,0 -5.66984,-0.59224 -6.65977,-1.3161 z m -36.24656,-1.25112 c -0.79761,-2.07854 0.95604,-3.69389 5.34786,-4.92611 4.25636,-1.19421 4.73071,-1.98555 6.29801,-10.50667 0.65755,-3.575 1.55657,-6.95 1.99782,-7.5 0.44126,-0.55 1.39903,-4.2625 2.12839,-8.25 1.16529,-6.37081 1.58981,-7.25 3.50069,-7.25 3.11198,0 3.88717,4.13498 1.79984,9.60058 -0.92409,2.41968 -2.07759,4.39942 -2.56335,4.39942 -0.48576,0 -0.61555,1.06637 -0.28844,2.36971 0.94123,3.75014 -2.33953,20.92688 -4.27463,22.38029 -2.51504,1.88899 -13.19279,1.64611 -13.94619,-0.31722 z M 332,329.09978 c 0,-2.27143 5.17743,-5.36846 10.75,-6.43043 2.74732,-0.52355 3.25,-0.3243 3.25,1.28826 0,1.10844 -0.94262,2.19487 -2.25,2.59328 -1.2375,0.37712 -2.925,1.25736 -3.75,1.9561 -0.825,0.69873 -2.9625,1.58126 -4.75,1.96117 -2.83808,0.6032 -3.25,0.42977 -3.25,-1.36838 z"
       style="fill:#36382f" />
  </g>
</svg>
