<?xml version="1.0" encoding="UTF-8" standalone="no"?>
<svg
   xmlns:dc="http://purl.org/dc/elements/1.1/"
   xmlns:cc="http://creativecommons.org/ns#"
   xmlns:rdf="http://www.w3.org/1999/02/22-rdf-syntax-ns#"
   xmlns:svg="http://www.w3.org/2000/svg"
   xmlns="http://www.w3.org/2000/svg"
   viewBox="0 0 800 600"
   height="600"
   width="800"
   version="1.1"
   id="svg4202">
  <metadata
     id="metadata4208">
    <rdf:RDF>
      <cc:Work
         rdf:about="">
        <dc:format>image/svg+xml</dc:format>
        <dc:type
           rdf:resource="http://purl.org/dc/dcmitype/StillImage" />
        <dc:title></dc:title>
      </cc:Work>
    </rdf:RDF>
  </metadata>
  <defs
     id="defs4206" />
  <g
     id="g9828">
    <path
       id="path9858"
       d="m 360.54322,495.20851 c -0.16107,-0.16031 -19.47388,-0.29414 -42.91736,-0.29738 l -42.62449,-0.006 -2.64524,-2.27533 c -2.29409,-1.9733 -2.55347,-2.76448 -1.95395,-5.96019 0.40265,-2.1463 1.61123,-4.28694 2.89455,-5.12686 2.69412,-1.76325 15.59752,-2.03568 87.45327,-1.84637 l 51.25,0.13502 -0.0136,-4.66576 c -0.0229,-7.8238 -0.64685,-8.96901 -4.82544,-8.85663 -10.4363,0.28065 -35.21791,-4.44183 -39.04577,-7.44073 C 366.80347,457.84078 365.30948,457 364.79517,457 c -0.51431,0 -4.30525,-2.04582 -8.42432,-4.54626 l -7.48921,-4.54625 -5.69082,5.21729 c -7.23785,6.63561 -20.99226,13.21355 -30.69082,14.67766 -20.03838,3.02502 -38.45057,-4.94469 -49.21438,-21.30244 -2.53339,-3.85 -4.92126,-7.225 -5.30636,-7.5 -1.21405,-0.86694 -3.61947,-6.32086 -4.93932,-11.19914 -0.80101,-2.96062 -1.04472,-7.21522 -0.65873,-11.5 1.28826,-14.30054 1.35289,-13.63208 -1.38121,-14.28387 -1.98893,-0.47414 -2.5606,-1.30682 -2.79646,-4.07317 -0.5971,-7.00358 2.31487,-10.98763 18.54423,-25.37152 4.47353,-3.96484 10.78926,-8.20634 16.5,-11.08103 5.08873,-2.56157 10.80024,-5.85753 12.69224,-7.32434 1.89201,-1.46681 3.79442,-2.91225 4.22758,-3.21209 1.08771,-0.75292 -1.82298,-18.61259 -4.75033,-29.14744 -1.32849,-4.78093 -3.99085,-12.14961 -5.91635,-16.37484 C 287.57541,301.20732 286,296.99459 286,296.07094 c 0,-0.92366 -1.25556,-3.67998 -2.79014,-6.12516 -1.53457,-2.44518 -3.97801,-6.97892 -5.42986,-10.07499 -1.45185,-3.09606 -4.69629,-7.55677 -7.20986,-9.91268 C 268.05656,267.6022 266,264.91841 266,263.99415 c 0,-0.92427 -2.17823,-4.78856 -4.84051,-8.58732 C 249.49234,238.75919 243,224.52808 243,215.60154 c 0,-6.35225 1.74784,-14.49224 3.48477,-16.22917 0.83338,-0.83338 1.51523,-2.01067 1.51523,-2.61622 0,-0.60555 2.25,-3.68787 5,-6.84962 2.75,-3.16174 5,-6.17435 5,-6.69469 0,-1.44922 8.00958,-6.54023 12.5,-7.9452 12.75021,-3.98928 16.47486,-4.49351 25.39879,-3.43836 4.80942,0.56866 10.51219,1.79012 12.67281,2.71435 7.1479,3.05759 12.89489,5.69296 15.4284,7.07493 1.375,0.75003 5.2,2.74355 8.5,4.43005 9.88681,5.05274 13.68783,7.55182 20.50483,13.48141 3.57234,3.1073 8.10144,6.47715 10.06466,7.48855 1.96321,1.01139 5.49329,3.44619 7.84461,5.41066 2.35132,1.96447 4.60357,3.57177 5.005,3.57177 0.40143,0 3.62135,2.51273 7.15538,5.58385 3.53404,3.07111 8.33819,6.55861 10.67589,7.75 2.3377,1.19138 7.9627,4.06294 12.5,6.38125 4.5373,2.3183 13.64963,6.26368 20.24963,8.76751 15.27352,5.79427 18.33785,7.35819 27.5,14.03496 4.125,3.00602 9.75,6.98297 12.5,8.83766 5.38679,3.63302 19.5,17.74568 19.5,19.49924 0,0.58719 0.97071,1.97197 2.15713,3.07729 4.07842,3.79963 9.86376,12.5823 13.8781,21.06824 2.21155,4.675 4.41653,9.21445 4.89997,10.08766 2.12893,3.8454 8.8991,35.09691 9.44436,43.59574 0.49682,7.74388 0.20605,10.69371 -1.85496,18.81846 -1.34427,5.29928 -3.58724,12.05139 -4.98437,15.00468 -1.39712,2.95328 -2.55975,5.95998 -2.5836,6.68153 -0.0411,1.24187 -2.07153,4.88029 -6.36678,11.40868 -1.05058,1.59679 -3.00613,4.56456 -4.34566,6.59505 -3.34697,5.07338 -12.41717,13.34564 -17.44589,15.9111 -2.29013,1.16834 -7.27033,4.1899 -11.06711,6.7146 l -6.90325,4.59034 0.70012,8.04608 c 0.38506,4.42534 1.09878,8.804 1.58603,9.73034 0.48725,0.92634 0.88591,3.96384 0.88591,6.75 l 0,5.06574 6.75,0.2095 c 7.52819,0.23365 10.00902,0.20574 22.25,-0.25032 7.18679,-0.26776 9.15413,0.0218 12.734,1.87423 4.2213,2.18434 5.83371,4.9802 5.09233,8.82988 -0.73905,3.83757 -4.54731,4.38744 -29.50934,4.26077 -28.23499,-0.14327 -21.64525,-0.13954 -50.81699,-0.0288 -13.2,0.0501 -26.25,0.0804 -29,0.0673 -2.75,-0.0131 -13.02438,0.10246 -22.83196,0.2568 -9.80757,0.15433 -17.96374,0.14944 -18.12482,-0.0109 z m 85.30795,-15.86525 c 2.26011,-0.60506 2.32486,-0.88534 1.67182,-7.23635 -1.10307,-10.72761 -2.50592,-15.3446 -4.40581,-14.5002 -0.88945,0.39531 -4.54218,1.74377 -8.11718,2.99657 l -6.5,2.27783 -0.30908,5.256 c -0.50788,8.6368 -0.0413,9.39006 6.53666,10.55246 7.62973,1.34827 8.36718,1.39161 11.12359,0.65369 z"
       style="fill:#eeedd8" />
    <path
       id="path9856"
       d="m 408.75636,493.9765 c -0.959,-0.58782 -3.659,-1.07726 -6,-1.08764 -2.341,-0.0104 -31.48136,0.0771 -64.75636,0.19435 -33.275,0.11727 -61.48948,-0.10149 -62.69885,-0.48614 -1.20936,-0.38466 -2.46504,-1.53809 -2.79039,-2.56318 -0.85621,-2.69766 0.40217,-6.78115 2.32949,-7.55929 0.91286,-0.36856 26.63475,-0.8997 57.15975,-1.18031 65.74553,-0.60439 59.70365,-0.62337 69,0.21669 4.74815,0.42906 8.54971,0.26981 10.36093,-0.43405 2.73708,-1.06365 2.83284,-1.31665 2.21213,-5.84435 -1.48215,-10.81119 0.0334,-9.68438 -14.85919,-11.04777 C 391.44624,463.51947 382.8,462.2899 379.5,461.45244 373.47496,459.92342 363.79938,455.72058 361,453.41647 358.90036,451.6883 349.91147,447 348.69768,447 c -0.55244,0 -3.41691,2.28162 -6.36549,5.07026 -3.52166,3.33064 -8.70135,6.66431 -15.09662,9.71625 l -9.73557,4.64598 -13,0.0338 -13,0.0338 -7.5,-3.71778 c -8.80109,-4.36273 -14.29957,-9.37989 -20.78786,-18.96815 C 254.69213,431.22338 254.5,430.67616 254.5,419 c 0,-5.775 0.225,-12.0394 0.5,-13.9209 0.46376,-3.17297 0.26447,-3.48305 -2.75,-4.27859 -3.71909,-0.98149 -4.19583,-3.29705 -1.83824,-8.92839 2.37642,-5.67627 22.02379,-23.81603 29.30954,-27.0605 5.65637,-2.51888 17.11238,-9.28179 20.57169,-12.14422 2.46611,-2.04061 2.67092,-2.63213 1.75,-5.05434 -0.57365,-1.50879 -1.04442,-4.17646 -1.04617,-5.92816 -0.006,-5.77469 -5.84109,-27.0815 -9.95537,-36.35057 C 288.81865,300.3266 287,295.72962 287,295.11882 c 0,-2.5667 -12.05757,-23.29638 -14.98165,-25.75683 -1.75106,-1.47342 -4.26662,-4.97013 -5.59013,-7.77047 -1.32351,-2.80034 -4.3238,-7.86852 -6.6673,-11.26263 -7.56503,-10.95646 -9.82975,-15.12284 -12.80296,-23.55342 -3.27889,-9.29737 -3.51231,-12.10607 -1.60187,-19.27547 1.83121,-6.87206 4.09963,-11.00728 9.78493,-17.83745 2.67244,-3.21059 4.85898,-6.18829 4.85898,-6.61711 0,-1.08827 6.9784,-5.56118 10,-6.40965 14.42241,-4.04985 16.89788,-4.39756 25.26762,-3.54921 7.04389,0.71397 10.40633,1.75184 20.33583,6.27696 6.5431,2.98186 14.20994,6.70741 17.03742,8.27901 2.82749,1.5716 7.0539,3.9117 9.39204,5.20024 2.33814,1.28853 6.32475,4.26782 8.85913,6.62065 2.53438,2.35282 7.92807,6.47357 11.98597,9.15721 13.79288,9.12173 15.5613,10.40244 19.09251,13.827 6.36163,6.16951 25.2015,16.15104 43.52948,23.0623 17.03171,6.42247 23.0735,9.70543 33.35725,18.12556 1.84649,1.51187 5.23179,3.93764 7.52288,5.3906 4.20899,2.66927 16.16404,14.42375 18.0809,17.77757 0.57144,0.9998 3.67534,5.0902 6.89756,9.08979 3.41076,4.23359 7.84995,11.52006 10.62465,17.43925 5.96044,12.71523 11.89626,35.19571 13.06791,49.49149 0.76459,9.32908 0.60961,11.25685 -1.6078,20 -1.34966,5.32168 -3.08982,11.02579 -3.867,12.67579 -0.77718,1.65 -2.30462,5.35737 -3.3943,8.2386 -2.66863,7.05614 -11.89983,20.58501 -18.39053,26.95241 -2.91033,2.85505 -7.78434,6.45505 -10.83111,8 -3.04678,1.54494 -8.13659,4.60899 -11.3107,6.80899 l -5.7711,4 0.5535,8.8023 c 0.30443,4.84127 1.00674,9.64919 1.5607,10.68426 0.55395,1.03508 1.00719,4.1147 1.00719,6.84362 l 0,4.96166 7.75,0.68302 c 4.2625,0.37565 12.53345,0.42287 18.37989,0.10492 11.57782,-0.62965 16.40861,0.49555 19.1927,4.47039 1.71462,2.44797 1.15949,5.52868 -1.17113,6.49915 -0.9083,0.37822 -19.65146,0.80891 -41.65146,0.95709 -22,0.14818 -43.375,0.55505 -47.5,0.90414 -4.69569,0.3974 -8.15196,0.2351 -9.24364,-0.43405 z m 36.77576,-13.42547 c 3.97732,-1.66183 4.01952,-1.96817 2.1425,-15.55103 -1.12801,-8.16268 -1.27383,-8.49318 -3.67462,-8.32822 -2.40246,0.16508 -14.34848,4.17371 -16.58041,5.56375 -1.15123,0.71699 -1.15163,6.64102 -9.1e-4,13.3471 l 0.70056,4.08264 6.19038,1.00846 c 3.40471,0.55466 6.54233,1.07997 6.9725,1.16737 0.43016,0.0874 2.34266,-0.49314 4.25,-1.29007 z M 299.71075,437.75 c 3.00643,-3.28471 3.50884,-5.9802 1.85321,-9.94268 -2.9595,-7.08308 -9.46038,-8.75705 -14.48704,-3.7304 -4.17612,4.17613 -4.1378,8.23331 0.11925,12.62547 3.98794,4.11452 9.30046,4.55923 12.51458,1.04761 z m -9.03652,-2.82155 c -4.30263,-4.3587 -4.29835,-6.50576 0.0197,-9.90236 3.28579,-2.58461 3.87528,-2.54775 6.85148,0.42846 4.06957,4.06956 3.13344,9.92555 -2.04545,12.79538 -0.55,0.30478 -2.7216,-1.18989 -4.82577,-3.32148 z M 311,398.07318 c 1.85646,-1.31669 2.57939,-2.84617 2.8084,-5.94167 0.2599,-3.5129 -0.16053,-4.63749 -2.67307,-7.15003 -3.78674,-3.78673 -7.86702,-3.91957 -12.0586,-0.39259 -2.48587,2.09172 -3.07673,3.35262 -3.07673,6.56575 0,2.18726 0.47942,4.87264 1.06537,5.96751 2.19236,4.09646 8.85829,4.55141 13.93463,0.95103 z m -9.80793,-3.6717 c -3.87858,-4.05811 -3.61954,-6.61195 0.90817,-8.95331 3.11928,-1.61305 4.02072,-1.39211 7.64976,1.87491 2.63162,2.3691 2.87519,5.33932 0.6933,8.45441 -2.19323,3.13128 -5.39909,2.65444 -9.25123,-1.37601 z"
       style="fill:#d5d4ac" />
    <path
       id="path9854"
       d="m 406.62602,491.93551 c -3.27905,-1.78639 -4.50762,-1.96009 -8,-1.13109 -4.90729,1.16487 -121.49876,1.03103 -123.37602,-0.14162 -1.47626,-0.92217 -1.67448,-5.28242 -0.27935,-6.14466 1.41283,-0.87318 25.97684,-1.25705 29.6457,-0.46328 1.71399,0.37083 3.95258,0.20625 4.97465,-0.36572 1.16432,-0.65159 9.14995,-0.92725 21.38365,-0.73816 10.73894,0.16599 27.40035,0.2042 37.02535,0.0849 19.4329,-0.24084 22.19257,-0.2288 33,0.144 4.21656,0.14544 8.70393,-0.26426 10.25,-0.93585 2.55875,-1.11147 2.75,-1.60902 2.75,-7.1542 0,-3.27781 -0.43886,-7.11395 -0.97525,-8.52475 -0.87097,-2.29084 -1.53923,-2.57291 -6.25,-2.6381 -2.90111,-0.0402 -7.52475,-0.445 -10.27475,-0.89965 -23.14823,-3.82706 -24.31365,-4.2416 -41.41007,-14.72964 -1.97446,-1.21126 -4.15505,-2.49791 -4.84574,-2.85922 -0.74624,-0.39036 -3.80684,1.72943 -7.54264,5.22409 -16.56513,15.49587 -40.81826,20.03798 -58.96082,11.04216 -8.58593,-4.25726 -14.51866,-10.03629 -22.0679,-21.49619 -6.10227,-9.26337 -8.43519,-17.61314 -7.26841,-26.01436 0.35856,-2.5818 0.91579,-6.5447 1.23828,-8.80644 0.55716,-3.90752 0.43129,-4.16631 -2.52817,-5.19798 -3.51835,-1.2265 -3.94595,-3.31324 -1.736,-8.47189 2.32065,-5.41704 21.33241,-22.81778 28.29572,-25.89798 5.94005,-2.62757 16.11515,-8.55727 19.5388,-11.38655 1.49218,-1.23313 3.23803,-2.41704 3.87966,-2.63092 2.64737,-0.88246 -4.87042,-34.12366 -10.4471,-46.19364 C 290.64053,301.26904 289,297.2053 289,296.57825 289,293.72049 277.34652,273.07141 273.43598,269 c -2.3772,-2.475 -4.7576,-5.6611 -5.28978,-7.08022 -0.53218,-1.41911 -3.37028,-6.21513 -6.3069,-10.65781 -9.31412,-14.09093 -10.68146,-16.67728 -13.91721,-26.32463 -2.96331,-8.83508 -3.08653,-9.75643 -1.9309,-14.43734 1.88717,-7.64398 4.494,-13.01118 9.54585,-19.65393 2.53383,-3.33176 4.80944,-6.57262 5.05691,-7.20191 0.95357,-2.42475 7.835,-5.79809 16.68214,-8.17773 7.6762,-2.0647 10.48236,-2.37063 16.72391,-1.82329 6.98033,0.61213 15.37348,3.09492 22.5,6.65574 8.00385,3.99918 14.24427,7.31029 25.3558,13.45355 2.24072,1.23883 6.78835,4.67436 10.10585,7.6345 3.31749,2.96014 7.5532,6.10403 9.41269,6.98641 1.85948,0.88239 5.56521,3.40936 8.23494,5.6155 2.66973,2.20614 5.21909,4.01116 5.66523,4.01116 0.44614,0 2.94155,1.99271 5.54533,4.42825 4.35421,4.07285 9.29463,7.23814 22.68016,14.53098 2.75,1.49828 11.525,5.29065 19.5,8.42749 7.975,3.13683 15.60273,6.16454 16.95051,6.72823 3.044,1.27311 18.83543,11.72968 19.61224,12.98658 0.3133,0.50694 2.90235,2.42313 5.75345,4.25821 5.68769,3.66082 15.83659,13.67068 19.10537,18.84362 1.14314,1.80905 2.80643,4.01885 3.6962,4.91068 12.24131,12.26954 23.75098,43.01823 25.96707,69.37238 0.85415,10.15776 0.73728,11.704 -1.54946,20.5 -6.72796,25.87927 -20.17876,46.37501 -36.20856,55.17301 -6.25067,3.4307 -11.41827,6.93066 -16.15706,10.94302 -1.02313,0.86628 -1.16827,3.12001 -0.62868,9.76193 0.38586,4.74959 1.09697,9.39354 1.58024,10.31988 0.48328,0.92634 0.87868,3.90874 0.87868,6.62755 0,7.58882 0.30168,7.694 21.47368,7.48649 16.38495,-0.1606 18.50932,0.0131 21.36039,1.74699 3.55974,2.1648 4.06559,4.40286 1.32647,5.86879 -1.01834,0.545 -10.72732,1.01142 -21.75,1.04488 -10.95079,0.0332 -23.73554,0.50141 -28.41054,1.04038 -6.04222,0.69661 -9.49135,0.65435 -11.92848,-0.14615 -3.24059,-1.06439 -8.71051,-0.93582 -27.07152,0.63629 -5.41061,0.46327 -7.14927,0.20282 -10.37398,-1.55397 z m 37.65754,-9.64018 c 5.65841,-2.02813 6.50882,-4.05291 4.89392,-11.65216 -0.60113,-2.82875 -1.39344,-7.31646 -1.76069,-9.9727 -0.36725,-2.65625 -1.18723,-5.02888 -1.82216,-5.27253 -0.63494,-0.24365 -5.19098,1.04439 -10.12453,2.8623 l -8.9701,3.3053 -0.28944,5.46723 c -0.3621,6.83955 0.88438,13.05085 2.81489,14.02684 0.811,0.41001 3.27455,1.18246 5.47455,1.71656 2.2,0.5341 4.225,1.03018 4.5,1.10241 0.275,0.0722 2.6526,-0.64024 5.28356,-1.58325 z m -144.9556,-43.33866 c 5.54853,-4.36448 3.92674,-14.69882 -2.74414,-17.48609 -4.30894,-1.80039 -7.24063,-0.85558 -10.92249,3.52006 -3.35828,3.99109 -3.35023,6.23961 0.0383,10.68214 4.26773,5.59527 9.18394,6.77988 13.62838,3.28389 z M 292.18695,435.5 c -1.19555,-1.375 -2.6267,-2.5 -3.18034,-2.5 -1.89817,0 -1.00701,-4.651 1.30784,-6.82569 2.8001,-2.63055 4.85159,-2.75575 6.95265,-0.42431 2.79027,3.09621 3.05159,6.57514 0.71684,9.54328 -2.61705,3.32705 -3.06986,3.3432 -5.79699,0.20672 z m 18.50879,-36.45604 c 6.29677,-3.83939 4.96744,-13.61544 -2.26216,-16.63616 -2.96097,-1.23717 -3.89734,-1.24087 -6.80289,-0.0269 -4.10164,1.71377 -6.63069,5.10503 -6.63069,8.89122 0,3.25024 2.36066,8.30683 4.22896,9.05854 2.8918,1.1635 8.47594,0.53688 11.46678,-1.28675 z M 301.75,394.01562 C 300.2375,392.42718 299,390.44937 299,389.62048 299,387.85516 302.73739,385 305.04819,385 c 2.3801,0 5.95181,4.26942 5.95181,7.11445 0,5.43924 -4.9185,6.45015 -9.25,1.90117 z"
       style="fill:#fad95c" />
    <path
       id="path9852"
       d="m 406.62602,491.93551 c -3.27905,-1.78639 -4.50762,-1.96009 -8,-1.13109 -4.90729,1.16487 -121.49876,1.03103 -123.37602,-0.14162 -1.47626,-0.92217 -1.67448,-5.28242 -0.27935,-6.14466 1.41283,-0.87318 25.97684,-1.25705 29.6457,-0.46328 1.71399,0.37083 3.95258,0.20625 4.97465,-0.36572 1.16432,-0.65159 9.14995,-0.92725 21.38365,-0.73816 10.73894,0.16599 27.40035,0.2042 37.02535,0.0849 19.4329,-0.24084 22.19257,-0.2288 33,0.144 4.21656,0.14544 8.70393,-0.26426 10.25,-0.93585 2.55875,-1.11147 2.75,-1.60902 2.75,-7.1542 0,-3.27781 -0.43886,-7.11395 -0.97525,-8.52475 -0.87097,-2.29084 -1.53923,-2.57291 -6.25,-2.6381 -2.90111,-0.0402 -7.52475,-0.445 -10.27475,-0.89965 -19.31068,-3.1926 -25.10983,-4.85135 -32.38287,-9.26256 -2.96058,-1.79563 -6.56058,-3.88552 -8,-4.6442 -1.43942,-0.75867 -3.59776,-2.26967 -4.7963,-3.35777 l -2.17917,-1.97837 -7.03006,6.05059 C 329.13499,461.00366 314.12571,466.24092 299,464.87817 285.11983,463.62764 274.69,456.79164 265.12453,442.67529 256.83315,430.43917 256.50321,429.5333 256.50152,419 c -8.3e-4,-5.225 0.33337,-11.36291 0.74268,-13.6398 0.74358,-4.13639 0.74127,-4.14034 -2.80256,-4.80517 -4.2531,-0.79789 -5.07914,-2.48682 -3.60953,-7.3801 1.69004,-5.62717 20.89047,-23.83763 28.84214,-27.35503 5.94005,-2.62757 16.11515,-8.55727 19.5388,-11.38655 1.49218,-1.23313 3.23803,-2.41704 3.87966,-2.63092 2.64737,-0.88246 -4.87042,-34.12366 -10.4471,-46.19364 C 290.64053,301.26904 289,297.2053 289,296.57825 289,293.72049 277.34652,273.07141 273.43598,269 c -2.3772,-2.475 -4.7576,-5.6611 -5.28978,-7.08022 -0.53218,-1.41911 -3.37028,-6.21513 -6.3069,-10.65781 -9.31412,-14.09093 -10.68146,-16.67728 -13.91721,-26.32463 -2.96331,-8.83508 -3.08653,-9.75643 -1.9309,-14.43734 1.88717,-7.64398 4.494,-13.01118 9.54585,-19.65393 2.53383,-3.33176 4.80944,-6.57262 5.05691,-7.20191 0.95357,-2.42475 7.835,-5.79809 16.68214,-8.17773 7.6762,-2.0647 10.48236,-2.37063 16.72391,-1.82329 6.98033,0.61213 15.37348,3.09492 22.5,6.65574 8.00385,3.99918 14.24427,7.31029 25.3558,13.45355 2.24072,1.23883 6.78835,4.67436 10.10585,7.6345 3.31749,2.96014 7.5532,6.10403 9.41269,6.98641 1.85948,0.88239 5.56521,3.40936 8.23494,5.6155 2.66973,2.20614 5.21909,4.01116 5.66523,4.01116 0.44614,0 2.94155,1.99271 5.54533,4.42825 4.35421,4.07285 9.29463,7.23814 22.68016,14.53098 2.75,1.49828 11.525,5.29065 19.5,8.42749 7.975,3.13683 15.60273,6.16454 16.95051,6.72823 3.044,1.27311 18.83543,11.72968 19.61224,12.98658 0.3133,0.50694 2.90235,2.42313 5.75345,4.25821 5.68769,3.66082 15.83659,13.67068 19.10537,18.84362 1.14314,1.80905 2.80643,4.01885 3.6962,4.91068 12.24131,12.26954 23.75098,43.01823 25.96707,69.37238 0.85415,10.15776 0.73728,11.704 -1.54946,20.5 -6.72796,25.87927 -20.17876,46.37501 -36.20856,55.17301 -6.25067,3.4307 -11.41827,6.93066 -16.15706,10.94302 -1.02313,0.86628 -1.16827,3.12001 -0.62868,9.76193 0.38586,4.74959 1.09697,9.39354 1.58024,10.31988 0.48328,0.92634 0.87868,3.90874 0.87868,6.62755 0,7.58882 0.30168,7.694 21.47368,7.48649 16.38495,-0.1606 18.50932,0.0131 21.36039,1.74699 3.55974,2.1648 4.06559,4.40286 1.32647,5.86879 -1.01834,0.545 -10.72732,1.01142 -21.75,1.04488 -10.95079,0.0332 -23.73554,0.50141 -28.41054,1.04038 -6.04222,0.69661 -9.49135,0.65435 -11.92848,-0.14615 -3.24059,-1.06439 -8.71051,-0.93582 -27.07152,0.63629 -5.41061,0.46327 -7.14927,0.20282 -10.37398,-1.55397 z m 37.65754,-9.64018 c 5.65841,-2.02813 6.50882,-4.05291 4.89392,-11.65216 -0.60113,-2.82875 -1.39344,-7.31646 -1.76069,-9.9727 -0.36725,-2.65625 -1.18723,-5.02888 -1.82216,-5.27253 -0.63494,-0.24365 -5.19098,1.04439 -10.12453,2.8623 l -8.9701,3.3053 -0.28944,5.46723 c -0.3621,6.83955 0.88438,13.05085 2.81489,14.02684 0.811,0.41001 3.27455,1.18246 5.47455,1.71656 2.2,0.5341 4.225,1.03018 4.5,1.10241 0.275,0.0722 2.6526,-0.64024 5.28356,-1.58325 z M 301.34201,439.0054 c 3.50907,-4.1703 4.08743,-6.67416 2.58983,-11.21193 -2.53316,-7.67556 -10.47239,-11.1063 -16.52463,-7.14072 -3.29823,2.16109 -6.72909,8.92865 -5.9997,11.83475 0.31142,1.24083 2.37343,3.88875 4.58224,5.88428 3.33715,3.01491 4.76118,3.62822 8.42424,3.62822 3.66863,0 4.83098,-0.50242 6.92802,-2.9946 z M 292.18695,435.5 c -1.19555,-1.375 -2.6267,-2.5 -3.18034,-2.5 -1.89817,0 -1.00701,-4.651 1.30784,-6.82569 2.8001,-2.63055 4.85159,-2.75575 6.95265,-0.42431 2.79027,3.09621 3.05159,6.57514 0.71684,9.54328 -2.61705,3.32705 -3.06986,3.3432 -5.79699,0.20672 z m 17.72312,-34.08069 c 2.82609,-1.13078 4.25501,-2.4541 5.02023,-4.64923 1.88785,-5.41546 1.30479,-8.54292 -2.33263,-12.51204 -2.8563,-3.11675 -4.05482,-3.71259 -7.46791,-3.71259 -3.27456,0 -4.75279,0.66608 -7.59767,3.42344 -3.09273,2.99759 -3.53209,4.03057 -3.53209,8.3042 0,4.06119 0.49084,5.37159 2.92308,7.80383 3.37711,3.37711 6.97282,3.74878 12.98699,1.34239 z M 301.75,394.01562 C 300.2375,392.42718 299,390.44937 299,389.62048 299,387.85516 302.73739,385 305.04819,385 c 2.3801,0 5.95181,4.26942 5.95181,7.11445 0,5.43924 -4.9185,6.45015 -9.25,1.90117 z"
       style="fill:#fbd72a" />
    <path
       id="path9850"
       d="m 406.62602,491.93551 c -3.27905,-1.78639 -4.50762,-1.96009 -8,-1.13109 -4.90729,1.16487 -121.49876,1.03103 -123.37602,-0.14162 -1.47626,-0.92217 -1.67448,-5.28242 -0.27935,-6.14466 1.41283,-0.87318 25.97684,-1.25705 29.6457,-0.46328 1.71399,0.37083 3.95258,0.20625 4.97465,-0.36572 1.16432,-0.65159 9.14995,-0.92725 21.38365,-0.73816 10.73894,0.16599 27.40035,0.2042 37.02535,0.0849 19.4329,-0.24084 22.19257,-0.2288 33,0.144 4.21656,0.14544 8.70393,-0.26426 10.25,-0.93585 2.55875,-1.11147 2.75,-1.60902 2.75,-7.1542 0,-3.27781 -0.43886,-7.11395 -0.97525,-8.52475 -0.87097,-2.29084 -1.53923,-2.57291 -6.25,-2.6381 -2.90111,-0.0402 -7.52475,-0.445 -10.27475,-0.89965 -19.31068,-3.1926 -25.10983,-4.85135 -32.38287,-9.26256 -2.96058,-1.79563 -6.56058,-3.88552 -8,-4.6442 -4.02478,-2.12134 -7.12922,-5.29008 -6.38372,-6.51595 0.36947,-0.60755 -2.64819,1.88837 -6.70592,5.54649 -13.34695,12.03253 -28.39739,17.52264 -43.60383,15.90583 -8.34466,-0.88724 -18.12922,-4.55626 -22.17366,-8.3147 -3.1547,-2.93162 -2.80059,-4.07834 0.70034,-2.26794 1.99688,1.03263 5.82943,1.52568 11.85923,1.52568 8.0206,0 9.49625,-0.30827 14.79966,-3.09171 7.72223,-4.05293 14.84663,-11.44551 17.46117,-18.11844 1.13995,-2.90942 2.49045,-5.71735 3.00112,-6.23985 2.53546,-2.59423 -1.85009,-21.45487 -6.30684,-27.12339 -1.69545,-2.15643 -2.26468,-4.19178 -2.26468,-8.0976 0,-4.59237 -0.4127,-5.643 -3.44617,-8.77308 C 310.05365,380.46018 308.99049,380 304.83863,380 c -3.87297,0 -5.41103,0.56368 -8.18585,3 -3.04472,2.6733 -4.12262,3 -9.89816,3 -5.5097,0 -7.58869,0.56217 -13.86798,3.75 -6.29969,3.19818 -7.84744,4.52363 -10.51808,9.00736 -2.58534,4.3405 -3.22318,4.90657 -3.65746,3.24588 -0.32061,-1.22601 -1.08056,-1.7987 -1.94611,-1.46655 -0.78105,0.29971 -2.62269,0.0877 -4.09254,-0.47113 -3.04336,-1.15708 -3.39699,-3.43851 -1.29392,-8.34768 2.32065,-5.41704 21.33241,-22.81778 28.29572,-25.89798 5.94005,-2.62757 16.11515,-8.55727 19.5388,-11.38655 1.49218,-1.23313 3.23803,-2.41704 3.87966,-2.63092 2.64737,-0.88246 -4.87042,-34.12366 -10.4471,-46.19364 C 290.64053,301.26904 289,297.2053 289,296.57825 289,293.72049 277.34652,273.07141 273.43598,269 c -2.3772,-2.475 -4.7576,-5.6611 -5.28978,-7.08022 -0.53218,-1.41911 -3.37028,-6.21513 -6.3069,-10.65781 -9.31412,-14.09093 -10.68146,-16.67728 -13.91721,-26.32463 -2.96331,-8.83508 -3.08653,-9.75643 -1.9309,-14.43734 1.88717,-7.64398 4.494,-13.01118 9.54585,-19.65393 2.53383,-3.33176 4.80944,-6.57262 5.05691,-7.20191 0.95357,-2.42475 7.835,-5.79809 16.68214,-8.17773 7.6762,-2.0647 10.48236,-2.37063 16.72391,-1.82329 6.98033,0.61213 15.37348,3.09492 22.5,6.65574 8.00385,3.99918 14.24427,7.31029 25.3558,13.45355 2.24072,1.23883 6.78835,4.67436 10.10585,7.6345 3.31749,2.96014 7.5532,6.10403 9.41269,6.98641 1.85948,0.88239 5.56521,3.40936 8.23494,5.6155 2.66973,2.20614 5.21909,4.01116 5.66523,4.01116 0.44614,0 2.94155,1.99271 5.54533,4.42825 4.35421,4.07285 9.29463,7.23814 22.68016,14.53098 2.75,1.49828 11.525,5.29065 19.5,8.42749 7.975,3.13683 15.60273,6.16454 16.95051,6.72823 3.044,1.27311 18.83543,11.72968 19.61224,12.98658 0.3133,0.50694 2.90235,2.42313 5.75345,4.25821 5.68769,3.66082 15.83659,13.67068 19.10537,18.84362 1.14314,1.80905 2.80643,4.01885 3.6962,4.91068 12.24131,12.26954 23.75098,43.01823 25.96707,69.37238 0.85415,10.15776 0.73728,11.704 -1.54946,20.5 -6.72796,25.87927 -20.17876,46.37501 -36.20856,55.17301 -6.25067,3.4307 -11.41827,6.93066 -16.15706,10.94302 -1.02313,0.86628 -1.16827,3.12001 -0.62868,9.76193 0.38586,4.74959 1.09697,9.39354 1.58024,10.31988 0.48328,0.92634 0.87868,3.90874 0.87868,6.62755 0,7.58882 0.30168,7.694 21.47368,7.48649 16.38495,-0.1606 18.50932,0.0131 21.36039,1.74699 3.55974,2.1648 4.06559,4.40286 1.32647,5.86879 -1.01834,0.545 -10.72732,1.01142 -21.75,1.04488 -10.95079,0.0332 -23.73554,0.50141 -28.41054,1.04038 -6.04222,0.69661 -9.49135,0.65435 -11.92848,-0.14615 -3.24059,-1.06439 -8.71051,-0.93582 -27.07152,0.63629 -5.41061,0.46327 -7.14927,0.20282 -10.37398,-1.55397 z m 37.65754,-9.64018 c 5.65841,-2.02813 6.50882,-4.05291 4.89392,-11.65216 -0.60113,-2.82875 -1.39344,-7.31646 -1.76069,-9.9727 -0.36725,-2.65625 -1.18723,-5.02888 -1.82216,-5.27253 -0.63494,-0.24365 -5.19098,1.04439 -10.12453,2.8623 l -8.9701,3.3053 -0.28944,5.46723 c -0.3621,6.83955 0.88438,13.05085 2.81489,14.02684 0.811,0.41001 3.27455,1.18246 5.47455,1.71656 2.2,0.5341 4.225,1.03018 4.5,1.10241 0.275,0.0722 2.6526,-0.64024 5.28356,-1.58325 z M 292.18695,435.5 c -1.19555,-1.375 -2.6267,-2.5 -3.18034,-2.5 -1.89817,0 -1.00701,-4.651 1.30784,-6.82569 2.8001,-2.63055 4.85159,-2.75575 6.95265,-0.42431 2.79027,3.09621 3.05159,6.57514 0.71684,9.54328 -2.61705,3.32705 -3.06986,3.3432 -5.79699,0.20672 z m 19.16828,-11.01668 c -0.32011,-0.83417 -0.28584,-2.74667 0.0761,-4.25 0.36198,-1.50333 1.02608,-4.41259 1.47577,-6.46504 1.3677,-6.2423 4.42185,-8.48665 7.12177,-5.23344 1.02622,1.23652 1.03149,2.64566 0.0271,7.25 C 318.13075,424.61048 317.37364,426 314.49005,426 c -1.40405,0 -2.81472,-0.68251 -3.13482,-1.51668 z M 301.75,394.01562 C 300.2375,392.42718 299,390.44937 299,389.62048 299,387.85516 302.73739,385 305.04819,385 c 2.3801,0 5.95181,4.26942 5.95181,7.11445 0,5.43924 -4.9185,6.45015 -9.25,1.90117 z"
       style="fill:#b3b193" />
    <path
       id="path9848"
       d="M 408.69196,491.54911 C 407.76138,490.61853 407,488.72809 407,487.34813 c 0,-2.01165 0.81838,-2.83049 4.12835,-4.13068 l 4.12835,-1.62166 -0.52565,-8.4254 C 414.13693,463.6473 413.67653,463.04205 407,463.00701 c -5.26474,-0.0276 -23.58564,-2.48457 -29.81937,-3.99894 -4.12056,-1.00102 -10.19101,-3.93962 -20.29116,-9.8226 -6.29792,-3.66831 -7.98927,-5.21186 -7.17587,-6.54878 0.38036,-0.62518 -2.62838,1.85632 -6.68611,5.51444 -13.34695,12.03253 -28.39739,17.52264 -43.60383,15.90583 -8.34466,-0.88724 -18.12922,-4.55626 -22.17366,-8.3147 -3.1547,-2.93162 -2.80059,-4.07834 0.70034,-2.26794 1.99688,1.03263 5.82943,1.52568 11.85923,1.52568 8.0206,0 9.49625,-0.30827 14.79966,-3.09171 7.72223,-4.05293 14.84663,-11.44551 17.46117,-18.11844 1.13995,-2.90942 2.49045,-5.71735 3.00112,-6.23985 2.53546,-2.59423 -1.85009,-21.45487 -6.30684,-27.12339 -1.69545,-2.15643 -2.26468,-4.19178 -2.26468,-8.0976 0,-4.59237 -0.4127,-5.643 -3.44617,-8.77308 C 310.05365,380.46018 308.99049,380 304.83863,380 c -3.87297,0 -5.41103,0.56368 -8.18585,3 -3.04472,2.6733 -4.12262,3 -9.89816,3 -5.5097,0 -7.58869,0.56217 -13.86798,3.75 -6.29969,3.19818 -7.84744,4.52363 -10.51808,9.00736 -2.58136,4.33384 -3.22366,4.90474 -3.65638,3.25 -0.33545,-1.28274 -1.37094,-2.01289 -2.86856,-2.02267 -4.03775,-0.0264 -5.17728,-1.39259 -4.43991,-5.32312 0.6935,-3.69668 5.66606,-10.40366 10.37423,-13.99274 1.49714,-1.14128 5.02484,-4.14592 7.83935,-6.67699 2.8145,-2.53108 8.85294,-6.53118 13.41875,-8.88914 4.5658,-2.35795 9.91302,-5.38106 11.88271,-6.71801 1.96969,-1.33696 5.07915,-3.38579 6.90991,-4.55295 2.58326,-1.6469 3.1915,-2.59346 2.71614,-4.22693 -0.33689,-1.15764 -1.30622,-5.92468 -2.15408,-10.59341 -2.75122,-15.14963 -5.40724,-24.90014 -8.7925,-32.27818 -1.82535,-3.97827 -3.88947,-8.99009 -4.58695,-11.13738 -2.29363,-7.06132 -11.9458,-24.03652 -15.40682,-27.09584 -1.86665,-1.65 -4.33607,-5.025 -5.48759,-7.5 -1.15153,-2.475 -4.0114,-7.277 -6.35527,-10.67111 -9.90283,-14.34006 -15.71842,-27.42103 -15.74821,-35.42234 -0.0247,-6.62053 4.69625,-18.08054 9.66523,-23.46237 1.55176,-1.68069 4.03349,-4.65487 5.51494,-6.60927 3.22905,-4.2599 6.76615,-6.04809 17.61297,-8.90428 7.31114,-1.92517 9.1209,-2.04474 16.93957,-1.11917 8.92736,1.0568 19.55865,5.02617 30.54792,11.40557 2.6367,1.53063 5.03069,2.78297 5.31996,2.78297 1.51433,0 16.40609,9.72256 19.65081,12.82966 2.07063,1.98281 6.63524,5.41978 10.14358,7.63772 9.1673,5.79549 14.18043,9.45379 19.52795,14.2504 6.63353,5.95013 24.04727,15.40305 39.9843,21.70516 7.46866,2.9534 14.70439,5.70576 16.07939,6.11635 2.77297,0.82804 21.49817,12.83971 22.47172,14.41495 0.33901,0.54853 2.95906,2.5689 5.82233,4.4897 5.67317,3.80581 15.26018,13.28704 18.2575,18.05606 1.03703,1.65 4.07057,5.475 6.7412,8.5 7.52756,8.52638 13.98007,22.97704 18.61315,41.68492 5.13746,20.74447 5.96956,32.59421 3.07675,43.81508 -2.31832,8.99248 -9.49898,26.95271 -11.99426,30 -0.90074,1.1 -3.25402,4.475 -5.22951,7.5 -4.94919,7.57852 -10.93849,13.04052 -19.64775,17.91794 -4.06388,2.27589 -8.61609,5.13789 -10.11604,6.36002 -1.49994,1.22212 -3.54533,2.7024 -4.54532,3.28952 -1.58199,0.92881 -1.78695,2.28444 -1.57788,10.43624 0.13216,5.15282 0.54226,9.84746 0.91133,10.43252 0.36908,0.58507 0.97907,3.53876 1.35554,6.56376 0.37647,3.025 0.9977,7.33191 1.38051,9.57092 0.96675,5.6543 -0.67317,6.98875 -9.67907,7.87617 -6.75067,0.66519 -7.41893,0.55643 -9.06409,-1.47526 -2.64993,-3.27252 -2.18797,-5.75715 1.47389,-7.92723 5.2998,-3.14075 5.9761,-4.0611 5.4541,-7.4223 -0.26669,-1.71727 -1.06377,-7.04218 -1.77128,-11.83315 -0.77526,-5.24967 -1.80753,-8.91083 -2.59795,-9.21414 -0.72135,-0.27681 -5.67386,1.05557 -11.00556,2.96085 -5.3317,1.90528 -9.83694,3.46414 -10.01165,3.46414 -0.98368,0 -0.0888,13.43638 1.17152,17.59107 1.83351,6.044 1.92449,10.82072 0.23285,12.22467 -0.70289,0.58334 -4.66651,1.36768 -8.80804,1.74298 -6.34359,0.57484 -7.79665,0.41576 -9.22203,-1.00961 z m -117.44526,-57.97109 -3.25329,-3.29992 2.07587,-2.63905 c 3.4205,-4.34846 6.99183,-3.22807 8.46885,2.65684 0.50209,2.00048 0.19946,3.33659 -1.0746,4.7444 -2.25751,2.49453 -2.33358,2.47664 -6.21683,-1.46227 z m 20.10853,-9.0947 c -0.32011,-0.83417 -0.28584,-2.74667 0.0761,-4.25 0.36198,-1.50333 1.02608,-4.41259 1.47577,-6.46504 1.3677,-6.2423 4.42185,-8.48665 7.12177,-5.23344 1.02622,1.23652 1.03149,2.64566 0.0271,7.25 C 318.13075,424.61048 317.37364,426 314.49005,426 c -1.40405,0 -2.81472,-0.68251 -3.13482,-1.51668 z m -8.11684,-30.56162 c -3.45148,-3.08391 -3.96915,-4.79094 -2.03839,-6.7217 3.14281,-3.14281 8.8,0.13165 8.8,5.09356 0,4.31562 -2.95692,5.02762 -6.76161,1.62814 z"
       style="fill:#98d14c" />
    <path
       id="path9846"
       d="M 408.69196,491.54911 C 407.76138,490.61853 407,488.72809 407,487.34813 c 0,-2.01165 0.81838,-2.83049 4.12835,-4.13068 l 4.12835,-1.62166 -0.52565,-8.4254 c -0.30142,-4.8315 -1.02702,-8.73527 -1.70105,-9.15185 -0.64648,-0.39955 -5.4389,-1.0065 -10.64983,-1.3488 -5.97176,-0.39227 -10.27865,-1.18565 -11.6498,-2.14604 -1.19646,-0.83804 -3.59515,-1.5237 -5.33043,-1.5237 -1.73528,0 -3.6994,-0.6559 -4.36471,-1.45756 -0.79645,-0.95965 -2.19941,-1.2596 -4.10705,-0.87808 -4.63699,0.9274 -4.75419,-1.87168 -0.25351,-6.05481 3.94528,-3.66692 7.04407,-4.49081 9.1122,-2.42268 0.91584,0.91584 1.44058,0.45911 2.29783,-2 1.47155,-4.22128 3.0863,-4.06465 5.6653,0.54956 1.75749,3.14441 1.56062,4.26357 -0.75,4.26357 -1.35244,0 -2,-0.66667 -2,-2.05902 0,-1.13246 -0.38965,-1.8182 -0.86589,-1.52386 -0.47624,0.29433 -0.67273,1.55839 -0.43664,2.80901 0.31259,1.65588 -0.19788,2.54565 -1.87827,3.27387 -2.7116,1.17512 -3.74049,4.5 -1.39252,4.5 0.86532,0 1.57332,-0.44143 1.57332,-0.98095 0,-0.53952 1.2375,-1.27496 2.75,-1.63431 1.5125,-0.35935 3.425,-1.20446 4.25,-1.87802 2.89932,-2.36712 5.92618,-2.45019 7.49823,-0.20579 1.15994,1.65605 1.74681,1.85403 2.6925,0.90834 1.7752,-1.7752 5.89497,-1.47311 7.37432,0.54073 1.18199,1.60903 1.37012,1.52848 2.33549,-1 1.17863,-3.08701 2.57255,-3.51395 3.87488,-1.18681 0.71261,1.27335 1.0727,1.3197 1.94209,0.25 0.587,-0.72226 1.23336,-2.20802 1.43637,-3.30171 0.44752,-2.4111 3.84612,-3.36968 3.84612,-1.0848 0,1.87509 1.1455,2.02782 2.8,0.37332 1.63321,-1.63321 1.50819,-2.8 -0.3,-2.8 -0.825,0 -1.5,-0.64468 -1.5,-1.43261 0,-0.78794 -0.9,-1.71826 -2,-2.06739 -2.59448,-0.82346 -2.55137,-2.19023 0.0956,-3.03034 1.59524,-0.50631 2.74367,0.11118 4.80994,2.58625 l 2.71435,3.25135 7.19006,-7.11908 C 443.76447,434.27269 447,430.40511 447,429.59357 c 0,-0.81155 0.45,-1.75365 1,-2.09357 1.51136,-0.93407 1.19817,-2.5 -0.5,-2.5 -0.825,0 -1.5,-0.675 -1.5,-1.5 0,-1.78538 1.6629,-2.01131 2.23224,-0.30329 0.59604,1.78812 4.44516,-7.03274 5.32223,-12.19671 2.0822,-12.25948 -0.34876,-32.40482 -5.06818,-42 -1.75838,-3.575 -3.52304,-7.8464 -3.92146,-9.49199 -1.30417,-5.38658 -14.5469,-25.4063 -18.75605,-28.3545 -2.55502,-1.7896 -4.76352,0.16001 -8.13606,7.1823 -1.36409,2.8403 -4.77349,7.39727 -7.57644,10.1266 -5.58245,5.4358 -6.09423,7.32736 -3.11464,11.5118 3.45266,4.84882 8.03479,17.71988 8.97553,25.21202 1.08996,8.68044 -0.16025,21.37189 -2.56306,26.01884 C 409.62895,418.48678 402.64438,424 397.18452,424 c -1.60314,0 -4.11437,0.94358 -5.58051,2.09684 -1.86778,1.4692 -3.03063,1.79532 -3.88486,1.08949 -0.67053,-0.55405 -2.91162,-1.32364 -4.9802,-1.71021 -2.06857,-0.38656 -4.00763,-1.10183 -4.30901,-1.58948 C 378.12855,423.39899 377.05611,423 376.04674,423 c -1.00938,0 -3.28041,-1.35 -5.04674,-3 -1.76633,-1.65 -3.79014,-3 -4.49735,-3 -0.70721,0 -1.54493,-1.0125 -1.8616,-2.25 -0.31667,-1.2375 -2.27944,-4.30216 -4.36172,-6.81036 l -3.78596,-4.56036 -0.16722,10.40073 c -0.1237,7.69407 -0.68691,11.74345 -2.1642,15.56036 -1.09834,2.8378 -2.2821,6.50963 -2.63056,8.15963 -0.97736,4.62778 -13.86411,16.30469 -22.95465,20.79961 -10.30641,5.09613 -19.07857,6.82851 -29.15308,5.75735 -8.34466,-0.88724 -18.12922,-4.55626 -22.17366,-8.3147 -3.1547,-2.93162 -2.80059,-4.07834 0.70034,-2.26794 1.99688,1.03263 5.82943,1.52568 11.85923,1.52568 8.0206,0 9.49625,-0.30827 14.79966,-3.09171 7.72223,-4.05293 14.84663,-11.44551 17.46117,-18.11844 1.13995,-2.90942 2.49045,-5.71735 3.00112,-6.23985 2.53546,-2.59423 -1.85009,-21.45487 -6.30684,-27.12339 -1.69545,-2.15643 -2.26468,-4.19178 -2.26468,-8.0976 0,-4.59237 -0.4127,-5.643 -3.44617,-8.77308 C 310.05365,380.46018 308.99049,380 304.83863,380 c -3.87297,0 -5.41103,0.56368 -8.18585,3 -3.04472,2.6733 -4.12262,3 -9.89816,3 -5.5097,0 -7.58869,0.56217 -13.86798,3.75 -6.30344,3.20009 -7.8467,4.52239 -10.52393,9.01715 -2.99337,5.02551 -3.16674,5.14979 -3.77932,2.7091 -0.35311,-1.40693 -1.10441,-2.27228 -1.66954,-1.923 -0.56514,0.34927 -2.12694,0.3591 -3.47069,0.0218 -2.81936,-0.70761 -3.13492,-3.0102 -1.07679,-7.85721 2.61998,-6.1702 19.62444,-20.91101 30.7504,-26.65687 4.50471,-2.3264 9.97803,-5.42934 12.16292,-6.89542 10.8624,-7.28874 10.93183,-7.29695 13.32234,-1.57563 1.83138,4.3831 1.83097,7.51343 -8.8e-4,6.81048 -0.76937,-0.29523 -1.69592,-0.0561 -2.05902,0.53139 -0.42723,0.69128 0.78772,1.06817 3.44334,1.06817 8.71702,0 16.61265,2.92947 25.78879,9.56827 4.79916,3.47212 8.89309,5.83762 9.09763,5.25667 0.20454,-0.58094 -0.19914,-2.78649 -0.89706,-4.90122 -1.56579,-4.74437 -0.67837,-17.50266 1.70368,-24.49359 1.03692,-3.04319 3.36893,-6.55826 6.23869,-9.40363 5.7963,-5.74706 12.9586,-7.66101 23.0828,-6.16831 8.19885,1.20883 11.14176,2.35786 15.96365,6.23284 4.43491,3.56399 6.90239,3.33724 9.57634,-0.88002 0.9454,-1.49106 2.72364,-3.83601 3.95164,-5.21101 C 407.02567,332.1626 414,319.42707 414,317.63715 c 0,-1.75699 -16.15741,-17.23912 -27,-25.87155 -5.225,-4.15994 -11.3,-9.44167 -13.5,-11.73718 -2.2,-2.29551 -6.80857,-6.18591 -10.24127,-8.64534 -3.4327,-2.45942 -6.8077,-5.5352 -7.5,-6.83506 -1.40164,-2.63172 -9.89918,-11.93872 -13.76251,-15.0735 -1.37292,-1.11402 -4.7076,-4.48902 -7.4104,-7.5 -10.54891,-11.75174 -23.76744,-24.89739 -25.6298,-25.48848 C 307.88021,216.14459 307,215.54584 307,215.15547 c 0,-0.39036 -1.35808,-2.27254 -3.01794,-4.18261 -7.64229,-8.79426 -19.83613,-17.47134 -23.09764,-16.43618 -1.40846,0.44703 -1.88442,0.10294 -1.88442,-1.3623 0,-1.07822 -0.7118,-2.23355 -1.58179,-2.56739 -2.51825,-0.96635 -7.21933,-0.70362 -7.59537,0.42448 -0.23154,0.69464 -1.41837,0.65689 -3.63438,-0.11562 -1.8098,-0.6309 -3.44399,-0.98256 -3.63152,-0.78147 -0.18753,0.20109 -0.0228,2.42481 0.3661,4.94159 0.67951,4.39762 0.61684,4.55873 -1.60799,4.13343 -1.83028,-0.34988 -2.31505,6.6e-4 -2.31505,1.67402 0,1.52524 0.62861,2.11947 2.25,2.12691 1.68579,0.008 1.12158,0.58336 -2.25,2.29549 -3.49114,1.77284 -4.4466,2.77939 -4.26179,4.48967 0.27209,2.51802 -1.45644,2.86225 -4.22119,0.84062 -1.81487,-1.32707 -1.81005,-1.48231 0.17842,-5.75 1.12401,-2.41236 2.35768,-5.39861 2.7415,-6.63611 0.38696,-1.24767 1.50423,-2.25 2.508,-2.25 2.67583,0 4.23752,-2.42483 3.48717,-5.41449 -0.48488,-1.93188 0.007,-3.47194 1.90049,-5.95492 3.0948,-4.05749 6.74481,-5.87477 17.47392,-8.69996 7.31114,-1.92517 9.1209,-2.04474 16.93957,-1.11917 8.92736,1.0568 19.55865,5.02617 30.54792,11.40557 2.6367,1.53063 5.03069,2.78297 5.31996,2.78297 1.51433,0 16.40609,9.72256 19.65081,12.82966 2.07063,1.98281 6.63524,5.41978 10.14358,7.63772 9.1673,5.79549 14.18043,9.45379 19.52795,14.2504 6.63353,5.95013 24.04727,15.40305 39.9843,21.70516 7.46866,2.9534 14.70439,5.70576 16.07939,6.11635 2.77297,0.82804 21.49817,12.83971 22.47172,14.41495 0.33901,0.54853 2.95906,2.5689 5.82233,4.4897 5.67317,3.80581 15.26018,13.28704 18.2575,18.05606 1.03703,1.65 4.07057,5.475 6.7412,8.5 7.52756,8.52638 13.98007,22.97704 18.61315,41.68492 5.13746,20.74447 5.96956,32.59421 3.07675,43.81508 -2.31832,8.99248 -9.49898,26.95271 -11.99426,30 -0.90074,1.1 -3.25402,4.475 -5.22951,7.5 -4.94919,7.57852 -10.93849,13.04052 -19.64775,17.91794 -4.06388,2.27589 -8.61609,5.13789 -10.11604,6.36002 -1.49994,1.22212 -3.54533,2.7024 -4.54532,3.28952 -1.58199,0.92881 -1.78695,2.28444 -1.57788,10.43624 0.13216,5.15282 0.54226,9.84746 0.91133,10.43252 0.36908,0.58507 0.97907,3.53876 1.35554,6.56376 0.37647,3.025 0.9977,7.33191 1.38051,9.57092 0.96675,5.6543 -0.67317,6.98875 -9.67907,7.87617 -6.75067,0.66519 -7.41893,0.55643 -9.06409,-1.47526 -2.64993,-3.27252 -2.18797,-5.75715 1.47389,-7.92723 5.2998,-3.14075 5.9761,-4.0611 5.4541,-7.4223 -0.26669,-1.71727 -1.06377,-7.04218 -1.77128,-11.83315 -0.77526,-5.24967 -1.80753,-8.91083 -2.59795,-9.21414 -0.72135,-0.27681 -5.67386,1.05557 -11.00556,2.96085 -5.3317,1.90528 -9.83694,3.46414 -10.01165,3.46414 -0.98368,0 -0.0888,13.43638 1.17152,17.59107 1.83351,6.044 1.92449,10.82072 0.23285,12.22467 -0.70289,0.58334 -4.66651,1.36768 -8.80804,1.74298 -6.34359,0.57484 -7.79665,0.41576 -9.22203,-1.00961 z M 367.5,453.61693 c -1.65,-0.72399 -4.41496,-2.50897 -6.14436,-3.96664 C 359.62625,448.19263 357.71375,447 357.10564,447 356.49754,447 356,446.325 356,445.5 c 0,-1.68899 1.12813,-1.95095 2.55,-0.59213 C 360.04201,446.33371 368.76809,451 369.94244,451 370.5241,451 371,450.29286 371,449.42857 371,447.63258 373.33535,445 374.92857,445 375.51786,445 376,444.55 376,444 c 0,-1.94235 -3.76919,-0.99062 -4.31304,1.08905 -0.43306,1.65604 -0.91007,1.88547 -2.30134,1.10688 -1.1796,-0.66014 -2.33532,-0.61978 -3.52485,0.12309 -0.9734,0.6079 -2.06034,0.81474 -2.41543,0.45966 -0.9726,-0.97261 0.4634,-2.77868 2.20931,-2.77868 0.84513,0 2.86241,-0.94406 4.48284,-2.0979 2.01362,-1.43383 3.73789,-1.89921 5.44719,-1.4702 2.70786,0.67963 4.51441,3.70174 2.59523,4.34146 -0.64895,0.21632 -1.1866,0.91831 -1.19479,1.55997 -0.008,0.64167 -1.47068,2.83916 -3.25,4.88331 -3.10478,3.56689 -3.35599,3.6636 -6.23512,2.40029 z m -76.2533,-20.03891 -3.25329,-3.29992 2.07587,-2.63905 c 3.4205,-4.34846 6.99183,-3.22807 8.46885,2.65684 0.50209,2.00048 0.19946,3.33659 -1.0746,4.7444 -2.25751,2.49453 -2.33358,2.47664 -6.21683,-1.46227 z m 20.77214,-9.05532 c -1.08139,-1.30299 -1.02331,-2.44957 0.33751,-6.66309 0.90401,-2.7991 1.64365,-5.64286 1.64365,-6.31946 0,-0.67659 0.82696,-1.97856 1.83769,-2.89326 1.71724,-1.55408 1.94667,-1.54265 3.50062,0.17444 1.55174,1.71466 1.54127,2.33371 -0.15652,9.2581 -1.45495,5.93395 -2.22387,7.48032 -3.83813,7.71883 -1.11027,0.16404 -2.60644,-0.40996 -3.32482,-1.27556 z m -8.78045,-30.601 c -3.45148,-3.08391 -3.96915,-4.79094 -2.03839,-6.7217 3.14281,-3.14281 8.8,0.13165 8.8,5.09356 0,4.31562 -2.95692,5.02762 -6.76161,1.62814 z M 280.51522,273.83572 c -1.56011,-1.85408 -2.46379,-3.92437 -2.18251,-5 0.33325,-1.27434 -0.0655,-1.83572 -1.30388,-1.83572 -2.5613,0 -4.297,-2.33183 -2.82867,-3.80016 0.87011,-0.87011 0.73477,-1.61426 -0.55221,-3.03636 -1.34394,-1.48503 -1.49235,-2.44255 -0.70112,-4.52363 1.28347,-3.37579 4.05317,-3.51169 4.05317,-0.19887 0,1.34254 0.45165,2.72012 1.00367,3.06129 0.55202,0.34116 0.72929,1.71353 0.39393,3.0497 -0.43485,1.73258 -0.13259,2.61249 1.0538,3.06775 0.91495,0.3511 1.43943,1.22239 1.16551,1.93621 -0.27391,0.71381 0.15022,1.83584 0.94253,2.4934 0.79231,0.65756 1.44056,1.7931 1.44056,2.52342 0,0.73033 0.73818,1.74098 1.6404,2.24588 1.58017,0.88431 1.13935,3.18137 -0.61052,3.18137 -0.46865,0 -2.05025,-1.42393 -3.51466,-3.16428 z m -20.84637,-29.5002 C 259.30098,243.96765 259,242.79393 259,241.72725 c 0,-1.06667 -1.125,-2.82433 -2.5,-3.90591 C 253.45074,235.42279 253.29943,234 256.09362,234 c 1.25262,0 2.30371,-0.8034 2.61663,-2 0.52744,-2.01694 3.28975,-2.85661 3.28975,-1 0,0.55 0.675,1 1.5,1 2.56912,0 1.64224,2.78592 -1.24734,3.74911 l -2.74733,0.91578 2.24733,1.20274 c 1.23604,0.66151 2.24734,1.79216 2.24734,2.51257 0,1.6826 -3.45169,4.83478 -4.33115,3.95532 z"
       style="fill:#fbb602" />
    <path
       id="path9844"
       d="M 408.69196,491.54911 C 407.76138,490.61853 407,488.72809 407,487.34813 c 0,-2.01165 0.81838,-2.83049 4.12835,-4.13068 l 4.12835,-1.62166 -0.52565,-8.4254 c -0.30142,-4.8315 -1.02702,-8.73527 -1.70105,-9.15185 -0.64648,-0.39955 -5.4389,-1.0065 -10.64983,-1.3488 -5.97176,-0.39227 -10.27865,-1.18565 -11.6498,-2.14604 -1.19646,-0.83804 -3.59515,-1.5237 -5.33043,-1.5237 -1.73528,0 -3.6994,-0.6559 -4.36471,-1.45756 -0.79645,-0.95965 -2.19941,-1.2596 -4.10705,-0.87808 -4.63699,0.9274 -4.75419,-1.87168 -0.25351,-6.05481 3.94528,-3.66692 7.04407,-4.49081 9.1122,-2.42268 0.91584,0.91584 1.44058,0.45911 2.29783,-2 1.47155,-4.22128 3.0863,-4.06465 5.6653,0.54956 1.75749,3.14441 1.56062,4.26357 -0.75,4.26357 -1.35244,0 -2,-0.66667 -2,-2.05902 0,-1.13246 -0.38965,-1.8182 -0.86589,-1.52386 -0.47624,0.29433 -0.67273,1.55839 -0.43664,2.80901 0.31259,1.65588 -0.19788,2.54565 -1.87827,3.27387 -2.7116,1.17512 -3.74049,4.5 -1.39252,4.5 0.86532,0 1.57332,-0.44143 1.57332,-0.98095 0,-0.53952 1.2375,-1.27496 2.75,-1.63431 1.5125,-0.35935 3.425,-1.20446 4.25,-1.87802 2.89932,-2.36712 5.92618,-2.45019 7.49823,-0.20579 1.15994,1.65605 1.74681,1.85403 2.6925,0.90834 1.7752,-1.7752 5.89497,-1.47311 7.37432,0.54073 1.18199,1.60903 1.37012,1.52848 2.33549,-1 1.17863,-3.08701 2.57255,-3.51395 3.87488,-1.18681 0.71261,1.27335 1.0727,1.3197 1.94209,0.25 0.587,-0.72226 1.23336,-2.20802 1.43637,-3.30171 0.44752,-2.4111 3.84612,-3.36968 3.84612,-1.0848 0,1.87509 1.1455,2.02782 2.8,0.37332 1.63321,-1.63321 1.50819,-2.8 -0.3,-2.8 -0.825,0 -1.5,-0.64468 -1.5,-1.43261 0,-0.78794 -0.9,-1.71826 -2,-2.06739 -2.59448,-0.82346 -2.55137,-2.19023 0.0956,-3.03034 1.59524,-0.50631 2.74367,0.11118 4.80994,2.58625 l 2.71435,3.25135 7.19006,-7.11908 C 443.76447,434.27269 447,430.40511 447,429.59357 c 0,-0.81155 0.45,-1.75365 1,-2.09357 1.51136,-0.93407 1.19817,-2.5 -0.5,-2.5 -0.825,0 -1.5,-0.675 -1.5,-1.5 0,-1.78538 1.6629,-2.01131 2.23224,-0.30329 0.59604,1.78812 4.44516,-7.03274 5.32223,-12.19671 2.0822,-12.25948 -0.34876,-32.40482 -5.06818,-42 -1.75838,-3.575 -3.52304,-7.8464 -3.92146,-9.49199 -1.30417,-5.38658 -14.5469,-25.4063 -18.75605,-28.3545 -2.55502,-1.7896 -4.76352,0.16001 -8.13606,7.1823 -1.36409,2.8403 -4.77349,7.39727 -7.57644,10.1266 -5.58245,5.4358 -6.09423,7.32736 -3.11464,11.5118 3.45266,4.84882 8.03479,17.71988 8.97553,25.21202 1.08996,8.68044 -0.16025,21.37189 -2.56306,26.01884 C 409.62895,418.48678 402.64438,424 397.18452,424 c -1.60314,0 -4.11437,0.94358 -5.58051,2.09684 -1.86778,1.4692 -3.03063,1.79532 -3.88486,1.08949 -0.67053,-0.55405 -2.91162,-1.32364 -4.9802,-1.71021 -2.06857,-0.38656 -4.00763,-1.10183 -4.30901,-1.58948 C 378.12855,423.39899 377.05611,423 376.04674,423 c -1.00938,0 -3.28041,-1.35 -5.04674,-3 -1.76633,-1.65 -3.79014,-3 -4.49735,-3 -0.70721,0 -1.54298,-1.02457 -1.85728,-2.27682 -0.31429,-1.25225 -2.18896,-4.16652 -4.16593,-6.47617 -1.97697,-2.30964 -4.50992,-6.91007 -5.62877,-10.22318 C 353.73182,394.71072 352.54439,392 352.21195,392 c -0.33245,0 -2.33626,1.20015 -4.45292,2.667 -2.58738,1.79305 -5.2265,2.69419 -8.05376,2.75 -3.89969,0.077 -4.22888,-0.12325 -4.53023,-2.75543 -0.38618,-3.37324 1.8017,-6.09695 7.04859,-8.77485 3.39464,-1.73255 3.67433,-2.18699 3.16565,-5.14359 -0.30689,-1.78372 -1.03456,-4.50464 -1.61706,-6.0465 -1.39172,-3.6839 -0.29108,-17.81759 1.88483,-24.20353 1.05921,-3.1086 3.3662,-6.59724 6.26015,-9.4666 5.7963,-5.74706 12.9586,-7.66101 23.0828,-6.16831 8.19885,1.20883 11.14176,2.35786 15.96365,6.23284 4.43491,3.56399 6.90239,3.33724 9.57634,-0.88002 0.9454,-1.49106 2.72364,-3.83601 3.95164,-5.21101 C 407.02567,332.1626 414,319.42707 414,317.63715 c 0,-1.75699 -16.15741,-17.23912 -27,-25.87155 -5.225,-4.15994 -11.3,-9.44167 -13.5,-11.73718 -2.2,-2.29551 -6.80857,-6.18591 -10.24127,-8.64534 -3.4327,-2.45942 -6.8077,-5.5352 -7.5,-6.83506 -1.40164,-2.63172 -9.89918,-11.93872 -13.76251,-15.0735 -1.37292,-1.11402 -4.7076,-4.48902 -7.4104,-7.5 -10.54891,-11.75174 -23.76744,-24.89739 -25.6298,-25.48848 C 307.88021,216.14459 307,215.54584 307,215.15547 c 0,-0.39036 -1.35808,-2.27254 -3.01794,-4.18261 -7.64229,-8.79426 -19.83613,-17.47134 -23.09764,-16.43618 -1.40846,0.44703 -1.88442,0.10294 -1.88442,-1.3623 0,-1.07822 -0.7118,-2.23355 -1.58179,-2.56739 -2.51825,-0.96635 -7.21933,-0.70362 -7.59537,0.42448 -0.23154,0.69464 -1.41837,0.65689 -3.63438,-0.11562 -1.8098,-0.6309 -3.44399,-0.98256 -3.63152,-0.78147 -0.18753,0.20109 -0.0228,2.42481 0.3661,4.94159 0.67951,4.39762 0.61684,4.55873 -1.60799,4.13343 -1.83028,-0.34988 -2.31505,6.6e-4 -2.31505,1.67402 0,1.52524 0.62861,2.11947 2.25,2.12691 1.68579,0.008 1.12158,0.58336 -2.25,2.29549 -3.49114,1.77284 -4.4466,2.77939 -4.26179,4.48967 0.27209,2.51802 -1.45644,2.86225 -4.22119,0.84062 -1.81487,-1.32707 -1.81005,-1.48231 0.17842,-5.75 1.12401,-2.41236 2.35768,-5.39861 2.7415,-6.63611 0.38696,-1.24767 1.50423,-2.25 2.508,-2.25 2.67583,0 4.23752,-2.42483 3.48717,-5.41449 -0.48488,-1.93188 0.007,-3.47194 1.90049,-5.95492 3.0948,-4.05749 6.74481,-5.87477 17.47392,-8.69996 7.31114,-1.92517 9.1209,-2.04474 16.93957,-1.11917 8.92736,1.0568 19.55865,5.02617 30.54792,11.40557 2.6367,1.53063 5.03069,2.78297 5.31996,2.78297 1.51433,0 16.40609,9.72256 19.65081,12.82966 2.07063,1.98281 6.63524,5.41978 10.14358,7.63772 9.1673,5.79549 14.18043,9.45379 19.52795,14.2504 6.63353,5.95013 24.04727,15.40305 39.9843,21.70516 7.46866,2.9534 14.70439,5.70576 16.07939,6.11635 2.77297,0.82804 21.49817,12.83971 22.47172,14.41495 0.33901,0.54853 2.95906,2.5689 5.82233,4.4897 5.67317,3.80581 15.26018,13.28704 18.2575,18.05606 1.03703,1.65 4.07057,5.475 6.7412,8.5 7.52756,8.52638 13.98007,22.97704 18.61315,41.68492 5.13746,20.74447 5.96956,32.59421 3.07675,43.81508 -2.31832,8.99248 -9.49898,26.95271 -11.99426,30 -0.90074,1.1 -3.25402,4.475 -5.22951,7.5 -4.94919,7.57852 -10.93849,13.04052 -19.64775,17.91794 -4.06388,2.27589 -8.61609,5.13789 -10.11604,6.36002 -1.49994,1.22212 -3.54533,2.7024 -4.54532,3.28952 -1.58199,0.92881 -1.78695,2.28444 -1.57788,10.43624 0.13216,5.15282 0.54226,9.84746 0.91133,10.43252 0.36908,0.58507 0.97907,3.53876 1.35554,6.56376 0.37647,3.025 0.9977,7.33191 1.38051,9.57092 0.96675,5.6543 -0.67317,6.98875 -9.67907,7.87617 -6.75067,0.66519 -7.41893,0.55643 -9.06409,-1.47526 -2.64993,-3.27252 -2.18797,-5.75715 1.47389,-7.92723 5.2998,-3.14075 5.9761,-4.0611 5.4541,-7.4223 -0.26669,-1.71727 -1.06377,-7.04218 -1.77128,-11.83315 -0.77526,-5.24967 -1.80753,-8.91083 -2.59795,-9.21414 -0.72135,-0.27681 -5.67386,1.05557 -11.00556,2.96085 -5.3317,1.90528 -9.83694,3.46414 -10.01165,3.46414 -0.98368,0 -0.0888,13.43638 1.17152,17.59107 1.83351,6.044 1.92449,10.82072 0.23285,12.22467 -0.70289,0.58334 -4.66651,1.36768 -8.80804,1.74298 -6.34359,0.57484 -7.79665,0.41576 -9.22203,-1.00961 z M 367.5,453.61693 c -1.65,-0.72399 -4.41496,-2.50897 -6.14436,-3.96664 C 359.62625,448.19263 357.71375,447 357.10564,447 356.49754,447 356,446.325 356,445.5 c 0,-1.68899 1.12813,-1.95095 2.55,-0.59213 C 360.04201,446.33371 368.76809,451 369.94244,451 370.5241,451 371,450.29286 371,449.42857 371,447.63258 373.33535,445 374.92857,445 375.51786,445 376,444.55 376,444 c 0,-1.94235 -3.76919,-0.99062 -4.31304,1.08905 -0.43306,1.65604 -0.91007,1.88547 -2.30134,1.10688 -1.1796,-0.66014 -2.33532,-0.61978 -3.52485,0.12309 -0.9734,0.6079 -2.06034,0.81474 -2.41543,0.45966 -0.9726,-0.97261 0.4634,-2.77868 2.20931,-2.77868 0.84513,0 2.86241,-0.94406 4.48284,-2.0979 2.01362,-1.43383 3.73789,-1.89921 5.44719,-1.4702 2.70786,0.67963 4.51441,3.70174 2.59523,4.34146 -0.64895,0.21632 -1.1866,0.91831 -1.19479,1.55997 -0.008,0.64167 -1.47068,2.83916 -3.25,4.88331 -3.10478,3.56689 -3.35599,3.6636 -6.23512,2.40029 z m -76.2533,-20.03891 -3.25329,-3.29992 2.07587,-2.63905 c 3.4205,-4.34846 6.99183,-3.22807 8.46885,2.65684 0.50209,2.00048 0.19946,3.33659 -1.0746,4.7444 -2.25751,2.49453 -2.33358,2.47664 -6.21683,-1.46227 z m 20.77214,-9.05532 c -1.08139,-1.30299 -1.02331,-2.44957 0.33751,-6.66309 0.90401,-2.7991 1.64365,-5.64286 1.64365,-6.31946 0,-0.67659 0.82696,-1.97856 1.83769,-2.89326 1.71724,-1.55408 1.94667,-1.54265 3.50062,0.17444 1.55174,1.71466 1.54127,2.33371 -0.15652,9.2581 -1.45495,5.93395 -2.22387,7.48032 -3.83813,7.71883 -1.11027,0.16404 -2.60644,-0.40996 -3.32482,-1.27556 z m -59.90067,-25.40747 c -3.40198,-2.20643 2.07424,-12.66388 9.65977,-18.4464 1.49714,-1.14128 5.02484,-4.14592 7.83935,-6.67699 2.8145,-2.53108 8.84612,-6.52766 13.40358,-8.8813 4.55746,-2.35364 10.07393,-5.47887 12.25882,-6.94495 10.8624,-7.28874 10.93183,-7.29695 13.32234,-1.57563 1.51364,3.62265 1.88044,7.82625 0.61464,7.04395 -1.22688,-0.75826 -14.60361,2.04035 -21.48784,4.49556 C 281.16789,370.46939 268,378.3127 268,379.88074 c 0,0.5066 -2.08882,3.69984 -4.64182,7.09608 -2.55301,3.39625 -4.93217,7.60334 -5.28703,9.34909 -0.67386,3.31506 -3.26815,4.53064 -5.95298,2.78932 z m 51.12022,-5.19353 c -3.45148,-3.08391 -3.96915,-4.79094 -2.03839,-6.7217 3.14281,-3.14281 8.8,0.13165 8.8,5.09356 0,4.31562 -2.95692,5.02762 -6.76161,1.62814 z M 280.51522,273.83572 c -1.56011,-1.85408 -2.46379,-3.92437 -2.18251,-5 0.33325,-1.27434 -0.0655,-1.83572 -1.30388,-1.83572 -2.5613,0 -4.297,-2.33183 -2.82867,-3.80016 0.87011,-0.87011 0.73477,-1.61426 -0.55221,-3.03636 -1.34394,-1.48503 -1.49235,-2.44255 -0.70112,-4.52363 1.28347,-3.37579 4.05317,-3.51169 4.05317,-0.19887 0,1.34254 0.45165,2.72012 1.00367,3.06129 0.55202,0.34116 0.72929,1.71353 0.39393,3.0497 -0.43485,1.73258 -0.13259,2.61249 1.0538,3.06775 0.91495,0.3511 1.43943,1.22239 1.16551,1.93621 -0.27391,0.71381 0.15022,1.83584 0.94253,2.4934 0.79231,0.65756 1.44056,1.7931 1.44056,2.52342 0,0.73033 0.73818,1.74098 1.6404,2.24588 1.58017,0.88431 1.13935,3.18137 -0.61052,3.18137 -0.46865,0 -2.05025,-1.42393 -3.51466,-3.16428 z m -20.84637,-29.5002 C 259.30098,243.96765 259,242.79393 259,241.72725 c 0,-1.06667 -1.125,-2.82433 -2.5,-3.90591 C 253.45074,235.42279 253.29943,234 256.09362,234 c 1.25262,0 2.30371,-0.8034 2.61663,-2 0.52744,-2.01694 3.28975,-2.85661 3.28975,-1 0,0.55 0.675,1 1.5,1 2.56912,0 1.64224,2.78592 -1.24734,3.74911 l -2.74733,0.91578 2.24733,1.20274 c 1.23604,0.66151 2.24734,1.79216 2.24734,2.51257 0,1.6826 -3.45169,4.83478 -4.33115,3.95532 z"
       style="fill:#87a15e" />
    <path
       id="path9842"
       d="m 409.75,491.95871 c -0.97488,-0.58943 -1.7488,-2.25413 -1.7473,-3.7584 0.002,-2.09256 0.8461,-3.1551 3.75,-4.721 3.49527,-1.88479 3.7424,-2.32196 3.67446,-6.5 -0.0401,-2.46362 -0.39746,-6.56565 -0.79422,-9.11563 l -0.72139,-4.63632 -6.20578,-0.56734 c -9.56565,-0.8745 -25.52025,-4.0745 -26.82628,-5.38053 -0.6587,-0.6587 -2.4133,-0.92273 -4.00992,-0.6034 -4.57722,0.91544 -4.66796,-1.90907 -0.1949,-6.06654 3.94528,-3.66692 7.04407,-4.49081 9.1122,-2.42268 0.91584,0.91584 1.44058,0.45911 2.29783,-2 1.47155,-4.22128 3.0863,-4.06465 5.6653,0.54956 1.75749,3.14441 1.56062,4.26357 -0.75,4.26357 -1.35244,0 -2,-0.66667 -2,-2.05902 0,-1.13246 -0.38965,-1.8182 -0.86589,-1.52386 -0.47624,0.29433 -0.67273,1.55839 -0.43664,2.80901 0.31259,1.65588 -0.19788,2.54565 -1.87827,3.27387 -2.7116,1.17512 -3.74049,4.5 -1.39252,4.5 0.86532,0 1.57332,-0.44143 1.57332,-0.98095 0,-0.53952 1.2375,-1.27496 2.75,-1.63431 1.5125,-0.35935 3.425,-1.20446 4.25,-1.87802 2.89932,-2.36712 5.92618,-2.45019 7.49823,-0.20579 1.15994,1.65605 1.74681,1.85403 2.6925,0.90834 1.7752,-1.7752 5.89497,-1.47311 7.37432,0.54073 1.18199,1.60903 1.37012,1.52848 2.33549,-1 1.17863,-3.08701 2.57255,-3.51395 3.87488,-1.18681 0.71261,1.27335 1.0727,1.3197 1.94209,0.25 0.587,-0.72226 1.23336,-2.20802 1.43637,-3.30171 0.44752,-2.4111 3.84612,-3.36968 3.84612,-1.0848 0,1.87509 1.1455,2.02782 2.8,0.37332 1.63321,-1.63321 1.50819,-2.8 -0.3,-2.8 -0.825,0 -1.5,-0.64468 -1.5,-1.43261 0,-0.78794 -0.9,-1.71826 -2,-2.06739 -2.59448,-0.82346 -2.55137,-2.19023 0.0956,-3.03034 1.59524,-0.50631 2.74367,0.11118 4.80994,2.58625 l 2.71435,3.25135 7.19006,-7.11908 C 443.76447,434.27269 447,430.40511 447,429.59357 c 0,-0.81155 0.45,-1.75365 1,-2.09357 1.51136,-0.93407 1.19817,-2.5 -0.5,-2.5 -0.825,0 -1.5,-0.675 -1.5,-1.5 0,-1.81535 1.64959,-1.99485 2.29747,-0.25 0.25527,0.6875 0.9938,-0.0852 1.64117,-1.71723 0.64737,-1.63198 1.65081,-3.53808 2.22986,-4.2358 2.03043,-2.44652 2.66332,-19.2195 1.25637,-33.29697 -0.56082,-5.6114 -1.71595,-9.50119 -4.58722,-15.4471 C 446.72694,364.18199 445,359.91774 445,359.07679 c 0,-2.48405 -10.57055,-19.21733 -15.86946,-25.1215 -4.8201,-5.37068 -4.92778,-5.42674 -6.94226,-3.61458 -1.12542,1.01239 -3.43653,4.63657 -5.13579,8.05373 -1.90016,3.82117 -4.81481,7.65515 -7.57103,9.95906 -5.07784,4.24455 -5.6983,7.12886 -2.49982,11.62071 3.45266,4.84882 8.03479,17.71988 8.97553,25.21202 1.08996,8.68044 -0.16025,21.37189 -2.56306,26.01884 C 409.62895,418.48678 402.64438,424 397.18452,424 c -1.60314,0 -4.11437,0.94358 -5.58051,2.09684 -1.86778,1.4692 -3.03063,1.79532 -3.88486,1.08949 -0.67053,-0.55405 -2.91162,-1.32364 -4.9802,-1.71021 -2.06857,-0.38656 -4.00763,-1.10183 -4.30901,-1.58948 C 378.12855,423.39899 377.05611,423 376.04674,423 c -1.00938,0 -3.28041,-1.35 -5.04674,-3 -1.76633,-1.65 -3.79014,-3 -4.49735,-3 -0.70721,0 -1.54298,-1.02457 -1.85728,-2.27682 -0.31429,-1.25225 -2.18896,-4.16652 -4.16593,-6.47617 -1.97697,-2.30964 -4.50992,-6.91007 -5.62877,-10.22318 C 353.73182,394.71072 352.54439,392 352.21195,392 c -0.33245,0 -2.33626,1.20015 -4.45292,2.667 -2.58738,1.79305 -5.2265,2.69419 -8.05376,2.75 -3.89969,0.077 -4.22888,-0.12325 -4.53023,-2.75543 -0.38618,-3.37324 1.8017,-6.09695 7.04859,-8.77485 3.39464,-1.73255 3.67433,-2.18699 3.16565,-5.14359 -0.30689,-1.78372 -1.03456,-4.50464 -1.61706,-6.0465 -1.39172,-3.6839 -0.29108,-17.81759 1.88483,-24.20353 1.05921,-3.1086 3.3662,-6.59724 6.26015,-9.4666 5.7963,-5.74706 12.9586,-7.66101 23.0828,-6.16831 8.1876,1.20718 11.29609,2.41598 15.83605,6.1582 4.2942,3.53964 6.56512,3.75005 8.92374,0.82683 0.95711,-1.18623 3.13651,-3.77373 4.8431,-5.75 1.70659,-1.97627 4.83467,-7.07207 6.95127,-11.32401 l 3.84837,-7.73079 -10.00483,-9.76921 c -5.50266,-5.37306 -12.90573,-12.00801 -16.45127,-14.74432 -3.54553,-2.73632 -9.60636,-8.00041 -13.46849,-11.69798 -3.86213,-3.69757 -8.95995,-8.02437 -11.32848,-9.61509 -2.36853,-1.59073 -7.50176,-6.45164 -11.40718,-10.80202 -3.90542,-4.35039 -8.4826,-9.01351 -10.17152,-10.36249 -1.68892,-1.34898 -5.26933,-4.94898 -7.95648,-8 -9.43973,-10.718 -23.72265,-24.94693 -25.65826,-25.56127 C 307.88021,216.14459 307,215.54584 307,215.15547 c 0,-0.39036 -1.35808,-2.27254 -3.01794,-4.18261 -7.64229,-8.79426 -19.83613,-17.47134 -23.09764,-16.43618 -1.40846,0.44703 -1.88442,0.10294 -1.88442,-1.3623 0,-1.07822 -0.7118,-2.23355 -1.58179,-2.56739 -2.51825,-0.96635 -7.21933,-0.70362 -7.59537,0.42448 -0.23154,0.69464 -1.41837,0.65689 -3.63438,-0.11562 -1.8098,-0.6309 -3.44399,-0.98256 -3.63152,-0.78147 -0.18753,0.20109 -0.0228,2.42481 0.3661,4.94159 0.67951,4.39762 0.61684,4.55873 -1.60799,4.13343 -1.83028,-0.34988 -2.31505,6.6e-4 -2.31505,1.67402 0,1.52524 0.62861,2.11947 2.25,2.12691 1.68579,0.008 1.12158,0.58336 -2.25,2.29549 -3.49114,1.77284 -4.4466,2.77939 -4.26179,4.48967 0.27209,2.51802 -1.45644,2.86225 -4.22119,0.84062 -1.81487,-1.32707 -1.81005,-1.48231 0.17842,-5.75 1.12401,-2.41236 2.35768,-5.39861 2.7415,-6.63611 0.38696,-1.24767 1.50423,-2.25 2.508,-2.25 2.30037,0 4.1361,-2.18295 3.88239,-4.61671 -0.35126,-3.36949 2.15793,-7.94235 5.45121,-9.93454 8.99685,-5.44244 25.70747,-7.88721 36.72146,-5.37237 5.07909,1.15972 27.56955,11.96819 37.7657,18.14944 3.70387,2.24541 9.16588,6.24468 12.13781,8.88727 2.97193,2.6426 6.85435,5.49319 8.62761,6.33465 1.77326,0.84147 5.40843,3.33496 8.07816,5.5411 2.66973,2.20614 5.17362,4.01116 5.5642,4.01116 0.39057,0 3.2937,2.26082 6.45139,5.02404 3.15769,2.76323 8.24638,6.41363 11.30819,8.11202 3.06182,1.69838 8.28711,4.58984 11.61175,6.42545 3.32465,1.83562 9.62465,4.68552 14,6.33311 4.37536,1.6476 11.47356,4.33638 15.77379,5.97507 12.17945,4.64124 35.79107,21.3415 44.52246,31.49028 17.08183,19.85479 24.87079,33.0832 28.63953,48.64003 0.99931,4.125 2.67464,10.425 3.72295,14 1.87404,6.39089 3.34951,19.62772 3.06639,27.50937 -0.37501,10.43966 -9.53865,34.23723 -17.51692,45.49063 -6.36768,8.98167 -12.96359,15.06062 -21.56716,19.87683 -4.02278,2.25192 -9.31028,5.73008 -11.75,7.72925 L 458,449.24092 l 0,8.4292 c 0,5.14133 0.53289,9.48249 1.36619,11.12954 0.7514,1.48519 1.67289,6.61339 2.04776,11.396 0.65412,8.34548 0.58903,8.75333 -1.61619,10.12809 -3.23448,2.0164 -14.11093,2.20875 -15.7134,0.2779 -2.19294,-2.64234 -0.86799,-5.96306 3.16564,-7.93401 4.31073,-2.10634 4.48572,-3.1711 2.69146,-16.37679 C 448.30215,454.22564 448.22378,454 445.67235,454 c -2.5914,0 -18.49178,5.60525 -20.40532,7.19335 -1.39831,1.16049 -1.03168,10.51012 0.67866,17.30665 1.59529,6.33933 1.31631,11.29181 -0.69569,12.35021 -2.87336,1.51152 -13.5684,2.27639 -15.5,1.1085 z M 367.5,453.61693 c -1.65,-0.72399 -4.41496,-2.50897 -6.14436,-3.96664 C 359.62625,448.19263 357.71375,447 357.10564,447 356.49754,447 356,446.325 356,445.5 c 0,-1.68899 1.12813,-1.95095 2.55,-0.59213 C 360.04201,446.33371 368.76809,451 369.94244,451 370.5241,451 371,450.29286 371,449.42857 371,447.63258 373.33535,445 374.92857,445 375.51786,445 376,444.55 376,444 c 0,-1.94235 -3.76919,-0.99062 -4.31304,1.08905 -0.43306,1.65604 -0.91007,1.88547 -2.30134,1.10688 -1.1796,-0.66014 -2.33532,-0.61978 -3.52485,0.12309 -0.9734,0.6079 -2.06034,0.81474 -2.41543,0.45966 -0.9726,-0.97261 0.4634,-2.77868 2.20931,-2.77868 0.84513,0 2.86241,-0.94406 4.48284,-2.0979 2.01362,-1.43383 3.73789,-1.89921 5.44719,-1.4702 2.70786,0.67963 4.51441,3.70174 2.59523,4.34146 -0.64895,0.21632 -1.1866,0.91831 -1.19479,1.55997 -0.008,0.64167 -1.47068,2.83916 -3.25,4.88331 -3.10478,3.56689 -3.35599,3.6636 -6.23512,2.40029 z m -74.66421,-19.49575 c -0.88478,-1.03335 -2.22229,-2.08471 -2.97224,-2.33636 -1.14751,-0.38505 -1.14322,-0.87118 0.027,-3.06815 1.83077,-3.43694 3.97194,-4.15105 6.25403,-2.08579 2.09936,1.89989 2.45772,6.36678 0.65538,8.16912 -1.60588,1.60588 -2.07708,1.5252 -3.96421,-0.67882 z m 19.38349,-9.35696 c -1.15174,-1.38777 -1.1457,-3.49288 0.0154,-5.34838 0.37312,-0.59628 0.9403,-2.57076 1.26041,-4.38773 1.14922,-6.52318 3.79331,-8.79543 6.4749,-5.56432 0.95976,1.15644 0.89197,2.46874 -0.32288,6.25 -0.84575,2.63242 -1.67483,5.91121 -1.8424,7.28621 -0.34651,2.84332 -3.78773,3.93027 -5.58539,1.76422 z m -60.78201,-27.06709 c -2.15045,-5.60399 16.99431,-24.74271 32.60779,-32.59751 4.10022,-2.06272 9.43014,-5.06648 11.84428,-6.67501 9.52349,-6.34548 11.19208,-6.4984 13.04078,-1.19521 1.42295,4.08186 1.42788,7.5286 0.009,6.10946 -0.74819,-0.74819 -2.14906,-0.67266 -4.75,0.2561 -2.02887,0.72449 -4.47238,1.33701 -5.43001,1.36115 C 292.41758,365.11596 268,376.93388 268,379.84315 c 0,0.48591 -2.25,3.9315 -5,7.65685 -2.75,3.72535 -5,7.83686 -5,9.13668 0,1.96468 -0.51133,2.36332 -3.03138,2.36332 -1.66727,0 -3.25637,-0.58629 -3.53135,-1.30287 z m 51.07752,-4.92607 -2.9852,-2.97172 2.34599,-1.89967 c 2.92889,-2.37167 3.24872,-2.36417 5.93586,0.13929 2.42722,2.2613 2.8177,4.9319 0.98856,6.76104 -1.71733,1.71733 -2.90807,1.33295 -6.28521,-2.02894 z M 280.51522,273.83572 c -1.56011,-1.85408 -2.46379,-3.92437 -2.18251,-5 0.33325,-1.27434 -0.0655,-1.83572 -1.30388,-1.83572 -2.5613,0 -4.297,-2.33183 -2.82867,-3.80016 0.87011,-0.87011 0.73477,-1.61426 -0.55221,-3.03636 -1.34394,-1.48503 -1.49235,-2.44255 -0.70112,-4.52363 1.28347,-3.37579 4.05317,-3.51169 4.05317,-0.19887 0,1.34254 0.45165,2.72012 1.00367,3.06129 0.55202,0.34116 0.72929,1.71353 0.39393,3.0497 -0.43485,1.73258 -0.13259,2.61249 1.0538,3.06775 0.91495,0.3511 1.43943,1.22239 1.16551,1.93621 -0.27391,0.71381 0.15022,1.83584 0.94253,2.4934 0.79231,0.65756 1.44056,1.7931 1.44056,2.52342 0,0.73033 0.73818,1.74098 1.6404,2.24588 1.58017,0.88431 1.13935,3.18137 -0.61052,3.18137 -0.46865,0 -2.05025,-1.42393 -3.51466,-3.16428 z m -20.84637,-29.5002 C 259.30098,243.96765 259,242.79393 259,241.72725 c 0,-1.06667 -1.125,-2.82433 -2.5,-3.90591 C 253.45074,235.42279 253.29943,234 256.09362,234 c 1.25262,0 2.30371,-0.8034 2.61663,-2 0.52744,-2.01694 3.28975,-2.85661 3.28975,-1 0,0.55 0.675,1 1.5,1 2.56912,0 1.64224,2.78592 -1.24734,3.74911 l -2.74733,0.91578 2.24733,1.20274 c 1.23604,0.66151 2.24734,1.79216 2.24734,2.51257 0,1.6826 -3.45169,4.83478 -4.33115,3.95532 z"
       style="fill:#86c634" />
    <path
       id="path9840"
       d="m 409.75,491.95871 c -0.97488,-0.58943 -1.7488,-2.25413 -1.7473,-3.7584 0.002,-2.09256 0.8461,-3.1551 3.75,-4.721 3.49527,-1.88479 3.7424,-2.32196 3.67446,-6.5 -0.0401,-2.46362 -0.40513,-6.61681 -0.81127,-9.22931 l -0.73844,-4.75 -5.18872,-0.0761 C 405.83493,462.8821 401.925,462.27863 400,461.58294 l -3.5,-1.26489 6.33239,-0.71801 c 3.48281,-0.39491 7.30781,-1.1215 8.5,-1.61465 1.19219,-0.49315 5.31761,-2.11025 9.16761,-3.59355 13.83277,-5.3294 26.90641,-18.58347 29.90645,-30.31921 0.90367,-3.53504 2.05807,-6.92744 2.56534,-7.53866 2.30131,-2.77291 3.00939,-14.00054 1.51201,-23.97534 C 453.66771,387.12223 453,381.43102 453,379.91152 c 0,-1.51951 -1.8,-6.48492 -4,-11.03423 -2.2,-4.54932 -4,-8.95955 -4,-9.8005 0,-2.48405 -10.57055,-19.21733 -15.86946,-25.1215 -4.8201,-5.37068 -4.92778,-5.42674 -6.94226,-3.61458 -1.12542,1.01239 -3.43653,4.63657 -5.13579,8.05373 -1.90016,3.82117 -4.81481,7.65515 -7.57103,9.95906 -2.4648,2.06033 -4.48146,4.29432 -4.48146,4.96443 0,2.75685 -24.63118,25.34923 -30.74673,28.20174 -2.0643,0.96286 -6.75678,3.48983 -10.42774,5.61549 -3.67096,2.12566 -7.53131,3.86484 -8.57856,3.86484 -1.04724,0 -4.05934,1.42759 -6.69355,3.17241 -3.33469,2.20881 -6.04453,3.19598 -8.92144,3.25 -4.07037,0.0764 -4.13198,0.0254 -4.13198,-3.42241 0,-3.10165 0.56907,-3.86849 5,-6.73764 2.75,-1.78069 6.66444,-4.68104 8.69875,-6.4452 2.03431,-1.76416 4.95931,-3.84944 6.5,-4.63396 1.54069,-0.78451 3.70125,-2.1969 4.80125,-3.13863 1.1,-0.94174 4.25,-2.98353 7,-4.53733 6.43215,-3.63427 9.53153,-6.08185 21.32103,-16.8372 15.21092,-13.87667 17.7388,-16.86799 22.73313,-26.90083 l 3.84837,-7.73079 -10.00483,-9.76921 c -5.50266,-5.37306 -12.90573,-12.00652 -16.45127,-14.741 C 385.4009,289.79372 379.125,284.37386 375,280.48407 c -4.125,-3.88979 -9.48963,-8.40248 -11.92141,-10.02821 -2.43177,-1.62572 -5.58177,-4.54614 -7,-6.48981 -3.56275,-4.88274 -19.80458,-21.81518 -43.29735,-45.13837 -16.04277,-15.92696 -21.35007,-20.55754 -27.87636,-24.3219 C 273.08597,187.68864 264.27386,185.12984 262.5,188 c -1.33041,2.15265 -2.34774,0.86167 -1.41944,-1.80125 2.72756,-7.82429 25.89003,-13.55406 40.91944,-10.12237 5.07909,1.15972 27.56955,11.96819 37.7657,18.14944 3.70387,2.24541 9.16588,6.24468 12.13781,8.88727 2.97193,2.6426 6.85435,5.49319 8.62761,6.33465 1.77326,0.84147 5.40843,3.33496 8.07816,5.5411 2.66973,2.20614 5.17362,4.01116 5.5642,4.01116 0.39057,0 3.2937,2.26082 6.45139,5.02404 3.15769,2.76323 8.24638,6.41363 11.30819,8.11202 3.06182,1.69838 8.28711,4.58984 11.61175,6.42545 3.32465,1.83562 9.62465,4.68552 14,6.33311 4.37536,1.6476 11.47356,4.33638 15.77379,5.97507 12.17945,4.64124 35.79107,21.3415 44.52246,31.49028 17.08183,19.85479 24.87079,33.0832 28.63953,48.64003 0.99931,4.125 2.67464,10.425 3.72295,14 1.87404,6.39089 3.34951,19.62772 3.06639,27.50937 -0.37501,10.43966 -9.53865,34.23723 -17.51692,45.49063 -6.36768,8.98167 -12.96359,15.06062 -21.56716,19.87683 -4.02278,2.25192 -9.31028,5.73008 -11.75,7.72925 L 458,449.24092 l 0,8.4292 c 0,5.14133 0.53289,9.48249 1.36619,11.12954 0.7514,1.48519 1.67289,6.61339 2.04776,11.396 0.65412,8.34548 0.58903,8.75333 -1.61619,10.12809 -3.23448,2.0164 -14.11093,2.20875 -15.7134,0.2779 -2.19294,-2.64234 -0.86799,-5.96306 3.16564,-7.93401 4.31073,-2.10634 4.48572,-3.1711 2.69146,-16.37679 C 448.30215,454.22564 448.22378,454 445.67235,454 c -2.5914,0 -18.49178,5.60525 -20.40532,7.19335 -1.39831,1.16049 -1.03168,10.51012 0.67866,17.30665 1.59529,6.33933 1.31631,11.29181 -0.69569,12.35021 -2.87336,1.51152 -13.5684,2.27639 -15.5,1.1085 z M 292.83579,434.12118 c -0.88478,-1.03335 -2.22229,-2.08471 -2.97224,-2.33636 -1.14751,-0.38505 -1.14322,-0.87118 0.027,-3.06815 1.83077,-3.43694 3.97194,-4.15105 6.25403,-2.08579 2.09936,1.89989 2.45772,6.36678 0.65538,8.16912 -1.60588,1.60588 -2.07708,1.5252 -3.96421,-0.67882 z m 19.31896,-9.43471 c -1.03544,-1.24764 0.17614,-7.19058 2.94316,-14.43647 0.98517,-2.57985 3.6795,-2.99363 4.55956,-0.70024 0.70261,1.83097 -1.52664,13.39742 -2.9296,15.20024 -1.2603,1.61949 -3.19868,1.59256 -4.57312,-0.0635 z m -60.71748,-26.98934 c -2.15045,-5.60399 16.99431,-24.74271 32.60779,-32.59751 4.10022,-2.06272 9.43014,-5.06648 11.84428,-6.67501 8.02553,-5.34739 9.16305,-5.80451 10.65283,-4.28092 0.72942,0.74597 1.62049,2.55745 1.98015,4.02551 0.82184,3.35454 -1.70547,5.15182 -9.52232,6.77173 -3.025,0.62689 -8.2,2.10059 -11.5,3.2749 -6.29804,2.24117 -19.5,10.11314 -19.5,11.62732 0,0.48591 -2.25,3.9315 -5,7.65685 -2.75,3.72535 -5,7.83686 -5,9.13668 0,1.96468 -0.51133,2.36332 -3.03138,2.36332 -1.66727,0 -3.25637,-0.58629 -3.53135,-1.30287 z m 51.07752,-4.92607 -2.9852,-2.97172 2.34599,-1.89967 c 2.92889,-2.37167 3.24872,-2.36417 5.93586,0.13929 2.42722,2.2613 2.8177,4.9319 0.98856,6.76104 -1.71733,1.71733 -2.90807,1.33295 -6.28521,-2.02894 z"
       style="fill:#749349" />
    <path
       id="path9838"
       d="m 409.13895,489.89329 c -1.20357,-3.19126 0.11668,-5.43815 3.98849,-6.78787 l 3.16966,-1.10495 -0.60673,-8.59738 c -0.66548,-9.42993 -1.61642,-11.3853 -5.56281,-11.43853 L 407.5,461.92916 410,460.5007 c 1.375,-0.78566 4.75,-2.17503 7.5,-3.08749 2.75,-0.91246 5.45,-2.08037 6,-2.59535 0.63255,-0.59227 0.2651,-0.70545 -1,-0.30801 -1.41456,0.4444 -1.2682,0.17939 0.5,-0.90531 2.69078,-1.65068 5.49236,-2.2152 3,-0.60451 -0.825,0.53316 -1.02351,0.97627 -0.44113,0.98469 0.58238,0.008 1.93238,-0.69306 3,-1.55885 1.06762,-0.86578 1.37863,-1.28923 0.69113,-0.94098 -2.67069,1.35281 -1.0071,-0.38066 4.57121,-4.76323 3.20167,-2.51537 7.7452,-7.06725 10.09674,-10.11527 2.35153,-3.04803 4.74088,-5.44388 5.30965,-5.32412 0.56878,0.11977 1.61782,-2.25724 2.33121,-5.28224 0.71339,-3.025 2.21962,-7.525 3.34717,-10 2.59526,-5.69664 2.65237,-13.49006 0.2162,-29.5 -1.4269,-9.37727 -2.62332,-13.63304 -5.47409,-19.47179 C 447.64164,362.91873 446,358.93949 446,358.18545 c 0,-4.31124 -19.26941,-31.22547 -22.30896,-31.15966 -1.41042,0.0305 -7.15959,8.39621 -8.22908,11.97421 -0.411,1.375 -3.38307,5.10662 -6.60461,8.29249 -5.3503,5.29105 -7.69581,8.90221 -4.60735,7.0935 1.7942,-1.05075 -9.1722,10.6246 -12.75,13.57426 -1.65,1.36031 -5.32124,4.55489 -8.15831,7.09907 -2.83707,2.54418 -6.88707,5.43245 -9,6.41839 -2.11293,0.98594 -6.8452,3.53179 -10.51616,5.65745 -3.67096,2.12566 -7.42916,3.86484 -8.35155,3.86484 -1.57355,0 0.49895,-1.22212 16.3616,-9.64811 3.48458,-1.85095 9.05803,-5.72483 12.38547,-8.60863 10.34435,-8.96517 19.32911,-17.73219 18.17837,-17.73785 -0.60532,-0.003 -3.33379,2.35709 -6.06327,5.24459 -8.15902,8.63139 -17.81094,16.54805 -24.52104,20.11257 -3.47331,1.84508 -8.94831,4.7683 -12.16666,6.49606 -3.21835,1.72775 -6.36835,3.14361 -7,3.14634 -0.63165,0.003 -2.2947,1.01523 -3.69567,2.25 -1.40097,1.23477 -1.85097,1.79503 -1,1.24503 1.33304,-0.86157 1.36406,-0.76598 0.22411,0.69056 -0.75678,0.96695 -2.00408,1.42925 -2.91405,1.08006 -1.1165,-0.42844 -1.35556,-0.22966 -0.80166,0.66658 0.59139,0.95687 0.22503,1.09798 -1.46118,0.5628 -1.23775,-0.39285 -2.01198,-0.32856 -1.72051,0.14287 0.29147,0.47142 -0.87812,0.81426 -2.59909,0.76186 -2.77807,-0.0846 -3.14658,-0.44386 -3.28534,-3.20305 -0.10456,-2.07885 0.54911,-3.70271 1.97432,-4.90473 2.10824,-1.77807 2.11224,-1.77511 0.38062,0.28179 -0.9625,1.14331 -1.75,2.44149 -1.75,2.88486 0,0.44336 0.97702,-0.49207 2.17116,-2.07874 2.66891,-3.54622 4.41425,-5.40176 3.41184,-3.62727 -0.56158,0.99411 -0.17986,1.01585 1.82194,0.10377 1.39279,-0.6346 2.2763,-1.56811 1.96335,-2.07447 -0.31295,-0.50636 0.0387,-0.79494 0.78136,-0.64129 0.74269,0.15365 3.15035,-0.96513 5.35035,-2.48618 8.66302,-5.98947 11.22154,-7.64515 17,-11.00101 3.3,-1.91649 7.09094,-4.64865 8.42431,-6.07147 1.33338,-1.42282 2.92138,-2.58694 3.52889,-2.58694 1.11688,0 11.97982,-10.81061 14.57018,-14.5 0.77233,-1.1 -2.00966,1.4875 -6.1822,5.75 -4.17253,4.2625 -8.01274,7.75 -8.5338,7.75 -0.52106,0 -2.71588,1.48874 -4.87738,3.3083 -2.1615,1.81957 -5.73,4.3795 -7.93,5.68873 -2.2,1.30924 -5.125,3.21314 -6.5,4.23089 -5.6425,4.17648 -13,8.58126 -13,7.78282 0,-0.46971 2.05276,-2.12678 4.5617,-3.68238 2.50893,-1.5556 5.77143,-3.75596 7.25,-4.88969 1.47856,-1.13373 4.9383,-3.34274 7.6883,-4.90892 6.6678,-3.79743 10.00738,-6.4581 20.74753,-16.52975 4.9853,-4.675 8.74249,-7.9375 8.34931,-7.25 -0.39318,0.6875 -0.2665,1.25 0.28152,1.25 C 400.09622,346 416,322.29702 416,317.50112 c 0,-1.59395 -17.79773,-19.68226 -22,-22.35919 -2.90157,-1.84835 -6.1213,-4.63863 -18.04936,-15.64193 -4.7698,-4.4 -10.47247,-9.18872 -12.67261,-10.64161 -2.20013,-1.45289 -5.31911,-4.60289 -6.93105,-7 -1.61195,-2.39711 -3.68217,-4.36361 -4.6005,-4.37 -0.91833,-0.006 -2.24947,-0.6349 -2.95809,-1.3967 -1.05774,-1.13714 -1.04139,-1.24441 0.0913,-0.5992 0.94509,0.53833 1.22073,0.34828 0.875,-0.60329 -0.2776,-0.76406 -0.93441,-1.30222 -1.45958,-1.19592 -0.52516,0.10631 -4.51891,-3.46675 -8.875,-7.94013 -4.35608,-4.47338 -7.13265,-7.54276 -6.17015,-6.82084 0.9625,0.72192 1.75,0.86258 1.75,0.31258 0,-1.21156 -2.49923,-3.41232 -3.14348,-2.76807 -0.25271,0.2527 -4.71131,-3.90376 -9.908,-9.23658 -5.19668,-5.33283 -7.98602,-8.3843 -6.19852,-6.78106 1.7875,1.60325 3.25,2.41357 3.25,1.80072 0,-0.61286 -1.67753,-2.49705 -3.72784,-4.1871 -3.85707,-3.17932 -5.94769,-4.00074 -4.63922,-1.8228 1.58618,2.64019 -2.82053,-1.70169 -7.75761,-7.64351 l -5.07392,-6.10649 5.08826,5.5 c 2.79855,3.025 5.09323,5.03793 5.0993,4.47318 C 308.00241,211.22165 294.81255,198 293.55059,198 c -0.49457,0 0.19172,1.2375 1.5251,2.75 l 2.42431,2.75 -2.70575,-2.38274 c -1.48817,-1.31051 -2.61317,-2.8064 -2.5,-3.3242 0.11316,-0.51779 -3.16925,-2.91038 -7.29425,-5.31685 -7.40065,-4.31746 -11.21981,-5.86298 -7.44113,-3.01126 1.31831,0.99491 0.25321,0.83449 -3.3196,-0.5 C 268.52454,186.83042 263.47915,186.4157 262.5,188 c -0.33992,0.55 -1.12748,1 -1.75015,1 -2.49423,0 2.95688,-2.94836 5.75015,-3.1101 2.59265,-0.15012 2.45687,-0.2574 -1,-0.79006 l -4,-0.61634 4.01096,-2.71645 c 6.31896,-4.27955 19.29744,-7.11584 28.96681,-6.33034 8.27159,0.67195 20.71954,5.27323 31.81624,11.76061 2.6367,1.54147 5.02107,2.80268 5.2986,2.80268 1.53954,0 17.37377,10.35885 19.91115,13.02599 1.64793,1.73221 5.92124,4.92629 9.49624,7.09796 7.58325,4.60652 13.89695,9.28064 19.5,14.4361 6.14964,5.6584 23.45563,15.04324 39.5,21.4204 7.975,3.16983 15.625,6.10875 17,6.53094 3.05414,0.93777 17.27625,10.20655 23.00471,14.99255 C 462.30619,269.42677 464.61165,271 465.12794,271 466.3852,271 483,287.62579 483,288.88388 c 0,0.54373 2.50376,3.8298 5.56391,7.30236 7.56101,8.58 14.65905,23.26044 18.55946,38.38535 4.56992,17.72118 4.62352,18.02227 5.35621,30.09109 0.54789,9.02491 0.35288,12.28058 -1.01828,17 -2.32729,8.01036 -10.56499,29.28337 -11.58331,29.91273 -0.45626,0.28198 -2.49084,3.08037 -4.52129,6.21864 -5.44771,8.42 -11.05435,13.90458 -18.3567,17.95709 -3.575,1.98398 -9.31249,5.6641 -12.74999,8.17805 l -6.24998,4.57081 -2e-5,9.69098 c 0,5.33004 0.38741,9.93042 0.86092,10.22307 0.47351,0.29264 1.14834,3.3567 1.49963,6.80902 0.35128,3.45231 0.89236,7.62693 1.20238,9.27693 0.90014,4.7906 -1.06945,6.28932 -9.28945,7.06865 -7.13956,0.6769 -7.23848,0.65364 -8.22194,-1.93307 -1.3416,-3.52866 -0.60127,-5.00301 3.49241,-6.95515 3.24825,-1.54899 3.45151,-1.93463 3.38066,-6.41425 -0.0415,-2.6214 -0.60396,-8.59118 -1.25,-13.26618 -1.14035,-8.25201 -1.25681,-8.50942 -3.9918,-8.8229 -2.49056,-0.28547 -15.19804,3.53057 -19.93282,5.9858 -2.29271,1.18889 -2.32246,8.06435 -0.0842,19.45599 2.0805,10.58874 1.6368,11.2206 -8.47463,12.0683 -6.87417,0.57631 -7.18437,0.5072 -8.05222,-1.7939 z M 291.75453,432.69467 c -2.57879,-2.12521 -2.65124,-2.39712 -1.1933,-4.47863 2.97889,-4.25296 8.0358,-1.41101 7.25156,4.07533 -0.42474,2.9714 -2.75393,3.12646 -6.05826,0.4033 z m 21.55103,-8.11134 C 313.4125,423.9875 312.9375,423.6125 312.25,423.75 311.5625,423.8875 311,423.55 311,423 c 0,-0.55 0.39152,-1 0.87004,-1 0.47852,0 1.42664,-2.1375 2.10692,-4.75 0.68029,-2.6125 1.45196,-5.56227 1.71482,-6.55505 0.66343,-2.50561 2.55445,-1.6058 3.419,1.62688 0.3959,1.48033 0.35022,2.46308 -0.10151,2.1839 -0.45174,-0.27919 -1.13085,1.74281 -1.50914,4.49333 -0.37829,2.75052 -1.12214,5.00094 -1.65298,5.00094 -0.53085,0 -0.73342,0.375 -0.45016,0.83333 0.28327,0.45834 -0.11517,0.83334 -0.88542,0.83334 -0.77025,0 -1.31296,-0.4875 -1.20601,-1.08334 z m -60.94799,-27.09391 c -1.05892,-2.7595 0.63109,-6.38339 5.38231,-11.54127 5.71712,-6.20645 8.02529,-7.62102 9.61748,-5.89409 0.87568,0.94979 0.82029,1.05573 -0.23709,0.45345 -0.92733,-0.52821 -1.23288,-0.34535 -0.93187,0.5577 0.24633,0.73897 -0.70779,2.43276 -2.12027,3.76397 -1.50655,1.41987 -1.7414,1.88432 -0.56813,1.12357 1.1,-0.71324 0.0482,0.56453 -2.3373,2.8395 -3.69372,3.52255 -4.24556,4.55401 -3.71901,6.95136 0.54553,2.4838 0.3164,2.84003 -1.94729,3.02738 -1.50883,0.12487 -2.80169,-0.40299 -3.13883,-1.28157 z m 51.25582,-4.37106 c -1.81921,-1.89885 -2.6442,-3.59568 -2.24897,-4.62563 0.86712,-2.2597 5.54348,-1.54618 7.29875,1.11363 1.21426,1.84001 1.16453,2.38486 -0.39328,4.30866 l -1.78331,2.2023 -2.87319,-2.99896 z m -32.28006,-17.71032 c 0,-1.9989 5.72281,-6.36706 13.39511,-10.22435 5.78599,-2.90894 10.53057,-5.80938 16.00726,-9.78551 2.79808,-2.03143 5.01333,-1.24631 5.84617,2.07199 0.79837,3.18098 -1.01252,5.52983 -4.26333,5.52983 -1.52666,0 -2.1811,0.41337 -1.75245,1.10693 0.47812,0.77361 -0.29459,0.89198 -2.56609,0.39307 -2.49169,-0.54727 -3.06783,-0.41877 -2.46873,0.55059 0.56896,0.9206 0.19507,1.11111 -1.3749,0.70055 C 292.97037,365.441 292,365.58099 292,366.06223 c 0,0.48125 -0.74882,0.58765 -1.66404,0.23645 -1.18315,-0.45402 -1.43596,-0.26949 -0.87478,0.63852 0.59139,0.95687 0.22503,1.09798 -1.46118,0.5628 -1.63461,-0.5188 -2.04509,-0.38198 -1.5,0.5 0.54509,0.88198 0.13461,1.0188 -1.5,0.5 -1.65378,-0.52489 -2.04778,-0.38633 -1.48603,0.5226 0.49716,0.80443 0.27872,1.07341 -0.62477,0.76936 -0.76406,-0.25713 -1.98507,0.247 -2.71336,1.12027 -0.72828,0.87327 -1.04241,1.03042 -0.69806,0.34922 0.41151,-0.81405 0.0962,-1.03519 -0.9201,-0.64521 -0.85041,0.32633 -1.25425,1.06571 -0.89743,1.64305 0.35682,0.57735 0.17639,0.75778 -0.40096,0.40096 -0.57734,-0.35682 -1.30484,0.0161 -1.61665,0.82863 -0.35063,0.91374 -1.21625,1.22824 -2.26883,0.82432 -1.10276,-0.42316 -1.46238,-0.26553 -1.02154,0.44776 0.37419,0.60547 0.29801,1.33714 -0.16929,1.62595 -0.46731,0.28881 -0.84965,-0.15168 -0.84965,-0.97887 z"
       style="fill:#73a337" />
    <path
       id="path9836"
       d="m 409.13895,489.89329 c -1.20357,-3.19126 0.11668,-5.43815 3.98849,-6.78787 l 3.16966,-1.10495 -0.60673,-8.59738 c -0.66548,-9.42993 -1.61642,-11.3853 -5.56281,-11.43853 l -2.62756,-0.0354 2.5,-1.42972 c 1.375,-0.78634 4.075,-1.95209 6,-2.59055 7.29731,-2.42029 12.71832,-5.31163 19.25,-10.26714 3.7125,-2.81663 6.75,-5.42653 6.75,-5.79978 0,-0.37325 1.97107,-2.9878 4.38016,-5.81012 2.95922,-3.46682 4.58994,-6.44339 5.02683,-9.17553 0.35567,-2.22422 1.75959,-6.68824 3.11984,-9.92003 3.02624,-7.19004 3.15227,-13.63283 0.59535,-30.43626 -1.4269,-9.37727 -2.62332,-13.63304 -5.47409,-19.47179 C 447.64164,362.91873 446,358.93949 446,358.18545 c 0,-4.31124 -19.26941,-31.22547 -22.30896,-31.15966 -1.38026,0.0299 -6.82553,8.00525 -8.63194,12.6427 -0.67882,1.74267 -3.33232,5.14397 -5.89666,7.55845 -2.56434,2.41447 -7.63312,7.51365 -11.26396,11.3315 -10.01235,10.52809 -19.08324,18.09155 -26.08337,21.74875 -3.47331,1.81462 -8.34011,4.46612 -10.81511,5.89222 -2.475,1.4261 -5.625,2.92511 -7,3.33114 -1.375,0.40603 -4.3,2.01925 -6.5,3.58494 -5.10435,3.63264 -10.21752,4.78423 -11.09455,2.49871 -0.92549,-2.41178 2.0775,-6.30977 6.66337,-8.64931 2.22176,-1.13346 5.97845,-3.50174 8.3482,-5.26286 2.36975,-1.76112 5.60786,-3.99072 7.19581,-4.95468 1.58794,-0.96395 5.69593,-3.46368 9.12886,-5.55495 3.43294,-2.09127 7.50756,-5.01508 9.05472,-6.49735 1.54717,-1.48228 3.28113,-2.69505 3.85325,-2.69505 0.57212,0 6.88674,-6.06249 14.0325,-13.47219 10.2922,-10.67237 13.85741,-15.12999 17.15506,-21.44919 2.28953,-4.38735 4.16278,-8.67382 4.16278,-9.52549 0,-1.63222 -17.72348,-19.68697 -22,-22.4112 -3.06812,-1.95445 -7.03545,-5.40677 -17.45812,-15.19186 -4.42304,-4.15246 -9.92205,-8.74995 -12.22003,-10.21664 -2.29799,-1.46669 -4.99799,-3.86988 -6,-5.34042 -1.00202,-1.47054 -3.39685,-4.38655 -5.32185,-6.48002 -22.0132,-23.93973 -55.91123,-57.93788 -61.5,-61.68165 -6.99909,-4.68851 -19.35509,-10.23256 -24.5,-10.99298 l -5.5,-0.8129 4.01096,-2.68743 c 6.36078,-4.26186 19.3335,-7.08389 28.96681,-6.30132 8.27159,0.67195 20.71954,5.27323 31.81624,11.76061 2.6367,1.54147 5.02107,2.80268 5.2986,2.80268 1.53954,0 17.37377,10.35885 19.91115,13.02599 1.64793,1.73221 5.92124,4.92629 9.49624,7.09796 7.58325,4.60652 13.89695,9.28064 19.5,14.4361 6.14964,5.6584 23.45563,15.04324 39.5,21.4204 7.975,3.16983 15.625,6.10875 17,6.53094 3.05414,0.93777 17.27625,10.20655 23.00471,14.99255 C 462.30619,269.42677 464.61165,271 465.12794,271 466.3852,271 483,287.62579 483,288.88388 c 0,0.54373 2.50376,3.8298 5.56391,7.30236 7.56101,8.58 14.65905,23.26044 18.55946,38.38535 4.56992,17.72118 4.62352,18.02227 5.35621,30.09109 0.54789,9.02491 0.35288,12.28058 -1.01828,17 -2.32729,8.01036 -10.56499,29.28337 -11.58331,29.91273 -0.45626,0.28198 -2.49084,3.08037 -4.52129,6.21864 -5.44771,8.42 -11.05435,13.90458 -18.3567,17.95709 -3.575,1.98398 -9.31249,5.6641 -12.74999,8.17805 l -6.24998,4.57081 -2e-5,9.69098 c 0,5.33004 0.38741,9.93042 0.86092,10.22307 0.47351,0.29264 1.14834,3.3567 1.49963,6.80902 0.35128,3.45231 0.89236,7.62693 1.20238,9.27693 0.90014,4.7906 -1.06945,6.28932 -9.28945,7.06865 -7.13956,0.6769 -7.23848,0.65364 -8.22194,-1.93307 -1.3416,-3.52866 -0.60127,-5.00301 3.49241,-6.95515 3.24825,-1.54899 3.45151,-1.93463 3.38066,-6.41425 -0.0415,-2.6214 -0.60396,-8.59118 -1.25,-13.26618 -1.14035,-8.25201 -1.25681,-8.50942 -3.9918,-8.8229 -2.49056,-0.28547 -15.19804,3.53057 -19.93282,5.9858 -2.29271,1.18889 -2.32246,8.06435 -0.0842,19.45599 2.0805,10.58874 1.6368,11.2206 -8.47463,12.0683 -6.87417,0.57631 -7.18437,0.5072 -8.05222,-1.7939 z M 291.75453,432.69467 c -2.57879,-2.12521 -2.65124,-2.39712 -1.1933,-4.47863 2.97889,-4.25296 8.0358,-1.41101 7.25156,4.07533 -0.42474,2.9714 -2.75393,3.12646 -6.05826,0.4033 z m 21.45228,-8.88786 c -0.71588,-0.71588 -0.5988,-2.27864 0.37814,-5.04759 0.77828,-2.20587 1.42194,-4.7416 1.43036,-5.63495 0.0259,-2.74495 1.746,-4.76296 2.99513,-3.51383 0.79162,0.79162 0.7576,2.91784 -0.12315,7.69788 -1.2001,6.51315 -2.65115,8.52782 -4.68048,6.49849 z m -60.81768,-26.23514 c -1.17682,-3.06674 0.7801,-6.89164 6.49613,-12.69702 8.82282,-8.96072 10.80581,-7.24728 2.80973,2.42779 -2.18297,2.64134 -4.26277,6.23863 -4.62178,7.99396 -0.70778,3.46069 -3.67594,4.90245 -4.68408,2.27527 z m 51.22426,-4.45331 c -1.81921,-1.89885 -2.6442,-3.59568 -2.24897,-4.62563 0.86712,-2.2597 5.54348,-1.54618 7.29875,1.11363 1.21426,1.84001 1.16453,2.38486 -0.39328,4.30866 l -1.78331,2.2023 -2.87319,-2.99896 z M 274,372.01114 c 1.925,-1.72454 6.48513,-4.64383 10.13362,-6.48732 6.14751,-3.10618 11.06239,-6.10377 16.60208,-10.12564 2.79808,-2.03143 5.01333,-1.24631 5.84617,2.07199 0.88111,3.51064 -0.83867,5.19129 -6.12303,5.98373 -6.34162,0.95099 -17.59413,4.92932 -24.26839,8.58011 l -5.69045,3.11266 3.5,-3.13553 z"
       style="fill:#504f45" />
    <path
       id="path9834"
       d="m 411.83514,491.31142 c -4.03228,-1.03002 -3.17837,-5.35811 1.46005,-7.40037 L 416.5,482.5 l -0.30361,-9 c -0.19106,-5.66373 -0.83566,-9.81474 -1.73889,-11.19785 -1.60605,-2.45938 -1.53883,-2.5313 4.0425,-4.32507 4.05755,-1.30405 14.58467,-6.65372 15.5,-7.87679 0.275,-0.36746 2.6375,-2.39456 5.25,-4.50466 2.6125,-2.11011 4.75,-4.43183 4.75,-5.15939 0,-0.72756 0.80591,-1.91085 1.79092,-2.62954 3.04783,-2.22377 6.00449,-7.1914 6.74967,-11.34046 0.3918,-2.18143 1.73031,-6.21624 2.97448,-8.96624 2.69384,-5.95423 3.60943,-14.11754 2.35534,-21 -0.5011,-2.75 -1.12989,-8.50293 -1.39733,-12.7843 -0.3982,-6.37482 -1.19999,-9.29374 -4.42816,-16.1207 -2.16805,-4.58502 -4.2515,-9.63209 -4.62988,-11.2157 -0.37838,-1.58362 -2.65156,-5.86482 -5.0515,-9.51378 C 439.96359,343.21655 438,339.81619 438,339.30916 438,337.86977 424.6469,324 423.26113,324 c -0.67982,0 -2.34845,1.76217 -3.70807,3.91594 -1.35961,2.15377 -2.90563,4.18393 -3.4356,4.51147 -0.52997,0.32754 -1.27559,2.05286 -1.65693,3.83406 -0.42077,1.96537 -2.80546,5.40074 -6.06592,8.73853 -16.2964,16.68289 -20.23241,20.47356 -23.59528,22.72399 -2.03537,1.36207 -4.43894,3.60323 -5.34126,4.98035 -0.90232,1.37711 -4.476,3.78949 -7.94151,5.36082 -3.46551,1.57134 -8.26195,4.16457 -10.65875,5.76274 -2.39679,1.59817 -6.00931,3.43871 -8.02782,4.09008 -2.0185,0.65138 -4.23573,1.86598 -4.92717,2.69911 -1.57895,1.90252 -6.30619,4.38291 -8.35316,4.38291 -4.23753,0 -0.0775,-4.73021 6.81119,-7.74474 1.57346,-0.68856 4.27346,-2.40799 6,-3.82094 3.64492,-2.98293 16.65417,-11.38693 21.38915,-13.81743 1.7875,-0.91754 3.25,-2.00967 3.25,-2.42696 0,-0.41729 1.37658,-1.57188 3.05906,-2.56574 3.67772,-2.17249 25.09156,-23.53162 29.09269,-29.01838 3.56051,-4.88253 8.84825,-15.9735 8.84825,-18.55908 0,-2.32477 -17.71079,-20.59153 -23.5,-24.23769 -2.2,-1.38561 -8.5,-6.77044 -14,-11.96629 -5.5,-5.19585 -12.0371,-10.62118 -14.5269,-12.05629 -2.48979,-1.4351 -7.38215,-5.91164 -10.8719,-9.94787 -7.07321,-8.18083 -31.28015,-33.93363 -37.83831,-40.25467 C 292.56261,194.77671 293.47367,195.52735 282.8394,190.22185 277.15273,187.38474 270.7,184.68806 268.5,184.22922 l -4,-0.83425 2.54433,-1.67773 c 3.24092,-2.13707 17.22232,-5.68359 22.45567,-5.69609 9.43263,-0.0225 15.77078,1.92769 30.87119,9.49901 20.28311,10.16992 24.19831,12.50035 30.99888,18.45137 3.1887,2.79036 7.4775,5.93038 9.53068,6.97784 2.05317,1.04745 4.30003,2.58763 4.99301,3.42262 0.69298,0.83499 3.58409,3.00538 6.42468,4.82309 2.84059,1.8177 6.7718,4.87992 8.73601,6.80492 4.42508,4.33674 25.03265,15.92479 34.44555,19.36943 16.20111,5.92877 24.23557,9.27684 27.9102,11.63057 2.14664,1.375 5.40277,3.4296 7.23583,4.56577 1.83307,1.13617 4.3501,2.98116 5.59341,4.09998 1.24331,1.11881 4.51056,3.53219 7.26056,5.36306 5.43265,3.6169 18.5,16.32189 18.5,17.98699 0,0.56589 1.69047,2.93133 3.75659,5.25654 6.73101,7.57506 9.7334,12.09114 13.62244,20.49035 4.48994,9.69698 11.72697,36.54682 11.7884,43.73571 0.0235,2.75088 0.44453,6.62127 0.93561,8.60087 0.9685,3.90411 0.32747,8.09286 -2.99873,19.595 -7.07176,24.45451 -21.42988,44.401 -36.49114,50.694 -1.79224,0.74884 -4.8009,2.67511 -6.6859,4.28058 -1.885,1.60547 -4.66477,3.69713 -6.17727,4.64815 -2.68608,1.68891 -2.75,1.95021 -2.75,11.24124 0,6.35728 0.45821,10.24671 1.38154,11.72694 0.75984,1.21815 1.64446,5.91056 1.96582,10.42757 0.72572,10.20063 0.16255,10.92813 -8.6471,11.1705 -5.88231,0.16183 -6.50193,-0.0168 -7.02745,-2.02643 -0.75953,-2.90445 -0.1169,-3.77332 4.0912,-5.53158 l 3.51986,-1.47069 -0.74409,-8.17728 c -1.89521,-20.82737 -1.7288,-20.14186 -4.97945,-20.51199 -3.93071,-0.44757 -19.61004,4.66417 -21.81033,7.11055 -2.16879,2.41137 -2.2532,7.84928 -0.26736,17.22454 2.04607,9.65965 1.94355,11.39189 -0.73264,12.37927 -3.06887,1.13227 -9.8822,1.95101 -11.91486,1.43178 z M 253,395.63525 C 253,393.07977 262.10937,381 264.03646,381 c 1.63928,0 1.09882,1.13044 -2.78646,5.82826 -2.0625,2.49383 -4.231,5.88801 -4.81889,7.54262 C 255.06057,398.22822 253,398.98755 253,395.63525 Z m 34,-30.08631 c 0,-0.24808 2.88216,-2.06285 6.4048,-4.03282 3.52264,-1.96998 6.95274,-4.242 7.62244,-5.04895 1.82947,-2.20436 3.85894,-1.76883 4.54785,0.97599 0.87179,3.47347 0.0701,4.23347 -5.31279,5.03662 -2.61927,0.3908 -6.27976,1.34273 -8.13442,2.11539 C 288.67197,366.0349 287,366.34589 287,365.54894 Z"
       style="fill:#45453a" />
    <path
       id="path9832"
       d="m 410.75,490.43603 c -1.8192,-1.86617 -0.61351,-4.59511 2.62871,-5.9498 1.8583,-0.77644 3.61449,-2.02613 3.90266,-2.77708 0.75475,-1.96686 -1.25286,-18.96987 -2.40356,-20.35638 -0.69136,-0.83304 0.1066,-1.52255 2.785,-2.4065 15.88654,-5.24303 33.76364,-21.33546 35.73931,-32.17145 1.01155,-5.54806 3.4405,-10.77482 5.00721,-10.77482 1.00751,0 1.29997,-1.15273 1.07825,-4.25 -0.39045,-5.45428 0.47561,-10.89079 1.62207,-10.18223 1.50179,0.92815 0.98623,-1.2433 -0.60965,-2.56777 -0.825,-0.68469 -1.5,-2.31479 -1.5,-3.62244 0,-1.8694 0.53433,-2.37756 2.5,-2.37756 1.375,0 2.5,-0.48575 2.5,-1.07946 0,-0.66829 -1.0932,-0.83934 -2.87005,-0.44908 -2.40587,0.52842 -2.96553,0.26529 -3.46034,-1.62688 -0.7635,-2.91963 -0.0451,-3.5602 2.32951,-2.0772 2.23106,1.39332 3.91999,-0.24827 2.11375,-2.05451 -1.4958,-1.4958 -1.39371,-4.65106 0.25255,-7.8059 0.74421,-1.42617 1.64885,-4.16949 2.01031,-6.09627 0.36147,-1.92677 1.56743,-5.38715 2.67991,-7.68972 1.44844,-2.99794 1.83768,-5.1727 1.37102,-7.66021 -0.63292,-3.37376 -0.51657,-3.53346 4.04395,-5.55079 2.58258,-1.1424 4.47175,-2.30095 4.19815,-2.57456 -0.27361,-0.2736 -1.47117,0.0236 -2.66125,0.66056 -2.68098,1.43482 -4.99716,0.64675 -5.03931,-1.7146 -0.0302,-1.69285 -0.0978,-1.69441 -1.36025,-0.0314 -1.30192,1.71507 -3.60795,2.40455 -3.60795,1.07874 0,-0.36919 0.71908,-1.46584 1.59796,-2.43699 1.87792,-2.07507 1.15902,-3.65345 -2.25527,-4.95156 -1.35467,-0.51504 -2.1844,-1.38729 -1.84385,-1.93832 C 461.8394,338.45084 461.44303,338 460.61803,338 c -2.17948,0 -2.98342,-1.85481 -1.55167,-3.57996 1.0153,-1.22336 0.78294,-1.98151 -1.28915,-4.2062 -1.39023,-1.49261 -2.34125,-3.21657 -2.11339,-3.83103 0.22787,-0.61445 -0.84077,-1.38974 -2.37476,-1.72287 -4.73292,-1.02781 -5.8464,-2.52071 -6.21475,-8.33239 -0.0409,-0.64484 -1.65714,-1.69483 -3.5917,-2.33329 -2.12508,-0.70134 -4.08963,-2.26742 -4.96302,-3.95637 -0.79509,-1.53754 -2.06638,-3.03374 -2.82509,-3.32488 -0.7587,-0.29114 -2.14646,-2.14567 -3.0839,-4.12118 C 431.67316,300.61632 430.25228,299 429.45308,299 428.65389,299 428,298.43256 428,297.73902 c 0,-0.69353 -1.32902,-2.35877 -2.95339,-3.70052 -2.66989,-2.20537 -2.89681,-2.85223 -2.36407,-6.73902 0.54321,-3.96319 0.41388,-4.29948 -1.6536,-4.29948 -1.67052,0 -2.08186,0.41971 -1.61182,1.64462 0.35487,0.92477 -0.10383,2.45671 -1.048,3.5 -0.99583,1.10038 -1.2091,1.85538 -0.52411,1.85538 0.63525,0 1.15499,0.3888 1.15499,0.86399 0,1.23631 -9.24017,-3.57241 -10.83127,-5.63676 -0.7322,-0.94998 -1.9417,-2.57488 -2.68777,-3.61089 -1.2551,-1.74286 -1.47861,-1.76155 -2.99016,-0.25 -2.18786,2.18786 -3.56691,2.05863 -4.20838,-0.39438 -0.38564,-1.47466 -1.06141,-1.85949 -2.47656,-1.41034 -1.42492,0.45225 -2.09179,0.061 -2.48972,-1.46071 -0.29894,-1.14313 -0.92405,-1.84323 -1.38915,-1.55579 -0.4651,0.28745 -1.65144,0.0869 -2.63631,-0.44575 -0.98488,-0.53261 -3.2583,-1.55997 -5.05206,-2.28302 -1.79376,-0.72306 -3.06778,-1.81918 -2.83115,-2.43582 0.26651,-0.69451 -1.49322,-1.34897 -4.62423,-1.7198 -2.77996,-0.32924 -5.29344,-0.8376 -5.58552,-1.12968 -0.29208,-0.29208 -0.53105,-2.56855 -0.53105,-5.05883 0,-2.81982 -0.40865,-4.38325 -1.08334,-4.14463 -0.59583,0.21073 -0.95135,2.02323 -0.79005,4.02778 0.31914,3.96596 -0.58464,4.43485 -5.18028,2.68759 -2.7828,-1.05802 -6.05695,-6.44365 -5.22903,-8.60119 0.29078,-0.75775 0.0983,-1.64369 -0.42764,-1.96876 -0.52598,-0.32508 -0.95633,0.14317 -0.95633,1.04055 0,2.51571 -4.04364,-1.04315 -9.63187,-8.47714 -2.56168,-3.40779 -5.71747,-6.59894 -7.01286,-7.09145 C 339.05987,240.45246 338,239.64796 338,239.15719 c 0,-0.49078 -3.375,-4.40131 -7.5,-8.69009 -4.125,-4.28877 -7.5,-8.39837 -7.5,-9.13243 C 323,220.6006 322.58462,220 322.07692,220 c -0.50769,0 -2.24281,-1.2375 -3.85581,-2.75 -1.613,-1.5125 -6.20422,-5.675 -10.20271,-9.25 -3.99849,-3.575 -8.67587,-7.90168 -10.39419,-9.61485 -1.71831,-1.71316 -4.13671,-3.64149 -5.37421,-4.28518 -1.2375,-0.64369 -2.25,-1.87765 -2.25,-2.74214 0,-1.01416 -0.55426,-1.35912 -1.56225,-0.97232 -0.85924,0.32972 -4.91911,-0.97213 -9.02193,-2.89301 C 275.31299,185.57163 270.8035,184 269.39473,184 c -1.47064,0 -2.39982,-0.48474 -2.18196,-1.13831 0.5011,-1.5033 8.56396,-4.73499 11.99018,-4.80582 1.48662,-0.0307 3.78329,-0.54811 5.10372,-1.14974 4.30605,-1.96196 17.99004,0.42134 27.69333,4.82328 17.9525,8.14421 29.87892,14.96985 38.16761,21.84377 3.26746,2.70975 8.09862,6.27682 10.73592,7.92682 8.81438,5.51463 13.44422,8.96676 17.77031,13.25 2.36088,2.3375 4.4443,4.25 4.62982,4.25 0.18551,0 5.88883,3.18055 12.67404,7.06789 6.7852,3.88733 15.86599,8.38733 20.17952,10 4.31353,1.61266 11.44958,4.27986 15.8579,5.92712 4.40832,1.64726 9.52305,4.00976 11.36608,5.25 6.11641,4.11597 14.06675,9.73808 18.1188,12.81278 2.2,1.66936 5.24612,3.84712 6.76916,4.83946 3.40261,2.217 13.73084,13.50742 13.73084,15.01003 0,0.601 0.97689,2.06961 2.17088,3.2636 5.9237,5.9237 11.35713,13.83135 15.38033,22.38408 2.44683,5.20162 4.44879,10.0577 4.44879,10.7913 0,1.32536 2.40605,11.12909 5.3143,21.65374 0.83589,3.025 1.80945,10.61221 2.16346,16.86046 0.67606,11.93236 0.81291,11.13477 -4.74244,27.63954 -6.71171,19.94022 -19.18314,36.94091 -31.59395,43.06795 -3.10275,1.53178 -7.44137,4.21067 -9.64137,5.95309 -2.2,1.74241 -5.04002,3.71855 -6.31115,4.3914 -2.24198,1.18676 -2.29742,1.54306 -1.85246,11.90547 0.25227,5.87515 1.00264,14.05709 1.6675,18.18209 1.43639,8.91191 1.50483,11.89128 0.30082,13.09529 -0.4919,0.4919 -3.79919,1.00919 -7.34954,1.14954 -6.38581,0.25243 -6.4586,0.22532 -6.77429,-2.52276 -0.26759,-2.32942 0.17981,-2.95184 2.77111,-3.85518 1.69963,-0.59249 3.45993,-1.81742 3.91178,-2.72207 0.45872,-0.91841 0.13427,-7.49669 -0.73466,-14.89521 -1.31941,-11.23408 -1.83883,-13.34009 -3.41341,-13.83984 -2.39385,-0.75978 -21.80598,5.43821 -23.52522,7.51124 -1.51941,1.83208 -1.19991,11.88113 0.69891,21.98244 0.66204,3.5219 0.84526,6.76086 0.40716,7.1977 -1.1218,1.11856 -13.63779,2.2671 -14.54655,1.33488 z m 33.09362,-199.83341 c 2.01101,-2.14356 2.90178,-3.6328 1.97949,-3.30944 -0.92228,0.32337 -2.21488,-0.0603 -2.87244,-0.85262 C 441.14426,284.26397 439,284.70843 439,287.25945 c 0,1.2427 -0.92048,2.8343 -2.04551,3.5369 l -2.0455,1.27743 2.2955,2.8017 c 1.7817,2.17458 2.37242,2.44611 2.63913,1.2131 0.189,-0.87372 1.989,-3.3424 4,-5.48596 z"
       style="fill:#403e38" />
    <path
       id="path9830"
       d="m 410.75,490.42832 c -1.66919,-1.69512 -0.59549,-4.24968 2.28822,-5.44415 1.67102,-0.69216 3.45069,-2.02919 3.95482,-2.97117 0.75844,-1.41716 -0.0859,-15.91199 -1.2312,-21.13635 -0.14401,-0.6569 1.59275,-1.68538 3.85947,-2.28551 2.26672,-0.60013 4.74172,-1.56255 5.5,-2.13871 0.75828,-0.57616 3.17869,-1.92616 5.37869,-3 5.29907,-2.58652 12.60193,-8.96099 17,-14.83885 1.1,-1.47011 3.0125,-3.09844 4.25,-3.6185 2.08789,-0.87745 2.76325,-2.90782 2.32678,-6.99508 -0.13734,-1.28619 -0.0225,-1.29535 0.80531,-0.0643 0.80004,1.18968 1.23557,1.21154 2.54169,0.12755 0.86692,-0.71948 1.57622,-1.92804 1.57622,-2.68569 0,-2.06686 3.32156,-1.65828 5.87755,0.72299 1.24008,1.1553 2.56243,1.78111 2.93857,1.39069 0.37613,-0.39043 -0.32862,-1.39056 -1.56612,-2.22252 C 463.87965,423.67514 463.19342,421 465.15499,421 c 0.69104,0 0.4902,-0.73458 -0.5,-1.82874 -2.41702,-2.67077 -2.07968,-3.13638 2.0948,-2.89136 3.20742,0.18827 3.79604,-0.10534 4.06955,-2.0299 0.33455,-2.35406 1.6261,-2.95631 2.68066,-1.25 1.56984,2.54005 2.58101,0.72301 1.94773,-3.5 -0.59994,-4.00066 -0.46248,-4.5 1.23873,-4.5 1.05245,0 2.34104,0.4187 2.86354,0.93044 0.59006,0.5779 2.02061,0.003 3.77569,-1.51714 2.30767,-1.99887 2.70942,-2.97697 2.19145,-5.33524 -0.36259,-1.65087 -0.18086,-3.16786 0.42431,-3.54188 0.5822,-0.35982 1.05855,-1.52766 1.05855,-2.5952 0,-1.06754 0.45,-1.94098 1,-1.94098 0.55,0 1,-0.9 1,-2 0,-2.33813 -1.80197,-2.67963 -2.63837,-0.5 -0.76311,1.98862 -2.98885,1.91383 -3.77189,-0.12675 -0.85002,-2.2151 1.25391,-4.51038 3.81335,-4.16017 1.52298,0.20839 2.18437,-0.32892 2.41646,-1.96308 0.17575,-1.2375 0.96325,-2.25 1.75,-2.25 0.78675,0 1.43045,-0.675 1.43045,-1.5 0,-0.825 -0.48032,-1.5 -1.06739,-1.5 -1.44212,0 -0.14321,-4.17432 1.7685,-5.68347 1.80904,-1.42808 0.87653,-3.31653 -1.63768,-3.31653 -1.0002,0 -2.36196,-0.65478 -3.02614,-1.45507 -0.97371,-1.17324 -0.67988,-2.14696 1.517,-5.02722 3.00262,-3.93664 2.62893,-5.89849 -0.57179,-3.00187 -1.53247,1.38686 -2.31218,1.55448 -3.1825,0.68416 -0.87032,-0.87032 -0.73613,-1.6131 0.54774,-3.03175 1.95289,-2.15792 1.32942,-4.73548 -1.51345,-6.25693 -1.33498,-0.71446 -1.73587,-1.64604 -1.29973,-3.02021 0.34687,-1.0929 0.0794,-2.65137 -0.59444,-3.46326 -0.67382,-0.8119 -0.91608,-1.78522 -0.53837,-2.16294 0.37772,-0.37771 1.75518,0.64566 3.06104,2.27417 1.30585,1.62851 1.96094,3.11092 1.45574,3.29425 -0.50519,0.18334 -0.91853,0.97084 -0.91853,1.75 0,1.78916 2.63665,1.85418 3.70031,0.0913 0.43983,-0.72898 1.58719,-1.61485 2.54969,-1.96862 2.43817,-0.89613 2.18377,-2.13586 -0.76176,-3.71226 -1.75901,-0.9414 -2.33772,-1.89258 -1.93105,-3.17391 0.36927,-1.16347 -0.0149,-2.05821 -1.05513,-2.45738 -1.17645,-0.45145 -1.56193,-1.65143 -1.37265,-4.27295 0.14476,-2.00486 -0.0948,-4.22436 -0.53223,-4.93222 -0.43748,-0.70786 -0.51098,-2.8032 -0.16333,-4.65632 0.60536,-3.22685 0.49328,-3.38321 -2.65088,-3.69849 -1.80564,-0.18105 -4.29737,0.0874 -5.5372,0.59663 -2.67101,1.09698 -3.98166,0.19255 -2.43012,-1.67694 0.60536,-0.72941 0.85528,-2.2645 0.55538,-3.41131 -0.2999,-1.1468 -0.0985,-2.36119 0.44745,-2.69863 1.48856,-0.91999 -0.99301,-5.59505 -2.97486,-5.60439 -1.1296,-0.005 -1.49943,-0.60796 -1.16288,-1.89494 0.27142,-1.03793 -0.0226,-2.20613 -0.65346,-2.596 -0.80435,-0.49712 -0.65135,-1.07126 0.51221,-1.92208 1.51797,-1.10996 1.44536,-1.52828 -0.85308,-4.91523 -1.46798,-2.16319 -2.69556,-3.17775 -2.95323,-2.44078 -0.32624,0.93305 -0.95485,0.80587 -2.41582,-0.48877 -1.08616,-0.9625 -2.52525,-1.75 -3.19798,-1.75 -0.67273,0 -2.99633,-1.0125 -5.16356,-2.25 -3.08117,-1.75937 -3.9421,-2.84966 -3.94812,-5 -0.01,-3.42795 -1.32476,-3.5443 -2.82575,-0.25 -0.62649,1.375 -1.56122,2.5 -2.07718,2.5 -1.79814,0 -1.74785,-2.49061 0.11402,-5.64625 1.21883,-2.06576 1.5086,-3.4042 0.82808,-3.82479 C 449.47109,276.17312 449,274.95974 449,273.83257 c 0,-1.68667 -0.44247,-1.93833 -2.5,-1.42193 -1.84486,0.46304 -2.5,0.22939 -2.5,-0.89159 C 444,270.68357 443.18463,270 442.18806,270 440.3598,270 436,265.03797 436,262.95716 c 0,-0.61811 -0.5625,-0.92922 -1.25,-0.69137 -0.72675,0.25142 -1.12558,1.69909 -0.95277,3.45833 0.26118,2.6589 -0.014,3.02588 -2.2687,3.02588 -2.02284,0 -2.3321,-0.28176 -1.46114,-1.3312 1.6695,-2.01162 0.37895,-3.13792 -3.02336,-2.63857 -2.27816,0.33436 -3.04403,0.0557 -3.04403,-1.10771 0,-0.85497 0.45,-1.8326 1,-2.17252 0.55,-0.33992 1,-1.26648 1,-2.05902 0,-1.97471 -5.94253,-1.90184 -7.39954,0.0907 -0.92241,1.26148 -1.6917,1.33243 -4.36024,0.40218 -3.29299,-1.14795 -4.32541,-3.58024 -1.91267,-4.5061 0.73015,-0.28018 2.59256,-0.0285 4.13869,0.55936 1.54612,0.58784 3.0795,0.80043 3.40751,0.47243 1.0615,-1.0615 -4.31314,-4.48876 -6.29682,-4.0153 -1.1914,0.28436 -3.24531,-0.70196 -5.39838,-2.59239 l -3.47532,-3.05137 -1.25287,2.97969 c -1.53417,3.64873 -3.12205,4.73715 -4.83589,3.31478 -0.71386,-0.59245 -2.81051,-1.24277 -4.65922,-1.44516 -3.84973,-0.42145 -5.01975,-2.1382 -1.99614,-2.9289 1.12249,-0.29353 2.04089,-1.28602 2.04089,-2.20552 0,-1.32043 -0.77798,-1.60284 -3.70129,-1.34362 -3.53873,0.31378 -3.74074,0.1635 -4.59934,-3.4218 C 384.83014,238.12033 382,236.399 382,239.5 c 0,0.825 0.45,1.5 1,1.5 1.64496,0 1.12991,2.73617 -0.64313,3.41655 -0.90372,0.34679 -1.69122,0.50743 -1.75,0.35699 -0.0588,-0.15045 -0.66937,-1.27993 -1.35687,-2.50997 -0.6875,-1.23004 -1.25,-2.91754 -1.25,-3.75 C 378,237.5822 377.076,237 375.59783,237 c -1.77002,0 -2.6774,-0.78948 -3.44799,-3 -1.01572,-2.9137 -1.86241,-3.4045 -5.29599,-3.06989 -0.96106,0.0937 -2.20713,-1.10693 -2.99411,-2.88485 -1.48111,-3.34606 -2.61489,-3.8469 -3.49811,-1.54526 -0.76023,1.98111 -6.24361,1.97114 -7.00489,-0.0127 -0.31927,-0.83201 -0.05,-2.1519 0.5983,-2.93309 0.93167,-1.1226 0.74549,-1.85365 -0.88813,-3.48727 -1.1368,-1.1368 -2.94035,-2.06691 -4.00789,-2.06691 -2.64777,0 -3.26344,-1.33818 -1.63823,-3.56079 1.56683,-2.14276 1.01832,-4.54494 -0.87213,-3.81951 -0.71667,0.27501 -1.52387,-0.41688 -1.82362,-1.56314 -0.79479,-3.03927 -2.28253,-2.50886 -4.18028,1.49035 l -1.68312,3.54691 -1.93082,-2.45464 c -2.12026,-2.69548 -2.56464,-7.12943 -0.82243,-8.20617 0.70262,-0.43424 0.062,-1.54095 -1.75,-3.02305 -3.56252,-2.91398 -5.77615,-3.11546 -5.08241,-0.4626 0.56573,2.16334 -1.09135,2.84555 -5.42059,2.23161 -2.00585,-0.28445 -2.78821,-1.09306 -3.23916,-3.34783 -0.46798,-2.33991 -0.99266,-2.84644 -2.46452,-2.37929 -2.86774,0.91018 -5.38754,-0.44204 -4.8259,-2.58976 0.41222,-1.57632 -0.0998,-1.86209 -3.3361,-1.86209 -2.10267,0 -3.9996,0.52967 -4.21539,1.17705 -0.61058,1.83174 -2.77432,-0.0458 -2.77432,-2.40733 0,-1.16173 0.72958,-2.91841 1.62128,-3.90373 0.92615,-1.02339 1.34372,-2.51483 0.9739,-3.47854 -0.5775,-1.50496 -0.91439,-1.4362 -3.12128,0.63707 -1.36064,1.27826 -2.4739,2.92067 -2.4739,3.64979 0,0.72913 -0.67119,1.32569 -1.49153,1.32569 -0.82034,0 -2.05358,0.9 -2.74054,2 -1.56533,2.50649 -3.76793,2.60033 -3.76793,0.16052 0,-1.01172 -1.125,-2.35207 -2.5,-2.97857 -3.23756,-1.47513 -3.22292,-4.66217 0.0312,-6.79436 1.39216,-0.91218 2.32754,-1.86218 2.07861,-2.1111 -0.68012,-0.68012 -6.60749,3.93783 -6.62513,5.16157 -0.05,3.46774 -1.69895,3.70757 -7.80922,1.13579 -3.36336,-1.41562 -6.91626,-2.59374 -7.89534,-2.61805 -1.12603,-0.028 -0.48571,-0.72878 1.74264,-1.90731 4.0333,-2.13315 13.335,-4.04852 19.6609,-4.04852 4.10723,0 4.31634,0.14208 4.31634,2.93261 0,2.05436 -0.59896,3.12272 -2,3.56739 -2.77284,0.88007 -2.50588,3.33493 0.44316,4.07509 3.48425,0.87449 4.82403,-0.20733 3.44588,-2.78242 -0.89967,-1.68105 -0.79463,-2.266 0.54113,-3.01353 1.0233,-0.57267 1.43541,-1.62729 1.07707,-2.75632 -0.53371,-1.68158 -0.23547,-1.74456 3.70617,-0.7827 2.35763,0.57531 4.99702,1.65664 5.86533,2.40295 0.86831,0.74631 2.2587,1.35693 3.08975,1.35693 1.62702,0 22.33442,10.31992 24.82501,12.37201 0.82857,0.6827 2.6315,1.71921 4.0065,2.30336 1.375,0.58415 6.24893,4.04233 10.83096,7.68486 4.58203,3.64252 9.86953,7.35287 11.75,8.24521 1.88047,0.89234 3.41904,2.13444 3.41904,2.76022 0,0.62578 2.1375,2.26184 4.75,3.6357 4.97579,2.61667 10.25,7.58696 10.25,9.65935 0,0.66825 0.7875,1.18399 1.75,1.14611 0.9625,-0.0379 7.17198,3.06392 13.79885,6.89291 6.62686,3.82899 12.92686,7.21798 14,7.53108 1.07313,0.3131 5.10115,1.79813 8.95115,3.30006 3.85,1.50193 9.7,3.71092 13,4.90887 7.41259,2.69087 11.74561,4.94635 13.45168,7.00204 0.71831,0.86551 3.49803,2.7667 6.17717,4.22486 2.67913,1.45817 4.87115,2.9911 4.87115,3.40651 0,0.41542 2.31874,2.2564 5.15275,4.09108 9.27032,6.00139 10.06951,6.62576 11.73953,9.17156 0.90828,1.38459 2.85249,3.4622 4.32046,4.61691 1.46797,1.15471 2.98593,3.10023 3.37323,4.32339 0.3873,1.22315 3.17378,4.92391 6.19218,8.22391 5.26675,5.75811 16.18978,25.67344 16.21267,29.55961 0.013,2.20984 4.06622,18.09792 5.14003,20.14829 0.49195,0.93935 1.35969,7.50968 1.9283,14.60075 0.87386,10.89765 0.79678,13.57364 -0.4981,17.2921 -0.84257,2.41959 -1.53849,5.10022 -1.5465,5.95697 -0.0354,3.7927 -8.57411,22.73668 -13.62219,30.2223 -8.4417,12.51791 -13.5942,17.27453 -23.79041,21.96252 -2.14393,0.98574 -5.63272,3.35942 -7.75288,5.27485 -2.12016,1.91544 -4.52854,3.48261 -5.35195,3.48261 -0.92845,0 -1.55683,1.04457 -1.65432,2.75 -0.34027,5.95265 0.41823,19.80501 1.13619,20.75 1.12598,1.48203 2.15831,17.79816 1.21769,19.24576 -0.47536,0.73157 -3.46906,1.35069 -7.25308,1.5 L 445.5,490.5 l 0,-2.93643 c 0,-2.47112 0.51299,-3.06936 3.2373,-3.7753 4.13387,-1.0712 4.9644,-4.08131 3.36758,-12.20514 -0.65764,-3.34572 -1.38617,-8.77885 -1.61895,-12.07363 -0.41708,-5.90324 -2.36422,-9.11137 -4.94549,-8.14825 -0.57224,0.21351 -5.63741,1.90707 -11.25593,3.76347 -8.48121,2.80226 -10.3678,3.79971 -11.1126,5.87528 -1.10453,3.07804 -0.76646,11.14269 0.69167,16.5 1.27896,4.699 1.47087,11.17526 0.35166,11.86698 -1.50865,0.93239 -12.7219,1.81623 -13.46524,1.06134 z"
       style="fill:#383931" />
  </g>
</svg>
