<?xml version="1.0" encoding="UTF-8" standalone="no"?>
<svg
   xmlns:dc="http://purl.org/dc/elements/1.1/"
   xmlns:cc="http://creativecommons.org/ns#"
   xmlns:rdf="http://www.w3.org/1999/02/22-rdf-syntax-ns#"
   xmlns:svg="http://www.w3.org/2000/svg"
   xmlns="http://www.w3.org/2000/svg"
   viewBox="0 0 800 600"
   height="600"
   width="800"
   version="1.1"
   id="svg6412">
  <metadata
     id="metadata6418">
    <rdf:RDF>
      <cc:Work
         rdf:about="">
        <dc:format>image/svg+xml</dc:format>
        <dc:type
           rdf:resource="http://purl.org/dc/dcmitype/StillImage" />
        <dc:title></dc:title>
      </cc:Work>
    </rdf:RDF>
  </metadata>
  <defs
     id="defs6416" />
  <g
     id="g9468">
    <path
       id="path9498"
       d="m 319.00915,494.80641 c -4.12021,-1.52137 -5.27057,-8.02705 -2.10963,-11.93065 1.65535,-2.04427 3.16571,-2.45199 11.75,-3.17189 5.41776,-0.45434 10.97548,-0.77041 12.35048,-0.70237 1.375,0.068 17.6875,0.2108 36.25,0.31724 l 33.75,0.19352 -0.004,-6.50613 c -0.002,-3.57837 -0.82742,-9.41976 -1.83394,-12.98086 -1.97533,-6.98884 -2.91368,-7.7196 -10.17697,-7.92559 -1.93314,-0.0548 -5.08314,-0.92814 -7,-1.9407 -1.91685,-1.01256 -6.74475,-3.07578 -10.72866,-4.58493 -3.98391,-1.50915 -7.50419,-3.16576 -7.82284,-3.68134 -0.31865,-0.51559 -4.70909,-2.90107 -9.75653,-5.30107 -6.80714,-3.23672 -9.64718,-5.17373 -10.99718,-7.50046 -1.00101,-1.72526 -2.88359,-3.83371 -4.18351,-4.68545 -2.83886,-1.86009 -10.2164,-11.21138 -12.99647,-16.47348 -1.1,-2.08207 -3.01123,-5.59816 -4.24718,-7.81354 -1.23594,-2.21538 -2.71159,-7.30257 -3.27922,-11.30486 -1.45913,-10.28822 -2.84297,-14.2713 -5.52348,-15.89815 -3.91907,-2.37857 -14.48203,-13.07303 -16.13692,-16.33782 -0.85808,-1.69283 -3.10414,-5.25061 -4.99126,-7.90618 l -3.43112,-4.8283 0.64668,-9.6717 c 0.77545,-11.59751 4.49903,-27.46203 7.66784,-32.66924 6.80865,-11.18846 19.64699,-21.05553 30.47277,-23.42023 11.51697,-2.51568 12.51777,-3.12862 16.52502,-10.12075 2.03672,-3.55382 4.19937,-7.58648 4.80589,-8.96148 0.60651,-1.375 2.20873,-4.10803 3.56048,-6.0734 1.35175,-1.96537 3.38289,-6.24037 4.51363,-9.5 1.13074,-3.25963 3.74892,-9.3016 5.81817,-13.4266 5.00121,-9.96979 9.40056,-24.32797 13.02203,-42.5 1.09609,-5.5 4.41741,-16.36205 7.38073,-24.1379 6.19533,-16.2568 10.6707,-22.56973 19.04219,-26.86085 2.83456,-1.45296 6.64627,-3.46799 8.47046,-4.47785 4.75968,-2.63491 19.4258,-4.68956 22.72952,-3.18429 1.40133,0.63849 3.92425,1.16089 5.60648,1.16089 10.26255,0 32.66562,10.50416 37.30236,17.49001 1.46386,2.2055 4.19975,5.94362 6.07976,8.30694 7.41296,9.31868 15.34232,44.57821 16.04302,71.33864 0.14498,5.53688 0.75682,9.48402 1.70508,11 0.81343,1.30043 1.74001,4.75794 2.05907,7.68335 0.31905,2.92542 1.50809,6.82046 2.64229,8.65564 1.13421,1.83518 2.97731,6.12428 4.09578,9.53133 1.83456,5.58834 5.72889,14.43381 12.52125,28.44043 1.31928,2.72049 2.39868,5.55122 2.39868,6.2905 0,0.73928 0.87734,2.56342 1.94965,4.05365 1.0723,1.49023 3.06041,6.98451 4.418,12.20951 1.3576,5.225 3.16745,11.43277 4.02189,13.79504 0.85444,2.36227 1.8553,6.63727 2.22413,9.5 0.36883,2.86273 1.05031,6.2301 1.51439,7.48305 1.84016,4.9681 -2.20102,41.54059 -5.23297,47.35806 -1.0423,1.99989 -1.89677,4.69989 -1.89883,6 -0.002,1.30012 -0.82394,3.71385 -1.8264,5.36385 -1.00247,1.65 -2.56954,5.19934 -3.48239,7.88742 -0.91285,2.68808 -2.73068,6.28808 -4.03964,8 -3.47847,4.54933 -22.55024,19.51567 -30.38912,23.84749 -3.71729,2.05421 -7.9022,4.37965 -9.29979,5.16765 -1.3976,0.788 -5.4476,1.94704 -9,2.57563 -3.55241,0.6286 -8.54432,1.79066 -11.09313,2.58236 C 468.31697,455.35225 465.13835,456 463.8022,456 l -2.42938,0 1.17245,11.02552 c 0.64484,6.06404 1.49886,11.35154 1.89782,11.75 0.39897,0.39846 8.67498,0.766 18.39115,0.81674 9.71617,0.0507 19.1277,0.42388 20.91452,0.82918 3.89864,0.88434 6.25678,3.92887 6.23593,8.05107 -0.0339,6.69907 -1.6847,7.11572 -27.48469,6.93691 -12.1,-0.0839 -31.675,-0.17365 -43.5,-0.19952 -11.825,-0.0259 -22.625,-0.067 -24,-0.0915 -7.68433,-0.13649 -70.45727,-0.002 -81.30622,0.17371 -7.04343,0.11432 -13.65151,-0.10427 -14.68463,-0.48574 z M 447.98254,479.25 c -0.046,-1.97449 -2.90586,-17.94889 -3.47256,-19.39655 -0.63069,-1.61112 -1.97457,-1.93723 -14.25848,-3.46006 l -5.2485,-0.65065 0.58127,4.87863 c 0.31969,2.68325 0.96145,6.00363 1.42613,7.37863 0.46467,1.375 1.13,4.6375 1.4785,7.25 l 0.63365,4.75 9.43872,0 c 5.1913,0 9.43087,-0.3375 9.42127,-0.75 z"
       style="fill:#eeeed8" />
    <path
       id="path9496"
       d="m 320,493.19539 c -3.3773,-1.11513 -4.14393,-6.88755 -1.25,-9.41196 2.91364,-2.5416 15.92787,-3.3615 38.75,-2.44128 7.7,0.31047 23.21921,0.248 34.48712,-0.13883 l 20.48713,-0.70332 -0.33176,-7.90322 c -0.32628,-7.77271 -2.47253,-18.32217 -4.04893,-19.90165 -0.44181,-0.44267 -3.87099,-1.2393 -7.62041,-1.77028 -3.74941,-0.53099 -7.3377,-1.39747 -7.97396,-1.92552 -0.63627,-0.52806 -4.23864,-2.12009 -8.00528,-3.53784 -3.76664,-1.41776 -8.00881,-3.404 -9.42704,-4.41387 -1.41822,-1.00987 -5.83188,-3.39022 -9.80811,-5.28968 -15.46947,-7.38978 -34.4226,-32.2314 -35.86588,-47.00893 -0.87153,-8.92354 -3.14588,-15.17179 -6.1739,-16.96142 -4.22602,-2.49768 -15.25963,-14.84329 -20.03208,-22.41409 l -4.3131,-6.84211 1.1237,-10.5157 c 1.76277,-16.49612 3.17431,-21.48234 8.84702,-31.2518 6.4676,-11.13841 18.6233,-19.39068 32.8805,-22.32196 8.01255,-1.64737 9.79817,-3.36632 15.70687,-15.12033 2.16254,-4.30188 4.52542,-8.53245 5.25084,-9.40128 0.72543,-0.86882 2.46816,-4.46882 3.87273,-8 1.40457,-3.53117 4.51087,-10.69532 6.9029,-15.92032 2.39203,-5.225 5.52329,-13.325 6.95834,-18 2.7289,-8.88997 6.5833,-26.04579 6.5833,-29.30205 0,-1.04263 0.64544,-3.3137 1.4343,-5.04682 0.78887,-1.73312 2.54537,-6.30113 3.90334,-10.15113 7.50176,-21.26841 8.7613,-22.93963 24.2557,-32.18385 6.07184,-3.62256 20.69214,-6.90736 24.47723,-5.49939 1.33619,0.49703 5.31212,1.22187 8.83541,1.61077 6.73468,0.74336 18.42225,4.65455 21.07043,7.05112 0.85776,0.77626 3.45903,2.2618 5.78062,3.30121 2.56368,1.14779 5.47538,3.62342 7.41558,6.30498 1.75699,2.42834 3.7866,5.00948 4.51024,5.73588 4.81927,4.83755 12.25295,26.13802 14.2532,40.84112 0.58648,4.31099 1.5971,11.66316 2.24582,16.33816 0.64873,4.675 1.26999,12.37213 1.38058,17.10473 0.13101,5.6063 0.72349,9.4394 1.70026,11 0.82455,1.3174 1.74341,4.64678 2.04191,7.39863 0.2985,2.75184 1.92707,7.63504 3.61905,10.85154 1.69198,3.21651 3.07633,6.50439 3.07633,7.3064 0,1.39887 13.15002,31.04555 17.02543,38.38379 1.6231,3.0734 6.5054,19.17975 9.0802,29.95491 2.58983,10.83809 3.96913,18.07362 3.5727,18.74172 -0.24746,0.41705 -0.72854,5.70828 -1.06906,11.75828 -0.782,13.89352 -2.26644,22.8237 -4.70037,28.27675 -1.0499,2.35221 -1.9089,5.15475 -1.9089,6.22785 0,1.0731 -1.08355,4.32356 -2.40788,7.22325 -1.32434,2.89968 -3.17503,7.14551 -4.11265,9.43517 -1.92294,4.69577 -4.2162,7.03465 -16.90572,17.24201 -13.53066,10.88398 -26.18979,17.6088 -36.59084,19.4379 -4.6656,0.82048 -9.7497,1.97897 -11.29801,2.57442 -1.5483,0.59546 -3.95959,1.08265 -5.35841,1.08265 -2.26033,0 -2.46832,0.29878 -1.86932,2.68535 0.37068,1.47695 1.02977,6.90225 1.46463,12.05624 0.43487,5.15398 1.32784,9.90807 1.98438,10.56464 0.83957,0.83961 7.00443,1.21079 20.77969,1.25113 l 19.58598,0.0574 2.36407,2.7484 c 2.98473,3.46995 3.00561,6.17043 0.0626,8.09874 -2.00472,1.31354 -9.19269,1.43987 -55.75,0.97982 C 421.55185,493.1512 395.025,492.93602 392,492.96351 c -3.025,0.0275 -20.125,0.20234 -38,0.38856 -17.875,0.18623 -33.175,0.11572 -34,-0.15668 z m 128.08162,-12.87701 c 1.2522,-1.2522 -0.56525,-15.94466 -2.58599,-20.90557 -1.16308,-2.85532 -1.65126,-3.10112 -6.50022,-3.27274 -2.88349,-0.10206 -7.09956,-0.60279 -9.36906,-1.11273 -2.34524,-0.52697 -4.50256,-0.551 -4.99792,-0.0557 -0.49542,0.49538 -0.40911,3.60267 0.19998,7.19992 2.10015,12.40325 3.25729,18.15808 3.841,19.10253 0.78614,1.27202 18.03362,0.42287 19.41221,-0.95572 z M 366.0666,330.7341 c 7.50471,-5.05742 7.13672,-15.4795 -0.62222,-17.62184 -5.27157,-1.45556 -10.04038,0.67658 -11.99927,5.36486 -1.31056,3.13661 -1.31055,3.88242 7e-5,6.41688 1.46589,2.8347 6.98277,8.106 8.48366,8.106 0.42647,0 2.28846,-1.01966 4.13776,-2.2659 z m -8.32682,-3.27457 c -3.00582,-2.78715 -3.5304,-5.21891 -1.30966,-6.07109 0.78657,-0.30183 1.88816,-1.86271 2.44798,-3.46861 1.14969,-3.29799 3.47974,-3.75834 6.89939,-1.36313 2.64925,1.85561 2.93537,6.1641 0.69683,10.49296 -1.91617,3.70545 -5.02316,3.85125 -8.73454,0.40987 z m -30.54459,0.41048 c 0.93235,-1.07591 1.99971,-3.98691 2.37191,-6.46889 0.58029,-3.86966 0.34952,-4.86097 -1.61951,-6.9569 C 326.08645,312.46312 324.67165,312 320.48067,312 c -6.30301,0 -8.52876,1.99948 -9.13844,8.20942 -0.51883,5.2846 1.77641,8.61576 6.7299,9.76731 4.30964,1.00188 6.9595,0.38997 9.12306,-2.10672 z m -9.87982,0.055 c -4.14603,-1.5414 -4.68595,-4.43652 -1.75886,-9.43123 1.44844,-2.47158 3.29536,-4.49378 4.10425,-4.49378 1.84416,0 5.60124,1.94297 6.57393,3.3997 1.45772,2.18314 0.72072,6.29181 -1.48469,8.27697 -2.97729,2.67997 -4.79503,3.22967 -7.43463,2.24834 z"
       style="fill:#d5d6ab" />
    <path
       id="path9494"
       d="m 444.66297,492.5257 c -2.93625,-0.7653 -7.65183,-1.04621 -12,-0.71484 -3.93963,0.30024 -10.53797,0.454 -14.66297,0.34169 -4.125,-0.11231 -27.89377,-0.30507 -52.81949,-0.42837 -41.85211,-0.20703 -45.39392,-0.35706 -46.29227,-1.96093 -0.96403,-1.72111 0.3157,-5.66425 1.89694,-5.84493 3.60774,-0.41223 17.55473,-1.09081 20.71482,-1.00786 19.73022,0.5179 66.81227,-0.0787 68.90167,-0.87308 2.46253,-0.93625 2.59833,-1.3606 2.59833,-8.11955 0,-8.78576 -2.73108,-20.70354 -5.02586,-21.93167 -0.91813,-0.49137 -4.32541,-1.32526 -7.57173,-1.8531 -3.24633,-0.52784 -8.82741,-2.34835 -12.40241,-4.04559 -3.575,-1.69724 -6.97507,-3.08625 -7.55572,-3.08668 -0.58065,-4.3e-4 -2.60565,-1.15515 -4.5,-2.56603 -1.89435,-1.41089 -6.56822,-4.14184 -10.38637,-6.0688 -6.91072,-3.48773 -15.59719,-11.2883 -22.1221,-19.86596 -8.28658,-10.89355 -14.59624,-25.03359 -13.01241,-29.16098 1.04624,-2.72646 -2.68316,-11.38947 -5.84211,-13.57063 -5.43479,-3.75255 -13.56196,-12.12058 -16.77135,-17.26839 -1.71448,-2.75 -4.15888,-6.57866 -5.43198,-8.50814 -2.12582,-3.22182 -2.26706,-4.242 -1.73055,-12.5 0.58541,-9.01067 3.36338,-21.80579 5.75171,-26.49186 3.41838,-6.70713 6.06209,-10.79057 8.94302,-13.81329 6.79412,-7.12854 18.6575,-13.12462 28.9266,-14.62031 6.25399,-0.91089 8.60021,-3.21845 14.14403,-13.91096 2.52214,-4.86451 5.48605,-10.10898 6.58647,-11.65437 1.10042,-1.5454 2.00076,-3.24564 2.00076,-3.77832 0,-1.41303 3.46429,-9.56207 7.95935,-18.72275 4.93778,-10.06293 7.45375,-18.091 11.59566,-37 3.45975,-15.79475 4.55879,-19.46573 10.17916,-34 3.896,-10.07505 9.41554,-16.82979 17.26583,-21.12971 2.475,-1.35565 5.625,-3.07877 7,-3.82916 2.70934,-1.47858 10.9801,-3.49702 15,-3.66069 6.44857,-0.26255 23.83653,3.02195 29,5.47796 12.67339,6.0281 15.34809,8.09161 22.13378,17.076 6.05562,8.01776 6.94352,9.84141 10.18769,20.92443 1.95465,6.67764 4.0202,15.29117 4.59012,19.14117 2.19974,14.86003 3.4156,25.36083 3.99466,34.5 0.33106,5.225 1.10506,10.4 1.72002,11.5 0.61495,1.1 1.44296,4.23603 1.84002,6.96896 0.39706,2.73292 1.74235,7.00792 2.98954,9.5 1.24719,2.49207 3.0776,7.00604 4.06758,10.03104 0.98998,3.025 4.6522,11.51875 8.13828,18.87501 3.48607,7.35625 6.33831,13.81179 6.33831,14.34563 0,0.53384 0.83816,2.16509 1.86257,3.62499 2.01968,2.87828 11.13743,33.66889 11.13743,37.61109 0,1.32719 0.45587,3.61212 1.01305,5.07761 0.68475,1.80102 0.68146,7.08836 -0.0102,16.3151 -1.25457,16.73724 -2.68431,25.34247 -5.13223,30.88967 -1.02887,2.33151 -1.87067,5.16735 -1.87067,6.30188 0,1.13453 -0.88323,3.72694 -1.96274,5.7609 -1.0795,2.03397 -3.0446,6.20916 -4.36688,9.2782 -1.89555,4.39961 -3.83325,6.72667 -9.15952,11 -3.71545,2.98096 -8.38786,6.82352 -10.38311,8.53902 -9.61323,8.26536 -25.15335,16.02363 -34.75877,17.35301 -3.92206,0.5428 -8.33886,1.44614 -9.8151,2.00741 -1.47624,0.56126 -3.75323,1.02048 -5.05996,1.02048 -3.14484,0 -3.53228,0.85545 -2.5154,5.55383 0.46974,2.17039 1.08387,7.32117 1.36474,11.44617 0.28087,4.125 0.81817,8.29138 1.19401,9.25863 1.13855,2.93017 5.93158,3.45733 26.46273,2.91049 11.91513,-0.31736 15.01383,0.1293 16.67708,2.40393 1.63294,2.23318 1.70927,5.07014 0.16214,6.02632 -0.63843,0.39457 -7.72593,0.59276 -15.75,0.44042 -8.02407,-0.15235 -15.48922,-0.27135 -16.58922,-0.26446 -2.89477,0.0181 -18.56025,1.21785 -21.5,1.64653 -1.375,0.2005 -4.67666,-0.20277 -7.33703,-0.89616 z m 0.33738,-9.76437 c 2.18286,-0.68127 4.14499,-1.69771 4.36029,-2.25875 0.6852,-1.7856 -2.05389,-19.09255 -3.48475,-22.01846 -1.01123,-2.06782 -2.171,-2.85932 -4.37589,-2.9864 -1.65,-0.0951 -6.53943,-0.53776 -10.86541,-0.9837 l -7.86541,-0.8108 0.73914,6.39839 c 0.40652,3.51911 1.07754,7.29839 1.49115,8.39839 0.41361,1.1 1.08332,4.475 1.48825,7.5 0.40492,3.025 1.19094,6.0625 1.7467,6.75 1.31406,1.62556 11.57154,1.63249 16.76593,0.0113 z M 366.78321,331.4393 c 5.71759,-4.00477 6.82575,-11.98419 2.29371,-16.51622 -4.16167,-4.16168 -9.30905,-4.05966 -13.77931,0.27309 -4.66324,4.51979 -4.50693,8.44836 0.54755,13.76172 4.18313,4.39739 7.21924,5.08616 10.93805,2.48141 z m -8.6089,-4.75375 c -2.52209,-2.68465 -2.75639,-4.24821 -0.75187,-5.01741 0.78234,-0.30021 1.56984,-1.58586 1.75,-2.85699 0.48,-3.38669 5.73251,-3.25654 7.62163,0.18885 1.17958,2.15131 1.14818,3.02303 -0.22507,6.25 -1.90262,4.4709 -5.03922,5.00728 -8.39469,1.43555 z m -29.92407,0.63625 c 1.0175,-1.74802 1.92513,-5.06222 2.01696,-7.36491 C 330.48951,314.38185 326.86467,311 320.66674,311 c -5.63915,0 -8.17766,2.00059 -9.57378,7.5451 -1.03702,4.11839 -0.93964,4.96691 0.91434,7.96671 2.35572,3.81164 3.68319,4.36501 9.94282,4.14477 3.8702,-0.13618 4.6912,-0.57075 6.30012,-3.33478 z m -12.36908,-1.21695 -2.3404,-1.89514 2.29977,-4.60486 c 2.42679,-4.85916 5.09352,-5.92838 8.36737,-3.35485 2.95982,2.32668 3.04058,5.30125 0.23446,8.63614 -3.01351,3.58134 -5.25026,3.89975 -8.5612,1.21871 z"
       style="fill:#fadc5c" />
    <path
       id="path9492"
       d="m 444.66297,492.5257 c -2.93625,-0.7653 -7.65183,-1.04621 -12,-0.71484 -3.93963,0.30024 -10.53797,0.454 -14.66297,0.34169 -4.125,-0.11231 -27.89377,-0.30507 -52.81949,-0.42837 -41.85211,-0.20703 -45.39392,-0.35706 -46.29227,-1.96093 -0.96403,-1.72111 0.3157,-5.66425 1.89694,-5.84493 3.60774,-0.41223 17.55473,-1.09081 20.71482,-1.00786 19.73022,0.5179 66.81227,-0.0787 68.90167,-0.87308 2.46253,-0.93625 2.59833,-1.3606 2.59833,-8.11955 0,-8.78576 -2.73108,-20.70354 -5.02586,-21.93167 -0.91813,-0.49137 -4.32541,-1.32526 -7.57173,-1.8531 -3.24633,-0.52784 -8.82741,-2.34835 -12.40241,-4.04559 -3.575,-1.69724 -6.97507,-3.08625 -7.55572,-3.08668 -0.58065,-4.3e-4 -2.60565,-1.15515 -4.5,-2.56603 -1.89435,-1.41089 -6.56822,-4.14184 -10.38637,-6.0688 -10.16657,-5.1309 -20.5332,-16.04728 -29.31153,-30.86596 -4.02351,-6.79208 -6.83764,-15.51682 -5.84187,-18.11175 0.26881,-0.70051 0.024,-2.76194 -0.54404,-4.58095 -0.56803,-1.81902 -1.18786,-4.39698 -1.3774,-5.72881 -0.18954,-1.33182 -1.16326,-2.87046 -2.16384,-3.4192 -4.24624,-2.32871 -16.17261,-15.06504 -19.27976,-20.58912 -1.85179,-3.29222 -3.7413,-5.75445 -4.19893,-5.47162 -1.52332,0.94147 -3.11032,-4.34695 -2.41566,-8.04981 0.37189,-1.98238 1.00939,-3.39838 1.41666,-3.14668 0.40726,0.25171 0.5767,-0.97329 0.37652,-2.72221 -0.59839,-5.22804 2.4931,-17.48876 6.32203,-25.07287 6.93551,-13.73745 18.24463,-22.33193 35.03693,-26.62668 4.26851,-1.0917 7.80689,-2.09637 7.86307,-2.2326 0.0562,-0.13624 1.05965,-2.0477 2.22994,-4.2477 1.17029,-2.2 3.76006,-7.09707 5.75505,-10.88238 1.99499,-3.78531 4.51548,-8.12977 5.60109,-9.65437 1.08561,-1.52459 1.97383,-3.20782 1.97383,-3.7405 0,-1.41303 3.46429,-9.56207 7.95935,-18.72275 4.93778,-10.06293 7.45375,-18.091 11.59566,-37 3.45975,-15.79475 4.55879,-19.46573 10.17916,-34 3.896,-10.07505 9.41554,-16.82979 17.26583,-21.12971 2.475,-1.35565 5.625,-3.07877 7,-3.82916 2.70934,-1.47858 10.9801,-3.49702 15,-3.66069 6.44857,-0.26255 23.83653,3.02195 29,5.47796 12.67339,6.0281 15.34809,8.09161 22.13378,17.076 6.05562,8.01776 6.94352,9.84141 10.18769,20.92443 1.95465,6.67764 4.0202,15.29117 4.59012,19.14117 2.19974,14.86003 3.4156,25.36083 3.99466,34.5 0.33106,5.225 1.10506,10.4 1.72002,11.5 0.61495,1.1 1.44296,4.23603 1.84002,6.96896 0.39706,2.73292 1.74235,7.00792 2.98954,9.5 1.24719,2.49207 3.0776,7.00604 4.06758,10.03104 0.98998,3.025 4.6522,11.51875 8.13828,18.87501 3.48607,7.35625 6.33831,13.81179 6.33831,14.34563 0,0.53384 0.83816,2.16509 1.86257,3.62499 2.01968,2.87828 11.13743,33.66889 11.13743,37.61109 0,1.32719 0.45587,3.61212 1.01305,5.07761 0.68475,1.80102 0.68146,7.08836 -0.0102,16.3151 -1.25457,16.73724 -2.68431,25.34247 -5.13223,30.88967 -1.02887,2.33151 -1.87067,5.16735 -1.87067,6.30188 0,1.13453 -0.88323,3.72694 -1.96274,5.7609 -1.0795,2.03397 -3.0446,6.20916 -4.36688,9.2782 -1.89555,4.39961 -3.83325,6.72667 -9.15952,11 -3.71545,2.98096 -8.38786,6.82352 -10.38311,8.53902 -9.61323,8.26536 -25.15335,16.02363 -34.75877,17.35301 -3.92206,0.5428 -8.33886,1.44614 -9.8151,2.00741 -1.47624,0.56126 -3.75323,1.02048 -5.05996,1.02048 -3.14484,0 -3.53228,0.85545 -2.5154,5.55383 0.46974,2.17039 1.08387,7.32117 1.36474,11.44617 0.28087,4.125 0.81817,8.29138 1.19401,9.25863 1.13855,2.93017 5.93158,3.45733 26.46273,2.91049 11.91513,-0.31736 15.01383,0.1293 16.67708,2.40393 1.63294,2.23318 1.70927,5.07014 0.16214,6.02632 -0.63843,0.39457 -7.72593,0.59276 -15.75,0.44042 -8.02407,-0.15235 -15.48922,-0.27135 -16.58922,-0.26446 -2.89477,0.0181 -18.56025,1.21785 -21.5,1.64653 -1.375,0.2005 -4.67666,-0.20277 -7.33703,-0.89616 z m 0.33738,-9.76437 c 2.18286,-0.68127 4.14499,-1.69771 4.36029,-2.25875 0.6852,-1.7856 -2.05389,-19.09255 -3.48475,-22.01846 -1.01123,-2.06782 -2.171,-2.85932 -4.37589,-2.9864 -1.65,-0.0951 -6.53943,-0.53776 -10.86541,-0.9837 l -7.86541,-0.8108 0.73914,6.39839 c 0.40652,3.51911 1.07754,7.29839 1.49115,8.39839 0.41361,1.1 1.08332,4.475 1.48825,7.5 0.40492,3.025 1.19094,6.0625 1.7467,6.75 1.31406,1.62556 11.57154,1.63249 16.76593,0.0113 z m -77.8834,-149.48949 c 3.20348,-1.89234 6.88521,-8.49527 6.87931,-12.33756 -0.005,-3.44996 -3.53609,-8.80883 -6.56182,-9.95921 -5.45435,-2.07374 -9.4223,-1.22251 -13.55209,2.90728 -5.09128,5.09129 -5.26497,9.19038 -0.63235,14.92324 5.12617,6.34362 8.72604,7.50306 13.86695,4.46625 z m -8.94264,-6.58629 c -2.52209,-2.68465 -2.75639,-4.24821 -0.75187,-5.01741 0.78234,-0.30021 1.56984,-1.58586 1.75,-2.85699 0.48,-3.38669 5.73251,-3.25654 7.62163,0.18885 1.17958,2.15131 1.14818,3.02303 -0.22507,6.25 -1.90262,4.4709 -5.03922,5.00728 -8.39469,1.43555 z m -30.18304,3.47703 c 1.92417,-1.92417 3.06185,-4.334 3.5347,-7.4872 0.92202,-6.14846 0.0811,-9.04601 -3.26422,-11.2471 -3.26815,-2.15032 -12.49769,-2.30673 -14.97325,-0.25375 -2.21266,1.83495 -4.2885,7.13478 -4.2885,10.94896 0,3.84463 4.07217,9.55906 7.2476,10.17046 6.16472,1.18698 8.92657,0.68572 11.74367,-2.13137 z m -12.11011,-4.05773 -2.3404,-1.89514 2.29977,-4.60486 c 2.42679,-4.85916 5.09352,-5.92838 8.36737,-3.35485 2.95982,2.32668 3.04058,5.30125 0.23446,8.63614 -3.01351,3.58134 -5.25026,3.89975 -8.5612,1.21871 z"
       style="fill:#fad62a" />
    <path
       id="path9490"
       d="m 444.66297,492.5257 c -2.93625,-0.7653 -7.65183,-1.04621 -12,-0.71484 -3.93963,0.30024 -10.53797,0.454 -14.66297,0.34169 -4.125,-0.11231 -27.89377,-0.30507 -52.81949,-0.42837 -41.85211,-0.20703 -45.39392,-0.35706 -46.29227,-1.96093 -0.96403,-1.72111 0.3157,-5.66425 1.89694,-5.84493 3.60774,-0.41223 17.55473,-1.09081 20.71482,-1.00786 19.73022,0.5179 66.81227,-0.0787 68.90167,-0.87308 2.46253,-0.93625 2.59833,-1.3606 2.59833,-8.11955 0,-8.78576 -2.73108,-20.70354 -5.02586,-21.93167 -0.91813,-0.49137 -4.32541,-1.32526 -7.57173,-1.8531 -3.24633,-0.52784 -8.82741,-2.34835 -12.40241,-4.04559 -3.575,-1.69724 -6.97507,-3.08625 -7.55572,-3.08668 -0.58065,-4.3e-4 -2.60565,-1.15515 -4.5,-2.56603 -1.89435,-1.41089 -6.56822,-4.14184 -10.38637,-6.0688 -10.16657,-5.1309 -20.5332,-16.04728 -29.31153,-30.86596 -4.02351,-6.79208 -6.83764,-15.51682 -5.84187,-18.11175 0.46129,-1.2021 -0.3159,-4.72193 -1.90735,-8.63825 -1.01695,-2.50256 1.59136,-2.25481 5.07013,0.48159 1.56035,1.22737 2.53492,1.74281 2.16571,1.14541 -0.36921,-0.5974 -3.27268,-3.04858 -6.45215,-5.44708 -9.78948,-7.3849 -17.23446,-15.12049 -21.46425,-22.3021 -2.82992,-4.80484 -4.29296,-6.47508 -4.86336,-5.55216 -0.60298,0.97564 -1.12743,0.63613 -2.01018,-1.30129 -1.32179,-2.90101 -0.44682,-10.20374 1.10747,-9.24314 0.55311,0.34184 0.95576,-1.62944 0.96453,-4.72221 0.0131,-4.60907 1.69192,-11.84933 3.06627,-13.22368 0.2486,-0.2486 0.452,2.13537 0.452,5.29773 0,4.78872 0.58221,6.71954 3.48334,11.55209 1.91583,3.1913 4.49666,6.53642 5.73518,7.4336 1.23852,0.89718 3.70032,2.88504 5.47068,4.41746 4.19355,3.62994 11.35099,5.60813 21.27747,5.88072 11.23412,0.30849 15.16178,-1.0971 22.31034,-7.98422 5.04683,-4.86225 6.53274,-7.13687 9.22825,-14.12657 2.68062,-6.95107 3.1211,-9.21996 2.65907,-13.69662 -1.38121,-13.38264 -12.96533,-28.52014 -23.60292,-30.84305 -1.87289,-0.40897 -4.79789,-1.33437 -6.5,-2.05644 l -3.09474,-1.31285 4.64936,-1.25408 c 2.66869,-0.71983 4.46474,-1.73517 4.216,-2.38338 -0.23834,-0.62111 1.83195,-5.23547 4.60064,-10.25413 2.7687,-5.01867 5.034,-9.40929 5.034,-9.75694 0,-0.34766 1.125,-2.10705 2.5,-3.90977 1.375,-1.80272 2.5,-3.74049 2.5,-4.30616 0,-1.46847 3.39727,-9.48546 7.95935,-18.78273 4.93778,-10.06293 7.45375,-18.091 11.59566,-37 3.45975,-15.79475 4.55879,-19.46573 10.17916,-34 3.896,-10.07505 9.41554,-16.82979 17.26583,-21.12971 2.475,-1.35565 5.625,-3.07877 7,-3.82916 2.70934,-1.47858 10.9801,-3.49702 15,-3.66069 6.44857,-0.26255 23.83653,3.02195 29,5.47796 12.67339,6.0281 15.34809,8.09161 22.13378,17.076 6.05562,8.01776 6.94352,9.84141 10.18769,20.92443 1.95465,6.67764 4.0202,15.29117 4.59012,19.14117 2.19974,14.86003 3.4156,25.36083 3.99466,34.5 0.33106,5.225 1.10506,10.4 1.72002,11.5 0.61495,1.1 1.44296,4.23603 1.84002,6.96896 0.39706,2.73292 1.74235,7.00792 2.98954,9.5 1.24719,2.49207 3.0776,7.00604 4.06758,10.03104 0.98998,3.025 4.6522,11.51875 8.13828,18.87501 3.48607,7.35625 6.33831,13.81179 6.33831,14.34563 0,0.53384 0.83816,2.16509 1.86257,3.62499 2.01968,2.87828 11.13743,33.66889 11.13743,37.61109 0,1.32719 0.45587,3.61212 1.01305,5.07761 0.68475,1.80102 0.68146,7.08836 -0.0102,16.3151 -1.25457,16.73724 -2.68431,25.34247 -5.13223,30.88967 -1.02887,2.33151 -1.87067,5.16735 -1.87067,6.30188 0,1.13453 -0.88323,3.72694 -1.96274,5.7609 -1.0795,2.03397 -3.0446,6.20916 -4.36688,9.2782 -1.89555,4.39961 -3.83325,6.72667 -9.15952,11 -3.71545,2.98096 -8.38786,6.82352 -10.38311,8.53902 -9.61323,8.26536 -25.15335,16.02363 -34.75877,17.35301 -3.92206,0.5428 -8.33886,1.44614 -9.8151,2.00741 -1.47624,0.56126 -3.75323,1.02048 -5.05996,1.02048 -3.14484,0 -3.53228,0.85545 -2.5154,5.55383 0.46974,2.17039 1.08387,7.32117 1.36474,11.44617 0.28087,4.125 0.81817,8.29138 1.19401,9.25863 1.13855,2.93017 5.93158,3.45733 26.46273,2.91049 11.91513,-0.31736 15.01383,0.1293 16.67708,2.40393 1.63294,2.23318 1.70927,5.07014 0.16214,6.02632 -0.63843,0.39457 -7.72593,0.59276 -15.75,0.44042 -8.02407,-0.15235 -15.48922,-0.27135 -16.58922,-0.26446 -2.89477,0.0181 -18.56025,1.21785 -21.5,1.64653 -1.375,0.2005 -4.67666,-0.20277 -7.33703,-0.89616 z m 0.33738,-9.76437 c 2.18286,-0.68127 4.14499,-1.69771 4.36029,-2.25875 0.6852,-1.7856 -2.05389,-19.09255 -3.48475,-22.01846 -1.01123,-2.06782 -2.171,-2.85932 -4.37589,-2.9864 -1.65,-0.0951 -6.53943,-0.53776 -10.86541,-0.9837 l -7.86541,-0.8108 0.73914,6.39839 c 0.40652,3.51911 1.07754,7.29839 1.49115,8.39839 0.41361,1.1 1.08332,4.475 1.48825,7.5 0.40492,3.025 1.19094,6.0625 1.7467,6.75 1.31406,1.62556 11.57154,1.63249 16.76593,0.0113 z M 337.5,342.34506 c -1.1,-0.23261 -3.0125,-0.63898 -4.25,-0.90305 -2.45456,-0.52376 -3.00754,-3.28447 -1.05,-5.24201 1.47741,-1.47741 13.18587,-1.59904 15.86574,-0.16482 2.33196,1.24803 2.56811,5.50761 0.35247,6.35783 -1.71467,0.65798 -7.70435,0.63168 -10.91821,-0.048 z m 20.67431,-15.65951 c -2.52209,-2.68465 -2.75639,-4.24821 -0.75187,-5.01741 0.78234,-0.30021 1.56984,-1.58586 1.75,-2.85699 0.48,-3.38669 5.73251,-3.25654 7.62163,0.18885 1.17958,2.15131 1.14818,3.02303 -0.22507,6.25 -1.90262,4.4709 -5.03922,5.00728 -8.39469,1.43555 z m -42.29315,-0.5807 -2.3404,-1.89514 2.29977,-4.60486 c 2.42679,-4.85916 5.09352,-5.92838 8.36737,-3.35485 2.95982,2.32668 3.04058,5.30125 0.23446,8.63614 -3.01351,3.58134 -5.25026,3.89975 -8.5612,1.21871 z"
       style="fill:#b2b093" />
    <path
       id="path9488"
       d="m 411.02002,490.86598 c -4.18232,-2.54342 -4.19225,-6.59724 -0.02,-8.17208 2.96829,-1.12041 2.99994,-1.21197 2.99442,-8.66314 -0.003,-4.14192 -0.42426,-9.10576 -0.93598,-11.03076 -0.51172,-1.925 -1.41842,-5.38229 -2.01489,-7.68286 -1.06167,-4.09486 -1.20503,-4.20612 -6.81402,-5.28811 -9.89875,-1.90949 -22.43748,-6.82213 -28.97396,-11.35192 C 373.13088,437.2047 371.07296,436 370.68242,436 c -0.39055,0 -3.29962,-1.2375 -6.46462,-2.75 -9.08447,-4.34132 -21.74948,-18.56951 -29.3132,-32.93114 C 331.78073,394.3874 331,391.83917 331,387.57462 c 0,-2.93171 -0.68104,-6.96033 -1.51342,-8.9525 -1.83891,-4.40112 -0.37905,-4.89858 4.08071,-1.39053 1.56035,1.22737 2.53492,1.74281 2.16571,1.14541 -0.36921,-0.5974 -3.27268,-3.04858 -6.45215,-5.44708 -9.70144,-7.31849 -17.2222,-15.09978 -21.32509,-22.06384 -2.14962,-3.64866 -4.64275,-6.91573 -5.5403,-7.26015 -1.28279,-0.49225 -1.49231,-1.42629 -0.97936,-4.36607 0.35889,-2.05692 1.04368,-6.66486 1.52174,-10.23986 1.70664,-12.76238 3.57549,-16.47261 3.57549,-7.09841 0,4.76757 0.58569,6.70682 3.48334,11.53357 1.91583,3.1913 4.49666,6.53642 5.73518,7.4336 1.23852,0.89718 3.70032,2.88504 5.47068,4.41746 4.19355,3.62994 11.35099,5.60813 21.27747,5.88072 11.23412,0.30849 15.16178,-1.0971 22.31034,-7.98422 5.04683,-4.86225 6.53274,-7.13687 9.22825,-14.12657 2.68062,-6.95107 3.1211,-9.21996 2.65907,-13.69662 -1.38121,-13.38264 -12.96533,-28.52014 -23.60292,-30.84305 -1.87289,-0.40897 -4.79789,-1.33437 -6.5,-2.05644 l -3.09474,-1.31285 4.69065,-1.26512 c 2.57985,-0.69582 4.46389,-1.63202 4.18674,-2.08045 -0.27714,-0.44843 1.16031,-3.84974 3.19433,-7.55847 2.03402,-3.70873 4.61148,-8.54315 5.72768,-10.74315 1.11621,-2.2 2.59353,-4.675 3.28295,-5.5 0.68942,-0.825 2.64251,-5.00446 4.3402,-9.2877 1.6977,-4.28323 4.50125,-10.58323 6.23013,-14 4.99819,-9.87787 10.18877,-27.49211 12.8812,-43.7123 0.68472,-4.125 1.79819,-8.4066 2.47439,-9.51467 0.67619,-1.10806 1.56545,-3.5445 1.97613,-5.4143 0.41068,-1.86981 1.9713,-6.1382 3.46805,-9.48534 1.49674,-3.34713 3.03117,-7.33454 3.40983,-8.8609 1.87761,-7.56853 17.90471,-18.79022 30.58068,-21.41167 5.97185,-1.235 8.44486,-1.31587 12.50082,-0.40875 2.78092,0.62195 7.89562,1.55223 11.366,2.06729 10.52989,1.56279 24.78061,9.34427 30.39063,16.59452 6.86363,8.87039 8.91675,12.52552 11.39398,20.28445 2.95918,9.26847 6.40561,25.6615 6.40561,30.46849 0,1.92772 0.69891,7.03203 1.55313,11.34291 0.85422,4.31088 1.52518,11.34001 1.49103,15.62029 -0.0389,4.87025 0.46768,8.8068 1.35371,10.52017 0.77869,1.50582 1.88896,5.29743 2.46727,8.42579 0.57831,3.12837 1.93837,7.42641 3.02237,9.55122 1.08399,2.1248 2.87683,6.5525 3.98408,9.83934 1.10726,3.28683 4.73912,11.69231 8.0708,18.67885 3.33169,6.98655 6.05761,13.31701 6.05761,14.0677 0,0.75069 0.85245,2.4486 1.89433,3.77314 1.92575,2.4482 9.85797,29.27693 11.98844,40.54789 0.86836,4.59393 0.89712,9.74225 0.11172,20 -1.22319,15.97572 -2.48034,23.11826 -5.11354,29.05268 -1.03452,2.33151 -1.88095,5.26888 -1.88095,6.5275 0,1.25861 -0.6593,3.22967 -1.46511,4.38012 -0.80581,1.15045 -2.45068,4.72593 -3.65528,7.94549 -1.40864,3.76494 -3.65131,7.23811 -6.28489,9.73328 -3.73685,3.54045 -6.18121,5.53011 -18.92553,15.40499 -2.29305,1.77677 -8.21919,5.26845 -13.16919,7.75929 -8.69436,4.375 -10.69152,4.91444 -31,8.37312 -3.21488,0.54752 -3.95238,1.06946 -3.75738,2.65917 0.13344,1.08787 0.76008,6.92794 1.39253,12.97794 0.63245,6.05 1.76077,12.21515 2.50738,13.70034 2.88012,5.72927 0.59171,8.83122 -7.30572,9.90293 -7.07168,0.95964 -11.09611,0.21499 -12.4434,-2.30243 -1.3465,-2.51596 1.1426,-6.52548 4.33196,-6.97806 2.18209,-0.30965 2.26845,-0.67903 2.12268,-9.0794 -0.0945,-5.44746 -0.81073,-10.58863 -1.8952,-13.60442 l -1.74324,-4.84781 -11.35872,-1.30832 c -6.2473,-0.71959 -11.62873,-1.03832 -11.95875,-0.7083 -1.18649,1.18649 3.80261,29.32022 5.50062,31.01823 0.60898,0.60898 1.10724,1.90687 1.10724,2.88419 0,4.45333 -12.50442,7.01892 -17.97998,3.68903 z M 337.5,342.34506 c -1.1,-0.23261 -3.0125,-0.63898 -4.25,-0.90305 -2.45456,-0.52376 -3.00754,-3.28447 -1.05,-5.24201 1.47741,-1.47741 13.18587,-1.59904 15.86574,-0.16482 2.33196,1.24803 2.56811,5.50761 0.35247,6.35783 -1.71467,0.65798 -7.70435,0.63168 -10.91821,-0.048 z M 358.5,326 c -1.68717,-1.8643 -1.69768,-2.12408 -0.15499,-3.82874 0.91025,-1.00581 1.65499,-2.54331 1.65499,-3.41667 0,-3.20121 4.30549,-2.92082 6.0806,0.396 0.72283,1.35064 0.65542,2.93745 -0.22867,5.38235 -1.46108,4.04055 -4.47812,4.64259 -7.35193,1.46706 z m -42.02206,-0.39247 c -1.87051,-1.36775 -1.86946,-1.46517 0.0589,-5.48853 2.14091,-4.46686 5.03743,-5.4019 7.89176,-2.54757 2.21134,2.21134 1.95437,4.72019 -0.74302,7.25426 -2.68632,2.52367 -4.54917,2.72574 -7.20761,0.78184 z"
       style="fill:#fab903" />
    <path
       id="path9486"
       d="m 411.02002,490.86598 c -4.18232,-2.54342 -4.19225,-6.59724 -0.02,-8.17208 2.96829,-1.12041 2.99994,-1.21197 2.99442,-8.66314 -0.003,-4.14192 -0.42426,-9.10576 -0.93598,-11.03076 -0.51172,-1.925 -1.41842,-5.38229 -2.01489,-7.68286 -1.06167,-4.09486 -1.20503,-4.20612 -6.81402,-5.28811 -9.89875,-1.90949 -22.43748,-6.82213 -28.97396,-11.35192 C 373.13088,437.2047 371.07296,436 370.68242,436 c -0.39055,0 -3.29962,-1.2375 -6.46462,-2.75 -9.08447,-4.34132 -21.74948,-18.56951 -29.3132,-32.93114 C 331.78073,394.3874 331,391.83917 331,387.57462 c 0,-2.93171 -0.68104,-6.96033 -1.51342,-8.9525 -1.8616,-4.45543 -0.67472,-4.7175 4.65076,-1.02694 3.42224,2.37161 4.67599,2.60804 14.55375,2.74454 15.85663,0.21912 27.38758,-3.18303 35.13837,-10.36738 l 3.32946,-3.08614 -2.57946,-2.57947 c -3.05112,-3.05112 -3.24679,-5.26104 -0.73995,-8.35687 1.51428,-1.87004 2.87539,-2.28745 7.69818,-2.36078 l 5.85866,-0.0891 3.40738,-7.91043 c 4.82499,-11.20149 5.41908,-20.78274 1.78996,-28.86808 C 401.16716,313.5433 400,310.48186 400,309.91827 c 0,-2.5701 -9.51845,-15.20432 -15.23753,-20.22539 -7.20105,-6.32217 -13.66303,-9.09713 -24.61081,-10.56857 -4.04159,-0.54322 -7.57477,-1.21408 -7.8515,-1.49082 -0.27673,-0.27673 1.17826,-3.56997 3.23331,-7.31832 2.05506,-3.74834 4.64973,-8.61517 5.76593,-10.81517 1.11621,-2.2 2.59353,-4.675 3.28295,-5.5 0.68942,-0.825 2.64251,-5.00446 4.3402,-9.2877 1.6977,-4.28323 4.50125,-10.58323 6.23013,-14 4.99819,-9.87787 10.18877,-27.49211 12.8812,-43.7123 0.68472,-4.125 1.79819,-8.4066 2.47439,-9.51467 0.67619,-1.10806 1.56545,-3.5445 1.97613,-5.4143 0.41068,-1.86981 1.9713,-6.1382 3.46805,-9.48534 1.49674,-3.34713 3.03117,-7.33454 3.40983,-8.8609 1.87761,-7.56853 17.90471,-18.79022 30.58068,-21.41167 5.97185,-1.235 8.44486,-1.31587 12.50082,-0.40875 2.78092,0.62195 7.89562,1.55223 11.366,2.06729 10.52989,1.56279 24.78061,9.34427 30.39063,16.59452 6.86363,8.87039 8.91675,12.52552 11.39398,20.28445 2.95918,9.26847 6.40561,25.6615 6.40561,30.46849 0,1.92772 0.69891,7.03203 1.55313,11.34291 0.85422,4.31088 1.52518,11.34001 1.49103,15.62029 -0.0389,4.87025 0.46768,8.8068 1.35371,10.52017 0.77869,1.50582 1.88896,5.29743 2.46727,8.42579 0.57831,3.12837 1.93837,7.42641 3.02237,9.55122 1.08399,2.1248 2.87683,6.5525 3.98408,9.83934 1.10726,3.28683 4.73912,11.69231 8.0708,18.67885 3.33169,6.98655 6.05761,13.31701 6.05761,14.0677 0,0.75069 0.85245,2.4486 1.89433,3.77314 1.92575,2.4482 9.85797,29.27693 11.98844,40.54789 0.86836,4.59393 0.89712,9.74225 0.11172,20 -1.22319,15.97572 -2.48034,23.11826 -5.11354,29.05268 -1.03452,2.33151 -1.88095,5.26888 -1.88095,6.5275 0,1.25861 -0.6593,3.22967 -1.46511,4.38012 -0.80581,1.15045 -2.45068,4.72593 -3.65528,7.94549 -1.40864,3.76494 -3.65131,7.23811 -6.28489,9.73328 -3.73685,3.54045 -6.18121,5.53011 -18.92553,15.40499 -2.29305,1.77677 -8.21919,5.26845 -13.16919,7.75929 -8.69436,4.375 -10.69152,4.91444 -31,8.37312 -3.21488,0.54752 -3.95238,1.06946 -3.75738,2.65917 0.13344,1.08787 0.76008,6.92794 1.39253,12.97794 0.63245,6.05 1.76077,12.21515 2.50738,13.70034 2.88012,5.72927 0.59171,8.83122 -7.30572,9.90293 -7.07168,0.95964 -11.09611,0.21499 -12.4434,-2.30243 -1.3465,-2.51596 1.1426,-6.52548 4.33196,-6.97806 2.18209,-0.30965 2.26845,-0.67903 2.12268,-9.0794 -0.0945,-5.44746 -0.81073,-10.58863 -1.8952,-13.60442 l -1.74324,-4.84781 -11.35872,-1.30832 c -6.2473,-0.71959 -11.62873,-1.03832 -11.95875,-0.7083 -1.18649,1.18649 3.80261,29.32022 5.50062,31.01823 0.60898,0.60898 1.10724,1.90687 1.10724,2.88419 0,4.45333 -12.50442,7.01892 -17.97998,3.68903 z M 337.5,342.34506 c -1.1,-0.23261 -3.0125,-0.63898 -4.25,-0.90305 -2.45456,-0.52376 -3.00754,-3.28447 -1.05,-5.24201 1.47741,-1.47741 13.18587,-1.59904 15.86574,-0.16482 2.33196,1.24803 2.56811,5.50761 0.35247,6.35783 -1.71467,0.65798 -7.70435,0.63168 -10.91821,-0.048 z M 358.5,326 c -1.68717,-1.8643 -1.69768,-2.12408 -0.15499,-3.82874 0.91025,-1.00581 1.65499,-2.54331 1.65499,-3.41667 0,-3.20121 4.30549,-2.92082 6.0806,0.396 0.72283,1.35064 0.65542,2.93745 -0.22867,5.38235 -1.46108,4.04055 -4.47812,4.64259 -7.35193,1.46706 z m -42.02206,-0.39247 c -1.87051,-1.36775 -1.86946,-1.46517 0.0589,-5.48853 2.14091,-4.46686 5.03743,-5.4019 7.89176,-2.54757 2.21134,2.21134 1.95437,4.72019 -0.74302,7.25426 -2.68632,2.52367 -4.54917,2.72574 -7.20761,0.78184 z"
       style="fill:#98d14d" />
    <path
       id="path9484"
       d="m 411.02002,490.86598 c -4.18232,-2.54342 -4.19225,-6.59724 -0.02,-8.17208 2.96829,-1.12041 2.99994,-1.21197 2.99442,-8.66314 -0.003,-4.14192 -0.42426,-9.10576 -0.93598,-11.03076 -0.51172,-1.925 -1.41842,-5.38229 -2.01489,-7.68286 -1.06167,-4.09486 -1.20503,-4.20612 -6.81402,-5.28811 -11.82074,-2.28025 -31.78036,-10.81153 -29.83823,-12.75366 0.31065,-0.31065 -2.91281,-2.32465 -7.16324,-4.47556 -8.58567,-4.34473 -13.00445,-8.43178 -13.88699,-12.84445 -0.49212,-2.46063 -0.9553,-2.8393 -2.88156,-2.35584 -2.85544,0.71667 -4.83488,-2.36941 -5.10406,-7.95756 -0.18269,-3.79244 -0.13416,-3.8477 2.85435,-3.25 1.67211,0.33442 3.47145,0.60804 3.99853,0.60804 1.70834,0 0.24026,2.31689 -1.64324,2.59333 -2.8294,0.41526 -4.18827,2.18349 -2.76884,3.60292 0.92834,0.92834 1.49658,0.78554 2.5372,-0.6376 1.10637,-1.51304 1.85051,-1.65954 4.25375,-0.83744 2.48006,0.84838 2.87509,1.46308 2.65899,4.1376 -0.13959,1.72766 0.18379,3.14119 0.71862,3.14119 0.53483,0 0.73894,0.60844 0.45358,1.35208 -0.54903,1.43074 3.54282,4.64792 5.91157,4.64792 0.77018,0 2.57518,0.92414 4.01111,2.05365 2.22704,1.75178 3.14849,1.90518 6.26886,1.04361 2.8542,-0.78808 4.31173,-0.67201 6.63269,0.5282 2.54848,1.31787 2.89103,1.95631 2.39101,4.45639 -0.321,1.60498 -0.17702,2.91815 0.31994,2.91815 1.62561,0 3.97367,-3.02603 3.43577,-4.42779 -0.28913,-0.75345 -0.045,-1.66698 0.54249,-2.03008 C 388.51932,429.17904 389,428.00852 389,426.94098 389,425.87344 389.45,425 390,425 c 1.26912,0 1.26357,1.17657 -0.0215,4.55654 -0.70003,1.84123 -0.6946,3.08061 0.0173,3.93835 0.57131,0.68839 0.76227,1.97209 0.42437,2.85266 -0.33791,0.88058 0.0722,2.28762 0.91131,3.12675 2.57836,2.57836 3.66912,1.69298 1.87205,-1.51956 -1.61056,-2.87913 -1.60803,-3.10004 0.0465,-4.04969 0.9625,-0.55243 1.75,-1.61305 1.75,-2.35691 0,-3.14236 9.58271,-3.96079 12.01802,-1.02643 1.41308,1.70266 -0.72075,3.17556 -2.30515,1.59116 -1.54476,-1.54476 -6.23459,-1.39409 -7.59406,0.24397 -1.37814,1.66056 -0.41982,7.14845 1.53102,8.76751 1.10975,0.921 1.91433,0.69428 3.79027,-1.06808 2.79092,-2.62193 5.68372,-2.39842 6.97796,0.53916 0.7631,1.73203 1.72363,2.05541 5.6907,1.91582 2.62495,-0.0924 5.36182,-0.63946 6.08194,-1.21578 0.72011,-0.57632 4.55056,-1.11932 8.51209,-1.20666 5.88348,-0.12971 8.17307,-0.69108 12.5,-3.06479 2.91347,-1.5983 8.7394,-4.75912 12.94652,-7.02405 C 462.2674,426.16789 477,413.42801 477,411.10478 c 0,-0.51548 2.16927,-4.23743 4.82061,-8.271 5.44876,-8.28943 10.62752,-23.25349 11.70919,-33.83378 0.69698,-6.8176 0.67747,-25.12606 -0.0275,-25.83106 -0.22561,-0.22561 -3.29451,1.64801 -6.81979,4.16359 -7.85446,5.60483 -20.20183,12.19168 -25.55694,13.63367 -4.85643,1.3077 -9.12554,6.0469 -9.12554,10.1304 0,1.61873 -1.07365,4.64392 -2.38589,6.72265 -1.31225,2.07872 -3.39284,6.12019 -4.62354,8.98103 -3.20937,7.46039 -12.88138,16.26667 -21.15206,19.25877 -5.17511,1.87222 -8.08218,2.25456 -15.83851,2.08314 -8.9005,-0.19672 -18.88851,-2.23389 -21.7619,-4.4386 -0.69405,-0.53253 -2.67139,-1.69619 -4.3941,-2.58591 -3.09573,-1.59885 -4.91655,-4.34766 -8.68917,-13.11768 -2.97834,-6.92359 -3.48658,-10.99072 -1.37983,-11.04192 2.43137,-0.0591 7.32641,-2.889 11.68535,-6.75556 l 3.71741,-3.29749 -2.58888,-2.58888 c -3.06029,-3.06029 -3.25805,-5.26819 -0.74937,-8.36629 1.51428,-1.87004 2.87539,-2.28745 7.69818,-2.36078 l 5.85866,-0.0891 3.40738,-7.91043 c 4.82499,-11.20149 5.41908,-20.78274 1.78996,-28.86808 C 401.16716,313.5433 400,310.31656 400,309.55094 c 0,-1.89135 4.89536,-2.82397 14.1914,-2.70363 6.59843,0.0854 8.70275,0.57336 14.03541,3.25447 3.45025,1.7347 7.96199,4.67145 10.02607,6.52611 2.06409,1.85466 4.18003,3.37211 4.7021,3.37211 0.52207,0 2.59876,2.8125 4.61487,6.25 3.77414,6.43498 6.43015,14.61297 6.43015,19.79879 0,3.56447 0.82622,3.63133 7.40033,0.59886 2.80482,-1.2938 7.46217,-3.39572 10.34967,-4.67094 2.8875,-1.27522 5.25,-2.60193 5.25,-2.94823 0,-0.34631 1.97005,-1.87491 4.37789,-3.39689 2.40784,-1.52198 5.55874,-3.99979 7.00201,-5.50623 2.44718,-2.55431 2.59797,-3.24534 2.23619,-10.2484 -0.26051,-5.04291 -1.08159,-8.86909 -2.49983,-11.64907 -1.16155,-2.27682 -2.52626,-7.0656 -3.03271,-10.64173 -0.50644,-3.57614 -1.5821,-7.75849 -2.39036,-9.29411 -1.89089,-3.59256 -6.90181,-19.46118 -7.2761,-23.042 -0.31493,-3.01293 -2.7972,-16.92831 -4.3894,-24.60652 -0.83327,-4.01836 -1.91264,-18.78775 -2.16639,-29.64353 -0.0321,-1.375 -0.55282,-5.3436 -1.15707,-8.81911 -0.88399,-5.08462 -0.83923,-6.47942 0.22917,-7.13973 1.2993,-0.80301 1.06924,-5.09495 -1.42268,-26.54116 -1.4886,-12.81133 -6.5831,-24.80937 -9.71297,-22.875 C 456.35899,145.89617 456,144.96648 456,143.55902 c 0,-2.62688 -1.35763,-3.40741 -2.5555,-1.46921 -0.4058,0.65658 -2.01933,0.83733 -4.05902,0.45468 C 447.29226,142.1518 446,142.30838 446,142.95469 c 0,1.95838 -2.76511,1.05274 -4.39892,-1.44076 -1.62513,-2.48026 -1.63358,-2.48143 -3.61501,-0.5 -1.09234,1.09234 -2.85951,1.98607 -3.92705,1.98607 -1.06754,0 -2.22364,0.45734 -2.5691,1.01631 -0.85728,1.38711 -2.13604,0.44492 -2.78995,-2.05561 -0.40533,-1.54999 0.0822,-2.30759 1.93947,-3.01372 1.3645,-0.51878 2.20227,-1.39408 1.86172,-1.94511 -0.82349,-1.33243 -2.54795,-1.26354 -5.70858,0.22804 -1.88166,0.888 -2.56257,1.93047 -2.44937,3.75 0.12499,2.00888 -0.36145,2.58046 -2.39796,2.81767 -2.36947,0.276 -2.5254,0.0461 -2.14992,-3.17013 0.43977,-3.76696 0.75363,-3.96182 11.4746,-7.12418 3.17346,-0.93607 6.54846,-1.39221 7.5,-1.01364 0.95154,0.37858 5.27706,0.85688 9.61226,1.06289 9.15528,0.43506 15.39613,2.28686 22.15698,6.57446 2.65604,1.68441 5.84011,3.44692 7.07571,3.9167 2.08384,0.79227 7.68308,7.4383 13.209,15.67846 4.12651,6.15337 11.17612,32.39169 11.17612,41.59698 0,1.92772 0.69891,7.03203 1.55313,11.34291 0.85422,4.31088 1.52518,11.34001 1.49103,15.62029 -0.0389,4.87025 0.46768,8.8068 1.35371,10.52017 0.77869,1.50582 1.88896,5.29743 2.46727,8.42579 0.57831,3.12837 1.93837,7.42641 3.02237,9.55122 1.08399,2.1248 2.87683,6.5525 3.98408,9.83934 1.10726,3.28683 4.73912,11.69231 8.0708,18.67885 3.33169,6.98655 6.05761,13.31701 6.05761,14.0677 0,0.75069 0.85245,2.4486 1.89433,3.77314 1.92575,2.4482 9.85797,29.27693 11.98844,40.54789 0.86836,4.59393 0.89712,9.74225 0.11172,20 -1.22319,15.97572 -2.48034,23.11826 -5.11354,29.05268 -1.03452,2.33151 -1.88095,5.26888 -1.88095,6.5275 0,1.25861 -0.6593,3.22967 -1.46511,4.38012 -0.80581,1.15045 -2.45068,4.72593 -3.65528,7.94549 -1.40864,3.76494 -3.65131,7.23811 -6.28489,9.73328 -3.73685,3.54045 -6.18121,5.53011 -18.92553,15.40499 -2.29305,1.77677 -8.21919,5.26845 -13.16919,7.75929 -8.69436,4.375 -10.69152,4.91444 -31,8.37312 -3.21488,0.54752 -3.95238,1.06946 -3.75738,2.65917 0.13344,1.08787 0.76008,6.92794 1.39253,12.97794 0.63245,6.05 1.76077,12.21515 2.50738,13.70034 2.88012,5.72927 0.59171,8.83122 -7.30572,9.90293 -7.07168,0.95964 -11.09611,0.21499 -12.4434,-2.30243 -1.3465,-2.51596 1.1426,-6.52548 4.33196,-6.97806 2.18209,-0.30965 2.26845,-0.67903 2.12268,-9.0794 -0.0945,-5.44746 -0.81073,-10.58863 -1.8952,-13.60442 l -1.74324,-4.84781 -11.35872,-1.30832 c -6.2473,-0.71959 -11.62873,-1.03832 -11.95875,-0.7083 -1.18649,1.18649 3.80261,29.32022 5.50062,31.01823 0.60898,0.60898 1.10724,1.90687 1.10724,2.88419 0,4.45333 -12.50442,7.01892 -17.97998,3.68903 z M 336.10356,342.11836 c -4.5403,-0.82661 -6.34295,-3.68669 -3.60467,-5.71916 1.46071,-1.08421 3.69931,-1.3562 8.31464,-1.01023 6.39347,0.47926 9.18647,1.75568 9.18647,4.19829 0,3.00186 -5.65412,4.0317 -13.89644,2.5311 z M 358.5,326 c -1.68717,-1.8643 -1.69768,-2.12408 -0.15499,-3.82874 0.91025,-1.00581 1.65499,-2.54331 1.65499,-3.41667 0,-3.20121 4.30549,-2.92082 6.0806,0.396 0.72283,1.35064 0.65542,2.93745 -0.22867,5.38235 -1.46108,4.04055 -4.47812,4.64259 -7.35193,1.46706 z m -42.02206,-0.39247 c -1.87051,-1.36775 -1.86946,-1.46517 0.0589,-5.48853 2.14091,-4.46686 5.03743,-5.4019 7.89176,-2.54757 2.21134,2.21134 1.95437,4.72019 -0.74302,7.25426 -2.68632,2.52367 -4.54917,2.72574 -7.20761,0.78184 z M 399,160.53518 c 0,-0.80565 0.9,-1.94648 2,-2.53518 1.26271,-0.67578 2,-2.09382 2,-3.84662 0,-3.02047 3.20016,-7.15338 5.53896,-7.15338 2.06569,0 1.8125,2.37196 -0.47409,4.44129 -1.06432,0.9632 -2.86663,3.73295 -4.00512,6.15499 -1.98331,4.2193 -5.05975,6.00622 -5.05975,2.9389 z"
       style="fill:#88a35c" />
    <path
       id="path9482"
       d="m 411.22251,490.4433 c -3.34249,-2.34118 -2.94786,-6.29448 0.75726,-7.58609 l 2.97978,-1.03876 -0.39476,-8.15922 c -0.38972,-8.05539 -1.6,-14.99144 -3.47755,-19.92978 -1.01964,-2.68184 -4.15555,-4.05609 -12.06021,-5.28512 -4.17644,-0.64936 -19.87861,-7.77178 -21.05777,-9.5517 -0.29191,-0.44062 -4.56691,-2.87874 -9.5,-5.41804 -9.80171,-5.0454 -14.22377,-8.99716 -15.12819,-13.51923 -0.49212,-2.46063 -0.9553,-2.8393 -2.88156,-2.35584 -2.85544,0.71667 -4.83488,-2.36941 -5.10406,-7.95756 -0.18269,-3.79244 -0.13416,-3.8477 2.85435,-3.25 1.67211,0.33442 3.47145,0.60804 3.99853,0.60804 1.70834,0 0.24026,2.31689 -1.64324,2.59333 -2.8294,0.41526 -4.18827,2.18349 -2.76884,3.60292 0.92834,0.92834 1.49658,0.78554 2.5372,-0.6376 1.10637,-1.51304 1.85051,-1.65954 4.25375,-0.83744 2.48006,0.84838 2.87509,1.46308 2.65899,4.1376 -0.13959,1.72766 0.18379,3.14119 0.71862,3.14119 0.53483,0 0.73894,0.60844 0.45358,1.35208 -0.54903,1.43074 3.54282,4.64792 5.91157,4.64792 0.77018,0 2.57518,0.92414 4.01111,2.05365 2.22704,1.75178 3.14849,1.90518 6.26886,1.04361 2.8542,-0.78808 4.31173,-0.67201 6.63269,0.5282 2.54848,1.31787 2.89103,1.95631 2.39101,4.45639 -0.321,1.60498 -0.17702,2.91815 0.31994,2.91815 1.62561,0 3.97367,-3.02603 3.43577,-4.42779 -0.28913,-0.75345 -0.045,-1.66698 0.54249,-2.03008 C 388.51932,429.17904 389,428.00852 389,426.94098 389,425.87344 389.45,425 390,425 c 1.26912,0 1.26357,1.17657 -0.0215,4.55654 -0.70003,1.84123 -0.6946,3.08061 0.0173,3.93835 0.57131,0.68839 0.76227,1.97209 0.42437,2.85266 -0.33791,0.88058 0.0722,2.28762 0.91131,3.12675 2.57836,2.57836 3.66912,1.69298 1.87205,-1.51956 -1.61056,-2.87913 -1.60803,-3.10004 0.0465,-4.04969 0.9625,-0.55243 1.75,-1.61305 1.75,-2.35691 0,-3.14236 9.58271,-3.96079 12.01802,-1.02643 1.41308,1.70266 -0.72075,3.17556 -2.30515,1.59116 -1.54476,-1.54476 -6.23459,-1.39409 -7.59406,0.24397 -1.37814,1.66056 -0.41982,7.14845 1.53102,8.76751 1.10975,0.921 1.91433,0.69428 3.79027,-1.06808 2.79092,-2.62193 5.68372,-2.39842 6.97796,0.53916 0.7631,1.73203 1.72363,2.05541 5.6907,1.91582 2.62495,-0.0924 5.36182,-0.63946 6.08194,-1.21578 0.72011,-0.57632 4.52538,-1.11868 8.45615,-1.20524 7.05551,-0.15538 11.28939,-1.60753 18.35315,-6.29485 1.375,-0.91241 3.175,-1.80213 4,-1.97715 0.825,-0.17503 1.725,-0.56484 2,-0.86624 0.275,-0.30141 2.55055,-1.73192 5.05678,-3.17892 C 464.47379,424.6455 477,412.63253 477,410.56505 c 0,-0.7984 0.7875,-2.03966 1.75,-2.75835 0.9625,-0.71868 1.88161,-1.9817 2.04248,-2.8067 0.16086,-0.825 1.06086,-2.19069 2,-3.03487 0.93913,-0.84417 1.8561,-2.18991 2.0377,-2.99053 0.1816,-0.80062 0.76664,-1.72542 1.30009,-2.05511 0.53346,-0.3297 1.04314,-1.57145 1.13263,-2.75947 0.0895,-1.18801 0.44195,-2.16002 0.78324,-2.16002 0.34129,0 0.65939,-0.5625 0.70689,-1.25 0.17538,-2.53824 1.24968,-6.23595 2.69924,-9.29067 2.58524,-5.44798 4.7443,-33.17755 2.94777,-37.85923 -0.72431,-1.88753 -2.4183,-1.12496 -9.90004,4.45663 -5.86282,4.37383 -19.58551,11.38584 -24.27109,12.40202 C 456.35415,361.2991 452,367.01011 452,371.25201 c 0,1.53325 -1.07365,4.48851 -2.38589,6.56724 -1.31225,2.07872 -3.39284,6.12019 -4.62354,8.98103 -3.20937,7.46039 -12.88138,16.26667 -21.15206,19.25877 -5.17511,1.87222 -8.08218,2.25456 -15.83851,2.08314 -8.9005,-0.19672 -18.88851,-2.23389 -21.7619,-4.4386 -0.69405,-0.53253 -2.67139,-1.69619 -4.3941,-2.58591 -3.09573,-1.59885 -4.91655,-4.34766 -8.68917,-13.11768 -2.97834,-6.92359 -3.48658,-10.99072 -1.37983,-11.04192 2.43137,-0.0591 7.32641,-2.889 11.68535,-6.75556 l 3.71741,-3.29749 -2.58888,-2.58888 c -3.06029,-3.06029 -3.25805,-5.26819 -0.74937,-8.36629 1.51428,-1.87004 2.87539,-2.28745 7.69818,-2.36078 l 5.85866,-0.0891 3.40738,-7.91043 c 4.82499,-11.20149 5.41908,-20.78274 1.78996,-28.86808 C 401.16716,313.5433 400,310.31656 400,309.55094 c 0,-1.89135 4.89536,-2.82397 14.1914,-2.70363 6.59843,0.0854 8.70275,0.57336 14.03541,3.25447 3.45025,1.7347 7.96199,4.67145 10.02607,6.52611 2.06409,1.85466 4.18003,3.37211 4.7021,3.37211 0.52207,0 2.59876,2.8125 4.61487,6.25 3.75853,6.40835 6.43015,14.60991 6.43015,19.73977 0,4.10099 1.20052,4.37905 6.57314,1.5224 2.59861,-1.38169 5.35064,-2.51217 6.11564,-2.51217 3.84719,0 13.53064,-6.445 20.79474,-13.84032 4.10391,-4.17806 4.22949,-4.49079 3.35901,-8.36502 -0.49736,-2.21359 -0.63398,-4.87638 -0.3036,-5.91732 0.34169,-1.07657 -0.53351,-4.36855 -2.02983,-7.63498 -1.44679,-3.1583 -2.88434,-8.44236 -3.19456,-11.74236 -0.31022,-3.3 -1.013,-6.5625 -1.56173,-7.25 -0.54874,-0.6875 -0.63159,-1.25 -0.18413,-1.25 0.44747,0 0.1027,-0.5625 -0.76615,-1.25 -1.3072,-1.03435 -3.42368,-8.29554 -2.80933,-9.6382 0.0977,-0.2135 -0.33387,-0.70431 -0.95902,-1.09068 -0.62516,-0.38636 -1.25678,-1.78668 -1.40361,-3.1118 -0.14682,-1.32513 -0.79999,-3.39451 -1.45147,-4.59863 -0.81509,-1.50653 -0.85665,-2.39194 -0.13325,-2.83903 0.72197,-0.4462 0.68805,-1.08736 -0.10829,-2.0469 -0.63776,-0.76845 -1.29211,-3.31589 -1.45411,-5.66097 -0.162,-2.34509 -0.5054,-4.93879 -0.7631,-5.76379 -2.73798,-8.76531 -4.53144,-22.67762 -3.72937,-28.92968 0.35516,-2.76847 0.23869,-5.44065 -0.25883,-5.93817 -0.49751,-0.49751 -1.02276,-3.76828 -1.16721,-7.26836 -0.14445,-3.50009 -0.6205,-8.32215 -1.05789,-10.71571 -0.55698,-3.04794 -0.43771,-4.5729 0.39803,-5.08942 0.65631,-0.40562 1.14291,-2.27225 1.08132,-4.14808 -0.0616,-1.87582 -0.19621,-6.22308 -0.29918,-9.66058 -0.10297,-3.4375 -0.47224,-6.25 -0.82059,-6.25 -1.22617,0 -1.76994,-4.41158 -0.70233,-5.69796 0.59432,-0.71612 0.67314,-1.30204 0.17515,-1.30204 -0.49799,0 -1.49703,-3.19874 -2.22008,-7.10832 -1.66203,-8.9867 -5.90071,-16.76289 -8.32162,-15.26668 C 456.35899,145.89617 456,144.96648 456,143.55902 c 0,-2.62688 -1.35763,-3.40741 -2.5555,-1.46921 -0.4058,0.65658 -2.01933,0.83733 -4.05902,0.45468 C 447.29226,142.1518 446,142.30838 446,142.95469 c 0,1.95838 -2.76511,1.05274 -4.39892,-1.44076 -1.62513,-2.48026 -1.63358,-2.48143 -3.61501,-0.5 -1.09234,1.09234 -2.85951,1.98607 -3.92705,1.98607 -1.06754,0 -2.22364,0.45734 -2.5691,1.01631 -0.85728,1.38711 -2.13604,0.44492 -2.78995,-2.05561 -0.40533,-1.54999 0.0822,-2.30759 1.93947,-3.01372 1.3645,-0.51878 2.20227,-1.39408 1.86172,-1.94511 -0.82349,-1.33243 -2.54795,-1.26354 -5.70858,0.22804 -1.88166,0.888 -2.56257,1.93047 -2.44937,3.75 0.12499,2.00888 -0.36145,2.58046 -2.39796,2.81767 -2.36947,0.276 -2.5254,0.0461 -2.14992,-3.17013 0.4391,-3.76126 0.77264,-3.96937 11.36127,-7.08853 4.55646,-1.34223 6.45026,-1.4526 9.73741,-0.56746 2.24445,0.60437 7.18517,1.25789 10.97937,1.45227 6.90773,0.35388 7.70268,0.65221 23.62662,8.86649 3.86768,1.99512 9.53952,8.23452 14.82719,16.31088 4.03965,6.17014 10.55651,29.96729 11.20018,40.8989 0.12954,2.2 0.81179,7.375 1.51612,11.5 0.70432,4.125 1.36355,11.32619 1.46496,16.00265 0.11408,5.26103 0.76123,9.64538 1.69744,11.5 0.83219,1.64854 1.7929,5.13629 2.1349,7.75055 0.34201,2.61426 1.58217,6.63562 2.75591,8.93635 1.17375,2.30074 2.98804,6.78443 4.03176,9.96376 1.04372,3.17933 4.81679,11.88067 8.38461,19.33632 3.56781,7.45565 6.48693,14.07258 6.48693,14.7043 0,0.63173 0.71866,1.94269 1.59701,2.91327 0.87836,0.97057 2.86799,6.40601 4.42141,12.07874 1.55342,5.67273 3.4733,12.56406 4.2664,15.31406 3.18055,11.02822 3.88159,18.04968 3.20035,32.05404 -0.71949,14.79051 -2.30408,24.37204 -4.88686,29.54935 -0.87907,1.76214 -1.59831,4.09796 -1.59831,5.19072 0,1.09275 -0.86867,3.83612 -1.93037,6.09636 -1.06171,2.26024 -3.02817,6.62353 -4.36991,9.6962 -2.08121,4.7661 -3.96415,6.83134 -12.81962,14.06078 -5.70906,4.66077 -11.94117,9.56009 -13.84914,10.8874 -5.89617,4.10174 -20.23142,10.96405 -22.94958,10.98599 -1.41976,0.0115 -5.50638,0.70504 -9.08138,1.54128 -3.575,0.83624 -8.075,1.85312 -10,2.25973 -3.95245,0.83486 -3.72634,-0.93944 -2.1891,17.17815 0.49,5.775 1.48199,11.74134 2.20441,13.25854 1.07449,2.25658 1.07907,3.19659 0.0252,5.16577 -1.49371,2.79101 -3.68035,3.54311 -10.35625,3.56204 C 446.03981,492.00235 443,490.64892 443,488.1198 443,485.90661 446.04304,483 448.36013,483 c 0.93645,0 1.99217,-0.7545 2.34604,-1.67668 0.86044,-2.24228 -1.3958,-17.78146 -3.33048,-22.93761 l -1.54375,-4.11428 -8.16597,-0.65767 c -4.49128,-0.36173 -9.78931,-0.91454 -11.77339,-1.22848 -5.38472,-0.85202 -5.34938,-1.66887 -0.97858,22.61472 0.54447,3.025 1.55247,7.24474 2.24001,9.37719 1.16468,3.61238 1.09209,4.00511 -1.06276,5.75 -2.92995,2.37253 -11.66758,2.55829 -14.86874,0.31611 z M 336.59743,342.26902 C 333.57321,341.81963 331,339.89871 331,338.09048 c 0,-1.35894 3.29887,-2.16215 10.03406,-2.44308 4.13764,-0.17259 5.82269,0.20935 7.25861,1.64527 1.77796,1.77796 1.78454,1.96453 0.1337,3.78869 -1.71896,1.89943 -4.89383,2.2182 -11.82894,1.18766 z m 23.04205,-15.72756 c -1.81402,-1.388 -1.81402,-1.52436 0,-5.45672 2.00187,-4.33956 3.37103,-4.98193 5.40218,-2.53454 0.93445,1.12594 1.03638,2.55984 0.37244,5.23938 -1.00153,4.04206 -2.90373,4.94854 -5.77462,2.75188 z m -43.19317,-1.62833 C 315.6554,323.6334 318.88522,316 320.21762,316 c 2.29267,0 4.78238,2.28034 4.78238,4.3802 0,4.15267 -6.62039,7.66108 -8.55369,4.53293 z M 399,160.53518 c 0,-0.80565 0.9,-1.94648 2,-2.53518 1.26271,-0.67578 2,-2.09382 2,-3.84662 0,-3.02047 3.20016,-7.15338 5.53896,-7.15338 2.06569,0 1.8125,2.37196 -0.47409,4.44129 -1.06432,0.9632 -2.86663,3.73295 -4.00512,6.15499 -1.98331,4.2193 -5.05975,6.00622 -5.05975,2.9389 z"
       style="fill:#87c533" />
    <path
       id="path9480"
       d="m 411.22251,490.4433 c -3.34538,-2.3432 -2.94775,-6.29452 0.76363,-7.58831 l 2.98613,-1.04098 -0.44329,-8.657 c -0.24381,-4.76136 -1.13757,-11.26647 -1.98613,-14.4558 -0.84857,-3.18933 -1.54285,-5.986 -1.54285,-6.21482 0,-1.01266 -4.4527,-2.63227 -9.74648,-3.54516 -3.16444,-0.54569 -9.69102,-2.88795 -14.50352,-5.20502 -8.82711,-4.24997 -11.49707,-6.46696 -5.5,-4.56689 1.7875,0.56633 6.625,1.68817 10.75,2.49296 4.125,0.80479 9.39797,1.8794 11.71771,2.38801 2.67872,0.58733 5.16546,0.56443 6.8151,-0.0628 1.42856,-0.54314 4.90351,-0.98753 7.72209,-0.98753 11.20648,0 21.78703,-3.01175 31.2451,-8.89391 3.3,-2.05233 7.53473,-4.35031 9.41052,-5.10661 4.78974,-1.93119 18.22941,-15.55165 20.94506,-21.22683 1.24416,-2.60004 2.68681,-4.98983 3.20589,-5.31064 2.99464,-1.85079 9.66851,-22.35203 10.97489,-33.71342 1.07128,-9.31671 1.26621,-22.79652 0.36368,-25.14849 -0.72431,-1.88753 -2.4183,-1.12496 -9.90004,4.45663 -5.55462,4.1439 -19.35643,11.25887 -24,12.37223 -1.65,0.39562 -3.97548,1.6296 -5.16773,2.7422 -1.61833,1.5102 -3.77264,2.08841 -8.5,2.28139 -3.48275,0.14218 -8.29587,1.06782 -10.69583,2.05699 -3.89345,1.60473 -6.3714,1.72579 -23,1.12365 -10.25004,-0.37117 -20.39481,-1.08407 -22.54392,-1.58422 -5.34368,-1.24363 -9.05887,-5.05476 -8.21297,-8.42509 1.15162,-4.58843 3.24764,-4.93054 22.05734,-3.60017 17.87998,1.26462 22.19719,0.95966 38.56311,-2.724 3.575,-0.80466 8.3,-1.82352 10.5,-2.26413 2.2,-0.4406 5.78265,-1.75386 7.96144,-2.91834 2.17879,-1.16448 4.55922,-2.11724 5.28984,-2.11724 3.81948,0 13.53651,-6.50918 20.84591,-13.96413 l 4.37697,-4.46413 -0.59676,-7.03587 c -0.3506,-4.13359 -1.60378,-9.29723 -3.03803,-12.518 -1.3427,-3.01516 -2.6796,-7.51516 -2.9709,-10 -0.2913,-2.48483 -2.0283,-8.79287 -3.85999,-14.01787 -4.42402,-12.61971 -4.59676,-13.28542 -6.48734,-25 -0.48819,-3.025 -1.37904,-7.975 -1.97966,-11 -1.53722,-7.74212 -3.10974,-30.41036 -3.53793,-51 -0.55521,-26.6976 -3.30276,-41.28488 -9.61584,-51.05244 -2.13822,-3.30825 -5.46268,-6.94427 -7.38769,-8.08005 C 450.57501,135.73173 449,134.72879 449,134.63877 c 0,-0.09 2.14442,-0.12176 4.76538,-0.0705 4.56953,0.0893 6.50634,0.86655 21.73462,8.72198 3.86768,1.99512 9.53952,8.23452 14.82719,16.31088 4.03965,6.17014 10.55651,29.96729 11.20018,40.8989 0.12954,2.2 0.81179,7.375 1.51612,11.5 0.70432,4.125 1.36355,11.32619 1.46496,16.00265 0.11408,5.26103 0.76123,9.64538 1.69744,11.5 0.83219,1.64854 1.7929,5.13629 2.1349,7.75055 0.34201,2.61426 1.58217,6.63562 2.75591,8.93635 1.17375,2.30074 2.98804,6.78443 4.03176,9.96376 1.04372,3.17933 4.81679,11.88067 8.38461,19.33632 3.56781,7.45565 6.48693,14.07258 6.48693,14.7043 0,0.63173 0.71866,1.94269 1.59701,2.91327 0.87836,0.97057 2.86799,6.40601 4.42141,12.07874 1.55342,5.67273 3.4733,12.56406 4.2664,15.31406 3.18055,11.02822 3.88159,18.04968 3.20035,32.05404 -0.71949,14.79051 -2.30408,24.37204 -4.88686,29.54935 -0.87907,1.76214 -1.59831,4.09796 -1.59831,5.19072 0,1.09275 -0.86867,3.83612 -1.93037,6.09636 -1.06171,2.26024 -3.02817,6.62353 -4.36991,9.6962 -2.08121,4.7661 -3.96415,6.83134 -12.81962,14.06078 -5.70906,4.66077 -11.94117,9.56009 -13.84914,10.8874 -5.89617,4.10174 -20.23142,10.96405 -22.94958,10.98599 -1.41976,0.0115 -5.50638,0.70504 -9.08138,1.54128 -3.575,0.83624 -8.075,1.85312 -10,2.25973 -3.95245,0.83486 -3.72634,-0.93944 -2.1891,17.17815 0.49,5.775 1.48199,11.74134 2.20441,13.25854 1.07449,2.25658 1.07907,3.19659 0.0252,5.16577 -1.49371,2.79101 -3.68035,3.54311 -10.35625,3.56204 C 446.03981,492.00235 443,490.64892 443,488.1198 443,485.90661 446.04304,483 448.36013,483 c 0.93645,0 1.99217,-0.7545 2.34604,-1.67668 0.86044,-2.24228 -1.3958,-17.78146 -3.33048,-22.93761 l -1.54375,-4.11428 -8.16597,-0.65767 c -4.49128,-0.36173 -9.78931,-0.91454 -11.77339,-1.22848 -5.38472,-0.85202 -5.34938,-1.66887 -0.97858,22.61472 0.54447,3.025 1.55247,7.24474 2.24001,9.37719 1.16468,3.61238 1.09209,4.00511 -1.06276,5.75 -2.92995,2.37253 -11.66758,2.55829 -14.86874,0.31611 z M 337,341.66952 c -3.44349,-0.89494 -4.5,-1.63908 -4.5,-3.16952 0,-1.80146 0.76368,-2.02889 7.69285,-2.29104 6.81356,-0.25777 7.81409,-0.0645 8.75352,1.69084 0.86555,1.61728 0.65117,2.26869 -1.16536,3.54103 -2.57555,1.80399 -4.5579,1.84604 -10.78101,0.22869 z m 22.63948,-15.12806 c -1.81402,-1.388 -1.81402,-1.52436 0,-5.45672 2.00187,-4.33956 3.37103,-4.98193 5.40218,-2.53454 0.93445,1.12594 1.03638,2.55984 0.37244,5.23938 -1.00153,4.04206 -2.90373,4.94854 -5.77462,2.75188 z m -43.19317,-1.62833 C 315.6554,323.6334 318.88522,316 320.21762,316 c 2.29267,0 4.78238,2.28034 4.78238,4.3802 0,4.15267 -6.62039,7.66108 -8.55369,4.53293 z"
       style="fill:#749547" />
    <path
       id="path9478"
       d="m 411.04867,489.83072 c -2.73311,-2.54628 -2.29357,-4.94675 1.21356,-6.62767 2.58304,-1.23802 2.73693,-1.69059 2.72299,-8.00762 -0.008,-3.68248 -0.68345,-9.62043 -1.50071,-13.19543 -0.81727,-3.575 -1.71041,-7.47753 -1.98477,-8.6723 -0.5343,-2.32671 -3.74682,-3.68931 -11.49974,-4.87764 -6.09912,-0.93484 -12.7953,-4.33306 -10.90127,-5.53224 1.03816,-0.6573 0.75345,-0.90285 -1.09873,-0.94761 -1.375,-0.0332 -3.85,-0.72003 -5.5,-1.52622 -2.54144,-1.24174 -2.61786,-1.37486 -0.5,-0.87089 4.57942,1.08972 16.44854,3.41614 20.43081,4.00455 2.20579,0.32593 3.41902,0.89712 2.76459,1.30158 -0.64142,0.39643 0.39565,0.72077 2.3046,0.72077 1.90895,0 2.96747,-0.31109 2.35227,-0.6913 -1.80031,-1.11266 3.85803,-1.92831 14.64773,-2.11149 6.61539,-0.11231 9.15385,-0.43981 7.5,-0.96762 -1.71756,-0.54815 -1.14682,-0.63896 1.82359,-0.29014 2.50482,0.29414 4.08472,0.12122 3.75575,-0.41108 -0.6135,-0.99266 2.36608,-2.51628 3.23045,-1.65191 C 441.09774,439.76441 440.73333,440 440,440 c -0.73333,0 -1.07694,0.25639 -0.76357,0.56976 0.61096,0.61096 8.76357,-3.24888 8.76357,-4.1491 0,-0.29628 -0.51953,-0.21761 -1.15451,0.17483 -0.6991,0.43207 -0.8837,0.27535 -0.46797,-0.39731 0.37759,-0.61096 1.3016,-0.87481 2.05335,-0.58633 0.75176,0.28847 1.70688,-0.0257 2.12249,-0.69818 0.51505,-0.83338 0.33886,-0.96509 -0.55336,-0.41367 -0.87268,0.53934 -1.06781,0.41874 -0.58541,-0.3618 0.39798,-0.64395 1.14075,-0.91302 1.65058,-0.59792 1.72823,1.0681 14.5334,-6.56393 19.49743,-11.6207 2.92856,-2.98326 4.12368,-4.73899 2.9374,-4.31528 -1.1,0.3929 -1.70373,0.38389 -1.34163,-0.02 0.3621,-0.4039 1.2621,-0.82575 2,-0.93745 0.7379,-0.11169 1.91056,-0.55846 2.60592,-0.99281 1.91913,-1.19877 5.44729,-8.66028 4.84148,-10.23899 -0.29359,-0.76507 -0.0317,-1.28395 0.58197,-1.15304 3.41761,0.72901 10.89943,-18.74465 12.77931,-33.262 1.24577,-9.62033 1.28181,-27.05794 0.0599,-28.99059 -0.8202,-1.29731 -1.36929,-1.24136 -4.23469,0.4315 -1.81076,1.05715 -4.86729,3.14898 -6.79229,4.64851 C 479.6871,350.44908 463.46733,359 461.40748,359 c -2.42737,0 -7.52688,2.99779 -6.88,4.04446 0.8562,1.38536 -3.38455,2.64603 -7.98803,2.37465 -2.17831,-0.12842 -6.43573,0.6926 -9.46094,1.82447 -5.08617,1.90298 -6.85888,2.009 -23.53945,1.40785 -19.1503,-0.69016 -26.43609,-1.479 -24.5316,-2.65604 0.75385,-0.46591 0.4294,-0.90939 -0.92431,-1.26339 -1.41056,-0.36887 -1.86257,-0.17097 -1.39609,0.61126 0.3794,0.63621 -0.5122,0.0317 -1.98134,-1.34326 -2.63911,-2.46999 -3.88508,-6.84692 -1.53578,-5.39497 0.78205,0.48333 0.9623,0.18197 0.54367,-0.90896 -0.34444,-0.89761 -0.12639,-1.94096 0.48457,-2.31855 0.71246,-0.44032 0.84951,-0.18284 0.38217,0.71797 -0.5338,1.02891 -0.37455,1.00337 0.59549,-0.0955 0.81543,-0.92371 3.43723,-1.58796 6.82416,-1.72895 3.83081,-0.15946 5.04477,0.0635 4,0.73469 -0.825,0.53 -1.05,0.97667 -0.5,0.9926 0.55,0.0159 2.125,0.25706 3.5,0.53584 2.15539,0.437 2.22431,0.37933 0.5,-0.41841 -1.31113,-0.60658 3.51098,-0.88337 14,-0.80361 13.53651,0.10293 17.53968,-0.23808 26,-2.21481 5.5,-1.28505 11.82955,-2.39516 14.06566,-2.46691 2.23612,-0.0717 5.61112,-0.89454 7.5,-1.82843 1.88889,-0.9339 5.92697,-2.77807 8.97351,-4.09816 5.83345,-2.52767 15.49047,-9.43498 20.34265,-14.55035 2.78262,-2.93354 2.86491,-3.30691 2.3902,-10.84581 -0.49029,-7.78637 -2.30951,-13.71157 -3.90679,-12.7244 -0.46328,0.28632 -0.546,-0.25161 -0.18384,-1.1954 0.36387,-0.94822 0.24689,-1.46434 -0.26145,-1.15354 -0.50597,0.30933 -1.02586,-1.52935 -1.15532,-4.08596 -0.32276,-6.374 -2.27831,-13.25797 -3.544,-12.47572 -0.57812,0.3573 -0.72921,0.15024 -0.34453,-0.47217 0.3768,-0.60969 0.38682,-2.29698 0.0223,-3.74953 -0.41805,-1.66564 -0.93209,-2.20538 -1.39186,-1.46146 -0.48223,0.78028 -0.91365,0.47347 -1.27448,-0.90636 -0.30002,-1.14725 -0.13745,-1.83373 0.36126,-1.52551 1.19862,0.74079 1.1436,0.0563 -0.23949,-2.97923 -0.63042,-1.38363 -1.46542,-2.31842 -1.85554,-2.07732 -0.39012,0.24111 -0.48408,-0.73988 -0.20878,-2.17998 0.35897,-1.87786 0.15868,-2.40708 -0.70824,-1.8713 -0.90604,0.55996 -1.03291,-0.19035 -0.50658,-2.99593 0.41937,-2.23542 0.32784,-3.51164 -0.22723,-3.16859 -0.53308,0.32946 -0.75187,-0.94641 -0.51307,-2.99192 0.22899,-1.96148 0.0224,-3.32659 -0.45899,-3.03357 -0.48144,0.29302 -0.91613,-1.55806 -0.96598,-4.11352 -0.12227,-6.26692 -1.408,-12.76651 -2.2545,-11.39684 -0.37768,0.61109 -0.60341,-2.34505 -0.50162,-6.56919 0.14819,-6.15042 0.0265,-6.88349 -0.61078,-3.68025 -0.51251,2.57601 -0.63315,0.44003 -0.33887,-6 0.25133,-5.5 0.0833,-9.47975 -0.37332,-8.84389 -0.45665,0.63586 -0.73654,-6.56414 -0.62199,-16 0.13198,-10.87104 -0.12315,-16.42342 -0.69641,-15.15611 -0.59063,1.30569 -0.74372,-0.77723 -0.44099,-6 0.34341,-5.92455 0.1813,-7.61085 -0.62488,-6.5 -0.82239,1.1332 -0.96023,0.39959 -0.56366,-3 0.28871,-2.475 0.14754,-6.3 -0.31371,-8.5 -0.46125,-2.2 -0.93524,-3.1 -1.05331,-2 -0.1848,1.72165 -0.32611,1.65206 -1.01532,-0.5 -1.09501,-3.41917 -1.09501,-6.04822 0,-3.5 1.26923,2.95366 1.17949,0.31334 -0.11562,-3.40182 -0.61359,-1.76015 -1.36198,-2.95392 -1.66308,-2.65282 -0.3011,0.3011 -1.37407,-0.8118 -2.38438,-2.47312 -2.15778,-3.54819 -2.2984,-4.35584 -0.58692,-3.37093 0.72624,0.41793 0.90083,0.33791 0.41667,-0.19098 -0.45834,-0.50068 -1.13334,-0.92533 -1.5,-0.94366 -0.36667,-0.0183 -2.25248,-1.59334 -4.19069,-3.5 -1.93822,-1.90667 -4.41322,-4.01652 -5.5,-4.68856 -1.958,-1.21077 -1.95778,-1.21621 0.024,-0.598 1.1,0.34314 2.80687,1.31776 3.79303,2.16582 1.64265,1.41261 1.73342,1.38656 1.08217,-0.31056 -1.32672,-3.45738 4.63068,-1.41248 19.42233,6.66678 5.57405,3.04458 16.37512,16.43762 18.81554,23.33078 2.92739,8.26866 6.40788,23.30139 7.40127,31.96707 0.56743,4.95 1.50748,11.7 2.08898,15 0.5815,3.3 1.15095,9.825 1.26545,14.5 0.13284,5.42401 0.77693,9.58564 1.77983,11.5 0.8644,1.65 1.84206,5.39353 2.17257,8.31894 0.33051,2.92542 1.47738,6.75042 2.54859,8.5 1.07122,1.74959 2.83108,5.88106 3.91082,9.18106 1.07973,3.3 4.66505,11.65736 7.96737,18.5719 3.30232,6.91455 6.33629,13.66455 6.74216,15 0.40586,1.33546 1.53564,3.7781 2.51062,5.4281 1.94262,3.2876 8.45722,25.89798 10.6606,37 2.44667,12.32793 -0.0614,42.57152 -4.19291,50.56107 -0.80763,1.56178 -1.46842,3.77988 -1.46842,4.92911 0,1.14922 -0.89853,3.85076 -1.99674,6.00342 -1.0982,2.15266 -2.91817,6.37669 -4.04437,9.38674 -1.66243,4.44323 -3.27305,6.47428 -8.56139,10.79623 -3.58256,2.92789 -8.40009,6.92908 -10.70562,8.89153 -10.77706,9.17338 -23.43218,15.47537 -35.19188,17.52485 -16.07342,2.80126 -17.51264,3.08636 -17.98999,3.56371 -0.861,0.861 1.62168,24.27268 3.04378,28.7028 C 463.86193,489.04982 460.79337,492 451.00633,492 446.73244,492 443,490.3044 443,488.36283 c 0,-1.81831 2.4384,-4.32001 5.12282,-5.2558 l 3.16504,-1.10334 -0.66088,-7.92454 c -0.36349,-4.3585 -1.45716,-10.54683 -2.43039,-13.75185 l -1.76952,-5.8273 -6.46353,-0.63266 c -3.55495,-0.34796 -9.04139,-0.97242 -12.19209,-1.38769 -7.19657,-0.94851 -7.4397,-0.4527 -5.22287,10.65096 0.91902,4.60317 2.23715,11.29439 2.92918,14.86939 0.69203,3.575 1.55257,7.18791 1.9123,8.02869 0.35974,0.84079 0.0204,2.3953 -0.7541,3.45448 -2.11658,2.89461 -12.60239,3.12841 -15.58729,0.34755 z M 341.75145,341.5939 c 0.31951,-0.5174 -0.81541,-0.63111 -2.64567,-0.26506 -2.00268,0.40054 -2.97682,0.27152 -2.59647,-0.3439 0.3348,-0.54172 -0.31783,-0.98494 -1.45029,-0.98494 -2.22225,0 -2.86375,-2.52752 -0.80902,-3.18756 0.6875,-0.22085 4.02905,-0.23071 7.42566,-0.0219 4.32037,0.26558 6.34944,0.8325 6.75412,1.88709 0.36963,0.96322 -0.14103,1.69562 -1.41441,2.02862 -1.09608,0.28663 -1.77591,0.8722 -1.51074,1.30126 0.26517,0.42906 -0.59671,0.7154 -1.91529,0.63631 -1.31858,-0.0791 -2.14563,-0.55154 -1.83789,-1.0499 z M 359.5,326 c -1.68717,-1.8643 -1.69768,-2.12408 -0.15499,-3.82874 0.91025,-1.00581 1.65499,-2.32925 1.65499,-2.94098 0,-1.82217 1.98217,-2.48997 3.5438,-1.19393 1.89776,1.575 1.85392,4.95081 -0.1005,7.74114 -1.9156,2.7349 -2.6401,2.76751 -4.9433,0.22251 z m -42.83333,-0.66667 c -1.09698,-1.09698 -0.76521,-2.65946 1.27526,-6.00587 1.45654,-2.38874 2.44655,-3.03863 4.00721,-2.63051 2.89489,0.75703 3.74489,4.87867 1.51439,7.34334 -1.73206,1.91391 -5.46571,2.6242 -6.79686,1.29304 z"
       style="fill:#729f39" />
    <path
       id="path9476"
       d="m 411.04867,489.83072 c -2.73311,-2.54628 -2.29357,-4.94675 1.21356,-6.62767 2.58304,-1.23802 2.73693,-1.69059 2.72299,-8.00762 -0.008,-3.68248 -0.68345,-9.62043 -1.50071,-13.19543 -0.81727,-3.575 -1.71041,-7.47753 -1.98477,-8.6723 -0.5343,-2.32671 -3.74682,-3.68931 -11.49974,-4.87764 -4.14566,-0.63542 -12,-3.87616 -12,-4.95125 0,-0.57075 7.96679,0.31922 14,1.56392 9.5819,1.97684 34.58578,-1.92145 42.84513,-6.67987 2.56018,-1.47498 8.25487,-4.6552 12.65487,-7.06716 9.46222,-5.18693 20.4499,-15.585 23.50308,-22.2419 1.15378,-2.51559 3.21414,-6.1237 4.57858,-8.01803 3.14939,-4.37246 8.12144,-20.29496 9.38539,-30.05577 1.24577,-9.62033 1.28181,-27.05794 0.0599,-28.99059 -0.8202,-1.29731 -1.36929,-1.24136 -4.23469,0.4315 -1.81076,1.05715 -4.86729,3.14898 -6.79229,4.64851 C 479.69117,350.44591 463.46815,359 461.41133,359 c -0.82662,0 -3.55007,1.08977 -6.05212,2.42172 -3.30014,1.7568 -5.48571,2.26973 -7.96017,1.86818 -2.18756,-0.35499 -5.47122,0.19486 -9.15502,1.53302 -6.26341,2.27522 -17.73645,2.77951 -36.74402,1.61508 -11.74719,-0.71965 -16.12049,-1.86036 -17.57875,-4.58514 -1.80524,-3.37313 1.26006,-6.85286 6.0367,-6.85286 2.15152,0 5.07451,0.44204 6.49555,0.98232 3.23122,1.22851 26.46932,1.90064 31.96368,0.92451 2.24555,-0.39895 7.00782,-1.21405 10.58282,-1.81134 7.82379,-1.30715 16.06955,-3.6686 21.5,-6.15725 2.2,-1.0082 6.49263,-2.91342 9.53917,-4.23382 5.83381,-2.52843 15.49104,-9.43616 20.34265,-14.55092 2.78479,-2.93582 2.86493,-3.30104 2.38008,-10.84581 -0.35849,-5.57838 -1.24992,-9.37809 -3.12206,-13.30769 -1.44116,-3.025 -2.6247,-6.87809 -2.63007,-8.56241 -0.01,-2.99375 -4.70198,-18.12545 -6.88675,-22.20772 -3.34212,-6.24481 -8.96837,-51.96808 -9.07246,-73.72987 -0.0316,-6.6 -0.53288,-17.175 -1.11403,-23.5 -1.92646,-20.96696 -4.61962,-29.76494 -11.61198,-37.93394 -1.95924,-2.28893 -3.2702,-4.45375 -2.91324,-4.81071 0.86737,-0.86737 11.28794,2.72372 13.96482,4.8125 1.16813,0.91149 3.98058,2.59979 6.24989,3.75177 4.73527,2.4038 15.69761,16.2466 17.98705,22.71331 2.92739,8.26866 6.40788,23.30139 7.40127,31.96707 0.56743,4.95 1.50748,11.7 2.08898,15 0.5815,3.3 1.15095,9.825 1.26545,14.5 0.13284,5.42401 0.77693,9.58564 1.77983,11.5 0.8644,1.65 1.84206,5.39353 2.17257,8.31894 0.33051,2.92542 1.47738,6.75042 2.54859,8.5 1.07122,1.74959 2.83108,5.88106 3.91082,9.18106 1.07973,3.3 4.66505,11.65736 7.96737,18.5719 3.30232,6.91455 6.33629,13.66455 6.74216,15 0.40586,1.33546 1.53564,3.7781 2.51062,5.4281 1.94262,3.2876 8.45722,25.89798 10.6606,37 2.44667,12.32793 -0.0614,42.57152 -4.19291,50.56107 -0.80763,1.56178 -1.46842,3.77988 -1.46842,4.92911 0,1.14922 -0.89853,3.85076 -1.99674,6.00342 -1.0982,2.15266 -2.91817,6.37669 -4.04437,9.38674 -1.66243,4.44323 -3.27305,6.47428 -8.56139,10.79623 -3.58256,2.92789 -8.40009,6.92908 -10.70562,8.89153 -10.77706,9.17338 -23.43218,15.47537 -35.19188,17.52485 -16.07342,2.80126 -17.51264,3.08636 -17.98999,3.56371 -0.861,0.861 1.62168,24.27268 3.04378,28.7028 C 463.86193,489.04982 460.79337,492 451.00633,492 446.73244,492 443,490.3044 443,488.36283 c 0,-1.81831 2.4384,-4.32001 5.12282,-5.2558 l 3.16504,-1.10334 -0.66088,-7.92454 c -0.36349,-4.3585 -1.45716,-10.54683 -2.43039,-13.75185 l -1.76952,-5.8273 -6.46353,-0.63266 c -3.55495,-0.34796 -9.04139,-0.97242 -12.19209,-1.38769 -7.19657,-0.94851 -7.4397,-0.4527 -5.22287,10.65096 0.91902,4.60317 2.23715,11.29439 2.92918,14.86939 0.69203,3.575 1.55257,7.18791 1.9123,8.02869 0.35974,0.84079 0.0204,2.3953 -0.7541,3.45448 -2.11658,2.89461 -12.60239,3.12841 -15.58729,0.34755 z M 337.75,340.79244 c -2.90826,-0.61765 -4.75,-1.54845 -4.75,-2.40062 0,-1.62037 0.50968,-1.70475 8.5,-1.40719 3.3,0.1229 6.31876,0.73537 6.70836,1.36105 1.65241,2.65372 -3.64661,3.89344 -10.45836,2.44676 z M 359.5,326 c -1.68717,-1.8643 -1.69768,-2.12408 -0.15499,-3.82874 0.91025,-1.00581 1.65499,-2.32925 1.65499,-2.94098 0,-1.82217 1.98217,-2.48997 3.5438,-1.19393 1.89776,1.575 1.85392,4.95081 -0.1005,7.74114 -1.9156,2.7349 -2.6401,2.76751 -4.9433,0.22251 z m -42.83333,-0.66667 c -1.09698,-1.09698 -0.76521,-2.65946 1.27526,-6.00587 1.45654,-2.38874 2.44655,-3.03863 4.00721,-2.63051 2.89489,0.75703 3.74489,4.87867 1.51439,7.34334 -1.73206,1.91391 -5.46571,2.6242 -6.79686,1.29304 z"
       style="fill:#56584a" />
    <path
       id="path9474"
       d="m 411.65499,489.17126 c -2.33115,-2.57589 -2.06908,-3.86361 1.09501,-5.38053 2.54689,-1.22103 2.76391,-1.79746 2.93836,-7.80457 0.15899,-5.47473 -1.38731,-16.17702 -3.37042,-23.32745 -0.63243,-2.28033 -5.17646,-4.21645 -12.06682,-5.14145 -2.88689,-0.38754 -5.54181,-1.17859 -5.89983,-1.75788 -0.44549,-0.72082 0.89557,-0.81338 4.24888,-0.29326 5.69261,0.88298 9.1039,0.93271 19.39983,0.28286 14.35803,-0.90624 25.52392,-4.33022 33.5,-10.27264 1.65,-1.2293 5.25,-3.20859 8,-4.39843 6.18996,-2.67819 18.71259,-14.74409 22.05497,-21.25058 1.32019,-2.56997 3.53589,-6.34598 4.92377,-8.39114 5.76018,-8.4881 11.57323,-34.16321 10.85313,-47.93619 -0.58168,-11.12571 -1.21474,-14.5 -2.72035,-14.5 -0.71383,0 -4.41443,2.18868 -8.22357,4.86374 C 478.83282,349.1695 464.40395,357 462.18243,357 c -0.76559,0 -3.6318,1.125 -6.36936,2.5 -3.23971,1.62721 -6.65165,2.5 -9.77311,2.5 -2.63764,0 -6.53817,0.75654 -8.66784,1.68119 -4.46733,1.93962 -22.66077,2.26867 -40.2678,0.72829 -8.15523,-0.71347 -10.63258,-1.28664 -11.49488,-2.65948 -2.60694,-4.1504 3.36125,-7.0582 9.71111,-4.73141 1.7487,0.64077 8.91234,1.37228 15.91921,1.62557 17.70224,0.63992 37.79385,-2.93021 51.26024,-9.10857 2.75,-1.26169 6.10029,-2.63154 7.4451,-3.0441 5.31891,-1.63174 17.29856,-10.50002 21.33813,-15.79617 4.16187,-5.45649 3.63084,-15.71009 -1.36004,-26.26104 -1.05775,-2.23615 -1.92994,-5.38615 -1.9382,-7 -0.0175,-3.42124 -3.93437,-16.50192 -6.32649,-21.12778 -3.83542,-7.41687 -9.46958,-50.8621 -9.5969,-74.00203 -0.0834,-15.16572 -1.83361,-35.3973 -3.74613,-43.30447 -1.90533,-7.87751 -4.43005,-13.06379 -9.20905,-18.91724 l -3.60642,-4.41725 3,0.74057 c 9.89286,2.44211 20.60545,9.85919 27.41814,18.98351 5.21425,6.9835 6.29283,9.28041 9.39157,20 3.59277,12.42861 4.92813,19.1015 5.22517,26.11041 0.0932,2.2 0.87914,8.275 1.74646,13.5 0.86732,5.225 1.5381,12.2 1.49063,15.5 -0.051,3.54207 0.53499,7.22897 1.43034,9 0.83416,1.65 1.80029,5.16673 2.14695,7.81495 0.34665,2.64822 1.98489,7.59152 3.64051,10.98511 1.65563,3.39359 3.01023,6.78984 3.01023,7.54722 0,1.29341 12.98045,30.51144 16.94978,38.15272 2.15944,4.15707 9.23217,28.71054 10.99005,38.15269 2.32368,12.48124 -0.21312,41.67375 -4.30983,49.59591 -0.8965,1.73364 -1.63,4.14197 -1.63,5.35183 0,1.20986 -1.07116,4.4947 -2.38036,7.29966 -1.3092,2.80495 -3.2217,6.95481 -4.25,9.2219 -1.72522,3.80358 -15.2452,16.31738 -24.86964,23.01878 -8.87673,6.18078 -18.96551,10.57909 -27.38326,11.93801 -12.90187,2.08283 -18.42684,3.33132 -19.50259,4.40707 -0.62432,0.62432 -0.55016,2.7795 0.2088,6.06749 0.64738,2.80458 1.17705,8.22936 1.17705,12.05507 0,3.92073 0.65451,8.52228 1.5,10.54583 1.92051,4.59643 1.89649,4.94927 -0.5,7.34576 -2.44737,2.44737 -13.01479,2.89203 -14.89481,0.62675 -1.72701,-2.08092 -0.26167,-4.5297 3.25143,-5.43358 2.50031,-0.6433 3.21369,-1.41066 3.48706,-3.75096 0.43269,-3.7042 -1.55018,-16.47952 -3.49959,-22.54727 l -1.47949,-4.60507 -9.1823,-0.79496 c -5.05026,-0.43723 -10.9823,-0.83995 -13.1823,-0.89494 -3.93822,-0.0984 -3.99877,-0.0459 -3.92016,3.40003 0.0439,1.925 0.6088,6.2 1.2553,9.5 0.6465,3.3 1.78867,9.15 2.53815,13 0.74949,3.85 1.67299,7.72948 2.05222,8.62106 1.21088,2.84682 -2.05535,4.87894 -7.84195,4.87894 -3.83897,0 -5.7238,-0.49749 -6.92857,-1.82874 z"
       style="fill:#47493a" />
    <path
       id="path9472"
       d="m 413.01225,489.80883 c -2.87303,-1.0628 -2.57221,-4.64544 0.48775,-5.80883 2.39576,-0.91087 2.49761,-1.29552 2.44268,-9.22525 -0.082,-11.84456 -2.83379,-23.61092 -5.90635,-25.2553 l -2.38217,-1.27491 2.42116,-0.76845 c 1.33164,-0.42264 4.72976,-0.69301 7.55137,-0.6008 2.82161,0.0922 6.4224,-0.3333 8.00175,-0.94555 1.57936,-0.61226 5.58801,-1.50648 8.90812,-1.98717 6.24561,-0.90425 13.73244,-4.30824 18.73633,-8.51873 1.58431,-1.33311 3.54338,-2.42384 4.3535,-2.42384 5.12785,0 21.99207,-15.38535 25.31542,-23.09545 1.08945,-2.52749 2.5896,-5.10069 3.33368,-5.71823 0.74408,-0.61753 2.38779,-3.49958 3.65268,-6.40455 1.26489,-2.90497 2.69851,-6.06316 3.18581,-7.0182 0.48731,-0.95504 0.88602,-2.60619 0.88602,-3.66923 0,-1.06305 0.66184,-4.55665 1.47076,-7.76357 0.80891,-3.20692 1.6349,-7.40955 1.83552,-9.33918 0.20062,-1.92962 0.82955,-4.40462 1.39762,-5.5 2.04733,-3.94775 2.48913,-9.44142 0.88803,-11.04252 -0.82882,-0.82882 -1.25493,-2.1637 -0.94691,-2.96639 0.96641,-2.51842 -1.82631,-11.87505 -4.2888,-14.36904 -2.73095,-2.7659 -2.95577,-4.37116 -0.85622,-6.11364 2.95471,-2.4522 1.52369,-16.97456 -2.53632,-25.7391 C 489.88366,301.92939 489,298.18731 489,295.94516 c 0,-2.24215 -0.4731,-4.96063 -1.05133,-6.04106 -0.57822,-1.08043 -1.22364,-3.32605 -1.43426,-4.99027 -0.21062,-1.66421 -1.22629,-4.46314 -2.25704,-6.21984 -2.3755,-4.04852 -3.72614,-9.19235 -6.35273,-24.19399 -2.86962,-16.38968 -3.72029,-25.93248 -4.85828,-54.5 -1.07275,-26.92958 -2.10597,-36.28113 -4.97378,-45.01691 -2.27807,-6.93935 -3.60082,-9.55877 -6.72115,-13.30982 -5.1532,-6.19481 -1.92507,-5.83453 9.95053,1.11056 11.73756,6.86435 18.91982,16.2657 23.08395,30.21617 3.40769,11.41629 4.54605,16.84665 5.65289,26.96631 0.51335,4.69353 1.4333,11.23369 2.04432,14.53369 0.61102,3.3 1.07376,9.30664 1.02831,13.34809 -0.0574,5.1034 0.50137,8.76915 1.82911,12 1.05147,2.55855 2.20949,6.90191 2.57339,9.65191 0.3639,2.75 1.5326,6.42004 2.5971,8.15564 1.0645,1.7356 2.82388,5.86193 3.90974,9.16962 1.08586,3.30769 4.6239,11.56266 7.86231,18.34436 3.23842,6.78171 6.21775,13.45538 6.62075,14.83038 0.403,1.375 1.31841,3.175 2.03424,4 0.71583,0.825 2.49217,5.775 3.94742,11 1.45526,5.225 3.31812,11.50709 4.13971,13.96019 3.47319,10.37031 4.40961,20.23506 3.39177,35.7309 -0.97083,14.78021 -2.42893,22.33731 -5.42939,28.13955 -0.87317,1.68852 -1.58758,4.34226 -1.58758,5.89719 0,1.55494 -0.69833,3.82416 -1.55184,5.04271 -0.85351,1.21856 -2.20076,4.40073 -2.99389,7.07149 -1.17077,3.94242 -2.71303,5.97047 -8.19816,10.78048 C 507.72925,434.36136 497.11996,442 493.95385,442 c -0.72872,0 -2.31029,0.92568 -3.5146,2.05707 -1.44178,1.35449 -5.05003,2.56868 -10.56445,3.555 -23.57226,4.21616 -24.38626,4.48266 -23.41651,7.66626 0.37221,1.22192 1.09533,6.49667 1.60694,11.72167 0.51161,5.225 1.44934,11.84682 2.08384,14.71516 0.88112,3.98317 0.87459,5.55141 -0.0276,6.63852 -1.33464,1.60814 -10.82055,3.08275 -13.41828,2.0859 -3.04045,-1.16672 -2.0004,-4.41744 1.94011,-6.06389 l 3.64328,-1.52226 -0.58614,-9.04711 c -0.32238,-4.97591 -1.34957,-11.35544 -2.28264,-14.17672 -0.93308,-2.82128 -1.86299,-5.73983 -2.06646,-6.48567 -0.25245,-0.92538 -1.1934,-1.14939 -2.96271,-0.70533 -1.42602,0.35791 -7.08138,-0.0998 -12.56747,-1.01714 -7.35636,-1.23007 -10.2684,-1.37419 -11.09358,-0.54901 -1.23223,1.23223 -0.07,11.49009 2.84712,25.12755 0.88234,4.125 1.6765,8.85 1.76479,10.5 0.15576,2.91076 0.005,3.01567 -5.07721,3.5266 -2.88076,0.28964 -6.14326,0.19164 -7.25,-0.21777 z"
       style="fill:#403e38" />
    <path
       id="path9470"
       d="M 446.69557,489.78571 C 444.30199,488.01022 445.48214,485 448.57181,485 c 1.2968,0 2.77668,-0.7875 3.28862,-1.75 1.24707,-2.34462 -0.60961,-20.86428 -2.44817,-24.41967 C 448.63552,457.32827 448,455.26697 448,454.24966 c 0,-1.01731 -0.48806,-2.33772 -1.08457,-2.93423 -0.77943,-0.77943 -0.18255,-1.53455 2.12146,-2.68395 1.76332,-0.87966 3.60138,-1.35504 4.08457,-1.05641 0.4832,0.29863 0.87854,-0.13063 0.87854,-0.9539 0,-0.82328 0.7875,-1.45335 1.75,-1.40015 0.9625,0.0532 3.55,-0.69506 5.75,-1.66279 3.84397,-1.69088 3.91223,-1.80055 1.75,-2.81168 C 460.42321,439.42464 460.34209,438 463.09362,438 c 1.22761,0 2.30248,0.79867 2.59854,1.93083 0.53718,2.05419 3.30784,3.71161 3.30784,1.97877 0,-0.5652 0.41891,-0.76874 0.9309,-0.45231 0.512,0.31644 1.24465,0.0677 1.62812,-0.55278 0.38346,-0.62046 0.22564,-1.41956 -0.35073,-1.77578 -2.41317,-1.49142 -1.51693,-3.31328 2.29171,-4.65852 2.36416,-0.83505 4.1345,-1.02108 4.32887,-0.4549 0.18088,0.52686 1.13475,1.95314 2.11971,3.16951 l 1.79083,2.21159 0.73731,-2.32305 c 0.45203,-1.42425 0.294,-2.59703 -0.40846,-3.03117 -0.80991,-0.50055 -0.85471,-1.47367 -0.15284,-3.31972 0.87219,-2.29405 1.40862,-2.54415 4.41162,-2.05682 2.01491,0.32697 3.70044,0.0989 4.10485,-0.55544 0.37738,-0.61061 1.45134,-1.11021 2.38658,-1.11021 0.93524,0 2.25464,-0.88743 2.93201,-1.97206 0.77614,-1.24281 1.83535,-1.74036 2.86433,-1.34551 0.98732,0.37887 1.99879,-0.0275 2.55867,-1.02794 0.50925,-0.90997 1.60705,-1.65449 2.43957,-1.65449 2.25786,0 1.45031,-6.3769 -0.86305,-6.81513 -1.30361,-0.24696 -1.75,0.33289 -1.75,2.27319 0,3.18425 -2.57768,4.39283 -4.74552,2.22499 -1.45391,-1.45391 -1.39103,-1.7519 0.73255,-3.47146 l 2.32298,-1.88104 -2.37751,-1.66528 C 495.62487,410.74937 495.03012,410 495.61083,410 c 0.58071,0 1.39283,0.33699 1.80471,0.74887 1.17795,1.17795 12.97198,0.24044 14.08446,-1.11957 0.55,-0.67238 2.4625,-1.81864 4.25,-2.54723 1.99064,-0.81139 3.25,-2.02982 3.25,-3.14437 0,-2.4447 -1.75472,-3.38615 -3.5438,-1.90135 -1.23921,1.02846 -1.4562,0.51975 -1.4562,-3.41391 0,-5.22987 0.41641,-5.55749 3.01542,-2.37244 1.74157,2.13428 1.87356,2.15341 2.56638,0.37204 0.52213,-1.3425 0.0746,-2.37261 -1.56953,-3.61278 -2.1971,-1.65728 -2.04288,-4.76425 0.16863,-3.39746 1.64158,1.01456 2.69132,-1.62436 2.09874,-5.27598 C 519.9334,382.20217 520.14585,381 520.86916,381 c 0.62196,0 1.13084,0.6199 1.13084,1.37756 0,0.75765 0.66968,1.93333 1.48817,2.61262 2.26376,1.87876 3.03623,-1.23262 1.21327,-4.88683 -1.28214,-2.57013 -1.28881,-3.04771 -0.0492,-3.5234 1.11023,-0.42603 1.19053,-1.00519 0.35569,-2.56511 C 524.15555,372.42213 524.23592,372 525.39157,372 c 0.80407,0 2.17547,-1.43029 3.04755,-3.17841 1.51761,-3.04212 1.47918,-3.33198 -0.89605,-6.75944 -1.64173,-2.36901 -2.28334,-4.33935 -1.89573,-5.82159 0.47061,-1.79959 0.16935,-2.24056 -1.53071,-2.24056 -2.77252,0 -2.81488,-3.29685 -0.0869,-6.76489 1.48791,-1.89159 1.70881,-2.77868 0.82753,-3.32334 -1.2708,-0.7854 -4.85724,2.98351 -4.85724,5.10437 0,0.81027 -0.89351,0.97642 -2.74795,0.51098 -3.49196,-0.87642 -4.02591,-1.43081 -2.36608,-2.45665 0.82796,-0.5117 1.07351,-1.62277 0.65209,-2.95055 -0.46551,-1.46669 -0.18748,-2.31722 0.89299,-2.73183 C 518.6296,340.54443 518.389,339 516.05904,339 c -2.22258,0 -3.56812,-1.56732 -2.11601,-2.46478 1.46932,-0.90809 4.93424,1.62609 5.26557,3.85113 0.46286,3.10828 2.40653,2.95707 3.75231,-0.29193 1.32466,-3.19802 4.38616,-4.32279 7.24363,-2.66126 0.93749,0.54512 1.99505,0.7006 2.35014,0.34552 C 533.71354,336.61982 531.93638,335 529.5061,335 c -5.92268,0 -9.47067,-3.63541 -6.4733,-6.63278 C 524.66927,326.73073 523.01868,324 520.39301,324 518.22823,324 518,324.42355 518,328.44098 c 0,4.70108 -1.41749,6.89454 -2.29269,3.54777 C 515.42127,330.89494 514.47011,330 513.59362,330 c -2.2182,0 -1.98984,-2.33145 0.44411,-4.53415 1.76836,-1.60034 1.83446,-1.95787 0.5,-2.70467 C 513.69198,322.28787 513,320.8283 513,319.5177 c 0,-3.16753 3.46794,-4.30918 6.03442,-1.98655 1.16596,1.05518 2.5764,1.4458 3.67833,1.01871 1.68752,-0.65405 1.67894,-0.77241 -0.15388,-2.12128 -1.06762,-0.78572 -2.53012,-1.42858 -3.25,-1.42858 -1.58992,0 -1.69274,-1.21613 -0.22677,-2.6821 0.77614,-0.77614 0.72246,-1.65798 -0.18983,-3.1188 -0.97784,-1.56577 -1.00043,-2.36385 -0.0977,-3.45157 0.90098,-1.08561 0.88697,-2.03357 -0.0602,-4.0734 -1.33661,-2.87864 -2.22912,-3.30073 -3.30351,-1.56233 -0.37792,0.6115 -0.11391,1.46608 0.5867,1.89908 1.64402,1.01606 0.5179,3.98912 -1.51097,3.98912 -2.45366,0 -3.84881,-4.82883 -2.14599,-7.42765 1.32512,-2.02239 1.16777,-2.29926 -2.50928,-4.41551 -3.59932,-2.0715 -3.87265,-2.52641 -3.31242,-5.51274 0.52813,-2.81514 0.26275,-3.41343 -1.96415,-4.42807 C 501.79143,282.94785 501.10472,281 503.44098,281 c 2.36192,0 2.89444,-2.03425 0.91199,-3.48385 -1.17057,-0.85595 -2.25743,-1.01041 -2.96685,-0.42164 -0.61575,0.51103 -2.19203,0.81132 -3.50283,0.66732 -1.93575,-0.21266 -2.44271,0.25457 -2.69971,2.48817 -0.17403,1.5125 -0.70584,2.75 -1.18178,2.75 -1.23569,0 -0.53495,-5.05246 0.81659,-5.88776 1.69431,-1.04714 1.21868,-12.0637 -0.49248,-11.40706 -1.60704,0.61668 -1.79747,-2.2957 -0.21411,-3.27428 0.6115,-0.37792 1.4247,-0.18086 1.80713,0.43792 0.50952,0.82443 1.41281,0.79186 3.38039,-0.12188 3.59118,-1.66773 3.43133,-3.14307 -0.26055,-2.40469 -1.62867,0.32573 -3.23423,0.1505 -3.56791,-0.38939 -0.33367,-0.5399 -0.0771,-3.53282 0.57026,-6.65094 1.02576,-4.94103 0.97025,-5.82044 -0.43209,-6.84585 C 494.72406,245.80896 494,244.57843 494,243.72154 c 0,-4.76544 -2.87075,-6.17185 -5.35585,-2.62388 l -1.46925,2.09765 -1.08745,-2.03191 C 485.48935,240.04584 485,238.52691 485,237.78798 c 0,-0.73892 -0.93435,-2.14351 -2.07633,-3.12131 -1.73346,-1.48423 -1.86382,-2.03386 -0.78945,-3.3284 1.13521,-1.36784 1.61398,-1.18451 4.06223,1.55557 1.52645,1.70839 2.95424,3.10616 3.17288,3.10616 0.9197,0 1.25459,-4.95869 0.35513,-5.25851 C 488.10828,230.20276 488.02194,222 489.63245,222 490.3846,222 491,221.31643 491,220.48095 c 0,-1.10184 -0.65566,-1.35449 -2.38719,-0.91991 -1.77047,0.44436 -2.79639,0.0149 -3.97106,-1.66213 -1.50186,-2.1442 -1.68149,-2.17292 -3.46942,-0.55486 -1.65572,1.4984 -2.03544,1.52582 -3.11504,0.22498 -1.94799,-2.34718 -0.27229,-3.67046 3.99642,-3.15593 4.99155,0.60165 5.9552,-0.93605 1.9881,-3.17243 -2.08149,-1.1734 -2.9988,-2.38912 -2.81479,-3.73045 0.31426,-2.29069 3.6606,-3.31008 4.80223,-1.4629 0.85458,1.38274 3.97075,0.59598 3.97075,-1.00252 0,-1.84683 -7.29609,-4.30541 -9.23643,-3.11242 -0.95504,0.58719 -2.67553,1.06762 -3.82333,1.06762 -2.96497,0 -2.10526,-3.25284 1.05701,-3.99935 1.36772,-0.32288 2.99046,-1.59737 3.6061,-2.83222 1.53546,-3.07983 4.37379,-4.98717 6.56769,-4.41345 1.35275,0.35375 1.82896,-0.081 1.82896,-1.66973 0,-2.37646 -3.1301,-4.19494 -3.79374,-2.20403 -0.30098,0.90293 -0.92935,0.77437 -2.30644,-0.47188 -1.44072,-1.30384 -1.62553,-2.03491 -0.77384,-3.06113 1.34251,-1.61764 -0.25243,-1.82176 -1.83885,-0.23534 -2.03474,2.03474 -3.39476,-0.019 -1.71265,-2.5862 1.46254,-2.23211 1.3752,-2.61345 -1.51111,-6.59789 C 474.615,170.16844 474.3432,168.78999 476.5,167 c 1.66371,-1.38076 2.07189,-7 0.50847,-7 -0.54534,0 -1.55358,0.9 -2.24054,2 -0.68696,1.1 -1.78922,2 -2.44946,2 -2.17656,0 -2.5448,-2.09243 -0.72259,-4.10594 1.73199,-1.91383 1.71821,-1.99916 -0.41298,-2.55648 -1.30574,-0.34146 -2.46206,-1.6492 -2.83574,-3.20707 -0.99008,-4.12771 -4.32299,-10.36992 -7.14427,-13.38051 -2.14458,-2.28849 -2.28561,-2.75 -0.84032,-2.75 2.12345,0 7.42739,2.61063 10.13743,4.98969 1.1,0.96566 3.33313,2.1824 4.96251,2.70386 3.83438,1.22715 15.63218,16.56622 17.31206,22.5085 4.37497,15.47569 5.2379,19.23217 6.27084,27.29795 0.63392,4.95 1.78303,13.3287 2.55358,18.61933 0.77056,5.29063 1.40101,12.728 1.40101,16.52749 0,4.67788 0.51015,7.63651 1.58016,9.16416 0.86909,1.2408 1.98689,5.128 2.484,8.63823 0.49711,3.51022 1.81482,7.92624 2.92826,9.81337 1.11344,1.88713 2.73762,5.86256 3.6093,8.83428 0.87169,2.97173 2.87852,7.87814 4.45964,10.90314 4.78571,9.15601 8.60808,17.46272 9.9346,21.58967 0.69129,2.15068 1.83891,4.58533 2.55026,5.41033 0.71135,0.825 2.48402,5.775 3.93927,11 1.45526,5.225 3.31768,11.50579 4.13873,13.95732 3.30778,9.87649 4.27189,19.55731 3.32065,33.34344 -1.06754,15.47178 -2.35167,22.69136 -5.01571,28.19924 -1.06409,2.2 -1.93515,5.125 -1.93568,6.5 -5.2e-4,1.375 -0.8734,3.93083 -1.93973,5.67963 -1.06632,1.7488 -2.4598,5.11462 -3.09663,7.47961 -0.70548,2.61996 -2.38844,5.35594 -4.30749,7.00268 -21.80937,18.71465 -21.94441,18.81036 -38.87627,27.55332 -1.49964,0.77436 -5.77464,1.65584 -9.5,1.95884 -3.72535,0.30299 -8.57336,1.16873 -10.77336,1.92386 -2.2,0.75512 -4.9,1.38639 -6,1.40282 -4.29813,0.0642 -4.90689,1.34388 -3.64156,7.65506 0.64444,3.2143 1.35135,9.21918 1.57092,13.34418 0.21957,4.125 0.92069,8.9306 1.55804,10.67912 1.47171,4.03747 -0.0521,7.32088 -3.39758,7.32088 -1.2869,0 -3.63357,0.25294 -5.21482,0.56209 -1.68274,0.329 -3.62329,0.007 -4.67943,-0.77638 z M 412.2,488.8 c -1.91519,-1.91519 -1.40995,-3.28228 1.63828,-4.43285 l 2.83827,-1.07133 -0.25935,-9.39791 c -0.14265,-5.16885 -0.74487,-10.96994 -1.33828,-12.89131 C 414.48552,459.08523 414,456.07325 414,454.31331 c 0,-2.06288 -0.7084,-3.69609 -1.99364,-4.5963 -2.12295,-1.48697 -1.69842,-2.73856 0.91031,-2.68374 3.21716,0.0676 6.25643,3.72602 5.9739,7.19087 -0.14692,1.80172 0.2676,4.25878 0.92115,5.46012 0.65356,1.20134 1.18828,3.37748 1.18828,4.83586 0,2.52877 1.96067,11.5863 4.28746,19.80634 0.87696,3.09813 0.80993,3.99934 -0.35216,4.73469 -2.09868,1.328 -11.33557,1.13858 -12.7353,-0.26115 z m 23.26382,-37.85855 c -0.35982,-0.5822 -1.84888,-0.81052 -3.30902,-0.50738 -1.46014,0.30313 -4.9048,-0.0585 -7.6548,-0.80368 l -5,-1.35484 4,-0.76911 c 2.2,-0.42302 4.45,-1.04003 5,-1.37115 1.84492,-1.11071 15.5,-1.11214 15.5,-0.002 0,0.57947 -0.9,1.28893 -2,1.57659 -2.29817,0.60099 -2.71046,2.28975 -0.55902,2.28975 0.79254,0 1.7191,0.45 2.05902,1 0.37268,0.60301 -0.96994,1 -3.38197,1 -2.2,0 -4.29439,-0.47635 -4.65421,-1.05855 z"
       style="fill:#36382f" />
  </g>
</svg>
