<?xml version="1.0" encoding="UTF-8" standalone="no"?>
<svg
   xmlns:dc="http://purl.org/dc/elements/1.1/"
   xmlns:cc="http://creativecommons.org/ns#"
   xmlns:rdf="http://www.w3.org/1999/02/22-rdf-syntax-ns#"
   xmlns:svg="http://www.w3.org/2000/svg"
   xmlns="http://www.w3.org/2000/svg"
   viewBox="0 0 800 600"
   height="600"
   width="800"
   version="1.1"
   id="svg4672">
  <metadata
     id="metadata4678">
    <rdf:RDF>
      <cc:Work
         rdf:about="">
        <dc:format>image/svg+xml</dc:format>
        <dc:type
           rdf:resource="http://purl.org/dc/dcmitype/StillImage" />
        <dc:title></dc:title>
      </cc:Work>
    </rdf:RDF>
  </metadata>
  <defs
     id="defs4676" />
  <g
     id="g5949">
    <path
       id="path5979"
       d="m 306.5,494.91816 c -2.75,-0.5292 -9.95,-0.72349 -16,-0.43176 -9.7953,0.47233 -11.35593,0.31207 -14.25,-1.46329 -4.18131,-2.56502 -4.53521,-7.46709 -0.79289,-10.98281 2.21497,-2.08086 3.0526,-2.24097 8.5,-1.62466 3.32359,0.37602 6.04289,0.38879 6.04289,0.0284 0,-0.36041 -1.15565,-2.02871 -2.56812,-3.70734 -4.04222,-4.8039 -10.7298,-18.83377 -11.07616,-23.23667 -0.17307,-2.2 -0.60409,-6.51216 -0.95782,-9.58258 -0.79855,-6.93153 2.37427,-21.40883 6.25515,-28.54166 7.70535,-14.16195 24.07511,-24.14703 42.59695,-25.9829 3.7125,-0.36798 6.75,-0.84636 6.75,-1.06307 0,-0.21672 -0.675,-2.00953 -1.5,-3.98403 -0.825,-1.97451 -1.5,-6.20576 -1.5,-9.40278 0,-3.19703 -0.42169,-6.9219 -0.93708,-8.27748 -0.85611,-2.25175 -0.0281,-19.68041 1.55399,-32.71026 l 0.55183,-4.54476 -13.33437,-1.1371 C 308.50047,327.64797 298.9,326.16365 294.5,324.9749 c -4.4,-1.18876 -9.58035,-2.54761 -11.51189,-3.01968 C 273.52908,319.64346 267,315.35774 267,311.46054 c 0,-2.81759 3.56203,-7.34353 6.72642,-8.54663 2.4515,-0.93206 7.5842,0.39395 24.655,6.36948 3.47079,1.21493 8.79913,2.12814 13,2.22804 3.91522,0.0931 10.36951,0.53042 14.34287,0.97181 l 7.22429,0.80252 1.88252,-4.39288 c 1.03539,-2.41608 2.61391,-6.90947 3.50784,-9.9853 0.89392,-3.07582 2.4664,-6.67582 3.4944,-8 1.028,-1.32417 3.34812,-6.90758 5.15583,-12.40758 1.80772,-5.5 4.32627,-11.8 5.59679,-14 1.27052,-2.2 3.00147,-6.65529 3.84655,-9.90064 0.84509,-3.24536 2.37641,-8.19536 3.40295,-11 1.02654,-2.80465 2.64265,-9.37436 3.59136,-14.59936 0.94871,-5.225 2.58935,-12.425 3.64587,-16 1.05652,-3.575 2.37572,-10.1 2.93157,-14.5 1.88089,-14.88888 2.73156,-20.12619 3.8281,-23.5683 0.60128,-1.88743 2.03428,-7.4817 3.18445,-12.4317 2.94457,-12.67258 3.38996,-13.54519 10.30225,-20.18448 7.0775,-6.79797 11.3707,-9.19953 21.04833,-11.77417 14.83576,-3.9469 39.62259,0.031 49.52334,7.94777 2.4149,1.93099 4.79685,3.51088 5.29322,3.51088 1.20358,0 12.81605,11.98251 12.81605,13.22445 0,1.20357 2.18915,6.39955 6.01451,14.27555 3.49713,7.20022 6.04432,16.52924 11.05808,40.5 2.92684,13.99321 11.82753,41.01018 14.61784,44.37072 1.31099,1.5789 3.0515,4.4692 3.86781,6.4229 0.8163,1.9537 2.97491,5.38687 4.7969,7.62928 1.82199,2.2424 3.82577,5.57327 4.45285,7.40192 0.62707,1.82865 2.29347,4.69547 3.70309,6.37072 1.40963,1.67525 3.18795,4.54171 3.95183,6.36992 0.76387,1.82822 3.22221,5.75228 5.46298,8.72015 2.42222,3.20821 4.07411,6.48857 4.07411,8.09044 0,1.48188 0.69128,3.74934 1.53618,5.03882 1.94802,2.97305 5.62737,15.68488 5.01044,17.31063 -0.25577,0.67402 0.2626,2.92402 1.15195,5 1.30653,3.0498 1.6347,7.80648 1.70921,24.7745 0.10359,23.58896 0.0328,23.99356 -7.61124,43.48579 -5.31684,13.55794 -8.12876,17.78697 -17.29654,26.01345 -3.3,2.96118 -7.19304,6.64774 -8.65121,8.19236 -1.45817,1.54462 -3.3384,2.8084 -4.17831,2.8084 -0.8399,0 -6.84686,2.71195 -13.34879,6.02657 -7.92127,4.03817 -14.29622,6.53384 -19.32169,7.56406 -4.125,0.84562 -9.24575,2.04735 -11.37943,2.6705 l -3.87944,1.133 0.68053,7.05294 c 0.37429,3.87911 0.99504,9.44358 1.37943,12.36548 l 0.69891,5.31256 20.83281,0.18744 20.83282,0.18745 2.91718,3.26578 c 3.55664,3.98163 3.64194,5.60038 0.46264,8.77967 L 507.09091,495 l -28.29546,0.1333 c -32.74706,0.15427 -90.6402,0.11313 -128.79545,-0.0915 -14.575,-0.0782 -29.2,0.0785 -32.5,0.34822 -3.3,0.2697 -8.25,0.0574 -11,-0.47182 z m 104.25,-16.23293 c 1.33588,-0.85845 1.73616,-14.11272 0.62846,-20.81006 -0.5181,-3.13253 -1.10956,-3.77764 -4.35501,-4.75 C 404.95793,452.50633 401.03393,452 398.30346,452 c -3.29356,0 -6.60378,-0.82991 -9.83493,-2.46572 -2.67873,-1.35615 -4.93819,-2.36865 -5.02102,-2.25 -0.77746,1.11365 -2.75765,8.28396 -3.48614,12.62334 -0.81894,4.87816 -2.11244,7.47571 -8.11781,16.30189 -1.01396,1.49023 -1.84356,2.92685 -1.84356,3.1925 0,1.44428 38.43922,0.76814 40.75,-0.71678 z m 34.78852,0.91026 c 1.72708,-1.26287 1.88897,-2.49816 1.60538,-12.25 -0.17346,-5.96502 -0.45658,-10.98777 -0.62915,-11.16166 -0.17257,-0.1739 -4.65815,-0.41333 -9.96797,-0.53207 -9.2481,-0.20681 -9.63392,-0.13042 -9.17203,1.81617 0.26519,1.11764 0.79561,6.62025 1.1787,12.22803 l 0.69653,10.19597 3.12501,0.394 c 6.93225,0.87401 11.3402,0.64281 13.16353,-0.69044 z M 318.1504,450.91951 C 319.99459,449.93253 323,444.45463 323,442.08026 323,440.07764 315.66389,434 313.2466,434 309.69223,434 304,440.01909 304,443.77756 c 0,1.63765 0.61731,3.48987 1.37179,4.11604 1.09855,0.91171 1.49151,0.53991 1.97281,-1.86662 0.33057,-1.65281 0.33792,-3.69076 0.0163,-4.52878 -1.65939,-4.32429 6.34686,-6.08909 11.0042,-2.42562 4.10314,3.22753 2.81726,9.95008 -2.25963,11.8133 -1.43303,0.52593 -2.01343,0.99175 -1.28977,1.03517 0.72366,0.0434 2.22426,-0.40727 3.33466,-1.00154 z"
       style="fill:#eeeed8" />
    <path
       id="path5977"
       d="m 310.55514,493.9596 c -3.57762,-1.08228 -10.0203,-1.37059 -22.41539,-1.00309 -8.95352,0.26547 -9.47476,0.16303 -11.99516,-2.35737 -2.50201,-2.50201 -2.55759,-2.7727 -1.10204,-5.36702 1.44899,-2.58264 1.96026,-2.74213 9.34479,-2.91509 4.29657,-0.10064 8.05521,-0.42625 8.35254,-0.72358 0.29733,-0.29732 -1.10621,-2.36341 -3.11897,-4.5913 -6.01622,-6.65923 -11.27305,-19.00623 -12.60149,-29.5978 -1.03509,-8.25262 -0.94426,-9.86548 0.9799,-17.40168 3.68396,-14.42865 9.32058,-22.86855 20.29206,-30.38402 6.99614,-4.79236 19.29555,-8.69467 27.90738,-8.85436 3.74068,-0.0694 6.80101,-0.3822 6.80074,-0.6952 -2.8e-4,-0.313 -0.91961,-2.98729 -2.04296,-5.94286 -1.12334,-2.95557 -2.01816,-7.45557 -1.98849,-10 0.0297,-2.54443 -0.23064,-9.56121 -0.57848,-15.59286 -0.56888,-9.86444 -0.14616,-15.13683 2.21701,-27.65145 l 0.49438,-2.61807 -11.30048,-0.70335 c -19.12906,-1.1906 -45.18349,-8.07243 -49.55048,-13.08791 -2.83257,-3.25319 -2.81446,-3.64831 0.33889,-7.39586 3.06605,-3.6438 5.92759,-3.90713 13.6236,-1.25371 16.63776,5.73635 19.7805,6.54655 26.27637,6.77403 3.85613,0.13504 10.71506,0.56327 15.24208,0.95162 l 8.23093,0.70609 2.12014,-4.87738 c 1.16607,-2.68256 2.79747,-7.11719 3.62532,-9.85474 0.82785,-2.73754 2.32062,-6.014 3.31726,-7.28103 0.99664,-1.26702 3.27726,-6.90221 5.06806,-12.52264 1.7908,-5.62043 4.0074,-11.34397 4.92579,-12.71897 0.91838,-1.375 2.39428,-4.75 3.27978,-7.5 0.88549,-2.75 2.92526,-9.05 4.53282,-14 1.60756,-4.95 3.44597,-12.375 4.08534,-16.5 0.63937,-4.125 2.05733,-10.425 3.15101,-14 1.09368,-3.575 2.40992,-10.325 2.92496,-15 1.6603,-15.0702 8.14582,-43.49894 11.3269,-49.65046 1.84011,-3.55839 11.26761,-12.58052 15.23876,-14.58352 1.61809,-0.81615 6.12676,-2.43673 10.01926,-3.60128 5.97313,-1.78704 8.81972,-2.04169 18.24597,-1.63228 14.16568,0.61525 23.0509,3.38709 33.42898,10.42854 7.57567,5.14003 15.74778,12.98404 15.74778,15.11553 0,1.34669 2.20668,6.6102 5.62768,13.42347 3.5404,7.05108 7.4679,21.41938 11.89049,43.5 2.30483,11.50731 11.41976,38.77278 13.97838,41.81354 1.25113,1.48688 2.99975,4.4385 3.88582,6.55916 0.88606,2.12067 2.93404,5.36257 4.55104,7.20424 1.61701,1.84167 3.85265,5.41164 4.96808,7.93327 1.11544,2.52163 2.98479,5.8009 4.15413,7.28728 1.16933,1.48638 2.69853,4.05251 3.39821,5.70251 0.69969,1.65 3.13381,5.46289 5.40916,8.47309 2.57107,3.40141 4.13701,6.53752 4.13701,8.28518 0,1.54665 0.67084,3.83593 1.49076,5.08729 2.0223,3.08641 4.48517,11.45343 4.49842,15.28232 0.006,1.72033 0.71184,4.80565 1.56864,6.85626 1.1022,2.63794 1.73047,8.75278 2.14813,20.90752 0.67803,19.73214 -0.30986,26.10925 -6.68148,43.13081 -6.3781,17.03891 -7.05211,18.00637 -22.80026,32.72753 -3.9715,3.7125 -7.88199,6.75 -8.68998,6.75 -0.80799,0 -6.6802,2.70353 -13.04935,6.00785 -9.55494,4.95709 -13.53951,6.40853 -22.78258,8.29887 l -11.2023,2.29103 0.10728,6.95113 c 0.14651,9.49267 1.44013,19.67575 2.70147,21.26541 0.6822,0.85977 1.93307,1.06532 3.61705,0.59439 3.84423,-1.07506 35.93746,-0.55223 38.13,0.62118 2.56811,1.37441 4.18655,4.63121 3.45182,6.94613 -1.04854,3.30367 -6.19702,3.95677 -32.00762,4.06028 -13.75,0.0552 -26.35,0.13508 -28,0.17763 -1.65,0.0426 -7.95,0.03 -14,-0.0278 -6.05,-0.0579 -13.925,-0.10893 -17.5,-0.11352 -3.575,-0.005 -26.59558,-0.0802 -51.15683,-0.16798 -24.56126,-0.0878 -46.61126,0.0891 -49,0.39311 -2.38875,0.30401 -5.66836,0.15186 -7.28803,-0.33811 z m 134.08914,-12.14793 c 1.80746,-0.65359 3.46375,-1.66609 3.68065,-2.25 0.2169,-0.58392 0.12002,-6.46167 -0.21528,-13.06167 l -0.60965,-12 -10.80044,-0.0283 -10.80044,-0.0283 0.56654,3.52829 c 0.43228,2.6922 1.42636,17.8563 1.52203,23.21793 0.0117,0.65291 3.92359,1.2682 10.44131,1.64227 1.61095,0.0924 4.40783,-0.36665 6.21528,-1.02023 z M 410.25,480.16714 c 2.72324,-1.10676 2.74989,-1.20789 2.73899,-10.39239 -0.0139,-11.74642 -0.79757,-16.4841 -2.86001,-17.29085 -0.89594,-0.35046 -5.37271,-1.02825 -9.94837,-1.50619 -6.0307,-0.62994 -9.54023,-1.58446 -12.75714,-3.46969 l -4.43774,-2.60069 -1.01964,2.79634 c -0.56081,1.53798 -1.42154,3.92133 -1.91274,5.29633 -0.49119,1.375 -1.10607,4.3 -1.36638,6.5 -0.49558,4.18836 -5.93249,14.05928 -10.19363,18.50695 C 367.122,479.43832 366,480.97822 366,481.42896 c 0,1.21988 41.02196,0.0501 44.25,-1.26182 z m -90.17308,-30.09022 c 2.94466,-2.94465 3.91608,-7.96467 2.09599,-10.83139 C 320.75325,437.0095 314.66418,433 312.68807,433 310.07046,433 303,440.24849 303,442.93201 c 0,3.89563 2.84735,7.96597 6.26258,8.95247 5.5626,1.60678 7.76875,1.23804 10.81434,-1.80756 z M 308.49169,448.75 c -0.24505,-0.6875 -0.34342,-3.2651 -0.21861,-5.728 0.19729,-3.89336 0.58622,-4.60409 2.97893,-5.44375 5.75749,-2.02044 11.23697,6.01398 7.16796,10.51018 -1.99391,2.20325 -9.20745,2.68392 -9.92828,0.66157 z m 47.07503,-17.36869 c 2.71782,-2.07298 3.43328,-3.32332 3.43328,-6 0,-5.83432 -6.30576,-10.21649 -11.8966,-8.26751 -6.90249,2.40622 -7.95907,11.17421 -1.79914,14.93016 4.24419,2.58784 6.16331,2.46393 10.26246,-0.66265 z m -9.15212,-0.51949 c -1.23678,-2.00115 -1.42538,-9.14391 -0.27794,-10.52648 2.60818,-3.14266 9.86334,0.32801 9.86334,4.71836 0,4.56035 -7.53485,9.12597 -9.5854,5.80812 z"
       style="fill:#d7d6ab" />
    <path
       id="path5975"
       d="M 311.5,492.38244 C 306.66106,491.01003 284.83436,490.3663 282.93528,491.54 281.65962,492.3284 276,489.17376 276,487.67432 276,484.82543 278.51607,484 287.2,484 c 4.84,0 8.8,-0.39885 8.8,-0.88634 0,-0.48748 -2.2278,-3.25924 -4.95066,-6.15945 -5.77508,-6.15123 -12.25531,-18.71548 -12.61269,-24.45421 -0.137,-2.2 -0.57489,-6.32803 -0.97309,-9.1734 -0.84218,-6.01787 2.08873,-18.51718 6.28791,-26.81572 6.04615,-11.94858 21.16973,-22.02215 36.81424,-24.52138 3.62159,-0.57855 8.07433,-0.77245 9.89498,-0.4309 4.23542,0.79457 5.08785,-0.60843 2.90375,-4.77923 -3.26119,-6.22763 -4.94137,-34.84958 -2.74607,-46.77937 0.65787,-3.575 1.45161,-7.9625 1.76387,-9.75 L 332.95,327 l -5.725,-0.0173 c -7.63954,-0.0231 -23.63534,-1.68026 -29.225,-3.02766 -16.91869,-4.07828 -25.29652,-7.19752 -27.96392,-10.41154 -1.7116,-2.06235 -0.1608,-5.76042 3.39179,-8.08817 2.38095,-1.56006 2.89018,-1.51733 9.29554,0.77993 14.77737,5.29984 18.14659,6.14443 27.77659,6.96298 5.5,0.46749 13.04237,1.1152 16.76083,1.43935 7.2755,0.63422 9.12592,-0.0867 10.05711,-3.9181 1.28357,-5.2813 4.91711,-14.48401 6.9947,-17.71557 C 345.5516,291.07675 347.88592,285.225 349.5,280 c 1.61408,-5.225 3.92978,-11.075 5.146,-13 1.21621,-1.925 2.94917,-6.2 3.85101,-9.5 0.90185,-3.3 2.70603,-9.15 4.0093,-13 1.30327,-3.85 2.89655,-10.15 3.54063,-14 0.64407,-3.85 1.98337,-9.925 2.97621,-13.5 2.21111,-7.96175 3.82094,-16.4928 3.8684,-20.5 0.0195,-1.65 0.69002,-6.15 1.48996,-10 0.79994,-3.85 1.99364,-9.7 2.65267,-13 0.65902,-3.3 1.82094,-7.81504 2.58202,-10.03343 0.76109,-2.21839 1.3838,-4.82382 1.3838,-5.78984 0,-4.97043 10.24593,-17.16695 17.62859,-20.98467 10.70907,-5.53787 33.31052,-6.89082 45.37141,-2.71598 7.28208,2.52067 20.83408,11.12896 25.69439,16.32119 5.8324,6.23071 15.60175,30.9964 19.21182,48.70273 0.50461,2.475 1.82136,9 2.9261,14.5 2.48589,12.37613 11.50979,39.17079 14.13192,41.96192 1.06717,1.13596 2.62013,3.69241 3.45102,5.68101 0.83089,1.98859 2.69777,5.02637 4.14862,6.7506 1.45085,1.72424 3.87398,5.49106 5.38473,8.37072 3.9121,7.4569 9.37409,16.43384 13.50026,22.18807 1.95313,2.72377 3.55114,6.11114 3.55114,7.52749 0,1.41635 0.69352,3.56531 1.54115,4.77547 2.02864,2.89629 4.43442,10.94035 4.44803,14.8726 0.006,1.72033 0.76168,4.87033 1.6794,7 1.38244,3.2081 1.67976,7.64484 1.73376,25.87212 l 0.0652,22 -4.10301,11.5 c -5.52411,15.4831 -8.80974,22.10313 -13.23612,26.66875 -9.57798,9.87926 -17.55016,16.56878 -21.33865,17.90543 -2.26439,0.79893 -4.62763,1.87632 -5.25165,2.39421 -4.00468,3.32359 -19.1624,9.53692 -27.49959,11.27241 -15.20236,3.16455 -14.44361,2.55026 -13.63424,11.03848 1.03697,10.87523 2.20314,19.04048 2.96463,20.75764 0.57805,1.30351 3.73326,1.55362 20.77537,1.64681 19.05399,0.1042 20.20336,0.21945 22.21089,2.22698 1.6733,1.6733 1.88803,2.48101 1.02435,3.85319 -0.97052,1.54192 -4.10064,1.83023 -27.98612,2.57769 -14.79136,0.46287 -29.14338,0.76238 -31.89338,0.66559 -9.69177,-0.34114 -22.07438,-0.11895 -28.64375,0.51398 -5.12893,0.49414 -7.35869,0.27038 -9.77937,-0.9814 -1.72459,-0.89182 -3.58144,-1.34596 -4.12633,-1.0092 -0.97026,0.59966 -7.33973,0.67481 -29.45055,0.34747 -12.22839,-0.18103 -55.15099,0.97986 -57.5,1.55515 -0.825,0.20205 -3.75,-0.27078 -6.5,-1.05074 z m 132.77729,-9.62291 4.77729,-2.2576 -0.27729,-13.00097 L 448.5,454.5 l -11,-0.60742 c -6.05,-0.33408 -11.25361,-0.33408 -11.56357,0 -0.80429,0.86688 1.40276,27.79364 2.3556,28.739 0.43562,0.4322 2.91062,1.08177 5.5,1.4435 2.58938,0.36173 4.93297,0.72168 5.20797,0.79988 0.275,0.0782 2.64978,-0.87374 5.27729,-2.11543 z m -35.1052,-1.21421 c 2.01964,-1.01279 3.926,-2.78731 4.23634,-3.94338 0.77534,-2.88826 0.63074,-16.23164 -0.22838,-21.07336 -0.63039,-3.55271 -1.1251,-4.09811 -4.69237,-5.17315 -2.19322,-0.66095 -6.28683,-1.23631 -9.09691,-1.27858 -3.66768,-0.0552 -6.71274,-0.93253 -10.79249,-3.10961 C 382.7174,443.82903 381,443.82217 381,446.93689 c 0,1.00038 -0.675,3.43436 -1.5,5.40887 -0.825,1.9745 -1.5,4.99913 -1.5,6.72139 0,4.02582 -6.09181,14.32532 -11.27966,19.07066 -2.18738,2.0008 -3.7028,4.08155 -3.36762,4.62389 0.37483,0.60649 8.60442,0.91659 21.37836,0.80557 17.94235,-0.15595 21.26868,-0.43113 24.44101,-2.02195 z M 318.03273,452.48307 C 321.3082,450.78926 324,446.35981 324,442.66371 324,439.03397 317.39017,433 313.41402,433 c -3.92286,0 -8.21913,3.28931 -10.0643,7.70544 -1.24028,2.9684 -1.21209,3.78234 0.23675,6.83554 1.49816,3.15714 4.38549,4.80237 11.21319,6.38937 0.16481,0.0383 1.6197,-0.61297 3.23307,-1.44728 z M 309.32655,448.75 c -1.04526,-1.42277 -0.99179,-7.8646 0.0797,-9.59826 1.21851,-1.9716 6.10947,-1.29616 8.41947,1.16271 2.69443,2.8681 2.707,3.73863 0.10173,7.05069 -2.23852,2.84582 -6.96808,3.60734 -8.60087,1.38486 z m 45.70065,-16.27007 c 4.39679,-3.24385 5.26192,-4.88709 4.47035,-8.49109 C 358.594,419.87501 353.6801,416 349.3669,416 c -2.64417,0 -4.18642,0.77382 -6.42327,3.22286 -3.28068,3.59189 -3.40371,4.1589 -1.86203,8.58138 1.09287,3.135 6.10925,7.14789 8.97412,7.17891 0.85565,0.009 3.09281,-1.11718 4.97148,-2.50322 z m -8.62522,-2.87477 c -0.29439,-0.76716 -0.39276,-3.12966 -0.21861,-5.25 0.28247,-3.43922 0.63498,-3.89139 3.26732,-4.19095 5.03358,-0.57282 7.5733,5.69413 3.72057,9.1808 -2.22954,2.01771 -6.03867,2.1641 -6.76928,0.26015 z"
       style="fill:#f9d65c" />
    <path
       id="path5973"
       d="m 409,492.63887 c -1.80705,-0.98442 -4.16308,-1.16147 -8.5,-0.63877 -3.3,0.39773 -6.36592,0.51629 -6.81315,0.26347 -1.401,-0.79197 -79.46765,-0.51708 -80.76446,0.28439 -0.7208,0.44549 -0.97599,0.34778 -0.61542,-0.23563 0.3388,-0.54818 -2.00356,-2.20605 -5.20524,-3.68416 C 295.45085,483.24935 280,463.26487 280,453.57419 c 0,-1.91166 -0.49261,-5.77269 -1.09468,-8.58007 -0.93341,-4.35235 -0.77934,-6.31161 1.04579,-13.29922 3.0166,-11.54918 6.63713,-18.30253 13.36169,-24.9235 9.34115,-9.19724 21.36594,-13.98694 34.9372,-13.91612 7.53791,0.0393 8.01508,-0.53953 5.07358,-6.15494 -3.22395,-6.1546 -4.88611,-34.8488 -2.70521,-46.70034 0.65787,-3.575 1.45161,-7.9625 1.76387,-9.75 L 332.95,327 l -5.725,-0.0173 c -7.63954,-0.0231 -23.63534,-1.68026 -29.225,-3.02766 -16.91869,-4.07828 -25.29652,-7.19752 -27.96392,-10.41154 -1.7116,-2.06235 -0.1608,-5.76042 3.39179,-8.08817 2.38095,-1.56006 2.89018,-1.51733 9.29554,0.77993 14.77737,5.29984 18.14659,6.14443 27.77659,6.96298 5.5,0.46749 13.04237,1.1152 16.76083,1.43935 7.2755,0.63422 9.12592,-0.0867 10.05711,-3.9181 1.28357,-5.2813 4.91711,-14.48401 6.9947,-17.71557 C 345.5516,291.07675 347.88592,285.225 349.5,280 c 1.61408,-5.225 3.92978,-11.075 5.146,-13 1.21621,-1.925 2.94917,-6.2 3.85101,-9.5 0.90185,-3.3 2.70603,-9.15 4.0093,-13 1.30327,-3.85 2.89655,-10.15 3.54063,-14 0.64407,-3.85 1.98337,-9.925 2.97621,-13.5 2.21111,-7.96175 3.82094,-16.4928 3.8684,-20.5 0.0195,-1.65 0.69002,-6.15 1.48996,-10 0.79994,-3.85 1.99364,-9.7 2.65267,-13 0.65902,-3.3 1.82094,-7.81504 2.58202,-10.03343 0.76109,-2.21839 1.3838,-4.82382 1.3838,-5.78984 0,-4.97043 10.24593,-17.16695 17.62859,-20.98467 10.70907,-5.53787 33.31052,-6.89082 45.37141,-2.71598 7.28208,2.52067 20.83408,11.12896 25.69439,16.32119 5.8324,6.23071 15.60175,30.9964 19.21182,48.70273 0.50461,2.475 1.82136,9 2.9261,14.5 2.48589,12.37613 11.50979,39.17079 14.13192,41.96192 1.06717,1.13596 2.62013,3.69241 3.45102,5.68101 0.83089,1.98859 2.69777,5.02637 4.14862,6.7506 1.45085,1.72424 3.87398,5.49106 5.38473,8.37072 3.9121,7.4569 9.37409,16.43384 13.50026,22.18807 1.95313,2.72377 3.55114,6.11114 3.55114,7.52749 0,1.41635 0.69352,3.56531 1.54115,4.77547 2.02864,2.89629 4.43442,10.94035 4.44803,14.8726 0.006,1.72033 0.76168,4.87033 1.6794,7 1.38244,3.2081 1.67976,7.64484 1.73376,25.87212 l 0.0652,22 -4.10301,11.5 c -5.52411,15.4831 -8.80974,22.10313 -13.23612,26.66875 -9.57798,9.87926 -17.55016,16.56878 -21.33865,17.90543 -2.26439,0.79893 -4.62763,1.87632 -5.25165,2.39421 -4.00468,3.32359 -19.1624,9.53692 -27.49959,11.27241 -15.20236,3.16455 -14.44361,2.55026 -13.63424,11.03848 1.03697,10.87523 2.20314,19.04048 2.96463,20.75764 0.57805,1.30351 3.73326,1.55362 20.77537,1.64681 19.05399,0.1042 20.20336,0.21945 22.21089,2.22698 1.6733,1.6733 1.88803,2.48101 1.02435,3.85319 -0.97052,1.54192 -4.10064,1.83023 -27.98612,2.57769 -14.79136,0.46287 -29.14338,0.76238 -31.89338,0.66559 -9.04785,-0.31847 -21.88205,-0.12398 -29,0.43948 -4.92776,0.39008 -7.74008,0.15095 -9.5,-0.80779 z m -47.95318,-8.72635 c 0.74432,-1.39077 1.46893,-1.74002 2.27292,-1.09551 0.67345,0.53986 9.98303,0.86658 21.68026,0.76086 17.68882,-0.15987 21.00356,-0.4382 24.17209,-2.02963 2.01964,-1.0144 3.926,-2.79023 4.23634,-3.9463 0.77534,-2.88826 0.63074,-16.23164 -0.22838,-21.07336 -0.63039,-3.55271 -1.1251,-4.09811 -4.69237,-5.17315 -2.19322,-0.66095 -6.23768,-1.2377 -8.98768,-1.28166 -3.62169,-0.0579 -6.92963,-1.05286 -12,-3.60935 l -7,-3.52941 -0.61235,3.28249 c -0.33679,1.80538 -1.12429,4.54929 -1.75,6.0976 -0.62571,1.5483 -1.13765,4.17519 -1.13765,5.83751 0,4.08341 -6.29186,15.07669 -10.92547,19.08923 -2.06936,1.79199 -5.29518,5.02134 -7.1685,7.17634 -2.64182,3.03906 -2.90634,3.65093 -1.17895,2.72708 1.2249,-0.6551 2.71878,-2.10984 3.31974,-3.23274 z m 83.23047,-1.15299 4.77729,-2.2576 -0.27729,-13.00097 L 448.5,454.5 l -11,-0.60742 c -6.05,-0.33408 -11.25361,-0.33408 -11.56357,0 -0.80429,0.86688 1.40276,27.79364 2.3556,28.739 0.43562,0.4322 2.91062,1.08177 5.5,1.4435 2.58938,0.36173 4.93297,0.72168 5.20797,0.79988 0.275,0.0782 2.64978,-0.87374 5.27729,-2.11543 z M 320.57441,452.51104 c 6.80605,-5.19123 6.63356,-12.82682 -0.41114,-18.20008 -6.55803,-5.00205 -13.624,-3.05658 -17.75828,4.88938 -4.01517,7.71703 2.08538,15.39007 12.50062,15.72281 1.32308,0.0423 3.87405,-1.04318 5.6688,-2.41211 z M 309.32655,448.75 c -1.04526,-1.42277 -0.99179,-7.8646 0.0797,-9.59826 1.21851,-1.9716 6.10947,-1.29616 8.41947,1.16271 2.69443,2.8681 2.707,3.73863 0.10173,7.05069 -2.23852,2.84582 -6.96808,3.60734 -8.60087,1.38486 z m 47.666,-15.94034 c 5.49552,-4.29836 5.0677,-11.50464 -0.92267,-15.54155 -5.01875,-3.38214 -10.5113,-3.07758 -14.11744,0.78281 -3.82635,4.09611 -4.26613,5.95406 -2.44248,10.31867 3.10308,7.42672 11.07542,9.45147 17.48259,4.44007 z m -10.59057,-3.2045 c -0.29439,-0.76716 -0.39276,-3.12966 -0.21861,-5.25 0.28247,-3.43922 0.63498,-3.89139 3.26732,-4.19095 5.03358,-0.57282 7.5733,5.69413 3.72057,9.1808 -2.22954,2.01771 -6.03867,2.1641 -6.76928,0.26015 z M 278.75,490.43074 c -2.97018,-1.61428 -3.51028,-3.55488 -1.46239,-5.25447 0.70818,-0.58774 5.6803,-1.1505 11.04915,-1.25058 8.54169,-0.15922 10.03658,0.0698 11.9624,1.83275 1.21046,1.10809 4.22584,2.96725 6.70084,4.13148 3.5421,1.66618 3.86283,1.99257 1.50672,1.53331 -3.45498,-0.67345 -23.71936,-0.63892 -25.68619,0.0438 -0.72629,0.25209 -2.55803,-0.21422 -4.07053,-1.03626 z"
       style="fill:#fbd72a" />
    <path
       id="path5971"
       d="m 409,492.63887 c -1.80705,-0.98442 -4.16308,-1.16147 -8.5,-0.63877 -3.3,0.39773 -6.35418,0.52355 -6.78706,0.2796 -0.43289,-0.24395 -10.53189,-0.44485 -22.44224,-0.44645 l -21.65518,-0.003 5.20525,-3.00523 c 2.86289,-1.65288 5.68078,-3.89376 6.26198,-4.97974 0.71821,-1.34199 1.43482,-1.67142 2.23699,-1.02837 0.67345,0.53986 9.98303,0.86658 21.68026,0.76086 17.68882,-0.15987 21.00356,-0.4382 24.17209,-2.02963 2.01964,-1.0144 3.926,-2.79023 4.23634,-3.9463 0.77534,-2.88826 0.63074,-16.23164 -0.22838,-21.07336 -0.63039,-3.55271 -1.1251,-4.09811 -4.69237,-5.17315 -2.19322,-0.66095 -6.23768,-1.23614 -8.98768,-1.27819 -3.52969,-0.054 -6.91141,-1.03228 -11.5,-3.32685 -3.575,-1.78772 -6.69163,-3.70039 -6.92585,-4.25039 -0.50962,-1.19671 -2.84782,6.85137 -4.19565,14.44145 -1.33092,7.4948 -7.74379,17.89985 -13.17404,21.37519 -1.53754,0.98403 -3.3016,2.89983 -3.92012,4.25734 -0.69156,1.51781 -3.46565,3.59939 -7.20446,5.40596 -5.88901,2.84554 -6.59788,2.94504 -22.57988,3.16929 l -16.5,0.23151 -6,-3.09486 c -7.82866,-4.0381 -18.84718,-15.69659 -23.36705,-24.72424 -2.59187,-5.1768 -3.45939,-8.31787 -3.76812,-13.64337 C 280.14424,446.11322 280.116,443 280.30207,443 c 0.18607,0 2.33172,3.2156 4.76812,7.14578 2.43639,3.93019 5.66535,8.33679 7.17544,9.79246 3.26838,3.15058 17.56912,8.06176 23.47482,8.06176 7.49964,0 15.64479,-3.31055 22.22369,-9.03271 3.34055,-2.90552 5.84929,-5.50719 5.57499,-5.7815 -0.27431,-0.2743 -2.23967,0.28632 -4.36748,1.24583 -5.20579,2.34748 -8.57496,1.80623 -8.9115,-1.43162 -0.22701,-2.18404 0.59694,-2.91075 6.51939,-5.75 3.72858,-1.7875 7.95793,-3.25 9.39856,-3.25 2.1854,0 2.72464,-0.56139 3.25506,-3.38881 0.45311,-2.41525 1.41876,-3.72237 3.36129,-4.54991 1.49905,-0.63861 4.07555,-2.25794 5.72555,-3.59852 2.5691,-2.08732 2.98622,-3.08573 2.90409,-6.95108 C 361.25596,418.54092 355.97577,414 348.01828,414 c -2.58817,0 -4.27886,-0.51548 -4.62179,-1.40915 -0.29741,-0.77503 -3.09579,-3.41285 -6.21862,-5.86181 -6.76188,-5.30276 -15.01128,-8.02853 -24.02635,-7.93879 l -6.34847,0.0632 3.60271,-1.93094 c 4.02272,-2.15605 13.70024,-3.57565 23.74738,-3.48352 3.65922,0.0336 6.44516,-0.27649 6.19098,-0.68899 -0.25419,-0.4125 -1.4481,-0.75458 -2.65314,-0.76017 -1.6119,-0.007 -2.68509,-1.13077 -4.06047,-4.25 -3.51933,-7.98149 -5.25787,-35.53599 -3.01214,-47.73983 0.65787,-3.575 1.45161,-7.9625 1.76387,-9.75 L 332.95,327 l -5.725,-0.0173 c -7.63954,-0.0231 -23.63534,-1.68026 -29.225,-3.02766 -16.91869,-4.07828 -25.29652,-7.19752 -27.96392,-10.41154 -1.7116,-2.06235 -0.1608,-5.76042 3.39179,-8.08817 2.38095,-1.56006 2.89018,-1.51733 9.29554,0.77993 14.77737,5.29984 18.14659,6.14443 27.77659,6.96298 5.5,0.46749 13.04237,1.1152 16.76083,1.43935 7.2755,0.63422 9.12592,-0.0867 10.05711,-3.9181 1.28357,-5.2813 4.91711,-14.48401 6.9947,-17.71557 C 345.5516,291.07675 347.88592,285.225 349.5,280 c 1.61408,-5.225 3.92978,-11.075 5.146,-13 1.21621,-1.925 2.94917,-6.2 3.85101,-9.5 0.90185,-3.3 2.70603,-9.15 4.0093,-13 1.30327,-3.85 2.89655,-10.15 3.54063,-14 0.64407,-3.85 1.98337,-9.925 2.97621,-13.5 2.21111,-7.96175 3.82094,-16.4928 3.8684,-20.5 0.0195,-1.65 0.69002,-6.15 1.48996,-10 0.79994,-3.85 1.99364,-9.7 2.65267,-13 0.65902,-3.3 1.82094,-7.81504 2.58202,-10.03343 0.76109,-2.21839 1.3838,-4.82382 1.3838,-5.78984 0,-4.97043 10.24593,-17.16695 17.62859,-20.98467 10.70907,-5.53787 33.31052,-6.89082 45.37141,-2.71598 7.28208,2.52067 20.83408,11.12896 25.69439,16.32119 5.8324,6.23071 15.60175,30.9964 19.21182,48.70273 0.50461,2.475 1.82136,9 2.9261,14.5 2.48589,12.37613 11.50979,39.17079 14.13192,41.96192 1.06717,1.13596 2.62013,3.69241 3.45102,5.68101 0.83089,1.98859 2.69777,5.02637 4.14862,6.7506 1.45085,1.72424 3.87398,5.49106 5.38473,8.37072 3.9121,7.4569 9.37409,16.43384 13.50026,22.18807 1.95313,2.72377 3.55114,6.11114 3.55114,7.52749 0,1.41635 0.69352,3.56531 1.54115,4.77547 2.02864,2.89629 4.43442,10.94035 4.44803,14.8726 0.006,1.72033 0.76168,4.87033 1.6794,7 1.38244,3.2081 1.67976,7.64484 1.73376,25.87212 l 0.0652,22 -4.10301,11.5 c -5.52411,15.4831 -8.80974,22.10313 -13.23612,26.66875 -9.57798,9.87926 -17.55016,16.56878 -21.33865,17.90543 -2.26439,0.79893 -4.62763,1.87632 -5.25165,2.39421 -4.00468,3.32359 -19.1624,9.53692 -27.49959,11.27241 -15.20236,3.16455 -14.44361,2.55026 -13.63424,11.03848 1.03697,10.87523 2.20314,19.04048 2.96463,20.75764 0.57805,1.30351 3.73326,1.55362 20.77537,1.64681 19.05399,0.1042 20.20336,0.21945 22.21089,2.22698 1.6733,1.6733 1.88803,2.48101 1.02435,3.85319 -0.97052,1.54192 -4.10064,1.83023 -27.98612,2.57769 -14.79136,0.46287 -29.14338,0.76238 -31.89338,0.66559 -9.04785,-0.31847 -21.88205,-0.12398 -29,0.43948 -4.92776,0.39008 -7.74008,0.15095 -9.5,-0.80779 z m 35.27729,-9.87934 4.77729,-2.2576 -0.27729,-13.00097 L 448.5,454.5 l -11,-0.60742 c -6.05,-0.33408 -11.25361,-0.33408 -11.56357,0 -0.80429,0.86688 1.40276,27.79364 2.3556,28.739 0.43562,0.4322 2.91062,1.08177 5.5,1.4435 2.58938,0.36173 4.93297,0.72168 5.20797,0.79988 0.275,0.0782 2.64978,-0.87374 5.27729,-2.11543 z M 278.75,490.43074 c -2.97018,-1.61428 -3.51028,-3.55488 -1.46239,-5.25447 0.70818,-0.58774 5.6803,-1.1505 11.04915,-1.25058 8.54169,-0.15922 10.03658,0.0698 11.9624,1.83275 1.21046,1.10809 4.22584,2.96725 6.70084,4.13148 3.5421,1.66618 3.86283,1.99257 1.50672,1.53331 -3.45498,-0.67345 -23.71936,-0.63892 -25.68619,0.0438 -0.72629,0.25209 -2.55803,-0.21422 -4.07053,-1.03626 z M 309.32655,448.75 c -1.04526,-1.42277 -0.99179,-7.8646 0.0797,-9.59826 1.21851,-1.9716 6.10947,-1.29616 8.41947,1.16271 2.69443,2.8681 2.707,3.73863 0.10173,7.05069 -2.23852,2.84582 -6.96808,3.60734 -8.60087,1.38486 z m 37.07543,-19.14484 c -0.29439,-0.76716 -0.39276,-3.12966 -0.21861,-5.25 0.28247,-3.43922 0.63498,-3.89139 3.26732,-4.19095 5.03358,-0.57282 7.5733,5.69413 3.72057,9.1808 -2.22954,2.01771 -6.03867,2.1641 -6.76928,0.26015 z"
       style="fill:#b1b094" />
    <path
       id="path5969"
       d="m 409,491 c -3.12941,-3.12941 -2.58475,-6.72244 1.37303,-9.05759 2.57328,-1.51827 3.51908,-2.87361 3.98899,-5.71627 0.78033,-4.72039 0.69086,-14.40797 -0.18614,-20.15586 -0.78595,-5.15111 -1.74542,-5.61522 -14.43864,-6.98418 -5.54551,-0.59809 -8.83022,-1.53859 -11.5,-3.29276 C 383.4561,442.65191 380,441.71431 380,443.55867 c 0,0.75429 -0.62981,3.29966 -1.39958,5.65638 -0.76976,2.35672 -1.68533,6.34241 -2.0346,8.85709 -0.75857,5.46165 -8.60301,18.16814 -12.23897,19.8248 -1.33072,0.60631 -3.18614,2.46996 -4.12317,4.14142 -1.10121,1.96434 -3.82546,4.07169 -7.70368,5.95919 -5.80724,2.82635 -6.53008,2.9276 -22.5,3.15168 l -16.5,0.23151 -6,-3.09486 c -7.82866,-4.0381 -18.84718,-15.69659 -23.36705,-24.72424 -2.59187,-5.1768 -3.45939,-8.31787 -3.76812,-13.64337 C 280.14424,446.11322 280.116,443 280.30207,443 c 0.18607,0 2.33172,3.2156 4.76812,7.14578 2.43639,3.93019 5.66535,8.33679 7.17544,9.79246 3.26838,3.15058 17.56912,8.06176 23.47482,8.06176 7.49964,0 15.64479,-3.31055 22.22369,-9.03271 3.34055,-2.90552 5.84929,-5.50719 5.57499,-5.7815 -0.27431,-0.2743 -2.23967,0.28632 -4.36748,1.24583 -5.20579,2.34748 -8.57496,1.80623 -8.9115,-1.43162 -0.22701,-2.18404 0.59694,-2.91075 6.51939,-5.75 3.72858,-1.7875 7.95793,-3.25 9.39856,-3.25 2.1854,0 2.72464,-0.56139 3.25506,-3.38881 0.45311,-2.41525 1.41876,-3.72237 3.36129,-4.54991 1.49905,-0.63861 4.07555,-2.25794 5.72555,-3.59852 2.5691,-2.08732 2.98622,-3.08573 2.90409,-6.95108 C 361.25596,418.54092 355.97577,414 348.01828,414 c -2.58817,0 -4.27886,-0.51548 -4.62179,-1.40915 -0.29741,-0.77503 -3.09579,-3.41285 -6.21862,-5.86181 -6.76188,-5.30276 -15.01128,-8.02853 -24.02635,-7.93879 l -6.34847,0.0632 3.60271,-1.93094 c 4.02272,-2.15605 13.70024,-3.57565 23.74738,-3.48352 3.65922,0.0336 6.44516,-0.27649 6.19098,-0.68899 -0.25419,-0.4125 -1.46353,-0.75 -2.68744,-0.75 -3.04226,0 -5.60051,-6.83149 -6.92787,-18.5 -1.17625,-10.34018 -1.05447,-29.35424 0.22095,-34.5 0.47713,-1.925 1.1612,-5.6375 1.52015,-8.25 l 0.65264,-4.75 -5.81128,-0.0258 c -8.13512,-0.0361 -24.64433,-1.72458 -29.63158,-3.03054 -2.29883,-0.60197 -6.87969,-1.76521 -10.17969,-2.58498 -8.64462,-2.14744 -16.93617,-6.41285 -17.29159,-8.8953 -0.16822,-1.17492 0.79066,-3.05333 2.26631,-4.43964 l 2.55791,-2.40302 6.23368,2.26646 c 3.42853,1.24656 7.80869,2.62432 9.73369,3.0617 1.925,0.43738 4.85,1.35291 6.5,2.0345 2.74452,1.13374 11.32946,2.1789 30.04542,3.65783 5.26455,0.416 7.30181,0.21575 8.05974,-0.79224 0.55788,-0.74193 2.27621,-5.17397 3.8185,-9.84897 1.54229,-4.675 3.69029,-9.76984 4.77332,-11.32186 1.08304,-1.55203 3.52454,-7.62063 5.42556,-13.48577 1.90102,-5.86515 4.16352,-11.7431 5.02778,-13.06213 2.45522,-3.74714 9.87524,-27.51621 12.21533,-39.13024 1.1636,-5.775 2.78067,-12.66192 3.59349,-15.30427 0.81283,-2.64235 1.95343,-9.16735 2.53468,-14.5 0.58124,-5.33265 1.4456,-11.49573 1.92079,-13.69573 0.47518,-2.2 1.39808,-6.475 2.05089,-9.5 4.55652,-21.11434 6.20373,-25.0932 12.86358,-31.072 10.58335,-9.5011 19.47276,-12.28548 36.95613,-11.57555 13.96877,0.56722 21.0632,2.81797 31.71479,10.06171 9.21567,6.26724 13.38683,11.28907 17.92929,21.58584 6.8465,15.51953 8.61486,21.27107 13.09694,42.59745 3.88032,18.46313 12.43824,45.63866 15.38922,48.86822 1.02237,1.11888 2.86041,4.05933 4.08455,6.53433 1.22414,2.475 3.07364,5.42764 4.11001,6.56143 1.03637,1.13378 3.16705,4.50878 4.73486,7.5 4.00034,7.63225 9.43399,16.57554 13.60399,22.39089 1.95313,2.72377 3.55282,6.09877 3.55488,7.5 0.002,1.40122 0.88244,3.9888 1.95641,5.75018 2.02148,3.31533 5.16366,13.84035 4.36916,14.63486 -0.24812,0.24812 0.46046,3.53621 1.57463,7.30688 1.78536,6.04221 1.99608,9.2291 1.77571,26.85576 l -0.25005,20 -3.77344,10.87145 c -5.26174,15.15928 -9.10024,22.86528 -13.43601,26.97355 -2.04608,1.93872 -6.70123,6.45647 -10.34477,10.03945 -3.65915,3.59834 -7.91176,6.81747 -9.5,7.1913 -1.58146,0.37223 -4.90038,1.86071 -7.37538,3.30774 -9.3509,5.46705 -18.8506,9.10571 -29.26443,11.2091 -13.54669,2.73616 -13.30179,2.11406 -9.60834,24.40741 1.47258,8.8884 1.59855,15.17422 0.32954,16.44323 -0.54545,0.54545 -4.78851,1.11886 -9.42902,1.27425 l -8.4373,0.28252 -1.00683,-2.80277 c -1.29875,-3.61543 0.0886,-5.88497 4.34331,-7.10521 l 3.21846,-0.92304 -0.32269,-13.75404 c -0.17749,-7.56473 -0.5477,-13.95761 -0.8227,-14.2064 -0.275,-0.2488 -5.82415,-0.67722 -12.33145,-0.95205 l -11.83144,-0.4997 0.68617,15.12161 c 0.37739,8.31688 1.11397,15.9261 1.63684,16.90937 1.10147,2.07135 0.35849,5.05077 -1.79706,7.20631 C 422.95891,493.89823 411.55386,493.55386 409,491 Z m -99.25041,-42.69364 c -0.24096,-0.4435 -0.23593,-2.71886 0.0112,-5.05636 0.4077,-3.85661 0.70291,-4.25 3.18927,-4.25 1.50699,0 3.58229,0.93075 4.6118,2.06834 1.70814,1.88748 1.74083,2.30283 0.37379,4.75 -1.03779,1.85777 -2.45812,2.77578 -4.62299,2.98802 -1.71872,0.1685 -3.3221,-0.0565 -3.56306,-0.5 z M 348.25,430.3034 C 347.50963,430.02498 347,428.03263 347,425.41667 347,421.43288 347.23302,421 349.37756,421 c 2.95567,0 4.87939,2.19661 4.4492,5.08036 -0.36547,2.4499 -3.65923,4.94413 -5.57676,4.22304 z"
       style="fill:#9dd352" />
    <path
       id="path5967"
       d="m 409,491 c -3.12941,-3.12941 -2.58475,-6.72244 1.37303,-9.05759 2.57328,-1.51827 3.51908,-2.87361 3.98899,-5.71627 0.78033,-4.72039 0.69086,-14.40797 -0.18614,-20.15586 -0.78595,-5.15111 -1.74542,-5.61522 -14.43864,-6.98418 -5.59048,-0.60294 -8.81225,-1.53173 -11.51313,-3.31909 C 383.00816,442.31525 380,441.44861 380,443.39767 c 0,0.84284 -0.62981,3.46066 -1.39958,5.81738 -0.76976,2.35672 -1.68533,6.34241 -2.0346,8.85709 -0.75857,5.46165 -8.60301,18.16814 -12.23897,19.8248 -1.33072,0.60631 -3.18614,2.46996 -4.12317,4.14142 -1.10121,1.96434 -3.82546,4.07169 -7.70368,5.95919 -5.80724,2.82635 -6.53008,2.9276 -22.5,3.15168 l -16.5,0.23151 -6,-3.09486 c -7.82866,-4.0381 -18.84718,-15.69659 -23.36705,-24.72424 -2.59187,-5.1768 -3.45939,-8.31787 -3.76812,-13.64337 C 280.14424,446.11322 280.116,443 280.30207,443 c 0.18607,0 2.33172,3.2156 4.76812,7.14578 2.43639,3.93019 5.66535,8.33679 7.17544,9.79246 3.26838,3.15058 17.56912,8.06176 23.47482,8.06176 7.49964,0 15.64479,-3.31055 22.22369,-9.03271 3.34055,-2.90552 5.84929,-5.50719 5.57499,-5.7815 -0.27431,-0.2743 -2.23967,0.28632 -4.36748,1.24583 -5.20579,2.34748 -8.57496,1.80623 -8.9115,-1.43162 -0.22701,-2.18404 0.59694,-2.91075 6.51939,-5.75 3.72858,-1.7875 7.95793,-3.25 9.39856,-3.25 2.1854,0 2.72464,-0.56139 3.25506,-3.38881 0.45311,-2.41525 1.41876,-3.72237 3.36129,-4.54991 1.49905,-0.63861 4.07555,-2.25794 5.72555,-3.59852 2.5691,-2.08732 2.98622,-3.08573 2.90409,-6.95108 C 361.25596,418.54092 355.97577,414 348.01828,414 c -2.58817,0 -4.27886,-0.51548 -4.62179,-1.40915 -0.29741,-0.77503 -3.09579,-3.41285 -6.21862,-5.86181 -6.76188,-5.30276 -15.01128,-8.02853 -24.02635,-7.93879 l -6.34847,0.0632 3.60271,-1.93094 c 4.02272,-2.15605 13.70024,-3.57565 23.74738,-3.48352 3.65922,0.0336 6.44516,-0.27649 6.19098,-0.68899 -0.25419,-0.4125 -1.02399,-0.75 -1.71069,-0.75 -2.64684,0 -6.72265,-12.9159 -5.93319,-18.80179 0.31877,-2.37663 -0.0433,-4.99795 -0.93719,-6.78546 -1.83421,-3.66779 -0.89558,-24.38503 1.31185,-28.95491 0.78582,-1.62681 1.42387,-4.75784 1.4179,-6.95784 l -0.0109,-4 -12.49097,-0.73316 c -26.13643,-1.5341 -50.92732,-8.38907 -51.78256,-14.31848 -0.16727,-1.1597 0.79896,-3.04611 2.26631,-4.42462 l 2.55791,-2.40302 6.23368,2.26646 c 3.42853,1.24656 7.80869,2.62432 9.73369,3.0617 1.925,0.43738 4.85,1.35073 6.5,2.02966 3.2525,1.33833 19.11764,3.11199 32.14795,3.59401 l 8.14795,0.30142 0.49649,-3.18698 c 0.65739,-4.21981 5.49858,-16.79026 7.19682,-18.68699 1.55758,-1.73963 3.62259,-7.00734 6.07622,-15.5 0.95341,-3.3 2.97721,-8.25 4.49733,-11 1.52013,-2.75 3.51615,-7.7 4.4356,-11 0.91946,-3.3 2.74891,-9.15 4.06545,-13 1.31655,-3.85 2.88075,-10.375 3.47601,-14.5 0.59526,-4.125 1.93616,-10.2 2.97979,-13.5 1.04362,-3.3 2.38235,-10.725 2.97494,-16.5 0.59259,-5.775 1.72227,-12.525 2.51039,-15 1.53533,-4.82151 2.836,-11.24841 2.93448,-14.5 0.0333,-1.1 1.3416,-5.90796 2.9073,-10.68436 2.57993,-7.87051 3.43031,-9.24477 9.07409,-14.66421 5.53941,-5.31921 7.18293,-6.27129 14.87677,-8.61806 7.09666,-2.16461 10.76348,-2.65784 20.4259,-2.74753 10.29955,-0.0956 12.59173,0.2028 18.27652,2.37929 8.05764,3.08496 19.3294,10.65203 24.08974,16.17217 1.97436,2.28948 5.27716,7.9877 7.33955,12.6627 6.8465,15.51953 8.61486,21.27107 13.09694,42.59745 3.88032,18.46313 12.43824,45.63866 15.38922,48.86822 1.02237,1.11888 2.86041,4.05933 4.08455,6.53433 1.22414,2.475 3.07364,5.42764 4.11001,6.56143 1.03637,1.13378 3.16705,4.50878 4.73486,7.5 4.00034,7.63225 9.43399,16.57554 13.60399,22.39089 1.95313,2.72377 3.55282,6.09877 3.55488,7.5 0.002,1.40122 0.88244,3.9888 1.95641,5.75018 2.02148,3.31533 5.16366,13.84035 4.36916,14.63486 -0.24812,0.24812 0.46046,3.53621 1.57463,7.30688 1.78536,6.04221 1.99608,9.2291 1.77571,26.85576 l -0.25005,20 -3.77344,10.87145 c -5.26174,15.15928 -9.10024,22.86528 -13.43601,26.97355 -2.04608,1.93872 -6.70123,6.45647 -10.34477,10.03945 -3.65915,3.59834 -7.91176,6.81747 -9.5,7.1913 -1.58146,0.37223 -4.90038,1.86071 -7.37538,3.30774 -9.3509,5.46705 -18.8506,9.10571 -29.26443,11.2091 -13.54669,2.73616 -13.30179,2.11406 -9.60834,24.40741 1.47258,8.8884 1.59855,15.17422 0.32954,16.44323 -0.54545,0.54545 -4.78851,1.11886 -9.42902,1.27425 l -8.4373,0.28252 -1.00683,-2.80277 c -1.29875,-3.61543 0.0886,-5.88497 4.34331,-7.10521 l 3.21846,-0.92304 -0.32269,-13.75404 c -0.17749,-7.56473 -0.5477,-13.95761 -0.8227,-14.2064 -0.275,-0.2488 -5.82415,-0.67722 -12.33145,-0.95205 l -11.83144,-0.4997 0.68617,15.12161 c 0.37739,8.31688 1.11397,15.9261 1.63684,16.90937 1.10147,2.07135 0.35849,5.05077 -1.79706,7.20631 C 422.95891,493.89823 411.55386,493.55386 409,491 Z m -35.51472,-74.84288 c -3.71853,-5.61908 -2.6832,-7.16285 4.66792,-6.96025 3.2735,0.0902 6.13338,0.4578 6.35528,0.81685 0.54205,0.87706 6.38004,-0.0243 7.03646,-1.08643 0.28625,-0.46316 -0.73176,-1.50019 -2.26224,-2.3045 -8.30907,-4.36664 -15.08628,-15.6219 -17.30763,-28.74368 -1.74052,-10.28143 -1.8027,-31.17797 -0.11123,-37.37911 3.2498,-11.91414 10.38608,-21.98494 20.52884,-28.97053 6.62186,-4.56065 11.22429,-5.52385 21.38745,-4.476 8.80303,0.90761 15.82878,3.66978 21.96285,8.63467 l 4.24298,3.43425 13.25702,0.15919 c 13.06991,0.15695 28.87454,-1.9991 31.12092,-4.24548 1.19036,-1.19036 -1.45903,-5.30272 -5.96531,-9.25929 C 476.52936,304.13561 475,302.15833 475,301.38284 c 0,-0.77549 -0.45,-2.30387 -1,-3.39641 -0.55,-1.09254 -1.45,-2.88032 -2,-3.97286 -0.55,-1.09254 -1,-2.61939 -1,-3.39301 0,-0.77362 -0.69795,-1.67441 -1.55101,-2.00176 -0.85305,-0.32735 -2.48942,-2.73799 -3.63638,-5.35699 -1.14696,-2.61899 -2.92401,-5.95628 -3.949,-7.41618 C 460.83863,274.38573 460,272.34337 460,271.30707 c 0,-1.0363 -0.9,-3.64948 -2,-5.80707 -1.12463,-2.2059 -2.00288,-5.90934 -2.00659,-8.46144 -0.004,-2.8182 -0.74854,-5.66415 -1.96397,-7.50804 -1.21099,-1.83717 -1.73787,-3.84403 -1.38174,-5.26299 0.3166,-1.26142 0.14033,-2.85016 -0.3917,-3.53052 -1.71016,-2.18691 -3.44531,-10.9477 -2.3794,-12.01361 1.004,-1.004 -0.11369,-3.772 -2.6275,-6.50706 -0.68799,-0.74855 -0.99036,-2.39907 -0.67192,-3.66783 0.36425,-1.4513 -0.37716,-4.19367 -1.9991,-7.39443 C 443.16014,208.35591 442,204.88616 442,203.44354 c 0,-1.44263 -0.85192,-3.37009 -1.89316,-4.28325 -1.04124,-0.91316 -2.66896,-3.77576 -3.61716,-6.36133 -0.9482,-2.58557 -2.57128,-5.46782 -3.60684,-6.40499 C 431.84728,185.4568 431,184.41858 431,184.0868 c 0,-0.33177 -2.83983,-3.57159 -6.31074,-7.19959 -5.71332,-5.97193 -6.61802,-6.55128 -9.55677,-6.11996 -1.96105,0.28782 -3.86742,1.42477 -4.81573,2.87207 -1.17132,1.78765 -1.89569,2.1251 -2.8542,1.32961 -0.8235,-0.68345 -1.50176,-0.71452 -1.88984,-0.0866 -0.33294,0.53871 -0.20665,1.22587 0.28063,1.52703 2.21286,1.36762 -1.82936,12.12641 -5.77851,15.38012 -1.38078,1.13762 -1.38902,1.39901 -0.07,2.21948 1.23198,0.76632 1.27513,1.28499 0.24513,2.94695 -0.6875,1.10932 -1.25,3.14805 -1.25,4.53051 0,1.38246 -0.51117,2.51357 -1.13592,2.51357 -0.77059,0 -0.93803,1.44382 -0.52062,4.48913 0.35234,2.57062 0.12843,5.66905 -0.52393,7.25 -0.62657,1.51848 -1.29303,5.01087 -1.481,7.76087 -0.51878,7.58948 -1.16701,9.5 -3.22331,9.5 -1.62874,0 -1.75424,0.50154 -1.06346,4.25 1.2771,6.93009 -1.77245,26.6789 -4.60258,29.80616 -1.02182,1.12909 -1.32347,2.59652 -0.88934,4.32625 0.41267,1.64421 0.2448,2.61759 -0.45143,2.61759 -0.60963,0 -1.11009,1.4625 -1.11215,3.25 -0.002,1.7875 -0.90205,4.72338 -2,6.52417 -1.09794,1.80079 -1.99626,4.52329 -1.99626,6.05 0,3.19714 -1.60887,5.17583 -4.20847,5.17583 -1.54081,0 -1.62878,0.28774 -0.59439,1.94406 0.97552,1.56205 0.92806,2.29893 -0.24153,3.75 -2.74227,3.40226 -3.95561,6.28091 -3.95561,9.38464 0,1.70821 -0.9,4.25001 -2,5.64843 -1.1,1.39842 -2,3.34737 -2,4.331 0,0.98363 -1.17059,3.17959 -2.60132,4.87991 -1.43073,1.70033 -2.34972,3.74717 -2.0422,4.54855 1.2765,3.32649 -3.46223,12.07054 -6.01136,11.09235 -0.70459,-0.27038 -1.54704,-0.0612 -1.87211,0.46473 -0.32508,0.52598 -1.72699,0.95633 -3.11536,0.95633 -1.38837,0 -2.36307,0.48375 -2.16598,1.075 0.42647,1.27942 0.51542,1.2876 4.13155,0.38001 4.16298,-1.04484 5.20921,0.62072 3.13526,4.99124 -1.37512,2.89785 -1.50403,4.15836 -0.62302,6.09197 0.61098,1.34095 0.8476,3.12414 0.52583,3.96267 -0.32177,0.83852 -0.14965,2.08135 0.3825,2.76184 2.07654,2.65541 3.29434,10.61466 2.29011,14.96763 -0.54176,2.3483 -0.99601,8.48028 -1.00945,13.62663 -0.0222,8.4932 -0.186,9.29548 -1.77445,8.69075 -1.98031,-0.75391 -1.88664,-0.66278 5.5602,5.40937 2.92062,2.38147 7.09988,6.96535 9.28727,10.18641 2.18738,3.22107 4.19167,5.85648 4.45398,5.85648 0.26231,0 -0.66747,-1.7293 -2.06617,-3.84288 z M 431.5,417 c 2.72506,-1.15053 7.46257,-2.28776 10.58184,-2.54015 1.42,-0.11489 4.53714,-1.50286 6.92697,-3.08438 3.10348,-2.05378 5.58047,-2.87547 8.66816,-2.87547 2.66038,0 4.32303,-0.45484 4.32303,-1.18261 0,-0.65044 0.88501,-1.4635 1.96668,-1.80681 1.08167,-0.34331 4.07116,-2.66953 6.64331,-5.16937 2.57215,-2.49984 6.01055,-5.01017 7.64089,-5.57851 1.89837,-0.66178 3.45884,-2.21705 4.3397,-4.32524 0.75649,-1.81055 2.23402,-3.5644 3.28339,-3.89746 1.04937,-0.33306 2.85729,-2.81237 4.0176,-5.50959 1.94421,-4.51942 2.0782,-6.30104 1.70851,-22.71722 -0.22063,-9.79725 -0.6953,-19.38819 -1.05482,-21.31319 -1.56523,-8.38067 -1.23158,-7.91762 -5.2984,-7.35355 -2.06078,0.28583 -4.87186,0.92546 -6.24686,1.42139 -1.375,0.49593 -8.0841,1.58015 -14.90911,2.40937 -6.82501,0.82922 -12.57347,1.67204 -12.77436,1.87293 -0.20089,0.20088 0.3488,3.01678 1.22152,6.25755 2.14711,7.97313 2.01206,17.88832 -0.40764,29.928 -2.43143,12.098 -2.99077,13.64392 -7.47012,20.64628 -3.7892,5.92347 -8.85572,10.83349 -13.83662,13.40921 -5.06917,2.62137 -13.88598,5.40612 -17.23022,5.44209 l -3.09345,0.0333 2.32136,1.9348 c 1.27674,1.06415 3.84821,2.22125 5.71437,2.57134 1.86616,0.35009 3.91054,1.26011 4.54306,2.02226 1.14829,1.3836 4.25481,1.16413 8.42121,-0.59494 z m -121.75041,31.30636 c -0.24096,-0.4435 -0.23593,-2.71886 0.0112,-5.05636 0.4077,-3.85661 0.70291,-4.25 3.18927,-4.25 1.50699,0 3.58229,0.93075 4.6118,2.06834 1.70814,1.88748 1.74083,2.30283 0.37379,4.75 -1.03779,1.85777 -2.45812,2.77578 -4.62299,2.98802 -1.71872,0.1685 -3.3221,-0.0565 -3.56306,-0.5 z M 348.25,430.3034 C 347.50963,430.02498 347,428.03263 347,425.41667 347,421.43288 347.23302,421 349.37756,421 c 2.95567,0 4.87939,2.19661 4.4492,5.08036 -0.36547,2.4499 -3.65923,4.94413 -5.57676,4.22304 z"
       style="fill:#fcb401" />
    <path
       id="path5965"
       d="m 409,491 c -3.12941,-3.12941 -2.58475,-6.72244 1.37303,-9.05759 2.57328,-1.51827 3.51908,-2.87361 3.98899,-5.71627 0.78029,-4.72019 0.69087,-14.40595 -0.18614,-20.16233 -0.65994,-4.33158 -0.79378,-4.46671 -5.67588,-5.73071 -2.75,-0.71199 -7.06672,-1.3032 -9.59272,-1.31381 -3.02405,-0.0127 -6.09804,-0.87149 -9,-2.51435 -2.424,-1.37228 -5.67511,-3.00187 -7.22468,-3.62132 -2.58578,-1.03367 -2.76492,-1.43691 -2.17901,-4.90484 0.35111,-2.07822 0.21986,-4.61113 -0.29167,-5.62868 -0.51153,-1.01756 -1.71581,-4.29378 -2.67618,-7.2805 -0.96038,-2.98673 -2.83681,-7.07852 -4.16985,-9.09288 -3.59479,-5.4321 -2.50129,-6.98072 4.78731,-6.77985 3.2735,0.0902 6.13338,0.4578 6.35528,0.81685 0.54205,0.87706 6.38004,-0.0243 7.03646,-1.08643 0.28625,-0.46316 -0.73176,-1.50019 -2.26224,-2.3045 -8.30907,-4.36664 -15.08628,-15.6219 -17.30763,-28.74368 -1.74052,-10.28143 -1.8027,-31.17797 -0.11123,-37.37911 3.2498,-11.91414 10.38608,-21.98494 20.52884,-28.97053 6.62186,-4.56065 11.22429,-5.52385 21.38745,-4.476 8.80303,0.90761 15.82878,3.66978 21.96285,8.63467 l 4.24298,3.43425 13.25702,0.15919 c 13.06991,0.15695 28.87454,-1.9991 31.12092,-4.24548 1.19036,-1.19036 -1.45903,-5.30272 -5.96531,-9.25929 C 476.52936,304.13561 475,302.15833 475,301.38284 c 0,-0.77549 -0.45,-2.30387 -1,-3.39641 -0.55,-1.09254 -1.45,-2.88032 -2,-3.97286 -0.55,-1.09254 -1,-2.61939 -1,-3.39301 0,-0.77362 -0.69795,-1.67441 -1.55101,-2.00176 -0.85305,-0.32735 -2.48942,-2.73799 -3.63638,-5.35699 -1.14696,-2.61899 -2.92401,-5.95628 -3.949,-7.41618 C 460.83863,274.38573 460,272.34337 460,271.30707 c 0,-1.0363 -0.9,-3.64948 -2,-5.80707 -1.12463,-2.2059 -2.00288,-5.90934 -2.00659,-8.46144 -0.004,-2.8182 -0.74854,-5.66415 -1.96397,-7.50804 -1.21099,-1.83717 -1.73787,-3.84403 -1.38174,-5.26299 0.3166,-1.26142 0.14033,-2.85016 -0.3917,-3.53052 -1.71016,-2.18691 -3.44531,-10.9477 -2.3794,-12.01361 1.004,-1.004 -0.11369,-3.772 -2.6275,-6.50706 -0.68799,-0.74855 -0.99036,-2.39907 -0.67192,-3.66783 0.36425,-1.4513 -0.37716,-4.19367 -1.9991,-7.39443 C 443.16014,208.35591 442,204.88616 442,203.44354 c 0,-1.44263 -0.85192,-3.37009 -1.89316,-4.28325 -1.04124,-0.91316 -2.66896,-3.77576 -3.61716,-6.36133 -0.9482,-2.58557 -2.57128,-5.46782 -3.60684,-6.40499 C 431.84728,185.4568 431,184.41858 431,184.0868 c 0,-0.33177 -2.83983,-3.57159 -6.31074,-7.19959 -5.71332,-5.97193 -6.61802,-6.55128 -9.55677,-6.11996 -1.96105,0.28782 -3.86742,1.42477 -4.81573,2.87207 -1.17132,1.78765 -1.89569,2.1251 -2.8542,1.32961 -0.8235,-0.68345 -1.50176,-0.71452 -1.88984,-0.0866 -0.33294,0.53871 -0.20665,1.22587 0.28063,1.52703 2.21286,1.36762 -1.82936,12.12641 -5.77851,15.38012 -1.38078,1.13762 -1.38902,1.39901 -0.07,2.21948 1.23198,0.76632 1.27513,1.28499 0.24513,2.94695 -0.6875,1.10932 -1.25,3.14805 -1.25,4.53051 0,1.38246 -0.51117,2.51357 -1.13592,2.51357 -0.77059,0 -0.93803,1.44382 -0.52062,4.48913 0.35234,2.57062 0.12843,5.66905 -0.52393,7.25 -0.62657,1.51848 -1.29303,5.01087 -1.481,7.76087 -0.51878,7.58948 -1.16701,9.5 -3.22331,9.5 -1.62874,0 -1.75424,0.50154 -1.06346,4.25 1.2771,6.93009 -1.77245,26.6789 -4.60258,29.80616 -1.02182,1.12909 -1.32347,2.59652 -0.88934,4.32625 0.41267,1.64421 0.2448,2.61759 -0.45143,2.61759 -0.60963,0 -1.11009,1.4625 -1.11215,3.25 -0.002,1.7875 -0.90205,4.72338 -2,6.52417 -1.09794,1.80079 -1.99626,4.52329 -1.99626,6.05 0,3.19714 -1.60887,5.17583 -4.20847,5.17583 -1.54081,0 -1.62878,0.28774 -0.59439,1.94406 0.97552,1.56205 0.92806,2.29893 -0.24153,3.75 -2.74227,3.40226 -3.95561,6.28091 -3.95561,9.38464 0,1.70821 -0.9,4.25001 -2,5.64843 -1.1,1.39842 -2,3.34737 -2,4.331 0,0.98363 -1.17059,3.17959 -2.60132,4.87991 -1.43073,1.70033 -2.34972,3.74717 -2.0422,4.54855 1.2765,3.32649 -3.46223,12.07054 -6.01136,11.09235 -0.70459,-0.27038 -1.54704,-0.0612 -1.87211,0.46473 -0.32508,0.52598 -1.72699,0.95633 -3.11536,0.95633 -1.38837,0 -2.36307,0.48375 -2.16598,1.075 0.38142,1.14427 0.95985,1.17606 4.63155,0.25452 3.67205,-0.92163 4.62377,0.92626 2.63526,5.11673 -1.37512,2.89785 -1.50403,4.15836 -0.62302,6.09197 0.61098,1.34095 0.8476,3.12414 0.52583,3.96267 -0.32177,0.83852 -0.14965,2.08135 0.3825,2.76184 2.07654,2.65541 3.29434,10.61466 2.29011,14.96763 -0.54176,2.3483 -0.99601,8.43214 -1.00945,13.51964 -0.0134,5.0875 -0.36195,9.23596 -0.77445,9.21879 -0.4125,-0.0172 -2.55,-1.13986 -4.75,-2.49488 -2.2,-1.35501 -5.37279,-2.46597 -7.05064,-2.46879 -1.67784,-0.003 -4.22465,-0.55917 -5.65956,-1.23634 -4.12161,-1.94509 -8.01287,-12.68681 -7.08956,-19.57057 0.31877,-2.37663 -0.0433,-4.99795 -0.93719,-6.78546 -1.83421,-3.66779 -0.89558,-24.38503 1.31185,-28.95491 0.78582,-1.62681 1.42387,-4.75784 1.4179,-6.95784 l -0.0109,-4 -12.49097,-0.73316 c -26.13643,-1.5341 -50.92732,-8.38907 -51.78256,-14.31848 -0.16727,-1.1597 0.79896,-3.04611 2.26631,-4.42462 l 2.55791,-2.40302 6.23368,2.26646 c 3.42853,1.24656 7.80869,2.62432 9.73369,3.0617 1.925,0.43738 4.85,1.35073 6.5,2.02966 3.2525,1.33833 19.11764,3.11199 32.14795,3.59401 l 8.14795,0.30142 0.49649,-3.18698 c 0.65739,-4.21981 5.49858,-16.79026 7.19682,-18.68699 1.55758,-1.73963 3.62259,-7.00734 6.07622,-15.5 0.95341,-3.3 2.97721,-8.25 4.49733,-11 1.52013,-2.75 3.51615,-7.7 4.4356,-11 0.91946,-3.3 2.74891,-9.15 4.06545,-13 1.31655,-3.85 2.88075,-10.375 3.47601,-14.5 0.59526,-4.125 1.93616,-10.2 2.97979,-13.5 1.04362,-3.3 2.38235,-10.725 2.97494,-16.5 0.59259,-5.775 1.72227,-12.525 2.51039,-15 1.53533,-4.82151 2.836,-11.24841 2.93448,-14.5 0.0333,-1.1 1.3416,-5.90796 2.9073,-10.68436 2.57993,-7.87051 3.43031,-9.24477 9.07409,-14.66421 5.53941,-5.31921 7.18293,-6.27129 14.87677,-8.61806 7.09666,-2.16461 10.76348,-2.65784 20.4259,-2.74753 10.29955,-0.0956 12.59173,0.2028 18.27652,2.37929 8.05764,3.08496 19.3294,10.65203 24.08974,16.17217 1.97436,2.28948 5.27716,7.9877 7.33955,12.6627 6.8465,15.51953 8.61486,21.27107 13.09694,42.59745 3.88032,18.46313 12.43824,45.63866 15.38922,48.86822 1.02237,1.11888 2.86041,4.05933 4.08455,6.53433 1.22414,2.475 3.07364,5.42764 4.11001,6.56143 1.03637,1.13378 3.16705,4.50878 4.73486,7.5 4.00034,7.63225 9.43399,16.57554 13.60399,22.39089 1.95313,2.72377 3.55282,6.09877 3.55488,7.5 0.002,1.40122 0.88244,3.9888 1.95641,5.75018 2.02148,3.31533 5.16366,13.84035 4.36916,14.63486 -0.24812,0.24812 0.46046,3.53621 1.57463,7.30688 1.78536,6.04221 1.99608,9.2291 1.77571,26.85576 l -0.25005,20 -3.77344,10.87145 c -5.26174,15.15928 -9.10024,22.86528 -13.43601,26.97355 -2.04608,1.93872 -6.70123,6.45647 -10.34477,10.03945 -3.65915,3.59834 -7.91176,6.81747 -9.5,7.1913 -1.58146,0.37223 -4.90038,1.86071 -7.37538,3.30774 -9.3509,5.46705 -18.8506,9.10571 -29.26443,11.2091 -13.54669,2.73616 -13.30179,2.11406 -9.60834,24.40741 1.47258,8.8884 1.59855,15.17422 0.32954,16.44323 -0.54545,0.54545 -4.78851,1.11886 -9.42902,1.27425 l -8.4373,0.28252 -1.00683,-2.80277 c -1.29875,-3.61543 0.0886,-5.88497 4.34331,-7.10521 l 3.21846,-0.92304 -0.32269,-13.75404 c -0.17749,-7.56473 -0.5477,-13.95761 -0.8227,-14.2064 -0.275,-0.2488 -5.82415,-0.67722 -12.33145,-0.95205 l -11.83144,-0.4997 0.68617,15.12161 c 0.37739,8.31688 1.11397,15.9261 1.63684,16.90937 1.10147,2.07135 0.35849,5.05077 -1.79706,7.20631 C 422.95891,493.89823 411.55386,493.55386 409,491 Z m 22.5,-74 c 2.72506,-1.15053 7.46257,-2.28776 10.58184,-2.54015 1.42,-0.11489 4.53714,-1.50286 6.92697,-3.08438 3.10348,-2.05378 5.58047,-2.87547 8.66816,-2.87547 2.66038,0 4.32303,-0.45484 4.32303,-1.18261 0,-0.65044 0.88501,-1.4635 1.96668,-1.80681 1.08167,-0.34331 4.07116,-2.66953 6.64331,-5.16937 2.57215,-2.49984 6.01055,-5.01017 7.64089,-5.57851 1.89837,-0.66178 3.45884,-2.21705 4.3397,-4.32524 0.75649,-1.81055 2.23402,-3.5644 3.28339,-3.89746 1.04937,-0.33306 2.85729,-2.81237 4.0176,-5.50959 1.94421,-4.51942 2.0782,-6.30104 1.70851,-22.71722 -0.22063,-9.79725 -0.6953,-19.38819 -1.05482,-21.31319 -1.56523,-8.38067 -1.23158,-7.91762 -5.2984,-7.35355 -2.06078,0.28583 -4.87186,0.92546 -6.24686,1.42139 -1.375,0.49593 -8.0841,1.58015 -14.90911,2.40937 -6.82501,0.82922 -12.57347,1.67204 -12.77436,1.87293 -0.20089,0.20088 0.3488,3.01678 1.22152,6.25755 2.14711,7.97313 2.01206,17.88832 -0.40764,29.928 -2.43143,12.098 -2.99077,13.64392 -7.47012,20.64628 -3.7892,5.92347 -8.85572,10.83349 -13.83662,13.40921 -5.06917,2.62137 -13.88598,5.40612 -17.23022,5.44209 l -3.09345,0.0333 2.32136,1.9348 c 1.27674,1.06415 3.84821,2.22125 5.71437,2.57134 1.86616,0.35009 3.91054,1.26011 4.54306,2.02226 1.14829,1.3836 4.25481,1.16413 8.42121,-0.59494 z m -100.83333,38.33333 c -0.36667,-0.36666 -0.65528,-1.60416 -0.64136,-2.75 0.0191,-1.57435 1.67295,-2.87734 6.76939,-5.33333 7.67456,-3.6984 9.75861,-3.98169 11.03499,-1.5 1.43723,2.79444 0.35969,4.12561 -5.8956,7.28327 -5.64716,2.85068 -9.85736,3.71012 -11.26742,2.30006 z m -20.91708,-7.02697 c -0.24096,-0.4435 -0.23593,-2.71886 0.0112,-5.05636 0.4077,-3.85661 0.70291,-4.25 3.18927,-4.25 1.50699,0 3.58229,0.93075 4.6118,2.06834 1.70814,1.88748 1.74083,2.30283 0.37379,4.75 -1.03779,1.85777 -2.45812,2.77578 -4.62299,2.98802 -1.71872,0.1685 -3.3221,-0.0565 -3.56306,-0.5 z M 348.25,430.3034 C 347.50963,430.02498 347,428.03263 347,425.41667 347,421.43288 347.23302,421 349.37756,421 c 2.95567,0 4.87939,2.19661 4.4492,5.08036 -0.36547,2.4499 -3.65923,4.94413 -5.57676,4.22304 z"
       style="fill:#95d049" />
    <path
       id="path5963"
       d="m 409,491 c -3.12941,-3.12941 -2.58475,-6.72244 1.37303,-9.05759 2.57328,-1.51827 3.51908,-2.87361 3.98899,-5.71627 0.78029,-4.72019 0.69087,-14.40595 -0.18614,-20.16233 -0.65994,-4.33158 -0.79378,-4.46671 -5.67588,-5.73071 -2.75,-0.71199 -7.04235,-1.3032 -9.53856,-1.31381 -2.49621,-0.0106 -6.09621,-0.85038 -8,-1.86616 -7.90384,-4.21714 -8.90131,-4.87993 -8.27964,-5.5016 C 383.04014,441.29319 382.80833,441 382.16667,441 381.525,441 381,440.49992 381,439.88871 c 0,-1.54823 7.01508,-0.15459 9.23124,1.83392 1.46343,1.3131 1.98292,1.34452 3.35821,0.20313 1.38399,-1.14861 1.81396,-1.09454 2.87901,0.36199 1.76288,2.41089 3.38927,2.1273 4.10274,-0.71539 1.11798,-4.45442 6.7661,-4.4456 8.46133,0.0132 0.81531,2.14441 1.52668,2.41443 6.36093,2.41443 6.36183,0 8.60654,-0.67994 8.60654,-2.60699 0,-1.59176 3.56662,-1.90325 4.5,-0.39301 1.03042,1.66726 4.45553,1.13223 9.35262,-1.46096 2.55606,-1.35352 6.23725,-2.7056 8.18043,-3.00461 1.94318,-0.29901 5.99318,-2.39918 9,-4.66704 3.00682,-2.26785 6.59195,-4.52265 7.96695,-5.01066 2.63851,-0.93644 6.39696,-6.40542 5.45236,-7.93381 -0.30593,-0.49501 0.1718,-0.62064 1.06161,-0.27918 1.65891,0.63658 8.48603,-5.03713 8.48603,-7.05234 0,-0.55895 1.11939,-1.93317 2.48754,-3.05384 2.55387,-2.0919 6.42018,-11.94133 10.4309,-26.57277 1.80686,-6.59158 2.01565,-9.65971 1.66724,-24.5 -0.40329,-17.17834 -1.47292,-26.79037 -3.15945,-28.39185 -0.52612,-0.4996 -2.87011,-0.51057 -5.42623,-0.0254 -12.92319,2.45288 -21.21642,3.77692 -27.75,4.43036 -3.9875,0.3988 -7.25,1.16695 -7.25,1.70699 0,0.54004 0.9333,4.63725 2.07399,9.10491 1.88104,7.36732 1.96274,8.91783 0.87815,16.66661 -2.62088,18.72465 -3.88698,22.79448 -9.9137,31.86702 -4.78963,7.21025 -10.0981,11.03504 -19.79375,14.26154 -7.59375,2.52704 -19.0153,2.29439 -28.24469,-0.57533 -9.82454,-3.05476 -17.31629,-13.43575 -19.89302,-27.56489 -1.81842,-9.971 -2.57336,-29.98789 -1.28224,-33.99748 0.61053,-1.89599 1.33837,-4.80889 1.61743,-6.4731 1.92929,-11.50581 17.6819,-27.96401 28.58562,-29.86603 4.70915,-0.82146 17.80795,0.90451 21.50832,2.83404 1.63014,0.85003 3.3536,1.54828 3.82991,1.55167 0.47632,0.003 3.05639,1.61403 5.7335,3.57921 l 4.86747,3.57306 12.72,0.39572 c 8.93151,0.27787 14.22302,-0.0218 17.7665,-1.00611 2.77558,-0.77101 7.44103,-1.70359 10.36766,-2.0724 3.27285,-0.41244 5.5385,-1.23697 5.88579,-2.14199 0.31055,-0.80928 -0.39734,-3.57515 -1.5731,-6.14638 -1.17575,-2.57122 -3.04227,-7.67146 -4.14783,-11.33386 -1.10555,-3.6624 -2.67691,-7.9374 -3.4919,-9.5 -0.81498,-1.5626 -1.48456,-3.35545 -1.48795,-3.9841 -0.003,-0.62866 -0.68116,-1.40203 -1.50616,-1.71862 -0.825,-0.31658 -1.50655,-1.37722 -1.51455,-2.35699 -0.0158,-1.93572 -2.48391,-9.47572 -4.07468,-12.4481 -1.8161,-3.39342 -6.89829,-22.28748 -6.90457,-25.66915 -0.005,-2.95453 -1.19538,-8.79655 -4.107,-20.16413 -0.49306,-1.925 -1.80989,-11.53463 -2.92631,-21.35472 -1.11641,-9.8201 -2.66793,-19.08865 -3.44781,-20.59679 -0.77989,-1.50813 -1.18673,-3.62632 -0.9041,-4.7071 0.28262,-1.08078 -0.41625,-4.41223 -1.55305,-7.40322 -1.13681,-2.99099 -2.06715,-6.64911 -2.06743,-8.12915 -2.7e-4,-1.48004 -0.45075,-2.96925 -1.00105,-3.30936 -0.5503,-0.3401 -1.50599,-2.62567 -2.12376,-5.07905 -1.07801,-4.28119 -6.07433,-9.5553 -7.60344,-8.02619 -0.33693,0.33693 -1.66102,-0.0744 -2.94242,-0.91397 -2.0851,-1.3662 -2.32983,-1.36657 -2.32983,-0.004 0,2.4689 -1.90728,1.74065 -2.59262,-0.98994 -0.35293,-1.40618 -0.11058,-3.13971 0.55026,-3.93597 1.00019,-1.20516 0.41756,-1.36614 -3.80616,-1.05168 -3.66828,0.27311 -5.13279,-0.008 -5.53792,-1.06403 -0.41219,-1.07415 0.30717,-1.43533 2.85881,-1.43533 1.87528,0 3.72225,-0.50588 4.10438,-1.12419 1.0297,-1.66608 12.01829,-0.28018 19.57567,2.46891 7.78517,2.83195 19.11677,10.40262 23.93732,15.99258 1.97436,2.28948 5.27716,7.9877 7.33955,12.6627 6.8465,15.51953 8.61486,21.27107 13.09694,42.59745 3.88032,18.46313 12.43824,45.63866 15.38922,48.86822 1.02237,1.11888 2.86041,4.05933 4.08455,6.53433 1.22414,2.475 3.07364,5.42764 4.11001,6.56143 1.03637,1.13378 3.16705,4.50878 4.73486,7.5 4.00034,7.63225 9.43399,16.57554 13.60399,22.39089 1.95313,2.72377 3.55282,6.09877 3.55488,7.5 0.002,1.40122 0.88244,3.9888 1.95641,5.75018 2.02148,3.31533 5.16366,13.84035 4.36916,14.63486 -0.24812,0.24812 0.46046,3.53621 1.57463,7.30688 1.78536,6.04221 1.99608,9.2291 1.77571,26.85576 l -0.25005,20 -3.77344,10.87145 c -5.26174,15.15928 -9.10024,22.86528 -13.43601,26.97355 -2.04608,1.93872 -6.70123,6.45647 -10.34477,10.03945 -3.65915,3.59834 -7.91176,6.81747 -9.5,7.1913 -1.58146,0.37223 -4.90038,1.86071 -7.37538,3.30774 -9.3509,5.46705 -18.8506,9.10571 -29.26443,11.2091 -13.54669,2.73616 -13.30179,2.11406 -9.60834,24.40741 1.47258,8.8884 1.59855,15.17422 0.32954,16.44323 -0.54545,0.54545 -4.78851,1.11886 -9.42902,1.27425 l -8.4373,0.28252 -1.00683,-2.80277 c -1.29875,-3.61543 0.0886,-5.88497 4.34331,-7.10521 l 3.21846,-0.92304 -0.32269,-13.75404 c -0.17749,-7.56473 -0.5477,-13.95761 -0.8227,-14.2064 -0.275,-0.2488 -5.82415,-0.67722 -12.33145,-0.95205 l -11.83144,-0.4997 0.68617,15.12161 c 0.37739,8.31688 1.11397,15.9261 1.63684,16.90937 1.10147,2.07135 0.35849,5.05077 -1.79706,7.20631 C 422.95891,493.89823 411.55386,493.55386 409,491 Z m -77.8,-36.2 c -2.32804,-2.32804 -1.12724,-3.80855 5.9097,-7.28629 8.07853,-3.99252 9.45703,-4.21932 10.71999,-1.76371 1.43723,2.79444 0.35969,4.12561 -5.8956,7.28327 -6.37193,3.21654 -8.87268,3.62814 -10.73409,1.76673 z m -21.45041,-6.49364 c -0.24096,-0.4435 -0.23593,-2.71886 0.0112,-5.05636 0.4077,-3.85661 0.70291,-4.25 3.18927,-4.25 1.50699,0 3.58229,0.93075 4.6118,2.06834 1.70814,1.88748 1.74083,2.30283 0.37379,4.75 -1.03779,1.85777 -2.45812,2.77578 -4.62299,2.98802 -1.71872,0.1685 -3.3221,-0.0565 -3.56306,-0.5 z M 348.25,430.3034 C 347.50963,430.02498 347,428.03263 347,425.41667 347,421.43288 347.23302,421 349.37756,421 c 2.95567,0 4.87939,2.19661 4.4492,5.08036 -0.36547,2.4499 -3.65923,4.94413 -5.57676,4.22304 z M 310.70259,324.97682 c -4.28858,-0.4089 -9.91358,-1.27274 -12.5,-1.91966 -2.58643,-0.64692 -7.40259,-1.85408 -10.70259,-2.68259 -8.67583,-2.17817 -16.93716,-6.43563 -17.29159,-8.91119 -0.16822,-1.17492 0.79066,-3.05333 2.26631,-4.43964 l 2.55791,-2.40302 6.23368,2.26646 c 3.42853,1.24656 7.80869,2.62432 9.73369,3.0617 1.925,0.43738 4.85,1.35073 6.5,2.02966 3.20161,1.31739 19.18192,3.13086 31.45437,3.5695 6.16378,0.2203 7.57996,0.58547 8.17972,2.1092 1.15913,2.94482 0.98992,3.83253 -1.17305,6.1542 -1.78406,1.91496 -3.00292,2.17107 -9.75,2.04869 -4.24107,-0.0769 -11.21988,-0.47442 -15.50845,-0.88331 z m 75.96408,-170.64349 c -1.21656,-1.21655 -0.69068,-3.96049 1.08333,-5.65264 0.9625,-0.91808 3.64494,-3.47181 5.96097,-5.67496 2.31603,-2.20315 5.12853,-4.00573 6.25,-4.00573 2.56388,0 2.57348,1.05084 0.039,4.27287 -2.36805,3.01049 -2.59837,4.89398 -0.5,4.08876 1.75941,-0.67515 1.88756,0.0457 0.47676,2.6818 -0.85214,1.59223 -1.74725,1.8127 -5.35309,1.31847 -3.82467,-0.52423 -4.3944,-0.34662 -4.88314,1.52231 -0.5526,2.11316 -1.81479,2.7082 -3.07386,1.44912 z"
       style="fill:#87a25d" />
    <path
       id="path5961"
       d="m 411.49059,491.75985 c -4.73605,-2.5908 -4.79728,-7.05634 -0.13446,-9.80746 3.1604,-1.86469 3.38871,-2.37301 3.91493,-8.71628 0.58176,-7.01277 0.41004,-10.82655 -0.8097,-17.9829 -0.65605,-3.84911 -1.07492,-4.34134 -4.47291,-5.25632 -2.06199,-0.55524 -6.28512,-1.20231 -9.38474,-1.43794 -3.09962,-0.23562 -6.86598,-1.07469 -8.36969,-1.86459 -7.50801,-3.94395 -11.2183,-6.27596 -11.22577,-7.05565 -0.0126,-1.31808 7.26384,0.32602 9.22299,2.08392 1.46343,1.3131 1.98292,1.34452 3.35821,0.20313 1.38399,-1.14861 1.81396,-1.09454 2.87901,0.36199 1.76288,2.41089 3.38927,2.1273 4.10274,-0.71539 1.1047,-4.40149 6.76171,-4.45715 8.42479,-0.0829 0.74965,1.97172 1.71074,2.37007 6.42844,2.66443 5.45305,0.34024 8.57557,-0.75726 8.57557,-3.01414 0,-1.40377 3.64876,-1.51709 4.5,-0.13976 1.03042,1.66726 4.45553,1.13223 9.35262,-1.46096 2.55606,-1.35352 6.23725,-2.7056 8.18043,-3.00461 1.94318,-0.29901 5.99318,-2.39918 9,-4.66704 3.00682,-2.26785 6.59195,-4.52265 7.96695,-5.01066 2.56725,-0.91115 6.40673,-6.38962 5.50292,-7.852 -0.27812,-0.45002 0.28244,-0.63447 1.2457,-0.40989 2.05655,0.47947 8.25138,-4.85258 8.25138,-7.10218 0,-0.84455 1.11198,-2.04219 2.47107,-2.66143 2.08628,-0.95058 4.55806,-5.39156 4.50371,-8.09171 -0.008,-0.41826 0.68037,-2.10576 1.53064,-3.75 0.85027,-1.64424 1.29355,-2.98952 0.98508,-2.98952 -0.30848,0 -0.046,-0.96204 0.58328,-2.13786 0.62928,-1.17582 1.36242,-3.53832 1.62919,-5.25 0.26677,-1.71168 0.82779,-3.56214 1.2467,-4.11214 0.41892,-0.55 1.27397,-3.10123 1.90011,-5.66941 1.81372,-7.4392 -0.0914,-44.17637 -2.4923,-48.0612 -0.61114,-0.98884 -10.95667,0.0144 -13.44412,1.30372 -0.87266,0.45232 -7.51016,1.36351 -14.75,2.02487 C 451.96142,333.02991 449,333.62286 449,334.7336 c 0,0.78825 0.9333,5.08853 2.07399,9.55619 1.88104,7.36732 1.96274,8.91783 0.87815,16.66661 -2.62088,18.72465 -3.88698,22.79448 -9.9137,31.86702 -4.78963,7.21025 -10.0981,11.03504 -19.79375,14.26154 -7.59375,2.52704 -19.0153,2.29439 -28.24469,-0.57533 -9.82454,-3.05476 -17.31629,-13.43575 -19.89302,-27.56489 -1.81842,-9.971 -2.57336,-29.98789 -1.28224,-33.99748 0.61053,-1.89599 1.33837,-4.80889 1.61743,-6.4731 1.92929,-11.50581 17.6819,-27.96401 28.58562,-29.86603 4.70915,-0.82146 17.80795,0.90451 21.50832,2.83404 1.63014,0.85003 3.32338,1.54828 3.76275,1.55167 0.43937,0.003 3.44192,1.8701 6.67233,4.14825 5.17772,3.65142 6.35283,4.07779 9.92009,3.59932 2.22564,-0.29852 5.74809,-0.16697 7.82767,0.29233 2.07958,0.4593 6.48105,0.46231 9.78105,0.007 10.91905,-1.50756 22.8574,-3.99783 23.83047,-4.9709 0.61138,-0.61138 -0.0162,-2.95088 -1.73291,-6.45966 -1.4803,-3.02562 -2.85537,-6.31309 -3.05571,-7.3055 -0.20034,-0.9924 -0.84307,-3.04187 -1.4283,-4.55437 -0.58523,-1.5125 -0.8888,-2.75 -0.6746,-2.75 0.2142,0 -0.67526,-2.10306 -1.97656,-4.67347 -1.30131,-2.5704 -2.15009,-5.02282 -1.88619,-5.44982 0.2639,-0.427 -0.43279,-1.26477 -1.54819,-1.86172 C 472.9126,282.41804 472,281.15161 472,280.2007 c 0,-0.95091 -0.94715,-4.19758 -2.10478,-7.21482 -4.0287,-10.50034 -4.79195,-12.72222 -5.18603,-15.09682 -0.21806,-1.31398 -0.94963,-3.73906 -1.62572,-5.38906 -0.67608,-1.65 -1.42168,-5.475 -1.6569,-8.5 -0.52155,-6.70746 -1.31324,-10.63313 -2.86414,-14.20211 -0.40681,-0.93617 -0.45639,-2.16045 -0.11018,-2.72064 0.34622,-0.56018 -0.0629,-2.35744 -0.90915,-3.99391 -0.84626,-1.63647 -1.73483,-6.26219 -1.97461,-10.27937 -0.23978,-4.01718 -0.49679,-7.30397 -0.57113,-7.30397 -0.21973,0 -0.93946,-5.62546 -1.40736,-11 -0.56768,-6.52076 -1.59418,-11.40082 -3.05,-14.5 -0.6459,-1.375 -1.10239,-4.02442 -1.01441,-5.88759 0.088,-1.86318 -0.66929,-5.10394 -1.68282,-7.2017 C 446.82925,164.81296 446,161.75143 446,160.10732 c 0,-1.64411 -0.45025,-3.26755 -1.00055,-3.60766 -0.5503,-0.3401 -1.50599,-2.62567 -2.12376,-5.07905 -1.07801,-4.28119 -6.07433,-9.5553 -7.60344,-8.02619 -0.33693,0.33693 -1.66102,-0.0744 -2.94242,-0.91397 -2.0851,-1.3662 -2.32983,-1.36657 -2.32983,-0.004 0,2.4689 -1.90728,1.74065 -2.59262,-0.98994 -0.35293,-1.40618 -0.11058,-3.13971 0.55026,-3.93597 1.00019,-1.20516 0.41756,-1.36614 -3.80616,-1.05168 -3.44873,0.25676 -5.14085,-0.0293 -5.48544,-0.92725 -0.37073,-0.96612 1.52492,-1.46728 7.40483,-1.95764 8.45958,-0.7055 10.29096,-0.47041 19.11418,2.45372 9.58128,3.17536 27.81495,17.05085 27.81495,21.16667 0,0.97698 3.15776,8.26421 6.09131,14.05702 3.05647,6.03555 7.92778,24.40031 11.43648,43.11538 1.93531,10.32272 11.88322,39.33688 14.40902,42.02547 1.08225,1.15201 2.63691,3.66342 3.45479,5.58092 0.81788,1.91749 3.31436,5.89403 5.54773,8.83676 2.23337,2.94273 4.0626,5.86773 4.06495,6.5 0.002,0.63227 1.37279,3.17459 3.04542,5.64959 1.67263,2.475 3.63405,5.85 4.35871,7.5 0.72467,1.65 3.17923,5.46289 5.45458,8.47309 2.67623,3.54053 4.13701,6.51409 4.13701,8.42126 0,1.62149 0.63119,3.6586 1.40263,4.52691 1.70871,1.92323 4.59737,11.43271 4.59737,15.13451 0,1.48103 0.70317,4.66185 1.5626,7.0685 1.97867,5.54083 2.92188,35.05955 1.35403,42.37573 -3.71003,17.31246 -10.71309,34.7904 -16.27142,40.6095 -7.26163,7.60232 -18.7358,17.8905 -19.95286,17.8905 -0.64287,0 -6.38818,2.68052 -12.76736,5.95671 -9.51704,4.88772 -13.557,6.34622 -22.51175,8.12719 -6.00228,1.19376 -11.47574,2.61834 -12.16324,3.16573 -2.23011,1.77563 -1.48392,14.4062 1.72568,29.21032 0.62194,2.86864 0.46996,4.71139 -0.55146,6.68659 -1.88895,3.65284 -2.13515,3.75501 -9.81904,4.07521 -7.18957,0.2996 -8.56,-0.50643 -8.58987,-5.0522 -0.0118,-1.79791 0.90271,-2.69105 4.00211,-3.90853 l 4.01743,-1.57809 -0.63904,-13.59146 c -0.36831,-7.83351 -1.11707,-14.09601 -1.76742,-14.78241 -1.15517,-1.21922 -23.07294,-2.19784 -24.19067,-1.08011 -0.31282,0.31282 -0.15913,5.67678 0.34153,11.91991 0.50067,6.24313 0.89275,12.92614 0.8713,14.85114 -0.0215,1.925 0.30108,4.65345 0.71675,6.06323 1.15428,3.91484 -1.77011,6.60844 -7.87671,7.25509 -2.80225,0.29674 -5.88648,0.0507 -7,-0.55847 z M 331.2,454.8 c -2.35577,-2.35577 -1.09708,-3.80489 6.32193,-7.27835 8.65637,-4.05277 9.0957,-4.12828 10.30776,-1.77165 1.43723,2.79444 0.35969,4.12561 -5.8956,7.28327 -6.37193,3.21654 -8.87268,3.62814 -10.73409,1.76673 z m -19.9007,-6.64252 c -0.56063,-0.36161 -0.95138,-2.45487 -0.86832,-4.65168 0.11206,-2.9638 0.61109,-4.0828 1.93442,-4.33765 2.20321,-0.4243 5.6346,2.53805 5.6346,4.86439 0,2.66705 -4.58502,5.48958 -6.7007,4.12494 z M 316,325.30177 c -2.475,-0.2049 -9,-1.29534 -14.5,-2.42319 -26.37788,-5.40914 -34.00323,-9.35008 -28.93267,-14.95298 2.2555,-2.4923 3.89452,-2.42793 12.12546,0.47618 13.15481,4.6414 18.87158,6.00214 25.84335,6.15136 3.86987,0.0828 8.75725,0.71861 10.86083,1.41286 2.32148,0.76615 5.70953,1.01222 8.62039,0.62609 6.70057,-0.88887 9.89987,2.30129 6.62702,6.60809 -1.37334,1.8072 -11.61136,2.84943 -20.64438,2.10159 z m 70.66667,-170.96844 c -1.21656,-1.21655 -0.69068,-3.96049 1.08333,-5.65264 0.9625,-0.91808 3.64494,-3.47181 5.96097,-5.67496 2.31603,-2.20315 5.12853,-4.00573 6.25,-4.00573 2.56388,0 2.57348,1.05084 0.039,4.27287 -2.36805,3.01049 -2.59837,4.89398 -0.5,4.08876 1.75941,-0.67515 1.88756,0.0457 0.47676,2.6818 -0.85214,1.59223 -1.74725,1.8127 -5.35309,1.31847 -3.82467,-0.52423 -4.3944,-0.34662 -4.88314,1.52231 -0.5526,2.11316 -1.81479,2.7082 -3.07386,1.44912 z"
       style="fill:#85c533" />
    <path
       id="path5959"
       d="m 411.49059,491.75985 c -4.73605,-2.5908 -4.79728,-7.05634 -0.13446,-9.80746 3.1604,-1.86469 3.38871,-2.37301 3.91493,-8.71628 0.58176,-7.01277 0.41004,-10.82655 -0.8097,-17.9829 -0.65605,-3.84911 -1.07492,-4.34134 -4.47291,-5.25632 -2.06199,-0.55524 -6.25583,-1.20008 -9.31966,-1.43299 -5.17381,-0.3933 -12.07226,-2.78967 -13.17717,-4.57746 -0.26186,-0.4237 1.2079,-0.42093 3.26614,0.006 6.39879,1.32776 27.06724,1.05001 35.60119,-0.47842 19.26454,-3.45027 34.37965,-11.93596 48.61675,-27.29366 8.70573,-9.39096 10.89509,-13.96414 16.45432,-34.37024 2.38698,-8.7618 2.52959,-10.48324 2.02052,-24.38874 -0.51759,-14.13816 -1.87387,-26.71946 -3.09306,-28.69215 -0.59673,-0.96553 -10.91776,0 -13.35748,1.24959 -0.825,0.42255 -8.7,1.49582 -17.5,2.38503 -18.70691,1.89029 -33.14811,1.12941 -36.52241,-1.92429 -2.73032,-2.4709 -2.47578,-5.94268 0.61388,-8.37301 2.39853,-1.88668 3.63279,-2.00455 16.57837,-1.58316 7.6928,0.25041 14.34933,0.67928 14.7923,0.95305 1.61189,0.9962 29.75462,-3.79336 31.28572,-5.32446 0.51797,-0.51797 -0.1328,-3.34129 -1.56056,-6.77031 -1.34697,-3.23501 -3.20941,-8.53537 -4.13876,-11.77858 -0.92935,-3.24321 -3.0035,-8.67733 -4.60921,-12.07583 -3.37702,-7.14749 -7.58336,-18.04744 -9.46523,-24.52742 -0.71877,-2.475 -2.01948,-6.46908 -2.89048,-8.87573 -0.87099,-2.40665 -1.59856,-5.55665 -1.61682,-7 -0.0183,-1.44335 -0.93996,-6.89927 -2.04822,-12.12427 -2.36648,-11.15706 -4.48101,-24.7452 -5.91339,-38 -0.95401,-8.82807 -1.69284,-12.55549 -5.64913,-28.5 -4.5586,-18.3719 -9.47354,-26.86262 -17.72635,-30.62285 -8.01957,-3.65397 4.22677,-3.57693 14.58533,0.0917 C 455.0667,139.45805 473,153.18378 473,157.23486 c 0,0.97698 3.15776,8.26421 6.09131,14.05702 3.05647,6.03555 7.92778,24.40031 11.43648,43.11538 1.93531,10.32272 11.88322,39.33688 14.40902,42.02547 1.08225,1.15201 2.63691,3.66342 3.45479,5.58092 0.81788,1.91749 3.31436,5.89403 5.54773,8.83676 2.23337,2.94273 4.0626,5.86773 4.06495,6.5 0.002,0.63227 1.37279,3.17459 3.04542,5.64959 1.67263,2.475 3.63405,5.85 4.35871,7.5 0.72467,1.65 3.17923,5.46289 5.45458,8.47309 2.67623,3.54053 4.13701,6.51409 4.13701,8.42126 0,1.62149 0.63119,3.6586 1.40263,4.52691 1.70871,1.92323 4.59737,11.43271 4.59737,15.13451 0,1.48103 0.70317,4.66185 1.5626,7.0685 1.97867,5.54083 2.92188,35.05955 1.35403,42.37573 -3.71003,17.31246 -10.71309,34.7904 -16.27142,40.6095 -7.26163,7.60232 -18.7358,17.8905 -19.95286,17.8905 -0.64287,0 -6.38818,2.68052 -12.76736,5.95671 -9.51704,4.88772 -13.557,6.34622 -22.51175,8.12719 -6.00228,1.19376 -11.47574,2.61834 -12.16324,3.16573 -2.23011,1.77563 -1.48392,14.4062 1.72568,29.21032 0.62194,2.86864 0.46996,4.71139 -0.55146,6.68659 -1.88895,3.65284 -2.13515,3.75501 -9.81904,4.07521 -7.18957,0.2996 -8.56,-0.50643 -8.58987,-5.0522 -0.0118,-1.79791 0.90271,-2.69105 4.00211,-3.90853 l 4.01743,-1.57809 -0.63904,-13.59146 c -0.36831,-7.83351 -1.11707,-14.09601 -1.76742,-14.78241 -1.15517,-1.21922 -23.07294,-2.19784 -24.19067,-1.08011 -0.31282,0.31282 -0.15913,5.67678 0.34153,11.91991 0.50067,6.24313 0.89275,12.92614 0.8713,14.85114 -0.0215,1.925 0.30108,4.65345 0.71675,6.06323 1.15428,3.91484 -1.77011,6.60844 -7.87671,7.25509 -2.80225,0.29674 -5.88648,0.0507 -7,-0.55847 z M 331.75,454.9199 c -3.22546,-1.87866 -1.80025,-3.67399 5.77085,-7.26949 C 345.57608,443.825 348,443.81266 348,447.59703 c 0,1.96914 -1.15303,2.90587 -6.63832,5.39301 -7.44242,3.37456 -7.21104,3.3281 -9.61168,1.92986 z m -20.4507,-6.76242 c -0.56063,-0.36161 -0.95138,-2.45487 -0.86832,-4.65168 0.11206,-2.9638 0.61109,-4.0828 1.93442,-4.33765 2.20321,-0.4243 5.6346,2.53805 5.6346,4.86439 0,2.66705 -4.58502,5.48958 -6.7007,4.12494 z M 316,325.28612 c -2.475,-0.19629 -9,-1.27969 -14.5,-2.40754 -26.37788,-5.40914 -34.00323,-9.35008 -28.93267,-14.95298 2.2555,-2.4923 3.89452,-2.42793 12.12546,0.47618 13.15481,4.6414 18.87158,6.00214 25.84335,6.15136 3.86987,0.0828 8.75725,0.71861 10.86083,1.41286 2.24364,0.74046 5.74243,1.01448 8.46386,0.66286 6.48009,-0.83725 7.57845,0.0755 5.64862,4.69429 -0.88871,2.12698 -2.26829,3.71994 -3.27287,3.77908 -7.34932,0.43263 -12.38171,0.48963 -16.23658,0.18389 z"
       style="fill:#749843" />
    <path
       id="path5957"
       d="m 411.49059,491.75985 c -4.73605,-2.5908 -4.79728,-7.05634 -0.13446,-9.80746 3.1604,-1.86469 3.38871,-2.37301 3.91493,-8.71628 0.58176,-7.01277 0.41004,-10.82655 -0.8097,-17.9829 -0.6506,-3.81711 -1.08998,-4.34491 -4.3426,-5.21643 -1.99032,-0.53329 -6.31876,-1.28732 -9.61876,-1.67561 -8.625,-1.01485 -3.7427,-2.06878 10.06741,-2.17322 18.53396,-0.14016 34.15887,-4.67987 48.26518,-14.0231 9.35899,-6.19888 23.02071,-20.19393 26.09274,-26.72937 2.49408,-5.30595 6.54975,-18.00456 8.49993,-26.61399 2.30017,-10.15449 1.01585,-42.62305 -1.98494,-50.18091 -0.63643,-1.6029 -1.51094,-1.7836 -6.3393,-1.30988 -3.08056,0.30224 -7.62602,1.03642 -10.10102,1.6315 -9.58571,2.30475 -31.2269,3.89428 -39.85898,2.9276 C 425.18697,330.77509 423,329.78869 423,326.41379 c 0,-3.65537 5.39966,-5.78091 11.31693,-4.45482 2.56925,0.57578 6.50527,0.63246 9.6291,0.13865 2.90595,-0.45937 6.90672,-0.46914 8.89061,-0.0217 3.59567,0.81096 9.14249,0.25654 25.05561,-2.50437 10.0529,-1.74417 10.99388,-2.43893 9.25806,-6.83552 -0.7027,-1.77981 -2.77621,-7.73603 -4.6078,-13.23603 -1.8316,-5.5 -4.87656,-13.6 -6.76659,-18 -5.68116,-13.22578 -12.03823,-32.61425 -12.78728,-39 -0.38709,-3.3 -1.65487,-10.275 -2.81728,-15.5 -1.16242,-5.225 -3.03349,-16.925 -4.15793,-26 -1.12445,-9.075 -2.55405,-18.75 -3.1769,-21.5 -4.16633,-18.39513 -8.34248,-31.8287 -10.98257,-35.328 -0.6938,-0.9196 -3.53227,-3.85556 -6.30771,-6.52436 l -5.04625,-4.85235 4.67847,0.6529 c 7.67271,1.07076 15.29488,4.23491 23.32305,9.68196 C 465.50497,147.88193 473,155.1734 473,157.23486 c 0,0.97698 3.15776,8.26421 6.09131,14.05702 3.05647,6.03555 7.92778,24.40031 11.43648,43.11538 1.93531,10.32272 11.88322,39.33688 14.40902,42.02547 1.08225,1.15201 2.63691,3.66342 3.45479,5.58092 0.81788,1.91749 3.31436,5.89403 5.54773,8.83676 2.23337,2.94273 4.0626,5.86773 4.06495,6.5 0.002,0.63227 1.37279,3.17459 3.04542,5.64959 1.67263,2.475 3.63405,5.85 4.35871,7.5 0.72467,1.65 3.17923,5.46289 5.45458,8.47309 2.67623,3.54053 4.13701,6.51409 4.13701,8.42126 0,1.62149 0.63119,3.6586 1.40263,4.52691 1.70871,1.92323 4.59737,11.43271 4.59737,15.13451 0,1.48103 0.70317,4.66185 1.5626,7.0685 1.97867,5.54083 2.92188,35.05955 1.35403,42.37573 -3.71003,17.31246 -10.71309,34.7904 -16.27142,40.6095 -7.26163,7.60232 -18.7358,17.8905 -19.95286,17.8905 -0.64287,0 -6.38818,2.68052 -12.76736,5.95671 -9.51704,4.88772 -13.557,6.34622 -22.51175,8.12719 -6.00228,1.19376 -11.47574,2.61834 -12.16324,3.16573 -1.45105,1.15533 -1.71131,12.65509 -0.39063,17.26003 0.47266,1.64805 1.17788,6.3954 1.56717,10.54967 0.96343,10.28128 -0.26378,11.82044 -9.71256,12.18142 -7.30259,0.27898 -8.66875,-0.51746 -8.69867,-5.0712 -0.0118,-1.79791 0.90271,-2.69105 4.00211,-3.90853 l 4.01743,-1.57809 -0.63904,-13.59146 c -0.36831,-7.83351 -1.11707,-14.09601 -1.76742,-14.78241 -1.15517,-1.21922 -23.07294,-2.19784 -24.19067,-1.08011 -0.31282,0.31282 -0.15913,5.67678 0.34153,11.91991 0.50067,6.24313 0.89275,12.92614 0.8713,14.85114 -0.0215,1.925 0.30108,4.65345 0.71675,6.06323 1.15428,3.91484 -1.77011,6.60844 -7.87671,7.25509 -2.80225,0.29674 -5.88648,0.0507 -7,-0.55847 z m -79.44714,-38.2075 c -1.00172,-1.207 -0.0178,-2.04371 5.91896,-5.03342 C 345.186,444.88119 347,444.74421 347,447.83649 c 0,1.1509 -2.06422,2.61769 -6.25,4.44111 -7.28786,3.17477 -7.14682,3.15411 -8.70655,1.27475 z m -20.74415,-5.39487 c -0.56063,-0.36161 -0.95138,-2.45487 -0.86832,-4.65168 0.11206,-2.9638 0.61109,-4.0828 1.93442,-4.33765 2.20321,-0.4243 5.6346,2.53805 5.6346,4.86439 0,2.66705 -4.58502,5.48958 -6.7007,4.12494 z M 316,325.29658 c -2.475,-0.20205 -9,-1.29015 -14.5,-2.418 -26.37788,-5.40914 -34.00323,-9.35008 -28.93267,-14.95298 2.2555,-2.4923 3.89452,-2.42793 12.12546,0.47618 13.15481,4.6414 18.87158,6.00214 25.84335,6.15136 3.86987,0.0828 8.71257,0.70387 10.76154,1.38009 2.04897,0.67622 5.85771,1.08038 8.46386,0.89813 4.68753,-0.3278 4.73618,-0.2999 4.526,2.59539 -0.11686,1.60971 -0.86924,3.58352 -1.67196,4.38624 -1.51316,1.51316 -8.55323,2.14176 -16.61558,1.48359 z"
       style="fill:#5a5c4c" />
    <path
       id="path5955"
       d="m 410.96003,490.16872 c -2.97681,-2.41048 -2.08281,-6.84882 1.5639,-7.76408 3.07889,-0.77276 3.53522,-2.50266 3.66786,-13.90464 0.15454,-13.28374 -0.81895,-17.43978 -4.44181,-18.96308 -2.38772,-1.00396 -2.63265,-1.36797 -1.27181,-1.89017 0.92697,-0.35571 3.7861,-0.67042 6.35362,-0.69936 6.64063,-0.0748 17.89697,-2.3357 23.16821,-4.65341 2.475,-1.08823 5.82825,-2.30591 7.45167,-2.70596 4.15039,-1.02275 18.7109,-10.80794 24.40272,-16.39951 13.01898,-12.78967 17.82653,-22.40325 23.09791,-46.18851 1.35847,-6.12965 0.915,-33.73288 -0.68943,-42.9125 -1.53243,-8.76769 -5.22356,-10.32236 -16.76287,-7.06034 -8.08574,2.28574 -25.64203,3.91856 -37.29591,3.46871 C 427.75219,330.01521 424,329.08993 424,326.5 c 0,-2.80725 3.69955,-3.2981 22.5,-2.98528 13.65499,0.22721 20.12526,-0.0503 23,-0.98658 2.2,-0.71651 6.77925,-1.61878 10.17611,-2.00505 4.23656,-0.48176 6.73863,-1.32389 7.96734,-2.6816 1.71656,-1.89678 1.71756,-2.17443 0.024,-6.66039 -0.97197,-2.57461 -2.81327,-8.0561 -4.09178,-12.1811 -1.27851,-4.125 -3.56043,-10.2 -5.07094,-13.5 -1.51051,-3.3 -3.10831,-7.125 -3.55066,-8.5 -0.44235,-1.375 -1.75227,-4.975 -2.91093,-8 -5.03467,-13.14443 -7.39232,-20.89427 -8.06179,-26.5 -0.3941,-3.3 -1.66004,-10.725 -2.81319,-16.5 -2.90917,-14.56916 -4.00253,-21.70051 -5.67274,-37 -0.78486,-7.18948 -6.87351,-32.48309 -8.26371,-34.32927 -0.48486,-0.6439 -1.39543,-2.97311 -2.02348,-5.17601 -0.62805,-2.20291 -3.1824,-6.25291 -5.67634,-9 -3.99441,-4.39988 -4.29403,-5.03305 -2.51588,-5.31654 6.02023,-0.9598 25.38574,9.82121 31.46169,17.51511 7.85382,9.9452 15.94965,33.59695 21.156,61.80671 1.91179,10.35876 11.75718,39.22275 14.30308,41.93273 1.08225,1.15201 2.63084,3.66342 3.44131,5.58092 0.81047,1.91749 3.30694,5.93012 5.54773,8.91696 2.24078,2.98683 4.07415,5.97383 4.07415,6.63778 0,0.66395 1.575,3.49683 3.5,6.29529 1.925,2.79846 3.5,5.49056 3.5,5.98245 0,0.49188 2.25,3.9806 5,7.75269 3.48947,4.78641 5,7.80967 5,10.00732 0,1.73193 0.65403,3.69176 1.45339,4.35518 1.7288,1.43478 4.54661,10.61768 4.54661,14.81686 0,1.6337 0.70629,4.93944 1.56953,7.34609 1.09748,3.05968 1.70123,9.38322 2.00742,21.0251 0.48483,18.43449 -0.37292,24.58138 -5.44274,39.00439 -5.45429,15.51678 -7.6272,19.33879 -14.80864,26.04734 -3.70859,3.4644 -8.36435,7.91637 -10.34614,9.89328 -1.98179,1.97692 -4.92539,3.92353 -6.54134,4.32582 -1.61595,0.40228 -4.96309,1.94994 -7.43809,3.43923 -8.65349,5.2071 -18.57728,8.92811 -28.5,10.68633 -5.5,0.97455 -10.59421,2.23185 -11.32047,2.794 -1.52028,1.17676 -1.25618,10.30648 0.74041,25.59563 1.64087,12.56524 1.15814,13.5625 -6.97672,14.41276 -6.9304,0.72437 -8.94319,-0.16498 -8.94319,-3.95154 0,-1.74699 0.71302,-2.52884 2.75,-3.01545 1.5125,-0.36131 3.2432,-1.04248 3.84601,-1.51369 1.37693,-1.07636 0.64025,-28.79985 -0.81305,-30.59729 -0.66476,-0.82217 -4.02537,-1.20416 -10.13866,-1.15242 -5.02936,0.0426 -10.30269,-0.22044 -11.7185,-0.58446 -4.5402,-1.16736 -5.16676,0.90136 -4.13266,13.64483 0.5053,6.22703 0.88123,12.67187 0.8354,14.32187 -0.0458,1.65 0.23462,4.47187 0.62323,6.27083 0.55178,2.55433 0.27301,3.70439 -1.2726,5.25 -2.61454,2.61454 -9.87116,2.69697 -13.01914,0.14789 z M 316,324.3283 c -10.64753,-0.76521 -33.82681,-6.23184 -40.3127,-9.5074 -4.13342,-2.08749 -4.75908,-5.1315 -1.47746,-7.18832 1.68699,-1.05737 2.80074,-0.77246 23.79016,6.08574 2.475,0.8087 7.94076,1.60258 12.14614,1.76419 4.20538,0.16161 9.32412,0.84761 11.37497,1.52446 2.12222,0.70039 5.61386,0.97225 8.10386,0.63096 C 333.38538,317.1225 334,317.28969 334,318.828 c 0,4.77765 -5.34194,6.41 -18,5.5003 z"
       style="fill:#45463a" />
    <path
       id="path5953"
       d="m 411.2,489.8 c -2.15631,-2.15631 -1.39524,-5.59735 1.55,-7.00804 2.42705,-1.16249 2.84369,-2.07904 3.54778,-7.80457 1.07353,-8.72967 0.0601,-22.93441 -1.78133,-24.96922 -1.30548,-1.44253 -0.43568,-1.71295 9.18503,-2.85564 5.84488,-0.69422 12.46564,-2.09574 14.71279,-3.11449 2.24715,-1.01875 6.00747,-2.36616 8.35627,-2.99423 2.34879,-0.62808 5.87032,-2.2276 7.8256,-3.55449 1.95529,-1.3269 4.42105,-2.68739 5.47947,-3.02332 C 461.13402,434.14008 462,433.44555 462,432.93261 462,432.41968 462.56607,432 463.25793,432 c 1.87713,0 16.06297,-13.84345 19.36704,-18.89959 3.50948,-5.37048 3.81087,-5.88973 5.43833,-9.36949 0.83446,-1.78421 1.55112,-2.3548 2.01497,-1.60428 0.39593,0.64064 1.46882,0.8774 2.38419,0.52614 1.89568,-0.72744 1.15432,-2.65278 -1.02148,-2.65278 -1.67649,0 -1.758,-0.4001 -0.56306,-2.76357 2.66133,-5.26386 4.12208,-9.65001 4.12208,-12.37728 0,-5.0455 3.20032,-17.26372 4.88008,-18.63122 0.85939,-0.69963 2.10398,-1.06429 2.76576,-0.81034 0.66177,0.25395 1.92256,-0.63613 2.80174,-1.97794 1.64514,-2.51079 4.41488,-3.17719 6.11967,-1.4724 C 512.67554,363.07554 517,362.21277 517,360.88337 517,360.39752 516.16974,360 515.15499,360 c -1.01476,0 -2.68228,-0.92517 -3.70561,-2.05594 -1.57591,-1.74136 -1.66553,-2.3683 -0.5857,-4.09738 1.42946,-2.28894 0.7042,-3.81456 -1.0022,-2.10816 -0.60786,0.60786 -1.72536,0.86721 -2.48334,0.57635 C 506.62017,352.024 506,352.28417 506,352.89301 c 0,0.60885 0.45,1.10699 1,1.10699 1.49402,0 1.20622,2.58397 -0.43997,3.95018 -0.79198,0.65728 -1.57948,2.17028 -1.75,3.36222 -0.38841,2.71507 -3.8256,3.63562 -3.77459,1.01092 0.0195,-1.00282 0.64419,-2.92246 1.38822,-4.26586 1.02811,-1.8563 1.08187,-2.87636 0.22402,-4.25 -0.84474,-1.35265 -0.8295,-2.28668 0.0606,-3.7119 1.03043,-1.64998 0.86214,-1.98657 -1.25945,-2.51905 -2.13148,-0.53497 -2.4488,-1.18139 -2.4488,-4.98857 0,-2.76022 -0.50056,-4.56605 -1.35675,-4.8946 -0.74621,-0.28634 -1.61522,-2.44767 -1.93112,-4.80293 -0.42757,-3.18775 -1.48659,-5.14293 -4.14326,-7.64934 -3.93098,-3.70865 -4.44486,-5.65146 -1.87519,-7.08952 1.52194,-0.85172 1.55662,-1.3891 0.34209,-5.29969 -0.74338,-2.39352 -1.98389,-5.3918 -2.75669,-6.66284 -0.7728,-1.27104 -1.22808,-2.84202 -1.01173,-3.49107 0.21635,-0.64905 -0.14337,-1.71683 -0.79938,-2.37284 -0.65601,-0.65601 -1.48928,-3.42807 -1.8517,-6.16013 -0.37209,-2.80497 -1.2634,-5.19933 -2.04747,-5.5002 C 480.23511,288.15299 477,278.89922 477,275.59609 477,274.71824 476.1,273.1 475,272 c -1.1,-1.1 -2,-2.86353 -2,-3.91896 0,-1.05543 -0.63073,-3.19293 -1.40162,-4.75 -3.0079,-6.07545 -4.46238,-10.24133 -5.12997,-14.6931 -0.70618,-4.70914 0.0101,-5.69802 2.454,-3.38794 1.08896,1.02934 1.12917,0.87358 0.22778,-0.88235 -0.60205,-1.17279 -1.76345,-2.389 -2.5809,-2.70269 -1.16751,-0.44801 -1.35409,-1.68639 -0.86995,-5.77421 0.41909,-3.53853 0.27842,-4.99504 -0.43957,-4.5513 -1.7709,1.09448 -7.54646,-27.08956 -8.77879,-42.83945 -0.25821,-3.3 -0.94569,-8.025 -1.52774,-10.5 -2.12236,-9.02475 -5.17563,-19.57186 -6.51349,-22.5 -0.75388,-1.65 -1.67539,-4.29876 -2.0478,-5.88613 -0.3724,-1.58737 -2.67446,-5.33835 -5.11568,-8.33551 -2.44122,-2.99716 -4.18165,-5.70631 -3.86762,-6.02034 0.31403,-0.31403 2.26305,0.11064 4.33115,0.9437 2.06811,0.83307 5.1102,1.95321 6.7602,2.4892 7.1596,2.32576 22.67811,15.89826 23.94383,20.94129 0.36403,1.45043 2.13914,5.62627 3.94469,9.27965 1.80555,3.65339 3.59843,7.98028 3.98418,9.61533 0.38575,1.63504 1.77258,6.57281 3.08184,10.97281 1.30926,4.4 3.35602,12.95 4.54836,19 2.2083,11.20509 4.53475,20.04501 7.63211,29 5.27318,15.24568 6.20535,17.0999 16.17896,32.1825 2.37268,3.58809 4.73699,7.63643 5.25401,8.99631 0.51703,1.35988 2.28824,4.43204 3.93604,6.82703 1.64779,2.39498 2.99598,4.78643 2.99598,5.31433 0,0.5279 2.025,3.71058 4.5,7.07263 2.8615,3.88707 4.5,7.15502 4.5,8.97515 0,1.57428 0.92052,4.03259 2.0456,5.4629 1.12509,1.43031 2.50951,5.20349 3.0765,8.38486 0.56699,3.18136 1.90721,8.77458 2.97827,12.42938 1.07107,3.6548 1.91776,7.9298 1.88154,9.5 -0.0362,1.5702 -0.005,8.5194 0.0684,15.44267 0.17484,16.40034 -0.64295,22.40411 -4.61928,33.91224 -4.97356,14.39428 -7.9349,20.41021 -12.13225,24.64654 C 517.89759,425.1257 507.87334,434 506.69657,434 c -0.6852,0 -6.44186,2.66353 -12.79258,5.91896 -9.90385,5.07679 -13.1653,6.2146 -22.92212,7.99675 -6.25645,1.14278 -11.84933,2.55116 -12.42862,3.12974 -1.95234,1.94993 -1.12349,15.2546 2.02183,32.45455 0.91041,4.9785 -2.32183,7.5 -9.61404,7.5 -6.04677,0 -6.01959,0.0182 -6.36104,-4.25 -0.055,-0.6875 1.475,-1.7592 3.4,-2.38156 l 3.5,-1.13157 0.14624,-14.5692 c 0.0991,-9.86789 -0.23632,-15.09239 -1.03929,-16.19052 -0.97489,-1.33324 -3.48839,-1.65293 -14.14624,-1.79923 L 423.5,450.5 423.36552,457 c -0.074,3.575 0.22967,12.11969 0.67476,18.9882 0.54373,8.39091 0.46566,12.90218 -0.23797,13.75 -1.3389,1.61328 -11.00343,1.66068 -12.60231,0.0618 z M 311.28175,322.99515 c -4.52004,-0.3946 -10.37004,-1.25672 -13,-1.91583 -23.98491,-6.01097 -27.60891,-7.73098 -25.31596,-12.0154 1.41072,-2.63595 2.81282,-2.59436 10.36365,0.30743 11.0004,4.22745 21.0225,6.63472 27.67056,6.64637 3.575,0.006 8.45498,0.69226 10.8444,1.52444 2.64213,0.92018 5.67883,1.26271 7.75,0.87415 2.67632,-0.50208 3.4056,-0.30914 3.4056,0.90097 0,0.84692 -0.70714,2.24701 -1.57143,3.11129 -1.70358,1.70358 -5.8022,1.81884 -20.14682,0.56658 z"
       style="fill:#403e38" />
    <path
       id="path5951"
       d="m 411.58239,489.6839 c -2.44537,-1.78809 -1.64455,-4.88751 1.67375,-6.47793 1.50242,-0.7201 2.96603,-2.29852 3.25245,-3.50762 0.89835,-3.79228 1.13531,-21.8004 0.2937,-22.32054 C 416.36103,457.1051 416,455.28474 416,453.33257 c 0,-3.19614 0.22709,-3.49239 2.28176,-2.9767 1.56711,0.39332 2.63922,3.1e-4 3.42305,-1.2548 0.84489,-1.35289 2.94662,-2.00538 8.09304,-2.51249 3.82348,-0.37676 7.7956,-1.324 8.82696,-2.10499 1.03135,-0.78099 2.69569,-1.43429 3.69851,-1.45179 2.7106,-0.0473 1.65866,3.39671 -1.15999,3.79777 -1.4484,0.20609 -2.12391,0.83076 -1.80293,1.66724 0.55379,1.44314 -1.96229,2.86727 -3.44584,1.95039 -1.55383,-0.96032 -10.59249,-1.26428 -11.98596,-0.40307 -0.72952,0.45086 -1.3305,2.53788 -1.33552,4.63781 -0.0175,7.31689 1.3169,28.11121 1.97121,30.71817 0.39071,1.55675 0.15658,3.2313 -0.57507,4.11288 -1.55672,1.87573 -9.91784,1.99091 -12.40683,0.17091 z m 34.16761,0.74933 c -0.4125,-0.42161 -0.75,-1.81656 -0.75,-3.0999 0,-1.74855 0.5639,-2.33717 2.25,-2.34864 4.91596,-0.0335 5.13901,-0.79185 4.89973,-16.65906 -0.22115,-14.66436 -0.2525,-14.85141 -2.88232,-17.19597 -2.5604,-2.28266 -2.58895,-2.42138 -0.77195,-3.75 C 449.5332,446.62085 452.09625,446 454.19113,446 456.28601,446 458,445.55 458,445 c 0,-0.55 0.825,-1 1.83333,-1 2.56135,0 3.35373,-1.06967 2.00038,-2.70037 -0.86931,-1.04745 -0.84992,-1.67831 0.0797,-2.59201 0.963,-0.94655 1.64183,-0.70195 3.14001,1.13142 1.74508,2.13549 2.04942,2.20103 3.49738,0.75307 0.96784,-0.96784 1.33819,-2.36667 0.95022,-3.58904 C 469.00753,435.44836 469.31926,435 470.89366,435 c 1.11564,0 2.91149,-0.94786 3.9908,-2.10635 2.20138,-2.36291 4.54602,-1.6478 3.81114,1.16239 -0.26326,1.00668 0.31852,2.55175 1.29284,3.43349 1.64837,1.49176 1.81841,1.41616 2.44687,-1.08782 0.37758,-1.50437 0.21003,-3.15637 -0.37995,-3.74635 -1.32216,-1.32216 -1.36093,-5.72145 -0.0801,-9.09026 1.40368,-3.69196 2.85504,-3.15695 3.21438,1.1849 0.24931,3.01222 0.75304,3.81287 2.56037,4.06955 1.2375,0.17575 2.25,-0.16175 2.25,-0.75 0,-0.58825 1.10917,-1.06955 2.46482,-1.06955 1.46064,0 2.91136,-0.83439 3.5609,-2.04806 0.67354,-1.25851 1.74725,-1.85315 2.78518,-1.54246 2.25655,0.67544 5.69755,-2.31486 6.54383,-5.68672 C 505.87393,415.65411 505.67317,415 504.51905,415 503.68357,415 503,415.60526 503,416.34501 c 0,0.73976 -0.89156,2.15186 -1.98124,3.13801 -1.63536,1.47999 -2.25033,1.56968 -3.52258,0.51381 -0.94463,-0.78397 -1.2976,-2.04714 -0.91175,-3.26286 0.35931,-1.13207 0.0994,-2.31137 -0.60553,-2.74701 -0.67932,-0.41985 -0.91081,-1.28812 -0.51442,-1.92949 0.53195,-0.86071 1.32725,-0.76873 3.03641,0.35116 2.02961,1.32985 2.46569,1.33656 3.52985,0.0543 1.45622,-1.75464 4.3195,-1.88107 7.2372,-0.31956 1.67395,0.89587 2.23291,0.85405 2.58199,-0.19318 0.24504,-0.73512 1.50405,-2.39511 2.7978,-3.68886 2.87533,-2.87533 3.04384,-4.61563 0.36457,-3.76526 -1.78497,0.56652 -1.92359,0.29292 -1.35914,-2.68262 0.99274,-5.23338 2.24597,-7.14209 3.82755,-5.82949 2.0663,1.71488 2.97752,-0.66126 1.25084,-3.26177 -1.31533,-1.981 -1.25515,-2.27765 0.66064,-3.25614 1.49872,-0.76548 2.02463,-1.85526 1.81996,-3.77132 -0.28409,-2.65962 1.07707,-3.65384 2.29793,-1.67845 0.34546,0.55897 1.06533,0.7461 1.5997,0.41584 0.8655,-0.5349 0.63139,-2.22966 -0.854,-6.18215 -0.25837,-0.6875 0.25339,-1.25 1.13723,-1.25 1.78559,0 2.1596,-1.54043 0.60699,-2.5 -1.51136,-0.93407 -1.19817,-2.5 0.5,-2.5 0.825,0 1.5,-0.75207 1.5,-1.67126 0,-0.91919 0.68585,-2.42911 1.52411,-3.35538 2.9628,-3.27386 -1.24841,-7.43783 -4.52411,-4.47336 -1.59041,1.4393 -5,1.16177 -5,-0.40699 0,-1.31524 2.24708,-2.93543 3.43761,-2.47858 0.65664,0.25198 2.35739,-0.14549 3.77945,-0.88326 2.49274,-1.29325 2.52468,-1.4221 0.88969,-3.58965 -1.47227,-1.95184 -2.06758,-2.10691 -4.51545,-1.17623 -2.42612,0.92241 -2.73389,0.84867 -2.20544,-0.52843 0.33778,-0.88024 0.61414,-2.29109 0.61414,-3.13522 0,-1.12632 0.71503,-1.39811 2.68662,-1.02121 C 527.68319,349.85326 530,349.2483 530,347.89301 530,347.40186 529.3801,347 528.62244,347 c -0.75765,0 -1.94236,-0.68055 -2.63267,-1.51233 -0.88692,-1.06867 -1.61906,-1.21029 -2.4957,-0.48275 -0.68232,0.56627 -2.05073,0.7187 -3.04093,0.33872 -1.42693,-0.54756 -1.65997,-0.325 -1.1235,1.07299 0.85306,2.22305 0.0167,3.65351 -1.74158,2.97879 -0.79178,-0.30384 -1.28396,-1.83301 -1.19293,-3.70633 0.13402,-2.75796 0.55715,-3.23158 3.12992,-3.50341 1.75891,-0.18584 3.72949,-1.3366 4.82087,-2.81527 1.69458,-2.29591 1.71508,-2.64553 0.25,-4.26442 -1.90019,-2.09969 -2.05683,-5.3951 -0.38377,-8.07408 1.96874,-3.15247 0.10303,-3.50969 -3.59579,-0.68846 -2.597,1.98083 -3.32073,3.17695 -2.95841,4.88945 0.42164,1.99288 0.34437,2.05543 -0.63884,0.5171 -0.61517,-0.9625 -1.77113,-1.75 -2.5688,-1.75 -1.68709,0 -1.9219,-2.12841 -0.40244,-3.64787 0.7305,-0.7305 0.69069,-1.83183 -0.13146,-3.63623 -2.18,-4.7846 1.14537,-7.35876 6.08864,-4.7132 2.66762,1.42767 3.63337,-0.63978 1.43406,-3.06999 -1.16691,-1.28942 -1.79165,-3.70268 -1.86055,-7.18698 -0.0977,-4.94309 -0.26166,-5.26399 -2.84114,-5.56215 C 514.59078,301.93544 514,301.34195 514,299.43358 514,297.91951 513.42389,297 512.47525,297 c -0.83861,0 -1.98945,-1.22225 -2.55742,-2.71612 -0.72048,-1.89501 -1.26872,-2.33416 -1.81352,-1.45266 -1.2535,2.02821 -3.44245,-1.34783 -2.72564,-4.20381 0.38233,-1.52333 0.0582,-2.8499 -0.88834,-3.63543 -1.81589,-1.50706 -1.93857,-3.67445 -0.24033,-4.24603 0.9706,-0.32667 0.93855,-0.79798 -0.14338,-2.10856 -1.252,-1.51658 -1.5644,-1.53308 -3.07874,-0.16262 C 500.10093,279.31365 498.36545,280 497.17126,280 495.90792,280 495,280.62723 495,281.5 c 0,0.825 -0.34934,1.5 -0.77631,1.5 -1.36149,0 -0.547,-8.35841 1.20423,-12.35809 0.92908,-2.12194 1.50697,-4.04035 1.2842,-4.26312 -0.22277,-0.22277 -2.04913,0.2819 -4.05858,1.1215 -3.6259,1.515 -4.71828,0.96445 -2.49592,-1.25791 0.87682,-0.87682 0.84335,-1.53629 -0.13801,-2.71876 -1.07519,-1.29552 -1.00457,-1.88275 0.41508,-3.45145 1.55177,-1.71469 1.57072,-2.16103 0.20395,-4.80408 -0.82872,-1.60256 -2.21144,-3.49858 -3.0727,-4.21337 C 486.63736,250.28407 486,248.17689 486,245.87756 486,242.97318 485.59426,242 484.38337,242 c -1.1762,0 -1.45896,-0.60294 -1.03789,-2.21312 0.33865,-1.29498 -0.0396,-2.89642 -0.91179,-3.86015 -1.12553,-1.2437 -1.25032,-2.27883 -0.5096,-4.22706 0.91736,-2.41286 0.77394,-2.60011 -2.21339,-2.88985 -3.87035,-0.37539 -4.93888,-3.25538 -1.53779,-4.14479 l 2.26975,-0.59355 -2.94078,-3.06952 c -2.3957,-2.50057 -2.7364,-3.39679 -1.8381,-4.83519 1.50885,-2.41606 -0.81198,-5.62278 -3.55104,-4.9065 -1.68459,0.44053 -1.85519,0.19253 -1.14769,-1.66834 0.63905,-1.68083 0.27704,-2.71898 -1.56701,-4.49382 C 468.07912,203.8287 467,201.99241 467,201.01748 c 0,-0.97492 -0.68055,-2.3374 -1.51233,-3.02771 -2.1821,-1.81099 -0.006,-4.15789 3.12675,-3.3717 2.08775,0.524 2.38558,0.24993 2.38558,-2.19521 0,-1.53668 -0.94421,-3.79903 -2.09825,-5.02745 -1.86442,-1.98458 -1.98766,-2.75202 -1.10587,-6.88646 0.81567,-3.82441 0.7293,-4.75393 -0.48503,-5.21991 -0.81829,-0.314 -2.44404,0.43954 -3.64413,1.68908 -1.51662,1.57912 -1.79167,2.39591 -0.91672,2.72228 1.90001,0.70873 1.4922,2.2996 -0.58948,2.2996 -1.01172,0 -2.36744,-1.15872 -3.01271,-2.57494 C 457.87633,176.63447 458.35235,175 460.43657,175 c 0.7252,0 1.81597,-0.59937 2.42395,-1.33193 1.04153,-1.25498 -1.22273,-3.9656 -10.43357,-12.4904 -0.88031,-0.81474 -1.19728,-2.24458 -0.82574,-3.72491 0.48161,-1.91887 0.0791,-2.64129 -1.9991,-3.58819 C 447.94468,153.10939 447,151.8786 447,150.47434 c 0,-2.3042 -2.25565,-5.74234 -7.36391,-11.22434 -2.44088,-2.61947 -2.6873,-3.25 -1.27015,-3.25 3.65373,0 12.25893,3.4392 15.41186,6.15959 1.8028,1.55547 4.9528,3.70867 7,4.78489 5.16491,2.71519 9.23943,8.09792 13.66734,18.05552 5.86004,13.1782 10.18806,27.41043 13.53246,44.5 2.42376,12.38522 5.00332,22.50024 6.12393,24.0133 0.41276,0.55731 1.29872,3.25731 1.9688,6 0.67008,2.74268 1.52589,5.4367 1.9018,5.9867 0.37591,0.55 1.45214,3.08239 2.39161,5.62754 0.93948,2.54514 2.59196,5.42739 3.6722,6.40498 1.08023,0.9776 1.96406,2.31294 1.96406,2.96743 0,0.65449 1.9125,4.07224 4.25,7.59501 2.3375,3.52277 5.375,8.49727 6.75,11.05444 4.70751,8.75485 8.50183,14.97878 12.25,20.09405 2.48412,3.39017 3.75,6.19695 3.75,8.31471 0,1.75832 0.6422,3.72993 1.42711,4.38134 1.84605,1.53209 4.56922,9.542 4.58579,13.48864 0.007,1.68952 0.85902,5.77186 1.89315,9.07186 1.61923,5.16703 1.84728,8.77655 1.64275,26 -0.25219,21.2353 0.0563,19.42641 -6.39467,37.5 -4.06346,11.38457 -6.18444,14.83036 -13.3295,21.65546 -3.94099,3.7645 -8.90614,8.53204 -11.03367,10.59454 -2.12754,2.0625 -4.50824,3.75 -5.29046,3.75 -0.78221,0 -6.72732,2.64241 -13.21135,5.87202 -9.93432,4.94816 -13.44116,6.15197 -22.28915,7.65132 -13.78646,2.3362 -14.37963,2.87796 -13.66057,12.47666 0.71694,9.57052 2.33859,22.0356 3.13337,24.08519 1.15831,2.98709 -2.56428,5.84377 -8.4728,6.50194 -3.025,0.33697 -5.8375,0.26772 -6.25,-0.1539 z M 313,323.02137 c -12.75461,-1.14864 -27.27866,-4.62681 -35.75,-8.5613 -2.8875,-1.34108 -5.25,-2.82348 -5.25,-3.29422 0,-0.47073 0.87638,-1.64899 1.94751,-2.61835 1.86635,-1.68902 2.23099,-1.6562 8.75,0.78744 12.1584,4.55758 20.64716,6.62524 28.8814,7.03486 7.57404,0.37677 13.40527,2.17755 14.90404,4.60261 0.3888,0.6291 1.30124,0.5548 2.51793,-0.20503 1.04949,-0.65542 2.23613,-0.8637 2.63697,-0.46286 2.3951,2.3951 -7.00123,3.76481 -18.63785,2.71685 z m 157.47129,-85.06782 c -0.38336,-0.6203 -0.19623,-1.62861 0.41584,-2.24068 1.64985,-1.64985 1.34863,-3.71287 -0.54212,-3.71287 -1.51996,0 -1.51532,-0.15433 0.0568,-1.89152 2.44556,-2.70231 5.11678,-1.56164 6.88511,2.94008 1.66977,4.25081 2.05455,3.76935 -4.45278,5.57146 -0.91622,0.25374 -1.97951,-0.0462 -2.36287,-0.66647 z"
       style="fill:#36382f" />
  </g>
</svg>
