<?xml version="1.0" encoding="UTF-8" standalone="no"?>
<svg
   xmlns:dc="http://purl.org/dc/elements/1.1/"
   xmlns:cc="http://creativecommons.org/ns#"
   xmlns:rdf="http://www.w3.org/1999/02/22-rdf-syntax-ns#"
   xmlns:svg="http://www.w3.org/2000/svg"
   xmlns="http://www.w3.org/2000/svg"
   viewBox="0 0 800 600"
   height="600"
   width="800"
   version="1.1"
   id="svg6070">
  <metadata
     id="metadata6076">
    <rdf:RDF>
      <cc:Work
         rdf:about="">
        <dc:format>image/svg+xml</dc:format>
        <dc:type
           rdf:resource="http://purl.org/dc/dcmitype/StillImage" />
        <dc:title></dc:title>
      </cc:Work>
    </rdf:RDF>
  </metadata>
  <defs
     id="defs6074" />
  <g
     id="g6654">
    <path
       id="path6684"
       d="m 307,494.99719 c -1.925,-0.50622 -9.8,-0.84285 -17.5,-0.74807 -11.68377,0.14383 -14.54621,-0.11934 -17.30145,-1.59067 -4.30372,-2.29825 -4.91373,-4.17497 -2.69574,-8.29353 1.37049,-2.54485 2.82207,-3.63181 5.90709,-4.4233 2.24956,-0.57714 4.37385,-1.13761 4.72067,-1.24549 0.34681,-0.10787 -1.56484,-3.57113 -4.24812,-7.69613 -2.68327,-4.125 -4.87953,-8.31708 -4.88057,-9.31574 -0.001,-0.99866 -0.44205,-2.63822 -0.98004,-3.64346 -0.53799,-1.00524 -1.44906,-5.98453 -2.02459,-11.06508 -1.67979,-14.82842 0.20127,-21.22646 10.63909,-36.18673 7.53749,-10.8033 12.81801,-14.71571 24.33663,-18.03134 5.80794,-1.67181 11.96686,-2.74534 15.77703,-2.75 7.143,-0.009 7.0948,0.0802 4.80467,-8.86331 -2.40437,-9.38956 -4.7214,-27.51939 -3.8263,-29.9391 0.45249,-1.22317 0.65544,-3.97778 0.45102,-6.12134 -0.33656,-3.52914 -0.68961,-3.95704 -3.73654,-4.52864 -1.85067,-0.34719 -7.99491,-0.18422 -13.65386,0.36216 -15.17613,1.46527 -38.45892,1.24733 -42.39394,-0.39682 C 256.648,338.95498 255,336.37936 255,332.08879 c 0,-4.21941 3.65589,-6.49566 9.81471,-6.11089 9.14844,0.57155 26.5413,0.15006 53.18529,-1.28888 l 3.5,-0.18902 1.65426,-7.5 c 0.90984,-4.125 1.69734,-9.84677 1.75,-12.71505 0.0527,-2.86828 0.76881,-7.19755 1.59146,-9.6206 1.83738,-5.41188 4.99398,-21.14948 6.6203,-33.00631 0.90791,-6.6192 0.95456,-13.02957 0.18557,-25.5 -0.56496,-9.16192 -1.07861,-19.35804 -1.14143,-22.65804 -0.0628,-3.3 -0.63806,-10.49263 -1.2783,-15.98362 -0.68972,-5.91527 -0.90531,-14.79633 -0.52906,-21.79386 0.59048,-10.98166 0.88173,-12.27511 4.1513,-18.43627 5.27776,-9.94538 15.97985,-18.8812 26.4959,-22.12303 12.78342,-3.9408 30.27738,-3.66373 39.73165,0.62927 11.38311,5.16885 21.61385,14.30067 29.92148,26.70751 2.57796,3.85 5.49433,8.19724 6.48082,9.66053 0.9865,1.46329 3.14359,5.15574 4.79354,8.20544 1.64995,3.0497 3.43873,6.35246 3.97508,7.33947 0.53634,0.98701 2.82978,6.06956 5.09653,11.29456 2.26674,5.225 4.52599,10.175 5.02055,11 0.49456,0.825 2.54735,4.37128 4.56176,7.88062 2.01441,3.50934 4.95767,8.2996 6.54058,10.64502 1.5829,2.34543 2.87801,4.76772 2.87801,5.38288 0,0.96179 18.93556,21.21556 25.86364,27.66416 1.3,1.21002 3.1,2.88073 4,3.71268 0.9,0.83195 2.76136,3.17907 4.13636,5.21582 1.375,2.03675 4.85596,6.56094 7.73547,10.05376 2.8795,3.49282 7.3228,10.53433 9.87398,15.64782 7.99735,16.02955 9.30425,19.67079 13.02771,36.29724 4.01558,17.93089 3.85162,29.01759 -0.79124,53.5 -1.08572,5.72518 -5.69304,15.57335 -11.69586,25 -3.88354,6.0986 -12.19557,15.96772 -13.46498,15.98738 -0.44821,0.007 -2.927,2.15012 -5.50842,4.76262 -5.12779,5.18953 -21.57976,13.97899 -28.01224,14.96552 -2.01543,0.3091 -4.17893,0.96483 -4.80778,1.45718 -0.62885,0.49235 -3.10385,1.22775 -5.5,1.63423 l -4.35664,0.73904 -0.30891,4.82797 c -0.40292,6.29717 2.42751,22.67323 4.23045,24.47617 1.04761,1.04761 2.12836,1.16344 4.2421,0.45465 4.12605,-1.38357 33.85769,-0.64423 37.11749,0.92301 6.10856,2.93684 6.82795,10.66705 1.17606,12.63731 -1.89505,0.66062 -15.47023,1.10262 -35.75603,1.1642 -80.95558,0.24575 -97.27678,0.25466 -121.70116,0.0664 -14.3,-0.1102 -28.925,0.0296 -32.5,0.31075 -3.575,0.28111 -8.075,0.0969 -10,-0.40929 z m 103.62996,-15.84651 c 0.31616,-0.36656 0.1031,-12.21875 -0.32178,-17.90068 l -0.46737,-6.25 -5.6704,-0.0119 c -5.90223,-0.0124 -11.3816,-1.30714 -21.85903,-5.16533 -3.40374,-1.25339 -6.48683,-1.98069 -6.8513,-1.61621 -0.36448,0.36447 -0.98273,3.27959 -1.3739,6.47804 -0.87276,7.1363 -3.84318,13.96186 -8.60509,19.77314 l -3.60622,4.40092 4.31256,0.57034 c 7.63398,1.0096 12.0064,1.08244 28.31257,0.47165 8.8,-0.32962 16.05848,-0.66712 16.12996,-0.75 z m 34.1466,1.00858 c 0.70211,-0.44557 1.32784,-2.12618 1.39052,-3.73469 0.17426,-4.47192 -1.36609,-20.12854 -2.09661,-21.31054 -0.41963,-0.67898 -3.74281,-0.82808 -9.46154,-0.42451 l -8.81472,0.62207 0.55238,3.5942 c 0.30381,1.97682 0.86009,7.50812 1.23616,12.29179 l 0.68378,8.69758 3.61674,0.38432 c 6.87838,0.7309 11.62181,0.68667 12.89329,-0.12022 z"
       style="fill:#eeeed8" />
    <path
       id="path6682"
       d="m 308.5,493.91822 c -1.65,-0.56174 -9.76995,-1.11064 -18.04434,-1.21978 -12.49152,-0.16477 -15.50345,-0.4993 -17.75,-1.97149 -3.20131,-2.09786 -3.38273,-3.66997 -0.79234,-6.86617 1.60976,-1.98623 2.79967,-2.35239 7.5,-2.30788 5.89554,0.0558 6.63044,-0.4461 3.92467,-2.68046 -2.38622,-1.97046 -10.43117,-14.75408 -11.54045,-18.33804 -1.82226,-5.8875 -3.33728,-22.00213 -2.56836,-27.3187 1.94256,-13.43166 18.50705,-34.8631 29.23929,-37.83033 2.21734,-0.61305 6.71357,-1.85055 9.99163,-2.75 3.27805,-0.89945 8.79055,-1.63537 12.25,-1.63537 3.45944,0 6.28325,-0.3375 6.27512,-0.75 -0.008,-0.4125 -0.65562,-3.46697 -1.43887,-6.78772 -2.67752,-11.35188 -4.4068,-24.95803 -4.28101,-33.68341 0.0692,-4.79662 -0.22401,-9.07162 -0.65147,-9.5 -0.42747,-0.42838 -4.00296,-0.70689 -7.94554,-0.61892 -41.30763,0.92174 -48.35874,0.88522 -51.33784,-0.26592 -4.9265,-1.90362 -6.62897,-6.23638 -3.91079,-9.9529 1.2689,-1.73494 2.78258,-1.95374 14.25,-2.05982 21.85878,-0.2022 49.74601,-1.39392 50.44175,-2.15555 1.16793,-1.27854 3.72071,-13.48437 4.43924,-21.22576 0.38287,-4.125 1.13475,-8.625 1.67085,-10 0.53609,-1.375 2.11253,-7.9 3.5032,-14.5 3.55359,-16.86506 3.76464,-44.0032 0.62215,-80 -0.91464,-10.47706 -1.22436,-20.4949 -0.80719,-26.10837 0.5902,-7.94173 1.14334,-9.93964 4.3186,-15.59851 5.70276,-10.16334 17.60339,-19.40785 29.1417,-22.63751 9.73003,-2.72352 26.44447,-1.97594 34.5,1.54306 5.93747,2.59374 16.41536,10.07107 21.28501,15.1896 9.3131,9.78907 24.76545,35.55645 30.83656,51.42111 1.51344,3.95484 3.09451,7.65875 3.51348,8.23092 0.41897,0.57216 4.4315,7.08973 8.91674,14.48348 7.25988,11.96766 9.69628,14.9789 22.19746,27.43471 7.72337,7.69534 15.74615,16.47777 17.8284,19.51652 2.08225,3.03874 5.86019,7.94599 8.39541,10.905 4.44032,5.18256 12.70625,20.78315 15.95899,30.11999 2.77189,7.95655 7.3833,30.25683 7.96131,38.5 0.5584,7.96351 -0.74011,18.92529 -4.02757,34 -4.12017,18.89311 -24.4954,43.77589 -43.68046,53.34375 -8.19979,4.08936 -11.81284,5.40332 -22.68533,8.25004 -2.475,0.64802 -5.10853,1.34556 -5.85229,1.55008 -1.04748,0.28805 -1.24492,2.22973 -0.87592,8.614 0.55076,9.52927 2.45103,20.84534 3.71461,22.12054 0.47873,0.48312 10.16746,0.93312 21.53052,1 20.4379,0.12028 20.68068,0.14698 22.5716,2.48237 2.39687,2.96027 2.46268,6.77386 0.13836,8.0178 -0.97616,0.52242 -20.19095,1.23474 -42.75,1.58481 -50.15964,0.77836 -43.64177,0.74887 -97.97688,0.44317 -24.75,-0.13925 -47.25,0.0362 -50,0.38991 -2.75,0.3537 -6.35,0.18349 -8,-0.37825 z m 136.1606,-12.42088 3.59636,-1.50265 -0.72271,-5.24735 c -0.39749,-2.88603 -1.03229,-8.71183 -1.41068,-12.94621 -0.37838,-4.23437 -0.94939,-7.96029 -1.26891,-8.2798 -0.31951,-0.31952 -4.94699,-0.27404 -10.28328,0.10107 l -9.70235,0.68201 0.64696,7.59779 c 0.35584,4.17879 0.94781,10.2978 1.31549,13.5978 l 0.66852,6 5.5,0.587 c 3.025,0.32286 6.07695,0.66036 6.78212,0.75 0.70516,0.0897 2.90048,-0.51319 4.87848,-1.33966 z m -34.78139,-0.99576 c 2.37016,-0.79937 2.3774,-0.84948 1.90295,-13.16573 -0.26195,-6.79981 -0.75734,-12.64437 -1.10087,-12.9879 -0.34353,-0.34352 -4.17561,-0.77262 -8.51572,-0.95355 -6.20343,-0.25861 -9.76528,-1.08452 -16.65403,-3.86168 C 380.69195,447.58972 376.16258,446 375.44628,446 c -0.83839,0 -1.54952,2.04848 -1.99612,5.75 -0.9847,8.16139 -4.67432,16.62624 -9.92674,22.77427 -2.48788,2.91209 -4.52342,5.71053 -4.52342,6.21876 0,1.13245 47.47352,0.90716 50.87921,-0.24145 z m -97.95073,-25.96459 c 4.58006,-2.36845 5.46427,-7.74071 2.16463,-13.1519 -3.57737,-5.86666 -12.8804,-4.53177 -15.71614,2.25511 -2.00423,4.79682 -1.74089,6.14015 1.84589,9.41617 3.60613,3.29369 7.29678,3.76051 11.70562,1.48062 z M 303.39561,452.25 c -0.29789,-0.9625 -1.15453,-3.16647 -1.90365,-4.89771 -1.67635,-3.87408 -0.41603,-6.046 4.01244,-6.9147 2.33628,-0.45829 3.47822,-0.0721 5.13507,1.73653 3.31294,3.61649 3.67464,6.15683 1.30547,9.16875 -2.4934,3.16984 -7.67875,3.72003 -8.54933,0.90713 z M 345,428 c 2.46487,-2.46487 2.71036,-9.54081 0.4433,-12.77749 C 344.23925,413.50349 342.89852,413 339.52508,413 c -5.77211,0 -7.31509,0.69325 -9.06207,4.07152 -3.02995,5.85929 -1.22678,10.54286 4.58585,11.91128 5.67652,1.33638 7.84625,1.12209 9.95114,-0.9828 z m -10.32563,-1.75 c -0.24402,-0.4125 -0.75439,-2.62857 -1.13417,-4.92459 -0.58952,-3.56399 -0.3966,-4.33189 1.3189,-5.25 1.10518,-0.59148 3.36348,-1.07541 5.01845,-1.07541 5.27684,0 8.12969,6.8735 4.29371,10.34501 -1.83435,1.66007 -8.66516,2.311 -9.49689,0.90499 z"
       style="fill:#d7d6aa" />
    <path
       id="path6680"
       d="m 306.17973,492.50406 c -2.66464,-0.87445 -9.17943,-1.4792 -17,-1.57806 C 275.92302,490.75842 272,490.0114 272,487.65467 c 0,-2.75076 2.9324,-3.91395 9.50759,-3.77137 3.57082,0.0774 6.49241,-0.0883 6.49241,-0.36838 0,-0.28004 -1.5161,-2.19795 -3.3691,-4.26204 -4.41788,-4.92112 -10.586,-14.65948 -11.78956,-18.61361 -2.28003,-7.49073 -3.68956,-21.9338 -2.6881,-27.54438 2.06386,-11.56264 14.47726,-29.41939 24.70044,-35.53173 C 298.5702,395.34109 314.08319,392 320.68395,392 c 3.95891,0 7.41099,-0.34461 7.6713,-0.76579 0.26031,-0.42118 -0.15095,-3.17229 -0.91391,-6.11357 -3.12078,-12.03091 -4.81202,-25.68144 -4.47518,-36.12064 0.0266,-0.825 -0.0857,-3.29264 -0.24951,-5.48364 -0.29461,-3.93944 -0.35294,-3.99293 -5.25728,-4.82082 -3.10102,-0.52348 -8.70653,-0.37787 -14.95937,0.38859 -5.5,0.67417 -12.7,1.09511 -16,0.9354 -3.3,-0.1597 -10.33951,-0.34193 -15.64336,-0.40495 -11.22909,-0.13342 -14.18432,-1.66058 -13.65516,-7.05653 0.43491,-4.43496 4.03296,-5.91558 10.832,-4.45745 2.87167,0.61586 6.85141,0.83362 8.84387,0.4839 3.06346,-0.5377 23.35749,-1.49539 41.52069,-1.95938 4.76096,-0.12162 4.93598,-0.23456 6.25315,-4.03541 0.74531,-2.15066 1.83368,-8.00066 2.41862,-13 0.58493,-4.99934 1.51624,-10.66471 2.06956,-12.58971 2.77145,-9.64182 6.90607,-32.82125 7.13497,-40 0.23862,-7.48355 -1.5652,-52.73235 -2.27228,-57 -1.15892,-6.99479 -1.40179,-22.71711 -0.47115,-30.5 2.6944,-22.53302 29.65641,-38.84588 57.01853,-34.49801 14.8699,2.36285 30.30056,14.95912 43.0328,35.12829 C 438.08147,177.25752 446,191.22867 446,192.0397 c 0,2.56696 10.84351,24.19555 16.23537,32.38326 2.14525,3.25763 4.83554,7.75763 5.97841,10 1.14287,2.24237 8.6213,10.60204 16.61873,18.57704 7.99743,7.975 16.09179,16.75 17.98746,19.5 1.89567,2.75 5.54491,7.475 8.10942,10.5 5.77899,6.81669 7.7473,10.19707 12.86427,22.09302 4.82913,11.22678 5.4553,13.18819 8.72649,27.33459 3.57066,15.44152 4.13889,25.99844 2.05363,38.1533 -3.33118,19.41722 -4.22213,22.21954 -10.57383,33.25802 -5.74538,9.98478 -9.01886,13.94956 -21.49995,26.0404 -5.23426,5.07061 -20.95252,13.49427 -27.5,14.73769 -1.925,0.36558 -4.35337,1.10239 -5.39639,1.63736 -1.04301,0.53497 -3.96801,1.48409 -6.5,2.10915 -4.53968,1.12069 -4.6084,1.19896 -4.94884,5.63647 -0.39797,5.18758 2.5679,23.27347 4.43792,27.06243 l 1.26467,2.56242 14.5024,-0.4363 c 19.14994,-0.57613 26.80434,0.24332 28.56196,3.05771 1.18069,1.89059 1.0628,2.34897 -1.04548,4.0649 -2.20296,1.79299 -3.56136,1.89207 -18.6278,1.35874 -11.5257,-0.408 -19.66795,-0.14369 -28,0.90892 -9.17868,1.15956 -12.66437,1.23398 -15.93592,0.34023 -3.9298,-1.07357 -8.73241,-0.94133 -24.39621,0.67175 -3.74019,0.38517 -6.71162,0.10628 -9,-0.84473 -2.43773,-1.01306 -5.13497,-1.21967 -9.41631,-0.72128 -3.3,0.38415 -6.33774,0.50902 -6.75054,0.27748 -1.89444,-1.06258 -62.08989,-0.20334 -77.24946,1.10266 -3.82074,0.32916 -7.56916,0.002 -10.32027,-0.90087 z M 443.84867,482.75278 448.19734,480.5 447.54249,470 c -0.36017,-5.775 -0.90855,-12.16539 -1.21862,-14.20086 l -0.56377,-3.70086 -10.13005,0.57829 c -5.57153,0.31806 -10.44905,0.86245 -10.83894,1.20975 -1.11356,0.99193 1.34479,26.4565 2.69585,27.92465 0.66352,0.72103 3.4129,1.6806 6.10972,2.13238 2.69683,0.45178 5.12832,0.87559 5.40332,0.94181 0.275,0.0662 2.4569,-0.89335 4.84867,-2.13238 z m -34.63789,-1.27388 3.71078,-1.81192 -0.35184,-11.58349 c -0.19352,-6.37092 -0.64899,-12.30578 -1.01217,-13.18858 -0.50373,-1.22447 -2.70261,-1.74922 -9.27252,-2.21287 -7.1022,-0.50121 -10.26248,-1.33153 -18.0245,-4.73569 -5.17677,-2.27035 -9.61331,-3.9269 -9.85899,-3.68122 -0.24568,0.24568 -0.93489,3.09903 -1.53157,6.34078 -1.75831,9.55278 -5.53625,18.54062 -9.61923,22.88448 -3.84974,4.09572 -7.23246,8.56878 -7.24415,9.57914 -0.004,0.31324 11.13091,0.49118 24.74341,0.39541 21.63383,-0.15219 25.21721,-0.40225 28.46078,-1.98604 z m -98.87191,-25.41764 c 3.59848,-1.36814 6.66357,-5.05834 6.64468,-7.99982 -0.009,-1.40879 -1.03267,-4.36144 -2.27472,-6.56144 -1.82969,-3.24089 -2.89285,-4.06115 -5.60213,-4.3222 -6.8851,-0.66343 -12.12762,3.89888 -12.09139,10.52254 0.0181,3.30116 0.53501,4.13927 4.36955,7.08413 3.15239,2.42099 5.18297,2.71054 8.95401,1.27679 z m -5.55384,-3.3916 c -0.75761,-0.64331 -1.97611,-2.93406 -2.70777,-5.09056 -1.2017,-3.54185 -1.15459,-4.04939 0.48734,-5.25 3.32506,-2.43134 7.21163,-1.66251 8.9911,1.7786 0.88388,1.70924 1.34815,4.13927 1.0317,5.40008 -0.71643,2.85449 -5.7582,4.89765 -7.80237,3.16188 z m 39.81527,-23.43497 c 3.39304,-2.2656 4.31868,-8.55691 1.93669,-13.16317 C 344.90594,412.91744 343.19981,412 338.96527,412 c -4.59422,0 -7.63788,1.94758 -9.50117,6.07961 -3.19465,7.08446 0.70324,11.67766 10.0359,11.82613 2.2,0.035 4.49513,-0.26697 5.1003,-0.67105 z m -8.1003,-3 c -0.55,-0.40408 -1.56055,-2.29557 -2.24566,-4.20332 -1.54108,-4.29125 -0.16024,-6.11095 4.74298,-6.25036 3.66738,-0.10427 6.00268,2.16724 6.00268,5.83869 0,4.08497 -5.30269,6.96401 -8.5,4.61499 z"
       style="fill:#f9d65c" />
    <path
       id="path6678"
       d="m 409.5,492.66417 c -2.09795,-0.93691 -4.80411,-1.12945 -9,-0.64034 -3.3,0.38468 -6.3573,0.49789 -6.79399,0.25158 -0.4367,-0.2463 -12.32503,-0.44782 -26.41852,-0.44782 l -25.62453,0 5.29243,-2.89419 c 2.91083,-1.5918 5.95618,-3.44504 6.76743,-4.11833 1.06645,-0.88507 8.44164,-1.26379 26.6261,-1.36727 22.1041,-0.12579 25.60063,-0.36348 28.86186,-1.96197 l 3.71078,-1.81885 -0.35184,-11.58349 c -0.19352,-6.37092 -0.64878,-12.30523 -1.0117,-13.18736 -0.50332,-1.22341 -2.7234,-1.75211 -9.35893,-2.22878 -7.32259,-0.52602 -10.28144,-1.32432 -18.69909,-5.045 -5.5,-2.43106 -10.17528,-4.25283 -10.38951,-4.04839 -0.21423,0.20445 -0.95982,3.65135 -1.65686,7.65977 -0.69705,4.00843 -2.39031,9.75815 -3.7628,12.77716 -3.1876,7.01161 -15.54287,21.36282 -20.62295,23.95448 -4.38533,2.23723 -17.28542,4.54887 -19.8637,3.55949 -0.92652,-0.35554 -4.389,-0.11262 -7.69438,0.53983 -5.35869,1.05775 -6.78115,0.95561 -13.12941,-0.94272 -3.91578,-1.17095 -8.19078,-2.96551 -9.5,-3.98792 -1.30921,-1.02241 -3.31073,-2.15008 -4.44782,-2.50593 -2.32058,-0.72623 -9.31557,-8.57303 -14.37732,-16.12812 -4.23449,-6.32033 -5.85124,-12.40041 -6.64774,-25 -0.54066,-8.55243 -0.34658,-10.74345 1.34071,-15.13585 2.88137,-7.50083 12.6661,-21.68756 18.09051,-26.22912 6.10791,-5.11384 19.91909,-9.13326 31.38652,-9.13432 L 329.9505,393 l -1.00047,-2.63143 c -3.43766,-9.04172 -6.36842,-29.3049 -5.98335,-41.36857 0.0263,-0.825 -0.0862,-3.29264 -0.25003,-5.48364 -0.29461,-3.93944 -0.35294,-3.99293 -5.25728,-4.82082 -3.10102,-0.52348 -8.70653,-0.37787 -14.95937,0.38859 -5.5,0.67417 -12.7,1.09511 -16,0.9354 -3.3,-0.1597 -10.33951,-0.34193 -15.64336,-0.40495 -11.22909,-0.13342 -14.18432,-1.66058 -13.65516,-7.05653 0.43491,-4.43496 4.03296,-5.91558 10.832,-4.45745 2.87167,0.61586 6.85141,0.83362 8.84387,0.4839 3.06346,-0.5377 23.35749,-1.49539 41.52069,-1.95938 4.76096,-0.12162 4.93598,-0.23456 6.25315,-4.03541 0.74531,-2.15066 1.83368,-8.00066 2.41862,-13 0.58493,-4.99934 1.51624,-10.66471 2.06956,-12.58971 2.77145,-9.64182 6.90607,-32.82125 7.13497,-40 0.23862,-7.48355 -1.5652,-52.73235 -2.27228,-57 -1.15892,-6.99479 -1.40179,-22.71711 -0.47115,-30.5 2.6944,-22.53302 29.65641,-38.84588 57.01853,-34.49801 14.8699,2.36285 30.30056,14.95912 43.0328,35.12829 C 438.08147,177.25752 446,191.22867 446,192.0397 c 0,2.56696 10.84351,24.19555 16.23537,32.38326 2.14525,3.25763 4.83554,7.75763 5.97841,10 1.14287,2.24237 8.6213,10.60204 16.61873,18.57704 7.99743,7.975 16.09179,16.75 17.98746,19.5 1.89567,2.75 5.54491,7.475 8.10942,10.5 5.77899,6.81669 7.7473,10.19707 12.86427,22.09302 4.82913,11.22678 5.4553,13.18819 8.72649,27.33459 3.57066,15.44152 4.13889,25.99844 2.05363,38.1533 -3.33118,19.41722 -4.22213,22.21954 -10.57383,33.25802 -5.74538,9.98478 -9.01886,13.94956 -21.49995,26.0404 -5.23426,5.07061 -20.95252,13.49427 -27.5,14.73769 -1.925,0.36558 -4.35337,1.10239 -5.39639,1.63736 -1.04301,0.53497 -3.96801,1.48409 -6.5,2.10915 -4.53968,1.12069 -4.6084,1.19896 -4.94884,5.63647 -0.39797,5.18758 2.5679,23.27347 4.43792,27.06243 l 1.26467,2.56242 14.5024,-0.4363 c 19.14994,-0.57613 26.80434,0.24332 28.56196,3.05771 1.18069,1.89059 1.0628,2.34897 -1.04548,4.0649 -2.20296,1.79299 -3.56136,1.89207 -18.6278,1.35874 -11.5257,-0.408 -19.66795,-0.14369 -28,0.90892 -9.17868,1.15956 -12.66437,1.23398 -15.93592,0.34023 -2.59563,-0.70909 -7.15737,-0.89575 -12,-0.49101 -4.29689,0.35912 -10.28752,0.86061 -13.31252,1.11442 -3.40475,0.28566 -6.64286,-0.0489 -8.5,-0.87829 z m 34.34867,-9.91139 4.34867,-2.25278 -0.65485,-10.5 c -0.36017,-5.775 -0.90855,-12.16539 -1.21862,-14.20086 l -0.56377,-3.70086 -10.13005,0.57829 c -5.57153,0.31806 -10.44905,0.86245 -10.83894,1.20975 -1.11356,0.99193 1.34479,26.4565 2.69585,27.92465 0.66352,0.72103 3.4129,1.6806 6.10972,2.13238 2.69683,0.45178 5.12832,0.87559 5.40332,0.94181 0.275,0.0662 2.4569,-0.89335 4.84867,-2.13238 z M 313.22036,456.34931 C 316.62815,454.63309 318,452.12178 318,447.59967 318,440.42821 313.55709,435 307.68735,435 c -3.64332,0 -8.90925,3.42412 -10.86008,7.06166 -2.76265,5.15124 -2.35956,8.63869 1.40494,12.15525 5.31609,4.96598 8.47053,5.41477 14.98815,2.1324 z m -8.43533,-3.67965 c -0.75761,-0.64331 -1.97611,-2.93406 -2.70777,-5.09056 -1.2017,-3.54185 -1.15459,-4.04939 0.48734,-5.25 3.32506,-2.43134 7.21163,-1.66251 8.9911,1.7786 0.88388,1.70924 1.34815,4.13927 1.0317,5.40008 -0.71643,2.85449 -5.7582,4.89765 -7.80237,3.16188 z m 41.61172,-23.62196 c 3.16303,-3.16304 2.98058,-11.9527 -0.32106,-15.46714 -4.32686,-4.60573 -14.724,-3.09513 -17.65069,2.56447 -1.8672,3.61077 -1.8131,8.85587 0.11981,11.61548 3.14629,4.49196 13.87368,5.26544 17.85194,1.28719 z M 336.5,426.23469 c -0.55,-0.40408 -1.56055,-2.29557 -2.24566,-4.20332 -1.54108,-4.29125 -0.16024,-6.11095 4.74298,-6.25036 3.66738,-0.10427 6.00268,2.16724 6.00268,5.83869 0,4.08497 -5.30269,6.96401 -8.5,4.61499 z m -62.25,63.67754 c -1.2375,-0.46628 -2.25,-1.48218 -2.25,-2.25756 0,-2.65442 2.8517,-3.77336 9.83564,-3.85929 6.0807,-0.0748 7.71314,0.32341 12.57605,3.06787 3.07357,1.73462 5.58831,3.39553 5.58831,3.69091 0,0.86731 -23.28511,0.28683 -25.75,-0.64193 z"
       style="fill:#fbd82a" />
    <path
       id="path6676"
       d="m 409.5,492.66417 c -2.09795,-0.93691 -4.80411,-1.12945 -9,-0.64034 -3.3,0.38468 -6.3573,0.49789 -6.79399,0.25158 -0.4367,-0.2463 -12.32503,-0.44782 -26.41852,-0.44782 l -25.62453,0 5.29243,-2.89419 c 2.91083,-1.5918 5.95618,-3.44504 6.76743,-4.11833 1.06645,-0.88507 8.44164,-1.26379 26.6261,-1.36727 22.1041,-0.12579 25.60063,-0.36348 28.86186,-1.96197 l 3.71078,-1.81885 -0.35184,-11.58349 c -0.19352,-6.37092 -0.64878,-12.30523 -1.0117,-13.18736 -0.50332,-1.22342 -2.72336,-1.75209 -9.35893,-2.22873 -7.37182,-0.52951 -10.28081,-1.3223 -19.06587,-5.19602 -5.70172,-2.51414 -10.47713,-4.43621 -10.612,-4.27127 -0.13488,0.16494 -0.96098,3.91555 -1.83578,8.3347 -2.22663,11.24813 -4.34316,15.36805 -13.17273,25.6413 -9.69745,11.28304 -12.53328,12.6498 -29.01271,13.98305 -6.6,0.53396 -12.9,1.01109 -14,1.06029 -3.57255,0.15977 -13.50741,-3.07278 -18.2266,-5.93047 -11.6562,-7.05837 -23.27567,-24.1326 -23.27261,-34.19791 6.9e-4,-2.26457 0.26533,-2.05664 2.10014,1.65011 2.73291,5.52112 11.98071,13.93627 16.70353,15.19959 2.03255,0.54369 7.57484,1.3581 12.31621,1.80981 8.55404,0.81495 8.67746,0.79396 15.96625,-2.71464 5.82804,-2.80545 8.46983,-4.86788 12.78758,-9.98319 5.49563,-6.51076 5.60799,-8.95662 0.23571,-5.13122 -1.60542,1.14316 -3.84615,2.07847 -4.9794,2.07847 -2.72206,0 -4.47682,-3.20866 -2.84206,-5.19684 2.18227,-2.65406 10.21675,-8.66465 12.99334,-9.72031 2.12334,-0.80729 2.71791,-1.68942 2.71791,-4.03242 0,-2.33794 0.6787,-3.35004 3.07878,-4.59117 3.12311,-1.61502 5.92122,-6.58915 5.92122,-10.52601 0,-3.74276 -3.02661,-8.70163 -6.0839,-9.968 -1.84378,-0.76372 -4.79585,-0.97355 -7.90117,-0.56162 -4.1537,0.55101 -5.57033,0.28125 -8.73626,-1.66357 -8.74894,-5.37445 -12.11217,-6.24786 -23.50403,-6.10387 C 297.84859,402.71109 293,402.42869 293,402.00863 c 0,-3.75393 16.17026,-7.86372 32,-8.13305 6.325,-0.10761 10.01488,-0.37884 8.19973,-0.60272 -3.58619,-0.44234 -4.40105,-1.75815 -6.28833,-10.15429 -3.05487,-13.59052 -4.26569,-24.06309 -3.94472,-34.11857 0.0263,-0.825 -0.0862,-3.29264 -0.25003,-5.48364 -0.29461,-3.93944 -0.35294,-3.99293 -5.25728,-4.82082 -3.10102,-0.52348 -8.70653,-0.37787 -14.95937,0.38859 -5.5,0.67417 -12.7,1.09511 -16,0.9354 -3.3,-0.1597 -10.33951,-0.34193 -15.64336,-0.40495 -11.22909,-0.13342 -14.18432,-1.66058 -13.65516,-7.05653 0.43491,-4.43496 4.03296,-5.91558 10.832,-4.45745 2.87167,0.61586 6.85141,0.83362 8.84387,0.4839 3.06346,-0.5377 23.35749,-1.49539 41.52069,-1.95938 4.76096,-0.12162 4.93598,-0.23456 6.25315,-4.03541 0.74531,-2.15066 1.83368,-8.00066 2.41862,-13 0.58493,-4.99934 1.51624,-10.66471 2.06956,-12.58971 2.77145,-9.64182 6.90607,-32.82125 7.13497,-40 0.23862,-7.48355 -1.5652,-52.73235 -2.27228,-57 -1.15892,-6.99479 -1.40179,-22.71711 -0.47115,-30.5 2.6944,-22.53302 29.65641,-38.84588 57.01853,-34.49801 14.8699,2.36285 30.30056,14.95912 43.0328,35.12829 C 438.08147,177.25752 446,191.22867 446,192.0397 c 0,2.56696 10.84351,24.19555 16.23537,32.38326 2.14525,3.25763 4.83554,7.75763 5.97841,10 1.14287,2.24237 8.6213,10.60204 16.61873,18.57704 7.99743,7.975 16.09179,16.75 17.98746,19.5 1.89567,2.75 5.54491,7.475 8.10942,10.5 5.77899,6.81669 7.7473,10.19707 12.86427,22.09302 4.82913,11.22678 5.4553,13.18819 8.72649,27.33459 3.57066,15.44152 4.13889,25.99844 2.05363,38.1533 -3.33118,19.41722 -4.22213,22.21954 -10.57383,33.25802 -5.74538,9.98478 -9.01886,13.94956 -21.49995,26.0404 -5.23426,5.07061 -20.95252,13.49427 -27.5,14.73769 -1.925,0.36558 -4.35337,1.10239 -5.39639,1.63736 -1.04301,0.53497 -3.96801,1.48409 -6.5,2.10915 -4.53968,1.12069 -4.6084,1.19896 -4.94884,5.63647 -0.39797,5.18758 2.5679,23.27347 4.43792,27.06243 l 1.26467,2.56242 14.5024,-0.4363 c 19.14994,-0.57613 26.80434,0.24332 28.56196,3.05771 1.18069,1.89059 1.0628,2.34897 -1.04548,4.0649 -2.20296,1.79299 -3.56136,1.89207 -18.6278,1.35874 -11.5257,-0.408 -19.66795,-0.14369 -28,0.90892 -9.17868,1.15956 -12.66437,1.23398 -15.93592,0.34023 -2.59563,-0.70909 -7.15737,-0.89575 -12,-0.49101 -4.29689,0.35912 -10.28752,0.86061 -13.31252,1.11442 -3.40475,0.28566 -6.64286,-0.0489 -8.5,-0.87829 z m 34.34867,-9.91139 4.34867,-2.25278 -0.65485,-10.5 c -0.36017,-5.775 -0.90855,-12.16539 -1.21862,-14.20086 l -0.56377,-3.70086 -10.13005,0.57829 c -5.57153,0.31806 -10.44905,0.86245 -10.83894,1.20975 -1.11356,0.99193 1.34479,26.4565 2.69585,27.92465 0.66352,0.72103 3.4129,1.6806 6.10972,2.13238 2.69683,0.45178 5.12832,0.87559 5.40332,0.94181 0.275,0.0662 2.4569,-0.89335 4.84867,-2.13238 z M 274.25,489.91223 c -1.2375,-0.46628 -2.25,-1.48218 -2.25,-2.25756 0,-2.65442 2.8517,-3.77336 9.83564,-3.85929 6.0807,-0.0748 7.71314,0.32341 12.57605,3.06787 3.07357,1.73462 5.58831,3.39553 5.58831,3.69091 0,0.86731 -23.28511,0.28683 -25.75,-0.64193 z m 30.53503,-37.24257 c -0.75761,-0.64331 -1.97611,-2.93406 -2.70777,-5.09056 -1.2017,-3.54185 -1.15459,-4.04939 0.48734,-5.25 3.32506,-2.43134 7.21163,-1.66251 8.9911,1.7786 0.88388,1.70924 1.34815,4.13927 1.0317,5.40008 -0.71643,2.85449 -5.7582,4.89765 -7.80237,3.16188 z M 336.5,426.23469 c -0.55,-0.40408 -1.56055,-2.29557 -2.24566,-4.20332 -1.54108,-4.29125 -0.16024,-6.11095 4.74298,-6.25036 3.66738,-0.10427 6.00268,2.16724 6.00268,5.83869 0,4.08497 -5.30269,6.96401 -8.5,4.61499 z"
       style="fill:#b1b094" />
    <path
       id="path6674"
       d="m 312.93275,492.59942 c -0.28401,-0.28401 -3.11226,-1.19253 -6.285,-2.01892 -3.17275,-0.8264 -7.8412,-2.75758 -10.37435,-4.29152 -11.6562,-7.05837 -23.27567,-24.1326 -23.27261,-34.19791 6.9e-4,-2.26457 0.26533,-2.05664 2.10014,1.65011 2.73291,5.52112 11.98071,13.93627 16.70353,15.19959 2.03255,0.54369 7.57484,1.3581 12.31621,1.80981 8.55404,0.81495 8.67746,0.79396 15.96625,-2.71464 5.82804,-2.80545 8.46983,-4.86788 12.78758,-9.98319 5.49563,-6.51076 5.60799,-8.95662 0.23571,-5.13122 -1.60542,1.14316 -3.84615,2.07847 -4.9794,2.07847 -2.72206,0 -4.47682,-3.20866 -2.84206,-5.19684 2.18227,-2.65406 10.21675,-8.66465 12.99334,-9.72031 2.12334,-0.80729 2.71791,-1.68942 2.71791,-4.03242 0,-2.33794 0.6787,-3.35004 3.07878,-4.59117 3.12311,-1.61502 5.92122,-6.58915 5.92122,-10.52601 0,-3.74276 -3.02661,-8.70163 -6.0839,-9.968 -1.84378,-0.76372 -4.79585,-0.97355 -7.90117,-0.56162 -4.1537,0.55101 -5.57033,0.28125 -8.73626,-1.66357 -8.74894,-5.37445 -12.11217,-6.24786 -23.50403,-6.10387 C 297.84859,402.71109 293,402.42869 293,402.00863 c 0,-3.76763 16.21774,-7.8751 32,-8.10465 6.53236,-0.095 10.0061,-0.43437 8.04165,-0.78562 -3.31622,-0.59295 -3.53036,-0.89911 -5.21087,-7.45006 -2.95662,-11.52546 -4.91357,-24.75495 -4.82928,-32.64715 0.0442,-4.13663 -0.0506,-9.09338 -0.21058,-11.01499 -0.28768,-3.45488 -0.35637,-3.50297 -6.16151,-4.3137 -4.04612,-0.56508 -9.13376,-0.33872 -16.37054,0.72835 -5.77498,0.85152 -10.91282,1.29306 -11.41743,0.9812 -0.5046,-0.31187 -6.41286,-0.54273 -13.12945,-0.51303 -14.28487,0.0632 -17.05642,-0.83231 -17.5254,-5.66243 -0.43409,-4.47087 3.16314,-5.90769 10.45889,-4.17751 2.89126,0.68566 6.39604,0.8933 8,0.47396 2.91079,-0.76098 12.23445,-1.21351 34.14092,-1.65704 7.19138,-0.14559 12.61056,-0.68774 13.0681,-1.30735 0.95607,-1.29474 3.853,-16.90288 4.6241,-24.91377 0.30997,-3.22033 1.08342,-6.82033 1.71877,-8 0.63535,-1.17966 1.73802,-5.74484 2.45039,-10.14484 4.37193,-27.0037 4.55919,-28.9808 3.83609,-40.5 -0.39705,-6.325 -0.87063,-17.09049 -1.0524,-23.92331 -0.18176,-6.83282 -0.86772,-16.69146 -1.52434,-21.9081 -0.72054,-5.72444 -0.94584,-14.08054 -0.56827,-21.07669 0.56358,-10.44292 0.93958,-12.18662 3.7934,-17.5919 5.66414,-10.72816 19.73469,-20.28482 33.21321,-22.55827 10.63683,-1.79413 22.73091,-0.56924 30.15455,3.05406 12.70146,6.19928 24.66213,18.43186 34.71499,35.50421 1.94317,3.3 4.88153,8.27467 6.52969,11.05483 1.64816,2.78016 3.33854,6.15516 3.7564,7.5 0.41786,1.34484 2.05106,5.01984 3.62933,8.16665 1.57828,3.14682 2.86959,6.19114 2.86959,6.76515 0,1.07689 3.97201,8.13135 9.01633,16.01337 1.58394,2.475 4.30336,7.0639 6.04316,10.19757 1.7398,3.13366 5.02565,7.44237 7.30189,9.5749 2.27624,2.13254 8.141,8.00613 13.03279,13.05243 4.8918,5.04631 9.23238,9.1751 9.64576,9.1751 0.41337,0 2.25924,2.3625 4.10194,5.25 1.84269,2.8875 5.74283,8.08222 8.66696,11.54382 6.79127,8.03953 15.54524,25.15059 18.52298,36.20618 7.82184,29.04051 8.18778,38.72507 2.53167,67 -1.78615,8.92898 -11.71375,26.45776 -19.087,33.70119 -2.35206,2.31065 -6.54417,6.41699 -9.31579,9.12521 -7.48222,7.31103 -21.62997,13.91801 -39.46069,18.42808 -5.47027,1.38364 -5.96604,2.0256 -5.98166,7.74552 -0.0141,5.16442 3.51243,24.25473 4.99086,27.0172 1.47385,2.7539 1.20527,5.51187 -0.7592,7.79598 -2.53451,2.94692 -15.16809,4.12587 -17.64715,1.64681 -2.71743,-2.71743 -1.67493,-6.70126 2.21384,-8.45999 l 3.3167,-1.5 -0.66641,-11 c -0.36653,-6.05 -0.96901,-12.8 -1.33884,-15 l -0.67242,-4 -10.47786,0.34794 c -6.09078,0.20225 -10.97068,0.8303 -11.65489,1.5 -1.46566,1.43456 0.61822,26.9504 2.47756,30.33632 3.1739,5.77975 -0.28567,9.32854 -9.05053,9.28394 -7.1591,-0.0364 -9.47208,-1.32859 -10.36438,-5.79011 -0.55525,-2.77622 -0.24405,-3.32907 2.92709,-5.20009 l 3.54839,-2.0936 -0.3082,-11.1922 c -0.16951,-6.15571 -0.77548,-12.35963 -1.3466,-13.7865 -0.98096,-2.45079 -1.54271,-2.63009 -10.15547,-3.24144 -5.26935,-0.37403 -10.45001,-1.33644 -12.27544,-2.28041 -3.32613,-1.72001 -16.97545,-6.55605 -17.30622,-6.1317 -0.10625,0.13632 -0.90893,3.86351 -1.78373,8.28266 -2.22663,11.24813 -4.34316,15.36805 -13.17273,25.6413 -9.68349,11.2668 -12.61398,12.69059 -28.51271,13.85303 -6.325,0.46245 -12.41144,1.12114 -13.52543,1.46374 -1.11398,0.34261 -2.2578,0.39055 -2.54182,0.10654 z m -7.43808,-40.36473 c -0.55294,-0.40408 -1.61464,-2.47772 -2.35935,-4.60809 -1.14009,-3.2614 -1.13924,-4.00948 0.005,-4.73469 3.68861,-2.33711 8.85935,0.51117 8.85935,4.88013 0,1.163 -1.00013,2.81507 -2.22251,3.67126 -2.5069,1.7559 -2.87095,1.82317 -4.28282,0.79139 z m 30.02539,-29.84092 c -1.74082,-4.16638 -1.47666,-4.93686 1.99101,-5.80719 3.6487,-0.91577 6.48893,0.94386 6.48893,4.2486 0,3.36297 -1.63501,5.16482 -4.68658,5.16482 -1.68085,0 -2.68574,-0.95532 -3.79336,-3.60623 z"
       style="fill:#9dd352" />
    <path
       id="path6672"
       d="m 312.93275,492.59942 c -0.28401,-0.28401 -3.11226,-1.19253 -6.285,-2.01892 -3.17275,-0.8264 -7.8412,-2.75758 -10.37435,-4.29152 -11.6562,-7.05837 -23.27567,-24.1326 -23.27261,-34.19791 6.9e-4,-2.26457 0.26533,-2.05664 2.10014,1.65011 2.73291,5.52112 11.98071,13.93627 16.70353,15.19959 2.03255,0.54369 7.57484,1.3581 12.31621,1.80981 8.55404,0.81495 8.67746,0.79396 15.96625,-2.71464 5.82804,-2.80545 8.46983,-4.86788 12.78758,-9.98319 5.5347,-6.55705 5.60013,-8.95103 0.13835,-5.0619 -3.92266,2.79318 -7.417,2.34918 -7.79811,-0.99085 -0.22772,-1.99567 0.81428,-3.35586 5.16523,-6.74252 2.99777,-2.33339 6.61364,-4.68475 8.03526,-5.22525 1.98667,-0.75533 2.58477,-1.6767 2.58477,-3.9818 0,-2.33794 0.6787,-3.35004 3.07878,-4.59117 3.12311,-1.61502 5.92122,-6.58915 5.92122,-10.52601 0,-3.74276 -3.02661,-8.70163 -6.0839,-9.968 -1.84378,-0.76372 -4.79585,-0.97355 -7.90117,-0.56162 -4.1537,0.55101 -5.57033,0.28125 -8.73626,-1.66357 -8.74894,-5.37445 -12.11217,-6.24786 -23.50403,-6.10387 C 297.84859,402.71109 293,402.42869 293,402.00863 c 0,-3.75885 16.1874,-7.86784 32,-8.12284 6.325,-0.102 10.2636,-0.37281 8.75244,-0.60181 -2.0188,-0.30592 -2.8968,-1.1282 -3.31023,-3.10017 -0.74997,-3.5772 -1.27987,-5.73389 -2.87068,-11.68381 -1.79478,-6.71278 -3.36103,-22.23372 -3.20143,-31.7249 0.1259,-7.48716 0.053,-7.7399 -2.3701,-8.21212 -7.75397,-1.51118 -12.53838,-1.54186 -21.8612,-0.14019 -5.69866,0.85679 -10.77827,1.30003 -11.28801,0.98499 -0.50975,-0.31504 -6.42221,-0.5485 -13.1388,-0.5188 -14.28487,0.0632 -17.05642,-0.83231 -17.5254,-5.66243 -0.4345,-4.47504 3.16279,-5.90779 10.47748,-4.17305 2.84024,0.67359 6.21524,0.91769 7.5,0.54245 1.28476,-0.37525 9.08593,-0.92312 17.33593,-1.2175 23.11324,-0.82474 29.8918,-1.09419 31.25,-1.24222 0.6875,-0.0749 1.25,-1.17123 1.25,-2.43623 0,-1.265 0.38681,-2.7275 0.85958,-3.25 0.95853,-1.05935 3.14368,-15.99765 3.1417,-21.47749 -7.1e-4,-1.94013 0.60698,-4.41513 1.35041,-5.5 0.74344,-1.08488 1.62523,-4.67683 1.95954,-7.98211 0.33432,-3.30528 1.32615,-8.03028 2.20406,-10.5 1.16814,-3.28615 1.64701,-8.78132 1.78563,-20.4904 0.2306,-19.47881 -0.82874,-50.12997 -2.10824,-61 -0.82914,-7.04407 -0.81364,-13.87699 0.0603,-26.59378 0.13585,-1.97658 0.76251,-4.22658 1.39258,-5 0.63008,-0.77342 1.88407,-3.18813 2.78664,-5.36602 0.90257,-2.17789 2.62392,-4.87789 3.82521,-6 3.14731,-2.93981 15.058,-11.5402 15.98207,-11.5402 0.43028,0 2.91491,-1.0125 5.52142,-2.25 4.1394,-1.96528 6.2771,-2.24173 16.89294,-2.18462 11.55475,0.0622 12.46666,0.2205 18.5,3.21213 13.1528,6.52181 24.93584,18.5271 35.06115,35.72249 1.94317,3.3 4.88153,8.27467 6.52969,11.05483 1.64816,2.78016 3.33854,6.15516 3.7564,7.5 0.41786,1.34484 2.05106,5.01984 3.62933,8.16665 1.57828,3.14682 2.86959,6.19114 2.86959,6.76515 0,1.07689 3.97201,8.13135 9.01633,16.01337 1.58394,2.475 4.30336,7.0639 6.04316,10.19757 1.7398,3.13366 5.02565,7.44237 7.30189,9.5749 2.27624,2.13254 8.141,8.00613 13.03279,13.05243 4.8918,5.04631 9.23238,9.1751 9.64576,9.1751 0.41337,0 2.25924,2.3625 4.10194,5.25 1.84269,2.8875 5.74283,8.08222 8.66696,11.54382 6.79127,8.03953 15.54524,25.15059 18.52298,36.20618 7.82184,29.04051 8.18778,38.72507 2.53167,67 -1.78615,8.92898 -11.71375,26.45776 -19.087,33.70119 -2.35206,2.31065 -6.54417,6.41699 -9.31579,9.12521 -7.48222,7.31103 -21.62997,13.91801 -39.46069,18.42808 -5.47027,1.38364 -5.96604,2.0256 -5.98166,7.74552 -0.0141,5.16442 3.51243,24.25473 4.99086,27.0172 1.47385,2.7539 1.20527,5.51187 -0.7592,7.79598 -2.53451,2.94692 -15.16809,4.12587 -17.64715,1.64681 -2.71743,-2.71743 -1.67493,-6.70126 2.21384,-8.45999 l 3.3167,-1.5 -0.66641,-11 c -0.36653,-6.05 -0.96901,-12.8 -1.33884,-15 l -0.67242,-4 -10.47786,0.34794 c -6.09078,0.20225 -10.97068,0.8303 -11.65489,1.5 -1.46566,1.43456 0.61822,26.9504 2.47756,30.33632 3.1739,5.77975 -0.28567,9.32854 -9.05053,9.28394 -7.1591,-0.0364 -9.47208,-1.32859 -10.36438,-5.79011 -0.55525,-2.77622 -0.24405,-3.32907 2.92709,-5.20009 l 3.54839,-2.0936 -0.3082,-11.1922 c -0.16951,-6.15571 -0.77548,-12.35963 -1.3466,-13.7865 -0.97906,-2.44604 -1.55051,-2.63065 -9.99975,-3.23039 -7.87569,-0.55903 -10.14043,-1.19453 -18.69404,-5.24561 -5.35299,-2.53523 -10.0762,-4.23155 -10.49602,-3.7696 -0.41983,0.46194 -1.47393,4.45556 -2.34245,8.87471 -2.20834,11.23625 -4.32523,15.36045 -13.16133,25.6413 -9.68349,11.2668 -12.61398,12.69059 -28.51271,13.85303 -6.325,0.46245 -12.41144,1.12114 -13.52543,1.46374 -1.11398,0.34261 -2.2578,0.39055 -2.54182,0.10654 z m 100.43888,-75.30438 c 0.38773,-0.38774 2.46694,-0.74918 4.62047,-0.8032 2.15538,-0.0541 4.75833,-0.861 5.79044,-1.79504 1.24357,-1.12541 3.57983,-1.6968 6.93779,-1.6968 4.60156,0 5.12155,-0.23388 5.7071,-2.56687 0.47468,-1.8913 1.22698,-2.51014 2.85841,-2.35131 2.46604,0.24007 5.44564,-0.76399 7.71416,-2.59951 0.825,-0.66753 2.78499,-1.51962 4.35553,-1.89354 1.62455,-0.38677 3.07586,-1.52239 3.36663,-2.63431 0.28111,-1.07495 1.02112,-2.023 1.64447,-2.10677 0.62335,-0.0838 1.6288,-0.20328 2.23433,-0.26556 0.60553,-0.0623 2.79842,-1.60362 4.87309,-3.4252 2.07467,-1.82159 4.84174,-3.79932 6.14904,-4.39497 1.3073,-0.59564 2.37691,-1.90038 2.37691,-2.89942 0,-0.99904 1.05919,-2.51044 2.35375,-3.35867 3.51311,-2.30188 4.3622,-16.4717 1.73798,-29.00387 -4.61162,-22.02317 -7.60184,-31.50859 -9.92326,-31.47804 -0.91766,0.0121 -3.63011,0.91208 -6.02767,2 -2.39757,1.08792 -5.00003,1.97804 -5.78325,1.97804 -0.78322,0 -3.54658,1.07055 -6.14079,2.379 -2.59422,1.30845 -6.66059,2.7033 -9.03639,3.09966 -2.37579,0.39637 -4.53778,1.28917 -4.80442,1.98401 -0.26664,0.69485 0.6877,4.5875 2.12075,8.65034 3.02444,8.57463 4.50401,28.38948 2.64233,35.38699 -3.15428,11.85604 -4.71013,15.00872 -10.13903,20.54512 -7.93805,8.09523 -14.23989,11.51654 -22,11.94396 -2.44496,0.13466 -2.4519,0.15707 -0.31537,1.0179 1.20154,0.48411 2.67988,1.80559 3.28518,2.93661 1.14382,2.13724 2.19745,2.55582 3.40182,1.35145 z M 366.75,411.59463 c 1.06191,0.65276 2.90385,0.76194 4.68456,0.27767 1.61401,-0.43893 4.90204,-0.35713 7.30675,0.18178 3.42206,0.7669 4.82217,0.66465 6.44281,-0.47049 2.01802,-1.41348 1.97895,-1.48862 -1.53848,-2.95829 -6.83621,-2.85635 -17.00653,-19.99177 -19.66072,-33.1253 -0.66691,-3.3 -1.88145,-8.16442 -2.69897,-10.80982 -1.54386,-4.99567 -1.16451,-16.85844 0.74158,-23.19018 0.4967,-1.65 1.13354,-4.16283 1.41519,-5.58406 0.28165,-1.42124 1.75976,-4.2183 3.28468,-6.21569 1.52493,-1.9974 3.58336,-4.77505 4.57428,-6.17256 3.88741,-5.48247 11.94886,-10.39736 19.75298,-12.04297 6.83432,-1.44111 8.00084,-1.43414 14.21414,0.085 6.56324,1.60469 8.71944,2.77651 16.14625,8.775 l 3.52208,2.84472 4.78144,-1.73 c 2.62978,-0.9515 6.61101,-2.56912 8.84715,-3.59471 2.23615,-1.0256 4.52107,-1.86472 5.0776,-1.86472 1.7943,0 13.81188,-5.12161 15.22859,-6.49006 2.07771,-2.00695 -4.61763,-15.38785 -11.3241,-22.63164 -4.14291,-4.47484 -5.19722,-6.26144 -4.82967,-8.18418 0.48753,-2.55035 -1.75944,-5.07022 -2.51089,-2.81586 -0.55905,1.67715 -7.90537,-5.93947 -11.86638,-12.30299 -1.73753,-2.7914 -3.87503,-5.86277 -4.75,-6.82527 C 422.71589,255.7875 422,254.51786 422,253.92857 c 0,-0.58928 -0.675,-1.74643 -1.5,-2.57143 -0.825,-0.825 -1.5,-2.78753 -1.5,-4.36118 0,-1.93014 -0.61668,-3.05691 -1.89511,-3.46267 -1.20556,-0.38263 -2.1471,-1.94474 -2.58768,-4.29324 -0.39338,-2.09689 -2.20634,-5.36731 -4.1966,-7.57029 -2.94504,-3.25981 -3.40863,-4.38705 -2.90602,-7.06616 0.51616,-2.75137 0.0497,-3.7582 -3.4083,-7.35697 C 401.80283,214.95349 400,212.69411 400,212.22579 c 0,-0.46832 -1.21382,-3.2982 -2.69737,-6.28864 -1.48356,-2.99043 -3.24819,-6.95103 -3.92142,-8.80132 -1.10593,-3.03958 -1.03865,-3.41265 0.69738,-3.86663 3.4795,-0.90991 2.09137,-2.52367 -1.57859,-1.83518 -2.0867,0.39147 -3.5,0.25654 -3.5,-0.33414 0,-0.54491 -1.22433,-1.5778 -2.72074,-2.29531 -1.4964,-0.71752 -3.23495,-2.33624 -3.86344,-3.59716 -0.62849,-1.26092 -2.65383,-3.40745 -4.50074,-4.77006 -4.36636,-3.2214 -5.25625,-4.93135 -3.8925,-7.47954 2.24564,-4.19601 0.20815,-4.3923 -3.62615,-0.34933 -2.14304,2.25967 -4.68393,4.38304 -5.64643,4.71862 -1.03939,0.36238 -1.75,1.62867 -1.75,3.11846 0,1.54883 -0.9242,3.11389 -2.41603,4.09138 -2.96802,1.94472 -3.96756,4.29594 -2.55159,6.00208 1.29325,1.55826 1.91647,21.78571 0.79799,25.8996 -0.55685,2.04815 -0.37752,3.41175 0.59178,4.5 1.04613,1.17449 1.35153,4.57124 1.23249,13.70838 -0.1313,10.07884 -0.46019,12.48065 -1.93167,14.10662 -1.58885,1.75566 -1.61298,2.09278 -0.2318,3.23905 1.18582,0.98414 1.39291,2.40048 0.89727,6.13675 -0.40336,3.04073 -0.22667,5.36058 0.47246,6.20298 0.81559,0.98272 0.83084,4.28854 0.0566,12.25663 -1.42459,14.66065 -1.85503,15.95739 -5.21892,15.72271 -3.58555,-0.25015 -3.4186,0.88131 0.378,2.56185 3.83487,1.69748 4.65334,3.66241 2.51141,6.02921 -1.19696,1.32263 -1.50068,2.90269 -1.09813,5.71275 0.45725,3.19187 0.11515,4.37476 -1.91871,6.63445 -1.36136,1.5125 -2.94677,2.75 -3.52315,2.75 -1.44974,0 -1.31253,1.53554 0.25331,2.83508 1.93989,1.60996 1.57405,14.97308 -0.49729,18.16492 -1.83327,2.82499 -1.90773,10.38488 -0.13244,13.44737 0.74878,1.29171 0.81605,2.77013 0.1998,4.39101 -0.64426,1.69454 -0.48263,3.70323 0.52727,6.55262 2.04397,5.76699 2.619,9.96245 1.593,11.62256 -0.52447,0.84861 -0.46348,1.91788 0.15167,2.6591 0.57873,0.69732 0.66513,1.8058 0.19749,2.53354 -0.45727,0.71159 -0.67487,4.7813 -0.48354,9.0438 0.33661,7.49932 0.27422,7.75 -1.929,7.75 l -2.27687,0 2.17432,2.31445 c 2.35338,2.50507 2.95252,5.20294 0.92431,4.16213 -0.6875,-0.35281 0.62144,1.08314 2.90875,3.19098 2.28731,2.10784 4.6632,4.84039 5.27976,6.07232 0.96562,1.92937 1.39416,2.06931 3.09126,1.00946 1.43576,-0.89665 2.44496,-0.93862 3.72023,-0.15471 z m -61.25533,40.64006 c -0.55294,-0.40408 -1.61464,-2.47772 -2.35935,-4.60809 -1.14009,-3.2614 -1.13924,-4.00948 0.005,-4.73469 3.68861,-2.33711 8.85935,0.51117 8.85935,4.88013 0,1.163 -1.00013,2.81507 -2.22251,3.67126 -2.5069,1.7559 -2.87095,1.82317 -4.28282,0.79139 z m 30.02539,-29.84092 c -1.74082,-4.16638 -1.47666,-4.93686 1.99101,-5.80719 3.6487,-0.91577 6.48893,0.94386 6.48893,4.2486 0,3.36297 -1.63501,5.16482 -4.68658,5.16482 -1.68085,0 -2.68574,-0.95532 -3.79336,-3.60623 z"
       style="fill:#fcb402" />
    <path
       id="path6670"
       d="m 409.75346,491.61048 c -0.9606,-0.72925 -2.02613,-2.72383 -2.36784,-4.43239 -0.55525,-2.77622 -0.24405,-3.32907 2.92709,-5.20009 l 3.54839,-2.0936 -0.3082,-11.1922 c -0.16951,-6.15571 -0.77548,-12.35963 -1.3466,-13.7865 -0.97851,-2.44467 -1.55271,-2.6308 -9.95582,-3.22727 -7.83447,-0.55611 -10.13994,-1.2055 -18.98421,-5.34739 -10.99176,-5.14759 -11.22452,-5.46568 -11.25526,-15.38104 -0.006,-1.9525 -0.4922,-4.03119 -1.08031,-4.6193 -0.58812,-0.58812 -1.19515,-1.69062 -1.34896,-2.45 -0.55748,-2.75234 -1.92369,-5.13165 -4.67845,-8.14773 -1.54517,-1.69174 -2.57896,-3.44873 -2.29732,-3.90443 0.69349,-1.1221 4.13749,-1.05264 4.8485,0.0978 0.3462,0.56017 1.81028,0.57133 3.70394,0.0282 1.91738,-0.5499 4.8419,-0.51476 7.54326,0.0906 3.4642,0.77634 4.85659,0.67719 6.48245,-0.46161 2.01802,-1.41348 1.97895,-1.48862 -1.53848,-2.95829 -6.83621,-2.85635 -17.00653,-19.99177 -19.66072,-33.1253 -0.66691,-3.3 -1.88145,-8.16442 -2.69897,-10.80982 -1.54386,-4.99567 -1.16451,-16.85844 0.74158,-23.19018 0.4967,-1.65 1.13354,-4.16283 1.41519,-5.58406 0.28165,-1.42124 1.75976,-4.2183 3.28468,-6.21569 1.52493,-1.9974 3.58336,-4.77505 4.57428,-6.17256 3.88741,-5.48247 11.94886,-10.39736 19.75298,-12.04297 6.83432,-1.44111 8.00084,-1.43414 14.21414,0.085 6.56324,1.60469 8.71944,2.77651 16.14625,8.775 l 3.52208,2.84472 4.78144,-1.73 c 2.62978,-0.9515 6.61101,-2.56912 8.84715,-3.59471 2.23615,-1.0256 4.52107,-1.86472 5.0776,-1.86472 1.7943,0 13.81188,-5.12161 15.22859,-6.49006 2.07771,-2.00695 -4.61763,-15.38785 -11.3241,-22.63164 -4.14291,-4.47484 -5.19722,-6.26144 -4.82967,-8.18418 0.48753,-2.55035 -1.75944,-5.07022 -2.51089,-2.81586 -0.55905,1.67715 -7.90537,-5.93947 -11.86638,-12.30299 -1.73753,-2.7914 -3.87503,-5.86277 -4.75,-6.82527 C 422.71589,255.7875 422,254.51786 422,253.92857 c 0,-0.58928 -0.675,-1.74643 -1.5,-2.57143 -0.825,-0.825 -1.5,-2.78753 -1.5,-4.36118 0,-1.93014 -0.61668,-3.05691 -1.89511,-3.46267 -1.20556,-0.38263 -2.1471,-1.94474 -2.58768,-4.29324 -0.39338,-2.09689 -2.20634,-5.36731 -4.1966,-7.57029 -2.94504,-3.25981 -3.40863,-4.38705 -2.90602,-7.06616 0.51616,-2.75137 0.0497,-3.7582 -3.4083,-7.35697 C 401.80283,214.95349 400,212.69411 400,212.22579 c 0,-0.46832 -1.21382,-3.2982 -2.69737,-6.28864 -1.48356,-2.99043 -3.24819,-6.95103 -3.92142,-8.80132 -1.10593,-3.03958 -1.03865,-3.41265 0.69738,-3.86663 3.4795,-0.90991 2.09137,-2.52367 -1.57859,-1.83518 -2.0867,0.39147 -3.5,0.25654 -3.5,-0.33414 0,-0.54491 -1.22433,-1.5778 -2.72074,-2.29531 -1.4964,-0.71752 -3.23495,-2.33624 -3.86344,-3.59716 -0.62849,-1.26092 -2.65383,-3.40745 -4.50074,-4.77006 -4.36636,-3.2214 -5.25625,-4.93135 -3.8925,-7.47954 2.24564,-4.19601 0.20815,-4.3923 -3.62615,-0.34933 -2.14304,2.25967 -4.68393,4.38304 -5.64643,4.71862 -1.03939,0.36238 -1.75,1.62867 -1.75,3.11846 0,1.54883 -0.9242,3.11389 -2.41603,4.09138 -2.96802,1.94472 -3.96756,4.29594 -2.55159,6.00208 1.29325,1.55826 1.91647,21.78571 0.79799,25.8996 -0.55685,2.04815 -0.37752,3.41175 0.59178,4.5 1.04613,1.17449 1.35153,4.57124 1.23249,13.70838 -0.1313,10.07884 -0.46019,12.48065 -1.93167,14.10662 -1.58885,1.75566 -1.61298,2.09278 -0.2318,3.23905 1.18582,0.98414 1.39291,2.40048 0.89727,6.13675 -0.40336,3.04073 -0.22667,5.36058 0.47246,6.20298 0.81559,0.98272 0.83084,4.28854 0.0566,12.25663 -1.42459,14.66065 -1.85503,15.95739 -5.21892,15.72271 -3.58555,-0.25015 -3.4186,0.88131 0.378,2.56185 3.83487,1.69748 4.65334,3.66241 2.51141,6.02921 -1.19696,1.32263 -1.50068,2.90269 -1.09813,5.71275 0.45725,3.19187 0.11515,4.37476 -1.91871,6.63445 -1.36136,1.5125 -2.94677,2.75 -3.52315,2.75 -1.44974,0 -1.31253,1.53554 0.25331,2.83508 1.93989,1.60996 1.57405,14.97308 -0.49729,18.16492 -1.83327,2.82499 -1.90773,10.38488 -0.13244,13.44737 0.74878,1.29171 0.81605,2.77013 0.1998,4.39101 -0.64426,1.69454 -0.48263,3.70323 0.52727,6.55262 2.04397,5.76699 2.619,9.96245 1.593,11.62256 -0.52447,0.84861 -0.46348,1.91788 0.15167,2.6591 0.57873,0.69732 0.66513,1.8058 0.19749,2.53354 -0.45727,0.71159 -0.67487,4.7813 -0.48354,9.0438 0.33661,7.49932 0.27422,7.75 -1.929,7.75 l -2.27687,0 2.17432,2.31445 c 4.2202,4.49221 2.0779,4.53726 -6.4761,0.13621 C 339.59186,395.0028 334.65044,393 333.36864,393 c -1.7353,0 -2.47849,-0.70237 -2.90982,-2.75 -0.77253,-3.6674 -1.29784,-5.80519 -2.88729,-11.75 -1.79478,-6.71278 -3.36103,-22.23372 -3.20143,-31.7249 0.1259,-7.48716 0.053,-7.7399 -2.3701,-8.21212 -7.75397,-1.51118 -12.53838,-1.54186 -21.8612,-0.14019 -5.69866,0.85679 -10.77827,1.30003 -11.28801,0.98499 -0.50975,-0.31504 -6.42221,-0.5485 -13.1388,-0.5188 -14.28487,0.0632 -17.05642,-0.83231 -17.5254,-5.66243 -0.4345,-4.47504 3.16279,-5.90779 10.47748,-4.17305 2.84024,0.67359 6.21524,0.91769 7.5,0.54245 1.28476,-0.37525 9.08593,-0.92312 17.33593,-1.2175 23.11324,-0.82474 29.8918,-1.09419 31.25,-1.24222 0.6875,-0.0749 1.25,-1.17123 1.25,-2.43623 0,-1.265 0.38681,-2.7275 0.85958,-3.25 0.95853,-1.05935 3.14368,-15.99765 3.1417,-21.47749 -7.1e-4,-1.94013 0.60698,-4.41513 1.35041,-5.5 0.74344,-1.08488 1.62523,-4.67683 1.95954,-7.98211 0.33432,-3.30528 1.32615,-8.03028 2.20406,-10.5 1.16814,-3.28615 1.64701,-8.78132 1.78563,-20.4904 0.2306,-19.47881 -0.82874,-50.12997 -2.10824,-61 -0.82914,-7.04407 -0.81364,-13.87699 0.0603,-26.59378 0.13585,-1.97658 0.76251,-4.22658 1.39258,-5 0.63008,-0.77342 1.88407,-3.18813 2.78664,-5.36602 0.90257,-2.17789 2.62392,-4.87789 3.82521,-6 3.14731,-2.93981 15.058,-11.5402 15.98207,-11.5402 0.43028,0 2.91491,-1.0125 5.52142,-2.25 4.1394,-1.96528 6.2771,-2.24173 16.89294,-2.18462 11.55475,0.0622 12.46666,0.2205 18.5,3.21213 13.1528,6.52181 24.93584,18.5271 35.06115,35.72249 1.94317,3.3 4.88153,8.27467 6.52969,11.05483 1.64816,2.78016 3.33854,6.15516 3.7564,7.5 0.41786,1.34484 2.05106,5.01984 3.62933,8.16665 1.57828,3.14682 2.86959,6.19114 2.86959,6.76515 0,1.07689 3.97201,8.13135 9.01633,16.01337 1.58394,2.475 4.30336,7.0639 6.04316,10.19757 1.7398,3.13366 5.02565,7.44237 7.30189,9.5749 2.27624,2.13254 8.141,8.00613 13.03279,13.05243 4.8918,5.04631 9.23238,9.1751 9.64576,9.1751 0.41337,0 2.25924,2.3625 4.10194,5.25 1.84269,2.8875 5.74283,8.08222 8.66696,11.54382 6.79127,8.03953 15.54524,25.15059 18.52298,36.20618 7.82184,29.04051 8.18778,38.72507 2.53167,67 -1.78615,8.92898 -11.71375,26.45776 -19.087,33.70119 -2.35206,2.31065 -6.54417,6.41699 -9.31579,9.12521 -7.48222,7.31103 -21.62997,13.91801 -39.46069,18.42808 -5.47027,1.38364 -5.96604,2.0256 -5.98166,7.74552 -0.0141,5.16442 3.51243,24.25473 4.99086,27.0172 1.47385,2.7539 1.20527,5.51187 -0.7592,7.79598 -2.53451,2.94692 -15.16809,4.12587 -17.64715,1.64681 -2.71743,-2.71743 -1.67493,-6.70126 2.21384,-8.45999 l 3.3167,-1.5 -0.66641,-11 c -0.36653,-6.05 -0.96901,-12.8 -1.33884,-15 l -0.67242,-4 -10.47786,0.34794 c -6.09078,0.20225 -10.97068,0.8303 -11.65489,1.5 -1.46566,1.43456 0.61822,26.9504 2.47756,30.33632 3.1739,5.77975 -0.28567,9.32854 -9.05053,9.28394 -3.59829,-0.0183 -6.99101,-0.59436 -7.99654,-1.35772 z m 3.61817,-74.31544 c 0.38773,-0.38774 2.46694,-0.74918 4.62047,-0.8032 2.15538,-0.0541 4.75833,-0.861 5.79044,-1.79504 1.24357,-1.12541 3.57983,-1.6968 6.93779,-1.6968 4.60156,0 5.12155,-0.23388 5.7071,-2.56687 0.47468,-1.8913 1.22698,-2.51014 2.85841,-2.35131 2.46604,0.24007 5.44564,-0.76399 7.71416,-2.59951 0.825,-0.66753 2.78499,-1.51962 4.35553,-1.89354 1.62455,-0.38677 3.07586,-1.52239 3.36663,-2.63431 0.28111,-1.07495 1.02112,-2.023 1.64447,-2.10677 0.62335,-0.0838 1.6288,-0.20328 2.23433,-0.26556 0.60553,-0.0623 2.79842,-1.60362 4.87309,-3.4252 2.07467,-1.82159 4.84174,-3.79932 6.14904,-4.39497 1.3073,-0.59564 2.37691,-1.90038 2.37691,-2.89942 0,-0.99904 1.05919,-2.51044 2.35375,-3.35867 3.51311,-2.30188 4.3622,-16.4717 1.73798,-29.00387 -4.61162,-22.02317 -7.60184,-31.50859 -9.92326,-31.47804 -0.91766,0.0121 -3.63011,0.91208 -6.02767,2 -2.39757,1.08792 -5.00003,1.97804 -5.78325,1.97804 -0.78322,0 -3.54658,1.07055 -6.14079,2.379 -2.59422,1.30845 -6.66059,2.7033 -9.03639,3.09966 -2.37579,0.39637 -4.53778,1.28917 -4.80442,1.98401 -0.26664,0.69485 0.6877,4.5875 2.12075,8.65034 3.02444,8.57463 4.50401,28.38948 2.64233,35.38699 -3.15428,11.85604 -4.71013,15.00872 -10.13903,20.54512 -7.93805,8.09523 -14.23989,11.51654 -22,11.94396 -2.44496,0.13466 -2.4519,0.15707 -0.31537,1.0179 1.20154,0.48411 2.67988,1.80559 3.28518,2.93661 1.14382,2.13724 2.19745,2.55582 3.40182,1.35145 z m -87.70496,37.03829 c -1.96806,-1.96805 -0.30747,-5.14021 4.76451,-9.10148 6.68858,-5.22385 7.91824,-5.72067 9.48537,-3.8324 2.21359,2.66721 0.76048,5.89468 -4.41655,9.80951 -4.67613,3.53606 -8.27741,4.6803 -9.83333,3.12437 z m -20.172,-2.09864 c -0.55294,-0.40408 -1.61464,-2.47772 -2.35935,-4.60809 -1.14009,-3.2614 -1.13924,-4.00948 0.005,-4.73469 3.68861,-2.33711 8.85935,0.51117 8.85935,4.88013 0,1.163 -1.00013,2.81507 -2.22251,3.67126 -2.5069,1.7559 -2.87095,1.82317 -4.28282,0.79139 z m 30.02539,-29.84092 c -1.74082,-4.16638 -1.47666,-4.93686 1.99101,-5.80719 3.6487,-0.91577 6.48893,0.94386 6.48893,4.2486 0,3.36297 -1.63501,5.16482 -4.68658,5.16482 -1.68085,0 -2.68574,-0.95532 -3.79336,-3.60623 z"
       style="fill:#95d049" />
    <path
       id="path6668"
       d="m 409.75346,491.61048 c -0.9606,-0.72925 -2.02613,-2.72383 -2.36784,-4.43239 -0.55525,-2.77622 -0.24405,-3.32907 2.92709,-5.20009 l 3.54839,-2.0936 -0.3082,-11.1922 c -0.16951,-6.15571 -0.77548,-12.35963 -1.3466,-13.7865 -0.97878,-2.44535 -1.55163,-2.63073 -9.97729,-3.2288 -10.35996,-0.73537 -20.39308,-4.42332 -17.38082,-6.38879 1.49738,-0.97704 1.44146,-1.27825 -0.59819,-3.22191 -1.2375,-1.17926 -2.25,-2.37197 -2.25,-2.65047 0,-1.08097 7.5445,0.94176 8.29969,2.2252 1.00237,1.70352 3.38349,1.76858 3.99198,0.10907 0.36105,-0.9847 0.75016,-0.97041 1.83333,0.0673 1.16271,1.11393 1.09557,1.5237 -0.43484,2.654 -0.99541,0.73517 -1.39612,1.59237 -0.89047,1.90488 1.46058,0.90269 6.18391,-1.71741 6.19251,-3.43507 0.004,-0.85738 0.6335,-2.41457 1.39825,-3.46043 1.23246,-1.68548 1.71425,-1.75402 4.24001,-0.60321 2.61136,1.18981 2.70411,1.4047 1.10955,2.57067 -2.70026,1.97448 -2.06208,3.41078 1.50999,3.39837 1.7875,-0.006 5.38635,0.0422 7.99745,0.10764 2.61109,0.0654 5.75106,-0.41819 6.97769,-1.07466 2.11424,-1.13151 2.13083,-1.22847 0.31893,-1.86405 -3.21073,-1.12626 -0.0433,-2.11893 4.46226,-1.39846 3.23547,0.51738 4.7076,0.23793 6.81067,-1.29281 1.47565,-1.07407 4.708,-2.92531 7.183,-4.11388 5.86519,-2.81663 15.16157,-10.59553 19.07376,-15.96031 1.70459,-2.3375 3.49136,-4.25 3.9706,-4.25 1.55275,0 5.70286,-8.37934 6.3668,-12.85497 0.35533,-2.39524 1.30818,-5.63539 2.11744,-7.20034 0.80927,-1.56495 1.4714,-4.2473 1.4714,-5.96077 0,-1.71347 0.45378,-3.9633 1.00841,-4.99963 1.47779,-2.76128 1.48434,-21.45203 0.0102,-28.98429 -1.02569,-5.24074 -4.94893,-20.56086 -7.74654,-30.25 -0.85908,-2.97528 -2.80197,-2.54965 -19.27203,4.22191 -3.025,1.24371 -8.3125,2.93111 -11.75,3.74978 -3.52516,0.83955 -6.25,2.03158 -6.25,2.73418 0,1.60648 1.78823,7.12683 3.68614,11.37929 1.90597,4.2705 3.00429,28.21564 1.52121,33.16484 -3.8551,12.86493 -7.08862,18.35566 -13.49765,22.91992 -8.53336,6.07712 -10.93816,6.93537 -21.46403,7.66033 -9.07637,0.62512 -10.33066,0.49891 -12.89981,-1.29807 -1.56522,-1.09479 -4.07382,-2.28733 -5.57465,-2.65008 -1.94574,-0.47029 -4.10661,-2.73606 -7.53026,-7.89583 -5.78022,-8.71133 -8.65101,-15.21495 -10.25682,-23.23627 -0.66064,-3.3 -1.82732,-7.99266 -2.59264,-10.42814 -1.59532,-5.07678 -1.73543,-12.6565 -0.34794,-18.82186 0.52605,-2.3375 1.32576,-5.9375 1.77713,-8 1.26821,-5.79491 8.3645,-15.35638 14.56819,-19.62902 7.81472,-5.38221 15.28836,-7.17639 23.5962,-5.66472 6.16018,1.12089 14.01493,4.56563 14.01493,6.14632 0,0.40387 1.62981,1.74158 3.62181,2.9727 4.24854,2.62575 1.35055,3.35885 30.10957,-7.61683 3.97725,-1.5179 7.98697,-3.59474 8.91049,-4.61521 1.58553,-1.752 1.44236,-2.34272 -2.56886,-10.59932 -2.33638,-4.80916 -5.53555,-10.09392 -7.10926,-11.74392 -1.57372,-1.65 -3.8398,-5.25 -5.03575,-8 -1.19595,-2.75 -2.89135,-5.81801 -3.76756,-6.81779 -3.63537,-4.14807 -16.48139,-29.00687 -17.76616,-34.37995 -0.36853,-1.54124 -0.99076,-3.25226 -1.38274,-3.80226 -0.39197,-0.55 -1.98092,-4.6 -3.53099,-9 -1.55007,-4.4 -3.1327,-8.45 -3.51696,-9 -0.38426,-0.55 -1.92727,-4.825 -3.4289,-9.5 -1.50163,-4.675 -3.33517,-10.075 -4.07453,-12 -0.73936,-1.925 -1.6544,-4.625 -2.03342,-6 -0.37902,-1.375 -1.53009,-3.69447 -2.55794,-5.15437 -1.02784,-1.4599 -1.8688,-3.15351 -1.8688,-3.76357 0,-0.61006 -0.37903,-1.89059 -0.8423,-2.84563 -3.41864,-7.04767 -5.36813,-11.52227 -7.23708,-16.61103 -1.2613,-3.43427 -2.86707,-6.06014 -3.86557,-6.32126 -0.93941,-0.24566 -2.48654,-1.76459 -3.43807,-3.3754 C 384.66545,149.31793 383.37129,148 382.74107,148 c -0.63022,0 -2.62747,-1.43604 -4.43833,-3.1912 -2.56276,-2.48391 -4.29097,-3.2492 -7.79761,-3.45294 -5.09955,-0.29628 -5.62748,0.61614 -2.00513,3.46548 1.375,1.08158 2.5,2.55424 2.5,3.27258 0,1.01584 -0.26667,1.03941 -1.2,0.10608 -0.66,-0.66 -1.9549,-1.2 -2.87756,-1.2 -0.92265,0 -2.23775,-0.675 -2.92244,-1.5 -1.85369,-2.23356 -3.92836,-1.81862 -5,1 -1.28094,3.36912 -5.47139,3.60458 -4.44911,0.25 0.86231,-2.82963 3.38375,-5.75 4.96455,-5.75 0.66301,0 2.95576,-1.23299 5.09501,-2.73998 3.74989,-2.6416 4.34226,-2.7388 16.49785,-2.70704 12.11587,0.0317 12.85793,0.15672 19,3.20211 13.19915,6.54446 24.96866,18.52793 35.10669,35.74491 1.94317,3.3 4.88153,8.27467 6.52969,11.05483 1.64816,2.78016 3.33854,6.15516 3.7564,7.5 0.41786,1.34484 2.05106,5.01984 3.62933,8.16665 1.57828,3.14682 2.86959,6.19114 2.86959,6.76515 0,1.07689 3.97201,8.13135 9.01633,16.01337 1.58394,2.475 4.30336,7.0639 6.04316,10.19757 1.7398,3.13366 5.02565,7.44237 7.30189,9.5749 2.27624,2.13254 8.141,8.00613 13.03279,13.05243 4.8918,5.04631 9.23238,9.1751 9.64576,9.1751 0.41337,0 2.25924,2.3625 4.10194,5.25 1.84269,2.8875 5.74283,8.08222 8.66696,11.54382 6.79127,8.03953 15.54524,25.15059 18.52298,36.20618 7.82184,29.04051 8.18778,38.72507 2.53167,67 -1.78615,8.92898 -11.71375,26.45776 -19.087,33.70119 -2.35206,2.31065 -6.54417,6.41699 -9.31579,9.12521 -7.48222,7.31103 -21.62997,13.91801 -39.46069,18.42808 -5.47027,1.38364 -5.96604,2.0256 -5.98166,7.74552 -0.0141,5.16442 3.51243,24.25473 4.99086,27.0172 1.47385,2.7539 1.20527,5.51187 -0.7592,7.79598 -2.53451,2.94692 -15.16809,4.12587 -17.64715,1.64681 -2.71743,-2.71743 -1.67493,-6.70126 2.21384,-8.45999 l 3.3167,-1.5 -0.66641,-11 c -0.36653,-6.05 -0.96901,-12.8 -1.33884,-15 l -0.67242,-4 -10.47786,0.34794 c -6.09078,0.20225 -10.97068,0.8303 -11.65489,1.5 -1.46566,1.43456 0.61822,26.9504 2.47756,30.33632 3.1739,5.77975 -0.28567,9.32854 -9.05053,9.28394 -3.59829,-0.0183 -6.99101,-0.59436 -7.99654,-1.35772 z m -83.60185,-37.49562 c -2.34384,-1.48536 -0.81767,-4.35905 4.70665,-8.86236 6.3408,-5.16888 9.64174,-5.43922 9.64174,-0.78963 0,2.45369 -0.93158,3.6137 -5.42079,6.75 -5.67544,3.96503 -6.71628,4.30337 -8.9276,2.90199 z m -20.65694,-1.88017 c -0.55294,-0.40408 -1.61464,-2.47772 -2.35935,-4.60809 -1.14009,-3.2614 -1.13924,-4.00948 0.005,-4.73469 3.68861,-2.33711 8.85935,0.51117 8.85935,4.88013 0,1.163 -1.00013,2.81507 -2.22251,3.67126 -2.5069,1.7559 -2.87095,1.82317 -4.28282,0.79139 z m 30.02539,-29.84092 c -1.74082,-4.16638 -1.47666,-4.93686 1.99101,-5.80719 3.6487,-0.91577 6.48893,0.94386 6.48893,4.2486 0,3.36297 -1.63501,5.16482 -4.68658,5.16482 -1.68085,0 -2.68574,-0.95532 -3.79336,-3.60623 z M 288.82664,339.4933 c -0.36271,-0.36271 -6.20959,-0.63491 -12.99306,-0.60489 -14.41422,0.0638 -17.17713,-0.82267 -17.64699,-5.66186 -0.4345,-4.47504 3.16279,-5.90779 10.47748,-4.17305 2.84024,0.67359 6.21524,0.9193 7.5,0.54602 2.16416,-0.62877 12.07413,-1.11174 40.58593,-1.978 10.29578,-0.31281 11.25,-0.18903 11.25,1.45932 0,0.99062 -0.48646,2.10178 -1.08103,2.46924 -0.59456,0.36746 -0.81551,1.72601 -0.49099,3.01901 0.86962,3.46483 -1.71482,4.4108 -8.92798,3.26788 -5.44412,-0.86262 -15.78057,-0.13086 -25.43988,1.80101 -1.4157,0.28314 -2.87077,0.21803 -3.23348,-0.14468 z"
       style="fill:#87a15e" />
    <path
       id="path6666"
       d="m 409.5567,489.77749 c -2.35402,-3.36084 -1.88566,-5.6886 1.52393,-7.574 l 3.08063,-1.70349 -0.36233,-13.35379 c -0.30282,-11.16045 -0.64261,-13.55874 -2.06876,-14.60156 -0.93853,-0.68627 -5.52642,-1.5414 -10.19531,-1.90028 -9.31491,-0.716 -16.84907,-3.66197 -15.87267,-6.20645 0.29993,-0.78158 -0.14158,-1.68465 -0.98112,-2.00681 -0.83954,-0.32216 -1.77944,-1.24507 -2.08867,-2.05091 -0.45833,-1.1944 0.12798,-1.33887 3.17268,-0.78175 2.05421,0.37588 4.09478,1.295 4.53461,2.04248 1.00237,1.70352 3.38349,1.76858 3.99198,0.10907 0.36105,-0.9847 0.75016,-0.97041 1.83333,0.0673 1.16271,1.11393 1.09557,1.5237 -0.43484,2.654 -0.99541,0.73517 -1.39612,1.59237 -0.89047,1.90488 1.46058,0.90269 6.18391,-1.71741 6.19251,-3.43507 0.004,-0.85738 0.6335,-2.41457 1.39825,-3.46043 1.23246,-1.68548 1.71425,-1.75402 4.24001,-0.60321 2.61136,1.18981 2.70411,1.4047 1.10955,2.57067 -2.70026,1.97448 -2.06208,3.41078 1.50999,3.39837 1.7875,-0.006 5.38635,0.0422 7.99745,0.10764 2.61109,0.0654 5.75106,-0.41819 6.97769,-1.07466 2.11424,-1.13151 2.13083,-1.22847 0.31893,-1.86405 -3.21073,-1.12626 -0.0433,-2.11893 4.46226,-1.39846 3.23547,0.51738 4.7076,0.23793 6.81067,-1.29281 1.47565,-1.07407 4.708,-2.92531 7.183,-4.11388 5.86519,-2.81663 15.16157,-10.59553 19.07376,-15.96031 1.70459,-2.3375 3.73533,-4.25 4.51275,-4.25 0.77742,0 1.41349,-0.675 1.41349,-1.5 0,-0.825 0.3596,-1.5 0.79911,-1.5 0.97348,0 2.76933,-5.09089 3.69177,-10.46544 0.37432,-2.181 1.317,-5.19615 2.09485,-6.70035 C 475.36358,393.33 476,390.77839 476,389.16395 c 0,-1.61445 0.60847,-4.10818 1.35215,-5.54162 1.94167,-3.74259 2.0119,-20.25163 0.125,-29.3867 -2.16277,-10.47062 -6.39193,-26.22822 -7.84652,-29.23565 -1.4418,-2.98097 -4.82671,-2.96094 -10.7554,0.0636 -2.08756,1.06499 -4.59385,1.93635 -5.56954,1.93635 -0.9757,0 -4.03112,1.11117 -6.78984,2.46926 -2.75872,1.3581 -6.59085,2.71472 -8.51585,3.01472 -5.94305,0.92618 -6.54829,1.7169 -5.11874,6.68742 0.68471,2.38073 1.93083,5.82942 2.76916,7.66376 1.94111,4.24732 3.06275,28.13976 1.55693,33.16484 -3.8551,12.86493 -7.08862,18.35566 -13.49765,22.91992 -8.53336,6.07712 -10.93816,6.93537 -21.46403,7.66033 -9.07637,0.62512 -10.33066,0.49891 -12.89981,-1.29807 -1.56522,-1.09479 -4.07382,-2.28733 -5.57465,-2.65008 -1.94574,-0.47029 -4.10661,-2.73606 -7.53026,-7.89583 -5.78022,-8.71133 -8.65101,-15.21495 -10.25682,-23.23627 -0.66064,-3.3 -1.82732,-7.99266 -2.59264,-10.42814 -1.57685,-5.01802 -1.73891,-12.66342 -0.39365,-18.57186 0.5009,-2.2 1.30061,-5.8 1.77712,-8 1.30178,-6.01006 8.30127,-15.53134 14.61391,-19.87902 7.78268,-5.36014 15.29551,-7.17504 23.51284,-5.68008 7.39382,1.34514 10.25174,2.67441 15.06915,7.00892 5.81715,5.23404 5.49001,5.26291 26.35074,-2.32526 11.10497,-4.03948 16.14301,-6.87617 16.48588,-9.28244 0.40533,-2.84462 -7.15266,-17.78962 -10.42853,-20.62111 -2.75949,-2.38516 -5.28553,-6.6396 -5.93041,-9.9882 -0.21942,-1.13939 -1.42939,-3.23288 -2.68882,-4.65221 -1.25943,-1.41933 -3.1492,-4.1556 -4.19948,-6.0806 -1.05029,-1.925 -2.16851,-3.725 -2.48493,-4 -1.04198,-0.90558 -6.2034,-11 -5.62445,-11 0.31143,0 -0.76387,-2.3625 -2.38957,-5.25 -1.62569,-2.8875 -3.22873,-6.81339 -3.56231,-8.72421 -0.33358,-1.91082 -0.94292,-3.71082 -1.35408,-4 -0.74714,-0.52548 -4.14384,-8.98503 -4.53735,-11.30035 -0.11456,-0.67399 -1.0078,-2.87799 -1.985,-4.89777 -0.97719,-2.01978 -1.9326,-4.49478 -2.12312,-5.5 -0.19053,-1.00522 -0.43709,-1.94017 -0.54792,-2.07767 -0.11083,-0.1375 -0.28987,-0.5875 -0.39787,-1 -0.108,-0.4125 -0.68966,-1.875 -1.29258,-3.25 -1.40757,-3.21003 -4.17207,-11.77106 -4.84376,-15 -0.28602,-1.375 -1.62193,-4.17785 -2.96867,-6.22856 C 402.10188,182.72073 401,180.57713 401,180.00787 c 0,-0.56925 -0.38874,-1.8164 -0.86386,-2.77144 -4.64666,-9.34017 -8.76477,-19.93215 -8.34699,-21.46885 0.10952,-0.40283 -0.84315,-0.99401 -2.11706,-1.31374 -1.2739,-0.31973 -3.0967,-1.90264 -4.05067,-3.51758 C 384.66745,149.32131 383.37129,148 382.74107,148 c -0.63022,0 -2.62747,-1.43604 -4.43833,-3.1912 -2.56276,-2.48391 -4.29097,-3.2492 -7.79761,-3.45294 -5.09955,-0.29628 -5.62748,0.61614 -2.00513,3.46548 1.375,1.08158 2.5,2.55424 2.5,3.27258 0,1.01584 -0.26667,1.03941 -1.2,0.10608 -0.66,-0.66 -1.9549,-1.2 -2.87756,-1.2 -0.92265,0 -2.23775,-0.675 -2.92244,-1.5 -1.85369,-2.23356 -3.92836,-1.81862 -5,1 -1.28109,3.36953 -5.47363,3.60534 -4.445,0.25 1.04633,-3.41306 2.30081,-4.59263 7.1793,-6.75062 9.6344,-4.26175 20.62174,-5.31286 31.63547,-3.02642 5.56688,1.15568 15.20051,6.82451 22.62663,13.31446 4.63032,4.04659 13.19527,15.25437 19.25561,25.19717 5.05595,8.29497 15.74799,29.81887 15.74799,31.70193 0,1.29759 5.03502,10.30345 9.95921,17.81348 1.98344,3.025 4.49152,7.29536 5.57352,9.48969 1.082,2.19432 8.72797,10.79824 16.99106,19.11982 8.26308,8.32158 16.34633,17.10122 17.96277,19.51031 1.61645,2.4091 5.23957,7.08018 8.05138,10.38018 5.33653,6.26305 7.19158,9.37721 12.50941,21 4.51403,9.866 5.61728,13.25305 8.42619,25.86898 3.94158,17.70314 4.44532,26.74273 2.31165,41.48241 -1.00703,6.95673 -2.62827,15.12361 -3.60276,18.14861 -4.85749,15.07863 -21.95,36.48237 -35.68243,44.68259 -9.06867,5.41529 -23.70378,11.00812 -32,12.22884 -3.86158,0.5682 -4.02209,0.74429 -4.63839,5.08857 -0.69697,4.91286 1.22773,19.15234 3.81883,28.25289 2.75316,9.66971 -0.0466,12.32675 -12.18311,11.562 C 443.51274,491.5008 443.5,491.49108 443.5,488 c 0,-3.01331 0.46786,-3.70576 3.36456,-4.97969 l 3.36456,-1.4797 -0.74539,-6.5203 c -0.40997,-3.58617 -1.02403,-10.19532 -1.36458,-14.68699 -0.34055,-4.49167 -0.99419,-8.54167 -1.45254,-9 -0.87887,-0.87881 -18.82081,-0.59999 -22.06293,0.34286 -1.77845,0.5172 -1.85562,1.33685 -1.24161,13.18765 0.36032,6.95459 1.38902,15.00339 2.28787,17.90101 1.54204,4.97106 1.53293,5.37561 -0.16337,7.25 -1.42924,1.57929 -3.08221,1.98516 -8.08485,1.98516 -5.36455,0 -6.517,-0.32649 -7.84502,-2.22251 z M 326.25,454.33772 c -2.64659,-1.06792 -1.02771,-4.27576 4.42199,-8.76226 6.61459,-5.44549 9.82801,-5.80927 9.82801,-1.11259 0,2.45369 -0.93158,3.6137 -5.42079,6.75 -5.36,3.74465 -6.38987,4.10915 -8.82921,3.12485 z M 305,450.05902 c 0,-1.06754 -0.45,-2.2191 -1,-2.55902 -1.68237,-1.03976 -1.11198,-4.32968 0.85912,-4.95529 2.83107,-0.89854 4.89441,0.3095 6.01397,3.52107 0.79043,2.26744 0.6803,3.23798 -0.50156,4.41983 C 308.17988,452.67727 305,452.42473 305,450.05902 Z m 30.93444,-27.73147 C 334.51542,418.59526 335.43038,417 338.99005,417 c 3.74197,0 6.17119,3.89587 4.03453,6.47039 -2.09837,2.52837 -5.92911,1.91091 -7.09014,-1.14284 z m -63.26837,-84.20154 c -10.12823,-0.53578 -12.03803,-0.9058 -13.25,-2.56714 -1.65284,-2.26568 -1.68645,-2.58317 -0.47605,-4.49607 0.71285,-1.12656 4.11375,-1.48531 15.73469,-1.65981 22.59968,-0.33936 49.61761,-1.38334 51.57529,-1.99289 1.26663,-0.39437 1.75,0.01 1.75,1.4635 0,1.1046 -0.46173,2.29373 -1.02607,2.64251 -0.56434,0.34878 -0.90184,1.83784 -0.75,3.30902 L 326.5,337.5 314,337.52243 c -6.875,0.0123 -16.325,0.29404 -21,0.62601 -4.675,0.33197 -13.82527,0.32187 -20.33393,-0.0224 z"
       style="fill:#85c533" />
    <path
       id="path6664"
       d="m 409.5567,489.77749 c -2.33659,-3.33595 -1.89191,-5.67977 1.43698,-7.574 l 2.99367,-1.70349 -0.11199,-11 c -0.0616,-6.05 -0.39896,-12.34012 -0.74969,-13.97803 -0.75956,-3.54709 -2.55217,-4.23158 -13.29028,-5.07476 -4.50325,-0.35361 -8.42164,-1.21923 -9.5,-2.09869 -1.00946,-0.82326 -1.34671,-1.25753 -0.74944,-0.96505 3.45232,1.69059 28.00045,-0.54055 37.28029,-3.38834 4.05143,-1.2433 10.30919,-4.04845 13.90614,-6.23368 7.04979,-4.28289 19.22509,-13.5277 19.23162,-14.60273 0.002,-0.3623 2.22214,-3.10611 4.9332,-6.09737 6.20869,-6.8504 8.77206,-13.02094 11.03411,-26.56135 0.45942,-2.75 1.26261,-6.125 1.78488,-7.5 1.58032,-4.1606 1.42926,-20.49394 -0.26542,-28.6984 -2.17462,-10.52801 -6.40181,-26.28644 -7.86014,-29.3016 -1.4418,-2.98097 -4.82671,-2.96094 -10.7554,0.0636 -2.08756,1.06504 -4.68776,1.9364 -5.77823,1.9364 -1.09047,0 -3.62264,0.9676 -5.62703,2.15022 -2.00439,1.18262 -5.29261,2.48101 -7.30716,2.88532 -2.01454,0.4043 -7.26281,1.64619 -11.66281,2.75975 C 414.10207,338.43913 411.04086,339 405.55075,339 c -6.81588,0 -10.27138,-1.29274 -11.67192,-4.3666 -1.5706,-3.44708 0.84468,-8.2289 3.98199,-7.88365 1.24822,0.13737 5.50267,-0.42476 9.45434,-1.24918 3.95166,-0.82441 9.97687,-1.4993 13.38935,-1.49975 4.24125,-5.6e-4 8.35477,-0.81623 13,-2.57777 3.73752,-1.41732 8.82049,-3.23288 11.29549,-4.03458 8.49801,-2.75266 15.48019,-6.7494 15.80779,-9.04869 0.40082,-2.81323 -5.86719,-15.25481 -11.43056,-22.68886 -2.40748,-3.217 -4.37723,-6.44497 -4.37723,-7.17328 0,-0.7283 -1.0401,-2.59622 -2.31133,-4.15091 -4.77245,-5.83665 -14.61802,-24.8267 -19.3524,-37.32673 -5.90877,-15.60075 -8.7831,-23.41401 -13.79544,-37.5 -5.72256,-16.08185 -6.95299,-19.15752 -12.00168,-30 -1.79271,-3.85 -3.85234,-8.575 -4.57695,-10.5 -2.69344,-7.15532 -13.74977,-17.41411 -20.63696,-19.14832 C 369.94636,139.25267 368,138.41607 368,137.99258 c 0,-2.15301 16.69204,-2.8211 25.38671,-1.0161 5.54903,1.15198 15.19442,6.83048 22.60969,13.31094 4.63032,4.04659 13.19527,15.25437 19.25561,25.19717 5.05595,8.29497 15.74799,29.81887 15.74799,31.70193 0,1.29759 5.03502,10.30345 9.95921,17.81348 1.98344,3.025 4.49152,7.29536 5.57352,9.48969 1.082,2.19432 8.72797,10.79824 16.99106,19.11982 8.26308,8.32158 16.34633,17.10122 17.96277,19.51031 1.61645,2.4091 5.23957,7.08018 8.05138,10.38018 5.33653,6.26305 7.19158,9.37721 12.50941,21 4.51403,9.866 5.61728,13.25305 8.42619,25.86898 3.94158,17.70314 4.44532,26.74273 2.31165,41.48241 -1.00703,6.95673 -2.62827,15.12361 -3.60276,18.14861 -4.85749,15.07863 -21.95,36.48237 -35.68243,44.68259 -9.06867,5.41529 -23.70378,11.00812 -32,12.22884 -3.86158,0.5682 -4.02209,0.74429 -4.63839,5.08857 -0.69697,4.91286 1.22773,19.15234 3.81883,28.25289 2.75316,9.66971 -0.0466,12.32675 -12.18311,11.562 C 443.51274,491.5008 443.5,491.49108 443.5,488 c 0,-3.01331 0.46786,-3.70576 3.36456,-4.97969 l 3.36456,-1.4797 -0.74539,-6.5203 c -0.40997,-3.58617 -1.02403,-10.19532 -1.36458,-14.68699 -0.34055,-4.49167 -0.99419,-8.54167 -1.45254,-9 -0.87887,-0.87881 -18.82081,-0.59999 -22.06293,0.34286 -1.77845,0.5172 -1.85562,1.33685 -1.24161,13.18765 0.36032,6.95459 1.38902,15.00339 2.28787,17.90101 1.54204,4.97106 1.53293,5.37561 -0.16337,7.25 -1.42924,1.57929 -3.08221,1.98516 -8.08485,1.98516 -5.36455,0 -6.517,-0.32649 -7.84502,-2.22251 z m -83.89003,-36.44416 c -1.59388,-1.59387 -0.29004,-3.50624 5.34879,-7.84523 6.80537,-5.23661 9.48454,-5.51586 9.48454,-0.9886 0,2.46272 -0.85497,3.53154 -4.98856,6.2363 -4.74079,3.10207 -8.38003,4.06228 -9.84477,2.59753 z M 305,450.05902 c 0,-1.06754 -0.45,-2.2191 -1,-2.55902 -1.68237,-1.03976 -1.11198,-4.32968 0.85912,-4.95529 2.83107,-0.89854 4.89441,0.3095 6.01397,3.52107 0.79043,2.26744 0.6803,3.23798 -0.50156,4.41983 C 308.17988,452.67727 305,452.42473 305,450.05902 Z m 30.93444,-27.73147 C 334.51542,418.59526 335.43038,417 338.99005,417 c 3.74197,0 6.17119,3.89587 4.03453,6.47039 -2.09837,2.52837 -5.92911,1.91091 -7.09014,-1.14284 z m -63.26837,-84.20336 c -10.12954,-0.53429 -12.03787,-0.90376 -13.25,-2.56532 -1.64863,-2.25992 -1.68482,-2.58599 -0.49552,-4.46455 0.89885,-1.41979 9.43268,-1.81239 52.07945,-2.39592 l 14.5,-0.1984 0.33288,2.35171 c 0.18308,1.29344 0.0842,3.34269 -0.21983,4.55389 -0.52981,2.11093 -1.02012,2.19995 -11.83288,2.14829 -6.20409,-0.0296 -15.33017,0.22699 -20.28017,0.5703 -4.95,0.3433 -14.32527,0.3433 -20.83393,0 z"
       style="fill:#749842" />
    <path
       id="path6662"
       d="m 409.44012,489.54896 c -2.02238,-3.08654 -1.09746,-6.29233 2.25629,-7.82041 l 2.52295,-1.14953 -0.39138,-13.3933 C 413.37536,451.69714 412.97829,451 404.60887,451 c -7.83434,0 -4.23903,-1.80199 4.89113,-2.45146 8.52617,-0.6065 24.71744,-4.62738 27.38994,-6.8019 0.88553,-0.72054 3.63506,-2.39083 6.11006,-3.71176 7.13771,-3.80946 15.65269,-11.16553 22.17297,-19.15517 6.96009,-8.52858 8.54655,-11.30215 9.80585,-17.14341 0.50231,-2.32996 1.41745,-6.2613 2.03365,-8.7363 C 479.57786,382.69598 480,379.52164 480,370.53487 c 0,-5.19004 -0.47777,-11.82108 -1.0617,-14.73565 -2.14759,-10.71916 -6.29899,-26.42014 -8.10951,-30.6709 -1.76757,-4.1499 -2.02606,-4.33927 -5.09541,-3.73298 -3.80939,0.75246 -12.20848,3.90984 -19.24773,7.23559 -2.7579,1.30299 -5.66558,2.36907 -6.46152,2.36907 -0.79594,0 -5.96448,1.11438 -11.48565,2.47641 -18.83219,4.64574 -31.64488,5.01585 -33.20161,0.95909 -0.30391,-0.79199 -0.28326,-2.51295 0.0459,-3.82436 0.53548,-2.13352 1.30961,-2.4493 7.35785,-3.00135 20.34412,-1.85691 25.31859,-2.63243 31.2594,-4.87332 19.99367,-7.54166 26.06215,-10.14766 27.60792,-11.85572 1.63491,-1.80655 1.50897,-2.33461 -2.65638,-11.13861 -2.40496,-5.08317 -6.30291,-11.87914 -8.6621,-15.10215 C 447.93025,281.41699 446,278.21636 446,277.5275 c 0,-0.68887 -1.27005,-2.85064 -2.82233,-4.80393 C 438.58635,266.94615 427.54114,244.51464 422.1407,230 c -2.76261,-7.425 -6.09625,-16.2 -7.4081,-19.5 -1.31185,-3.3 -2.68428,-7.49843 -3.04986,-9.32984 -0.36557,-1.8314 -1.31225,-4.7564 -2.10373,-6.5 -0.79148,-1.74359 -2.65443,-6.32016 -4.13989,-10.17016 -1.48547,-3.85 -4.38471,-10.6 -6.44275,-15 -2.05805,-4.4 -4.24864,-9.58017 -4.86798,-11.51149 -1.54424,-4.81553 -12.04655,-15.32132 -18.27598,-18.28204 -2.81078,-1.33591 -4.63439,-2.72318 -4.05246,-3.08283 1.77989,-1.10003 15.6658,-0.87635 21.56012,0.34731 5.5771,1.1578 15.20401,6.8211 22.63633,13.31647 4.63032,4.04659 13.19527,15.25437 19.25561,25.19717 5.05595,8.29497 15.74799,29.81887 15.74799,31.70193 0,1.29759 5.03502,10.30345 9.95921,17.81348 1.98344,3.025 4.49152,7.29536 5.57352,9.48969 1.082,2.19432 8.72797,10.79824 16.99106,19.11982 8.26308,8.32158 16.34633,17.10122 17.96277,19.51031 1.61645,2.4091 5.23957,7.08018 8.05138,10.38018 5.3334,6.25938 7.18185,9.36148 12.51325,21 4.12724,9.00982 6.52794,15.98718 7.41664,21.55562 0.39012,2.44441 1.32608,6.69438 2.07991,9.44438 2.77353,10.11791 3.20292,22.77295 1.23419,36.3736 -1.00524,6.94452 -2.62501,15.1014 -3.5995,18.1264 -4.85749,15.07863 -21.95,36.48237 -35.68243,44.68259 -9.06867,5.41529 -23.70378,11.00812 -32,12.22884 -3.86311,0.56843 -4.02159,0.74257 -4.63075,5.08857 -0.65382,4.66462 2.0226,23.75015 4.17625,29.7808 0.89914,2.51778 0.89476,3.9492 -0.0188,6.15478 -1.37694,3.32424 -3.34364,4.03191 -11.25763,4.05077 -5.28271,0.0126 -5.77998,-0.18171 -6.35784,-2.48411 -0.90106,-3.59008 0.12415,-5.44431 3.69926,-6.69059 l 3.13684,-1.09351 -0.75449,-6.60907 c -0.41496,-3.63499 -1.03312,-10.28408 -1.37367,-14.77575 -0.34055,-4.49167 -0.99419,-8.54167 -1.45254,-9 -0.87841,-0.87836 -18.81986,-0.60022 -22.0602,0.34199 -1.77789,0.51697 -1.85216,1.33524 -1.2156,13.393 0.37289,7.06331 1.32361,14.98767 2.11272,17.60967 1.25861,4.18207 1.25156,5.04685 -0.0575,7.04465 C 424.14845,491.70307 423.11242,492 417.5,492 c -5.74629,0 -6.62997,-0.26873 -8.05988,-2.45104 z M 326.01531,452.25 c 0.0493,-2.41521 10.45442,-10.66746 12.47349,-9.89267 3.01209,1.15584 1.58697,4.38556 -3.32635,7.53842 -4.49768,2.88616 -9.18262,4.09194 -9.14714,2.35425 z M 305,450.05902 c 0,-1.06754 -0.45,-2.2191 -1,-2.55902 -1.68237,-1.03976 -1.11198,-4.32968 0.85912,-4.95529 2.83107,-0.89854 4.89441,0.3095 6.01397,3.52107 0.79043,2.26744 0.6803,3.23798 -0.50156,4.41983 C 308.17988,452.67727 305,452.42473 305,450.05902 Z m 30.93444,-27.73147 C 334.51542,418.59526 335.43038,417 338.99005,417 c 3.74197,0 6.17119,3.89587 4.03453,6.47039 -2.09837,2.52837 -5.92911,1.91091 -7.09014,-1.14284 z m -63.26837,-84.20123 c -10.12801,-0.53603 -12.03805,-0.90614 -13.25,-2.56745 -1.64863,-2.25992 -1.68482,-2.58599 -0.49552,-4.46455 0.89363,-1.41155 8.45611,-1.76616 51.07945,-2.39511 l 13.5,-0.19921 0.3075,4.25 c 0.16912,2.3375 -0.0559,4.26928 -0.5,4.29285 -0.44413,0.0236 -5.7575,0.17978 -11.8075,0.34712 -6.05,0.16735 -14.6,0.54241 -19,0.83347 -4.4,0.29106 -13.32527,0.24735 -19.83393,-0.0971 z"
       style="fill:#56584a" />
    <path
       id="path6660"
       d="m 412.33794,491.00137 c -1.18913,-0.47952 -2.48655,-1.89422 -2.88314,-3.14378 -0.57173,-1.80136 -0.0721,-2.81368 2.41206,-4.88758 L 415,480.35435 414.9761,469.92717 c -0.025,-10.94094 -1.14965,-18.15167 -2.92324,-18.74287 -2.30956,-0.76985 -0.85884,-2.1843 2.24033,-2.1843 3.78235,0 20.57108,-4.66015 22.491,-6.24297 0.70633,-0.58231 3.58983,-2.2782 6.40777,-3.76865 7.28743,-3.85441 14.93781,-10.32014 22.46744,-18.98838 7.38594,-8.50282 9.03044,-11.25773 10.30532,-17.2637 0.49457,-2.32996 1.3934,-6.2613 1.99738,-8.7363 3.49332,-14.3148 4.82551,-28.87586 3.22797,-35.28216 C 480.61158,356.39803 479.409,351.125 478.51766,347 c -2.15584,-9.97693 -6.61857,-25.17126 -7.87919,-26.82642 -1.25519,-1.64803 -6.48788,-0.80123 -11.80216,1.90991 -2.06617,1.05408 -4.70697,1.91651 -5.86844,1.91651 -1.16147,0 -3.9919,1.06992 -6.28984,2.37761 -3.62272,2.06158 -9.12145,3.51432 -32.67807,8.63342 -5.96488,1.29623 -15.97982,0.63029 -17.09803,-1.13693 -1.54476,-2.44135 -0.34886,-3.36185 5.1788,-3.98625 2.98058,-0.33668 7.21923,-1.12167 9.41923,-1.74442 2.2,-0.62275 6.2658,-1.13479 9.03511,-1.13785 4.62845,-0.005 9.51914,-1.3755 24.46489,-6.85506 13.54687,-4.96669 17.67942,-7.0723 19.34226,-9.85527 0.84405,-1.41263 -9.33617,-22.2185 -11.91307,-24.34738 -0.96391,-0.79633 -2.84102,-3.92287 -4.17135,-6.94787 -1.33033,-3.025 -3.48075,-6.625 -4.77871,-8 -1.29796,-1.375 -5.48002,-8.8 -9.29345,-16.5 -6.18808,-12.49483 -9.25375,-19.79871 -13.85116,-33 -0.76616,-2.2 -2.65513,-7.15 -4.1977,-11 -1.54258,-3.85 -4.06169,-10.825 -5.59804,-15.5 -1.53634,-4.675 -3.63607,-10.38781 -4.66606,-12.69514 -1.03,-2.30732 -1.87272,-4.40828 -1.87272,-4.66879 0,-0.26051 -2.025,-4.74932 -4.5,-9.97513 -2.475,-5.22582 -4.5,-9.96117 -4.5,-10.52302 0,-1.84608 -10.05952,-12.56689 -15.07223,-16.06304 -2.70098,-1.88381 -4.74145,-3.59454 -4.53438,-3.80161 0.83527,-0.83526 12.86159,-0.36213 18.02106,0.70897 5.2913,1.09847 14.58491,6.47418 22.04866,12.75363 3.41779,2.87548 9.28607,10.3819 16.23271,20.76413 4.64311,6.93945 17.3954,31.6934 18.8034,36.5 0.40278,1.375 3.26773,6.69968 6.36655,11.83262 3.09883,5.13295 6.75707,11.41674 8.12943,13.96399 1.37236,2.54725 4.74736,7.03913 7.5,9.98195 9.8223,10.50091 22.63903,23.22144 23.39709,23.22144 0.42401,0 2.27451,2.3625 4.11224,5.25 1.83772,2.8875 5.66145,7.95 8.49718,11.25 16.62012,19.34123 27.85143,59.57063 23.87004,85.5 -2.94361,19.17067 -4.16733,23.15422 -10.47054,34.08459 -6.91137,11.98499 -19.56773,25.30592 -29.53124,31.0819 C 485.23685,438.30163 474.79984,443 472.74708,443 c -0.82656,0 -3.11833,0.675 -5.09284,1.5 -1.9745,0.825 -4.86446,1.5 -6.42212,1.5 -4.33834,0 -5.23212,1.64397 -5.23212,9.62371 0,7.2011 0.7752,12.27324 3.68802,24.13057 1.38456,5.63622 1.38343,6.48773 -0.0114,8.61659 -1.20771,1.8432 -2.71565,2.47685 -6.86221,2.88357 -6.3206,0.61996 -8.81436,-0.44841 -8.81436,-3.7762 0,-1.86811 0.85425,-2.80833 3.59015,-3.95146 3.40303,-1.42188 3.56108,-1.69622 3.0323,-5.26342 -0.30683,-2.06985 -0.83362,-7.36336 -1.17065,-11.76336 -0.83898,-10.95301 -1.37645,-15.56907 -1.91407,-16.43895 -0.64545,-1.04437 -21.64963,-0.0175 -23.92288,1.16958 -1.75704,0.9175 -1.83726,1.86555 -1.18038,13.9493 0.38763,7.13069 1.31756,15.001 2.06651,17.48958 0.74895,2.48858 1.10625,5.19047 0.79399,6.00419 -1.12247,2.92512 -8.28474,4.21179 -12.95703,2.32767 z M 263.49166,337.14239 C 260.66233,336.63438 259,335.05599 259,332.87756 c 0,-2.26128 -1.48728,-2.02937 15.5,-2.41686 7.7,-0.17563 20.72947,-0.56164 28.95438,-0.85777 18.26903,-0.65778 19.761,-0.38343 19.34988,3.55822 l -0.30426,2.91711 -13,0.59272 c -15.30128,0.69765 -43.15866,0.98308 -46.00834,0.47141 z"
       style="fill:#44453a" />
    <path
       id="path6658"
       d="m 411.2,489.8 c -2.10901,-2.10901 -1.33775,-5.21444 1.72826,-6.95869 2.89229,-1.64541 2.91574,-1.73341 2.93131,-11 0.009,-5.13772 -0.51874,-12.04131 -1.17194,-15.34131 l -1.18763,-6 5,-1.12794 c 9.1631,-2.06708 16.9246,-4.44832 18.47075,-5.66685 0.84109,-0.66287 3.57809,-2.23321 6.08222,-3.48965 4.99162,-2.50452 19.61091,-14.28887 21.86069,-17.62149 3.32293,-4.92231 8.62327,-9.53133 10.34717,-8.99759 1.53925,0.47657 1.62068,0.23757 0.64712,-1.89916 -1.54218,-3.38472 0.41748,-7.10699 3.33934,-6.3429 2.34175,0.61238 5.75271,-0.87048 5.75271,-2.50089 0,-0.689 -1.26375,-0.83903 -3.51306,-0.41706 -2.68614,0.50393 -3.654,0.29174 -4.11187,-0.90144 -0.32935,-0.85828 -0.12741,-2.12852 0.44876,-2.82276 0.57618,-0.69425 1.37024,-3.69454 1.7646,-6.66732 0.39435,-2.97278 1.32051,-6.56153 2.05812,-7.975 0.73762,-1.41347 1.3439,-4.28703 1.34729,-6.38569 0.007,-4.43794 1.47832,-7.68426 3.48233,-7.68426 2.12255,0 2.74913,1.71051 1.48905,4.06498 -1.82643,3.41273 -0.53206,3.20578 3.45232,-0.55198 2.04867,-1.93215 4.14282,-3.513 4.65366,-3.513 0.51084,0 0.9288,-0.3894 0.9288,-0.86533 0,-0.47592 -1.97675,-0.70065 -4.39278,-0.49938 -5.28382,0.44017 -6.28898,-1.05361 -3.52757,-5.24234 1.04894,-1.59112 1.91014,-3.69159 1.91376,-4.6677 0.004,-0.97611 1.13159,-2.20248 2.50659,-2.72525 3.69056,-1.40315 3.40784,-5 -0.39301,-5 -2.90573,0 -4.18774,-1.42389 -3.37635,-3.75 0.23982,-0.6875 1.29853,-1.25 2.35269,-1.25 1.05417,0 1.91667,-0.675 1.91667,-1.5 0,-0.94473 -0.95259,-1.5 -2.57332,-1.5 -1.91828,0 -2.48368,-0.44547 -2.22117,-1.75 0.19369,-0.9625 -0.62681,-2.53358 -1.82333,-3.49129 -1.85196,-1.48233 -2.05413,-2.27935 -1.35946,-5.35943 C 486.92852,328.38308 486.22046,322 484.86916,322 484.39112,322 484,323.8375 484,326.08333 c 0,2.72291 -0.39829,3.95057 -1.19548,3.68484 -1.70307,-0.56769 -2.94615,-5.89259 -1.7204,-7.36953 1.28286,-1.54575 -0.39835,-2.73591 -2.84307,-2.01266 -1.97402,0.584 -7.24105,-6.13618 -7.24105,-9.23881 0,-1.00438 -1.08597,-2.32094 -2.41327,-2.9257 -3.5246,-1.60591 -4.36235,-5.17499 -1.71741,-7.31673 1.26525,-1.02454 2.99695,-1.49097 4.28496,-1.15414 1.89914,0.49663 2.0719,0.27291 1.42292,-1.84267 -0.40627,-1.32436 -0.9798,-3.42043 -1.27451,-4.65793 C 470.65388,290.52566 469,290.25815 469,292.87756 c 0,1.03265 -0.69494,2.4543 -1.54432,3.15922 -1.29289,1.07301 -1.80037,0.91612 -3.11697,-0.96359 -1.04515,-1.49216 -2.23744,-2.07143 -3.55459,-1.72699 -1.09007,0.28506 -1.72268,0.25902 -1.40579,-0.0579 0.53008,-0.53008 -1.59914,-3.36085 -7.93963,-10.55562 -1.34128,-1.52201 -2.44559,-3.77201 -2.45401,-5 -0.008,-1.228 -0.43268,-2.89263 -0.9428,-3.69918 -0.57894,-0.91537 -0.55494,-1.91536 0.0639,-2.66097 0.66606,-0.80255 0.6106,-1.42983 -0.16901,-1.91166 -0.63819,-0.39443 -1.48727,-0.18819 -1.88682,0.45831 -0.53048,0.85833 -1.07292,0.758 -2.01065,-0.37189 C 442.96378,268.25143 443.03865,268 444.5,268 c 1.43763,0 1.52568,-0.26414 0.5,-1.5 -1.37964,-1.66236 -3.47772,-2.08198 -2.5,-0.5 0.33992,0.55 0.38001,1 0.0891,1 -0.29092,0 -2.15252,-3.32958 -4.13689,-7.39907 -3.48449,-7.1459 -3.55408,-7.50323 -2.03374,-10.44325 1.1291,-2.18343 1.25526,-3.2413 0.4462,-3.74133 -0.62041,-0.38343 -1.54112,0.041 -2.04603,0.94325 -1.43559,2.56527 -2.48253,1.97606 -4.63686,-2.6096 -3.04692,-6.4856 -3.43675,-8.43818 -1.80934,-9.06267 1.9871,-0.76252 2.62629,0.14201 2.63537,3.72934 0.006,2.27299 0.63734,3.37511 2.40317,4.19355 2.09876,0.97274 2.53119,0.81213 3.4922,-1.29705 C 438.35751,238.12125 438.32446,238 436,238 c -1.1,0 -2,-0.62686 -2,-1.39301 0,-0.76616 -0.675,-1.65203 -1.5,-1.96862 -0.825,-0.31658 -1.5,-1.30625 -1.5,-2.19926 0,-2.25915 -3.68376,-6.75982 -4.47929,-5.47262 -1.03746,1.67864 -2.52071,1.18198 -2.52071,-0.84405 0,-1.03265 -0.64607,-2.41374 -1.43572,-3.06909 -0.78965,-0.65535 -1.74776,-2.62295 -2.12914,-4.37245 -0.38137,-1.74949 -1.80355,-5.6559 -3.16038,-8.6809 -1.35683,-3.025 -3.27492,-8.2 -4.26241,-11.5 -2.40996,-8.05358 -4.00332,-12.4455 -5.72424,-15.77828 -0.88474,-1.71341 -1.18443,-3.9173 -0.7819,-5.75 C 407.0198,174.63338 406.8147,174 405.54392,174 c -0.91832,0 -2.48129,-1.83337 -3.62319,-4.25 -1.1045,-2.3375 -3.08695,-6.275 -4.40543,-8.75 -1.31849,-2.475 -2.42381,-5.27403 -2.45627,-6.22006 -0.0325,-0.94604 -1.45289,-2.74604 -3.1565,-4 -1.70361,-1.25397 -3.74016,-3.51744 -4.52568,-5.02994 -0.78552,-1.5125 -2.01321,-2.75 -2.72822,-2.75 -1.76404,0 -6.02623,-4.6486 -4.90024,-5.3445 1.40506,-0.86837 16.57884,0.91408 19.05283,2.23812 13.28787,7.11145 22.24392,15.93623 33.09142,32.60638 5.00935,7.69823 18.10736,33.37957 18.10736,35.50319 0,1.38527 9.83989,18.77982 11.04476,19.52447 0.52324,0.32338 2.14229,3.1054 3.59787,6.18226 2.00548,4.23922 6.40583,9.36952 18.16659,21.18015 8.53604,8.57222 16.98414,17.84128 18.77354,20.5979 1.78941,2.75662 5.20282,7.1141 7.58536,9.6833 4.40774,4.75307 6.01422,7.51671 12.10761,20.82873 3.78686,8.27301 4.54153,10.65833 8.22598,26 3.64914,15.19466 4.14088,27.71924 1.66863,42.5 -2.53353,15.14719 -3.49564,17.87405 -10.41181,29.50971 -6.86718,11.55323 -18.67084,23.94766 -28.25853,29.67288 -8.84263,5.28031 -27.5207,12.31801 -32.69098,12.31762 -1.48004,-1.2e-4 -2.97477,0.45896 -3.32161,1.02016 -2.30737,3.73341 -0.56855,22.91663 3.07175,33.88842 1.89652,5.71609 0.34245,8.51573 -5.23902,9.43798 -6.99379,1.15562 -9.0411,0.82829 -9.66166,-1.54473 -0.69348,-2.65189 0.71605,-4.57223 3.66414,-4.99201 2.06625,-0.29421 2.1692,-0.76939 2.01712,-9.31003 -0.3678,-20.65498 -2.06387,-27.72095 -6.21868,-25.90746 -0.89158,0.38916 -5.99649,0.91689 -11.34425,1.17274 -6.08873,0.2913 -10.11465,0.93687 -10.77047,1.72708 -1.18569,1.42867 0.27382,22.37814 2.17523,31.2228 C 425.66264,489.60455 424.5503,491 417.57756,491 414.7299,491 411.86,490.46 411.2,489.8 Z M 275.5648,337.25141 c -7.39422,-0.17945 -13.49842,-0.78135 -14.25,-1.40511 -1.67037,-1.38629 -1.71604,-4.83245 -0.0648,-4.88944 0.6875,-0.0237 13.10236,-0.26202 27.58857,-0.52952 14.48621,-0.26751 26.63621,-0.52639 27,-0.57528 0.36379,-0.0489 1.89893,-0.0356 3.41143,0.0295 2.36442,0.10182 2.75,0.54027 2.75,3.12716 l 0,3.00873 -5.25185,-0.61725 c -3.10379,-0.36479 -9.39001,0.0407 -15.36933,0.99126 -5.56461,0.88469 -10.73878,1.51072 -11.49815,1.39119 -0.75937,-0.11953 -7.20151,-0.3586 -14.31587,-0.53126 z"
       style="fill:#403e38" />
    <path
       id="path6656"
       d="m 411.58239,489.6839 c -2.447,-1.78929 -1.64386,-4.88785 1.67984,-6.48085 2.55237,-1.22332 2.74844,-1.76559 2.8953,-8.00762 0.17753,-7.54491 0.20266,-6.94304 -0.72859,-17.44543 l -0.68719,-7.75 2.56174,0 c 3.19187,0 3.59654,1.21388 4.1949,12.58358 0.54847,10.4216 1.16584,15.31972 2.66701,21.15965 0.83596,3.2521 0.79864,4.59517 -0.15978,5.75 -1.57254,1.89479 -9.91754,2.02288 -12.42323,0.19067 z m 33.51936,-0.81992 C 444.08959,486.25787 445.93822,484 449.08414,484 c 0.93604,0 1.9011,-0.5625 2.14458,-1.25 0.66647,-1.8818 -2.07926,-30.95053 -3.14067,-33.25 -1.65145,-3.57775 -3.10918,-8.8122 -2.59679,-9.3246 0.27516,-0.27515 1.59302,-0.002 2.92858,0.60612 1.90656,0.86869 2.68398,0.79831 3.61837,-0.32756 0.96288,-1.1602 0.74188,-1.59976 -1.15764,-2.30244 l -2.34772,-0.86848 2.20759,-0.70066 c 1.21418,-0.38536 3.14993,-2.02405 4.30167,-3.64152 2.76629,-3.8849 3.57907,-3.71136 4.32003,0.92239 0.5463,3.41635 0.89456,3.81033 3.01059,3.40583 1.31606,-0.25158 2.69714,0.035 3.06907,0.63675 1.14525,1.85306 2.72936,1.20881 2.07753,-0.84493 -0.42761,-1.34727 0.0182,-2.2782 1.46062,-3.05017 1.14184,-0.61109 1.82623,-1.51531 1.52088,-2.00938 -0.30535,-0.49407 0.69455,-2.71721 2.22199,-4.94031 2.13489,-3.10717 3.35108,-3.98637 5.25863,-3.80152 1.81145,0.17555 2.56787,-0.29952 2.80154,-1.75952 0.17606,-1.1 0.7119,-2.9 1.19076,-4 0.47886,-1.1 1.13924,-3.2375 1.46751,-4.75 0.40665,-1.87365 1.22812,-2.75 2.57779,-2.75 2.32893,0 2.5034,1.72516 0.44915,4.44113 -1.93314,2.55583 -1.85346,3.56026 0.2818,3.55255 1.55231,-0.006 3.61528,-2.51566 6.73713,-8.19718 1.20224,-2.188 1.89457,-2.24643 3.51287,-0.2965 1.3495,1.62604 6,2.07818 6,0.58333 0,-0.50416 -0.51901,-1.08967 -1.15336,-1.30112 -0.78845,-0.26281 -0.59538,-1.23605 0.61023,-3.07605 1.15118,-1.75691 1.54058,-3.58018 1.12137,-5.25046 -0.4402,-1.75388 -0.0448,-3.31846 1.25701,-4.97338 1.90737,-2.42483 3.46029,-2.41605 2.52768,0.0143 -0.72062,1.87789 1.46901,2.88775 3.18087,1.46703 0.80091,-0.6647 1.4562,-0.83844 1.4562,-0.38609 0,0.45234 0.48772,0.33472 1.08382,-0.26138 0.59611,-0.59611 1.25808,-2.89296 1.47106,-5.10412 0.29354,-3.04753 -0.01,-4.17267 -1.25387,-4.65005 -0.90261,-0.34636 -1.96428,-0.10686 -2.35926,0.53224 -0.39498,0.63909 -1.21845,0.85277 -1.82995,0.47485 -1.60021,-0.98899 -1.36848,-2.5691 0.37677,-2.5691 1.95821,0 5.72297,-3.25122 4.5816,-3.95663 C 512.97163,380.36443 513.90048,375 515.11658,375 c 0.48588,0 0.88342,0.45 0.88342,1 0,0.55 0.46156,1 1.02568,1 1.3267,0 -1.58221,-5.68551 -3.18169,-6.21867 -2.16767,-0.72256 0.21213,-2.78133 3.21503,-2.78133 3.32233,0 3.57863,-0.64461 1.45936,-3.6703 -1.30883,-1.86862 -1.30883,-2.25872 0,-3.34495 C 520.34688,359.46723 520.45933,357 518.7,357 c -0.715,0 -1.87029,0.5625 -2.56732,1.25 -1.01576,1.00188 -1.55171,0.86469 -2.7,-0.69113 -1.939,-2.62715 -1.80318,-3.64922 0.56732,-4.26912 2.38429,-0.62351 2.61158,-2.11783 0.44839,-2.94793 -1.12956,-0.43345 -1.37995,-1.37693 -0.92054,-3.46861 C 513.9187,345.09367 513.74802,344 513.07946,344 c -1.95852,0 -1.12268,-1.75544 1.11438,-2.34044 2.15195,-0.56275 2.15813,-0.61316 0.32363,-2.64026 -1.43374,-1.58426 -1.59567,-2.3411 -0.69384,-3.24293 1.72436,-1.72436 1.43625,-3.55911 -0.66352,-4.22555 -1.01194,-0.32118 -2.46219,-1.74674 -3.22277,-3.16791 -1.22113,-2.28169 -1.18137,-2.7313 0.33988,-3.84367 1.93395,-1.41414 2.33534,-4.53924 0.58302,-4.53924 -0.62686,0 -1.67935,0.73794 -2.33886,1.63987 -0.89181,1.21963 -1.65284,1.38594 -2.9697,0.64899 -1.58378,-0.88633 -1.60078,-1.05604 -0.16114,-1.60848 2.31317,-0.88765 1.98536,-2.97861 -0.89054,-5.68038 -2.76693,-2.5994 -3.3337,-6 -1,-6 0.825,0 1.5,0.88417 1.5,1.96482 0,2.0108 3.65656,4.71196 4.81304,3.55547 C 510.48626,313.84707 504.99886,303 503.98507,303 502.62925,303 501,305.56525 501,307.7 c 0,1.33492 -0.60407,2.3 -1.43963,2.3 -1.96793,0 -2.45627,-6.84741 -0.69536,-9.75 0.76,-1.25275 0.9225,-2.25 0.36663,-2.25 -0.54911,0 -1.24099,-0.92774 -1.53751,-2.06163 -0.30314,-1.15923 -1.20144,-1.92523 -2.05225,-1.75 -0.83223,0.17139 -3.06529,-1.37587 -4.96238,-3.43837 -1.89708,-2.0625 -3.07761,-3.75 -2.62339,-3.75 0.45422,0 1.10397,0.45 1.44389,1 0.93194,1.50792 3.2384,1.20441 5.48857,-0.72224 2.73368,-2.34065 2.52922,-3.6099 -0.48857,-3.03301 -2.17447,0.41568 -2.5,0.12127 -2.5,-2.26098 0,-3.36002 -2.21117,-5.36891 -4.95201,-4.499 C 485.45374,277.99076 485,277.6952 485,276.15072 c 0,-1.09123 0.5625,-2.2424 1.25,-2.55816 0.6875,-0.31575 0.2375,-0.32293 -1,-0.0159 -1.45432,0.36077 -2.28759,0.0923 -2.3563,-0.75923 -0.0585,-0.72457 -0.17096,-2.17792 -0.25,-3.22968 -0.17413,-2.3172 -2.6437,-3.41111 -2.6437,-1.17104 0,1.83134 -3.52404,2.16246 -4.59376,0.43163 -0.39148,-0.63344 0.063,-1.71826 1.01,-2.41071 1.60038,-1.17023 1.57589,-1.30531 -0.34722,-1.91569 C 474.93106,264.16073 474,263.3974 474,262.82562 c 0,-0.57178 -0.66627,-0.78393 -1.4806,-0.47144 -1.99606,0.76596 -6.82741,-7.38795 -5.86443,-9.89744 0.53495,-1.39405 0.31923,-1.66082 -0.94934,-1.17402 -0.90287,0.34646 -1.90755,0.19959 -2.23262,-0.32639 C 462.54396,249.4531 461,249.83831 461,251.57332 c 0,2.04772 -2.943,1.47706 -4.39282,-0.85179 -0.78524,-1.26133 -0.7952,-1.98827 -0.0342,-2.5 0.59012,-0.39684 1.3635,-1.50903 1.71862,-2.47153 0.35512,-0.9625 1.67229,-1.78046 2.92706,-1.81768 2.16656,-0.0643 2.18072,-0.11129 0.28138,-0.93422 -1.1,-0.4766 -3.73741,-1.15089 -5.86091,-1.49844 -2.65121,-0.43391 -4.01936,-1.23782 -4.36663,-2.56578 C 450.99431,237.87025 450.11594,237 449.32051,237 c -0.92582,0 -1.33365,-0.80963 -1.13337,-2.25 0.26233,-1.88662 -0.21202,-2.30061 -2.93714,-2.56336 -1.7875,-0.17235 -3.25,-0.73485 -3.25,-1.25 C 442,230.42149 441.2937,230 440.43045,230 c -1.0557,0 -1.46493,-0.73662 -1.25,-2.25 0.2288,-1.61101 1.10054,-2.33986 3.06955,-2.56642 2.24595,-0.25843 2.75,-0.81334 2.75,-3.0275 0,-3.76886 -2.50935,-6.96634 -5.76092,-7.34071 -2.43811,-0.28072 -2.70448,-0.6732 -2.42424,-3.57187 0.2337,-2.41718 -0.15291,-3.42933 -1.5,-3.92706 -0.99816,-0.36881 -2.13026,-1.14422 -2.51578,-1.72314 -0.38552,-0.57891 -2.09654,-1.12276 -3.80228,-1.20855 -3.91964,-0.19713 -4.42091,-0.72374 -3.0778,-3.23336 1.57582,-2.94445 1.36658,-5.1982 -0.41898,-4.51302 -1.97089,0.7563 -1.98054,-1.99466 -0.0127,-3.6278 0.81799,-0.67888 2.13509,-0.98573 2.92688,-0.68189 0.79179,0.30384 1.95158,-0.0644 2.5773,-0.81838 0.88392,-1.06505 0.69333,-1.60863 -0.85444,-2.43698 -1.09567,-0.58638 -2.69347,-0.79702 -3.55067,-0.46808 -1.05342,0.40424 -1.86918,-0.21897 -2.517,-1.92287 -0.52716,-1.38652 -1.77091,-2.9823 -2.7639,-3.54618 -1.44549,-0.82083 -1.58361,-1.38849 -0.69278,-2.84723 0.8472,-1.38729 0.78755,-2.12568 -0.25,-3.0949 C 419.6132,176.49396 419,174.98379 419,173.83813 c 0,-1.61047 -0.29903,-1.83484 -1.31815,-0.98905 -0.97318,0.80766 -1.90436,0.68337 -3.55807,-0.47493 -1.77773,-1.24517 -2.10833,-2.168 -1.60221,-4.47235 0.46971,-2.13858 0.22157,-3.06314 -0.94193,-3.50961 C 410.71084,164.0588 410,162.79518 410,161.58414 c 0,-1.21103 -0.6263,-3.0584 -1.39179,-4.10526 -1.18252,-1.61719 -1.6336,-1.7027 -3,-0.56869 C 403.63598,158.547 403.50112,161 405.38337,161 c 0.76085,0 1.61872,0.9 1.90638,2 0.67311,2.57399 -2.76452,2.80291 -3.75418,0.25 -0.64071,-1.65274 -0.75287,-1.64886 -2.01825,0.0698 -1.29561,1.7597 -1.37372,1.7597 -2.36609,0 -0.82197,-1.45755 -0.51419,-2.23051 1.54625,-3.88328 2.24728,-1.80262 2.42104,-2.34652 1.37441,-4.30216 -0.65895,-1.23127 -1.9572,-2.14485 -2.88499,-2.03019 -0.9278,0.11466 -2.8119,-0.29153 -4.1869,-0.90266 -4.98227,-2.21439 -6.83307,-4.56513 -7.56315,-9.60615 l -0.71032,-4.90466 4.79988,0.6579 c 2.63994,0.36184 6.18897,1.53164 7.88674,2.59954 1.69777,1.06791 4.45022,2.64569 6.11657,3.50618 11.89957,6.14487 28.53864,28.55441 40.1449,54.06726 8.77945,19.29895 12.34029,26.13935 16.08583,30.90104 1.23175,1.56592 2.23955,3.28608 2.23955,3.82257 0,1.99596 6.11978,10.32406 9.00529,12.25484 1.64393,1.1 2.99025,2.28108 2.99183,2.62461 0.004,0.89423 19.16595,19.87539 20.06457,19.87539 0.41155,0 1.9793,2.1375 3.4839,4.75 1.5046,2.6125 5.38754,7.76629 8.62876,11.45286 3.24122,3.68657 7.04513,9.31157 8.45313,12.5 1.408,3.18843 3.79368,8.27214 5.30152,11.29714 3.0155,6.04963 3.61246,8.02196 7.66207,25.31525 4.14338,17.69372 3.77377,34.25159 -1.20769,54.10243 -1.9076,7.60166 -12.01579,24.74301 -18.03429,30.58232 -2.55095,2.475 -6.5119,6.38245 -8.80212,8.68322 C 497.58476,430.66371 477.07269,442 473.83255,442 c -0.77103,0 -3.86127,0.86165 -6.86721,1.91478 C 461.72056,445.75228 456,445.73592 456,443.88342 456,443.39754 455.52344,443 454.94098,443 c -0.59521,0 -0.7185,0.54745 -0.28152,1.25 0.42763,0.6875 0.6397,4.26784 0.47128,7.9563 -0.2797,6.12532 1.50176,18.84457 3.90902,27.90972 1.99935,7.52906 0.63631,9.48129 -7.27982,10.42653 -5.40656,0.64559 -5.7934,0.54807 -6.65819,-1.67857 z m -20.59932,-40.48952 c 0.84667,-0.61904 3.32472,-1.41102 5.50677,-1.75994 2.18205,-0.34892 5.77564,-1.57693 7.98574,-2.7289 5.74189,-2.99284 10.02948,-0.54025 4.44554,2.54294 -1.06726,0.58929 -2.2476,1.49884 -2.62296,2.02121 -0.37537,0.52237 -4.32119,0.97237 -8.76849,1 -6.22812,0.0387 -7.7323,-0.20838 -6.5466,-1.07531 z M 289.74558,337.41224 c -0.35748,-0.35747 -6.37533,-0.62284 -13.37301,-0.5897 C 263.05489,336.88561 260,336.17849 260,333.03278 c 0,-1.73913 0.85233,-1.89683 10.25,-1.89651 5.6375,1.9e-4 19.25,-0.1429 30.25,-0.31796 l 20,-0.31831 0.35195,2.49725 c 0.33796,2.39796 0.27608,2.42859 -1.55615,0.77044 -1.60204,-1.44982 -2.13971,-1.51196 -3.35195,-0.38739 -0.81796,0.7588 -6.024,1.81662 -12.00965,2.44026 -5.81119,0.60546 -11.2347,1.35752 -12.05224,1.67124 -0.81753,0.31372 -1.77891,0.27792 -2.13638,-0.0796 z"
       style="fill:#36382f" />
  </g>
</svg>
