<?xml version="1.0" encoding="UTF-8" standalone="no"?>
<svg
   xmlns:dc="http://purl.org/dc/elements/1.1/"
   xmlns:cc="http://creativecommons.org/ns#"
   xmlns:rdf="http://www.w3.org/1999/02/22-rdf-syntax-ns#"
   xmlns:svg="http://www.w3.org/2000/svg"
   xmlns="http://www.w3.org/2000/svg"
   viewBox="0 0 800 600"
   height="600"
   width="800"
   version="1.1"
   id="svg8062">
  <metadata
     id="metadata8068">
    <rdf:RDF>
      <cc:Work
         rdf:about="">
        <dc:format>image/svg+xml</dc:format>
        <dc:type
           rdf:resource="http://purl.org/dc/dcmitype/StillImage" />
        <dc:title></dc:title>
      </cc:Work>
    </rdf:RDF>
  </metadata>
  <defs
     id="defs8066" />
  <g
     id="g10478">
    <path
       id="path10508"
       d="m 411.80492,496.47617 c -0.81699,-0.82237 -13.5876,-1.34219 -45.37509,-1.84697 -24.51668,-0.38931 -26.78703,-0.8083 -28.47784,-5.25548 -1.07204,-2.81967 -0.27771,-4.86491 3.06234,-7.88491 2.09949,-1.89831 3.73056,-1.99267 35.84263,-2.07353 18.50367,-0.0466 34.39392,-0.1591 35.31166,-0.25 1.47373,-0.14598 1.64893,-1.68365 1.5,-13.16513 -0.0927,-7.14991 -0.39362,-13.01381 -0.66862,-13.03087 -6.75445,-0.41916 -16.40731,-2.49456 -20.37684,-4.38109 C 389.80542,447.24905 383.675,444.3565 379,442.1603 c -4.675,-2.1962 -10.075,-5.06188 -12,-6.36819 -1.925,-1.3063 -6.2,-3.90046 -9.5,-5.76479 -6.33285,-3.57774 -7.64205,-4.74987 -13.9196,-12.46234 -4.37494,-5.37495 -9.4683,-18.88699 -10.15465,-26.93901 -0.2285,-2.68072 -0.82946,-6.50572 -1.33545,-8.5 -3.46444,-13.65437 -3.78692,-38.94567 -0.61813,-48.47933 0.75804,-2.28065 1.52156,-5.62787 1.69672,-7.43826 0.28121,-2.90649 -0.14881,-3.57683 -3.67521,-5.72916 -2.19652,-1.34065 -5.34368,-3.08263 -6.99368,-3.87106 -1.65,-0.78844 -3.96353,-2.48532 -5.14119,-3.77084 -2.98314,-3.2564 -12.07065,-15.43036 -13.4697,-18.04452 C 301.51157,290.35032 298,277.5709 298,273.36095 c 0,-7.49772 5.51999,-10.52972 12.09699,-6.64458 3.0378,1.79447 3.31491,2.34185 4.3851,8.66206 1.21598,7.18124 5.22678,13.97265 13.19324,22.33987 9.0523,9.50767 11.22517,10.39438 12.94279,5.2817 1.58335,-4.71302 5.40394,-12.82975 10.59085,-22.5 2.36007,-4.4 5.50339,-10.71266 6.98516,-14.02813 1.48178,-3.31547 3.75094,-7.59047 5.04258,-9.5 5.76298,-8.51981 12.29112,-25.96981 17.64269,-47.15966 1.60783,-6.36629 3.39188,-12.45059 3.96457,-13.52067 0.57269,-1.07008 1.34308,-4.38593 1.71197,-7.36857 2.4113,-19.49616 14.76662,-45.49051 24.36966,-51.27128 15.74468,-9.47787 23.24842,-10.47115 45.91516,-6.07786 11.14894,2.16091 12.79072,2.7608 17,6.21171 2.56258,2.10089 7.00931,5.29753 9.88161,7.10365 5.86734,3.6894 11.27763,9.35401 11.27763,11.80775 0,0.89504 1.07196,3.46688 2.38214,5.7152 4.14761,7.11748 11.74911,38.97479 10.87777,45.58786 -0.10871,0.825 0.28619,2.85 0.87754,4.5 1.09325,3.05037 2.79658,15.33445 3.25856,23.5 0.36723,6.49076 2.50382,13.74932 5.76372,19.58086 1.56215,2.79447 2.84027,5.94544 2.84027,7.00215 0,1.82799 10.941,23.75799 12.761,25.57799 1.86756,1.86756 5.43533,-4.11699 7.74914,-12.99833 1.29602,-4.97463 2.83642,-9.94172 3.42313,-11.03798 0.5867,-1.09626 1.06673,-3.38244 1.06673,-5.08039 0,-3.83765 3.21654,-5.60146 8.43104,-4.62321 6.01891,1.12915 7.12701,3.98386 5.58408,14.38581 -0.70921,4.7812 -2.12774,10.6628 -3.15229,13.07022 -1.02456,2.40741 -1.86283,4.79994 -1.86283,5.31672 0,0.51678 -1.07996,2.37208 -2.3999,4.12288 -1.31995,1.7508 -3.81954,5.82637 -5.55464,9.05681 -3.498,6.51262 -3.54081,5.59134 1.00502,21.62647 1.1694,4.125 2.81653,13.25667 3.66028,20.29261 1.58195,13.19177 1.17434,20.37233 -2.67224,47.07414 -1.1281,7.83089 -6.10316,19.70268 -10.11342,24.13325 -1.49347,1.65 -4.3044,5.514 -6.2465,8.58666 -1.9421,3.07267 -4.80178,6.39231 -6.35484,7.37698 -1.55307,0.98467 -3.72376,2.65761 -4.82376,3.71765 C 519.15592,435.44021 508.93515,442 507.75962,442 c -0.44431,0 -3.09748,1.575 -5.89594,3.5 -4.50209,3.09689 -7.36659,4.09922 -10.23002,3.57964 -0.47649,-0.0865 -1.82649,0.46698 -3,1.22986 -1.17351,0.76288 -5.95866,1.95698 -10.63366,2.65354 -10.93661,1.62954 -13.57936,2.46528 -13.16077,4.16196 0.18657,0.75625 0.58547,6.325 0.88644,12.375 l 0.54721,11 19.61356,-0.0898 c 10.78746,-0.0494 20.3964,0.30146 21.35321,0.77965 2.44535,1.22212 4.98358,6.53144 4.24101,8.87109 -1.23605,3.89442 -6.09199,5.2175 -20.9789,5.71605 -8.54119,0.28604 -15.53049,0.0441 -17.92166,-0.62035 -2.75629,-0.76592 -6.09349,-0.78694 -11.24217,-0.0708 -4.86594,0.67679 -9.11073,0.68782 -12.65365,0.0329 -5.06496,-0.93631 -24.10274,-0.1025 -32.68428,1.4315 -1.925,0.3441 -3.81279,0.31079 -4.19508,-0.074 z m 33.79586,-16.48684 c 2.76881,-0.96522 2.90714,-1.30257 3.07536,-7.5 0.0969,-3.56913 0.31164,-8.26206 0.47727,-10.42872 0.16562,-2.16667 0.0481,-4.19245 -0.26121,-4.50174 -0.30928,-0.30929 -4.91156,-0.72986 -10.22727,-0.93461 L 429,456.25199 l 0,5.72731 c 0,3.15003 0.2866,8.46938 0.63689,11.8208 0.58503,5.59719 0.84972,6.12633 3.25,6.49686 5.17176,0.79835 9.86716,0.68474 12.71389,-0.30763 z"
       style="fill:#eeeed8" />
    <path
       id="path10506"
       d="m 409.88659,494.5836 c -0.91443,-0.95966 -19.80151,-1.73625 -42.38659,-1.74282 -11,-0.003 -21.66036,-0.42872 -23.68969,-0.9456 -5.0847,-1.29511 -5.87406,-4.17542 -2.19631,-8.01417 l 2.80835,-2.93129 32.53883,0.36998 c 25.53584,0.29035 33.10951,0.086 35.1905,-0.9497 l 2.65169,-1.31968 -0.13552,-13.5648 c -0.1537,-15.38506 0.82714,-13.93232 -10.03467,-14.86263 -3.22675,-0.27638 -8.17675,-1.60076 -11,-2.94307 -2.82325,-1.34232 -8.73318,-4.13073 -13.13318,-6.19648 -4.4,-2.06575 -9.22954,-4.61956 -10.73231,-5.67512 -1.50277,-1.05557 -6.05557,-3.81331 -10.11733,-6.12832 -14.03149,-7.99728 -22.48251,-21.23004 -24.61287,-38.53927 C 334.58797,387.48828 333.4232,380.9 332.44912,376.5 c -2.61307,-11.80342 -2.41551,-32.45487 0.41076,-42.93834 2.85124,-10.57607 2.78089,-11.16941 -1.60988,-13.57868 -2.0625,-1.13171 -5.53233,-3.05336 -7.71073,-4.27032 C 319.66173,313.54647 311.48742,304.45523 306.26438,296.5 303.20024,291.833 299,278.22013 299,272.95635 299,269.04205 301.37214,266 304.42445,266 c 3.05004,0 7.63697,3.37252 8.14684,5.98992 2.18727,11.22843 4.53406,15.89226 12.57774,24.99602 10.5993,11.9962 14.83963,13.82551 16.83794,7.26406 1.93427,-6.35111 4.22372,-11.43456 8.73618,-19.39754 2.38353,-4.20615 5.42821,-10.34115 6.76594,-13.63333 1.33773,-3.29218 3.76948,-8.17579 5.40388,-10.85246 7.60192,-12.44969 13.04536,-26.32857 18.5777,-47.36667 0.94011,-3.575 2.61985,-9.2 3.73276,-12.5 1.11291,-3.3 2.38158,-8.7 2.81926,-12 1.93945,-14.62265 7.87731,-29.67411 16.72499,-42.39493 2.75586,-3.96227 5.5096,-6.38563 10.36964,-9.12557 10.50133,-5.92031 15.76581,-7.31083 24.71985,-6.52933 14.65941,1.27945 30.58894,4.74681 31.87972,6.9392 0.43071,0.73156 3.93311,3.46105 7.78311,6.06553 3.85,2.60448 8.27262,5.93009 9.82804,7.39026 6.54234,6.14167 14.4581,29.64187 17.09739,50.75849 0.83203,6.65701 1.91637,13.18201 2.40964,14.5 0.49327,1.31799 1.20207,7.12135 1.57511,12.89635 0.76715,11.87609 2.51706,18.96118 6.70315,27.13998 1.58767,3.10199 2.88667,6.3381 2.88667,7.19136 0,1.84594 10.19979,22.17855 12.76836,25.45289 l 1.79188,2.28422 2.71737,-2.83633 c 1.84264,-1.9233 3.37396,-5.39481 4.75704,-10.78423 1.12181,-4.37134 2.69793,-9.6445 3.5025,-11.71813 0.80457,-2.07363 1.46285,-4.87029 1.46285,-6.21481 0,-4.80956 6.59112,-6.01474 10.6572,-1.94866 2.08536,2.08536 2.44563,3.16291 1.92244,5.75 -0.35411,1.75104 -1.08879,6.29892 -1.63262,10.10641 -0.54383,3.80748 -1.37431,7.40748 -1.84551,8 -0.4712,0.59251 -1.18904,2.2023 -1.59519,3.5773 -0.40615,1.375 -1.74629,3.85 -2.9781,5.5 -1.23181,1.65 -3.25701,5.025 -4.50045,7.5 -1.24344,2.475 -2.94271,5.27602 -3.77617,6.22448 -1.17191,1.33361 -1.28559,2.35358 -0.50156,4.5 6.8939,18.87318 9.41261,36.10147 8.15418,55.77552 -0.45734,7.15 -1.27703,14.8 -1.82153,17 -0.54451,2.2 -1.26048,6.52539 -1.59106,9.61198 -0.75097,7.01176 -5.07148,16.27953 -10.95825,23.50616 -2.48435,3.0498 -5.20296,6.99064 -6.04135,8.75742 -0.83839,1.76677 -2.8507,3.99581 -4.4718,4.95342 -1.6211,0.95761 -3.71179,2.51284 -4.64598,3.45606 -1.86804,1.88612 -6.38004,4.7645 -13.54692,8.64214 -2.56997,1.39048 -6.34527,3.6632 -8.38955,5.05048 -2.04428,1.38729 -5.02642,2.52234 -6.62699,2.52234 -1.60056,0 -4.23625,0.68578 -5.8571,1.52395 -1.62084,0.83817 -7.23269,2.16729 -12.47078,2.95361 -5.23809,0.78632 -9.96557,1.70271 -10.50552,2.03641 -0.53995,0.33371 -0.73403,2.26708 -0.43129,4.29639 0.30274,2.0293 0.66106,7.96464 0.79627,13.18964 l 0.24584,9.5 8.95589,0.10463 c 4.92575,0.0575 11.74758,0.43682 15.15964,0.84282 4.04601,0.48144 7.45763,0.32437 9.80881,-0.45159 4.72028,-1.55784 8.85975,0.0745 10.55254,4.16127 1.0916,2.63536 0.99644,3.22578 -0.81119,5.03341 -1.83436,1.83437 -3.64833,2.10067 -17.40087,2.5546 -9.45639,0.31213 -16.82598,0.0962 -19.18814,-0.56208 -2.72364,-0.75908 -4.60742,-0.7584 -6.5,0.002 -1.46569,0.58915 -6.03989,0.97406 -10.16489,0.85536 -17.69281,-0.50913 -29.01214,-0.39441 -36.5,0.36995 -4.4,0.44915 -8.27603,0.52694 -8.61341,0.17288 z m 35.00829,-12.92812 4.39488,-1.31416 0.37636,-7.42066 c 0.60586,-11.94546 0.61586,-15.97201 0.0411,-16.54678 -0.29688,-0.29688 -5.18995,-0.61496 -10.8735,-0.70683 L 428.5,455.5 l -0.26718,7 c -0.14695,3.85 0.0794,9.69582 0.50305,12.99071 0.72116,5.60899 0.9612,6.03155 3.76718,6.63168 4.84719,1.0367 7.72614,0.92823 12.39183,-0.46691 z m -76.6409,-93.79124 c 1.08127,-1.44967 2.1879,-4.60497 2.45918,-7.01177 0.69783,-6.19111 -1.64632,-8.89653 -7.80949,-9.01305 -12.07958,-0.22837 -14.63983,11.59595 -3.69178,17.05015 5.15401,2.56767 6.4738,2.41802 9.04209,-1.02533 z m -10.68801,-3.07351 c -1.02196,-1.45907 -1.21101,-2.54569 -0.5567,-3.2 0.5449,-0.5449 0.99073,-1.97063 0.99073,-3.16829 0,-3.27993 2.90815,-4.97722 7.77475,-4.53759 1.72535,0.15585 3.46691,5.01618 2.77921,7.75619 -1.35959,5.41702 -8.0555,7.3364 -10.98799,3.14969 z m 51.84514,-3.86746 c 3.50665,-4.16742 3.3923,-8.27371 -0.33419,-12.00019 C 407.46923,367.31538 405.15985,366 403.94496,366 c -2.75332,0 -8.63949,3.56071 -9.95761,6.02364 -3.14017,5.86746 1.13343,11.97636 8.3783,11.97636 3.7488,0 4.86771,-0.48862 7.04546,-3.07673 z m -10.26931,-0.5057 c -3.36717,-1.41579 -3.81264,-2.34673 -1.99342,-4.16595 0.6316,-0.6316 1.1941,-2.4091 1.25,-3.95 0.0823,-2.26905 0.61498,-2.86086 2.80217,-3.11327 3.59646,-0.41504 6.67403,1.35157 7.87992,4.5233 0.80373,2.11397 0.59535,3.00453 -1.1337,4.84501 -2.80892,2.98996 -5.01226,3.45563 -8.80497,1.86091 z"
       style="fill:#d3d5ac" />
    <path
       id="path10504"
       d="m 410,493.36844 c -2.55253,-1.16746 -7.69596,-1.72287 -19,-2.05172 -15.45676,-0.44966 -18.70319,-0.47082 -37.36762,-0.24355 -7.5016,0.0913 -10.2225,-0.23471 -11.34762,-1.35984 -3.08386,-3.08386 2.86324,-8.41737 8.03464,-7.20567 1.19933,0.28102 14.6554,0.67814 29.90239,0.88251 22.16284,0.29706 28.07837,0.10105 29.5,-0.9775 0.97801,-0.74198 2.53539,-1.36337 3.46082,-1.38087 0.92544,-0.0175 1.89972,-0.8193 2.16506,-1.7818 0.72255,-2.62095 0.18219,-27.05348 -0.61598,-27.85165 -0.38029,-0.38028 -4.18799,-1.00653 -8.46156,-1.39166 -6.72736,-0.60625 -9.38056,-1.49542 -19.77013,-6.62559 -6.6,-3.25895 -14.025,-7.29087 -16.5,-8.95981 -2.475,-1.66895 -7.14439,-4.35899 -10.37643,-5.97787 -4.29991,-2.15377 -7.50087,-4.87358 -11.93151,-10.13806 -7.05328,-8.38068 -10.19715,-15.90034 -11.62505,-27.80536 -0.52774,-4.4 -1.69191,-12.5 -2.58704,-18 -1.80634,-11.09874 -1.44937,-33.82015 0.59124,-37.63306 0.6248,-1.16745 1.46464,-4.5444 1.86631,-7.50433 l 0.73032,-5.38171 -8.3108,-4.53022 c -7.06453,-3.85087 -9.30538,-5.76141 -14.94315,-12.74045 -7.56559,-9.3655 -9.37879,-12.91849 -12.4698,-24.43476 -2.07627,-7.73567 -2.10913,-8.37465 -0.55273,-10.75 2.14222,-3.26946 6.47013,-3.36626 9.43433,-0.21102 1.19587,1.27295 2.16779,2.96045 2.15982,3.75 -0.008,0.78955 1.00453,4.56674 2.25,8.39374 1.93127,5.9343 3.52297,8.36226 10.81691,16.5 6.74074,7.52056 9.35076,9.74173 12.32122,10.48558 4.29959,1.07667 4.94712,0.51367 6.70081,-5.82613 1.21144,-4.37951 1.68303,-5.48081 4.76076,-11.11764 5.49019,-10.05526 11.16831,-21.57499 11.20372,-22.73002 0.0214,-0.69849 1.5795,-3.74498 3.46242,-6.76998 C 367.49166,255.58937 376,238.5104 376,236.9112 c 0,-0.60306 1.07613,-4.31728 2.39139,-8.25383 1.31527,-3.93655 3.37401,-10.75737 4.57499,-15.15737 1.20098,-4.4 3.27486,-11.47547 4.60861,-15.72328 1.33376,-4.2478 2.42501,-8.74797 2.42501,-10.00037 0,-2.55506 2.33688,-13.68934 3.83588,-18.27635 4.45586,-13.63522 14.65253,-27.44586 24.0091,-32.51856 9.91417,-5.375 14.58237,-6.25428 26.35319,-4.96373 18.06911,1.98109 22.83813,3.21323 28.31866,7.31649 2.74074,2.05199 7.90817,5.85831 11.48317,8.45847 5.72531,4.16413 7.00234,5.73943 10.71486,13.21746 2.31817,4.66943 4.23067,9.11867 4.25,9.8872 0.0193,0.76853 0.93897,3.91853 2.04365,7 1.80423,5.03286 5.65761,26.9228 8.02762,45.60267 0.48848,3.85 1.31814,10.375 1.8437,14.5 1.17257,9.20319 2.18553,12.54901 5.52386,18.24545 1.42797,2.43665 2.59631,5.29416 2.59631,6.35003 0,1.05588 2.38152,6.64134 5.29227,12.41215 6.6414,13.16713 8.94231,16.98772 10.20773,16.9496 1.75866,-0.053 6.47911,-7.15895 7.55813,-11.3777 0.57388,-2.24374 1.92057,-6.87362 2.99264,-10.28863 1.07208,-3.415 1.94923,-7.32036 1.94923,-8.67857 0,-5.20096 5.67375,-7.3166 10.07153,-3.75549 2.27165,1.83947 2.28084,1.94001 0.98299,10.75 -1.46947,9.97489 -3.7868,16.64908 -7.90142,22.75699 -4.1312,6.13254 -9.1106,15.34533 -8.58048,15.87545 0.46625,0.46626 1.8822,5.33999 5.30524,18.26072 1.01996,3.85 2.42337,11.95 3.1187,18 1.26466,11.00389 0.64111,20.94357 -2.89879,46.20786 -1.74331,12.44197 -12.94996,30.43359 -25.69687,41.2548 -3.05041,2.58957 -5.22954,3.96369 -14.7153,9.27916 C 494.48527,447.07844 492.50184,448 489.98811,448 c -1.42346,0 -3.02168,0.43357 -3.5516,0.96349 -0.52992,0.52992 -5.68242,1.67183 -11.45,2.53758 -5.76758,0.86575 -11.04085,2.12759 -11.71837,2.80409 -0.91881,0.91741 -0.99404,2.75036 -0.29602,7.21242 0.51471,3.29033 0.87446,9.15506 0.79943,13.03273 -0.075,3.87767 0.19936,7.5936 0.60975,8.25762 0.69689,1.1276 3.1947,1.25415 28.1187,1.42465 2.2,0.0151 5.85124,-0.30716 8.11386,-0.71602 3.62503,-0.65505 4.30828,-0.46581 5.75,1.59254 4.16699,5.94921 1.12947,7.12861 -17.72483,6.88213 -23.44865,-0.30655 -23.81364,-0.29289 -29.41063,1.10034 -4.39588,1.09425 -6.2232,1.08378 -11,-0.063 -7.27524,-1.74662 -16.4496,-1.92797 -22.2284,-0.43939 -8.81946,2.27184 -12.3597,2.44427 -16,0.77929 z m 35.06112,-10.71525 5.31761,-2.34681 -0.26249,-5.66661 c -0.14436,-3.11664 0.25532,-7.23557 0.88819,-9.15319 0.86842,-2.63135 0.86734,-4.3451 -0.004,-6.98658 -1.27271,-3.85635 0.12704,-3.51022 -16.1671,-3.99782 l -6.6671,-0.19952 -0.56685,3.09867 c -0.82082,4.48703 0.36135,23.8459 1.54313,25.26986 2.35403,2.83644 9.46943,2.82839 15.91904,-0.018 z m -77.49364,-92.36353 c 3.83751,-3.83751 5.60969,-12.22158 3.4402,-16.27532 -2.38313,-4.45292 -13.42842,-4.62523 -17.21457,-0.26856 -5.83259,6.71149 0.40604,17.10678 10.88546,18.13822 0.64822,0.0638 1.94823,-0.65365 2.88891,-1.59434 z M 359.11743,385.25 c -1.96813,-1.63688 -2.0144,-2.0063 -0.71579,-5.715 C 360.9883,372.14775 368,372.62706 368,380.19113 368,383.15425 364.95609,387 362.61078,387 c -0.76406,0 -2.33608,-0.7875 -3.49335,-1.75 z m 48.92846,-1.5318 C 410.67773,381.64425 413,377.66434 413,375.22783 c 0,-6.10117 -6.04935,-11.18521 -11.63953,-9.78217 -1.4731,0.36973 -4.18183,2.1757 -6.01941,4.01328 -4.5357,4.5357 -4.63246,9.27663 -0.26433,12.95217 3.38948,2.85206 10.14464,3.53288 12.96916,1.30709 z m -9.60476,-4.1573 c -1.65173,-1.22454 -1.75477,-1.74433 -0.69113,-3.48643 0.6875,-1.12603 1.25,-2.90529 1.25,-3.95391 0,-4.20789 7.12023,-3.14555 9.17731,1.36925 0.99427,2.18219 0.83116,2.87228 -1.1866,5.02008 -2.63597,2.80586 -5.67811,3.17983 -8.54958,1.05101 z"
       style="fill:#f9d72d" />
    <path
       id="path10502"
       d="m 410,493.36844 c -2.55253,-1.16746 -7.69596,-1.72287 -19,-2.05172 -15.45676,-0.44966 -18.70319,-0.47082 -37.36762,-0.24355 -7.5016,0.0913 -10.2225,-0.23471 -11.34762,-1.35984 -3.08386,-3.08386 2.86324,-8.41737 8.03464,-7.20567 1.19933,0.28102 14.6554,0.67814 29.90239,0.88251 22.16284,0.29706 28.07837,0.10105 29.5,-0.9775 0.97801,-0.74198 2.53539,-1.36337 3.46082,-1.38087 0.92544,-0.0175 1.89972,-0.8193 2.16506,-1.7818 0.72255,-2.62095 0.18219,-27.05348 -0.61598,-27.85165 -0.38029,-0.38028 -4.18799,-1.00653 -8.46156,-1.39166 -6.72406,-0.60596 -9.38566,-1.49722 -19.77013,-6.6202 -6.6,-3.25599 -13.125,-6.74161 -14.5,-7.74582 l -2.5,-1.82584 2.5,0.71681 c 3.74318,1.07327 2.42384,0.18216 -7.90332,-5.33802 -7.52883,-4.02439 -10.54635,-6.34825 -15.13722,-11.65757 -6.8028,-7.86738 -10.90136,-17.94537 -11.05914,-27.19342 -0.10132,-5.93878 -1.56132,-12.98951 -1.83105,-8.84263 -0.29411,4.52163 -1.83148,-1.35298 -3.07871,-11.76431 -1.39391,-11.63584 -0.74948,-31.44912 1.13757,-34.97511 0.5935,-1.10895 1.40772,-4.43804 1.80939,-7.39797 l 0.73032,-5.38171 -8.3108,-4.53022 c -7.06453,-3.85087 -9.30538,-5.76141 -14.94315,-12.74045 -7.56559,-9.3655 -9.37879,-12.91849 -12.4698,-24.43476 -2.07627,-7.73567 -2.10913,-8.37465 -0.55273,-10.75 2.14222,-3.26946 6.47013,-3.36626 9.43433,-0.21102 1.19587,1.27295 2.16779,2.96045 2.15982,3.75 -0.008,0.78955 1.00453,4.56674 2.25,8.39374 1.93127,5.9343 3.52297,8.36226 10.81691,16.5 6.74074,7.52056 9.35076,9.74173 12.32122,10.48558 4.29959,1.07667 4.94712,0.51367 6.70081,-5.82613 1.21144,-4.37951 1.68303,-5.48081 4.76076,-11.11764 5.49019,-10.05526 11.16831,-21.57499 11.20372,-22.73002 0.0214,-0.69849 1.5795,-3.74498 3.46242,-6.76998 C 367.49166,255.58937 376,238.5104 376,236.9112 c 0,-0.60306 1.07613,-4.31728 2.39139,-8.25383 1.31527,-3.93655 3.37401,-10.75737 4.57499,-15.15737 1.20098,-4.4 3.27486,-11.47547 4.60861,-15.72328 1.33376,-4.2478 2.42501,-8.74797 2.42501,-10.00037 0,-2.55506 2.33688,-13.68934 3.83588,-18.27635 4.45586,-13.63522 14.65253,-27.44586 24.0091,-32.51856 9.91417,-5.375 14.58237,-6.25428 26.35319,-4.96373 18.06911,1.98109 22.83813,3.21323 28.31866,7.31649 2.74074,2.05199 7.90817,5.85831 11.48317,8.45847 5.72531,4.16413 7.00234,5.73943 10.71486,13.21746 2.31817,4.66943 4.23067,9.11867 4.25,9.8872 0.0193,0.76853 0.93897,3.91853 2.04365,7 1.80423,5.03286 5.65761,26.9228 8.02762,45.60267 0.48848,3.85 1.31814,10.375 1.8437,14.5 1.17257,9.20319 2.18553,12.54901 5.52386,18.24545 1.42797,2.43665 2.59631,5.29416 2.59631,6.35003 0,1.05588 2.38152,6.64134 5.29227,12.41215 6.6414,13.16713 8.94231,16.98772 10.20773,16.9496 1.75866,-0.053 6.47911,-7.15895 7.55813,-11.3777 0.57388,-2.24374 1.92057,-6.87362 2.99264,-10.28863 1.07208,-3.415 1.94923,-7.32036 1.94923,-8.67857 0,-5.20096 5.67375,-7.3166 10.07153,-3.75549 2.27165,1.83947 2.28084,1.94001 0.98299,10.75 -1.46947,9.97489 -3.7868,16.64908 -7.90142,22.75699 -4.1312,6.13254 -9.1106,15.34533 -8.58048,15.87545 0.46625,0.46626 1.8822,5.33999 5.30524,18.26072 1.01996,3.85 2.42337,11.95 3.1187,18 1.26466,11.00389 0.64111,20.94357 -2.89879,46.20786 -1.74331,12.44197 -12.94996,30.43359 -25.69687,41.2548 -3.05041,2.58957 -5.22954,3.96369 -14.7153,9.27916 C 494.48527,447.07844 492.50184,448 489.98811,448 c -1.42346,0 -3.02168,0.43357 -3.5516,0.96349 -0.52992,0.52992 -5.68242,1.67183 -11.45,2.53758 -5.76758,0.86575 -11.04085,2.12759 -11.71837,2.80409 -0.91881,0.91741 -0.99404,2.75036 -0.29602,7.21242 0.51471,3.29033 0.87446,9.15506 0.79943,13.03273 -0.075,3.87767 0.19936,7.5936 0.60975,8.25762 0.69689,1.1276 3.1947,1.25415 28.1187,1.42465 2.2,0.0151 5.85124,-0.30716 8.11386,-0.71602 3.62503,-0.65505 4.30828,-0.46581 5.75,1.59254 4.16699,5.94921 1.12947,7.12861 -17.72483,6.88213 -23.44865,-0.30655 -23.81364,-0.29289 -29.41063,1.10034 -4.39588,1.09425 -6.2232,1.08378 -11,-0.063 -7.27524,-1.74662 -16.4496,-1.92797 -22.2284,-0.43939 -8.81946,2.27184 -12.3597,2.44427 -16,0.77929 z m 35.06112,-10.71525 5.31761,-2.34681 -0.26249,-5.66661 c -0.14436,-3.11664 0.25532,-7.23557 0.88819,-9.15319 0.86842,-2.63135 0.86734,-4.3451 -0.004,-6.98658 -1.27271,-3.85635 0.12704,-3.51022 -16.1671,-3.99782 l -6.6671,-0.19952 -0.56685,3.09867 c -0.82082,4.48703 0.36135,23.8459 1.54313,25.26986 2.35403,2.83644 9.46943,2.82839 15.91904,-0.018 z m -53.85901,-78.7878 C 397.48881,400.7086 407,391.65485 407,388.82731 c 0,-0.55516 1.52739,-2.7938 3.3942,-4.97475 5.33317,-6.2306 5.3842,-11.76191 0.16574,-17.9637 C 409.15197,364.21559 408,361.77293 408,360.46074 c 0,-3.32355 -7.52971,-12.23225 -14.0554,-16.62952 -2.99453,-2.01784 -8.24449,-4.44371 -11.66658,-5.39084 -3.42208,-0.94713 -5.98303,-2.10867 -5.69098,-2.58121 1.27599,-2.0646 -4.86652,-0.56538 -11.19489,2.73236 -15.41404,8.03232 -16.84191,9.45993 -24.43068,24.42618 -1.98324,3.91125 -3.78637,12.45148 -2.12568,10.06791 0.75065,-1.07741 1.27204,-0.36267 2.18845,3 0.66166,2.42791 1.82689,6.40704 2.58939,8.84252 0.7625,2.43548 1.38637,5.20973 1.38637,6.16501 0,1.82978 6.02353,7.57215 13.05241,12.44317 8.0054,5.54775 22.47085,5.69135 33.1497,0.32907 z M 375.75,397.9199 c -2.02114,-1.17721 -2.29058,-3.97932 -0.55,-5.7199 0.66,-0.66 2.85504,-1.2 4.87788,-1.2 2.02283,0 5.27002,-0.66524 7.21599,-1.47832 3.22873,-1.34905 3.73145,-1.32176 5.74915,0.31208 2.96073,2.39744 1.9499,5.32232 -2.58708,7.48586 -3.89458,1.85719 -11.98123,2.18728 -14.70594,0.60028 z M 359.11743,385.25 c -1.96813,-1.63688 -2.0144,-2.0063 -0.71579,-5.715 C 360.9883,372.14775 368,372.62706 368,380.19113 368,383.15425 364.95609,387 362.61078,387 c -0.76406,0 -2.33608,-0.7875 -3.49335,-1.75 z m 39.3237,-5.6891 c -1.65173,-1.22454 -1.75477,-1.74433 -0.69113,-3.48643 0.6875,-1.12603 1.25,-2.90529 1.25,-3.95391 0,-4.20789 7.12023,-3.14555 9.17731,1.36925 0.99427,2.18219 0.83116,2.87228 -1.1866,5.02008 -2.63597,2.80586 -5.67811,3.17983 -8.54958,1.05101 z"
       style="fill:#b0af94" />
    <path
       id="path10500"
       d="m 410.25,492.50913 c -2.3573,-1.02458 -3.25,-2.06466 -3.25,-3.78654 0,-2.64893 3.45911,-6.33399 6.45634,-6.87805 2.65882,-0.48263 3.92624,-6.8334 2.5989,-13.02257 -0.70706,-3.29689 -0.67164,-6.3985 0.11796,-10.33022 1.50269,-7.48241 0.40877,-8.57405 -9.28704,-9.26778 -6.51469,-0.46613 -8.8843,-1.30324 -22.33699,-7.89098 -8.27704,-4.05325 -13.92417,-7.08041 -12.54917,-6.72704 3.66287,0.94136 2.52365,0.16121 -7.90332,-5.41233 -7.52883,-4.02439 -10.54635,-6.34825 -15.13722,-11.65757 -6.8028,-7.86738 -10.90136,-17.94537 -11.05914,-27.19342 -0.10323,-6.05054 -1.53709,-12.85253 -1.86403,-8.84263 -0.33091,4.05862 -1.72459,-1.64798 -3.03712,-12.43587 -1.43875,-11.82529 -0.72132,-29.08166 1.45029,-34.88407 0.75752,-2.02403 1.63612,-5.84268 1.95244,-8.48588 0.55849,-4.66667 0.48137,-4.84747 -2.66338,-6.24397 -10.87646,-4.82995 -18.95221,-12.2388 -26.24098,-24.074 -2.61574,-4.24734 -7.43934,-19.15262 -7.47656,-23.10316 -0.0293,-3.11461 4.17645,-5.77294 6.86068,-4.33639 2.77922,1.4874 5.11834,5.05467 5.11834,7.80572 0,1.26355 1.11274,5.03583 2.47276,8.38285 4.41128,10.85625 21.23841,27.35079 26.02747,25.51305 0.69672,-0.26735 2.50822,-3.78284 4.02554,-7.81219 1.51732,-4.02935 5.09666,-11.60109 7.95408,-16.82609 2.85743,-5.225 6.02689,-11.75 7.04326,-14.5 1.01637,-2.75 3.33868,-7.37001 5.16068,-10.2667 C 368.81151,253.6709 376,238.576 376,236.47072 c 0,-0.86352 0.59949,-2.78519 1.33221,-4.27038 0.73271,-1.48519 2.79738,-8.10034 4.58816,-14.70034 1.79077,-6.6 4.34128,-15.26648 5.66779,-19.25885 1.32651,-3.99237 2.41184,-8.66516 2.41184,-10.38398 0,-1.71882 0.48371,-4.97734 1.0749,-7.24115 0.5912,-2.26381 1.53879,-5.91602 2.10577,-8.11602 0.56698,-2.2 2.59216,-7.34474 4.5004,-11.43276 7.56268,-16.20152 17.03423,-24.6743 31.91605,-28.55052 5.56584,-1.44972 9.62732,-1.34194 17.90288,0.47507 2.2,0.48305 7.53912,1.42999 11.86471,2.10431 5.22364,0.81434 8.74967,1.95522 10.5,3.3974 1.44941,1.19423 5.56029,4.1088 9.13529,6.47682 7.4172,4.91302 13,9.88468 13,11.57691 0,0.63519 1.17623,3.35941 2.61385,6.05383 4.15134,7.78056 7.55872,20.54379 9.85086,36.89894 0.92498,6.6 2.31501,14.475 3.08897,17.5 0.77396,3.025 1.35583,6.85 1.29306,8.5 -0.16651,4.37652 1.09463,15.37872 2.29252,20 0.57027,2.2 2.34723,6.53209 3.9488,9.62687 1.60157,3.09477 2.91194,6.39746 2.91194,7.33929 0,1.73 8.75568,19.8612 12.9341,26.78384 1.2449,2.0625 2.7815,3.74999 3.41468,3.74997 3.96561,-1e-4 10.20136,-14.69449 14.11004,-33.24997 0.49274,-2.33913 1.08106,-2.75 3.93779,-2.75 5.39101,0 6.03994,1.63624 4.72265,11.90794 -1.07621,8.39181 -4.19698,17.48795 -7.70276,22.45126 -0.83167,1.17744 -3.21422,5.02226 -5.29455,8.54405 -3.72316,6.30294 -3.7602,6.46744 -2.36461,10.5 8.69172,25.11465 10.04919,46.27583 4.9457,77.09675 -2.5437,15.36186 -12.09566,31.05869 -26.47433,43.50553 -1.24921,1.08137 -5.74921,3.8442 -10,6.13962 -4.25079,2.29542 -8.62871,4.94796 -9.72871,5.89454 -1.1,0.94657 -3.575,2.185 -5.5,2.75207 -1.925,0.56706 -5.75,1.7163 -8.5,2.55386 -2.75,0.83756 -8.375,2.03908 -12.5,2.67005 -11.17953,1.71004 -11.73753,1.85797 -12.27312,3.2537 -0.27155,0.70765 -0.13674,3.74903 0.29959,6.75863 0.43633,3.0096 1.00721,10.58616 1.26863,16.83679 0.42563,10.17699 0.27828,11.56183 -1.40989,13.25 -3.73276,3.73276 -20.03548,1.56156 -20.67923,-2.75406 -0.34851,-2.33634 2.1369,-4.72936 6.29402,-6.06006 2.94675,-0.94326 3.01429,-1.11863 3.80509,-9.88049 1.06995,-11.85467 1.06268,-12.47725 -0.18284,-15.67018 -0.97884,-2.50926 -1.5345,-2.75313 -6.3475,-2.78578 -2.90111,-0.0197 -7.87968,-0.17351 -11.06348,-0.34184 -3.24822,-0.17173 -6.069,0.14742 -6.42733,0.72721 -1.01998,1.65036 -0.40485,26.55597 0.70721,28.63388 1.38847,2.59437 1.26534,6.56529 -0.24115,7.77728 -1.21022,0.97364 -10.61302,3.27952 -13.04922,3.20011 -0.66043,-0.0215 -2.66328,-0.67481 -4.45078,-1.45173 z M 391.20211,403.86539 C 397.48881,400.7086 407,391.65485 407,388.82731 c 0,-0.55516 1.52739,-2.7938 3.3942,-4.97475 5.33317,-6.2306 5.3842,-11.76191 0.16574,-17.9637 C 409.15197,364.21559 408,361.77293 408,360.46074 c 0,-3.32355 -7.52971,-12.23225 -14.0554,-16.62952 -2.99453,-2.01784 -8.24449,-4.44371 -11.66658,-5.39084 -3.42208,-0.94713 -5.98303,-2.10867 -5.69098,-2.58121 1.27599,-2.0646 -4.86652,-0.56538 -11.19489,2.73236 -15.41404,8.03232 -16.84191,9.45993 -24.43068,24.42618 -1.98324,3.91125 -3.78637,12.45148 -2.12568,10.06791 0.75065,-1.07741 1.27204,-0.36267 2.18845,3 0.66166,2.42791 1.82689,6.40704 2.58939,8.84252 0.7625,2.43548 1.38637,5.20973 1.38637,6.16501 0,1.82978 6.02353,7.57215 13.05241,12.44317 8.0054,5.54775 22.47085,5.69135 33.1497,0.32907 z M 375.75,397.9199 c -2.02114,-1.17721 -2.29058,-3.97932 -0.55,-5.7199 0.66,-0.66 2.85504,-1.2 4.87788,-1.2 2.02283,0 5.27002,-0.66524 7.21599,-1.47832 3.22873,-1.34905 3.73145,-1.32176 5.74915,0.31208 2.96073,2.39744 1.9499,5.32232 -2.58708,7.48586 -3.89458,1.85719 -11.98123,2.18728 -14.70594,0.60028 z M 359.73738,384.75 c -1.41653,-1.07647 -1.47777,-1.77634 -0.44113,-5.04138 1.19148,-3.75275 4.26564,-5.71545 6.64691,-4.24375 1.61366,0.9973 1.25809,7.19102 -0.51459,8.9637 -1.89699,1.897 -3.49885,1.98747 -5.69119,0.32143 z m 39.27098,-5.72367 c -1.18796,-0.75105 -1.23886,-1.19583 -0.25,-2.18469 0.6829,-0.6829 1.24164,-2.29076 1.24164,-3.57302 0,-2.80243 2.10295,-3.81907 4.85413,-2.34668 2.93835,1.57255 3.66292,4.84925 1.58102,7.14972 -1.87552,2.07242 -5.01956,2.47657 -7.42679,0.95467 z"
       style="fill:#9dd352" />
    <path
       id="path10498"
       d="m 410.25,492.50913 c -2.3573,-1.02458 -3.25,-2.06466 -3.25,-3.78654 0,-2.64893 3.45911,-6.33399 6.45634,-6.87805 2.65882,-0.48263 3.92624,-6.8334 2.5989,-13.02257 -0.70706,-3.29689 -0.67164,-6.3985 0.11796,-10.33022 1.50482,-7.49302 0.41364,-8.57585 -9.33621,-9.26478 -5.7338,-0.40515 -8.9758,-1.31843 -14.83699,-4.17958 -8.27632,-4.0401 -17.22331,-9.07553 -18,-10.13053 -0.275,-0.37354 -4.7315,-2.94502 -9.90332,-5.71439 -16.68825,-8.93608 -25.2637,-22.03127 -26.3268,-40.20247 -0.24133,-4.125 -0.92871,-8.4 -1.5275,-9.5 -0.5988,-1.1 -1.65434,-6.67476 -2.34564,-12.38837 -1.0092,-8.34097 -1.00921,-12.37316 -8e-5,-20.45914 0.69125,-5.53892 1.6131,-10.76416 2.04855,-11.61163 0.43545,-0.84747 1.09136,-4.29237 1.45758,-7.65532 l 0.66585,-6.11447 -3.28432,-1.35496 c -10.95788,-4.52073 -19.92361,-12.5839 -27.28678,-24.5399 -2.61574,-4.24734 -7.43934,-19.15262 -7.47656,-23.10316 -0.0293,-3.11461 4.17645,-5.77294 6.86068,-4.33639 2.77922,1.4874 5.11834,5.05467 5.11834,7.80572 0,1.26355 1.11274,5.03583 2.47276,8.38285 3.27211,8.05272 16.02475,22.3018 22.40879,25.03832 5.5824,2.3929 6.14458,1.92042 9.72654,-8.17471 1.46146,-4.11886 2.9903,-7.93884 3.39742,-8.48884 C 351.97808,289.83518 361,271.53116 361,270.19398 c 0,-0.83936 1.96774,-4.71388 4.37275,-8.61005 C 370.89505,252.63771 377,240.16913 377,237.83677 c 0,-0.9808 0.85902,-3.70781 1.90894,-6.06002 1.04991,-2.35221 2.38364,-6.07675 2.96385,-8.27675 2.72624,-10.33734 5.3368,-19.39671 6.77178,-23.5 0.86554,-2.475 1.9509,-6.975 2.41191,-10 2.58971,-16.99282 2.62807,-17.12349 8.6603,-29.5 6.43219,-13.19711 10.93245,-18.16512 20.92928,-23.10465 9.6575,-4.77186 12.49399,-5.29022 23.50493,-4.29541 14.70693,1.32873 22.86234,3.04527 25.74325,5.41841 1.43317,1.18057 5.53076,4.08395 9.10576,6.45197 7.4172,4.91302 13,9.88468 13,11.57691 0,0.63519 1.17623,3.35941 2.61385,6.05383 4.15134,7.78056 7.55872,20.54379 9.85086,36.89894 0.92498,6.6 2.31501,14.475 3.08897,17.5 0.77396,3.025 1.35583,6.85 1.29306,8.5 -0.16651,4.37652 1.09463,15.37872 2.29252,20 0.57027,2.2 2.34723,6.53209 3.9488,9.62687 1.60157,3.09477 2.91194,6.39746 2.91194,7.33929 0,1.73 8.75568,19.8612 12.9341,26.78384 1.2449,2.0625 2.7815,3.74999 3.41468,3.74997 3.96561,-1e-4 10.20136,-14.69449 14.11004,-33.24997 0.49274,-2.33913 1.08106,-2.75 3.93779,-2.75 5.39101,0 6.03994,1.63624 4.72265,11.90794 -1.07621,8.39181 -4.19698,17.48795 -7.70276,22.45126 -0.83167,1.17744 -3.21422,5.02226 -5.29455,8.54405 -3.72316,6.30294 -3.7602,6.46744 -2.36461,10.5 8.69172,25.11465 10.04919,46.27583 4.9457,77.09675 -2.5437,15.36186 -12.09566,31.05869 -26.47433,43.50553 -1.24921,1.08137 -5.74921,3.8442 -10,6.13962 -4.25079,2.29542 -8.62871,4.94796 -9.72871,5.89454 -1.1,0.94657 -3.575,2.185 -5.5,2.75207 -1.925,0.56706 -5.75,1.7163 -8.5,2.55386 -2.75,0.83756 -8.375,2.03908 -12.5,2.67005 -11.17953,1.71004 -11.73753,1.85797 -12.27312,3.2537 -0.27155,0.70765 -0.13674,3.74903 0.29959,6.75863 0.43633,3.0096 1.00721,10.58616 1.26863,16.83679 0.42563,10.17699 0.27828,11.56183 -1.40989,13.25 -3.73276,3.73276 -20.03548,1.56156 -20.67923,-2.75406 -0.34851,-2.33634 2.1369,-4.72936 6.29402,-6.06006 2.94675,-0.94326 3.01429,-1.11863 3.80509,-9.88049 1.06995,-11.85467 1.06268,-12.47725 -0.18284,-15.67018 -0.97884,-2.50926 -1.5345,-2.75313 -6.3475,-2.78578 -2.90111,-0.0197 -7.87968,-0.17351 -11.06348,-0.34184 -3.24822,-0.17173 -6.069,0.14742 -6.42733,0.72721 -1.01998,1.65036 -0.40485,26.55597 0.70721,28.63388 1.38847,2.59437 1.26534,6.56529 -0.24115,7.77728 -1.21022,0.97364 -10.61302,3.27952 -13.04922,3.20011 -0.66043,-0.0215 -2.66328,-0.67481 -4.45078,-1.45173 z m 21.3082,-74.6033 c 0.37193,-0.60179 1.75988,-0.88702 3.08433,-0.63383 2.9314,0.56037 11.03934,-0.83164 14.07338,-2.41619 1.69115,-0.88322 2.55812,-0.87327 3.66097,0.042 1.0253,0.85092 1.64062,0.88289 2.11825,0.11006 0.37025,-0.59908 1.53531,-0.81561 2.58903,-0.48117 1.32674,0.42109 1.91584,0.13024 1.91584,-0.9459 0,-0.85468 1.4625,-2.18728 3.25,-2.96132 1.7875,-0.77404 4.79993,-2.58008 6.69428,-4.01342 1.89435,-1.43334 3.91935,-2.61086 4.5,-2.61672 0.58065,-0.006 2.58142,-1.58085 4.44616,-3.5 C 479.89416,398.42718 482.2561,397 483.6652,397 c 1.62312,0 2.68774,-0.79811 3.3348,-2.5 0.66256,-1.74268 1.70466,-2.5 3.44007,-2.5 2.62598,0 4.55993,-2.46835 4.55993,-5.81995 0,-1.07329 0.67223,-3.24037 1.49384,-4.81574 0.82161,-1.57537 1.52946,-5.33931 1.573,-8.36431 0.0435,-3.025 0.40428,-7.77394 0.80164,-10.55321 0.39736,-2.77926 0.41409,-11.46404 0.0372,-19.29951 -0.5686,-11.82038 -0.99978,-14.5938 -2.53212,-16.28702 -1.01575,-1.12239 -1.91419,-3.38019 -1.99653,-5.01732 -0.0834,-1.65861 -1.52838,-4.69219 -3.26335,-6.85113 C 489.40115,312.86081 488,310.19089 488,309.05864 488,307.92639 487.52704,307 486.94897,307 485.52197,307 483,300.73311 483,297.18711 c 0,-1.60714 -0.88282,-3.67607 -2,-4.68711 -1.1,-0.99549 -2,-2.59209 -2,-3.548 0,-0.95591 -0.70381,-2.0081 -1.56401,-2.33819 -0.86021,-0.33009 -1.45665,-1.39074 -1.32541,-2.35699 0.13123,-0.96625 -0.91238,-4.19314 -2.31913,-7.17087 -1.91957,-4.06321 -2.3597,-6.10458 -1.76401,-8.18163 0.58104,-2.02598 0.24628,-3.78902 -1.24931,-6.57947 -1.78163,-3.32412 -1.96389,-4.92696 -1.42447,-12.52644 0.50749,-7.14951 0.3499,-8.86492 -0.87747,-9.5518 -0.99864,-0.55886 -1.60637,-2.81708 -1.82784,-6.79192 -0.18248,-3.27508 -0.67616,-6.74219 -1.09706,-7.70469 -0.4209,-0.9625 -0.49942,-2.44279 -0.17449,-3.28953 0.32492,-0.84675 0.21635,-2.30925 -0.24129,-3.25 -1.47326,-3.0286 -5.32378,-14.60236 -6.06335,-18.22501 -0.39462,-1.933 -1.50962,-4.72347 -2.47776,-6.20104 -1.06188,-1.62063 -1.50326,-3.4962 -1.11251,-4.72736 0.48725,-1.53519 0.0532,-2.31177 -1.7518,-3.13418 -1.31975,-0.60132 -3.17436,-2.40496 -4.12135,-4.00809 C 448.66174,181.31165 447.46237,180 446.94346,180 446.42456,180 446,179.11037 446,178.02305 c 0,-1.08732 -1.125,-2.71407 -2.5,-3.61501 -1.50997,-0.98937 -2.5,-2.58254 -2.5,-4.02305 C 441,169.07325 440.55,168 440,168 c -0.55,0 -1,0.46583 -1,1.03518 0,0.69931 -0.65373,0.68532 -2.01484,-0.0431 -1.63338,-0.87416 -2.14064,-0.73883 -2.67936,0.71482 -0.81235,2.19197 -7.92404,9.2931 -9.30694,9.2931 -0.54938,0 -0.99886,0.8449 -0.99886,1.87756 0,1.03265 -0.74395,2.49498 -1.65323,3.24961 -2.6426,2.19316 -4.29942,6.97579 -3.08836,8.91499 0.79663,1.27563 0.53867,2.16076 -1.11034,3.80977 -1.18144,1.18144 -2.19241,2.71057 -2.24661,3.39807 -0.0542,0.6875 -0.1667,2.36644 -0.25,3.73099 -0.1009,1.65272 -1.09776,2.93638 -2.986,3.84508 -2.45535,1.18162 -2.72642,1.71927 -2.02631,4.01902 1.16811,3.83708 0.50513,16.46687 -0.92809,17.67998 -2.28809,1.93671 -4.47928,7.23656 -4.00901,9.69664 0.29107,1.52262 -0.19255,3.12593 -1.26699,4.20038 -0.95577,0.95576 -1.85137,3.16429 -1.99022,4.90783 -0.75652,9.49952 -1.73906,12.84701 -4.08448,13.91566 -2.31754,1.05594 -2.93748,3.19694 -2.47258,8.53923 0.10936,1.25665 -0.66811,3.50665 -1.72771,5 -1.0596,1.49336 -2.11003,3.61519 -2.3343,4.71519 -0.28473,1.3966 -1.09456,1.92453 -2.6842,1.74984 -1.83322,-0.20145 -2.15805,0.12289 -1.66833,1.66584 0.33446,1.05381 0.13981,2.20543 -0.43256,2.55918 C 386.4683,286.82861 386,288.36304 386,289.8847 c 0,1.66808 -1.00625,3.71199 -2.53413,5.14736 -1.94135,1.82381 -2.39544,3.0121 -1.94126,5.07999 0.50142,2.28296 -0.0332,3.20238 -3.46587,5.96099 -3.43167,2.75776 -4.05874,3.83581 -4.05874,6.97769 0,2.83358 -0.45956,3.83619 -1.93529,4.2221 -1.39715,0.36536 -1.78195,1.09246 -1.38383,2.61486 0.31893,1.21959 -0.23543,3.26908 -1.31471,4.86054 -1.02639,1.51347 -1.92023,3.20177 -1.98629,3.75177 -0.81109,6.7521 -4.36731,11.5 -8.61361,11.5 -2.65657,0 -8.76627,2.97569 -8.76627,4.26955 0,0.57292 -1.125,2.51662 -2.5,4.31934 -1.375,1.80272 -2.5,4.01272 -2.5,4.91111 0,0.89839 -1.05007,3.06592 -2.33348,4.81672 -1.28342,1.7508 -2.85842,5.58011 -3.5,8.50957 -1.39877,6.38673 -1.4764,8.21122 -0.26825,6.30407 0.93067,-1.46912 1.33397,-0.42266 4.57451,11.86964 2.29877,8.71985 2.35053,8.80119 9.1168,14.32594 9.05068,7.39001 10.49895,7.92248 21.86396,8.03841 9.61698,0.0981 10.33297,-0.0464 16.74857,-3.38094 C 397.4657,400.72792 407,391.58095 407,388.82731 c 0,-0.55516 1.52739,-2.7938 3.3942,-4.97475 5.33317,-6.2306 5.3842,-11.76191 0.16574,-17.9637 C 409.15197,364.21559 408,361.77293 408,360.46074 c 0,-3.32355 -7.52971,-12.23225 -14.0554,-16.62952 -2.99453,-2.01784 -8.20145,-4.43206 -11.57092,-5.36495 -5.43057,-1.50353 -6.06312,-1.93863 -5.5698,-3.83121 0.74869,-2.87232 6.9592,-13.56026 9.58479,-16.49491 2.49648,-2.79033 11.46658,-8.6998 17.11133,-11.27288 8.56397,-3.90377 24.89148,-1.61453 37,5.18768 7.86859,4.42034 10.59146,8.02783 17.69593,23.44505 1.95349,4.23922 2.28686,6.52157 2.19094,15 -0.0622,5.5 -0.63802,13.375 -1.27957,17.5 -1.81011,11.63859 -11.12767,29.72768 -17.85976,34.67292 -3.7274,2.73807 -6.86742,3.38653 -6.42611,1.32708 0.56817,-2.65148 -1.46686,0.18993 -5.15071,7.19167 -3.41836,6.49713 -3.41572,7.50162 0.0203,7.72938 0.65504,0.0434 1.49529,-0.41343 1.86722,-1.01522 z M 375.75,397.9199 c -2.03619,-1.18597 -2.3033,-4.22567 -0.5,-5.69015 0.6875,-0.55832 3.275,-1.25936 5.75,-1.55786 2.475,-0.29849 6.03582,-0.85862 7.91294,-1.24472 2.68817,-0.55292 3.69687,-0.31369 4.75,1.12655 1.95695,2.67629 1.73785,3.16819 -2.64307,5.93374 -4.2506,2.68328 -11.89164,3.40008 -15.26987,1.43244 z M 359.73738,384.75 c -1.41653,-1.07647 -1.47777,-1.77634 -0.44113,-5.04138 1.19148,-3.75275 4.26564,-5.71545 6.64691,-4.24375 1.61366,0.9973 1.25809,7.19102 -0.51459,8.9637 -1.89699,1.897 -3.49885,1.98747 -5.69119,0.32143 z m 39.27098,-5.72367 c -1.18796,-0.75105 -1.23886,-1.19583 -0.25,-2.18469 0.6829,-0.6829 1.24164,-2.29076 1.24164,-3.57302 0,-2.80243 2.10295,-3.81907 4.85413,-2.34668 2.93835,1.57255 3.66292,4.84925 1.58102,7.14972 -1.87552,2.07242 -5.01956,2.47657 -7.42679,0.95467 z"
       style="fill:#fab903" />
    <path
       id="path10496"
       d="m 410.25,492.50913 c -2.3573,-1.02458 -3.25,-2.06466 -3.25,-3.78654 0,-2.64893 3.45911,-6.33399 6.45634,-6.87805 2.65882,-0.48263 3.92624,-6.8334 2.5989,-13.02257 -0.70706,-3.29689 -0.67164,-6.3985 0.11796,-10.33022 1.50531,-7.49547 0.41384,-8.57787 -9.33621,-9.2586 -6.00863,-0.41951 -8.87591,-1.27781 -15.83699,-4.74067 -10.24982,-5.09888 -18.25243,-9.81362 -15.5,-9.13182 13.62222,3.37435 29.96868,-0.0197 40.58291,-8.42633 2.1544,-1.70631 3.91709,-2.61458 3.91709,-2.01836 0,1.848 2.99799,1.18977 3.03327,-0.66597 0.0513,-2.69789 3.54237,-6.35007 5.39164,-5.64044 0.88031,0.3378 2.26743,0.0607 3.0825,-0.61571 0.81506,-0.67644 2.34872,-1.00323 3.40811,-0.72619 2.38166,0.62282 10.81023,-0.85022 13.80039,-2.41185 1.69115,-0.88322 2.55812,-0.87327 3.66097,0.042 1.0253,0.85092 1.64062,0.88289 2.11825,0.11006 0.37025,-0.59908 1.53531,-0.81561 2.58903,-0.48117 1.32674,0.42109 1.91584,0.13024 1.91584,-0.9459 0,-0.85468 1.4625,-2.18728 3.25,-2.96132 1.7875,-0.77404 4.79993,-2.58008 6.69428,-4.01342 1.89435,-1.43334 3.91935,-2.61086 4.5,-2.61672 0.58065,-0.006 2.58142,-1.58085 4.44616,-3.5 C 479.89416,398.42718 482.2561,397 483.6652,397 c 1.62312,0 2.68774,-0.79811 3.3348,-2.5 0.66256,-1.74268 1.70466,-2.5 3.44007,-2.5 2.62598,0 4.55993,-2.46835 4.55993,-5.81995 0,-1.07329 0.67223,-3.24037 1.49384,-4.81574 0.82161,-1.57537 1.52946,-5.33931 1.573,-8.36431 0.0435,-3.025 0.40428,-7.77394 0.80164,-10.55321 0.39736,-2.77926 0.41409,-11.46404 0.0372,-19.29951 -0.5686,-11.82038 -0.99978,-14.5938 -2.53212,-16.28702 -1.01575,-1.12239 -1.91419,-3.38019 -1.99653,-5.01732 -0.0834,-1.65861 -1.52838,-4.69219 -3.26335,-6.85113 C 489.40115,312.86081 488,310.19089 488,309.05864 488,307.92639 487.52704,307 486.94897,307 485.52197,307 483,300.73311 483,297.18711 c 0,-1.60714 -0.88282,-3.67607 -2,-4.68711 -1.1,-0.99549 -2,-2.59209 -2,-3.548 0,-0.95591 -0.70381,-2.0081 -1.56401,-2.33819 -0.86021,-0.33009 -1.45665,-1.39074 -1.32541,-2.35699 0.13123,-0.96625 -0.91238,-4.19314 -2.31913,-7.17087 -1.91957,-4.06321 -2.3597,-6.10458 -1.76401,-8.18163 0.58104,-2.02598 0.24628,-3.78902 -1.24931,-6.57947 -1.78163,-3.32412 -1.96389,-4.92696 -1.42447,-12.52644 0.50749,-7.14951 0.3499,-8.86492 -0.87747,-9.5518 -0.99864,-0.55886 -1.60637,-2.81708 -1.82784,-6.79192 -0.18248,-3.27508 -0.67616,-6.74219 -1.09706,-7.70469 -0.4209,-0.9625 -0.49942,-2.44279 -0.17449,-3.28953 0.32492,-0.84675 0.21635,-2.30925 -0.24129,-3.25 -1.47326,-3.0286 -5.32378,-14.60236 -6.06335,-18.22501 -0.39462,-1.933 -1.50962,-4.72347 -2.47776,-6.20104 -1.06188,-1.62063 -1.50326,-3.4962 -1.11251,-4.72736 0.48725,-1.53519 0.0532,-2.31177 -1.7518,-3.13418 -1.31975,-0.60132 -3.17436,-2.40496 -4.12135,-4.00809 C 448.66174,181.31165 447.46237,180 446.94346,180 446.42456,180 446,179.11037 446,178.02305 c 0,-1.08732 -1.125,-2.71407 -2.5,-3.61501 -1.50997,-0.98937 -2.5,-2.58254 -2.5,-4.02305 C 441,169.07325 440.55,168 440,168 c -0.55,0 -1,0.46583 -1,1.03518 0,0.69931 -0.65373,0.68532 -2.01484,-0.0431 -1.63338,-0.87416 -2.14064,-0.73883 -2.67936,0.71482 -0.81235,2.19197 -7.92404,9.2931 -9.30694,9.2931 -0.54938,0 -0.99886,0.8449 -0.99886,1.87756 0,1.03265 -0.74395,2.49498 -1.65323,3.24961 -2.6426,2.19316 -4.29942,6.97579 -3.08836,8.91499 0.79663,1.27563 0.53867,2.16076 -1.11034,3.80977 -1.18144,1.18144 -2.19241,2.71057 -2.24661,3.39807 -0.0542,0.6875 -0.1667,2.36644 -0.25,3.73099 -0.1009,1.65272 -1.09776,2.93638 -2.986,3.84508 -2.45535,1.18162 -2.72642,1.71927 -2.02631,4.01902 1.16811,3.83708 0.50513,16.46687 -0.92809,17.67998 -2.28809,1.93671 -4.47928,7.23656 -4.00901,9.69664 0.29107,1.52262 -0.19255,3.12593 -1.26699,4.20038 -0.95577,0.95576 -1.85137,3.16429 -1.99022,4.90783 -0.75652,9.49952 -1.73906,12.84701 -4.08448,13.91566 -2.31754,1.05594 -2.93748,3.19694 -2.47258,8.53923 0.10936,1.25665 -0.66811,3.50665 -1.72771,5 -1.0596,1.49336 -2.11003,3.61519 -2.3343,4.71519 -0.28473,1.3966 -1.09456,1.92453 -2.6842,1.74984 -1.83322,-0.20145 -2.15805,0.12289 -1.66833,1.66584 0.33446,1.05381 0.13981,2.20543 -0.43256,2.55918 C 386.4683,286.82861 386,288.36304 386,289.8847 c 0,1.66808 -1.00625,3.71199 -2.53413,5.14736 -1.94135,1.82381 -2.39544,3.0121 -1.94126,5.07999 0.50142,2.28296 -0.0332,3.20238 -3.46587,5.96099 -3.43167,2.75776 -4.05874,3.83581 -4.05874,6.97769 0,2.83358 -0.45956,3.83619 -1.93529,4.2221 -1.39715,0.36536 -1.78195,1.09246 -1.38383,2.61486 0.31893,1.21959 -0.23543,3.26908 -1.31471,4.86054 -1.02639,1.51347 -1.92023,3.20177 -1.98629,3.75177 -0.81109,6.7521 -4.36731,11.5 -8.61361,11.5 -2.65657,0 -8.76627,2.97569 -8.76627,4.26955 0,0.57292 -1.125,2.51662 -2.5,4.31934 -1.375,1.80272 -2.5,4.01272 -2.5,4.91111 0,0.89839 -1.0739,3.06592 -2.38644,4.81672 -1.57881,2.10598 -2.98032,6.30413 -4.14128,12.40498 -1.63902,8.61309 -3.47228,11.5281 -3.47228,5.52118 0,-1.45149 -0.53943,-6.36997 -1.19873,-10.92994 -0.94755,-6.55354 -0.93147,-10.43248 0.0767,-18.51104 0.70151,-5.6211 1.63175,-10.91357 2.0672,-11.76104 0.43545,-0.84747 1.09136,-4.29237 1.45758,-7.65532 l 0.66585,-6.11447 -3.28432,-1.35496 c -10.95788,-4.52073 -19.92361,-12.5839 -27.28678,-24.5399 -2.61574,-4.24734 -7.43934,-19.15262 -7.47656,-23.10316 -0.0293,-3.11461 4.17645,-5.77294 6.86068,-4.33639 2.77922,1.4874 5.11834,5.05467 5.11834,7.80572 0,1.26355 1.11274,5.03583 2.47276,8.38285 3.27211,8.05272 16.02475,22.3018 22.40879,25.03832 5.5824,2.3929 6.14458,1.92042 9.72654,-8.17471 1.46146,-4.11886 2.9903,-7.93884 3.39742,-8.48884 C 351.97808,289.83518 361,271.53116 361,270.19398 c 0,-0.83936 1.96774,-4.71388 4.37275,-8.61005 C 370.89505,252.63771 377,240.16913 377,237.83677 c 0,-0.9808 0.85902,-3.70781 1.90894,-6.06002 1.04991,-2.35221 2.38364,-6.07675 2.96385,-8.27675 2.72624,-10.33734 5.3368,-19.39671 6.77178,-23.5 0.86554,-2.475 1.9509,-6.975 2.41191,-10 2.58971,-16.99282 2.62807,-17.12349 8.6603,-29.5 6.43219,-13.19711 10.93245,-18.16512 20.92928,-23.10465 9.6575,-4.77186 12.49399,-5.29022 23.50493,-4.29541 14.70693,1.32873 22.86234,3.04527 25.74325,5.41841 1.43317,1.18057 5.53076,4.08395 9.10576,6.45197 7.4172,4.91302 13,9.88468 13,11.57691 0,0.63519 1.17623,3.35941 2.61385,6.05383 4.15134,7.78056 7.55872,20.54379 9.85086,36.89894 0.92498,6.6 2.31501,14.475 3.08897,17.5 0.77396,3.025 1.35583,6.85 1.29306,8.5 -0.16651,4.37652 1.09463,15.37872 2.29252,20 0.57027,2.2 2.34723,6.53209 3.9488,9.62687 1.60157,3.09477 2.91194,6.39746 2.91194,7.33929 0,1.73 8.75568,19.8612 12.9341,26.78384 1.2449,2.0625 2.7815,3.74999 3.41468,3.74997 3.96561,-1e-4 10.20136,-14.69449 14.11004,-33.24997 0.49274,-2.33913 1.08106,-2.75 3.93779,-2.75 5.39101,0 6.03994,1.63624 4.72265,11.90794 -1.07621,8.39181 -4.19698,17.48795 -7.70276,22.45126 -0.83167,1.17744 -3.21422,5.02226 -5.29455,8.54405 -3.72316,6.30294 -3.7602,6.46744 -2.36461,10.5 8.69172,25.11465 10.04919,46.27583 4.9457,77.09675 -2.5437,15.36186 -12.09566,31.05869 -26.47433,43.50553 -1.24921,1.08137 -5.74921,3.8442 -10,6.13962 -4.25079,2.29542 -8.62871,4.94796 -9.72871,5.89454 -1.1,0.94657 -3.575,2.185 -5.5,2.75207 -1.925,0.56706 -5.75,1.7163 -8.5,2.55386 -2.75,0.83756 -8.375,2.03908 -12.5,2.67005 -11.17953,1.71004 -11.73753,1.85797 -12.27312,3.2537 -0.27155,0.70765 -0.13674,3.74903 0.29959,6.75863 0.43633,3.0096 1.00721,10.58616 1.26863,16.83679 0.42563,10.17699 0.27828,11.56183 -1.40989,13.25 -3.73276,3.73276 -20.03548,1.56156 -20.67923,-2.75406 -0.34851,-2.33634 2.1369,-4.72936 6.29402,-6.06006 2.94675,-0.94326 3.01429,-1.11863 3.80509,-9.88049 1.06995,-11.85467 1.06268,-12.47725 -0.18284,-15.67018 -0.97884,-2.50926 -1.5345,-2.75313 -6.3475,-2.78578 -2.90111,-0.0197 -7.87968,-0.17351 -11.06348,-0.34184 -3.24822,-0.17173 -6.069,0.14742 -6.42733,0.72721 -1.01998,1.65036 -0.40485,26.55597 0.70721,28.63388 1.38847,2.59437 1.26534,6.56529 -0.24115,7.77728 -1.21022,0.97364 -10.61302,3.27952 -13.04922,3.20011 -0.66043,-0.0215 -2.66328,-0.67481 -4.45078,-1.45173 z m 24.38765,-87.20482 c -0.30684,-0.30683 0.037,-1.73833 0.76408,-3.18109 1.50817,-2.99271 2.68607,-11.62009 2.88395,-21.12322 0.10803,-5.1876 -0.41192,-7.64847 -2.57516,-12.18807 C 434.21973,365.68348 433,362.70438 433,362.19169 c 0,-2.48225 -10.32782,-14.65071 -16.09101,-18.95877 -9.28299,-6.93918 -17.74463,-9.47247 -30.24666,-9.0554 -5.31675,0.17736 -9.66581,0.009 -9.66457,-0.37394 0.004,-1.21592 7.19293,-13.20673 9.39091,-15.66343 2.49648,-2.79033 11.46658,-8.6998 17.11133,-11.27288 8.56397,-3.90377 24.89148,-1.61453 37,5.18768 7.86859,4.42034 10.59146,8.02783 17.69593,23.44505 1.95349,4.23922 2.28686,6.52157 2.19094,15 -0.21778,19.25124 -3.60287,31.10274 -12.85317,45 -4.13648,6.21448 -11.15216,11.5482 -12.89605,9.80431 z M 375.75,397.9199 c -2.03619,-1.18597 -2.3033,-4.22567 -0.5,-5.69015 0.6875,-0.55832 3.275,-1.25936 5.75,-1.55786 2.475,-0.29849 6.03582,-0.85862 7.91294,-1.24472 2.68817,-0.55292 3.69687,-0.31369 4.75,1.12655 1.95695,2.67629 1.73785,3.16819 -2.64307,5.93374 -4.2506,2.68328 -11.89164,3.40008 -15.26987,1.43244 z M 359.73738,384.75 c -1.41653,-1.07647 -1.47777,-1.77634 -0.44113,-5.04138 1.19148,-3.75275 4.26564,-5.71545 6.64691,-4.24375 1.61366,0.9973 1.25809,7.19102 -0.51459,8.9637 -1.89699,1.897 -3.49885,1.98747 -5.69119,0.32143 z m 39.27098,-5.72367 c -1.18796,-0.75105 -1.23886,-1.19583 -0.25,-2.18469 0.6829,-0.6829 1.24164,-2.29076 1.24164,-3.57302 0,-2.80243 2.10295,-3.81907 4.85413,-2.34668 2.93835,1.57255 3.66292,4.84925 1.58102,7.14972 -1.87552,2.07242 -5.01956,2.47657 -7.42679,0.95467 z"
       style="fill:#95d049" />
    <path
       id="path10494"
       d="m 410.25,492.50913 c -2.3573,-1.02458 -3.25,-2.06466 -3.25,-3.78654 0,-2.64893 3.45911,-6.33399 6.45634,-6.87805 2.65882,-0.48263 3.92624,-6.8334 2.5989,-13.02257 -0.70706,-3.29689 -0.67164,-6.3985 0.11796,-10.33022 1.50531,-7.49547 0.41384,-8.57787 -9.33621,-9.2586 -6.04774,-0.42224 -8.91445,-1.28875 -16.31415,-4.93123 -4.93743,-2.43044 -9.21243,-4.7686 -9.5,-5.19591 -0.28756,-0.42732 -1.42284,-1.32961 -2.52284,-2.00511 -1.66815,-1.02438 -1.01538,-1.1296 3.93414,-0.63416 3.26378,0.32671 6.56983,1.12159 7.34678,1.7664 1.10929,0.92063 1.61726,0.80674 2.36555,-0.53038 1.1123,-1.98758 2.84361,-2.26016 2.87577,-0.45276 0.0122,0.6875 0.88215,2.3692 1.93315,3.73711 l 1.91092,2.48711 2.55695,-2.40213 c 2.20496,-2.07144 2.90248,-2.2447 5.06685,-1.25855 1.38044,0.62897 2.50989,1.56956 2.50989,2.0902 0,0.52064 2.925,0.92974 6.5,0.90912 3.575,-0.0206 6.5,-0.38817 6.5,-0.81677 0,-1.41504 5.14607,-2.11976 6.60959,-0.90514 1.93548,1.60631 10.32668,0.37847 11.87387,-1.73744 0.8372,-1.14494 2.08367,-1.47825 4.09226,-1.09428 3.03568,0.5803 7.17786,-1.05246 9.36956,-3.69329 0.71478,-0.86127 2.19611,-1.56594 3.29184,-1.56594 2.98767,0 11.63722,-5.02872 12.31326,-7.15875 0.32525,-1.02475 1.8643,-2.52145 3.42012,-3.32599 3.40329,-1.75992 8.78459,-7.91042 11.5295,-13.17753 1.1,-2.11075 2.82569,-4.73773 3.83486,-5.83773 4.80592,-5.23846 9.47802,-19.21734 10.83768,-32.4262 1.22981,-11.94747 1.14644,-33.30983 -0.15406,-39.47515 -1.44295,-6.84067 -5.73741,-21.20567 -7.09322,-23.72689 -1.65698,-3.08129 -3.04984,-9.51584 -2.94616,-13.61031 0.0451,-1.7812 -0.56257,-4.2562 -1.35038,-5.5 -0.78782,-1.2438 -1.75353,-3.83645 -2.14603,-5.76145 -0.3925,-1.925 -1.0654,-3.95 -1.49535,-4.5 -2.18796,-2.79895 -5.99036,-16.9367 -6.58937,-24.5 -0.37025,-4.675 -1.33082,-9.80132 -2.13459,-11.39182 -1.28486,-2.54246 -1.90823,-9.0161 -1.45481,-15.10818 0.27617,-3.7106 -0.5233,-16.2294 -1.09556,-17.15534 -0.59511,-0.96291 -1.78729,-17.77539 -2.12802,-30.00999 -0.11526,-4.13853 -0.75064,-7.82934 -1.50415,-8.73726 -0.71752,-0.86457 -1.03743,-2.26815 -0.7109,-3.11907 0.79464,-2.07079 -3.22344,-14.44817 -5.53261,-17.04279 C 461.8268,150.3001 461,148.70088 461,147.88172 461,146.41127 455.06386,140 453.70239,140 453.31608,140 453,140.64844 453,141.44098 c 0,2.01275 -1.95296,3.00606 -3.28713,1.67189 C 448.32841,141.72841 445,141.64869 445,143 c 0,2.02575 -3.07865,0.92148 -4.18195,-1.5 -0.6265,-1.375 -1.51685,-2.5 -1.97857,-2.5 C 438.37777,139 438,138.325 438,137.5 c 0,-0.825 -0.50246,-1.5 -1.11658,-1.5 -0.64876,0 -0.91836,1.03689 -0.64348,2.47486 0.64095,3.35289 -2.36142,6.2608 -4.38001,4.24221 -0.75778,-0.75778 -1.93627,-1.19162 -2.61886,-0.96409 C 428.51774,141.99409 428,141.29756 428,140.08333 428,138.68778 428.64079,138 429.94098,138 c 2.23769,0 3.99498,-2.18801 2.22984,-2.77639 -6.82017,-2.27339 18.478,-2.10494 29.45548,0.19613 3.58422,0.75132 7.49707,2.24987 8.69523,3.33012 1.19816,1.08026 5.10347,3.89051 8.67847,6.24502 7.39298,4.86904 13,9.85168 13,11.55235 0,0.63519 1.17623,3.35941 2.61385,6.05383 4.15134,7.78056 7.55872,20.54379 9.85086,36.89894 0.92498,6.6 2.31501,14.475 3.08897,17.5 0.77396,3.025 1.35583,6.85 1.29306,8.5 -0.16651,4.37652 1.09463,15.37872 2.29252,20 0.57027,2.2 2.34723,6.53209 3.9488,9.62687 1.60157,3.09477 2.91194,6.39746 2.91194,7.33929 0,1.73 8.75568,19.8612 12.9341,26.78384 1.2449,2.0625 2.7815,3.74999 3.41468,3.74997 3.96561,-1e-4 10.20136,-14.69449 14.11004,-33.24997 0.49274,-2.33913 1.08106,-2.75 3.93779,-2.75 5.39101,0 6.03994,1.63624 4.72265,11.90794 -1.07621,8.39181 -4.19698,17.48795 -7.70276,22.45126 -0.83167,1.17744 -3.21422,5.02226 -5.29455,8.54405 -3.72316,6.30294 -3.7602,6.46744 -2.36461,10.5 8.69172,25.11465 10.04919,46.27583 4.9457,77.09675 -2.5437,15.36186 -12.09566,31.05869 -26.47433,43.50553 -1.24921,1.08137 -5.74921,3.8442 -10,6.13962 -4.25079,2.29542 -8.62871,4.94796 -9.72871,5.89454 -1.1,0.94657 -3.575,2.185 -5.5,2.75207 -1.925,0.56706 -5.75,1.7163 -8.5,2.55386 -2.75,0.83756 -8.375,2.03908 -12.5,2.67005 -11.17953,1.71004 -11.73753,1.85797 -12.27312,3.2537 -0.27155,0.70765 -0.13674,3.74903 0.29959,6.75863 0.43633,3.0096 1.00721,10.58616 1.26863,16.83679 0.42563,10.17699 0.27828,11.56183 -1.40989,13.25 -3.73276,3.73276 -20.03548,1.56156 -20.67923,-2.75406 -0.34851,-2.33634 2.1369,-4.72936 6.29402,-6.06006 2.94675,-0.94326 3.01429,-1.11863 3.80509,-9.88049 1.06995,-11.85467 1.06268,-12.47725 -0.18284,-15.67018 -0.97884,-2.50926 -1.5345,-2.75313 -6.3475,-2.78578 -2.90111,-0.0197 -7.87968,-0.17351 -11.06348,-0.34184 -3.24822,-0.17173 -6.069,0.14742 -6.42733,0.72721 -1.01998,1.65036 -0.40485,26.55597 0.70721,28.63388 1.38847,2.59437 1.26534,6.56529 -0.24115,7.77728 -1.21022,0.97364 -10.61302,3.27952 -13.04922,3.20011 -0.66043,-0.0215 -2.66328,-0.67481 -4.45078,-1.45173 z m 25.22342,-90.10089 c 1.21827,-2.87414 2.70009,-14.0787 2.83127,-21.40824 0.0924,-5.16251 -0.44139,-7.67042 -2.59417,-12.18807 C 434.21973,365.68348 433,362.70438 433,362.19169 433,359.71774 422.67473,347.543 416.94483,343.2607 408.21148,336.73375 399.66079,334 387.979,334 383.04055,334 379,333.65115 379,333.22478 c 0,-0.42637 1.94377,-3.91387 4.3195,-7.75 6.42199,-10.36973 17.56625,-17.45662 29.1805,-18.55654 7.82358,-0.74093 15.62508,1.05607 25.43256,5.85815 9.41641,4.61059 10.38186,5.81315 18.24307,22.72361 2.04687,4.40306 2.30611,6.37296 2.1714,16.5 -0.25222,18.96113 -2.24276,25.69961 -12.8629,43.54415 -2.62552,4.41154 -11.57105,10.54527 -10.01071,6.86409 z M 375.75,397.9199 c -2.0363,-1.18604 -2.30303,-4.2239 -0.5,-5.69465 0.6875,-0.5608 3.5,-1.24792 6.25,-1.52693 2.75,-0.27901 6.16647,-0.81415 7.59217,-1.18921 2.96586,-0.78023 6.1733,1.63551 5.27604,3.97374 -1.64277,4.28098 -13.87936,7.19718 -18.61821,4.43705 z M 359.73738,384.75 c -1.41653,-1.07647 -1.47777,-1.77634 -0.44113,-5.04138 1.19148,-3.75275 4.26564,-5.71545 6.64691,-4.24375 1.61366,0.9973 1.25809,7.19102 -0.51459,8.9637 -1.89699,1.897 -3.49885,1.98747 -5.69119,0.32143 z m 39.27098,-5.72367 c -1.18796,-0.75105 -1.23886,-1.19583 -0.25,-2.18469 0.6829,-0.6829 1.24164,-2.29076 1.24164,-3.57302 0,-2.80243 2.10295,-3.81907 4.85413,-2.34668 2.93835,1.57255 3.66292,4.84925 1.58102,7.14972 -1.87552,2.07242 -5.01956,2.47657 -7.42679,0.95467 z M 333,319.12513 c -11.98272,-6.14605 -18.26402,-11.99545 -25.50246,-23.74892 -2.61574,-4.24734 -7.43934,-19.15262 -7.47656,-23.10316 -0.0293,-3.11461 4.17645,-5.77294 6.86068,-4.33639 2.77922,1.4874 5.11834,5.05467 5.11834,7.80572 0,1.26355 1.11274,5.03583 2.47276,8.38285 3.14465,7.73904 16.03281,22.30526 21.99809,24.86228 6.03721,2.58785 6.79048,3.89787 4.78519,8.32204 -1.87073,4.12729 -3.18534,4.41639 -8.25604,1.81558 z"
       style="fill:#879e62" />
    <path
       id="path10492"
       d="m 409.75,491.98833 c -3.79567,-2.3592 -1.43138,-7.63817 4.41672,-9.86162 l 2.66306,-1.01249 -0.10174,-15.12193 C 416.61147,448.66787 416.78717,449 407.73914,449 c -4.65861,0 -7.15081,-0.8911 -18.31574,-6.54891 l -12.9234,-6.5489 5.93414,0.57928 c 3.26378,0.31861 6.56983,1.10686 7.34678,1.75167 1.10929,0.92063 1.61726,0.80674 2.36555,-0.53038 1.1123,-1.98758 2.84361,-2.26016 2.87577,-0.45276 0.0122,0.6875 0.88215,2.3692 1.93315,3.73711 l 1.91092,2.48711 2.55695,-2.40213 c 2.20496,-2.07144 2.90248,-2.2447 5.06685,-1.25855 1.38044,0.62897 2.50989,1.56956 2.50989,2.0902 0,0.52064 2.925,0.92974 6.5,0.90912 3.575,-0.0206 6.5,-0.38817 6.5,-0.81677 0,-1.41504 5.14607,-2.11976 6.60959,-0.90514 1.93548,1.60631 10.32668,0.37847 11.87387,-1.73744 0.8372,-1.14494 2.08367,-1.47825 4.09226,-1.09428 3.03568,0.5803 7.17786,-1.05246 9.36956,-3.69329 0.71478,-0.86127 2.19611,-1.56594 3.29184,-1.56594 2.98767,0 11.63722,-5.02872 12.31326,-7.15875 0.32525,-1.02475 1.8643,-2.52145 3.42012,-3.32599 3.40329,-1.75992 8.78459,-7.91042 11.5295,-13.17753 1.1,-2.11075 2.84299,-4.73773 3.87331,-5.83773 1.90991,-2.03909 7.9021,-14.62394 7.73069,-16.23608 -0.0138,-0.12985 0.63214,-2.09892 1.43545,-4.37573 0.8033,-2.2768 1.46055,-5.96848 1.46055,-8.20372 0,-2.23524 0.50929,-6.56617 1.13175,-9.62427 1.29965,-6.38514 -0.12703,-36.09667 -1.83789,-38.27514 -0.55507,-0.70678 -1.8223,-4.43506 -2.81605,-8.28506 -0.99376,-3.85 -2.48374,-8.35 -3.31107,-10 -1.89452,-3.77836 -3.2942,-10.03047 -3.18764,-14.23855 0.0451,-1.7812 -0.56257,-4.2562 -1.35038,-5.5 -0.78782,-1.2438 -1.75353,-3.83645 -2.14603,-5.76145 -0.3925,-1.925 -1.0654,-3.95 -1.49535,-4.5 -2.18796,-2.79895 -5.99036,-16.9367 -6.58937,-24.5 -0.37025,-4.675 -1.33082,-9.80132 -2.13459,-11.39182 -1.28486,-2.54246 -1.90823,-9.0161 -1.45481,-15.10818 0.27617,-3.7106 -0.5233,-16.2294 -1.09556,-17.15534 -0.59511,-0.96291 -1.78729,-17.77539 -2.12802,-30.00999 -0.11526,-4.13853 -0.75064,-7.82934 -1.50415,-8.73726 -0.71752,-0.86457 -1.03743,-2.26815 -0.7109,-3.11907 0.79464,-2.07079 -3.22344,-14.44817 -5.53261,-17.04279 C 461.8268,150.3001 461,148.70088 461,147.88172 461,146.41127 455.06386,140 453.70239,140 453.31608,140 453,140.64844 453,141.44098 c 0,2.01275 -1.95296,3.00606 -3.28713,1.67189 C 448.32841,141.72841 445,141.64869 445,143 c 0,2.02575 -3.07865,0.92148 -4.18195,-1.5 -0.6265,-1.375 -1.51685,-2.5 -1.97857,-2.5 C 438.37777,139 438,138.325 438,137.5 c 0,-0.825 -0.50246,-1.5 -1.11658,-1.5 -0.64876,0 -0.91836,1.03689 -0.64348,2.47486 0.64095,3.35289 -2.36142,6.2608 -4.38001,4.24221 -0.75778,-0.75778 -1.93627,-1.19162 -2.61886,-0.96409 C 428.51774,141.99409 428,141.29756 428,140.08333 428,138.68778 428.64079,138 429.94098,138 c 2.39656,0 3.75573,-1.95137 2.08037,-2.9868 -2.8654,-1.77092 1.56753,-1.92388 15.62444,-0.53914 15.86587,1.56295 21.83002,2.82766 23.07655,4.89342 0.42771,0.70881 3.70266,3.22917 7.27766,5.60081 9.42194,6.25046 11.62946,8.6107 15.41303,16.47931 5.0441,10.49009 8.44405,22.38833 10.12226,35.42311 0.82349,6.39611 2.13956,14.55429 2.92461,18.12929 0.78504,3.575 1.71524,10.775 2.0671,16 0.70724,10.50211 2.90756,18.96266 6.86553,26.39894 1.43411,2.69442 2.60747,5.62462 2.60747,6.51157 0,1.65625 8.81258,19.64193 12.90576,26.33949 1.26048,2.0625 2.82604,3.75 3.47902,3.75 1.93441,0 7.56535,-8.08277 8.67524,-12.45263 0.56539,-2.22605 2.13318,-7.56266 3.48398,-11.85912 1.3508,-4.29646 2.456,-8.65363 2.456,-9.68261 0,-2.10197 2.85819,-3.38102 5.3869,-2.41067 3.16042,1.21277 3.55426,3.74491 1.99124,12.8023 -1.62803,9.43406 -4.18437,16.34539 -7.805,21.10162 -1.25652,1.65061 -3.25421,4.80111 -4.43933,7.00111 -1.18511,2.2 -2.69015,4.75565 -3.34452,5.67921 -0.95264,1.34456 -0.66414,3.3375 1.44763,10 3.6556,11.53323 4.81626,16.29538 5.80573,23.82079 1.12484,8.55494 1.09048,27.83161 -0.0642,36 -0.50534,3.575 -1.35926,9.80405 -1.89759,13.84233 -1.15538,8.66696 -5.18029,17.83096 -11.3875,25.92726 -2.41634,3.15173 -5.02335,6.93745 -5.79337,8.41271 -1.95658,3.74861 -11.09554,10.49844 -22.0727,16.30243 -2.56997,1.35882 -6.34527,3.60565 -8.38955,4.99293 -2.04428,1.38729 -4.72412,2.52234 -5.9552,2.52234 -1.23108,0 -3.88995,0.69009 -5.9086,1.53353 -2.01864,0.84345 -8.22599,2.21472 -13.79411,3.04728 -5.56811,0.83256 -10.52738,1.76314 -11.02058,2.06796 -0.49321,0.30482 -0.62582,3.32104 -0.29469,6.70272 0.33113,3.38168 0.7592,11.42229 0.95126,17.86802 0.4423,14.84361 0.15213,15.33808 -8.87472,15.123 C 441.91962,492.0656 438.53275,487.40428 447,483.34 l 4.5,-2.16 0.23541,-7.34 c 0.12948,-4.037 0.31923,-9.67581 0.42167,-12.53069 0.2824,-7.87045 -0.31374,-8.21146 -13.97588,-7.99467 L 426.5,453.5 426.72112,468 c 0.12161,7.975 0.50371,16.1478 0.8491,18.16178 0.5256,3.06475 0.28485,3.84542 -1.47664,4.78814 -3.04128,1.62764 -14.24981,2.33979 -16.34358,1.03841 z m 25.72342,-89.58009 c 1.21827,-2.87414 2.70009,-14.0787 2.83127,-21.40824 0.0924,-5.16251 -0.44139,-7.67042 -2.59417,-12.18807 C 434.21973,365.68348 433,362.70438 433,362.19169 433,359.71774 422.67473,347.543 416.94483,343.2607 408.21148,336.73375 399.66079,334 387.979,334 383.04055,334 379,333.65115 379,333.22478 c 0,-0.42637 1.94377,-3.91387 4.3195,-7.75 6.42199,-10.36973 17.56625,-17.45662 29.1805,-18.55654 7.82358,-0.74093 15.62508,1.05607 25.43256,5.85815 9.41641,4.61059 10.38186,5.81315 18.24307,22.72361 2.04687,4.40306 2.30611,6.37296 2.1714,16.5 -0.25222,18.96113 -2.24276,25.69961 -12.8629,43.54415 -2.62552,4.41154 -11.57105,10.54527 -10.01071,6.86409 z M 375.75,397.9199 c -2.08647,-1.21526 -2.28855,-4.22806 -0.3893,-5.80429 0.74838,-0.6211 2.88588,-0.95298 4.75,-0.73752 1.86411,0.21547 4.86283,-0.2131 6.6638,-0.95238 3.24754,-1.33306 6.11813,-0.97899 7.38298,0.91066 3.08703,4.61194 -12.32726,10.12494 -18.40748,6.58353 z m -16.2536,-13.92573 c -0.3419,-0.55321 -0.0531,-2.57821 0.64187,-4.5 0.94058,-2.60113 1.84625,-3.49417 3.54357,-3.49417 2.75457,0 4.04699,3.76965 2.36801,6.90686 -1.16988,2.18593 -5.43692,2.8939 -6.55345,1.08731 z M 336.5,319.83129 c -6.51957,-1.80741 -15.98084,-8.42463 -21.27732,-14.88137 -7.56145,-9.21787 -9.97558,-13.62984 -12.28733,-22.45586 -2.28822,-8.73615 -2.22401,-12.29866 0.24955,-13.84702 2.3789,-1.4891 6.72054,1.02084 7.41446,4.28638 2.48603,11.69902 4.9147,16.45352 13.10222,25.64953 6.34444,7.12592 9.48817,9.81512 13.76074,11.77117 3.04572,1.39438 5.53768,2.70478 5.53768,2.912 0,0.20721 -0.7875,1.95628 -1.75,3.8868 -1.61026,3.22978 -1.98955,3.44364 -4.75,2.67837 z"
       style="fill:#88c533" />
    <path
       id="path10490"
       d="m 409.75,491.98833 c -3.79567,-2.3592 -1.43138,-7.63817 4.41672,-9.86162 l 2.66306,-1.01249 -0.10174,-15.12193 C 416.61145,448.66476 416.78908,449 407.72437,449 c -4.30484,0 -7.07032,-0.8238 -13.56574,-4.04106 C 389.67138,442.73636 386,440.7592 386,440.56524 c 0,-0.48831 7.16534,1.16692 10.43834,2.41132 3.49196,1.32764 23.49777,1.31279 36.70571,-0.0272 9.31934,-0.94551 11.02408,-1.446 17.03078,-5 3.67116,-2.17213 7.11613,-3.94932 7.6555,-3.94932 2.92737,0 10.13023,-5.37428 17.42088,-12.99828 10.94408,-11.44446 17.9602,-22.80794 21.91973,-35.50172 3.67688,-11.78766 4.1913,-48.97528 0.82331,-59.51799 -1.04121,-3.25927 -2.18741,-7.62606 -2.54711,-9.70398 -0.3597,-2.07792 -1.73245,-6.84235 -3.05057,-10.58763 C 491.07846,301.94512 490,297.75355 490,296.37578 c 0,-1.37776 -0.83159,-4.61344 -1.84799,-7.1904 -7.07077,-17.92723 -10.15168,-28.82623 -10.15817,-35.93543 -0.004,-4.03376 -0.6078,-7.90354 -1.50127,-9.61671 -1.04777,-2.00901 -1.63489,-7.22697 -1.96227,-17.43946 -0.25694,-8.01498 -0.90553,-16.84994 -1.44131,-19.63324 -0.53578,-2.7833 -1.00663,-6.41054 -1.04633,-8.06054 -0.65097,-27.05666 -3.47228,-41.378 -10.24403,-52 -3.38182,-5.30465 -7.38275,-9.5 -9.05975,-9.5 -0.74614,0 -2.16972,-0.59456 -3.16352,-1.32123 -1.52985,-1.11866 -0.73698,-1.20692 5.17113,-0.57564 8.80278,0.94058 14.96118,2.58121 15.9704,4.25461 0.43071,0.71417 3.70811,3.23891 7.28311,5.61055 9.42194,6.25046 11.62946,8.6107 15.41303,16.47931 5.0441,10.49009 8.44405,22.38833 10.12226,35.42311 0.82349,6.39611 2.13956,14.55429 2.92461,18.12929 0.78504,3.575 1.71524,10.775 2.0671,16 0.70724,10.50211 2.90756,18.96266 6.86553,26.39894 1.43411,2.69442 2.60747,5.62462 2.60747,6.51157 0,1.65625 8.81258,19.64193 12.90576,26.33949 1.26048,2.0625 2.82604,3.75 3.47902,3.75 1.93441,0 7.56535,-8.08277 8.67524,-12.45263 0.56539,-2.22605 2.13318,-7.56266 3.48398,-11.85912 1.3508,-4.29646 2.456,-8.65363 2.456,-9.68261 0,-2.10197 2.85819,-3.38102 5.3869,-2.41067 3.16042,1.21277 3.55426,3.74491 1.99124,12.8023 -1.62803,9.43406 -4.18437,16.34539 -7.805,21.10162 -1.25652,1.65061 -3.25421,4.80111 -4.43933,7.00111 -1.18511,2.2 -2.69015,4.75565 -3.34452,5.67921 -0.95264,1.34456 -0.66414,3.3375 1.44763,10 3.6556,11.53323 4.81626,16.29538 5.80573,23.82079 1.12484,8.55494 1.09048,27.83161 -0.0642,36 -0.50534,3.575 -1.35926,9.80405 -1.89759,13.84233 -1.15538,8.66696 -5.18029,17.83096 -11.3875,25.92726 -2.41634,3.15173 -5.02335,6.93745 -5.79337,8.41271 -1.95658,3.74861 -11.09554,10.49844 -22.0727,16.30243 -2.56997,1.35882 -6.34527,3.60565 -8.38955,4.99293 -2.04428,1.38729 -4.72412,2.52234 -5.9552,2.52234 -1.23108,0 -3.88995,0.69009 -5.9086,1.53353 -2.01864,0.84345 -8.22599,2.21472 -13.79411,3.04728 -5.56811,0.83256 -10.52738,1.76314 -11.02058,2.06796 -0.49321,0.30482 -0.62582,3.32104 -0.29469,6.70272 0.33113,3.38168 0.7592,11.42229 0.95126,17.86802 0.4423,14.84361 0.15213,15.33808 -8.87472,15.123 C 441.91962,492.0656 438.53275,487.40428 447,483.34 l 4.5,-2.16 0.23541,-7.34 c 0.12948,-4.037 0.31923,-9.67581 0.42167,-12.53069 0.2824,-7.87045 -0.31374,-8.21146 -13.97588,-7.99467 L 426.5,453.5 426.72112,468 c 0.12161,7.975 0.50371,16.1478 0.8491,18.16178 0.5256,3.06475 0.28485,3.84542 -1.47664,4.78814 -3.04128,1.62764 -14.24981,2.33979 -16.34358,1.03841 z M 378.5,398.27639 c -2.33379,-0.57365 -4.5,-2.1754 -4.5,-3.32741 0,-2.09701 3.37175,-4.02624 6.02012,-3.44456 1.60159,0.35177 4.33296,-0.0429 6.46675,-0.93449 2.68154,-1.12042 4.21744,-1.26336 5.60359,-0.52152 6.44695,3.45031 -4.95183,10.35139 -13.59046,8.22798 z m -19.0036,-14.28222 c -0.3419,-0.55321 -0.0531,-2.57821 0.64187,-4.5 0.94058,-2.60113 1.84625,-3.49417 3.54357,-3.49417 2.75457,0 4.04699,3.76965 2.36801,6.90686 -1.16988,2.18593 -5.43692,2.8939 -6.55345,1.08731 z M 328.04102,315.7324 c -11.86171,-6.75494 -21.5173,-19.53834 -25.10567,-33.23834 -2.28822,-8.73615 -2.22401,-12.29866 0.24955,-13.84702 2.3789,-1.4891 6.72054,1.02084 7.41446,4.28638 2.48921,11.71401 4.91155,16.44997 13.14201,25.69423 5.81072,6.52645 9.60654,9.87501 12.79059,11.28346 4.70885,2.08295 4.85797,2.53498 2.9159,8.83889 -0.66795,2.16815 -3.7171,1.36152 -11.40684,-3.0176 z"
       style="fill:#739942" />
    <path
       id="path10488"
       d="m 409.75,491.98833 c -3.79567,-2.3592 -1.43138,-7.63817 4.41672,-9.86162 l 2.66306,-1.01249 -0.10174,-15.12193 c -0.11644,-17.30581 0.0525,-16.98346 -8.9123,-17.00516 -3.64117,-0.009 -6.89084,-0.79791 -10.31574,-2.50492 l -5,-2.49205 4,0.67498 c 6.38416,1.0773 17.90066,0.95005 33.38668,-0.3689 13.56808,-1.15561 14.71525,-1.42106 20.16127,-4.66524 3.17603,-1.89194 6.70892,-3.73644 7.85087,-4.09889 11.60243,-3.68246 31.09216,-25.24561 37.53857,-41.53211 0.97964,-2.475 2.18749,-5.54576 2.68412,-6.82391 0.49663,-1.27815 1.61448,-8.25426 2.48411,-15.50247 2.65385,-22.11931 0.23848,-45.43243 -6.85594,-66.17362 -1.12875,-3.3 -2.39139,-8.025 -2.80586,-10.5 -0.78201,-4.66969 -3.35041,-12.66585 -5.46047,-17 -2.9358,-6.03025 -5.64499,-16.94094 -6.18044,-24.89045 -0.31895,-4.73525 -1.22506,-9.88751 -2.01359,-11.44946 -0.9483,-1.87846 -1.35779,-5.43324 -1.20953,-10.5 0.12327,-4.21305 -0.0721,-10.36009 -0.43414,-13.66009 -1.66313,-15.15892 -2.64513,-27.53578 -2.65795,-33.5 -0.0145,-6.72608 -2.788,-21.50706 -5.34781,-28.5 -2.09679,-5.72806 -5.76079,-11.88708 -9.54656,-16.04736 -1.80265,-1.98097 -3.05484,-3.82447 -2.78265,-4.09665 0.9999,-0.9999 13.06722,2.02191 14.73518,3.68987 0.94706,0.94706 4.58667,3.63725 8.08803,5.97821 9.30939,6.22412 11.5146,8.5945 15.27914,16.42353 5.0441,10.49009 8.44405,22.38833 10.12226,35.42311 0.82349,6.39611 2.13956,14.55429 2.92461,18.12929 0.78504,3.575 1.71524,10.775 2.0671,16 0.70724,10.50211 2.90756,18.96266 6.86553,26.39894 1.43411,2.69442 2.60747,5.62462 2.60747,6.51157 0,1.65625 8.81258,19.64193 12.90576,26.33949 1.26048,2.0625 2.82604,3.75 3.47902,3.75 1.93441,0 7.56535,-8.08277 8.67524,-12.45263 0.56539,-2.22605 2.13318,-7.56266 3.48398,-11.85912 1.3508,-4.29646 2.456,-8.65363 2.456,-9.68261 0,-2.10197 2.85819,-3.38102 5.3869,-2.41067 3.16042,1.21277 3.55426,3.74491 1.99124,12.8023 -1.62803,9.43406 -4.18437,16.34539 -7.805,21.10162 -1.25652,1.65061 -3.25421,4.80111 -4.43933,7.00111 -1.18511,2.2 -2.69015,4.75565 -3.34452,5.67921 -0.95264,1.34456 -0.66414,3.3375 1.44763,10 3.6556,11.53323 4.81626,16.29538 5.80573,23.82079 1.12484,8.55494 1.09048,27.83161 -0.0642,36 -0.50534,3.575 -1.35926,9.80405 -1.89759,13.84233 -1.15538,8.66696 -5.18029,17.83096 -11.3875,25.92726 -2.41634,3.15173 -5.02335,6.93745 -5.79337,8.41271 -1.95658,3.74861 -11.09554,10.49844 -22.0727,16.30243 -2.56997,1.35882 -6.34527,3.60565 -8.38955,4.99293 -2.04428,1.38729 -4.72412,2.52234 -5.9552,2.52234 -1.23108,0 -3.88995,0.69009 -5.9086,1.53353 -2.01864,0.84345 -8.22599,2.21472 -13.79411,3.04728 -5.56811,0.83256 -10.52738,1.76314 -11.02058,2.06796 -0.49321,0.30482 -0.62582,3.32104 -0.29469,6.70272 0.33113,3.38168 0.7592,11.42229 0.95126,17.86802 0.4423,14.84361 0.15213,15.33808 -8.87472,15.123 C 441.91962,492.0656 438.53275,487.40428 447,483.34 l 4.5,-2.16 0.23541,-7.34 c 0.12948,-4.037 0.31923,-9.67581 0.42167,-12.53069 0.2824,-7.87045 -0.31374,-8.21146 -13.97588,-7.99467 L 426.5,453.5 426.72112,468 c 0.12161,7.975 0.50371,16.1478 0.8491,18.16178 0.5256,3.06475 0.28485,3.84542 -1.47664,4.78814 -3.04128,1.62764 -14.24981,2.33979 -16.34358,1.03841 z m -32.5,-95.01949 C 372.73784,395.15517 375.57217,392 381.71357,392 c 2.37246,0 5.14785,-0.52102 6.16753,-1.15782 2.19598,-1.37141 5.1189,-0.49911 5.1189,1.52766 0,0.78793 -1.60072,2.37706 -3.55716,3.53138 -3.71908,2.19432 -8.37543,2.60203 -12.19284,1.06762 z m -17.7536,-12.97467 c -0.3419,-0.55321 -0.0531,-2.57821 0.64187,-4.5 0.94058,-2.60113 1.84625,-3.49417 3.54357,-3.49417 2.75457,0 4.04699,3.76965 2.36801,6.90686 -1.16988,2.18593 -5.43692,2.8939 -6.55345,1.08731 z M 328.04102,315.7324 c -11.86171,-6.75494 -21.5173,-19.53834 -25.10567,-33.23834 -2.28822,-8.73615 -2.22401,-12.29866 0.24955,-13.84702 2.3789,-1.4891 6.72054,1.02084 7.41446,4.28638 2.49296,11.73167 4.90779,16.44575 13.18926,25.74729 4.90728,5.51174 9.72306,9.92407 11.76074,10.77547 2.29183,0.95758 3.45064,2.10869 3.45064,3.42769 0,2.5936 -1.73547,7.11889 -2.72525,7.10618 -0.42611,-0.005 -4.13129,-1.92141 -8.23373,-4.25765 z"
       style="fill:#5f6251" />
    <path
       id="path10486"
       d="m 410.11465,491.16373 c -2.45634,-1.68277 -0.47489,-5.97835 3.65472,-7.92305 l 3.73063,-1.75682 0.0645,-15.83721 c 0.0643,-15.7855 0.0567,-15.84017 -2.3151,-16.74193 -1.30877,-0.4976 -4.48778,-0.93635 -7.06448,-0.97501 C 405.60821,447.89106 402.6,447.47269 401.5,447 c -1.27078,-0.54607 2.42784,-0.88506 10.14405,-0.92971 6.67922,-0.0387 16.76655,-0.54465 22.41628,-1.12442 9.22079,-0.94623 10.9521,-1.45803 16.91412,-5 3.65304,-2.17023 7.21058,-3.94587 7.90565,-3.94587 5.25596,0 23.4429,-17.504 31.23499,-30.06211 10.377,-16.72405 13.96238,-35.13259 12.10098,-62.13044 -1.04712,-15.18755 -2.65198,-23.26144 -7.7397,-38.93758 -1.362,-4.19657 -2.47637,-8.43985 -2.47637,-9.4295 0,-2.18197 -3.60328,-13.78712 -5.5703,-17.94037 -3.22141,-6.80182 -5.47927,-15.93288 -6.27929,-25.39425 -0.46681,-5.52053 -1.40173,-10.70364 -2.07761,-11.51803 -0.80795,-0.97353 -1.13732,-4.32482 -0.96158,-9.78421 0.147,-4.56693 -0.26128,-12.35351 -0.9073,-17.30351 -0.64603,-4.95 -1.45209,-15.075 -1.79126,-22.5 -0.33917,-7.425 -1.24577,-16.34042 -2.01467,-19.81205 C 471.6291,167.71632 471,164.03087 471,162.99806 471,160.18571 462.54477,142.78349 460.11501,140.59501 458.01409,138.70272 457.2515,136 458.8185,136 c 2.12591,0 11.1815,3.17574 11.1815,3.92128 0,0.46409 3.0356,2.80916 6.74577,5.21126 7.79534,5.047 14.25423,10.594 14.25423,12.24178 0,0.62788 1.11306,3.23248 2.47347,5.788 1.36042,2.55553 2.90443,6.37695 3.43115,8.49205 0.52672,2.1151 1.69424,5.85333 2.59449,8.30719 0.90025,2.45385 2.4615,10.80232 3.46944,18.55214 1.00793,7.74983 2.2963,15.86713 2.86302,18.03845 0.56673,2.17132 1.50711,9.12285 2.08973,15.44785 1.17174,12.72049 1.98173,15.87145 6.20211,24.12687 1.58212,3.09477 2.87659,6.49413 2.87659,7.55413 0,3.23757 13.76565,29.6017 16.4769,31.55674 0.94576,0.68197 4.56082,-2.82179 8.07511,-7.82652 1.27544,-1.81635 3.51693,-9.06782 7.77755,-25.16122 0.88251,-3.33343 1.58888,-4.25 3.27536,-4.25 4.01624,0 4.67816,2.12773 3.32862,10.6998 -0.67541,4.29011 -2.06771,9.96946 -3.09401,12.62078 -1.55855,4.02636 -8.85405,16.78421 -13.01929,22.76724 -0.84235,1.20996 -0.49456,3.58969 1.46147,10 4.31015,14.12526 4.769,16.07653 6.13205,26.07636 0.96882,7.10766 1.08793,13.4565 0.45025,24 -0.47688,7.8847 -1.11483,14.99627 -1.41767,15.80349 -0.30285,0.80723 -0.9669,4.7509 -1.47568,8.76372 -1.11368,8.78381 -4.62295,16.65966 -11.06292,24.82847 -2.62754,3.33293 -5.28986,7.1847 -5.91626,8.55949 -0.6264,1.3748 -2.90573,3.59159 -5.06519,4.92621 -2.15946,1.33462 -3.92629,2.70638 -3.92629,3.04837 0,0.84429 -10.94458,7.48982 -13.7554,8.35225 -1.24046,0.38061 -3.58572,1.81142 -5.21168,3.17957 -1.62596,1.36816 -4.66103,2.75054 -6.7446,3.07197 -2.08358,0.32143 -5.03504,1.21226 -6.55882,1.97963 -1.52377,0.76736 -7.59877,2.09457 -13.5,2.94934 -5.90122,0.85477 -11.3016,2.10161 -12.00083,2.77077 -0.97823,0.93613 -1.0823,3.73955 -0.45142,12.15959 1.18802,15.856 0.88027,25.41393 -0.85363,26.51132 -1.97635,1.25083 -8.73103,1.05493 -12.92362,-0.37481 -4.96652,-1.69367 -4.74275,-4.64754 0.5,-6.60031 2.2,-0.81943 4.29734,-1.92471 4.66076,-2.45618 0.36341,-0.53147 0.41964,-3.30247 0.12495,-6.15777 -0.30241,-2.93004 -0.006,-6.79573 0.67964,-8.87431 0.946,-2.8664 0.95161,-4.78267 0.0253,-8.64392 -0.65458,-2.72859 -1.25776,-4.99199 -1.3404,-5.02979 -0.0826,-0.0378 -5.84953,-0.30965 -12.81529,-0.60412 l -12.66504,-0.53541 -0.73307,5.85413 c -0.40319,3.21976 -0.21559,11.68079 0.41688,18.80227 0.63247,7.12149 0.76878,13.32933 0.3029,13.79521 -1.26156,1.26156 -14.44028,2.01766 -16.04199,0.92037 z m -33.10629,-95.1374 c -2.3138,-1.46283 -0.14008,-2.78045 5.49164,-3.32881 2.75,-0.26777 5.85157,-0.64675 6.89237,-0.84219 3.11357,-0.58464 2.81605,1.5182 -0.48028,3.39467 -3.32367,1.89203 -9.50169,2.29495 -11.90373,0.77633 z m -49.76068,-81.65369 c -4.43299,-2.52242 -7.92777,-5.64037 -12.01014,-10.71514 -8.16557,-10.15055 -8.67912,-11.10888 -11.74794,-21.92271 -2.24515,-7.91141 -2.52295,-9.98968 -1.50007,-11.22217 3.34988,-4.03637 6.94546,-0.79511 9.41519,8.48738 0.95117,3.575 2.48673,7.9258 3.41235,9.66844 2.75755,5.19161 17.12499,20.28051 20.75502,21.79723 3.20472,1.33902 3.31633,1.55595 2.30021,4.47082 -1.36548,3.91701 -2.89219,3.83599 -10.62462,-0.56385 z"
       style="fill:#45473a" />
    <path
       id="path10484"
       d="m 412.33455,491.30535 c -1.191,-0.23226 -2.39455,-1.01932 -2.67456,-1.74902 -0.72153,-1.88026 2.10633,-5.55633 4.27427,-5.55633 3.15263,0 4.32797,-2.63716 4.12414,-9.25358 -0.35427,-11.50022 -0.28873,-14.21959 0.45768,-18.98835 0.49788,-3.18097 0.35453,-5.20905 -0.4355,-6.16097 -1.70946,-2.05978 -0.27137,-2.57546 8.60591,-3.08596 16.35221,-0.94035 21.35141,-2.23467 27.31351,-7.07163 0.825,-0.66931 3.0684,-1.55102 4.98533,-1.95936 1.91694,-0.40834 4.61694,-1.43499 6,-2.28144 C 468.5483,433.01814 486,415.76633 486,414.42474 c 0,-0.61312 0.9,-1.92925 2,-2.92474 1.1,-0.99549 2,-2.33104 2,-2.9679 0,-0.63685 1.32606,-2.42836 2.94679,-3.98112 1.75978,-1.68598 3.06893,-4.07753 3.25,-5.9371 0.26325,-2.70347 0.65055,-3.07831 2.93859,-2.844 1.68384,0.17244 2.85847,-0.31148 3.25325,-1.34024 0.78021,-2.03319 -0.0564,-3.42964 -2.05464,-3.42964 -1.07978,0 -1.33186,-0.52929 -0.83346,-1.75 1.06343,-2.6046 3.1813,-12.06218 3.97482,-17.75 0.93768,-6.72107 3.28085,-11.5 5.63859,-11.5 1.03733,0 1.88606,-0.675 1.88606,-1.5 0,-0.825 -0.42889,-1.5 -0.95308,-1.5 -0.86787,0 -2.64681,-3.305 -4.5752,-8.5 -0.40832,-1.1 -1.33384,-6.5 -2.05672,-12 -0.72287,-5.5 -1.9825,-12.34697 -2.79917,-15.21549 -0.81668,-2.86852 -1.72609,-6.46852 -2.02093,-8 -0.97906,-5.08559 -2.81799,-11.76071 -3.73464,-13.55637 -0.49748,-0.97453 -1.19063,-3.89953 -1.54033,-6.5 -0.34969,-2.60048 -1.28934,-5.73736 -2.08811,-6.97085 -0.83462,-1.28888 -1.19687,-3.26042 -0.85172,-4.63558 0.37503,-1.49426 0.0597,-2.84176 -0.83973,-3.58821 -2.90164,-2.40814 -7.29252,-14.56303 -7.41761,-20.5335 -0.023,-1.1 -0.34427,-5.4875 -0.71384,-9.75 -0.58735,-6.77443 -0.46656,-7.75 0.95957,-7.75 1.66934,0 2.15012,-1.14806 0.97352,-2.32466 -0.3619,-0.36189 -1.27277,-0.14777 -2.02417,0.47584 -0.75139,0.6236 -1.62272,0.87727 -1.93628,0.56371 -0.31356,-0.31355 -0.69607,-6.11518 -0.85002,-12.8925 C 478.37759,219.04508 477.77641,211.7 477.1956,209.5 c -0.58082,-2.2 -1.36132,-11.65 -1.73444,-21 -0.37312,-9.35 -1.02029,-17.675 -1.43816,-18.5 -0.41786,-0.825 -1.07352,-3.23626 -1.45702,-5.35836 -0.63528,-3.51538 -3.50914,-10.89419 -5.70254,-14.64164 -0.48288,-0.825 -1.40958,-2.625 -2.05935,-4 -0.64976,-1.375 -2.30119,-3.73281 -3.66984,-5.23957 -1.36864,-1.50676 -2.22973,-2.99828 -1.91353,-3.31448 1.28954,-1.28954 8.12545,0.99501 11.74354,3.92468 2.1256,1.72115 6.84408,5.15437 10.4855,7.62937 5.98485,4.06779 6.99016,5.26838 10.46682,12.5 5.38996,11.21139 8.78,23.01256 10.62873,37 0.87233,6.6 2.20896,14.7 2.97028,18 0.76133,3.3 1.6602,10.5 1.99749,16 0.62158,10.13584 2.74374,18.33559 6.45591,24.94478 1.11705,1.98883 2.03101,4.36347 2.03101,5.27697 0,0.91351 2.25,6.25651 5,11.87333 2.75,5.61682 5,10.63597 5,11.15367 0,0.5177 0.85888,1.71855 1.90862,2.66856 1.04975,0.95 2.45434,3.04475 3.12133,4.65498 1.53024,3.69433 4.20289,3.76741 6.49917,0.17771 0.96752,-1.5125 2.58402,-3.54548 3.59223,-4.51773 1.0082,-0.97226 2.53795,-4.34726 3.39945,-7.5 0.8615,-3.15275 2.44675,-8.55422 3.52278,-12.00327 1.07603,-3.44905 1.95642,-7.1134 1.95642,-8.14301 0,-1.02961 0.675,-2.13103 1.5,-2.44762 2.47011,-0.94787 4.5,0.4176 4.5,3.02707 0,5.16363 -2.28435,16.83364 -4.1569,21.23623 -1.93905,4.55895 -3.03369,6.41008 -10.14875,17.16248 l -3.6819,5.56415 2.36577,7.43585 c 6.8209,21.4387 7.11819,23.23143 7.12004,42.93585 0.001,10.72408 -0.50456,20.81176 -1.20282,24 -0.66251,3.025 -1.67341,8.15458 -2.24644,11.39907 -1.26752,7.17658 -5.00714,14.80475 -11.81521,24.10093 -8.25304,11.26924 -12.67814,14.97464 -25.60024,21.43656 -3.22655,1.61349 -6.87452,3.88065 -8.10661,5.03813 -1.23208,1.15748 -3.99218,2.35463 -6.13354,2.66032 -2.14137,0.3057 -5.34315,1.20294 -7.11506,1.99387 -1.77191,0.79093 -6.94691,1.91802 -11.5,2.50464 -4.55309,0.58663 -9.27785,1.25188 -10.49948,1.47834 -3.46062,0.64153 -4.39148,3.41159 -3.23988,9.64119 0.55362,2.99479 0.88383,11.0255 0.7338,17.84601 L 460.5,490.5 l -6.50405,0.29008 c -4.38646,0.19564 -7.1254,-0.16425 -8.41248,-1.10539 -2.50821,-1.83405 -1.46462,-4.43491 2.12371,-5.29278 4.84078,-1.1573 5.53664,-2.28491 4.84182,-7.84604 -0.43042,-3.44496 -0.13984,-6.45409 0.9108,-9.43193 1.26032,-3.57212 1.32954,-5.12759 0.378,-8.49346 -0.64068,-2.26626 -1.65379,-4.65518 -2.25134,-5.3087 -1.69638,-1.85526 -25.07003,-2.9564 -26.13621,-1.23128 -0.94914,1.53575 -0.89952,21.11459 0.0788,31.06708 l 0.65341,6.64757 -5.14043,1.10243 c -2.82723,0.60633 -5.45577,1.04114 -5.8412,0.96624 -0.38543,-0.0749 -1.67523,-0.32621 -2.86623,-0.55847 z M 331.62019,316.19447 c -0.27382,-0.44304 -2.88787,-2.05187 -5.80902,-3.57518 -3.82344,-1.99383 -6.87484,-4.77941 -10.89346,-9.94447 -6.96824,-8.95617 -8.2768,-11.40754 -10.85232,-20.33006 -2.49044,-8.62777 -2.6038,-11.92417 -0.43864,-12.75502 2.70751,-1.03897 6.33276,2.46756 6.35794,6.14974 0.0272,3.9787 5.13345,15.16194 8.87514,19.43753 C 327.63722,305.20684 333.39757,311 334.5932,311 c 1.98882,0 2.6118,1.74844 1.41786,3.97933 -1.09214,2.04068 -3.47338,2.69967 -4.39087,1.21514 z"
       style="fill:#403e38" />
    <path
       id="path10482"
       d="m 412.33455,491.30535 c -1.191,-0.23226 -2.39455,-1.01932 -2.67456,-1.74902 -0.72153,-1.88026 2.10633,-5.55633 4.27427,-5.55633 3.15263,0 4.32797,-2.63716 4.12414,-9.25358 -0.2179,-7.07338 -0.17508,-11.8928 0.18876,-21.24642 0.26443,-6.79796 0.50865,-7.08272 5.75284,-6.70784 0.825,0.059 5.94213,-0.36754 11.37141,-0.94782 9.51825,-1.01731 14.12125,-2.6411 18.85801,-6.65248 2.43628,-2.0632 9.36237,-1.87126 11.79116,0.32676 1.9618,1.77541 2.35145,1.46949 2.05765,-1.61553 -0.0836,-0.8783 0.51279,-2.1487 1.32541,-2.82311 0.81261,-0.67442 1.24855,-1.82279 0.96875,-2.55194 -0.27981,-0.72916 0.0484,-1.67008 0.72938,-2.09093 0.86387,-0.53391 1.0451,-0.26222 0.59955,0.89885 -0.46441,1.21022 -0.0931,1.66404 1.36145,1.66404 2.36985,0 3.67431,-2.66292 2.08367,-4.25356 C 473.82976,427.42976 476.40767,424 478.714,424 c 0.77222,0 1.16999,-0.3787 0.88393,-0.84155 -0.28606,-0.46285 1.10496,-2.37535 3.09116,-4.25 1.98619,-1.87465 3.27439,-2.81725 2.86265,-2.09467 -0.58311,1.02333 0.0162,1.1703 2.71091,0.66477 2.99391,-0.56166 3.53644,-0.35483 4.03112,1.53684 0.31708,1.21251 1.04688,1.89211 1.63892,1.52621 0.58702,-0.3628 1.06731,-0.18308 1.06731,0.39938 0,1.40207 -0.55505,1.34047 -4.00722,-0.44472 -2.70696,-1.39982 -3.04295,-1.35878 -4.86212,0.59387 -1.9404,2.08277 -1.93942,2.1146 0.1379,4.50373 C 488.5389,428.20498 491,428.78035 491,426.7 c 0,-0.715 -0.5325,-1.8325 -1.18333,-2.48333 -0.65084,-0.65084 -0.94024,-1.42643 -0.64313,-1.72354 0.93722,-0.93722 3.82646,0.65889 3.82646,2.11386 0,1.86411 2.6357,1.78475 3.35939,-0.10116 0.31535,-0.82179 1.55139,-1.38429 2.74675,-1.25 1.19537,0.13429 2.373,-0.31833 2.61696,-1.00583 0.25564,-0.7204 -0.3711,-1.25 -1.47925,-1.25 -1.08059,0 -2.42176,-1.09505 -3.0619,-2.5 -0.69292,-1.5208 -0.75579,-2.5 -0.16051,-2.5 0.53821,0 0.97856,-0.49814 0.97856,-1.10699 0,-0.60884 -0.675,-0.83384 -1.5,-0.5 -0.825,0.33385 -2.2146,0.89533 -3.088,1.24775 -1.2197,0.49215 -1.5096,0.10996 -1.25,-1.64788 0.50223,-3.40065 3.15555,-4.69608 6.23881,-3.04596 2.1176,1.1333 2.79502,1.13545 4.14729,0.0132 0.88896,-0.73777 3.3428,-1.23952 5.453,-1.11501 2.11019,0.12451 4.14191,-0.26745 4.51494,-0.87103 0.37303,-0.60357 1.75953,-1.50851 3.0811,-2.01097 2.52332,-0.95937 3.19377,-3.35622 1.27118,-4.54445 -0.62242,-0.38468 -1.54478,0.0388 -2.04969,0.94098 -1.41497,2.52842 -2.93273,1.94317 -2.22927,-0.8596 0.79218,-3.1563 -0.0552,-3.14477 -4.25414,0.0579 -3.09511,2.36075 -3.40335,2.41855 -3.99963,0.75 -1.1711,-3.27713 -2.49799,-4.418 -3.84152,-3.30297 -1.74136,1.4452 -4.49407,0.15161 -4.49407,-2.11191 0,-2.35872 0.89869,-2.41382 2.54944,-0.15629 1.19991,1.64098 1.38517,1.63243 3.36024,-0.15498 1.92781,-1.74465 2.22865,-1.76652 3.86967,-0.28142 1.92911,1.74582 6.62379,1.69654 8.40859,-0.0883 1.87962,-1.87962 1.84834,-10.45771 -0.0434,-11.89711 -1.01825,-0.77479 -1.17729,-1.26346 -0.41761,-1.28315 0.67482,-0.0175 1.94628,1.06604 2.82547,2.40785 2.3299,3.55589 4.43021,2.28132 3.73676,-2.26766 -0.30784,-2.0196 -1.13616,-4.347 -1.84069,-5.172 -0.7145,-0.83668 -1.0478,-2.70321 -0.7537,-4.22086 0.42926,-2.21521 0.0478,-2.93929 -2.05241,-3.89623 -1.4188,-0.64645 -2.3422,-1.55956 -2.05199,-2.02914 0.80863,-1.30839 4.40963,-1.01398 4.40963,0.36052 0,0.78492 0.57339,0.64089 1.62161,-0.40733 1.47314,-1.47314 1.47894,-1.82531 0.0634,-3.84626 -1.4068,-2.00848 -1.40793,-2.45397 -0.0117,-4.58495 0.85059,-1.29817 1.28618,-3.03878 0.96797,-3.86803 -0.83669,-2.18038 -3.73852,-1.8521 -4.35159,0.49228 -0.65692,2.51206 -1.50922,2.51995 -3.75824,0.0348 -1.71906,-1.89954 -1.69084,-2.0051 0.84501,-3.16051 3.10899,-1.41655 3.43967,-3.84811 0.62348,-4.58456 -2.53886,-0.66393 -2.51754,-1.75419 0.10636,-5.43912 2.05615,-2.88759 2.06211,-3.00747 0.25,-5.02931 -1.84855,-2.0625 -1.84164,-2.0681 1.64364,-1.33079 1.925,0.40723 4.08508,1.2123 4.80019,1.78904 0.93866,0.75705 1.75424,0.59457 2.93316,-0.58434 1.49442,-1.49443 1.4979,-1.78409 0.041,-3.4141 -0.87559,-0.97962 -1.74551,-2.87088 -1.93315,-4.2028 -0.51296,-3.641 -2.84118,-3.86115 -2.84118,-0.26865 0,3.60804 -2.51915,4.95731 -4.01993,2.15308 C 514.40233,331.88324 513.31861,331 512.57181,331 511.07442,331 510,328.87699 510,325.91821 510,324.66667 510.69509,324 512,324 c 2.3843,0 2.51962,-0.93966 0.5125,-3.55887 -1.4555,-1.89938 -1.53093,-1.88736 -3.50735,0.55887 -1.11092,1.375 -1.83906,3.26688 -1.6181,4.20418 0.23628,1.00229 -0.58442,2.35035 -1.99265,3.27306 -2.25848,1.47981 -2.3944,1.45203 -2.3944,-0.48937 0,-1.13203 -0.72448,-3.16393 -1.60995,-4.51533 C 499.44846,320.5093 500.18285,318 502.99167,318 c 1.9506,0 1.97327,-0.12388 0.44845,-2.45104 -0.97701,-1.49111 -1.34192,-3.283 -0.93174,-4.57536 0.78959,-2.48777 1.99162,-1.70922 1.99162,1.28996 0,1.46032 0.88161,2.32007 2.94973,2.87657 1.62236,0.43656 3.08689,0.65659 3.25451,0.48896 0.5921,-0.5921 -2.03604,-7.16625 -3.98015,-9.95613 -2.30165,-3.30298 -1.0196,-5.99303 1.75769,-3.68808 1.74476,1.44802 2.79959,0.84614 3.07623,-1.75525 0.10116,-0.9513 0.51514,-2.51713 0.91995,-3.47963 0.52405,-1.24601 0.27322,-1.75 -0.87097,-1.75 C 510.72314,295 510,294.625 510,294.16667 c 0,-0.45834 -0.5625,-0.8511 -1.25,-0.87281 -0.6875,-0.0217 -1.925,-0.20921 -2.75,-0.41667 -1.45512,-0.3659 -1.53886,-0.0521 -0.83333,3.12281 0.50795,2.28581 -4.35281,2.41393 -8.28428,0.21836 -1.86031,-1.03892 -3.53433,-2.67154 -3.72004,-3.62805 C 492.77441,290.59218 495.66126,287 497.65499,287 498.39474,287 499,286.325 499,285.5 c 0,-1.08333 -1.11111,-1.5 -4,-1.5 -4.12924,0 -4.61932,-0.47269 -3.05446,-2.94612 C 493.20894,279.05694 491.40599,276 488.96482,276 487.88417,276 487,275.35052 487,274.5567 487,272.86671 490.76337,270 492.98196,270 c 1.60373,0 4.25166,-3.41413 4.65347,-6 0.13875,-0.89288 -0.56839,-0.52152 -1.74711,0.91751 -2.77693,3.39022 -6.23692,5.02654 -8.24835,3.90088 C 486.4193,268.13527 486,268.31192 486,269.50933 c 0,0.88627 -0.47969,1.31224 -1.06817,0.94854 -0.5875,-0.3631 -0.80474,-1.34669 -0.48275,-2.18577 0.32198,-0.83908 0.0726,-2.14356 -0.55427,-2.89885 -0.90507,-1.09054 -0.70533,-1.37325 0.9702,-1.37325 1.37228,0 2.98829,-1.39145 4.62245,-3.98013 3.13673,-4.96891 3.13096,-5.87337 -0.0595,-9.31408 -1.9821,-2.13761 -2.43061,-3.41749 -1.95554,-5.58044 0.41966,-1.91071 0.12342,-3.21584 -0.92801,-4.08845 C 485.69501,240.33191 485,239.01022 485,238.0998 c 0,-0.91043 -0.9,-2.42592 -2,-3.36777 -1.1,-0.94185 -2,-2.15103 -2,-2.68706 0,-1.62971 3.46628,-2.99493 5.05388,-1.99051 2.34148,1.48138 2.94703,1.10855 2.93081,-1.80446 -0.0106,-1.90021 -0.27819,-2.33525 -0.86598,-1.40783 -0.70582,1.11363 -1.2098,1.11789 -2.95973,0.025 -1.66426,-1.03934 -2.36741,-1.05878 -3.33402,-0.0922 C 480.03812,228.56188 479,228.27707 479,226 c 0,-1.1 0.60526,-2 1.34501,-2 1.88464,0 4.98763,-3.65276 4.19393,-4.93699 C 483.46024,217.31764 482,217.85654 482,220 c 0,2.38856 -0.6332,2.50966 -2.63829,0.50457 -0.82249,-0.82249 -1.35285,-2.73499 -1.17857,-4.25 0.25175,-2.18853 0.8999,-2.82132 3.15412,-3.07941 2.6886,-0.30782 2.74991,-0.42135 1.17029,-2.16682 -1.32225,-1.46106 -1.43641,-2.27275 -0.55207,-3.92515 0.61319,-1.14576 0.78805,-2.08319 0.38857,-2.08319 -0.39947,0 0.1472,-0.64286 1.21482,-1.42858 1.83282,-1.34887 1.8414,-1.46723 0.15388,-2.12128 -2.46095,-0.95382 -6.13095,2.34103 -4.6266,4.15366 0.5935,0.71513 0.78658,2.22182 0.42908,3.34821 C 477.89977,214.04187 476,208.94983 476,199.52999 476,194.04997 477.90534,191 481.32874,191 c 2.85101,0 1.84957,-1.77182 -2.32874,-4.12016 -3.594,-2.01994 -4,-2.64227 -4,-6.13137 0,-3.40707 0.24131,-3.80666 1.96792,-3.25865 1.82504,0.57924 1.88737,0.38447 0.8584,-2.68261 -0.61024,-1.81897 -1.72081,-4.01764 -2.46792,-4.88595 -1.90855,-2.21813 -1.6917,-4.1914 0.68415,-6.22566 1.1234,-0.96189 1.75373,-2.21621 1.40072,-2.78739 -0.40737,-0.65914 -1.33838,-0.40812 -2.54868,0.68718 -1.04877,0.94913 -2.03437,1.54094 -2.19022,1.31515 -0.15585,-0.2258 -1.32904,-2.88554 -2.60709,-5.91054 -1.27804,-3.025 -2.72603,-6.175 -3.21776,-7 -0.49172,-0.825 -1.42566,-2.625 -2.07543,-4 -0.64976,-1.375 -2.30119,-3.73281 -3.66984,-5.23957 -1.36864,-1.50676 -2.22973,-2.99828 -1.91353,-3.31448 1.28954,-1.28954 8.12545,0.99501 11.74354,3.92468 2.1256,1.72115 6.84408,5.15437 10.4855,7.62937 5.98485,4.06779 6.99016,5.26838 10.46682,12.5 5.38996,11.21139 8.78,23.01256 10.62873,37 0.87233,6.6 2.20896,14.7 2.97028,18 0.76133,3.3 1.6602,10.5 1.99749,16 0.62158,10.13584 2.74374,18.33559 6.45591,24.94478 1.11705,1.98883 2.03101,4.36347 2.03101,5.27697 0,0.91351 2.25,6.25651 5,11.87333 2.75,5.61682 5,10.63597 5,11.15367 0,0.5177 0.85888,1.71855 1.90862,2.66856 1.04975,0.95 2.45434,3.04475 3.12133,4.65498 1.53024,3.69433 4.20289,3.76741 6.49917,0.17771 0.96752,-1.5125 2.58402,-3.54548 3.59223,-4.51773 1.0082,-0.97226 2.53795,-4.34726 3.39945,-7.5 0.8615,-3.15275 2.44675,-8.55422 3.52278,-12.00327 1.07603,-3.44905 1.95642,-7.1134 1.95642,-8.14301 0,-1.02961 0.675,-2.13103 1.5,-2.44762 2.47011,-0.94787 4.5,0.4176 4.5,3.02707 0,5.16363 -2.28435,16.83364 -4.1569,21.23623 -1.93905,4.55895 -3.03369,6.41008 -10.14875,17.16248 l -3.6819,5.56415 2.36577,7.43585 c 6.8209,21.4387 7.11819,23.23143 7.12004,42.93585 0.001,10.72408 -0.50456,20.81176 -1.20282,24 -0.66251,3.025 -1.67341,8.15458 -2.24644,11.39907 -1.26752,7.17658 -5.00714,14.80475 -11.81521,24.10093 -8.25304,11.26924 -12.67814,14.97464 -25.60024,21.43656 -3.22655,1.61349 -6.87452,3.88065 -8.10661,5.03813 -1.23208,1.15748 -3.99218,2.35463 -6.13354,2.66032 -2.14137,0.3057 -5.34315,1.20294 -7.11506,1.99387 -1.77191,0.79093 -6.94691,1.91802 -11.5,2.50464 -4.55309,0.58663 -9.27785,1.25188 -10.49948,1.47834 -3.46062,0.64153 -4.39148,3.41159 -3.23988,9.64119 0.55362,2.99479 0.88383,11.0255 0.7338,17.84601 L 460.5,490.5 l -6.50405,0.29008 c -4.38646,0.19564 -7.1254,-0.16425 -8.41248,-1.10539 -2.50821,-1.83405 -1.46462,-4.43491 2.12371,-5.29278 4.84078,-1.1573 5.53664,-2.28491 4.84182,-7.84604 -0.43042,-3.44496 -0.13984,-6.45409 0.9108,-9.43193 1.26032,-3.57212 1.32954,-5.12759 0.378,-8.49346 -0.64068,-2.26626 -1.65379,-4.65518 -2.25134,-5.3087 -1.69638,-1.85526 -25.07003,-2.9564 -26.13621,-1.23128 -0.94914,1.53575 -0.89952,21.11459 0.0788,31.06708 l 0.65341,6.64757 -5.14043,1.10243 c -2.82723,0.60633 -5.45577,1.04114 -5.8412,0.96624 -0.38543,-0.0749 -1.67523,-0.32621 -2.86623,-0.55847 z M 326.03824,312.88928 c -3.00397,-1.59207 -5.82169,-3.53784 -6.2616,-4.32391 -0.43991,-0.78608 -2.85623,-3.82237 -5.36959,-6.7473 -5.78987,-6.73797 -7.29379,-9.54629 -10.07755,-18.81807 -2.71313,-9.03659 -2.89818,-12.5678 -0.70275,-13.41026 2.70751,-1.03897 6.33276,2.46756 6.35794,6.14974 0.0286,4.1896 5.25728,15.35231 9.14283,19.51917 2.12986,2.28408 3.87248,4.49224 3.87248,4.90704 0,1.05246 9.75739,10.14155 12.04521,11.22021 1.78062,0.83953 1.75493,0.98347 -0.49085,2.75 -1.3034,1.02525 -2.52384,1.81549 -2.71209,1.75608 -0.18825,-0.0594 -2.80006,-1.41062 -5.80403,-3.0027 z"
       style="fill:#3e4036" />
    <path
       id="path10480"
       d="m 411.10428,490.08561 c -2.11047,-1.33634 -0.55929,-3.99755 3.26038,-5.59351 4.30094,-1.79705 4.66373,-2.84381 4.06173,-11.71925 -0.76352,-11.25684 -0.1272,-19.31429 1.67604,-21.22285 0.49366,-0.5225 0.89757,-1.76 0.89757,-2.75 0,-2.07651 3.88953,-2.51047 5.75762,-0.64238 0.79788,0.79788 1.55923,0.84044 2.45,0.13694 0.71081,-0.56137 4.37308,-1.2944 8.13837,-1.62895 5.84995,-0.51979 6.76173,-0.38871 6.26686,0.90091 -0.88315,2.30144 1.90498,2.79552 4.85771,0.86081 1.98185,-1.29855 2.91592,-1.44085 3.78079,-0.57598 1.50883,1.50883 2.74865,1.46046 2.74865,-0.10724 0,-1.97664 6.00129,-4.12605 11.29713,-4.04616 3.57706,0.054 4.69931,-0.26485 4.32902,-1.22979 -0.27492,-0.71645 0.1974,-1.57021 1.04962,-1.89723 1.2452,-0.47783 1.30901,-0.88434 0.32498,-2.07003 -1.70811,-2.05814 -0.64155,-4.14525 2.4171,-4.72995 1.97815,-0.37814 2.58215,-0.0855 2.58215,1.25109 0,0.95958 0.9,1.98005 2,2.26771 2.02942,0.5307 2.8336,2.71025 1,2.71025 -0.55,0 -1,0.45 -1,1 0,0.55 0.43266,1 0.96146,1 1.46354,0 3.49728,-8.34709 2.14367,-8.79829 -0.76118,-0.25373 -0.77984,-0.941 -0.062,-2.28238 C 482.82052,429.46685 484.15638,429 487.53518,429 489.99083,429 492,428.55 492,428 c 0,-0.55 0.87344,-1 1.94098,-1 1.06754,0 2.2191,-0.45 2.55902,-1 1.01582,-1.64363 2.11137,-1.14837 3.31805,1.5 1.26901,2.78519 3.33449,3.22605 5.10718,1.0901 0.92628,-1.1161 0.72081,-1.72461 -0.98597,-2.92009 C 501.69904,424.1009 502.05382,422 504.55902,422 c 1.35209,0 2.01719,-3.40555 1.61121,-8.25 -0.20987,-2.50439 3.46672,-2.24629 4.12996,0.28993 0.43746,1.67283 1.0433,1.91788 3.36663,1.36174 4.27944,-1.02438 5.061,-1.75772 2.51408,-2.35896 -2.83176,-0.66849 -3.06766,-2.13074 -0.56569,-3.5064 3.93567,-2.16394 4.48312,-5.43798 1.42126,-8.49984 -1.09612,-1.09612 -1.53788,-2.22658 -1,-2.55901 0.52994,-0.32752 0.96353,-0.1031 0.96353,0.49871 0,0.77192 0.5697,0.78931 1.93426,0.059 2.72268,-1.45713 2.8948,-1.3663 3.24932,1.71482 0.45709,3.97258 3.23544,3.58986 3.62978,-0.5 0.18127,-1.88006 0.87383,-3.25 1.64301,-3.25 1.33941,0 2.54363,-2.09315 2.54363,-4.42127 0,-0.69174 -1.13139,-1.7732 -2.51421,-2.40325 -2.28597,-1.04156 -2.45629,-1.53273 -1.87615,-5.41052 0.38598,-2.58006 1.478,-4.93498 2.76421,-5.96097 1.70175,-1.35747 1.87664,-1.94632 0.87615,-2.95 -1.80666,-1.81243 -1.54577,-2.67137 0.92167,-3.03444 2.87942,-0.42369 3.44112,-2.42604 0.86922,-3.09861 C 528.38831,369.02728 528.35504,366 531,366 c 2.67895,0 2.5387,-2.39415 -0.25,-4.26764 l -2.25,-1.51158 2.74936,-2.18247 c 2.32647,-1.84677 2.53886,-2.39295 1.38083,-3.55098 -0.75561,-0.75561 -2.32285,-1.11896 -3.49936,-0.81129 -1.5498,0.40528 -2.13083,0.0993 -2.13083,-1.12227 0,-1.15027 -0.67969,-1.5809 -2.15705,-1.36663 -1.18637,0.17207 -2.3396,-0.22182 -2.56273,-0.87533 -0.27028,-0.79163 0.91916,-1.1699 3.56388,-1.1334 5.12248,0.0707 6.1559,-0.64481 6.1559,-4.26218 0,-2.24331 -0.60897,-3.19726 -2.5,-3.91623 -1.375,-0.52277 -2.5,-1.42576 -2.5,-2.00663 0,-1.65649 3.11246,-2.42945 4,-0.99337 0.43898,0.71029 1.53425,1.00897 2.43393,0.66373 1.51325,-0.58069 1.51261,-0.81569 -0.009,-3.13729 -1.26826,-1.93561 -2.19842,-2.37052 -4.06692,-1.90156 -4.40821,1.10639 -5.77772,0.89503 -6.158,-0.95039 -0.5374,-2.60787 2.7172,-4.75739 6.14209,-4.05658 2.35947,0.4828 2.78353,0.27523 2.4953,-1.22145 C 531.20876,324.12995 519,322.28994 519,325.46164 519,326.96831 515.77433,330 514.17126,330 c -1.96634,0 -1.30531,-2.66705 1.04836,-4.22983 2.099,-1.39368 2.12617,-1.56724 0.5,-3.1934 -0.94579,-0.9458 -1.71962,-2.36248 -1.71962,-3.1482 0,-2.16336 4.68513,-1.74344 7.06148,0.63291 3.36673,3.36673 5.48905,2.13933 5.15545,-2.98156 -0.22598,-3.46903 0.13795,-4.64019 1.8047,-5.80762 3.12281,-2.18731 2.43611,-8.45272 -1.02163,-9.32133 -2.41907,-0.60769 -2.96748,-3.0504 -0.85485,-3.80769 0.54733,-0.19619 0.11964,-0.96994 -0.95042,-1.71944 -1.67814,-1.17542 -2.50586,-1.09202 -6.02184,0.60672 -5.14523,2.4859 -5.33651,2.46954 -4.61755,-0.39502 0.43161,-1.71967 0.0959,-2.5575 -1.23095,-3.07232 -1.64849,-0.6396 -1.58456,-0.83704 0.66306,-2.0478 1.3681,-0.73697 2.80802,-1.14183 3.19983,-0.89968 0.3918,0.24215 1.18964,-0.4515 1.77297,-1.54146 0.79406,-1.48372 0.64954,-3.00903 -0.57507,-6.06965 -1.50429,-3.75959 -1.77248,-3.9641 -3.33916,-2.54627 -2.35321,2.12961 -4.45121,2.00612 -3.53956,-0.20836 1.50401,-3.65332 1.68958,-5.25 0.61017,-5.25 -0.61415,0 -1.11663,0.45 -1.11663,1 0,1.50431 -5.58761,1.20182 -6.89481,-0.37325 -2.40969,-2.9035 1.02892,-6.09264 3.69481,-3.42675 0.8973,0.8973 1.48718,0.91282 2.33846,0.0615 1.65085,-1.65081 -4.19165,-7.2615 -7.56154,-7.2615 -2.64046,0 -3.43055,-1.3544 -1.48979,-2.55385 0.59793,-0.36954 1.58793,-0.17109 2.2,0.44098 C 504.8398,264.4398 506,264.27424 506,262.5 c 0,-0.825 -0.87344,-1.5 -1.94098,-1.5 -1.06754,0 -2.1818,-0.38965 -2.47614,-0.86589 -0.29433,-0.47624 -1.67089,-0.64878 -3.05901,-0.38342 -2.871,0.54882 -3.51797,-1.68077 -1.07584,-3.70756 1.4967,-1.24215 1.76088,-10.02264 0.30197,-10.03617 -1.12548,-0.0104 -0.90326,-5.79421 0.25,-6.50696 0.55,-0.33992 0.98569,-1.15398 0.9682,-1.80902 -0.0175,-0.65504 -0.64465,-0.3829 -1.39369,0.60476 -0.98126,1.29385 -2.0877,1.61356 -3.95888,1.14393 -1.88471,-0.47304 -2.76603,-0.21131 -3.2133,0.95426 -0.78333,2.04131 -2.40233,2.09164 -2.40233,0.0747 0,-0.84227 0.7875,-1.82194 1.75,-2.17706 2.47468,-0.91305 3.25497,-2.42359 2.59998,-5.03325 C 492.01692,231.93128 492.24027,231 492.89159,231 493.50122,231 494,230.50186 494,229.89301 c 0,-0.60884 -0.66059,-0.8535 -1.46797,-0.54367 -2.07355,0.79569 -2.82744,-0.92885 -1.49468,-3.41913 1.36754,-2.55527 2.0711,-8.93021 0.98557,-8.93021 -0.42791,0 -1.33038,0.66554 -2.00548,1.47899 -0.95887,1.15536 -1.68153,1.23597 -3.30267,0.36836 -1.80471,-0.96585 -1.87739,-1.2564 -0.55755,-2.22899 0.83472,-0.6151 1.51581,-2.58738 1.51356,-4.38285 -0.003,-2.65249 -0.33203,-3.16041 -1.75329,-2.70932 -2.0961,0.66527 -3.16264,-0.72376 -2.29394,-2.98755 0.46548,-1.21304 1.36514,-1.4804 3.44459,-1.02367 3.27196,0.71864 6.93186,-0.91571 6.93186,-3.09547 0,-1.19067 -0.75728,-1.36806 -3.57981,-0.83855 -2.25792,0.42359 -4.48097,0.1893 -6.02021,-0.63448 -1.87486,-1.0034 -2.71379,-1.03266 -3.62019,-0.12626 C 478.86403,202.73597 476,202.24451 476,200 c 0,-1.42125 0.66667,-2 2.30383,-2 1.32013,0 3.75232,-1.49445 5.69617,-3.5 1.86578,-1.925 4.12906,-3.5 5.0295,-3.5 0.90044,0 1.92191,-0.28474 2.26992,-0.63275 0.92719,-0.92719 -4.10029,-4.60835 -5.28976,-3.87322 -0.55531,0.3432 -1.44001,0.35804 -1.96599,0.033 -1.49435,-0.92356 -0.13412,-3.27007 2.25826,-3.89569 1.6031,-0.41922 1.87204,-0.85733 1.03818,-1.69119 -0.81992,-0.81992 -1.67955,-0.82881 -3.16701,-0.0327 -2.94084,1.57389 -3.28526,1.3877 -2.58608,-1.39804 0.43944,-1.75087 0.16263,-2.66816 -0.93192,-3.08817 -0.85637,-0.32862 -2.33424,-2.63258 -3.28416,-5.11991 -1.54627,-4.04885 -1.56542,-4.6129 -0.18288,-5.38661 1.009,-0.56466 1.3735,-1.75736 1.05163,-3.44109 -0.43067,-2.25292 -0.85376,-2.49758 -3.36517,-1.94598 -2.29529,0.50413 -2.75669,0.32897 -2.29598,-0.87163 0.34244,-0.89238 -0.2174,-1.92747 -1.37861,-2.54893 -2.42315,-1.29683 -3.525,-6.04503 -1.57632,-6.79281 2.13118,-0.81781 1.62505,-1.98197 -0.82327,-1.89359 -1.25173,0.0452 -2.65229,-0.79142 -3.25,-1.94134 -0.57768,-1.11141 -2.06284,-3.43088 -3.30034,-5.15438 -1.2375,-1.72349 -2.25,-3.35426 -2.25,-3.62394 0,-1.29039 7.53274,1.42167 9.86164,3.55056 1.4511,1.32646 5.7968,4.45353 9.65712,6.94904 3.86032,2.49551 7.62535,5.26817 8.36673,6.16148 1.81308,2.18464 7.1606,13.40463 8.16807,17.13798 0.44526,1.65 1.53513,4.97631 2.42193,7.3918 1.50394,4.09645 5.58014,28.99246 7.54924,46.1082 2.27702,19.79212 3.51801,25.23719 7.36219,32.30291 1.43719,2.64161 2.61308,5.84131 2.61308,7.11046 0,1.26914 1.125,3.96532 2.5,5.99149 1.375,2.02618 2.5,4.13459 2.5,4.68536 0,0.55076 1.125,3.1147 2.5,5.69763 1.375,2.58293 2.5,5.20722 2.5,5.83175 0,0.62453 0.74471,1.75311 1.6549,2.50796 0.9102,0.75484 2.26624,2.83494 3.01342,4.62244 1.61139,3.85495 4.70242,4.33652 6.41868,1 0.63656,-1.2375 2.28293,-3.45759 3.6586,-4.93354 2.29255,-2.45964 6.99256,-16.33558 9.08318,-26.81646 0.51801,-2.5969 1.27639,-3.5826 2.93915,-3.82014 1.3031,-0.18615 2.48161,0.30687 2.81589,1.17799 0.8165,2.12775 -1.36493,15.56294 -3.3835,20.83863 -2.03851,5.3278 -7.64997,14.7866 -11.45032,19.30091 -3.29892,3.91868 -3.35216,4.8963 -0.66861,12.27759 5.17746,14.24099 7.91756,31.79878 7.2374,46.37505 -0.74328,15.92867 -1.00354,18.65577 -2.73535,28.66104 -1.77764,10.2701 -4.67124,16.84387 -11.0875,25.18893 -2.32583,3.025 -5.06126,6.96308 -6.07873,8.75128 -1.01747,1.78821 -2.60241,3.49011 -3.52208,3.78201 -0.91968,0.29189 -2.82765,1.6016 -4.23994,2.91047 -3.59051,3.32757 -13.87355,9.55624 -15.7766,9.55624 -0.87008,0 -2.99461,1.35 -4.72117,3 -1.72657,1.65 -4.04152,3 -5.14434,3 -1.10281,0 -4.59441,0.88914 -7.7591,1.97586 -3.16469,1.08673 -10.02898,2.45351 -15.25398,3.03729 -5.225,0.58379 -10.0853,1.64602 -10.80067,2.36053 -1.02631,1.02507 -1.10051,3.49574 -0.35175,11.71271 0.52191,5.72748 0.79955,13.56361 0.61698,17.41361 -0.18258,3.85 -0.36179,7.83828 -0.39826,8.86285 -0.0595,1.67222 -0.78074,1.82247 -7.04795,1.46834 -3.83991,-0.21697 -7.45466,-0.8675 -8.03278,-1.44562 -1.78885,-1.78885 0.042,-4.30011 3.62505,-4.9723 4.4341,-0.83184 5.27872,-2.54211 4.65459,-9.42506 -0.31198,-3.44057 -0.0472,-6.52712 0.67592,-7.87822 0.77715,-1.45211 0.95083,-4.12659 0.50151,-7.72282 -0.95519,-7.64507 -2.18299,-8.26327 -17.11014,-8.61503 l -12.10619,-0.28528 -0.59237,6.00657 c -0.56797,5.75916 -0.35011,12.28585 0.8885,26.61812 l 0.57138,6.61154 -3.79691,0.62745 c -5.29942,0.87574 -9.55007,0.77513 -11.19263,-0.26493 z M 325.39112,311.91779 c -2.06395,-0.59872 -5.1178,-3.34134 -9.08579,-8.15981 -8.2194,-9.98112 -9.01906,-11.3736 -11.39185,-19.83703 -3.12706,-11.15377 -3.26435,-12.38486 -1.54071,-13.81536 1.29121,-1.07161 1.95803,-0.8657 4.08516,1.26143 1.40151,1.40151 2.54207,3.69306 2.54207,5.1074 0,4.18215 4.7938,14.72484 8.41597,18.50867 1.85166,1.9343 3.67089,4.52941 4.04273,5.76691 0.37184,1.2375 1.20825,2.25811 1.85869,2.26803 1.70365,0.026 7.91531,7.79643 7.18153,8.98372 -0.71993,1.16487 -1.85658,1.14925 -6.1078,-0.084 z"
       style="fill:#36382f" />
  </g>
</svg>
