<?xml version="1.0" encoding="UTF-8" standalone="no"?>
<svg
   xmlns:dc="http://purl.org/dc/elements/1.1/"
   xmlns:cc="http://creativecommons.org/ns#"
   xmlns:rdf="http://www.w3.org/1999/02/22-rdf-syntax-ns#"
   xmlns:svg="http://www.w3.org/2000/svg"
   xmlns="http://www.w3.org/2000/svg"
   viewBox="0 0 800 600"
   height="600"
   width="800"
   version="1.1"
   id="svg4762">
  <metadata
     id="metadata4768">
    <rdf:RDF>
      <cc:Work
         rdf:about="">
        <dc:format>image/svg+xml</dc:format>
        <dc:type
           rdf:resource="http://purl.org/dc/dcmitype/StillImage" />
        <dc:title></dc:title>
      </cc:Work>
    </rdf:RDF>
  </metadata>
  <defs
     id="defs4766" />
  <g
     id="g10931">
    <path
       id="path10961"
       d="m 449.77581,495.44248 c -0.27673,-0.27674 -12.827,-0.52394 -27.88948,-0.54935 -15.06248,-0.0254 -39.28912,-0.30659 -53.83698,-0.62486 -25.8923,-0.56644 -26.49918,-0.62719 -28.75,-2.87801 -3.14978,-3.14978 -2.89669,-4.99292 1.25582,-9.14543 l 3.55516,-3.55516 21.19484,0.73806 c 36.42234,1.26833 38.08145,1.2783 42.81477,0.25734 l 4.61993,-0.9965 0.62296,-6.59429 c 0.34262,-3.62685 0.62615,-9.30029 0.63006,-12.60764 l 0.007,-6.01336 -10.42254,-2.13309 c -6.819,-1.39559 -13.47459,-3.59147 -19.25,-6.35117 -4.8551,-2.31994 -10.29884,-4.85128 -12.09719,-5.62521 -11.80992,-5.08244 -29.08636,-23.68265 -34.02003,-36.62675 -6.57968,-17.26258 -7.575,-22.2968 -7.95532,-40.23706 -0.33465,-15.78561 0.50708,-25.01636 3.3813,-37.08102 0.40177,-1.68646 -0.606,-2.72927 -5.31522,-5.5 -9.93693,-5.84652 -24.41941,-22.50267 -26.29663,-30.24347 -0.55694,-2.29653 -1.73224,-6.4465 -2.61179,-9.22216 -1.28251,-4.0473 -1.38137,-5.85552 -0.49927,-9.13142 2.57363,-9.55772 14.98229,-7.11543 15.11585,2.97512 0.016,1.21162 1.2859,5.30233 2.82192,9.09046 2.18852,5.39734 4.28322,8.36492 9.68157,13.71597 5.96144,5.90921 11.96144,10.03016 12.7851,8.78112 0.43479,-0.65935 7.86935,-16.2771 8.75167,-18.3846 1.80163,-4.30337 7.03403,-15.10413 8.23561,-17 0.69716,-1.1 2.71373,-4.2256 4.48127,-6.94578 1.76753,-2.72018 3.2137,-5.83379 3.2137,-6.91914 0,-1.08535 1.28607,-4.25975 2.85794,-7.05422 C 370.96984,242.2707 377,226.73201 377,223.44651 c 0,-2.72512 2.7591,-12.34138 5.5796,-19.44651 0.76416,-1.925 1.81741,-6.28799 2.34055,-9.69552 0.52315,-3.40754 1.43266,-7.0952 2.02115,-8.19481 0.58849,-1.0996 2.00698,-5.94454 3.15221,-10.76654 1.14522,-4.82199 2.93048,-10.42998 3.96724,-12.46221 1.03676,-2.03222 2.50125,-5.48356 3.25442,-7.66964 2.11354,-6.13461 11.3838,-16.91121 17.0854,-19.86165 8.12961,-4.20687 13.36945,-5.33137 24.59943,-5.27919 20.43004,0.0949 36.07997,4.97872 45.81691,14.29787 7.68075,7.35119 15.61874,21.43808 18.10628,32.13169 3.2436,13.94383 5.26763,24.45354 5.48872,28.5 0.58143,10.64175 3.91183,33.9775 5.6373,39.5 2.45211,7.84816 9.53056,25.07366 11.89643,28.95012 1.02377,1.67744 2.39322,4.84988 3.04323,7.04988 0.65002,2.2 2.06427,5.08809 3.1428,6.41798 1.78622,2.20252 2.10157,2.27735 3.53909,0.83983 2.34907,-2.34907 7.05526,-14.7191 8.34362,-21.93087 C 545.65847,256.6239 546.9864,255 552.86807,255 c 7.29147,0 8.33058,1.65968 7.24297,11.56858 -1.24121,11.30824 -4.33424,21.93645 -7.54659,25.93142 -6.45026,8.02173 -10.26094,14.29096 -9.50628,15.63946 0.91988,1.64373 4.36077,13.33838 6.43198,21.86054 0.73519,3.025 1.74163,7.075 2.23653,9 0.4949,1.925 0.9878,10.025 1.09534,18 0.20398,15.12763 -1.15053,25.79617 -4.31676,34 -0.95521,2.475 -2.69717,7.20934 -3.87101,10.52076 -2.05223,5.78938 -5.95995,12.32352 -11.51235,19.24997 -6.14184,7.66174 -12.57512,14.23765 -14.5254,14.84743 -1.15308,0.36053 -3.32403,1.68149 -4.82433,2.93546 -3.29683,2.75552 -23.16447,12.44029 -25.56379,12.46144 -0.93961,0.008 -3.50838,0.66353 -5.70838,1.4561 -2.2,0.79258 -6.57167,1.46081 -9.71482,1.48495 -4.59907,0.0353 -5.91692,0.42153 -6.75,1.97815 -1.55052,2.89717 -1.36302,23.05734 0.21482,23.09776 0.6875,0.0176 4.4,0.24074 8.25,0.49584 3.85,0.25509 12.175,0.66228 18.5,0.90485 6.325,0.24258 12.0625,0.46946 12.75,0.50417 2.44589,0.1235 5.2501,4.04113 5.23469,7.31312 -0.0304,6.44492 0.92527,6.2459 -30.20652,6.29083 -15.56075,0.0225 -28.78884,0.34773 -29.39574,0.72282 -0.60691,0.37509 -1.32989,0.45556 -1.60662,0.17883 z m -4.38326,-16.10746 3.89254,-0.64297 -0.64327,-10.51341 c -0.3538,-5.78238 -0.77302,-10.64317 -0.93161,-10.80176 -0.15859,-0.15859 -4.14674,-0.53587 -8.86256,-0.8384 l -8.57421,-0.55006 -0.63672,4.64536 C 429.28652,463.18873 429,468.59134 429,472.63957 l 0,7.36043 6.25,-0.011 c 3.4375,-0.006 8.00165,-0.30034 10.14255,-0.65397 z M 390.14963,355.60674 c 4.74423,-7.57407 -1.48631,-16.30088 -9.70221,-13.58939 -3.37436,1.11364 -7.19671,6.96126 -5.91056,9.04228 0.88069,1.425 3.46314,-0.79873 3.46314,-2.98207 0,-2.57682 2.07159,-4.07756 5.62857,-4.07756 6.78426,0 8.88811,7.70456 3.37143,12.34655 -3.543,2.98124 -3.753,3.66312 -0.89818,2.91657 1.156,-0.3023 2.97751,-1.94767 4.04781,-3.65638 z m 40.84882,-0.10423 c 5.65086,-9.14328 -5.49405,-18.16076 -13.07537,-10.57943 -2.74643,2.74642 -3.73228,5.93438 -2.28327,7.3834 0.35189,0.35189 1.65271,-1.26061 2.89069,-3.58334 2.82877,-5.30738 6.21316,-6.07039 10.02371,-2.25984 2.13882,2.13882 2.47266,3.15627 1.90783,5.81458 -0.37655,1.77216 -1.37929,4.00962 -2.22832,4.97212 -0.84903,0.9625 -1.06065,1.75 -0.47027,1.75 0.59039,0 2.04614,-1.57387 3.235,-3.49749 z"
       style="fill:#eeeed8" />
    <path
       id="path10959"
       d="m 375.85262,492.74205 c -3.49394,-0.41688 -12.14193,-0.56073 -19.21775,-0.31968 -12.50474,0.426 -12.93194,0.37147 -15.25,-1.94659 -2.99445,-2.99446 -2.98481,-3.96675 0.0697,-7.02123 1.97681,-1.97682 3.58252,-2.49164 8.25,-2.64513 12.16721,-0.40012 18.98362,-0.28477 24.29545,0.41116 10.14985,1.32977 30.37449,1.18486 35.24259,-0.25251 l 4.59137,-1.35567 0.67523,-10.0562 c 0.99086,-14.75672 0.64239,-16.79588 -3.00919,-17.60904 -1.65,-0.36744 -6.54874,-1.45868 -10.88608,-2.42498 -8.55005,-1.90483 -28.15539,-10.90782 -35.55078,-16.32531 C 353.81818,424.95939 340,408.33217 340,403.03876 c 0,-0.58331 -0.86752,-2.96815 -1.92782,-5.29966 -6.82521,-15.00803 -8.95493,-40.04466 -5.18399,-60.94216 C 334.04969,330.36026 335,324.46502 335,323.69642 335,322.37758 325.87548,316 323.9886,316 c -0.48318,0 -4.72366,-4.44054 -9.42329,-9.86787 -8.36207,-9.65686 -12.49938,-16.50317 -12.54335,-20.7564 -0.0121,-1.16835 -0.70534,-4.06119 -1.54059,-6.42854 -2.76253,-7.82983 1.59762,-14.38845 7.95783,-11.97031 2.9242,1.11178 4.07591,3.14158 4.9189,8.66921 1.22016,8.00076 5.94722,16.4437 12.95022,23.13022 5.37427,5.1314 11.62206,9.22369 14.08201,9.22369 0.25001,0 0.98888,-1.6875 1.64193,-3.75 0.65305,-2.0625 2.07522,-5.3014 3.16038,-7.19755 1.08517,-1.89615 3.66152,-7.52115 5.72525,-12.5 2.06372,-4.97885 5.86164,-12.16475 8.43983,-15.96867 2.57819,-3.80392 4.9367,-8.07892 5.24114,-9.5 0.30443,-1.42108 2.28023,-6.18378 4.39066,-10.58378 5.83931,-12.17429 8.94873,-20.47654 9.93279,-26.52086 0.49063,-3.01353 1.3238,-6.60414 1.85148,-7.97914 1.47397,-3.84076 4.98072,-15.81842 6.58741,-22.5 2.98272,-12.40388 6.61918,-25.10222 8.01846,-28 0.79675,-1.65 2.53854,-5.475 3.87065,-8.5 2.94656,-6.69117 11.58126,-16.36159 17.15289,-19.21035 11.69873,-5.98152 28.66752,-6.44891 47.03385,-1.29548 16.06678,4.5082 25.9674,13.33038 34.0844,30.37172 3.69402,7.75547 9.0182,30.38594 10.01329,42.56163 1.38165,16.90539 4.10642,34.39763 6.31999,40.57248 3.04744,8.50096 7.04919,17.952 10.16205,24 1.55695,3.025 3.1512,6.625 3.54278,8 0.39159,1.375 1.92515,4.63461 3.40793,7.24358 l 2.69595,4.74357 2.10695,-2.24357 c 3.0264,-3.22266 7.86386,-15.16133 9.21553,-22.74358 1.5944,-8.94382 3.08339,-11 7.9657,-11 5.75431,0 7.16773,1.91874 6.49845,8.82173 -1.26286,13.0251 -5.1711,23.41869 -12.4412,33.08614 l -6.26526,8.33126 1.63976,3.43862 c 2.51453,5.27302 7.72184,26.86643 8.63864,35.82225 2.02001,19.73253 0.36123,36.13884 -4.88365,48.30233 -1.58842,3.68372 -3.19527,8.00425 -3.57078,9.60119 C 541.14966,409.43353 521.90729,434 518.60204,434 c -0.53522,0 -1.90214,0.86332 -3.03759,1.91849 -2.75498,2.56021 -23.61311,13.05006 -28.32693,14.24602 -2.05564,0.52154 -5.31252,1.36215 -7.23752,1.86802 -1.925,0.50587 -6.03936,0.93049 -9.14301,0.94361 -4.20776,0.0178 -5.79739,0.42617 -6.25,1.60565 -0.88906,2.31686 -0.74218,25.21663 0.16535,25.77751 1.06596,0.6588 28.52819,2.08513 35.00292,1.81797 4.47674,-0.18472 5.65926,0.16634 7.8121,2.31918 2.46773,2.46774 2.62667,5.44814 0.41785,7.83594 -0.42349,0.45782 -8.13542,0.72198 -17.1376,0.58704 -9.00219,-0.13495 -19.51761,-0.0686 -23.36761,0.14739 -8.20616,0.46042 -21.72123,0.45338 -26,-0.0136 -1.65,-0.18006 -8.625,-0.0243 -15.5,0.34611 -6.875,0.37042 -15.65,0.31959 -19.5,-0.11295 -3.85,-0.43254 -10.89132,-0.56143 -15.64738,-0.28643 -4.75606,0.275 -11.50606,0.15892 -15,-0.25795 z m 71.5483,-12.64186 2.90092,-1.16545 -0.6362,-11.11932 c -0.34991,-6.11562 -0.83391,-11.31702 -1.07555,-11.55867 -0.24165,-0.24164 -4.68137,-0.65002 -9.86605,-0.90751 l -9.4267,-0.46817 -0.64867,6.20616 C 428.2919,464.50061 428,470.53229 428,474.49096 l 0,7.19759 8.25,-0.21146 c 4.5375,-0.1163 9.55541,-0.73591 11.15092,-1.3769 z M 427.26014,360.0912 c 3.35828,-1.27682 6.07253,-5.86224 5.91711,-9.99631 -0.27037,-7.19197 -8.95593,-11.41662 -14.50224,-7.05389 -4.08272,3.21147 -5.02262,6.36999 -3.05465,10.2652 3.53358,6.99406 6.51651,8.73286 11.63978,6.785 z m -7.60515,-3.91994 c -2.07249,-2.29008 -2.08206,-4.00791 -0.045,-8.0912 1.95198,-3.91284 3.49836,-4.62156 6.56191,-3.00736 2.98801,1.5744 3.79391,2.83304 3.81283,5.95479 0.0365,6.01626 -6.56513,9.30358 -10.3297,5.14377 z m -28.87336,-0.16612 C 395.15861,349.49325 391.26768,341 383.90747,341 c -5.36803,0 -6.75335,0.77757 -8.90727,4.99961 -1.34657,2.6395 -1.73825,4.83976 -1.32017,7.41609 0.79905,4.92397 3.56474,6.72366 9.78625,6.36811 4.42091,-0.25264 5.22424,-0.66759 7.31535,-3.77867 z m -12.55912,1.43816 c -2.73244,-1.91388 -2.76193,-2.96237 -0.22336,-7.94163 2.50891,-4.92109 3.98735,-5.75094 7.848,-4.40511 5.50991,1.92077 4.94113,8.2329 -1.07222,11.89924 -3.93787,2.40092 -3.77902,2.39007 -6.55242,0.4475 z"
       style="fill:#d1d5ad" />
    <path
       id="path10957"
       d="m 444.5,492.38318 c -4.55787,-1.74228 -4.03531,-1.71084 -12,-0.72205 -6.17647,0.76679 -12.44279,0.72442 -40,-0.27045 -8.8,-0.31769 -23.55271,-0.64806 -32.78379,-0.73415 -13.68958,-0.12767 -16.95453,-0.43198 -17.70989,-1.65064 -0.60773,-0.98048 -0.46962,-2.18369 0.40173,-3.5 1.52147,-2.29843 10.26349,-3.47494 22.15847,-2.98212 22.31678,0.92461 34.19752,1.58811 36.17506,2.02026 1.23287,0.26942 3.93287,-0.28069 6,-1.22246 2.06713,-0.94177 4.65842,-1.98277 5.75842,-2.31333 1.53769,-0.4621 2.02155,-1.51493 2.09323,-4.55463 0.0513,-2.17449 0.3855,-8.28873 0.74271,-13.58722 0.7388,-10.95847 0.58554,-11.25726 -6.33594,-12.35202 -18.22749,-2.883 -39.86125,-13.92714 -53.5,-27.312 -9.41602,-9.24075 -14.80937,-19.30596 -19.54943,-36.4837 -1.02919,-3.72973 -2.15777,-7.24491 -2.50795,-7.81152 -0.35018,-0.5666 -0.75056,-7.64 -0.88974,-15.71867 -0.18906,-10.97463 0.21474,-17.16265 1.59704,-24.47394 2.92772,-15.4853 2.82929,-16.02669 -3.66934,-20.18381 C 327.4449,316.58883 324.55871,315 324.06681,315 c -1.32939,0 -16.49778,-17.95299 -18.56226,-21.96992 -2.23112,-4.34114 -4.70068,-14.29426 -4.81337,-19.39937 -0.0598,-2.7085 0.48107,-4.28349 1.80284,-5.25 4.53467,-3.31583 8.96979,-0.13907 10.07256,7.2147 1.27603,8.50921 5.63381,16.32283 13.13938,23.55931 5.86018,5.65007 12.37752,9.84528 15.29484,9.84528 0.41611,0 1.3051,-1.4625 1.97553,-3.25 0.67044,-1.7875 2.9605,-6.85 5.08902,-11.25 2.12853,-4.4 4.51632,-9.84644 5.3062,-12.10321 0.78988,-2.25676 3.71709,-7.61266 6.50491,-11.90199 2.78782,-4.28932 5.54735,-9.41788 6.1323,-11.39679 0.58494,-1.9789 2.5953,-6.74801 4.46747,-10.59801 C 375.5135,238.14115 380,226.38766 380,223.55016 c 0,-1.3725 1.53924,-7.12027 3.42053,-12.77281 1.88129,-5.65254 3.73139,-12.30235 4.11133,-14.77735 0.37994,-2.475 1.75917,-7.70987 3.06494,-11.63304 1.30578,-3.92317 2.88324,-9.54817 3.50548,-12.5 0.62223,-2.95183 1.48761,-5.81696 1.92307,-6.36696 0.43545,-0.55 1.99443,-4.00924 3.46439,-7.6872 5.06414,-12.67088 15.39687,-21.74518 28.1928,-24.75919 6.60166,-1.55499 26.25406,-0.6929 32.22447,1.41358 2.38944,0.84305 4.99073,1.53281 5.78064,1.53281 3.07743,0 13.03748,5.5979 17.68205,9.93794 7.68938,7.18522 15.61142,20.91475 17.22377,29.85021 0.36838,2.04152 1.03247,4.4173 1.47576,5.27952 1.07705,2.09493 4.14529,19.28374 4.45046,24.93233 0.46403,8.58884 3.45802,30.53054 4.93971,36.20102 1.847,7.06856 8.84663,24.85711 12.00843,30.51772 1.29604,2.3203 2.88551,5.82187 3.53217,7.78126 1.25942,3.81607 5.86778,12.5 6.63346,12.5 0.25436,0 1.54861,-1.2375 2.87611,-2.75 3.26847,-3.72395 7.34144,-14.05338 9.35177,-23.71691 1.41392,-6.79659 2.05998,-8.19212 4.39802,-9.5 2.46602,-1.37947 3.0162,-1.37734 5.49064,0.0212 2.61988,1.48075 2.73423,1.85927 2.4167,8 -0.30596,5.91672 -3.9872,21.2247 -5.81787,24.19288 -0.42499,0.68906 -3.43502,4.79413 -6.68896,9.1224 l -5.91626,7.86956 1.75659,3.63044 c 0.96613,1.99673 3.33676,9.70543 5.26807,17.13043 3.33947,12.8387 3.51556,14.35724 3.5949,31 0.0892,18.71856 -0.98021,27.36522 -4.15559,33.59917 -1.09283,2.14546 -2.68534,6.25659 -3.53892,9.13585 -2.15528,7.2701 -14.73648,25.05433 -21.36532,30.20108 -8.10287,6.29119 -26.59842,16.3737 -33.00233,17.99061 -2.09056,0.52784 -5.60101,1.42453 -7.80101,1.99264 -2.2,0.56812 -6.25,1.05056 -9,1.07211 -7.89729,0.0619 -7.95516,0.1642 -8.32388,14.72153 -0.24002,9.47601 0.0189,13.24228 1,14.54525 1.15924,1.53959 3.80733,1.82688 21.29396,2.31021 11.7827,0.32567 20.49483,0.98746 21.25,1.6142 C 507.42404,485.76688 508,487.03469 508,488 c 0,3.78871 -2.15574,4.17949 -19.19253,3.47909 -20.76823,-0.8538 -24.91483,-0.70531 -29.95412,1.07265 -5.17236,1.82492 -9.26406,1.77686 -14.35335,-0.16856 z M 443,482.5 c 1.375,-0.78602 3.46436,-1.44508 4.64301,-1.46456 1.17866,-0.0195 2.39255,-0.68571 2.69753,-1.48049 0.53475,-1.39354 -0.0778,-23.62552 -0.66716,-24.2149 -0.15929,-0.15929 -5.03307,-0.54147 -10.83063,-0.84928 l -10.541,-0.55967 -0.64488,8.28445 c -0.97043,12.4666 -0.79145,19.24987 0.54313,20.58445 1.65117,1.65117 11.74469,1.44658 14.8,-0.3 z M 387.36332,360.05196 c 3.44543,-1.30994 6.04675,-7.11888 5.29698,-11.8285 -1.26436,-7.94196 -10.08597,-10.95163 -15.68601,-5.35159 -3.40479,3.40478 -4.43877,6.8387 -3.52532,11.7078 0.51595,2.75025 1.3994,3.88413 3.86006,4.95428 3.80333,1.65409 6.67681,1.80213 10.05429,0.51801 z M 378.2,356.8 c -1.50662,-1.50662 -1.51914,-3.20941 -0.0446,-6.06357 0.63548,-1.23004 1.47121,-2.91143 1.85718,-3.73643 1.01655,-2.17287 3.72114,-2.40447 6.53656,-0.55974 3.25496,2.13273 3.09435,5.07007 -0.47225,8.63666 -3.09264,3.09264 -5.89446,3.70554 -7.87692,1.72308 z m 50.96257,2.95 C 437.4904,353.01151 434.18319,341 424,341 c -3.25776,0 -4.78443,0.63058 -7.07692,2.92308 -4.26451,4.2645 -3.72157,8.60005 1.9194,15.32692 1.7291,2.06197 8.01343,2.36644 10.32009,0.5 z m -9.12361,-3.93856 c -2.24982,-2.41489 -2.60244,-4.34515 -0.97728,-5.34956 0.58393,-0.36089 1.47279,-1.73745 1.97525,-3.05902 0.53428,-1.40525 1.72454,-2.40286 2.86689,-2.40286 5.02499,0 7.14701,8.45013 2.87367,11.4433 -2.98281,2.08924 -4.32028,1.96383 -6.73853,-0.63186 z"
       style="fill:#f7e057" />
    <path
       id="path10955"
       d="m 444.5,492.38318 c -4.55787,-1.74228 -4.03531,-1.71084 -12,-0.72205 -6.17647,0.76679 -12.44279,0.72442 -40,-0.27045 -8.8,-0.31769 -23.55271,-0.64806 -32.78379,-0.73415 -13.68958,-0.12767 -16.95453,-0.43198 -17.70989,-1.65064 -0.60773,-0.98048 -0.46962,-2.18369 0.40173,-3.5 1.52147,-2.29843 10.26349,-3.47494 22.15847,-2.98212 22.31678,0.92461 34.19752,1.58811 36.17506,2.02026 1.23287,0.26942 3.93287,-0.28069 6,-1.22246 2.06713,-0.94177 4.65842,-1.98277 5.75842,-2.31333 1.53769,-0.4621 2.02155,-1.51493 2.09323,-4.55463 0.0513,-2.17449 0.3855,-8.28873 0.74271,-13.58722 0.7388,-10.95847 0.58554,-11.25726 -6.33594,-12.35202 -18.22749,-2.883 -39.86125,-13.92714 -53.5,-27.312 -9.41602,-9.24075 -14.80937,-19.30596 -19.54943,-36.4837 -1.02919,-3.72973 -2.15777,-7.24491 -2.50795,-7.81152 -0.35018,-0.5666 -0.75056,-7.64 -0.88974,-15.71867 -0.18906,-10.97463 0.21474,-17.16265 1.59704,-24.47394 2.92772,-15.4853 2.82929,-16.02669 -3.66934,-20.18381 C 327.4449,316.58883 324.55871,315 324.06681,315 c -1.32939,0 -16.49778,-17.95299 -18.56226,-21.96992 -2.23112,-4.34114 -4.70068,-14.29426 -4.81337,-19.39937 -0.0598,-2.7085 0.48107,-4.28349 1.80284,-5.25 4.53467,-3.31583 8.96979,-0.13907 10.07256,7.2147 1.27603,8.50921 5.63381,16.32283 13.13938,23.55931 5.86018,5.65007 12.37752,9.84528 15.29484,9.84528 0.41611,0 1.3051,-1.4625 1.97553,-3.25 0.67044,-1.7875 2.9605,-6.85 5.08902,-11.25 2.12853,-4.4 4.51632,-9.84644 5.3062,-12.10321 0.78988,-2.25676 3.71709,-7.61266 6.50491,-11.90199 2.78782,-4.28932 5.54735,-9.41788 6.1323,-11.39679 0.58494,-1.9789 2.5953,-6.74801 4.46747,-10.59801 C 375.5135,238.14115 380,226.38766 380,223.55016 c 0,-1.3725 1.53924,-7.12027 3.42053,-12.77281 1.88129,-5.65254 3.73139,-12.30235 4.11133,-14.77735 0.37994,-2.475 1.75917,-7.70987 3.06494,-11.63304 1.30578,-3.92317 2.88324,-9.54817 3.50548,-12.5 0.62223,-2.95183 1.48761,-5.81696 1.92307,-6.36696 0.43545,-0.55 1.99443,-4.00924 3.46439,-7.6872 5.06414,-12.67088 15.39687,-21.74518 28.1928,-24.75919 6.60166,-1.55499 26.25406,-0.6929 32.22447,1.41358 2.38944,0.84305 4.99073,1.53281 5.78064,1.53281 3.07743,0 13.03748,5.5979 17.68205,9.93794 7.68938,7.18522 15.61142,20.91475 17.22377,29.85021 0.36838,2.04152 1.03247,4.4173 1.47576,5.27952 1.07705,2.09493 4.14529,19.28374 4.45046,24.93233 0.46403,8.58884 3.45802,30.53054 4.93971,36.20102 1.847,7.06856 8.84663,24.85711 12.00843,30.51772 1.29604,2.3203 2.88551,5.82187 3.53217,7.78126 1.25942,3.81607 5.86778,12.5 6.63346,12.5 0.25436,0 1.54861,-1.2375 2.87611,-2.75 3.26847,-3.72395 7.34144,-14.05338 9.35177,-23.71691 1.41392,-6.79659 2.05998,-8.19212 4.39802,-9.5 2.46602,-1.37947 3.0162,-1.37734 5.49064,0.0212 2.61988,1.48075 2.73423,1.85927 2.4167,8 -0.30596,5.91672 -3.9872,21.2247 -5.81787,24.19288 -0.42499,0.68906 -3.43502,4.79413 -6.68896,9.1224 l -5.91626,7.86956 1.75659,3.63044 c 0.96613,1.99673 3.33676,9.70543 5.26807,17.13043 3.33947,12.8387 3.51556,14.35724 3.5949,31 0.0892,18.71856 -0.98021,27.36522 -4.15559,33.59917 -1.09283,2.14546 -2.68534,6.25659 -3.53892,9.13585 -2.15528,7.2701 -14.73648,25.05433 -21.36532,30.20108 -8.10287,6.29119 -26.59842,16.3737 -33.00233,17.99061 -2.09056,0.52784 -5.60101,1.42453 -7.80101,1.99264 -2.2,0.56812 -6.25,1.05056 -9,1.07211 -7.89729,0.0619 -7.95516,0.1642 -8.32388,14.72153 -0.24002,9.47601 0.0189,13.24228 1,14.54525 1.15924,1.53959 3.80733,1.82688 21.29396,2.31021 11.7827,0.32567 20.49483,0.98746 21.25,1.6142 C 507.42404,485.76688 508,487.03469 508,488 c 0,3.78871 -2.15574,4.17949 -19.19253,3.47909 -20.76823,-0.8538 -24.91483,-0.70531 -29.95412,1.07265 -5.17236,1.82492 -9.26406,1.77686 -14.35335,-0.16856 z M 443,482.5 c 1.375,-0.78602 3.46436,-1.44508 4.64301,-1.46456 1.17866,-0.0195 2.39255,-0.68571 2.69753,-1.48049 0.53475,-1.39354 -0.0778,-23.62552 -0.66716,-24.2149 -0.15929,-0.15929 -5.03307,-0.54147 -10.83063,-0.84928 l -10.541,-0.55967 -0.64488,8.28445 c -0.97043,12.4666 -0.79145,19.24987 0.54313,20.58445 1.65117,1.65117 11.74469,1.44658 14.8,-0.3 z M 388.53316,361.80294 C 391.51293,360.44527 395,354.35462 395,350.50772 395,343.97807 389.75093,338 384.01754,338 c -10.34871,0 -16.42784,13.1235 -9.91469,21.40362 2.717,3.4541 9.6026,4.59897 14.43031,2.39932 z M 378.2,356.8 c -1.50662,-1.50662 -1.51914,-3.20941 -0.0446,-6.06357 0.63548,-1.23004 1.47121,-2.91143 1.85718,-3.73643 1.01655,-2.17287 3.72114,-2.40447 6.53656,-0.55974 3.25496,2.13273 3.09435,5.07007 -0.47225,8.63666 -3.09264,3.09264 -5.89446,3.70554 -7.87692,1.72308 z m 52.03829,4.2272 C 433.27719,358.6368 436,353.18052 436,349.48122 c 0,-1.82221 -1.2781,-3.99462 -3.88235,-6.59887 C 429.01936,339.78407 427.49466,339 424.56799,339 417.79431,339 412,344.03432 412,349.91955 c 0,2.84369 3.82083,9.84155 6.33498,11.60253 2.99757,2.09958 8.91791,1.85344 11.90331,-0.49488 z m -10.19933,-5.21576 c -2.24982,-2.41489 -2.60244,-4.34515 -0.97728,-5.34956 0.58393,-0.36089 1.47279,-1.73745 1.97525,-3.05902 0.53428,-1.40525 1.72454,-2.40286 2.86689,-2.40286 5.02499,0 7.14701,8.45013 2.87367,11.4433 -2.98281,2.08924 -4.32028,1.96383 -6.73853,-0.63186 z"
       style="fill:#f6d52b" />
    <path
       id="path10953"
       d="m 444.5,492.38318 c -4.55787,-1.74228 -4.03531,-1.71084 -12,-0.72205 -6.17647,0.76679 -12.44279,0.72442 -40,-0.27045 -8.8,-0.31769 -23.55271,-0.64806 -32.78379,-0.73415 -13.68958,-0.12767 -16.95453,-0.43198 -17.70989,-1.65064 -0.60773,-0.98048 -0.46962,-2.18369 0.40173,-3.5 1.52147,-2.29843 10.26349,-3.47494 22.15847,-2.98212 22.31678,0.92461 34.19752,1.58811 36.17506,2.02026 1.23287,0.26942 3.93287,-0.28069 6,-1.22246 2.06713,-0.94177 4.65842,-1.98277 5.75842,-2.31333 1.53769,-0.4621 2.02155,-1.51493 2.09323,-4.55463 0.0513,-2.17449 0.3855,-8.28873 0.74271,-13.58722 0.7388,-10.95847 0.58554,-11.25726 -6.33594,-12.35202 -18.22749,-2.883 -39.86125,-13.92714 -53.5,-27.312 -9.41602,-9.24075 -14.80937,-19.30596 -19.54943,-36.4837 -1.02919,-3.72973 -2.15777,-7.24491 -2.50795,-7.81152 -0.35018,-0.5666 -0.75056,-7.64 -0.88974,-15.71867 -0.18906,-10.97463 0.21474,-17.16265 1.59704,-24.47394 2.92772,-15.4853 2.82929,-16.02669 -3.66934,-20.18381 C 327.4449,316.58883 324.55871,315 324.06681,315 c -1.32939,0 -16.49778,-17.95299 -18.56226,-21.96992 -2.23112,-4.34114 -4.70068,-14.29426 -4.81337,-19.39937 -0.0598,-2.7085 0.48107,-4.28349 1.80284,-5.25 4.53467,-3.31583 8.96979,-0.13907 10.07256,7.2147 1.27603,8.50921 5.63381,16.32283 13.13938,23.55931 5.86018,5.65007 12.37752,9.84528 15.29484,9.84528 0.41611,0 1.3051,-1.4625 1.97553,-3.25 0.67044,-1.7875 2.9605,-6.85 5.08902,-11.25 2.12853,-4.4 4.51632,-9.84644 5.3062,-12.10321 0.78988,-2.25676 3.71709,-7.61266 6.50491,-11.90199 2.78782,-4.28932 5.54735,-9.41788 6.1323,-11.39679 0.58494,-1.9789 2.5953,-6.74801 4.46747,-10.59801 C 375.5135,238.14115 380,226.38766 380,223.55016 c 0,-1.3725 1.53924,-7.12027 3.42053,-12.77281 1.88129,-5.65254 3.73139,-12.30235 4.11133,-14.77735 0.37994,-2.475 1.75917,-7.70987 3.06494,-11.63304 1.30578,-3.92317 2.88324,-9.54817 3.50548,-12.5 0.62223,-2.95183 1.48761,-5.81696 1.92307,-6.36696 0.43545,-0.55 1.99443,-4.00924 3.46439,-7.6872 5.06414,-12.67088 15.39687,-21.74518 28.1928,-24.75919 6.60166,-1.55499 26.25406,-0.6929 32.22447,1.41358 2.38944,0.84305 4.99073,1.53281 5.78064,1.53281 3.07743,0 13.03748,5.5979 17.68205,9.93794 7.68938,7.18522 15.61142,20.91475 17.22377,29.85021 0.36838,2.04152 1.03247,4.4173 1.47576,5.27952 1.07705,2.09493 4.14529,19.28374 4.45046,24.93233 0.46403,8.58884 3.45802,30.53054 4.93971,36.20102 1.847,7.06856 8.84663,24.85711 12.00843,30.51772 1.29604,2.3203 2.88551,5.82187 3.53217,7.78126 1.25942,3.81607 5.86778,12.5 6.63346,12.5 0.25436,0 1.54861,-1.2375 2.87611,-2.75 3.26847,-3.72395 7.34144,-14.05338 9.35177,-23.71691 1.41392,-6.79659 2.05998,-8.19212 4.39802,-9.5 2.46602,-1.37947 3.0162,-1.37734 5.49064,0.0212 2.61988,1.48075 2.73423,1.85927 2.4167,8 -0.30596,5.91672 -3.9872,21.2247 -5.81787,24.19288 -0.42499,0.68906 -3.43502,4.79413 -6.68896,9.1224 l -5.91626,7.86956 1.75659,3.63044 c 0.96613,1.99673 3.33676,9.70543 5.26807,17.13043 3.33947,12.8387 3.51556,14.35724 3.5949,31 0.0892,18.71856 -0.98021,27.36522 -4.15559,33.59917 -1.09283,2.14546 -2.68534,6.25659 -3.53892,9.13585 -2.15528,7.2701 -14.73648,25.05433 -21.36532,30.20108 -8.10287,6.29119 -26.59842,16.3737 -33.00233,17.99061 -2.09056,0.52784 -5.60101,1.42453 -7.80101,1.99264 -2.2,0.56812 -6.25,1.05056 -9,1.07211 -7.89729,0.0619 -7.95516,0.1642 -8.32388,14.72153 -0.24002,9.47601 0.0189,13.24228 1,14.54525 1.15924,1.53959 3.80733,1.82688 21.29396,2.31021 11.7827,0.32567 20.49483,0.98746 21.25,1.6142 C 507.42404,485.76688 508,487.03469 508,488 c 0,3.78871 -2.15574,4.17949 -19.19253,3.47909 -20.76823,-0.8538 -24.91483,-0.70531 -29.95412,1.07265 -5.17236,1.82492 -9.26406,1.77686 -14.35335,-0.16856 z M 443,482.5 c 1.375,-0.78602 3.46436,-1.44508 4.64301,-1.46456 1.17866,-0.0195 2.39255,-0.68571 2.69753,-1.48049 0.53475,-1.39354 -0.0778,-23.62552 -0.66716,-24.2149 -0.15929,-0.15929 -5.03307,-0.54147 -10.83063,-0.84928 l -10.541,-0.55967 -0.64488,8.28445 c -0.97043,12.4666 -0.79145,19.24987 0.54313,20.58445 1.65117,1.65117 11.74469,1.44658 14.8,-0.3 z m -11.98999,-75.31123 c 3.58051,-0.99275 8.95699,-3.12885 11.94773,-4.74689 5.09276,-2.75525 5.7602,-3.57627 10.52098,-12.94188 4.44705,-8.74843 5.22034,-11.18899 6.17856,-19.5 2.7274,-23.65582 -3.30582,-46.92355 -13.92181,-53.69078 -2.32951,-1.48497 -5.19876,-3.54424 -6.37612,-4.57617 -1.17736,-1.03192 -5.45236,-2.7363 -9.5,-3.7875 -13.48325,-3.50169 -27.93919,-2.10727 -36.35935,3.50723 -2.75,1.83368 -6.37183,4.02162 -8.04852,4.86208 -4.19465,2.10264 -10.59961,8.53004 -12.66886,12.71327 -8.91578,18.02422 -10.87775,27.66674 -8.13312,39.97187 0.92008,4.125 1.86198,6.94005 2.09313,6.25567 0.23114,-0.68438 -0.23803,-4.28438 -1.04261,-8 -1.58263,-7.30877 -1.05989,-17.04309 1.12802,-21.00567 0.68328,-1.2375 1.33899,-2.24723 1.45714,-2.24384 0.11815,0.003 0.26698,2.14089 0.33072,4.75 0.18584,7.60651 2.12336,12.77506 6.87624,18.3432 9.28919,10.88257 17.82928,14.61879 31.11783,13.61378 16.18394,-1.22399 29.47698,-13.62721 31.86116,-29.72842 0.79604,-5.3759 -0.92466,-17.02728 -3.1502,-21.331 -2.0915,-4.04451 -11.82543,-13.36028 -16.39682,-15.69244 -1.97648,-1.00832 -6.67739,-2.45656 -10.44648,-3.21831 -8.44923,-1.70763 -6.68994,-2.8623 5.02237,-3.29632 11.09647,-0.4112 19.34807,1.76358 28.21695,7.43682 7.62036,4.87459 8.53484,6.15346 14.02706,19.61653 4.79679,11.75834 4.52286,37.88076 -0.5193,49.52275 -1.07735,2.48752 -3.61882,7.11776 -5.64772,10.28944 -4.43242,6.929 -9.32673,9.57934 -23.40976,12.67675 -7.9769,1.75444 -10.48211,1.90853 -17.24393,1.06067 -4.35114,-0.54558 -9.24154,-1.67994 -10.86757,-2.52079 -3.97453,-2.05531 -5.34985,-1.88364 -1.55573,0.19419 8.22395,4.5038 21.51661,5.06839 34.51001,1.46576 z m -35.80717,-37.44436 c -0.57313,-0.69058 -1.36959,-2.5606 -1.76991,-4.1556 -0.55768,-2.222 -0.30057,-3.21242 1.09975,-4.23636 1.53136,-1.11976 2.08206,-1.10917 3.39746,0.0653 2.34425,2.09316 4.11741,2.21737 8.93778,0.62614 4.01931,-1.3268 4.47275,-1.29852 5.68132,0.3543 1.76866,2.41879 0.94214,4.11431 -3.1957,6.55569 -3.9362,2.32241 -12.48307,2.79986 -14.1507,0.7905 z M 378.2,356.8 c -1.50662,-1.50662 -1.51914,-3.20941 -0.0446,-6.06357 0.63548,-1.23004 1.47121,-2.91143 1.85718,-3.73643 1.01655,-2.17287 3.72114,-2.40447 6.53656,-0.55974 3.25496,2.13273 3.09435,5.07007 -0.47225,8.63666 -3.09264,3.09264 -5.89446,3.70554 -7.87692,1.72308 z m 41.83896,-0.98856 c -2.24982,-2.41489 -2.60244,-4.34515 -0.97728,-5.34956 0.58393,-0.36089 1.47279,-1.73745 1.97525,-3.05902 0.53428,-1.40525 1.72454,-2.40286 2.86689,-2.40286 5.02499,0 7.14701,8.45013 2.87367,11.4433 -2.98281,2.08924 -4.32028,1.96383 -6.73853,-0.63186 z"
       style="fill:#b0af93" />
    <path
       id="path10951"
       d="M 409.75,491.42258 C 408.2375,490.60503 407,489.15063 407,488.19057 407,485.33598 409.94255,482 412.46047,482 c 2.26809,0 2.37372,-0.36173 3.139,-10.75 1.07414,-14.5808 0.93991,-19.29861 -0.57571,-20.23531 -0.70392,-0.43505 -3.58474,-1.09177 -6.40181,-1.45938 -8.35755,-1.09061 -15.44606,-3.49248 -27.62195,-9.35942 -11.87646,-5.72267 -18.72564,-10.29056 -25.3121,-16.88131 -5.47121,-5.47477 -12.66343,-15.33266 -13.34172,-18.2866 -0.31927,-1.39039 -1.60433,-5.00298 -2.8557,-8.02798 -1.25137,-3.025 -3.26315,-9.08459 -4.47062,-13.46576 -2.96682,-10.76476 -2.98959,-32.17347 -0.0522,-49.0894 C 336.08545,328.0077 337,322.32627 337,321.81945 c 0,-0.50683 -1.4625,-1.59823 -3.25,-2.42535 -7.36292,-3.40699 -11.59617,-6.71394 -18.05717,-14.10599 -8.34055,-9.54247 -11.25994,-14.43144 -12.11476,-20.28811 -0.36125,-2.475 -1.15493,-5.89457 -1.76374,-7.59903 -2.10625,-5.89682 1.02389,-10.53926 6.03391,-8.94914 2.15972,0.68547 4.15176,4.58407 4.15176,8.12536 0,1.36569 1.16248,5.28202 2.58328,8.70294 3.10713,7.48114 13.42073,18.59468 20.74572,22.35478 5.7147,2.9335 6.84218,2.39699 8.66814,-4.1247 0.68553,-2.44848 2.31662,-5.90235 3.62464,-7.67528 1.30802,-1.77292 2.37822,-3.76626 2.37822,-4.42964 0,-2.04057 7.60012,-17.59231 11.43814,-23.40529 1.99725,-3.025 4.3134,-7.83063 5.14699,-10.67918 0.83358,-2.84854 2.43616,-6.34947 3.56129,-7.77983 2.05706,-2.61513 7.18109,-15.59524 9.09566,-23.04099 2.52147,-9.80597 4.9974,-18.27183 6.28791,-21.5 0.76955,-1.925 1.70227,-5.71123 2.07271,-8.41385 0.37044,-2.70262 1.96138,-8.70025 3.53542,-13.32805 1.57403,-4.62781 2.86188,-9.26498 2.86188,-10.30484 0,-1.03986 1.9125,-6.44524 4.25,-12.01196 8.01776,-19.09417 18.72454,-27.32416 36.9399,-28.39462 10.34166,-0.60775 31.50318,3.66288 40.06232,8.08502 8.02027,4.14373 18.81408,18.02306 22.55257,28.99946 4.13278,12.13404 8.11599,30.51237 8.09911,37.36884 -0.005,1.925 0.50983,6.875 1.1435,11 0.63367,4.125 1.24156,8.85 1.35088,10.5 0.39242,5.92312 1.80051,13.09614 3.63161,18.5 2.71721,8.0189 9.32182,23.74291 12.34853,29.39894 1.44187,2.69442 2.62158,5.54995 2.62158,6.34563 0,0.79568 0.84096,2.64116 1.8688,4.10106 1.02785,1.4599 2.18317,3.66687 2.56739,4.90437 0.38422,1.2375 1.23076,2.24999 1.8812,2.24997 3.6607,-9e-5 10.96046,-14.99056 13.31357,-27.34016 0.72167,-3.78747 1.83003,-7.51035 2.46303,-8.27306 1.47261,-1.77438 6.32173,-1.79569 7.78364,-0.0342 1.60748,1.93689 0.42435,12.48122 -2.51788,22.43994 -1.99912,6.76651 -3.62901,9.81996 -8.85706,16.59294 l -6.40709,8.30044 2.42846,5.90706 c 1.33566,3.24888 2.43915,6.64481 2.4522,7.5465 0.0131,0.9017 1.19233,5.8517 2.62061,11 1.42828,5.14831 2.80514,12.51056 3.05969,16.36056 0.76432,11.55987 0.41284,28.18726 -0.65521,30.99646 -0.55074,1.44855 -1.00135,3.8922 -1.00135,5.43032 0,1.53813 -1.31206,5.69027 -2.91568,9.22699 -1.60363,3.53671 -3.21089,8.00401 -3.57171,9.92732 -0.39817,2.1224 -3.7936,7.68688 -8.63836,14.15663 -10.40907,13.9004 -13.59884,16.52683 -31.31028,25.78055 -11.48195,5.999 -16.79936,7.68175 -28.52078,9.02571 -4.65124,0.5333 -8.92624,1.43964 -9.5,2.01409 -0.63004,0.6308 -1.09351,7.65791 -1.17026,17.74319 -0.0699,9.18431 -0.18238,17.24968 -0.25,17.92306 -0.35841,3.56951 -11.96569,5.59054 -17.12293,2.98141 -1.94346,-0.98323 -2.5,-2.03738 -2.5,-4.73526 0,-3.20528 0.32476,-3.57324 4.25,-4.81536 l 4.25,-1.3449 0.11092,-5.6551 c 0.19638,-10.01242 -0.2604,-19.63528 -0.96726,-20.37727 -1.14205,-1.19879 -21.95118,-1.89829 -22.65375,-0.76151 -0.34456,0.55751 -0.66964,9.12602 -0.7224,19.04113 -0.0593,11.1368 -0.48801,18.2698 -1.1217,18.66144 -2.23306,1.38011 -13.17159,1.1762 -15.89581,-0.29632 z m 21.26001,-84.23381 c 3.58051,-0.99275 8.95699,-3.12885 11.94773,-4.74689 5.09276,-2.75525 5.7602,-3.57627 10.52098,-12.94188 4.44705,-8.74843 5.22034,-11.18899 6.17856,-19.5 2.7274,-23.65582 -3.30582,-46.92355 -13.92181,-53.69078 -2.32951,-1.48497 -5.19876,-3.54424 -6.37612,-4.57617 -1.17736,-1.03192 -5.45236,-2.7363 -9.5,-3.7875 -13.48325,-3.50169 -27.93919,-2.10727 -36.35935,3.50723 -2.75,1.83368 -6.37183,4.02162 -8.04852,4.86208 -4.19465,2.10264 -10.59961,8.53004 -12.66886,12.71327 -8.91578,18.02422 -10.87775,27.66674 -8.13312,39.97187 0.92008,4.125 1.86198,6.94005 2.09313,6.25567 0.23114,-0.68438 -0.23803,-4.28438 -1.04261,-8 -1.58263,-7.30877 -1.05989,-17.04309 1.12802,-21.00567 0.68328,-1.2375 1.33899,-2.24723 1.45714,-2.24384 0.11815,0.003 0.26698,2.14089 0.33072,4.75 0.18584,7.60651 2.12336,12.77506 6.87624,18.3432 9.28919,10.88257 17.82928,14.61879 31.11783,13.61378 16.18394,-1.22399 29.47698,-13.62721 31.86116,-29.72842 0.79604,-5.3759 -0.92466,-17.02728 -3.1502,-21.331 -2.0915,-4.04451 -11.82543,-13.36028 -16.39682,-15.69244 -1.97648,-1.00832 -6.67739,-2.45656 -10.44648,-3.21831 -8.44923,-1.70763 -6.68994,-2.8623 5.02237,-3.29632 11.09647,-0.4112 19.34807,1.76358 28.21695,7.43682 7.62036,4.87459 8.53484,6.15346 14.02706,19.61653 4.79679,11.75834 4.52286,37.88076 -0.5193,49.52275 -1.07735,2.48752 -3.61882,7.11776 -5.64772,10.28944 -4.43242,6.929 -9.32673,9.57934 -23.40976,12.67675 -7.9769,1.75444 -10.48211,1.90853 -17.24393,1.06067 -4.35114,-0.54558 -9.24154,-1.67994 -10.86757,-2.52079 -3.97453,-2.05531 -5.34985,-1.88364 -1.55573,0.19419 8.22395,4.5038 21.51661,5.06839 34.51001,1.46576 z m -35.80717,-37.44436 c -0.57313,-0.69058 -1.36959,-2.5606 -1.76991,-4.1556 -0.55768,-2.222 -0.30057,-3.21242 1.09975,-4.23636 1.53136,-1.11976 2.08206,-1.10917 3.39746,0.0653 2.34425,2.09316 4.11741,2.21737 8.93778,0.62614 4.01931,-1.3268 4.47275,-1.29852 5.68132,0.3543 1.76866,2.41879 0.94214,4.11431 -3.1957,6.55569 -3.9362,2.32241 -12.48307,2.79986 -14.1507,0.7905 z m -16.8671,-14.31187 c -0.33082,-0.8621 -0.1325,-2.5496 0.44071,-3.75 0.57321,-1.2004 1.29388,-2.97004 1.60149,-3.93254 0.64337,-2.01309 4.61853,-2.35353 6.42206,-0.55 2.00506,2.00506 1.34914,5.53753 -1.43486,7.72742 -3.13008,2.46212 -6.19394,2.68228 -7.0294,0.50512 z m 42.1627,-0.43426 c -1.74961,-1.93331 -1.74714,-2.12128 0.0724,-5.5 2.94728,-5.47277 7.42914,-4.16574 7.42914,2.16654 0,2.20437 -0.62827,3.60105 -1.93426,4.3 -2.71182,1.45132 -3.50356,1.31386 -5.5673,-0.96654 z"
       style="fill:#9dd352" />
    <path
       id="path10949"
       d="M 409.75,491.42258 C 408.2375,490.60503 407,489.15063 407,488.19057 407,485.33598 409.94255,482 412.46047,482 c 2.26809,0 2.37372,-0.36173 3.139,-10.75 1.08051,-14.6673 0.94306,-19.29667 -0.6013,-20.25113 -0.718,-0.44375 -3.59882,-1.10039 -6.40181,-1.4592 C 396.30273,447.96598 379.3234,440.42879 366,430.63098 356.12054,423.36579 345.4848,410.63859 343.32745,403.5 c -0.66486,-2.2 -2.9601,-9.03416 -5.10052,-15.18703 -3.82621,-10.99878 -3.8952,-11.45313 -4.09984,-27 -0.14881,-11.30517 0.20146,-17.23832 1.22872,-20.81297 0.79028,-2.75 1.70717,-8.21418 2.03753,-12.14262 l 0.60066,-7.14262 -3.747,-1.65222 c -7.58909,-3.34637 -11.90412,-6.66608 -18.55417,-14.27443 -8.34055,-9.54247 -11.25994,-14.43144 -12.11476,-20.28811 -0.36125,-2.475 -1.15493,-5.89457 -1.76374,-7.59903 -2.10625,-5.89682 1.02389,-10.53926 6.03391,-8.94914 2.15972,0.68547 4.15176,4.58407 4.15176,8.12536 0,1.36569 1.16248,5.28202 2.58328,8.70294 3.27169,7.87736 13.48407,18.6366 21.64231,22.80122 l 5.72559,2.9228 1.44301,-2.25208 c 0.79366,-1.23864 1.92774,-4.09311 2.52019,-6.34327 0.59245,-2.25015 1.97908,-4.9074 3.0814,-5.90498 1.10232,-0.99759 2.00422,-2.50197 2.00422,-3.34308 0,-0.84111 0.92984,-3.58387 2.06631,-6.09502 1.13647,-2.51114 2.93062,-6.47822 3.987,-8.81572 1.05638,-2.3375 2.37654,-4.25 2.93369,-4.25 0.55715,0 1.013,-0.72254 1.013,-1.60564 0,-0.88311 1.12113,-2.93803 2.4914,-4.56651 1.37027,-1.62847 3.21596,-5.45328 4.10155,-8.49959 0.88558,-3.0463 2.65632,-7.08035 3.93498,-8.96455 1.27865,-1.88421 3.26954,-6.47826 4.42419,-10.20902 1.15466,-3.73076 2.72075,-7.67034 3.48021,-8.75462 0.75947,-1.08429 1.67653,-4.20537 2.03793,-6.93575 0.3614,-2.73038 1.24523,-6.53932 1.96408,-8.46432 2.86646,-7.6761 4.61159,-13.86113 6.0286,-21.36629 0.81686,-4.32646 1.96071,-8.43925 2.54189,-9.13953 0.58119,-0.70029 1.73457,-4.58546 2.56308,-8.63371 2.38897,-11.67307 8.15543,-24.39799 13.68209,-30.19247 2.6125,-2.7391 4.75,-5.25371 4.75,-5.58801 0,-0.88524 8.7673,-4.86067 14,-6.34814 2.71121,-0.7707 9.11976,-1.20527 16.12182,-1.09323 32.85878,0.52579 49.3759,14.09469 58.26058,47.86138 2.25578,8.57322 4.53157,21.40806 4.5215,25.5 -0.005,1.925 0.50983,6.875 1.1435,11 0.63367,4.125 1.24156,8.85 1.35088,10.5 0.39242,5.92312 1.80051,13.09614 3.63161,18.5 2.71721,8.0189 9.32182,23.74291 12.34853,29.39894 1.44187,2.69442 2.62158,5.54995 2.62158,6.34563 0,0.79568 0.84096,2.64116 1.8688,4.10106 1.02785,1.4599 2.18317,3.66687 2.56739,4.90437 0.38422,1.2375 1.23076,2.24999 1.8812,2.24997 3.6607,-9e-5 10.96046,-14.99056 13.31357,-27.34016 0.72167,-3.78747 1.83003,-7.51035 2.46303,-8.27306 1.47261,-1.77438 6.32173,-1.79569 7.78364,-0.0342 1.60748,1.93689 0.42435,12.48122 -2.51788,22.43994 -1.99912,6.76651 -3.62901,9.81996 -8.85706,16.59294 l -6.40709,8.30044 2.42846,5.90706 c 1.33566,3.24888 2.43915,6.64481 2.4522,7.5465 0.0131,0.9017 1.19233,5.8517 2.62061,11 1.42828,5.14831 2.80514,12.51056 3.05969,16.36056 0.76432,11.55987 0.41284,28.18726 -0.65521,30.99646 -0.55074,1.44855 -1.00135,3.8922 -1.00135,5.43032 0,1.53813 -1.31206,5.69027 -2.91568,9.22699 -1.60363,3.53671 -3.21089,8.00401 -3.57171,9.92732 -0.39817,2.1224 -3.7936,7.68688 -8.63836,14.15663 -10.40907,13.9004 -13.59884,16.52683 -31.31028,25.78055 -11.48195,5.999 -16.79936,7.68175 -28.52078,9.02571 -4.65124,0.5333 -8.92624,1.43964 -9.5,2.01409 -0.63004,0.6308 -1.09351,7.65791 -1.17026,17.74319 -0.0699,9.18431 -0.18238,17.24968 -0.25,17.92306 -0.35841,3.56951 -11.96569,5.59054 -17.12293,2.98141 -1.94346,-0.98323 -2.5,-2.03738 -2.5,-4.73526 0,-3.20528 0.32476,-3.57324 4.25,-4.81536 l 4.25,-1.3449 0.11092,-5.6551 c 0.19638,-10.01242 -0.2604,-19.63528 -0.96726,-20.37727 -1.14205,-1.19879 -21.95118,-1.89829 -22.65375,-0.76151 -0.34456,0.55751 -0.66964,9.12602 -0.7224,19.04113 -0.0593,11.1368 -0.48801,18.2698 -1.1217,18.66144 -2.23306,1.38011 -13.17159,1.1762 -15.89581,-0.29632 z m 29.69038,-74.49364 c 3.26721,-0.63238 6.78212,-1.66259 7.8109,-2.28936 1.50246,-0.91534 2.1262,-0.79523 3.16987,0.61042 1.72853,2.32806 2.57885,2.2082 2.57885,-0.3635 0,-1.77765 0.47484,-2.04381 2.98813,-1.67493 2.17395,0.31906 3.13277,-0.0171 3.51896,-1.23389 0.29194,-0.91986 2.2689,-2.1932 4.39323,-2.82967 2.12434,-0.63647 4.42091,-1.83014 5.1035,-2.65261 0.68259,-0.82247 2.0817,-1.4954 3.10913,-1.4954 1.02743,0 3.77366,-2.025 6.10272,-4.5 2.32907,-2.475 4.6278,-4.5 5.10829,-4.5 0.48049,0 2.13471,-1.35 3.67604,-3 1.54133,-1.65 3.80313,-3 5.02621,-3 1.91837,0 2.14446,-0.39664 1.64621,-2.88792 -0.41312,-2.06558 -0.0543,-3.36153 1.26022,-4.55112 3.9901,-3.61099 5.09146,-16.77989 3.40983,-40.77146 -0.70156,-10.0091 -1.38739,-14.1936 -2.54044,-15.5 -0.86869,-0.98422 -1.87834,-3.19762 -2.24365,-4.91866 -0.36531,-1.72104 -2.00232,-4.62794 -3.63778,-6.45978 -1.63547,-1.83184 -2.7352,-3.95182 -2.44385,-4.71106 0.29135,-0.75925 -0.22849,-2.66401 -1.1552,-4.23281 -1.63564,-2.76891 -1.61379,-2.91299 0.74676,-4.92504 l 2.43169,-2.07269 -2.75316,0.62447 c -2.48072,0.56268 -2.81639,0.3083 -3.39219,-2.57068 -0.35147,-1.75733 -1.27484,-3.43913 -2.05195,-3.73733 -1.91414,-0.73453 -5.66128,-8.90908 -4.94248,-10.78224 0.33261,-0.86677 0.022,-1.50368 -0.73332,-1.50368 -1.70747,0 -3.86249,-7.1488 -4.08392,-13.54753 -0.0961,-2.77614 -0.59035,-5.70114 -1.0984,-6.5 -1.30095,-2.04563 -1.48552,-14.30914 -0.22706,-15.08691 0.57129,-0.35307 0.72496,-1.14961 0.3415,-1.77007 -0.38347,-0.62046 -1.18565,-0.82624 -1.78263,-0.45729 -0.66787,0.41277 -0.79595,0.20246 -0.33294,-0.5467 0.41386,-0.66964 0.0874,-1.97667 -0.72551,-2.90451 -1.13987,-1.30107 -1.30694,-2.94518 -0.7303,-7.18699 0.59062,-4.34472 0.44101,-5.67882 -0.71227,-6.35133 -1.04013,-0.60653 -1.2808,-1.8062 -0.83697,-4.17202 0.35594,-1.89732 0.18118,-3.59373 -0.40772,-3.95769 C 464.46381,218.16861 464,217.03425 464,215.99814 c 0,-1.0361 -0.945,-3.48548 -2.1,-5.44305 -2.33081,-3.95042 -2.75695,-9.8176 -0.87756,-12.08213 0.67235,-0.81013 1.05485,-1.50739 0.85,-1.54947 -0.20484,-0.0421 -1.13154,-0.2231 -2.05934,-0.40226 -3.06951,-0.59273 -6.05828,-4.17338 -5.34896,-6.40825 0.48698,-1.53432 -0.24715,-2.96265 -2.87162,-5.58713 C 449.6533,182.58663 447.60167,181 447.03333,181 446.465,181 446,179.90766 446,178.57258 c 0,-1.36825 -1.04263,-3.24755 -2.38951,-4.30701 -1.31423,-1.03377 -2.55978,-2.75393 -2.76789,-3.82258 -0.27308,-1.40231 -1.20388,-1.94299 -3.34494,-1.94299 -3.02009,0 -3.47601,0.26552 -9.33228,5.43481 -1.83404,1.6189 -4.64654,3.2316 -6.25,3.58378 -3.37547,0.74137 -3.79703,2.01759 -0.91538,2.77116 2.71747,0.71063 2.52,3.32343 -0.39555,5.23377 -2.61177,1.7113 -3.98892,5.12083 -2.45202,6.07068 1.06609,0.65889 0.15379,6.35689 -1.25778,7.8558 -0.49206,0.5225 -0.89465,2.25213 -0.89465,3.84362 0,2.01806 -0.58423,3.0464 -1.93083,3.39854 -2.73581,0.71543 -3.20449,2.7293 -1.45251,6.24123 1.33319,2.67245 1.33983,3.36704 0.0554,5.80128 -0.80251,1.52093 -2.92331,6.09502 -4.71289,10.16465 -2.6376,5.99805 -3.03652,7.74723 -2.1065,9.23643 1.59842,2.55947 1.43072,4.81826 -0.41017,5.52468 -0.85661,0.32871 -1.31768,1.22254 -1.02461,1.98628 0.29308,0.76375 -0.10603,2.84318 -0.8869,4.62096 -0.78088,1.77778 -1.68917,4.91436 -2.01843,6.97018 -0.34765,2.17062 -1.3814,4.15676 -2.46552,4.73696 -1.14575,0.61318 -2.13848,2.64582 -2.57003,5.26215 -0.38675,2.34467 -1.06172,4.71304 -1.49996,5.26304 -0.43823,0.55 -1.20709,2.575 -1.70856,4.5 -0.7129,2.73661 -1.44142,3.52365 -3.34014,3.60843 -4.20076,0.18757 -4.48026,0.4156 -2.42838,1.98113 1.89218,1.44369 1.90391,1.58041 0.21743,2.53611 -1.37756,0.78065 -1.64182,1.76042 -1.16309,4.31227 0.5412,2.88485 0.22941,3.57985 -2.46743,5.50018 -1.6978,1.20894 -3.08691,3.04625 -3.08691,4.08292 0,3.95622 -2.20957,6.97896 -5.1015,6.97896 -3.4154,0 -4.78181,1.88094 -2.55128,3.51195 C 375.12761,310.81379 375.6494,316 374,316 c -0.55,0 -1,0.87344 -1,1.94098 0,1.06754 -0.45,2.2191 -1,2.55902 -0.55,0.33992 -1,1.60823 -1,2.81847 0,1.21024 -0.9,2.7625 -2,3.44946 -1.1,0.68696 -2,1.90652 -2,2.71013 0,0.80361 -0.90862,3.07882 -2.01915,5.05603 -1.11053,1.97721 -1.81522,3.92488 -1.56598,4.32816 0.96228,1.557 -1.21424,3.42866 -3.06395,2.63478 -2.6774,-1.14912 -6.61757,-0.57574 -8.35092,1.21524 -1.34416,1.38885 -1.24568,1.48866 0.94796,0.96065 1.34638,-0.32407 3.03388,-0.10295 3.75,0.49138 0.94178,0.7816 1.71707,0.73614 2.80204,-0.1643 1.27759,-1.06031 1.5,-0.79251 1.5,1.80613 0,1.67806 -0.6883,3.73931 -1.52956,4.58057 -0.94226,0.94226 -1.30448,2.42637 -0.94336,3.86518 0.40472,1.61252 -0.0442,2.90617 -1.45012,4.17847 -2.03348,1.84028 -2.03201,1.84517 1.05086,3.49854 2.85071,1.52885 6.46226,8.30733 5.36878,10.07661 -0.21678,0.35076 0.4828,1.38861 1.55463,2.30633 1.82444,1.56214 1.9465,1.55757 1.91315,-0.0716 -0.0196,-0.95711 -0.64188,-4.27557 -1.38287,-7.37434 -1.48566,-6.21301 -0.8419,-16.7975 1.2539,-20.61587 0.67923,-1.2375 1.33162,-2.24723 1.44977,-2.24384 0.11815,0.003 0.26698,2.14089 0.33072,4.75 0.18584,7.60651 2.12336,12.77506 6.87624,18.3432 9.28919,10.88257 17.82928,14.61879 31.11783,13.61378 16.18394,-1.22399 29.47698,-13.62721 31.86116,-29.72842 0.79604,-5.3759 -0.92466,-17.02728 -3.1502,-21.331 -2.0915,-4.04451 -11.82543,-13.36028 -16.39682,-15.69244 -1.97648,-1.00832 -6.67739,-2.45656 -10.44648,-3.21831 -8.44923,-1.70763 -6.68994,-2.8623 5.02237,-3.29632 11.09647,-0.4112 19.34807,1.76358 28.21695,7.43682 7.62036,4.87459 8.53484,6.15346 14.02706,19.61653 4.79679,11.75834 4.52286,37.88076 -0.5193,49.52275 -1.07735,2.48752 -3.61882,7.11776 -5.64772,10.28944 -4.43242,6.929 -9.32673,9.57934 -23.40976,12.67675 -7.9769,1.75444 -10.48211,1.90853 -17.24393,1.06067 -4.35114,-0.54558 -9.24154,-1.67994 -10.86757,-2.52079 -4.26673,-2.20641 -5.22059,-1.80407 -1.05573,0.44531 1.925,1.03967 5.3,2.20068 7.5,2.58002 2.2,0.37935 5.19447,1.53485 6.65437,2.56779 1.4599,1.03293 3.5974,1.87806 4.75,1.87806 1.17155,0 2.09563,0.64444 2.09563,1.46146 0,1.30843 2.42364,2.28336 9.5,3.82145 2.16636,0.47087 3.00168,0.37615 11.94038,-1.35397 z m -44.23754,-47.18453 c -0.57313,-0.69058 -1.36959,-2.5606 -1.76991,-4.1556 -0.55768,-2.222 -0.30057,-3.21242 1.09975,-4.23636 1.53136,-1.11976 2.08206,-1.10917 3.39746,0.0653 2.34425,2.09316 4.11741,2.21737 8.93778,0.62614 4.01931,-1.3268 4.47275,-1.29852 5.68132,0.3543 1.76866,2.41879 0.94214,4.11431 -3.1957,6.55569 -3.9362,2.32241 -12.48307,2.79986 -14.1507,0.7905 z m -16.8671,-14.31187 c -0.33082,-0.8621 -0.1325,-2.5496 0.44071,-3.75 0.57321,-1.2004 1.29388,-2.97004 1.60149,-3.93254 0.64337,-2.01309 4.61853,-2.35353 6.42206,-0.55 2.00506,2.00506 1.34914,5.53753 -1.43486,7.72742 -3.13008,2.46212 -6.19394,2.68228 -7.0294,0.50512 z m 42.1627,-0.43426 c -1.74961,-1.93331 -1.74714,-2.12128 0.0724,-5.5 2.94728,-5.47277 7.42914,-4.16574 7.42914,2.16654 0,2.20437 -0.62827,3.60105 -1.93426,4.3 -2.71182,1.45132 -3.50356,1.31386 -5.5673,-0.96654 z m -38.12072,40.85845 c -2.68275,-2.82879 -6.54481,-6.76629 -8.58235,-8.75 -2.03755,-1.9837 -4.42474,-5.18173 -5.30486,-7.10673 -0.88012,-1.925 -1.3947,-2.49531 -1.14352,-1.26735 0.4004,1.95742 0.21261,2.10202 -1.52329,1.173 -2.4153,-1.29263 -4.8237,-0.51227 -4.8237,1.56297 0,1.78273 1.14748,1.9839 2.66429,0.46709 1.25349,-1.25349 4.71635,1.63938 3.77863,3.15665 -0.31651,0.51212 0.80435,1.20709 2.4908,1.54438 3.52841,0.70569 3.66582,1.04329 1.43016,3.51367 -1.51835,1.67775 -1.50881,1.85674 0.13247,2.48656 0.97272,0.37327 2.53183,0.20201 3.46469,-0.38057 1.3782,-0.86069 2.20483,-0.42168 4.41017,2.34218 l 2.71405,3.40142 -2.29263,0.0153 c -1.82616,0.0122 -1.98912,0.2072 -0.80094,0.95839 0.82043,0.5187 2.45884,0.70034 3.64091,0.40366 1.18207,-0.29668 2.44986,-0.053 2.81732,0.54161 0.36746,0.59457 0.92403,1.08103 1.23682,1.08103 0.31279,0 -1.62627,-2.31447 -4.30902,-5.14327 z"
       style="fill:#fbbb03" />
    <path
       id="path10947"
       d="M 409.75,491.42258 C 408.2375,490.60503 407,489.15063 407,488.19057 407,485.33598 409.94255,482 412.46047,482 c 2.26809,0 2.37372,-0.36173 3.139,-10.75 1.08051,-14.6673 0.94306,-19.29667 -0.6013,-20.25113 -0.718,-0.44375 -3.59882,-1.10039 -6.40181,-1.4592 C 396.30273,447.96598 379.3234,440.42879 366,430.63098 356.12054,423.36579 345.4848,410.63859 343.32745,403.5 c -0.66486,-2.2 -2.9601,-9.03416 -5.10052,-15.18703 -3.82621,-10.99878 -3.8952,-11.45313 -4.09984,-27 -0.14881,-11.30517 0.20146,-17.23832 1.22872,-20.81297 0.79028,-2.75 1.70717,-8.21418 2.03753,-12.14262 l 0.60066,-7.14262 -3.747,-1.65222 c -7.58909,-3.34637 -11.90412,-6.66608 -18.55417,-14.27443 -8.34055,-9.54247 -11.25994,-14.43144 -12.11476,-20.28811 -0.36125,-2.475 -1.15493,-5.89457 -1.76374,-7.59903 -2.10625,-5.89682 1.02389,-10.53926 6.03391,-8.94914 2.15972,0.68547 4.15176,4.58407 4.15176,8.12536 0,1.36569 1.16248,5.28202 2.58328,8.70294 3.27169,7.87736 13.48407,18.6366 21.64231,22.80122 l 5.72559,2.9228 1.44301,-2.25208 c 0.79366,-1.23864 1.92774,-4.09311 2.52019,-6.34327 0.59245,-2.25015 1.97908,-4.9074 3.0814,-5.90498 1.10232,-0.99759 2.00422,-2.50197 2.00422,-3.34308 0,-0.84111 0.92984,-3.58387 2.06631,-6.09502 1.13647,-2.51114 2.93062,-6.47822 3.987,-8.81572 1.05638,-2.3375 2.37654,-4.25 2.93369,-4.25 0.55715,0 1.013,-0.72254 1.013,-1.60564 0,-0.88311 1.12113,-2.93803 2.4914,-4.56651 1.37027,-1.62847 3.21596,-5.45328 4.10155,-8.49959 0.88558,-3.0463 2.65632,-7.08035 3.93498,-8.96455 1.27865,-1.88421 3.26954,-6.47826 4.42419,-10.20902 1.15466,-3.73076 2.72075,-7.67034 3.48021,-8.75462 0.75947,-1.08429 1.67653,-4.20537 2.03793,-6.93575 0.3614,-2.73038 1.24523,-6.53932 1.96408,-8.46432 2.86646,-7.6761 4.61159,-13.86113 6.0286,-21.36629 0.81686,-4.32646 1.96071,-8.43925 2.54189,-9.13953 0.58119,-0.70029 1.73457,-4.58546 2.56308,-8.63371 2.38897,-11.67307 8.15543,-24.39799 13.68209,-30.19247 2.6125,-2.7391 4.75,-5.25371 4.75,-5.58801 0,-0.88524 8.7673,-4.86067 14,-6.34814 2.71121,-0.7707 9.11976,-1.20527 16.12182,-1.09323 32.85878,0.52579 49.3759,14.09469 58.26058,47.86138 2.25578,8.57322 4.53157,21.40806 4.5215,25.5 -0.005,1.925 0.50983,6.875 1.1435,11 0.63367,4.125 1.24156,8.85 1.35088,10.5 0.39242,5.92312 1.80051,13.09614 3.63161,18.5 2.71721,8.0189 9.32182,23.74291 12.34853,29.39894 1.44187,2.69442 2.62158,5.54995 2.62158,6.34563 0,0.79568 0.84096,2.64116 1.8688,4.10106 1.02785,1.4599 2.18317,3.66687 2.56739,4.90437 0.38422,1.2375 1.23076,2.24999 1.8812,2.24997 3.6607,-9e-5 10.96046,-14.99056 13.31357,-27.34016 0.72167,-3.78747 1.83003,-7.51035 2.46303,-8.27306 1.47261,-1.77438 6.32173,-1.79569 7.78364,-0.0342 1.60748,1.93689 0.42435,12.48122 -2.51788,22.43994 -1.99912,6.76651 -3.62901,9.81996 -8.85706,16.59294 l -6.40709,8.30044 2.42846,5.90706 c 1.33566,3.24888 2.43915,6.64481 2.4522,7.5465 0.0131,0.9017 1.19233,5.8517 2.62061,11 1.42828,5.14831 2.80514,12.51056 3.05969,16.36056 0.76432,11.55987 0.41284,28.18726 -0.65521,30.99646 -0.55074,1.44855 -1.00135,3.8922 -1.00135,5.43032 0,1.53813 -1.31206,5.69027 -2.91568,9.22699 -1.60363,3.53671 -3.21089,8.00401 -3.57171,9.92732 -0.39817,2.1224 -3.7936,7.68688 -8.63836,14.15663 -10.40907,13.9004 -13.59884,16.52683 -31.31028,25.78055 -11.48195,5.999 -16.79936,7.68175 -28.52078,9.02571 -4.65124,0.5333 -8.92624,1.43964 -9.5,2.01409 -0.63004,0.6308 -1.09351,7.65791 -1.17026,17.74319 -0.0699,9.18431 -0.18238,17.24968 -0.25,17.92306 -0.35841,3.56951 -11.96569,5.59054 -17.12293,2.98141 -1.94346,-0.98323 -2.5,-2.03738 -2.5,-4.73526 0,-3.20528 0.32476,-3.57324 4.25,-4.81536 l 4.25,-1.3449 0.11092,-5.6551 c 0.19638,-10.01242 -0.2604,-19.63528 -0.96726,-20.37727 -1.14205,-1.19879 -21.95118,-1.89829 -22.65375,-0.76151 -0.34456,0.55751 -0.66964,9.12602 -0.7224,19.04113 -0.0593,11.1368 -0.48801,18.2698 -1.1217,18.66144 -2.23306,1.38011 -13.17159,1.1762 -15.89581,-0.29632 z m 29.69038,-74.49364 c 3.26721,-0.63238 6.78212,-1.66259 7.8109,-2.28936 1.50246,-0.91534 2.1262,-0.79523 3.16987,0.61042 1.72853,2.32806 2.57885,2.2082 2.57885,-0.3635 0,-1.77765 0.47484,-2.04381 2.98813,-1.67493 2.17395,0.31906 3.13277,-0.0171 3.51896,-1.23389 0.29194,-0.91986 2.2689,-2.1932 4.39323,-2.82967 2.12434,-0.63647 4.42091,-1.83014 5.1035,-2.65261 0.68259,-0.82247 2.0817,-1.4954 3.10913,-1.4954 1.02743,0 3.77366,-2.025 6.10272,-4.5 2.32907,-2.475 4.6278,-4.5 5.10829,-4.5 0.48049,0 2.13471,-1.35 3.67604,-3 1.54133,-1.65 3.80313,-3 5.02621,-3 1.91837,0 2.14446,-0.39664 1.64621,-2.88792 -0.41312,-2.06558 -0.0543,-3.36153 1.26022,-4.55112 3.9901,-3.61099 5.09146,-16.77989 3.40983,-40.77146 -0.70156,-10.0091 -1.38739,-14.1936 -2.54044,-15.5 -0.86869,-0.98422 -1.87834,-3.19762 -2.24365,-4.91866 -0.36531,-1.72104 -2.00232,-4.62794 -3.63778,-6.45978 -1.63547,-1.83184 -2.7352,-3.95182 -2.44385,-4.71106 0.29135,-0.75925 -0.22849,-2.66401 -1.1552,-4.23281 -1.63564,-2.76891 -1.61379,-2.91299 0.74676,-4.92504 l 2.43169,-2.07269 -2.75316,0.62447 c -2.48072,0.56268 -2.81639,0.3083 -3.39219,-2.57068 -0.35147,-1.75733 -1.27484,-3.43913 -2.05195,-3.73733 -1.91414,-0.73453 -5.66128,-8.90908 -4.94248,-10.78224 0.33261,-0.86677 0.022,-1.50368 -0.73332,-1.50368 -1.70747,0 -3.86249,-7.1488 -4.08392,-13.54753 -0.0961,-2.77614 -0.59035,-5.70114 -1.0984,-6.5 -1.30095,-2.04563 -1.48552,-14.30914 -0.22706,-15.08691 0.57129,-0.35307 0.72496,-1.14961 0.3415,-1.77007 -0.38347,-0.62046 -1.18565,-0.82624 -1.78263,-0.45729 -0.66787,0.41277 -0.79595,0.20246 -0.33294,-0.5467 0.41386,-0.66964 0.0874,-1.97667 -0.72551,-2.90451 -1.13987,-1.30107 -1.30694,-2.94518 -0.7303,-7.18699 0.59062,-4.34472 0.44101,-5.67882 -0.71227,-6.35133 -1.04013,-0.60653 -1.2808,-1.8062 -0.83697,-4.17202 0.35594,-1.89732 0.18118,-3.59373 -0.40772,-3.95769 C 464.46381,218.16861 464,217.03425 464,215.99814 c 0,-1.0361 -0.945,-3.48548 -2.1,-5.44305 -2.33081,-3.95042 -2.75695,-9.8176 -0.87756,-12.08213 0.67235,-0.81013 1.05485,-1.50739 0.85,-1.54947 -0.20484,-0.0421 -1.13154,-0.2231 -2.05934,-0.40226 -3.06951,-0.59273 -6.05828,-4.17338 -5.34896,-6.40825 0.48698,-1.53432 -0.24715,-2.96265 -2.87162,-5.58713 C 449.6533,182.58663 447.60167,181 447.03333,181 446.465,181 446,179.90766 446,178.57258 c 0,-1.36825 -1.04263,-3.24755 -2.38951,-4.30701 -1.31423,-1.03377 -2.55978,-2.75393 -2.76789,-3.82258 -0.27308,-1.40231 -1.20388,-1.94299 -3.34494,-1.94299 -3.02009,0 -3.47601,0.26552 -9.33228,5.43481 -1.83404,1.6189 -4.64654,3.2316 -6.25,3.58378 -3.37547,0.74137 -3.79703,2.01759 -0.91538,2.77116 2.71747,0.71063 2.52,3.32343 -0.39555,5.23377 -2.61177,1.7113 -3.98892,5.12083 -2.45202,6.07068 1.06609,0.65889 0.15379,6.35689 -1.25778,7.8558 -0.49206,0.5225 -0.89465,2.25213 -0.89465,3.84362 0,2.01806 -0.58423,3.0464 -1.93083,3.39854 -2.73581,0.71543 -3.20449,2.7293 -1.45251,6.24123 1.33319,2.67245 1.33983,3.36704 0.0554,5.80128 -0.80251,1.52093 -2.92331,6.09502 -4.71289,10.16465 -2.6376,5.99805 -3.03652,7.74723 -2.1065,9.23643 1.59842,2.55947 1.43072,4.81826 -0.41017,5.52468 -0.85661,0.32871 -1.31768,1.22254 -1.02461,1.98628 0.29308,0.76375 -0.10603,2.84318 -0.8869,4.62096 -0.78088,1.77778 -1.68917,4.91436 -2.01843,6.97018 -0.34765,2.17062 -1.3814,4.15676 -2.46552,4.73696 -1.14575,0.61318 -2.13848,2.64582 -2.57003,5.26215 -0.38675,2.34467 -1.06172,4.71304 -1.49996,5.26304 -0.43823,0.55 -1.20709,2.575 -1.70856,4.5 -0.7129,2.73661 -1.44142,3.52365 -3.34014,3.60843 -4.20076,0.18757 -4.48026,0.4156 -2.42838,1.98113 1.89218,1.44369 1.90391,1.58041 0.21743,2.53611 -1.37756,0.78065 -1.64182,1.76042 -1.16309,4.31227 0.5412,2.88485 0.22941,3.57985 -2.46743,5.50018 -1.6978,1.20894 -3.08691,3.04625 -3.08691,4.08292 0,3.95622 -2.20957,6.97896 -5.1015,6.97896 -3.4154,0 -4.78181,1.88094 -2.55128,3.51195 C 375.12761,310.81379 375.6494,316 374,316 c -0.55,0 -1,0.87344 -1,1.94098 0,1.06754 -0.45,2.2191 -1,2.55902 -0.55,0.33992 -1,1.60823 -1,2.81847 0,1.21024 -0.9,2.7625 -2,3.44946 -1.1,0.68696 -2,1.90652 -2,2.71013 0,0.80361 -0.90862,3.07882 -2.01915,5.05603 -1.11053,1.97721 -1.81522,3.92488 -1.56598,4.32816 0.96228,1.557 -1.21424,3.42866 -3.06395,2.63478 -2.6774,-1.14912 -6.61757,-0.57574 -8.35092,1.21524 -1.34416,1.38885 -1.24568,1.48866 0.94796,0.96065 1.34638,-0.32407 3.03388,-0.10295 3.75,0.49138 0.94178,0.7816 1.71707,0.73614 2.80204,-0.1643 1.27759,-1.06031 1.5,-0.79251 1.5,1.80613 0,1.67806 -0.6883,3.73931 -1.52956,4.58057 -0.94226,0.94226 -1.30448,2.42637 -0.94336,3.86518 0.40472,1.61252 -0.0442,2.90617 -1.45012,4.17847 -2.03348,1.84028 -2.03201,1.84517 1.05086,3.49854 2.94293,1.57831 6.44979,8.32751 5.29652,10.19353 -0.25652,0.41506 0.22316,1.14056 1.06595,1.61221 0.8428,0.47165 1.94552,2.29815 2.45049,4.05889 0.86232,3.00673 0.79609,3.13602 -1.08946,2.12691 C 363.41179,378.61483 361,379.3845 361,381.46862 c 0,1.78273 1.14748,1.9839 2.66429,0.46709 1.25349,-1.25349 4.71635,1.63938 3.77863,3.15665 -0.31651,0.51212 0.80435,1.20709 2.4908,1.54438 3.52841,0.70569 3.66582,1.04329 1.43016,3.51367 -1.51835,1.67775 -1.50881,1.85674 0.13247,2.48656 0.97272,0.37327 2.53183,0.20201 3.46469,-0.38057 1.3782,-0.86069 2.20483,-0.42168 4.41017,2.34218 l 2.71405,3.40142 -2.29263,0.0304 c -2.0452,0.0271 -2.1029,0.14089 -0.53471,1.05412 0.96686,0.56304 2.2211,0.73745 2.78722,0.38757 0.56611,-0.34987 4.95004,1.38634 9.74208,3.85824 4.79203,2.47191 10.51278,4.82116 12.71278,5.22056 2.2,0.39939 5.19447,1.56383 6.65437,2.58764 1.4599,1.0238 3.5974,1.86146 4.75,1.86146 1.17155,0 2.09563,0.64444 2.09563,1.46146 0,1.30843 2.42364,2.28336 9.5,3.82145 2.16636,0.47087 3.00168,0.37615 11.94038,-1.35397 z m -44.23754,-47.18453 c -0.57313,-0.69058 -1.36959,-2.5606 -1.76991,-4.1556 -0.55768,-2.222 -0.30057,-3.21242 1.09975,-4.23636 1.53136,-1.11976 2.08206,-1.10917 3.39746,0.0653 2.34425,2.09316 4.11741,2.21737 8.93778,0.62614 4.01931,-1.3268 4.47275,-1.29852 5.68132,0.3543 1.76866,2.41879 0.94214,4.11431 -3.1957,6.55569 -3.9362,2.32241 -12.48307,2.79986 -14.1507,0.7905 z m -16.8671,-14.31187 c -0.33082,-0.8621 -0.1325,-2.5496 0.44071,-3.75 0.57321,-1.2004 1.29388,-2.97004 1.60149,-3.93254 0.64337,-2.01309 4.61853,-2.35353 6.42206,-0.55 2.00506,2.00506 1.34914,5.53753 -1.43486,7.72742 -3.13008,2.46212 -6.19394,2.68228 -7.0294,0.50512 z m 42.1627,-0.43426 c -1.74961,-1.93331 -1.74714,-2.12128 0.0724,-5.5 2.94728,-5.47277 7.42914,-4.16574 7.42914,2.16654 0,2.20437 -0.62827,3.60105 -1.93426,4.3 -2.71182,1.45132 -3.50356,1.31386 -5.5673,-0.96654 z"
       style="fill:#95d049" />
    <path
       id="path10945"
       d="M 409.75,491.42258 C 408.2375,490.60503 407,489.15063 407,488.19057 407,485.33598 409.94255,482 412.46047,482 c 2.26809,0 2.37372,-0.36173 3.139,-10.75 1.07414,-14.5808 0.93991,-19.29861 -0.57571,-20.23531 -0.70392,-0.43505 -3.58474,-1.09177 -6.40181,-1.45938 -10.18211,-1.32871 -25.14371,-6.97233 -29.22544,-11.02405 -0.60691,-0.60246 -2.96941,-1.93679 -5.25,-2.96519 C 371.86593,434.53767 370,433.32615 370,432.87381 c 0,-0.45235 -1.39526,-1.54397 -3.10057,-2.42582 C 363.83247,428.86201 349,414.42883 349,413.03042 349,412.632 348.1,411.26831 347,410 c -2.053,-2.36713 -2.71296,-6 -1.08998,-6 0.50052,0 3.41518,1.43888 6.47702,3.19752 4.99476,2.86884 5.54366,3.51122 5.33998,6.24939 -0.18503,2.48738 0.18915,3.11109 2.02298,3.37203 2.18514,0.31093 3.25694,2.18106 1.25,2.18106 -0.55,0 -1,0.7125 -1,1.58333 0,0.87084 0.5625,1.39389 1.25,1.16235 1.49925,-0.50493 1.86595,-9.65715 0.4606,-11.49568 -0.67189,-0.87898 -0.47393,-1.25 0.66696,-1.25 0.89234,0 1.65687,0.3375 1.69895,0.75 0.26633,2.61064 0.98801,4.76119 2.69992,8.04558 1.41824,2.72094 1.70517,4.37349 1.0615,6.11351 -1.10822,2.9958 1.67391,6.74094 3.73617,5.02941 0.69878,-0.57993 3.43224,-0.91584 6.07436,-0.74646 3.88399,0.24899 5.02814,0.76002 5.97515,2.66875 l 1.17129,2.36079 0.76956,-2.36079 c 0.42326,-1.29843 0.84402,-3.26079 0.93503,-4.36079 0.091,-1.1 0.98121,-2.15808 1.97824,-2.3513 1.58049,-0.30628 1.74229,0.17426 1.26268,3.75 -0.63543,4.73752 1.21096,5.6982 3.07764,1.6013 0.64932,-1.42512 1.97922,-2.5 3.09312,-2.5 1.0758,0 2.23936,-0.89891 2.58883,-2 0.34913,-1.1 1.08101,-2 1.6264,-2 0.5454,0 0.70769,0.45943 0.36065,1.02096 -0.72878,1.17919 5.82465,4.18358 8.20618,3.76209 3.17887,-0.56261 2.36183,2.1671 -1.07895,3.60475 -2.73149,1.14129 -4.1759,1.22649 -6.42175,0.37877 -1.59368,-0.60155 -3.63896,-0.80924 -4.54507,-0.46153 C 393.62879,432.46341 394.99583,441 398.2,441 c 0.44,0 0.8,-0.62622 0.8,-1.39159 0,-3.55228 10.68389,-2.83114 11.1954,0.75567 0.25583,1.7939 1.04343,2.1673 4.91869,2.33192 4.08799,0.17365 4.74907,-0.10025 5.79787,-2.40213 0.8934,-1.96078 1.46641,-2.3155 2.33591,-1.446 1.49431,1.49431 3.75213,1.4828 3.75213,-0.0191 0,-0.64419 -0.7827,-2.10669 -1.73934,-3.25 -0.95664,-1.14331 -1.33555,-1.74514 -0.84201,-1.33742 0.49353,0.40773 1.48152,0.25649 2.19554,-0.33609 1.79248,-1.48762 3.30558,-0.31442 2.67996,2.07795 -0.37939,1.45078 0.1531,2.23637 1.989,2.93438 1.37891,0.52425 2.69604,1.52002 2.92697,2.21281 0.28435,0.85303 1.91179,0.1882 5.04182,-2.05961 3.46379,-2.48751 5.24883,-3.16189 7.12372,-2.69132 1.37597,0.34534 2.78091,0.17625 3.12207,-0.37577 0.34117,-0.55202 1.47791,-1.00367 2.5261,-1.00367 1.04819,0 2.38747,-0.9 2.97617,-2 0.5887,-1.1 1.74366,-2 2.56657,-2 0.82291,0 1.72434,-0.59453 2.00318,-1.32118 0.31124,-0.81106 1.58823,-1.16248 3.30736,-0.91016 3.61041,0.52989 6.78083,-2.27096 4.99979,-4.41699 -0.90297,-1.08801 -0.91134,-1.71723 -0.0345,-2.59405 C 468.47907,421.12093 469,419.79 469,418.8 c 0,-0.99 0.45,-1.8 1,-1.8 0.55,0 1,1.125 1,2.5 0,1.46099 0.57451,2.5 1.38235,2.5 2.1067,0 9.22879,-7.57975 12.54718,-13.35344 1.62687,-2.83061 3.88327,-5.92966 5.01421,-6.88677 1.13094,-0.95712 2.07601,-2.53212 2.10015,-3.5 0.0241,-0.96789 0.7297,-3.55979 1.56791,-5.75979 1.4786,-3.8808 2.0111,-5.56871 4.41671,-14 1.12864,-3.95571 2.26175,-14.19207 2.21388,-20 -0.0886,-10.75065 -1.71561,-28.53603 -2.86992,-31.37212 C 496.61761,325.27321 496,323.09122 496,322.27901 c 0,-0.81222 -0.62019,-2.89476 -1.3782,-4.62788 -3.27977,-7.49893 -4.98703,-13.36905 -4.74439,-16.31282 0.14723,-1.78619 -0.31323,-3.5264 -1.0584,-4 -0.72546,-0.46107 -1.37297,-2.41331 -1.43893,-4.33831 -0.13045,-3.80724 -2.35874,-10.64057 -6.03737,-18.51435 C 480.05422,271.72775 479,268.04181 479,266.29466 c 0,-1.74714 -0.48068,-3.4737 -1.06817,-3.83679 -0.5875,-0.3631 -0.82061,-1.30532 -0.51803,-2.09384 0.73601,-1.918 -1.26522,-11.3143 -2.99142,-14.04557 -0.84093,-1.33054 -1.24584,-4.07863 -1.03801,-7.04474 0.18741,-2.67476 -0.005,-7.54306 -0.42862,-10.81846 -0.42316,-3.27539 -1.07513,-10.30043 -1.44884,-15.61119 -0.59283,-8.42483 -0.92854,-9.72107 -2.63311,-10.16682 -1.53941,-0.40257 -1.81619,-1.05862 -1.30532,-3.09407 C 467.97353,197.96934 467.80088,197 467.10841,197 466.49878,197 466,196.55 466,196 c 0,-1.92786 2.19306,-0.97774 2.76162,1.19645 0.54824,2.09647 0.60906,2.10785 1.3361,0.25 1.33215,-3.40413 0.9622,-6.86428 -1.15659,-10.81747 -1.87222,-3.49315 -1.91754,-3.99756 -0.5,-5.56393 1.62712,-1.79795 2.10222,-6.19061 0.80887,-7.47861 -0.7006,-0.6977 -2.43878,-8.22688 -3.88067,-16.8097 -0.4033,-2.40063 -1.29047,-3.93432 -2.49741,-4.31739 C 461.61481,152.06036 461,150.92143 461,148.99163 c 0,-3.33044 -1.20469,-4.37883 -4.00895,-3.48879 -2.72335,0.86436 -2.49734,3.12345 0.59965,5.99364 C 460.19373,153.90888 460.12421,156 457.44098,156 456.64844,156 456,155.325 456,154.5 c 0,-1.61584 -2.5298,-2.06982 -3.42874,-0.6153 -0.997,1.61317 -7.04489,0.50811 -7.4138,-1.35465 -0.28575,-1.44285 0.15929,-1.61939 2.68434,-1.0648 2.47886,0.54445 3.29807,0.24568 4.52481,-1.65022 0.82387,-1.27327 1.82806,-3.66503 2.23154,-5.31503 0.66224,-2.70819 0.57282,-2.86755 -0.91929,-1.63833 -1.02247,0.84232 -2.64784,1.11195 -4.26153,0.70694 -1.4505,-0.36406 -3.20373,-0.16084 -3.94906,0.45772 -0.96075,0.79735 -1.90642,0.80955 -3.33861,0.0431 C 439.61159,142.72176 436,142.68087 436,144 c 0,0.55 0.9,1 2,1 1.1,0 2,0.45 2,1 0,0.55 -1.09844,1 -2.44098,1 -1.34254,0 -2.7191,0.45 -3.05902,1 -0.92405,1.49514 -3.5,1.20589 -3.5,-0.39301 0,-0.76616 0.70352,-1.66298 1.56338,-1.99294 2.34512,-0.8999 0.56106,-2.8621 -2.01452,-2.21567 -1.67741,0.421 -2.56213,-0.0547 -3.5561,-1.9119 l -1.32315,-2.47233 -1.80988,2.9761 c -0.99543,1.63686 -1.56541,3.61316 -1.26663,4.39178 0.29879,0.77862 0.0323,1.73146 -0.59223,2.11744 -0.67095,0.41466 -1.35919,-0.1537 -1.6823,-1.38926 -0.43733,-1.67237 -1.05743,-1.96287 -3.09712,-1.45094 -2.07463,0.5207 -2.43452,0.33837 -1.92955,-0.97757 0.34141,-0.88971 0.18307,-1.88816 -0.35189,-2.21877 -1.10834,-0.685 -0.30055,-2.46293 1.11901,-2.46293 0.51754,0 0.94098,0.70156 0.94098,1.55902 0,0.85746 0.45,1.2809 1,0.94098 0.55,-0.33992 1,-1.43688 1,-2.4377 0,-1.79879 1.77502,-2.7811 9,-4.98065 1.925,-0.58604 8.9,-1.09577 15.5,-1.13274 12.46274,-0.0698 19.51438,1.30978 29.68018,5.80659 9.32735,4.12594 20.45094,17.62156 24.62461,29.87566 4.13278,12.13404 8.11599,30.51237 8.09911,37.36884 -0.005,1.925 0.50983,6.875 1.1435,11 0.63367,4.125 1.24156,8.85 1.35088,10.5 0.39242,5.92312 1.80051,13.09614 3.63161,18.5 2.71721,8.0189 9.32182,23.74291 12.34853,29.39894 1.44187,2.69442 2.62158,5.54995 2.62158,6.34563 0,0.79568 0.84096,2.64116 1.8688,4.10106 1.02785,1.4599 2.18317,3.66687 2.56739,4.90437 0.38422,1.2375 1.23076,2.24999 1.8812,2.24997 3.6607,-9e-5 10.96046,-14.99056 13.31357,-27.34016 0.72167,-3.78747 1.83003,-7.51035 2.46303,-8.27306 1.47261,-1.77438 6.32173,-1.79569 7.78364,-0.0342 1.60748,1.93689 0.42435,12.48122 -2.51788,22.43994 -1.99912,6.76651 -3.62901,9.81996 -8.85706,16.59294 l -6.40709,8.30044 2.42846,5.90706 c 1.33566,3.24888 2.43915,6.64481 2.4522,7.5465 0.0131,0.9017 1.19233,5.8517 2.62061,11 1.42828,5.14831 2.80514,12.51056 3.05969,16.36056 0.76432,11.55987 0.41284,28.18726 -0.65521,30.99646 -0.55074,1.44855 -1.00135,3.8922 -1.00135,5.43032 0,1.53813 -1.31206,5.69027 -2.91568,9.22699 -1.60363,3.53671 -3.21089,8.00401 -3.57171,9.92732 -0.39817,2.1224 -3.7936,7.68688 -8.63836,14.15663 -10.40907,13.9004 -13.59884,16.52683 -31.31028,25.78055 -11.48195,5.999 -16.79936,7.68175 -28.52078,9.02571 -4.65124,0.5333 -8.92624,1.43964 -9.5,2.01409 -0.63004,0.6308 -1.09351,7.65791 -1.17026,17.74319 -0.0699,9.18431 -0.18238,17.24968 -0.25,17.92306 -0.35841,3.56951 -11.96569,5.59054 -17.12293,2.98141 -1.94346,-0.98323 -2.5,-2.03738 -2.5,-4.73526 0,-3.20528 0.32476,-3.57324 4.25,-4.81536 l 4.25,-1.3449 0.11092,-5.6551 c 0.19638,-10.01242 -0.2604,-19.63528 -0.96726,-20.37727 -1.14205,-1.19879 -21.95118,-1.89829 -22.65375,-0.76151 -0.34456,0.55751 -0.66964,9.12602 -0.7224,19.04113 -0.0593,11.1368 -0.48801,18.2698 -1.1217,18.66144 -2.23306,1.38011 -13.17159,1.1762 -15.89581,-0.29632 z m -33.20405,-67.74965 c 0.34326,-1.36766 0.11504,-3.43786 -0.50716,-4.60046 -1.35619,-2.53405 -0.57122,-4.21401 1.58279,-3.38744 1.01249,0.38853 1.39815,1.43142 1.10208,2.98019 -0.56718,2.96703 1.00133,4.09314 2.61926,1.88049 0.74592,-1.02011 1.87077,-1.40094 2.93346,-0.99315 2.27568,0.87326 2.21865,3.44744 -0.0764,3.44744 -0.99,0 -2.2275,0.39942 -2.75,0.88761 -0.5225,0.48818 -1.98009,1.19908 -3.23908,1.57979 -2.04846,0.61942 -2.22347,0.4308 -1.66497,-1.79447 z M 342.86415,397.75 c -0.83496,-0.6875 -2.32568,-3.95 -3.31271,-7.25 -0.98703,-3.3 -2.41489,-7.47777 -3.17302,-9.28393 -2.16747,-5.16376 -1.7704,-6.604 2.15984,-7.83415 3.05141,-0.95507 3.6677,-0.86559 4.47899,0.65031 0.65603,1.2258 0.52282,2.10459 -0.44015,2.90378 -2.30996,1.9171 -2.86102,6.09278 -1.06583,8.07645 2.11752,2.33983 6.48168,3.16949 7.17454,1.36393 0.29049,-0.75701 1.0183,-1.37639 1.61735,-1.37639 0.59904,0 -0.44952,1.58753 -2.33015,3.52785 -2.96878,3.063 -3.25815,3.78592 -2.19617,5.48643 2.56011,4.09938 0.59303,6.6223 -2.91269,3.73572 z m 52.33869,-28.00559 c -0.57313,-0.69058 -1.36959,-2.5606 -1.76991,-4.1556 -0.55768,-2.222 -0.30057,-3.21242 1.09975,-4.23636 1.53136,-1.11976 2.08206,-1.10917 3.39746,0.0653 2.34425,2.09316 4.11741,2.21737 8.93778,0.62614 4.01931,-1.3268 4.47275,-1.29852 5.68132,0.3543 1.76866,2.41879 0.94214,4.11431 -3.1957,6.55569 -3.9362,2.32241 -12.48307,2.79986 -14.1507,0.7905 z m -16.8671,-14.31187 c -0.33082,-0.8621 -0.1325,-2.5496 0.44071,-3.75 0.57321,-1.2004 1.29388,-2.97004 1.60149,-3.93254 0.64337,-2.01309 4.61853,-2.35353 6.42206,-0.55 2.00506,2.00506 1.34914,5.53753 -1.43486,7.72742 -3.13008,2.46212 -6.19394,2.68228 -7.0294,0.50512 z m 42.1627,-0.43426 c -1.74961,-1.93331 -1.74714,-2.12128 0.0724,-5.5 2.94728,-5.47277 7.42914,-4.16574 7.42914,2.16654 0,2.20437 -0.62827,3.60105 -1.93426,4.3 -2.71182,1.45132 -3.50356,1.31386 -5.5673,-0.96654 z M 336.5,354 c -1.53877,-0.66123 -1.62466,-0.87564 -0.37244,-0.92971 0.89515,-0.0387 2.14959,-0.69931 2.78763,-1.4681 0.91735,-1.10534 0.62912,-1.81548 -1.37755,-3.39392 -2.98429,-2.34745 -3.25782,-4.74156 -0.72261,-6.32483 1.55934,-0.97382 1.76381,-2.24285 1.4515,-9.00847 -0.2258,-4.89144 0.0204,-7.87497 0.64979,-7.87497 1.69681,0 2.92972,3.35454 2.34915,6.39164 -0.39508,2.06668 -0.072,3.13714 1.15395,3.8232 1.25148,0.70037 1.53746,1.705 1.07924,3.79128 -0.53308,2.42708 -0.28832,2.88592 1.68896,3.16615 1.27181,0.18025 2.31238,1.00273 2.31238,1.82773 0,1.10924 -1.09768,1.47822 -4.21359,1.41638 -3.63267,-0.0721 -3.97734,0.0919 -2.5,1.1891 1.42603,1.05913 1.50726,1.61078 0.48407,3.28726 -0.78977,1.29402 -0.87335,2.23466 -0.23369,2.63 1.238,0.76513 0.26679,2.50214 -1.34581,2.40697 C 339.03594,354.89106 337.6,354.47269 336.5,354 Z m -3.11877,-34.79803 c -1.71533,-0.93608 -4.86533,-2.66745 -7,-3.84749 -3.90606,-2.15923 -16.05799,-15.51788 -20.00326,-21.98961 -1.16712,-1.91452 -2.40853,-5.5712 -2.7587,-8.12597 -0.35017,-2.55478 -1.14859,-6.06073 -1.77427,-7.79101 -2.14376,-5.92845 0.96947,-10.59371 6.00324,-8.99606 2.15972,0.68547 4.15176,4.58407 4.15176,8.12536 0,1.36569 1.16248,5.28202 2.58328,8.70294 3.28603,7.9119 13.48192,18.63567 21.7125,22.83665 6.02258,3.07399 7.77127,5.21617 5.837,7.15044 C 341.50975,315.89025 341,317.435 341,318.7 c 0,2.82605 -2.99805,3.02358 -7.61877,0.50197 z m 14.77251,-10.9075 c -2.03366,-2.32337 -2.14607,-2.82691 -0.8437,-3.77923 1.04546,-0.76445 1.22309,-1.59811 0.58388,-2.7403 -1.00606,-1.79773 0.84465,-3.75399 1.96788,-2.08011 0.35101,0.52308 1.47239,1.25952 2.49195,1.63654 1.11799,0.41341 1.62658,1.2775 1.28139,2.17706 -0.42652,1.11148 0.16907,1.49157 2.33723,1.49157 4.94949,0 4.6279,2.88805 -0.47237,4.24211 -1.1,0.29204 -2.675,0.80141 -3.5,1.13193 -0.90884,0.36412 -2.42468,-0.45545 -3.84626,-2.07957 z M 357,281 c 0,-1.95024 3.22462,-6 4.77749,-6 C 363.38568,275 367,278.17067 367,279.58145 367,281.23709 363.09875,283 359.4349,283 357.66667,283 357,282.45241 357,281 Z m 6.75,-6.08193 c -2.51482,-1.46212 -2.22064,-5.59986 0.5,-7.03259 1.2375,-0.65169 2.52884,-1.61167 2.86965,-2.13329 0.3408,-0.52162 1.5783,0.0806 2.75,1.33827 2.40123,2.57742 2.91025,4.80169 0.67415,2.94589 -2.03861,-1.6919 -3.71988,-0.32701 -3.35285,2.72191 0.34899,2.89901 -0.86208,3.65917 -3.44095,2.15981 z m 15.86462,-22.5746 c -1.92863,-1.78832 -2.51763,-3.04123 -1.97278,-4.19649 0.42721,-0.90584 0.67941,-3.67198 0.56045,-6.14698 -0.28296,-5.88705 0.49795,-9 2.25775,-9 2.25955,0 3.00278,2.18841 1.19274,3.51195 C 379.58936,238.02075 379.48795,241 381.5,241 c 1.68139,0 2.04499,2.54515 0.5,3.5 -1.72029,1.0632 -1.09951,2.51167 1.5,3.5 2.79454,1.06248 3.37129,3 0.89301,3 -1.00201,0 -1.39492,0.55264 -1.04367,1.46797 0.98713,2.57242 -0.89384,2.50972 -3.73472,-0.1245 z M 393.75,189.31067 c -2.45409,-0.64132 -2.17976,-2.55491 0.83218,-5.80484 1.42745,-1.54024 2.14835,-3.05892 1.61208,-3.39602 -0.54923,-0.34525 -0.68599,-2.3452 -0.31522,-4.60981 0.50783,-3.10176 1.1002,-4 2.63792,-4 1.67397,0 1.94696,0.59981 1.75154,3.84846 -0.1868,3.10523 0.15116,3.94852 1.75,4.36663 1.08982,0.28499 1.9815,1.11413 1.9815,1.84252 0,1.77575 -2.27881,3.10595 -2.77432,1.61944 C 401.00989,182.52967 400.16928,182 399.35765,182 c -0.81163,0 -1.19107,0.46052 -0.8432,1.02338 0.63853,1.03317 -1.57087,7.07563 -2.50856,6.86062 -0.27824,-0.0638 -1.29339,-0.3218 -2.25589,-0.57333 z M 400.02361,163.25 c 0.0446,-3.30352 6.43628,-14.72809 9.03383,-16.14711 2.36184,-1.29025 2.76336,-1.19118 5.25,1.29546 1.48091,1.48091 2.69256,3.13068 2.69256,3.66616 0,1.09354 -4.83852,0.17891 -6.67375,-1.26156 -0.80583,-0.63249 -1.98129,0.26714 -3.75,2.87002 -3.10885,4.57508 -3.23205,6.43638 -0.53745,8.11919 2.77062,1.73028 1.57404,3.20784 -2.59782,3.20784 -2.61945,0 -3.43534,-0.41781 -3.41737,-1.75 z"
       style="fill:#90ca3b" />
    <path
       id="path10943"
       d="M 409.75,491.42258 C 408.2375,490.60503 407,489.15063 407,488.19057 407,485.33598 409.94255,482 412.46047,482 c 2.26809,0 2.37372,-0.36173 3.139,-10.75 1.07414,-14.5808 0.93991,-19.29861 -0.57571,-20.23531 -0.70392,-0.43505 -3.58474,-1.09625 -6.40181,-1.46934 -8.11016,-1.07408 -16.55488,-3.72464 -23.08728,-7.24646 -6.51067,-3.51009 -5.43936,-4.46469 1.63242,-1.45459 5.25569,2.23708 18.25741,3.45155 34.15515,3.19036 10.94298,-0.17979 12.46762,-0.45358 20.5,-3.6814 16.80892,-6.75467 25.48244,-11.47758 29.58824,-16.11141 2.15076,-2.42736 4.92656,-4.79969 6.16844,-5.27185 3.37606,-1.28358 14.13401,-18.29082 17.04449,-26.94563 5.34041,-15.88062 6.31829,-25.23164 4.96988,-47.52437 -0.66564,-11.00469 -1.93671,-19.36336 -3.80165,-25 -1.43055,-4.32371 -2.72163,-9.15623 -4.27466,-16 -2.39874,-10.57061 -3.60167,-14.89578 -4.43902,-15.96063 -0.44952,-0.57165 -1.35214,-2.83937 -2.00582,-5.03937 -0.65368,-2.2 -2.02294,-6.025 -3.0428,-8.5 -1.01987,-2.475 -2.4013,-7.875 -3.06986,-12 -0.66855,-4.125 -1.82877,-9.75 -2.57825,-12.5 -0.74949,-2.75 -1.6224,-8.825 -1.93981,-13.5 -0.31741,-4.675 -0.7279,-10.075 -0.9122,-12 -1.16894,-12.20931 -2.80508,-36.88514 -2.95058,-44.5 -0.0946,-4.95 -0.68764,-9.93466 -1.31792,-11.07703 -0.63027,-1.14236 -1.45916,-4.51736 -1.84199,-7.5 -0.38283,-2.98263 -1.80401,-7.67297 -3.1582,-10.42297 -2.55225,-5.18298 -10.80937,-14.5 -12.85049,-14.5 -0.64083,0 -1.72512,-0.67472 -2.40953,-1.49939 -1.07521,-1.29555 -0.78598,-1.42482 2.12755,-0.95086 6.77272,1.10175 16.49536,3.80901 21.45677,5.97462 9.88167,4.31326 20.92492,17.49634 25.21996,30.10679 4.13278,12.13404 8.11599,30.51237 8.09911,37.36884 -0.005,1.925 0.50983,6.875 1.1435,11 0.63367,4.125 1.24156,8.85 1.35088,10.5 0.39242,5.92312 1.80051,13.09614 3.63161,18.5 2.71721,8.0189 9.32182,23.74291 12.34853,29.39894 1.44187,2.69442 2.62158,5.54995 2.62158,6.34563 0,0.79568 0.84096,2.64116 1.8688,4.10106 1.02785,1.4599 2.18317,3.66687 2.56739,4.90437 0.38422,1.2375 1.23076,2.24999 1.8812,2.24997 3.6607,-9e-5 10.96046,-14.99056 13.31357,-27.34016 0.72167,-3.78747 1.83003,-7.51035 2.46303,-8.27306 1.47261,-1.77438 6.32173,-1.79569 7.78364,-0.0342 1.60748,1.93689 0.42435,12.48122 -2.51788,22.43994 -1.99912,6.76651 -3.62901,9.81996 -8.85706,16.59294 l -6.40709,8.30044 2.42846,5.90706 c 1.33566,3.24888 2.43915,6.64481 2.4522,7.5465 0.0131,0.9017 1.19233,5.8517 2.62061,11 1.42828,5.14831 2.80514,12.51056 3.05969,16.36056 0.76432,11.55987 0.41284,28.18726 -0.65521,30.99646 -0.55074,1.44855 -1.00135,3.8922 -1.00135,5.43032 0,1.53813 -1.31206,5.69027 -2.91568,9.22699 -1.60363,3.53671 -3.21089,8.00401 -3.57171,9.92732 -0.39817,2.1224 -3.7936,7.68688 -8.63836,14.15663 -10.40907,13.9004 -13.59884,16.52683 -31.31028,25.78055 -11.48195,5.999 -16.79936,7.68175 -28.52078,9.02571 -4.65124,0.5333 -8.92624,1.43964 -9.5,2.01409 -0.63004,0.6308 -1.09351,7.65791 -1.17026,17.74319 -0.0699,9.18431 -0.18238,17.24968 -0.25,17.92306 -0.35841,3.56951 -11.96569,5.59054 -17.12293,2.98141 -1.94346,-0.98323 -2.5,-2.03738 -2.5,-4.73526 0,-3.20528 0.32476,-3.57324 4.25,-4.81536 l 4.25,-1.3449 0.11092,-5.6551 c 0.19638,-10.01242 -0.2604,-19.63528 -0.96726,-20.37727 -1.14205,-1.19879 -21.95118,-1.89829 -22.65375,-0.76151 -0.34456,0.55751 -0.66964,9.12602 -0.7224,19.04113 -0.0593,11.1368 -0.48801,18.2698 -1.1217,18.66144 -2.23306,1.38011 -13.17159,1.1762 -15.89581,-0.29632 z M 396.07519,369.07519 c -4.17585,-4.17585 -1.37476,-10.46625 2.92701,-6.5732 1.38322,1.2518 2.71438,1.5445 4.71276,1.03629 5.81465,-1.47874 8.78504,-1.17252 8.78504,0.90567 0,2.41236 -4.59092,5.13501 -10.17481,6.03417 -3.44885,0.55537 -4.53566,0.31141 -6.25,-1.40293 z m -17.73945,-13.64265 c -0.33082,-0.8621 -0.1325,-2.5496 0.44071,-3.75 0.57321,-1.2004 1.29388,-2.97004 1.60149,-3.93254 0.64337,-2.01309 4.61853,-2.35353 6.42206,-0.55 2.00506,2.00506 1.34914,5.53753 -1.43486,7.72742 -3.13008,2.46212 -6.19394,2.68228 -7.0294,0.50512 z m 42.1627,-0.43426 c -1.74961,-1.93331 -1.74714,-2.12128 0.0724,-5.5 2.94728,-5.47277 7.42914,-4.16574 7.42914,2.16654 0,2.20437 -0.62827,3.60105 -1.93426,4.3 -2.71182,1.45132 -3.50356,1.31386 -5.5673,-0.96654 z m -87.11721,-35.79631 c -1.71533,-0.93608 -4.86533,-2.66745 -7,-3.84749 -3.90606,-2.15923 -16.05799,-15.51788 -20.00326,-21.98961 -1.16712,-1.91452 -2.40853,-5.5712 -2.7587,-8.12597 -0.35017,-2.55478 -1.14859,-6.06073 -1.77427,-7.79101 -2.14376,-5.92845 0.96947,-10.59371 6.00324,-8.99606 2.15972,0.68547 4.15176,4.58407 4.15176,8.12536 0,1.36569 1.16223,5.28202 2.58273,8.70294 3.19354,7.69087 14.20679,19.34266 21.52045,22.7682 5.37685,2.51838 5.83343,3.77428 3.44785,9.48379 -1.64569,3.93867 -1.89075,4.005 -6.1698,1.66985 z"
       style="fill:#879f60" />
    <path
       id="path10941"
       d="m 409.46389,490.59725 c -2.84396,-2.07955 -0.98835,-6.78762 3.15908,-8.01527 3.10127,-0.91798 3.10142,-0.91838 3.73921,-9.90362 0.83472,-11.75952 0.78576,-19.91851 -0.12749,-21.24748 -0.40408,-0.58802 -4.71385,-1.83993 -9.57728,-2.78202 -4.86342,-0.9421 -11.72592,-3.02028 -15.25,-4.61817 -6.95629,-3.15413 -8.71739,-4.88166 -2.65741,-2.60675 4.89046,1.83588 17.80652,2.87493 32.57224,2.62033 10.93087,-0.18848 12.47651,-0.46677 20.5,-3.69101 16.21152,-6.51461 25.52484,-11.50091 29.02813,-15.54149 1.8427,-2.12532 4.63615,-4.52912 6.20767,-5.34178 3.97179,-2.0539 14.5364,-18.43251 17.3963,-26.96999 5.79386,-17.29603 6.98432,-27.65077 5.51845,-48 -0.95509,-13.2585 -1.74552,-18.05223 -4.12219,-25 -1.45805,-4.26233 -2.76522,-9.08848 -4.33362,-16 -2.41792,-10.65514 -3.41456,-14.07426 -4.9744,-17.0655 -0.84164,-1.61397 -1.53303,-3.55323 -1.53642,-4.30945 -0.003,-0.75623 -1.08607,-3.90623 -2.40596,-7 -1.31989,-3.09378 -2.95251,-9.00005 -3.62804,-13.12505 -0.67553,-4.125 -1.84145,-9.75 -2.59093,-12.5 -0.74949,-2.75 -1.6224,-8.825 -1.93981,-13.5 -0.31741,-4.675 -0.7279,-10.075 -0.9122,-12 -1.16894,-12.20931 -2.80508,-36.88514 -2.95058,-44.5 -0.0946,-4.95 -0.68764,-9.93466 -1.31792,-11.07703 -0.63027,-1.14236 -1.45916,-4.51736 -1.84199,-7.5 -0.38283,-2.98263 -1.80401,-7.67297 -3.1582,-10.42297 -2.58958,-5.25879 -10.81994,-14.5 -12.91392,-14.5 -0.67572,0 -1.45831,-0.37172 -1.7391,-0.82604 -1.22164,-1.97666 15.1329,1.58414 23.62133,5.14296 7.30483,3.0626 16.53254,13.45438 22.72397,25.59059 3.4074,6.67905 7.67266,25.36506 9.15149,40.09249 3.14629,31.33328 4.51853,37.78042 11.74189,55.16649 2.20887,5.31657 5.17211,11.83799 6.58497,14.49204 1.41286,2.65406 2.56884,5.19499 2.56884,5.64652 0,1.95698 6.31627,13.69205 7.3545,13.66403 3.73335,-0.10078 11.87749,-16.91111 13.77587,-28.43479 0.54053,-3.28114 1.46242,-6.54364 2.04865,-7.25 1.38117,-1.6642 7.77891,-1.6918 7.95003,-0.0343 0.43948,4.25705 -0.54852,12.21244 -2.26652,18.25 -1.09552,3.85 -2.2087,7.75792 -2.47372,8.68426 -0.26502,0.92634 -3.38592,5.57951 -6.93533,10.34038 -3.54941,4.76086 -6.45348,9.23325 -6.45348,9.93862 0,0.70538 0.84454,3.25221 1.87675,5.65962 1.03222,2.40742 2.64728,7.97712 3.58904,12.37712 0.94175,4.4 2.32551,9.8 3.07501,12 0.7495,2.2 1.64069,9.85 1.98041,17 0.77654,16.34353 -1.07761,30.16714 -5.2981,39.5 -1.61669,3.575 -3.22021,7.97849 -3.56338,9.78553 C 539.71519,407.75925 520.64573,432 517.67761,432 c -0.57679,0 -1.97771,0.85872 -3.11316,1.90827 -2.98743,2.76142 -22.50604,12.8253 -27.13035,13.98854 -2.16376,0.54428 -5.7341,1.45443 -7.9341,2.02254 -2.2,0.56812 -6.5324,1.04367 -9.62756,1.05679 -3.70068,0.0157 -6.04424,0.52593 -6.84451,1.4902 -0.84883,1.02279 -1.2262,6.6567 -1.24752,18.62508 C 461.74351,491.80565 461.64909,492 451.62244,492 c -7.16459,0 -8.96008,-1.20578 -8.4447,-5.67112 0.31487,-2.72806 0.86266,-3.08214 7.72209,-4.99146 1.14707,-0.31928 1.29485,-2.75003 0.81846,-13.46174 -0.31976,-7.18966 -0.87319,-13.36541 -1.22985,-13.72389 C 449.56251,453.22113 431.98741,452.3064 429,453.03338 l -2.5,0.60837 -0.27583,17.92913 c -0.15171,9.86101 -0.47509,18.49162 -0.71862,19.17912 -0.63555,1.7942 -13.5472,1.67125 -16.04166,-0.15275 z m -13.4537,-121.58706 c -2.06856,-2.06856 -2.7152,-6.45643 -1.09872,-7.45547 0.5013,-0.30983 2.24743,0.20342 3.88028,1.14055 2.61246,1.49934 3.45442,1.54361 7.01418,0.36878 2.22495,-0.7343 4.75382,-1.06323 5.61972,-0.73096 4.43455,1.7017 -1.4769,6.89352 -9.16546,8.04971 -3.45555,0.51964 -4.61165,0.26574 -6.25,-1.37261 z M 378.6044,355.16892 c -0.28251,-0.4571 0.23469,-2.4821 1.14932,-4.5 1.17239,-2.58657 2.3029,-3.66892 3.83218,-3.66892 4.40788,0 5.31183,4.72665 1.47607,7.7182 -1.79843,1.40261 -5.70093,1.67499 -6.45757,0.45072 z m 41.75412,-0.67702 c -0.64869,-1.69046 2.24826,-8.4919 3.61697,-8.4919 1.41385,0 4.02451,3.00809 4.02451,4.63717 0,4.50756 -6.1923,7.63125 -7.64148,3.85473 z M 330.88025,317.25 c -2.48122,-1.5125 -5.38182,-3.23468 -6.44578,-3.82706 -3.72384,-2.07333 -18.40514,-20.58522 -19.28278,-24.31398 -0.4672,-1.98493 -1.41745,-5.63396 -2.11167,-8.10896 -1.78838,-6.37581 -1.62366,-10.10007 0.51592,-11.66456 1.00447,-0.73449 2.19031,-1.33544 2.63519,-1.33544 2.01603,0 4.60294,4.14111 5.23977,8.38779 1.77117,11.81102 12.63756,26.28409 24.08121,32.07405 5.83594,2.95271 6.10555,3.4679 4.39006,8.38894 -1.35894,3.89827 -3.15168,3.9776 -9.02192,0.39922 z"
       style="fill:#749844" />
    <path
       id="path10939"
       d="m 409.46389,490.59725 c -2.84396,-2.07955 -0.98835,-6.78762 3.15908,-8.01527 3.10127,-0.91798 3.10142,-0.91838 3.73921,-9.90362 0.83457,-11.75743 0.78577,-19.90733 -0.12749,-21.29341 -0.40408,-0.61327 -3.65969,-1.62504 -7.23469,-2.24837 -3.575,-0.62333 -8.2754,-1.62948 -10.44533,-2.23589 -6.31988,-1.76616 -2.10559,-3.19901 5.65668,-1.92326 7.56499,1.24332 27.6795,0.33656 33.28865,-1.50064 14.39186,-4.71388 28.98579,-12.34625 34.5336,-18.06047 2.45652,-2.53021 5.48265,-4.99926 6.72474,-5.48677 1.24208,-0.48751 3.5762,-3.0336 5.18692,-5.65797 1.61073,-2.62437 4.31101,-6.67051 6.00062,-8.99142 6.04199,-8.29947 11.58509,-29.48755 12.23835,-46.78016 0.22354,-5.91745 -2.62957,-29.95921 -4.27223,-36 -1.04693,-3.85 -3.29833,-12.625 -5.00312,-19.5 -2.98348,-12.03163 -3.93772,-14.9373 -8.86701,-27 -2.04274,-4.99888 -4.00679,-14.07173 -6.92721,-32 -1.66453,-10.21846 -4.12377,-40.08472 -4.61114,-56 -0.25418,-8.30048 -1.0621,-16.63776 -1.88962,-19.5 -0.79508,-2.75 -1.76292,-7.025 -2.15075,-9.5 -0.94021,-6.00007 -4.67871,-13.19367 -9.67192,-18.61067 -2.24601,-2.43663 -3.83325,-4.68065 -3.52719,-4.9867 0.68504,-0.68504 11.70918,2.30139 17.49491,4.73935 7.82404,3.29686 16.84183,13.3145 23.19386,25.76553 3.4074,6.67905 7.67266,25.36506 9.15149,40.09249 3.14629,31.33328 4.51853,37.78042 11.74189,55.16649 2.20887,5.31657 5.17211,11.83799 6.58497,14.49204 1.41286,2.65406 2.56884,5.19499 2.56884,5.64652 0,1.95698 6.31627,13.69205 7.3545,13.66403 3.73335,-0.10078 11.87749,-16.91111 13.77587,-28.43479 0.54053,-3.28114 1.46242,-6.54364 2.04865,-7.25 1.38117,-1.6642 7.77891,-1.6918 7.95003,-0.0343 0.43948,4.25705 -0.54852,12.21244 -2.26652,18.25 -1.09552,3.85 -2.2087,7.75792 -2.47372,8.68426 -0.26502,0.92634 -3.38592,5.57951 -6.93533,10.34038 -3.54941,4.76086 -6.45348,9.23325 -6.45348,9.93862 0,0.70538 0.84454,3.25221 1.87675,5.65962 1.03222,2.40742 2.64728,7.97712 3.58904,12.37712 0.94175,4.4 2.32551,9.8 3.07501,12 0.7495,2.2 1.64069,9.85 1.98041,17 0.77654,16.34353 -1.07761,30.16714 -5.2981,39.5 -1.61669,3.575 -3.22021,7.97849 -3.56338,9.78553 C 539.71519,407.75925 520.64573,432 517.67761,432 c -0.57679,0 -1.97771,0.85872 -3.11316,1.90827 -2.98743,2.76142 -22.50604,12.8253 -27.13035,13.98854 -2.16376,0.54428 -5.7341,1.45443 -7.9341,2.02254 -2.2,0.56812 -6.5324,1.04367 -9.62756,1.05679 -3.70068,0.0157 -6.04424,0.52593 -6.84451,1.4902 -0.84883,1.02279 -1.2262,6.6567 -1.24752,18.62508 C 461.74351,491.80565 461.64909,492 451.62244,492 c -7.16459,0 -8.96008,-1.20578 -8.4447,-5.67112 0.31487,-2.72806 0.86266,-3.08214 7.72209,-4.99146 1.14707,-0.31928 1.29485,-2.75003 0.81846,-13.46174 -0.31976,-7.18966 -0.87319,-13.36541 -1.22985,-13.72389 C 449.56251,453.22113 431.98741,452.3064 429,453.03338 l -2.5,0.60837 -0.27583,17.92913 c -0.15171,9.86101 -0.47509,18.49162 -0.71862,19.17912 -0.63555,1.7942 -13.5472,1.67125 -16.04166,-0.15275 z M 396.70343,368.22479 c -1.66386,-1.83854 -2.44108,-6.75086 -0.95343,-6.02604 0.4125,0.20099 1.98724,0.9856 3.49942,1.74359 2.27852,1.14212 3.41636,1.15805 6.64342,0.093 3.78408,-1.24886 6.10716,-0.86925 6.10716,0.99797 0,1.35913 -4.94077,3.63733 -9.54657,4.40194 -3.25214,0.53989 -4.38099,0.30225 -5.75,-1.21049 z M 378.6044,355.16892 c -0.28251,-0.4571 0.23469,-2.4821 1.14932,-4.5 1.17239,-2.58657 2.3029,-3.66892 3.83218,-3.66892 4.40788,0 5.31183,4.72665 1.47607,7.7182 -1.79843,1.40261 -5.70093,1.67499 -6.45757,0.45072 z m 41.75412,-0.67702 c -0.64869,-1.69046 2.24826,-8.4919 3.61697,-8.4919 1.41385,0 4.02451,3.00809 4.02451,4.63717 0,4.50756 -6.1923,7.63125 -7.64148,3.85473 z M 330.88025,317.25 c -2.48122,-1.5125 -5.38182,-3.23468 -6.44578,-3.82706 -3.72384,-2.07333 -18.40514,-20.58522 -19.28278,-24.31398 -0.4672,-1.98493 -1.41745,-5.63396 -2.11167,-8.10896 -1.78838,-6.37581 -1.62366,-10.10007 0.51592,-11.66456 1.00447,-0.73449 2.19031,-1.33544 2.63519,-1.33544 2.01603,0 4.60294,4.14111 5.23977,8.38779 1.19641,7.97819 5.21626,15.44119 12.2309,22.7071 3.6023,3.73133 8.54537,7.72235 10.98461,8.86893 2.43923,1.14657 4.65576,2.66006 4.92562,3.3633 0.57436,1.49675 -2.23032,8.67288 -3.38967,8.67288 -0.43494,0 -2.82089,-1.2375 -5.30211,-2.75 z"
       style="fill:#5e6251" />
    <path
       id="path10937"
       d="m 447,491.11102 c -1.89312,-0.52221 -2.57545,-1.46069 -2.8108,-3.86601 -0.27183,-2.77812 0.0416,-3.25085 2.5,-3.77026 5.88233,-1.24283 5.82943,-1.09596 5.58786,-15.51436 -0.12261,-7.31844 -0.65839,-13.74172 -1.1906,-14.27393 -0.53222,-0.53222 -6.3944,-1.19117 -13.02706,-1.46433 -9.8333,-0.40499 -12.07356,-0.24059 -12.13609,0.8906 -0.40491,7.32434 -0.52377,11.28548 -0.70929,23.63727 L 425,491 l -6.87756,0 c -4.79241,0 -7.2429,-0.44022 -8.08261,-1.45201 -1.8828,-2.26863 -0.26592,-5.55277 3.06141,-6.21824 1.61721,-0.32344 3.1114,-0.86745 3.32042,-1.20891 0.96612,-1.57825 1.4818,-29.43271 0.57622,-31.12479 -0.70361,-1.31472 -2.65824,-2.05595 -6.74432,-2.55757 -5.69235,-0.69882 -10.89391,-2.16115 -10.14225,-2.85133 0.21378,-0.1963 3.08869,0.0159 6.38869,0.47152 9.64438,1.33159 27.88008,-0.35524 35.52234,-3.28586 14.8125,-5.68025 25.93176,-11.72658 31.31249,-17.02682 2.9291,-2.8853 6.46271,-6.00597 7.85245,-6.93484 1.38974,-0.92887 3.26824,-3.25131 4.17444,-5.16098 0.9062,-1.90968 3.15982,-5.28211 5.00805,-7.49429 4.4568,-5.33445 12.23125,-29.61346 12.69832,-39.65588 0.54476,-11.71277 -1.94312,-37.09845 -4.45915,-45.5 -0.9059,-3.025 -3.38571,-12.025 -5.51069,-20 -4.0783,-15.30578 -7.28291,-25.19087 -9.23557,-28.48844 -1.05447,-1.78076 -2.32065,-7.74673 -5.7328,-27.01156 -1.4027,-7.91963 -2.9917,-26.96121 -4.509,-54.03323 -0.6792,-12.11827 -1.54242,-22.53081 -1.91829,-23.13897 -0.37586,-0.60815 -1.37335,-4.38574 -2.21665,-8.39462 C 468.20169,153.82806 463.62925,144.02782 461.11896,142 460.77853,141.725 459.6,140.42092 458.5,139.10205 l -2,-2.39795 4.33072,0.67268 c 7.31768,1.13662 16.37619,5.41157 20.97951,9.90078 7.83958,7.64523 15.13497,20.26492 17.18243,29.72244 0.53581,2.475 1.89293,8.55 3.01582,13.5 1.12289,4.95 2.27827,12.375 2.56752,16.5 0.82564,11.77446 2.46648,24.66056 4.27401,33.56538 1.3889,6.8424 9.33388,27.21247 14.00987,35.91981 1.17707,2.19186 2.14012,4.40629 2.14012,4.92097 0,1.99077 6.3169,13.77822 7.65995,14.29359 4.02514,1.54459 13.1804,-15.77018 15.30098,-28.93779 1.16519,-7.23514 2.65126,-9.14838 6.37912,-8.21275 2.57547,0.6464 2.63457,0.82883 2.0436,6.30822 -0.33471,3.10341 -1.73646,9.6543 -3.115,14.55752 -2.1249,7.55788 -3.47779,10.18801 -8.88754,17.27814 C 540.8715,301.29285 538,305.7617 538,306.62386 c 0,0.86215 0.69202,2.76199 1.53782,4.22185 0.8458,1.45986 3.11039,8.72929 5.03243,16.15429 3.22427,12.45563 3.51144,14.77645 3.71218,30 0.2581,19.57389 -0.60674,26.36038 -4.43191,34.77757 -1.56906,3.45266 -3.24487,8.02237 -3.72402,10.15492 -1.4828,6.59948 -18.10263,27.32393 -23.83197,29.71781 -1.81199,0.7571 -3.29453,1.77469 -3.29453,2.26131 0,1.54943 -22.22647,12.22573 -29.5,14.17008 -3.85,1.02918 -9.78036,1.88183 -13.17857,1.89477 -8.92062,0.034 -9.3037,0.63876 -9.40333,14.84497 -0.045,6.42321 -0.0155,14.21017 0.0657,17.30434 0.13139,5.00899 -0.1485,5.85865 -2.55295,7.75 -2.71291,2.13397 -6.63593,2.55791 -11.43081,1.23525 z M 330.75255,316.01999 c -1.38444,-1.089 -3.63756,-2.40597 -5.00692,-2.9266 -3.584,-1.36264 -18.58261,-19.688 -19.66333,-24.02474 -0.48912,-1.96276 -1.4094,-5.59365 -2.04506,-8.06865 -0.63567,-2.475 -1.38038,-5.4 -1.65491,-6.5 -0.27453,-1.1 0.15284,-2.88219 0.94971,-3.96043 1.23651,-1.67308 1.8212,-1.79078 3.9892,-0.80297 2.03722,0.92822 2.66645,2.10866 3.17719,5.96042 0.35027,2.64164 1.68344,7.27798 2.96259,10.30298 3.0258,7.15554 13.53328,18.86019 20.28548,22.5967 5.75704,3.18582 5.76175,3.19371 4.09298,6.85625 -1.39314,3.05762 -3.68731,3.24119 -7.08693,0.56704 z"
       style="fill:#46483a" />
    <path
       id="path10935"
       d="M 411.62666,489.71627 C 409.01118,487.80379 410.2792,484 413.5322,484 c 2.62083,0 4.79852,-2.97458 3.89722,-5.32333 -0.30988,-0.80752 -0.10123,-6.41825 0.46365,-12.46828 0.65645,-7.03071 0.68523,-12.19196 0.0798,-14.3031 -1.23394,-4.30249 -0.2627,-4.87065 8.35919,-4.88998 7.8709,-0.0176 17.00435,-2.8275 31.36074,-9.64798 C 462.74879,434.9653 467.118,433 467.40212,433 c 0.28412,0 2.67238,-2.2815 5.30723,-5.07001 2.63486,-2.7885 6.04364,-5.73307 7.57508,-6.54348 1.53143,-0.81041 4.72103,-4.49141 7.08798,-8.17999 2.36696,-3.68859 5.05601,-7.32789 5.97567,-8.08734 0.91966,-0.75946 2.36086,-3.75004 3.20267,-6.64575 1.28305,-4.41356 1.84739,-5.18207 3.4899,-4.75255 2.20785,0.57737 2.71659,-1.21632 0.57777,-2.03706 -1.57214,-0.60329 -0.89265,-4.81738 2.44829,-15.18382 1.06353,-3.3 1.93361,-7.73524 1.9335,-9.85608 -1.6e-4,-2.94673 0.60373,-4.33114 2.56082,-5.87059 2.53529,-1.99425 2.54181,-2.03591 0.64901,-4.14392 -1.05161,-1.17117 -2.22928,-3.01941 -2.61705,-4.10718 -1.04762,-2.93882 -2.80308,-15.53832 -2.68908,-19.30047 0.0546,-1.80303 -0.50578,-4.72803 -1.24537,-6.5 -0.73958,-1.77197 -1.67109,-4.96466 -2.07003,-7.09487 -0.39893,-2.13021 -1.09407,-4.60521 -1.54476,-5.5 -0.45069,-0.89479 -2.49391,-8.60189 -4.54048,-17.12689 -2.19405,-9.13932 -5.0486,-18.16738 -6.95611,-22 -1.94779,-3.91356 -3.50699,-8.88748 -3.91845,-12.5 -0.37585,-3.3 -1.3248,-8.7 -2.10877,-12 -1.26057,-5.30614 -1.93466,-11.38426 -3.04989,-27.5 -0.17127,-2.475 -0.77819,-6.975 -1.3487,-10 -0.57052,-3.025 -1.23879,-13.6 -1.48504,-23.5 -0.30301,-12.18163 -0.92952,-19.45459 -1.93821,-22.5 -0.81977,-2.475 -1.78056,-6.17673 -2.13511,-8.22606 -0.80095,-4.62958 -5.82961,-14.3615 -9.30792,-18.01351 -1.4351,-1.50676 -2.39607,-2.95276 -2.13551,-3.21333 0.61885,-0.61884 8.17967,1.72868 13.88044,4.30966 5.13082,2.32294 12.9401,10.07679 18.27292,18.14324 3.16641,4.78952 4.98919,9.50406 8.6992,22.5 1.46433,5.12946 3.89482,20.52332 4.97345,31.5 1.82539,18.57606 3.01998,26.36848 4.98232,32.5 2.47117,7.7214 9.20314,23.95925 12.50327,30.15853 1.41286,2.65406 2.58973,5.50414 2.61527,6.33351 0.0789,2.56273 6.40347,13.47092 7.98728,13.77593 3.54704,0.6831 14.95302,-20.71372 14.97187,-28.08619 0.003,-1.19998 0.47422,-3.86928 1.047,-5.93178 0.91091,-3.28001 1.4215,-3.75 4.07402,-3.75 l 3.03259,0 -0.65066,6.75 c -1.16206,12.0553 -4.31677,20.9993 -10.18284,28.86961 -2.91859,3.91578 -5.98585,7.68338 -6.81611,8.37244 -2.02015,1.67657 -1.89644,3.86124 0.43519,7.68515 1.06551,1.74746 2.24818,4.89746 2.62816,7 1.09422,6.05461 4.29683,18.30576 5.12965,19.62278 0.41736,0.66001 0.86489,3.90002 0.99452,7.20002 0.12963,3.3 0.47917,9.15 0.77677,13 0.29759,3.85 0.0417,10.375 -0.56857,14.5 -0.61031,4.125 -1.2237,8.85 -1.3631,10.5 -0.1394,1.65 -1.6046,5.925 -3.25599,9.5 -1.65139,3.575 -3.26956,7.90976 -3.59593,9.63279 C 538.62456,407.25916 519.94653,431 516.58572,431 c -0.6804,0 -2.28171,1.11194 -3.55846,2.47098 -1.27675,1.35904 -3.94269,3.00434 -5.92431,3.65622 -1.98162,0.65189 -5.19489,2.23651 -7.14059,3.52138 -6.74386,4.45339 -19.56508,8.39819 -28.75692,8.84784 -4.68522,0.2292 -8.9991,0.89724 -9.58641,1.48455 -0.66449,0.66449 -1.11986,7.67579 -1.20558,18.56237 C 460.2498,490.3263 459.96891,491 451.46746,491 c -5.54641,0 -7.90129,-1.50881 -7.29208,-4.67215 0.2086,-1.0832 1.88711,-2.20167 4.33257,-2.88703 l 3.99205,-1.1188 0.27658,-14.01651 c 0.21766,-11.03087 -0.0207,-14.26323 -1.11907,-15.17479 -2.13842,-1.77473 -25.53945,-2.618 -26.15405,-0.94248 -0.26465,0.72147 -0.59869,9.63676 -0.74232,19.81176 l -0.26114,18.5 -5.50079,0.29247 c -3.49802,0.18598 -6.18228,-0.20585 -7.37255,-1.0762 z M 330.58139,315.08994 c -0.95072,-1.05054 -2.81869,-2.18367 -4.15104,-2.51806 -3.18798,-0.80014 -15.6933,-14.58915 -19.23845,-21.21331 -1.29154,-2.41326 -3.2815,-12.2104 -3.52581,-17.35857 -0.13755,-2.89859 0.20891,-3.55339 2.01625,-3.81068 2.57931,-0.3672 3.77756,1.56989 4.69778,7.59445 1.29259,8.4625 6.12652,16.54434 14.74476,24.65177 4.42259,4.16045 8.65218,7.56446 9.39908,7.56446 1.96802,0 2.62765,1.54776 1.89823,4.45401 -0.76473,3.04689 -3.39931,3.33374 -5.8408,0.63593 z"
       style="fill:#403e38" />
    <path
       id="path10933"
       d="m 414,490.16997 c -1.375,-0.18663 -2.87919,-0.70291 -3.34264,-1.14729 C 409.18464,487.61057 411.92379,484 414.4678,484 c 2.886,0 3.2388,-1.10885 3.49981,-11 0.68435,-25.93427 0.45871,-24.3364 3.55352,-25.16408 1.54413,-0.41297 3.28319,-0.45686 3.86457,-0.0975 1.71464,1.0597 6.74029,0.34361 12.40181,-1.76711 6.60828,-2.46368 6.34388,-2.49642 6.00034,0.74319 -0.31301,2.95175 1.59821,4.00207 4.21215,2.3148 1.23621,-0.79796 1.28018,-1.32293 0.25,-2.98518 C 446.73853,443.60525 446.68883,443 448,443 c 0.55,0 1,0.62325 1,1.38499 0,0.76174 1.13282,2.12724 2.51738,3.03444 2.43311,1.59424 2.6256,1.54803 5.75,-1.38036 1.77794,-1.6664 3.99356,-3.0319 4.9236,-3.03444 2.41439,-0.007 3.14682,-1.71621 1.20164,-2.80479 -1.12494,-0.62954 -1.29062,-1.14484 -0.52104,-1.62047 1.46561,-0.9058 3.12842,0.14642 3.12842,1.97965 0,0.79254 0.4132,1.44098 0.91821,1.44098 0.50502,0 1.63512,0.2751 2.51134,0.61134 1.16604,0.44745 1.42737,0.17937 0.9748,-1 C 470.06427,440.7251 470.28417,440 470.89301,440 471.50186,440 472,438.92748 472,437.61663 c 0,-1.62631 0.71469,-2.5749 2.25,-2.98634 3.32678,-0.89155 3.75,-0.78554 3.75,0.93926 0,1.05666 0.73525,1.46407 2.25,1.24677 1.70643,-0.24481 2.18675,-0.89777 1.98817,-2.70284 -0.144,-1.30903 0.23224,-2.97536 0.83609,-3.70296 0.60386,-0.7276 0.80762,-1.79262 0.45281,-2.36672 -0.35481,-0.57409 0.0423,-1.0438 0.88253,-1.0438 0.94705,0 1.30887,0.57008 0.95203,1.5 -0.73873,1.92509 1.3045,1.92257 5.00268,-0.006 1.57537,-0.82161 3.43972,-1.49384 4.14301,-1.49384 0.70329,0 1.58907,-0.7875 1.96841,-1.75 0.5934,-1.50562 1.09595,-1.26789 3.59877,1.70238 2.8173,3.34348 2.95517,3.39079 4.37114,1.5 1.27859,-1.70735 1.27962,-2.09172 0.008,-3.06262 -2.03891,-1.55701 -1.81022,-4.06331 0.42407,-4.64759 1.5325,-0.40076 1.81361,-1.24999 1.52817,-4.61663 -0.39596,-4.67043 0.22174,-4.99271 3.94938,-2.06056 1.44386,1.13575 3.13733,1.74847 3.76327,1.36162 0.78961,-0.488 0.65219,-0.97528 -0.44881,-1.59143 C 511.62912,412.69306 512.63821,410 515.10699,410 516.14814,410 517,409.55 517,409 c 0,-0.55 0.91156,-1 2.02568,-1 1.92884,0 1.95151,-0.14342 0.47432,-3 -0.85325,-1.65 -2.2148,-3 -3.02568,-3 -1.63663,0 -1.71831,-0.2006 -0.92422,-2.26996 0.34771,-0.90612 1.45146,-1.26124 3,-0.96521 1.62922,0.31144 2.45503,0.0105 2.46521,-0.89825 0.0277,-2.46924 1.95258,1.40796 1.96938,3.96675 0.009,1.43231 0.498,2.16205 1.26531,1.88977 0.6875,-0.24396 1.1368,-1.44037 0.99844,-2.65869 -0.15496,-1.36451 0.90105,-3.36775 2.75,-5.21669 C 531.46517,392.38099 531.87297,390 529,390 c -1.75758,0 -2,-0.66667 -2,-5.5 0,-4.38698 0.32549,-5.5 1.60841,-5.5 1.2281,0 1.45584,-0.60786 0.96318,-2.5708 -0.47707,-1.90077 -0.0492,-3.19941 1.64159,-4.98272 1.25775,-1.32656 2.84932,-2.4197 3.53682,-2.4292 0.6875,-0.01 1.25,-0.46728 1.25,-1.01728 0,-0.55 -0.47341,-1 -1.05202,-1 -0.57861,0 -1.53224,-1.37756 -2.11918,-3.06126 -0.6837,-1.96126 -1.56332,-2.87085 -2.44798,-2.53138 -0.75945,0.29143 -1.36651,-0.0185 -1.34902,-0.68874 0.0463,-1.77309 2.17683,-4.23302 4.38542,-5.06337 2.78198,-1.04594 0.3527,-3.15525 -3.63389,-3.15525 -3.60424,0 -5.00875,-2.36679 -1.88869,-3.1827 2.68064,-0.701 2.71552,-2.34498 0.0645,-3.03824 -2.65338,-0.69388 -1.88821,-2.85137 0.90112,-2.54085 1.35212,0.15053 2.13977,-0.32115 2.13977,-1.28138 0,-2.1222 -2.43611,-2.82898 -5.00751,-1.45281 -3.41295,1.82655 -3.71915,0.15306 -0.45341,-2.47803 2.64674,-2.13238 3.18994,-2.23772 5.11921,-0.99278 1.8717,1.20778 2.33144,1.18409 3.46226,-0.17846 C 535.9499,335.15052 532.83299,333 527.80887,333 524.70527,333 524,332.6406 524,331.05902 c 0,-1.06754 0.38965,-2.1818 0.86589,-2.47614 0.47624,-0.29433 0.64257,-1.70335 0.36963,-3.13116 -0.27294,-1.42781 0.11266,-3.73378 0.85689,-5.12438 1.19718,-2.23696 1.14012,-2.68414 -0.49506,-3.87981 -1.15719,-0.84616 -1.60589,-1.9829 -1.2001,-3.04036 C 525.38534,310.83224 524.09438,308 521.93261,308 c -2.4459,0 -2.50029,-1.62582 -0.0974,-2.9118 1.44465,-0.77315 2.52181,-0.35503 5.06172,1.96482 C 530.70146,310.52794 531,310.60279 531,308.08179 531,304.64613 529.8316,303 527.39301,303 525.32481,303 525,302.52494 525,299.5 c 0,-3.42752 -2.03042,-4.87782 -3.5,-2.5 -1.07318,1.73644 -4.33878,1.08332 -5,-1 -0.34913,-1.1 -1.39195,-2.01618 -2.31739,-2.03596 -0.92543,-0.0198 -2.88201,-1.03228 -4.34795,-2.25 -2.6462,-2.19814 -2.65437,-2.24635 -1.13864,-6.71404 0.83969,-2.475 2.15159,-4.85986 2.91534,-5.29969 1.79755,-1.03518 1.8062,-4.70031 0.0111,-4.70031 -0.75765,0 -1.93775,0.675 -2.62244,1.5 -2.52684,3.04465 -6,0.51422 -6,-4.37139 0,-1.7507 0.47214,-1.92997 3.75,-1.42384 l 3.75,0.57903 -2.25,-2.45635 c -1.2375,-1.35099 -2.25,-3.38809 -2.25,-4.52689 0,-2.95299 -4.52288,-5.64598 -8.23537,-4.90349 -2.75226,0.55046 -2.93814,0.41583 -2.27653,-1.64884 1.51885,-4.73981 1.70279,-8.8133 0.4653,-10.30438 -0.90803,-1.0941 -0.96179,-1.83546 -0.18916,-2.60809 0.59371,-0.59371 0.83319,-1.72126 0.53219,-2.50566 -0.301,-0.7844 0.25291,-2.0113 1.23092,-2.72644 1.03393,-0.75603 1.46343,-1.80957 1.02615,-2.5171 -0.56602,-0.91584 -1.20792,-0.80429 -2.59491,0.45092 -1.01358,0.91727 -2.39317,1.48433 -3.06577,1.26013 -1.79807,-0.59936 -1.76236,-6.09732 0.0489,-7.53118 1.37122,-1.08549 1.28819,-1.30955 -0.69173,-1.86663 -1.75993,-0.49517 -2.25,-1.36316 -2.25,-3.98505 0,-2.5687 0.35052,-3.21747 1.5,-2.77638 1.13499,0.43554 1.5,-0.18046 1.5,-2.53138 0,-1.70885 0.45,-3.10699 1,-3.10699 0.55,0 1,-0.45 1,-1 0,-1.79628 -2.8495,-1.04954 -3.47134,0.90969 -1.23396,3.88788 -3.09039,4.32997 -6.41946,1.52875 -3.28417,-2.76346 -3.39143,-4.58651 -0.22106,-3.75744 3.2291,0.84443 3.31382,-1.47181 0.13967,-3.81856 -4.40949,-3.26008 -3.61709,-7.31855 0.95152,-4.8735 2.35454,1.26011 6.39648,-0.36151 5.74825,-2.30619 -0.60364,-1.81094 -9.79082,-2.88639 -12.54262,-1.46824 -1.87612,0.96687 -2.4844,0.91902 -3.20836,-0.25236 -1.03835,-1.68009 -0.27965,-2.6232 2.51579,-3.12731 1.09581,-0.19762 2.60546,-1.63845 3.35479,-3.20186 2.00779,-4.18913 4.36453,-6.17392 6.90282,-5.81343 1.2375,0.17575 2.25,3.6e-4 2.25,-0.38976 0,-1.29534 -3.46747,-3.36571 -5.69098,-3.39799 -3.54005,-0.0514 -3.47068,-1.52068 0.22634,-4.79377 1.90555,-1.68705 3.46464,-3.33076 3.46464,-3.6527 0,-1.19428 -2.80477,-0.53648 -3.30838,0.77591 -0.28729,0.74868 -1.46044,1.60655 -2.60699,1.90638 -1.56609,0.40954 -2.08463,0.0782 -2.08463,-1.332 0,-1.03243 -1.42923,-3.90482 -3.17608,-6.38308 -2.83641,-4.02405 -3.02179,-4.69558 -1.7334,-6.27924 2.82242,-3.46926 1.1337,-7.99885 -2.29752,-6.16252 -1.85322,0.99182 -2.02396,0.88043 -1.53231,-0.99965 0.32132,-1.22873 -0.003,-2.42931 -0.77407,-2.86349 -0.73006,-0.4112 -1.63699,-1.98514 -2.01541,-3.49764 -0.53674,-2.14534 -0.33437,-2.75 0.92038,-2.75 0.88463,0 1.60841,-0.675 1.60841,-1.5 0,-1.79191 -1.16361,-1.93639 -2.75762,-0.34238 C 467.96405,149.43595 465,147.70151 465,145.67516 c 0,-0.59397 -1.43828,-2.56387 -3.19617,-4.37755 -4.13031,-4.26141 -2.26576,-4.35022 7.68431,-0.36601 13.85945,5.54959 24.52587,19.25171 29.02325,37.28338 2.66513,10.68549 5.25384,24.13935 5.25001,27.28502 -0.008,6.2868 2.23993,25.1874 4.10259,34.5 1.46444,7.32166 6.95889,21.55515 13.72564,35.55655 1.8757,3.88111 3.41037,7.98292 3.41037,9.11514 0,1.13223 0.8381,3.13178 1.86244,4.44345 1.02434,1.31167 2.16677,3.35672 2.53873,4.54455 0.37195,1.18784 1.37762,2.74176 2.23481,3.45316 1.33318,1.10645 2.18625,0.5773 5.90007,-3.65969 4.56545,-5.20861 9.701,-17.52803 11.02743,-26.45316 0.91956,-6.18741 2.1346,-8.18362 4.75418,-7.81068 2.0297,0.28895 2.15706,0.76154 1.82085,6.75694 -0.7507,13.38691 -6.59754,26.6361 -15.46913,35.05374 -3.14629,2.98529 -3.36298,6.14166 -0.7157,10.42505 1.07453,1.73862 2.39726,5.61674 2.93942,8.61804 1.44254,7.98569 3.66578,16.26416 5.07502,18.89734 0.67816,1.26715 0.99782,3.48643 0.71037,4.93174 -0.28745,1.44531 -0.18224,6.72194 0.23382,11.72585 1.08531,13.05309 -1.10849,28.61081 -5.20355,36.90198 -1.35825,2.75 -2.76255,6.65446 -3.12069,8.67658 -0.40471,2.28509 -3.14611,7.01598 -7.24336,12.5 -8.66254,11.59449 -12.15221,15.26494 -16.13822,16.97426 -1.81143,0.7768 -3.53861,2.05107 -3.83817,2.83173 -0.29957,0.78065 -2.64249,2.20052 -5.20649,3.15527 -2.56401,0.95475 -5.78683,2.5927 -7.16183,3.63988 C 493.9271,444.90275 480.02649,449 470.40817,449 c -10.20847,0 -10.11159,-0.1922 -10.33352,20.5 -0.21937,20.45334 -0.61011,21.5 -8.02627,21.5 C 447.5329,491 444,489.3006 444,487.12857 c 0,-1.41506 2.42565,-3.12876 4.45,-3.14388 4.46905,-0.0334 4.76123,-0.99142 4.90927,-16.09705 l 0.14073,-14.35925 -2.56114,-1.22824 c -1.42994,-0.68576 -7.83428,-1.37468 -14.5,-1.55979 L 424.5,450.40881 l -0.15929,19.5456 -0.15929,19.54559 -3.84071,0.50465 C 418.22832,490.2822 415.375,490.3566 414,490.16997 Z M 330.5,314 c -0.99549,-1.1 -2.77794,-2 -3.961,-2 -2.51709,0 -16.51633,-15.61235 -18.89666,-21.07409 -2.08605,-4.7865 -4.91917,-17.76212 -4.25571,-19.49107 0.30283,-0.78916 1.47586,-1.43484 2.60674,-1.43484 2.27302,0 4.00663,3.39816 4.00663,7.85366 0,1.4979 0.9,4.48875 2,6.64634 1.1,2.15759 2,4.25775 2,4.66703 0,1.67432 5.11736,8.09467 11.11516,13.9453 3.81226,3.71873 6.26338,6.91119 6.09037,7.93241 -0.15924,0.93998 0.40437,1.97532 1.25247,2.30077 1.6179,0.62085 2.15187,2.65449 0.69699,2.65449 -0.46476,0 -1.6595,-0.9 -2.65499,-2 z"
       style="fill:#36382f" />
  </g>
</svg>
