<?xml version="1.0" encoding="UTF-8" standalone="no"?>
<svg
   xmlns:dc="http://purl.org/dc/elements/1.1/"
   xmlns:cc="http://creativecommons.org/ns#"
   xmlns:rdf="http://www.w3.org/1999/02/22-rdf-syntax-ns#"
   xmlns:svg="http://www.w3.org/2000/svg"
   xmlns="http://www.w3.org/2000/svg"
   viewBox="0 0 800 600"
   height="600"
   width="800"
   version="1.1"
   id="svg9902">
  <metadata
     id="metadata9908">
    <rdf:RDF>
      <cc:Work
         rdf:about="">
        <dc:format>image/svg+xml</dc:format>
        <dc:type
           rdf:resource="http://purl.org/dc/dcmitype/StillImage" />
        <dc:title></dc:title>
      </cc:Work>
    </rdf:RDF>
  </metadata>
  <defs
     id="defs9906" />
  <g
     id="g11053">
    <path
       id="path11083"
       d="m 244.22271,491.76075 c -2.22327,-3.35995 -2.34615,-4.04853 -1.21133,-6.78822 C 244.4071,481.60296 246.69909,480 250.12135,480 l 2.25283,0 -2.54187,-2.75 c -4.0297,-4.35965 -8.87727,-15.56711 -10.38081,-24.0002 -1.86887,-10.48211 -1.78852,-13.28867 0.52654,-18.3906 1.08792,-2.39756 1.98792,-5.64621 2,-7.21922 0.0354,-4.61308 6.02504,-14.60597 12.96139,-21.62437 3.54169,-3.58359 7.86597,-8.60438 9.60951,-11.15733 4.9304,-7.21924 10.45628,-12.74606 15.67355,-15.67623 2.62651,-1.47513 4.77593,-3.28008 4.77649,-4.01101 5.6e-4,-0.73092 -2.23078,-3.89491 -4.95854,-7.03107 -2.72775,-3.13617 -5.64855,-7.35113 -6.49066,-9.36658 -0.91652,-2.19354 -3.28422,-4.87064 -5.8986,-6.66937 -2.40212,-1.65271 -4.92879,-4.36001 -5.61482,-6.01624 -1.19671,-2.8891 -4.48958,-5.88168 -12.03254,-10.93522 -1.9271,-1.2911 -5.07882,-3.83318 -7.00382,-5.64907 -3.91619,-3.69421 -19.32442,-14.11314 -25.56949,-17.28988 -2.23821,-1.13854 -5.92577,-3.56487 -8.19456,-5.39184 -2.26879,-1.82697 -6.97049,-5.04927 -10.44821,-7.16066 -7.84864,-4.76505 -16.55204,-16.12575 -17.98014,-23.46979 -1.86406,-9.58601 2.26482,-22.83311 9.65249,-30.96902 9.14438,-10.07055 17.31134,-13.55699 35.83517,-15.2979 14.48447,-1.36128 26.10468,-0.78938 39.20474,1.92952 36.16334,7.50564 49.9523,10.75198 54,12.71322 6.10495,2.95805 18.92809,4.55676 41,5.11164 12.1,0.30419 23.4456,0.50251 25.21245,0.4407 3.09203,-0.10816 9.51698,1.87991 28.77586,8.90412 9.10314,3.32015 10.65859,4.07989 20.51169,10.0187 13.24112,7.98089 21.79026,14.19945 25.65477,18.66102 13.13484,15.16417 18.28487,21.83669 20.84728,27.01029 1.57626,3.18251 3.61824,6.91139 4.53774,8.28639 0.9195,1.375 2.60636,5.2 3.74858,8.5 1.14222,3.3 3.25941,9.3117 4.70488,13.35933 2.55335,7.14998 2.61527,7.87539 2.17638,25.5 -0.45548,18.29074 -1.52255,28.04458 -3.5709,32.64067 -0.6128,1.375 -3.1121,5.875 -5.55401,10 -2.44192,4.125 -5.37148,9.18533 -6.51014,11.24517 -2.60394,4.71052 -9.43133,11.67645 -18.815,19.19679 l -7.28043,5.83474 0.39903,7.11165 c 0.35421,6.31295 3.4414,19.82796 5.16705,22.62011 0.42331,0.68493 6.87,0.8595 19.02492,0.51518 21.13742,-0.59878 27.98781,0.3243 29.6611,3.99677 1.21736,2.67181 0.34007,8.80754 -1.46771,10.26517 -1.23403,0.99501 -18.24862,1.32298 -65.22354,1.25726 -13.75,-0.0192 -33.325,0.0168 -43.5,0.0801 -10.175,0.0633 -20.75,0.098 -23.5,0.077 -29.90782,-0.22756 -70.91348,-0.22244 -96.90152,0.0121 l -31.90152,0.28792 -2.47425,-3.73925 z m 155.59896,-12.38777 c 5.93731,-0.45173 7.21358,-0.83873 6.75,-2.0468 C 406.25725,476.50681 406,474.97323 406,473.91821 c 0,-1.58631 -0.73536,-1.92234 -4.25,-1.94207 -2.3375,-0.0131 -6.05,-0.4475 -8.25,-0.96528 -2.2,-0.51779 -7.15,-1.2395 -11,-1.60381 -3.85,-0.3643 -8.125,-1.41223 -9.5,-2.32874 -1.375,-0.9165 -4.67136,-2.21638 -7.32525,-2.88862 -2.92077,-0.73985 -7.72698,-3.3682 -12.17716,-6.65926 l -7.3519,-5.43699 -1.06531,4.96736 c -1.52426,7.10737 -3.51145,11.4083 -7.54592,16.33184 -1.94395,2.37234 -3.53446,4.75609 -3.53446,5.29722 0,0.61714 5.51937,0.84921 14.80727,0.62259 8.144,-0.1987 16.5815,0.0579 18.75,0.57031 3.76644,0.88995 16.51422,0.68853 32.2644,-0.50978 z m 42.41818,-2.44951 C 441.634,471.27965 438.7269,460 437.87818,460 c -0.50658,0 -2.59891,1.07947 -4.64962,2.39883 -2.05071,1.31935 -5.46101,3.00101 -7.57844,3.737 -3.66992,1.27563 -3.82715,1.50761 -3.36372,4.96281 0.26739,1.99354 1.26819,4.81814 2.224,6.27689 1.68009,2.56413 2.00785,2.64096 9.86372,2.31184 7.92352,-0.33196 8.1194,-0.40079 7.86573,-2.7639 z"
       style="fill:#eeedd8" />
    <path
       id="path11081"
       d="m 372,493.86687 c -1.925,-0.44699 -16.325,-0.75387 -32,-0.68196 -15.675,0.0719 -42.85481,0.1677 -60.39958,0.21287 l -31.89958,0.0821 -2.07989,-2.78578 c -1.91881,-2.57004 -1.96288,-2.99519 -0.569,-5.48995 1.14834,-2.05528 2.40319,-2.77864 5.22947,-3.01454 4.47413,-0.37342 4.65494,-1.60771 0.82649,-5.64202 -5.67559,-5.98077 -11.70217,-24.25119 -11.35065,-34.41107 0.064,-1.8499 0.81981,-5.12151 1.67956,-7.27024 0.85975,-2.14872 1.56318,-5.07218 1.56318,-6.49656 0,-4.55226 6.144,-14.58641 13.28352,-21.69417 3.77022,-3.75344 8.06128,-8.71882 9.53571,-11.03418 4.2391,-6.65687 10.23967,-12.6292 15.93077,-15.85579 2.8875,-1.63709 5.25,-3.58295 5.25,-4.32415 0,-0.7412 -2.43575,-4.21876 -5.41278,-7.72792 -2.97703,-3.50915 -6.07753,-7.97125 -6.89001,-9.91578 -0.84824,-2.03012 -3.41811,-4.92934 -6.03555,-6.80904 -2.50708,-1.80045 -4.98101,-4.48605 -5.49762,-5.96799 -0.56383,-1.61739 -4.08214,-5.01451 -8.80167,-8.49846 -4.3243,-3.19221 -8.76237,-6.84672 -9.86237,-8.12113 -1.98804,-2.30327 -19.7474,-13.97003 -26.56949,-17.45446 -1.96321,-1.00272 -5.42577,-3.31793 -7.69456,-5.1449 -2.26879,-1.82697 -7.08223,-5.11951 -10.69652,-7.31675 -5.33594,-3.24389 -7.60017,-5.50001 -12.04314,-12 -4.72731,-6.91598 -5.48781,-8.68524 -5.59007,-13.00502 -0.34064,-14.38886 6.48143,-27.48557 18.26507,-35.06445 12.56664,-8.08248 40.66471,-10.46721 64.72057,-5.49292 33.36604,6.89944 51.26246,11.1858 54.32794,13.01204 3.92223,2.33664 19.95215,4.2354 38.97221,4.61629 28.95397,0.57982 33.66334,1.32747 51.80799,8.22494 8.525,3.24067 18.425,7.72757 22,9.97089 21.57057,13.53558 23.0997,14.7178 31.31745,24.21248 11.5012,13.28834 13.90881,16.53415 18.18843,24.52073 2.06302,3.85 4.59317,8.55765 5.62254,10.46144 1.02937,1.90379 1.87158,4.20405 1.87158,5.11169 0,0.90763 1.45779,4.74998 3.23954,8.53855 l 3.23953,6.88832 -0.0755,19 c -0.1092,27.48511 -0.89633,31.3228 -9.3322,45.5 -2.12723,3.575 -4.78542,8.14743 -5.90708,10.16096 -2.58688,4.64378 -9.63867,11.823 -18.91431,19.25611 -7.5518,6.0517 -7.69959,6.3469 -7.30058,14.58293 0.2145,4.42775 4.66191,21.8606 5.91115,23.17044 0.74236,0.77837 13.59193,1.16334 30.40386,0.91091 14.30567,-0.21481 17.09345,0.74084 17.53613,6.01134 0.17648,2.10117 -0.25076,4.03606 -1.03491,4.68684 -1.26867,1.0529 -12.56887,1.61643 -26.76565,1.33478 -3.575,-0.0709 -12.35,0.24623 -19.5,0.70479 -7.15,0.45856 -17.275,0.47335 -22.5,0.0329 -5.225,-0.44048 -10.92232,-0.40974 -12.66071,0.0683 -1.94758,0.53559 -7.65299,0.38108 -14.86509,-0.40255 -10.46371,-1.13694 -31.53529,-0.67558 -34.20123,0.74884 -0.42513,0.22715 -2.34797,0.0473 -4.27297,-0.3997 z m 25,-12.43727 c 5.775,-0.34283 10.77154,-0.79054 11.10343,-0.9949 0.33188,-0.20436 0.0472,-2.52327 -0.63259,-5.15313 -1.18703,-4.5921 -1.36944,-4.77273 -4.60342,-4.55856 -1.85208,0.12266 -6.38125,-0.43984 -10.06483,-1.25 -3.68357,-0.81015 -8.63357,-1.47469 -11,-1.47675 -2.39067,-0.002 -5.63568,-0.81298 -7.30259,-1.82486 -1.65,-1.00162 -5.20812,-2.3742 -7.90694,-3.05018 -2.69882,-0.67598 -6.07382,-2.12768 -7.5,-3.226 C 348.39591,451.6572 346.15202,450 345.69474,450 c -0.28542,0 -0.83544,1.9125 -1.22227,4.25 -1.17658,7.10968 -3.85722,12.95505 -8.94653,19.50862 -2.66876,3.4366 -4.51624,6.58429 -4.10551,6.99487 0.41073,0.41058 8.47166,0.61911 17.91317,0.46339 9.44152,-0.15571 18.5164,0.15728 20.1664,0.69554 1.65,0.53826 6.15,0.79007 10,0.55958 3.85,-0.23048 11.725,-0.69957 17.5,-1.0424 z m 46.77308,-0.86935 c 0.31143,-0.31143 -0.18511,-4.06267 -1.10342,-8.33609 C 441.75135,467.95074 441,463.25364 441,461.78617 c 0,-1.46747 -0.39531,-2.91245 -0.87847,-3.21106 -0.48316,-0.29861 -4.98316,1.53674 -10,4.07855 -8.40146,4.25666 -9.12153,4.85526 -9.12153,7.58278 0,4.04153 2.8618,9.75889 5.40675,10.8017 2.18755,0.89637 16.3827,0.50574 17.36633,-0.47789 z M 292.6,462.6 c 4.10707,-4.10707 4.50555,-8.21276 1.10698,-11.40555 -3.39747,-3.19176 -8.08626,-4.59702 -10.68961,-3.20374 -2.51275,1.34478 -6.00833,6.75585 -6.01363,9.30895 -0.006,2.79216 2.7751,7.49787 4.73267,8.0084 4.89533,1.27669 7.53747,0.61806 10.86359,-2.70806 z m -6.15887,-1.0682 c -1.06762,-0.8075 -2.95363,-1.4825 -4.19113,-1.5 -2.94754,-0.0417 -3.03677,-3.76186 -0.17742,-7.39694 2.68982,-3.41956 5.38277,-3.33336 9.00434,0.28822 3.43765,3.43765 3.65557,5.34443 0.92308,8.07692 -2.38934,2.38934 -3.02286,2.44995 -5.55887,0.5318 z m 5.62579,-39.60343 c 3.6432,-3.90006 4.80475,-9.3077 2.53742,-11.81307 -0.89828,-0.9926 -3.40332,-2.3889 -5.56674,-3.10289 -9.78562,-3.22955 -15.90933,6.22271 -9.48671,14.6432 3.49114,4.57712 8.39531,4.68399 12.51603,0.27276 z M 286,420.07946 c 0,-0.5063 -1.31241,-1.2088 -2.91646,-1.56111 -3.3049,-0.72588 -4.52172,-2.83108 -3.13455,-5.42304 2.58018,-4.82111 7.6904,-5.72217 11.6035,-2.046 2.83863,2.66675 3.06435,4.62502 0.89081,7.72818 -1.52241,2.17354 -6.4433,3.16788 -6.4433,1.30197 z"
       style="fill:#d6d4ab" />
    <path
       id="path11079"
       d="m 273.76709,492.71767 c -1.16386,-0.43028 -7.47107,-0.8201 -14.01601,-0.86627 -11.4382,-0.0807 -11.94092,-0.17394 -12.95695,-2.4039 -1.66312,-3.65014 -0.3734,-5.44541 3.92449,-5.46281 6.76768,-0.0274 7.32268,-1.3408 2.61818,-6.19591 -4.93445,-5.09242 -9.92601,-15.68433 -11.39445,-24.17859 -2.17109,-12.55882 -2.17189,-12.99249 -0.0338,-18.39721 1.15032,-2.90786 2.09149,-6.31545 2.09149,-7.57242 0,-4.2954 6.23888,-14.04973 13.52152,-21.14056 3.95415,-3.85 7.88439,-8.35309 8.73387,-10.00687 2.59777,-5.05735 10.96838,-13.45597 16.24461,-16.29897 6.6632,-3.59034 6.80915,-5.51787 0.93155,-12.30274 -2.56877,-2.96528 -5.5424,-7.31436 -6.60808,-9.66463 -1.21601,-2.68181 -3.79423,-5.65931 -6.92301,-7.99517 -2.74198,-2.04708 -5.25022,-4.77698 -5.57385,-6.06646 -0.34907,-1.39079 -3.68774,-4.62755 -8.20752,-7.95698 -4.1905,-3.08687 -9.26622,-7.20902 -11.27937,-9.16033 -2.01316,-1.95132 -5.57693,-4.67285 -7.9195,-6.04785 -2.34256,-1.375 -6.44488,-3.97818 -9.11626,-5.78484 -2.67138,-1.80667 -5.85761,-3.6744 -7.08051,-4.15052 -1.2229,-0.47612 -4.20899,-2.37294 -6.63575,-4.21516 -2.42677,-1.84221 -8.01716,-5.60478 -12.42309,-8.36126 -6.85538,-4.28893 -8.77827,-6.15163 -13.33205,-12.91474 l -5.32127,-7.90296 0.43233,-7.58526 c 1.02406,-17.96731 9.62134,-29.38026 26.38628,-35.02796 12.96027,-4.366 39.0876,-5.21384 53.1701,-1.72539 3.575,0.88558 10.775,2.34759 16,3.2489 5.225,0.90131 11.975,2.29396 15,3.09477 3.025,0.80081 9.66675,2.53784 14.75944,3.86008 5.09269,1.32224 10.04548,2.82475 11.0062,3.33891 4.31539,2.30953 21.61168,4.35781 39.73436,4.70547 28.38808,0.54458 30.82742,0.83365 42,4.97714 5.5,2.03974 12.30114,4.50553 15.11364,5.47952 6.16291,2.13428 10.34802,4.25142 16.5396,8.36697 2.56204,1.70298 6.98003,4.44633 9.81776,6.09633 2.83773,1.65 6.89296,4.35 9.01163,6 3.87075,3.01451 16.95924,17.54523 22.51362,24.99442 5.05734,6.78258 11.74925,19.74772 14.97112,29.00558 0.95704,2.75 2.62107,7.42848 3.69784,10.39661 1.74352,4.80603 1.90838,7.32307 1.50648,23 -0.60545,23.61687 -1.66633,29.78662 -6.53589,38.01051 -2.14709,3.62608 -5.47132,9.29288 -7.38717,12.59288 -4.20868,7.24931 -9.66197,13.07552 -20.10436,21.47922 l -7.85573,6.32204 0.70697,8.48708 c 0.38883,4.66789 1.56141,10.97056 2.60573,14.00592 1.04432,3.03536 1.89876,6.33802 1.89876,7.33924 0,3.94928 4.02456,5.04044 17.69547,4.7977 7.04249,-0.12505 15.50453,-0.26544 18.80453,-0.31198 3.3,-0.0465 7.20751,0.24614 8.68335,0.6504 3.0464,0.83448 4.41629,3.83654 2.94789,6.4602 -0.886,1.58307 -2.9272,1.78782 -19.31098,1.93707 -10.07614,0.0918 -20.12026,0.40519 -22.32026,0.69645 -7.2117,0.95478 -19.85914,0.9129 -27.5,-0.0911 -5.89587,-0.77468 -8.23913,-0.68783 -10.95576,0.40608 -3.73264,1.50302 -13.65521,1.13539 -16.95015,-0.628 -2.2824,-1.22151 -9.54363,-1.40707 -22.09409,-0.5646 -5.225,0.35073 -10.175,0.5957 -11,0.54437 -0.825,-0.0513 -11.85,-0.26647 -24.5,-0.47808 -12.65,-0.21162 -25.28129,-0.66963 -28.06953,-1.01781 -3.54797,-0.44305 -6.54934,-0.12974 -10,1.0439 -3.74252,1.27292 -8.85983,1.70647 -21.23887,1.79941 -8.96962,0.0674 -17.26065,-0.2296 -18.42451,-0.65988 z m 121.573,-9.10578 c 13.07677,-0.40146 15.86049,-1.50007 13.75753,-5.42948 C 408.49393,477.0544 408,474.76047 408,473.08479 c 0,-2.41508 -0.51781,-3.17665 -2.49776,-3.67358 -1.37377,-0.3448 -3.22196,-0.349 -4.10709,-0.009 -0.88513,0.33966 -3.31693,0.15775 -5.404,-0.40424 -2.08707,-0.56199 -7.29091,-1.46508 -11.5641,-2.00687 -4.27319,-0.54179 -8.77562,-1.64435 -10.00541,-2.45013 -1.22978,-0.80579 -4.41525,-2.00922 -7.07881,-2.67429 -4.55287,-1.13682 -12.30091,-6.03842 -18.64016,-11.79222 -3.3203,-3.01366 -4.16096,-2.23046 -5.19658,4.84133 -1.20474,8.2267 -7.1549,18.54011 -13.99848,24.26358 -3.02886,2.53311 -0.72954,4.03621 6.14875,4.01953 3.214,-0.008 11.76364,-0.0569 18.99919,-0.10907 7.23555,-0.0522 14.21055,0.3516 15.5,0.89734 1.28945,0.54574 4.81945,0.76642 7.84445,0.4904 3.025,-0.27601 10.82804,-0.66542 17.34009,-0.86533 z m 46.30174,-1.1067 c 2.94865,-1.23203 3.48188,-1.89128 3.03316,-3.75 -0.29943,-1.24036 -1.34795,-6.64269 -2.33004,-12.00519 -0.98209,-5.3625 -2.27337,-9.75 -2.8695,-9.75 -0.59614,0 -3.08449,1.25617 -5.52967,2.79149 -2.44518,1.53533 -6.63656,3.61789 -9.31417,4.62793 l -4.86839,1.83642 0.60162,4.38932 c 1.24397,9.07572 5.44052,13.24022 13.41728,13.3148 2.35516,0.022 5.89203,-0.63263 7.85971,-1.45477 z M 292.66959,463.76998 c 5.9663,-5.41065 4.92979,-11.70638 -2.54841,-15.47904 -3.94435,-1.98988 -4.64897,-2.06937 -7.1015,-0.80112 C 279.21914,449.45516 277,453.25248 277,457.7905 c 0,7.9985 9.46183,11.60911 15.66959,5.97948 z M 286.5,461 c -0.33992,-0.55 -1.43638,-1 -2.43657,-1 -2.99448,0 -4.41465,-2.46894 -2.98312,-5.18608 0.6705,-1.27265 1.71423,-2.64453 2.31939,-3.04861 4.89913,-3.27123 12.5151,4.91989 8.4003,9.03469 -1.45789,1.45789 -4.45274,1.5709 -5.3,0.2 z m 2.97751,-36.17171 c 3.80227,-1.73242 6.70781,-7.02869 6.33472,-11.54701 -0.27821,-3.3693 -0.80293,-4.02505 -4.81595,-6.01868 -3.82359,-1.89951 -5.06767,-2.08167 -8.23823,-1.20624 -4.09398,1.1304 -5.45012,2.8818 -5.76373,7.44364 -0.36042,5.24256 -0.0578,6.22054 2.90689,9.39424 3.10462,3.32351 5.47575,3.80239 9.5763,1.93405 z M 286,419.54731 c -1.375,-0.76971 -3.2875,-1.64361 -4.25,-1.94201 -2.5823,-0.80056 -2.12675,-4.16379 0.88486,-6.53272 3.40662,-2.67965 5.5044,-2.6177 8.19083,0.24187 2.57796,2.74412 2.72007,4.46135 0.61761,7.46304 -1.81265,2.58791 -2.11827,2.63113 -5.4433,0.76982 z M 298,392.125 c 1.54472,-0.19309 1.19763,-1.3656 -1.34485,-4.54307 l -2.33491,-2.91807 -4.68425,3.5767 c -2.57634,1.96718 -4.22339,3.73031 -3.66012,3.91806 0.91797,0.30599 9.4992,0.282 12.02413,-0.0336 z"
       style="fill:#f8d65c" />
    <path
       id="path11077"
       d="m 410.12156,492.2929 c -4.25045,-1.47992 -10.07168,-1.68313 -23.12156,-0.80714 -5.225,0.35073 -10.175,0.59845 -11,0.55048 -3.42796,-0.19932 -52.88075,-1.36362 -57.27154,-1.34838 l -4.77154,0.0166 3.27154,-1.97887 c 1.79935,-1.08838 4.88772,-3.25319 6.86304,-4.81071 2.54017,-2.00287 3.90322,-2.52012 4.65636,-1.76698 0.58567,0.58567 3.6945,1.05848 6.9085,1.05069 3.214,-0.008 11.77407,-0.0567 19.02238,-0.1087 7.24831,-0.052 14.44729,0.38777 15.99773,0.97724 1.59595,0.60678 5.20618,0.80531 8.32126,0.4576 3.02625,-0.3378 10.60496,-0.76281 16.84158,-0.94446 12.55534,-0.36569 15.34384,-1.50097 13.25831,-5.39782 C 408.49393,477.0544 408,474.76047 408,473.08479 c 0,-2.41508 -0.51781,-3.17665 -2.49776,-3.67358 -1.37377,-0.3448 -3.22196,-0.349 -4.10709,-0.009 -0.88513,0.33966 -3.31693,0.15775 -5.404,-0.40424 -2.08707,-0.56199 -7.29091,-1.46508 -11.5641,-2.00687 -4.27319,-0.54179 -8.77562,-1.64435 -10.00541,-2.45013 -1.22978,-0.80579 -4.41525,-2.0131 -7.07881,-2.68291 -4.44626,-1.11811 -15.09369,-8.07107 -21.03128,-13.73379 -2.53884,-2.42132 -2.69636,-2.16467 -3.90313,6.35947 -0.96031,6.78319 -2.65456,10.50302 -7.963,17.48315 -5.57397,7.3293 -11.10803,12.15697 -19.04152,16.61099 L 309.3078,492 l -17.99886,0 -17.99887,0 -5.90503,-3.82662 c -12.97846,-8.41037 -20.78523,-19.72315 -23.8501,-34.5611 -1.95059,-9.44344 -1.96492,-14.38681 -0.0549,-18.95804 0.825,-1.9745 1.5,-4.80557 1.5,-6.29126 0,-5.52737 9.40598,-19.38056 16.22114,-23.89062 2.1793,-1.4422 3.71536,-2.86919 3.41346,-3.17109 -1.01195,-1.01196 3.10562,-7.75094 8.00854,-13.10711 2.67128,-2.91822 7.10686,-6.51822 9.85686,-8 6.6632,-3.59034 6.80915,-5.51787 0.93155,-12.30274 -2.56877,-2.96528 -5.5424,-7.31436 -6.60808,-9.66463 -1.21601,-2.68181 -3.79423,-5.65931 -6.92301,-7.99517 -2.74198,-2.04708 -5.25022,-4.77698 -5.57385,-6.06646 -0.34907,-1.39079 -3.68774,-4.62755 -8.20752,-7.95698 -4.1905,-3.08687 -9.26622,-7.20902 -11.27937,-9.16033 -2.01316,-1.95132 -5.57693,-4.67285 -7.9195,-6.04785 -2.34256,-1.375 -6.44488,-3.97818 -9.11626,-5.78484 -2.67138,-1.80667 -5.85761,-3.6744 -7.08051,-4.15052 -1.2229,-0.47612 -4.20899,-2.37294 -6.63575,-4.21516 -2.42677,-1.84221 -8.01716,-5.60478 -12.42309,-8.36126 -6.85538,-4.28893 -8.77827,-6.15163 -13.33205,-12.91474 l -5.32127,-7.90296 0.43233,-7.58526 c 1.02406,-17.96731 9.62134,-29.38026 26.38628,-35.02796 12.96027,-4.366 39.0876,-5.21384 53.1701,-1.72539 3.575,0.88558 10.775,2.34759 16,3.2489 5.225,0.90131 11.975,2.29396 15,3.09477 3.025,0.80081 9.66675,2.53784 14.75944,3.86008 5.09269,1.32224 10.04548,2.82475 11.0062,3.33891 4.31539,2.30953 21.61168,4.35781 39.73436,4.70547 28.38808,0.54458 30.82742,0.83365 42,4.97714 5.5,2.03974 12.30114,4.50553 15.11364,5.47952 6.16291,2.13428 10.34802,4.25142 16.5396,8.36697 2.56204,1.70298 6.98003,4.44633 9.81776,6.09633 2.83773,1.65 6.89296,4.35 9.01163,6 3.87075,3.01451 16.95924,17.54523 22.51362,24.99442 5.05734,6.78258 11.74925,19.74772 14.97112,29.00558 0.95704,2.75 2.62107,7.42848 3.69784,10.39661 1.74352,4.80603 1.90838,7.32307 1.50648,23 -0.60545,23.61687 -1.66633,29.78662 -6.53589,38.01051 -2.14709,3.62608 -5.47132,9.29288 -7.38717,12.59288 -4.20868,7.24931 -9.66197,13.07552 -20.10436,21.47922 l -7.85573,6.32204 0.70697,8.48708 c 0.38883,4.66789 1.56141,10.97056 2.60573,14.00592 1.04432,3.03536 1.89876,6.33802 1.89876,7.33924 0,3.94928 4.02456,5.04044 17.69547,4.7977 7.04249,-0.12505 15.50453,-0.26544 18.80453,-0.31198 3.3,-0.0465 7.20751,0.24614 8.68335,0.6504 3.0464,0.83448 4.41629,3.83654 2.94789,6.4602 -0.886,1.58307 -2.9272,1.78782 -19.31098,1.93707 -10.07614,0.0918 -20.12026,0.40519 -22.32026,0.69645 -7.2117,0.95478 -19.85914,0.9129 -27.5,-0.0911 -5.79069,-0.76086 -8.25522,-0.68184 -10.81371,0.34673 -3.92384,1.57746 -11.01069,1.4336 -16.06473,-0.32611 z m 31.52027,-9.78771 c 2.94865,-1.23203 3.48188,-1.89128 3.03316,-3.75 -0.29943,-1.24036 -1.34795,-6.64269 -2.33004,-12.00519 -0.98209,-5.3625 -2.27337,-9.75 -2.8695,-9.75 -0.59614,0 -3.08449,1.25617 -5.52967,2.79149 -2.44518,1.53533 -6.63656,3.61789 -9.31417,4.62793 l -4.86839,1.83642 0.60162,4.38932 c 1.24397,9.07572 5.44052,13.24022 13.41728,13.3148 2.35516,0.022 5.89203,-0.63263 7.85971,-1.45477 z M 290.60078,466.9847 C 294.45692,465.63428 298,460.28069 298,455.80448 c 0,-2.88117 -0.75201,-4.25115 -3.88946,-7.08564 -4.69789,-4.24427 -7.01858,-5.0845 -10.44506,-3.78176 C 280.4968,446.14181 275,453.47707 275,456.50082 c 0,8.68374 7.10569,13.45884 15.60078,10.48388 z M 286.5,461 c -0.33992,-0.55 -1.43638,-1 -2.43657,-1 -2.99448,0 -4.41465,-2.46894 -2.98312,-5.18608 0.6705,-1.27265 1.71423,-2.64453 2.31939,-3.04861 4.89913,-3.27123 12.5151,4.91989 8.4003,9.03469 -1.45789,1.45789 -4.45274,1.5709 -5.3,0.2 z m 2.51818,-34.62395 c 4.07724,-1.63139 6.32466,-4.59787 8.05545,-10.63278 1.21514,-4.23694 -0.62349,-7.19056 -6.06171,-9.73769 -4.13555,-1.93699 -5.24806,-2.08275 -8.27404,-1.08409 -4.77688,1.57651 -6.88823,4.2107 -7.44445,9.28793 -0.53521,4.88554 2.38526,10.30947 6.73659,12.51127 3.02863,1.53251 2.19381,1.57368 6.98816,-0.34464 z M 286,419.54731 c -1.375,-0.76971 -3.2875,-1.64361 -4.25,-1.94201 -2.5823,-0.80056 -2.12675,-4.16379 0.88486,-6.53272 3.40662,-2.67965 5.5044,-2.6177 8.19083,0.24187 2.57796,2.74412 2.72007,4.46135 0.61761,7.46304 -1.81265,2.58791 -2.11827,2.63113 -5.4433,0.76982 z M 298.99503,392.25 c -0.003,-0.9625 -1.04912,-3.05491 -2.32531,-4.64981 l -2.32035,-2.8998 -5.17469,3.86326 c -2.84607,2.12479 -5.17468,4.21721 -5.17468,4.6498 0,0.4326 3.375,0.78655 7.5,0.78655 6.47808,0 7.49932,-0.23845 7.49503,-1.75 z m -52.19967,97.20022 c -1.66432,-3.65279 -0.3756,-5.44812 3.92326,-5.46553 2.07976,-0.008 4.45183,-0.4392 5.27126,-0.95727 1.06851,-0.67555 2.1998,-0.28722 4,1.37305 1.38057,1.27325 4.52299,3.48676 6.98316,4.91891 l 4.47305,2.6039 -11.79622,-0.0752 c -11.33774,-0.0723 -11.83735,-0.16547 -12.85451,-2.39787 z"
       style="fill:#fcd82b" />
    <path
       id="path11075"
       d="m 410.12156,492.2929 c -4.25045,-1.47992 -10.07168,-1.68313 -23.12156,-0.80714 -5.225,0.35073 -10.175,0.59845 -11,0.55048 -3.42796,-0.19932 -52.88075,-1.36362 -57.27154,-1.34838 l -4.77154,0.0166 3.27154,-1.97887 c 1.79935,-1.08838 4.88772,-3.25319 6.86304,-4.81071 2.54017,-2.00287 3.90322,-2.52012 4.65636,-1.76698 0.58567,0.58567 3.6945,1.05848 6.9085,1.05069 3.214,-0.008 11.77407,-0.0567 19.02238,-0.1087 7.24831,-0.052 14.44729,0.38777 15.99773,0.97724 1.59595,0.60678 5.20618,0.80531 8.32126,0.4576 3.02625,-0.3378 10.60496,-0.76281 16.84158,-0.94446 12.55534,-0.36569 15.34384,-1.50097 13.25831,-5.39782 C 408.49393,477.0544 408,474.76047 408,473.08479 c 0,-2.41508 -0.51781,-3.17665 -2.49776,-3.67358 -1.37377,-0.3448 -3.22196,-0.349 -4.10709,-0.009 -0.88513,0.33966 -3.31693,0.15775 -5.404,-0.40424 -2.08707,-0.56199 -7.29091,-1.46508 -11.5641,-2.00687 -4.27319,-0.54179 -8.77562,-1.64435 -10.00541,-2.45013 -1.22978,-0.80579 -4.41525,-2.0131 -7.07881,-2.68291 -4.45208,-1.11957 -15.09272,-8.07088 -21.05102,-13.75218 C 345.07731,446.94749 343.88068,446 343.63263,446 c -0.24805,0 -1.01359,3.2625 -1.70121,7.25 -1.42094,8.24003 -2.69164,11.15391 -7.99624,18.33639 -4.98316,6.74725 -11.80119,12.63629 -19.30313,16.67296 L 308.5,491.55892 290.694,491.4329 c -16.02256,-0.11339 -18.0695,-0.32275 -20.43694,-2.0903 -3.7483,-2.79851 -4.17648,-4.64266 -0.77794,-3.35054 3.78272,1.43819 14.01582,1.24555 17.803,-0.33514 1.76983,-0.73869 4.85793,-1.65018 6.86244,-2.02553 3.44814,-0.64567 9.85544,-6.43062 9.85544,-8.89816 0,-0.51948 1.09004,-2.23996 2.42232,-3.82328 6.31405,-7.50383 8.54278,-22.28939 4.35778,-28.90995 -2.17757,-3.44484 -2.21842,-3.4606 -2.59208,-1 -0.77431,5.09882 -5.12754,6.85005 -7.23575,2.91082 -1.27672,-2.38558 -1.55146,-10.90623 -0.50525,-15.66961 0.62126,-2.82858 0.38876,-3.35891 -1.93722,-4.4187 -2.05806,-0.93771 -2.49084,-1.66017 -1.95494,-3.26342 1.44613,-4.32635 1.64166,-10.61737 0.37734,-12.14078 C 295.11193,406.22501 289.31699,404 285.42493,404 c -6.53009,0 -10.00613,3.04751 -10.63966,9.32801 -0.25033,2.48163 -1.00258,3.06929 -6.14161,4.7979 -10.14365,3.41199 -20.97055,13.2745 -23.72083,21.6079 -0.75823,2.29746 -1.47243,3.11659 -2.13751,2.45151 -0.66507,-0.66507 -0.29488,-2.88022 1.10794,-6.62957 1.15871,-3.09693 2.10674,-6.52673 2.10674,-7.62178 0,-5.22118 9.34145,-18.82452 15.77301,-22.96918 1.25015,-0.80564 2.45334,-2.43328 2.67375,-3.617 1.16124,-6.23656 10.34925,-17.00248 18.05324,-21.15363 6.6632,-3.59034 6.80915,-5.51787 0.93155,-12.30274 -2.56877,-2.96528 -5.5424,-7.31436 -6.60808,-9.66463 -1.21601,-2.68181 -3.79423,-5.65931 -6.92301,-7.99517 -2.74198,-2.04708 -5.25022,-4.77698 -5.57385,-6.06646 -0.34907,-1.39079 -3.68774,-4.62755 -8.20752,-7.95698 -4.1905,-3.08687 -9.26622,-7.20902 -11.27937,-9.16033 -2.01316,-1.95132 -5.57693,-4.67285 -7.9195,-6.04785 -2.34256,-1.375 -6.44488,-3.97818 -9.11626,-5.78484 -2.67138,-1.80667 -5.85761,-3.6744 -7.08051,-4.15052 -1.2229,-0.47612 -4.20899,-2.37294 -6.63575,-4.21516 -2.42677,-1.84221 -8.01716,-5.60478 -12.42309,-8.36126 -6.85538,-4.28893 -8.77827,-6.15163 -13.33205,-12.91474 l -5.32127,-7.90296 0.43233,-7.58526 c 1.02406,-17.96731 9.62134,-29.38026 26.38628,-35.02796 12.96027,-4.366 39.0876,-5.21384 53.1701,-1.72539 3.575,0.88558 10.775,2.34759 16,3.2489 5.225,0.90131 11.975,2.29396 15,3.09477 3.025,0.80081 9.66675,2.53784 14.75944,3.86008 5.09269,1.32224 10.04548,2.82475 11.0062,3.33891 4.31539,2.30953 21.61168,4.35781 39.73436,4.70547 28.38808,0.54458 30.82742,0.83365 42,4.97714 5.5,2.03974 12.30114,4.50553 15.11364,5.47952 6.16291,2.13428 10.34802,4.25142 16.5396,8.36697 2.56204,1.70298 6.98003,4.44633 9.81776,6.09633 2.83773,1.65 6.89296,4.35 9.01163,6 3.87075,3.01451 16.95924,17.54523 22.51362,24.99442 5.05734,6.78258 11.74925,19.74772 14.97112,29.00558 0.95704,2.75 2.62107,7.42848 3.69784,10.39661 1.74352,4.80603 1.90838,7.32307 1.50648,23 -0.60545,23.61687 -1.66633,29.78662 -6.53589,38.01051 -2.14709,3.62608 -5.47132,9.29288 -7.38717,12.59288 -4.20868,7.24931 -9.66197,13.07552 -20.10436,21.47922 l -7.85573,6.32204 0.70697,8.48708 c 0.38883,4.66789 1.56141,10.97056 2.60573,14.00592 1.04432,3.03536 1.89876,6.33802 1.89876,7.33924 0,3.94928 4.02456,5.04044 17.69547,4.7977 7.04249,-0.12505 15.50453,-0.26544 18.80453,-0.31198 3.3,-0.0465 7.20751,0.24614 8.68335,0.6504 3.0464,0.83448 4.41629,3.83654 2.94789,6.4602 -0.886,1.58307 -2.9272,1.78782 -19.31098,1.93707 -10.07614,0.0918 -20.12026,0.40519 -22.32026,0.69645 -7.2117,0.95478 -19.85914,0.9129 -27.5,-0.0911 -5.79069,-0.76086 -8.25522,-0.68184 -10.81371,0.34673 -3.92384,1.57746 -11.01069,1.4336 -16.06473,-0.32611 z m 31.52027,-9.78771 c 2.94865,-1.23203 3.48188,-1.89128 3.03316,-3.75 -0.29943,-1.24036 -1.34795,-6.64269 -2.33004,-12.00519 -0.98209,-5.3625 -2.27337,-9.75 -2.8695,-9.75 -0.59614,0 -3.08449,1.25617 -5.52967,2.79149 -2.44518,1.53533 -6.63656,3.61789 -9.31417,4.62793 l -4.86839,1.83642 0.60162,4.38932 c 1.24397,9.07572 5.44052,13.24022 13.41728,13.3148 2.35516,0.022 5.89203,-0.63263 7.85971,-1.45477 z M 301.62081,393.71252 C 302.0127,393.32064 301.58333,393 300.66667,393 c -0.91667,0 -1.66891,-0.5625 -1.67164,-1.25 -0.003,-0.6875 -1.04386,-2.54831 -2.31362,-4.13514 l -2.30865,-2.88513 -6.19463,4.56022 c -4.56302,3.35911 -5.73152,4.66569 -4.43638,4.96065 2.89193,0.6586 17.11029,0.2307 17.87906,-0.53808 z m -54.82545,95.7377 c -1.66432,-3.65279 -0.3756,-5.44812 3.92326,-5.46553 2.07976,-0.008 4.45183,-0.4392 5.27126,-0.95727 1.06851,-0.67555 2.1998,-0.28722 4,1.37305 1.38057,1.27325 4.52299,3.48676 6.98316,4.91891 l 4.47305,2.6039 -11.79622,-0.0752 c -11.33774,-0.0723 -11.83735,-0.16547 -12.85451,-2.39787 z M 286.5,461 c -0.33992,-0.55 -1.43638,-1 -2.43657,-1 -2.99448,0 -4.41465,-2.46894 -2.98312,-5.18608 0.6705,-1.27265 1.71423,-2.64453 2.31939,-3.04861 4.89913,-3.27123 12.5151,4.91989 8.4003,9.03469 -1.45789,1.45789 -4.45274,1.5709 -5.3,0.2 z M 286,419.54731 c -1.375,-0.76971 -3.2875,-1.64361 -4.25,-1.94201 -2.5823,-0.80056 -2.12675,-4.16379 0.88486,-6.53272 3.40662,-2.67965 5.5044,-2.6177 8.19083,0.24187 2.57796,2.74412 2.72007,4.46135 0.61761,7.46304 -1.81265,2.58791 -2.11827,2.63113 -5.4433,0.76982 z"
       style="fill:#b2b093" />
    <path
       id="path11073"
       d="M 411.31537,491.99302 C 409.23162,491.15346 407,488.1674 407,486.21875 c 0,-0.502 0.83814,-1.87911 1.86253,-3.06025 1.58323,-1.82548 1.71476,-2.78568 0.87708,-6.40301 -2.02081,-8.72638 -1.79109,-8.52751 -9.91755,-8.58572 -4.02713,-0.0289 -8.89409,-0.52885 -10.81546,-1.11111 C 387.08523,466.4764 383.80039,466 381.70694,466 c -2.09344,0 -5.24641,-0.7451 -7.0066,-1.65577 -1.76019,-0.91068 -5.34373,-2.2215 -7.96343,-2.91294 -2.61969,-0.69145 -6.21969,-2.44225 -8,-3.89069 -1.7803,-1.44844 -5.68501,-4.63762 -8.67714,-7.08706 C 347.06764,448.00409 344.29601,446 343.90059,446 c -0.39543,0 -1.28155,3.2625 -1.96917,7.25 -1.42094,8.24003 -2.69164,11.15391 -7.99624,18.33639 -4.98316,6.74725 -11.80119,12.63629 -19.30313,16.67296 L 308.5,491.55892 290.694,491.4329 c -16.02256,-0.11339 -18.0695,-0.32275 -20.43694,-2.0903 -3.7483,-2.79851 -4.17648,-4.64266 -0.77794,-3.35054 3.78272,1.43819 14.01582,1.24555 17.803,-0.33514 1.76983,-0.73869 4.85793,-1.65018 6.86244,-2.02553 3.44814,-0.64567 9.85544,-6.43062 9.85544,-8.89816 0,-0.51948 1.09004,-2.23996 2.42232,-3.82328 6.31405,-7.50383 8.54278,-22.28939 4.35778,-28.90995 -2.17757,-3.44484 -2.21842,-3.4606 -2.59208,-1 -0.77431,5.09882 -5.12754,6.85005 -7.23575,2.91082 -1.27672,-2.38558 -1.55146,-10.90623 -0.50525,-15.66961 0.62126,-2.82858 0.38876,-3.35891 -1.93722,-4.4187 -2.05806,-0.93771 -2.49084,-1.66017 -1.95494,-3.26342 1.44613,-4.32635 1.64166,-10.61737 0.37734,-12.14078 C 295.11193,406.22501 289.31699,404 285.42493,404 c -6.53009,0 -10.00613,3.04751 -10.63966,9.32801 -0.25033,2.48163 -1.00258,3.06929 -6.14161,4.7979 -10.14365,3.41199 -20.97055,13.2745 -23.72083,21.6079 -0.75823,2.29746 -1.47243,3.11659 -2.13751,2.45151 -0.66507,-0.66507 -0.29488,-2.88022 1.10794,-6.62957 1.15871,-3.09693 2.10674,-6.52885 2.10674,-7.62651 0,-5.01052 9.41273,-19.20662 14.56231,-21.96259 1.44455,-0.77309 3.77219,-3.66936 5.17254,-6.43614 3.56132,-7.03637 10.8831,-15.30075 15.69969,-17.72084 8.85168,-4.44753 9.03432,-5.80684 1.94896,-14.50574 -2.40953,-2.95826 -5.27757,-7.13612 -6.3734,-9.28414 -1.09584,-2.14801 -4.06465,-5.6187 -6.59736,-7.71263 -2.53271,-2.09394 -4.99614,-4.80805 -5.47428,-6.03137 -0.47814,-1.22331 -3.6891,-4.37331 -7.13546,-7 -3.44637,-2.62668 -8.52442,-6.83184 -11.28456,-9.34478 -4.86798,-4.43202 -20.22205,-14.54815 -27.69708,-18.24842 -2.02326,-1.00154 -4.9403,-2.99025 -6.48233,-4.41935 -1.54202,-1.4291 -5.36978,-4.10231 -8.50613,-5.94048 -8.18901,-4.79944 -11.03316,-7.45583 -15.77447,-14.73308 -3.63206,-5.5747 -4.22374,-7.24719 -4.34148,-12.272 -0.0867,-3.6995 0.72995,-8.54387 2.24294,-13.3053 1.95229,-6.14391 3.29097,-8.39518 7.45968,-12.54493 6.25151,-6.22307 9.16513,-8.09242 16.41698,-10.53295 11.90011,-4.00485 42.10522,-5.13353 52.16345,-1.9492 1.925,0.60944 7.325,1.73785 12,2.50759 10.42222,1.71602 20.96641,4.02961 26.97891,5.91967 2.4866,0.78168 6.99609,1.96901 10.02109,2.63853 3.025,0.66951 6.625,1.77321 8,2.45268 6.8405,3.38026 30.377,5.33825 66.5,5.5321 5.28884,0.0284 35.75722,11.07449 43.12073,15.63313 6.61388,4.09456 12.37691,7.54863 16.37927,9.8169 7.95768,4.50988 30.41968,29.56628 34.20106,38.15134 0.69351,1.57452 2.51807,4.88084 4.05457,7.34738 1.5365,2.46655 3.27579,6.29155 3.86508,8.5 0.58929,2.20846 2.18149,6.45304 3.53821,9.4324 1.41261,3.10211 2.81646,8.65751 3.28508,13 1.11163,10.30087 0.63425,27.80085 -0.88386,32.40077 -0.68336,2.07058 -0.9736,4.46533 -0.645,5.32167 0.79795,2.07941 -1.88656,9.79858 -5.34195,15.36054 -1.53761,2.475 -4.28417,7.2 -6.10349,10.5 -4.19375,7.60693 -9.35348,13.30719 -19.45603,21.49422 -4.40752,3.57182 -8.37218,6.94682 -8.81036,7.5 -1.36131,1.7186 0.3285,16.25961 2.88028,24.78505 1.42078,4.74679 3.46965,9.21064 4.92471,10.72939 2.82835,2.95217 3.21215,6.14853 0.96246,8.01561 -1.89093,1.56933 -14.57374,2.26727 -17.94041,0.98727 -1.44198,-0.54824 -2.7563,-2.06363 -3.14988,-3.63176 -0.66612,-2.65403 0.1602,-3.81377 4.49439,-6.30787 1.14744,-0.6603 1.02338,-2.43281 -0.75,-10.71555 C 442.95619,465.89794 442,460.20978 442,458.71598 c 0,-3.64241 -2.30114,-3.54504 -8.45521,0.35775 -2.66572,1.69055 -6.91632,3.85375 -9.44578,4.80712 l -4.59901,1.73339 0.24684,4.73642 c 0.27939,5.36119 2.37711,10.08529 5.28462,11.90106 2.72544,1.70207 2.74859,8.26044 0.0343,9.7131 -2.31989,1.24157 -10.69621,1.25875 -13.75037,0.0282 z M 301.62081,393.71252 C 302.0127,393.32064 301.58333,393 300.66667,393 299.724,393 299,392.21247 299,391.18709 c 0,-0.9971 -1.24595,-3.0066 -2.76878,-4.46556 l -2.76877,-2.65266 -5.86749,4.65468 c -4.96951,3.94231 -5.57881,4.75873 -3.98122,5.33452 2.42327,0.87339 17.06919,0.59234 18.00707,-0.34555 z m -16.32232,65.89402 c -4.47551,-1.6443 -4.79453,-2.20054 -2.9109,-5.07533 3.02602,-4.61829 10.22247,-1.85479 9.44277,3.62611 -0.38493,2.70588 -2.08489,3.08305 -6.53187,1.44922 z M 284.75,417.77953 c -4.16893,-2.16145 -4.64025,-3.66389 -1.92126,-6.12454 4.11629,-3.72519 10.40082,-0.0411 8.60365,5.04358 -1.1796,3.33742 -2.05658,3.47928 -6.68239,1.08096 z"
       style="fill:#fcb502" />
    <path
       id="path11071"
       d="M 411.31537,491.99302 C 409.23162,491.15346 407,488.1674 407,486.21875 c 0,-0.502 0.83814,-1.87911 1.86253,-3.06025 1.58323,-1.82548 1.71476,-2.78568 0.87708,-6.40301 -2.02081,-8.72638 -1.79109,-8.52751 -9.91755,-8.58572 -4.02713,-0.0289 -8.89409,-0.52885 -10.81546,-1.11111 C 387.08523,466.4764 383.80481,466 381.71676,466 c -2.08804,0 -5.48694,-0.86243 -7.55311,-1.91651 -2.06617,-1.05408 -5.44564,-2.23337 -7.50993,-2.62063 -2.06429,-0.38726 -5.52232,-2.11233 -7.68451,-3.83349 C 344.06454,445.76491 344,445.69914 344,442.37506 344,437.1642 340.99794,426.96605 337.79155,421.28464 336.15119,418.37809 334.47178,416 334.05953,416 c -0.41226,0 -1.54096,0.87449 -2.50823,1.94332 -2.27475,2.51357 -7.18467,3.60584 -9.09226,2.02269 -2.32889,-1.93281 -1.7015,-5.49494 1.58803,-9.0164 1.67589,-1.79404 2.81466,-3.86755 2.53061,-4.60778 C 325.90803,404.59677 314.16279,397 312.13441,397 308.7899,397 299,392.48473 299,390.94218 c 0,-0.8624 -1.25383,-2.76924 -2.78629,-4.23743 l -2.78629,-2.66944 -6.13947,4.96767 c -3.37671,2.73222 -8.48475,5.8921 -11.35121,7.02196 -2.86646,1.12985 -6.15,2.71145 -7.29675,3.51467 -3.24393,2.27213 -3.83805,1.74541 -2.01862,-1.78961 2.83047,-5.49941 10.53601,-13.79128 14.81317,-15.94033 8.85168,-4.44753 9.03432,-5.80684 1.94896,-14.50574 -2.40953,-2.95826 -5.27757,-7.13612 -6.3734,-9.28414 -1.09584,-2.14801 -4.06465,-5.6187 -6.59736,-7.71263 -2.53271,-2.09394 -4.99614,-4.80805 -5.47428,-6.03137 -0.47814,-1.22331 -3.6891,-4.37331 -7.13546,-7 -3.44637,-2.62668 -8.52442,-6.83184 -11.28456,-9.34478 -4.86798,-4.43202 -20.22205,-14.54815 -27.69708,-18.24842 -2.02326,-1.00154 -4.9403,-2.99025 -6.48233,-4.41935 -1.54202,-1.4291 -5.36978,-4.10231 -8.50613,-5.94048 -8.18901,-4.79944 -11.03316,-7.45583 -15.77447,-14.73308 -3.63206,-5.5747 -4.22374,-7.24719 -4.34148,-12.272 -0.0867,-3.6995 0.72995,-8.54387 2.24294,-13.3053 1.95229,-6.14391 3.29097,-8.39518 7.45968,-12.54493 6.25151,-6.22307 9.16513,-8.09242 16.41698,-10.53295 11.90011,-4.00485 42.10522,-5.13353 52.16345,-1.9492 1.925,0.60944 7.325,1.73785 12,2.50759 10.42222,1.71602 20.96641,4.02961 26.97891,5.91967 2.4866,0.78168 6.99609,1.96901 10.02109,2.63853 3.025,0.66951 6.625,1.77321 8,2.45268 6.8405,3.38026 30.377,5.33825 66.5,5.5321 5.28884,0.0284 35.75722,11.07449 43.12073,15.63313 6.61388,4.09456 12.37691,7.54863 16.37927,9.8169 7.95768,4.50988 30.41968,29.56628 34.20106,38.15134 0.69351,1.57452 2.51807,4.88084 4.05457,7.34738 1.5365,2.46655 3.27579,6.29155 3.86508,8.5 0.58929,2.20846 2.18149,6.45304 3.53821,9.4324 1.41261,3.10211 2.81646,8.65751 3.28508,13 1.11163,10.30087 0.63425,27.80085 -0.88386,32.40077 -0.68336,2.07058 -0.9736,4.46533 -0.645,5.32167 0.79795,2.07941 -1.88656,9.79858 -5.34195,15.36054 -1.53761,2.475 -4.28417,7.2 -6.10349,10.5 -4.19375,7.60693 -9.35348,13.30719 -19.45603,21.49422 -4.40752,3.57182 -8.37218,6.94682 -8.81036,7.5 -1.36131,1.7186 0.3285,16.25961 2.88028,24.78505 1.42078,4.74679 3.46965,9.21064 4.92471,10.72939 2.82835,2.95217 3.21215,6.14853 0.96246,8.01561 -1.89093,1.56933 -14.57374,2.26727 -17.94041,0.98727 -1.44198,-0.54824 -2.7563,-2.06363 -3.14988,-3.63176 -0.66612,-2.65403 0.1602,-3.81377 4.49439,-6.30787 1.14744,-0.6603 1.02338,-2.43281 -0.75,-10.71555 C 442.95619,465.89794 442,460.20978 442,458.71598 c 0,-3.64241 -2.30114,-3.54504 -8.45521,0.35775 -2.66572,1.69055 -6.91632,3.85375 -9.44578,4.80712 l -4.59901,1.73339 0.24684,4.73642 c 0.27939,5.36119 2.37711,10.08529 5.28462,11.90106 2.72544,1.70207 2.74859,8.26044 0.0343,9.7131 -2.31989,1.24157 -10.69621,1.25875 -13.75037,0.0282 z M 285.29849,459.60654 c -4.47551,-1.6443 -4.79453,-2.20054 -2.9109,-5.07533 3.02602,-4.61829 10.22247,-1.85479 9.44277,3.62611 -0.38493,2.70588 -2.08489,3.08305 -6.53187,1.44922 z m 15.6252,-15.74913 c -1.5006,-2.80389 -1.41156,-14.56463 0.12427,-16.4152 1.67698,-2.02064 5.70756,-1.82434 6.31969,0.30779 0.96509,3.36155 0.60413,15.57908 -0.49958,16.90896 -1.67295,2.01579 -4.65154,1.61414 -5.94438,-0.80155 z M 284.75,417.77953 c -4.16893,-2.16145 -4.64025,-3.66389 -1.92126,-6.12454 4.11629,-3.72519 10.40082,-0.0411 8.60365,5.04358 -1.1796,3.33742 -2.05658,3.47928 -6.68239,1.08096 z"
       style="fill:#97d04b" />
    <path
       id="path11069"
       d="M 411.31537,491.99302 C 409.23162,491.15346 407,488.1674 407,486.21875 c 0,-0.502 0.83814,-1.87911 1.86253,-3.06025 1.58323,-1.82548 1.71476,-2.78568 0.87708,-6.40301 -1.84719,-7.97663 -2.05815,-8.21612 -8.36531,-9.49647 -3.23087,-0.65587 -8.93024,-1.49648 -12.66527,-1.86804 -7.26093,-0.72232 -9.46064,-2.4475 -8.19704,-6.42875 0.74545,-2.34871 1.80576,-2.48922 3.48801,-0.46223 1.38001,1.6628 5,2.05028 5,0.53518 0,-1.20854 3.96774,-3.40078 4.74618,-2.62233 0.31619,0.31619 -0.23445,1.46921 -1.22366,2.56226 -1.49558,1.6526 -1.58029,2.25035 -0.50291,3.54851 0.76119,0.91719 1.66434,1.19243 2.18949,0.66728 1.39683,-1.39683 5.69856,-0.16082 7.27539,2.09041 1.49294,2.13149 2.13897,1.92427 6.33301,-2.03131 0.72895,-0.6875 2.41821,-1.25 3.75393,-1.25 1.56392,0 2.42857,-0.57214 2.42857,-1.60699 0,-1.08039 0.53892,-1.40018 1.64462,-0.97589 2.20203,0.845 5.35538,-2.14155 5.35538,-5.07211 0,-2.58676 2.71145,-3.23356 4.8,-1.14501 0.93333,0.93333 1.20739,0.76667 1.23327,-0.75 0.0417,-2.44589 3.30373,-6.45 5.25458,-6.45 1.87074,0 4.07256,-2.60783 3.28193,-3.8871 -0.33132,-0.53609 -0.13072,-1.26622 0.44579,-1.62252 1.82932,-1.13059 4.81438,-8.80473 5.48633,-14.10455 0.53059,-4.18484 0.35435,-5.22702 -0.96987,-5.73516 -1.24496,-0.47774 -1.38507,-1.05675 -0.60736,-2.50992 1.3273,-2.48008 0.16395,-12.41076 -1.57451,-13.44044 -0.78737,-0.46635 -1.35702,-2.55053 -1.36661,-5 -0.0104,-2.66195 -0.90699,-5.66531 -2.44795,-8.20031 -1.33733,-2.2 -3.39537,-5.8 -4.57342,-8 -1.17805,-2.2 -4.01398,-5.83372 -6.30205,-8.07494 -2.28807,-2.24122 -6.63513,-7.14891 -9.66013,-10.90598 -6.30991,-7.83695 -23.5257,-22.76306 -25.74166,-22.31805 -0.8366,0.16801 -2.27761,2.85215 -3.28962,6.1275 -0.99049,3.20569 -2.45938,6.58069 -3.26421,7.5 -2.00457,2.28969 -4.89529,8.12643 -4.51525,9.11685 0.17091,0.44538 4.27447,5.02738 9.11903,10.18221 11.03757,11.74446 15.16813,20.24993 16.55661,34.09264 0.49461,4.93104 0.6768,9.93623 0.40487,11.12265 C 402.3897,424.18258 398.85198,431 397.73953,431 c -0.59512,0 -1.9105,0.74974 -2.92305,1.66608 -1.26772,1.14727 -4.25049,1.80302 -9.57874,2.10582 -7.82431,0.44466 -8.21541,0.35653 -22.76571,-5.13011 -3.46195,-1.30544 -11.91955,-8.14907 -17.78587,-14.39179 -2.19657,-2.3375 -4.36664,-4.25 -4.8224,-4.25 -0.45575,0 -2.91758,2.00155 -5.47072,4.44789 -4.98484,4.77632 -9.54339,6.50215 -11.934,4.51812 -3.29773,-2.73687 -1.44335,-6.35177 8.79096,-17.13695 3.32436,-3.50329 3.34107,-4.22062 0.21727,-9.32906 -1.34529,-2.2 -2.93705,-5.125 -3.53724,-6.5 -1.08196,-2.47869 -0.75971,-11.69212 0.61208,-17.5 1.1014,-4.66309 7.17334,-10.33802 12.87195,-12.03032 5.78887,-1.71911 16.25084,-1.92778 20.2585,-0.40407 2.43054,0.92409 3.05076,0.75935 4.67011,-1.24046 2.83346,-3.49918 6.80831,-11.759 8.21772,-17.07663 l 1.25937,-4.75148 -3.63296,-2.99459 c -1.99812,-1.64702 -5.22007,-3.49868 -7.15988,-4.11479 -1.9398,-0.61611 -7.80192,-3.31489 -13.02692,-5.99728 -12.38946,-6.36048 -38.3166,-18.73573 -48.66764,-23.22949 -4.4922,-1.95023 -10.3422,-5.09301 -13,-6.98395 C 287.67456,288.786 282.125,285.77291 278,283.9812 c -4.125,-1.79172 -9.75,-4.66974 -12.5,-6.3956 -6.17075,-3.87267 -23.93456,-12.19586 -28,-13.11933 -1.65,-0.3748 -6.99769,-2.024 -11.88375,-3.66487 -4.88606,-1.64088 -9.94803,-2.77997 -11.24882,-2.53131 -1.30079,0.24867 -3.15311,-0.14607 -4.11625,-0.87718 -2.22245,-1.68704 -8.12715,-1.75355 -13.26693,-0.14943 C 193.01523,258.4822 191.64735,260 194.5,260 c 0.82852,0 1.5,0.88677 1.5,1.98095 0,2.86814 -4.85089,3.94346 -6.65559,1.47538 C 188.06817,261.71097 188,261.72885 188,263.80887 c 0,2.77718 -1.59195,2.85953 -2.3085,0.11942 -1.07724,-4.11935 2.82292,-12.84354 7.95429,-17.79283 6.16812,-5.94925 9.16189,-7.83547 16.19076,-10.20096 11.90011,-4.00485 42.10522,-5.13353 52.16345,-1.9492 1.925,0.60944 7.325,1.73785 12,2.50759 10.42222,1.71602 20.96641,4.02961 26.97891,5.91967 2.4866,0.78168 6.99609,1.96901 10.02109,2.63853 3.025,0.66951 6.625,1.77321 8,2.45268 6.8405,3.38026 30.377,5.33825 66.5,5.5321 5.28884,0.0284 35.75722,11.07449 43.12073,15.63313 6.61388,4.09456 12.37691,7.54863 16.37927,9.8169 7.95768,4.50988 30.41968,29.56628 34.20106,38.15134 0.69351,1.57452 2.51807,4.88084 4.05457,7.34738 1.5365,2.46655 3.27579,6.29155 3.86508,8.5 0.58929,2.20846 2.18149,6.45304 3.53821,9.4324 1.41261,3.10211 2.81646,8.65751 3.28508,13 1.11163,10.30087 0.63425,27.80085 -0.88386,32.40077 -0.68336,2.07058 -0.9736,4.46533 -0.645,5.32167 0.79795,2.07941 -1.88656,9.79858 -5.34195,15.36054 -1.53761,2.475 -4.28417,7.2 -6.10349,10.5 -4.19375,7.60693 -9.35348,13.30719 -19.45603,21.49422 -4.40752,3.57182 -8.37218,6.94682 -8.81036,7.5 -1.36131,1.7186 0.3285,16.25961 2.88028,24.78505 1.42078,4.74679 3.46965,9.21064 4.92471,10.72939 2.82835,2.95217 3.21215,6.14853 0.96246,8.01561 -1.89093,1.56933 -14.57374,2.26727 -17.94041,0.98727 -1.44198,-0.54824 -2.7563,-2.06363 -3.14988,-3.63176 -0.66612,-2.65403 0.1602,-3.81377 4.49439,-6.30787 1.14744,-0.6603 1.02338,-2.43281 -0.75,-10.71555 C 442.95619,465.89794 442,460.20978 442,458.71598 c 0,-3.64241 -2.30114,-3.54504 -8.45521,0.35775 -2.66572,1.69055 -6.91632,3.85375 -9.44578,4.80712 l -4.59901,1.73339 0.24684,4.73642 c 0.27939,5.36119 2.37711,10.08529 5.28462,11.90106 2.72544,1.70207 2.74859,8.26044 0.0343,9.7131 -2.31989,1.24157 -10.69621,1.25875 -13.75037,0.0282 z M 369.5,460.63014 c -7.26448,-2.45583 -7.15107,-2.37907 -5.68333,-3.84681 C 364.4675,456.1325 365,454.79 365,453.8 c 0,-2.50258 3.06574,-2.26463 3.73373,0.28979 0.55502,2.12238 1.25076,2.15822 7.05736,0.36357 2.1393,-0.6612 2.2662,-0.4655 1.91541,2.95385 -0.20662,2.01408 -0.78761,4.01956 -1.29108,4.45662 -0.50348,0.43707 -3.61542,-0.11809 -6.91542,-1.23369 z m -84.20151,-1.0236 c -4.47551,-1.6443 -4.79453,-2.20054 -2.9109,-5.07533 3.02602,-4.61829 10.22247,-1.85479 9.44277,3.62611 -0.38493,2.70588 -2.08489,3.08305 -6.53187,1.44922 z m 113.17444,0.34966 C 397.50489,458.38988 399.93758,456 402.5,456 c 1.24031,0 2.81531,-0.675 3.5,-1.5 1.27521,-1.53654 5.01223,-2.09881 4.98469,-0.75 -0.0288,1.40984 -1.48332,2.75 -2.98469,2.75 -0.825,0 -1.6438,1.0125 -1.81955,2.25 -0.25923,1.82523 -0.95603,2.25 -3.69098,2.25 -1.85429,0 -3.66173,-0.46971 -4.01654,-1.0438 z M 301.65499,444.17126 C 300.52928,442.92736 300,440.54962 300,436.73636 300,429.15473 301.29519,426 304.40786,426 c 2.98978,0 3.44492,1.34675 3.51769,10.40896 0.0727,9.05031 -2.36927,12.07318 -6.27056,7.7623 z M 284.75,417.77953 c -4.16893,-2.16145 -4.64025,-3.66389 -1.92126,-6.12454 4.11629,-3.72519 10.40082,-0.0411 8.60365,5.04358 -1.1796,3.33742 -2.05658,3.47928 -6.68239,1.08096 z M 266.62137,397.75 c 2.83206,-5.50249 10.53727,-13.7921 14.81317,-15.93667 2.236,-1.12147 5.02964,-2.9213 6.20808,-3.99962 2.13273,-1.95153 2.15237,-1.95013 4.25,0.30141 1.15906,1.2441 2.10738,2.9964 2.10738,3.894 0,2.33165 -11.98092,11.61838 -18.10131,14.03081 -2.84553,1.12161 -6.11195,2.69646 -7.2587,3.49968 -3.24393,2.27213 -3.83805,1.74541 -2.01862,-1.78961 z m 20.69727,-31.0781 c -3.10521,-1.02181 -4.5442,-2.85587 -5.82318,-7.4219 -0.93238,-3.32869 1.19022,-2.75852 3.03882,0.81629 1.41537,2.73703 1.92818,2.99416 4.77568,2.39464 1.75452,-0.3694 3.61754,-1.07423 4.14004,-1.56628 1.26287,-1.18929 2.55,-1.13612 2.55,0.10535 0,0.55 -0.62686,1 -1.39301,1 -1.49772,0 -3.04986,2.70967 -2.72087,4.75 0.22619,1.40281 -0.0832,1.39752 -4.56748,-0.0781 z M 275.8067,352.24616 c -0.71868,-0.96461 -3.00566,-2.87711 -5.08216,-4.25 -2.07651,-1.37289 -4.02948,-3.47554 -4.33994,-4.67256 -0.31046,-1.19703 -1.424,-2.95427 -2.47454,-3.90499 C 262.85953,338.46789 262,337.08477 262,336.34501 262,335.60526 261.01212,335 259.80472,335 c -1.20741,0 -3.43602,-1.1887 -4.95248,-2.64156 -2.65981,-2.54827 -2.70233,-2.74766 -1.20373,-5.64562 0.8544,-1.65224 1.84552,-2.60103 2.20247,-2.10844 0.35696,0.49259 1.53002,1.38268 2.60679,1.97797 1.07678,0.59529 2.31263,2.4518 2.74635,4.12557 0.51862,2.00142 2.67268,4.4968 6.29223,7.28926 5.58402,4.30804 6.71437,6.00282 4.00365,6.00282 -2.02387,0 -1.89293,0.60707 0.6875,3.1875 1.40789,1.40789 2.32857,1.76429 2.58333,1 0.21771,-0.65313 1.08844,-1.1875 1.93495,-1.1875 1.26316,0 1.31312,0.2723 0.27865,1.51876 -1.03151,1.24289 -0.93478,1.87863 0.53255,3.5 0.98615,1.08968 1.29877,1.98124 0.69471,1.98124 -0.60405,0 -1.6863,-0.78923 -2.40499,-1.75384 z m -30.16725,-28.02053 c -0.42633,-0.68982 -2.43212,-2.13247 -4.4573,-3.20591 -6.09753,-3.23195 -8.25116,-5.32545 -7.20328,-7.00216 0.77582,-1.24137 1.39025,-1.0381 3.77852,1.25 1.84859,1.77107 3.93862,2.73244 5.94034,2.73244 3.4259,0 4.27579,1.26903 3.34184,4.98992 -0.42864,1.70769 -0.8685,2.0959 -1.40012,1.23571 z m -18.79977,-12.75062 c -1.85615,-1.00814 -2.50995,-2.0199 -2.16288,-3.3471 0.27359,-1.0462 0.008,-2.20454 -0.58968,-2.57407 C 223.4892,305.18431 223,303.96852 223,302.85209 c 0,-1.91871 0.1685,-1.88809 3.07673,0.55902 3.17789,2.67402 5.92327,3.3831 5.92327,1.52987 0,-0.58246 0.45165,-0.77988 1.00367,-0.43871 1.69425,1.0471 -0.86932,8.58572 -2.87611,8.45769 -0.34516,-0.022 -1.8247,-0.69024 -3.28788,-1.48495 z M 209.56972,300.5 c -2.10161,-1.925 -4.38706,-3.5 -5.07878,-3.5 -0.69172,0 -1.49303,-0.9 -1.78069,-2 -0.37817,-1.44615 -1.36401,-2 -3.55993,-2 C 195.88449,293 193,290.03775 193,286.68387 c 0,-1.02911 -0.86887,-2.09832 -1.93083,-2.37603 -2.16001,-0.56486 -3.41924,-2.9324 -2.41977,-4.54957 0.42069,-0.6807 1.08956,-0.46817 1.86527,0.59269 1.11366,1.523 1.41091,1.49542 3.75509,-0.34851 1.40013,-1.10135 3.03722,-2.00245 3.63797,-2.00245 1.4828,0 1.38263,1.71486 -0.15773,2.70031 -0.6875,0.43983 -1.83435,1.54713 -2.54856,2.46066 -1.9579,2.50433 0.39319,3.33533 2.49416,0.88158 3.50527,-4.09387 6.82033,-1.7436 4.26784,3.02576 -0.81032,1.51409 -0.59963,2.40582 0.96526,4.08554 1.6737,1.7965 2.25646,1.93737 3.55532,0.85941 1.28321,-1.06497 1.8684,-1.0043 3.36348,0.34873 2.52048,2.28101 3.64126,2.05549 5.03986,-1.01412 0.83225,-1.82659 1.53031,-2.3302 2.24262,-1.61789 1.0188,1.0188 0.88977,1.4748 -1.98987,7.0321 -0.64468,1.24415 -0.89116,3.38165 -0.54772,4.75 0.85286,3.39809 -0.50705,3.12406 -5.02267,-1.01208 z m -23.86234,-25.91578 c -0.34778,-2.14314 -0.39766,-4.27634 -0.11084,-4.74042 0.97815,-1.58268 3.5894,-0.84876 4.11371,1.1562 0.60992,2.33234 0.73145,2.36561 3.14214,0.86011 1.27212,-0.79445 2.37898,-0.83001 3.65244,-0.11734 1.62927,0.91178 1.36779,1.31255 -2.41403,3.69991 -3.19961,2.01982 -4.56726,2.40678 -5.56877,1.57561 -0.98182,-0.81485 -1.43884,-0.76787 -1.75493,0.1804 -0.23506,0.70519 -0.71193,-0.47132 -1.05972,-2.61447 z"
       style="fill:#88a35c" />
    <path
       id="path11067"
       d="m 416.00181,492.24158 c -7.19575,-0.60921 -10.23373,-5.11785 -6.34434,-9.41558 1.40684,-1.55454 1.48244,-2.41565 0.5,-5.69476 C 409.52086,475.00644 409,472.37741 409,471.28897 c 0,-1.81523 -3.09372,-5.62949 -4.08885,-5.04115 -0.23459,0.1387 0.65942,-0.76032 1.98669,-1.99782 1.32728,-1.2375 3.46825,-2.25 4.7577,-2.25 1.48667,0 2.34446,-0.58796 2.34446,-1.60699 0,-1.08039 0.53892,-1.40018 1.64462,-0.97589 2.20203,0.845 5.35538,-2.14155 5.35538,-5.07211 0,-2.58676 2.71145,-3.23356 4.8,-1.14501 0.93333,0.93333 1.20739,0.76667 1.23327,-0.75 0.0417,-2.44589 3.30373,-6.45 5.25458,-6.45 1.87074,0 4.07256,-2.60783 3.28193,-3.8871 -0.33132,-0.53609 -0.13072,-1.26622 0.44579,-1.62252 1.82932,-1.13059 4.81438,-8.80473 5.48633,-14.10455 0.53059,-4.18484 0.35435,-5.22702 -0.96987,-5.73516 -1.24496,-0.47774 -1.38507,-1.05675 -0.60736,-2.50992 1.26594,-2.36542 0.1848,-12.28585 -1.48658,-13.64075 -0.67847,-0.55 -1.42447,-3.53149 -1.65778,-6.62553 -0.3268,-4.3337 -1.154,-6.61789 -3.60226,-9.947 C 431.43012,385.55066 430,382.96159 430,382.17399 c 0,-0.7876 -2.3625,-3.7713 -5.25,-6.63044 -2.8875,-2.85914 -7.5,-8.03637 -10.25,-11.50496 -5.84363,-7.37059 -24.25544,-23.2315 -26.47478,-22.80677 -0.83887,0.16054 -2.25214,2.53655 -3.14059,5.28003 -0.88845,2.74348 -3.2187,7.91315 -5.17833,11.48815 l -3.56295,6.5 9.67832,10.19984 c 8.19946,8.64128 10.174,11.39172 12.92221,18 3.23446,7.77751 5.67131,22.6495 4.52807,27.63468 C 402.38961,424.18207 398.853,431 397.73953,431 c -0.59512,0 -1.9105,0.74974 -2.92305,1.66608 -1.26772,1.14727 -4.25049,1.80302 -9.57874,2.10582 -7.82431,0.44466 -8.21541,0.35653 -22.76571,-5.13011 C 359.01008,428.33635 350.55248,421.49272 344.68616,415.25 340.96327,411.28825 337,409.63871 337,412.05098 c 0,1.79685 -7.32238,7.86092 -10.27519,8.50946 -1.62644,0.35723 -3.42029,0.10726 -4.26577,-0.59443 -2.94277,-2.44228 -1.62186,-5.75819 5.04096,-12.65444 3.575,-3.70025 6.48048,-7.42159 6.45663,-8.26965 -0.0239,-0.84806 -1.14407,-3.34192 -2.48936,-5.54192 -4.08135,-6.67437 -4.6501,-8.73948 -4.13112,-15 0.76668,-9.24867 1.62422,-11.69577 5.5345,-15.79338 5.95942,-6.24491 13.82623,-7.63985 31.05814,-5.50721 2.05295,0.25407 3.01012,-0.70527 6.18541,-6.19941 2.06614,-3.575 4.30692,-8.86085 4.97952,-11.74633 1.10164,-4.72613 1.03948,-5.449 -0.62686,-7.29029 -1.01736,-1.12417 -4.8011,-3.43133 -8.40831,-5.12702 -8.21247,-3.86055 -39.21973,-18.79459 -48.55855,-23.38728 -3.85,-1.89337 -10.31804,-4.83462 -14.37341,-6.53611 -4.05538,-1.70149 -9.45538,-4.58383 -12,-6.40519 C 288.58196,288.68642 283.125,285.71562 279,283.906 c -4.125,-1.80961 -9.75,-4.69915 -12.5,-6.4212 -6.71561,-4.20531 -25.22496,-12.62279 -28.98149,-13.17989 -1.66018,-0.24621 -7.0162,-1.80649 -11.90226,-3.46729 -4.88606,-1.6608 -9.94803,-2.81619 -11.24882,-2.56753 -1.30079,0.24867 -3.15311,-0.14607 -4.11625,-0.87718 -2.22245,-1.68704 -8.12715,-1.75355 -13.26693,-0.14943 C 193.01523,258.4822 191.64735,260 194.5,260 c 0.82852,0 1.5,0.88677 1.5,1.98095 0,2.86814 -4.85089,3.94346 -6.65559,1.47538 C 188.06817,261.71097 188,261.72885 188,263.80887 188,265.01399 187.55,266 187,266 c -1.32322,0 -1.28993,-3.70278 0.0407,-4.52514 0.57237,-0.35375 0.76316,-1.51755 0.42397,-2.58624 -1.91015,-6.01836 9.91939,-17.99058 22.02122,-22.28682 12.88413,-4.57396 38.64001,-5.60279 52.51413,-2.09769 3.025,0.76422 10,2.14313 15.5,3.06424 5.5,0.92111 13.6,2.69886 18,3.95055 4.4,1.25169 10.7,2.84605 14,3.54302 3.3,0.69696 7.28281,1.90315 8.8507,2.6804 5.63954,2.79571 23.06776,4.95485 41.0391,5.08423 22.8323,0.16437 32.19385,1.31267 42.6102,5.22661 4.675,1.75663 11.425,4.27376 15,5.59363 3.575,1.31987 8.75,3.81308 11.5,5.54046 2.75,1.72738 6.35269,3.85441 8.00599,4.72672 8.18994,4.3212 17.93827,11.85744 23.74846,18.35947 8.22478,9.20413 16.50744,20.22748 18.57891,24.72656 0.88631,1.925 2.84753,5.36095 4.35828,7.63544 1.51074,2.2745 3.1755,5.8745 3.69946,8 0.52395,2.12551 2.22073,6.78956 3.77061,10.36456 2.7339,6.30608 2.81827,7.0221 2.82813,24 0.0103,17.69281 -1.41259,31.24464 -3.72609,35.48857 -11.98332,21.98247 -15.82725,26.91545 -29.90704,38.38022 -8.55963,6.96987 -9.25788,8.60483 -7.75467,18.15767 1.36805,8.69388 5.71039,22.14498 7.90206,24.4779 2.25968,2.40532 2.60608,5.76773 0.7459,7.24024 -1.76356,1.39603 -13.5834,2.26924 -16.37089,1.20944 -1.30972,-0.49796 -2.62205,-2.07382 -3.00817,-3.61224 -0.56926,-2.26812 -0.17912,-3.11899 2.31039,-5.03885 l 2.99532,-2.30991 -1.81453,-8.24652 c -0.99799,-4.53559 -1.82523,-9.62301 -1.83832,-11.30539 -0.0131,-1.68238 -0.64302,-3.9057 -1.39984,-4.94072 -1.32153,-1.8073 -1.61342,-1.74044 -7.36879,1.68802 -3.29601,1.96342 -7.57238,4.09118 -9.50304,4.72836 -5.95796,1.9663 -6.91981,3.76132 -5.30192,9.89446 0.76352,2.89436 2.75811,6.80092 4.4649,8.74484 3.31695,3.7778 3.81611,6.13144 1.83489,8.65181 -1.57283,2.00083 -4.04483,2.51654 -9.74819,2.03368 z m -25.82824,-26.62685 c -8.81681,-1.18038 -10.9366,-2.63527 -9.66717,-6.63491 0.75081,-2.36558 1.80805,-2.51078 3.4936,-0.47982 1.38001,1.6628 5,2.05028 5,0.53518 0,-1.20854 3.96774,-3.40078 4.74618,-2.62233 0.31619,0.31619 -0.23445,1.46921 -1.22366,2.56226 -1.46571,1.6196 -1.56698,2.26639 -0.54723,3.49512 0.68823,0.82926 1.76284,1.18644 2.38802,0.79372 2.23591,-1.40453 7.63669,0.61704 7.63669,2.85849 0,1.01558 -0.65991,0.98725 -11.82643,-0.50771 z M 369.5,460.63014 c -7.26448,-2.45583 -7.15107,-2.37907 -5.68333,-3.84681 C 364.4675,456.1325 365,454.79 365,453.8 c 0,-2.50258 3.06574,-2.26463 3.73373,0.28979 0.55502,2.12238 1.25076,2.15822 7.05736,0.36357 2.1393,-0.6612 2.2662,-0.4655 1.91541,2.95385 -0.20662,2.01408 -0.78761,4.01956 -1.29108,4.45662 C 375.91194,462.3009 372.8,461.74574 369.5,460.63014 Z M 287,459.5 c -0.68469,-0.825 -2.08979,-1.5 -3.12244,-1.5 -2.20306,0 -2.42644,-1.86711 -0.53315,-4.45633 0.99659,-1.36291 2.04025,-1.66394 4.03401,-1.16354 3.39583,0.8523 5.47221,4.88999 3.64616,7.09026 -1.59225,1.91853 -2.45166,1.92486 -4.02458,0.0296 z m 111.47293,0.4562 C 397.50489,458.38988 399.93758,456 402.5,456 c 1.24031,0 2.81531,-0.675 3.5,-1.5 1.27521,-1.53654 5.01223,-2.09881 4.98469,-0.75 -0.0288,1.40984 -1.48332,2.75 -2.98469,2.75 -0.825,0 -1.6438,1.0125 -1.81955,2.25 -0.25923,1.82523 -0.95603,2.25 -3.69098,2.25 -1.85429,0 -3.66173,-0.46971 -4.01654,-1.0438 z m -95.45327,-15.25908 c -2.82327,-1.40755 -3.60558,-6.12936 -2.26935,-13.69712 0.68433,-3.87568 1.16107,-4.54275 3.43629,-4.80814 1.84702,-0.21544 2.81279,0.2358 3.21037,1.5 0.81167,2.58085 -0.0243,16.33545 -1.05548,17.36665 -0.48531,0.48531 -1.94123,0.32692 -3.32183,-0.36139 z M 286.5,418 c -0.33992,-0.55 -1.46492,-1 -2.5,-1 -2.51993,0 -3.32131,-1.53112 -2.04731,-3.91161 2.00718,-3.75045 7.98337,-3.30336 9.52441,0.71254 1.20139,3.13077 -3.29358,6.92307 -4.9771,4.19907 z m -19.35146,-19.99627 c 1.57553,-4.51955 11.8511,-14.62435 18.25321,-17.94985 5.81098,-3.01845 5.92316,-3.03502 7.2945,-1.07715 1.92952,2.75477 0.51696,5.03596 -6.35577,10.26409 -6.83528,5.19963 -6.44593,4.96133 -13.99379,8.56504 l -6.15332,2.93788 0.95517,-2.74001 z m 20.1701,-31.33183 c -3.10521,-1.02181 -4.5442,-2.85587 -5.82318,-7.4219 -0.93238,-3.32869 1.19022,-2.75852 3.03882,0.81629 1.41537,2.73703 1.92818,2.99416 4.77568,2.39464 1.75452,-0.3694 3.61754,-1.07423 4.14004,-1.56628 1.26287,-1.18929 2.55,-1.13612 2.55,0.10535 0,0.55 -0.62686,1 -1.39301,1 -1.49772,0 -3.04986,2.70967 -2.72087,4.75 0.22619,1.40281 -0.0832,1.39752 -4.56748,-0.0781 z M 275.8067,352.24616 c -0.71868,-0.96461 -3.00566,-2.87711 -5.08216,-4.25 -2.07651,-1.37289 -4.02948,-3.47554 -4.33994,-4.67256 -0.31046,-1.19703 -1.424,-2.95427 -2.47454,-3.90499 C 262.85953,338.46789 262,337.08477 262,336.34501 262,335.60526 261.01212,335 259.80472,335 c -1.20741,0 -3.43602,-1.1887 -4.95248,-2.64156 -2.65981,-2.54827 -2.70233,-2.74766 -1.20373,-5.64562 0.8544,-1.65224 1.84552,-2.60103 2.20247,-2.10844 0.35696,0.49259 1.53002,1.38268 2.60679,1.97797 1.07678,0.59529 2.31263,2.4518 2.74635,4.12557 0.51862,2.00142 2.67268,4.4968 6.29223,7.28926 5.58402,4.30804 6.71437,6.00282 4.00365,6.00282 -2.02387,0 -1.89293,0.60707 0.6875,3.1875 1.40789,1.40789 2.32857,1.76429 2.58333,1 0.21771,-0.65313 1.08844,-1.1875 1.93495,-1.1875 1.26316,0 1.31312,0.2723 0.27865,1.51876 -1.03151,1.24289 -0.93478,1.87863 0.53255,3.5 0.98615,1.08968 1.29877,1.98124 0.69471,1.98124 -0.60405,0 -1.6863,-0.78923 -2.40499,-1.75384 z m -30.16725,-28.02053 c -0.42633,-0.68982 -2.43212,-2.13247 -4.4573,-3.20591 -6.09753,-3.23195 -8.25116,-5.32545 -7.20328,-7.00216 0.77582,-1.24137 1.39025,-1.0381 3.77852,1.25 1.84859,1.77107 3.93862,2.73244 5.94034,2.73244 3.4259,0 4.27579,1.26903 3.34184,4.98992 -0.42864,1.70769 -0.8685,2.0959 -1.40012,1.23571 z m -18.79977,-12.75062 c -1.85615,-1.00814 -2.50995,-2.0199 -2.16288,-3.3471 0.27359,-1.0462 0.008,-2.20454 -0.58968,-2.57407 C 223.4892,305.18431 223,303.96852 223,302.85209 c 0,-1.91871 0.1685,-1.88809 3.07673,0.55902 3.17789,2.67402 5.92327,3.3831 5.92327,1.52987 0,-0.58246 0.45165,-0.77988 1.00367,-0.43871 1.69425,1.0471 -0.86932,8.58572 -2.87611,8.45769 -0.34516,-0.022 -1.8247,-0.69024 -3.28788,-1.48495 z M 209.56972,300.5 c -2.10161,-1.925 -4.38706,-3.5 -5.07878,-3.5 -0.69172,0 -1.49303,-0.9 -1.78069,-2 -0.37817,-1.44615 -1.36401,-2 -3.55993,-2 C 195.88449,293 193,290.03775 193,286.68387 c 0,-1.02911 -0.86887,-2.09832 -1.93083,-2.37603 -2.16001,-0.56486 -3.41924,-2.9324 -2.41977,-4.54957 0.42069,-0.6807 1.08956,-0.46817 1.86527,0.59269 1.11366,1.523 1.41091,1.49542 3.75509,-0.34851 1.40013,-1.10135 3.03722,-2.00245 3.63797,-2.00245 1.4828,0 1.38263,1.71486 -0.15773,2.70031 -0.6875,0.43983 -1.83435,1.54713 -2.54856,2.46066 -1.9579,2.50433 0.39319,3.33533 2.49416,0.88158 3.50527,-4.09387 6.82033,-1.7436 4.26784,3.02576 -0.81032,1.51409 -0.59963,2.40582 0.96526,4.08554 1.6737,1.7965 2.25646,1.93737 3.55532,0.85941 1.28321,-1.06497 1.8684,-1.0043 3.36348,0.34873 2.52048,2.28101 3.64126,2.05549 5.03986,-1.01412 0.83225,-1.82659 1.53031,-2.3302 2.24262,-1.61789 1.0188,1.0188 0.88977,1.4748 -1.98987,7.0321 -0.64468,1.24415 -0.89116,3.38165 -0.54772,4.75 0.85286,3.39809 -0.50705,3.12406 -5.02267,-1.01208 z m -23.86234,-25.91578 c -0.34778,-2.14314 -0.39766,-4.27634 -0.11084,-4.74042 0.97815,-1.58268 3.5894,-0.84876 4.11371,1.1562 0.60992,2.33234 0.73145,2.36561 3.14214,0.86011 1.27212,-0.79445 2.37898,-0.83001 3.65244,-0.11734 1.62927,0.91178 1.36779,1.31255 -2.41403,3.69991 -3.19961,2.01982 -4.56726,2.40678 -5.56877,1.57561 -0.98182,-0.81485 -1.43884,-0.76787 -1.75493,0.1804 -0.23506,0.70519 -0.71193,-0.47132 -1.05972,-2.61447 z"
       style="fill:#86c635" />
    <path
       id="path11065"
       d="m 416.00181,492.24158 c -7.19575,-0.60921 -10.23373,-5.11785 -6.34434,-9.41558 1.40684,-1.55454 1.48244,-2.41565 0.5,-5.69476 C 409.52086,475.00644 409,472.4556 409,471.46272 c 0,-0.99288 -0.72832,-2.61003 -1.61849,-3.59365 -1.80559,-1.99516 -1.73251,-2.04197 10.96237,-7.0223 4.41184,-1.73082 7.30797,-3.85774 11.81859,-8.67961 3.28609,-3.51284 6.61885,-7.91252 7.40612,-9.77707 0.78728,-1.86455 2.10641,-4.98036 2.93141,-6.92402 1.64981,-3.88686 1.89336,-16.23676 0.50221,-25.46607 -1.18332,-7.85054 -4.81058,-17.85132 -8.14147,-22.447 C 431.28733,385.38215 430,382.96159 430,382.17399 c 0,-0.7876 -2.3625,-3.7713 -5.25,-6.63044 -2.8875,-2.85914 -7.5,-8.03637 -10.25,-11.50496 -5.84363,-7.37059 -24.25544,-23.2315 -26.47478,-22.80677 -0.83887,0.16054 -2.24679,2.53904 -3.1287,5.28556 -0.88191,2.74652 -3.08257,7.61448 -4.89035,10.81769 -1.80778,3.20321 -3.33621,6.67233 -3.39652,7.70914 -0.0603,1.03682 -2.13465,4.21776 -4.60965,7.06876 -2.475,2.851 -5.625,7.34589 -7,9.98864 -3.10778,5.97316 -20.19826,25.43243 -24.11572,27.45823 -1.59282,0.82368 -4.72393,3.48063 -6.95802,5.90433 -4.33752,4.70566 -9.01094,6.54036 -11.46722,4.50184 -2.88401,-2.39352 -1.61882,-5.71281 4.62481,-12.13337 3.34611,-3.44093 6.68016,-7.39843 7.40899,-8.79444 0.72883,-1.39601 3.76834,-5.03166 6.75446,-8.07923 6.6213,-6.75754 16.36052,-19.7761 18.3416,-24.5175 0.80111,-1.91731 2.96262,-5.1635 4.80337,-7.21375 4.37571,-4.87373 10.40397,-16.63661 11.1954,-21.84547 0.58125,-3.8255 0.38359,-4.30239 -2.78484,-6.71906 -1.87576,-1.43072 -5.18626,-3.3379 -7.35666,-4.23819 -3.56627,-1.47929 -30.1392,-14.21206 -47.94617,-22.97404 -3.85,-1.89441 -10.31804,-4.8365 -14.37341,-6.53799 -4.05538,-1.70149 -9.45538,-4.58383 -12,-6.40519 C 288.58196,288.68642 283.125,285.71562 279,283.906 c -4.125,-1.80961 -9.75,-4.69854 -12.5,-6.41983 C 260.59647,273.79101 239.53793,264 237.49389,264 c -0.78092,0 -3.71479,-0.90458 -6.51973,-2.01018 -8.6143,-3.39545 -25.86467,-7.24984 -29.32362,-6.55203 -1.7328,0.34958 -4.50054,0.9099 -6.15054,1.24516 -1.65,0.33526 -4.00792,1.2675 -5.23981,2.07164 -1.98759,1.29743 -2.30843,1.28327 -2.84913,-0.12576 -1.03737,-2.70336 3.43743,-9.90833 9.16506,-14.75684 7.13998,-6.04409 17.08541,-9.60109 30.38894,-10.86866 11.78609,-1.12299 27.27577,-0.45947 35.03494,1.50078 3.025,0.76422 10,2.14313 15.5,3.06424 5.5,0.92111 13.6,2.69886 18,3.95055 4.4,1.25169 10.7,2.84605 14,3.54302 3.3,0.69696 7.28281,1.90315 8.8507,2.6804 5.63954,2.79571 23.06776,4.95485 41.0391,5.08423 22.8323,0.16437 32.19385,1.31267 42.6102,5.22661 4.675,1.75663 11.425,4.27376 15,5.59363 3.575,1.31987 8.75,3.81308 11.5,5.54046 2.75,1.72738 6.35269,3.85441 8.00599,4.72672 8.18994,4.3212 17.93827,11.85744 23.74846,18.35947 8.22478,9.20413 16.50744,20.22748 18.57891,24.72656 0.88631,1.925 2.84753,5.36095 4.35828,7.63544 1.51074,2.2745 3.1755,5.8745 3.69946,8 0.52395,2.12551 2.22073,6.78956 3.77061,10.36456 2.7339,6.30608 2.81827,7.0221 2.82813,24 0.0103,17.69281 -1.41259,31.24464 -3.72609,35.48857 -11.98332,21.98247 -15.82725,26.91545 -29.90704,38.38022 -8.55963,6.96987 -9.25788,8.60483 -7.75467,18.15767 1.36805,8.69388 5.71039,22.14498 7.90206,24.4779 2.25968,2.40532 2.60608,5.76773 0.7459,7.24024 -1.76356,1.39603 -13.5834,2.26924 -16.37089,1.20944 -1.30972,-0.49796 -2.62205,-2.07382 -3.00817,-3.61224 -0.56926,-2.26812 -0.17912,-3.11899 2.31039,-5.03885 l 2.99532,-2.30991 -1.81453,-8.24652 c -0.99799,-4.53559 -1.82523,-9.62301 -1.83832,-11.30539 -0.0131,-1.68238 -0.64302,-3.9057 -1.39984,-4.94072 -1.32153,-1.8073 -1.61342,-1.74044 -7.36879,1.68802 -3.29601,1.96342 -7.57238,4.09118 -9.50304,4.72836 -5.95796,1.9663 -6.91981,3.76132 -5.30192,9.89446 0.76352,2.89436 2.75811,6.80092 4.4649,8.74484 3.31695,3.7778 3.81611,6.13144 1.83489,8.65181 -1.57283,2.00083 -4.04483,2.51654 -9.74819,2.03368 z M 287,459.5 c -0.68469,-0.825 -2.08979,-1.5 -3.12244,-1.5 -2.20306,0 -2.42644,-1.86711 -0.53315,-4.45633 0.99659,-1.36291 2.04025,-1.66394 4.03401,-1.16354 3.39583,0.8523 5.47221,4.88999 3.64616,7.09026 -1.59225,1.91853 -2.45166,1.92486 -4.02458,0.0296 z m 13.87543,-17.25 c -0.70517,-1.80379 -0.78267,-4.9865 -0.22525,-9.25 0.79484,-6.07947 1.02548,-6.52025 3.56494,-6.81306 3.18071,-0.36674 4.07984,1.86335 3.3517,8.31306 -0.24837,2.2 -0.47752,5.4625 -0.5092,7.25 -0.0495,2.79328 -0.41242,3.25 -2.58237,3.25 -1.82698,0 -2.82187,-0.76002 -3.59982,-2.75 z M 286.5,418 c -0.33992,-0.55 -1.46492,-1 -2.5,-1 -2.51993,0 -3.32131,-1.53112 -2.04731,-3.91161 2.00718,-3.75045 7.98337,-3.30336 9.52441,0.71254 C 292.67849,416.9317 288.18352,420.724 286.5,418 Z M 267,398.80584 c 0,-3.59425 10.40354,-14.50865 17.38078,-18.23427 4.6842,-2.50121 5.72001,-2.73281 7.10002,-1.58751 0.88864,0.73751 1.4815,2.24554 1.31746,3.35118 -0.29294,1.97441 -10.37255,10.81943 -14.29826,12.54695 -3.13607,1.38004 -9.92135,4.47186 -10.75,4.89841 -0.4125,0.21234 -0.75,-0.22631 -0.75,-0.97476 z"
       style="fill:#75ac33" />
    <path
       id="path11063"
       d="m 416.00181,492.24158 c -7.15241,-0.60554 -10.23501,-5.11645 -6.39559,-9.35895 1.39188,-1.53801 1.44437,-2.48264 0.39336,-7.07874 -0.66707,-2.91714 -1.64605,-6.13521 -2.17551,-7.15127 -0.52945,-1.01606 -0.81897,-1.91606 -0.64336,-2 0.17561,-0.0839 1.33714,-0.72228 2.58119,-1.41852 1.24404,-0.69625 4.39404,-1.987 7,-2.86832 2.60595,-0.88133 6.0881,-2.51294 7.7381,-3.62581 5.6288,-3.79642 13.89766,-14.39902 15.0803,-19.33645 0.38251,-1.59694 1.11273,-3.43494 1.62271,-4.08445 1.70024,-2.16543 2.09513,-12.25553 0.84494,-21.58977 -1.35247,-10.09795 -4.85783,-20.03348 -9.23527,-26.1763 C 431.2657,385.38215 430,382.96159 430,382.17399 c 0,-0.7876 -2.3625,-3.7713 -5.25,-6.63044 -2.8875,-2.85914 -7.5,-8.03637 -10.25,-11.50496 -5.84363,-7.37059 -24.25544,-23.2315 -26.47478,-22.80677 -0.83887,0.16054 -2.26901,2.53655 -3.17809,5.28003 -2.60325,7.85628 -9.56645,20.38115 -14.7004,26.44196 -2.58392,3.05041 -5.36149,6.88483 -6.17238,8.52095 -1.89975,3.83308 -17.13155,22.07806 -21.84878,26.17095 -1.99406,1.73014 -5.86576,5.21764 -8.60377,7.75 -3.7613,3.47878 -5.76152,4.60429 -8.18262,4.60429 -2.35167,0 -3.37746,-0.54526 -3.85472,-2.04896 -0.76106,-2.39788 0.54999,-4.53769 7.01594,-11.45104 11.03884,-11.80264 21.25504,-23.28237 24.02204,-26.99305 5.16672,-6.92882 8.44053,-11.9714 8.45936,-13.02975 0.01,-0.56255 1.64371,-3.48755 3.63044,-6.5 5.6855,-8.62087 10.29362,-18.10752 10.97543,-22.59495 0.58125,-3.8255 0.38359,-4.30239 -2.78484,-6.71906 -1.87576,-1.43072 -5.18626,-3.3379 -7.35666,-4.23819 -3.56627,-1.47929 -30.1392,-14.21206 -47.94617,-22.97404 -3.85,-1.89441 -10.31804,-4.8365 -14.37341,-6.53799 -4.05538,-1.70149 -9.45538,-4.58383 -12,-6.40519 C 288.58196,288.68642 283.125,285.71562 279,283.906 c -4.125,-1.80961 -9.75,-4.69915 -12.5,-6.4212 -5.23525,-3.27831 -21.31354,-10.87904 -30.5774,-14.45494 C 227.97662,259.96267 208.57294,255 204.52643,255 c -3.931,0 -12.07115,1.74441 -14.87381,3.18742 -2.61292,1.34531 -3.0245,0.46942 -1.68566,-3.58732 1.06498,-3.22691 7.72767,-10.59663 12.77813,-14.1341 10.4779,-7.33902 43.19821,-10.52366 61.25491,-5.96189 3.025,0.76422 10,2.14313 15.5,3.06424 5.5,0.92111 13.6,2.69886 18,3.95055 4.4,1.25169 10.7,2.84605 14,3.54302 3.3,0.69696 7.28281,1.90315 8.8507,2.6804 5.63954,2.79571 23.06776,4.95485 41.0391,5.08423 22.8323,0.16437 32.19385,1.31267 42.6102,5.22661 4.675,1.75663 11.425,4.27376 15,5.59363 3.575,1.31987 8.75,3.81308 11.5,5.54046 2.75,1.72738 6.35269,3.85441 8.00599,4.72672 8.18994,4.3212 17.93827,11.85744 23.74846,18.35947 8.22478,9.20413 16.50744,20.22748 18.57891,24.72656 0.88631,1.925 2.84753,5.36095 4.35828,7.63544 1.51074,2.2745 3.1755,5.8745 3.69946,8 0.52395,2.12551 2.22073,6.78956 3.77061,10.36456 2.7339,6.30608 2.81827,7.0221 2.82813,24 0.0103,17.69281 -1.41259,31.24464 -3.72609,35.48857 -11.98332,21.98247 -15.82725,26.91545 -29.90704,38.38022 -8.55963,6.96987 -9.25788,8.60483 -7.75467,18.15767 1.36805,8.69388 5.71039,22.14498 7.90206,24.4779 2.25968,2.40532 2.60608,5.76773 0.7459,7.24024 -1.76356,1.39603 -13.5834,2.26924 -16.37089,1.20944 -1.30972,-0.49796 -2.62205,-2.07382 -3.00817,-3.61224 -0.56926,-2.26812 -0.17912,-3.11899 2.31039,-5.03885 l 2.99532,-2.30991 -1.81453,-8.24652 c -0.99799,-4.53559 -1.82523,-9.62301 -1.83832,-11.30539 -0.0131,-1.68238 -0.64302,-3.9057 -1.39984,-4.94072 -1.32153,-1.8073 -1.61342,-1.74044 -7.36879,1.68802 -3.29601,1.96342 -7.57238,4.09118 -9.50304,4.72836 -5.95796,1.9663 -6.91981,3.76132 -5.30192,9.89446 0.76352,2.89436 2.75811,6.80092 4.4649,8.74484 3.31695,3.7778 3.81611,6.13144 1.83489,8.65181 -1.57283,2.00083 -4.04483,2.51654 -9.74819,2.03368 z M 287,459.5 c -0.68469,-0.825 -2.08979,-1.5 -3.12244,-1.5 -2.20306,0 -2.42644,-1.86711 -0.53315,-4.45633 0.99659,-1.36291 2.04025,-1.66394 4.03401,-1.16354 3.39583,0.8523 5.47221,4.88999 3.64616,7.09026 -1.59225,1.91853 -2.45166,1.92486 -4.02458,0.0296 z m 13.8848,-17.25 c -1.32793,-3.42668 -0.30538,-13.25423 1.57497,-15.13674 0.76183,-0.76271 2.09504,-1.11434 2.96269,-0.78139 1.27559,0.48949 1.57754,2.33404 1.57754,9.63675 0,8.99042 -0.0115,9.03138 -2.52475,9.03138 -1.82926,0 -2.81832,-0.75754 -3.59045,-2.75 z M 286.5,418 c -0.33992,-0.55 -1.46492,-1 -2.5,-1 -2.51993,0 -3.32131,-1.53112 -2.04731,-3.91161 2.00718,-3.75045 7.98337,-3.30336 9.52441,0.71254 C 292.67849,416.9317 288.18352,420.724 286.5,418 Z M 267,398.68124 c 0,-3.51311 10.56038,-14.46906 17.52479,-18.18124 5.54418,-2.95516 5.65001,-2.9704 7.08066,-1.01934 0.7988,1.08936 1.32592,2.63719 1.17139,3.43962 C 292.48215,384.45047 279.33492,395 277.72263,395 c -0.5127,0 -3.13503,1.10643 -5.8274,2.45873 C 268.6674,399.07998 267,399.49638 267,398.68124 Z"
       style="fill:#759349" />
    <path
       id="path11061"
       d="m 411.22251,490.4433 c -2.51118,-1.7589 -2.83528,-5.05072 -0.76611,-7.7813 1.19153,-1.57241 1.18693,-2.42146 -0.0318,-5.87573 -1.75767,-4.98177 -1.82846,-9.23495 -0.17459,-10.48979 0.6875,-0.52163 3.92653,-1.94547 7.19785,-3.16411 10.2689,-3.82537 19.90426,-13.6705 24.10753,-24.63237 3.09357,-8.06783 2.62929,-26.3613 -0.95433,-37.60262 -1.50833,-4.73144 -4.28562,-10.77315 -6.17174,-13.42602 C 432.54319,384.81849 431,382.08017 431,381.38621 c 0,-0.69396 -2.99262,-4.32725 -6.65026,-8.07398 -3.65764,-3.74672 -8.33035,-9.08473 -10.3838,-11.86224 -2.05345,-2.7775 -5.3639,-6.3775 -7.35657,-8 -1.99266,-1.62249 -5.88269,-4.86046 -8.6445,-7.19548 -8.00421,-6.76729 -9.72175,-7.70117 -11.47997,-6.24198 -0.8278,0.68702 -2.22942,3.74073 -3.11472,6.78603 -0.88529,3.0453 -3.13075,7.91481 -4.9899,10.82114 -1.85915,2.90632 -3.38028,5.80724 -3.38028,6.44648 0,0.63923 -2.18732,3.69835 -4.86072,6.79803 -2.67339,3.09969 -5.66653,7.20772 -6.65142,9.12896 -3.08102,6.01019 -12.47123,17.08795 -23.94487,28.24808 -8.467,8.23566 -11.67071,10.7433 -13.73397,10.75 -5.9883,0.0195 -4.58131,-3.26233 6.2128,-14.49125 10.66575,-11.09539 17.94591,-19.36094 21.47818,-24.38529 1.65,-2.34699 3.95093,-5.47043 5.11317,-6.94098 1.16224,-1.47055 2.45424,-3.79873 2.8711,-5.17373 0.41687,-1.375 2.19428,-4.525 3.94981,-7 4.65633,-6.56462 9.32258,-15.73011 11.129,-21.85965 1.55152,-5.26461 1.53874,-5.40307 -0.72078,-7.80821 -1.26516,-1.34671 -5.23475,-3.81625 -8.8213,-5.48788 C 363.43445,324.17263 352.175,318.75022 342,313.79445 313.88621,300.10154 298.71089,293 297.56424,293 c -0.30779,0 -2.69815,-1.53568 -5.31193,-3.41262 -2.61377,-1.87694 -8.57731,-5.08885 -13.25231,-7.13758 -4.675,-2.04873 -10.3,-4.94322 -12.5,-6.4322 -5.61051,-3.79725 -23.14221,-11.67473 -35,-15.72647 -18.33551,-6.26515 -28.83945,-7.59809 -38.04441,-4.8278 -2.67425,0.80483 -5.03685,1.28874 -5.25023,1.07536 -1.14949,-1.14949 1.72912,-5.64438 6.56962,-10.25834 9.90284,-9.43938 18.63268,-12.17968 41.40441,-12.99686 13.58621,-0.48755 16.92369,-0.28489 25,1.5181 5.12634,1.14442 11.34561,2.36496 13.82061,2.71232 6.59573,0.92568 41.07974,9.50836 44,10.95109 5.45822,2.69661 23.84689,4.67532 46.71447,5.02671 22.29054,0.34253 22.97018,0.41494 31.28553,3.33352 17.40366,6.10844 27.05214,10.01879 31.60016,12.80696 6.11494,3.74877 10.06561,6.13939 16.83869,10.18941 6.37047,3.80928 21.01596,19.15976 28.51852,29.89131 2.77344,3.96711 5.04263,7.5915 5.04263,8.05422 0,0.46272 1.3999,3.04873 3.1109,5.74669 1.71099,2.69796 3.68969,6.94856 4.39709,9.44578 0.70741,2.49722 2.54057,7.4654 4.07369,11.0404 2.58766,6.03403 2.80974,7.61888 3.09791,22.10766 0.22879,11.50304 -0.0705,16.87343 -1.13809,20.42071 -0.79669,2.64718 -1.19591,5.22179 -0.88717,5.72135 0.94129,1.52303 -1.83047,10.01069 -4.65361,14.25028 -1.46498,2.2 -4.54574,7.44178 -6.84613,11.64841 -4.20037,7.68105 -11.06767,15.01237 -22.48026,23.99925 -2.84588,2.241 -5.55942,4.74464 -6.0301,5.56365 -1.19511,2.07958 0.0709,13.36045 2.50128,22.28869 2.44151,8.96892 3.16144,10.67394 5.99282,14.19276 2.06399,2.56511 2.08727,2.81398 0.49113,5.25 -1.54319,2.3552 -2.25048,2.55724 -8.95251,2.55724 -4.32652,0 -7.76349,-0.48654 -8.47695,-1.2 -2.00288,-2.00288 -1.35598,-5.51956 1.38226,-7.51423 l 2.58226,-1.88105 -1.73687,-7.95236 c -0.95527,-4.3738 -2.00479,-10.19767 -2.33225,-12.94194 -0.7546,-6.3237 -2.07528,-6.62156 -9.71091,-2.19012 -3.23647,1.87833 -7.53599,3.94769 -9.5545,4.59858 -5.16814,1.66651 -6.15165,3.20449 -5.30548,8.29653 0.85191,5.12662 2.52742,8.61662 5.37311,11.19194 2.30972,2.09026 2.78494,6.51009 0.90238,8.39265 -1.74023,1.74023 -10.92832,1.49885 -13.57749,-0.3567 z M 301.81704,441.49779 c -1.60134,-3.51455 0.0703,-13.86869 2.30713,-14.29003 2.18801,-0.41215 2.50229,1.03281 2.07541,9.54224 -0.27459,5.47362 -0.71637,7.25 -1.80308,7.25 -0.79166,0 -1.95242,-1.126 -2.57946,-2.50221 z M 268.7621,396.12357 c 1.39656,-3.76464 8.97558,-11.37289 14.08703,-14.14138 6.55123,-3.54829 6.76498,-3.57174 8.19539,-0.899 0.89586,1.67393 0.75543,2.48127 -0.71482,4.10953 -2.87402,3.18291 -11.33322,8.45741 -16.9998,10.59976 -4.55374,1.72163 -5.09829,1.7611 -4.5678,0.33109 z"
       style="fill:#4d4b44" />
    <path
       id="path11059"
       d="m 445.3891,491.02115 c -3.02507,-1.22354 -3.6614,-3.74885 -1.49142,-5.91883 1.01878,-1.01878 2.42165,-2.0421 3.1175,-2.27405 0.983,-0.32766 0.78785,-2.59213 -0.875,-10.15314 C 444.96308,467.32285 444,461.46739 444,459.66299 c 0,-1.8044 -0.59523,-4.09476 -1.32274,-5.08969 -1.24674,-1.70502 -1.74026,-1.57236 -8.58953,2.30887 -8.22024,4.65811 -11.20525,5.37034 -6.29716,1.50251 4.44352,-3.50172 14.45873,-16.17229 13.72346,-17.36198 -0.32432,-0.52476 0.30866,-2.71499 1.40663,-4.86717 3.12411,-6.12377 2.89267,-27.1948 -0.38065,-34.65553 -0.72392,-1.65 -1.84632,-4.8 -2.49422,-7 -1.61894,-5.49728 -3.11368,-8.60988 -5.37943,-11.20197 -1.15339,-1.31952 -1.71011,-3.02273 -1.38917,-4.25 0.35551,-1.35949 0.0544,-2.04803 -0.89556,-2.04803 -0.78712,0 -1.85886,-1.125 -2.38163,-2.5 -0.52277,-1.375 -1.4268,-2.5 -2.00895,-2.5 -1.39994,0 -7.15574,-5.92016 -6.61911,-6.80811 0.22998,-0.38054 -0.20963,-1.27213 -0.9769,-1.98132 C 419.62777,362.50139 419,362.25131 419,362.65485 c 0,0.40354 -1.0125,-0.62968 -2.25,-2.29605 -1.2375,-1.66637 -3.0375,-3.81094 -4,-4.76571 -0.9625,-0.95477 -1.75,-2.32994 -1.75,-3.05594 0,-0.72599 -1.84295,-2.05739 -4.09544,-2.95866 -2.92687,-1.1711 -3.92881,-2.07291 -3.51146,-3.16052 0.34595,-0.90151 0.16311,-1.26173 -0.44853,-0.88371 -1.56664,0.96824 -6.19016,-2.45188 -5.55438,-4.1087 C 397.73983,340.51441 397.28278,340 396.1236,340 c -0.99749,0 -2.62811,-0.9 -3.6236,-2 -2.94178,-3.25063 -6.12866,-2.54849 -8.98746,1.98013 -1.38189,2.18907 -2.51254,4.93721 -2.51254,6.10699 0,1.56115 -0.43659,1.95932 -1.64144,1.49698 -1.33723,-0.51314 -1.41926,-0.36216 -0.44259,0.81465 0.93552,1.12723 0.91375,1.90105 -0.0991,3.52289 -1.35437,2.16869 -3.30607,2.71385 -4.24969,1.18704 -0.30297,-0.49022 0.37455,-3.07772 1.5056,-5.75 1.13106,-2.67227 2.43658,-5.75868 2.90117,-6.85868 0.46459,-1.1 1.08351,-2.75393 1.37537,-3.6754 0.79023,-2.49487 -1.23601,-8.8246 -2.82489,-8.8246 -0.75986,0 -2.15196,-0.7704 -3.09356,-1.71199 -0.94159,-0.9416 -2.23121,-1.7882 -2.86581,-1.88134 C 368.3011,323.92762 352,315.95924 352,314.84278 352,314.37925 351.1,314 350,314 c -1.14476,0 -2,-0.66667 -2,-1.55902 0,-0.85746 -0.46052,-1.2744 -1.02338,-0.92653 C 345.82409,312.22675 340,309.9239 340,308.75589 340,308.34015 339.1,308 338,308 c -1.1,0 -2,-0.45 -2,-1 0,-0.55 -0.68912,-1 -1.53138,-1 -0.84227,0 -1.79556,-0.68841 -2.11843,-1.5298 -0.35112,-0.915 -1.29014,-1.30665 -2.33653,-0.97453 -2.47134,0.78437 -7.3063,-1.21315 -6.41746,-2.65132 0.484,-0.78313 0.0653,-0.9891 -1.29012,-0.63464 -1.13148,0.29589 -3.05325,-0.27992 -4.40637,-1.32024 -1.31984,-1.01475 -3.07471,-1.86932 -3.89971,-1.89904 -1.96879,-0.0709 -5,-2.40536 -5,-3.85067 C 309,292.51289 308.29844,292 307.44098,292 c -0.85746,0 -1.2809,0.45 -0.94098,1 0.33992,0.55 0.12175,1 -0.48482,1 -0.60657,0 -0.97063,-0.7875 -0.80902,-1.75 0.23718,-1.41253 -0.44279,-1.75 -3.52608,-1.75 -2.5981,0 -4.1333,-0.55974 -4.79969,-1.75 -0.53887,-0.9625 -1.63241,-1.75 -2.43008,-1.75 -0.79767,0 -2.32657,-0.87626 -3.39756,-1.94725 -1.07099,-1.07099 -3.77099,-2.43834 -6,-3.03855 C 282.82374,281.41399 281,280.49026 281,279.96146 281,279.43266 280.48472,279 279.85493,279 c -0.62979,0 -4.34229,-1.5183 -8.25,-3.37401 -3.90771,-1.8557 -10.02993,-4.61377 -13.60493,-6.12904 -3.575,-1.51527 -8.46036,-3.62178 -10.85636,-4.68112 -11.21101,-4.95671 -21.22827,-8.30225 -29.64364,-9.90033 -2.75,-0.52223 -6.84189,-1.43057 -9.09309,-2.01853 -3.24302,-0.84701 -5.48941,-0.71884 -10.81652,0.61715 -3.69789,0.92739 -6.93535,1.47426 -7.19435,1.21525 -1.09196,-1.09196 2.18258,-5.54473 7.2825,-9.90284 8.68166,-7.41888 17.60318,-9.86953 38.44486,-10.56045 14.51265,-0.4811 17.81398,-0.28591 26,1.53726 5.15713,1.14858 15.0016,3.22563 21.8766,4.61567 15.199,3.07303 30.83866,7.11568 33.35972,8.62304 5.45696,3.26276 33.6609,5.726 68.88686,6.01636 6.35447,0.0524 34.71186,11.03433 45.80603,17.73927 4.64606,2.80793 10.80758,6.50885 13.69225,8.22428 6.01739,3.57834 19.7993,18.11291 27.20522,28.69095 2.77746,3.96711 5.04992,7.5915 5.04992,8.05422 0,0.46272 1.41652,3.06691 3.14783,5.78709 1.73131,2.72018 3.70735,6.97078 4.3912,9.44578 0.68385,2.475 2.48572,7.2 4.00416,10.5 2.50171,5.43692 2.80573,7.35209 3.2395,20.40748 0.64176,19.31542 -1.86646,35.4033 -6.61189,42.40908 -1.55852,2.30089 -4.72879,7.64871 -7.04502,11.88405 -4.27874,7.82384 -11.43819,15.35274 -22.84925,24.02833 -3.77442,2.86961 -5.38666,4.8451 -5.81175,7.12117 -0.73162,3.91745 0.9397,14.6603 3.6518,23.47286 2.17075,7.05351 2.33444,7.41427 5.20449,11.4697 2.82331,3.98939 0.8886,6.70733 -4.77447,6.70733 -2.41066,0 -4.98233,0.19686 -5.71481,0.43747 -0.73249,0.24061 -2.28169,0.0533 -3.44269,-0.41632 z m -34.31796,-1.95001 C 409.10219,487.10219 409.18838,484 411.21202,484 c 0.94589,0 0.86446,-1.18306 -0.84916,-12.3367 -0.6667,-4.33942 -0.0144,-5.32925 4.33365,-6.57626 2.70463,-0.77568 3.00483,-0.66097 2.57472,0.98377 -0.8741,3.34256 1.89055,12.04386 4.92463,15.49948 2.0722,2.3601 2.84953,4.1793 2.62424,6.14157 -0.30379,2.64608 -0.61061,2.80335 -6.02164,3.0866 -4.64539,0.24317 -6.0768,-0.0768 -7.72732,-1.72732 z M 324,416.02305 c 0,-1.08732 1.2375,-2.76943 2.75,-3.73803 1.5125,-0.9686 4.325,-3.39641 6.25,-5.39512 6.96762,-7.23444 20.50054,-22.29119 20.52311,-22.83405 0.0127,-0.30572 1.2502,-1.85906 2.75,-3.45187 1.49979,-1.59282 2.72689,-3.5015 2.72689,-4.24153 0,-0.74003 0.9,-1.90756 2,-2.59452 1.1,-0.68696 2,-1.95291 2,-2.81323 0,-2.42995 8.28015,-14.90469 10.32536,-15.55601 2.69227,-0.85738 3.15622,0.21739 1.3101,3.03492 -0.8995,1.37281 -1.63546,3.18304 -1.63546,4.02273 0,0.83969 -0.9,2.08877 -2,2.77573 -1.1,0.68696 -2,1.74347 -2,2.3478 0,0.60433 -1.54696,2.50647 -3.43768,4.22699 -1.89072,1.72052 -4.19011,4.71386 -5.10976,6.65186 -0.91964,1.93801 -2.07268,3.27606 -2.56232,2.97345 -0.48963,-0.30261 -0.89024,-0.0736 -0.89024,0.50881 0,0.58246 0.5051,1.05902 1.12244,1.05902 0.77551,0 0.73766,0.46364 -0.12244,1.5 -0.68469,0.825 -2.0058,1.5 -2.9358,1.5 -1.00489,0 -2.24922,1.42293 -3.06704,3.50725 -1.12267,2.86126 -1.75421,3.38725 -3.42881,2.85575 -1.81885,-0.57728 -1.89577,-0.46244 -0.67527,1.00817 1.1961,1.44121 1.07622,1.92087 -0.91085,3.64424 C 345.72369,398.10694 344.31283,399 343.84699,399 343.38115,399 343,399.9 343,401 c 0,1.1 -0.40742,2 -0.90539,2 -1.5313,0 -9.56484,7.1551 -9.58017,8.53262 -0.008,0.7134 -1.02396,2.46041 -2.25783,3.88224 C 327.54104,418.54412 324,418.88834 324,416.02305 Z m -49.44772,-25.75741 c 4.65248,-5.95203 14.07472,-11.40123 15.09892,-8.7322 0.32525,0.84758 -0.25071,2.47358 -1.27992,3.61334 -2.77653,3.07478 -11.44682,8.59501 -14.819,9.43502 l -2.94773,0.73427 3.94773,-5.05043 z"
       style="fill:#44443a" />
    <path
       id="path11057"
       d="m 412.25,489.99197 c -2.57379,-1.061 -2.96128,-4.15677 -0.75,-5.99197 1.71589,-1.42406 1.94015,-4.30906 0.53853,-6.92801 -1.66155,-3.10463 -2.16295,-8.21715 -0.94929,-9.67952 1.70616,-2.05579 5.80715,-1.79844 5.69728,0.35753 -0.18858,3.70022 2.54279,10.86104 5.37172,14.083 2.01492,2.29487 2.85776,4.20947 2.64858,6.01651 -0.28242,2.43973 -0.7044,2.66717 -5.30682,2.86024 -2.75,0.11536 -6.0125,-0.20764 -7.25,-0.71778 z m 32,0.34575 c -2.12781,-0.85859 -1.38084,-4.07559 1.42008,-6.11593 l 2.67008,-1.94501 -1.80176,-8.38839 C 445.54743,469.27477 444.55115,463.7 444.32444,461.5 c -0.99157,-9.62236 -1.51155,-9.99134 -8.47237,-6.01205 -5.87827,3.36044 -6.82542,3.14661 -3.26863,-0.73795 C 438.45243,448.34015 442,443.07757 442,440.78114 c 0,-1.28487 0.7875,-3.44876 1.75,-4.80863 2.474,-3.49542 2.54765,-30.14698 0.0939,-33.97251 -2.32885,-3.63078 -3.10617,-9.96212 -1.3078,-10.65222 1.10182,-0.42281 1.18231,-1.00546 0.35297,-2.5551 -0.76916,-1.43717 -0.76395,-2.31778 0.0183,-3.10004 C 443.69755,384.90245 444,384.93217 444,385.8 c 0,0.66 0.45,1.2 1,1.2 0.55,0 1,-0.64649 1,-1.43664 0,-0.88117 1.22683,-1.5578 3.17299,-1.75 1.74514,-0.17235 3.34813,-0.84734 3.5622,-1.49998 0.29831,-0.90944 -0.32279,-0.91786 -2.65902,-0.036 -2.32326,0.87693 -3.33079,0.86803 -4.23624,-0.0374 -0.91734,-0.91734 -0.57877,-1.75262 1.48603,-3.66622 1.47072,-1.36302 2.67404,-3.45908 2.67404,-4.65793 0,-1.19884 0.98247,-3.76938 2.18326,-5.7123 l 2.18326,-3.53259 -2.18226,0.57068 c -3.14186,0.82161 -3.89209,-1.24998 -1.23259,-3.40352 1.57745,-1.27734 1.81587,-1.83805 0.78156,-1.83805 -0.81859,0 -2.04412,-0.66968 -2.72341,-1.48817 -1.00022,-1.20519 -0.92843,-1.60583 0.37756,-2.10699 1.88459,-0.72318 2.20603,-3.60639 0.36262,-3.25263 -2.4239,0.46517 -5.75,-1.30834 -5.75,-3.06596 0,-0.97844 0.70796,-3.19811 1.57324,-4.93261 1.22795,-2.46148 2.21561,-3.15364 4.5,-3.15364 1.60972,0 2.92676,-0.45 2.92676,-1 0,-0.55 -0.50248,-1 -1.11663,-1 -0.6243,0 -0.88603,-0.88181 -0.59362,-2 0.39013,-1.49186 0.0307,-2 -1.41475,-2 -1.06578,0 -2.19679,0.675 -2.51337,1.5 -0.31659,0.825 -1.60432,1.5 -2.86163,1.5 -1.25731,0 -2.54504,0.675 -2.86163,1.5 -0.9274,2.41679 -2.50407,1.73916 -4.07182,-1.75 -1.83465,-4.08315 -3.5783,-6.19074 -5.81655,-7.03059 -0.9625,-0.3612 -1.75,-1.57081 -1.75,-2.68808 C 430,327.91412 429.39071,327 428.64602,327 427.10404,327 422,322.55212 422,321.20838 c 0,-0.48791 -1.83039,-2.58066 -4.06754,-4.65054 -2.51521,-2.32716 -3.85095,-4.32788 -3.5,-5.24243 0.31215,-0.81344 0.56754,-2.56718 0.56754,-3.8972 0,-1.8409 0.53715,-2.41838 2.25,-2.41892 3.26487,-10e-4 3.3678,-4.39677 0.13741,-5.86863 -2.49193,-1.1354 -3.07009,-3.04798 -1.42016,-4.69791 1.51838,-1.51838 0.0354,-5.43275 -2.0582,-5.43275 -1.03531,0 -2.51672,1.27443 -3.34638,2.87882 -1.17782,2.27764 -3.37612,4.12824 -4.89446,4.1203 -0.0925,-4.8e-4 -0.21453,-3.3843 -0.27113,-7.51959 -0.0566,-4.13529 -0.38964,-7.80543 -0.74007,-8.15586 -0.35043,-0.35043 -1.76861,0.58372 -3.1515,2.07588 -1.38289,1.49216 -2.98793,2.42033 -3.56676,2.06259 C 396.2565,283.42246 392,284.89671 392,286.51905 c 0,1.73203 2.30345,1.9241 5.10351,0.42555 1.08462,-0.58047 2.8428,-0.77903 3.90708,-0.44124 1.65887,0.52651 1.84891,1.24257 1.33153,5.01729 -0.56762,4.1412 -0.43215,4.47638 2.27718,5.6346 4.77598,2.04169 6.3807,3.92784 6.3807,7.49974 0,4.10034 -2.0641,4.43661 -5.18695,0.84501 -1.19555,-1.375 -2.57719,-2.5 -3.07031,-2.5 -0.49312,0 -2.20601,-1.30943 -3.80643,-2.90984 -1.87114,-1.87114 -3.5882,-2.73245 -4.81022,-2.41288 -1.0452,0.27332 -2.20272,0.008 -2.57225,-0.59016 C 391.18431,296.4892 389.98807,296 388.89553,296 c -1.09254,0 -3.11144,-1.125 -4.48644,-2.5 -1.375,-1.375 -3.19904,-2.5 -4.05342,-2.5 -0.85437,0 -2.97142,-0.65171 -4.70454,-1.44823 -1.73312,-0.79653 -4.49728,-1.58403 -6.14258,-1.75 C 365.42633,287.38997 364.63998,284 368.62668,284 c 1.71424,0 2.41053,-0.3525 1.82332,-0.92307 -1.12568,-1.09378 -6.45,-0.23558 -6.45,1.03965 0,1.56301 -3.76438,0.93983 -4.40484,-0.7292 -0.52856,-1.3774 -0.85962,-1.41387 -2.26961,-0.25 -1.31027,1.08154 -1.73902,1.10043 -2.07852,0.0916 -0.23525,-0.69907 -1.77221,-1.9663 -3.41548,-2.81607 -2.75629,-1.42533 -2.87866,-1.70934 -1.57953,-3.66593 1.22156,-1.83977 1.20445,-2.35889 -0.12904,-3.91629 -1.45688,-1.70152 -1.5978,-1.65252 -2.69505,0.93697 -0.93088,2.19685 -0.87109,3.06299 0.3051,4.41935 1.74022,2.0068 0.90225,3.81301 -1.76899,3.81301 -2.84426,0 -5.38915,-4.33715 -4.03241,-6.87225 2.11052,-3.94354 -0.80148,-3.13163 -3.03755,0.84691 -2.06318,3.67095 -4.36287,5.3942 -6.54052,4.9011 -0.46946,-0.1063 -1.70067,0.17418 -2.73603,0.6233 -1.08549,0.47087 -2.59118,0.37398 -3.55647,-0.22885 -1.18023,-0.73707 -2.68973,-0.69857 -5.11753,0.13051 -4.11765,1.40616 -7.50424,0.11839 -9.32385,-3.54543 C 310.26915,275.13598 306,274.00872 306,276.37143 c 0,0.8308 0.45,1.78865 1,2.12857 1.51395,0.93568 1.19695,2.5 -0.50661,2.5 -0.82864,0 -2.48479,-1.125 -3.68034,-2.5 C 300.1223,275.40537 296,275.10284 296,278 c 0,1.25952 -0.66667,2 -1.80064,2 -2.20056,0 -7.18081,-2.22894 -7.19156,-3.21862 -0.004,-0.39523 -0.68853,-0.45739 -1.52053,-0.13812 -0.83201,0.31927 -2.16688,0.0376 -2.96638,-0.62593 -0.79951,-0.66352 -2.03128,-1.00118 -2.73727,-0.75033 -0.70599,0.25084 -3.08362,-0.56249 -5.28362,-1.80742 -2.2,-1.24492 -5.4633,-2.56855 -7.25177,-2.94138 C 261.83693,269.39012 253,259.684 253,254.86852 c 0,-3.43776 -1.23307,-1.34986 -1.59681,2.70382 -0.26257,2.92618 0.0563,3.73507 1.63531,4.14798 2.16317,0.56568 2.73668,4.27968 0.66086,4.27968 -1.83972,0 -6.68222,-2.35194 -6.69156,-3.25 -0.004,-0.4125 0.4422,-0.75 0.9922,-0.75 1.81741,0 1.03819,-2.17725 -0.96688,-2.70159 -1.08179,-0.28289 -2.24497,-1.39054 -2.58486,-2.46143 -0.89926,-2.83332 -3.00481,-1.63071 -2.62669,1.50027 0.38569,3.19374 -1.68551,3.57556 -4.2177,0.77753 -0.93836,-1.03688 -2.9206,-2.13393 -4.40499,-2.43791 -1.48438,-0.30398 -3.53924,-1.17574 -4.56636,-1.93726 -1.78383,-1.32256 -1.7908,-1.53285 -0.15569,-4.6948 1.40747,-2.72175 1.4728,-3.46167 0.36747,-4.1622 -2.64929,-1.67905 -3.8328,-0.81392 -4.94862,3.61739 l -1.13311,4.5 -4.75916,0 c -2.61754,0 -6.46186,-0.71143 -8.54295,-1.58097 -3.44948,-1.44128 -4.33984,-1.44128 -10.07764,0 -8.82683,2.21723 -9.89305,2.14752 -8.02149,-0.52451 0.8111,-1.15802 4.02192,-4.25921 7.13515,-6.89155 6.82565,-5.7713 14.46418,-8.56808 27.00352,-9.88712 10.82038,-1.13821 30.64487,-0.68111 35.5,0.81853 1.925,0.59459 7.59008,1.74173 12.58908,2.54919 10.48637,1.6938 39.48271,8.91874 43.91092,10.94116 1.65,0.75358 5.475,1.69721 8.5,2.09696 3.025,0.39975 6.59627,1.14162 7.93616,1.64859 1.33988,0.50697 11.68988,1.12219 23,1.36715 33.49374,0.72543 31.70396,0.41815 56.56384,9.71118 9.34356,3.49278 11.03125,4.30152 19.13876,9.17129 16.07643,9.65629 20.15152,12.84964 28.45708,22.29973 8.507,9.67929 17.90416,22.48409 17.90416,24.39663 0,0.54442 1.13478,2.65347 2.52173,4.68679 1.38696,2.03332 3.00271,5.49695 3.59057,7.69695 0.58786,2.2 2.46575,7.15 4.17307,11 2.96659,6.68962 3.11562,7.66511 3.36091,22 0.18397,10.75203 -0.16479,16.6386 -1.23153,20.78607 -0.81851,3.18234 -1.22584,6.21058 -0.90517,6.72943 1.06021,1.71545 -1.87217,9.39832 -5.71924,14.9845 -2.08325,3.025 -3.78831,5.83074 -3.78903,6.23498 -0.003,1.66309 -6.69786,11.4506 -10.46082,15.29306 -2.22227,2.26921 -7.41549,6.78937 -11.54049,10.04481 -4.125,3.25544 -7.85851,6.37082 -8.29669,6.92306 -1.11546,1.40586 0.1098,15.18075 1.92404,21.63069 0.83128,2.95537 1.89916,6.90837 2.37305,8.78445 0.47389,1.87608 1.79267,4.67036 2.93061,6.20951 2.46551,3.33478 2.67311,6.43364 0.4872,7.27245 -1.86301,0.71491 -12.36099,0.67394 -14.16821,-0.0553 z m 18.46239,-103.24879 c 0.9607,-1.53833 0.9101,-2.01982 -0.25945,-2.46862 -0.79912,-0.30665 -1.46034,-1.58416 -1.46939,-2.83893 -0.0225,-3.1226 -4.21093,-10.28138 -6.01537,-10.28138 -0.96664,0 -1.57203,1.24463 -1.77219,3.64345 -0.25804,3.09247 0.15782,3.9723 2.75,5.81809 1.86654,1.32909 3.05401,3.05543 3.05401,4.43989 0,3.87957 1.82527,4.70927 3.71239,1.6875 z m -0.18944,-34.16125 c 0.45224,-1.42488 1.17625,-1.87037 2.31739,-1.42591 2.9397,1.14497 3.53368,1.03116 3.92359,-0.75177 0.31891,-1.45824 -0.34641,-1.75 -3.99061,-1.75 -2.40532,0 -4.84239,-0.46907 -5.4157,-1.04238 -0.72318,-0.72318 -1.43437,-0.57006 -2.32245,0.5 -0.70403,0.84831 -2.0984,1.54238 -3.0986,1.54238 -2.99283,0 -3.12423,1.73031 -0.17492,2.3033 1.50609,0.29261 2.88835,0.11906 3.07168,-0.38565 0.18334,-0.50471 1.00116,-0.91765 1.81739,-0.91765 1.02898,0 1.28941,0.61329 0.84928,2 -0.4422,1.39323 -0.1797,2 0.86522,2 0.825,0 1.79598,-0.93254 2.15773,-2.07232 z M 441,328.86317 c 0,-1.09706 0.50235,-2.9333 1.11633,-4.08054 0.93004,-1.73779 0.85845,-1.98693 -0.42898,-1.4929 -0.84993,0.32615 -3.15228,0.89447 -5.11634,1.26293 C 433.67664,325.09564 433,324.91727 433,323.61129 433,322.72508 432.55,322 432,322 c -0.55,0 -1,1.08287 -1,2.40638 0,1.86608 0.42372,2.29558 1.88714,1.91288 2.07447,-0.54248 3.75198,1.16771 2.12917,2.17066 -1.92788,1.1915 -0.99681,2.01062 2.48817,2.18899 C 440.39001,330.8266 441,330.50974 441,328.86317 Z M 326.92611,274.58903 c 1.54761,-1.86476 -0.20859,-2.98593 -3.41613,-2.18089 -2.11283,0.53029 -2.367,0.26778 -2.29208,-2.3673 0.0588,-2.06811 0.56745,-2.92749 1.68318,-2.84384 0.87941,0.0659 2.49892,0.0458 3.59892,-0.0447 1.74584,-0.14368 1.66069,-0.34163 -0.67,-1.55763 -1.4685,-0.76617 -3.83069,-1.3259 -5.2493,-1.24384 -2.09623,0.12125 -2.57942,0.65316 -2.57999,2.84017 -3.9e-4,1.48004 -0.45071,2.9691 -1.00071,3.30902 -2.09574,1.29524 -0.85587,3.18763 2.75,4.19727 5.29965,1.48389 5.86179,1.47541 7.17611,-0.10824 z M 274,392.48439 c 0,-2.39987 5.21539,-7.46345 9.79279,-9.50774 3.73002,-1.66584 4.36864,-1.71955 4.87129,-0.40967 0.58562,1.52612 -2.20865,5.43302 -3.88579,5.43302 -0.50145,0 -2.34421,1.05845 -4.09501,2.35212 C 276.35324,393.55157 274,394.30237 274,392.48439 Z"
       style="fill:#403e38" />
    <path
       id="path11055"
       d="m 412.75,489.83772 c -2.98594,-1.09056 -3.7437,-4.24242 -1.25,-5.19935 1.70639,-0.6548 2.10521,-7.1463 0.5,-8.13837 -1.69932,-1.05024 -1.21996,-9.20162 0.58179,-9.89301 2.54825,-0.97786 3.29477,-0.71775 3.28042,1.14301 -0.0276,3.58081 3.5239,11.85332 6.40883,14.92808 2.32213,2.47493 2.83906,3.74712 2.33637,5.75 -0.5706,2.27344 -1.13652,2.56276 -4.87646,2.49297 -2.32702,-0.0434 -5.46845,-0.53092 -6.98095,-1.08333 z m 31.44375,-0.044 c -1.8524,-1.8524 -1.46192,-3.08808 1.83158,-5.79602 2.75547,-2.26557 2.94581,-2.78583 2.01223,-5.5 -0.56712,-1.64875 -1.85676,-7.94773 -2.86586,-13.99773 -2.11408,-12.67484 -3.03839,-13.50306 -10.09692,-9.04721 -2.24113,1.41477 -4.07478,2.3353 -4.07478,2.04563 0,-0.91741 9.22278,-11.96095 10.72739,-12.84519 0.91813,-0.53956 1.22774,-1.69587 0.85343,-3.18724 -0.37324,-1.48709 0.21381,-3.69846 1.61002,-6.06486 1.47456,-2.49921 2.24568,-5.56273 2.34411,-9.31275 0.0807,-3.07361 0.21831,-6.15088 0.30586,-6.83838 0.26517,-2.08219 1.99809,-1.39953 2.33964,0.92167 0.48062,3.26632 2.65023,3.36062 3.43664,0.14937 0.80197,-3.27477 2.00562,-4.28444 5.13291,-4.30573 1.70224,-0.0116 2.25,-0.59788 2.25,-2.40832 0,-1.31616 0.70742,-2.66448 1.57205,-2.99627 0.9299,-0.35683 1.45311,-1.52386 1.28086,-2.85699 -0.16016,-1.23955 0.11905,-2.91345 0.62048,-3.71976 0.50142,-0.80632 1.1811,-3.05632 1.51039,-5 0.42648,-2.51734 1.09028,-3.49402 2.30747,-3.39508 1.17357,0.0954 1.70875,-0.60932 1.70875,-2.25 0,-1.31389 0.3375,-2.39578 0.75,-2.4042 0.4125,-0.008 1.42281,-0.44066 2.24513,-0.96052 1.28207,-0.81051 1.21082,-1.15576 -0.5,-2.42286 -1.96176,-1.45294 -1.96306,-1.50142 -0.0777,-2.89848 2.5323,-1.87647 2.67821,-6.56022 0.30595,-9.82115 -1.65176,-2.27053 -1.72668,-2.90958 -0.56407,-4.81091 1.16261,-1.90131 1.10824,-2.36518 -0.40929,-3.49192 C 469.0016,365.2807 468.27946,361 469.80887,361 c 1.28418,0 3.91416,2.3589 4.45967,4 0.40279,1.21175 0.6474,1.13825 1.27286,-0.38247 0.4418,-1.07418 0.28407,-2.66735 -0.36736,-3.71046 -0.62789,-1.0054 -0.86747,-2.54241 -0.5324,-3.41558 0.35712,-0.93064 -0.13063,-2.12856 -1.17869,-2.89493 -2.08365,-1.52359 -1.35561,-4.59656 1.089,-4.59656 2.34773,0 1.17802,-2.44302 -1.34796,-2.81532 -1.87175,-0.27587 -1.98704,-0.57366 -0.92167,-2.38065 0.96249,-1.6325 0.95601,-2.16011 -0.0309,-2.51754 -0.86461,-0.31314 -1.05391,-1.66955 -0.61556,-4.4108 0.50213,-3.14016 0.26149,-4.23026 -1.16391,-5.27254 -1.12665,-0.82382 -1.5525,-1.95087 -1.14167,-3.02149 0.55809,-1.45436 0.22567,-1.40166 -2.24189,0.35539 -1.59343,1.13462 -3.12562,2.06295 -3.40487,2.06295 -0.27926,0 -0.81907,-1.84278 -1.19959,-4.09506 -0.54722,-3.23896 -1.40182,-4.51395 -4.0879,-6.09878 -3.8855,-2.2925 -4.24516,-3.40188 -1.39604,-4.30616 4.62413,-1.46764 0.54666,-6.42871 -5.86564,-7.13674 -3.12641,-0.34521 -3.6687,-1.01449 -2.2283,-2.75007 0.87753,-1.05735 0.89371,-1.61891 0.0615,-2.13326 -1.48424,-0.91731 -0.33645,-5.61437 1.7642,-7.2196 2.44269,-1.8666 1.2067,-2.25859 -3.66804,-1.16331 -5.82337,1.30843 -7.01361,0.11819 -4.71082,-4.71081 1.58864,-3.33141 1.47423,-6.1368 -0.15724,-3.85566 -0.86248,1.20593 -6.10025,3.95938 -6.44412,3.38762 -0.13833,-0.22999 -0.82707,-1.31817 -1.53054,-2.41817 -0.70347,-1.1 -1.54345,-2.7875 -1.86663,-3.75 -0.59332,-1.76703 -2.4577,-2.3133 -3.68986,-1.08115 -0.36786,0.36787 0.0365,1.44819 0.89848,2.40072 1.82809,2.02001 0.71336,3.07696 -2.38942,2.26556 -2.56661,-0.67118 -3.04242,-5.06448 -0.64802,-5.9833 2.88649,-1.10764 -0.33257,-3.2574 -3.98912,-2.66402 -2.80935,0.45589 -3.61122,0.12763 -5.04918,-2.06697 -1.52492,-2.32732 -2.14601,-2.53913 -5.75387,-1.96221 l -4.04442,0.64673 0.65639,-3.28194 0.65639,-3.28195 -5.91701,0.66944 c -6.04905,0.68437 -8.50905,-0.38656 -6.19757,-2.69804 0.61208,-0.61208 1.11287,-1.97101 1.11287,-3.01986 0,-1.42973 -0.43796,-1.7229 -1.75,-1.1714 -0.9625,0.40457 -2.7625,0.95517 -4,1.22356 -2.37466,0.51502 -2.92207,1.72143 -1.25,2.75483 1.52105,0.94006 1.19362,2.5 -0.52475,2.5 -0.83861,0 -1.95248,-1.125 -2.47525,-2.5 -0.66746,-1.75555 -1.70231,-2.5 -3.47525,-2.5 -1.38861,0 -2.52475,0.4645 -2.52475,1.03222 0,1.87105 -4.38474,2.93048 -5.62294,1.35859 -0.67321,-0.85462 -1.83808,-1.15113 -2.90857,-0.74034 -1.55233,0.59568 -1.70285,0.27133 -1.15206,-2.48263 C 372.79877,262.75615 372.59792,262 371.475,262 370.66375,262 370,261.325 370,260.5 c 0,-1.65791 -1.7628,-1.93649 -3.85701,-0.60953 -0.85139,0.53946 -1.10573,1.65155 -0.68261,2.98468 0.44374,1.39813 0.24397,2.12485 -0.58412,2.12485 -0.75697,0 -0.56288,0.50866 0.48704,1.27638 1.09385,0.79985 1.49861,1.91989 1.08414,3 -0.85256,2.22174 -1.57302,2.17209 -5.94932,-0.40999 -3.00112,-1.7707 -4.0394,-1.9408 -6.10422,-1 -3.55762,1.62096 -4.28146,1.41965 -3.64512,-1.01374 0.49094,-1.87734 0.24635,-2.06824 -1.94516,-1.51821 -3.45994,0.86839 -4.04501,-0.11722 -2.06215,-3.47393 1.58765,-2.68768 1.58608,-2.96154 -0.0263,-4.57396 C 345.09496,255.66639 345,255.6848 345,257.61905 c 0,1.12619 -0.3375,2.38225 -0.75,2.79125 -0.4125,0.409 -1.20195,2.84071 -1.75434,5.40381 -0.67394,3.12714 -1.57859,4.77076 -2.75,4.99635 C 338.56632,271.03759 338,270.5136 338,269.1953 c 0,-1.07325 -0.86146,-2.56874 -1.91437,-3.32333 C 333.5128,264.02809 332.22007,258 334.39749,258 c 0.85602,0 2.29353,1.125 3.19447,2.5 1.70122,2.5964 3.40804,3.30142 3.40804,1.40773 0,-0.60075 -0.9,-2.23644 -2,-3.63486 -2.74954,-3.49548 -2.5278,-4.63266 0.75,-3.84624 1.5125,0.36289 5.9,0.75284 9.75,0.86658 6.51082,0.19234 6.98457,0.35716 6.77919,2.35857 -0.29754,2.89958 2.43239,5.26342 3.34176,2.89363 0.35454,-0.92392 0.13486,-2.1896 -0.48817,-2.81263 -2.44811,-2.44811 -0.70005,-2.87919 10.51445,-2.59285 8.24262,0.21045 12.0508,0.70096 13.02788,1.67803 1.05845,1.05846 1.7065,1.11022 2.77697,0.22181 1.69856,-1.40968 6.07764,-0.68246 14.70805,2.44254 4.67957,1.69443 6.32909,2.77639 6.33367,4.15441 0.004,1.1521 0.57872,1.72228 1.5062,1.49387 4.42203,-1.08902 8.98693,-0.23457 11.34505,2.12355 1.23978,1.23978 3.05281,2.10034 4.02895,1.91235 0.97614,-0.18799 2.52883,0.30425 3.4504,1.09386 0.92158,0.78961 2.3506,1.73804 3.1756,2.10762 0.825,0.36959 3.16139,1.67549 5.19197,2.902 2.03059,1.22652 6.18834,3.72284 9.23945,5.54738 5.04293,3.01564 23.66055,21.66219 25.9447,25.985 0.49336,0.93371 1.7019,2.59765 2.68564,3.69765 0.98374,1.1 3.01352,4.475 4.51064,7.5 1.49711,3.025 3.61153,6.77277 4.69872,8.32839 1.08718,1.55561 2.38813,4.65952 2.89099,6.89758 0.50286,2.23806 2.04683,6.54519 3.43104,9.5714 1.38422,3.02621 2.73963,6.67229 3.01202,8.10241 0.90873,4.77108 1.03225,30.56564 0.15823,33.04475 -0.474,1.3445 -1.29019,5.82313 -1.81374,9.95252 -0.65838,5.1928 -1.73506,8.69138 -3.4916,11.34569 -3.5094,5.30307 -11.44172,18.77692 -11.53295,19.58989 -0.10523,0.93777 -17.4141,16.13561 -21.67249,19.02926 l -3.5204,2.39217 0.67245,8.90776 c 0.36984,4.89927 1.54929,11.7046 2.62099,15.12297 1.07169,3.41836 1.95434,6.84773 1.96144,7.62082 0.007,0.77308 1.1379,2.88056 2.5129,4.68328 2.75611,3.61345 3.15611,5.87942 1.25,7.08116 -2.11566,1.33384 -13.25147,1.42848 -14.55625,0.1237 z M 275.03596,391.75 c 0.10525,-3.65833 10.2333,-10.88074 12.32498,-8.78906 1.03464,1.03464 -1.81241,5.03906 -3.58265,5.03906 -0.50145,0 -2.38668,1.125 -4.1894,2.5 -3.68321,2.80932 -4.60507,3.06242 -4.55293,1.25 z m 38.63696,-130.12186 c 0.49294,-3.03762 0.22366,-3.53325 -2.71651,-5 -3.81491,-1.90313 -7.09446,-2.09009 -8.68919,-0.49536 -0.62303,0.62303 -1.83803,0.86216 -2.7,0.53139 -1.74075,-0.66799 -2.1286,-4.19918 -0.56722,-5.16417 1.57572,-0.97385 1.16561,-2.50078 -0.5,-1.86163 -0.825,0.31659 -1.5,0.97746 -1.5,1.46862 0,1.18898 -3.74741,4.89301 -4.95031,4.89301 -0.52267,0 -1.37912,-0.76624 -1.90322,-1.70276 -0.80352,-1.43581 -1.20326,-1.495 -2.54969,-0.37756 -2.09756,1.74082 -4.91064,-0.35545 -4.0626,-3.02738 0.52045,-1.63977 0.007,-1.79736 -5.04795,-1.55014 -3.095,0.15135 -6.32045,-0.23167 -7.16765,-0.85116 -1.38502,-1.01275 -1.38173,-1.285 0.0326,-2.69934 1.43066,-1.43066 1.32759,-1.62117 -1.1391,-2.1054 -3.54549,-0.69601 -5.03965,0.75898 -3.42859,3.3387 0.86798,1.38985 0.90166,1.97504 0.11367,1.97504 -0.73813,0 -0.89598,1.19285 -0.46316,3.5 0.57917,3.08721 0.41168,3.5 -1.42009,3.5 -2.84259,0 -3.49973,-2.32894 -1.51279,-5.3614 0.90921,-1.38763 1.50591,-3.55689 1.32599,-4.82057 -0.43111,-3.02788 -3.78374,-3.69995 -4.51464,-0.905 -0.78856,3.01545 -5.80589,2.89586 -6.83955,-0.16303 -0.41818,-1.2375 -0.8139,-2.78074 -0.87938,-3.42942 -0.24904,-2.46689 -1.72239,-2.60145 -4.66481,-0.42602 -2.05631,1.52029 -3.43381,1.94106 -4.2377,1.29443 -0.65508,-0.52692 -2.70976,-1.28311 -4.56597,-1.68041 -3.71967,-0.79615 -5.08319,0.33565 -5.10977,4.24142 -0.0202,2.96388 -0.9002,2.84035 -5.05308,-0.70936 C 225.20069,240.82545 222,240.11718 222,242.5 c 0,0.825 0.46583,1.5 1.03518,1.5 0.70361,0 0.69407,0.63738 -0.0298,1.98988 -0.9049,1.69083 -1.36105,1.80497 -3.03518,0.75946 -1.56111,-0.97493 -2.38272,-0.97283 -3.95666,0.0101 -1.09254,0.6823 -2.33004,1.23366 -2.75,1.22524 -0.41996,-0.008 -0.0886,-0.45153 0.73643,-0.98469 0.825,-0.53316 1.02235,-0.97627 0.43856,-0.98469 -0.58379,-0.008 -2.06005,0.91504 -3.28057,2.05213 -2.54724,2.37311 -5.48026,2.21322 -5.96916,-0.32542 -0.23658,-1.22848 0.125,-1.55882 1.23852,-1.13152 1.1298,0.43354 1.57265,-0.002 1.57265,-1.54735 0,-1.49367 -0.53468,-2.06105 -1.75,-1.85699 -1.01948,0.17118 -1.75,-0.33232 -1.75,-1.20616 0,-0.825 1.0125,-1.6438 2.25,-1.81955 1.2375,-0.17575 2.25,0.16175 2.25,0.75 0,0.58825 0.49814,1.06955 1.10699,1.06955 0.60884,0 0.8535,-0.66059 0.54367,-1.46797 -0.80587,-2.10008 1.4315,-3.13661 2.53071,-1.17243 1.36141,2.43272 2.81863,1.98831 2.81863,-0.8596 0,-2.13224 0.47809,-2.51549 3.25,-2.60533 1.7875,-0.0579 5.275,-0.2651 7.75,-0.46037 2.475,-0.19527 6.075,-0.29679 8,-0.22559 1.925,0.0712 5.3,0.0694 7.5,-0.004 10.55313,-0.35208 13.84817,-0.19782 17.28384,0.80914 2.04389,0.59903 6.19116,1.48839 9.21616,1.97634 6.82435,1.10082 27.45164,5.57301 31.5,6.82951 1.65,0.51212 5.45001,1.5012 8.44447,2.19796 2.99445,0.69676 7.26945,2.06806 9.5,3.04732 2.23054,0.97925 6.30553,2.00853 9.05553,2.28728 2.75,0.27874 5.09838,0.53852 5.21862,0.57727 1.05093,0.33876 -1.56788,3.45828 -3.92759,4.67853 -2.73676,1.41523 -3.07355,1.393 -4.34701,-0.28698 -1.22929,-1.62171 -1.3839,-1.63862 -1.41222,-0.15441 -0.0175,0.91666 0.49787,1.84322 1.14525,2.05901 1.5405,0.5135 0.12576,2.77432 -1.73607,2.77432 C 321.5706,262 321,261.01005 321,259.5 c 0,-3.78564 -1.96631,-2.99535 -3.73214,1.5 -1.97436,5.02624 -4.37677,5.44601 -3.59494,0.62814 z"
       style="fill:#383931" />
  </g>
</svg>
