<?xml version="1.0" encoding="UTF-8" standalone="no"?>
<!-- Created with Inkscape (http://www.inkscape.org/) -->

<svg
   xmlns:dc="http://purl.org/dc/elements/1.1/"
   xmlns:cc="http://creativecommons.org/ns#"
   xmlns:rdf="http://www.w3.org/1999/02/22-rdf-syntax-ns#"
   xmlns:svg="http://www.w3.org/2000/svg"
   xmlns="http://www.w3.org/2000/svg"
   xmlns:sodipodi="http://sodipodi.sourceforge.net/DTD/sodipodi-0.dtd"
   xmlns:inkscape="http://www.inkscape.org/namespaces/inkscape"
   id="svg4136"
   version="1.1"
   inkscape:version="0.91 r13725"
   width="118.99126"
   height="119.71082"
   viewBox="0 0 118.99126 119.71082"
   sodipodi:docname="guaca.svg">
  <metadata
     id="metadata4142">
    <rdf:RDF>
      <cc:Work
         rdf:about="">
        <dc:format>image/svg+xml</dc:format>
        <dc:type
           rdf:resource="http://purl.org/dc/dcmitype/StillImage" />
        <dc:title />
      </cc:Work>
    </rdf:RDF>
  </metadata>
  <defs
     id="defs4140" />
  <sodipodi:namedview
     pagecolor="#ffffff"
     bordercolor="#666666"
     borderopacity="1"
     objecttolerance="10"
     gridtolerance="10"
     guidetolerance="10"
     inkscape:pageopacity="0"
     inkscape:pageshadow="2"
     inkscape:window-width="1855"
     inkscape:window-height="1056"
     id="namedview4138"
     showgrid="false"
     fit-margin-top="8"
     fit-margin-left="8"
     fit-margin-right="8"
     fit-margin-bottom="8"
     inkscape:zoom="2.0592105"
     inkscape:cx="-76.469808"
     inkscape:cy="42.606788"
     inkscape:window-x="65"
     inkscape:window-y="24"
     inkscape:window-maximized="1"
     inkscape:current-layer="g6490" />
  <g
     id="g6633"
     transform="translate(-19.708408,5.8745068)">
    <g
       transform="translate(-108.04,8.4392093)"
       id="g6490">
      <path
         inkscape:connector-curvature="0"
         id="path6504"
         d="m 188.72363,98.68877 c -0.27948,-0.27948 -3.16698,-0.76029 -6.41667,-1.06846 -6.56523,-0.62259 -17.30236,-4.49213 -21.90852,-7.895573 -1.65,-1.219169 -3.47996,-2.399181 -4.06657,-2.622249 -1.4954,-0.568644 -11.43343,-11.728794 -11.43343,-12.839439 0,-0.501979 -1.03386,-2.184715 -2.29746,-3.739414 -5.1015,-6.276734 -7.92786,-31.311541 -4.14476,-36.712678 0.79322,-1.132483 1.44222,-2.918316 1.44222,-3.968519 0,-1.050203 0.8723,-3.320879 1.93846,-5.045946 1.06615,-1.725068 2.17415,-4.478183 2.46223,-6.118034 0.47554,-2.70697 8.66446,-11.4815481 10.71522,-11.4815481 0.40768,0 1.37223,-0.630996 2.14344,-1.402212 4.3877,-4.387698 16.2672,-8.947747 23.97233,-9.2019902 4.25242,-0.1403155 8.19872,-0.5437668 8.76955,-0.8965583 0.57083,-0.3527916 2.49157,-0.1898118 4.26832,0.3621772 1.77675,0.5519891 5.32165,1.1866836 7.87756,1.4104322 5.32346,0.4660244 19.70916,9.3238071 24.34168,14.9880302 1.45747,1.782067 3.23335,3.962241 3.94639,4.844832 5.41974,6.70845 11.72899,29.562188 8.48385,30.730699 -0.51232,0.184476 -0.75649,0.634476 -0.54261,1 0.92301,1.577391 -1.3664,12.127541 -3.7651,17.350513 -1.43623,3.127258 -2.61132,6.000656 -2.61132,6.385329 0,0.384674 -1.0125,1.704389 -2.25,2.932701 -1.2375,1.228313 -3.6,4.142678 -5.25,6.476368 -4.12368,5.832358 -12.96807,11.442279 -20,12.685819 -7.14241,1.26308 -8.55646,1.69696 -9.59028,2.94264 -1.1176,1.34663 -5.05022,1.91739 -6.08453,0.88308 z M 177.62138,53.424392 c 7.52805,-4.815776 1.3553,-20.159906 -7.32424,-18.206497 -10.17616,2.290233 -10.81916,13.1039 -1.12957,18.996489 3.0545,1.857551 4.53081,1.719592 8.45381,-0.789992 z m -9.66885,-3.173389 c -1.49276,-1.492763 -1.82221,-2.831769 -1.41474,-5.75 0.8323,-5.960863 1.08857,-6.304093 4.70682,-6.304093 1.87492,0 3.86208,0.5625 4.41591,1.25 5.25544,6.523817 -1.92443,16.587655 -7.70799,10.804093 z m 50.38613,-9.049869 c 5.56248,-5.56248 0.45557,-18.033381 -6.79126,-16.584016 -9.58563,1.917126 -12.18947,9.578149 -5.63885,16.590612 3.50828,3.755626 8.67063,3.752887 12.43011,-0.0066 z m -11.20314,-1.676238 c -1.89888,-1.898874 -2.21079,-2.726199 -1.25137,-3.319153 0.86804,-0.536481 1.06592,-1.920058 0.61692,-4.313458 -0.62287,-3.320208 -0.48381,-3.562562 2.40881,-4.197887 6.43699,-1.413801 10.75396,4.705344 7.36589,10.440884 -0.9947,1.683896 -2.04902,3.096058 -2.34294,3.138139 -0.29391,0.04208 -1.37445,0.234978 -2.40119,0.428658 -1.03146,0.194573 -2.99859,-0.779649 -4.39612,-2.177183 z"
         style="fill:#fae89b" />
      <path
         inkscape:connector-curvature="0"
         id="path6502"
         d="m 188.72363,98.68877 c -0.27948,-0.27948 -3.16698,-0.76029 -6.41667,-1.06846 -6.56523,-0.62259 -17.30236,-4.49213 -21.90852,-7.895573 -1.65,-1.219169 -3.47996,-2.399181 -4.06657,-2.622249 -1.4954,-0.568644 -11.43343,-11.728794 -11.43343,-12.839439 0,-0.501979 -1.03386,-2.184715 -2.29746,-3.739414 -5.1015,-6.276734 -7.92786,-31.311541 -4.14476,-36.712678 0.79322,-1.132483 1.44222,-2.901965 1.44222,-3.932183 0,-1.030218 0.83769,-3.06759 1.86154,-4.527494 1.02384,-1.459903 2.27429,-4.45437 2.77877,-6.65437 1.93728,-8.448328 23.76426,-21.6199341 36.59137,-22.0812552 4.25242,-0.1529364 8.19872,-0.5667139 8.76955,-0.9195054 0.57083,-0.3527916 2.49157,-0.1898118 4.26832,0.3621772 1.77675,0.5519891 5.32165,1.1866836 7.87756,1.4104322 5.32346,0.4660244 19.70916,9.3238071 24.34168,14.9880302 1.45747,1.782067 3.23335,3.962241 3.94639,4.844832 5.41974,6.70845 11.72899,29.562188 8.48385,30.730699 -0.51232,0.184476 -0.75649,0.634476 -0.54261,1 0.92301,1.577391 -1.3664,12.127541 -3.7651,17.350513 -1.43623,3.127258 -2.61132,6.000656 -2.61132,6.385329 0,0.384674 -1.0125,1.704389 -2.25,2.932701 -1.2375,1.228313 -3.6,4.142678 -5.25,6.476368 -4.12368,5.832358 -12.96807,11.442279 -20,12.685819 -7.14241,1.26308 -8.55646,1.69696 -9.59028,2.94264 -1.1176,1.34663 -5.05022,1.91739 -6.08453,0.88308 z M 178.21082,53.93634 c 5.23861,-4.192257 4.64247,-14.573317 -1.05111,-18.303895 -3.7694,-2.469804 -9.89242,-1.35866 -13.44193,2.439306 -7.91064,8.464366 5.45633,23.096318 14.49304,15.864589 z m -10.72254,-4.640153 c -1.20161,-1.327772 -1.37947,-2.11126 -0.59002,-2.599167 0.62156,-0.384144 0.98837,-2.067011 0.81514,-3.739704 -0.61377,-5.92652 7.29009,-6.174343 8.77073,-0.275003 1.6601,6.614346 -4.73823,11.318487 -8.99585,6.613874 z m 51.21609,-7.539927 c 3.24793,-3.122201 3.35938,-11.69003 0.19587,-15.057433 -6.63776,-7.065574 -19.87762,0.293794 -17.11532,9.51354 2.50277,8.353494 11.07485,11.162254 16.91945,5.543893 z m -11.40094,-2.705449 c -1.37014,-1.543558 -1.55404,-2.268858 -0.65499,-2.583334 1.54412,-0.540113 1.6426,-4.477964 0.14934,-5.97123 -1.53122,-1.531221 2.26183,-2.642486 6.12407,-1.794195 4.5372,0.996537 5.27554,7.053046 1.33965,10.988938 -2.11384,2.113846 -4.72686,1.873435 -6.95807,-0.640179 z"
         style="fill:#fddf59" />
      <path
         inkscape:connector-curvature="0"
         id="path6500"
         d="m 188.72363,98.68877 c -0.27948,-0.27948 -3.16698,-0.76029 -6.41667,-1.06846 -7.2162,-0.68433 -17.36473,-4.57617 -23.40852,-8.976885 -5.06637,-3.689028 -14,-13.094261 -14,-14.739061 0,-0.593203 -0.92601,-2.064241 -2.05779,-3.268973 -4.62346,-4.921444 -7.93071,-30.754694 -4.59004,-35.853203 0.9063,-1.383201 1.64783,-3.247266 1.64783,-4.142365 0,-0.8951 0.86268,-2.724179 1.91708,-4.064621 1.05439,-1.340442 2.22698,-4.271515 2.60576,-6.513496 0.63044,-3.731521 3.38249,-7.864796 5.23661,-7.864796 0.4177,0 1.34888,-0.94382 2.06929,-2.097379 0.72041,-1.1535581 1.55156,-1.8556561 1.847,-1.5602171 0.29544,0.295439 1.46513,-0.327379 2.59932,-1.384038 5.475,-5.100731 17.99489,-10.2602648 25.22494,-10.3953698 3.85,-0.071943 7.5713,-0.4850438 8.26955,-0.918001 0.69825,-0.4329572 2.72325,-0.3355675 4.5,0.2164215 1.77675,0.5519891 5.32165,1.1866836 7.87756,1.4104322 5.32346,0.4660244 19.70916,9.3238071 24.34168,14.9880302 1.45747,1.782067 3.23335,3.962241 3.94639,4.844832 5.41974,6.70845 11.72899,29.562188 8.48385,30.730699 -0.51232,0.184476 -0.75649,0.634476 -0.54261,1 0.92301,1.577391 -1.3664,12.127541 -3.7651,17.350513 -1.43623,3.127258 -2.61132,6.000656 -2.61132,6.385329 0,0.384674 -1.0125,1.704389 -2.25,2.932701 -1.2375,1.228313 -3.6,4.142678 -5.25,6.476368 -4.12368,5.832358 -12.96807,11.442279 -20,12.685819 -7.14241,1.26308 -8.55646,1.69696 -9.59028,2.94264 -1.1176,1.34663 -5.05022,1.91739 -6.08453,0.88308 z m -8.97957,-45.645157 c 1.69561,-1.734313 2.84745,-3.534313 2.55964,-4 -0.28781,-0.465687 -0.10716,-0.846703 0.40145,-0.846703 1.34971,0 -0.37606,-8.356451 -1.82556,-8.839615 -0.89077,-0.296926 -0.84994,-0.628993 0.1557,-1.266123 1.05708,-0.669726 0.95698,-0.867075 -0.44587,-0.878949 -0.99496,-0.0084 -1.55353,-0.428696 -1.24127,-0.933941 1.61904,-2.619663 -11.82291,-2.944893 -14.7313,-0.356426 -5.73176,5.101265 -5.33713,11.459164 1.0558,17.010177 5.10058,4.428858 9.81393,4.466232 14.07141,0.11158 z m -12.25578,-3.747426 c -1.20161,-1.327772 -1.37947,-2.11126 -0.59002,-2.599167 0.62156,-0.384144 0.98837,-2.067011 0.81514,-3.739704 -0.61377,-5.92652 7.29009,-6.174343 8.77073,-0.275003 1.6601,6.614346 -4.73823,11.318487 -8.99585,6.613874 z m 50.00968,-5.996803 c 5.88195,-3.586744 5.04571,-16.484476 -1.25492,-19.355234 -1.70683,-0.777683 -3.48777,-0.721314 -6.59165,0.208632 -2.33912,0.700818 -4.38152,1.206374 -4.53866,1.123457 -1.06849,-0.563787 -3.49373,3.61164 -3.8905,6.698075 -1.34204,10.439602 7.56456,16.637039 16.27573,11.32507 z m -10.19453,-4.248573 c -1.37014,-1.543558 -1.55404,-2.268858 -0.65499,-2.583334 1.54412,-0.540113 1.6426,-4.477964 0.14934,-5.97123 -1.53122,-1.531221 2.26183,-2.642486 6.12407,-1.794195 4.5372,0.996537 5.27554,7.053046 1.33965,10.988938 -2.11384,2.113846 -4.72686,1.873435 -6.95807,-0.640179 z"
         style="fill:#fedc2d" />
      <path
         inkscape:connector-curvature="0"
         id="path6498"
         d="m 188.72363,98.68877 c -0.27948,-0.27948 -3.16698,-0.76029 -6.41667,-1.06846 -7.2162,-0.68433 -17.36473,-4.57617 -23.40852,-8.976885 -5.06637,-3.689028 -14,-13.094261 -14,-14.739061 0,-0.593203 -0.92601,-2.064241 -2.05779,-3.268973 -4.62346,-4.921444 -7.93071,-30.754694 -4.59004,-35.853203 0.9063,-1.383201 1.64783,-3.375644 1.64783,-4.42765 0,-1.052006 0.76138,-2.530339 1.69196,-3.285183 1.14966,-0.932556 1.45126,-0.971801 0.94098,-0.122445 -0.47725,0.794391 -0.16122,1.25 0.86706,1.25 0.88992,0 1.35207,0.430347 1.02699,0.956326 -0.32507,0.525979 -1.2016,0.722031 -1.94784,0.435671 -0.97666,-0.374778 -1.48403,0.688129 -1.81086,3.793674 -0.48333,4.592507 1.68077,11.814329 3.54029,11.814329 0.77322,0 0.76572,0.325697 -0.0257,1.117129 -1.99597,1.995967 6.27767,13.882871 9.6629,13.882871 0.57982,0 1.05423,0.370066 1.05423,0.822368 0,1.229991 7.92066,6.177632 9.88974,6.177632 0.94064,0 2.20543,0.495173 2.81064,1.100385 3.67953,3.679523 23.26644,-0.09019 29.86835,-5.748478 2.09438,-1.795024 2.36026,-2.309813 0.93127,-1.803075 -1.1,0.390074 -2.9,0.838662 -4,0.996863 -1.1,0.158201 -2,0.359568 -2,0.447483 0,0.08791 -0.82373,0.315914 -1.83051,0.506666 -1.27404,0.241388 -2.23809,-0.617868 -3.17124,-2.826511 -1.51234,-3.579516 0.42388,-5.368664 6.9027,-6.378363 1.70448,-0.265636 3.59045,-0.88677 4.19106,-1.380297 0.6006,-0.493526 1.3881,-0.601225 1.75,-0.23933 0.36189,0.361895 0.65799,0.13299 0.65799,-0.508676 0,-1.668712 2.52762,-1.440776 4.02456,0.362927 1.09362,1.317733 1.51933,0.971466 3.07355,-2.5 1.34833,-3.011581 2.38488,-4.030538 4.103,-4.033332 4.77457,-0.0078 8.44561,-3.402143 9.13732,-8.448711 1.1246,-8.20488 -2.87418,-14.061662 -9.15121,-13.403241 -1.47797,0.155029 -2.76129,-0.101207 -2.85181,-0.569416 -0.0905,-0.468208 -0.59024,-1.126599 -1.11047,-1.463091 -0.52023,-0.336491 -1.69522,-2.074303 -2.61109,-3.861803 -0.91587,-1.7875 -2.05487,-3.25 -2.53112,-3.25 -0.47625,0 -1.15289,-1.143404 -1.50364,-2.540898 -0.35075,-1.397494 -0.99752,-2.3185311 -1.43728,-2.0467481 -0.43975,0.271783 -2.38691,-0.81429 -4.32703,-2.413495 -1.94011,-1.599206 -4.82962,-3.176816 -6.42113,-3.5058 -3.83293,-0.792315 -5.83844,-1.295531 -6.14365,-1.541548 -0.1375,-0.110831 -0.5875,-0.296626 -1,-0.412878 -0.4125,-0.116251 -1.50236,-0.5446613 -2.42191,-0.9520221 -2.79216,-1.2369292 -5.26408,-1.3805663 -6.52573,-0.3791945 -0.7361,0.5842407 -1.83108,0.5960793 -2.84132,0.0307196 -2.81558,-1.5756759 4.17379,-3.7081836 12.20558,-3.7240123 3.94164,-0.00777 7.47541,-0.3228939 7.85282,-0.7002797 0.37741,-0.3773859 1.78807,-0.2672284 3.13479,0.2447942 2.71775,1.0332887 7.35136,1.9951012 11.70596,2.4298463 1.5731,0.157052 4.0481,1.2284637 5.5,2.3809149 1.4519,1.1524516 4.89827,3.5380566 7.65861,5.3013446 10.33733,6.6034251 18.74246,20.5453341 20.42761,33.8840511 0.59282,4.692447 0.58944,7.569218 -0.009,7.780615 -0.52235,0.184476 -0.77473,0.634476 -0.56085,1 0.92301,1.577391 -1.3664,12.127541 -3.7651,17.350513 -1.43637,3.127258 -2.61146,6.000656 -2.61146,6.385329 0,0.384674 -1.0125,1.704389 -2.25,2.932701 -1.2375,1.228313 -3.6,4.142678 -5.25,6.476368 -4.12368,5.832358 -12.96807,11.442279 -20,12.685819 -7.14241,1.26308 -8.55646,1.69696 -9.59028,2.94264 -1.1176,1.34663 -5.05022,1.91739 -6.08453,0.88308 z M 167.48828,49.296187 c -1.20161,-1.327772 -1.37947,-2.11126 -0.59002,-2.599167 0.62156,-0.384144 0.98837,-2.067011 0.81514,-3.739704 -0.61377,-5.92652 7.29009,-6.174343 8.77073,-0.275003 1.6601,6.614346 -4.73823,11.318487 -8.99585,6.613874 z m 39.81515,-10.245376 c -1.37014,-1.543558 -1.55404,-2.268858 -0.65499,-2.583334 1.54412,-0.540113 1.6426,-4.477964 0.14934,-5.97123 -1.53122,-1.531221 2.26183,-2.642486 6.12407,-1.794195 4.5372,0.996537 5.27554,7.053046 1.33965,10.988938 -2.11384,2.113846 -4.72686,1.873435 -6.95807,-0.640179 z"
         style="fill:#fcc80f" />
      <path
         inkscape:connector-curvature="0"
         id="path6496"
         d="m 187.42788,98.05712 c -1.63381,-0.44287 -4.78381,-0.90799 -7,-1.03359 -2.21619,-0.1256 -5.15444,-0.8102 -6.52944,-1.52133 -1.375,-0.71113 -3.0074,-1.29574 -3.62756,-1.29913 -0.62015,-0.0034 -1.68775,-0.68116 -2.37244,-1.50616 -0.68469,-0.825 -2.22594,-1.5 -3.42501,-1.5 -1.27376,0 -4.34088,-2.115852 -7.37755,-5.089411 -2.85859,-2.799176 -5.20407,-4.711676 -5.21218,-4.25 -0.008,0.461676 -0.57061,-0.09678 -1.25,-1.241021 -0.67939,-1.144238 -2.22444,-3.587444 -3.43344,-5.429347 -1.20899,-1.841903 -1.92696,-3.787737 -1.59549,-4.324076 0.33148,-0.536339 0.13415,-0.685588 -0.43852,-0.331664 -1.12214,0.693526 -3.49543,-1.656701 -3.97398,-3.935363 -0.59054,-2.81194 -1.14466,-4.899118 -1.30065,-4.899118 -0.0879,0 -0.29755,-0.9 -0.46586,-2 -0.16831,-1.1 -0.63631,-3.8 -1.03999,-6 -1.38889,-7.569194 -1.13294,-15.082738 0.6508,-19.10388 l 1.72827,-3.89612 -0.52841,4.5 c -1.19913,10.212031 7.59306,24.643434 18.48293,30.337679 1.74849,0.914277 4.56868,2.386156 6.26708,3.270843 2.14586,1.117763 5.27313,1.544822 10.25,1.39974 11.34919,-0.330844 11.56409,-0.35767 10.94104,-1.365786 -0.34276,-0.554588 0.31564,-0.720227 1.56459,-0.393619 1.186,0.310147 2.15637,0.251795 2.15637,-0.129672 0,-0.381467 0.95035,-0.765164 2.1119,-0.852661 1.16154,-0.0875 2.88448,-0.858258 3.82874,-1.712804 0.94426,-0.854546 2.17168,-1.55372 2.72759,-1.55372 0.5559,0 1.54917,-1.181719 2.20724,-2.626043 1.12691,-2.473289 1.06354,-2.588839 -1.08948,-1.986453 -4.77842,1.336938 -10.34318,1.65989 -11.78599,0.684002 -2.10041,-1.42068 -0.15469,-4.329019 3.60358,-5.386419 1.59303,-0.448202 4.77901,-1.39418 7.07996,-2.102174 3.63412,-1.118205 4.40501,-1.076847 5.8699,0.314913 1.26808,1.204777 1.80182,1.290583 2.15187,0.345943 0.25603,-0.690926 0.9466,-0.958898 1.53461,-0.595491 0.60761,0.375524 0.77953,0.192211 0.39828,-0.424671 -0.36896,-0.596976 -0.20614,-1.372599 0.3618,-1.723607 0.56794,-0.351008 0.81089,-0.996961 0.53989,-1.435451 -0.87334,-1.413101 3.2159,-4.276834 5.2054,-3.64539 2.14659,0.6813 5.56408,-2.427802 7.05588,-6.419159 1.24005,-3.317813 0.79161,-11.302408 -0.662,-11.786943 -0.6334,-0.211133 -0.94463,-0.718819 -0.69162,-1.128193 0.25301,-0.409373 -1.53415,-1.661721 -3.97146,-2.782994 -2.4373,-1.121274 -4.2363,-1.722897 -3.99777,-1.336941 0.23854,0.385956 -0.2215,0.701738 -1.02231,0.701738 -0.8008,0 -1.23387,-0.222138 -0.96237,-0.493639 0.2715,-0.271501 -0.4035,-1.122018 -1.5,-1.890037 -1.0965,-0.768019 -1.99364,-2.027671 -1.99364,-2.799226 0,-0.771555 -1.2375,-2.60298 -2.75,-4.069835 -1.5125,-1.466854 -2.15428,-2.337975 -1.42618,-1.935825 1.0873,0.600542 1.09621,0.366706 0.0498,-1.308779 -0.70068,-1.1219771 -1.63391,-1.8175091 -2.07382,-1.5456261 -0.43992,0.271884 -0.79985,-0.00878 -0.79985,-0.6237 0,-0.614919 -0.45,-0.839919 -1,-0.5 -0.55,0.339919 -1,0.213708 -1,-0.280468 0,-0.494176 -1.15038,-1.422648 -2.55639,-2.06327 -1.40601,-0.640623 -2.27256,-1.624004 -1.92567,-2.185292 0.3469,-0.561288 0.25977,-0.956084 -0.19361,-0.877326 -0.45338,0.078759 -1.04933,0.041694 -1.32433,-0.082367 -0.275,-0.124061 -1.625,-0.305636 -3,-0.403499 -1.375,-0.097864 -4.3,-0.8138469 -6.5,-1.5910732 -2.2,-0.7772262 -4.9,-1.3280398 -6,-1.2240303 -1.59938,0.1512282 -1.49923,-0.040668 0.5,-0.9579975 1.375,-0.6309082 2.725,-1.1180806 3,-1.0826052 0.275,0.035475 1.99381,0.2964491 3.81957,0.5799417 1.82577,0.2834926 4.60637,0.066861 6.17912,-0.4814029 2.01351,-0.7019113 3.50791,-0.6498542 5.05093,0.1759477 1.20526,0.6450355 3.92876,1.3723899 6.05221,1.616343 5.1157,0.5877167 10.3369,2.8382737 12.85486,5.5409827 1.12382,1.206282 2.04331,1.865644 2.04331,1.465251 0,-0.400394 0.5625,-0.255349 1.25,0.322322 0.6875,0.57767 2.49179,1.981446 4.00953,3.119501 1.51774,1.1380561 2.46071,2.5526871 2.09549,3.1436251 -0.39936,0.64617 -0.19272,0.783144 0.51841,0.343642 1.14508,-0.707697 5.02343,2.950731 5.0933,4.80448 0.0183,0.485487 0.94871,1.676662 2.06758,2.647056 1.11888,0.970393 1.92791,2.148176 1.79786,2.617295 -0.13005,0.469119 0.76365,2.765444 1.98601,5.102944 1.22236,2.3375 1.97677,4.25 1.67646,4.25 -0.3003,0 0.15211,1.35 1.00536,3 0.85325,1.65 1.12122,3 0.59549,3 -0.56465,0 -0.63757,1.125553 -0.17816,2.75 0.42774,1.5125 0.60159,4.1 0.38634,5.75 -0.21526,1.65 -0.55333,4.973663 -0.75128,7.385919 -0.19795,2.412255 -0.82757,5.337255 -1.39915,6.5 -0.57157,1.162744 -2.15154,4.631099 -3.51104,7.707454 -1.35949,3.076356 -3.08352,6.226356 -3.83117,7 -0.74765,0.773645 -2.81099,3.621277 -4.5852,6.328072 -1.77421,2.706794 -3.22583,4.55044 -3.22583,4.09699 0,-0.45345 -0.7875,0.0319 -1.75,1.078555 -0.9625,1.046656 -2.39566,2.04323 -3.1848,2.21461 -0.78914,0.17138 -1.92647,0.983996 -2.5274,1.805813 -0.60092,0.821817 -1.98026,1.659667 -3.0652,1.861887 -1.08493,0.20222 -1.9726,0.43961 -1.9726,0.52752 0,0.0879 -1.125,0.34741 -2.5,0.57666 -4.05133,0.67545 -5.38638,1.01098 -7.5,1.88487 -6.94386,2.87102 -8.19586,3.14399 -10.97056,2.39186 z m -19.9396,-48.760933 c -1.20161,-1.327772 -1.37947,-2.11126 -0.59002,-2.599167 0.62156,-0.384144 0.98837,-2.067011 0.81514,-3.739704 -0.61377,-5.92652 7.29009,-6.174343 8.77073,-0.275003 1.6601,6.614346 -4.73823,11.318487 -8.99585,6.613874 z m 39.81515,-10.245376 c -1.37014,-1.543558 -1.55404,-2.268858 -0.65499,-2.583334 1.54412,-0.540113 1.6426,-4.477964 0.14934,-5.97123 -1.53122,-1.531221 2.26183,-2.642486 6.12407,-1.794195 4.5372,0.996537 5.27554,7.053046 1.33965,10.988938 -2.11384,2.113846 -4.72686,1.873435 -6.95807,-0.640179 z"
         style="fill:#fcb402" />
      <path
         inkscape:connector-curvature="0"
         id="path6494"
         d="m 187.8921,59.689267 c -1.76919,-2.131742 1.68742,-5.492357 5.64924,-5.492357 1.33174,0 3.95512,-0.640856 5.82974,-1.424124 3.75953,-1.570831 6.34428,-0.147115 5.19068,2.859104 -1.52338,3.969873 -14.18467,7.051615 -16.66966,4.057377 z m -20.40382,-10.39308 c -1.20161,-1.327772 -1.37947,-2.11126 -0.59002,-2.599167 0.62156,-0.384144 0.98837,-2.067011 0.81514,-3.739704 -0.61377,-5.92652 7.29009,-6.174343 8.77073,-0.275003 1.6601,6.614346 -4.73823,11.318487 -8.99585,6.613874 z m 39.81515,-10.245376 c -1.37014,-1.543558 -1.55404,-2.268858 -0.65499,-2.583334 1.54412,-0.540113 1.6426,-4.477964 0.14934,-5.97123 -1.53122,-1.531221 2.26183,-2.642486 6.12407,-1.794195 4.5372,0.996537 5.27554,7.053046 1.33965,10.988938 -2.11384,2.113846 -4.72686,1.873435 -6.95807,-0.640179 z"
         style="fill:#847d30" />
      <path
         inkscape:connector-curvature="0"
         id="path6492"
         d="m 189.29576,59.732198 c -2.55008,-1.882526 -0.89735,-3.498586 4.77225,-4.666379 2.38173,-0.490577 5.36514,-1.124602 6.62979,-1.408943 6.76897,-1.521918 4.50567,2.864253 -2.6113,5.060571 -3.12843,0.965446 -5.95927,1.903865 -6.29074,2.085377 -0.33147,0.181511 -1.45647,-0.300271 -2.5,-1.070626 z M 169.07327,49.606815 c -1.79617,-1.258087 -2.02685,-1.88328 -1.10483,-2.994254 0.64094,-0.772287 0.94302,-2.567212 0.67128,-3.988721 -0.56897,-2.976383 0.98807,-3.962659 4.76096,-3.015725 2.07634,0.52113 2.49776,1.225289 2.49776,4.173588 0,6.730086 -2.49408,8.858722 -6.82517,5.825112 z m 39.00482,-10.693443 c -0.65887,-0.793884 -0.72145,-1.839807 -0.16406,-2.741693 0.49566,-0.801984 0.63401,-2.522692 0.30745,-3.823795 -0.76802,-3.060067 1.1463,-4.231925 4.82072,-2.951014 2.18334,0.761117 2.85624,1.626989 2.85624,3.675359 0,5.37517 -5.06646,9.159385 -7.82035,5.841143 z"
         style="fill:#4c4b42" />
    </g>
    <path
       inkscape:connector-curvature="0"
       id="path6629"
       d="m 62.81425,63.474096 c -1.939092,-0.787075 -4.55697,-2.792115 -5.974417,-4.575822 -4.785004,-6.021422 -2.580456,-12.989699 4.745382,-14.999514 2.804244,-0.769333 5.15073,-0.155635 7.380624,1.93032 2.458642,2.29994 3.875523,5.649773 3.882763,9.179749 0.0071,3.457067 -1.147116,5.515332 -4.089437,7.292577 -2.544041,1.536674 -4.229217,1.86909 -5.944915,1.17269 z m 2.582052,-3.417534 c 0.904135,-0.410426 2.345582,-1.741613 2.887886,-2.666984 1.367814,-2.333998 1.541398,-5.379052 0.440916,-7.734629 -1.085423,-2.323339 -1.991755,-2.822364 -5.361804,-2.952197 -2.711695,-0.10447 -3.195084,0.0706 -3.837618,1.389838 -0.495629,1.017618 -1.07632,4.150794 -1.195759,6.451833 -0.07502,1.445363 -0.0486,1.602645 0.430337,2.561075 1.311845,2.625233 4.363897,3.982489 6.636042,2.951064 z"
       style="opacity:1;fill:#f9f9f9;fill-opacity:1;stroke:none;stroke-width:0.26509503;stroke-miterlimit:4;stroke-dasharray:none;stroke-dashoffset:0;stroke-opacity:1" />
    <path
       inkscape:connector-curvature="0"
       id="path6631"
       d="m 102.87365,52.290433 c -2.4053,-0.271905 -4.856149,-2.054418 -6.69257,-4.867533 -3.818377,-5.849167 -1.619817,-11.547676 5.31692,-13.781074 3.55699,-1.145233 5.47363,-0.756679 7.83012,1.587368 2.07227,2.061335 3.20843,4.943748 3.2192,8.167069 0.0125,3.734022 -1.65054,6.4563 -4.93376,8.076295 -1.58361,0.781379 -2.96072,1.019002 -4.73991,0.817875 z m 2.45797,-2.438198 c 0.87669,-0.194684 0.89964,-0.21663 2.12487,-2.031844 1.59067,-2.356637 2.01299,-3.635653 1.90418,-5.766923 -0.0932,-1.825101 -0.69204,-3.146314 -1.96438,-4.333836 -1.05667,-0.98623 -2.05708,-1.467135 -3.60129,-1.731162 -1.0499,-0.17951 -1.43818,-0.16682 -2.7471,0.08978 -2.81615,0.55208 -3.147947,0.982806 -2.7402,3.557219 0.149329,0.942822 0.271506,2.247263 0.271506,2.898758 0,1.135246 -0.02858,1.217556 -0.686774,1.978043 -0.377726,0.436428 -0.686775,0.830516 -0.686775,0.875751 0,0.665974 2.289714,3.17081 3.661223,4.005204 1.41391,0.860186 2.26441,0.947622 4.46474,0.459008 z"
       style="opacity:1;fill:#f9f9f9;fill-opacity:1;stroke:none;stroke-width:0.26509503;stroke-miterlimit:4;stroke-dasharray:none;stroke-dashoffset:0;stroke-opacity:1" />
  </g>
</svg>
