<?xml version="1.0" encoding="UTF-8" standalone="no"?>
<svg
   xmlns:dc="http://purl.org/dc/elements/1.1/"
   xmlns:cc="http://creativecommons.org/ns#"
   xmlns:rdf="http://www.w3.org/1999/02/22-rdf-syntax-ns#"
   xmlns:svg="http://www.w3.org/2000/svg"
   xmlns="http://www.w3.org/2000/svg"
   viewBox="0 0 800 600"
   height="600"
   width="800"
   version="1.1"
   id="svg4762">
  <metadata
     id="metadata4768">
    <rdf:RDF>
      <cc:Work
         rdf:about="">
        <dc:format>image/svg+xml</dc:format>
        <dc:type
           rdf:resource="http://purl.org/dc/dcmitype/StillImage" />
        <dc:title></dc:title>
      </cc:Work>
    </rdf:RDF>
  </metadata>
  <defs
     id="defs4766" />
  <g
     id="g9684">
    <path
       id="path9714"
       d="m 325.69626,495.36292 c -0.2105,-0.21049 -7.18818,-0.4006 -15.50597,-0.42247 -15.05249,-0.0396 -15.13275,-0.0518 -17.15676,-2.62496 -2.37262,-3.01629 -2.62758,-7.1213 -0.6133,-9.87436 1.31021,-1.79075 2.91768,-1.95889 20.75,-2.17033 10.63137,-0.12605 27.37126,-0.35105 37.19975,-0.5 9.8285,-0.14894 23.5535,0.0753 30.5,0.49823 8.26218,0.50308 15.99141,0.36203 22.34979,-0.40785 l 9.71976,-1.17688 -0.40692,-10.55702 c -0.44096,-11.44035 -0.6969,-11.8995 -6.72086,-12.05699 -2.5058,-0.0655 -9.06735,-1.93784 -26.36603,-7.52348 -6.23371,-2.01282 -18.4661,-9.14511 -26.7286,-15.58454 -1.53059,-1.19287 -4.58213,-4.70987 -6.7812,-7.81556 -9.92629,-14.01863 -9.92602,-14.01838 -15.52596,-14.08561 -8.27168,-0.0993 -19.41058,-3.47821 -27.12972,-8.22964 -11.55259,-7.11105 -21.87509,-20.31955 -23.70418,-30.33146 -0.40192,-2.2 -1.4405,-6.19178 -2.30797,-8.87061 -1.35936,-4.19789 -1.40597,-5.99344 -0.33744,-13 3.44805,-22.6097 18.8178,-39.69012 40.13531,-44.60242 2.98872,-0.68871 6.46771,-1.65152 7.73109,-2.13958 1.26338,-0.48807 3.77448,-0.88739 5.58021,-0.88739 3.08351,0 3.4984,-0.44088 6.82268,-7.25 4.18186,-8.56571 6.41098,-14.13076 7.30794,-18.24441 0.3591,-1.64692 1.15507,-3.59946 1.76881,-4.33899 4.49871,-5.4206 10.99837,-30.11227 14.25845,-54.1666 0.85722,-6.325 2.27845,-15.55 3.15828,-20.5 0.87983,-4.95 1.94494,-12.6 2.36689,-17 1.30741,-13.63303 2.70215,-19.25389 6.38738,-25.74121 4.70369,-8.28018 7.84115,-11.7184 15.05231,-16.49521 10.78658,-7.14524 10.838,-7.15913 27.6241,-7.46385 16.14222,-0.29304 23.99884,0.84798 28.8759,4.19362 1.375,0.94325 3.63201,1.98771 5.01557,2.32104 3.19806,0.77046 16.13256,15.15343 18.7712,20.87329 1.09412,2.37178 3.55809,7.68732 5.47547,11.81232 3.85984,8.30395 5.52916,12.87955 8.75594,24 4.51632,15.56461 5.89505,20.65749 7.03863,26 0.64751,3.025 1.77448,6.85 2.50439,8.5 0.7299,1.65 2.10781,5.475 3.06202,8.5 0.95421,3.025 3.1943,7.63704 4.97797,10.24898 1.78367,2.61194 3.78925,6.43694 4.45684,8.5 0.66759,2.06306 3.5545,6.45102 6.41534,9.75102 5.04065,5.81442 13.52663,18.8843 13.52663,20.83336 0,0.5278 1.5413,3.2817 3.42511,6.11978 3.9017,5.87815 8.57489,15.66704 8.57489,17.96173 0,0.84866 1.0981,4.815 2.44021,8.81408 4.34942,12.95985 5.61724,21.65439 5.83192,39.99437 0.21238,18.14278 -0.3001,22.1476 -4.76107,37.20611 -3.26892,11.03463 -4.40614,13.25973 -9.99028,19.54718 -2.44141,2.74889 -6.29171,7.50601 -8.55623,10.57138 -2.26452,3.06537 -4.87044,5.85051 -5.79093,6.18919 -0.92049,0.33869 -4.59862,2.51035 -8.17362,4.82591 -9.3988,6.0877 -18.87165,9.94244 -41.75,16.98913 -0.99896,0.30769 -1.84305,6.53205 -1.42693,10.52224 0.033,0.31595 0.15545,3.52583 0.27223,7.13305 l 0.21232,6.55859 8.74107,0.6838 c 5.5295,0.43256 10.28009,0.26939 12.92987,-0.44413 2.31188,-0.62252 5.60756,-0.80213 7.35512,-0.40083 1.74148,0.3999 5.52477,0.7769 8.40731,0.83778 6.37448,0.13463 8.65901,2.0268 8.65901,7.17183 0,2.59996 -0.66167,4.17892 -2.31078,5.51429 -2.08684,1.68982 -4.45642,1.88727 -24.45,2.03736 -12.17657,0.0914 -29.11422,0.13603 -37.63922,0.0991 -27.12363,-0.11735 -54.57757,-0.0486 -87.71051,0.21958 -17.71578,0.1434 -32.38274,0.0885 -32.59323,-0.122 z M 446.25,479.01101 c 1.96608,-0.0124 2.28578,-4.5916 1.10754,-15.86432 L 446.71509,457 l -8.60755,0.003 -8.60754,0.003 -0.31086,10.93685 -0.31087,10.93685 4.31087,0.42809 c 2.37097,0.23545 5.88586,0.26762 7.81086,0.0715 1.925,-0.19614 4.2875,-0.36157 5.25,-0.36762 z"
       style="fill:#eeeed8" />
    <path
       id="path9712"
       d="m 348.79018,494.45685 c -0.33738,-0.33738 -11.86221,-0.75986 -25.61073,-0.93884 -13.74853,-0.17899 -25.87001,-0.60241 -26.93663,-0.94094 -1.06662,-0.33853 -2.47313,-1.78714 -3.12559,-3.21912 -0.96732,-2.12303 -0.89657,-3.04577 0.38326,-4.99904 1.55909,-2.37948 1.7007,-2.39691 21.28452,-2.61992 10.84325,-0.12347 35.01499,-0.0806 53.71499,0.0952 23.79941,0.22375 35.70992,-0.0412 39.69941,-0.88315 l 5.6994,-1.20281 -0.0826,-11.70232 -0.0826,-11.70232 -4.38113,-1.17178 C 406.94281,454.5273 403.86186,454 402.50589,454 c -1.35598,0 -4.16202,-0.63521 -6.23565,-1.41158 -2.07363,-0.77638 -7.84184,-2.61942 -12.81824,-4.09566 -5.80062,-1.72075 -11.00476,-4.06834 -14.5,-6.54098 -2.9986,-2.12129 -7.81386,-5.23173 -10.70058,-6.91209 -3.6149,-2.10422 -7.03878,-5.42663 -11,-10.67396 -3.16328,-4.19032 -6.87642,-9.10761 -8.25142,-10.9273 -2.24884,-2.97613 -3.15303,-3.37297 -9,-3.95001 -15.49536,-1.52924 -25.1299,-5.73442 -35.34368,-15.42642 -7.33871,-6.9638 -12.32212,-15.38601 -14.16066,-23.93217 -0.78445,-3.64641 -1.82695,-7.97983 -2.31667,-9.62983 -1.16542,-3.92664 1.28171,-18.50464 4.01875,-23.94045 5.97829,-11.87301 14.9312,-21.26756 24.31075,-25.50999 C 312.2273,308.46291 329.15524,304 333.24767,304 334.93869,304 336,303.46075 336,302.60155 c 0,-0.76915 1.32124,-3.91018 2.9361,-6.98006 1.61485,-3.06989 4.04004,-8.85308 5.3893,-12.85155 1.34927,-3.99847 3.1303,-8.61994 3.95784,-10.26994 3.58606,-7.15011 5.54634,-12.47937 7.17272,-19.5 0.95558,-4.125 2.35413,-10.02753 3.10788,-13.11674 0.75375,-3.0892 2.08895,-11.4142 2.96712,-18.5 0.87816,-7.08579 2.28546,-16.48326 3.12732,-20.88326 0.84187,-4.4 1.89108,-11.825 2.33158,-16.5 1.29054,-13.69648 2.64772,-19.34005 6.40481,-26.63307 4.67847,-9.08155 7.59652,-12.23512 16.82687,-18.18498 l 7.72155,-4.97728 12.77845,-0.82122 c 16.91421,-1.08702 24.88397,-0.20964 31.77846,3.49842 1.65,0.88742 4.20513,2.06453 5.67806,2.61581 3.47274,1.29975 16.16833,15.2542 18.36489,20.18591 0.9349,2.09903 2.95481,6.51641 4.48871,9.81641 5.11603,11.00659 7.91706,17.96267 8.85882,22 0.51318,2.2 1.39192,5.35 1.95276,7 1.15636,3.40205 4.33983,15.07172 6.54717,24 1.99437,8.06684 7.39649,22.60705 9.09755,24.48669 0.75523,0.83453 2.77523,4.64228 4.48887,8.46166 1.71364,3.81939 5.03821,9.21849 7.38794,11.998 7.83758,9.27115 11.22516,14.83694 22.24811,36.55365 1.8146,3.575 3.31903,7.15395 3.34319,7.95323 0.0242,0.79928 1.33289,5.74928 2.90829,11 1.57539,5.25072 3.36561,11.79677 3.97826,14.54677 1.51908,6.81869 1.82787,37.682 0.44523,44.5 -2.17641,10.73223 -7.22232,25.4421 -9.98527,29.10916 C 525.18209,420.55965 514.6915,433 513.84266,433 c -0.51692,0 -3.73049,1.85459 -7.14126,4.12132 -9.33145,6.20148 -26.25074,13.30682 -37.83531,15.88913 l -5.63391,1.25585 -0.55901,6.61685 c -0.30746,3.63927 -0.2472,9.76685 0.13391,13.61685 l 0.69292,7 8,0.75152 c 4.72244,0.44363 9.99275,0.33552 12.864,-0.26389 6.36052,-1.32783 20.57841,-0.21038 22.886,1.79871 2.17433,1.89307 2.26003,5.56078 0.17857,7.64223 -1.26129,1.2613 -4.27099,1.59679 -15.25,1.69995 -7.52321,0.0707 -17.27857,0.27936 -21.67857,0.46373 -15.46097,0.64785 -19.39905,0.66697 -67,0.32523 -26.4,-0.18952 -49.37169,-0.008 -51.0482,0.4041 -1.67651,0.41178 -3.32424,0.47265 -3.66162,0.13527 z m 97.10602,-14.15467 3.39619,-0.55513 -0.61688,-11.51088 c -0.33929,-6.33098 -0.74258,-11.63427 -0.8962,-11.78508 -0.15362,-0.15081 -4.55431,-0.40901 -9.77931,-0.57377 l -9.5,-0.29956 -0.27946,12.65512 -0.27946,12.65513 4.77946,0.40632 c 2.6287,0.22347 5.90446,0.21656 7.27946,-0.0154 1.375,-0.23191 4.02829,-0.67147 5.8962,-0.97679 z M 315.39535,376.75 c 4.1192,-6.42977 0.20714,-16.75 -6.34938,-16.75 -3.47309,0 -7.88693,3.39215 -9.54502,7.33558 -1.97553,4.6984 0.32008,10.59796 4.14374,10.64911 0.82783,0.0111 0.87777,-1.02272 0.18042,-3.73469 -0.53034,-2.0625 -1.20199,-4.71846 -1.49255,-5.90213 C 301.73927,365.93098 304.9869,362 307.57692,362 310.19866,362 315,367.55892 315,370.59434 315,373.53618 312.51476,377 310.40403,377 c -0.7073,0 -1.56411,0.45 -1.90403,1 -0.36018,0.58279 0.6486,1 2.41793,1 2.05464,0 3.50189,-0.72727 4.47742,-2.25 z m 26.64782,-29.58387 c 1.7161,-1.38962 2.37584,-3.17364 2.72337,-7.36444 0.40918,-4.93416 0.20683,-5.70694 -1.87646,-7.16613 -2.61755,-1.8334 -9.0302,-2.16612 -11.92186,-0.61855 -2.17598,1.16455 -4.36999,8.14177 -3.46089,11.00607 1.68428,5.3067 10.12703,7.71308 14.53584,4.14305 z m -7.62151,-0.93144 C 333.07621,345.31801 330,339.15032 330,337.36941 c 0,-0.72781 1.12766,-2.06217 2.5059,-2.96523 2.13605,-1.39959 2.96023,-1.45374 5.58413,-0.36689 5.66595,2.34691 6.1617,8.74693 0.88876,11.47368 -3.31467,1.71408 -3.14343,1.68689 -4.55713,0.72372 z"
       style="fill:#d6d5ab" />
    <path
       id="path9710"
       d="m 447.90368,493.57035 c -0.2363,-0.23631 -3.1238,-0.52331 -6.41666,-0.63779 -3.29286,-0.11447 -7.49707,-0.64672 -9.34269,-1.18277 -2.37266,-0.68913 -4.00907,-0.62495 -5.58615,0.21908 -1.48347,0.79392 -5.04838,1.01046 -10.64433,0.64654 C 409.2507,492.1821 362.68231,491.91012 351,492.2363 c -1.375,0.0384 -4.525,-0.0424 -7,-0.17957 -2.475,-0.13715 -10.35,-0.2652 -17.5,-0.28455 -25.77845,-0.0698 -29.17336,-0.25621 -30.91011,-1.69758 -0.92752,-0.76977 -1.55219,-2.33897 -1.38815,-3.48709 0.28911,-2.02349 0.97297,-2.10569 22.29826,-2.68044 12.1,-0.32612 36.85753,-0.41084 55.01673,-0.18829 28.46615,0.34888 33.42791,0.19026 36,-1.1509 1.6408,-0.85556 3.99394,-1.55833 5.2292,-1.56172 2.22807,-0.006 2.24263,-0.10361 1.82981,-12.25616 -0.22887,-6.7375 -0.45204,-12.54684 -0.49594,-12.90965 -0.0439,-0.36281 -3.3423,-1.20188 -7.3298,-1.8646 -3.9875,-0.66272 -12.72796,-2.97077 -19.42324,-5.129 -9.51917,-3.0685 -13.65698,-5.00574 -18.97859,-8.8854 C 364.60523,437.23261 361.15266,435 360.67578,435 c -2.9805,0 -10.38384,-8.14072 -20.56108,-22.60899 -2.22552,-3.16388 -2.76137,-3.39216 -8,-3.40815 -13.73487,-0.0419 -29.41981,-7.14451 -39.2679,-17.78162 -6.55944,-7.08498 -9.84333,-13.71432 -12.7313,-25.70124 -2.04585,-8.49161 -2.08573,-9.42366 -0.70583,-16.5 3.3379,-17.11731 13.9089,-31.18588 28.17265,-37.49399 6.29611,-2.78444 19.64259,-6.27265 25.72587,-6.72367 3.62678,-0.26889 3.92989,-0.56817 6.3628,-6.28234 1.40504,-3.3 3.89785,-9.825 5.53959,-14.5 1.64173,-4.675 3.34707,-8.95 3.78964,-9.5 1.92987,-2.39834 8.01331,-19.81991 8.94993,-25.63051 0.56468,-3.50322 1.5145,-7.94449 2.11069,-9.86949 1.22388,-3.95168 2.127,-9.78354 4.4135,-28.5 0.87348,-7.15 2.07601,-14.51409 2.67229,-16.36463 0.59627,-1.85055 1.07725,-5.67555 1.06883,-8.5 -0.0225,-7.56474 3.12415,-21.3974 6.29182,-27.6584 3.75206,-7.41607 6.99874,-11.1627 13.80441,-15.93008 C 397.16686,135.84382 399.31686,135 406.26668,135 c 3.5013,0 8.93953,-0.47574 12.08496,-1.05721 7.01569,-1.29692 20.1323,0.84149 24.57775,4.00693 1.58364,1.12766 3.61896,2.05028 4.52293,2.05028 2.86692,0 15.3061,13.97765 18.68861,21 7.63145,15.84349 12.86141,28.10047 12.85412,30.12505 -0.003,0.75622 0.6578,3.39995 1.46782,5.87495 1.6982,5.18884 5.5684,18.77384 7.8344,27.5 2.31079,8.89864 6.66489,20.63812 8.73042,23.53889 0.99861,1.40241 2.98322,5.18993 4.41026,8.41671 1.42703,3.22679 4.53061,8.15683 6.89682,10.95564 5.78694,6.84492 10.52761,13.85401 14.26361,21.08876 1.70411,3.3 4.66829,8.925 6.58708,12.5 3.08389,5.74578 5.4921,12.74468 10.49457,30.5 2.96623,10.52808 3.963,37.32749 1.84108,49.5 -1.66888,9.57365 -7.11654,25.79266 -9.9611,29.65662 -9.62511,13.07442 -16.69371,20.74655 -21.72536,23.58031 -2.93406,1.65241 -6.23465,3.76338 -7.33465,4.69102 -3.63734,3.06742 -21.47116,10.0857 -34.63247,13.62918 l -5.63247,1.51645 -0.49903,6.21321 c -0.74578,9.28547 1.10789,22.69778 3.14727,22.77223 0.88919,0.0325 3.4167,0.298 5.6167,0.59007 4.729,0.62783 7.41502,0.63718 22,0.0766 6.05,-0.23254 11.7875,-0.0251 12.75,0.46095 1.98462,1.00223 2.36049,5.31804 0.56007,6.43076 -0.65447,0.40449 -10.21881,0.80599 -21.25411,0.89224 -13.08661,0.10228 -20.82234,0.56258 -22.24432,1.3236 -2.04362,1.09371 -13.46694,1.67814 -14.40796,0.73713 z m -6.73996,-10.48449 c 1.33839,-1.05278 3.76158,-2.06528 5.38486,-2.25 2.78708,-0.31716 2.96649,-0.61426 3.22216,-5.33586 0.1489,-2.75 -0.0761,-8.375 -0.5,-12.5 l -0.77074,-7.5 -10.83701,-0.19643 -10.837,-0.19642 0.28276,12.69642 c 0.15553,6.98304 0.46783,13.25893 0.694,13.94643 0.22618,0.6875 1.82558,1.25689 3.55424,1.26531 1.72865,0.008 3.81801,0.45153 4.64301,0.98469 2.05659,1.32907 2.38609,1.27074 5.16372,-0.91414 z M 313.4552,379.37882 c 2.1569,-0.82768 4.5457,-5.60373 4.54106,-9.07916 -0.005,-3.67472 -3.34174,-9.04432 -6.52045,-10.49263 -5.14969,-2.34636 -13.4626,4.64614 -13.47207,11.33219 -0.002,1.45156 0.79459,3.62511 1.77032,4.83009 2.3393,2.88891 10.03798,4.80752 13.68114,3.40951 z M 305.4175,375.25 c -0.28585,-0.9625 -1.18474,-3.04663 -1.99752,-4.63141 -1.31243,-2.55898 -1.30413,-3.14645 0.0742,-5.25 2.08112,-3.1762 5.04347,-2.98482 8.58277,0.55449 3.56467,3.56466 3.66576,5.42515 0.46853,8.62237 -2.86264,2.86265 -6.38366,3.21068 -7.12795,0.70455 z m 37.94721,-28.5 c 2.01751,-3.21758 2.84264,-9.07442 1.70135,-12.07624 -1.14713,-3.01719 -7.48533,-5.17986 -12.16712,-4.15156 -5.97802,1.31299 -8.0601,11.5704 -3.25292,16.02555 3.68054,3.41101 11.63319,3.52825 13.71869,0.20225 z m -10.79147,-3.90364 C 329.86221,337.41198 331.06818,334 335.7,334 c 5.43237,0 8.34328,7.45542 4.07749,10.4433 -3.36176,2.35466 -5.46557,1.88832 -7.20425,-1.59694 z"
       style="fill:#fad85c" />
    <path
       id="path9708"
       d="m 447.90368,493.57035 c -0.2363,-0.23631 -3.1238,-0.52331 -6.41666,-0.63779 -3.29286,-0.11447 -7.49707,-0.64672 -9.34269,-1.18277 -2.37266,-0.68913 -4.00907,-0.62495 -5.58615,0.21908 -1.48347,0.79392 -5.04838,1.01046 -10.64433,0.64654 C 409.2507,492.1821 362.68231,491.91012 351,492.2363 c -1.375,0.0384 -4.525,-0.0424 -7,-0.17957 -2.475,-0.13715 -10.35,-0.2652 -17.5,-0.28455 -25.77845,-0.0698 -29.17336,-0.25621 -30.91011,-1.69758 -0.92752,-0.76977 -1.55219,-2.33897 -1.38815,-3.48709 0.28911,-2.02349 0.97297,-2.10569 22.29826,-2.68044 12.1,-0.32612 36.85753,-0.41084 55.01673,-0.18829 28.46615,0.34888 33.42791,0.19026 36,-1.1509 1.6408,-0.85556 3.99394,-1.55833 5.2292,-1.56172 2.22807,-0.006 2.24263,-0.10361 1.82981,-12.25616 -0.22887,-6.7375 -0.45204,-12.54684 -0.49594,-12.90965 -0.0439,-0.36281 -3.3423,-1.20188 -7.3298,-1.8646 -3.9875,-0.66272 -12.72796,-2.97077 -19.42324,-5.129 -9.51917,-3.0685 -13.65698,-5.00574 -18.97859,-8.8854 C 364.60523,437.23261 361.15266,435 360.67578,435 c -2.13093,0 -7.30812,-4.86131 -12.51705,-11.75333 -7.30188,-9.66123 -10.05784,-13.46666 -10.39041,-14.34707 -0.14758,-0.39067 -4.54332,-1.21591 -9.76832,-1.83387 -11.5328,-1.36398 -14.5651,-2.29636 -22.13637,-6.80654 -11.51284,-6.85816 -22.7201,-21.45615 -22.84692,-29.75919 -0.0252,-1.65 -0.74995,-5.0225 -1.61056,-7.49445 -1.32717,-3.81207 -1.38849,-5.69984 -0.40389,-12.4336 1.84479,-12.6166 6.47369,-21.86615 15.15775,-30.28853 7.37252,-7.15036 21.39212,-12.68192 35.4307,-13.97951 l 5.09071,-0.47054 2.75698,-6.66668 c 1.51635,-3.66668 4.10703,-10.49169 5.75707,-15.16669 1.65004,-4.675 3.36218,-8.95 3.80475,-9.5 1.92987,-2.39834 8.01331,-19.81991 8.94993,-25.63051 0.56468,-3.50322 1.5145,-7.94449 2.11069,-9.86949 1.22388,-3.95168 2.127,-9.78354 4.4135,-28.5 0.87348,-7.15 2.07601,-14.51409 2.67229,-16.36463 0.59627,-1.85055 1.07725,-5.67555 1.06883,-8.5 -0.0225,-7.56474 3.12415,-21.3974 6.29182,-27.6584 3.75206,-7.41607 6.99874,-11.1627 13.80441,-15.93008 C 397.16686,135.84382 399.31686,135 406.26668,135 c 3.5013,0 8.93953,-0.47574 12.08496,-1.05721 7.01569,-1.29692 20.1323,0.84149 24.57775,4.00693 1.58364,1.12766 3.61896,2.05028 4.52293,2.05028 2.86692,0 15.3061,13.97765 18.68861,21 7.63145,15.84349 12.86141,28.10047 12.85412,30.12505 -0.003,0.75622 0.6578,3.39995 1.46782,5.87495 1.6982,5.18884 5.5684,18.77384 7.8344,27.5 2.31079,8.89864 6.66489,20.63812 8.73042,23.53889 0.99861,1.40241 2.98322,5.18993 4.41026,8.41671 1.42703,3.22679 4.53061,8.15683 6.89682,10.95564 5.78694,6.84492 10.52761,13.85401 14.26361,21.08876 1.70411,3.3 4.66829,8.925 6.58708,12.5 3.08389,5.74578 5.4921,12.74468 10.49457,30.5 2.96623,10.52808 3.963,37.32749 1.84108,49.5 -1.66888,9.57365 -7.11654,25.79266 -9.9611,29.65662 -9.62511,13.07442 -16.69371,20.74655 -21.72536,23.58031 -2.93406,1.65241 -6.23465,3.76338 -7.33465,4.69102 -3.63734,3.06742 -21.47116,10.0857 -34.63247,13.62918 l -5.63247,1.51645 -0.49903,6.21321 c -0.74578,9.28547 1.10789,22.69778 3.14727,22.77223 0.88919,0.0325 3.4167,0.298 5.6167,0.59007 4.729,0.62783 7.41502,0.63718 22,0.0766 6.05,-0.23254 11.7875,-0.0251 12.75,0.46095 1.98462,1.00223 2.36049,5.31804 0.56007,6.43076 -0.65447,0.40449 -10.21881,0.80599 -21.25411,0.89224 -13.08661,0.10228 -20.82234,0.56258 -22.24432,1.3236 -2.04362,1.09371 -13.46694,1.67814 -14.40796,0.73713 z m -6.73996,-10.48449 c 1.33839,-1.05278 3.76158,-2.06528 5.38486,-2.25 2.78708,-0.31716 2.96649,-0.61426 3.22216,-5.33586 0.1489,-2.75 -0.0761,-8.375 -0.5,-12.5 l -0.77074,-7.5 -10.83701,-0.19643 -10.837,-0.19642 0.28276,12.69642 c 0.15553,6.98304 0.46783,13.25893 0.694,13.94643 0.22618,0.6875 1.82558,1.25689 3.55424,1.26531 1.72865,0.008 3.81801,0.45153 4.64301,0.98469 2.05659,1.32907 2.38609,1.27074 5.16372,-0.91414 z M 316.21235,379.2608 c 5.08256,-4.46008 4.2131,-13.92404 -1.76109,-19.16945 -4.04732,-3.5536 -4.30109,-3.59876 -9.05651,-1.61182 -6.66451,2.78461 -10.14178,9.03251 -8.47403,15.22603 1.14992,4.27051 3.10064,5.73242 9.57928,7.17895 4.52644,1.01064 7.22431,0.55962 9.71235,-1.62371 z M 305.4175,375.25 c -0.28585,-0.9625 -1.18474,-3.04663 -1.99752,-4.63141 -1.31243,-2.55898 -1.30413,-3.14645 0.0742,-5.25 2.08112,-3.1762 5.04347,-2.98482 8.58277,0.55449 3.56467,3.56466 3.66576,5.42515 0.46853,8.62237 -2.86264,2.86265 -6.38366,3.21068 -7.12795,0.70455 z m 38.45082,-26.11832 c 2.75837,-2.75837 3.78388,-12.48735 1.65823,-15.7315 C 343.62289,330.49483 340.22235,329 335.51669,329 c -4.97201,0 -6.39792,0.84687 -8.55929,5.0835 -2.96006,5.8022 -2.56438,9.50952 1.4426,13.5165 2.97778,2.97778 4.03333,3.4 8.5,3.4 3.64685,0 5.63234,-0.53234 6.96832,-1.86832 z m -11.29508,-6.28532 C 329.86221,337.41198 331.06818,334 335.7,334 c 5.43237,0 8.34328,7.45542 4.07749,10.4433 -3.36176,2.35466 -5.46557,1.88832 -7.20425,-1.59694 z"
       style="fill:#fad72a" />
    <path
       id="path9706"
       d="m 447.90368,493.57035 c -0.2363,-0.23631 -3.1238,-0.52331 -6.41666,-0.63779 -3.29286,-0.11447 -7.49707,-0.64672 -9.34269,-1.18277 -2.37266,-0.68913 -4.00907,-0.62495 -5.58615,0.21908 -1.48347,0.79392 -5.04838,1.01046 -10.64433,0.64654 C 409.2507,492.1821 362.68231,491.91012 351,492.2363 c -1.375,0.0384 -4.525,-0.0424 -7,-0.17957 -2.475,-0.13715 -10.35,-0.2652 -17.5,-0.28455 -25.77845,-0.0698 -29.17336,-0.25621 -30.91011,-1.69758 -0.92752,-0.76977 -1.55219,-2.33897 -1.38815,-3.48709 0.28911,-2.02349 0.97297,-2.10569 22.29826,-2.68044 12.1,-0.32612 36.85753,-0.41084 55.01673,-0.18829 28.46615,0.34888 33.42791,0.19026 36,-1.1509 1.6408,-0.85556 3.99394,-1.55833 5.2292,-1.56172 2.22807,-0.006 2.24263,-0.10361 1.82981,-12.25616 -0.22887,-6.7375 -0.45204,-12.54684 -0.49594,-12.90965 -0.0439,-0.36281 -3.3423,-1.20188 -7.3298,-1.8646 -3.9875,-0.66272 -12.72796,-2.97077 -19.42324,-5.129 -9.51917,-3.0685 -13.65698,-5.00574 -18.97859,-8.8854 C 364.60523,437.23261 361.15266,435 360.67578,435 c -2.97147,0 -9.00727,-6.60204 -20.42578,-22.34202 -2.87903,-3.96864 -2.83164,-4.43702 0.5,-4.94173 1.5125,-0.22912 -1.075,-0.49172 -5.75,-0.58356 -10.40912,-0.20447 -20.63018,-2.75965 -28.22361,-7.05566 -7.41738,-4.19642 -20.06023,-17.12652 -18.38452,-18.80223 0.32773,-0.32773 1.38613,0.0971 2.352,0.94408 5.20541,4.5646 16.93788,8.70598 24.78434,8.74847 4.88986,0.0265 7.4275,-0.63794 13.43825,-3.51852 8.33421,-3.99406 12.73417,-8.309 16.77292,-16.44883 2.87548,-5.79531 3.17304,-10.01943 2.09242,-29.70331 -0.46176,-8.41116 -2.67307,-11.68469 -8.53583,-12.63609 -1.97052,-0.31977 -4.63422,-1.56919 -5.91933,-2.77649 -2.23969,-2.10408 -6.39461,-3.2405 -16.56945,-4.53194 -6.66342,-0.84576 -18.15142,2.13316 -22.31112,5.78543 -1.79306,1.57432 -3.53819,2.8624 -3.87809,2.8624 -1.71028,0 -0.10629,-2.66251 4.63202,-7.68879 8.19867,-8.69695 21.39469,-13.97626 37.65953,-15.0664 3.60637,-0.24171 5.86151,-0.76828 5.15646,-1.20403 -0.95823,-0.59221 -0.61691,-2.27636 1.4506,-7.15761 1.48702,-3.51074 4.04812,-10.20817 5.69132,-14.88317 1.6432,-4.675 3.34974,-8.95 3.79231,-9.5 1.92987,-2.39834 8.01331,-19.81991 8.94993,-25.63051 0.56468,-3.50322 1.5145,-7.94449 2.11069,-9.86949 1.22388,-3.95168 2.127,-9.78354 4.4135,-28.5 0.87348,-7.15 2.07601,-14.51409 2.67229,-16.36463 0.59627,-1.85055 1.07725,-5.67555 1.06883,-8.5 -0.0225,-7.56474 3.12415,-21.3974 6.29182,-27.6584 3.75206,-7.41607 6.99874,-11.1627 13.80441,-15.93008 C 397.16686,135.84382 399.31686,135 406.26668,135 c 3.5013,0 8.93953,-0.47574 12.08496,-1.05721 7.01569,-1.29692 20.1323,0.84149 24.57775,4.00693 1.58364,1.12766 3.61896,2.05028 4.52293,2.05028 2.86692,0 15.3061,13.97765 18.68861,21 7.63145,15.84349 12.86141,28.10047 12.85412,30.12505 -0.003,0.75622 0.6578,3.39995 1.46782,5.87495 1.6982,5.18884 5.5684,18.77384 7.8344,27.5 2.31079,8.89864 6.66489,20.63812 8.73042,23.53889 0.99861,1.40241 2.98322,5.18993 4.41026,8.41671 1.42703,3.22679 4.53061,8.15683 6.89682,10.95564 5.78694,6.84492 10.52761,13.85401 14.26361,21.08876 1.70411,3.3 4.66829,8.925 6.58708,12.5 3.08389,5.74578 5.4921,12.74468 10.49457,30.5 2.96623,10.52808 3.963,37.32749 1.84108,49.5 -1.66888,9.57365 -7.11654,25.79266 -9.9611,29.65662 -9.62511,13.07442 -16.69371,20.74655 -21.72536,23.58031 -2.93406,1.65241 -6.23465,3.76338 -7.33465,4.69102 -3.63734,3.06742 -21.47116,10.0857 -34.63247,13.62918 l -5.63247,1.51645 -0.49903,6.21321 c -0.74578,9.28547 1.10789,22.69778 3.14727,22.77223 0.88919,0.0325 3.4167,0.298 5.6167,0.59007 4.729,0.62783 7.41502,0.63718 22,0.0766 6.05,-0.23254 11.7875,-0.0251 12.75,0.46095 1.98462,1.00223 2.36049,5.31804 0.56007,6.43076 -0.65447,0.40449 -10.21881,0.80599 -21.25411,0.89224 -13.08661,0.10228 -20.82234,0.56258 -22.24432,1.3236 -2.04362,1.09371 -13.46694,1.67814 -14.40796,0.73713 z m -6.73996,-10.48449 c 1.33839,-1.05278 3.76158,-2.06528 5.38486,-2.25 2.78708,-0.31716 2.96649,-0.61426 3.22216,-5.33586 0.1489,-2.75 -0.0761,-8.375 -0.5,-12.5 l -0.77074,-7.5 -10.83701,-0.19643 -10.837,-0.19642 0.28276,12.69642 c 0.15553,6.98304 0.46783,13.25893 0.694,13.94643 0.22618,0.6875 1.82558,1.25689 3.55424,1.26531 1.72865,0.008 3.81801,0.45153 4.64301,0.98469 2.05659,1.32907 2.38609,1.27074 5.16372,-0.91414 z M 305.4175,375.25 c -0.28585,-0.9625 -1.18474,-3.04663 -1.99752,-4.63141 -1.31243,-2.55898 -1.30413,-3.14645 0.0742,-5.25 2.08112,-3.1762 5.04347,-2.98482 8.58277,0.55449 3.56467,3.56466 3.66576,5.42515 0.46853,8.62237 -2.86264,2.86265 -6.38366,3.21068 -7.12795,0.70455 z m 22.24917,0.0833 C 327.3,374.96667 327,373.15656 327,371.31087 c 0,-2.74318 0.9527,-4.26449 5.21864,-8.33334 5.4842,-5.23081 6.62562,-5.73327 8.58136,-3.77753 2.49641,2.49641 1.26442,5.96445 -4.05,11.40059 -4.89368,5.00577 -7.46865,6.34742 -9.08333,4.73274 z m 4.90657,-32.48697 C 329.86221,337.41198 331.06818,334 335.7,334 c 5.43237,0 8.34328,7.45542 4.07749,10.4433 -3.36176,2.35466 -5.46557,1.88832 -7.20425,-1.59694 z"
       style="fill:#b2b092" />
    <path
       id="path9704"
       d="m 448.54811,492.85586 c -3.82353,-0.49013 -7.30414,-1.44571 -7.73468,-2.1235 -2.39445,-3.76957 1.05669,-8.80562 6.20897,-9.0604 L 450.5,481.5 450.21515,468.59811 c -0.15667,-7.09603 -0.50608,-13.25983 -0.77646,-13.69732 -0.27039,-0.43749 -5.5422,-0.70664 -11.71515,-0.59811 L 426.5,454.5 l 0.32644,18.14374 c 0.22043,12.25152 -0.0244,18.36059 -0.75396,18.81147 -1.99146,1.23079 -14.91967,1.37916 -16.47125,0.18903 C 405.40507,488.42562 407.40491,482 412.60281,482 c 1.35298,0 2.70967,-0.65074 3.01487,-1.44608 0.3052,-0.79534 0.17858,-6.98284 -0.28138,-13.75 L 414.5,454.5 l -7,-1.27163 c -3.85,-0.69939 -11.15364,-2.61189 -16.23031,-4.25 C 386.19302,447.34027 381.46444,446 380.76174,446 c -1.81925,0 -10.73461,-4.84427 -14.13246,-7.67904 -1.5789,-1.31725 -4.2789,-2.98887 -6,-3.71472 -3.58985,-1.51395 -9.91372,-8.20694 -17.12928,-18.12912 -6.27224,-8.62502 -6.15273,-8.25254 -2.80929,-8.75514 1.54511,-0.23228 -1.01571,-0.49745 -5.69071,-0.58929 -10.40912,-0.20447 -20.63018,-2.75965 -28.22361,-7.05566 -7.41738,-4.19642 -20.06023,-17.12652 -18.38452,-18.80223 0.32773,-0.32773 1.38613,0.0971 2.352,0.94408 5.20541,4.5646 16.93788,8.70598 24.78434,8.74847 4.88986,0.0265 7.4275,-0.63794 13.43825,-3.51852 8.33421,-3.99406 12.73417,-8.309 16.77292,-16.44883 2.87548,-5.79531 3.17304,-10.01943 2.09242,-29.70331 -0.46176,-8.41116 -2.67307,-11.68469 -8.53583,-12.63609 -1.97052,-0.31977 -4.63422,-1.56919 -5.91933,-2.77649 -2.23969,-2.10408 -6.39461,-3.2405 -16.56945,-4.53194 -6.66342,-0.84576 -18.15142,2.13316 -22.31112,5.78543 -1.79306,1.57432 -3.53819,2.8624 -3.87809,2.8624 -1.71028,0 -0.10629,-2.66251 4.63202,-7.68879 8.19867,-8.69695 21.39469,-13.97626 37.65953,-15.0664 3.52524,-0.23627 5.8963,-0.74678 5.26903,-1.13445 -0.81884,-0.50608 -0.55684,-2.24266 0.92902,-6.15761 1.13823,-2.99901 2.44434,-5.9063 2.90247,-6.46063 0.82736,-1.00111 3.24871,-7.24618 5.03732,-12.99212 0.51362,-1.65 1.58967,-4.35 2.39123,-6 4.04571,-8.32804 6.55461,-15.06922 7.983,-21.4496 3.94277,-17.61159 4.62074,-21.33038 6.11659,-33.5504 0.87522,-7.15 2.46473,-17.275 3.53223,-22.5 1.0675,-5.225 1.93836,-11.83458 1.93525,-14.68795 -0.0113,-10.37507 5.8218,-27.19496 11.72602,-33.81205 1.87951,-2.10644 12.02118,-9.2953 16.26831,-11.53168 3.52869,-1.85808 26.0148,-3.03459 34,-1.77894 3.575,0.56217 8.46918,2.09953 10.87595,3.41637 2.40678,1.31684 4.99081,2.39425 5.74229,2.39425 0.75148,0 2.6073,1.42685 4.12405,3.17077 1.51674,1.74392 4.78271,5.25201 7.25771,7.79576 3.22472,3.31429 5.87025,7.72937 9.33511,15.57923 2.6593,6.02483 5.75529,12.97924 6.87997,15.45424 1.12467,2.475 2.60929,6.75 3.29913,9.5 0.68985,2.75 2.4795,9.05 3.977,14 1.4975,4.95 3.36288,12.01154 4.14528,15.69231 0.7824,3.68078 2.46741,9.08078 3.74446,12 1.27705,2.91923 2.6488,6.65769 3.04834,8.30769 0.39953,1.65 1.72959,4.35 2.95569,6 1.22609,1.65 3.04854,5.19056 4.04988,7.86792 1.00134,2.67735 3.75576,7.24375 6.12094,10.14754 7.07727,8.68898 11.77083,15.4597 14.9442,21.55784 7.72325,14.84146 11.43642,22.67105 12.05856,25.4267 0.37253,1.65 1.93113,7.05 3.46357,12 3.804,12.28749 4.00199,13.68696 4.59786,32.5 0.55832,17.62725 -0.0554,22.48222 -4.86711,38.5 -3.11829,10.3806 -4.80129,13.4733 -11.07185,20.34577 -2.84956,3.1231 -6.30603,7.37112 -7.68103,9.44004 -1.42441,2.14327 -4.86629,5.09076 -8,6.85088 -3.025,1.69906 -6.4,3.88882 -7.5,4.86615 -3.21882,2.85984 -20.49329,9.57967 -36.5,14.19862 l -4.5,1.29854 -0.50982,6.4176 c -0.28039,3.52968 0.0505,11.85468 0.73527,18.5 1.21698,11.80967 1.19777,12.1219 -0.85097,13.8324 -2.28331,1.90634 -2.20951,1.90271 -12.32637,0.60586 z M 306,374.22251 c 0,-0.97763 -0.67491,-2.74106 -1.49979,-3.91875 -2.9402,-4.19772 1.49584,-7.84682 5.97291,-4.91333 3.26072,2.13651 4.03895,5.17911 2.08676,8.15853 C 310.61924,376.51075 306,376.98504 306,374.22251 Z m 21.66667,1.11082 C 327.3,374.96667 327,373.15656 327,371.31087 c 0,-2.74318 0.9527,-4.26449 5.21864,-8.33334 5.4842,-5.23081 6.62562,-5.73327 8.58136,-3.77753 2.49641,2.49641 1.26442,5.96445 -4.05,11.40059 -4.89368,5.00577 -7.46865,6.34742 -9.08333,4.73274 z m 5.55643,-33.67978 C 330.89799,337.71279 331.81747,335 335.47826,335 c 4.92575,0 7.64438,6.79363 3.58748,8.96482 -2.97313,1.59117 -3.71278,1.29857 -5.84264,-2.31127 z"
       style="fill:#98d14d" />
    <path
       id="path9702"
       d="m 448.54811,492.85586 c -3.82353,-0.49013 -7.30414,-1.44571 -7.73468,-2.1235 -2.39445,-3.76957 1.05669,-8.80562 6.20897,-9.0604 L 450.5,481.5 450.21515,468.59811 c -0.15667,-7.09603 -0.50608,-13.25983 -0.77646,-13.69732 -0.27039,-0.43749 -5.5422,-0.70664 -11.71515,-0.59811 L 426.5,454.5 l 0.32644,18.14374 c 0.22043,12.25152 -0.0244,18.36059 -0.75396,18.81147 -1.99146,1.23079 -14.91967,1.37916 -16.47125,0.18903 C 405.40507,488.42562 407.40491,482 412.60281,482 c 1.35298,0 2.70967,-0.65074 3.01487,-1.44608 0.3052,-0.79534 0.17858,-6.98284 -0.28138,-13.75 L 414.5,454.5 l -7,-1.2804 c -17.2987,-3.16419 -35.39655,-10.61451 -38.8062,-15.97532 -0.44341,-0.69715 -3.08176,-2.42066 -5.863,-3.83002 -2.78124,-1.40936 -5.28343,-3.42913 -5.56043,-4.48837 -0.277,-1.05924 -1.15914,-1.92589 -1.96033,-1.92589 -1.62389,0 -1.42396,-3.1299 0.23521,-3.68222 1.83615,-0.61123 5.58832,3.68602 4.95654,5.67658 -0.83145,2.61968 1.18516,3.4591 2.48322,1.03365 1.38604,-2.58984 4.04806,-2.61754 4.71972,-0.0491 0.47163,1.80351 0.7046,1.84782 2.62888,0.5 4.31072,-3.01934 13.45889,-0.70768 12.02163,3.03776 -0.67471,1.75828 3.12625,5.48336 5.59507,5.48336 1.07267,0 2.39464,0.7875 2.93772,1.75 0.76256,1.35148 1.26022,1.47999 2.18541,0.56429 0.92973,-0.92021 0.83172,-1.55199 -0.43773,-2.82143 -1.94,-1.94001 -2.0806,-3.64797 -0.43571,-5.29286 1.91503,-1.91503 2.83385,-1.40715 2.80416,1.55 -0.0152,1.5125 0.25458,4.4605 0.59948,6.55111 0.75673,4.58678 2.92131,4.66655 5.39682,0.19889 1.98354,-3.57979 6.23795,-4.21612 6.85251,-1.02493 0.52936,2.74874 3.22304,4.5109 5.89703,3.85772 1.31061,-0.32014 2.25,-0.0868 2.25,0.5588 0,1.6192 6.0903,1.28782 9,-0.4897 2.37015,-1.44791 2.38314,-1.50287 0.25,-1.05818 -2.8312,0.59021 -2.93101,-0.90888 -0.15927,-2.39227 1.55866,-0.83417 2.82686,-0.814 4.98333,0.0792 3.6535,1.51332 9.10208,0.53716 11.44364,-2.05024 0.98575,-1.08924 2.79609,-1.98044 4.02298,-1.98044 2.96284,0 5.47162,-1.41784 14.7687,-8.34656 4.29516,-3.201 8.3049,-6.90752 8.91052,-8.23672 0.60562,-1.3292 1.5914,-2.43169 2.19062,-2.44999 1.92385,-0.0587 5.58847,-3.72749 5.62069,-5.62702 0.0172,-1.01184 1.13986,-3.63971 2.49488,-5.83971 1.35501,-2.2 2.46597,-4.77662 2.46879,-5.72583 0.003,-0.94921 0.90344,-3.19921 2.00138,-5 1.09795,-1.80079 2.00329,-4.84917 2.01187,-6.77417 0.009,-1.925 0.67993,-5.975 1.49187,-9 1.66088,-6.18781 1.89548,-21.98859 0.47511,-32 -1.58942,-11.20303 -2.17161,-14 -2.9141,-14 -0.3961,0 -3.38437,2.38928 -6.6406,5.30952 -3.25622,2.92023 -7.94541,6.43562 -10.42041,7.81198 -2.475,1.37636 -5.4,2.99954 -6.5,3.60707 -1.1,0.60753 -3.35,1.6077 -5,2.22261 -6.91995,2.57884 -7.47258,3.61177 -8.33773,15.58382 -0.68871,9.53053 -1.2296,11.85697 -4.06397,17.47938 -7.86592,15.6033 -9.92411,17.54537 -24.0983,22.73864 -5.83786,2.13894 -7.68211,2.33403 -18.10441,1.91523 -7.9531,-0.31959 -12.58776,-0.97482 -14.72965,-2.08244 C 384.2289,407.06701 376,397.17622 376,395.16482 c 0,-0.50631 -0.69719,-2.58918 -1.54931,-4.62859 l -1.5493,-3.70801 -4.35071,4.33589 c -12.39885,12.35665 -17.8967,15.1586 -30.7569,15.67513 -11.89056,0.47759 -21.54913,-1.59164 -30.49806,-6.53382 -7.74732,-4.27859 -20.65831,-17.27616 -18.90385,-19.03062 0.32773,-0.32773 1.38613,0.0971 2.352,0.94408 5.20541,4.5646 16.93788,8.70598 24.78434,8.74847 4.88986,0.0265 7.4275,-0.63794 13.43825,-3.51852 8.33421,-3.99406 12.73417,-8.309 16.77292,-16.44883 2.87548,-5.79531 3.17304,-10.01943 2.09242,-29.70331 -0.46176,-8.41116 -2.67307,-11.68469 -8.53583,-12.63609 -1.97052,-0.31977 -4.63422,-1.56919 -5.91933,-2.77649 -2.23969,-2.10408 -6.39461,-3.2405 -16.56945,-4.53194 -6.66342,-0.84576 -18.15142,2.13316 -22.31112,5.78543 -1.79306,1.57432 -3.53819,2.8624 -3.87809,2.8624 -1.71028,0 -0.10629,-2.66251 4.63202,-7.68879 8.30877,-8.81374 20.71139,-13.71138 38.50009,-15.20319 3.98755,-0.33441 7.25005,-0.3294 7.25,0.0111 -5e-5,0.34053 1.46241,0.86475 3.24991,1.16492 1.7875,0.30017 4.00467,0.8446 4.92704,1.20983 1.32707,0.52549 1.56277,0.22713 1.12948,-1.42978 -0.42908,-1.64082 -0.19048,-1.95683 1.10276,-1.46057 0.96648,0.37087 1.43484,1.31222 1.13029,2.27176 -0.37121,1.16957 0.76819,2.32188 3.9813,4.02643 4.31318,2.28814 6.32718,4.1255 15.4051,14.05401 2.62867,2.87497 4.07403,3.87437 4.07403,2.81701 0,-0.90131 2.81378,-4.48141 6.25285,-7.95576 6.23285,-6.29681 6.28801,-6.32586 17.25,-9.084 9.23568,-2.32379 11.60262,-2.59524 14.77717,-1.69471 7.15446,2.02952 16.22943,6.88716 20.86775,11.17007 4.37455,4.03934 11.85223,16.26301 11.85223,19.37468 0,0.77932 0.1923,1.41695 0.42734,1.41695 1.5797,0 14.51568,-7.61867 20.69414,-12.18786 10.16403,-7.51666 13.15334,-11.19063 12.36564,-15.19787 -0.61648,-3.13621 -1.97572,-7.4167 -3.52926,-11.11427 -0.46217,-1.1 -2.24735,-5.375 -3.96706,-9.5 -1.71972,-4.125 -5.34617,-12.07306 -8.05878,-17.66236 C 462.21941,271.74834 460,266.40055 460,265.45366 c 0,-0.94689 -0.48394,-3.57383 -1.07542,-5.83764 -0.59148,-2.26381 -1.78569,-6.81602 -2.65381,-10.11602 -0.86812,-3.3 -2.16051,-6.96054 -2.87197,-8.13452 -0.71147,-1.17399 -1.8188,-6.12399 -2.46074,-11 -0.64194,-4.87602 -1.56241,-9.6174 -2.04548,-10.53642 -1.00983,-1.92112 -2.69502,-11.94448 -3.83816,-22.82906 -0.43322,-4.125 -1.76267,-10.81085 -2.95433,-14.85745 -1.19166,-4.0466 -1.91277,-8.15739 -1.60246,-9.13509 C 441.11315,171.06812 439.19066,166 437.83948,166 437.37777,166 437,165.15489 437,164.12197 c 0,-1.03291 -1.0125,-2.62517 -2.25,-3.53836 -1.54375,-1.13917 -1.85764,-1.83139 -1,-2.2053 2.09046,-0.9114 1.39381,-2.55873 -0.78908,-1.86591 -1.77301,0.56273 -1.95718,0.32089 -1.41146,-1.85345 0.81985,-3.26653 -4.04256,-11.91336 -6.42346,-11.42285 -1.11345,0.22939 -1.53526,1.19064 -1.33815,3.04944 0.15832,1.49295 -0.17918,2.71446 -0.75,2.71446 C 422.46703,149 422,148.31088 422,147.46862 c 0,-0.84227 -0.675,-1.79041 -1.5,-2.10699 -0.86016,-0.33008 -1.5,-1.82303 -1.5,-3.5 0,-3.35914 -2.67288,-5.00871 -4.39461,-2.71214 -1.99527,2.66144 -4.76804,3.05304 -6.72723,0.95011 -1.77618,-1.90651 -1.74249,-1.97169 1.40095,-2.71099 1.77149,-0.41664 4.05758,-0.6379 5.0802,-0.49169 1.02262,0.14621 1.59549,-0.16104 1.27304,-0.68278 -0.99111,-1.60365 8.31201,-2.28012 15.27318,-1.11058 3.62696,0.60936 8.56365,2.18535 10.97042,3.50219 2.40678,1.31684 4.99081,2.39425 5.74229,2.39425 0.75148,0 2.6073,1.42685 4.12405,3.17077 1.51674,1.74392 4.78271,5.25201 7.25771,7.79576 3.22472,3.31429 5.87025,7.72937 9.33511,15.57923 2.6593,6.02483 5.75529,12.97924 6.87997,15.45424 1.12467,2.475 2.60929,6.75 3.29913,9.5 0.68985,2.75 2.4795,9.05 3.977,14 1.4975,4.95 3.36288,12.01154 4.14528,15.69231 0.7824,3.68078 2.46741,9.08078 3.74446,12 1.27705,2.91923 2.6488,6.65769 3.04834,8.30769 0.39953,1.65 1.72959,4.35 2.95569,6 1.22609,1.65 3.04854,5.19056 4.04988,7.86792 1.00134,2.67735 3.75576,7.24375 6.12094,10.14754 7.07727,8.68898 11.77083,15.4597 14.9442,21.55784 7.72325,14.84146 11.43642,22.67105 12.05856,25.4267 0.37253,1.65 1.93113,7.05 3.46357,12 3.804,12.28749 4.00199,13.68696 4.59786,32.5 0.55832,17.62725 -0.0554,22.48222 -4.86711,38.5 -3.11829,10.3806 -4.80129,13.4733 -11.07185,20.34577 -2.84956,3.1231 -6.30603,7.37112 -7.68103,9.44004 -1.42441,2.14327 -4.86629,5.09076 -8,6.85088 -3.025,1.69906 -6.4,3.88882 -7.5,4.86615 -3.21882,2.85984 -20.49329,9.57967 -36.5,14.19862 l -4.5,1.29854 -0.50982,6.4176 c -0.28039,3.52968 0.0505,11.85468 0.73527,18.5 1.21698,11.80967 1.19777,12.1219 -0.85097,13.8324 -2.28331,1.90634 -2.20951,1.90271 -12.32637,0.60586 z M 352.5,419 c -0.71181,-2.24272 -1.59569,-2.50431 -3.16366,-0.93634 -1.62828,1.62828 -5.51247,-5.51374 -4.71868,-8.67644 0.38268,-1.52471 1.22263,-2.37117 2.17044,-2.18725 2.09768,0.40705 2.77731,2.80003 0.79523,2.80003 -0.87083,0 -1.58333,0.6 -1.58333,1.33333 0,2.34808 1.27584,2.71596 3.76436,1.08541 1.48367,-0.97213 3.38036,-1.34825 4.88925,-0.96954 2.07444,0.52065 2.41618,1.12854 2.15581,3.83477 -0.27261,2.83339 -0.0417,3.17881 1.94058,2.90317 3.45362,-0.48022 2.67013,1.47883 -0.875,2.18786 -4.4662,0.89324 -4.67178,0.84065 -5.375,-1.375 z M 306,374.22251 c 0,-0.97763 -0.67491,-2.74106 -1.49979,-3.91875 -2.9402,-4.19772 1.49584,-7.84682 5.97291,-4.91333 3.26072,2.13651 4.03895,5.17911 2.08676,8.15853 C 310.61924,376.51075 306,376.98504 306,374.22251 Z m 21.66667,1.11082 C 327.3,374.96667 327,373.35942 327,371.76166 c 0,-2.10801 1.30317,-4.25561 4.75,-7.82793 4.84007,-5.01629 6.91245,-5.87128 9.05,-3.73373 2.06417,2.06417 1.36094,3.77534 -4.05,9.85482 -4.86133,5.46196 -7.41556,6.94628 -9.08333,5.27851 z m 5.55643,-33.67978 C 330.89799,337.71279 331.81747,335 335.47826,335 c 4.92575,0 7.64438,6.79363 3.58748,8.96482 -2.97313,1.59117 -3.71278,1.29857 -5.84264,-2.31127 z m 53.9644,-189.14137 c -1.01389,-2.22524 -0.92378,-3.1516 0.54998,-5.6545 2.506,-4.25591 10.03504,-9.01987 13.67558,-8.65313 3.73894,0.37665 4.48615,2.50307 1.30461,3.71269 -2.86093,1.08773 -4.18956,3.80924 -2.72259,5.57683 1.41961,1.71053 -0.51478,3.1442 -5.49508,4.07267 -2.2,0.41014 -4.47249,1.38942 -5.04998,2.17618 -0.86004,1.1717 -1.26933,0.94906 -2.26252,-1.23074 z"
       style="fill:#fab803" />
    <path
       id="path9700"
       d="m 448.54811,492.85586 c -3.82353,-0.49013 -7.30414,-1.44571 -7.73468,-2.1235 -2.39445,-3.76957 1.05669,-8.80562 6.20897,-9.0604 L 450.5,481.5 450.21515,468.59811 c -0.15667,-7.09603 -0.50608,-13.25983 -0.77646,-13.69732 -0.27039,-0.43749 -5.5422,-0.70664 -11.71515,-0.59811 L 426.5,454.5 l 0.32644,18.14374 c 0.22043,12.25152 -0.0244,18.36059 -0.75396,18.81147 -1.99146,1.23079 -14.91967,1.37916 -16.47125,0.18903 C 405.40507,488.42562 407.40491,482 412.60281,482 c 1.35298,0 2.70967,-0.65074 3.01487,-1.44608 0.3052,-0.79534 0.17858,-6.98284 -0.28138,-13.75 L 414.5,454.5 l -7,-1.2804 c -17.2987,-3.16419 -35.39655,-10.61451 -38.8062,-15.97532 -0.44341,-0.69715 -3.08176,-2.42066 -5.863,-3.83002 -2.78124,-1.40936 -5.28343,-3.42913 -5.56043,-4.48837 -0.277,-1.05924 -1.15914,-1.92589 -1.96033,-1.92589 -1.62389,0 -1.42396,-3.1299 0.23521,-3.68222 1.83615,-0.61123 5.58832,3.68602 4.95654,5.67658 -0.83145,2.61968 1.18516,3.4591 2.48322,1.03365 1.38604,-2.58984 4.04806,-2.61754 4.71972,-0.0491 0.47163,1.80351 0.7046,1.84782 2.62888,0.5 4.31072,-3.01934 13.45889,-0.70768 12.02163,3.03776 -0.67471,1.75828 3.12625,5.48336 5.59507,5.48336 1.07267,0 2.39464,0.7875 2.93772,1.75 0.76256,1.35148 1.26022,1.47999 2.18541,0.56429 0.92973,-0.92021 0.83172,-1.55199 -0.43773,-2.82143 -1.94,-1.94001 -2.0806,-3.64797 -0.43571,-5.29286 1.91503,-1.91503 2.83385,-1.40715 2.80416,1.55 -0.0152,1.5125 0.25458,4.4605 0.59948,6.55111 0.75673,4.58678 2.92131,4.66655 5.39682,0.19889 1.98354,-3.57979 6.23795,-4.21612 6.85251,-1.02493 0.52936,2.74874 3.22304,4.5109 5.89703,3.85772 1.31061,-0.32014 2.25,-0.0868 2.25,0.5588 0,1.6192 6.0903,1.28782 9,-0.4897 2.37015,-1.44791 2.38314,-1.50287 0.25,-1.05818 -2.8312,0.59021 -2.93101,-0.90888 -0.15927,-2.39227 1.55866,-0.83417 2.82686,-0.814 4.98333,0.0792 3.6535,1.51332 9.10208,0.53716 11.44364,-2.05024 0.98575,-1.08924 2.79609,-1.98044 4.02298,-1.98044 2.96284,0 5.47162,-1.41784 14.7687,-8.34656 4.29516,-3.201 8.3049,-6.90752 8.91052,-8.23672 0.60562,-1.3292 1.5914,-2.43169 2.19062,-2.44999 1.92385,-0.0587 5.58847,-3.72749 5.62069,-5.62702 0.0172,-1.01184 1.13986,-3.63971 2.49488,-5.83971 1.35501,-2.2 2.46597,-4.77662 2.46879,-5.72583 0.003,-0.94921 0.90344,-3.19921 2.00138,-5 1.09795,-1.80079 2.00329,-4.84917 2.01187,-6.77417 0.009,-1.925 0.67993,-5.975 1.49187,-9 1.66088,-6.18781 1.89548,-21.98859 0.47511,-32 -1.58942,-11.20303 -2.17161,-14 -2.9141,-14 -0.3961,0 -3.38437,2.38928 -6.6406,5.30952 -3.25622,2.92023 -7.94541,6.43562 -10.42041,7.81198 -2.475,1.37636 -5.4,2.99954 -6.5,3.60707 -1.1,0.60753 -3.35,1.6077 -5,2.22261 -6.91995,2.57884 -7.47258,3.61177 -8.33773,15.58382 -0.68871,9.53053 -1.2296,11.85697 -4.06397,17.47938 -7.86592,15.6033 -9.92411,17.54537 -24.0983,22.73864 -5.83786,2.13894 -7.68211,2.33403 -18.10441,1.91523 -8.04204,-0.32316 -12.57987,-0.97075 -14.782,-2.10951 -3.93576,-2.03526 -10.01441,-10.34193 -12.28388,-16.78632 l -1.70469,-4.84064 2.97444,-4.78488 c 1.63595,-2.63168 3.07032,-6.10383 3.18749,-7.71589 L 379.5,371.5 371.667,371 c -8.51054,-0.54325 -11.3021,-2.33356 -10.05341,-6.44754 1.45178,-4.78307 3.21533,-5.58057 11.73928,-5.30866 l 8.03167,0.2562 0.90002,-3.06741 c 0.70396,-2.39917 0.21404,-5.34017 -2.24885,-13.5 -1.73188,-5.73792 -3.38752,-11.37525 -3.6792,-12.52738 -0.40375,-1.59481 0.98284,-3.62358 5.80943,-8.5 6.33491,-6.40032 6.34815,-6.40732 17.33691,-9.1722 9.23568,-2.32379 11.60262,-2.59524 14.77717,-1.69471 7.15446,2.02952 16.22943,6.88716 20.86775,11.17007 4.37455,4.03934 11.85223,16.26301 11.85223,19.37468 0,0.77932 0.1923,1.41695 0.42734,1.41695 1.5797,0 14.51568,-7.61867 20.69414,-12.18786 10.16403,-7.51666 13.15334,-11.19063 12.36564,-15.19787 -0.61648,-3.13621 -1.97572,-7.4167 -3.52926,-11.11427 -0.46217,-1.1 -2.24735,-5.375 -3.96706,-9.5 -1.71972,-4.125 -5.34617,-12.07306 -8.05878,-17.66236 C 462.21941,271.74834 460,266.40055 460,265.45366 c 0,-0.94689 -0.48394,-3.57383 -1.07542,-5.83764 -0.59148,-2.26381 -1.78569,-6.81602 -2.65381,-10.11602 -0.86812,-3.3 -2.16051,-6.96054 -2.87197,-8.13452 -0.71147,-1.17399 -1.8188,-6.12399 -2.46074,-11 -0.64194,-4.87602 -1.56241,-9.6174 -2.04548,-10.53642 -1.00983,-1.92112 -2.69502,-11.94448 -3.83816,-22.82906 -0.43322,-4.125 -1.76267,-10.81085 -2.95433,-14.85745 -1.19166,-4.0466 -1.91277,-8.15739 -1.60246,-9.13509 C 441.11315,171.06812 439.19066,166 437.83948,166 437.37777,166 437,165.15489 437,164.12197 c 0,-1.03291 -1.0125,-2.62517 -2.25,-3.53836 -1.54375,-1.13917 -1.85764,-1.83139 -1,-2.2053 2.09046,-0.9114 1.39381,-2.55873 -0.78908,-1.86591 -1.77301,0.56273 -1.95718,0.32089 -1.41146,-1.85345 0.81985,-3.26653 -4.04256,-11.91336 -6.42346,-11.42285 -1.11345,0.22939 -1.53526,1.19064 -1.33815,3.04944 0.15832,1.49295 -0.17918,2.71446 -0.75,2.71446 C 422.46703,149 422,148.31088 422,147.46862 c 0,-0.84227 -0.675,-1.79041 -1.5,-2.10699 -0.86016,-0.33008 -1.5,-1.82303 -1.5,-3.5 0,-3.35914 -2.67288,-5.00871 -4.39461,-2.71214 -1.99527,2.66144 -4.76804,3.05304 -6.72723,0.95011 -1.77618,-1.90651 -1.74249,-1.97169 1.40095,-2.71099 1.77149,-0.41664 4.05758,-0.6379 5.0802,-0.49169 1.02262,0.14621 1.59549,-0.16104 1.27304,-0.68278 -0.99111,-1.60365 8.31201,-2.28012 15.27318,-1.11058 3.62696,0.60936 8.56365,2.18535 10.97042,3.50219 2.40678,1.31684 4.99081,2.39425 5.74229,2.39425 0.75148,0 2.6073,1.42685 4.12405,3.17077 1.51674,1.74392 4.78271,5.25201 7.25771,7.79576 3.22472,3.31429 5.87025,7.72937 9.33511,15.57923 2.6593,6.02483 5.75529,12.97924 6.87997,15.45424 1.12467,2.475 2.60929,6.75 3.29913,9.5 0.68985,2.75 2.4795,9.05 3.977,14 1.4975,4.95 3.36288,12.01154 4.14528,15.69231 0.7824,3.68078 2.46741,9.08078 3.74446,12 1.27705,2.91923 2.6488,6.65769 3.04834,8.30769 0.39953,1.65 1.72959,4.35 2.95569,6 1.22609,1.65 3.04854,5.19056 4.04988,7.86792 1.00134,2.67735 3.75576,7.24375 6.12094,10.14754 7.07727,8.68898 11.77083,15.4597 14.9442,21.55784 7.72325,14.84146 11.43642,22.67105 12.05856,25.4267 0.37253,1.65 1.93113,7.05 3.46357,12 3.804,12.28749 4.00199,13.68696 4.59786,32.5 0.55832,17.62725 -0.0554,22.48222 -4.86711,38.5 -3.11829,10.3806 -4.80129,13.4733 -11.07185,20.34577 -2.84956,3.1231 -6.30603,7.37112 -7.68103,9.44004 -1.42441,2.14327 -4.86629,5.09076 -8,6.85088 -3.025,1.69906 -6.4,3.88882 -7.5,4.86615 -3.21882,2.85984 -20.49329,9.57967 -36.5,14.19862 l -4.5,1.29854 -0.50982,6.4176 c -0.28039,3.52968 0.0505,11.85468 0.73527,18.5 1.21698,11.80967 1.19777,12.1219 -0.85097,13.8324 -2.28331,1.90634 -2.20951,1.90271 -12.32637,0.60586 z M 352.5,419 c -0.71181,-2.24272 -1.59569,-2.50431 -3.16366,-0.93634 -1.62828,1.62828 -5.51247,-5.51374 -4.71868,-8.67644 0.38268,-1.52471 1.22263,-2.37117 2.17044,-2.18725 2.09768,0.40705 2.77731,2.80003 0.79523,2.80003 -0.87083,0 -1.58333,0.6 -1.58333,1.33333 0,2.34808 1.27584,2.71596 3.76436,1.08541 1.48367,-0.97213 3.38036,-1.34825 4.88925,-0.96954 2.07444,0.52065 2.41618,1.12854 2.15581,3.83477 -0.27261,2.83339 -0.0417,3.17881 1.94058,2.90317 3.45362,-0.48022 2.67013,1.47883 -0.875,2.18786 -4.4662,0.89324 -4.67178,0.84065 -5.375,-1.375 z M 306,374.22251 c 0,-0.97763 -0.67491,-2.74106 -1.49979,-3.91875 -2.9402,-4.19772 1.49584,-7.84682 5.97291,-4.91333 3.26072,2.13651 4.03895,5.17911 2.08676,8.15853 C 310.61924,376.51075 306,376.98504 306,374.22251 Z m 21.66667,1.11082 C 327.3,374.96667 327,373.35942 327,371.76166 c 0,-2.10801 1.30317,-4.25561 4.75,-7.82793 4.84007,-5.01629 6.91245,-5.87128 9.05,-3.73373 2.06417,2.06417 1.36094,3.77534 -4.05,9.85482 -4.86133,5.46196 -7.41556,6.94628 -9.08333,5.27851 z m 5.55643,-33.67978 C 330.89799,337.71279 331.81747,335 335.47826,335 c 4.92575,0 7.64438,6.79363 3.58748,8.96482 -2.97313,1.59117 -3.71278,1.29857 -5.84264,-2.31127 z m 53.9644,-189.14137 c -1.01389,-2.22524 -0.92378,-3.1516 0.54998,-5.6545 2.506,-4.25591 10.03504,-9.01987 13.67558,-8.65313 3.73894,0.37665 4.48615,2.50307 1.30461,3.71269 -2.86093,1.08773 -4.18956,3.80924 -2.72259,5.57683 1.41961,1.71053 -0.51478,3.1442 -5.49508,4.07267 -2.2,0.41014 -4.47249,1.38942 -5.04998,2.17618 -0.86004,1.1717 -1.26933,0.94906 -2.26252,-1.23074 z"
       style="fill:#87a35b" />
    <path
       id="path9698"
       d="m 446,492.09981 c -4.02914,-0.53705 -4.534,-0.89681 -4.82496,-3.43824 C 440.72862,484.76211 443.45222,482 447.74374,482 l 3.43376,0 -0.43752,-13.51543 c -0.24063,-7.43349 -0.61807,-13.68594 -0.83874,-13.89434 C 449.68056,454.38184 444.325,454.05128 438,453.85567 L 426.5,453.5 l -0.5,19 -0.5,19 -7.47802,0.29841 c -6.17574,0.24645 -7.69952,-0.005 -8.75,-1.44113 C 406.54964,486.63425 408.93375,482 413.57143,482 c 1.33571,0 2.46516,-0.5625 2.50989,-1.25 0.42652,-6.55624 -0.45421,-25.49438 -1.22905,-26.428 -0.54573,-0.65757 -3.54824,-1.47266 -6.67225,-1.81132 -6.08132,-0.65924 -17.39685,-3.9196 -20.68002,-5.95855 -1.1,-0.68314 -3.88081,-1.48976 -6.17958,-1.7925 -3.90578,-0.51437 -10.77374,-4.60217 -12.62662,-7.51535 -0.44341,-0.69715 -3.08176,-2.42066 -5.863,-3.83002 -2.78124,-1.40936 -5.28343,-3.42913 -5.56043,-4.48837 -0.277,-1.05924 -1.15914,-1.92589 -1.96033,-1.92589 -1.62389,0 -1.42396,-3.1299 0.23521,-3.68222 1.83615,-0.61123 5.58832,3.68602 4.95654,5.67658 -0.83145,2.61968 1.18516,3.4591 2.48322,1.03365 1.38604,-2.58984 4.04806,-2.61754 4.71972,-0.0491 0.47163,1.80351 0.7046,1.84782 2.62888,0.5 4.31072,-3.01934 13.45889,-0.70768 12.02163,3.03776 -0.67471,1.75828 3.12625,5.48336 5.59507,5.48336 1.07267,0 2.39464,0.7875 2.93772,1.75 0.76256,1.35148 1.26022,1.47999 2.18541,0.56429 0.92973,-0.92021 0.83172,-1.55199 -0.43773,-2.82143 -1.94,-1.94001 -2.0806,-3.64797 -0.43571,-5.29286 1.91503,-1.91503 2.83385,-1.40715 2.80416,1.55 -0.0152,1.5125 0.25458,4.4605 0.59948,6.55111 0.75673,4.58678 2.92131,4.66655 5.39682,0.19889 1.98354,-3.57979 6.23795,-4.21612 6.85251,-1.02493 0.52936,2.74874 3.22304,4.5109 5.89703,3.85772 1.31061,-0.32014 2.25,-0.0868 2.25,0.5588 0,1.6192 6.0903,1.28782 9,-0.4897 2.37015,-1.44791 2.38314,-1.50287 0.25,-1.05818 -2.8312,0.59021 -2.93101,-0.90888 -0.15927,-2.39227 1.55866,-0.83417 2.82686,-0.814 4.98333,0.0792 3.6535,1.51332 9.10208,0.53716 11.44364,-2.05024 0.98575,-1.08924 2.79609,-1.98044 4.02298,-1.98044 2.96284,0 5.47162,-1.41784 14.7687,-8.34656 4.29516,-3.201 8.3049,-6.90752 8.91052,-8.23672 0.60562,-1.3292 1.49712,-2.41672 1.98111,-2.41672 2.18428,0 6.53495,-4.29368 6.08687,-6.00713 -0.26215,-1.00248 0.42231,-2.70306 1.53633,-3.81708 1.10502,-1.10502 1.74662,-2.27162 1.42579,-2.59246 C 479.92917,405.2625 480.19167,405 480.83333,405 481.4968,405 482,403.51183 482,401.54969 c 0,-2.23104 0.61841,-3.8105 1.75,-4.46959 0.9625,-0.56061 1.3,-1.03986 0.75,-1.065 -0.55,-0.0251 -0.3625,-0.44924 0.41667,-0.94244 0.7894,-0.49967 1.38498,-2.37467 1.3451,-4.23468 -0.0394,-1.83589 0.76838,-6.48798 1.79498,-10.33798 1.46355,-5.48865 1.78594,-9.54542 1.4932,-18.78941 -0.43665,-13.78824 -2.52126,-28.71253 -4.00964,-28.7061 -0.57217,0.002 -3.74031,2.41188 -7.04031,5.35422 -3.3,2.94235 -7.88197,6.3089 -10.18215,7.48122 -2.30018,1.17232 -4.44298,2.55351 -4.76176,3.06932 -0.31879,0.51581 -2.71182,1.65719 -5.31785,2.5364 -8.73869,2.94823 -9.10285,3.54913 -10.04101,16.56902 -0.72741,10.0951 -1.23276,12.31421 -4.09908,18 -7.86575,15.60297 -9.92401,17.5451 -24.09815,22.73835 -5.83786,2.13894 -7.68211,2.33403 -18.10441,1.91523 -8.04204,-0.32316 -12.57987,-0.97075 -14.782,-2.10951 -3.93576,-2.03526 -10.01441,-10.34193 -12.28388,-16.78632 l -1.70469,-4.84064 2.97444,-4.78488 c 1.63595,-2.63168 3.07032,-6.10383 3.18749,-7.71589 L 379.5,371.5 371.667,371 c -8.51054,-0.54325 -11.3021,-2.33356 -10.05341,-6.44754 1.45178,-4.78307 3.21533,-5.58057 11.73928,-5.30866 l 8.03167,0.2562 0.90002,-3.06741 c 0.70396,-2.39917 0.21404,-5.34017 -2.24885,-13.5 -1.73188,-5.73792 -3.38752,-11.37525 -3.6792,-12.52738 -0.40375,-1.59481 0.98284,-3.62358 5.80943,-8.5 6.33491,-6.40032 6.34815,-6.40732 17.33691,-9.1722 9.23568,-2.32379 11.60262,-2.59524 14.77717,-1.69471 7.15446,2.02952 16.22943,6.88716 20.86775,11.17007 4.28318,3.95497 10.72518,14.34255 12.04986,19.4301 l 0.5568,2.13847 5.41832,-2.63847 c 9.75229,-4.7489 25.38337,-16.70643 27.92927,-21.36544 0.59453,-1.08799 0.58759,-2.38298 -0.0188,-3.5 -0.97399,-1.79428 -2.41937,-6.84181 -2.54498,-8.88749 -0.0376,-0.61296 -0.61518,-1.77328 -1.28345,-2.57849 -0.66827,-0.80521 -1.38154,-2.3287 -1.58505,-3.38553 -0.20351,-1.05684 -1.59271,-4.50304 -3.08712,-7.65824 -1.49441,-3.15519 -2.4353,-6.19269 -2.09087,-6.75 C 470.83622,286.45598 470.61492,286 470,286 c -0.61492,0 -0.83992,-0.45 -0.5,-1 0.33992,-0.55 0.11975,-1 -0.48926,-1 -1.25712,0 -4.08012,-6.07872 -3.36235,-7.24009 C 465.90669,276.34196 465.61492,276 465,276 c -0.61492,0 -0.86906,-0.40285 -0.56476,-0.89522 0.3043,-0.49236 -0.15656,-1.1676 -1.02414,-1.50052 -0.86758,-0.33292 -1.39133,-1.16356 -1.1639,-1.84586 0.22743,-0.6823 -0.2099,-1.86395 -0.97184,-2.6259 -0.76195,-0.76194 -1.26199,-2.34096 -1.11121,-3.50893 0.15078,-1.16796 -0.0545,-2.65127 -0.45622,-3.29623 -0.4017,-0.64496 -1.20849,-3.56996 -1.79286,-6.5 -1.53698,-7.7064 -2.04828,-9.30605 -4.69309,-14.68284 -0.91541,-1.86098 -1.65055,-5.75818 -1.65055,-8.75 0,-2.96697 -0.30434,-5.3945 -0.67631,-5.3945 -0.70222,0 -1.92113,-5.82843 -2.03904,-9.75 -0.0372,-1.2375 -0.40709,-2.25 -0.82196,-2.25 -0.94548,0 -2.32124,-9.55378 -2.52933,-17.56456 -0.0867,-3.33551 -0.49106,-6.60421 -0.89869,-7.26377 -1.68425,-2.72516 -4.4396,-14.9271 -4.1246,-18.26556 0.25044,-2.65419 -0.16039,-3.95391 -1.5712,-4.97076 -1.05066,-0.75728 -1.9103,-2.12264 -1.9103,-3.03414 0,-0.91149 -1.0125,-2.40441 -2.25,-3.3176 -1.54375,-1.13917 -1.85764,-1.83139 -1,-2.2053 2.09046,-0.9114 1.39381,-2.55873 -0.78908,-1.86591 -1.77301,0.56273 -1.95718,0.32089 -1.41146,-1.85345 0.81985,-3.26653 -4.04256,-11.91336 -6.42346,-11.42285 -1.11345,0.22939 -1.53526,1.19064 -1.33815,3.04944 0.15832,1.49295 -0.17918,2.71446 -0.75,2.71446 C 422.46703,149 422,148.31088 422,147.46862 c 0,-0.84227 -0.675,-1.79041 -1.5,-2.10699 -0.86016,-0.33008 -1.5,-1.82303 -1.5,-3.5 0,-3.35914 -2.67288,-5.00871 -4.39461,-2.71214 -1.99527,2.66144 -4.76804,3.05304 -6.72723,0.95011 -1.77633,-1.90667 -1.74276,-1.97068 1.40095,-2.67135 1.77149,-0.39483 4.57089,-0.85158 6.22089,-1.01501 1.65,-0.16342 4.67706,-0.59627 6.72679,-0.96188 4.84702,-0.86457 16.42305,1.17217 19.70421,3.46685 1.41295,0.98814 3.75581,2.19828 5.20635,2.68921 1.45054,0.49092 5.72554,4.30494 9.5,8.4756 5.24971,5.80078 7.84604,9.79632 11.04672,17 7.5083,16.89876 10.31601,23.72937 10.31098,25.08459 -0.003,0.73282 0.64172,3.35739 1.43208,5.83239 2.57879,8.0754 5.5413,18.35233 7.49497,26 2.5022,9.79486 6.91411,22.10474 8.60243,24.00201 0.73512,0.8261 2.73866,4.62696 4.4523,8.44634 1.71364,3.81939 5.01788,9.21849 7.34275,11.998 8.94988,10.70005 10.65682,13.47038 21.29021,34.55365 2.35785,4.675 4.31022,9.2438 4.3386,10.15289 0.0284,0.90908 1.37084,5.63408 2.98322,10.5 4.18902,12.64174 4.94255,17.83457 5.20175,35.84711 0.25819,17.94209 -0.10097,20.83119 -4.35107,35 -3.27032,10.90249 -5.87633,16.11852 -10.74174,21.5 -1.74039,1.925 -5.00716,5.88449 -7.25948,8.79886 -2.25233,2.91437 -5.03697,5.79092 -6.1881,6.39233 -1.15114,0.60141 -4.55298,2.7129 -7.55966,4.69221 -5.06772,3.33609 -8.14635,4.8193 -21.53331,10.37419 -2.75,1.14111 -8.825,3.03617 -13.5,4.21125 l -8.5,2.13651 -0.70312,5.94733 c -0.38671,3.27102 -0.24034,11.7104 0.32528,18.75415 0.78356,9.75786 0.74325,13.15042 -0.16933,14.25 -1.24354,1.49838 -6.38443,1.68506 -14.95283,0.54298 z M 352.5,419 c -0.71181,-2.24272 -1.59569,-2.50431 -3.16366,-0.93634 -1.62828,1.62828 -5.51247,-5.51374 -4.71868,-8.67644 0.38268,-1.52471 1.22263,-2.37117 2.17044,-2.18725 2.09768,0.40705 2.77731,2.80003 0.79523,2.80003 -0.87083,0 -1.58333,0.6 -1.58333,1.33333 0,2.34808 1.27584,2.71596 3.76436,1.08541 1.48367,-0.97213 3.38036,-1.34825 4.88925,-0.96954 2.07444,0.52065 2.41618,1.12854 2.15581,3.83477 -0.27261,2.83339 -0.0417,3.17881 1.94058,2.90317 3.45362,-0.48022 2.67013,1.47883 -0.875,2.18786 -4.4662,0.89324 -4.67178,0.84065 -5.375,-1.375 z m -45.14463,-43.87257 c -0.47632,-0.34509 -1.47314,-2.36436 -2.21515,-4.48727 -1.1728,-3.35539 -1.14726,-4.06169 0.19536,-5.40431 1.39262,-1.39262 1.80143,-1.3761 4.15819,0.16811 3.13851,2.05643 3.92155,3.80513 3.12502,6.97878 -0.59403,2.36677 -3.61248,3.94079 -5.26342,2.74469 z m 20.34351,0.12257 c -0.23053,-0.4125 -0.33814,-2.17227 -0.23914,-3.91061 0.1354,-2.37731 1.40145,-4.29812 5.10856,-7.75052 2.71069,-2.52446 5.34074,-4.45252 5.84454,-4.28459 0.5038,0.16793 1.57264,1.2943 2.37521,2.50303 1.36904,2.06188 1.20437,2.43067 -2.66441,5.96708 -2.268,2.07316 -4.12364,4.12917 -4.12364,4.56892 0,2.39982 -5.23483,4.81463 -6.30112,2.90669 z m 5.91613,-33.71482 c -1.9893,-3.03606 -2.01662,-3.95699 -0.163,-5.49535 3.39734,-2.81954 9.38639,3.04011 6.57257,6.43056 -1.87302,2.25685 -4.57652,1.86239 -6.40957,-0.93521 z m 53.57249,-189.023 c -1.01389,-2.22524 -0.92378,-3.1516 0.54998,-5.6545 2.506,-4.25591 10.03504,-9.01987 13.67558,-8.65313 3.73894,0.37665 4.48615,2.50307 1.30461,3.71269 -2.86093,1.08773 -4.18956,3.80924 -2.72259,5.57683 1.41961,1.71053 -0.51478,3.1442 -5.49508,4.07267 -2.2,0.41014 -4.47249,1.38942 -5.04998,2.17618 -0.86004,1.1717 -1.26933,0.94906 -2.26252,-1.23074 z"
       style="fill:#86c533" />
    <path
       id="path9696"
       d="m 446,492.09981 c -4.02914,-0.53705 -4.534,-0.89681 -4.82496,-3.43824 C 440.72862,484.76211 443.45222,482 447.74374,482 l 3.43376,0 -0.43752,-13.51543 c -0.24063,-7.43349 -0.61807,-13.68594 -0.83874,-13.89434 C 449.68056,454.38184 444.325,454.05128 438,453.85567 L 426.5,453.5 l -0.5,19 -0.5,19 -7.47802,0.29841 c -6.17574,0.24645 -7.69952,-0.005 -8.75,-1.44113 C 406.54964,486.63425 408.93375,482 413.57143,482 c 1.33571,0 2.46516,-0.5625 2.50989,-1.25 0.50443,-7.75382 -0.43081,-25.47057 -1.39517,-26.42966 -0.65238,-0.64881 -4.56115,-1.65087 -8.68615,-2.22679 -7.23685,-1.0104 -17.48916,-4.26245 -19.45,-6.16958 -1.29006,-1.25472 1.10498,-1.1882 5.4566,0.15156 5.15226,1.58625 26.08774,1.16695 35.41762,-0.70935 8.39734,-1.68877 19.13978,-6.28578 28.57578,-12.22842 5.89536,-3.71281 22,-18.77793 22,-20.57995 0,-0.59809 0.9,-2.76663 2,-4.81899 1.1,-2.05237 2.01407,-4.2957 2.03127,-4.9852 0.0172,-0.68949 1.13809,-3.50362 2.49086,-6.25362 1.35277,-2.75 2.46857,-6.8 2.47955,-9 0.011,-2.2 0.6707,-6.14456 1.46604,-8.7657 2.48358,-8.18494 0.0771,-45.76712 -2.92741,-45.71692 -0.57217,0.01 -4.10373,2.70956 -7.84791,6 -3.74418,3.29044 -7.16889,5.98262 -7.61046,5.98262 -0.44156,0 -2.54354,1.18127 -4.67105,2.62503 -2.12751,1.44377 -5.67781,3.26162 -7.88955,4.03967 -2.21174,0.77804 -5.73727,2.79083 -7.83451,4.47285 -2.09725,1.68203 -6.36744,3.95598 -9.48931,5.05323 -3.12188,1.09725 -6.38226,2.3729 -7.24528,2.83478 -2.51311,1.34497 -25.59454,5.83603 -35.89997,6.98523 -8.44097,0.94127 -25.84866,0.622 -31.77341,-0.58275 -3.46646,-0.70488 -4.63919,-3.83057 -2.78353,-7.41901 1.77445,-3.43141 1.23343,-3.28105 12.50467,-3.47522 20.21609,-0.34828 44.66025,-4.71509 59,-10.54003 3.025,-1.22879 7.525,-3.01277 10,-3.96441 9.14917,-3.51787 14.41789,-6.36265 22.52771,-12.16355 9.76573,-6.98534 15.7854,-13.24259 15.0781,-15.67315 -0.27092,-0.93097 -1.22257,-4.27185 -2.11478,-7.42419 -0.89221,-3.15233 -2.04269,-5.99139 -2.55662,-6.30901 C 476.42049,303.14184 476,302.17729 476,301.31603 c 0,-1.84642 -3.54778,-10.27387 -9.63936,-22.89751 -4.11774,-8.53324 -6.49262,-15.56838 -8.41183,-24.91852 -0.45157,-2.2 -1.77197,-6.925 -2.93422,-10.5 -1.16225,-3.575 -2.50226,-8.75 -2.97781,-11.5 -0.47554,-2.75 -1.82251,-9.275 -2.99325,-14.5 -1.17075,-5.225 -2.51258,-13.775 -2.98185,-19 -0.46927,-5.225 -1.80012,-12.1844 -2.95745,-15.46534 C 441.94691,179.25372 441,175.01403 441,173.11312 c 0,-3.503 -3.23384,-12.90775 -7.2598,-21.11312 -2.69644,-5.49566 -10.52868,-14 -12.89359,-14 -2.96302,0 -3.06956,-1.90594 -0.14754,-2.63932 4.06374,-1.01993 17.95453,1.26197 21.10478,3.46698 1.48288,1.03795 3.88296,2.28883 5.3335,2.77976 1.45054,0.49092 5.72554,4.30494 9.5,8.4756 5.24971,5.80078 7.84604,9.79632 11.04672,17 7.5083,16.89876 10.31601,23.72937 10.31098,25.08459 -0.003,0.73282 0.64172,3.35739 1.43208,5.83239 2.57879,8.0754 5.5413,18.35233 7.49497,26 2.5022,9.79486 6.91411,22.10474 8.60243,24.00201 0.73512,0.8261 2.73866,4.62696 4.4523,8.44634 1.71364,3.81939 5.01788,9.21849 7.34275,11.998 8.94988,10.70005 10.65682,13.47038 21.29021,34.55365 2.35785,4.675 4.31022,9.2438 4.3386,10.15289 0.0284,0.90908 1.37084,5.63408 2.98322,10.5 4.18902,12.64174 4.94255,17.83457 5.20175,35.84711 0.25819,17.94209 -0.10097,20.83119 -4.35107,35 -3.27032,10.90249 -5.87633,16.11852 -10.74174,21.5 -1.74039,1.925 -5.00716,5.88449 -7.25948,8.79886 -2.25233,2.91437 -5.03697,5.79092 -6.1881,6.39233 -1.15114,0.60141 -4.55298,2.7129 -7.55966,4.69221 -5.06772,3.33609 -8.14635,4.8193 -21.53331,10.37419 -2.75,1.14111 -8.825,3.03617 -13.5,4.21125 l -8.5,2.13651 -0.70312,5.94733 c -0.38671,3.27102 -0.24034,11.7104 0.32528,18.75415 0.78356,9.75786 0.74325,13.15042 -0.16933,14.25 -1.24354,1.49838 -6.38443,1.68506 -14.95283,0.54298 z M 307.35537,375.12743 c -0.47632,-0.34509 -1.47314,-2.36436 -2.21515,-4.48727 -1.1728,-3.35539 -1.14726,-4.06169 0.19536,-5.40431 1.39262,-1.39262 1.80143,-1.3761 4.15819,0.16811 3.13851,2.05643 3.92155,3.80513 3.12502,6.97878 -0.59403,2.36677 -3.61248,3.94079 -5.26342,2.74469 z m 20.67967,-1.06196 c -1.48633,-2.77723 0.1055,-6.18965 4.99973,-10.71796 4.79474,-4.43626 5.69638,-4.63805 7.64055,-1.70998 1.32658,1.99793 1.03347,2.53675 -4.48797,8.25 -3.24899,3.36186 -6.17944,6.11247 -6.51212,6.11247 -0.33267,0 -1.07076,-0.87054 -1.64019,-1.93453 z m 5.57997,-32.53029 c -1.9893,-3.03606 -2.01662,-3.95699 -0.163,-5.49535 3.39734,-2.81954 9.38639,3.04011 6.57257,6.43056 -1.87302,2.25685 -4.57652,1.86239 -6.40957,-0.93521 z"
       style="fill:#749348" />
    <path
       id="path9694"
       d="m 448.19305,492.07607 c -6.97153,-0.8438 -8.76606,-3.38527 -5.59105,-7.91823 1.20408,-1.71906 2.38393,-2.20901 4.75,-1.97251 l 3.148,0.31467 0,-14 0,-14 -11.96493,-0.70174 c -6.58071,-0.38596 -12.16503,-0.50164 -12.40959,-0.25707 -0.24457,0.24457 -0.34373,8.46858 -0.22035,18.27558 0.17294,13.74692 -0.0768,18.07217 -1.0904,18.88429 -0.7231,0.57936 -4.09363,1.08272 -7.49007,1.11858 -6.90212,0.0729 -8.66214,-1.09038 -8.14692,-5.3846 0.2479,-2.06613 1.12988,-2.94806 3.82226,-3.82205 l 3.5,-1.13615 -0.36,-12.98842 c -0.198,-7.14363 -0.775,-13.502 -1.28222,-14.12971 -0.50722,-0.62771 -3.04522,-1.44428 -5.64,-1.8146 -2.59478,-0.37033 -6.51778,-1.16435 -8.71778,-1.76449 -3.77443,-1.02964 -3.85902,-1.13316 -1.5,-1.83572 2.43548,-0.72532 2.42257,-0.74761 -0.5,-0.86351 -3.36221,-0.13333 -13.84393,-2.85438 -11.5,-2.9854 0.825,-0.0461 3.2104,0.39113 5.3009,0.97164 3.7824,1.05035 32.27187,1.90176 30.67416,0.9167 -0.46091,-0.28416 1.71865,-0.52114 4.84346,-0.52662 4.28055,-0.007 7.34589,-0.79181 12.43148,-3.18079 3.7125,-1.74396 6.75,-3.43104 6.75,-3.74906 0,-0.31802 -1.35,0.11989 -3,0.97314 -1.65,0.85325 -3,1.32636 -3,1.05136 0,-1.20691 6.04464,-3.47558 7.68665,-2.88495 0.99734,0.35874 1.47871,0.28341 1.06971,-0.16739 -0.75936,-0.83696 0.43819,-1.86318 5.74364,-4.92188 1.89808,-1.09429 2.26539,-1.16661 1,-0.1969 -5.66563,4.34175 -6.13599,4.83613 -2.93395,3.08379 2.94902,-1.61388 9.24066,-6.31268 6.68395,-4.99179 -1.79409,0.92689 -1.54026,0.008 0.44196,-1.5998 1.14966,-0.93255 1.45126,-0.9718 0.94098,-0.12244 -0.41304,0.6875 -0.35861,1.25 0.12095,1.25 1.19062,0 6.39578,-5.517 5.78315,-6.12962 -0.27002,-0.27003 1.86118,-2.71383 4.736,-5.43067 L 477.5,414.5 l -4.99955,5.5 -4.99954,5.5 5.74869,-5.465 c 4.3089,-4.09625 5.59685,-5.94343 5.14242,-7.37523 -0.36541,-1.1513 -0.20806,-1.66411 0.39606,-1.29074 0.55129,0.34071 1.23892,0.0596 1.52806,-0.62477 C 485.11875,399.37727 488,390.80474 488,387.8826 c 0,-1.99713 0.69994,-5.60022 1.55541,-8.00687 2.39954,-6.75044 1.08829,-35.78795 -2.15063,-47.62573 -0.58899,-2.15266 -1.88389,-1.43563 -9.48108,5.25 -4.06244,3.575 -7.72542,6.5 -8.13995,6.5 -0.41454,0 -2.89796,1.29969 -5.51873,2.8882 -2.62076,1.58851 -5.89002,3.21882 -7.26502,3.62291 -1.375,0.4041 -5.04751,2.29369 -8.16114,4.1991 -3.11363,1.9054 -7.38863,4.08034 -9.5,4.83319 -2.11137,0.75285 -3.0364,1.38857 -2.05562,1.41271 0.98079,0.0241 4.12424,-1.14238 6.98545,-2.59226 3.0523,-1.54672 4.68576,-2.0139 3.95256,-1.13044 -0.6873,0.82814 -3.38074,2.26654 -5.98544,3.19644 -2.6047,0.9299 -6.17889,2.32206 -7.94265,3.09368 -7.48483,3.27452 -40.12585,8.66144 -50.29316,8.30016 -4.31966,-0.1535 -4.25954,-0.18949 1.5,-0.89816 3.82981,-0.47122 1.11708,-0.59012 -7.5,-0.32872 -9.5947,0.29106 -13.06608,0.10638 -12,-0.63839 1.19832,-0.83716 1.00648,-0.98864 -0.95386,-0.75317 -2.11723,0.25431 -2.46019,-0.11681 -2.5,-2.70525 -0.0254,-1.65 0.62886,-3.59587 1.45386,-4.32416 1.09886,-0.97004 1.1244,-1.12929 0.0955,-0.59549 -0.90081,0.46734 -1.15829,0.33029 -0.71797,-0.38217 0.37759,-0.61096 1.42094,-0.82901 2.31855,-0.48457 1.09093,0.41863 1.39229,0.23838 0.90896,-0.54367 C 366.11202,359.37223 366.87402,359 369,359 c 1.71492,0 2.90426,0.34589 2.64299,0.76864 -0.26127,0.42275 3.19967,0.80237 7.69098,0.84361 5.33082,0.0489 7.12444,-0.17685 5.16603,-0.65032 -1.65,-0.39892 -2.325,-0.78749 -1.5,-0.86349 28.77598,-2.65111 41.83272,-5.5755 58,-12.9906 2.475,-1.13515 5.175,-2.04618 6,-2.02451 0.825,0.0217 -0.75,1.09934 -3.5,2.39481 -2.75,1.29547 -4.67533,2.39285 -4.27851,2.43863 0.85099,0.0982 9.20372,-3.84749 16.29068,-7.69539 12.80254,-6.9512 27.49776,-19.85842 27.47252,-24.12989 -0.0123,-2.0738 -0.21809,-2.29184 -1.03038,-1.09149 -0.7581,1.12027 -0.85794,0.8221 -0.39439,-1.17783 0.83244,-3.59152 -0.39779,-7.63683 -1.73475,-5.7043 -0.68443,0.98932 -0.78011,0.75464 -0.33666,-0.82573 0.35873,-1.27846 -0.0615,-3.38323 -0.99815,-5 -0.88972,-1.53568 -1.36918,-1.98127 -1.06547,-0.9902 0.32256,1.05255 0.13956,1.54691 -0.44001,1.18871 -0.54572,-0.33727 -0.73283,-1.64673 -0.41579,-2.90991 C 477.11667,298.39901 474.75871,291 473.51584,291 c -0.32241,0 -0.12037,0.87042 0.44898,1.93426 0.56935,1.06384 1.01632,2.30134 0.99326,2.75 -0.0566,1.10074 -3.86715,-5.91728 -3.90085,-7.18426 -0.0146,-0.55 0.45895,-0.325 1.05242,0.5 0.89739,1.24751 0.97897,1.19167 0.48468,-0.33179 C 472.26745,287.66073 472,286.39667 472,285.8592 c 0,-0.53748 -0.44485,-0.7023 -0.98855,-0.36628 -0.5437,0.33603 -0.75877,0.0122 -0.47793,-0.71968 0.28084,-0.73184 -0.17542,-2.21772 -1.01391,-3.30193 -1.51359,-1.95718 -1.52024,-1.95698 -0.92773,0.0287 0.43907,1.47144 0.33997,1.6404 -0.37498,0.6393 -0.53447,-0.74838 -0.76288,-2.32338 -0.50759,-3.5 0.38963,-1.79569 0.27448,-1.89837 -0.7169,-0.6393 -1.01927,1.29451 -1.10553,1.26438 -0.62967,-0.21992 0.30327,-0.94596 -0.28683,-3.64596 -1.31133,-6 -1.69988,-3.90587 -4.0386,-11.97842 -5.52511,-19.07098 -0.32171,-1.53499 -0.97977,-2.54687 -1.46236,-2.24862 -0.48258,0.29825 -0.64968,-0.32861 -0.37133,-1.39304 0.66013,-2.52431 -1.57125,-9.26048 -2.81328,-8.49286 -0.57747,0.3569 -0.71226,-0.53528 -0.33853,-2.24079 0.41863,-1.91044 0.31398,-2.39895 -0.32118,-1.49926 -1.37685,1.9503 -2.16794,-1.80093 -1.47278,-6.98373 0.39853,-2.97129 0.23219,-3.95588 -0.58318,-3.45195 -0.74163,0.45836 -0.92843,0.15174 -0.53392,-0.87636 0.90833,-2.36707 -1.87222,-14.10479 -2.80146,-11.82599 -0.46929,1.15085 -0.67965,0.35598 -0.58129,-2.1965 0.0848,-2.2 0.005,-6.25 -0.17807,-9 -0.3293,-4.95637 -0.33909,-4.96946 -1.12152,-1.5 -0.52607,2.33276 -0.61412,1.2867 -0.264,-3.13663 0.58138,-7.34501 -0.37698,-13.9772 -1.70843,-11.82287 -0.49395,0.79922 -0.74303,-0.023 -0.6413,-2.11686 0.0915,-1.883 -0.28367,-3.34994 -0.83367,-3.25987 -0.57385,0.094 -1.01149,-2.46292 -1.02696,-6 -0.0294,-6.72149 -4.94136,-21.1104 -6.81185,-19.95438 -0.60145,0.37172 -0.73821,-0.0663 -0.34258,-1.09728 0.37195,-0.96929 0.25016,-1.46363 -0.27989,-1.13604 -1.26219,0.78008 -3.33786,-3.25415 -2.62718,-5.10615 0.31105,-0.81059 0.19525,-1.24494 -0.25734,-0.96522 -0.45259,0.27972 -2.79113,-1.49691 -5.19676,-3.94806 -2.40562,-2.45115 -5.29266,-4.50884 -6.41565,-4.57264 -2.00771,-0.11407 -2.00841,-0.12434 -0.0418,-0.61568 1.1,-0.27483 2.28243,-0.94757 2.62762,-1.495 1.05989,-1.68084 14.57851,1.18113 20.72574,4.38776 8.45776,4.41189 17.43507,14.20811 22.09448,24.10995 7.50015,15.93876 11.05201,24.02215 11.03767,25.1198 -0.008,0.61004 0.93578,4.25917 2.09722,8.10917 3.57408,11.8476 5.80115,19.73946 7.33715,26 2.19533,8.94784 7.26035,22.57621 9.53289,25.64999 1.10038,1.48835 2.82796,4.88328 3.83907,7.54431 1.01111,2.66102 5.08129,8.94375 9.04485,13.96161 8.69374,11.00629 22.02898,34.61564 23.74851,42.04553 0.35623,1.53921 1.73221,6.17356 3.05774,10.29856 3.91263,12.17595 5.26378,20.71042 5.46193,34.5 0.23956,16.67177 -0.70845,25.33185 -3.70109,33.8096 -1.32208,3.74528 -2.40378,7.50492 -2.40378,8.35477 0,2.94807 -5.15176,11.85897 -9.4443,16.33563 -2.37321,2.475 -5.70775,6.46435 -7.41009,8.86522 -6.28207,8.85982 -29.68881,21.03659 -49.32227,25.65866 -6.05661,1.42584 -7.78993,2.24035 -8.21336,3.85957 -0.58477,2.23616 0.25202,33.81189 0.91358,34.47345 0.22334,0.22333 -0.0439,1.2469 -0.59393,2.27458 -1.0648,1.9896 -2.94848,2.1293 -12.73658,0.94459 z m -142.37,-120.68698 c -2.09222,-4.4993 -1.40733,-6.59585 2.02315,-6.19319 3.37029,0.39561 6.14737,4.99927 4.55167,7.54547 -1.97454,3.15071 -4.74594,2.58071 -6.57482,-1.35228 z m 22.52831,1.99393 c -1.8224,-0.7649 1.10204,-5.66308 5.88345,-9.85428 3.85515,-3.37926 4.28894,-3.53296 5.45819,-1.93391 1.10029,1.50473 0.63786,2.41719 -3.45687,6.82114 -4.80797,5.17105 -5.8439,5.82364 -7.88477,4.96705 z M 333.9426,341.25 c -0.75813,-1.5125 -1.53271,-3.05703 -1.72128,-3.4323 -0.18857,-0.37526 0.58449,-1.17859 1.71791,-1.78518 4.10734,-2.19818 8.6402,3.24519 5.40032,6.48507 -2.19974,2.19975 -3.85367,1.81128 -5.39695,-1.26759 z"
       style="fill:#73a039" />
    <path
       id="path9692"
       d="m 448.19305,492.07607 c -6.97153,-0.8438 -8.76606,-3.38527 -5.59105,-7.91823 1.20408,-1.71906 2.38393,-2.20901 4.75,-1.97251 l 3.148,0.31467 0,-14 0,-14 -11.96493,-0.70174 c -6.58071,-0.38596 -12.16503,-0.50164 -12.40959,-0.25707 -0.24457,0.24457 -0.34373,8.46858 -0.22035,18.27558 0.17294,13.74692 -0.0768,18.07217 -1.0904,18.88429 -0.7231,0.57936 -4.09363,1.08272 -7.49007,1.11858 -6.90212,0.0729 -8.66214,-1.09038 -8.14692,-5.3846 0.2479,-2.06613 1.12988,-2.94806 3.82226,-3.82205 l 3.5,-1.13615 -0.36,-12.98842 c -0.198,-7.14363 -0.76496,-13.4899 -1.25991,-14.10282 -0.49495,-0.61292 -4.15794,-1.64077 -8.14,-2.28411 -9.82407,-1.58717 -11.87148,-3.00683 -4.74009,-3.28674 3.025,-0.11873 7.27296,-0.10785 9.43992,0.0242 2.16696,0.13204 8.24196,-0.47083 13.5,-1.3397 9.92151,-1.6395 23.15779,-7.15056 33.06008,-13.76491 C 464.67994,429.27238 477.90778,416.00911 479.67626,412 484.70429,400.60152 488,391.05246 488,387.8826 c 0,-1.99713 0.69994,-5.60022 1.55541,-8.00687 2.39954,-6.75044 1.08829,-35.78795 -2.15063,-47.62573 -0.58422,-2.13524 -1.89125,-1.44142 -8.83938,4.69227 -6.46209,5.70462 -10.37677,8.22894 -19.0654,12.29403 -2.2,1.02931 -5.575,2.75596 -7.5,3.83701 -3.92992,2.20699 -11.5984,5.89675 -17.27786,8.3134 -4.57759,1.9478 -25.05109,6.18202 -36.69591,7.58926 -10.73666,1.29749 -29.10417,1.32509 -32.46113,0.0488 -3.40507,-1.2946 -3.48515,-5.3758 -0.14839,-7.56213 1.97249,-1.29243 3.39599,-1.40549 7.74447,-0.61513 2.93028,0.53259 5.55526,0.83048 5.8333,0.66197 0.27804,-0.16851 6.58052,-0.83993 14.00552,-1.49205 7.57071,-0.66491 18.55088,-2.44494 25,-4.05281 11.26388,-2.80828 29.80763,-9.71217 32.92606,-12.25846 0.86567,-0.70685 3.17077,-2.00437 5.12246,-2.8834 5.09566,-2.29504 13.36127,-8.39897 20.72739,-15.3066 6.38082,-5.98366 6.38102,-5.98402 5.71632,-10.41649 -0.36559,-2.43795 -1.7509,-6.8887 -3.07847,-9.89057 C 478.08619,302.20721 477,299.27421 477,298.69129 c 0,-1.12734 -1.05623,-3.52357 -8.3333,-18.90545 -4.06385,-8.58994 -5.75161,-13.59819 -9.86922,-29.28584 -0.57745,-2.2 -1.93224,-6.7 -3.01066,-10 -1.07842,-3.3 -2.58578,-9.6 -3.34969,-14 -0.76391,-4.4 -2.03489,-10.925 -2.82441,-14.5 -0.78952,-3.575 -1.73463,-10.1 -2.10025,-14.5 -0.63794,-7.67714 -1.67594,-12.71193 -3.50482,-17 -0.46916,-1.1 -1.09072,-4.475 -1.38126,-7.5 -0.93727,-9.7586 -8.5814,-26.09993 -15.3136,-32.73682 -2.46753,-2.43259 -4.25173,-4.65757 -3.9649,-4.9444 1.20403,-1.20404 15.29214,2.12282 20.50547,4.8423 8.45776,4.41189 17.43507,14.20811 22.09448,24.10995 7.50015,15.93876 11.05201,24.02215 11.03767,25.1198 -0.008,0.61004 0.93578,4.25917 2.09722,8.10917 3.57408,11.8476 5.80115,19.73946 7.33715,26 2.19533,8.94784 7.26035,22.57621 9.53289,25.64999 1.10038,1.48835 2.82796,4.88328 3.83907,7.54431 1.01111,2.66102 5.08129,8.94375 9.04485,13.96161 8.69374,11.00629 22.02898,34.61564 23.74851,42.04553 0.35623,1.53921 1.73221,6.17356 3.05774,10.29856 3.91263,12.17595 5.26378,20.71042 5.46193,34.5 0.23956,16.67177 -0.70845,25.33185 -3.70109,33.8096 -1.32208,3.74528 -2.40378,7.50492 -2.40378,8.35477 0,2.94807 -5.15176,11.85897 -9.4443,16.33563 -2.37321,2.475 -5.70775,6.46435 -7.41009,8.86522 -6.28207,8.85982 -29.68881,21.03659 -49.32227,25.65866 -6.05661,1.42584 -7.78993,2.24035 -8.21336,3.85957 -0.58477,2.23616 0.25202,33.81189 0.91358,34.47345 0.22334,0.22333 -0.0439,1.2469 -0.59393,2.27458 -1.0648,1.9896 -2.94848,2.1293 -12.73658,0.94459 z m -142.37,-120.68698 c -2.09222,-4.4993 -1.40733,-6.59585 2.02315,-6.19319 3.37029,0.39561 6.14737,4.99927 4.55167,7.54547 -1.97454,3.15071 -4.74594,2.58071 -6.57482,-1.35228 z m 22.76303,1.75019 c -1.1025,-1.78388 1.15881,-5.67486 5.51954,-9.49729 3.9707,-3.48056 4.41912,-3.64485 5.58738,-2.04716 1.10029,1.50473 0.63786,2.41719 -3.45687,6.82114 -4.92796,5.3001 -6.6402,6.35728 -7.65005,4.72331 z M 333.9426,341.25 c -0.75813,-1.5125 -1.53271,-3.05703 -1.72128,-3.4323 -0.18857,-0.37526 0.58449,-1.17859 1.71791,-1.78518 4.10734,-2.19818 8.6402,3.24519 5.40032,6.48507 -2.19974,2.19975 -3.85367,1.81128 -5.39695,-1.26759 z"
       style="fill:#555648" />
    <path
       id="path9690"
       d="m 446.19266,491.27233 c -3.82516,-0.47142 -4.91982,-2.38098 -3.34556,-5.8361 C 443.7596,483.4335 444.6838,483 448.04092,483 l 4.08379,0 -0.31958,-14.75 -0.31959,-14.75 -12.49277,-0.66029 c -6.87102,-0.36316 -12.89221,-0.27872 -13.38041,0.18764 -0.48821,0.46637 -0.93821,9.0885 -1,19.16029 L 424.5,490.5 l -6.76519,0.29604 c -6.27215,0.27446 -6.8274,0.1287 -7.6186,-2 -1.18782,-3.19577 -0.42329,-4.56968 2.95586,-5.31187 1.59775,-0.35092 3.22469,-1.15533 3.61544,-1.78756 0.98634,-1.59594 0.34842,-25.76096 -0.73342,-27.78238 -0.48479,-0.90585 -2.69778,-1.93744 -4.91776,-2.29243 C 408.81635,451.26681 407,450.47417 407,449.86037 c 0,-0.74328 1.34568,-0.9008 4.02931,-0.47167 6.43873,1.02959 22.43429,-2.09627 30.64256,-5.98819 3.94453,-1.87028 7.41684,-3.40051 7.71626,-3.40051 1.71196,0 13.59688,-8.74587 20.81927,-15.32047 8.09044,-7.36481 8.56971,-8.05159 13.19706,-18.91094 2.68371,-6.29809 5.15851,-13.91515 5.61059,-17.26859 0.44488,-3.3 1.45681,-7.8 2.24874,-10 1.57029,-4.36229 1.47601,-17.65049 -0.22704,-32 -1.62798,-13.71703 -2.40828,-16.94907 -4.17387,-17.28847 -0.90041,-0.17309 -4.95041,2.53801 -9,6.02466 C 470.41477,341.64894 459.24417,349 456.94754,349 c -0.68806,0 -4.7193,2.00051 -8.95832,4.44557 -4.23901,2.44506 -9.00823,4.75711 -10.59826,5.13789 -1.59003,0.38077 -3.39205,1.0844 -4.00449,1.56361 -1.47203,1.15182 -16.17774,4.25426 -29.88647,6.30511 -12.4205,1.85812 -37.23602,2.2118 -38.89351,0.55431 -0.74872,-0.74872 -0.74002,-1.56912 0.0295,-2.78401 0.89305,-1.4099 2.7037,-1.7343 9.97752,-1.7876 22.51688,-0.16502 46.74993,-4.43864 62.66791,-11.0518 4.47871,-1.8607 8.68806,-3.38308 9.35411,-3.38308 0.66605,0 2.54799,-1.125 4.18208,-2.5 1.6341,-1.375 3.43413,-2.5 4.00007,-2.5 1.45922,0 17.14763,-10.81442 21.79339,-15.02273 7.17658,-6.50083 8.2888,-8.47664 7.28544,-12.94225 -0.49003,-2.18098 -2.01722,-6.51207 -3.39375,-9.62465 C 479.12625,302.2978 478,299.10427 478,298.31364 c 0,-1.3882 -0.92761,-3.52571 -9.03245,-20.81364 -4.05028,-8.63939 -6.60677,-15.67336 -7.99588,-22 -0.48304,-2.2 -1.3218,-6.025 -1.8639,-8.5 -0.5421,-2.475 -1.73956,-6.525 -2.66101,-9 -0.92145,-2.475 -2.29155,-7.875 -3.04467,-12 -0.75311,-4.125 -1.83087,-9.525 -2.39501,-12 -0.56415,-2.475 -1.6597,-9.45 -2.43456,-15.5 -0.77487,-6.05 -1.93309,-12.8 -2.57383,-15 -0.64074,-2.2 -1.59348,-7.10752 -2.11721,-10.90559 -0.52372,-3.79807 -1.57169,-8.07307 -2.32881,-9.5 -0.75712,-1.42693 -2.94728,-6.03614 -4.86704,-10.24271 -1.93515,-4.24032 -5.32639,-9.5401 -7.61074,-11.89397 -2.26615,-2.33512 -3.9712,-4.39475 -3.78899,-4.57696 1.05717,-1.05717 13.41693,2.09577 18.31429,4.67193 7.43798,3.91261 17.54736,14.41651 20.95074,21.76835 8.19934,17.71189 12.4501,27.73632 12.44412,29.34656 -0.003,0.73282 0.63024,3.35739 1.40657,5.83239 2.4083,7.67785 4.55269,15.14264 7.03802,24.5 3.40993,12.83847 7.26348,23.44523 9.99105,27.5 1.29491,1.925 2.86735,5.075 3.49431,7 1.15575,3.54859 2.12008,4.98579 12.24564,18.25035 3.11886,4.08572 7.42419,10.76332 9.56741,14.83912 2.14322,4.07579 4.38887,8.31053 4.99035,9.41053 2.84594,5.20479 6.26017,13.68747 8.25112,20.5 1.20553,4.125 2.86423,9.75 3.686,12.5 1.95481,6.54162 3.73766,39.90467 2.34579,43.89741 -0.55622,1.59557 -1.01959,4.07139 -1.02971,5.50181 -0.0195,2.75351 -6.05392,22.49888 -7.97027,26.07961 -0.6221,1.1624 -3.80806,5.06739 -7.0799,8.67774 -3.27185,3.61036 -6.67354,7.79115 -7.55932,9.29064 -0.88578,1.4995 -3.21551,3.58731 -5.17719,4.63958 -1.96168,1.05226 -5.39554,3.25218 -7.63081,4.88869 -6.59498,4.82842 -24.07205,11.97617 -34.56411,14.13598 -4.125,0.84913 -7.92994,1.96138 -8.45543,2.47164 -0.55681,0.54069 -0.87207,9.0612 -0.75563,20.42233 L 459.98875,492 l -5.24438,-0.16004 c -2.8844,-0.088 -6.73267,-0.34345 -8.55171,-0.56763 z"
       style="fill:#46483a" />
    <path
       id="path9688"
       d="m 450.5,491.34794 c -6.57109,-0.86816 -7.5,-1.33194 -7.5,-3.74455 0,-3.10296 2.22101,-4.83701 5.22855,-4.08216 2.53097,0.63523 5.45362,-1.60843 4.37294,-3.35701 -0.31388,-0.50787 -0.62878,-6.83185 -0.69978,-14.05329 -0.1521,-15.46989 1.31818,-14.18998 -15.90171,-13.84279 l -11.5,0.23186 0.38667,18.75 c 0.21649,10.49808 -0.004,18.77995 -0.5,18.81806 -12.58564,0.96604 -13.36189,0.87885 -13.9765,-1.56995 -0.74255,-2.95855 0.13962,-4.49811 2.57742,-4.49811 1.02825,0 2.6079,-0.73835 3.51032,-1.64077 1.41662,-1.41662 1.56659,-3.48168 1.09774,-15.11583 -0.31423,-7.79765 -1.02289,-14.05327 -1.68196,-14.8474 -1.39423,-1.67994 -1.37724,-1.68582 10.82574,-3.73974 5.9683,-1.00454 11.88841,-2.81216 16.72155,-5.10569 4.11516,-1.95281 7.79699,-3.55057 8.18183,-3.55057 0.38484,0 1.41014,-0.62933 2.27845,-1.39852 0.86831,-0.76919 3.32894,-2.37171 5.46806,-3.56117 2.13913,-1.18946 7.36893,-5.34554 11.62177,-9.23575 6.05903,-5.54238 8.39007,-8.50484 10.77122,-13.68883 C 487.54529,399.56911 491,390.0358 491,386.67937 c 0,-3.18034 1.19102,-7.1411 5.85047,-19.4558 2.37807,-6.28513 2.29452,-14.30089 -0.17753,-17.03248 C 495.75282,349.17438 495,347.24058 495,345.89377 c 0,-1.34682 -0.68736,-3.4301 -1.52747,-4.62952 -1.25008,-1.78474 -1.98841,-5.59463 -2.42519,-12.51425 -0.026,-0.4125 -0.67059,-0.75 -1.43233,-0.75 -2.3926,0 -4.1777,-4.25751 -3.9832,-9.5 0.17459,-4.70562 -0.70583,-7.5524 -5.22772,-16.90364 -0.77225,-1.597 -1.40409,-3.89881 -1.40409,-5.11514 0,-1.21633 -0.9,-3.35567 -2,-4.75409 -1.1,-1.39842 -2,-3.70911 -2,-5.13486 C 475,285.16652 474.59445,284 474.09878,284 472.86947,284 469,277.29536 469,275.16535 c 0,-0.94619 -0.62014,-2.60797 -1.37809,-3.69284 -1.73283,-2.48026 -4.75808,-11.16364 -5.04215,-14.47251 -0.20155,-2.34762 -1.48948,-7.49719 -3.64428,-14.571 C 458.42096,240.73995 458,238.65755 458,237.80145 c 0,-0.85611 -0.675,-2.11676 -1.5,-2.80145 -0.88077,-0.73097 -1.50985,-2.94883 -1.52386,-5.37244 -0.0131,-2.27016 -0.4881,-5.92756 -1.05552,-8.12756 -1.8132,-7.03014 -3.77908,-18.77719 -4.40846,-26.34258 -0.33596,-4.03841 -0.9834,-8.08841 -1.43875,-9 -1.63354,-3.27028 -2.90912,-8.77083 -3.55863,-15.34553 -0.38022,-3.84882 -1.26653,-7.1909 -2.08775,-7.87245 C 441.64217,162.28806 441,161.20659 441,160.53618 c 0,-2.476 -8.12952,-17.53513 -10.00923,-18.54112 -1.06972,-0.57249 -2.45797,-1.99951 -3.08501,-3.17114 -1.10683,-2.06815 -0.99808,-2.11344 3.73044,-1.55341 9.38558,1.11158 22.88085,10.40704 29.47978,20.3055 5.78759,8.68143 18.88474,41.4334 18.88423,47.22365 -1.2e-4,1.26481 0.63805,3.53393 1.41815,5.04247 0.78011,1.50855 1.94051,5.64871 2.57868,9.20034 0.63818,3.55164 2.47491,9.75403 4.08164,13.78309 1.60673,4.02906 2.92132,8.10345 2.92132,9.05422 0,0.95076 1.40742,3.94793 3.1276,6.66037 1.72018,2.71245 3.75514,6.71035 4.52213,8.88422 0.76698,2.17388 3.29706,6.41874 5.6224,9.43303 2.32533,3.01429 6.17462,7.99199 8.55398,11.06156 2.37935,3.06957 5.42204,7.83104 6.76152,10.58104 1.33948,2.75 3.60327,7.25 5.03064,10 6.00872,11.57651 7.38284,14.59295 7.40282,16.25052 0.0116,0.96221 1.14364,4.89948 2.51564,8.74948 3.98925,11.19429 5.39254,19.80755 5.51618,33.85757 0.15533,17.65217 -0.65897,24.21434 -4.5615,36.75967 -4.14999,13.34087 -5.38065,15.6919 -11.96032,22.84894 -2.93203,3.18932 -6.08726,6.95301 -7.01162,8.36376 -0.92436,1.41075 -4.00689,4.01837 -6.85006,5.79472 -2.84318,1.77635 -6.06941,4.01425 -7.16941,4.9731 -1.1,0.95885 -4.25,2.63738 -7,3.73007 -2.75,1.09269 -8.16658,3.32042 -12.03685,4.95053 -3.87026,1.6301 -10.33137,3.55259 -14.35803,4.27219 -4.02665,0.7196 -7.9851,1.97229 -8.79656,2.78374 -1.22212,1.22213 -1.41814,4.75303 -1.14197,20.57054 L 459.5,491.5 l -3,0.12215 c -1.65,0.0672 -4.35,-0.0562 -6,-0.27421 z"
       style="fill:#403e38" />
    <path
       id="path9686"
       d="m 454,491.44755 c -0.825,-0.17624 -3.6375,-0.60162 -6.25,-0.94527 -4.16093,-0.54734 -4.75,-0.91994 -4.75,-3.00454 0,-2.93394 1.24899,-3.75974 5.88895,-3.89363 l 3.60782,-0.10411 0.002,-15.36975 c 0.002,-17.71712 0.29356,-17.22714 -9.74687,-16.37228 -3.77975,0.32182 -6.26272,0.0627 -7.25,-0.75671 -1.08614,-0.90141 -1.86172,-0.94721 -2.80356,-0.16556 -1.39085,1.15431 -5.69796,0.48076 -5.69796,-0.89106 0,-0.45215 2.1375,-1.1331 4.75,-1.51322 2.6125,-0.38012 5.96515,-1.30769 7.45034,-2.06127 3.14764,-1.59711 4.79966,-1.74845 4.79966,-0.4397 0,0.51175 -1.0125,1.07425 -2.25,1.25 -2.98836,0.42441 -2.87998,2.23054 0.15962,2.66002 1.41124,0.1994 2.76332,-0.29157 3.2633,-1.18497 0.60951,-1.08913 1.81459,-1.36951 4.21325,-0.98026 1.9631,0.31857 3.64478,0.0837 4.04572,-0.56503 0.37738,-0.61061 1.47537,-1.11021 2.43997,-1.11021 1.90881,0 10.56451,-4.0959 13.37814,-6.33058 0.9625,-0.76445 1.75285,-2.0153 1.75632,-2.77966 0.003,-0.76437 1.44166,-2.20694 3.19595,-3.20571 3.1313,-1.78274 3.21877,-1.77733 4.78258,0.29587 1.30994,1.73662 2.0302,1.93726 4.05405,1.12933 2.41002,-0.96209 2.4144,-0.98379 0.2111,-1.04586 -2.36358,-0.0666 -3.23388,-3.33728 -1.21932,-4.58235 0.5877,-0.36322 0.764,-2.05855 0.4102,-3.9445 -0.39537,-2.10749 -0.18453,-3.57694 0.58112,-4.05013 1.27483,-0.7879 3.17825,1.38056 2.36577,2.69518 -0.26414,0.42739 0.006,1.68638 0.60117,2.79774 1.27237,2.37744 4.81891,2.68497 5.66087,0.49087 0.34967,-0.91124 1.29076,-1.30645 2.32743,-0.97742 0.95722,0.30381 2.27047,-0.0863 2.91834,-0.86697 0.64788,-0.78064 2.06141,-1.18831 3.14119,-0.90594 1.44667,0.37831 1.96323,0.009 1.96323,-1.40324 0,-1.05415 0.41109,-2.34413 0.91354,-2.86663 1.17842,-1.22545 1.81603,-5.34519 0.83646,-5.40455 -2.3342,-0.14145 -2.75141,0.11572 -2.76531,1.70455 -0.008,0.9625 -0.42413,2.39606 -0.92379,3.1857 -1.47326,2.32827 -4.34814,-0.66223 -3.72507,-3.87488 0.29826,-1.53787 -0.13321,-3.26233 -1.08012,-4.31695 -2.147,-2.39122 -0.74515,-3.49678 1.6665,-1.31427 1.22953,1.11271 2.68374,1.51285 3.99062,1.09807 1.13088,-0.35893 3.82438,-0.677 5.98555,-0.70683 4.35715,-0.0601 5.04384,-1.08079 5.59821,-8.32084 0.67892,-8.86678 2.85393,-14 5.93198,-14 0.58929,0 1.11713,-1.125 1.17299,-2.5 0.0559,-1.375 0.26397,-2.95 0.46246,-3.5 0.19848,-0.55 -0.20553,-2.0218 -0.89781,-3.27067 -0.69229,-1.24886 -1.01143,-2.67075 -0.70921,-3.15975 0.8729,-1.41301 -0.52884,-4.06958 -2.1477,-4.06958 -0.81199,0 -1.28452,-0.5625 -1.05006,-1.25 0.23446,-0.6875 1.40003,-1.10869 2.59015,-0.93599 2.79759,0.40598 3.75886,-2.10698 1.84901,-4.83367 -1.30631,-1.86502 -1.30594,-2.46053 0.003,-5.08462 1.84528,-3.69896 1.07622,-5.96006 -1.91829,-5.63989 -1.94799,0.20828 -2.23636,-0.16001 -1.96205,-2.50583 0.17721,-1.51556 -0.168,-2.75 -0.76906,-2.75 -1.16682,0 -0.41132,-4.8214 0.99845,-6.37186 C 517.16362,341.40446 516.06485,339 514.39301,339 513.62686,339 513,338.6625 513,338.25 c 0,-1.53417 6.19112,-0.70912 7.43405,0.99069 1.19765,1.63789 1.38221,1.61982 3.125,-0.30594 1.5248,-1.68489 1.63908,-2.38784 0.64656,-3.97712 C 523.54253,333.89586 523,331.89603 523,330.51357 523,328.66667 522.46955,328 521,328 c -1.45377,0 -2,0.66667 -2,2.44098 0,2.65436 -2.1248,4.68461 -2.79586,2.67145 -0.22764,-0.68292 -1.4917,-1.65146 -2.80901,-2.1523 C 510.28544,329.77783 509.95151,325 512.97856,325 c 1.7745,0 1.85828,-0.28363 0.81228,-2.75 -0.64146,-1.5125 -1.72439,-3.2259 -2.40652,-3.80756 -0.7361,-0.62769 -0.90455,-1.60069 -0.41441,-2.39376 1.03515,-1.6749 -0.65013,-6.88677 -3.10843,-9.61313 C 505.42683,303.73543 505.45538,301 507.91821,301 511.15927,301 513,299.87458 513,297.89301 c 0,-2.13143 -1.05748,-2.43553 -2.71287,-0.78014 -1.47656,1.47656 -3.58218,0.0984 -2.8329,-1.85418 0.35001,-0.91213 -0.23321,-2.11601 -1.43183,-2.95555 -1.11232,-0.7791 -2.0224,-2.50191 -2.0224,-3.82846 0,-1.73308 -0.42218,-2.24991 -1.5,-1.83631 -0.825,0.31659 -1.5,1.1759 -1.5,1.9096 0,2.07414 -1.74612,2.65827 -4.13096,1.38194 -1.85528,-0.99291 -2.08178,-0.92669 -1.55206,0.45376 0.6189,1.61282 -1.30126,2.29871 -2.6525,0.94748 -0.88943,-0.88943 2.2816,-4.33115 3.99051,-4.33115 1.58849,0 1.80657,-2.59671 0.29645,-3.53001 -0.72523,-0.44822 -0.71025,-1.05568 0.0486,-1.96999 0.62209,-0.74957 0.70643,-1.5634 0.19479,-1.87962 -0.49629,-0.30671 -1.40849,0.55322 -2.02712,1.91098 -1.49625,3.2839 -3.54435,3.21945 -2.9114,-0.0916 0.37775,-1.97608 -0.10904,-2.9338 -2.13342,-4.19734 -1.44257,-0.90039 -2.79631,-1.75923 -3.00831,-1.90853 -0.212,-0.1493 0.3505,-1.39466 1.25,-2.76748 1.96376,-2.99707 2.02371,-3.55663 0.38546,-3.59781 -0.6875,-0.0173 -2.06036,-1.14474 -3.05079,-2.50545 -1.77031,-2.43214 -1.76,-2.48952 0.60936,-3.39035 1.56918,-0.5966 2.62529,-1.99208 3.02675,-3.99936 0.86864,-4.34322 0.79272,-4.60829 -1.22768,-4.2865 -2.32924,0.37099 -4.48307,-2.24328 -3.84823,-4.6709 0.65805,-2.51639 -0.55554,-4.32335 -2.42249,-3.60693 -1.02628,0.39382 -1.47681,1.90177 -1.42005,4.75299 0.0663,3.33339 -0.29856,4.25314 -1.80826,4.5576 -1.69168,0.34115 -1.83687,-0.1022 -1.37509,-4.19908 0.33876,-3.00551 0.0545,-5.18913 -0.82681,-6.35055 -1.27182,-1.67611 -1.34479,-1.67717 -1.37491,-0.02 -0.0175,0.9625 -0.75688,1.75 -1.64309,1.75 -1.30788,0 -1.48434,-0.67671 -0.9371,-3.59376 0.51144,-2.72622 0.28089,-3.88135 -0.95504,-4.78509 -2.05358,-1.50161 -3.17148,-9.103 -1.61462,-10.9789 1.71557,-2.06714 -1.26708,-4.39743 -3.38195,-2.64225 -1.22381,1.01567 -1.5,0.95896 -1.5,-0.308 0,-0.8541 0.96654,-1.6967 2.14787,-1.87245 2.3208,-0.34528 4.71577,-3.28925 3.59093,-4.41409 -0.37976,-0.37975 -1.33628,-0.15448 -2.12561,0.5006 -1.11092,0.92198 -1.60272,0.91991 -2.17694,-0.009 -0.41907,-0.67807 -0.0227,-1.72605 0.91097,-2.4088 1.76852,-1.29317 2.02476,-3.37816 1.02778,-8.36305 C 467.68204,204.66021 466,203.86345 466,207 c 0,3.29566 -3.58421,2.40884 -5.98873,-1.48176 C 457.67916,201.7448 458.01044,200 461.05902,200 462.35392,200 463,199.3124 463,197.93426 c 0,-1.13616 0.44424,-2.89582 0.98721,-3.91035 1.21757,-2.27505 -0.77988,-6.5493 -4.16097,-8.90391 -1.54967,-1.0792 -2.37605,-2.71033 -2.47544,-4.88614 -0.0821,-1.79637 -0.48188,-4.04637 -0.88848,-5 -0.40659,-0.95362 -0.64255,-3.19544 -0.52435,-4.98181 0.17255,-2.60781 -0.0993,-3.12736 -1.37949,-2.63612 -2.14844,0.82444 -7.55848,-1.51036 -7.55848,-3.262 0,-0.77189 -1.08129,-1.81454 -2.40286,-2.317 -3.15195,-1.19837 -4.12904,-2.89559 -2.11248,-3.66942 0.97083,-0.37254 2.16024,0.12719 2.99196,1.25706 1.34271,1.82404 1.40105,1.82062 2.12902,-0.12457 0.41166,-1.1 1.2313,-2.35117 1.82142,-2.78038 0.59012,-0.4292 -0.0933,-0.5108 -1.51873,-0.18133 -1.91886,0.44353 -3.41157,-0.0909 -5.75,-2.05851 -3.60923,-3.03698 -3.7836,-3.71165 -1.53928,-5.95597 0.89047,-0.89048 1.27887,-1.93512 0.86309,-2.32143 -0.41577,-0.38631 -0.95684,-0.13988 -1.20238,0.54762 -0.87809,2.45865 -3.91671,1.17765 -7.568,-3.19046 -2.04147,-2.44225 -3.71176,-4.69225 -3.71176,-5 0,-1.69243 7.36198,-0.10926 13,2.7956 6.37656,3.28538 16.17624,11.68229 18.64111,15.97273 2.92143,5.08514 10.35988,20.82869 10.37094,21.95016 0.007,0.67209 1.13162,3.1804 2.5,5.57404 1.36837,2.39364 2.48572,5.09364 2.483,6 -0.003,0.90636 0.65091,3.67293 1.4525,6.14793 1.92638,5.94787 5.93784,20.00725 7.84639,27.5 2.17107,8.52339 5.62899,18.4124 7.86763,22.5 1.05426,1.925 2.83101,5.525 3.94833,8 3.81121,8.44232 5.13234,10.6047 9.50159,15.55189 2.40353,2.72146 4.37421,5.26995 4.37929,5.66331 0.005,0.39337 1.29169,2.19337 2.85915,4 3.03714,3.50059 13.15007,22.15809 13.15007,24.26078 0,0.68987 0.83447,2.32749 1.85437,3.63916 1.0199,1.31167 2.41424,4.85986 3.09852,7.88486 0.68428,3.025 2.34186,8.31935 3.6835,11.76522 1.951,5.01093 2.67232,9.56671 3.60303,22.75622 1.36854,19.39436 0.39135,29.84288 -4.11933,44.04573 -3.77636,11.89067 -5.16698,14.42398 -12.59006,22.93541 -3.4304,3.93335 -6.6405,7.82879 -7.13356,8.65653 -1.26475,2.12325 -16.00886,11.65741 -21.39647,13.83587 -2.475,1.00076 -7.65,3.13136 -11.5,4.73467 -3.85,1.60331 -10.2682,3.5183 -14.26266,4.25552 -3.99446,0.73723 -7.72458,1.89699 -8.28914,2.57725 -0.94632,1.14024 -1.18118,13.00309 -0.61252,30.93758 0.3103,9.78596 0.11578,10.11215 -5.33568,8.94755 z m -43.41026,-3.0743 C 409.80297,486.32297 411.66721,484 414.09939,484 c 3.5415,0 4.66855,-3.75891 3.89785,-13 -0.38989,-4.675 -0.49822,-10.12263 -0.24073,-12.10584 0.25748,-1.98322 -0.0835,-4.63656 -0.75766,-5.89631 -1.12989,-2.11122 -1.05141,-2.24486 1.00289,-1.70765 1.22579,0.32056 3.0564,0.0659 4.06801,-0.56583 2.40371,-1.50114 3.20525,-0.58598 2.0906,2.38694 -0.49258,1.31378 -0.76668,4.86369 -0.60911,7.88869 0.57153,10.97219 0.74199,17.61259 0.59682,23.25 L 424,490 l -6.39301,0 c -4.98157,0 -6.53083,-0.35915 -7.01725,-1.62675 z"
       style="fill:#36382f" />
  </g>
</svg>
