<?xml version="1.0" encoding="UTF-8" standalone="no"?>
<svg
   xmlns:dc="http://purl.org/dc/elements/1.1/"
   xmlns:cc="http://creativecommons.org/ns#"
   xmlns:rdf="http://www.w3.org/1999/02/22-rdf-syntax-ns#"
   xmlns:svg="http://www.w3.org/2000/svg"
   xmlns="http://www.w3.org/2000/svg"
   viewBox="0 0 800 600"
   height="600"
   width="800"
   version="1.1"
   id="svg8612">
  <metadata
     id="metadata8618">
    <rdf:RDF>
      <cc:Work
         rdf:about="">
        <dc:format>image/svg+xml</dc:format>
        <dc:type
           rdf:resource="http://purl.org/dc/dcmitype/StillImage" />
        <dc:title></dc:title>
      </cc:Work>
    </rdf:RDF>
  </metadata>
  <defs
     id="defs8616" />
  <g
     id="g10406">
    <path
       id="path10436"
       d="m 363,495.00337 c -3.025,-0.44307 -8.90265,-0.85008 -13.06144,-0.90447 -6.13966,-0.0803 -7.97295,-0.48228 -9.75,-2.13786 -2.36662,-2.20484 -2.8228,-5.90744 -1.11985,-9.08942 0.87651,-1.63778 0.50928,-2.74995 -2.04198,-6.18426 -9.72998,-13.09773 -11.206,-17.80645 -11.34348,-36.18736 -0.10258,-13.71586 1.9788,-19.93322 10.26342,-30.65816 2.4082,-3.11756 2.54526,-5.18953 0.69232,-10.46611 -0.74855,-2.13165 -2.34637,-9.05073 -3.55069,-15.37573 -1.20433,-6.325 -2.44174,-12.625 -2.74981,-14 -1.52419,-6.80301 -1.98253,-15.14299 -1.15409,-21 0.50566,-3.575 1.31705,-9.9062 1.8031,-14.06934 0.48604,-4.16313 1.16611,-8.69451 1.51127,-10.06972 0.5801,-2.31131 -0.0237,-2.83539 -7.98553,-6.93066 -9.5609,-4.91781 -17.24683,-12.22865 -23.69722,-22.54077 C 297.0201,289.32104 293,280.07732 293,277.41753 293,274.76153 297.68337,271 300.99028,271 c 3.74128,0 5.67576,1.96184 11.87305,12.04099 C 319.79915,294.32128 325.21055,301 327.41452,301 c 0.52612,0 1.88558,0.83766 3.02103,1.86148 1.13545,1.02381 3.52447,2.34954 5.30894,2.94606 3.06685,1.0252 3.27955,0.93697 3.8849,-1.61148 0.89603,-3.77215 15.76381,-31.93291 20.56819,-38.95778 1.60305,-2.34395 3.38753,-5.71895 3.96551,-7.5 0.57799,-1.78106 2.77254,-6.62394 4.87678,-10.76196 3.90509,-7.67944 5.31772,-12.22884 8.9974,-28.97632 1.14801,-5.225 2.88915,-11.3 3.8692,-13.5 0.98004,-2.2 2.54757,-7.6 3.4834,-12 4.64533,-21.84107 5.90478,-25.51382 14.47285,-42.20513 2.17341,-4.23399 11.68672,-13.37478 17.2233,-16.54889 8.18774,-4.69402 20.39201,-5.2263 42.41398,-1.84986 7.78825,1.19411 9.87579,2.05454 18.12995,7.47271 9.6547,6.3375 10.7608,7.40653 14.36241,13.88114 1.75919,3.16248 3.57117,5.98027 4.02662,6.26176 0.45546,0.28149 1.60658,2.869 2.55806,5.75003 0.95148,2.88103 2.3026,6.13824 3.00248,7.23824 0.69989,1.1 1.58777,3.8 1.97307,6 0.38531,2.2 1.53669,7.375 2.55863,11.5 1.02194,4.125 1.86498,9.61535 1.87343,12.20078 0.008,2.58543 0.47041,6.86043 1.0266,9.5 0.55619,2.63957 1.64994,10.19922 2.43056,16.79922 1.72551,14.58897 3.48979,21.57822 6.94175,27.5 1.44274,2.475 3.09515,6.21037 3.67203,8.30081 0.91916,3.33081 1.32064,3.70576 3.24664,3.03213 3.49486,-1.22233 7.70485,-0.7541 9.52231,1.05908 1.35054,1.34736 1.77243,4.36051 2.17546,15.53719 0.42143,11.68676 0.7935,14.18961 2.36773,15.92706 3.15426,3.48132 6.62595,14.22798 10.70702,33.14373 1.64694,7.63355 3.04739,32.04785 2.35184,41 -0.36323,4.675 -1.28281,10.01746 -2.04351,11.87212 -0.76069,1.85467 -1.38308,4.00498 -1.38308,4.77846 0,0.77348 -1.52725,4.65602 -3.39389,8.62787 -1.86664,3.97185 -3.70069,8.67625 -4.07565,10.45421 -0.88179,4.18117 -6.34583,10.71227 -14.63122,17.48854 -3.63043,2.96917 -8.12656,6.82446 -9.99141,8.56732 -1.86486,1.74285 -4.74451,3.70873 -6.39924,4.36861 -1.65472,0.65987 -4.58359,2.41062 -6.50859,3.89054 -3.62597,2.78762 -18.91844,7.74243 -31.5,10.20611 l -7,1.37072 0.15167,11.28942 c 0.0834,6.20919 0.53342,11.65229 1,12.09578 0.46658,0.4435 9.62333,1.10607 20.34833,1.47239 22.20485,0.75841 24,1.28846 24,7.08642 0,2.33731 -0.77012,4.29252 -2.289,5.8114 l -2.289,2.289 -26.961,-0.32045 c -22.89029,-0.27207 -46.34267,-0.26987 -62.961,0.006 -2.2,0.0365 -7.6,-0.0234 -12,-0.1331 -4.4,-0.10972 -14.3,-0.0224 -22,0.1941 -7.7,0.21647 -16.475,0.0311 -19.5,-0.41199 z m 85.34316,-17.20762 c 0.31703,-1.21233 0.3052,-6.33324 -0.0263,-11.37979 l -0.60272,-9.17554 -8.10708,-0.51315 c -5.9081,-0.37396 -8.38624,-0.16538 -9.1363,0.769 -0.77202,0.96174 -1.2873,20.66711 -0.58192,22.25373 0.0611,0.1375 4.10867,0.25 8.99452,0.25 8.31674,0 8.92013,-0.1406 9.45979,-2.20425 z"
       style="fill:#eeeed8" />
    <path
       id="path10434"
       d="m 365.5,493.85398 c -4.03542,-0.70927 -12.89147,-1.42826 -22.22695,-1.80453 -0.67482,-0.0272 -1.96407,-1.17445 -2.86501,-2.54945 -1.52112,-2.32153 -1.51722,-2.68442 0.0546,-5.0834 1.63067,-2.48872 1.59867,-2.71776 -0.87324,-6.25 -2.81569,-4.02348 -4.71881,-6.84134 -8.23814,-12.19784 -3.15523,-4.80231 -4.45361,-12.33564 -4.43788,-25.74896 0.0123,-10.47956 0.22819,-11.73061 3.04183,-17.62605 1.66573,-3.49022 4.68109,-8.74815 6.7008,-11.6843 l 3.6722,-5.33844 -2.13181,-6.03551 c -1.17249,-3.31952 -2.57498,-8.7355 -3.11664,-12.0355 -0.54166,-3.3 -1.64774,-9.15 -2.45796,-13 -3.28922,-15.62963 -2.931,-28.42033 1.36458,-48.7245 l 0.78797,-3.72451 -9.1372,-4.98635 c -10.23816,-5.58717 -17.49823,-11.91175 -20.55765,-17.9087 -1.12803,-2.21114 -2.55134,-4.32949 -3.1629,-4.70745 -0.61156,-0.37797 -2.70847,-4.09643 -4.65981,-8.26324 -3.27022,-6.98312 -3.43624,-7.77493 -2.12142,-10.11744 3.25545,-5.79999 10.26799,-4.6368 13.27418,2.20183 2.65648,6.04308 13.22101,20.22026 17.16279,23.03177 4.79506,3.42013 11.35167,6.64695 13.56632,6.67663 1.10235,0.0148 1.86414,-1.17967 2.32744,-3.6493 0.3788,-2.01919 3.20227,-8.20669 6.27438,-13.75 3.0721,-5.54331 6.70794,-12.32874 8.07965,-15.07874 1.3717,-2.75 3.99831,-7.188 5.83691,-9.86221 1.8386,-2.67422 3.34291,-5.37897 3.34291,-6.01057 0,-0.6316 2.02673,-5.31911 4.50384,-10.41671 4.5754,-9.4156 5.48229,-12.2672 10.04494,-31.58515 1.41265,-5.98105 3.21239,-11.85741 3.99942,-13.05857 0.78703,-1.20116 1.93393,-4.63258 2.54868,-7.62536 0.61474,-2.99279 1.71442,-8.36643 2.44373,-11.94143 2.60993,-12.79356 5.25709,-20.03967 12.31634,-33.71359 2.34439,-4.54114 13.40198,-14.74925 18.81517,-17.36973 7.90782,-3.82811 29.70504,-3.70359 44.82788,0.25609 5.28552,1.38394 16.2904,7.97519 21.12954,12.65531 6.2592,6.05352 15.42735,24.388 17.33767,34.67192 0.51083,2.75 1.61081,8.375 2.44438,12.5 1.34113,6.63663 2.51909,15.17719 5.58596,40.5 1.27236,10.5057 2.92003,16.30058 6.02843,21.20202 1.54234,2.43201 3.34413,6.67229 4.00397,9.42284 0.96933,4.04061 1.51373,4.86362 2.83489,4.28568 3.83983,-1.67974 8.24226,-1.62359 10.17977,0.12983 1.74457,1.57882 1.95539,3.13598 1.95539,14.44317 0,12.33198 0.0788,12.79274 2.92264,17.09502 1.60745,2.43179 3.23803,5.77144 3.6235,7.42144 0.38548,1.65 1.50654,5.475 2.49125,8.5 2.17575,6.68382 5.72544,28.08051 6.13827,37 1.05847,22.86882 -0.98651,34.48158 -8.62877,49 -0.72378,1.375 -1.62874,3.9628 -2.01103,5.75066 -0.38228,1.78787 -2.28423,5.15278 -4.22655,7.47758 -5.1216,6.13015 -24.37827,22.65497 -27.30931,23.43506 -1.375,0.36596 -4.075,1.89712 -6,3.4026 -3.49578,2.73392 -21.36692,8.89404 -26.04677,8.97823 -1.34928,0.0243 -4.70323,0.63812 -7.45323,1.36411 l -5,1.31998 -0.17045,9.88589 c -0.24754,14.3576 0.19681,16.21885 4.02699,16.86798 1.7289,0.29301 11.16735,0.6419 20.97432,0.77532 16.33928,0.2223 17.94958,0.40497 19.25,2.18372 1.91185,2.61507 1.79347,3.81327 -0.68852,6.96861 l -2.10767,2.67946 -22.64233,-0.064 C 470.68905,493.98993 456.9,493.86176 452.5,493.74033 c -10.18644,-0.28112 -26.26181,-0.20012 -34,0.17131 -3.3,0.1584 -9.07574,-0.13108 -12.83498,-0.64329 -5.05323,-0.68852 -8.17305,-0.5842 -11.96793,0.40018 -5.64518,1.46434 -20.36973,1.56118 -28.19709,0.18545 z m 82.82895,-13.79068 c 0.79457,-0.79982 1.07099,-4.76987 0.8598,-12.34896 -0.17119,-6.1436 -0.47551,-11.33443 -0.67627,-11.53519 -0.20076,-0.20076 -4.44243,-0.52939 -9.42594,-0.73028 -7.77144,-0.31328 -9.18392,-0.12216 -9.92524,1.34294 -0.67514,1.33432 -0.89531,20.26017 -0.28614,24.5969 0.18124,1.29018 18.06588,0.0717 19.45379,-1.32541 z m -86.86567,-34.02272 c 2.28452,-2.52437 3.01131,-9.79645 1.3033,-13.04058 -0.80752,-1.53375 -2.66137,-2.83492 -4.79654,-3.36655 -6.52398,-1.62438 -14.31442,5.71823 -12.12996,11.43268 2.4044,6.28981 11.74214,9.26296 15.6232,4.97445 z m -10.91872,-2.63888 c -1.15319,-1.15318 -1.42987,-2.61528 -0.99352,-5.25 0.96871,-5.8491 1.20782,-6.1517 4.86087,-6.1517 3.97649,0 6.58809,2.80165 6.58809,7.06752 0,5.09006 -6.85705,7.93257 -10.45544,4.33418 z m 50.99062,-5.01671 C 403.60354,437.02975 404,435.97657 404,431.83724 c 0,-8.13064 -5.94852,-11.9837 -12.92848,-8.37423 -4.59648,2.37694 -5.14334,5.57896 -2.09845,12.28699 1.81174,3.99134 2.1777,4.25 6.01322,4.25 2.24624,0 5.19324,-0.72675 6.54889,-1.61501 z m -9.58846,-1.43827 c -1.73071,-1.73071 -1.94635,-2.79114 -1.37259,-6.75 0.88512,-6.10722 0.9563,-6.19672 4.92818,-6.19672 6.27094,0 8.78567,7.80293 4.04314,12.54545 -2.99251,2.99252 -4.90642,3.09358 -7.59873,0.40127 z"
       style="fill:#d6d8ab" />
    <path
       id="path10432"
       d="m 363.5,492.31665 c -3.3,-0.83365 -8.925,-1.64901 -12.5,-1.8119 -3.575,-0.1629 -7.0625,-0.34311 -7.75,-0.40046 -1.5482,-0.12917 -1.64877,-4.30552 -0.14002,-5.81427 0.8133,-0.8133 0.21192,-2.36431 -2.25,-5.80294 -10.4491,-14.59454 -11.4708,-16.85888 -12.63956,-28.01248 -1.89342,-18.06919 -0.077,-25.57559 9.66093,-39.92346 l 3.9712,-5.85117 -2.02961,-5.09999 C 338.70665,396.79499 337.14447,390.9 336.35143,386.5 c -0.79303,-4.4 -1.88245,-10.25 -2.42092,-13 -2.97333,-15.18496 -2.82348,-21.24689 1.12156,-45.36978 0.57294,-3.50337 0.90811,-6.48856 0.74482,-6.63375 C 335.6336,321.35128 331.675,319.32473 327,316.99302 316.93179,311.9714 311.08537,306.90594 305.10795,298.02527 299.77732,290.10555 295,280.66028 295,278.04077 295,275.72488 298.59474,273 301.64993,273 c 2.16478,0 6.34069,4.19238 6.35978,6.38486 0.005,0.61333 1.58033,3.09097 3.5,5.50587 1.91966,2.4149 3.49029,4.71269 3.49029,5.1062 0,0.39351 1.5673,2.7681 3.4829,5.27688 3.64794,4.77756 10.21922,9.73923 16.21863,12.24595 5.82737,2.43483 6.89345,2.0161 8.32476,-3.26976 1.06488,-3.93263 5.82008,-13.54096 10.02181,-20.25 0.87462,-1.39655 5.8546,-10.46726 11.52936,-21 5.69603,-10.57223 11.42707,-24.14711 12.91002,-30.57949 0.87753,-3.80628 1.98411,-8.27051 2.45907,-9.92051 0.47497,-1.65 1.41668,-5.475 2.0927,-8.5 0.67602,-3.025 1.92381,-6.85 2.77287,-8.5 0.84906,-1.65 1.89312,-4.8 2.32013,-7 2.05181,-10.57112 3.91416,-18.76608 4.46855,-19.6631 0.33691,-0.54512 1.23221,-3.64736 1.98957,-6.89386 1.9431,-8.32932 9.69849,-22.52186 15.25918,-27.92464 10.34428,-10.05054 17.07641,-12.40101 33.16879,-11.58065 16.86126,0.85957 23.51391,2.10986 29.73583,5.58853 10.99125,6.1452 14.92496,9.84848 20.23564,19.0503 2.75561,4.77463 5.01019,8.94732 5.01019,9.27265 0,0.32532 1.125,3.051 2.5,6.05706 1.375,3.00605 2.5,6.78781 2.5,8.40391 0,1.61609 0.7041,4.90742 1.56466,7.31407 0.86057,2.40665 1.95991,8.20073 2.44299,12.87573 2.89461,28.01282 6.48233,49.47751 8.72047,52.17308 1.53803,1.85237 6.26658,12.46095 6.28719,14.10543 0.008,0.67182 0.4268,1.87188 0.92973,2.6668 0.78325,1.238 1.41303,1.1768 4.39054,-0.4267 3.29096,-1.77229 3.6143,-1.78147 6.07027,-0.17226 2.15795,1.41394 2.60915,2.49459 2.68334,6.4267 0.0491,2.59982 0.16156,8.62607 0.25,13.39166 0.13631,7.34446 0.5146,9.14346 2.48273,11.80678 2.64749,3.58265 7.71716,18.60537 9.18821,27.22701 0.54443,3.19083 1.47787,8.614 2.07432,12.0515 0.59645,3.4375 1.13158,13.675 1.18918,22.75 0.11596,18.27099 -1.09428,24.55233 -7.19244,37.32988 -1.69465,3.55083 -3.08119,7.13403 -3.08119,7.96268 0,4.36081 -22.97963,26.93969 -30.93646,30.39695 -1.89005,0.82123 -4.8746,2.59007 -6.63233,3.93075 -3.71453,2.83322 -18.95539,7.80526 -28.62677,9.33894 -9.49038,1.50499 -9.51108,1.51989 -10.22091,7.35673 -0.79861,6.56685 0.13139,20.63565 1.47077,22.2495 1.61761,1.9491 6.51272,2.46264 24.2471,2.54376 18.64514,0.0853 20.4542,0.67229 17.62205,5.71812 -1.44576,2.57581 -1.69775,2.63339 -10.95163,2.5024 -5.2095,-0.0737 -12.84682,-0.45186 -16.97182,-0.84028 -4.9742,-0.46838 -9.35225,-0.27411 -13,0.57686 -7.41564,1.72995 -20.24856,1.80224 -22.26899,0.12543 -1.79511,-1.4898 -14.22207,-1.0227 -21.69151,0.81533 -4.75625,1.17039 -10.9501,0.55366 -15.0395,-1.4975 -2.80515,-1.40701 -11.06803,-0.67673 -14.68426,1.2978 -3.07233,1.67756 -21.4731,1.36421 -28.81574,-0.4907 z M 442.73882,483 c 2.05236,-1.1 4.46775,-2 5.36754,-2 1.20949,0 1.81002,-1.312 2.30359,-5.03274 0.36719,-2.768 0.36339,-5.52498 -0.008,-6.12662 -0.37183,-0.60164 -0.598,-4.18691 -0.5026,-7.96726 L 450.07237,455 l -5.89661,0 c -3.24314,0 -7.89021,-0.27325 -10.32682,-0.60723 -3.97783,-0.54522 -4.53864,-0.36653 -5.49222,1.75 -1.35313,3.0034 -0.77553,24.64767 0.70537,26.43205 0.60152,0.72479 2.97113,1.48834 5.26579,1.69678 2.29467,0.20844 4.28625,0.4576 4.42574,0.55369 0.1395,0.0961 1.93283,-0.72529 3.9852,-1.82529 z m -82.03785,-35.5031 c 3.26271,-2.2853 4.64073,-7.5142 3.29619,-12.50745 -0.90533,-3.36215 -1.79368,-4.42431 -4.72448,-5.64888 -4.08503,-1.70683 -5.92585,-1.18618 -11.04978,3.12532 -5.40964,4.55192 -3.84214,12.05169 3.1554,15.09719 4.10582,1.78695 6.70328,1.76851 9.32267,-0.0662 z m -9.10066,-3.79989 c -2.44125,-1.78509 -1.32082,-10.33355 1.47052,-11.21949 4.4373,-1.40835 9.02495,4.57216 6.77961,8.83795 -2.04054,3.8767 -5.02656,4.73867 -8.25013,2.38154 z m 50.32296,-5.2859 c 2.49398,-2.09855 3.07673,-3.34862 3.07673,-6.6 0,-3.22832 -0.66353,-4.67464 -3.4,-7.41111 -3.78658,-3.78658 -5.11839,-4.04589 -10.09653,-1.9659 -2.26145,0.9449 -3.65662,2.32791 -4.08991,4.05429 -0.86443,3.44416 0.10311,9.12501 2.06379,12.11738 2.23577,3.41222 8.27158,3.31781 12.44592,-0.19466 z m -9.89873,-1.88154 c -0.82794,-0.9976 -0.99791,-3.08773 -0.52861,-6.5 0.67088,-4.87787 0.79079,-5.02957 3.97546,-5.02957 3.96728,0 5.86076,2.02249 5.74383,6.13515 -0.15924,5.60064 -6.11726,9.09767 -9.19068,5.39442 z"
       style="fill:#f9d85c" />
    <path
       id="path10430"
       d="m 411.46574,493.06806 c -1.66885,-0.39997 -3.881,-1.20107 -4.9159,-1.78023 -1.0349,-0.57916 -3.71948,-0.8506 -5.96574,-0.6032 l -4.0841,0.44981 4.12663,-1.96309 c 2.26965,-1.07971 4.37243,-2.36081 4.67285,-2.8469 0.30042,-0.4861 -2.68156,0.67291 -6.62663,2.57557 -6.20371,2.99198 -8.42871,3.51904 -16.46787,3.90093 -9.64064,0.45797 -19.4215,-0.90717 -24.69221,-3.44635 -2.03947,-0.98253 -2.49643,-1.03196 -1.41448,-0.15301 1.34445,1.0922 0.55035,1.27527 -5,1.1527 -3.62906,-0.0802 -7.16079,-0.19265 -7.84829,-0.25 -1.71909,-0.14343 -1.57766,-4.58747 0.19276,-6.05679 1.15331,-0.95716 2.20303,-0.68078 5.23214,1.37756 2.08415,1.41622 4.22301,2.57494 4.75302,2.57494 0.53,0 -1.03696,-1.28191 -3.48214,-2.84868 -5.27541,-3.38028 -6.01551,-4.21068 -13.22438,-14.83797 -6.57269,-9.68943 -7.91555,-14.78496 -7.84601,-29.77188 0.0551,-11.8722 1.56205,-16.29346 9.47594,-27.80119 C 342.8707,406.16858 343.8295,404 342.2157,404 c -1.29256,0 -4.2874,-8.96574 -5.84555,-17.5 -0.80333,-4.4 -1.90117,-10.25 -2.43964,-13 -2.97333,-15.18496 -2.82348,-21.24689 1.12156,-45.36978 0.57294,-3.50337 0.90811,-6.48856 0.74482,-6.63375 C 335.6336,321.35128 331.675,319.32473 327,316.99302 316.93179,311.9714 311.08537,306.90594 305.10795,298.02527 299.77732,290.10555 295,280.66028 295,278.04077 295,275.72488 298.59474,273 301.64993,273 c 2.16478,0 6.34069,4.19238 6.35978,6.38486 0.005,0.61333 1.58033,3.09097 3.5,5.50587 1.91966,2.4149 3.49029,4.71269 3.49029,5.1062 0,0.39351 1.5673,2.7681 3.4829,5.27688 3.64794,4.77756 10.21922,9.73923 16.21863,12.24595 5.82737,2.43483 6.89345,2.0161 8.32476,-3.26976 1.06488,-3.93263 5.82008,-13.54096 10.02181,-20.25 0.87462,-1.39655 5.8546,-10.46726 11.52936,-21 5.69603,-10.57223 11.42707,-24.14711 12.91002,-30.57949 0.87753,-3.80628 1.98411,-8.27051 2.45907,-9.92051 0.47497,-1.65 1.41668,-5.475 2.0927,-8.5 0.67602,-3.025 1.92381,-6.85 2.77287,-8.5 0.84906,-1.65 1.89312,-4.8 2.32013,-7 2.05181,-10.57112 3.91416,-18.76608 4.46855,-19.6631 0.33691,-0.54512 1.23221,-3.64736 1.98957,-6.89386 1.9431,-8.32932 9.69849,-22.52186 15.25918,-27.92464 10.34428,-10.05054 17.07641,-12.40101 33.16879,-11.58065 16.86126,0.85957 23.51391,2.10986 29.73583,5.58853 10.99125,6.1452 14.92496,9.84848 20.23564,19.0503 2.75561,4.77463 5.01019,8.94732 5.01019,9.27265 0,0.32532 1.125,3.051 2.5,6.05706 1.375,3.00605 2.5,6.78781 2.5,8.40391 0,1.61609 0.7041,4.90742 1.56466,7.31407 0.86057,2.40665 1.95991,8.20073 2.44299,12.87573 2.89461,28.01282 6.48233,49.47751 8.72047,52.17308 1.53803,1.85237 6.26658,12.46095 6.28719,14.10543 0.008,0.67182 0.4268,1.87188 0.92973,2.6668 0.78325,1.238 1.41303,1.1768 4.39054,-0.4267 3.29096,-1.77229 3.6143,-1.78147 6.07027,-0.17226 2.15795,1.41394 2.60915,2.49459 2.68334,6.4267 0.0491,2.59982 0.16156,8.62607 0.25,13.39166 0.13631,7.34446 0.5146,9.14346 2.48273,11.80678 2.64749,3.58265 7.71716,18.60537 9.18821,27.22701 0.54443,3.19083 1.47787,8.614 2.07432,12.0515 0.59645,3.4375 1.13158,13.675 1.18918,22.75 0.11596,18.27099 -1.09428,24.55233 -7.19244,37.32988 -1.69465,3.55083 -3.08119,7.13403 -3.08119,7.96268 0,4.36081 -22.97963,26.93969 -30.93646,30.39695 -1.89005,0.82123 -4.8746,2.59007 -6.63233,3.93075 -3.71453,2.83322 -18.95539,7.80526 -28.62677,9.33894 -9.49038,1.50499 -9.51108,1.51989 -10.22091,7.35673 -0.79861,6.56685 0.13139,20.63565 1.47077,22.2495 1.61761,1.9491 6.51272,2.46264 24.2471,2.54376 18.64514,0.0853 20.4542,0.67229 17.62205,5.71812 -1.44576,2.57581 -1.69775,2.63339 -10.95163,2.5024 -5.2095,-0.0737 -12.84682,-0.45186 -16.97182,-0.84028 -4.9742,-0.46838 -9.35225,-0.27411 -13,0.57686 -7.41564,1.72995 -20.24856,1.80224 -22.26899,0.12543 -1.76617,-1.46579 -14.31173,-1.02938 -21.23101,0.73854 -4.51965,1.1548 -6.67841,1.18176 -11.03426,0.1378 z M 442.73882,483 c 2.05236,-1.1 4.46775,-2 5.36754,-2 1.20949,0 1.81002,-1.312 2.30359,-5.03274 0.36719,-2.768 0.36339,-5.52498 -0.008,-6.12662 -0.37183,-0.60164 -0.598,-4.18691 -0.5026,-7.96726 L 450.07237,455 l -6.78619,-0.0239 c -3.7324,-0.0131 -8.45564,-0.41166 -10.4961,-0.88565 -3.33678,-0.77511 -3.87646,-0.6076 -5.36585,1.66549 -1.38281,2.11043 -1.46855,3.15272 -0.51987,6.31915 0.62484,2.08553 1.04888,7.16909 0.94232,11.29681 -0.22889,8.86573 0.66646,10.37146 6.4812,10.89966 2.29467,0.20844 4.28625,0.4576 4.42574,0.55369 0.1395,0.0961 1.93283,-0.72529 3.9852,-1.82529 z M 363.1942,446.95965 c 2.84685,-2.84685 3.01273,-3.42211 2.60645,-9.03884 -0.53253,-7.36224 -2.69033,-9.92862 -8.94022,-10.63307 -4.06414,-0.45809 -4.68944,-0.18839 -9.11201,3.9301 -5.14033,4.7869 -5.7314,6.9806 -3.19987,11.87604 2.05157,3.9673 7.05218,6.89777 11.77837,6.90238 2.93303,0.003 4.53709,-0.70643 6.86728,-3.03661 z m -11.59389,-3.26264 c -2.44125,-1.78509 -1.32082,-10.33355 1.47052,-11.21949 4.4373,-1.40835 9.02495,4.57216 6.77961,8.83795 -2.04054,3.8767 -5.02656,4.73867 -8.25013,2.38154 z m 50.0865,-3.41137 C 404.95017,438.1474 406,435.87895 406,430.96574 c 0,-3.43359 -0.61989,-4.78563 -3.52701,-7.69275 -3.26994,-3.26994 -3.86884,-3.48848 -8.217,-2.99838 -8.54003,0.96259 -11.6486,8.11516 -7.26302,16.7116 1.09613,2.1486 2.78363,4.38292 3.75,4.96516 2.15323,1.29734 7.71318,0.45108 10.94384,-1.66573 z m -9.66227,-3.75607 c -0.82794,-0.9976 -0.99791,-3.08773 -0.52861,-6.5 0.67088,-4.87787 0.79079,-5.02957 3.97546,-5.02957 3.96728,0 5.86076,2.02249 5.74383,6.13515 -0.15924,5.60064 -6.11726,9.09767 -9.19068,5.39442 z"
       style="fill:#fbd72b" />
    <path
       id="path10428"
       d="m 411.46574,493.06806 c -1.66885,-0.39997 -3.881,-1.20107 -4.9159,-1.78023 -1.0349,-0.57916 -3.71948,-0.8506 -5.96574,-0.6032 l -4.0841,0.44981 4,-1.90874 c 2.2,-1.04981 4.61302,-2.64954 5.36227,-3.55497 0.81121,-0.98029 -2.0837,-0.0314 -7.15647,2.3458 -8.12999,3.80984 -8.99079,3.99685 -18.86228,4.09781 -11.48879,0.11751 -16.92611,-0.95538 -24.34352,-4.80343 -9.14992,-4.74686 -11.82165,-7.30176 -17.99749,-17.2105 -0.54862,-0.88023 -2.02396,-3.04972 -3.27853,-4.8211 -3.28786,-4.64224 -4.92189,-15.76459 -4.41174,-30.02931 0.23795,-6.65348 1.78159,-6.82889 2.41143,-0.27402 0.98064,10.2057 10.36378,23.94555 17.50112,25.6271 1.52636,0.35961 4.12521,1.43849 5.77521,2.39751 1.65,0.95902 6.09252,2.01442 9.87226,2.34534 6.33527,0.55464 7.42923,0.34249 14,-2.71503 7.91392,-3.68252 15.87498,-10.89664 17.61415,-15.96154 0.61637,-1.795 2.78308,-4.34097 4.99659,-5.87116 6.49995,-4.4934 6.72781,-12.77845 0.517,-18.7982 -1.87417,-1.81652 -3.66598,-4.47924 -3.9818,-5.91715 -1.15587,-5.26264 -14.92684,-17.32343 -23.03284,-20.17246 C 372.49589,394.85967 369.28872,394 368.35832,394 c -4.03402,0 0.22548,-1.40643 6.39527,-2.11164 l 6.74641,-0.77111 -8.01034,0.39159 c -7.62761,0.37288 -16.50047,3.08159 -17.99022,5.49207 -0.32087,0.51918 -2.35726,1.47542 -4.52532,2.12499 -2.16805,0.64956 -4.6939,2.01197 -5.613,3.02756 -0.9191,1.0156 -2.17929,1.84654 -2.80041,1.84654 -1.60345,0 -4.48028,-8.13246 -6.19056,-17.5 -0.80333,-4.4 -1.90117,-10.25 -2.43964,-13 -2.97333,-15.18496 -2.82348,-21.24689 1.12156,-45.36978 0.57294,-3.50337 0.90811,-6.48856 0.74482,-6.63375 C 335.6336,321.35128 331.675,319.32473 327,316.99302 316.93179,311.9714 311.08537,306.90594 305.10795,298.02527 299.77732,290.10555 295,280.66028 295,278.04077 295,275.72488 298.59474,273 301.64993,273 c 2.16478,0 6.34069,4.19238 6.35978,6.38486 0.005,0.61333 1.58033,3.09097 3.5,5.50587 1.91966,2.4149 3.49029,4.71269 3.49029,5.1062 0,0.39351 1.5673,2.7681 3.4829,5.27688 3.64794,4.77756 10.21922,9.73923 16.21863,12.24595 5.82737,2.43483 6.89345,2.0161 8.32476,-3.26976 1.06488,-3.93263 5.82008,-13.54096 10.02181,-20.25 0.87462,-1.39655 5.8546,-10.46726 11.52936,-21 5.69603,-10.57223 11.42707,-24.14711 12.91002,-30.57949 0.87753,-3.80628 1.98411,-8.27051 2.45907,-9.92051 0.47497,-1.65 1.41668,-5.475 2.0927,-8.5 0.67602,-3.025 1.92381,-6.85 2.77287,-8.5 0.84906,-1.65 1.89312,-4.8 2.32013,-7 2.05181,-10.57112 3.91416,-18.76608 4.46855,-19.6631 0.33691,-0.54512 1.23221,-3.64736 1.98957,-6.89386 1.9431,-8.32932 9.69849,-22.52186 15.25918,-27.92464 10.34428,-10.05054 17.07641,-12.40101 33.16879,-11.58065 16.86126,0.85957 23.51391,2.10986 29.73583,5.58853 10.99125,6.1452 14.92496,9.84848 20.23564,19.0503 2.75561,4.77463 5.01019,8.94732 5.01019,9.27265 0,0.32532 1.125,3.051 2.5,6.05706 1.375,3.00605 2.5,6.78781 2.5,8.40391 0,1.61609 0.7041,4.90742 1.56466,7.31407 0.86057,2.40665 1.95991,8.20073 2.44299,12.87573 2.89461,28.01282 6.48233,49.47751 8.72047,52.17308 1.53803,1.85237 6.26658,12.46095 6.28719,14.10543 0.008,0.67182 0.4268,1.87188 0.92973,2.6668 0.78325,1.238 1.41303,1.1768 4.39054,-0.4267 3.29096,-1.77229 3.6143,-1.78147 6.07027,-0.17226 2.15795,1.41394 2.60915,2.49459 2.68334,6.4267 0.0491,2.59982 0.16156,8.62607 0.25,13.39166 0.13631,7.34446 0.5146,9.14346 2.48273,11.80678 2.64749,3.58265 7.71716,18.60537 9.18821,27.22701 0.54443,3.19083 1.47787,8.614 2.07432,12.0515 0.59645,3.4375 1.13158,13.675 1.18918,22.75 0.11596,18.27099 -1.09428,24.55233 -7.19244,37.32988 -1.69465,3.55083 -3.08119,7.13403 -3.08119,7.96268 0,4.36081 -22.97963,26.93969 -30.93646,30.39695 -1.89005,0.82123 -4.8746,2.59007 -6.63233,3.93075 -3.71453,2.83322 -18.95539,7.80526 -28.62677,9.33894 -9.49038,1.50499 -9.51108,1.51989 -10.22091,7.35673 -0.79861,6.56685 0.13139,20.63565 1.47077,22.2495 1.61761,1.9491 6.51272,2.46264 24.2471,2.54376 18.64514,0.0853 20.4542,0.67229 17.62205,5.71812 -1.44576,2.57581 -1.69775,2.63339 -10.95163,2.5024 -5.2095,-0.0737 -12.84682,-0.45186 -16.97182,-0.84028 -4.9742,-0.46838 -9.35225,-0.27411 -13,0.57686 -7.41564,1.72995 -20.24856,1.80224 -22.26899,0.12543 -1.76617,-1.46579 -14.31173,-1.02938 -21.23101,0.73854 -4.51965,1.1548 -6.67841,1.18176 -11.03426,0.1378 z M 442.73882,483 c 2.05236,-1.1 4.46775,-2 5.36754,-2 1.20949,0 1.81002,-1.312 2.30359,-5.03274 0.36719,-2.768 0.36339,-5.52498 -0.008,-6.12662 -0.37183,-0.60164 -0.59957,-4.12482 -0.50608,-7.8293 l 0.16997,-6.7354 -9.2827,-0.52653 c -5.10548,-0.28959 -10.03978,-0.83815 -10.96511,-1.21902 -1.22786,-0.5054 -2.10141,0.11777 -3.23325,2.30652 -1.38041,2.66941 -1.38706,3.31028 -0.0606,5.83105 1.02207,1.94228 1.43541,5.40687 1.31561,11.02757 -0.20474,9.6058 0.59979,11.04115 6.4885,11.57607 2.29467,0.20844 4.28625,0.4576 4.42574,0.55369 0.1395,0.0961 1.93283,-0.72529 3.9852,-1.82529 z m -99.72436,7.17149 c -1.51913,-0.50638 -1.22203,-4.75433 0.4283,-6.12399 1.15331,-0.95716 2.20303,-0.68078 5.23214,1.37756 2.08415,1.41622 4.24741,2.58925 4.80723,2.60674 0.55983,0.0175 1.7359,0.58 2.6135,1.25 1.30267,0.99454 0.34145,1.21908 -5.23555,1.22302 -3.75714,0.003 -7.28767,-0.14735 -7.84562,-0.33333 z m 27.02541,-34.62345 c -1.50074,-1.80828 -1.02499,-4.58475 0.96013,-5.60334 3.55127,-1.8222 13.21493,-3.2989 14.84782,-2.2689 2.06268,1.30111 2.15998,5.35675 0.15218,6.34317 -6.25748,3.07428 -14.05753,3.82157 -15.96013,1.52907 z m -18.43956,-11.85103 c -2.44125,-1.78509 -1.32082,-10.33355 1.47052,-11.21949 4.4373,-1.40835 9.02495,4.57216 6.77961,8.83795 -2.04054,3.8767 -5.02656,4.73867 -8.25013,2.38154 z m 40.42423,-7.16744 c -0.82794,-0.9976 -0.99791,-3.08773 -0.52861,-6.5 0.67088,-4.87787 0.79079,-5.02957 3.97546,-5.02957 3.96728,0 5.86076,2.02249 5.74383,6.13515 -0.15924,5.60064 -6.11726,9.09767 -9.19068,5.39442 z"
       style="fill:#aead94" />
    <path
       id="path10426"
       d="m 373,492.2488 c -6.99287,-0.70265 -13.71846,-2.76284 -19.30101,-5.91232 -8.52112,-4.80732 -9.9927,-6.2825 -16.19648,-16.23607 -0.54862,-0.88023 -2.02396,-3.04972 -3.27853,-4.8211 -3.28786,-4.64224 -4.92189,-15.76459 -4.41174,-30.02931 0.23795,-6.65348 1.78159,-6.82889 2.41143,-0.27402 0.98064,10.2057 10.36378,23.94555 17.50112,25.6271 1.52636,0.35961 4.12521,1.43849 5.77521,2.39751 1.65,0.95902 6.09252,2.01442 9.87226,2.34534 6.33527,0.55464 7.42923,0.34249 14,-2.71503 7.91392,-3.68252 15.87498,-10.89664 17.61415,-15.96154 0.61637,-1.795 2.78308,-4.34097 4.99659,-5.87116 6.49995,-4.4934 6.72781,-12.77845 0.517,-18.7982 -1.87417,-1.81652 -3.66598,-4.47924 -3.9818,-5.91715 -1.15587,-5.26264 -14.92684,-17.32343 -23.03284,-20.17246 C 372.49589,394.85967 369.28872,394 368.35832,394 c -4.03402,0 0.22548,-1.40643 6.39527,-2.11164 l 6.74641,-0.77111 -8.01034,0.39159 c -7.62761,0.37288 -16.50047,3.08159 -17.99022,5.49207 -0.32087,0.51918 -2.35726,1.47542 -4.52532,2.12499 -2.16805,0.64956 -4.6939,2.01197 -5.613,3.02756 -0.9191,1.0156 -2.18746,1.84654 -2.81856,1.84654 -1.54696,0 -4.60276,-8.76939 -6.26439,-17.97724 -4.91024,-27.20999 -5.15462,-29.9544 -3.65296,-41.02276 1.70265,-12.54988 2.98804,-19.89032 3.88698,-22.19733 0.5318,-1.36482 -1.2657,-2.67971 -9.17541,-6.71188 -5.41023,-2.758 -11.49744,-6.58816 -13.52713,-8.51146 C 307.16882,301.28659 296,282.74882 296,278.01925 c 0,-1.07188 0.92321,-2.44297 2.05158,-3.04686 3.69627,-1.97818 6.22553,-0.74143 9.41728,4.60484 5.70135,9.54992 7.03436,11.62099 10.22395,15.88484 5.03413,6.72962 17.24984,14.53793 22.74387,14.53793 0.65187,0 1.76329,-2.25553 2.46983,-5.01228 1.14534,-4.46888 12.64884,-26.648 19.51251,-37.62077 1.42192,-2.27318 3.3091,-5.87318 4.19374,-8 0.88464,-2.12682 3.53777,-7.91695 5.89584,-12.86695 2.35808,-4.95 4.83755,-11.6951 5.50995,-14.98911 2.56116,-12.54702 5.90391,-24.74361 7.41262,-27.04619 0.86286,-1.31688 1.56765,-3.19767 1.56622,-4.17952 -0.003,-2.18885 2.56986,-14.00107 4.52766,-20.78518 0.79361,-2.75 1.8889,-6.80639 2.43399,-9.01419 1.77373,-7.18435 9.79124,-21.50723 14.79768,-26.43532 10.15271,-9.99383 19.07302,-12.84835 34.70407,-11.10539 19.50618,2.17507 22.43616,2.82512 28.8147,6.39288 9.81895,5.4921 13.73194,9.15173 18.6456,17.43833 6.15149,10.37412 9.13479,17.55593 10.18846,24.52701 0.48243,3.19182 1.34466,6.67685 1.91605,7.74451 0.57139,1.06765 1.4595,5.88116 1.97358,10.69668 1.61777,15.15418 3.10302,26.45315 4.70005,35.75549 0.84981,4.95 1.77149,10.52343 2.04816,12.3854 0.27667,1.86197 1.74876,5.23697 3.2713,7.5 1.52255,2.26303 3.48414,6.53498 4.35908,9.49321 2.26173,7.64699 3.22968,8.57533 6.36762,6.10703 3.32495,-2.61541 5.86495,-2.50996 7.71952,0.32047 1.16645,1.78022 1.45676,4.91581 1.27306,13.75 -0.18543,8.91714 0.11513,12.10627 1.36123,14.44389 0.87957,1.65 2.31396,4.35 3.18754,6 4.74664,8.96535 7.14355,21.05965 10.6029,53.5 1.30997,12.28429 -1.42285,27.61732 -7.06685,39.64994 -2.10253,4.48246 -3.82279,8.8466 -3.82279,9.69808 0,4.17082 -23.57742,26.9059 -31.21086,30.09581 -1.80903,0.75597 -4.54864,2.36534 -6.08803,3.57637 -3.33028,2.61991 -22.67188,8.94764 -27.68059,9.05588 -1.93629,0.0418 -5.09552,0.64446 -7.02052,1.33916 -3.17069,1.14423 -3.56997,1.72513 -4.24363,6.17392 -0.40899,2.70096 -0.31446,9.70147 0.21007,15.55668 0.97332,10.8649 0.29355,16.43699 -2.19817,18.01854 -1.4661,0.93056 -11.24018,1.08408 -14.43639,0.22675 -1.19247,-0.31986 -2.71432,-1.9002 -3.38189,-3.51187 -1.03227,-2.49212 -0.9542,-3.21712 0.52207,-4.84839 0.95472,-1.05495 2.92657,-2.05596 4.38189,-2.22448 L 450.5,481.5 l 0.15444,-13.31805 c 0.10805,-9.31745 -0.19234,-13.42266 -1,-13.66627 -0.63494,-0.19152 -5.75463,-0.61235 -11.37709,-0.93518 l -10.22265,-0.58695 -1.56822,3.03259 c -0.87142,1.68514 -1.21681,3.57495 -0.77735,4.25323 0.43498,0.67135 1.08658,5.94563 1.44799,11.72063 0.36142,5.775 0.95997,11.86013 1.33012,13.52251 0.90702,4.07361 -1.73014,6.36362 -8.21243,7.13135 -6.83718,0.80976 -11.83405,-0.95072 -13.11316,-4.62 -0.54909,-1.57511 -0.72388,-3.1383 -0.38842,-3.47375 0.33545,-0.33546 -3.18879,1.15715 -7.83166,3.31691 -6.96423,3.23961 -9.75413,3.98775 -15.94157,4.27491 -4.125,0.19144 -8.625,0.23503 -10,0.0969 z m -2.96013,-36.70076 c -1.50074,-1.80828 -1.02499,-4.58475 0.96013,-5.60334 3.55127,-1.8222 13.21493,-3.2989 14.84782,-2.2689 2.06268,1.30111 2.15998,5.35675 0.15218,6.34317 -6.25748,3.07428 -14.05753,3.82157 -15.96013,1.52907 z m -17.94711,-12.93628 c -0.72125,-0.86905 -0.90624,-2.92599 -0.49464,-5.5 C 352.1486,433.66923 352.63248,433 354.5711,433 c 2.44472,0 5.4289,3.33523 5.4289,6.06752 0,1.99259 -3.10309,4.93248 -5.2063,4.93248 -0.85184,0 -2.06727,-0.62471 -2.70094,-1.38824 z m 40.45955,-6.52711 c -1.0766,-1.74199 -0.23445,-9.10356 1.17528,-10.27353 1.80046,-1.49425 5.88368,0.38874 6.74795,3.11183 1.00652,3.17125 -1.55582,7.52663 -4.63849,7.88436 -1.4565,0.16902 -2.93463,-0.15618 -3.28474,-0.72266 z"
       style="fill:#9dd352" />
    <path
       id="path10424"
       d="m 373,492.2488 c -6.99287,-0.70265 -13.71846,-2.76284 -19.30101,-5.91232 -8.52112,-4.80732 -9.9927,-6.2825 -16.19648,-16.23607 -0.54862,-0.88023 -2.02396,-3.04972 -3.27853,-4.8211 -3.28786,-4.64224 -4.92189,-15.76459 -4.41174,-30.02931 0.23795,-6.65348 1.78159,-6.82889 2.41143,-0.27402 0.98064,10.2057 10.36378,23.94555 17.50112,25.6271 1.52636,0.35961 4.12521,1.43849 5.77521,2.39751 1.65,0.95902 6.09252,2.01442 9.87226,2.34534 6.33527,0.55464 7.42923,0.34249 14,-2.71503 7.91392,-3.68252 15.87498,-10.89664 17.61415,-15.96154 0.61637,-1.795 2.78308,-4.34097 4.99659,-5.87116 6.49995,-4.4934 6.72781,-12.77845 0.517,-18.7982 -1.87417,-1.81652 -3.66598,-4.47924 -3.9818,-5.91715 -1.15587,-5.26264 -14.92684,-17.32343 -23.03284,-20.17246 -2.98947,-1.05072 -6.23414,-1.94202 -7.21038,-1.98068 -4.14011,-0.16393 2.40701,-1.79356 7.72502,-1.92281 4.29905,-0.10448 5.01564,-0.32858 3.2818,-1.0263 -3.28863,-1.32338 -5.25083,-7.16564 -6.54281,-19.4806 -1.44857,-13.80753 -1.39398,-17.07748 0.45074,-27 1.86577,-10.03574 6.33427,-18.92876 12.71969,-25.31418 6.30843,-6.30843 9.28568,-8.33909 16.09058,-10.9747 9.40433,-3.64241 16.74166,-4.4753 23.04531,-2.61597 3.00008,0.8849 5.90469,1.95095 6.45469,2.36899 0.55,0.41805 2.14976,1.03369 3.55502,1.36809 4.37594,1.04131 10.78338,6.02207 13.75571,10.69286 1.56623,2.4612 3.62921,5.11714 4.58441,5.90208 2.67363,2.19707 4.7937,6.96837 5.24556,11.80535 0.2253,2.41176 0.982,6.04631 1.68155,8.07678 2.27584,6.60566 -0.97732,30.46428 -4.95063,36.30783 -1.3527,1.98941 -2.93069,5.36441 -3.50664,7.5 -1.27884,4.74186 -10.04403,13.34734 -17.36498,17.04858 -2.76378,1.39728 -7.73976,2.81999 -11.1259,3.18106 l -6.12589,0.65323 2.9887,5.27882 c 2.12787,3.75838 3.3259,4.99897 4.15943,4.30721 0.64391,-0.5344 1.7357,-0.62246 2.42621,-0.1957 0.69051,0.42676 3.60042,-0.0343 6.46646,-1.02456 2.86604,-0.99026 6.68932,-1.81517 8.49617,-1.83312 1.80685,-0.018 4.44891,-0.79515 5.87124,-1.7271 2.4306,-1.59259 2.66052,-1.59259 3.82506,0 1.66506,2.27711 2.51852,2.13404 2.51852,-0.42218 0,-1.5644 0.48097,-1.99086 1.84348,-1.63455 1.05909,0.27696 2.28654,-0.22737 2.88477,-1.18528 0.5727,-0.91705 2.89958,-2.28065 5.17083,-3.03023 2.27125,-0.74958 4.62821,-1.96372 5.23768,-2.69809 0.60947,-0.73437 1.76329,-1.33522 2.56404,-1.33522 0.80075,0 3.34178,-2.025 5.64673,-4.5 2.30495,-2.475 4.69969,-4.5 5.32164,-4.5 0.62196,0 2.70583,-1.575 4.63083,-3.5 1.925,-1.925 4.22,-3.5 5.1,-3.5 1.04867,0 1.6,-0.87932 1.6,-2.55188 0,-1.40354 0.86242,-4.21604 1.91649,-6.25 3.06532,-5.91494 4.25716,-13.21546 3.64527,-22.32885 -0.30907,-4.6031 -0.78114,-11.8756 -1.04906,-16.16112 -0.26792,-4.28551 -0.89545,-8.56051 -1.39451,-9.5 -0.49907,-0.93948 -1.17909,-4.43788 -1.51117,-7.77423 -0.33208,-3.33634 -1.42509,-8.48233 -2.42891,-11.43553 -1.55611,-4.57798 -2.33021,-5.53785 -5.25162,-6.51191 -3.09599,-1.03226 -3.5704,-1.71367 -4.91842,-7.06447 -0.82056,-3.2571 -1.82782,-6.07026 -2.23835,-6.25146 -1.34795,-0.59495 -4.86343,-9.57507 -5.46417,-13.95794 -0.38128,-2.78179 -1.26118,-4.65368 -2.49887,-5.31607 -1.60216,-0.85745 -1.8062,-1.71696 -1.26472,-5.32775 0.46868,-3.12542 0.17392,-5.21754 -1.07554,-7.63373 -1.39077,-2.68945 -1.59837,-4.80085 -1.08146,-10.99904 0.52506,-6.29593 0.35817,-7.90432 -0.93122,-8.97441 -1.24047,-1.0295 -1.46051,-2.64437 -1.04604,-7.677 0.41265,-5.0104 0.21321,-6.49285 -0.93266,-6.93256 -0.87995,-0.33767 -1.42208,-1.80615 -1.36806,-3.70568 0.1246,-4.38118 -0.60169,-7.60659 -2.56508,-11.39135 -1.77237,-3.41653 -2.16153,-7.75684 -1.14365,-12.75502 0.33602,-1.65 0.34638,-2.4375 0.023,-1.75 -1.52166,3.23521 -3.74189,0.29028 -6.78522,-9 -0.3153,-0.9625 -1.16219,-1.75 -1.88197,-1.75 C 450.70329,186 446,180.04879 446,177.45388 c 0,-1.28726 -0.82217,-2.92849 -1.82705,-3.64718 -1.00488,-0.71868 -2.29483,-2.15596 -2.86656,-3.19394 C 440.29615,168.77864 434,167.38769 434,168.99862 c 0,0.42135 -1.87272,2.63881 -4.16161,4.92769 -3.58893,3.58894 -4.58659,4.08015 -7.25,3.56963 l -3.08839,-0.59199 2.30804,2.00532 c 1.90495,1.6551 2.11712,2.36206 1.21482,4.04802 C 422.42158,184.08078 421.49547,185 420.96482,185 420.43417,185 420,185.64286 420,186.42857 c 0,0.78572 -0.74798,2.17655 -1.66218,3.09075 -1.37788,1.37788 -1.4269,1.80759 -0.28661,2.51233 1.13912,0.70402 1.04349,1.50493 -0.55631,4.65925 -1.06254,2.09501 -1.81949,4.80276 -1.68211,6.01724 0.17998,1.59105 -0.61712,2.65643 -2.85227,3.81227 -2.49803,1.29179 -2.87445,1.87838 -1.93316,3.01255 0.64288,0.77463 1.19055,3.10911 1.21703,5.18773 0.0509,3.99714 -2.91288,13.32242 -4.59046,14.44335 -0.54659,0.36523 -1.07114,3.29023 -1.16566,6.5 -0.21488,7.29668 -0.12561,7.00786 -2.34541,7.58835 -1.53494,0.4014 -1.85715,1.47251 -1.85715,6.17378 0,3.12846 -0.51428,6.2024 -1.14285,6.83097 -0.62857,0.62857 -1.15904,2.06536 -1.17882,3.19286 -0.0198,1.1275 -1.11586,3.37112 -2.43574,4.98582 -1.7659,2.16037 -2.15599,3.39133 -1.47684,4.66033 1.40572,2.62661 -3.86943,12.76048 -6.68488,12.84204 -2.37252,0.0687 -3.80643,4.37143 -2.35846,7.07699 0.98766,1.84545 -0.5016,4.79028 -3.6955,7.3074 -1.35564,1.06838 -2.32985,2.93051 -2.35425,4.5 -0.0248,1.59488 -1.45546,4.27897 -3.53842,6.63848 -3.30745,3.74657 -3.52811,3.84134 -4.07501,1.75 C 373.02693,307.99498 372.36922,307 371.88337,307 c -1.38955,0 -1.0357,2.33751 0.73698,4.86836 1.40552,2.00666 1.43888,2.66593 0.25163,4.97251 -0.75279,1.46252 -1.91326,3.00853 -2.57882,3.43558 -0.66555,0.42704 -0.94921,1.4563 -0.63035,2.28724 0.31887,0.83094 -0.0373,2.28154 -0.79153,3.22356 C 366.66102,328.5479 365,331.85715 365,333.5 c 0,0.83993 -0.41715,2.30853 -0.927,3.26357 -1.4237,2.66683 -2.4119,5.64268 -2.19279,6.60334 0.10875,0.4768 -0.30471,2.3893 -0.91879,4.25 -0.75371,2.28374 -1.74123,3.38309 -3.03897,3.38309 -2.35364,0 -2.41322,0.85431 -0.27275,3.91027 1.56748,2.23789 1.53794,2.43959 -0.59271,4.04675 l -2.24243,1.69146 2.34272,1.50052 c 1.2885,0.82528 3.13022,1.79025 4.09272,2.14437 1.52593,0.56142 2.39986,3.94949 1.8267,7.08179 -0.0881,0.48134 0.62079,1.73808 1.57526,2.79275 1.65944,1.83367 1.61751,2.0269 -0.95828,4.41531 C 360.68574,381.37234 360.24585,383 362.5,383 c 1.80782,0 2.02042,3.64487 0.25,4.28601 -0.99766,0.3613 -0.99477,0.8847 0.0143,2.59269 1.37269,2.32344 1.93845,1.91311 -9.01431,6.53788 -2.0625,0.87088 -5.34386,2.31864 -7.2919,3.21725 -3.35302,1.54669 -3.61514,1.53366 -4.91519,-0.24427 -0.75531,-1.03294 -1.87896,-4.58067 -2.49698,-7.88382 -0.61803,-3.30316 -1.74682,-8.25574 -2.50842,-11.00574 -0.76161,-2.75 -1.36529,-5.9 -1.34151,-7 0.0238,-1.1 -0.46061,-4.42392 -1.07639,-7.38649 -1.93725,-9.32019 -1.66016,-13.05295 2.89833,-39.04492 0.52391,-2.98728 0.8467,-5.5231 0.71731,-5.63515 C 337.60586,321.32138 333,318.94517 327.5,316.15297 322,313.36077 315.83934,309.50263 313.80965,307.57933 307.16882,301.28659 296,282.74882 296,278.01925 c 0,-1.07188 0.92321,-2.44297 2.05158,-3.04686 3.69627,-1.97818 6.22553,-0.74143 9.41728,4.60484 1.66713,2.79248 3.93114,6.54862 5.03114,8.34697 4.31645,7.0568 8.60851,11.96615 13.59112,15.54579 5.12356,3.68092 15.41,7.95637 16.91082,7.02881 0.42201,-0.26081 1.07928,-2.61724 1.4606,-5.2365 0.38132,-2.61927 1.42189,-5.8873 2.31239,-7.2623 C 349.31421,294.07912 361,272.74906 361,272.03499 c 0,-0.35254 1.35947,-2.48957 3.02104,-4.74896 1.66157,-2.25938 3.65533,-6.21559 4.43059,-8.79156 0.77525,-2.57598 2.06709,-5.42854 2.87074,-6.33903 2.06357,-2.33791 6.39742,-13.63705 7.73072,-20.15544 0.61875,-3.025 1.98493,-8.32195 3.03596,-11.771 1.05102,-3.44905 1.91095,-7.28642 1.91095,-8.52749 0,-1.24107 0.75902,-3.34014 1.6867,-4.6646 0.92769,-1.32446 2.00445,-4.23709 2.3928,-6.47251 0.38836,-2.23542 1.18262,-5.4144 1.76502,-7.0644 0.58241,-1.65 1.78731,-6.6 2.67755,-11 5.37311,-26.5563 17.6228,-43.5537 34.61959,-48.03737 5.36109,-1.41423 20.63704,-1.17474 32.63383,0.51162 6.59295,0.92676 15.35929,5.17029 22.64512,10.96184 6.9672,5.53829 17.07015,24.65726 18.68894,35.36723 0.48243,3.19182 1.34466,6.67685 1.91605,7.74451 0.57139,1.06765 1.4595,5.88116 1.97358,10.69668 1.61777,15.15418 3.10302,26.45315 4.70005,35.75549 0.84981,4.95 1.77149,10.52343 2.04816,12.3854 0.27667,1.86197 1.74876,5.23697 3.2713,7.5 1.52255,2.26303 3.48414,6.53498 4.35908,9.49321 2.26173,7.64699 3.22968,8.57533 6.36762,6.10703 3.32495,-2.61541 5.86495,-2.50996 7.71952,0.32047 1.16645,1.78022 1.45676,4.91581 1.27306,13.75 -0.18543,8.91714 0.11513,12.10627 1.36123,14.44389 0.87957,1.65 2.31396,4.35 3.18754,6 4.74664,8.96535 7.14355,21.05965 10.6029,53.5 1.30997,12.28429 -1.42285,27.61732 -7.06685,39.64994 -2.10253,4.48246 -3.82279,8.8466 -3.82279,9.69808 0,4.17082 -23.57742,26.9059 -31.21086,30.09581 -1.80903,0.75597 -4.54864,2.36534 -6.08803,3.57637 -3.33028,2.61991 -22.67188,8.94764 -27.68059,9.05588 -1.93629,0.0418 -5.09552,0.64446 -7.02052,1.33916 -3.17069,1.14423 -3.56997,1.72513 -4.24363,6.17392 -0.40899,2.70096 -0.31446,9.70147 0.21007,15.55668 0.97332,10.8649 0.29355,16.43699 -2.19817,18.01854 -1.4661,0.93056 -11.24018,1.08408 -14.43639,0.22675 -1.19247,-0.31986 -2.71432,-1.9002 -3.38189,-3.51187 -1.03227,-2.49212 -0.9542,-3.21712 0.52207,-4.84839 0.95472,-1.05495 2.92657,-2.05596 4.38189,-2.22448 L 450.5,481.5 l 0.15444,-13.31805 c 0.10805,-9.31745 -0.19234,-13.42266 -1,-13.66627 -0.63494,-0.19152 -5.75463,-0.61235 -11.37709,-0.93518 l -10.22265,-0.58695 -1.56822,3.03259 c -0.87142,1.68514 -1.21681,3.57495 -0.77735,4.25323 0.43498,0.67135 1.07574,5.94563 1.42392,11.72063 0.34818,5.775 0.96616,11.75327 1.37328,13.28504 1.01373,3.81409 -1.56192,6.45079 -7.11482,7.2835 C 412.92015,493.8389 407,491.33982 407,486.49344 l 0,-2.3637 -8.25,3.83706 c -6.76771,3.14765 -9.59753,3.8996 -15.75,4.18513 -4.125,0.19144 -8.625,0.23503 -10,0.0969 z m -3.02458,-36.77841 c -2.05604,-2.47739 0.20863,-6.12721 4.19929,-6.7677 1.82891,-0.29354 5.22144,-0.85378 7.53896,-1.24499 3.90014,-0.65837 4.30364,-0.51382 5.42287,1.94263 1.55188,3.406 0.43777,4.58991 -5.89031,6.25931 -6.42116,1.69395 -9.75433,1.63798 -11.27081,-0.18925 z m -17.88266,-12.85863 c -0.72125,-0.86905 -0.90624,-2.92599 -0.49464,-5.5 C 352.1486,433.66923 352.63248,433 354.5711,433 c 2.44472,0 5.4289,3.33523 5.4289,6.06752 0,1.99259 -3.10309,4.93248 -5.2063,4.93248 -0.85184,0 -2.06727,-0.62471 -2.70094,-1.38824 z m 40.45955,-6.52711 c -1.0766,-1.74199 -0.23445,-9.10356 1.17528,-10.27353 1.80046,-1.49425 5.88368,0.38874 6.74795,3.11183 1.00652,3.17125 -1.55582,7.52663 -4.63849,7.88436 -1.4565,0.16902 -2.93463,-0.15618 -3.28474,-0.72266 z"
       style="fill:#fcb501" />
    <path
       id="path10422"
       d="m 411.02823,491.94812 c -2.96194,-1.25552 -3.99241,-2.70417 -4.01292,-5.64142 -0.0198,-2.84129 3.66771,-5.42436 6.66852,-4.6712 2.18261,0.54779 2.87949,-0.32204 2.3985,-2.99379 -0.085,-0.47205 0.91192,-2.27205 2.21536,-4 1.30343,-1.72794 3.68217,-5.39171 5.28609,-8.14171 l 2.91622,-5 0.64697,10.5 c 0.35584,5.775 0.95439,11.86013 1.33012,13.52251 0.99054,4.38264 -1.8143,6.54714 -9.15321,7.06355 -3.20313,0.22539 -6.93618,-0.0617 -8.29565,-0.63794 z m 34.8206,0.38159 c -0.90814,-0.24106 -2.20499,-1.77535 -2.88189,-3.40952 -1.05226,-2.54038 -0.97901,-3.24937 0.50512,-4.88932 0.95472,-1.05495 2.92657,-2.05596 4.38189,-2.22448 L 450.5,481.5 l 0,-13.5 0,-13.5 -4.5,-0.24035 c -2.475,-0.1322 -7.3125,-0.50552 -10.75,-0.8296 l -6.25,-0.58924 0.0239,-3.6704 c 0.0131,-2.01873 0.42571,-5.40219 0.91688,-7.5188 0.99964,-4.30788 -0.71983,-11.75318 -4.03659,-17.47838 -2.07321,-3.57865 -1.71579,-5.72683 0.72552,-4.3606 0.91053,0.50956 3.52696,0.1357 6.68333,-0.95498 2.85285,-0.9858 6.66533,-1.80705 8.47218,-1.825 1.80685,-0.018 4.44891,-0.79515 5.87124,-1.7271 2.4306,-1.59259 2.66052,-1.59259 3.82506,0 1.66506,2.27711 2.51852,2.13404 2.51852,-0.42218 0,-1.5644 0.48097,-1.99086 1.84348,-1.63455 1.05909,0.27696 2.28654,-0.22737 2.88477,-1.18528 0.5727,-0.91705 2.89958,-2.28065 5.17083,-3.03023 2.27125,-0.74958 4.62821,-1.96372 5.23768,-2.69809 0.60947,-0.73437 1.76329,-1.33522 2.56404,-1.33522 0.80075,0 3.34178,-2.025 5.64673,-4.5 2.30495,-2.475 4.69969,-4.5 5.32164,-4.5 0.62196,0 2.70583,-1.575 4.63083,-3.5 1.925,-1.925 4.22,-3.5 5.1,-3.5 1.04867,0 1.6,-0.87932 1.6,-2.55188 0,-1.40354 0.86242,-4.21604 1.91649,-6.25 3.06532,-5.91494 4.25716,-13.21546 3.64527,-22.32885 -0.30907,-4.6031 -0.78114,-11.8756 -1.04906,-16.16112 -0.26792,-4.28551 -0.89545,-8.56051 -1.39451,-9.5 -0.49907,-0.93948 -1.17909,-4.43788 -1.51117,-7.77423 -0.33208,-3.33634 -1.42509,-8.48233 -2.42891,-11.43553 -1.55611,-4.57798 -2.33021,-5.53785 -5.25162,-6.51191 -3.09599,-1.03226 -3.5704,-1.71367 -4.91842,-7.06447 -0.82056,-3.2571 -1.82782,-6.07026 -2.23835,-6.25146 -1.34795,-0.59495 -4.86343,-9.57507 -5.46417,-13.95794 -0.38128,-2.78179 -1.26118,-4.65368 -2.49887,-5.31607 -1.60216,-0.85745 -1.8062,-1.71696 -1.26472,-5.32775 0.46868,-3.12542 0.17392,-5.21754 -1.07554,-7.63373 -1.39077,-2.68945 -1.59837,-4.80085 -1.08146,-10.99904 0.52506,-6.29593 0.35817,-7.90432 -0.93122,-8.97441 -1.24047,-1.0295 -1.46051,-2.64437 -1.04604,-7.677 0.41265,-5.0104 0.21321,-6.49285 -0.93266,-6.93256 -0.87995,-0.33767 -1.42208,-1.80615 -1.36806,-3.70568 0.1246,-4.38118 -0.60169,-7.60659 -2.56508,-11.39135 -1.77237,-3.41653 -2.16153,-7.75684 -1.14365,-12.75502 0.33602,-1.65 0.34638,-2.4375 0.023,-1.75 -1.52166,3.23521 -3.74189,0.29028 -6.78522,-9 -0.3153,-0.9625 -1.16219,-1.75 -1.88197,-1.75 -2.05081,0 -6.7541,-5.95121 -6.7541,-8.54612 0,-1.28726 -0.82217,-2.92849 -1.82705,-3.64718 -1.00488,-0.71868 -2.29483,-2.15596 -2.86656,-3.19394 C 440.29615,168.77864 434,167.38769 434,168.99862 c 0,0.42135 -1.87272,2.63881 -4.16161,4.92769 -3.58893,3.58894 -4.58659,4.08015 -7.25,3.56963 l -3.08839,-0.59199 2.30804,2.00532 c 1.90495,1.6551 2.11712,2.36206 1.21482,4.04802 C 422.42158,184.08078 421.49547,185 420.96482,185 420.43417,185 420,185.64286 420,186.42857 c 0,0.78572 -0.74798,2.17655 -1.66218,3.09075 -1.37788,1.37788 -1.4269,1.80759 -0.28661,2.51233 1.13912,0.70402 1.04349,1.50493 -0.55631,4.65925 -1.06254,2.09501 -1.81949,4.80276 -1.68211,6.01724 0.17998,1.59105 -0.61712,2.65643 -2.85227,3.81227 -2.49803,1.29179 -2.87445,1.87838 -1.93316,3.01255 0.64288,0.77463 1.19055,3.10911 1.21703,5.18773 0.0509,3.99714 -2.91288,13.32242 -4.59046,14.44335 -0.54659,0.36523 -1.07114,3.29023 -1.16566,6.5 -0.21488,7.29668 -0.12561,7.00786 -2.34541,7.58835 -1.53494,0.4014 -1.85715,1.47251 -1.85715,6.17378 0,3.12846 -0.51428,6.2024 -1.14285,6.83097 -0.62857,0.62857 -1.15904,2.06536 -1.17882,3.19286 -0.0198,1.1275 -1.11586,3.37112 -2.43574,4.98582 -1.7659,2.16037 -2.15599,3.39133 -1.47684,4.66033 1.40572,2.62661 -3.86943,12.76048 -6.68488,12.84204 -2.37252,0.0687 -3.80643,4.37143 -2.35846,7.07699 0.98766,1.84545 -0.5016,4.79028 -3.6955,7.3074 -1.35564,1.06838 -2.32985,2.93051 -2.35425,4.5 -0.0248,1.59488 -1.45546,4.27897 -3.53842,6.63848 -3.30745,3.74657 -3.52811,3.84134 -4.07501,1.75 C 373.02693,307.99498 372.36922,307 371.88337,307 c -1.38955,0 -1.0357,2.33751 0.73698,4.86836 1.40552,2.00666 1.43888,2.66593 0.25163,4.97251 -0.75279,1.46252 -1.91326,3.00853 -2.57882,3.43558 -0.66555,0.42704 -0.94921,1.4563 -0.63035,2.28724 0.31887,0.83094 -0.0373,2.28154 -0.79153,3.22356 C 366.66102,328.5479 365,331.85715 365,333.5 c 0,0.83993 -0.41715,2.30853 -0.927,3.26357 -1.4237,2.66683 -2.4119,5.64268 -2.19279,6.60334 0.10875,0.4768 -0.30471,2.3893 -0.91879,4.25 -0.75371,2.28374 -1.74123,3.38309 -3.03897,3.38309 -2.35364,0 -2.41322,0.85431 -0.27275,3.91027 1.56748,2.23789 1.53794,2.43959 -0.59271,4.04675 l -2.24243,1.69146 2.34272,1.50052 c 1.2885,0.82528 3.13022,1.79025 4.09272,2.14437 1.52593,0.56142 2.39986,3.94949 1.8267,7.08179 -0.0881,0.48134 0.62079,1.73808 1.57526,2.79275 1.65944,1.83367 1.61751,2.0269 -0.95828,4.41531 C 360.68574,381.37234 360.24585,383 362.5,383 c 1.80782,0 2.02042,3.64487 0.25,4.28601 -0.99766,0.3613 -0.99477,0.8847 0.0143,2.59269 1.37269,2.32344 1.93845,1.91311 -9.01431,6.53788 -2.0625,0.87088 -5.34386,2.31864 -7.2919,3.21725 -3.35302,1.54669 -3.61514,1.53366 -4.91519,-0.24427 -0.75531,-1.03294 -1.87896,-4.58067 -2.49698,-7.88382 -0.61803,-3.30316 -1.74682,-8.25574 -2.50842,-11.00574 -0.76161,-2.75 -1.36529,-5.9 -1.34151,-7 0.0238,-1.1 -0.46061,-4.42392 -1.07639,-7.38649 -1.93725,-9.32019 -1.66016,-13.05295 2.89833,-39.04492 0.52391,-2.98728 0.8467,-5.5231 0.71731,-5.63515 C 337.60586,321.32138 333,318.94517 327.5,316.15297 322,313.36077 315.83934,309.50263 313.80965,307.57933 307.16882,301.28659 296,282.74882 296,278.01925 c 0,-1.07188 0.92321,-2.44297 2.05158,-3.04686 3.69627,-1.97818 6.22553,-0.74143 9.41728,4.60484 1.66713,2.79248 3.93114,6.54862 5.03114,8.34697 4.31645,7.0568 8.60851,11.96615 13.59112,15.54579 5.12356,3.68092 15.41,7.95637 16.91082,7.02881 0.42201,-0.26081 1.07928,-2.61724 1.4606,-5.2365 0.38132,-2.61927 1.42189,-5.8873 2.31239,-7.2623 C 349.31421,294.07912 361,272.74906 361,272.03499 c 0,-0.35254 1.35947,-2.48957 3.02104,-4.74896 1.66157,-2.25938 3.65533,-6.21559 4.43059,-8.79156 0.77525,-2.57598 2.06709,-5.42854 2.87074,-6.33903 2.06357,-2.33791 6.39742,-13.63705 7.73072,-20.15544 0.61875,-3.025 1.98493,-8.32195 3.03596,-11.771 1.05102,-3.44905 1.91095,-7.28642 1.91095,-8.52749 0,-1.24107 0.75902,-3.34014 1.6867,-4.6646 0.92769,-1.32446 2.00445,-4.23709 2.3928,-6.47251 0.38836,-2.23542 1.18262,-5.4144 1.76502,-7.0644 0.58241,-1.65 1.78731,-6.6 2.67755,-11 5.37311,-26.5563 17.6228,-43.5537 34.61959,-48.03737 5.36109,-1.41423 20.63704,-1.17474 32.63383,0.51162 6.59295,0.92676 15.35929,5.17029 22.64512,10.96184 6.9672,5.53829 17.07015,24.65726 18.68894,35.36723 0.48243,3.19182 1.34466,6.67685 1.91605,7.74451 0.57139,1.06765 1.4595,5.88116 1.97358,10.69668 1.61777,15.15418 3.10302,26.45315 4.70005,35.75549 0.84981,4.95 1.77149,10.52343 2.04816,12.3854 0.27667,1.86197 1.74876,5.23697 3.2713,7.5 1.52255,2.26303 3.48414,6.53498 4.35908,9.49321 2.26173,7.64699 3.22968,8.57533 6.36762,6.10703 3.32495,-2.61541 5.86495,-2.50996 7.71952,0.32047 1.16645,1.78022 1.45676,4.91581 1.27306,13.75 -0.18543,8.91714 0.11513,12.10627 1.36123,14.44389 0.87957,1.65 2.31396,4.35 3.18754,6 4.74664,8.96535 7.14355,21.05965 10.6029,53.5 1.30997,12.28429 -1.42285,27.61732 -7.06685,39.64994 -2.10253,4.48246 -3.82279,8.8466 -3.82279,9.69808 0,4.17082 -23.57742,26.9059 -31.21086,30.09581 -1.80903,0.75597 -4.54864,2.36534 -6.08803,3.57637 -3.33028,2.61991 -22.67188,8.94764 -27.68059,9.05588 -1.93629,0.0418 -5.09552,0.64446 -7.02052,1.33916 -3.17069,1.14423 -3.56997,1.72513 -4.24363,6.17392 -0.40899,2.70096 -0.31446,9.70147 0.21007,15.55668 0.97332,10.8649 0.29355,16.43699 -2.19817,18.01854 -1.30472,0.82813 -11.97693,0.94639 -14.91944,0.16533 z m -75.87341,-36.85932 c -2.05604,-2.47739 0.20863,-6.12721 4.19929,-6.7677 1.82891,-0.29354 5.22144,-0.85378 7.53896,-1.24499 3.90014,-0.65837 4.30364,-0.51382 5.42287,1.94263 1.55188,3.406 0.43777,4.58991 -5.89031,6.25931 -6.42116,1.69395 -9.75433,1.63798 -11.27081,-0.18925 z m -17.88266,-12.85863 c -0.72125,-0.86905 -0.90624,-2.92599 -0.49464,-5.5 C 352.1486,433.66923 352.63248,433 354.5711,433 c 2.44472,0 5.4289,3.33523 5.4289,6.06752 0,1.99259 -3.10309,4.93248 -5.2063,4.93248 -0.85184,0 -2.06727,-0.62471 -2.70094,-1.38824 z m 40.45955,-6.52711 c -1.0766,-1.74199 -0.23445,-9.10356 1.17528,-10.27353 1.80046,-1.49425 5.88368,0.38874 6.74795,3.11183 1.00652,3.17125 -1.55582,7.52663 -4.63849,7.88436 -1.4565,0.16902 -2.93463,-0.15618 -3.28474,-0.72266 z m 23.01716,-28.71335 c -2.7177,-4.28872 -5.13555,-6.02146 -15.56947,-11.15775 -7.39463,-3.64014 -10.93987,-4.79146 -15.99709,-5.19505 -6.3693,-0.5083 -6.53227,-0.59343 -8.28573,-4.32767 -1.73467,-3.69423 -4.19481,-21.92772 -4.07348,-30.19083 0.11145,-7.59019 3.0427,-20.01845 6.17534,-26.18291 3.05962,-6.02076 10.1602,-14.09191 15.85985,-18.0277 4.09972,-2.83098 12.91975,-6.05233 19.86642,-7.25583 4.91191,-0.85097 7.06797,-0.74569 11.5,0.56159 3.00008,0.8849 5.90469,1.95095 6.45469,2.36899 0.55,0.41805 2.14976,1.03369 3.55502,1.36809 4.37594,1.04131 10.78338,6.02207 13.75571,10.69286 1.56623,2.4612 3.62921,5.11714 4.58441,5.90208 2.67363,2.19707 4.7937,6.96837 5.24556,11.80535 0.2253,2.41176 0.982,6.04631 1.68155,8.07678 2.27584,6.60566 -0.97732,30.46428 -4.95063,36.30783 -1.3527,1.98941 -2.93069,5.36441 -3.50664,7.5 -0.71919,2.6667 -2.81962,5.54883 -6.70608,9.2018 -7.34569,6.9044 -14.04187,10.27027 -21.71441,10.9149 -5.81719,0.48874 -6.12712,0.39576 -7.87502,-2.36253 z"
       style="fill:#95d04a" />
    <path
       id="path10420"
       d="m 411.02823,491.94812 c -2.96194,-1.25552 -3.99241,-2.70417 -4.01292,-5.64142 -0.0198,-2.84129 3.66771,-5.42436 6.66852,-4.6712 2.18261,0.54779 2.87949,-0.32204 2.3985,-2.99379 -0.085,-0.47205 0.91192,-2.27205 2.21536,-4 1.30343,-1.72794 3.68217,-5.39171 5.28609,-8.14171 l 2.91622,-5 0.64697,10.5 c 0.35584,5.775 0.95439,11.86013 1.33012,13.52251 0.99054,4.38264 -1.8143,6.54714 -9.15321,7.06355 -3.20313,0.22539 -6.93618,-0.0617 -8.29565,-0.63794 z m 34.8206,0.38159 c -0.90814,-0.24106 -2.20499,-1.77535 -2.88189,-3.40952 -1.05226,-2.54038 -0.97901,-3.24937 0.50512,-4.88932 0.95472,-1.05495 2.92657,-2.05596 4.38189,-2.22448 L 450.5,481.5 l 0,-13.5 0,-13.5 -4.5,-0.24035 c -2.475,-0.1322 -7.3125,-0.50552 -10.75,-0.8296 l -6.25,-0.58924 0.0136,-3.6704 C 429.0375,442.74887 429.91651,441 433.12021,441 c 1.58784,0 4.57286,-0.90769 6.63336,-2.01709 2.38138,-1.28216 4.7106,-1.80803 6.39279,-1.4433 2.84618,0.61711 9.85359,-1.80865 9.85359,-3.41103 0,-0.53541 1.51637,-1.47392 3.3697,-2.08558 1.85334,-0.61165 5.95748,-3.12155 9.12032,-5.57755 3.16284,-2.456 6.04467,-4.46545 6.40405,-4.46545 1.60148,0 13.33402,-17.24594 16.2389,-23.86993 1.11675,-2.54654 2.52173,-5.53007 3.12217,-6.63007 0.60044,-1.1 1.43576,-3.575 1.85625,-5.5 0.4205,-1.925 1.67299,-6.65 2.78332,-10.5 1.77248,-6.14596 1.95237,-8.89108 1.47446,-22.5 -0.29938,-8.525 -1.17991,-17.81926 -1.95674,-20.65391 C 497.63559,329.51144 497,325.84634 497,324.20143 c 0,-3.36582 -3.70122,-16.19222 -5.09355,-17.65143 -0.49855,-0.5225 -0.92076,-2.5475 -0.93825,-4.5 -0.0175,-1.9525 -0.6925,-4.42351 -1.5,-5.49113 -0.80751,-1.06762 -1.4682,-3.00536 -1.4682,-4.30609 0,-1.30072 -1.3903,-5.15222 -3.08957,-8.55887 -1.69926,-3.40665 -3.23523,-7.54391 -3.41328,-9.19391 -0.17804,-1.65 -1.21425,-5.33599 -2.30268,-8.19109 -1.08843,-2.85509 -1.80365,-5.3664 -1.58937,-5.58068 0.59978,-0.59977 -1.52769,-11.91363 -2.76951,-14.72823 -0.62443,-1.41528 -1.21706,-9.94466 -1.36586,-19.65802 C 473.1887,207.99786 472.44864,201 470.78966,201 c -0.61358,0 -0.52167,-0.61798 0.22587,-1.51871 0.89363,-1.07676 1.05074,-3.18653 0.5399,-7.25 -0.39628,-3.15221 -0.9037,-8.85412 -1.1276,-12.67091 -0.22389,-3.8168 -0.86175,-7.3943 -1.41745,-7.95 C 468.45467,171.05467 468,168.86427 468,166.74282 c 0,-5.81773 -1.9925,-13.03755 -4.1129,-14.90311 C 462.84919,150.92655 462,149.84402 462,149.4341 c 0,-0.40993 -1.15864,-2.26437 -2.57476,-4.121 -2.27432,-2.98179 -2.96214,-3.303 -5.8947,-2.75285 -1.86378,0.34965 -4.27139,0.11363 -5.48917,-0.53811 -1.66369,-0.89038 -2.51183,-0.87658 -3.63938,0.0592 -1.15834,0.96133 -1.96669,0.9544 -3.81108,-0.0327 -1.69197,-0.90551 -2.88533,-0.96145 -4.3048,-0.20177 -2.11483,1.13182 -6.09229,1.00897 -8.1312,-0.25114 -1.77879,-1.09935 -0.86157,-3.08644 1.42701,-3.0915 1.42875,-0.003 1.85088,-0.61454 1.65466,-2.39651 l -0.26342,-2.39227 16.02638,0.51137 c 15.48771,0.49419 16.24276,0.6179 22.46407,3.68064 10.84687,5.3399 16.23358,10.06251 21.38541,18.74894 6.22149,10.48998 9.20339,17.65281 10.26053,24.64691 0.48243,3.19182 1.34466,6.67685 1.91605,7.74451 0.57139,1.06765 1.4595,5.88116 1.97358,10.69668 1.61777,15.15418 3.10302,26.45315 4.70005,35.75549 0.84981,4.95 1.77149,10.52343 2.04816,12.3854 0.27667,1.86197 1.74876,5.23697 3.2713,7.5 1.52255,2.26303 3.48414,6.53498 4.35908,9.49321 2.26173,7.64699 3.22968,8.57533 6.36762,6.10703 3.32495,-2.61541 5.86495,-2.50996 7.71952,0.32047 1.16645,1.78022 1.45676,4.91581 1.27306,13.75 -0.18543,8.91714 0.11513,12.10627 1.36123,14.44389 0.87957,1.65 2.31396,4.35 3.18754,6 4.74664,8.96535 7.14355,21.05965 10.6029,53.5 1.30997,12.28429 -1.42285,27.61732 -7.06685,39.64994 -2.10253,4.48246 -3.82279,8.8466 -3.82279,9.69808 0,4.17082 -23.57742,26.9059 -31.21086,30.09581 -1.80903,0.75597 -4.54864,2.36534 -6.08803,3.57637 -3.33028,2.61991 -22.67188,8.94764 -27.68059,9.05588 -1.93629,0.0418 -5.09552,0.64446 -7.02052,1.33916 -3.17069,1.14423 -3.56997,1.72513 -4.24363,6.17392 -0.40899,2.70096 -0.31446,9.70147 0.21007,15.55668 0.97332,10.8649 0.29355,16.43699 -2.19817,18.01854 -1.30472,0.82813 -11.97693,0.94639 -14.91944,0.16533 z m -75.18838,-36.81212 c -2.12067,-2.12066 -0.9148,-5.43848 2.20904,-6.07796 1.44678,-0.29617 4.24333,-1.01363 6.21454,-1.59435 5.41156,-1.59424 7.36384,-0.86692 7.72677,2.8786 0.27207,2.80786 -0.0394,3.28437 -2.5,3.82448 -1.54594,0.33935 -4.11545,1.02979 -5.71002,1.53432 -4.09463,1.29555 -6.23179,1.14346 -7.94033,-0.56509 z m -18.56769,-12.90583 c -0.72125,-0.86905 -0.90624,-2.92599 -0.49464,-5.5 C 352.1486,433.66923 352.63248,433 354.5711,433 c 2.44472,0 5.4289,3.33523 5.4289,6.06752 0,1.99259 -3.10309,4.93248 -5.2063,4.93248 -0.85184,0 -2.06727,-0.62471 -2.70094,-1.38824 z m 40.45955,-6.52711 c -1.0766,-1.74199 -0.23445,-9.10356 1.17528,-10.27353 1.80046,-1.49425 5.88368,0.38874 6.74795,3.11183 1.00652,3.17125 -1.55582,7.52663 -4.63849,7.88436 -1.4565,0.16902 -2.93463,-0.15618 -3.28474,-0.72266 z M 416,408.08566 c 0,-4.3565 -21.39487,-16.12855 -30.99659,-17.0552 -5.24017,-0.50571 -5.58342,-0.7153 -7.35775,-4.49257 -1.08427,-2.30825 -2.21493,-7.94339 -2.70871,-13.5 -0.46615,-5.24584 -1.14148,-10.96321 -1.50073,-12.70527 -0.97916,-4.74815 2.28939,-20.9707 5.68502,-28.21605 4.02087,-8.57944 12.47238,-17.31622 20.28021,-20.96476 3.3542,-1.56739 9.64541,-3.41004 13.98045,-4.09477 7.63752,-1.20636 8.08711,-1.16291 14.5,1.40118 12.97393,5.18742 15.31902,6.7497 20.3272,13.54178 7.93672,10.76377 8.78326,12.33237 8.78716,16.28212 0.002,2.08016 0.6431,5.31231 1.42453,7.18256 1.11627,2.6716 1.22696,5.18317 0.51645,11.71788 -1.62601,14.95458 -2.92694,21.27364 -4.94591,24.02389 -1.09275,1.48855 -2.883,5.10172 -3.97833,8.02926 -2.30487,6.16031 -7.92008,11.41672 -16.85236,15.77553 C 427.46478,407.79072 416,409.8447 416,408.08566 Z m -88.64168,-91.93153 c -5.02792,-2.55977 -10.95215,-6.30589 -13.16496,-8.3247 C 307.40185,301.63332 296,282.95116 296,278.01925 c 0,-1.07188 0.92321,-2.44297 2.05158,-3.04686 3.69627,-1.97818 6.22553,-0.74143 9.41728,4.60484 6.16287,10.32297 7.10572,11.76926 10.62488,16.29803 4.26552,5.48925 12.71258,11.45296 18.71525,13.21313 5.18241,1.51965 7.09501,4.25522 4.77071,6.82354 -0.86883,0.96005 -1.5797,2.40186 -1.5797,3.20401 0,2.57205 -3.28272,1.80294 -12.64168,-2.96181 z"
       style="fill:#889f61" />
    <path
       id="path10418"
       d="m 452,492.32002 c -6.51315,-0.66975 -7.76562,-1.25005 -8.43247,-3.90697 -0.79918,-3.18419 0.56297,-4.98915 4.33439,-5.74343 2.28937,-0.45788 2.96552,-1.22696 3.40286,-3.87052 0.71153,-4.301 0.14349,-23.26477 -0.73968,-24.69377 C 450.14946,453.43281 446.41302,453 441.02277,453 c -11.0128,0 -12.02645,-0.36776 -12.00912,-4.35699 0.0256,-5.8811 0.97223,-7.64301 4.10661,-7.64301 1.58784,0 4.57286,-0.90769 6.63336,-2.01709 2.38138,-1.28216 4.7106,-1.80803 6.39279,-1.4433 2.84618,0.61711 9.85359,-1.80865 9.85359,-3.41103 0,-0.53541 1.51637,-1.47392 3.3697,-2.08558 1.85334,-0.61165 5.95748,-3.12155 9.12032,-5.57755 3.16284,-2.456 6.04467,-4.46545 6.40405,-4.46545 1.59807,0 13.32629,-17.23374 16.2444,-23.86993 1.11978,-2.54654 2.67172,-5.8245 3.44875,-7.28436 0.77703,-1.45986 1.41278,-3.5821 1.41278,-4.71608 0,-1.13397 0.62484,-3.53954 1.38854,-5.3457 3.2611,-7.71256 4.27501,-13.25988 3.52552,-19.28881 C 500.50415,358.19781 500.11104,351 500.04049,345.5 c -0.0752,-5.86464 -0.7242,-11.65415 -1.56933,-14 -0.79257,-2.2 -1.44782,-5.52648 -1.4561,-7.39219 -0.0179,-4.03655 -3.66343,-16.77246 -5.04542,-17.62657 -0.5333,-0.3296 -0.98395,-2.26022 -1.00144,-4.29026 -0.0175,-2.03004 -0.6925,-4.56449 -1.5,-5.63211 -0.80751,-1.06762 -1.4682,-3.00536 -1.4682,-4.30609 0,-1.30072 -1.3903,-5.15222 -3.08957,-8.55887 -1.69926,-3.40665 -3.23523,-7.54391 -3.41328,-9.19391 -0.17804,-1.65 -1.21425,-5.33599 -2.30268,-8.19109 -1.08843,-2.85509 -1.80365,-5.3664 -1.58937,-5.58068 0.59978,-0.59977 -1.52769,-11.91363 -2.76951,-14.72823 -0.62443,-1.41528 -1.21706,-9.94466 -1.36586,-19.65802 C 473.1887,207.99786 472.44864,201 470.78966,201 c -0.61358,0 -0.52167,-0.61798 0.22587,-1.51871 0.89363,-1.07676 1.05074,-3.18653 0.5399,-7.25 -0.39628,-3.15221 -0.9037,-8.85412 -1.1276,-12.67091 -0.22389,-3.8168 -0.86175,-7.3943 -1.41745,-7.95 C 468.45467,171.05467 468,168.86427 468,166.74282 c 0,-5.81773 -1.9925,-13.03755 -4.1129,-14.90311 C 462.84919,150.92655 462,149.84402 462,149.4341 c 0,-0.40993 -1.15864,-2.26437 -2.57476,-4.121 -2.27432,-2.98179 -2.96214,-3.303 -5.8947,-2.75285 -1.86378,0.34965 -4.27139,0.11363 -5.48917,-0.53811 -1.66369,-0.89038 -2.51183,-0.87658 -3.63938,0.0592 -1.15834,0.96133 -1.96669,0.9544 -3.81108,-0.0327 -1.69197,-0.90551 -2.88533,-0.96145 -4.3048,-0.20177 -2.11483,1.13182 -6.09229,1.00897 -8.1312,-0.25114 -1.77879,-1.09935 -0.86157,-3.08644 1.42701,-3.0915 1.39205,-0.003 1.85275,-0.6213 1.67987,-2.25424 -0.22772,-2.15088 0.0806,-2.24843 7,-2.21433 3.98102,0.0196 11.61909,0.42719 16.9735,0.90571 8.50365,0.75997 10.59113,1.34442 16.5,4.61969 3.72059,2.06231 8.39778,5.02444 10.39375,6.58252 5.79616,4.52454 16.739,24.5645 18.25103,33.42367 0.36917,2.16301 1.3026,6.63274 2.07429,9.93274 0.77169,3.3 1.92044,10.05 2.55277,15 5.65581,44.27436 5.95041,45.87503 9.37089,50.91538 1.36634,2.01343 3.4406,6.53458 4.60947,10.04701 2.61576,7.86037 4.03102,9.27962 6.51571,6.53408 0.99374,-1.09808 3.07843,-1.99647 4.63274,-1.99647 3.66741,0 4.24602,2.27141 3.64184,14.29656 -0.4891,9.73446 0.47465,14.32153 4.07934,19.41613 3.24921,4.59218 8.38438,25.22529 9.6534,38.78731 0.30878,3.3 1.02436,10.05 1.59018,15 1.63267,14.28331 -0.81104,28.8212 -7.03768,41.86796 -1.68466,3.52989 -3.06302,7.04075 -3.06302,7.80192 0,4.4628 -23.02066,27.1701 -30.99152,30.56966 -1.92034,0.81902 -4.72141,2.52401 -6.2246,3.78886 -1.50319,1.26485 -4.432,2.80856 -6.50848,3.43047 -13.10773,3.92578 -17.52971,5.06387 -23.7754,6.11912 -3.85,0.65048 -7.59566,1.65666 -8.32368,2.23595 -1.02971,0.81933 -1.2518,4.87521 -1,18.26225 0.29682,15.78107 0.16561,17.38386 -1.58131,19.3164 -1.04774,1.15908 -2.62274,2.03539 -3.5,1.94737 -0.87725,-0.088 -3.17001,-0.32199 -5.09501,-0.51994 z m -42.41997,-2.23159 c -1.0233,-1.13073 -1.5972,-3.071 -1.40499,-4.75 0.29347,-2.56334 0.73685,-2.86823 4.57496,-3.14593 4.02185,-0.29099 4.71894,-0.93105 4.31926,-3.96596 -0.0922,-0.7004 1.73423,-4.21439 4.05883,-7.80886 3.51524,-5.43555 4.38558,-6.25119 5.17163,-4.8466 0.5198,0.92884 0.64924,4.20606 0.28765,7.2827 -0.4017,3.41785 -0.16991,7.49621 0.59586,10.4841 1.19408,4.65902 1.14322,4.97936 -1.07574,6.77616 -3.32962,2.69616 -14.07936,2.67951 -16.52746,-0.0256 z M 371.31417,455.5075 c -2.82062,-1.97564 -1.95594,-5.34908 1.55532,-6.06787 1.44678,-0.29617 4.24333,-1.01363 6.21454,-1.59435 5.41156,-1.59424 7.36384,-0.86692 7.72677,2.8786 0.27207,2.80786 -0.0394,3.28437 -2.5,3.82448 -1.54594,0.33935 -4.11545,1.02979 -5.71002,1.53432 -3.90943,1.23695 -4.79977,1.16667 -7.28661,-0.57518 z m -19.52275,-13.04941 c -0.88473,-0.88473 0.30568,-7.81885 1.47391,-8.58552 3.00464,-1.97185 6.43354,2.21695 5.56504,6.79834 -0.34488,1.81925 -5.6579,3.16822 -7.03895,1.78718 z m 41.39591,-6.73238 c -0.59645,-0.71867 -0.81044,-3.11676 -0.49078,-5.5 0.46866,-3.49413 0.94218,-4.22571 2.73512,-4.22571 4.783,0 6.41995,6.58967 2.34582,9.4433 -2.69432,1.88717 -3.23093,1.92019 -4.59016,0.28241 z M 416,408.08566 c 0,-4.3565 -21.39487,-16.12855 -30.99659,-17.0552 -5.24017,-0.50571 -5.58342,-0.7153 -7.35775,-4.49257 -1.08427,-2.30825 -2.21493,-7.94339 -2.70871,-13.5 -0.46615,-5.24584 -1.14148,-10.96321 -1.50073,-12.70527 -0.97916,-4.74815 2.28939,-20.9707 5.68502,-28.21605 4.02087,-8.57944 12.47238,-17.31622 20.28021,-20.96476 3.3542,-1.56739 9.64541,-3.41004 13.98045,-4.09477 7.63752,-1.20636 8.08711,-1.16291 14.5,1.40118 12.97393,5.18742 15.31902,6.7497 20.3272,13.54178 7.93672,10.76377 8.78326,12.33237 8.78716,16.28212 0.002,2.08016 0.6431,5.31231 1.42453,7.18256 1.11627,2.6716 1.22696,5.18317 0.51645,11.71788 -1.62601,14.95458 -2.92694,21.27364 -4.94591,24.02389 -1.09275,1.48855 -2.883,5.10172 -3.97833,8.02926 -2.30487,6.16031 -7.92008,11.41672 -16.85236,15.77553 C 427.46478,407.79072 416,409.8447 416,408.08566 Z m -81,-89.10814 c -16.6293,-6.08618 -27.56083,-16.17305 -35.36079,-32.62854 -3.97353,-8.3829 -4.04483,-9.0371 -1.18894,-10.90835 2.33856,-1.53228 2.7505,-1.5391 4.97389,-0.0823 1.33328,0.8736 2.73551,2.61286 3.11606,3.86501 0.38055,1.25215 1.87718,3.85075 3.32585,5.77466 1.44866,1.92391 4.28462,6.04465 6.30214,9.1572 4.02925,6.21618 12.8762,12.95911 20.33911,15.50197 5.72059,1.94921 7.29458,3.78713 5.23393,6.11157 -0.84413,0.95218 -1.69373,2.43425 -1.88801,3.29348 -0.31822,1.40735 -0.7994,1.39895 -4.85324,-0.0847 z"
       style="fill:#85c533" />
    <path
       id="path10416"
       d="m 452,492.32002 c -6.51315,-0.66975 -7.76562,-1.25005 -8.43247,-3.90697 -0.79918,-3.18419 0.56297,-4.98915 4.33439,-5.74343 2.28937,-0.45788 2.96552,-1.22696 3.40286,-3.87052 0.71153,-4.301 0.14349,-23.26477 -0.73968,-24.69377 C 450.14946,453.43281 446.41302,453 441.02277,453 430.12764,453 429,452.60863 429,448.82727 429,444.76096 430.67016,442 433.12995,442 c 1.13277,0 5.05443,-0.86573 8.71481,-1.92385 3.66038,-1.05811 7.86605,-2.18499 9.34594,-2.50417 3.95509,-0.85302 20.56479,-12.23955 26.094,-17.88835 2.63158,-2.6885 6.24972,-7.20466 8.0403,-10.03591 4.58685,-7.25268 10.67593,-19.93428 10.67005,-22.22231 -0.003,-1.05898 0.65581,-3.95041 1.46339,-6.42541 3.9964,-12.24778 4.22238,-13.51858 3.46752,-19.5 -0.41646,-3.3 -0.79517,-10.03972 -0.84158,-14.97715 -0.0896,-9.5362 -1.66946,-19.0891 -5.70928,-34.52285 -4.50077,-17.19479 -5.52925,-20.41959 -8.97012,-28.12586 C 483.53224,279.67992 482,275.26283 482,274.0584 c 0,-1.20444 -0.42428,-2.98265 -0.94284,-3.95159 -0.51856,-0.96895 -2.1269,-7.57686 -3.57409,-14.68426 -2.04073,-10.02235 -2.7211,-16.71129 -3.03157,-29.80422 -0.22017,-9.28492 -0.64013,-17.63729 -0.93325,-18.56082 -0.29312,-0.92354 -1.2064,-9.30178 -2.02952,-18.61833 -1.77508,-20.09156 -3.13067,-29.84961 -4.71482,-33.93918 -2.69752,-6.96379 -11.31577,-17.36895 -14.46489,-17.46404 -0.65504,-0.0198 -1.50828,-0.54936 -1.89609,-1.17684 -0.51376,-0.83128 1.33467,-1.00998 6.81146,-0.6585 6.32688,0.40603 8.60542,1.08602 14.39609,4.29624 3.78374,2.09763 8.51259,5.08865 10.50856,6.64673 5.79616,4.52454 16.739,24.5645 18.25103,33.42367 0.36917,2.16301 1.3026,6.63274 2.07429,9.93274 0.77169,3.3 1.92044,10.05 2.55277,15 5.65581,44.27436 5.95041,45.87503 9.37089,50.91538 1.36634,2.01343 3.4406,6.53458 4.60947,10.04701 2.61576,7.86037 4.03102,9.27962 6.51571,6.53408 0.99374,-1.09808 3.07843,-1.99647 4.63274,-1.99647 3.66741,0 4.24602,2.27141 3.64184,14.29656 -0.4891,9.73446 0.47465,14.32153 4.07934,19.41613 3.24921,4.59218 8.38438,25.22529 9.6534,38.78731 0.30878,3.3 1.02436,10.05 1.59018,15 1.63267,14.28331 -0.81104,28.8212 -7.03768,41.86796 -1.68466,3.52989 -3.06302,7.04075 -3.06302,7.80192 0,4.4628 -23.02066,27.1701 -30.99152,30.56966 -1.92034,0.81902 -4.72141,2.52401 -6.2246,3.78886 -1.50319,1.26485 -4.432,2.80856 -6.50848,3.43047 -13.10773,3.92578 -17.52971,5.06387 -23.7754,6.11912 -3.85,0.65048 -7.59566,1.65666 -8.32368,2.23595 -1.02971,0.81933 -1.2518,4.87521 -1,18.26225 0.29682,15.78107 0.16561,17.38386 -1.58131,19.3164 -1.04774,1.15908 -2.62274,2.03539 -3.5,1.94737 -0.87725,-0.088 -3.17001,-0.32199 -5.09501,-0.51994 z m -42.41997,-2.23159 c -1.0233,-1.13073 -1.5972,-3.071 -1.40499,-4.75 0.29347,-2.56334 0.73685,-2.86823 4.57496,-3.14593 4.02185,-0.29099 4.71894,-0.93105 4.31926,-3.96596 -0.0922,-0.7004 1.73423,-4.21439 4.05883,-7.80886 3.51524,-5.43555 4.38558,-6.25119 5.17163,-4.8466 0.5198,0.92884 0.64924,4.20606 0.28765,7.2827 -0.4017,3.41785 -0.16991,7.49621 0.59586,10.4841 1.19408,4.65902 1.14322,4.97936 -1.07574,6.77616 -3.32962,2.69616 -14.07936,2.67951 -16.52746,-0.0256 z M 371.75,455.93274 C 368.16488,453.8183 370.33956,449 374.879,449 c 1.36345,0 3.94383,-0.52969 5.73417,-1.17708 3.84621,-1.39081 6.67701,0.20847 6.18509,3.49431 -0.45772,3.05736 -11.79451,6.53451 -15.04826,4.61551 z m -19.95858,-13.47465 c -0.88473,-0.88473 0.30568,-7.81885 1.47391,-8.58552 3.00464,-1.97185 6.43354,2.21695 5.56504,6.79834 -0.34488,1.81925 -5.6579,3.16822 -7.03895,1.78718 z m 41.39591,-6.73238 c -0.59645,-0.71867 -0.81044,-3.11676 -0.49078,-5.5 0.46866,-3.49413 0.94218,-4.22571 2.73512,-4.22571 4.783,0 6.41995,6.58967 2.34582,9.4433 -2.69432,1.88717 -3.23093,1.92019 -4.59016,0.28241 z M 335,319.06054 c -1.375,-0.42216 -5.65,-2.38915 -9.5,-4.3711 -10.84592,-5.58337 -19.6441,-15.22517 -25.86079,-28.34046 -3.97353,-8.3829 -4.04483,-9.0371 -1.18894,-10.90835 2.33856,-1.53228 2.7505,-1.5391 4.97389,-0.0823 1.33328,0.8736 2.73551,2.61286 3.11606,3.86501 0.38055,1.25215 1.87718,3.85075 3.32585,5.77466 1.44866,1.92391 4.28462,6.04465 6.30214,9.1572 4.04137,6.23487 12.8806,12.9606 20.40106,15.52308 2.52036,0.85877 4.43073,2.13733 4.43073,2.96536 0,1.3388 -2.76129,7.46749 -3.27568,7.27039 -0.12338,-0.0473 -1.34932,-0.43136 -2.72432,-0.85351 z"
       style="fill:#749944" />
    <path
       id="path10414"
       d="m 452,492.32002 c -6.51315,-0.66975 -7.76562,-1.25005 -8.43247,-3.90697 -0.79918,-3.18419 0.56297,-4.98915 4.33439,-5.74343 2.28937,-0.45788 2.96552,-1.22696 3.40286,-3.87052 0.80138,-4.84415 0.0803,-23.81402 -0.94417,-24.83849 -0.48355,-0.48355 -5.15001,-1.01001 -10.3699,-1.1699 L 430.5,452.5 l 0,-3.89101 c 0,-4.6209 0.36055,-4.85511 11,-7.14538 10.71088,-2.30565 12.69267,-3.09983 20.05512,-8.03689 13.14039,-8.81159 16.61905,-11.9907 23.91222,-21.85312 4.27185,-5.77675 12.52885,-22.55346 12.55705,-25.51363 0.0134,-1.40798 1.09144,-6.29941 2.39563,-10.86983 2.02872,-7.10951 2.2466,-9.27625 1.50833,-15 -0.4746,-3.67958 -0.88355,-10.51514 -0.90877,-15.19014 -0.0835,-15.48147 -8.93041,-51.70592 -15.98728,-65.46144 -1.11776,-2.17879 -2.0323,-4.962 -2.0323,-6.1849 0,-1.2229 -0.4774,-3.47912 -1.06089,-5.01382 -2.80385,-7.37467 -5.80573,-27.56706 -6.29441,-42.33984 -0.61899,-18.71182 -2.31579,-41.13453 -3.78368,-50 -0.59193,-3.575 -1.38209,-9.425 -1.75592,-13 -0.37382,-3.575 -1.44993,-7.93924 -2.39135,-9.69832 -3.02711,-5.6563 -8.08793,-12.75014 -10.43309,-14.62426 -3.72056,-2.97327 -2.84207,-4.02249 2.8077,-3.35336 5.25888,0.62284 15.28008,5.54213 22.04068,10.81953 5.79616,4.52454 16.739,24.5645 18.25103,33.42367 0.36917,2.16301 1.3026,6.63274 2.07429,9.93274 0.77169,3.3 1.92044,10.05 2.55277,15 5.65581,44.27436 5.95041,45.87503 9.37089,50.91538 1.36634,2.01343 3.4406,6.53458 4.60947,10.04701 2.61576,7.86037 4.03102,9.27962 6.51571,6.53408 0.99374,-1.09808 3.07843,-1.99647 4.63274,-1.99647 3.66741,0 4.24602,2.27141 3.64184,14.29656 -0.4891,9.73446 0.47465,14.32153 4.07934,19.41613 3.24921,4.59218 8.38438,25.22529 9.6534,38.78731 0.30878,3.3 1.02436,10.05 1.59018,15 1.63267,14.28331 -0.81104,28.8212 -7.03768,41.86796 -1.68466,3.52989 -3.06302,7.04075 -3.06302,7.80192 0,4.4628 -23.02066,27.1701 -30.99152,30.56966 -1.92034,0.81902 -4.72141,2.52401 -6.2246,3.78886 -1.50319,1.26485 -4.432,2.80856 -6.50848,3.43047 -13.10773,3.92578 -17.52971,5.06387 -23.7754,6.11912 -3.85,0.65048 -7.59566,1.65666 -8.32368,2.23595 -1.02971,0.81933 -1.2518,4.87521 -1,18.26225 0.29682,15.78107 0.16561,17.38386 -1.58131,19.3164 -1.04774,1.15908 -2.62274,2.03539 -3.5,1.94737 -0.87725,-0.088 -3.17001,-0.32199 -5.09501,-0.51994 z m -42.34501,-2.14876 C 408.74474,489.16545 408,487.61597 408,486.72796 408,484.66343 411.77629,482 414.70345,482 c 1.62916,0 2.45055,-0.7654 2.94788,-2.74694 C 418.5581,475.6402 424.75368,466 426.16882,466 c 0.76303,0 0.90302,1.99454 0.4502,6.41434 -0.41537,4.0543 -0.19597,8.1387 0.59632,11.10097 1.19151,4.45493 1.13754,4.78053 -1.09171,6.58567 -3.28071,2.65655 -14.08637,2.70266 -16.46864,0.0703 z m -38.24658,-35.54934 c -1.08916,-2.8383 0.29763,-4.31505 4.75523,-5.06371 8.16894,-1.37199 9.31085,-1.23749 9.64866,1.13647 0.25596,1.79872 -0.38533,2.38253 -3.55448,3.2359 -8.47294,2.28152 -10.19704,2.39138 -10.84941,0.69134 z m -19.61699,-12.16383 c -0.88473,-0.88473 0.30568,-7.81885 1.47391,-8.58552 3.00464,-1.97185 6.43354,2.21695 5.56504,6.79834 -0.34488,1.81925 -5.6579,3.16822 -7.03895,1.78718 z m 41.39591,-6.73238 c -0.59645,-0.71867 -0.81044,-3.11676 -0.49078,-5.5 0.46866,-3.49413 0.94218,-4.22571 2.73512,-4.22571 4.783,0 6.41995,6.58967 2.34582,9.4433 -2.69432,1.88717 -3.23093,1.92019 -4.59016,0.28241 z m -66.85358,-120.5252 c -11.68994,-6.03645 -18.94868,-13.88039 -26.44651,-28.57863 -4.20962,-8.25226 -4.34147,-9.27815 -1.43697,-11.18125 2.33856,-1.53228 2.7505,-1.5391 4.97389,-0.0823 1.33328,0.8736 2.73551,2.61286 3.11606,3.86501 0.38055,1.25215 1.87718,3.85075 3.32585,5.77466 1.44866,1.92391 4.30015,6.06868 6.33665,9.21059 3.86877,5.96876 14.34781,13.96791 20.12804,15.3647 1.55692,0.37622 3.05198,1.26053 3.32236,1.96511 0.76527,1.99428 -2.50492,7.46731 -4.4288,7.41209 -0.94838,-0.0272 -4.94913,-1.71472 -8.89057,-3.75 z"
       style="fill:#606451" />
    <path
       id="path10412"
       d="m 413.09464,491.112 c -5.76886,-1.57687 -5.13684,-7.19544 0.9125,-8.112 2.77423,-0.42034 3.51633,-1.12675 4.65768,-4.43369 0.74672,-2.16352 2.02761,-4.67396 2.84643,-5.57874 0.81881,-0.90478 1.48875,-2.11702 1.48875,-2.69387 0,-0.57684 0.68473,-1.61709 1.52162,-2.31164 1.3405,-1.11252 1.49259,-0.44267 1.27773,5.62755 -0.13413,3.78971 0.13178,8.75995 0.59093,11.04497 0.71283,3.54746 0.56264,4.29462 -1.02773,5.1129 -2.66617,1.3718 -9.44868,2.11514 -12.26791,1.34452 z m 32.84388,-1.17348 c -2.83156,-2.83156 -2.07596,-5.22441 2.07366,-6.56692 3.02492,-0.97865 3.55846,-1.64224 4.02007,-5 0.69945,-5.08785 0.27937,-24.39272 -0.54888,-25.22367 -0.3552,-0.35636 -5.13994,-0.80356 -10.63275,-0.99377 -10.70456,-0.37068 -11.66313,-0.8869 -9.96086,-5.3642 0.70197,-1.84632 1.89204,-2.6904 4.29081,-3.04336 6.99465,-1.02921 19.32882,-4.85508 23.46298,-7.27786 6.65054,-3.89748 17.49554,-12.27393 21.13237,-16.3222 7.96851,-8.87002 19.22392,-28.90492 19.22422,-34.21957 7e-5,-1.33483 1.07713,-5.91744 2.39346,-10.18358 2.29227,-7.42908 2.35389,-8.37913 1.45926,-22.5 -1.07142,-16.91127 -2.76463,-27.3848 -7.39512,-45.74339 -3.24776,-12.87645 -6.75472,-23.20662 -9.84511,-29 -0.88017,-1.65 -1.60308,-3.98321 -1.60647,-5.1849 -0.003,-1.2017 -0.48983,-3.4517 -1.08097,-5 -2.69756,-7.0653 -5.92592,-27.00305 -5.94296,-36.70262 -0.01,-5.56186 -0.47812,-14.16248 -1.04078,-19.11248 -0.56265,-4.95 -1.4045,-15.75 -1.87077,-24 -0.46627,-8.25 -1.31468,-16.17937 -1.88536,-17.62083 -0.57068,-1.44145 -1.25856,-5.04145 -1.52863,-8 C 469.91076,154.70766 467.77743,150.34622 459.75,140.58122 456.3006,136.38518 456.31762,136 459.95249,136 c 3.24258,0 16.17572,6.43169 21.63504,10.75917 6.16335,4.88556 18.41247,28.07315 18.41247,34.85484 0,1.72399 0.71333,5.10361 1.58517,7.51026 0.87184,2.40665 1.97894,8.20073 2.4602,12.87573 1.57034,15.25412 4.90183,39.37777 6.21454,45 0.70629,3.025 2.42195,7.3 3.81259,9.5 1.39063,2.2 3.14663,6.025 3.90221,8.5 1.65467,5.42007 4.11695,10 5.37623,10 0.50584,0 1.96233,-1.125 3.23664,-2.5 2.49393,-2.691 3.20664,-2.91715 5.20258,-1.65085 1.29401,0.82097 1.96886,18.11372 0.78184,20.03435 -0.80021,1.29477 2.21329,10.69342 3.86931,12.06779 1.87439,1.55561 7.02655,18.49562 8.53077,28.04871 0.64952,4.125 1.64305,9.36984 2.20785,11.65521 0.5648,2.28536 1.03979,11.51036 1.05553,20.5 0.0242,13.83938 -0.28945,17.34114 -2.04635,22.84479 -3.26699,10.23412 -5.16356,15.12544 -6.73432,17.368 -0.80013,1.14236 -1.45479,3.07533 -1.45479,4.29549 0,1.22016 -0.47972,2.51496 -1.06605,2.87733 -0.58633,0.36237 -2.31883,2.38826 -3.84999,4.50198 -3.87629,5.35106 -20.7371,19.84775 -25.66174,22.06362 -2.24279,1.00914 -5.25006,2.75692 -6.68283,3.88393 -3.39355,2.66937 -16.06919,6.79412 -26.53326,8.63412 -4.56163,0.80211 -9.38572,1.87351 -10.7202,2.38088 l -2.42633,0.92249 0.2202,17.87855 C 461.53886,491.83984 461.47914,492 453.37756,492 c -4.09769,0 -5.8682,-0.49064 -7.43904,-2.06148 z m -73.27185,-35.60519 c -1.56096,-1.56095 -0.44203,-3.15336 2.58333,-3.67647 1.7875,-0.30907 4.64837,-0.84997 6.35748,-1.20199 2.35339,-0.48471 3.25932,-0.24437 3.73315,0.9904 0.66196,1.72506 0.47045,1.83965 -5.84063,3.49463 -4.68435,1.22841 -5.92682,1.29994 -6.83333,0.39343 z M 326.4471,314.0818 C 317.75262,309.79512 310.29987,303.45681 307.53771,298 c -0.97441,-1.925 -2.56218,-4.4 -3.52838,-5.5 -0.96619,-1.1 -3.02488,-4.86792 -4.57485,-8.37315 -2.75237,-6.22441 -2.77327,-6.40595 -0.89565,-7.7789 2.80944,-2.05431 4.73676,-1.29144 6.70756,2.65499 0.96051,1.92338 2.88851,5.07206 4.28445,6.99706 1.39594,1.925 4.21006,5.94669 6.25361,8.93708 3.87973,5.67734 11.66235,11.86319 19.04883,15.14057 2.71779,1.20588 4.11607,2.38862 3.75064,3.17251 -0.32045,0.68741 -0.86041,2.03734 -1.19991,2.99984 -0.87087,2.46896 -1.97588,2.2499 -10.93691,-2.1682 z"
       style="fill:#45473a" />
    <path
       id="path10410"
       d="m 451.25599,491.25322 c -4.55463,-0.31035 -5.32291,-0.67166 -5.84415,-2.74844 C 444.63098,485.39359 445.5667,484 448.43657,484 c 4.05406,0 4.4954,-1.76133 4.27327,-17.05407 L 452.5,452.5 l -9.77351,-0.57351 c -9.98868,-0.58613 -12.24282,-1.41737 -11.20162,-4.13072 0.60574,-1.57851 14.44225,-6.24654 17.8542,-6.02347 1.74458,0.11405 15.50122,-6.23263 16.62093,-7.66814 0.275,-0.35256 3.29527,-2.94794 6.7117,-5.76752 3.41644,-2.81958 8.02846,-7.31129 10.24893,-9.98157 2.22047,-2.67029 5.2752,-6.35183 6.78829,-8.1812 1.5131,-1.82938 2.99657,-4.07938 3.29661,-5 1.21681,-3.73359 4.85333,-10.99333 5.79971,-11.57823 0.55592,-0.34357 1.29849,0.28185 1.65015,1.38984 0.88821,2.79851 2.17565,2.51569 2.77301,-0.60918 0.37132,-1.94244 0.0381,-2.7449 -1.28343,-3.09048 -2.16978,-0.56741 -2.42193,-5.96356 -0.52641,-11.26551 3.41279,-9.54586 4.68363,-14.08527 4.26813,-15.24564 -0.65303,-1.8237 1.08276,-4.77467 2.80849,-4.77467 2.05069,0 1.82521,-2.36388 -0.41923,-4.39507 -2.22348,-2.01222 -3.77695,-7.61866 -4.60099,-16.60493 -0.9136,-9.96293 -7.15475,-37.31394 -10.85851,-47.58601 -1.40524,-3.8973 -2.31032,-8.02159 -2.01129,-9.16507 0.39048,-1.49321 -0.1874,-2.5581 -2.05074,-3.77901 C 487.06703,277.46912 486,275.83932 486,274.50711 c 0,-1.24457 -0.62505,-3.78032 -1.38899,-5.63499 -0.76395,-1.85466 -2.13956,-7.42212 -3.05692,-12.37212 -0.91736,-4.95 -1.95471,-10.125 -2.30524,-11.5 -1.0163,-3.98665 -0.88466,-4.37777 1.67701,-4.9825 3.541,-0.83592 3.97984,-3.20251 0.52314,-2.82122 l -2.75349,0.30372 -0.39907,-10 c -0.2195,-5.5 -0.39935,-11.125 -0.39968,-12.5 -3.3e-4,-1.375 -0.66886,-6.45356 -1.48563,-11.2857 -0.81678,-4.83213 -1.26105,-9.14812 -0.98727,-9.5911 0.81682,-1.32165 -1.32417,-24.06841 -2.46625,-26.20241 -0.58004,-1.08382 -1.18593,-3.87187 -1.34642,-6.19568 -0.34524,-4.999 -2.57577,-9.95519 -8.3147,-18.47511 -3.92692,-5.82983 -4.06159,-6.24852 -2.00322,-6.22804 3.23414,0.0322 13.67162,5.41774 19.93506,10.28612 6.61481,5.14149 15.85343,22.65679 18.29861,34.69192 0.72633,3.575 1.78392,8.525 2.35019,11 0.56628,2.475 1.74142,10.8 2.61142,18.5 3.205,28.36579 5.46858,39.88405 8.80246,44.79137 1.41666,2.08525 3.33957,6.13525 4.27314,9 3.34559,10.26623 6.49959,13.30138 8.46109,8.14225 0.77323,-2.03375 1.54636,-2.50071 3.72525,-2.25 L 532.5,271.5 l 0,12.5 c 0,12.46774 0.81634,16.4821 4.08657,20.09566 2.24615,2.48197 6.4198,17.67884 8.76216,31.90434 5.12416,31.11972 3.69113,46.1904 -6.42464,67.56572 -1.05825,2.23615 -1.92409,4.35511 -1.92409,4.7088 0,1.48512 -8.24973,11.49336 -12.13813,14.72548 -2.31587,1.925 -6.29223,5.38993 -8.83635,7.69984 -2.54413,2.30992 -6.84746,5.15221 -9.56295,6.3162 -2.7155,1.164 -5.73229,2.96972 -6.70398,4.01271 -0.9717,1.04299 -3.67739,2.39248 -6.01266,2.99886 -2.33526,0.60638 -6.62531,1.97323 -9.53344,3.03745 -2.90813,1.06422 -6.99912,1.93494 -9.09107,1.93494 -4.42775,0 -13.15419,2.43498 -14.07689,3.92795 -0.34916,0.56495 -0.50005,8.34978 -0.33532,17.29962 0.21374,11.61218 -0.0597,16.96579 -0.95485,18.69346 -1.44453,2.78808 -1.51682,2.80792 -8.49837,2.33219 z m -39.61473,-1.49001 c -2.86945,-2.15417 -1.72881,-5.2047 2.08426,-5.57413 2.85365,-0.27648 3.56231,-1.02832 6.39736,-6.78712 1.75352,-3.56191 3.50187,-6.67004 3.88521,-6.90696 1.11844,-0.69123 2.1265,17.77041 1.03017,18.86674 -1.66337,1.66337 -11.33021,1.95307 -13.397,0.40147 z M 326.80293,313.55373 c -8.78049,-3.83587 -15.96602,-10.46861 -21.86731,-20.18502 -7.58181,-12.48337 -8.59601,-17.81613 -3.26842,-17.18568 1.9708,0.23322 2.92697,1.10966 3.61869,3.31697 0.51708,1.65 2.14383,4.575 3.61501,6.5 1.47117,1.925 4.39357,6.12396 6.49421,9.33101 3.72024,5.67971 9.50804,10.37847 18.68474,15.16899 3.74548,1.95525 3.79304,2.0494 2.12567,4.20815 l -1.70552,2.20815 -7.69707,-3.36257 z"
       style="fill:#403e38" />
    <path
       id="path10408"
       d="m 412.69618,489.83124 c -3.73063,-1.37551 -3.12696,-3.84215 1.30382,-5.32753 2.15731,-0.72322 4.074,-2.29169 4.99626,-4.08853 0.82294,-1.60335 2.54801,-4.71518 3.83349,-6.91518 2.22169,-3.80226 2.31098,-3.8517 1.8062,-1 -0.29207,1.65 -0.0519,5.84981 0.5336,9.33291 0.59926,3.56466 0.68561,6.6827 0.19754,7.13314 -1.49759,1.38213 -9.74207,1.94507 -12.67091,0.86519 z m 33.28671,-0.86322 c -1.6417,-3.06753 -0.56987,-4.78739 3.20977,-5.15039 3.3039,-0.3173 3.30793,-0.3244 3.87444,-6.81763 0.3119,-3.575 0.28503,-7.33329 -0.0597,-8.35175 -0.34474,-1.01846 -0.2021,-4.80538 0.31698,-8.41538 1.15487,-8.0317 0.0882,-9.22517 -8.26549,-9.24818 -3.64936,-0.0101 -5.07476,-0.32178 -4.14955,-0.90748 0.77512,-0.49069 2.02938,-0.65423 2.78724,-0.36341 0.75786,0.29082 2.22374,-0.23668 3.2575,-1.17222 1.46935,-1.32975 2.31987,-1.46535 3.89701,-0.62128 2.79027,1.4933 3.46816,1.35397 2.73303,-0.56174 -0.50495,-1.31586 -0.35203,-1.41084 0.77096,-0.47885 1.0988,0.91192 2.28962,0.58069 5.52289,-1.53619 4.23807,-2.77474 4.87042,-3.76297 3.10574,-4.8536 -1.3272,-0.82026 -0.27083,-2.48992 1.57533,-2.48992 0.87514,0 1.44098,0.99401 1.44098,2.53138 0,1.39227 0.69662,2.79871 1.54804,3.12543 2.08261,0.79917 4.56891,-2.59014 3.93694,-5.3668 -0.34421,-1.51231 0.11048,-2.53832 1.44027,-3.25 C 476.16227,433.3076 479,433.75605 479,436 c 0,1.1 0.45,2 1,2 0.55,0 1.0254,0.7875 1.05644,1.75 0.031,0.9625 0.62525,0.175 1.32046,-1.75 0.69522,-1.925 0.96165,-3.86067 0.59208,-4.30149 -0.36958,-0.44081 -0.46132,-1.90331 -0.20389,-3.25 0.46828,-2.44962 1.66302,-3.18287 2.63186,-1.61524 0.66388,1.07416 6.60305,0.22258 6.60305,-0.94677 0,-0.48757 0.88417,-0.8865 1.96482,-0.8865 1.08065,0 2.45805,-0.92163 3.0609,-2.04806 0.75953,-1.41919 1.69244,-1.85878 3.03825,-1.43164 1.07236,0.34036 2.53703,0.0215 3.27043,-0.71184 1.45483,-1.45483 3.11426,-6.5686 2.78159,-8.57184 -0.4058,-2.44355 3.07134,-2.63973 4.85584,-0.27397 1.50407,1.99399 2.00184,2.12181 4.03194,1.03533 2.05186,-1.09812 2.1267,-1.34546 0.65613,-2.16843 -2.92144,-1.63493 -1.86442,-3.6192 2.303,-4.32328 l 3.96291,-0.66953 -1.96291,-2.10693 c -2.17101,-2.33031 -2.45472,-3.83799 -0.99659,-5.29612 1.22134,-1.22134 1.66649,-6.60077 0.67851,-8.19936 -0.83984,-1.3589 1.86024,-4.55518 4.71938,-5.58666 1.36417,-0.49215 1.73272,-1.36032 1.37403,-3.2367 -0.33267,-1.74027 0.15388,-3.16418 1.51427,-4.43158 1.12223,-1.04552 1.74706,-2.53816 1.41965,-3.39138 -0.32164,-0.83818 -0.11525,-1.81416 0.45864,-2.16884 0.5739,-0.35469 0.78912,-1.6066 0.47828,-2.78203 -0.38537,-1.45723 0.10331,-2.64528 1.53605,-3.73435 2.02776,-1.54137 2.04045,-1.68994 0.36304,-4.25 -1.60883,-2.45537 -1.61799,-2.83622 -0.12317,-5.11761 2.0759,-3.16822 2.04797,-3.33431 -0.62477,-3.71563 -2.98338,-0.42564 -3.61454,-3.78338 -0.84719,-4.50706 2.49168,-0.65159 2.44637,-0.28478 0.51373,-4.15885 -1.16788,-2.34108 -2.26293,-3.16221 -4.25,-3.18691 l -2.67676,-0.0333 2.31408,-1.92891 c 1.63724,-1.36473 3.17281,-1.75717 5.25,-1.34173 2.13165,0.42633 2.93592,0.2029 2.93592,-0.81558 0,-2.43789 -3.81935,-4.93068 -6.51716,-4.25358 -2.37692,0.59657 -2.45106,0.46293 -2.07343,-3.73748 0.2154,-2.3959 0.43639,-4.54712 0.49111,-4.78049 0.0547,-0.23338 1.14536,0.55824 2.42367,1.75914 2.3696,2.22613 3.67581,1.99825 3.67581,-0.64125 0,-0.8102 0.78679,-2.04841 1.74843,-2.75158 0.96163,-0.70316 1.38086,-1.64605 0.9316,-2.0953 -0.44925,-0.44925 -1.62846,0.2592 -2.62046,1.57433 -2.37661,3.15077 -5.05957,2.1788 -5.05957,-1.83291 0,-1.72369 -0.7617,-3.52421 -1.81121,-4.28139 -2.77105,-1.99918 -3.48164,-3.74891 -2.16619,-5.33393 0.97309,-1.1725 0.71073,-1.62366 -1.41391,-2.43145 -3.23371,-1.22945 -3.24653,-2.01259 -0.10869,-6.63646 1.375,-2.02617 2.5,-4.09873 2.5,-4.60568 0,-0.52367 -1.91462,-0.63461 -4.43346,-0.25689 -4.18971,0.62829 -4.40237,0.54594 -3.86792,-1.4978 0.42827,-1.63771 0.0381,-2.30057 -1.60731,-2.73086 l -2.17285,-0.56822 2.09817,-1.46961 c 1.84547,-1.29262 3.67569,-1.93837 6.23337,-2.19929 1.43188,-0.14607 0.73957,-3.86782 -1.15461,-6.20704 -1.82068,-2.24844 -1.98941,-2.27536 -3.82874,-0.61078 -1.05827,0.95772 -2.2262,1.74131 -2.59539,1.74131 -1.0599,0 -0.78128,-3.81397 0.32874,-4.5 0.55,-0.33992 1,-1.29865 1,-2.13052 0,-1.19783 -1.0856,-1.4456 -5.21818,-1.19099 -4.25401,0.26211 -5.28155,0.01 -5.56116,-1.36536 -0.19669,-0.96732 0.75163,-2.40409 2.22318,-3.36829 2.10499,-1.37924 2.84246,-1.45212 4.10355,-0.40551 1.03401,0.85815 1.86772,0.94556 2.54633,0.26695 0.6786,-0.6786 -0.072,-1.95802 -2.29238,-3.90762 -1.81574,-1.59426 -3.30134,-3.76628 -3.30134,-4.82671 0,-2.29754 -4.34085,-3.75378 -8.63153,-2.89564 -3.2311,0.64622 -4.02074,-1.47512 -1.36847,-3.67631 1.75093,-1.45315 2.01525,-8.08475 0.38713,-9.71287 -0.6486,-0.6486 -0.76331,-1.67069 -0.27496,-2.45 0.46085,-0.73542 0.70836,-2.12463 0.55001,-3.08713 -0.15834,-0.9625 0.19039,-1.75 0.77496,-1.75 0.58457,0 1.06286,-0.675 1.06286,-1.5 0,-2.09195 -0.87691,-1.87358 -2.99872,0.74675 l -1.81931,2.24674 -1.23283,-2.70578 c -1.03267,-2.26646 -0.96252,-3.11834 0.43206,-5.24675 C 495.01372,230.04943 494.99666,230 492.504,230 c -2.1813,0 -2.45693,-0.33934 -1.94202,-2.39091 0.33004,-1.31499 0.11361,-2.69155 -0.48095,-3.05901 -1.8279,-1.1297 -1.19683,-2.39312 0.91897,-1.83983 1.62369,0.42461 2,0.0307 2,-2.09362 0,-2.96152 -0.26692,-3.09139 -2.93237,-1.42679 -1.4974,0.93514 -2.2491,0.90445 -3.51166,-0.14339 -1.47115,-1.22094 -1.461,-1.49391 0.1205,-3.24144 1.65055,-1.82384 1.59999,-2.00944 -1.14312,-4.19672 -3.72348,-2.969 -2.96294,-6.08119 1.25945,-5.1538 2.14588,0.47132 3.31146,0.0634 5.02207,-1.75742 l 2.22761,-2.37119 -4.54945,-0.17209 c -2.5022,-0.0946 -5.38991,-0.69695 -6.41714,-1.33847 -1.50497,-0.93987 -2.20742,-0.82664 -3.6171,0.58304 -1.36029,1.36028 -1.92486,1.46556 -2.53812,0.47327 C 475.95241,200.30496 476.65874,199 478.47499,199 c 0.74632,0 2.78258,-1.8 4.52501,-4 2.39811,-3.02786 3.87674,-4 6.08403,-4 1.90273,0 2.91597,-0.51229 2.91597,-1.47432 0,-1.74865 -4.91902,-4.45762 -6.84936,-3.77202 -0.96821,0.34387 -0.8651,-0.25981 0.36501,-2.13721 1.50684,-2.29972 1.52601,-2.61645 0.15838,-2.61645 -0.8558,0 -1.83411,0.45 -2.17403,1 -1.31002,2.11965 -2.64129,0.91978 -2.03619,-1.83522 0.48567,-2.21126 -0.14322,-3.9734 -2.85762,-8.00698 -3.27624,-4.86848 -3.39643,-5.33262 -2.04943,-7.91478 0.78701,-1.50866 1.43369,-3.08052 1.43708,-3.49302 0.01,-1.21305 -3.47818,-0.85877 -4.92295,0.5 -1.09392,1.02881 -1.20903,0.74193 -0.65053,-1.6212 0.53028,-2.24372 0.23069,-3.18492 -1.37089,-4.3067 C 469.92226,154.53257 469,152.80756 469,151.48875 c 0,-1.31881 -1.0125,-3.52193 -2.25,-4.89582 C 461.01751,140.22865 458.83061,137 460.25228,137 c 3.7659,0 14.28307,5.34123 21.14005,10.73614 3.37233,2.65327 11.01322,14.7173 13.78438,21.76386 1.08148,2.75 2.38414,5.4275 2.89481,5.95 0.51066,0.5225 0.92848,2.60342 0.92848,4.62427 0,2.02085 0.7164,5.64335 1.592,8.05 0.8756,2.40665 1.96868,7.97573 2.42907,12.37573 3.71321,35.48773 6.35563,50.41154 9.77654,55.21577 1.12499,1.5799 3.20496,6.19137 4.62216,10.24772 3.66074,10.47782 6.69801,13.48713 8.58997,8.51088 1.19152,-3.13393 3.51178,-4.11637 5.60971,-2.37524 1.36532,1.13312 1.49403,2.92253 0.89724,12.47386 -0.73996,11.84263 -0.92277,10.99304 4.71827,21.92701 4.32972,8.39223 8.13247,26.33646 9.85431,46.5 1.80223,21.10492 -0.47119,34.88957 -8.11396,49.19812 -1.08642,2.03396 -1.97531,4.44956 -1.97531,5.36798 0,1.52057 -2.47788,4.89977 -8.28547,11.29931 -4.92551,5.42756 -19.47713,16.9131 -22.81748,18.00976 -1.98162,0.65058 -4.64109,2.28792 -5.90993,3.63854 -1.26884,1.35062 -3.92251,2.74916 -5.89705,3.10788 -1.97454,0.35871 -5.84007,1.54157 -8.59007,2.62858 -2.75,1.08701 -8.58775,2.38934 -12.97278,2.89407 -12.84527,1.47852 -12.50974,0.92907 -12.02598,19.69351 0.22478,8.71875 0.0608,17.15952 -0.36441,18.75727 -0.73438,2.75952 -1.07964,2.91981 -6.89507,3.20114 -5.38285,0.26041 -6.25924,0.0397 -7.25887,-1.82814 z m 80.32778,-88.82558 C 526.15081,396.64478 526.42321,396 528.06067,396 529.33333,396 530,395.31248 530,394 c 0,-2.98807 -0.30557,-3.53108 -1.79464,-3.18913 -0.74455,0.17098 -2.02965,-0.25008 -2.85576,-0.93569 -2.10471,-1.74676 -3.49264,0.66168 -2.74326,4.7603 0.3153,1.72451 0.10956,3.42207 -0.4572,3.77235 -1.28979,0.79713 1.90498,6.73479 3.35086,6.22773 0.55,-0.19287 0.9148,-2.21478 0.81067,-4.49312 z M 515.01531,328.75 c 0.008,-0.6875 0.41923,-1.88815 0.91291,-2.6681 0.58509,-0.92437 0.33798,-2.27219 -0.70976,-3.87123 -1.49515,-2.2819 -1.47982,-2.54639 0.21962,-3.78905 1.5343,-1.12191 2.28633,-1.09837 4.69445,0.14691 3.23251,1.6716 3.53266,2.63452 1.37848,4.42233 -0.81894,0.67967 -1.25253,1.61835 -0.96353,2.08597 C 521.15018,326.05201 517.50346,330 516,330 c -0.55,0 -0.99311,-0.5625 -0.98469,-1.25 z M 329,314.04306 c -0.825,-0.46163 -3.3,-1.59327 -5.5,-2.51476 -5.33144,-2.23311 -12.79004,-9.08234 -15.27638,-14.0283 -1.10594,-2.2 -2.95869,-4.85724 -4.11721,-5.90499 C 302.94788,290.54727 302,289.24656 302,288.70454 c 0,-0.54201 -0.96188,-2.91146 -2.13752,-5.26545 -4.22615,-8.46205 1.54213,-10.57242 6.0764,-2.22309 4.32164,7.95779 12.01825,18.60752 15.18133,21.00628 6.061,4.59643 9.74096,8.33238 10.36993,10.52772 0.67502,2.35604 0.0187,2.69686 -2.49014,1.29306 z"
       style="fill:#36382f" />
  </g>
</svg>
