<?xml version="1.0" encoding="UTF-8" standalone="no"?>
<svg
   xmlns:dc="http://purl.org/dc/elements/1.1/"
   xmlns:cc="http://creativecommons.org/ns#"
   xmlns:rdf="http://www.w3.org/1999/02/22-rdf-syntax-ns#"
   xmlns:svg="http://www.w3.org/2000/svg"
   xmlns="http://www.w3.org/2000/svg"
   viewBox="0 0 800 600"
   height="600"
   width="800"
   version="1.1"
   id="svg5312">
  <metadata
     id="metadata5318">
    <rdf:RDF>
      <cc:Work
         rdf:about="">
        <dc:format>image/svg+xml</dc:format>
        <dc:type
           rdf:resource="http://purl.org/dc/dcmitype/StillImage" />
        <dc:title></dc:title>
      </cc:Work>
    </rdf:RDF>
  </metadata>
  <defs
     id="defs5316" />
  <g
     id="g9612">
    <path
       id="path9642"
       d="m 322,496.04326 c -1.375,-0.46415 -5.425,-0.89044 -9,-0.94732 -7.46305,-0.11874 -12.57626,-2.55945 -13.55819,-6.47178 -0.72917,-2.90522 0.82089,-6.1592 3.65702,-7.67705 1.41496,-0.75727 18.26767,-1.10498 54.22708,-1.11885 28.69575,-0.0111 52.95557,-0.23037 53.9107,-0.48733 1.54338,-0.41522 1.67962,-1.54508 1.22445,-10.15407 -0.78204,-14.7913 -0.85535,-15.27156 -2.46106,-16.12195 -0.825,-0.43692 -3.73984,-1.08569 -6.47743,-1.4417 -8.05005,-1.04688 -21.65681,-5.77442 -26.71297,-9.28117 -2.57972,-1.78919 -7.46254,-4.65245 -10.8507,-6.36279 -3.38816,-1.71034 -8.1092,-4.99285 -10.49119,-7.29448 -2.38199,-2.30162 -6.09923,-5.68197 -8.26054,-7.51187 C 343.50529,418.03865 340.44433,412.79514 333.67971,398 329.35276,388.53637 328,384.83246 328,382.44872 c 0,-1.62142 -1.35221,-3.21962 -4.55013,-5.37787 -2.50257,-1.68897 -5.09007,-3.07316 -5.75,-3.07597 -2.24764,-0.01 -8.29638,-4.48339 -12.83743,-9.49488 -10.92256,-12.05411 -13.79443,-19.00613 -14.25193,-34.5 -0.4689,-15.88016 0.31624,-19.64266 5.85908,-28.07776 6.40431,-9.74606 13.31025,-17.72951 17.00056,-19.65309 8.02778,-4.1845 22.0172,-8.18425 30.90744,-8.83684 l 9.1873,-0.67439 7.20442,-14.62896 c 3.96244,-8.04593 7.85593,-16.51468 8.65221,-18.81946 0.79628,-2.30477 2.65188,-6.34726 4.12356,-8.98329 2.6558,-4.75698 5.62537,-14.68885 6.97441,-23.32621 0.38656,-2.475 1.55282,-6.38781 2.59168,-8.69514 1.03885,-2.30732 1.88883,-5.59217 1.88883,-7.29966 0,-1.70748 0.60563,-4.31967 1.34585,-5.80486 0.74021,-1.48519 2.37268,-6.52534 3.6277,-11.20034 1.25502,-4.675 2.51809,-9.175 2.80683,-10 5.01546,-14.33052 9.17212,-20.5545 17.40552,-26.06223 3.47275,-2.3231 7.21944,-5.03723 8.32597,-6.0314 1.36453,-1.22597 4.9039,-2.14882 11,-2.86812 22.46879,-2.65116 46.64478,4.71497 54.73704,16.67771 1.40785,2.08122 4.01055,5.33756 5.78378,7.2363 1.83389,1.9637 4.19289,6.30078 5.47097,10.05851 1.23582,3.63344 2.93792,7.94246 3.78245,9.57561 4.09383,7.9166 8.72934,33.39958 10.35294,56.91362 0.26583,3.85 0.90579,7.4275 1.42214,7.95 0.51635,0.5225 0.93881,2.59285 0.93881,4.60078 0,4.43362 1.68168,9.62173 4.16005,12.83408 1.01197,1.31167 1.84296,3.11167 1.84665,4 0.004,0.88833 2.25067,6.11514 4.9933,11.61514 2.74263,5.5 4.98962,10.42075 4.9933,10.93501 0.004,0.51425 1.52173,3.88925 3.37344,7.5 1.85171,3.61074 3.94365,8.36499 4.64875,10.56499 0.7051,2.2 2.34006,5.56696 3.63325,7.48213 1.29319,1.91518 2.37101,4.39018 2.39515,5.5 0.0241,1.10983 0.72061,3.81787 1.5477,6.01787 1.59232,4.23545 2.27976,7.66378 4.91272,24.5 1.96008,12.53354 1.5933,30.99961 -0.76469,38.5 -0.86455,2.75 -2.3162,8.26984 -3.22588,12.26631 -2.18655,9.60613 -8.52796,23.11136 -12.29602,26.18672 -1.04248,0.85083 -2.90612,3.02007 -4.14144,4.82053 -1.23531,1.80046 -4.57033,4.76347 -7.41115,6.58447 -2.84082,1.82099 -5.82062,4.10605 -6.62178,5.0779 -2.00769,2.43543 -10.90289,8.0219 -16.71995,10.50066 -7.56511,3.22364 -21.26578,7.06849 -27.5734,7.738 -6.54946,0.69518 -5.81571,-1.25375 -5.91133,15.70107 -0.0489,8.66435 0.94365,11.49494 3.48075,9.92692 0.50321,-0.31099 8.68495,-0.50517 18.18165,-0.4315 21.97127,0.17045 25.49893,1.37234 25.49893,8.68765 0,1.39731 -0.93738,2.98557 -2.25,3.81233 -4.31936,2.72054 -7.86483,2.79781 -118.25,2.57715 -38.90741,-0.0778 -52.91072,0.2431 -62,1.42071 -2.2,0.28503 -5.125,0.13848 -6.5,-0.32566 z M 445.24567,480.16005 447.99135,480 l -0.3087,-11.47969 c -0.16978,-6.31383 -0.60486,-11.77586 -0.96684,-12.13784 -0.36199,-0.36198 -5.01115,-0.88584 -10.33149,-1.16412 l -9.67333,-0.50598 0.8516,2.89381 c 0.46838,1.5916 0.88568,7.08187 0.92734,12.20059 0.0552,6.77816 0.45141,9.53894 1.45842,10.16131 1.21168,0.74886 4.94086,0.79566 15.29732,0.19197 z"
       style="fill:#eeeed8" />
    <path
       id="path9640"
       d="m 320,493.99111 c -2.475,-0.46358 -6.57681,-0.87622 -9.11514,-0.91699 -8.03227,-0.129 -13.36221,-7.14273 -7.72189,-10.16134 1.53739,-0.82278 17.08308,-1.23971 53.75,-1.44156 28.37287,-0.15619 52.82453,-0.59989 54.33703,-0.98601 2.63692,-0.67316 2.75487,-0.97513 2.86842,-7.34362 0.0651,-3.65287 0.0196,-7.09159 -0.10124,-7.64159 -0.12082,-0.55 -0.46129,-3.58401 -0.75661,-6.74224 -0.29532,-3.15823 -1.06689,-6.18206 -1.71462,-6.71962 -0.64772,-0.53756 -3.84803,-1.2642 -7.11181,-1.61475 -8.26336,-0.88755 -23.19313,-6.08652 -27.70435,-9.64745 -2.07361,-1.6368 -6.00343,-4.05335 -8.73293,-5.37011 -2.7295,-1.31675 -7.55791,-4.67481 -10.72979,-7.46235 -3.17189,-2.78754 -7.15717,-6.28443 -8.85617,-7.77086 -1.69901,-1.48643 -4.21285,-4.49586 -5.58632,-6.68761 -3.80198,-6.06711 -11.6293,-24.08652 -12.97263,-29.86449 -1.01056,-4.34667 -1.82115,-5.53824 -5.27304,-7.75138 -2.2434,-1.43833 -5.79238,-3.16576 -7.88663,-3.83874 -4.44288,-1.42771 -10.885,-7.73076 -17.69959,-17.31748 -6.03692,-8.49271 -7.51444,-15.69348 -6.72885,-32.79345 l 0.53202,-11.58054 4.74274,-7.39916 c 6.53592,-10.1967 13.23419,-17.75369 17.82757,-20.11308 9.27196,-4.76256 23.71323,-8.15318 33.84331,-7.94596 l 4.70948,0.0963 7.40283,-14.73854 c 4.07156,-8.10619 7.9683,-16.53853 8.65942,-18.73853 0.69113,-2.2 2.57224,-6.33824 4.18024,-9.19609 3.03003,-5.38517 4.6708,-10.54097 7.40437,-23.26688 0.88169,-4.10463 2.2272,-8.66989 2.99003,-10.14502 0.76282,-1.47514 1.68,-4.6418 2.03817,-7.03704 0.35818,-2.39523 1.54198,-7.05497 2.63068,-10.35497 1.0887,-3.3 3.22679,-10.32307 4.75131,-15.60681 4.38314,-15.19127 9.04852,-21.44813 23.2473,-31.17751 7.19,-4.92679 16.819,-6.26926 29.75355,-4.14823 4.68773,0.7687 9.80459,1.40549 11.37081,1.41509 1.56622,0.01 6.64303,1.87169 11.2818,4.13796 6.35222,3.10339 9.33818,5.26326 12.09662,8.75 2.01438,2.54623 5.10707,6.2045 6.87265,8.1295 3.04942,3.32477 10.73571,21.10092 13.39641,30.98198 1.77661,6.59783 4.75215,26.53845 6.0461,40.51802 0.66181,7.15 1.59826,13.4275 2.08102,13.95 0.48275,0.5225 0.87773,2.8393 0.87773,5.14845 0,2.73093 1.04862,6.19191 3,9.90155 1.65,3.1367 3,6.31771 3,7.06891 0,0.7512 2.18776,5.76801 4.86168,11.14846 2.67393,5.38044 6.56835,13.60763 8.65427,18.28263 2.08592,4.675 5.02105,11.2 6.52249,14.5 3.24941,7.1418 7.62531,20.60019 8.29116,25.5 0.2616,1.925 1.23264,8 2.15789,13.5 1.7584,10.45261 1.54888,31.66257 -0.3484,35.27 -0.50043,0.9515 -1.44717,4.43 -2.10387,7.73 -0.65669,3.3 -1.68933,8.025 -2.29475,10.5 -1.43887,5.88217 -8.19212,18.78956 -11.57661,22.12619 -1.46512,1.4444 -3.48369,3.82191 -4.48571,5.28335 -1.00201,1.46145 -3.70201,3.86828 -6,5.34852 -2.29798,1.48023 -6.245,4.50272 -8.77114,6.71664 -5.15812,4.52057 -17.14558,11.08374 -22.72594,12.44251 -2.02459,0.49297 -7.24055,1.83827 -11.59103,2.98955 -4.35048,1.15128 -9.41298,2.09324 -11.25,2.09324 -3.84427,0 -3.66161,-0.82821 -3.50328,15.88423 0.0541,5.71133 0.3756,10.66133 0.71444,11 0.33883,0.33867 9.24093,0.61577 19.78243,0.61577 21.93078,0 24.94268,0.723 25.46905,6.11381 0.50905,5.21342 -1.42606,5.48974 -39.91167,5.6991 -18.91506,0.1029 -36.64101,0.11573 -39.39101,0.0285 -2.75,-0.0872 -8.375,-0.1323 -12.5,-0.1002 -4.125,0.0321 -8.625,-0.0529 -10,-0.18886 -9.32918,-0.92255 -68.43257,0.0476 -78.5,1.28855 -2.2,0.27118 -6.025,0.11376 -8.5,-0.34981 z m 128.81645,-25.05774 c -0.0683,-6.49733 -0.46353,-12.36234 -0.87824,-13.03335 -0.48499,-0.78472 -4.5867,-1.39048 -11.49595,-1.69777 l -10.74193,-0.47774 0.89212,4.38775 c 0.49066,2.41325 0.78776,7.91356 0.66023,12.2229 -0.12754,4.30934 0.21674,8.67344 0.76507,9.698 1.18693,2.21781 8.79995,2.96499 16.20259,1.59019 l 4.72034,-0.87664 -0.12423,-11.81334 z M 321.97456,341.02544 c 2.60949,-2.60949 3.48518,-6.43123 2.36698,-10.33016 -1.06082,-3.69885 -4.3411,-5.65975 -9.50265,-5.68054 -4.89198,-0.0197 -8.83889,4.42952 -8.83889,9.96378 0,3.22186 0.51253,4.15331 3.25,5.90643 4.20003,2.68977 10.11003,2.75502 12.72456,0.14049 z m -10.56394,-0.79075 c -0.60165,-0.40576 -1.04936,-3.42099 -1,-6.73469 0.0856,-5.74463 0.20397,-6.01323 2.78169,-6.31086 3.98924,-0.4606 7.63819,2.39042 8.4246,6.58235 0.55829,2.97596 0.29221,3.88368 -1.58372,5.40272 -2.29304,1.85679 -6.64768,2.39236 -8.62257,1.06048 z m 45.95452,-19.30727 C 359.2543,319.44141 360,317.92706 360,315.57664 c 0,-4.55059 -1.86044,-9.43158 -4.03944,-10.59775 -2.59538,-1.389 -7.52164,-1.21268 -8.78917,0.31459 -0.8492,1.02323 -0.38685,1.21333 2.21279,0.90983 2.70751,-0.31608 3.7556,0.1741 5.95105,2.78324 4.07,4.83693 3.42683,8.27681 -1.87469,10.02647 -4.44513,1.46703 -7.45541,-0.0627 -7.47419,-3.7982 -0.008,-1.49315 -0.28748,-3.7368 -0.62215,-4.9859 -0.83745,-3.12565 -3.3642,-1.01384 -3.3642,2.81174 0,4.50688 1.05523,6.08025 5.40184,8.05425 5.26015,2.38888 6.74514,2.36391 9.9633,-0.16749 z"
       style="fill:#d6d6ab" />
    <path
       id="path9638"
       d="m 411.5,493.29267 c -1.1,-0.2932 -2.78984,-1.08551 -3.75521,-1.76068 -1.28694,-0.90009 -3.28781,-0.98155 -7.5,-0.30534 -3.15963,0.50723 -7.90543,0.64517 -10.54621,0.30653 -5.68601,-0.72914 -22.07308,-0.67987 -44.19858,0.13289 -21.59712,0.79336 -21.77778,0.79256 -31.72692,-0.13977 -6.56046,-0.61479 -9.15049,-1.28585 -10.43315,-2.70318 -1.56732,-1.73187 -1.57537,-2.01625 -0.0989,-3.49276 1.4238,-1.42381 7.41217,-1.65152 52.43316,-1.99386 43.23899,-0.32878 51.47096,-0.62312 55.14806,-1.9718 l 4.3223,-1.58533 -0.57183,-13.1035 c -0.41349,-9.47528 -0.97164,-13.50332 -2.01578,-14.54747 -0.79419,-0.79418 -4.2819,-1.82796 -7.75048,-2.29729 -9.71232,-1.31416 -21.71796,-5.64211 -27.3065,-9.8438 -2.75,-2.06756 -6.97642,-4.75228 -9.39204,-5.96604 -2.41562,-1.21376 -6.46562,-4.10924 -9,-6.43439 -2.53438,-2.32515 -6.06941,-5.23829 -7.85563,-6.47365 -1.78621,-1.23535 -4.60222,-4.21488 -6.25779,-6.62116 -3.99287,-5.80345 -13.08721,-26.76406 -13.74717,-31.68449 -0.43328,-3.23031 -1.28715,-4.42688 -4.96439,-6.95689 -2.44261,-1.68056 -5.96655,-3.47676 -7.83099,-3.99156 -1.86443,-0.51479 -4.74041,-2.07238 -6.39106,-3.46131 -4.28672,-3.60705 -15.1226,-17.30571 -16.72974,-21.14967 -2.28677,-5.46951 -3.05033,-14.77689 -2.15613,-26.28195 0.79524,-10.23169 1.09975,-11.35791 4.52039,-16.71846 5.63678,-8.83351 13.35095,-18.07757 16.76835,-20.09388 3.89447,-2.29779 21.21312,-8.00065 24.5362,-8.07953 1.375,-0.0326 5.59627,-0.17521 9.3806,-0.31683 l 6.8806,-0.2575 2.76054,-5.5 c 1.51829,-3.025 4.78861,-9.55 7.26737,-14.5 2.47876,-4.95 5.23524,-11.17528 6.1255,-13.83396 0.89027,-2.65867 2.93668,-7.20282 4.54759,-10.09809 1.70059,-3.05649 4.02275,-10.04584 5.53715,-16.66605 1.43453,-6.27104 3.48403,-13.32644 4.55444,-15.67865 1.07042,-2.35221 1.94621,-5.82445 1.94621,-7.71607 0,-1.89163 0.63786,-4.91709 1.41746,-6.72325 0.77961,-1.80616 2.16882,-5.98393 3.08714,-9.28393 6.47376,-23.26351 8.14164,-26.12157 21.37732,-36.63199 9.3463,-7.42188 12.50956,-8.29211 27.11808,-7.46035 17.70651,1.00814 19.90207,1.44972 28.78577,5.78953 6.76487,3.30472 9.09268,5.08068 12.6817,9.67526 2.41776,3.09515 5.48973,6.86297 6.8266,8.37293 1.33688,1.50995 3.21057,4.88495 4.16377,7.5 0.9532,2.61504 2.99163,7.90462 4.52986,11.75462 3.22166,8.06344 5.34464,17.20682 6.96563,30 0.62721,4.95 1.56929,12.01168 2.09352,15.69263 0.52423,3.68094 0.95993,8.63094 0.96821,11 0.008,2.36905 0.66353,6.10737 1.4561,8.30737 0.79258,2.2 1.46081,5.53546 1.48495,7.41214 0.0241,1.87668 1.11145,5.25168 2.41624,7.5 1.30479,2.24832 2.69543,5.21286 3.0903,6.58786 0.72798,2.53492 8.35249,18.94754 13.47199,29 1.54057,3.025 3.36664,7.3 4.05795,9.5 0.6913,2.2 2.27065,6.025 3.50967,8.5 2.9518,5.89637 5.66549,14.27373 6.6406,20.5 0.43068,2.75 1.50338,9.275 2.38378,14.5 1.92579,11.42914 1.92045,27.63512 -0.0114,34.5 -0.77387,2.75 -2.32444,9.22208 -3.44571,14.38241 -2.18529,10.05715 -8.08064,22.51031 -12.89725,27.24378 -1.46978,1.4444 -3.4918,3.82144 -4.49338,5.28231 -1.00158,1.46087 -3.70158,3.83625 -6,5.27862 -2.29842,1.44238 -6.03772,4.24034 -8.30957,6.21769 -9.02234,7.8528 -21.62754,12.99008 -41.11937,16.7583 -8.1951,1.5843 -8.25061,1.61569 -8.3411,4.7159 -0.27008,9.25218 0.3752,23.28332 1.13617,24.7052 0.77084,1.44033 3.02227,1.58881 19.10647,1.2601 18.78835,-0.38397 24.12557,0.3295 25.29678,3.3816 1.47341,3.83965 -1.40649,4.49388 -21.60264,4.9075 -10.64012,0.21792 -21.37068,0.67763 -23.84568,1.02159 -6.57061,0.91314 -16.34821,0.72309 -25.78852,-0.50125 -4.67732,-0.60661 -9.25204,-0.71057 -10.5,-0.23861 -3.09681,1.17117 -11.81521,2.01625 -14.21148,1.37753 z m 33,-10.42901 c 2.2,-0.69646 4.27957,-1.67103 4.62128,-2.16571 0.3417,-0.49469 0.49771,-6.31315 0.34668,-12.92992 -0.19983,-8.75453 -0.64131,-12.26289 -1.62128,-12.88395 -1.41605,-0.89742 -1.64126,-0.91631 -14.34668,-1.20335 l -8,-0.18073 0.31757,3 c 0.17467,1.65 0.43215,7.5 0.57218,13 0.32175,12.63754 1.14016,14.27694 7.36624,14.75571 5.19584,0.39955 5.00763,0.42393 10.74401,-1.39205 z m -124.18426,-140.027 c 3.51381,-1.87147 4.61859,-4.0292 4.65246,-9.08666 0.0379,-5.66451 -2.08465,-8.30602 -7.48895,-9.31987 -6.34745,-1.19079 -10.95044,2.53632 -12.13312,9.82437 -0.45179,2.784 -0.0984,3.90661 1.7957,5.70495 4.19428,3.98216 9.09122,5.05166 13.17391,2.87721 z m -6.93348,-2.88691 c -1.79579,-0.66774 -2.12526,-1.62447 -2.16721,-6.29338 -0.0567,-6.31345 1.2533,-7.49978 5.72711,-5.18628 7.32478,3.78779 4.06077,14.31329 -3.5599,11.47966 z M 359.02264,320.25 c 3.91064,-4.96092 0.82446,-14.48539 -5.41339,-16.70662 -3.74827,-1.33472 -9.45039,1.83217 -11.30924,6.28102 -2.8659,6.85906 2.05639,13.09599 10.37741,13.14899 3.38243,0.0215 4.58997,-0.49673 6.34522,-2.72339 z m -11.53463,-2.5 c -0.24708,-0.6875 -0.57045,-3.275 -0.71862,-5.75 -0.25626,-4.28067 -0.13028,-4.51591 2.58476,-4.82647 5.70989,-0.65313 10.15005,7.20503 5.89585,10.43442 -2.22709,1.6906 -7.17295,1.78111 -7.76199,0.14205 z"
       style="fill:#fad95b" />
    <path
       id="path9636"
       d="m 411.5,493.29267 c -1.1,-0.2932 -2.78984,-1.08551 -3.75521,-1.76068 -1.28694,-0.90009 -3.28781,-0.98155 -7.5,-0.30534 -3.15963,0.50723 -7.90543,0.64517 -10.54621,0.30653 -5.68601,-0.72914 -22.07308,-0.67987 -44.19858,0.13289 -21.59712,0.79336 -21.77778,0.79256 -31.72692,-0.13977 -6.56046,-0.61479 -9.15049,-1.28585 -10.43315,-2.70318 -1.56732,-1.73187 -1.57537,-2.01625 -0.0989,-3.49276 1.4238,-1.42381 7.41217,-1.65152 52.43316,-1.99386 43.23899,-0.32878 51.47096,-0.62312 55.14806,-1.9718 l 4.3223,-1.58533 -0.57183,-13.1035 c -0.41349,-9.47528 -0.97164,-13.50332 -2.01578,-14.54747 -0.79419,-0.79418 -4.2819,-1.82796 -7.75048,-2.29729 -9.71232,-1.31416 -21.71796,-5.64211 -27.3065,-9.8438 -2.75,-2.06756 -6.97642,-4.75228 -9.39204,-5.96604 -2.41562,-1.21376 -6.46562,-4.10924 -9,-6.43439 -2.53438,-2.32515 -6.06941,-5.23829 -7.85563,-6.47365 -1.78621,-1.23535 -4.60222,-4.21488 -6.25779,-6.62116 -4.52567,-6.57784 -13.26147,-27.32265 -13.78768,-32.74144 -0.43756,-4.50594 -0.72376,-4.89925 -5.58403,-7.6736 -2.81756,-1.60834 -6.44625,-3.25397 -8.06376,-3.65697 -3.21181,-0.80021 -10.01805,-7.56167 -16.97561,-16.86392 -5.52992,-7.3935 -6.75568,-13.40153 -6.10864,-29.94143 l 0.46153,-11.7978 4.18674,-6.65846 c 6.37049,-10.13139 12.79517,-18.13663 16.25802,-20.2577 6.8236,-4.17961 25.04757,-8.36349 34.88133,-8.00809 4.24371,0.15337 4.86674,-0.10222 5.72003,-2.34656 0.52668,-1.38527 1.82121,-4.21234 2.87673,-6.28239 7.73966,-15.17866 11.15302,-22.4096 12.55541,-26.59767 0.89027,-2.65867 2.93668,-7.20282 4.54759,-10.09809 1.70059,-3.05649 4.02275,-10.04584 5.53715,-16.66605 1.43453,-6.27104 3.48403,-13.32644 4.55444,-15.67865 1.07042,-2.35221 1.94621,-5.82445 1.94621,-7.71607 0,-1.89163 0.63786,-4.91709 1.41746,-6.72325 0.77961,-1.80616 2.16882,-5.98393 3.08714,-9.28393 6.47376,-23.26351 8.14164,-26.12157 21.37732,-36.63199 9.3463,-7.42188 12.50956,-8.29211 27.11808,-7.46035 17.70651,1.00814 19.90207,1.44972 28.78577,5.78953 6.76487,3.30472 9.09268,5.08068 12.6817,9.67526 2.41776,3.09515 5.48973,6.86297 6.8266,8.37293 1.33688,1.50995 3.21057,4.88495 4.16377,7.5 0.9532,2.61504 2.99163,7.90462 4.52986,11.75462 3.22166,8.06344 5.34464,17.20682 6.96563,30 0.62721,4.95 1.56929,12.01168 2.09352,15.69263 0.52423,3.68094 0.95993,8.63094 0.96821,11 0.008,2.36905 0.66353,6.10737 1.4561,8.30737 0.79258,2.2 1.46081,5.53546 1.48495,7.41214 0.0241,1.87668 1.11145,5.25168 2.41624,7.5 1.30479,2.24832 2.69543,5.21286 3.0903,6.58786 0.72798,2.53492 8.35249,18.94754 13.47199,29 1.54057,3.025 3.36664,7.3 4.05795,9.5 0.6913,2.2 2.27065,6.025 3.50967,8.5 2.9518,5.89637 5.66549,14.27373 6.6406,20.5 0.43068,2.75 1.50338,9.275 2.38378,14.5 1.92579,11.42914 1.92045,27.63512 -0.0114,34.5 -0.77387,2.75 -2.32444,9.22208 -3.44571,14.38241 -2.18529,10.05715 -8.08064,22.51031 -12.89725,27.24378 -1.46978,1.4444 -3.4918,3.82144 -4.49338,5.28231 -1.00158,1.46087 -3.70158,3.83625 -6,5.27862 -2.29842,1.44238 -6.03772,4.24034 -8.30957,6.21769 -9.02234,7.8528 -21.62754,12.99008 -41.11937,16.7583 -8.1951,1.5843 -8.25061,1.61569 -8.3411,4.7159 -0.27008,9.25218 0.3752,23.28332 1.13617,24.7052 0.77084,1.44033 3.02227,1.58881 19.10647,1.2601 18.78835,-0.38397 24.12557,0.3295 25.29678,3.3816 1.47341,3.83965 -1.40649,4.49388 -21.60264,4.9075 -10.64012,0.21792 -21.37068,0.67763 -23.84568,1.02159 -6.57061,0.91314 -16.34821,0.72309 -25.78852,-0.50125 -4.67732,-0.60661 -9.25204,-0.71057 -10.5,-0.23861 -3.09681,1.17117 -11.81521,2.01625 -14.21148,1.37753 z m 33,-10.42901 c 2.2,-0.69646 4.27957,-1.67103 4.62128,-2.16571 0.3417,-0.49469 0.49771,-6.31315 0.34668,-12.92992 -0.19983,-8.75453 -0.64131,-12.26289 -1.62128,-12.88395 -1.41605,-0.89742 -1.64126,-0.91631 -14.34668,-1.20335 l -8,-0.18073 0.31757,3 c 0.17467,1.65 0.43215,7.5 0.57218,13 0.32175,12.63754 1.14016,14.27694 7.36624,14.75571 5.19584,0.39955 5.00763,0.42393 10.74401,-1.39205 z M 322.23965,343.8295 C 324.816,342.51324 327,337.62943 327,333.18452 c 0,-5.45864 -2.87796,-8.78324 -8.67323,-10.01925 C 309.47016,321.27634 304,326.17567 304,335.99701 c 0,3.12395 0.55619,4.26284 2.89516,5.92834 5.51546,3.92735 10.2375,4.51333 15.34449,1.90415 z m -8.85739,-3.87975 c -1.79579,-0.66774 -2.12526,-1.62447 -2.16721,-6.29338 -0.0567,-6.31345 1.2533,-7.49978 5.72711,-5.18628 7.32478,3.78779 4.06077,14.31329 -3.5599,11.47966 z m 46.14299,-18.16212 c 2.40067,-2.85304 2.63648,-3.77429 2.10807,-8.23582 -1.42796,-12.05695 -11.80302,-16.081 -19.10059,-7.40833 -2.51728,2.99162 -3.37086,8.50882 -1.90672,12.32431 1.16891,3.04611 7.58223,6.53221 12.01723,6.53221 3.47707,0 4.63298,-0.53955 6.88201,-3.21237 z M 347.48801,317.75 c -0.24708,-0.6875 -0.57045,-3.275 -0.71862,-5.75 -0.25626,-4.28067 -0.13028,-4.51591 2.58476,-4.82647 5.70989,-0.65313 10.15005,7.20503 5.89585,10.43442 -2.22709,1.6906 -7.17295,1.78111 -7.76199,0.14205 z"
       style="fill:#fad72a" />
    <path
       id="path9634"
       d="m 411.5,493.29267 c -1.1,-0.2932 -2.78984,-1.08551 -3.75521,-1.76068 -1.28694,-0.90009 -3.28781,-0.98155 -7.5,-0.30534 -3.15963,0.50723 -7.90543,0.64517 -10.54621,0.30653 -5.68601,-0.72914 -22.07308,-0.67987 -44.19858,0.13289 -21.59712,0.79336 -21.77778,0.79256 -31.72692,-0.13977 -6.56046,-0.61479 -9.15049,-1.28585 -10.43315,-2.70318 -1.56732,-1.73187 -1.57537,-2.01625 -0.0989,-3.49276 1.4238,-1.42381 7.41217,-1.65152 52.43316,-1.99386 43.23899,-0.32878 51.47096,-0.62312 55.14806,-1.9718 l 4.3223,-1.58533 -0.57183,-13.1035 c -0.41349,-9.47528 -0.97164,-13.50332 -2.01578,-14.54747 -0.79419,-0.79418 -4.2819,-1.82796 -7.75048,-2.29729 -9.71232,-1.31416 -21.71796,-5.64211 -27.3065,-9.8438 -2.75,-2.06756 -6.97642,-4.75228 -9.39204,-5.96604 -2.41562,-1.21376 -6.46562,-4.10924 -9,-6.43439 -2.53438,-2.32515 -6.06941,-5.23829 -7.85563,-6.47365 -4.67535,-3.23349 -8.56079,-9.37563 -14.40792,-22.77618 -5.83332,-13.3689 -7.27794,-20.32827 -4.22446,-20.35112 2.21787,-0.0166 -10.84409,-7.3253 -14.91614,-8.34619 -6.00489,-1.50547 -20.56624,-19.81884 -21.39073,-26.90247 l -0.49319,-4.23727 2.70334,3.30215 c 2.61445,3.19356 10.8241,9.72975 15.02868,11.96523 3.23991,1.72259 13.84573,2.44534 19.78155,1.34804 6.53762,-1.20855 17.47864,-6.21964 20.40881,-9.34745 4.10392,-4.38071 7.89396,-14.73405 8.62493,-23.56092 0.77932,-9.41066 -0.26858,-14.72723 -3.61611,-18.34643 -1.2381,-1.33858 -3.06212,-3.6749 -4.05339,-5.19183 -0.99126,-1.51693 -3.01626,-3.21795 -4.5,-3.78004 -1.48373,-0.56208 -3.63094,-1.89598 -4.77157,-2.96421 -2.25011,-2.10729 -9.96015,-4.35025 -17.97439,-5.22899 -3.89587,-0.42718 -6.34984,-0.0245 -10.75,1.76382 -3.13596,1.27455 -5.70174,1.9405 -5.70174,1.47989 0,-1.67848 6.63657,-5.80199 12,-7.45597 3.025,-0.93286 7.3,-2.31007 9.5,-3.06047 2.2,-0.75039 5.125,-1.37311 6.5,-1.38382 1.375,-0.0107 5.62355,-0.15853 9.44123,-0.32851 6.40238,-0.28505 6.99245,-0.4993 7.60094,-2.75977 0.36284,-1.34789 1.57691,-4.25072 2.69794,-6.45072 7.92091,-15.54471 11.26505,-22.62479 12.6745,-26.83396 0.89027,-2.65867 2.93668,-7.20282 4.54759,-10.09809 1.70059,-3.05649 4.02275,-10.04584 5.53715,-16.66605 1.43453,-6.27104 3.48403,-13.32644 4.55444,-15.67865 1.07042,-2.35221 1.94621,-5.82445 1.94621,-7.71607 0,-1.89163 0.63786,-4.91709 1.41746,-6.72325 0.77961,-1.80616 2.16882,-5.98393 3.08714,-9.28393 6.47376,-23.26351 8.14164,-26.12157 21.37732,-36.63199 9.3463,-7.42188 12.50956,-8.29211 27.11808,-7.46035 17.70651,1.00814 19.90207,1.44972 28.78577,5.78953 6.76487,3.30472 9.09268,5.08068 12.6817,9.67526 2.41776,3.09515 5.48973,6.86297 6.8266,8.37293 1.33688,1.50995 3.21057,4.88495 4.16377,7.5 0.9532,2.61504 2.99163,7.90462 4.52986,11.75462 3.22166,8.06344 5.34464,17.20682 6.96563,30 0.62721,4.95 1.56929,12.01168 2.09352,15.69263 0.52423,3.68094 0.95993,8.63094 0.96821,11 0.008,2.36905 0.66353,6.10737 1.4561,8.30737 0.79258,2.2 1.46081,5.53546 1.48495,7.41214 0.0241,1.87668 1.11145,5.25168 2.41624,7.5 1.30479,2.24832 2.69543,5.21286 3.0903,6.58786 0.72798,2.53492 8.35249,18.94754 13.47199,29 1.54057,3.025 3.36664,7.3 4.05795,9.5 0.6913,2.2 2.27065,6.025 3.50967,8.5 2.9518,5.89637 5.66549,14.27373 6.6406,20.5 0.43068,2.75 1.50338,9.275 2.38378,14.5 1.92579,11.42914 1.92045,27.63512 -0.0114,34.5 -0.77387,2.75 -2.32444,9.22208 -3.44571,14.38241 -2.18529,10.05715 -8.08064,22.51031 -12.89725,27.24378 -1.46978,1.4444 -3.4918,3.82144 -4.49338,5.28231 -1.00158,1.46087 -3.70158,3.83625 -6,5.27862 -2.29842,1.44238 -6.03772,4.24034 -8.30957,6.21769 -9.02234,7.8528 -21.62754,12.99008 -41.11937,16.7583 -8.1951,1.5843 -8.25061,1.61569 -8.3411,4.7159 -0.27008,9.25218 0.3752,23.28332 1.13617,24.7052 0.77084,1.44033 3.02227,1.58881 19.10647,1.2601 18.78835,-0.38397 24.12557,0.3295 25.29678,3.3816 1.47341,3.83965 -1.40649,4.49388 -21.60264,4.9075 -10.64012,0.21792 -21.37068,0.67763 -23.84568,1.02159 -6.57061,0.91314 -16.34821,0.72309 -25.78852,-0.50125 -4.67732,-0.60661 -9.25204,-0.71057 -10.5,-0.23861 -3.09681,1.17117 -11.81521,2.01625 -14.21148,1.37753 z m 33,-10.42901 c 2.2,-0.69646 4.27957,-1.67103 4.62128,-2.16571 0.3417,-0.49469 0.49771,-6.31315 0.34668,-12.92992 -0.19983,-8.75453 -0.64131,-12.26289 -1.62128,-12.88395 -1.41605,-0.89742 -1.64126,-0.91631 -14.34668,-1.20335 l -8,-0.18073 0.31757,3 c 0.17467,1.65 0.43215,7.5 0.57218,13 0.32175,12.63754 1.14016,14.27694 7.36624,14.75571 5.19584,0.39955 5.00763,0.42393 10.74401,-1.39205 z M 333.01057,343.51273 c -1.99845,-2.40798 -0.59228,-4.02393 6.74535,-7.75164 7.24493,-3.68061 10.24408,-3.63196 10.24408,0.16616 0,2.30855 -1.78671,3.78555 -8.14026,6.72919 -5.91847,2.74207 -7.1826,2.86439 -8.84917,0.85629 z m -19.62831,-3.56298 c -1.79579,-0.66774 -2.12526,-1.62447 -2.16721,-6.29338 -0.0567,-6.31345 1.2533,-7.49978 5.72711,-5.18628 7.32478,3.78779 4.06077,14.31329 -3.5599,11.47966 z M 347.48801,317.75 c -0.24708,-0.6875 -0.57045,-3.275 -0.71862,-5.75 -0.25626,-4.28067 -0.13028,-4.51591 2.58476,-4.82647 5.70989,-0.65313 10.15005,7.20503 5.89585,10.43442 -2.22709,1.6906 -7.17295,1.78111 -7.76199,0.14205 z"
       style="fill:#b2b193" />
    <path
       id="path9632"
       d="m 410.30185,491.35886 c -2.07549,-1.76281 -2.68854,-3.30497 -2.42033,-6.08854 0.0652,-0.67632 1.85217,-2.11414 3.97112,-3.19515 l 3.85265,-1.96547 -0.17211,-8.30485 c -0.46403,-22.39038 -0.0809,-21.56135 -10.56852,-22.86876 -9.35148,-1.16578 -21.30132,-5.33031 -26.227,-9.14014 -2.06929,-1.60052 -6.43868,-4.2379 -9.70976,-5.86085 -6.91788,-3.43232 -20.9369,-15.49766 -24.83613,-21.37497 -1.4815,-2.23307 -3.66136,-6.31013 -4.84412,-9.06013 -6.52979,-15.18212 -7.61669,-18.08694 -8.09113,-21.6242 -0.44383,-3.30895 -0.24466,-3.87786 1.36181,-3.88987 2.21903,-0.0166 -10.84076,-7.32487 -14.91452,-8.34619 -6.00489,-1.50547 -20.56624,-19.81884 -21.39073,-26.90247 l -0.49319,-4.23727 2.70334,3.30215 c 2.61445,3.19356 10.8241,9.72975 15.02868,11.96523 3.23991,1.72259 13.84573,2.44534 19.78155,1.34804 6.53762,-1.20855 17.47864,-6.21964 20.40881,-9.34745 4.10392,-4.38071 7.89396,-14.73405 8.62493,-23.56092 0.77932,-9.41066 -0.26858,-14.72723 -3.61611,-18.34643 -1.2381,-1.33858 -3.06212,-3.6749 -4.05339,-5.19183 -0.99126,-1.51693 -3.01626,-3.21795 -4.5,-3.78004 -1.48373,-0.56208 -3.63094,-1.89598 -4.77157,-2.96421 -2.25011,-2.10729 -9.96015,-4.35025 -17.97439,-5.22899 -3.89587,-0.42718 -6.34984,-0.0245 -10.75,1.76382 -3.13596,1.27455 -5.70174,1.9405 -5.70174,1.47989 0,-1.67848 6.63657,-5.80199 12,-7.45597 3.025,-0.93286 7.3,-2.31007 9.5,-3.06047 2.2,-0.75039 5.125,-1.37311 6.5,-1.38382 11.07294,-0.0862 16.39984,-0.748 16.80827,-2.08819 0.24318,-0.79795 3.47363,-7.52581 7.17878,-14.95081 3.70514,-7.425 7.30063,-15.3 7.98997,-17.5 0.68934,-2.2 2.9464,-7.375 5.01569,-11.5 3.77642,-7.52807 5.10149,-11.76907 7.56331,-24.20691 0.73012,-3.6888 1.89039,-7.7388 2.57838,-9 0.688,-1.2612 1.57829,-4.31809 1.97844,-6.79309 0.40015,-2.475 1.84321,-7.875 3.20678,-12 1.36358,-4.125 3.63642,-11.325 5.05075,-16 3.47116,-11.47375 7.45065,-17.11657 17.42942,-24.71447 7.80812,-5.94514 8.75503,-6.38283 15.98429,-7.38832 5.38932,-0.74959 9.92925,-0.75685 15.2002,-0.0243 4.13365,0.57447 9.34073,1.23353 11.5713,1.46457 2.23057,0.23103 7.85557,2.23803 12.5,4.46 7.81247,3.7376 8.96828,4.70031 15.44442,12.86426 3.85,4.85338 7.84009,11.07746 8.86686,13.8313 6.67193,17.89432 8.68944,24.99 10.09566,35.50697 0.84572,6.325 1.99061,14.875 2.54419,19 0.55358,4.125 1.01948,9.75 1.03533,12.5 0.0159,2.75 0.67194,6.125 1.45796,7.5 0.78602,1.375 1.44508,4.34548 1.46456,6.60106 0.02,2.31871 1.05311,6.01503 2.37702,8.50497 1.28787,2.42215 2.93228,6.20167 3.65424,8.39894 1.35967,4.13811 6.51019,14.27882 8.09856,15.94503 0.49809,0.5225 0.90562,1.68491 0.90562,2.58313 0,0.89822 1.8,5.04963 4,9.22536 2.2,4.17574 4,8.23762 4,9.02641 0,0.7888 1.29293,4.08488 2.87318,7.32464 3.63327,7.44875 7.15012,18.08038 7.13694,21.57536 -0.006,1.4767 0.49866,3.9517 1.1205,5.5 3.32397,8.27629 3.88594,35.82808 0.94467,46.3151 -1.00267,3.575 -2.3463,9.30699 -2.98584,12.73776 C 540.57273,400.8741 532.31853,418 529.91377,418 c -0.48878,0 -2.02279,1.79654 -3.40892,3.99231 -1.38612,2.19577 -4.42927,5.19043 -6.76254,6.65481 -2.33327,1.46437 -6.10109,4.28034 -8.37294,6.25769 -8.99592,7.8298 -21.75158,13.05668 -41.36937,16.9519 l -8.5,1.68773 0.0158,13.47778 c 0.009,7.41278 0.39579,15.3407 0.86019,17.61759 0.72358,3.54756 0.54248,4.44171 -1.26581,6.25 C 459.3918,492.6082 457.78095,493 452.43426,493 444.43381,493 442,491.87218 442,488.16482 442,484.81725 443.63293,483 446.64098,483 c 1.23254,0 2.46793,-0.3672 2.7453,-0.81599 0.27737,-0.44879 0.61252,-6.5812 0.74479,-13.62757 0.20635,-10.99288 0.003,-12.98492 -1.42942,-14.03265 -0.91846,-0.67159 -6.26544,-1.52223 -11.88218,-1.89032 -12.67014,-0.83032 -13.79317,-0.18282 -11.83196,6.82192 0.79331,2.83342 1.05763,6.96847 0.69137,10.81588 -0.40491,4.25336 -0.13565,7.49729 0.84902,10.22873 3.14003,8.71029 1.5553,10.8851 -8.82025,12.10454 -4.23066,0.49723 -5.63106,0.26168 -7.4058,-1.24568 z M 333.01057,343.51273 c -1.99845,-2.40798 -0.59228,-4.02393 6.74535,-7.75164 7.24493,-3.68061 10.24408,-3.63196 10.24408,0.16616 0,2.30855 -1.78671,3.78555 -8.14026,6.72919 -5.91847,2.74207 -7.1826,2.86439 -8.84917,0.85629 z m -19.6661,-4.27867 c -1.54561,-0.98355 -2.05614,-8.92239 -0.66334,-10.31519 1.17725,-1.17725 5.10336,0.30897 6.55356,2.48083 2.90116,4.3449 -1.71834,10.48912 -5.89022,7.83436 z M 348,316.125 c 0,-1.03125 -0.2683,-3.21649 -0.59622,-4.85609 -1.07668,-5.38343 4.64234,-5.18054 8.22802,0.2919 1.52063,2.32077 1.51007,2.62494 -0.15499,4.46481 C 353.10687,318.64438 348,318.71225 348,316.125 Z"
       style="fill:#fab903" />
    <path
       id="path9630"
       d="m 410.30185,491.35886 c -2.07549,-1.76281 -2.68854,-3.30497 -2.42033,-6.08854 0.0652,-0.67632 1.85217,-2.11414 3.97112,-3.19515 l 3.85265,-1.96547 -0.17211,-8.30485 c -0.46403,-22.39038 -0.0809,-21.56135 -10.56852,-22.86876 -9.35148,-1.16578 -21.30132,-5.33031 -26.227,-9.14014 -2.06929,-1.60052 -6.43868,-4.2379 -9.70976,-5.86085 -6.91788,-3.43232 -20.9369,-15.49766 -24.83613,-21.37497 -1.4815,-2.23307 -3.66136,-6.31013 -4.84412,-9.06013 -6.52082,-15.16127 -7.61551,-18.07815 -8.07763,-21.5235 l -0.50634,-3.7751 10.29405,-0.0726 c 8.79324,-0.062 11.64189,-0.53047 19.53876,-3.21311 6.05377,-2.05651 10.17798,-4.11462 11.94854,-5.96269 l 2.70382,-2.82218 -3.63079,-1.51704 c -4.15986,-1.7381 -6.22169,-5.61738 -4.59807,-8.65114 0.92774,-1.73348 1.85752,-1.85336 10.25015,-1.32154 l 9.22986,0.58488 2.73908,-4.29632 c 1.50649,-2.36297 2.98239,-5.90131 3.27978,-7.86299 0.29738,-1.96167 0.9773,-4.94862 1.51092,-6.63767 C 394.5634,334.73995 395,329.90399 395,325.68241 c 0,-6.86611 -0.45362,-8.70419 -4.30132,-17.429 -4.87969,-11.0649 -8.85182,-16.98655 -14.37909,-21.43639 C 372.34875,283.62022 359.50798,277 357.27821,277 c -2.13049,0 -1.54891,-1.65034 5.58363,-15.84452 3.77401,-7.51052 7.42584,-15.45548 8.11518,-17.65548 0.68934,-2.2 2.9464,-7.375 5.01569,-11.5 3.77642,-7.52807 5.10149,-11.76907 7.56331,-24.20691 0.73012,-3.6888 1.89039,-7.7388 2.57838,-9 0.688,-1.2612 1.57829,-4.31809 1.97844,-6.79309 0.40015,-2.475 1.84321,-7.875 3.20678,-12 1.36358,-4.125 3.63642,-11.325 5.05075,-16 3.47116,-11.47375 7.45065,-17.11657 17.42942,-24.71447 7.80812,-5.94514 8.75503,-6.38283 15.98429,-7.38832 5.38932,-0.74959 9.92925,-0.75685 15.2002,-0.0243 4.13365,0.57447 9.34073,1.23353 11.5713,1.46457 2.23057,0.23103 7.85557,2.23803 12.5,4.46 7.81247,3.7376 8.96828,4.70031 15.44442,12.86426 3.85,4.85338 7.84009,11.07746 8.86686,13.8313 6.67193,17.89432 8.68944,24.99 10.09566,35.50697 0.84572,6.325 1.99061,14.875 2.54419,19 0.55358,4.125 1.01948,9.75 1.03533,12.5 0.0159,2.75 0.67194,6.125 1.45796,7.5 0.78602,1.375 1.44508,4.34548 1.46456,6.60106 0.02,2.31871 1.05311,6.01503 2.37702,8.50497 1.28787,2.42215 2.93228,6.20167 3.65424,8.39894 1.35967,4.13811 6.51019,14.27882 8.09856,15.94503 0.49809,0.5225 0.90562,1.68491 0.90562,2.58313 0,0.89822 1.8,5.04963 4,9.22536 2.2,4.17574 4,8.23762 4,9.02641 0,0.7888 1.29293,4.08488 2.87318,7.32464 3.63327,7.44875 7.15012,18.08038 7.13694,21.57536 -0.006,1.4767 0.49866,3.9517 1.1205,5.5 3.32397,8.27629 3.88594,35.82808 0.94467,46.3151 -1.00267,3.575 -2.3463,9.30699 -2.98584,12.73776 C 540.57273,400.8741 532.31853,418 529.91377,418 c -0.48878,0 -2.02279,1.79654 -3.40892,3.99231 -1.38612,2.19577 -4.42927,5.19043 -6.76254,6.65481 -2.33327,1.46437 -6.10109,4.28034 -8.37294,6.25769 -8.99592,7.8298 -21.75158,13.05668 -41.36937,16.9519 l -8.5,1.68773 0.0158,13.47778 c 0.009,7.41278 0.39579,15.3407 0.86019,17.61759 0.72358,3.54756 0.54248,4.44171 -1.26581,6.25 C 459.3918,492.6082 457.78095,493 452.43426,493 444.43381,493 442,491.87218 442,488.16482 442,484.81725 443.63293,483 446.64098,483 c 1.23254,0 2.46793,-0.3672 2.7453,-0.81599 0.27737,-0.44879 0.61252,-6.5812 0.74479,-13.62757 0.20635,-10.99288 0.003,-12.98492 -1.42942,-14.03265 -0.91846,-0.67159 -6.26544,-1.52223 -11.88218,-1.89032 -12.67014,-0.83032 -13.79317,-0.18282 -11.83196,6.82192 0.79331,2.83342 1.05763,6.96847 0.69137,10.81588 -0.40491,4.25336 -0.13565,7.49729 0.84902,10.22873 3.14003,8.71029 1.5553,10.8851 -8.82025,12.10454 -4.23066,0.49723 -5.63106,0.26168 -7.4058,-1.24568 z M 333.01057,343.51273 c -1.99845,-2.40798 -0.59228,-4.02393 6.74535,-7.75164 7.24493,-3.68061 10.24408,-3.63196 10.24408,0.16616 0,2.30855 -1.78671,3.78555 -8.14026,6.72919 -5.91847,2.74207 -7.1826,2.86439 -8.84917,0.85629 z m -19.6661,-4.27867 c -1.54561,-0.98355 -2.05614,-8.92239 -0.66334,-10.31519 1.17725,-1.17725 5.10336,0.30897 6.55356,2.48083 2.90116,4.3449 -1.71834,10.48912 -5.89022,7.83436 z M 348,316.125 c 0,-1.03125 -0.2683,-3.21649 -0.59622,-4.85609 -1.07668,-5.38343 4.64234,-5.18054 8.22802,0.2919 1.52063,2.32077 1.51007,2.62494 -0.15499,4.46481 C 353.10687,318.64438 348,318.71225 348,316.125 Z"
       style="fill:#98d14d" />
    <path
       id="path9628"
       d="m 410.30185,491.35886 c -2.07549,-1.76281 -2.68854,-3.30497 -2.42033,-6.08854 0.0652,-0.67632 1.85217,-2.11414 3.97112,-3.19515 l 3.85265,-1.96547 -0.17211,-8.30485 c -0.46375,-22.37705 -0.0875,-21.55945 -10.52447,-22.86997 -12.00914,-1.50792 -22.48572,-5.6357 -28.27891,-11.14192 -2.7238,-2.58887 -6.77898,-5.65912 -9.0115,-6.82277 C 363.15818,428.59332 348,415.28806 348,413.66223 c 0,-0.57903 -1.20469,-2.31022 -2.6771,-3.84708 -1.4724,-1.53686 -2.4849,-2.9812 -2.25,-3.20965 0.83856,-0.81551 3.47781,-0.86055 6.6771,-0.11394 3.45029,0.80518 4.227,2.1963 1.75574,3.14461 -2.42428,0.93028 -0.51369,2.58264 2.19901,1.9018 3.24044,-0.8133 5.13604,0.84407 4.53879,3.96838 -0.29105,1.52249 -0.0156,2.49365 0.70727,2.49365 0.72889,0 0.93998,0.76873 0.54919,2 -0.34913,1.1 -0.26235,2 0.19283,2 0.45518,0 1.97021,1.0125 3.36673,2.25 4.52545,4.01015 6.61386,4.7565 11.45337,4.09317 6.29001,-0.86214 9.70599,0.98375 9.29165,5.02091 -0.34831,3.39379 1.66815,4.76022 2.47448,1.67681 0.39051,-1.49332 1.35428,-2.04089 3.59214,-2.04089 1.96288,0 3.41652,-0.6691 4.0581,-1.8679 0.54982,-1.02734 2.47815,-2.21054 4.28518,-2.62933 C 403.18278,427.35135 412,427.09931 412,428.10872 412,428.59892 410.875,429 409.5,429 c -1.51005,0 -2.5,0.5706 -2.5,1.44098 0,2.30367 -1.97567,2.89101 -3.89175,1.15698 -2.20792,-1.99814 -5.4819,-2.05759 -7.08281,-0.12861 -0.97354,1.17304 -0.84699,2.23173 0.62756,5.25 2.097,4.29237 4.81619,5.41846 5.62409,2.32907 0.78358,-2.99644 5.08511,-2.67471 7.63844,0.57132 1.48983,1.89401 2.66282,2.46228 4.23425,2.05134 1.19546,-0.31262 3.02958,-0.11027 4.07582,0.44966 1.34879,0.72185 2.32975,0.66325 3.37161,-0.20141 0.80815,-0.67071 4.32799,-1.35048 7.82188,-1.5106 3.49388,-0.16012 8.31641,-1.14991 10.71671,-2.19954 2.40031,-1.04963 7.0642,-2.94816 10.3642,-4.21896 3.3,-1.27081 7.2176,-3.15495 8.70577,-4.18699 1.48818,-1.03205 4.07568,-2.35399 5.75,-2.93767 C 466.6301,426.2819 468,425.15925 468,424.37079 c 0,-0.78846 0.64659,-1.68168 1.43686,-1.98493 0.79027,-0.30326 1.19212,-1.18914 0.89301,-1.96862 -0.35366,-0.92161 0.13181,-1.41724 1.38818,-1.41724 3.49407,0 8.28436,-6.17588 15.5129,-20 4.0058,-7.66083 5.66517,-12.05097 6.1368,-16.2359 0.35552,-3.15475 1.34105,-7.78193 2.19006,-10.28263 1.20319,-3.5439 1.45161,-7.74494 1.12636,-19.04732 -0.2295,-7.97533 -0.66765,-14.75096 -0.97366,-15.05697 -0.306,-0.30601 -3.17855,1.21862 -6.38344,3.38806 -5.97687,4.04584 -14.7753,8.73929 -26.43891,14.10364 -6.13992,2.82388 -6.6566,3.3118 -7.23899,6.83602 -0.34494,2.08731 -0.63211,5.65549 -0.63816,7.9293 -0.0173,6.49327 -6.7968,19.0554 -13.6777,25.34415 -9.68367,8.85033 -20.57515,13.11575 -31.83331,12.46685 -12.27536,-0.70752 -18.9115,-2.13743 -21.08962,-4.54423 C 387.46419,402.85544 386.09523,402 385.36827,402 c -2.20935,0 -9.01352,-9.5341 -10.21803,-14.31763 -0.6225,-2.47217 -1.56606,-7.56112 -2.09679,-11.30876 -0.80858,-5.70961 -0.71224,-7.09316 0.59444,-8.53703 1.43865,-1.58969 1.27986,-1.83993 -2.0506,-3.23148 -4.13918,-1.72946 -6.19731,-5.61544 -4.5773,-8.64246 0.92774,-1.73348 1.85752,-1.85336 10.25015,-1.32154 l 9.22986,0.58488 2.73908,-4.29632 c 1.50649,-2.36297 2.98896,-5.90131 3.29437,-7.86299 0.30541,-1.96167 1.02287,-5.14969 1.59436,-7.0845 1.07335,-3.63392 0.72857,-17.95184 -0.5173,-21.48217 -0.59051,-1.67328 0.0779,-2.36418 4.09184,-4.22932 7.05343,-3.2775 16.17623,-3.86567 27.12893,-1.74905 8.71116,1.68344 9.47189,2.04594 16.22808,7.73298 5.99364,5.04515 7.69356,7.22389 11.00595,14.10606 2.15461,4.47663 3.92135,9.12527 3.92608,10.33031 0.005,1.20504 0.41402,2.44155 0.90953,2.74779 1.49476,0.92381 21.1337,-8.84848 28.26346,-14.06384 3.6654,-2.68121 7.14214,-5.88499 7.72608,-7.1195 1.11347,-2.35398 0.47188,-7.91346 -1.01962,-8.83526 C 491.39188,313.12416 491,311.60321 491,310.04028 c 0,-1.56293 -1.08925,-5.19272 -2.42056,-8.06622 -1.33131,-2.87349 -2.19525,-5.81167 -1.91987,-6.5293 0.27538,-0.71763 -0.15656,-2.79877 -0.95987,-4.62477 C 481.55233,281.39261 480,276.84531 480,274.12364 c 0,-1.65309 -0.424,-3.26765 -0.94222,-3.58793 -0.51822,-0.32028 -1.25101,-2.70934 -1.62842,-5.30902 -0.37741,-2.59968 -1.52841,-8.06117 -2.55778,-12.13665 C 473.84221,249.01456 473,244.02706 473,242.0067 c 0,-2.02035 -0.3375,-4.01398 -0.75,-4.43029 -0.4125,-0.41631 -0.79525,-4.42881 -0.85054,-8.91667 -0.13477,-10.93724 -1.22459,-22.348 -2.56052,-26.80944 -0.89788,-2.99856 -0.80259,-4.06411 0.5341,-5.97251 2.02371,-2.88925 2.08629,-6.777 0.15349,-9.53646 -0.97669,-1.39441 -1.52281,-4.92524 -1.6198,-10.4725 -0.0966,-5.5244 -0.78537,-9.99586 -2.02653,-13.15585 -1.03411,-2.63286 -1.8802,-5.74743 -1.8802,-6.92126 0,-1.17383 -0.61628,-2.84467 -1.36951,-3.71298 -0.75323,-0.86831 -1.76573,-2.81624 -2.25,-4.32874 -0.48427,-1.5125 -1.33049,-2.76399 -1.88049,-2.78109 -1.78868,-0.0556 -1.71497,5.13607 0.10142,7.14315 1.25775,1.38981 1.4459,2.24062 0.66759,3.01893 C 458.4907,155.9093 457.85124,155.59055 457,154 c -0.8668,-1.61962 -1.48283,-1.91717 -2.29264,-1.10736 -1.54428,1.54428 -3.70736,1.38325 -3.70736,-0.27601 0,-0.76085 0.9,-1.61872 2,-1.90638 1.2973,-0.33925 2,-1.36401 2,-2.91663 0,-1.31649 0.54,-2.93362 1.2,-3.59362 1.9803,-1.9803 -0.67589,-4.00841 -3.19189,-2.43714 -1.34188,0.83802 -2.71558,0.91866 -4.44549,0.26095 -1.94004,-0.7376 -2.70224,-0.59674 -3.38643,0.62584 -0.71468,1.27706 -1.29193,1.35877 -3.02955,0.42883 C 440.96599,142.44661 440,141.19202 440,140.2905 c 0,-1.38612 -0.3473,-1.31698 -2.25,0.44794 -3.04446,2.82399 -8.67038,3.35045 -10.14043,0.94891 -0.90079,-1.47157 -0.68216,-2.16358 1.16193,-3.6777 1.32966,-1.09174 1.84795,-2.12681 1.25,-2.49637 -3.37791,-2.08766 0.0432,-2.62935 14.7285,-2.33209 l 15.75,0.31881 8.5,4.1687 c 7.80999,3.83029 9.06825,4.88504 15.5,12.99303 3.85,4.85338 7.84009,11.07746 8.86686,13.8313 6.67193,17.89432 8.68944,24.99 10.09566,35.50697 0.84572,6.325 1.99061,14.875 2.54419,19 0.55358,4.125 1.01948,9.75 1.03533,12.5 0.0159,2.75 0.67194,6.125 1.45796,7.5 0.78602,1.375 1.44508,4.34548 1.46456,6.60106 0.02,2.31871 1.05311,6.01503 2.37702,8.50497 1.28787,2.42215 2.93228,6.20167 3.65424,8.39894 1.35967,4.13811 6.51019,14.27882 8.09856,15.94503 0.49809,0.5225 0.90562,1.68491 0.90562,2.58313 0,0.89822 1.8,5.04963 4,9.22536 2.2,4.17574 4,8.23762 4,9.02641 0,0.7888 1.29293,4.08488 2.87318,7.32464 3.63327,7.44875 7.15012,18.08038 7.13694,21.57536 -0.006,1.4767 0.49866,3.9517 1.1205,5.5 3.32397,8.27629 3.88594,35.82808 0.94467,46.3151 -1.00267,3.575 -2.3463,9.30699 -2.98584,12.73776 C 540.57273,400.8741 532.31853,418 529.91377,418 c -0.48878,0 -2.02279,1.79654 -3.40892,3.99231 -1.38612,2.19577 -4.42927,5.19043 -6.76254,6.65481 -2.33327,1.46437 -6.10109,4.28034 -8.37294,6.25769 -8.99592,7.8298 -21.75158,13.05668 -41.36937,16.9519 l -8.5,1.68773 0.0158,13.47778 c 0.009,7.41278 0.39579,15.3407 0.86019,17.61759 0.72358,3.54756 0.54248,4.44171 -1.26581,6.25 C 459.3918,492.6082 457.78095,493 452.43426,493 444.43381,493 442,491.87218 442,488.16482 442,484.81725 443.63293,483 446.64098,483 c 1.23254,0 2.46793,-0.3672 2.7453,-0.81599 0.27737,-0.44879 0.61252,-6.5812 0.74479,-13.62757 0.20635,-10.99288 0.003,-12.98492 -1.42942,-14.03265 -0.91846,-0.67159 -6.26544,-1.52223 -11.88218,-1.89032 -12.67014,-0.83032 -13.79317,-0.18282 -11.83196,6.82192 0.79331,2.83342 1.05763,6.96847 0.69137,10.81588 -0.40491,4.25336 -0.13565,7.49729 0.84902,10.22873 3.14003,8.71029 1.5553,10.8851 -8.82025,12.10454 -4.23066,0.49723 -5.63106,0.26168 -7.4058,-1.24568 z M 338.25,389.5189 C 332.65523,384.03862 331.77405,382 335,382 c 1.48067,0 2,0.66667 2,2.56739 0,1.97843 0.40145,2.44697 1.75,2.04246 2.50215,-0.75053 6.25,2.72774 6.25,5.80044 0,1.42434 -0.3375,2.51354 -0.75,2.42044 -0.4125,-0.0931 -3.1125,-2.48342 -6,-5.31183 z M 333.2,343.8 c -2.37842,-2.37842 -1.07484,-3.89563 6.39238,-7.44002 6.61881,-3.14168 7.77758,-3.41859 9.03674,-2.15943 2.30211,2.30211 0.5769,4.66666 -5.72644,7.84858 -6.45544,3.25869 -7.92896,3.52459 -9.70268,1.75087 z m -19.85553,-4.56594 c -1.54561,-0.98355 -2.05614,-8.92239 -0.66334,-10.31519 1.17725,-1.17725 5.10336,0.30897 6.55356,2.48083 2.90116,4.3449 -1.71834,10.48912 -5.89022,7.83436 z M 348,316.125 c 0,-1.03125 -0.2683,-3.21649 -0.59622,-4.85609 -1.07668,-5.38343 4.64234,-5.18054 8.22802,0.2919 1.52063,2.32077 1.51007,2.62494 -0.15499,4.46481 C 353.10687,318.64438 348,318.71225 348,316.125 Z"
       style="fill:#87a25d" />
    <path
       id="path9626"
       d="m 409.4131,489.50772 c -2.13204,-3.25391 -1.35351,-4.98731 3.30808,-7.36548 l 3.81863,-1.94811 -0.22628,-8.34707 c -0.32011,-11.80864 -1.7185,-20.86128 -3.38125,-21.88891 -0.77828,-0.48101 -3.89393,-1.12058 -6.92367,-1.42127 -7.71833,-0.76603 -21.87535,-5.54413 -25.48276,-8.60063 -4.06444,-3.44373 -9.26983,-7.03386 -13.49795,-9.30948 C 362.83117,428.36806 348,415.14516 348,413.66223 c 0,-0.57903 -1.20469,-2.31022 -2.6771,-3.84708 -1.4724,-1.53686 -2.4849,-2.9812 -2.25,-3.20965 0.83856,-0.81551 3.47781,-0.86055 6.6771,-0.11394 3.45029,0.80518 4.227,2.1963 1.75574,3.14461 -2.42428,0.93028 -0.51369,2.58264 2.19901,1.9018 3.24044,-0.8133 5.13604,0.84407 4.53879,3.96838 -0.29105,1.52249 -0.0156,2.49365 0.70727,2.49365 0.72889,0 0.93998,0.76873 0.54919,2 -0.34913,1.1 -0.26235,2 0.19283,2 0.45518,0 1.97021,1.0125 3.36673,2.25 4.52545,4.01015 6.61386,4.7565 11.45337,4.09317 6.29001,-0.86214 9.70599,0.98375 9.29165,5.02091 -0.34831,3.39379 1.66815,4.76022 2.47448,1.67681 0.39051,-1.49332 1.35428,-2.04089 3.59214,-2.04089 1.96288,0 3.41652,-0.6691 4.0581,-1.8679 0.54982,-1.02734 2.47815,-2.21054 4.28518,-2.62933 C 403.18278,427.35135 412,427.09931 412,428.10872 412,428.59892 410.875,429 409.5,429 c -1.51005,0 -2.5,0.5706 -2.5,1.44098 0,2.30367 -1.97567,2.89101 -3.89175,1.15698 -2.20792,-1.99814 -5.4819,-2.05759 -7.08281,-0.12861 -0.97354,1.17304 -0.84699,2.23173 0.62756,5.25 2.097,4.29237 4.81619,5.41846 5.62409,2.32907 0.78358,-2.99644 5.08511,-2.67471 7.63844,0.57132 1.48983,1.89401 2.66282,2.46228 4.23425,2.05134 1.19546,-0.31262 3.02958,-0.11027 4.07582,0.44966 1.34879,0.72185 2.32975,0.66325 3.37161,-0.20141 0.80815,-0.67071 4.32799,-1.35048 7.82188,-1.5106 3.49388,-0.16012 8.31641,-1.14991 10.71671,-2.19954 2.40031,-1.04963 7.0642,-2.94816 10.3642,-4.21896 3.3,-1.27081 7.2176,-3.15495 8.70577,-4.18699 1.48818,-1.03205 4.07568,-2.35399 5.75,-2.93767 C 466.6301,426.2819 468,425.15925 468,424.37079 c 0,-0.78846 0.64659,-1.68168 1.43686,-1.98493 0.79027,-0.30326 1.19212,-1.18914 0.89301,-1.96862 -0.31962,-0.83291 0.0716,-1.41724 0.94883,-1.41724 1.80687,0 6.23129,-2.20665 6.51637,-3.25 0.11271,-0.4125 0.20701,-1.0875 0.20956,-1.5 0.003,-0.4125 1.36472,-2.20112 3.02705,-3.97471 1.66234,-1.7736 2.92435,-3.3486 2.80448,-3.5 C 483.28947,406.08476 489.17498,395 490.08831,395 c 0.56635,0 0.75161,-0.45 0.41169,-1 -0.33992,-0.55 -0.11492,-1 0.5,-1 0.61492,0 0.83992,-0.45 0.5,-1 -0.33992,-0.55 -0.21648,-1 0.27432,-1 0.91219,0 1.23329,-1.27189 1.32539,-5.25 0.0555,-2.39806 1.4036,-8.02126 3.29636,-13.75 1.03893,-3.14449 1.26129,-11.29817 0.77043,-28.25 -0.20558,-7.09954 -1.06158,-7.25394 -9.27889,-1.67368 C 482.05968,346.03399 460.26395,357 458.22572,357 c -1.5666,0 -2.33767,2.84683 -2.96675,10.9533 -1.74972,22.54719 -23.47979,41.77603 -45.75897,40.4919 -12.27536,-0.70752 -18.9115,-2.13743 -21.08962,-4.54423 C 387.46419,402.85544 386.09523,402 385.36827,402 c -2.20935,0 -9.01352,-9.5341 -10.21803,-14.31763 -0.6225,-2.47217 -1.56606,-7.56112 -2.09679,-11.30876 -0.80858,-5.70961 -0.71224,-7.09316 0.59444,-8.53703 1.43865,-1.58969 1.27986,-1.83993 -2.0506,-3.23148 -4.13918,-1.72946 -6.19731,-5.61544 -4.5773,-8.64246 0.92774,-1.73348 1.85752,-1.85336 10.25015,-1.32154 l 9.22986,0.58488 2.73908,-4.29632 c 1.50649,-2.36297 2.98896,-5.90131 3.29437,-7.86299 0.30541,-1.96167 1.02287,-5.14969 1.59436,-7.0845 1.07335,-3.63392 0.72857,-17.95184 -0.5173,-21.48217 -0.59051,-1.67328 0.0779,-2.36418 4.09184,-4.22932 7.05343,-3.2775 16.17623,-3.86567 27.12893,-1.74905 8.71116,1.68344 9.47189,2.04594 16.22808,7.73298 5.99364,5.04515 7.69356,7.22389 11.00595,14.10606 2.15461,4.47663 3.92135,9.16595 3.92608,10.42071 0.005,1.25477 0.66854,2.53463 1.47511,2.84414 2.1338,0.81881 23.24324,-9.73926 29.02525,-14.51724 2.71572,-2.24414 5.51188,-5.17617 6.21369,-6.51562 1.3025,-2.4859 0.78517,-8.17141 -0.8346,-9.17249 C 491.39188,313.12416 491,311.5406 491,309.90114 c 0,-1.63945 -0.93947,-4.82232 -2.0877,-7.07305 -1.14824,-2.25072 -2.16074,-5.76364 -2.25,-7.80649 -0.0893,-2.04284 -0.74059,-4.41104 -1.44739,-5.26267 -0.70679,-0.85162 -1.1992,-1.93328 -1.09423,-2.40367 0.10497,-0.47039 -0.8089,-3.0122 -2.03082,-5.64846 -1.22192,-2.63626 -2.08499,-5.8362 -1.91794,-7.11098 0.16705,-1.27477 -0.22783,-2.95826 -0.87752,-3.74109 -1.05,-1.26517 -3.21184,-10.98853 -3.63623,-16.35473 -0.087,-1.1 -0.48054,-2.24221 -0.87455,-2.53824 -0.394,-0.29603 -0.99408,-3.22103 -1.3335,-6.5 -0.33942,-3.27897 -0.90646,-6.63676 -1.2601,-7.46176 -0.35363,-0.825 -0.6988,-5.1 -0.76704,-9.5 -0.16526,-10.65625 -1.25695,-22.19341 -2.50753,-26.5 -0.84042,-2.89417 -0.66351,-4.18162 1.02206,-7.43782 2.03076,-3.92305 2.03104,-3.95031 0.0745,-7.26637 -1.4779,-2.50485 -1.99949,-5.36604 -2.10776,-11.56217 -0.0943,-5.3954 -0.79199,-9.88379 -2.02407,-13.02066 -1.03411,-2.63286 -1.8802,-5.74743 -1.8802,-6.92126 0,-1.17383 -0.61628,-2.84467 -1.36951,-3.71298 -0.75323,-0.86831 -1.76573,-2.81624 -2.25,-4.32874 -0.48427,-1.5125 -1.33049,-2.76399 -1.88049,-2.78109 -1.78868,-0.0556 -1.71497,5.13607 0.10142,7.14315 1.25775,1.38981 1.4459,2.24062 0.66759,3.01893 C 458.4907,155.9093 457.85124,155.59055 457,154 c -0.8668,-1.61962 -1.48283,-1.91717 -2.29264,-1.10736 -1.54428,1.54428 -3.70736,1.38325 -3.70736,-0.27601 0,-0.76085 0.9,-1.61872 2,-1.90638 1.2973,-0.33925 2,-1.36401 2,-2.91663 0,-1.31649 0.54,-2.93362 1.2,-3.59362 1.9803,-1.9803 -0.67589,-4.00841 -3.19189,-2.43714 -1.34188,0.83802 -2.71558,0.91866 -4.44549,0.26095 -1.94004,-0.7376 -2.70224,-0.59674 -3.38643,0.62584 -0.71468,1.27706 -1.29193,1.35877 -3.02955,0.42883 C 440.96599,142.44661 440,141.19202 440,140.2905 c 0,-1.38612 -0.3473,-1.31698 -2.25,0.44794 -3.04446,2.82399 -8.67038,3.35045 -10.14043,0.94891 -0.90079,-1.47157 -0.68216,-2.16358 1.16193,-3.6777 1.32966,-1.09174 1.84795,-2.12681 1.25,-2.49637 C 429.45967,135.16606 429,134.38864 429,133.7857 c 0,-0.77704 4.55338,-0.89994 15.63641,-0.42206 l 15.63641,0.67421 8.21633,4.0141 c 7.20765,3.52131 9.05069,5.0154 15.01275,12.17033 9.25413,11.10569 15.61054,26.83754 19.10241,47.27772 1.98368,11.61177 4.31388,33.54962 3.72624,35.08099 -0.25022,0.65205 0.24805,2.86803 1.10726,4.9244 0.8592,2.05637 1.56219,5.43821 1.56219,7.51519 0,2.22748 1.18196,6.02327 2.88181,9.25473 1.58499,3.01312 3.45415,7.22132 4.15367,9.35155 1.45918,4.44352 4.7323,11.17402 6.50353,13.37314 0.66447,0.825 1.75261,3.19564 2.41808,5.26808 0.66547,2.07245 2.74737,6.71765 4.62643,10.32267 1.87906,3.60502 3.41648,7.24848 3.41648,8.09658 0,0.84811 1.07574,3.62791 2.39052,6.17734 3.20149,6.20783 6.62762,16.26509 7.67424,22.52747 3.74238,22.39205 4.04708,25.51928 3.46102,35.52236 -0.3356,5.72798 -1.46193,13.60298 -2.50296,17.5 -1.04104,3.89703 -2.43355,9.5605 -3.09446,12.5855 -1.53433,7.02259 -7.12299,18.22056 -11.2375,22.51653 -1.75497,1.83237 -4.01034,4.5053 -5.01192,5.93984 -1.00158,1.43454 -3.70158,3.77196 -6,5.19426 -2.29842,1.4223 -5.53001,3.86303 -7.18131,5.42384 -4.15781,3.92996 -18.19102,11.77997 -22.46568,12.56703 -1.94257,0.35767 -5.33195,1.30609 -7.53195,2.1076 -2.2,0.80151 -7.58575,1.99386 -11.96833,2.64967 -7.83255,1.17206 -7.9795,1.24705 -8.62453,4.40088 -0.70127,3.42885 -0.35825,17.80806 0.66198,27.74911 0.81765,7.96713 -0.002,8.62783 -10.22432,8.24501 L 443.5,491.5 l 0,-3.5 c 0,-3.11782 0.38218,-3.62355 3.5,-4.63144 l 3.5,-1.13144 0.15953,-13.05116 c 0.1147,-9.38341 -0.20788,-13.55362 -1.14785,-14.8391 -1.12605,-1.53996 -2.95123,-1.79203 -13.15953,-1.8174 L 424.5,452.5 l 0.21494,4 c 0.11821,2.2 0.38088,8.275 0.5837,13.5 0.20282,5.225 0.72379,11.79924 1.1577,14.60942 l 0.78894,5.10942 -3.27186,1.14058 C 422.17389,491.48674 418.52908,492 415.87383,492 c -4.0421,0 -5.09347,-0.40557 -6.46073,-2.49228 z M 338.25,389.5189 C 332.65523,384.03862 331.77405,382 335,382 c 1.48067,0 2,0.66667 2,2.56739 0,1.97843 0.40145,2.44697 1.75,2.04246 2.50215,-0.75053 6.25,2.72774 6.25,5.80044 0,1.42434 -0.3375,2.51354 -0.75,2.42044 -0.4125,-0.0931 -3.1125,-2.48342 -6,-5.31183 z M 333.2,343.8 c -2.22166,-2.22166 -1.22588,-3.86034 3.55,-5.84194 2.6125,-1.08397 5.92068,-2.62895 7.35151,-3.43328 2.21898,-1.24739 2.87871,-1.25973 4.48672,-0.0839 1.84198,1.34688 1.83965,1.42893 -0.10151,3.57691 C 346.34776,340.38463 337.9175,345 335.73324,345 334.99996,345 333.86,344.46 333.2,343.8 Z m -20.24448,-5.05 c -0.0245,-0.1375 -0.19913,-2.3875 -0.38813,-5 -0.29741,-4.11086 -0.0896,-4.75 1.54448,-4.75 4.19197,0 7.42308,6.06505 4.68813,8.8 -1.0002,1.0002 -5.69963,1.76408 -5.84448,0.95 z M 347.85,314.06336 c -0.0825,-1.68485 -0.195,-3.62586 -0.25,-4.31336 -0.18859,-2.35739 3.93673,-1.87204 6.40315,0.75335 3.02182,3.21658 1.83364,5.84356 -2.854,6.31001 -2.8888,0.28745 -3.16155,0.0601 -3.29915,-2.75 z"
       style="fill:#86c533" />
    <path
       id="path9624"
       d="m 409.4131,489.50772 c -2.13204,-3.25391 -1.35351,-4.98731 3.30808,-7.36548 l 3.81863,-1.94811 -0.22628,-8.34707 c -0.32011,-11.80864 -1.7185,-20.86128 -3.38125,-21.88891 -0.77828,-0.48101 -3.89393,-1.12058 -6.92367,-1.42127 -6.64999,-0.66 -21.56992,-5.38033 -24.43984,-7.73223 -1.96785,-1.61264 -1.87364,-1.62698 1.93123,-0.29389 2.2,0.7708 6.475,1.44803 9.5,1.50496 3.025,0.0569 7.72854,0.46915 10.45232,0.91606 2.72378,0.44691 6.29565,0.4273 7.9375,-0.0436 1.83822,-0.52719 4.38464,-0.43684 6.62759,0.23516 6.82203,2.04393 29.4834,-5.15148 45.12883,-14.32925 7.73166,-4.53547 15.42819,-12.74628 20.90084,-22.29739 7.48745,-13.06745 8.99928,-16.68529 10.01044,-23.95531 0.57811,-4.15642 1.6042,-9.0161 2.28022,-10.79927 1.11109,-2.93083 1.33523,-10.50135 0.82876,-27.99214 -0.20558,-7.09954 -1.06158,-7.25394 -9.27889,-1.67368 -3.30146,2.24198 -11.26427,6.54398 -17.69513,9.56001 -6.43086,3.01603 -12.81748,6.08348 -14.19248,6.81656 -4.73199,2.52286 -22.51197,7.34057 -29.5,7.99341 -3.85,0.35968 -11.13734,1.03738 -16.1941,1.50601 -17.06223,1.58122 -40.00316,-1.64959 -42.30921,-5.95849 -1.41887,-2.65119 -1.23278,-6.68925 0.33602,-7.29125 0.73299,-0.28128 7.92121,-0.12278 15.97383,0.35221 8.86927,0.52315 17.90376,0.48847 22.91729,-0.088 4.55189,-0.52338 10.52617,-0.96193 13.27617,-0.97454 5.85035,-0.0268 18.54719,-3.05264 24.84137,-5.91998 2.42333,-1.10395 6.60038,-2.49553 9.28234,-3.09239 7.63927,-1.70009 26.37909,-11.29276 33.20762,-16.99855 4.77155,-3.98701 6.1606,-5.75765 6.13305,-7.81787 -0.0532,-3.9803 -2.47236,-13.07007 -4.83397,-18.16345 -1.14757,-2.475 -2.09637,-5.67561 -2.10845,-7.11246 C 487.00988,293.45068 485.65,289.00129 484,285 c -1.65,-4.00129 -3,-8.36777 -3,-9.70328 0,-1.33551 -0.53414,-3.41112 -1.18698,-4.61246 -1.07197,-1.97264 -2.9696,-10.34384 -5.82223,-25.68426 -1.59607,-8.58305 -3.8615,-46.23848 -3.04909,-50.68119 0.45693,-2.49874 0.23623,-5.63636 -0.59107,-8.40324 -0.72615,-2.42856 -1.3271,-7.16945 -1.33545,-10.5353 C 469.00683,172.01442 468.1,166.4433 467,163 c -1.1,-3.4433 -2,-6.82254 -2,-7.50943 0,-0.68689 -1.17162,-3.80804 -2.6036,-6.93589 -1.84385,-4.0275 -4.01579,-6.76198 -7.44305,-9.37085 -2.6617,-2.02611 -4.86508,-4.02133 -4.8964,-4.43383 -0.0313,-0.4125 2.237,-0.75 5.04072,-0.75 3.923,0 6.99992,0.92934 13.35274,4.03303 7.25135,3.54265 9.08143,5.02472 15.05149,12.18925 9.25413,11.10569 15.61054,26.83754 19.10241,47.27772 1.98368,11.61177 4.31388,33.54962 3.72624,35.08099 -0.25022,0.65205 0.24805,2.86803 1.10726,4.9244 0.8592,2.05637 1.56219,5.43821 1.56219,7.51519 0,2.22748 1.18196,6.02327 2.88181,9.25473 1.58499,3.01312 3.45415,7.22132 4.15367,9.35155 1.45918,4.44352 4.7323,11.17402 6.50353,13.37314 0.66447,0.825 1.75261,3.19564 2.41808,5.26808 0.66547,2.07245 2.74737,6.71765 4.62643,10.32267 1.87906,3.60502 3.41648,7.24848 3.41648,8.09658 0,0.84811 1.07574,3.62791 2.39052,6.17734 3.20149,6.20783 6.62762,16.26509 7.67424,22.52747 3.74238,22.39205 4.04708,25.51928 3.46102,35.52236 -0.3356,5.72798 -1.46193,13.60298 -2.50296,17.5 -1.04104,3.89703 -2.43355,9.5605 -3.09446,12.5855 -1.53433,7.02259 -7.12299,18.22056 -11.2375,22.51653 -1.75497,1.83237 -4.01034,4.5053 -5.01192,5.93984 -1.00158,1.43454 -3.70158,3.77196 -6,5.19426 -2.29842,1.4223 -5.53001,3.86303 -7.18131,5.42384 -4.15781,3.92996 -18.19102,11.77997 -22.46568,12.56703 -1.94257,0.35767 -5.33195,1.30609 -7.53195,2.1076 -2.2,0.80151 -7.58575,1.99386 -11.96833,2.64967 -7.83255,1.17206 -7.9795,1.24705 -8.62453,4.40088 -0.70127,3.42885 -0.35825,17.80806 0.66198,27.74911 0.81765,7.96713 -0.002,8.62783 -10.22432,8.24501 L 443.5,491.5 l 0,-3.5 c 0,-3.11782 0.38218,-3.62355 3.5,-4.63144 l 3.5,-1.13144 0.15953,-13.05116 c 0.1147,-9.38341 -0.20788,-13.55362 -1.14785,-14.8391 -1.12605,-1.53996 -2.95123,-1.79203 -13.15953,-1.8174 L 424.5,452.5 l 0.21494,4 c 0.11821,2.2 0.38088,8.275 0.5837,13.5 0.20282,5.225 0.72379,11.79924 1.1577,14.60942 l 0.78894,5.10942 -3.27186,1.14058 C 422.17389,491.48674 418.52908,492 415.87383,492 c -4.0421,0 -5.09347,-0.40557 -6.46073,-2.49228 z M 333.66667,343.33333 c -1.77303,-1.77302 -0.0884,-3.59169 6.21036,-6.70464 6.99317,-3.45611 9.62104,-3.45871 8.95888,-0.009 -0.66302,3.45432 -12.9781,8.90465 -15.16924,6.7135 z M 312.95552,338.75 c -0.0245,-0.1375 -0.19913,-2.3875 -0.38813,-5 -0.29741,-4.11086 -0.0896,-4.75 1.54448,-4.75 4.19197,0 7.42308,6.06505 4.68813,8.8 -1.0002,1.0002 -5.69963,1.76408 -5.84448,0.95 z M 347.85,314.06336 c -0.0825,-1.68485 -0.195,-3.62586 -0.25,-4.31336 -0.18859,-2.35739 3.93673,-1.87204 6.40315,0.75335 3.02182,3.21658 1.83364,5.84356 -2.854,6.31001 -2.8888,0.28745 -3.16155,0.0601 -3.29915,-2.75 z"
       style="fill:#749547" />
    <path
       id="path9622"
       d="m 410.25,490.89447 c -0.6875,-0.71196 -1.25,-2.55093 -1.25,-4.0866 0,-2.24589 0.73363,-3.13756 3.75,-4.55784 l 3.75,-1.7657 -0.14515,-8.49217 c -0.2002,-11.71226 -1.38976,-20.77624 -2.8901,-22.02142 -0.69239,-0.57463 -4.5677,-1.43023 -8.61182,-1.90133 -4.04411,-0.47111 -8.70293,-1.4313 -10.35293,-2.13376 -2.91606,-1.24146 -2.79308,-1.30193 4.39511,-2.16132 4.99382,-0.59703 7.73764,-0.54158 8.45,0.17078 0.58019,0.58019 1.75239,1.048 2.60489,1.03958 1.17321,-0.0116 1.24042,-0.21179 0.2765,-0.82354 -0.7399,-0.46958 0.79099,-0.77742 3.6536,-0.73469 2.70991,0.0404 4.76528,0.33604 4.56749,0.65687 -0.19779,0.32084 1.6633,0.58334 4.13574,0.58334 2.47245,0 3.98961,-0.31257 3.37148,-0.6946 -1.6647,-1.02884 2.54781,-1.89463 6.86775,-1.41152 3.08735,0.34527 3.27628,0.26905 1.17744,-0.47497 -2.32162,-0.82299 -2.34529,-0.89333 -0.33179,-0.9859 1.19252,-0.0548 2.99252,-0.36713 4,-0.69401 1.52346,-0.49429 1.5793,-0.41271 0.33179,0.48468 -1.76719,1.27123 -0.34799,1.33347 2.5,0.10965 1.36794,-0.58782 1.52596,-0.89401 0.5,-0.96886 -0.825,-0.0602 0.009,-0.76463 1.85331,-1.56545 1.84433,-0.80081 3.71622,-1.23174 4.15976,-0.95761 1.31625,0.81348 4.03052,-0.62853 3.32668,-1.76737 -0.35921,-0.58122 -0.17377,-0.75616 0.4155,-0.39197 1.51892,0.93874 4.36087,-0.35184 3.57496,-1.62346 -0.41766,-0.6758 -0.0269,-0.82285 1.06909,-0.4023 2.20727,0.84701 7.90252,-2.02561 6.97889,-3.52008 -0.41191,-0.66648 -0.23299,-0.83119 0.44663,-0.41116 1.54435,0.95445 4.93552,-0.92115 9.42518,-5.21292 3.62228,-3.46262 5.06573,-6.08732 2.5,-4.54588 -0.87978,0.52856 -0.85137,0.25933 0.0959,-0.90901 0.74025,-0.91299 1.86525,-1.56188 2.5,-1.44196 0.63475,0.11992 1.00409,-0.45697 0.82076,-1.28197 -0.18334,-0.825 2.6e-4,-1.1664 0.40799,-0.75868 0.8578,0.8578 3.42534,-1.0058 3.42534,-2.48621 0,-0.55 -0.7875,-0.3824 -1.75,0.37245 -1.58363,1.24196 -1.62039,1.20712 -0.38669,-0.36655 0.74982,-0.95644 1.73974,-1.50634 2.19982,-1.22199 1.16236,0.71838 3.21078,-3.38284 2.54986,-5.10516 -0.30097,-0.78432 -0.002,-1.30427 0.673,-1.17186 0.6677,0.1309 1.21975,-0.51774 1.22676,-1.44142 0.007,-0.92368 0.41667,-2.04868 0.91033,-2.5 0.51289,-0.4689 0.58927,-0.28485 0.17823,0.42942 -0.39564,0.6875 -0.47426,1.25 -0.17472,1.25 1.62013,0 6.65919,-12.72556 7.59603,-19.18289 0.58386,-4.02441 1.71707,-9.13068 2.51822,-11.34727 1.1211,-3.10177 1.35426,-7.53797 1.01216,-19.25772 -0.24448,-8.37515 -0.73179,-15.69239 -1.08291,-16.26052 -0.90064,-1.45726 -4.23205,-0.22401 -9.47009,3.50574 -6.13186,4.36619 -15.72588,9.43538 -26.5,14.0018 -8.98219,3.80695 -12.00685,5.40619 -7.75,4.0977 1.2375,-0.38039 2.25,-0.45177 2.25,-0.15863 0,1.17943 -22.96126,7.44796 -29.5,8.05364 -3.85,0.35663 -11.13734,1.03183 -16.1941,1.50046 -8.7907,0.81467 -26.71653,-0.0133 -32.67722,-1.50937 -2.12081,-0.53229 -2.4857,-0.93733 -1.4737,-1.63587 0.87449,-0.60363 0.16429,-0.69487 -2.03009,-0.26081 -2.59953,0.5142 -3.19376,0.37419 -2.58595,-0.60927 0.55793,-0.90275 0.31098,-1.09338 -0.84287,-0.6506 -0.89761,0.34444 -1.94096,0.12639 -2.31855,-0.48457 -0.44032,-0.71246 -0.18284,-0.84951 0.71797,-0.38217 1.02891,0.5338 1.00337,0.37455 -0.0955,-0.59549 -1.51216,-1.3349 -2.2408,-7.09102 -0.78362,-6.19043 0.43099,0.26637 0.78362,0.008 0.78362,-0.57471 0,-0.58246 1.15156,-1.05902 2.55902,-1.05902 1.40746,0 2.35067,0.3375 2.09602,0.75 -0.58964,0.95516 25.27196,0.84458 40.34496,-0.1725 6.325,-0.42679 14.875,-1.6159 19,-2.64247 4.125,-1.02657 8.625,-2.14594 10,-2.4875 2.03262,-0.50492 2.21957,-0.40362 1,0.54185 -1.33333,1.03367 -1.33333,1.11276 0,0.71175 0.825,-0.24812 1.3842,-0.96727 1.24268,-1.5981 -0.28042,-1.24989 2.83834,-2.66179 8.87633,-4.01843 2.25707,-0.50714 3.6361,-0.49738 3.31422,0.0234 -0.75298,1.21834 -0.2191,1.1276 3.16313,-0.53765 1.597,-0.78629 6.27864,-2.97388 10.40364,-4.86132 8.73432,-3.99648 23.55231,-14.72315 24.51086,-17.74329 0.90864,-2.86288 -1.46961,-12.63159 -2.63472,-10.82213 -0.54459,0.84578 -0.64903,0.18508 -0.27744,-1.75515 0.38797,-2.02578 -0.0171,-4.29388 -1.16099,-6.5 -0.96628,-1.86368 -2.26257,-5.8635 -2.88063,-8.8885 -0.72584,-3.55249 -1.58089,-5.4027 -2.41475,-5.22522 -0.71004,0.15112 -1.01877,-0.16568 -0.68607,-0.70401 0.33271,-0.53834 0.30665,-2.16725 -0.0579,-3.6198 -0.50775,-2.02304 -0.88797,-2.32629 -1.62493,-1.29599 -0.74103,1.03599 -0.84067,0.96364 -0.4337,-0.3149 0.29061,-0.91295 0.12694,-3.16295 -0.36372,-5 -0.49065,-1.83704 -1.14917,-4.59598 -1.46336,-6.13098 -0.35346,-1.7268 -1.00027,-2.52576 -1.69646,-2.09549 -0.67317,0.41604 -0.84787,0.2467 -0.43487,-0.42155 1.05633,-1.70918 -1.43554,-14.71003 -2.50197,-13.05356 -0.5363,0.83302 -0.62241,0.0396 -0.22183,-2.04399 0.39161,-2.03704 0.27708,-3.17211 -0.28502,-2.82471 -0.51685,0.31942 -0.95066,-0.39811 -0.96403,-1.59451 -0.0134,-1.19641 -0.16398,-4.65029 -0.33469,-7.67529 -0.27,-4.78429 -0.41008,-5.10961 -1.07646,-2.5 -0.45767,1.79226 -0.65929,-1.22708 -0.50081,-7.5 0.21455,-8.49295 0.12081,-9.35312 -0.49045,-4.5 -0.67924,5.39289 -0.72981,5.10283 -0.49977,-2.86664 0.14076,-4.87664 -0.0281,-8.40677 -0.37517,-7.84473 -0.74212,1.20168 -0.54244,-9.97407 0.37783,-21.1459 0.46778,-5.67874 0.33721,-7.66567 -0.47093,-7.16622 -0.77254,0.47746 -0.92622,-0.18485 -0.4972,-2.14272 0.41863,-1.91044 0.31398,-2.39895 -0.32118,-1.49926 -1.51044,2.13952 -2.16484,-2.1 -1.51697,-9.82775 0.59646,-7.11451 -0.15672,-12.46222 -1.62718,-11.55342 -0.47625,0.29433 -1.13805,-0.17407 -1.47069,-1.04089 -0.92809,-2.41857 -0.69266,-3.07722 0.50487,-1.41247 0.89739,1.24751 0.97897,1.19167 0.48468,-0.33179 -0.32688,-1.00748 -0.60122,-2.58248 -0.60964,-3.5 -0.0133,-1.44833 -0.14999,-1.4705 -1.0371,-0.16821 -0.7411,1.08794 -0.84957,0.5013 -0.39488,-2.13548 0.37793,-2.19166 0.19864,-3.90016 -0.45145,-4.30194 -0.6791,-0.4197 -0.87475,7e-4 -0.52845,1.13548 0.30244,0.99107 -0.35495,0.22694 -1.46088,-1.69806 -1.10593,-1.925 -1.79023,-4.24963 -1.52068,-5.16584 0.26956,-0.91622 -0.0477,-1.99825 -0.70508,-2.40451 -0.8196,-0.50654 -0.93884,-0.2973 -0.37943,0.66584 0.44867,0.77248 -0.36793,0.3266 -1.81467,-0.99085 -1.44674,-1.31745 -2.41196,-2.74885 -2.14494,-3.1809 0.26702,-0.43205 -0.0414,-1.11117 -0.68533,-1.50915 -0.73122,-0.45192 -0.90292,-0.29014 -0.45729,0.4309 0.39244,0.63498 0.34947,1.13954 -0.0955,1.12124 C 454.20951,138.92152 450,135.3539 450,134.46726 c 0,-0.39168 0.74818,-0.0945 1.66262,0.6603 1.29619,1.06996 1.75534,1.09695 2.08333,0.12244 0.6149,-1.82695 4.32738,-1.53093 9.87693,0.78757 11.0202,4.60402 13.47492,6.41481 20.28324,14.96243 12.59465,15.81218 19.59512,39.80823 21.96058,75.27604 0.44216,6.62965 1.29843,12.28909 1.95934,12.95 0.64568,0.64568 1.17396,2.81681 1.17396,4.82474 0,4.08029 1.64499,9.67215 3.51518,11.94922 0.67758,0.825 1.79029,3.3 2.4727,5.5 0.6824,2.2 3.14889,7.825 5.48108,12.5 12.40068,24.85778 20.61519,45.21792 21.98861,54.5 0.4069,2.75 1.10011,5.675 1.54046,6.5 0.44035,0.825 1.05932,4.2 1.37549,7.5 0.31618,3.3 0.84383,8.7 1.17256,12 0.67613,6.78737 -0.66723,20.0666 -2.9337,29 -0.83724,3.3 -2.06286,8.47467 -2.72361,11.49926 -1.40916,6.45049 -7.83663,19.11821 -11.69193,23.0433 -1.48326,1.51011 -3.75549,4.15771 -5.0494,5.88355 -1.2939,1.72583 -3.9939,3.97969 -6,5.00857 -2.00609,1.02888 -4.74511,3.04664 -6.08672,4.48393 -3.96958,4.25269 -17.54316,11.63791 -25.32493,13.77899 -10.92414,3.00567 -18.93819,4.75836 -21.86335,4.78156 -4.49704,0.0357 -4.91764,1.59687 -4.40281,16.34262 0.26135,7.48559 0.73756,14.65554 1.05824,15.93322 0.32067,1.27769 0.11923,3.543 -0.44766,5.03403 -0.99128,2.60728 -1.30896,2.71038 -8.30546,2.69566 -8.55551,-0.018 -10.05028,-0.71993 -9.60483,-4.51026 0.25811,-2.19618 1.09323,-3.06402 3.83008,-3.98012 l 3.5,-1.17156 0.22004,-13.34501 c 0.12895,-7.82085 -0.19626,-13.84662 -0.78563,-14.55677 -1.30612,-1.57378 -5.4873,-2.25876 -15.83096,-2.59347 -7.56202,-0.24471 -8.53391,-0.0648 -9.77867,1.80988 -1.0826,1.63048 -1.13825,2.70801 -0.2568,4.9721 0.61892,1.58979 1.23665,7.16552 1.37272,12.39052 0.13608,5.225 0.58925,11.31867 1.00706,13.54149 0.59132,3.14595 0.40644,4.33462 -0.83433,5.36437 -2.28489,1.89629 -13.77308,2.63553 -15.36343,0.98861 z m -74,-147.71336 c -3.99464,-0.5685 -2.40643,-2.71436 4.33181,-5.85277 5.51847,-2.5703 6.67561,-2.82108 7.16248,-1.55234 0.33371,0.86964 -0.23271,2.07516 -1.33181,2.8345 -1.05186,0.72671 -2.42703,1.75959 -3.05592,2.29528 -0.6289,0.5357 -1.4164,0.70105 -1.75,0.36744 -0.33361,-0.3336 -0.60656,-0.055 -0.60656,0.61913 0,0.67413 -0.41157,0.97132 -0.91459,0.66044 -0.50302,-0.31089 -1.06552,-0.22465 -1.25,0.19164 -0.18448,0.41629 -1.34791,0.61279 -2.58541,0.43668 z m -23.41612,-8.80197 c -0.40312,-5.06851 0.67996,-6.24488 4.07617,-4.42728 4.48376,2.39964 3.43168,9.04814 -1.4318,9.04814 -1.98764,0 -2.32355,-0.58698 -2.64437,-4.62086 z M 348.92872,316.75 c -0.74348,-2.60748 -0.72472,-7.75805 0.03,-8.22446 2.82167,-1.74389 8.11422,4.47677 5.98827,7.03838 -0.96889,1.16744 -5.75462,2.11062 -6.01823,1.18608 z"
       style="fill:#729f38" />
    <path
       id="path9620"
       d="m 410.25,490.89447 c -0.6875,-0.71196 -1.25,-2.55093 -1.25,-4.0866 0,-2.24589 0.73363,-3.13756 3.75,-4.55784 l 3.75,-1.7657 -0.14515,-8.49217 c -0.2002,-11.71226 -1.38976,-20.77624 -2.8901,-22.02142 -0.69239,-0.57463 -4.5677,-1.43023 -8.61182,-1.90133 C 397.73249,447.23993 392,445.64206 392,444.48678 c 0,-0.3095 7.5375,-0.34127 16.75,-0.0706 9.2125,0.27067 18.4375,0.0628 20.5,-0.46202 13.67486,-3.47943 14.18558,-3.67545 30.57381,-11.73477 7.86924,-3.86989 10.32664,-5.70569 15.75189,-11.76746 9.94186,-11.10827 17.9255,-26.14815 19.44692,-36.63481 0.58386,-4.02441 1.71707,-9.13068 2.51822,-11.34727 1.1211,-3.10177 1.35426,-7.53797 1.01216,-19.25772 -0.24448,-8.37515 -0.73179,-15.69239 -1.08291,-16.26052 -0.91187,-1.47542 -4.27586,-0.20375 -9.4794,3.58344 -9.82738,7.15248 -34.05017,17.85052 -49.49069,21.85765 -14.45498,3.75137 -45.88598,5.19368 -59,2.70741 -8.99466,-1.70529 -11.71947,-3.37065 -11.31038,-6.91272 0.34843,-3.01685 -0.38114,-2.92933 15.31038,-1.83663 4.95,0.34469 9.93805,0.8898 11.08455,1.21135 1.14651,0.32155 6.54651,0.0375 12,-0.63112 5.4535,-0.66866 11.69606,-1.13396 13.87237,-1.03399 5.67367,0.26063 21.49793,-3.64553 26.04308,-6.42864 1.1,-0.67356 3.46249,-1.49323 5.24997,-1.8215 1.78749,-0.32826 5.16249,-1.46814 7.5,-2.53306 2.33752,-1.06492 7.62503,-3.48876 11.75003,-5.38632 9.2749,-4.26658 23.76086,-14.92648 24.5485,-18.0647 0.62627,-2.49524 -2.52685,-15.74461 -4.83582,-20.3201 -0.78899,-1.56347 -1.74185,-4.84534 -2.11746,-7.29306 -0.37562,-2.44771 -1.04939,-4.92271 -1.49727,-5.5 -0.97285,-1.25394 -4.4706,-11.87264 -6.43954,-19.54961 -5.78391,-22.55157 -8.00437,-40.91674 -8.16118,-67.5 -0.0487,-8.25 -0.43332,-16.00479 -0.85481,-17.23288 -0.42148,-1.22808 -1.15955,-6.17808 -1.64015,-11 -1.52958,-15.34624 -6.47186,-28.8382 -12.50386,-34.13437 -8.43088,-7.40241 -0.16508,-6.77931 15.31946,1.15482 2.86826,1.46967 6.59083,5.06607 11.08825,10.71243 12.59465,15.81218 19.59512,39.80823 21.96058,75.27604 0.44216,6.62965 1.29843,12.28909 1.95934,12.95 0.64568,0.64568 1.17396,2.81681 1.17396,4.82474 0,4.08029 1.64499,9.67215 3.51518,11.94922 0.67758,0.825 1.79029,3.3 2.4727,5.5 0.6824,2.2 3.14889,7.825 5.48108,12.5 12.40068,24.85778 20.61519,45.21792 21.98861,54.5 0.4069,2.75 1.10011,5.675 1.54046,6.5 0.44035,0.825 1.05932,4.2 1.37549,7.5 0.31618,3.3 0.84383,8.7 1.17256,12 0.67613,6.78737 -0.66723,20.0666 -2.9337,29 -0.83724,3.3 -2.06286,8.47467 -2.72361,11.49926 -1.40916,6.45049 -7.83663,19.11821 -11.69193,23.0433 -1.48326,1.51011 -3.75549,4.15771 -5.0494,5.88355 -1.2939,1.72583 -3.9939,3.97969 -6,5.00857 -2.00609,1.02888 -4.74511,3.04664 -6.08672,4.48393 -3.96958,4.25269 -17.54316,11.63791 -25.32493,13.77899 -10.92414,3.00567 -18.93819,4.75836 -21.86335,4.78156 -4.49704,0.0357 -4.91764,1.59687 -4.40281,16.34262 0.26135,7.48559 0.73756,14.65554 1.05824,15.93322 0.32067,1.27769 0.11923,3.543 -0.44766,5.03403 -0.99128,2.60728 -1.30896,2.71038 -8.30546,2.69566 -8.55551,-0.018 -10.05028,-0.71993 -9.60483,-4.51026 0.25811,-2.19618 1.09323,-3.06402 3.83008,-3.98012 l 3.5,-1.17156 0.22004,-13.34501 c 0.12895,-7.82085 -0.19626,-13.84662 -0.78563,-14.55677 -1.30612,-1.57378 -5.4873,-2.25876 -15.83096,-2.59347 -7.56202,-0.24471 -8.53391,-0.0648 -9.77867,1.80988 -1.0826,1.63048 -1.13825,2.70801 -0.2568,4.9721 0.61892,1.58979 1.23665,7.16552 1.37272,12.39052 0.13608,5.225 0.58925,11.31867 1.00706,13.54149 0.59132,3.14595 0.40644,4.33462 -0.83433,5.36437 -2.28489,1.89629 -13.77308,2.63553 -15.36343,0.98861 z M 334,341.63071 c 0,-1.10467 5.00744,-3.80913 12.4863,-6.7437 0.54247,-0.21286 1.1337,0.37835 1.31385,1.31379 0.22855,1.18675 -1.19291,2.47128 -4.70306,4.25 C 337.53601,343.26881 334,343.72744 334,341.63071 Z m -21.16612,-7.25157 c -0.40312,-5.06851 0.67996,-6.24488 4.07617,-4.42728 4.48376,2.39964 3.43168,9.04814 -1.4318,9.04814 -1.98764,0 -2.32355,-0.58698 -2.64437,-4.62086 z M 348.92872,316.75 c -0.74348,-2.60748 -0.72472,-7.75805 0.03,-8.22446 2.82167,-1.74389 8.11422,4.47677 5.98827,7.03838 -0.96889,1.16744 -5.75462,2.11062 -6.01823,1.18608 z"
       style="fill:#565749" />
    <path
       id="path9618"
       d="M 410.66667,490.33333 C 410.3,489.96667 410,488.42657 410,486.91089 c 0,-2.24918 0.62717,-2.96277 3.41157,-3.88171 1.87637,-0.61925 3.57689,-1.66665 3.77895,-2.32755 0.567,-1.8546 0.12101,-16.48042 -0.71415,-23.41972 -0.94635,-7.86318 -2.3614,-9.15966 -10.86398,-9.95364 -11.7275,-1.09514 -8.15925,-2.28225 5.59721,-1.86212 7.30972,0.22324 14.9779,-0.0153 17.0404,-0.53013 2.0625,-0.51481 5.6625,-1.41458 8,-1.99949 9.48432,-2.37324 29.43679,-11.81231 35.17449,-16.64026 4.16769,-3.50688 12.59424,-14.11472 14.13682,-17.79627 0.69135,-1.65 2.10985,-4.125 3.15221,-5.5 3.38625,-4.46688 7.0486,-14.35188 7.74142,-20.89481 0.37243,-3.51715 1.39042,-8.17748 2.2622,-10.35628 2.09559,-5.23739 1.22947,-33.23087 -1.10025,-35.56059 -1.97069,-1.97069 -5.25232,-0.98934 -10.66086,3.18808 -7.27039,5.61546 -31.9741,17.31566 -40.45603,19.16084 -1.65,0.35894 -4.8,1.25918 -7,2.00053 -8.9217,3.0064 -41.5759,5.07363 -54.91254,3.47634 -11.20419,-1.3419 -14.37271,-2.29091 -15.24587,-4.56632 -1.12224,-2.92451 1.10011,-3.2205 13.65841,-1.81914 20.83259,2.32469 54.19912,-1.15482 63.5,-6.62188 1.65,-0.96987 4.67933,-2.06202 6.73184,-2.42699 2.05251,-0.36498 6.32751,-1.93937 9.5,-3.49865 3.17249,-1.55928 6.89316,-3.17487 8.26816,-3.59021 6.79279,-2.05184 24.5563,-15.87488 25.56502,-19.89396 0.61303,-2.4425 -2.57123,-15.73402 -4.85234,-20.25429 -0.78899,-1.56347 -1.73057,-4.77482 -2.0924,-7.13634 -0.36184,-2.36153 -1.04657,-5.06153 -1.52163,-6 C 486.44682,284.94314 483,275.45325 483,274.16857 c 0,-0.71103 -0.63078,-3.40233 -1.40173,-5.98067 -3.59373,-12.01872 -6.60262,-29.60294 -7.13334,-41.6879 -0.14492,-3.3 -0.64632,-10.83824 -1.11421,-16.75163 -0.4679,-5.9134 -0.48746,-12.15068 -0.0435,-13.86062 0.50432,-1.94228 0.22287,-6.511 -0.75,-12.17458 C 471.70076,178.72709 471,172.8987 471,170.7612 471,162.71107 462.92364,142.79643 457.96773,138.6263 456.33548,137.25285 455,135.87507 455,135.56456 c 0,-1.67315 6.17635,-0.0853 13.40486,3.44621 7.41743,3.6238 8.85962,4.82846 14.94762,12.48577 6.5353,8.2199 10.2152,15.80711 15.2233,31.38738 2.66224,8.28225 5.81745,30.31897 6.87435,48.01204 0.24299,4.06779 0.91612,7.87029 1.49583,8.45 0.57972,0.57972 1.05404,2.94334 1.05404,5.25249 0,2.73093 1.04862,6.19191 3,9.90155 1.65,3.1367 3,6.31771 3,7.06891 0,0.7512 2.29783,5.99301 5.10629,11.64846 10.552,21.24873 12.9259,26.31755 12.91002,27.56587 -0.009,0.70579 1.07939,3.44551 2.41858,6.08827 3.15599,6.22804 6.5571,16.31162 7.63241,22.62849 3.60234,21.16179 4.03567,25.53994 3.51363,35.5 -0.30268,5.775 -1.2084,12.3498 -2.0127,14.61067 -0.80431,2.26087 -1.78009,6.50571 -2.16841,9.433 -0.38832,2.92728 -1.49821,7.48962 -2.46642,10.13854 C 536.65354,405.41965 530.17385,417 528.9636,417 c -0.51618,0 -2.07262,1.79654 -3.45875,3.99231 -1.38612,2.19577 -4.42927,5.18552 -6.76254,6.64388 -2.33327,1.45837 -5.86923,4.10593 -7.85769,5.88347 -8.65431,7.73634 -27.64804,15.34009 -42.51219,17.0189 -3.37016,0.38064 -6.67327,1.02934 -7.34025,1.44155 -1.63461,1.01025 -1.82557,5.0049 -1.02873,21.51989 0.37153,7.7 0.46557,14.8054 0.20899,15.78978 -0.40556,1.55595 -1.46242,1.75192 -8.08947,1.5 -7.17694,-0.27282 -7.64272,-0.42944 -7.96046,-2.67669 -0.37379,-2.6436 1.2046,-4.07452 4.5201,-4.09778 2.96206,-0.0208 3.25776,-1.53702 3.16277,-16.21748 -0.10452,-16.15319 0.11864,-15.89681 -14.61246,-16.78811 -14.14067,-0.85557 -14.71162,-0.5503 -13.73861,7.3458 0.41644,3.37946 0.83318,9.51948 0.92608,13.64448 0.0929,4.125 0.54591,9.62598 1.00668,12.22441 0.80459,4.53731 0.73094,4.76502 -1.85975,5.75 -3.01237,1.14529 -11.8679,1.39168 -12.90065,0.35892 z"
       style="fill:#47493a" />
    <path
       id="path9616"
       d="m 411.25,489.89258 c -2.30088,-2.37926 -1.38598,-4.81258 2.5,-6.64914 l 3.75,-1.7723 -0.19441,-13.52427 c -0.21836,-15.18993 -1.0505,-18.50479 -5.03766,-20.06779 -2.68726,-1.05342 -2.705,-1.10927 -0.60861,-1.91629 1.25212,-0.48202 3.62163,-0.38245 5.63991,0.23698 6.65956,2.04387 30.62055,-4.76025 44.70077,-12.69353 1.375,-0.77472 4.112,-2.30118 6.08222,-3.39214 3.61785,-2.00329 5.02861,-3.35445 11.08227,-10.6141 4.9936,-5.9884 7.83551,-10.25822 7.83551,-11.77242 0,-0.74437 1.334,-2.63145 2.96444,-4.19351 1.63045,-1.56207 2.78611,-3.12867 2.56814,-3.48135 -0.21796,-0.35268 0.53507,-2.64632 1.6734,-5.09698 1.13834,-2.45066 2.45764,-6.70574 2.9318,-9.45574 2.0591,-11.94249 2.56389,-14.12971 3.77849,-16.37217 0.70667,-1.30469 1.03371,-3.62794 0.72674,-5.16278 -0.36506,-1.8253 -0.0382,-3.22212 0.94494,-4.03804 0.83999,-0.69713 1.22131,-1.94877 0.86437,-2.83722 C 501.75363,352.86155 500,344.45223 500,340.53462 c 0,-3.5343 -0.48866,-4.72377 -2.56068,-6.23313 -3.05419,-2.22482 -3.60838,-7.35221 -1.09486,-10.12962 0.90695,-1.00217 1.68313,-2.91331 1.72485,-4.247 0.086,-2.75011 -2.9272,-13.49541 -5.41134,-19.29699 -0.91188,-2.12967 -1.66074,-5.05467 -1.66413,-6.5 -0.003,-1.44534 -0.67839,-3.91682 -1.5,-5.49219 -1.80603,-3.46291 -1.89957,-5.82996 -0.29384,-7.43569 0.93333,-0.93333 0.73276,-1.2 -0.9026,-1.2 -1.7366,0 -2.49416,-1.26199 -4.3521,-7.25 -2.31211,-7.45178 -2.71145,-9.20527 -5.40895,-23.75 -0.86704,-4.675 -1.97908,-10.525 -2.47121,-13 -0.49213,-2.475 -0.65561,-6.58414 -0.36328,-9.13142 0.29233,-2.54728 0.0439,-6.14728 -0.55213,-8 -0.93168,-2.8962 -1.2964,-13.24623 -0.91157,-25.86858 0.19166,-6.28643 -2.44179,-27.43895 -3.73495,-30 -0.69428,-1.375 -1.5943,-4.075 -2.00004,-6 -1.13065,-5.36431 -6.02223,-15.22084 -8.88108,-17.89536 -3.82701,-3.58025 -2.25486,-4.27656 4.15862,-1.84187 8.14916,3.09359 12.25576,6.21156 19.33549,14.68064 5.11161,6.11474 7.01947,9.50632 10.68804,19 2.45614,6.35613 4.86413,13.13159 5.35107,15.05659 1.77727,7.02591 4.90909,29.76915 5.50814,40 0.33814,5.775 1.2272,11.71515 1.97568,13.20034 0.74848,1.48519 1.36087,4.47699 1.36087,6.64845 0,2.45278 1.13624,6.10815 3,9.65121 1.65,3.1367 3,6.23259 3,6.87976 0,1.71346 6.62732,15.27188 7.82739,16.01356 0.56031,0.34629 1.33013,2.08695 1.71073,3.86815 0.38059,1.78119 2.16509,5.93853 3.96556,9.23853 1.80046,3.3 3.82852,7.8 4.5068,10 0.67828,2.2 2.0394,5.575 3.02471,7.5 3.58462,7.00323 8.22195,25.06113 9.50172,37 1.07574,10.03547 0.38162,29.24757 -1.19226,33 -0.80741,1.925 -1.85933,6.2 -2.3376,9.5 -1.26365,8.71899 -2.08546,11.21352 -6.25942,19 -3.9708,7.40747 -13.45958,18.00066 -20.6021,23 -2.35734,1.65 -6.61696,4.67324 -9.4658,6.71831 -2.84885,2.04508 -6.67398,4.44376 -8.50029,5.33041 -5.27788,2.56233 -19.96651,6.56083 -28.67944,7.80704 l -8,1.14424 0,19.5 0,19.5 -7.16923,0.29218 c -6.46583,0.26351 -7.23253,0.0927 -7.81454,-1.74105 -0.87384,-2.75322 -0.004,-3.86774 3.783,-4.84769 l 3.20077,-0.82822 0.2765,-14.64719 c 0.33906,-17.96104 0.9943,-17.21529 -16.01404,-18.22616 l -11.73754,-0.69761 -1.07681,2.83222 c -0.78727,2.07068 -0.75372,3.98615 0.12477,7.12381 0.67776,2.42073 0.95462,6.68433 0.63509,9.78031 -0.35775,3.4662 0.003,7.73085 0.97769,11.57342 1.35213,5.32794 1.36303,6.26587 0.0876,7.54125 -2.01743,2.01744 -11.89491,2.92117 -13.5233,1.23731 z"
       style="fill:#403e38" />
    <path
       id="path9614"
       d="m 411.52679,489.38393 c -2.15706,-2.15706 -1.56374,-3.55035 2.36188,-5.54638 1.79827,-0.91436 3.51956,-1.91244 3.82509,-2.21798 0.75096,-0.75096 0.61991,-14.33558 -0.23027,-23.86957 -0.65022,-7.29156 -0.57389,-7.75 1.29026,-7.75 1.08975,0 2.57809,-0.71901 3.30742,-1.5978 0.91918,-1.10754 2.31934,-1.43661 4.56327,-1.07247 1.96776,0.31932 3.38615,0.0785 3.61702,-0.61412 0.47459,-1.42377 12.92621,-3.81058 14.10141,-2.70306 1.17108,1.10366 -0.11801,2.98745 -2.04433,2.98745 -1.33109,0 -1.3626,0.24198 -0.21204,1.62832 1.23638,1.48975 0.50267,1.59613 -8.62201,1.25 L 423.51109,449.5 422.365,453 c -0.82639,2.5237 -0.84553,4.05788 -0.0686,5.5 0.59261,1.1 1.15217,6.05 1.24346,11 0.0913,4.95 0.51545,11.32526 0.94257,14.16724 l 0.77657,5.16724 -3.87949,1.07719 c -5.38481,1.49514 -7.96819,1.35677 -9.8527,-0.52774 z m 34.07738,0.8869 C 445.27188,489.93854 445,488.61667 445,487.33333 445,485.41781 445.52662,485 447.94098,485 c 1.61754,0 3.18986,-0.40268 3.49403,-0.89485 0.30418,-0.49216 0.7411,-7.46474 0.97094,-15.49461 l 0.4179,-14.59978 -2.8232,-2.0103 c -2.62447,-1.86879 -2.74288,-2.23873 -1.68204,-5.25538 1.46789,-4.17419 1.65072,-4.40296 2.48576,-3.11036 1.12746,1.74525 8.19563,2.71965 8.19563,1.12983 0,-0.72934 1.4625,-1.89215 3.25,-2.58401 2.95941,-1.14547 3.09492,-1.37509 1.51554,-2.56812 -0.95395,-0.72059 -1.44145,-1.60318 -1.08333,-1.9613 1.14161,-1.1416 2.07033,-0.7054 2.57052,1.20733 0.51747,1.97881 5.41325,3.49103 6.35723,1.96364 0.30922,-0.50034 -0.0244,-1.61656 -0.74144,-2.48051 -1.10138,-1.32709 -0.9424,-1.86334 1.0247,-3.4562 2.76107,-2.23578 4.96343,-2.42252 5.70734,-0.48392 0.71286,1.85768 4.20871,2.71616 5.1116,1.25526 0.39278,-0.63553 0.58431,-2.39329 0.42563,-3.90612 C 482.86527,429.15256 483.0753,429 486.92463,429 489.25866,429 491,428.52288 491,427.88337 c 0,-0.62569 0.88262,-0.88582 2.0075,-0.59166 1.30433,0.34109 2.50228,-0.18143 3.42008,-1.49178 0.79654,-1.13722 1.91899,-1.70377 2.57376,-1.2991 1.69975,1.0505 6.99866,-4.44722 6.99866,-7.26125 0,-2.87706 -3.1578,-2.78706 -3.58049,0.10205 -0.3621,2.47494 -1.03818,3.01868 -2.87638,2.31329 -2.11804,-0.81277 -1.93698,-2.10529 0.70687,-5.04616 2.55907,-2.84655 7.68673,-3.73609 10.08118,-1.74887 2.03636,1.69003 3.62798,0.69995 2.96295,-1.84312 -0.38119,-1.45768 0.3026,-2.4484 2.58756,-3.74901 3.55136,-2.02145 4.0437,-4.21301 1.11831,-4.97801 -1.1,-0.28766 -2,-1.34397 -2,-2.34736 0,-2.52175 1.68393,-3.32959 2.79649,-1.34157 0.82107,1.46719 1.08202,1.41072 2.43993,-0.52797 1.0011,-1.42926 2.73848,-2.24878 5.08581,-2.39894 5.01121,-0.32059 5.55727,-1.3884 2.13869,-4.1822 C 523.59538,388.33263 523,388.40047 523,392 c 0,3.60289 -0.92865,3.7693 -3.82569,0.68555 C 516.4509,389.7866 516.43859,389 519.11663,389 c 1.62395,0 1.99495,-0.4653 1.59388,-1.999 -0.62824,-2.40242 1.05011,-3.7884 1.90134,-1.57013 0.8897,2.31853 2.38815,0.85349 2.38815,-2.3349 0,-1.5323 0.86629,-3.56998 1.92509,-4.52818 1.46151,-1.32265 1.83393,-2.73803 1.54654,-5.87768 -0.26545,-2.90008 0.12874,-4.69603 1.31956,-6.01187 1.61287,-1.7822 1.55144,-1.99331 -1.22398,-4.20635 l -2.92207,-2.32997 3.84121,-2.26637 c 2.36948,-1.39803 3.31869,-2.44054 2.47743,-2.72096 -0.75008,-0.25002 -1.53628,0.0629 -1.74711,0.69541 -0.53158,1.59473 -2.21667,1.44649 -2.21667,-0.19501 0,-1.98234 -3.65135,-5.02814 -4.45974,-3.72013 -0.36206,0.58583 -1.31711,1.06514 -2.12233,1.06514 -1.24863,0 -1.22884,-0.35895 0.13449,-2.43965 0.89236,-1.36192 2.20667,-2.20629 2.97516,-1.91139 2.09034,0.80213 4.01591,-0.68122 2.32918,-1.79428 -1.07799,-0.71136 -0.8717,-1.30206 1.00402,-2.875 L 530.22157,342 l -4.11079,0 c -4.70612,0 -5.23289,-1.21866 -1.56544,-3.62166 2.1801,-1.42846 2.90046,-1.47771 5.0202,-0.34326 1.90135,1.01757 2.74827,1.05111 3.65467,0.14471 1.89216,-1.89216 -0.73692,-3.67979 -5.41192,-3.67979 -5.41795,0 -7.25289,-2.50549 -4.03233,-5.5059 2.58882,-2.41185 2.8174,-3.82918 0.74577,-4.62414 -1.95576,-0.75049 -7.70263,4.99506 -6.95221,6.95062 0.31176,0.81241 0.0861,1.77419 -0.50135,2.13729 -0.95672,0.59129 -1.50864,-0.66822 -1.18659,-2.70787 0.0651,-0.4125 -0.55658,-0.75 -1.38158,-0.75 -2.04016,0 -1.8849,-1.3417 0.39393,-3.404 1.7596,-1.59242 1.78442,-1.93348 0.35004,-4.80876 -1.43135,-2.86922 -1.40969,-3.1929 0.29721,-4.44101 C 517.93545,315.5955 519,315.64282 519,317.5 c 0,0.825 0.4132,1.5 0.91821,1.5 0.50502,0 1.63002,0.27314 2.5,0.60699 2.20934,0.8478 2.037,-1.88505 -0.24936,-3.95418 -1.00713,-0.91145 -2.13213,-1.35619 -2.5,-0.98833 -0.36787,0.36787 -0.66885,0.23385 -0.66885,-0.29781 0,-0.53167 0.46907,-1.43574 1.04238,-2.00905 0.72318,-0.72318 0.57006,-1.43437 -0.5,-2.32245 -1.95789,-1.6249 -1.94839,-2.92905 0.0373,-5.12324 1.26295,-1.39554 1.34923,-2.17622 0.43027,-3.89331 -0.93743,-1.75159 -1.42108,-1.92232 -2.62209,-0.92557 -2.04098,1.69387 -4.23779,-0.36404 -2.55417,-2.39268 1.3471,-1.62316 0.56316,-2.70037 -1.96519,-2.70037 -0.98899,0 -2.27982,-0.9 -2.86852,-2 -0.5887,-1.1 -1.72953,-2 -2.53518,-2 -1.86725,0 -1.85049,-1.73685 0.052,-5.38475 1.10767,-2.12394 1.2152,-3.23327 0.40775,-4.2062 -0.60319,-0.72679 -0.84707,-1.72535 -0.54197,-2.21902 0.30511,-0.49366 -0.55615,-1.40373 -1.91391,-2.02236 C 504.07886,276.53444 503,275.1952 503,274.10323 c 0,-1.06681 -0.28192,-2.67432 -0.62648,-3.57224 -0.51483,-1.34163 -0.15839,-1.5151 2,-0.97338 2.87945,0.7227 3.14647,0.28251 1.5913,-2.62335 C 505.3712,265.82507 503.87825,265 502.46482,265 501.10917,265 500,264.50122 500,263.89159 c 0,-0.68296 0.9596,-0.86756 2.5,-0.48095 1.78171,0.44718 2.5,0.22216 2.5,-0.78318 0,-1.57325 -4.06353,-2.92405 -6.26032,-2.08106 -2.52823,0.97017 -3.57591,-1.72443 -2.73968,-7.0464 0.45641,-2.90473 0.39345,-5.48373 -0.15024,-6.15435 -0.51473,-0.63489 -0.64272,-2.32239 -0.28441,-3.75 0.4825,-1.92243 0.26585,-2.59565 -0.8353,-2.59565 -0.9125,0 -1.9021,-1.63626 -2.56204,-4.2362 -0.88498,-3.48658 -0.81431,-4.38224 0.3994,-5.06146 1.8474,-1.03386 0.89239,-2.81601 -1.09944,-2.05168 -0.80738,0.30983 -1.50141,0.17767 -1.54228,-0.29367 -0.0409,-0.47135 -0.26305,-1.86949 -0.49373,-3.10699 -0.29283,-1.57093 0.0637,-2.25 1.1813,-2.25 1.0488,0 1.39143,-0.54539 0.99373,-1.58179 C 491.27314,221.54823 491,220.4074 491,219.88303 c 0,-0.57106 -0.78837,-0.53148 -1.96586,0.0987 -1.62761,0.87107 -2.25387,0.61255 -3.63967,-1.50245 -1.56693,-2.39144 -1.56564,-2.63363 0.0203,-3.79329 2.21932,-1.62281 1.06646,-4.70126 -1.65047,-4.4072 -2.56033,0.27711 -3.1138,-1.22762 -1.32213,-3.59453 1.18219,-1.56174 1.66754,-1.6327 3.46961,-0.50729 2.16456,1.35179 5.05804,0.41359 5.82554,-1.88891 0.39964,-1.19892 -6.02564,-2.3676 -12.48731,-2.27129 -3.68314,0.0549 -4.25,-0.21935 -4.25,-2.05617 0,-1.80183 0.42026,-2.02721 2.8039,-1.50367 2.45689,0.53962 2.98287,0.21019 4.25,-2.66184 0.93434,-2.11775 2.50776,-3.62045 4.4461,-4.24625 1.65,-0.53272 3.17663,-1.08826 3.3925,-1.23454 C 490.82892,189.67977 487.58264,187 485.87756,187 484.8449,187 484,186.325 484,185.5 c 0,-0.825 -0.6449,-1.5 -1.43312,-1.5 -0.95719,0 -1.40363,-1.03715 -1.34432,-3.12312 0.0537,-1.88716 -0.53983,-3.47493 -1.49966,-4.01208 C 477.99043,175.89526 475,170.50159 475,168.34636 475,167.60586 475.675,167 476.5,167 c 1.04272,0 1.5,-1.049 1.5,-3.44098 0,-4.43486 -1.77838,-5.50315 -4.08322,-2.45284 -1.49395,1.97714 -2.03577,2.16452 -3.11279,1.0765 -1.07298,-1.08395 -0.99397,-1.54637 0.44601,-2.61024 2.35602,-1.74066 2.20752,-2.44799 -0.75,-3.57244 -1.69597,-0.6448 -2.5,-1.71265 -2.5,-3.32026 0,-1.30337 -0.9,-3.18425 -2,-4.17974 -1.1,-0.99549 -2,-2.70504 -2,-3.79901 0,-1.09397 -1.6875,-3.48049 -3.75,-5.30339 -2.18975,-1.93535 -3.13981,-3.33167 -2.28343,-3.35597 2.25971,-0.0641 10.25465,3.12017 12.91829,5.14525 1.31167,0.99721 2.91592,1.81312 3.56499,1.81312 0.64908,0 4.34465,3.95217 8.21238,8.78261 5.04441,6.29999 7.81497,10.89345 9.80124,16.25 1.52294,4.10706 3.44347,9.26739 4.26784,11.46739 2.24315,5.98631 3.94026,13.90443 5.25115,24.5 0.64644,5.225 1.58983,12.79506 2.09644,16.82236 0.5066,4.0273 0.9211,9.34438 0.9211,11.81574 0,2.47136 0.53712,5.4763 1.1936,6.67764 0.65649,1.20134 1.51418,4.829 1.906,8.06147 0.39181,3.23246 1.58065,7.05746 2.64186,8.5 1.06121,1.44253 2.26168,3.95825 2.6677,5.59048 0.98584,3.96316 5.46542,13.44882 7.75296,16.41717 1.01083,1.31167 1.83788,3.05948 1.83788,3.88403 0,0.82454 1.8,5.03187 4,9.34961 2.2,4.31775 4.01407,8.41994 4.03127,9.11597 0.0172,0.69604 1.15184,3.51553 2.52142,6.26553 3.22833,6.48221 7.44731,18.88614 7.44731,21.89533 0,1.29427 0.60704,4.09729 1.34898,6.22894 0.74194,2.13165 1.42732,6.298 1.52307,9.25855 0.0958,2.96055 0.48489,5.88555 0.86477,6.5 1.42327,2.30216 0.1341,22.76069 -1.81961,28.87633 -1.05446,3.30077 -1.91721,7.04582 -1.91721,8.32233 0,7.00051 -6.21329,21.51412 -12.26744,28.65547 -1.52146,1.79468 -4.15531,4.95055 -5.85301,7.01305 -1.69771,2.0625 -3.65176,3.75 -4.34235,3.75 -0.69059,0 -3.23148,1.72528 -5.64641,3.83395 -12.19711,10.65026 -27.59975,17.11654 -44.62423,18.73398 -4.32971,0.41135 -7.71202,1.26389 -8.42564,2.12375 -1.20703,1.45438 -1.37182,28.28997 -0.20257,32.98615 0.29823,1.1978 0.25521,3.08218 -0.0956,4.1875 -0.55062,1.73486 -1.50592,2.00967 -6.98612,2.00967 -3.49156,0 -6.62016,-0.27188 -6.95245,-0.60417 z"
       style="fill:#36382f" />
  </g>
</svg>
