<?xml version="1.0" encoding="UTF-8" standalone="no"?>
<svg
   xmlns:dc="http://purl.org/dc/elements/1.1/"
   xmlns:cc="http://creativecommons.org/ns#"
   xmlns:rdf="http://www.w3.org/1999/02/22-rdf-syntax-ns#"
   xmlns:svg="http://www.w3.org/2000/svg"
   xmlns="http://www.w3.org/2000/svg"
   viewBox="0 0 800 600"
   height="600"
   width="800"
   version="1.1"
   id="svg8252">
  <metadata
     id="metadata8258">
    <rdf:RDF>
      <cc:Work
         rdf:about="">
        <dc:format>image/svg+xml</dc:format>
        <dc:type
           rdf:resource="http://purl.org/dc/dcmitype/StillImage" />
        <dc:title></dc:title>
      </cc:Work>
    </rdf:RDF>
  </metadata>
  <defs
     id="defs8256" />
  <g
     id="g11240">
    <path
       id="path11270"
       d="m 407.5,496.02494 c -2.2,-0.46472 -35.05,-0.91152 -73,-0.99289 -37.95,-0.0814 -71.00863,-0.45937 -73.46362,-0.84 -3.9238,-0.60836 -4.57387,-1.07694 -5.37532,-3.87464 -1.23777,-4.32078 -0.10321,-8.15883 2.80329,-9.48312 2.29688,-1.04653 2.3347,-1.21134 0.81142,-3.53616 -9.39803,-14.34321 -12.25287,-25.82385 -10.43561,-41.96641 0.693,-6.15586 1.7101,-9.60505 4.12835,-14 l 3.20881,-5.83172 -3.06176,3.5 c -1.68397,1.925 -3.07386,4.03698 -3.08866,4.6933 -0.0416,1.84702 -4.16731,4.3067 -7.22373,4.3067 -2.03586,0 -3.14875,-0.7676 -4.27749,-2.95034 C 237.68656,423.42697 237,421.34425 237,420.42139 c 0,-2.77624 6.02705,-12.64503 10.40133,-17.03131 2.25427,-2.26045 5.18577,-5.5717 6.51444,-7.35832 3.4756,-4.67353 18.57929,-17.64209 24.87663,-21.35994 2.95484,-1.7445 6.09207,-4.37221 6.97161,-5.83936 1.52097,-2.53711 1.4749,-2.83048 -0.94219,-6 -1.39774,-1.83285 -3.90707,-6.03246 -5.57631,-9.33246 -3.98391,-7.87603 -18.47349,-25.49014 -26.98792,-32.80759 -11.02097,-9.47161 -19.5601,-16.117 -22.74892,-17.70384 -1.64524,-0.81872 -4.79524,-3.31951 -7,-5.55732 -2.20477,-2.23782 -7.15867,-6.36643 -11.00867,-9.17469 -13.51733,-9.85979 -20.49938,-20.41548 -20.49977,-30.99221 -1.3e-4,-3.42961 0.4426,-8.15461 0.98384,-10.5 0.54124,-2.34539 1.25253,-5.61435 1.58064,-7.26435 0.4025,-2.02407 3.35986,-5.67828 9.09088,-11.23297 7.38088,-7.15379 9.33805,-8.49357 14.93107,-10.22108 3.54021,-1.09346 7.31005,-2.45549 8.37743,-3.02673 1.33622,-0.71512 6.86109,-0.72386 17.73829,-0.028 25.6343,1.63981 41.35391,4.7259 57.03132,11.19642 5.37147,2.21695 12.39724,4.6616 15.61284,5.43253 3.21559,0.77094 6.80322,2.0718 7.9725,2.89079 1.16929,0.819 3.03834,1.49186 4.15347,1.49525 1.11512,0.003 3.37749,0.72215 5.02749,1.59725 6.10446,3.23758 21.43788,6.19239 35.5,6.84099 17.66835,0.81494 27.565,1.88956 29.47251,3.20025 1.08487,0.74544 2.88487,1.35812 4,1.36151 1.11512,0.003 3.31643,0.67839 4.8918,1.5 1.57537,0.82161 3.48607,1.49384 4.24602,1.49384 5.01375,0 23.54537,8.38083 29.88967,13.51746 2.2,1.78122 4.93482,3.52414 6.07737,3.87316 1.14256,0.34901 4.03769,2.87891 6.43363,5.62198 2.39595,2.74307 4.83613,5.00131 5.42263,5.01832 0.5865,0.017 2.59313,2.05725 4.45916,4.53387 1.86604,2.47662 5.69104,7.10769 8.5,10.29127 2.80897,3.18358 6.23221,7.70595 7.60721,10.04971 1.375,2.34377 4.01285,6.58628 5.86188,9.42781 C 488.94,319.06392 495,333.07262 495,335.45786 c 0,0.55192 0.86141,3.26218 1.91424,6.02281 3.02137,7.9223 4.11469,16.99082 3.73976,31.01933 -0.31146,11.65378 -0.72818,14.20611 -4.02413,24.64699 -2.02218,6.40584 -4.32373,12.18397 -5.11456,12.8403 -0.79082,0.65633 -1.73442,2.16518 -2.09688,3.35302 -1.07978,3.53852 -15.47714,20.67166 -19.5104,23.21775 -2.05493,1.29722 -4.45098,3.37902 -5.32455,4.62622 -0.87357,1.2472 -3.0422,2.95413 -4.81918,3.79318 -2.60345,1.22929 -3.35997,2.30202 -3.89573,5.52404 -0.86053,5.17522 1.52971,21.23238 3.83821,25.78428 1.68116,3.31493 2.13692,3.5576 7.29322,3.88338 3.025,0.19112 9.1,-0.0229 13.5,-0.47569 4.4,-0.45275 12.01524,-0.56839 16.92276,-0.25697 10.72897,0.68083 12.57724,1.87808 12.57724,8.14706 0,6.71912 -1.31389,7.40561 -14.32143,7.48265 -46.20588,0.27368 -75.85568,0.72855 -79.67857,1.22237 -2.475,0.31971 -6.3,0.20107 -8.5,-0.26364 z M 408,479.4086 c 0,-0.70981 -0.41084,-1.54448 -0.91299,-1.85482 -0.50214,-0.31034 -1.21192,-2.33364 -1.57728,-4.49621 l -0.6643,-3.93195 -10.17272,-0.39193 c -13.94475,-0.53727 -28.00544,-4.31473 -34.84598,-9.36152 -4.41045,-3.25393 -5.62885,-2.99105 -6.38602,1.37783 -0.67141,3.87409 -7.52357,16.54211 -9.70587,17.94389 -2.20003,1.41317 4.97019,1.8034 35.01516,1.9057 23.27517,0.0792 29.25,-0.16404 29.25,-1.19099 z m 34,0.0918 c 0,-2.07392 -3.1013,-19.91587 -3.53987,-20.36504 -0.19579,-0.20053 -2.39035,0.77243 -4.8768,2.16213 -2.48644,1.3897 -6.10987,3.05117 -8.05207,3.69215 -3.93169,1.29758 -3.86829,1.1523 -2.62273,6.01032 0.49355,1.925 1.16947,4.71702 1.50205,6.20448 0.5736,2.56548 0.95123,2.72246 7.34705,3.05414 3.7083,0.19231 7.52987,0.4378 8.49237,0.54552 0.97573,0.1092 1.75,-0.4676 1.75,-1.3037 z M 273.09165,399.02179 c 2.76806,-2.18802 6.91732,-4.45339 9.22059,-5.03415 2.30327,-0.58076 5.22143,-1.49056 6.48481,-2.02178 1.26338,-0.53122 4.07588,-0.96586 6.25,-0.96586 4.44722,0 4.64593,-0.47896 2.26774,-5.46607 -1.95076,-4.09078 -2.23011,-4.17498 -5.44969,-1.64246 -1.32254,1.04031 -4.911,3.40281 -7.97436,5.25 C 278.81347,392.20303 266.00384,403 267.44883,403 c 0.3355,0 2.87477,-1.7902 5.64282,-3.97821 z"
       style="fill:#eeedd8" />
    <path
       id="path11268"
       d="m 410,494.84325 c -2.41573,-0.99543 -75.42956,-1.73185 -102.5,-1.03382 -6.6,0.17018 -20.1,0.004 -30,-0.36881 -19.47218,-0.73371 -20.5,-1.05618 -20.5,-6.43175 0,-3.01663 1.64704,-5.00887 4.14098,-5.00887 2.59902,0 3.10377,-1.61499 1.11821,-3.57779 -2.0294,-2.00614 -6.27411,-9.02012 -9.17694,-15.16401 -3.94572,-8.35117 -4.29773,-31.00789 -0.59495,-38.29295 9.93576,-19.54817 25.24846,-31.11942 43.2627,-32.69203 3.7039,-0.32335 5.25,-0.88454 5.25,-1.90561 0,-1.78601 -3.62348,-9.01688 -4.92002,-9.81818 -1.38011,-0.85296 -16.26008,9.24826 -25.84261,17.54316 C 262.72321,404.59705 249,420.54671 249,422.7755 c 0,1.58447 -3.5707,4.2245 -5.71373,4.2245 -2.24998,0 -5.29693,-3.88372 -5.26807,-6.71482 0.0234,-2.29554 4.65231,-9.53793 9.7694,-15.28518 10.25873,-11.52207 25.16583,-25.42148 30.47095,-28.41118 3.18233,-1.79339 6.87846,-4.7414 8.21364,-6.55113 l 2.4276,-3.29042 -3.41619,-5.34035 c -1.8789,-2.9372 -4.51486,-7.49284 -5.8577,-10.12364 -2.25329,-4.41453 -6.32914,-9.86943 -16.17841,-21.6523 -4.77831,-5.71639 -23.33407,-21.54285 -32.80899,-27.98323 -3.92617,-2.66873 -7.30164,-5.29565 -7.50103,-5.83759 -0.19939,-0.54194 -4.02439,-3.69307 -8.5,-7.00252 -18.25046,-13.49513 -24.74933,-25.3785 -21.69835,-39.67607 2.62734,-12.3123 2.77226,-12.58239 10.88027,-20.27743 6.73623,-6.39314 8.92345,-7.81717 15.75152,-10.25532 7.28137,-2.60002 8.9502,-2.81441 20.42909,-2.62442 18.58296,0.30757 45.35465,4.97283 56.93806,9.92209 9.65985,4.12737 11.95806,4.95368 18.41194,6.61988 3.2175,0.83067 6.80513,2.1793 7.97251,2.99697 1.16737,0.81766 2.98559,1.48666 4.04047,1.48666 1.05487,0 3.76725,0.85622 6.02749,1.90271 8.33298,3.85817 25.44132,6.62131 47.03244,7.59614 9.02045,0.40727 14.90088,1.13435 16.70034,2.06488 1.52759,0.78995 3.58728,1.43904 4.57709,1.44243 0.98981,0.003 2.94443,0.60359 4.34359,1.33379 1.39916,0.73019 4.09916,1.63505 6,2.0108 8.01562,1.58448 17.01755,5.76394 30.47538,14.14925 5.16224,3.21649 21.10522,18.60326 28.48069,27.48709 5.6758,6.83655 11,14.25632 11,15.32954 0,0.45266 1.36841,2.81194 3.04092,5.24284 4.46694,6.49248 11.57818,26.29009 13.80772,38.44053 0.55507,3.025 0.87038,11.125 0.70069,18 -0.53254,21.57533 -6.25568,36.15148 -21.31365,54.28331 -3.5551,4.28082 -7.72275,8.43433 -9.26145,9.23002 -1.5387,0.79569 -3.73253,2.63523 -4.87517,4.08786 -1.14264,1.45263 -3.53685,3.37413 -5.32046,4.26998 -2.63276,1.32236 -3.41201,2.47553 -4.14153,6.12883 -1.80809,9.05463 3.45845,30.51093 7.73962,31.53181 1.16782,0.27848 11.49439,0.38524 22.94792,0.23726 19.82809,-0.25619 20.8958,-0.17336 22.3121,1.73093 1.47499,1.98321 1.21002,7.05327 -0.45567,8.71896 -0.4298,0.4298 -11.33386,1.11886 -24.23125,1.53125 -28.69145,0.91739 -34.16547,0.91338 -44.79567,-0.0328 -4.59024,-0.40857 -9.99024,-0.33084 -12,0.17273 -6.36211,1.59412 -13.56689,2.01921 -16.15412,0.95311 z m -20.5,-12.92493 c 1.1,-0.0663 5.70331,0.009 10.22957,0.16765 4.52626,0.15852 8.55007,-0.0323 8.9418,-0.42401 0.39173,-0.39172 0.17592,-2.19537 -0.47957,-4.00809 -0.65549,-1.81273 -1.1918,-4.44632 -1.1918,-5.85242 0,-3.92967 -1.7741,-4.64084 -11.50438,-4.61169 -9.9492,0.0298 -26.41583,-3.66715 -31.94181,-7.17132 -6.09072,-3.86228 -8.62886,-5.09009 -9.46018,-4.5763 -0.4662,0.28812 -1.3837,2.66901 -2.03889,5.29086 -1.19095,4.76583 -5.2884,12.11543 -9.90519,17.767 l -2.45072,3 10.90059,0.5 c 9.09521,0.41719 31.40248,0.37035 38.90058,-0.0817 z m 52.83034,-0.17061 c 1.58214,-1.15688 1.59949,-1.74728 0.2278,-7.75 -0.81665,-3.57374 -1.75388,-8.63521 -2.08275,-11.24771 -0.33483,-2.65992 -1.121,-4.75347 -1.78666,-4.75789 -0.6538,-0.004 -4.89709,1.68316 -9.42952,3.75 -9.15266,4.17371 -9.43995,4.70962 -6.9631,12.98882 1.74627,5.83715 2.89272,6.68142 10.00311,7.36658 3.41043,0.32863 6.67727,0.66613 7.25965,0.75 0.58238,0.0839 1.82954,-0.41104 2.77147,-1.0998 z m -140.5274,-24.21455 c 1.7196,-3.77411 1.51539,-5.00139 -1.4108,-8.47898 -3.83545,-4.55816 -5.86531,-5.38315 -9.93801,-4.03904 -3.91786,1.29301 -6.45413,4.34127 -6.45413,7.75703 0,3.7984 2.90778,8.2856 6.29106,9.70817 2.7667,1.16331 3.6084,1.10144 6.73823,-0.49528 1.96712,-1.00355 4.11527,-3.00691 4.77365,-4.4519 z M 291.59196,458.5 c -0.90094,-1.375 -2.30269,-2.5 -3.11501,-2.5 -2.13806,0 -1.88314,-5.32243 0.35179,-7.34501 4.10261,-3.71281 9.53177,-1.10246 10.78981,5.18777 1.21323,6.06615 -4.81256,9.56247 -8.02659,4.65724 z M 309,421.87042 c 1.925,-1.16716 3.83061,-2.62798 4.23469,-3.24626 1.69389,-2.59185 0.67127,-6.32297 -2.6027,-9.49623 -2.82496,-2.73806 -3.99392,-3.21309 -7.25,-2.94616 -3.27978,0.26886 -4.17663,0.86853 -5.7813,3.86556 -2.57276,4.80512 -1.59267,10.3487 2.19292,12.40354 3.66922,1.99169 5.11443,1.90057 9.20639,-0.58045 z m -5.52352,-2.26597 c -0.86329,-1.31755 -2.44866,-2.62542 -3.52305,-2.90638 -2.64755,-0.69235 -2.49359,-4.20632 0.26908,-6.14137 3.06302,-2.14542 6.97989,-1.94843 9.58893,0.48226 2.46099,2.29275 2.71728,4.08803 1.03886,7.27678 -2.27566,4.3234 -5.0659,4.81104 -7.37382,1.28871 z"
       style="fill:#d6d5ab" />
    <path
       id="path11266"
       d="m 409.67227,493.38831 c -2.38705,-1.29463 -9.32209,-1.57731 -44.5,-1.81382 -22.91975,-0.15411 -42.75495,0.11914 -44.07822,0.6072 -3.97138,1.46477 -23.00565,1.85945 -32.09405,0.66547 -4.675,-0.61417 -12.9462,-1.24974 -18.38045,-1.41237 -5.43425,-0.16263 -10.30984,-0.72508 -10.83466,-1.2499 -0.52482,-0.52482 -0.80362,-2.01573 -0.61955,-3.31312 0.24289,-1.71203 1.13472,-2.49779 3.25216,-2.86534 4.07618,-0.70756 4.18995,-2.245 0.47888,-6.47167 -9.69445,-11.04136 -13.6404,-24.81148 -11.94775,-41.69387 1.27191,-12.68605 8.49155,-24.08342 21.49518,-33.93364 7.34542,-5.56414 13.41272,-7.78623 23.55619,-8.62722 3.025,-0.2508 5.92259,-0.8615 6.43909,-1.3571 C 303.61059,390.79881 298.13557,379 296.44244,379 c -0.6544,0 -4.82416,2.475 -9.26612,5.5 -4.44197,3.025 -8.36901,5.5 -8.72676,5.5 -0.35775,0 -4.04041,3.034 -8.18369,6.74222 -7.77514,6.95871 -16.95371,17.57461 -21.62188,25.00778 -1.95879,3.119 -3.32167,4.25 -5.12135,4.25 C 241.00072,426 239,423.52413 239,420.40329 c 0,-2.34404 5.50247,-11.00737 10.1009,-15.90329 12.15238,-12.93858 22.64791,-22.72848 28.00743,-26.12445 5.93187,-3.75864 12.87717,-10.05003 12.88689,-11.67359 0.003,-0.43892 -1.66689,-3.36392 -3.71005,-6.5 -2.04316,-3.13608 -4.52915,-7.46317 -5.52444,-9.61575 -3.08923,-6.68132 -19.44719,-25.88777 -29.07715,-34.14047 C 246.63261,312.11715 238.45,305.67271 233.5,302.12476 c -4.95,-3.54794 -10.125,-7.572 -11.5,-8.94234 -1.375,-1.37035 -5.2,-4.4767 -8.5,-6.90302 -7.61769,-5.60089 -14.00251,-12.49618 -17.02443,-18.38556 -2.80593,-5.46843 -3.28834,-12.2623 -1.62562,-22.89384 1.16499,-7.44898 1.21885,-7.54422 7.91724,-14 9.19158,-8.85866 9.00671,-8.73742 18.37413,-12.04998 7.87574,-2.78505 8.88122,-2.90512 19.82757,-2.36753 11.57515,0.56846 38.61807,4.55437 47.03021,6.93188 2.47549,0.69965 7.8759,2.70286 12.0009,4.45158 4.125,1.74872 10.2,3.87358 13.5,4.72192 3.3,0.84834 7.66957,2.39062 9.71016,3.42728 2.04059,1.03667 4.29059,1.88762 5,1.89101 0.70941,0.003 2.63984,0.71168 4.28984,1.57399 3.32963,1.74009 6.87482,2.58899 23,5.50742 6.05,1.09497 12.575,1.78107 14.5,1.52467 7.18012,-0.95635 26.9441,2.27729 38.5,6.2991 1.65,0.57425 6.6,2.19742 11,3.60705 7.4161,2.37589 10.13982,3.79025 23.0738,11.98161 7.96606,5.04507 29.73292,27.6644 35.60556,37 7.61345,12.10292 11.08018,19.19102 14.67275,30 5.71575,17.19702 6.20956,20.28226 5.762,36 -0.34622,12.15835 -0.80978,15.33674 -3.52395,24.16177 -1.71891,5.58898 -4.57989,12.50249 -6.35773,15.36336 C 484.84046,417.28804 471.19333,434 469.97096,434 c -0.47834,0 -3.01341,2.025 -5.63348,4.5 -2.62008,2.475 -5.27311,4.5 -5.89564,4.5 -1.94935,0 -4.14811,3.34822 -4.73799,7.21489 -0.71813,4.70743 1.56931,19.78132 3.96629,26.13724 2.77219,7.35086 4.94554,8.11258 20.30195,7.11549 15.08268,-0.97932 26.05464,-0.69032 27.76769,0.73138 1.62074,1.34509 1.6269,5.27503 0.0102,6.51429 -0.6875,0.52701 -10.7,1.05582 -22.25,1.17515 -14.34828,0.14824 -22.26699,0.64081 -25,1.55508 -2.82976,0.94664 -5.4628,1.08853 -9,0.48503 -16.72525,-2.85362 -19.3852,-3.04873 -21.71202,-1.5926 -3.59719,2.25113 -14.71465,2.89695 -18.11571,1.05236 z M 358,483.9356 c 7.975,-0.014 16.54066,0.26769 19.03479,0.62592 2.49413,0.35823 6.09413,0.22404 8,-0.29821 2.09988,-0.57542 6.61499,-0.60939 11.45933,-0.0862 C 405.32426,485.13069 410,484.03106 410,481.0008 c 0,-0.9661 -0.675,-3.37205 -1.5,-5.34656 -0.825,-1.9745 -1.5,-4.72088 -1.5,-6.10307 0,-3.0449 -1.19236,-3.38648 -13.5,-3.86736 -10.75607,-0.42026 -25.17005,-3.92207 -29.7191,-7.22013 -1.8045,-1.30825 -4.59828,-3.12564 -6.20841,-4.03864 -2.75401,-1.56161 -3.00515,-1.55383 -4.23728,0.13122 -0.72037,0.98516 -1.5894,3.40053 -1.93118,5.36747 -0.83354,4.79712 -5.77651,13.60616 -10.57789,18.85122 -4.20933,4.59831 -4.19383,6.78682 0.0411,5.79972 1.44803,-0.33751 9.15778,-0.62509 17.13278,-0.63907 z m 84.23006,-0.90192 2.49978,-1.96633 -1.84775,-8.78367 c -1.01626,-4.83103 -1.85547,-10.0353 -1.86492,-11.56506 -0.0238,-3.84777 -2.20367,-4.32303 -7.77085,-1.6942 -2.61047,1.23268 -6.71504,3.08956 -9.12125,4.12642 -4.2696,1.8398 -4.36009,1.97503 -3.75877,5.61717 2.12007,12.84093 3.85807,14.37412 18.24884,16.09838 0.61333,0.0735 2.24004,-0.75124 3.61492,-1.83271 z M 298.02749,462.29589 c 5.97494,-4.11806 6.67121,-9.29158 1.97097,-14.64487 -3.79573,-4.3231 -5.85445,-4.84319 -10.6545,-2.69166 -7.34421,3.2919 -8.08907,9.49553 -1.88502,15.69958 3.73229,3.73229 6.83184,4.21238 10.56855,1.63695 z m -7.39473,-5.42171 c -3.77307,-3.77322 -3.82729,-3.92834 -2.22694,-6.37078 2.00702,-3.0631 6.50781,-3.36131 9.00953,-0.59694 2.2686,2.50678 1.74901,7.95657 -0.91535,9.60084 -1.76054,1.08649 -2.46302,0.77123 -5.86724,-2.63312 z M 311.6,420.6 c 4.40199,-4.40199 4.29761,-6.93768 -0.48235,-11.71765 -4.50427,-4.50427 -8.83885,-5.16115 -12.15758,-1.84242 -6.75156,6.75156 -3.27563,16.96007 5.77479,16.96007 2.60741,0 4.30674,-0.8416 6.86514,-3.4 z m -8.05183,-1.44824 c -0.32264,-1.01654 -1.70296,-2.35689 -3.06739,-2.97856 -2.93419,-1.33691 -3.10056,-2.33093 -0.73078,-4.36621 2.74682,-2.35911 5.21013,-2.89706 7.57244,-1.6537 2.7582,1.45173 3.643,2.78663 3.66225,5.52528 0.0313,4.45344 -6.20149,7.36443 -7.43652,3.47319 z"
       style="fill:#f9d75c" />
    <path
       id="path11264"
       d="m 409.66488,493.38444 c -2.37956,-1.29046 -9.44977,-1.60817 -44,-1.97719 -22.64069,-0.24182 -41.83988,-0.45247 -42.66488,-0.4681 -0.825,-0.0156 -5.231,0.37655 -9.79112,0.87152 -10.96385,1.19005 -26.777,0.52346 -31.47912,-1.32697 -4.52068,-1.77903 -6.07073,-1.88001 -3.04342,-0.19826 1.81698,1.00937 0.48565,1.18407 -7.88044,1.03411 -5.53674,-0.0992 -10.49619,-0.60984 -11.02101,-1.13466 -0.52482,-0.52482 -0.80362,-2.00196 -0.61955,-3.28253 0.25113,-1.7472 1.19455,-2.50318 3.77999,-3.02898 2.86211,-0.58207 4.18591,-0.19115 7.82028,2.30936 2.40622,1.65552 4.55282,2.83217 4.77022,2.61476 0.21741,-0.21741 -1.39896,-1.5587 -3.59193,-2.98064 -4.41253,-2.86114 -7.89191,-7.15139 -10.96908,-13.52544 C 259.85735,469.9767 258.51868,467.82056 258,467.5 c -0.51868,-0.32056 -1.91151,-2.7017 -3.09517,-5.29142 -1.85141,-4.05067 -2.16977,-6.67258 -2.27847,-18.76461 L 252.5,429.38795 l 3.31636,-6.33519 c 1.824,-3.48436 4.749,-8.12328 6.5,-10.30871 4.65195,-5.80612 16.42586,-14.60866 21.1197,-15.78975 2.23517,-0.56242 5.09761,-1.45722 6.36099,-1.98844 1.26338,-0.53122 4.72432,-0.96586 7.69099,-0.96586 2.96666,0 5.62183,-0.36876 5.90038,-0.81946 C 304.16279,391.92758 297.85552,379 296.46983,379 c -0.66946,0 -4.85155,2.475 -9.29351,5.5 -4.44197,3.025 -8.36901,5.5 -8.72676,5.5 -0.35775,0 -4.04041,3.034 -8.18369,6.74222 -7.77514,6.95871 -16.95371,17.57461 -21.62188,25.00778 -1.95879,3.119 -3.32167,4.25 -5.12135,4.25 C 241.00072,426 239,423.52413 239,420.40329 c 0,-2.34404 5.50247,-11.00737 10.1009,-15.90329 12.15238,-12.93858 22.64791,-22.72848 28.00743,-26.12445 5.93187,-3.75864 12.87717,-10.05003 12.88689,-11.67359 0.003,-0.43892 -1.66689,-3.36392 -3.71005,-6.5 -2.04316,-3.13608 -4.52915,-7.46317 -5.52444,-9.61575 -3.08923,-6.68132 -19.44719,-25.88777 -29.07715,-34.14047 C 246.63261,312.11715 238.45,305.67271 233.5,302.12476 c -4.95,-3.54794 -10.125,-7.572 -11.5,-8.94234 -1.375,-1.37035 -5.2,-4.4767 -8.5,-6.90302 -7.61769,-5.60089 -14.00251,-12.49618 -17.02443,-18.38556 -2.80593,-5.46843 -3.28834,-12.2623 -1.62562,-22.89384 1.16499,-7.44898 1.21885,-7.54422 7.91724,-14 9.19158,-8.85866 9.00671,-8.73742 18.37413,-12.04998 7.87574,-2.78505 8.88122,-2.90512 19.82757,-2.36753 11.57515,0.56846 38.61807,4.55437 47.03021,6.93188 2.47549,0.69965 7.8759,2.70286 12.0009,4.45158 4.125,1.74872 10.2,3.87358 13.5,4.72192 3.3,0.84834 7.66957,2.39062 9.71016,3.42728 2.04059,1.03667 4.29059,1.88762 5,1.89101 0.70941,0.003 2.63984,0.71168 4.28984,1.57399 3.32963,1.74009 6.87482,2.58899 23,5.50742 6.05,1.09497 12.575,1.78107 14.5,1.52467 7.18012,-0.95635 26.9441,2.27729 38.5,6.2991 1.65,0.57425 6.6,2.19742 11,3.60705 7.4161,2.37589 10.13982,3.79025 23.0738,11.98161 7.96606,5.04507 29.73292,27.6644 35.60556,37 7.61345,12.10292 11.08018,19.19102 14.67275,30 5.71575,17.19702 6.20956,20.28226 5.762,36 -0.34622,12.15835 -0.80978,15.33674 -3.52395,24.16177 -1.71891,5.58898 -4.57989,12.50249 -6.35773,15.36336 C 484.84046,417.28804 471.19333,434 469.97096,434 c -0.47834,0 -3.01341,2.025 -5.63348,4.5 -2.62008,2.475 -5.27311,4.5 -5.89564,4.5 -1.94935,0 -4.14811,3.34822 -4.73799,7.21489 -0.71813,4.70743 1.56931,19.78132 3.96629,26.13724 2.77219,7.35086 4.94554,8.11258 20.30195,7.11549 15.08268,-0.97932 26.05464,-0.69032 27.76769,0.73138 1.62074,1.34509 1.6269,5.27503 0.0102,6.51429 -0.6875,0.52701 -10.7,1.05582 -22.25,1.17515 -14.34828,0.14824 -22.26699,0.64081 -25,1.55508 -2.82976,0.94664 -5.4628,1.08853 -9,0.48503 -16.72525,-2.85362 -19.3852,-3.04873 -21.71202,-1.5926 -3.60167,2.25393 -14.71476,2.89686 -18.1231,1.04849 z m -74.13487,-9.433 c 0.44373,-0.71797 1.08881,-0.68276 2.04603,0.11167 0.84711,0.70304 2.48675,0.87568 4.16097,0.43812 3.36909,-0.88051 29.01901,-0.83458 35.29778,0.0632 2.49413,0.35663 6.09413,0.22113 8,-0.30112 2.09988,-0.57542 6.61499,-0.60939 11.45933,-0.0862 C 405.32426,485.13069 410,484.03106 410,481.0008 c 0,-0.9661 -0.675,-3.37205 -1.5,-5.34656 -0.825,-1.9745 -1.5,-4.72088 -1.5,-6.10307 0,-3.0449 -1.19236,-3.38648 -13.5,-3.86736 -10.76058,-0.42044 -25.17244,-3.92289 -29.7191,-7.22251 -1.8045,-1.30956 -4.97482,-3.3115 -7.04516,-4.44876 l -3.76426,-2.06774 -1.0585,2.7776 c -0.58218,1.52768 -1.31367,4.1276 -1.62553,5.7776 -0.84437,4.46734 -7.0539,14.36042 -12.39636,19.75 -2.58966,2.6125 -4.32612,4.75 -3.8588,4.75 0.46732,0 1.1413,-0.47185 1.49772,-1.04856 z m 106.70005,-0.91776 2.49978,-1.96633 -1.84775,-8.78367 c -1.01626,-4.83103 -1.85547,-10.0353 -1.86492,-11.56506 -0.0238,-3.84777 -2.20367,-4.32303 -7.77085,-1.6942 -2.61047,1.23268 -6.71504,3.08956 -9.12125,4.12642 -4.2696,1.8398 -4.36009,1.97503 -3.75877,5.61717 2.12007,12.84093 3.85807,14.37412 18.24884,16.09838 0.61333,0.0735 2.24004,-0.75124 3.61492,-1.83271 z M 298.01923,463.99019 c 7.88756,-4.02393 8.8485,-11.73058 2.30305,-18.47022 -3.35635,-3.45592 -3.97743,-3.70623 -8.05552,-3.24657 -8.84799,0.9973 -12.77082,8.60243 -8.51676,16.51128 1.76939,3.28953 6.66893,7.19662 9.03984,7.20873 0.70941,0.004 3.06264,-0.89783 5.22939,-2.00322 z m -7.38647,-7.11601 c -3.77307,-3.77322 -3.82729,-3.92834 -2.22694,-6.37078 2.00702,-3.0631 6.50781,-3.36131 9.00953,-0.59694 2.2686,2.50678 1.74901,7.95657 -0.91535,9.60084 -1.76054,1.08649 -2.46302,0.77123 -5.86724,-2.63312 z M 310.13796,423.75 C 313.53603,421.24895 316,417.17164 316,414.04966 316,412.92235 314.2,410.2 312,408 c -3.17563,-3.17563 -4.73718,-4 -7.57692,-4 -4.53191,0 -8.99366,4.19408 -9.96396,9.3662 -1.80316,9.61167 7.951,16.07166 15.67884,10.3838 z m -6.58979,-4.59824 c -0.32264,-1.01654 -1.70296,-2.35689 -3.06739,-2.97856 -2.93419,-1.33691 -3.10056,-2.33093 -0.73078,-4.36621 2.74682,-2.35911 5.21013,-2.89706 7.57244,-1.6537 2.7582,1.45173 3.643,2.78663 3.66225,5.52528 0.0313,4.45344 -6.20149,7.36443 -7.43652,3.47319 z"
       style="fill:#fbd82b" />
    <path
       id="path11262"
       d="m 409.55854,493.32872 c -2.51401,-1.3617 -8.18148,-1.62378 -39,-1.8035 -19.8322,-0.11565 -38.48384,-0.28114 -41.44809,-0.36775 L 323.72091,491 l 3.39974,-2.30713 c 5.90362,-4.0063 9.62305,-5.54917 10.72383,-4.44839 0.57697,0.57697 2.21806,0.69339 3.8323,0.27186 3.41691,-0.89225 29.02519,-0.85742 35.35801,0.0481 2.49413,0.35663 6.09413,0.22113 8,-0.30112 2.09988,-0.57542 6.61499,-0.60939 11.45933,-0.0862 C 405.32426,485.13069 410,484.03106 410,481.0008 c 0,-0.9661 -0.675,-3.37205 -1.5,-5.34656 -0.825,-1.9745 -1.5,-4.72088 -1.5,-6.10307 0,-3.0449 -1.19236,-3.38648 -13.5,-3.86736 -10.70144,-0.41812 -25.14073,-3.91216 -29.7191,-7.19145 -1.8045,-1.29249 -5.14067,-3.44586 -7.41372,-4.78528 l -4.13282,-2.4353 -1.7862,6.11411 c -3.50328,11.99155 -11.20255,22.98169 -19.20446,27.41293 -1.68959,0.93565 -5.02312,2.8171 -7.40784,4.18101 -4.16496,2.38209 -5.02561,2.47924 -21.83586,2.4648 l -17.5,-0.015 -6.52501,-3.18086 C 270.77633,484.73948 267,481.70693 267,479.43536 c 0,-1.30078 0.37576,-1.29241 3.00444,0.0669 4.26784,2.20698 16.43707,3.55185 22.21843,2.45543 12.86947,-2.44064 20.38978,-8.63125 25.48925,-20.98237 2.55352,-6.18472 2.99549,-8.38179 2.55991,-12.72536 -0.5998,-5.98107 -1.3444,-6.54593 -2.96593,-2.25 -1.48896,3.9447 -4.94093,4.09067 -6.39341,0.27035 -0.82476,-2.16926 -0.63909,-3.55501 0.90439,-6.75 3.00557,-6.2215 3.50429,-10.50776 1.48254,-12.74177 -1.38873,-1.53453 -1.48425,-2.21788 -0.50142,-3.58712 3.71766,-5.17925 4.52989,-7.98516 3.22407,-11.1377 C 314.22432,407.71312 307.96905,403 304.0061,403 300.48931,403 294,408.45222 294,411.40698 c 0,1.38577 -0.96917,1.51691 -7.04041,0.95265 -4.18402,-0.38887 -7.93686,-0.23741 -9.25,0.3733 -1.21527,0.5652 -4.23459,1.85874 -6.70959,2.87454 -2.475,1.01579 -6.95158,4.28991 -9.94796,7.27583 -6.15925,6.13776 -7.51789,5.5064 -3.41835,-1.58851 4.44303,-7.68936 8.1861,-11.88147 15.76188,-17.65272 7.52041,-5.72907 11.57206,-7.18554 23.87599,-8.58284 6.8736,-0.78061 8.95276,-1.6076 7.19948,-2.8636 -0.53407,-0.3826 -2.29128,-3.50813 -3.90491,-6.94563 -1.61363,-3.4375 -3.46929,-6.25 -4.12369,-6.25 -0.6544,0 -4.82416,2.475 -9.26612,5.5 -4.44197,3.025 -8.36901,5.5 -8.72676,5.5 -0.35775,0 -4.04041,3.034 -8.18369,6.74222 -7.77514,6.95871 -16.95371,17.57461 -21.62188,25.00778 -1.95879,3.119 -3.32167,4.25 -5.12135,4.25 C 241.00072,426 239,423.52413 239,420.40329 c 0,-2.34404 5.50247,-11.00737 10.1009,-15.90329 12.15238,-12.93858 22.64791,-22.72848 28.00743,-26.12445 5.93187,-3.75864 12.87717,-10.05003 12.88689,-11.67359 0.003,-0.43892 -1.66689,-3.36392 -3.71005,-6.5 -2.04316,-3.13608 -4.52915,-7.46317 -5.52444,-9.61575 -3.08923,-6.68132 -19.44719,-25.88777 -29.07715,-34.14047 C 246.63261,312.11715 238.45,305.67271 233.5,302.12476 c -4.95,-3.54794 -10.125,-7.572 -11.5,-8.94234 -1.375,-1.37035 -5.2,-4.4767 -8.5,-6.90302 -7.61769,-5.60089 -14.00251,-12.49618 -17.02443,-18.38556 -2.80593,-5.46843 -3.28834,-12.2623 -1.62562,-22.89384 1.16499,-7.44898 1.21885,-7.54422 7.91724,-14 9.19158,-8.85866 9.00671,-8.73742 18.37413,-12.04998 7.87574,-2.78505 8.88122,-2.90512 19.82757,-2.36753 11.57515,0.56846 38.61807,4.55437 47.03021,6.93188 2.47549,0.69965 7.8759,2.70286 12.0009,4.45158 4.125,1.74872 10.2,3.87358 13.5,4.72192 3.3,0.84834 7.66957,2.39062 9.71016,3.42728 2.04059,1.03667 4.29059,1.88762 5,1.89101 0.70941,0.003 2.63984,0.71168 4.28984,1.57399 3.32963,1.74009 6.87482,2.58899 23,5.50742 6.05,1.09497 12.575,1.78107 14.5,1.52467 7.18012,-0.95635 26.9441,2.27729 38.5,6.2991 1.65,0.57425 6.6,2.19742 11,3.60705 7.4161,2.37589 10.13982,3.79025 23.0738,11.98161 7.96606,5.04507 29.73292,27.6644 35.60556,37 7.61345,12.10292 11.08018,19.19102 14.67275,30 5.71575,17.19702 6.20956,20.28226 5.762,36 -0.34622,12.15835 -0.80978,15.33674 -3.52395,24.16177 -1.71891,5.58898 -4.57989,12.50249 -6.35773,15.36336 C 484.84046,417.28804 471.19333,434 469.97096,434 c -0.47834,0 -3.01341,2.025 -5.63348,4.5 -2.62008,2.475 -5.27311,4.5 -5.89564,4.5 -1.94935,0 -4.14811,3.34822 -4.73799,7.21489 -0.71813,4.70743 1.56931,19.78132 3.96629,26.13724 2.77219,7.35086 4.94554,8.11258 20.30195,7.11549 15.08268,-0.97932 26.05464,-0.69032 27.76769,0.73138 1.62074,1.34509 1.6269,5.27503 0.0102,6.51429 -0.6875,0.52701 -10.7,1.05582 -22.25,1.17515 -14.34828,0.14824 -22.26699,0.64081 -25,1.55508 -2.82976,0.94664 -5.4628,1.08853 -9,0.48503 -16.72525,-2.85362 -19.3852,-3.04873 -21.71202,-1.5926 -3.66545,2.29384 -14.71626,2.89567 -18.22944,0.99277 z m 32.67152,-10.29504 2.49978,-1.96633 -1.84775,-8.78367 c -1.01626,-4.83103 -1.85547,-10.0353 -1.86492,-11.56506 -0.0238,-3.84777 -2.20367,-4.32303 -7.77085,-1.6942 -2.61047,1.23268 -6.71504,3.08956 -9.12125,4.12642 -4.2696,1.8398 -4.36009,1.97503 -3.75877,5.61717 2.12007,12.84093 3.85807,14.37412 18.24884,16.09838 0.61333,0.0735 2.24004,-0.75124 3.61492,-1.83271 z M 263,491 c -3.0988,-0.44269 -3.5,-0.83919 -3.5,-3.459 0,-2.57254 0.45218,-3.05149 3.46208,-3.66708 2.67614,-0.54733 4.11664,-0.24199 6.34537,1.345 1.5858,1.12919 4.85131,3.00438 7.25668,4.16708 l 4.37342,2.114 -7.21878,0 C 269.74845,491.5 264.925,491.275 263,491 Z m 27.63276,-34.12582 c -3.77307,-3.77322 -3.82729,-3.92834 -2.22694,-6.37078 2.00702,-3.0631 6.50781,-3.36131 9.00953,-0.59694 2.2686,2.50678 1.74901,7.95657 -0.91535,9.60084 -1.76054,1.08649 -2.46302,0.77123 -5.86724,-2.63312 z m 12.91541,-37.72242 c -0.32264,-1.01654 -1.70296,-2.35689 -3.06739,-2.97856 -2.93419,-1.33691 -3.10056,-2.33093 -0.73078,-4.36621 2.74682,-2.35911 5.21013,-2.89706 7.57244,-1.6537 2.7582,1.45173 3.643,2.78663 3.66225,5.52528 0.0313,4.45344 -6.20149,7.36443 -7.43652,3.47319 z"
       style="fill:#b1b094" />
    <path
       id="path11260"
       d="m 410.25,492.50461 c -2.66079,-1.91343 -3.0254,-6.6162 -0.66484,-8.57528 1.64798,-1.3677 1.57859,-2.57168 -0.62988,-10.92933 -2.0509,-7.76134 -1.58323,-7.4894 -13.06996,-7.59996 -12.51652,-0.12047 -25.03322,-3.05339 -32.38532,-7.58853 -2.75,-1.69634 -6.4036,-3.88212 -8.11911,-4.85728 l -3.1191,-1.77302 -1.79992,6.15939 c -3.51766,12.03759 -11.20473,23.0206 -19.21817,27.45822 -1.68959,0.93565 -5.02312,2.8171 -7.40784,4.18101 -4.16496,2.38209 -5.02561,2.47924 -21.83586,2.4648 l -17.5,-0.015 -6.52501,-3.18086 C 270.77633,484.73948 267,481.70693 267,479.43536 c 0,-1.30078 0.37576,-1.29241 3.00444,0.0669 4.26784,2.20698 16.43707,3.55185 22.21843,2.45543 12.86947,-2.44064 20.38978,-8.63125 25.48925,-20.98237 2.55352,-6.18472 2.99549,-8.38179 2.55991,-12.72536 -0.5998,-5.98107 -1.3444,-6.54593 -2.96593,-2.25 -1.48896,3.9447 -4.94093,4.09067 -6.39341,0.27035 -0.82476,-2.16926 -0.63909,-3.55501 0.90439,-6.75 3.00557,-6.2215 3.50429,-10.50776 1.48254,-12.74177 -1.38873,-1.53453 -1.48425,-2.21788 -0.50142,-3.58712 3.71766,-5.17925 4.52989,-7.98516 3.22407,-11.1377 C 314.22432,407.71312 307.96905,403 304.0061,403 300.48931,403 294,408.45222 294,411.40698 c 0,1.38577 -0.96917,1.51691 -7.04041,0.95265 -4.18402,-0.38887 -7.93686,-0.23741 -9.25,0.3733 -1.21527,0.5652 -4.23459,1.85874 -6.70959,2.87454 -2.475,1.01579 -6.95158,4.28991 -9.94796,7.27583 -6.15925,6.13776 -7.51789,5.5064 -3.41835,-1.58851 4.44303,-7.68936 8.1861,-11.88147 15.76188,-17.65272 7.52041,-5.72907 11.57206,-7.18554 23.87599,-8.58284 6.89583,-0.78313 8.9792,-1.61775 7.14814,-2.8636 -0.56231,-0.3826 -1.82118,-2.82577 -2.7975,-5.42927 -0.97632,-2.6035 -2.55507,-5.69684 -3.50835,-6.87409 -1.65969,-2.04963 -1.858,-2.07034 -4.67354,-0.48809 -1.61717,0.9088 -5.41531,3.4389 -8.44031,5.62244 -3.025,2.18355 -5.89913,3.97083 -6.38695,3.97173 -3.20765,0.006 -27.0799,25.20239 -30.92773,32.64328 -0.88624,1.7138 -2.28997,3.37642 -3.1194,3.6947 C 242.55214,426.10909 240,423.42206 240,420.52906 c 0,-2.76627 5.23764,-10.81916 10.63698,-16.35439 2.12466,-2.17813 5.21302,-5.66474 6.86302,-7.74802 3.636,-4.59079 19.28814,-17.76924 23.76876,-20.0123 1.77718,-0.88968 4.64646,-3.25749 6.37616,-5.26179 l 3.14492,-3.64417 -2.01143,-4.0042 c -1.10629,-2.2023 -2.5986,-4.67919 -3.31625,-5.50419 -0.71765,-0.825 -2.69009,-4.21115 -4.38321,-7.52477 -3.67021,-7.183 -20.78934,-27.34874 -27.97664,-32.95551 C 250.29604,315.33057 248,313.23557 248,312.86418 c 0,-0.3714 -3.63746,-3.30528 -8.08325,-6.51973 -4.44579,-3.21445 -10.40829,-7.75984 -13.25,-10.10087 -2.84171,-2.34103 -8.08652,-6.39103 -11.65512,-9 -8.51818,-6.22755 -15.41917,-13.56745 -18.51252,-19.68992 -2.9935,-5.92487 -3.2257,-12.0368 -0.86168,-22.68099 1.58305,-7.12779 1.88307,-7.6099 9.03262,-14.51486 4.06735,-3.92821 8.84301,-7.67322 10.61257,-8.32225 1.76956,-0.64904 5.54623,-2.07663 8.3926,-3.17243 4.55841,-1.7549 6.64415,-1.91776 17.5,-1.36643 14.15274,0.71876 40.96578,4.85034 48.32478,7.44629 2.75,0.97009 9.275,3.33874 14.5,5.26366 5.225,1.92493 11.75,4.2792 14.5,5.23171 8.73142,3.02427 12.94297,4.58854 15,5.57135 4.57462,2.18567 30.49765,6.90456 34.12291,6.21154 6.28175,-1.20083 29.72379,2.53618 39.37709,6.2773 1.925,0.74603 4.85,1.6349 6.5,1.97527 5.35502,1.10466 16.0838,5.5127 20.20901,8.3031 2.21413,1.49769 6.61449,4.45902 9.77859,6.58073 6.07357,4.07268 17.64574,15.28172 26.0229,25.20631 17.61628,20.87035 28.17209,47.45139 28.36854,71.43604 0.15241,18.60808 -3.6685,34.16145 -11.03518,44.9197 -2.38912,3.48906 -5.29945,7.74697 -6.4674,9.46202 -4.27333,6.27509 -18.61859,19.40459 -23.76183,21.74801 -1.46442,0.66723 -2.86444,2.1485 -3.11116,3.29171 -2.22115,10.29199 1.47695,30.47513 6.62238,36.14301 1.03078,1.13545 1.87415,3.40093 1.87415,5.03439 0,5.8657 -9.02918,8.00196 -18.53915,4.38627 -3.17182,-1.20592 -3.30541,-5.45721 -0.27292,-8.68515 2.18017,-2.32068 2.18207,-2.35991 0.53673,-11.06445 -0.90816,-4.80453 -1.91312,-10.42301 -2.23324,-12.48551 -0.72155,-4.64877 -1.76259,-4.71203 -10.39458,-0.63162 -3.62826,1.71511 -7.62087,3.50835 -8.87247,3.98499 -3.27265,1.24631 -3.57709,2.95263 -1.79663,10.06979 1.13852,4.55107 2.40074,7.03013 4.49715,8.83258 5.77791,4.96773 4.55037,10.98173 -2.24632,11.00527 -1.74821,0.006 -4.75357,0.25864 -6.67857,0.56131 -2.36158,0.37131 -4.23184,0.024 -5.75,-1.06771 z m -118.5,-35.83932 c -4.41792,-4.04685 -4.59354,-5.06648 -1.25,-7.25725 2.27034,-1.48758 2.71788,-1.4953 4.87177,-0.084 3.04373,1.99433 3.87253,6.15278 1.74891,8.77506 -1.59848,1.97381 -1.67205,1.95417 -5.37068,-1.43379 z m 12.28625,-38.59757 c -0.56877,-1.06275 -1.9346,-2.21807 -3.03519,-2.56738 -2.67715,-0.8497 -2.52141,-2.11328 0.50484,-4.09616 3.60001,-2.35882 8.4941,-0.33233 8.4941,3.51714 0,4.71546 -3.99578,6.82359 -5.96375,3.1464 z"
       style="fill:#fcb502" />
    <path
       id="path11258"
       d="m 410.25,492.50461 c -2.66079,-1.91343 -3.0254,-6.6162 -0.66484,-8.57528 1.64798,-1.3677 1.57859,-2.57168 -0.62988,-10.92933 -2.0509,-7.76134 -1.58323,-7.4894 -13.06996,-7.59996 -12.55204,-0.12081 -25.0649,-3.06196 -32.38532,-7.61217 -2.75,-1.70934 -6.2375,-3.74384 -7.75,-4.52112 -2.67689,-1.37566 -2.75063,-1.6439 -2.77386,-10.08999 -0.0366,-13.31334 -3.1653,-22.98446 -10.09396,-31.20144 -4.576,-5.42687 -4.26568,-5.34127 -12.2885,-3.38946 -3.68807,0.89725 -5.64492,-1.44572 -4.94596,-5.92191 0.47913,-3.06846 0.28412,-3.26203 -6.46176,-6.41395 -3.82569,-1.7875 -8.47009,-3.25689 -10.32088,-3.26531 -4.43993,-0.0202 -5.14585,-0.62627 -7.24288,-6.21833 -0.97632,-2.6035 -2.55507,-5.69684 -3.50835,-6.87409 -1.65969,-2.04963 -1.858,-2.07034 -4.67354,-0.48809 -1.61717,0.9088 -5.41531,3.4389 -8.44031,5.62244 -3.025,2.18355 -5.89913,3.97083 -6.38695,3.97173 -3.20765,0.006 -27.0799,25.20239 -30.92773,32.64328 -0.88624,1.7138 -2.28997,3.37642 -3.1194,3.6947 C 242.55214,426.10909 240,423.42206 240,420.52906 c 0,-2.76627 5.23764,-10.81916 10.63698,-16.35439 2.12466,-2.17813 5.21302,-5.66474 6.86302,-7.74802 3.636,-4.59079 19.28814,-17.76924 23.76876,-20.0123 1.77718,-0.88968 4.64646,-3.25749 6.37616,-5.26179 l 3.14492,-3.64417 -2.01143,-4.0042 c -1.10629,-2.2023 -2.5986,-4.67919 -3.31625,-5.50419 -0.71765,-0.825 -2.69009,-4.21115 -4.38321,-7.52477 -3.67021,-7.183 -20.78934,-27.34874 -27.97664,-32.95551 C 250.29604,315.33057 248,313.23557 248,312.86418 c 0,-0.3714 -3.63746,-3.30528 -8.08325,-6.51973 -4.44579,-3.21445 -10.40829,-7.75984 -13.25,-10.10087 -2.84171,-2.34103 -8.08652,-6.39103 -11.65512,-9 -8.51818,-6.22755 -15.41917,-13.56745 -18.51252,-19.68992 -2.9935,-5.92487 -3.2257,-12.0368 -0.86168,-22.68099 1.58305,-7.12779 1.88307,-7.6099 9.03262,-14.51486 4.06735,-3.92821 8.84301,-7.67322 10.61257,-8.32225 1.76956,-0.64904 5.54623,-2.07663 8.3926,-3.17243 4.55841,-1.7549 6.64415,-1.91776 17.5,-1.36643 14.15274,0.71876 40.96578,4.85034 48.32478,7.44629 2.75,0.97009 9.275,3.33874 14.5,5.26366 5.225,1.92493 11.75,4.2792 14.5,5.23171 8.73142,3.02427 12.94297,4.58854 15,5.57135 4.57462,2.18567 30.49765,6.90456 34.12291,6.21154 6.28175,-1.20083 29.72379,2.53618 39.37709,6.2773 1.925,0.74603 4.85,1.6349 6.5,1.97527 5.35502,1.10466 16.0838,5.5127 20.20901,8.3031 2.21413,1.49769 6.61449,4.45902 9.77859,6.58073 6.07357,4.07268 17.64574,15.28172 26.0229,25.20631 17.61628,20.87035 28.17209,47.45139 28.36854,71.43604 0.15241,18.60808 -3.6685,34.16145 -11.03518,44.9197 -2.38912,3.48906 -5.29945,7.74697 -6.4674,9.46202 -4.27333,6.27509 -18.61859,19.40459 -23.76183,21.74801 -1.46442,0.66723 -2.86444,2.1485 -3.11116,3.29171 -2.22115,10.29199 1.47695,30.47513 6.62238,36.14301 1.03078,1.13545 1.87415,3.40093 1.87415,5.03439 0,5.8657 -9.02918,8.00196 -18.53915,4.38627 -3.17182,-1.20592 -3.30541,-5.45721 -0.27292,-8.68515 2.18017,-2.32068 2.18207,-2.35991 0.53673,-11.06445 -0.90816,-4.80453 -1.91312,-10.42301 -2.23324,-12.48551 -0.72155,-4.64877 -1.76259,-4.71203 -10.39458,-0.63162 -3.62826,1.71511 -7.62087,3.50835 -8.87247,3.98499 -3.27265,1.24631 -3.57709,2.95263 -1.79663,10.06979 1.13852,4.55107 2.40074,7.03013 4.49715,8.83258 5.77791,4.96773 4.55037,10.98173 -2.24632,11.00527 -1.74821,0.006 -4.75357,0.25864 -6.67857,0.56131 -2.36158,0.37131 -4.23184,0.024 -5.75,-1.06771 z m -118.5,-35.83932 c -4.41792,-4.04685 -4.59354,-5.06648 -1.25,-7.25725 2.27034,-1.48758 2.71788,-1.4953 4.87177,-0.084 3.04373,1.99433 3.87253,6.15278 1.74891,8.77506 -1.59848,1.97381 -1.67205,1.95417 -5.37068,-1.43379 z m 19.16269,-10.39494 c -0.83364,-2.19264 -0.63204,-3.54213 1.02475,-6.85953 1.13441,-2.27144 2.06256,-5.06654 2.06256,-6.21133 0,-2.61454 1.41082,-3.52126 4.13404,-2.65695 1.92663,0.61149 2.05861,1.16124 1.47365,6.13833 C 318.70627,444.3505 316.59973,449 314.02628,449 c -1.3406,0 -2.44334,-0.96676 -3.11359,-2.72965 z m -6.87644,-28.20263 c -0.56877,-1.06275 -1.9346,-2.21807 -3.03519,-2.56738 -2.67715,-0.8497 -2.52141,-2.11328 0.50484,-4.09616 3.60001,-2.35882 8.4941,-0.33233 8.4941,3.51714 0,4.71546 -3.99578,6.82359 -5.96375,3.1464 z"
       style="fill:#97d04b" />
    <path
       id="path11256"
       d="m 410.25,492.50461 c -2.66079,-1.91343 -3.0254,-6.6162 -0.66484,-8.57528 1.64798,-1.3677 1.57859,-2.57168 -0.62988,-10.92933 -1.77857,-6.73077 -2.35187,-7.47116 -6.05613,-7.8213 -1.86953,-0.17671 -3.82665,-0.73921 -4.34915,-1.25 -0.5225,-0.51078 -1.8725,-0.94379 -3,-0.96223 -1.707,-0.0279 -1.41834,-0.54948 1.72518,-3.1172 2.85964,-2.33582 3.51478,-3.39742 2.70144,-4.37744 -1.78633,-2.1524 0.88876,-2.90364 3.12692,-0.87813 1.86794,1.69046 2.13621,1.69589 4.84128,0.098 C 411.3704,452.66813 412,452.60114 412,454.26022 412,456.47099 407.00483,461 404.56652,461 c -1.2939,0 -2.58046,0.59395 -2.85903,1.31989 -0.79005,2.05884 8.28049,-0.54703 9.50205,-2.72983 0.69683,-1.24517 1.69133,-1.58077 3.40775,-1.14998 3.38658,0.84998 6.19238,-0.9403 6.56625,-4.1897 0.26319,-2.28739 0.7486,-2.70675 2.88353,-2.49121 2.88278,0.29105 7.88757,-4.05114 6.00814,-5.21269 -2.08335,-1.28758 -1.06985,-2.77861 1.54849,-2.27808 1.98249,0.37897 2.74417,0.0409 3.11663,-1.38343 0.27111,-1.03673 0.87148,-1.88497 1.33415,-1.88497 1.32532,0 6.22845,-8.95439 6.49891,-11.86872 0.13431,-1.4472 0.68547,-5.55628 1.2248,-9.13128 1.06509,-7.06003 -0.44061,-19.42577 -3.4094,-28 -2.61813,-7.56148 -11.41924,-21.83159 -18.26708,-29.61821 -1.99194,-2.26501 -5.42171,-6.40727 -7.62171,-9.20501 -2.2,-2.79774 -4.80079,-5.36659 -5.77952,-5.70855 -0.97874,-0.34196 -4.31126,-2.83721 -7.40559,-5.54499 C 398.22055,339.21546 395.06087,337 394.29338,337 c -0.76749,0 -2.09873,1.6875 -2.95832,3.75 -0.85958,2.0625 -3.60204,7.11261 -6.09435,11.22248 l -4.53148,7.47247 5.81541,5.28492 c 10.35748,9.41265 16.90214,22.72953 18.51005,37.66368 1.00057,9.29322 0.93122,11.20672 -0.57402,15.83835 -0.94164,2.89746 -2.75568,6.66802 -4.03119,8.37903 -2.52161,3.38256 -5.1862,4.13364 -17.82962,5.02565 -6.33549,0.44698 -7.23562,0.25674 -11,-2.32488 -2.25492,-1.54643 -6.26976,-3.9367 -8.92185,-5.3117 -2.6521,-1.375 -5.42631,-3.175 -6.16493,-4 -0.73861,-0.825 -4.52894,-4.81949 -8.42295,-8.87664 -6.20353,-6.46343 -7.28073,-7.21007 -8.70125,-6.03114 -1.90317,1.57949 -8.14557,3.87114 -10.6037,3.89272 -0.94315,0.008 -2.13883,-0.77723 -2.65708,-1.74558 -1.6044,-2.99786 -0.016,-7.34581 4.01341,-10.98618 2.12217,-1.91725 3.85535,-4.22104 3.85152,-5.11954 -0.004,-0.8985 -1.07925,-4.79267 -2.3898,-8.6537 -2.22162,-6.54513 -2.30072,-7.49871 -1.16925,-14.09508 1.4118,-8.2306 5.07959,-14.14942 10.7576,-17.35988 3.95514,-2.23631 8.615,-2.22816 21.13599,0.0369 4.24447,0.76784 6.19639,0.74813 7.18525,-0.0726 1.47508,-1.22421 10.33234,-15.84506 12.20054,-20.13967 0.87681,-2.01559 0.86957,-3.00118 -0.0302,-4.11541 -1.55063,-1.92016 -15.07649,-10.51773 -20.18314,-12.82918 -2.2,-0.9958 -5.125,-2.4815 -6.5,-3.30156 -1.375,-0.82005 -8.87548,-4.65657 -16.66774,-8.52559 -7.79226,-3.86902 -16.20148,-8.40714 -18.68715,-10.0847 -2.48567,-1.67755 -6.51324,-3.93207 -8.95015,-5.01003 -2.43691,-1.07797 -4.97849,-2.61993 -5.64796,-3.42659 -0.66947,-0.80666 -4.21642,-3.10273 -7.88211,-5.10238 C 293.4992,276.4546 288.475,273.14854 286,271.10744 c -5.28577,-4.35909 -10.5053,-7.57858 -14,-8.63544 -4.4343,-1.34101 -17,-7.60146 -17,-8.4697 0,-0.46286 -2.3625,-1.61629 -5.25,-2.56317 -2.8875,-0.94689 -7.62696,-3.28641 -10.53214,-5.19894 -4.0106,-2.64025 -5.96148,-3.34147 -8.10417,-2.91293 -1.55211,0.31042 -3.29736,0.0891 -3.87833,-0.4919 -3.11307,-3.11307 -25.48947,-4.66028 -27.20702,-1.88121 -0.36606,0.59229 -0.55175,4.21991 -0.41264,8.06137 0.1391,3.84147 -0.0196,6.98448 -0.35265,6.98448 -0.33306,0 -1.37739,-0.69849 -2.32073,-1.5522 -1.54899,-1.40182 -1.58084,-1.99853 -0.32874,-6.15893 1.6908,-5.61812 1.72891,-6.61857 0.21648,-5.68384 -0.79765,0.49297 -0.95675,0.16751 -0.5,-1.02277 0.36847,-0.96021 0.66994,-2.23583 0.66994,-2.83472 0,-1.85878 14.88644,-15.46634 18.28262,-16.71198 1.76956,-0.64904 5.54623,-2.07663 8.3926,-3.17243 4.55841,-1.7549 6.64415,-1.91776 17.5,-1.36643 14.15274,0.71876 40.96578,4.85034 48.32478,7.44629 2.75,0.97009 9.275,3.33874 14.5,5.26366 5.225,1.92493 11.75,4.2792 14.5,5.23171 8.73142,3.02427 12.94297,4.58854 15,5.57135 4.57462,2.18567 30.49765,6.90456 34.12291,6.21154 6.28175,-1.20083 29.72379,2.53618 39.37709,6.2773 1.925,0.74603 4.85,1.6349 6.5,1.97527 5.35502,1.10466 16.0838,5.5127 20.20901,8.3031 2.21413,1.49769 6.61449,4.45902 9.77859,6.58073 6.07357,4.07268 17.64574,15.28172 26.0229,25.20631 17.61628,20.87035 28.17209,47.45139 28.36854,71.43604 0.15241,18.60808 -3.6685,34.16145 -11.03518,44.9197 -2.38912,3.48906 -5.29945,7.74697 -6.4674,9.46202 -4.27333,6.27509 -18.61859,19.40459 -23.76183,21.74801 -1.46442,0.66723 -2.86444,2.1485 -3.11116,3.29171 -2.22115,10.29199 1.47695,30.47513 6.62238,36.14301 1.03078,1.13545 1.87415,3.40093 1.87415,5.03439 0,5.8657 -9.02918,8.00196 -18.53915,4.38627 -3.17182,-1.20592 -3.30541,-5.45721 -0.27292,-8.68515 2.18017,-2.32068 2.18207,-2.35991 0.53673,-11.06445 -0.90816,-4.80453 -1.91312,-10.42301 -2.23324,-12.48551 -0.72155,-4.64877 -1.76259,-4.71203 -10.39458,-0.63162 -3.62826,1.71511 -7.62087,3.50835 -8.87247,3.98499 -3.27265,1.24631 -3.57709,2.95263 -1.79663,10.06979 1.13852,4.55107 2.40074,7.03013 4.49715,8.83258 5.77791,4.96773 4.55037,10.98173 -2.24632,11.00527 -1.74821,0.006 -4.75357,0.25864 -6.67857,0.56131 -2.36158,0.37131 -4.23184,0.024 -5.75,-1.06771 z m -27.03437,-29.74044 c -1.44983,-0.69844 -2.18048,-1.82707 -2,-3.08937 0.1564,-1.09389 -0.27813,-2.18072 -0.96563,-2.41518 -0.73641,-0.25114 -1.25,0.42969 -1.25,1.65705 0,1.50683 -0.62262,2.07118 -2.25,2.03944 -3.16309,-0.0617 -9.5955,-2.47818 -11.58052,-4.35047 -0.91821,-0.86607 -3.01948,-2.67533 -4.66948,-4.02059 -2.29977,-1.87502 -2.72697,-2.72352 -1.83024,-3.63525 0.90108,-0.91615 2.22178,-0.43382 5.75,2.09996 2.51913,1.8091 4.58024,3.663 4.58024,4.11976 C 369,455.62628 369.83086,456 370.84636,456 373.24352,456 379,453.12428 379,451.92676 379,451.41704 380.8,451 383,451 c 4.55057,0 4.62517,0.13309 2.29019,4.0859 -2.41401,4.08658 -0.85371,5.21884 4.60168,3.33931 4.5439,-1.5655 6.32073,-1.23781 4.29146,0.79146 C 393.5325,459.8675 393,461.21 393,462.2 c 0,1.42537 -0.78049,1.78591 -3.75,1.73232 -2.0625,-0.0372 -4.77797,-0.56289 -6.03437,-1.16815 z M 291.75,456.66529 c -4.41792,-4.04685 -4.59354,-5.06648 -1.25,-7.25725 2.27034,-1.48758 2.71788,-1.4953 4.87177,-0.084 3.04373,1.99433 3.87253,6.15278 1.74891,8.77506 -1.59848,1.97381 -1.67205,1.95417 -5.37068,-1.43379 z M 312.2,447.8 c -1.62631,-1.62631 -1.50957,-4.97782 0.29384,-8.43569 0.82161,-1.57537 1.5035,-3.76431 1.51531,-4.86431 0.0348,-3.24318 1.51205,-4.78674 3.866,-4.03962 2.62108,0.83189 2.76289,4.02269 0.51591,11.60812 -1.95405,6.59656 -3.70501,8.21755 -6.19106,5.7315 z M 241.52894,424.38608 C 240.68802,423.54517 240,421.80951 240,420.52906 c 0,-2.76627 5.23764,-10.81916 10.63698,-16.35439 2.12466,-2.17813 5.21302,-5.66474 6.86302,-7.74802 3.636,-4.59079 19.28814,-17.76924 23.76876,-20.0123 1.77718,-0.88968 4.60075,-3.20305 6.2746,-5.14082 2.68889,-3.11284 3.41687,-3.44118 6.25,-2.81891 2.8015,0.61531 3.20664,1.11231 3.20664,3.93371 0,3.52449 -1.16869,5.37187 -5,7.90363 -1.375,0.90861 -4.75,3.23274 -7.5,5.16474 -2.75,1.93199 -5.39913,3.5196 -5.88695,3.52801 -3.24449,0.0559 -27.08896,25.23356 -30.92773,32.65692 -1.97066,3.81083 -4.1282,4.77264 -6.15638,2.74445 z m 62.50731,-6.31836 c -0.56877,-1.06275 -1.9346,-2.21807 -3.03519,-2.56738 -2.67715,-0.8497 -2.52141,-2.11328 0.50484,-4.09616 3.60001,-2.35882 8.4941,-0.33233 8.4941,3.51714 0,4.71546 -3.99578,6.82359 -5.96375,3.1464 z M 282.1191,347.81325 c -0.54765,-1.44043 -1.47349,-2.91424 -2.05742,-3.27513 C 278.48156,343.56155 278.75446,339 280.39301,339 c 0.76616,0 1.65203,0.675 1.96862,1.5 0.31658,0.825 1.62436,1.5 2.90618,1.5 2.07367,0 2.28565,0.38494 1.92292,3.49198 -0.23369,2.00171 -0.83586,3.22734 -1.411,2.87188 -0.55184,-0.34105 -1.37719,-0.0152 -1.83412,0.72414 -0.61894,1.00148 -1.08467,0.67644 -1.82651,-1.27475 z M 255.88221,317.2762 c -0.88393,-0.97691 -3.25844,-3.28885 -5.27669,-5.13764 -2.83581,-2.5977 -3.5159,-3.84556 -2.99329,-5.49216 0.57866,-1.8232 0.45632,-1.94818 -0.84763,-0.866 -1.2445,1.03285 -2.09483,0.93974 -4.63793,-0.50784 -3.25802,-1.85452 -3.68209,-2.84697 -2.20998,-5.172 0.66014,-1.04263 2.10217,-1.23276 5.65566,-0.7457 5.61735,0.76995 6.11566,1.11121 4.48739,3.07315 -0.98457,1.18634 -0.86524,1.97065 0.6075,3.99274 1.00802,1.38402 2.17026,2.53054 2.58276,2.54783 0.4125,0.0173 0.75,0.76931 0.75,1.67118 0,1.98746 2.82547,4.28487 5.32332,4.32844 1.18563,0.0207 1.70623,0.63984 1.48852,1.77032 -0.46189,2.39839 -2.99594,2.67479 -4.92963,0.53768 z M 219.75,288.65108 c -4.6105,-4.13421 -6.05099,-7.72899 -3.68347,-9.1922 1.58425,-0.97912 2.46743,0.53503 2.85696,4.89811 0.0421,0.47134 0.7392,0.60269 1.54914,0.29188 0.85251,-0.32713 2.13169,0.36475 3.03771,1.64302 l 1.56507,2.20811 1.77528,-2.3278 c 1.58485,-2.0781 1.91469,-2.15982 3.07492,-0.76183 1.08287,1.30478 1.03067,1.66918 -0.31299,2.18479 -1.78537,0.68511 -2.22758,3.40484 -0.5536,3.40484 0.58246,0 0.7809,0.45 0.44098,1 -1.29128,2.08934 -5.17156,0.75654 -9.75,-3.34892 z m -11.13393,-8.17787 c -2.02409,-2.02409 -2.07354,-4.08369 -0.11607,-4.83484 0.825,-0.31658 1.5,-1.45222 1.5,-2.52365 0,-2.33406 1.2855,-2.8732 5.40803,-2.26814 2.58183,0.37893 2.76469,0.56666 1.11548,1.14517 -1.27565,0.44748 -2.34547,2.22347 -3.02802,5.02676 -1.18822,4.88015 -2.51476,5.81937 -4.87942,3.4547 z m -3.11834,-10.47688 c -0.34116,-0.55202 -1.68136,-0.73736 -2.97822,-0.41187 -2.91123,0.73067 -5.64492,-2.90752 -5.86958,-7.81166 -0.13462,-2.93861 0.15641,-3.30565 2.85007,-3.5945 2.88858,-0.30975 2.92572,-0.26404 1,1.231 -1.52653,1.18511 -1.69937,1.75162 -0.73013,2.393 0.69843,0.46216 1.14843,1.93176 1,3.26576 -0.20984,1.88593 0.25629,2.50064 2.09547,2.76337 1.30093,0.18584 2.85343,-0.1502 3.45,-0.74677 C 208.06683,265.33317 209,265.82513 209,268.5 c 0,2.5143 -2.27295,3.4854 -3.50227,1.49633 z"
       style="fill:#88a15e" />
    <path
       id="path11254"
       d="m 411.21933,492.44107 c -2.64778,-1.85458 -2.87574,-5.50963 -0.56369,-9.03826 1.54086,-2.35165 1.54086,-2.76754 0,-5.99875 C 409.74504,475.49451 409,472.37241 409,470.46607 c 0,-2.13274 -0.76936,-4.23543 -2,-5.46607 -2.5851,-2.5851 -2.52082,-3 0.46482,-3 1.4759,0 2.9131,-0.83764 3.58216,-2.08779 0.84075,-1.57096 1.72096,-1.93629 3.5557,-1.47579 3.40007,0.85336 6.20642,-0.93174 6.58086,-4.18604 0.26319,-2.28739 0.7486,-2.70675 2.88353,-2.49121 2.88278,0.29105 7.88757,-4.05114 6.00814,-5.21269 -2.08335,-1.28758 -1.06985,-2.77861 1.54849,-2.27808 1.98249,0.37897 2.74417,0.0409 3.11663,-1.38343 0.27111,-1.03673 0.87148,-1.88497 1.33415,-1.88497 1.32532,0 6.22845,-8.95439 6.49891,-11.86872 0.13431,-1.4472 0.68559,-5.55628 1.22507,-9.13128 0.78889,-5.22773 0.60116,-8.75094 -0.9591,-18 -1.94118,-11.50709 -4.41684,-18.10041 -9.38702,-25 -1.38668,-1.925 -4.19324,-5.83956 -6.23679,-8.69902 -6.57053,-9.19389 -15.07017,-19.06269 -18.43837,-21.4085 -1.80245,-1.25532 -5.5757,-4.21968 -8.38499,-6.58745 C 397.58289,337.93727 394.78291,336 394.17001,336 c -0.61289,0 -2.40549,2.5875 -3.98354,5.75 -1.57806,3.1625 -4.04605,7.47152 -5.48444,9.57561 -4.72039,6.90502 -4.63431,7.53635 1.82835,13.40947 10.35169,9.4074 16.89673,22.72731 18.50431,37.65847 1.00057,9.29322 0.93122,11.20672 -0.57402,15.83835 -0.94164,2.89746 -2.75568,6.66802 -4.03119,8.37903 -2.52161,3.38256 -5.1862,4.13364 -17.82962,5.02565 -6.33549,0.44698 -7.23562,0.25674 -11,-2.32488 -2.25492,-1.54643 -6.26976,-3.9367 -8.92185,-5.3117 -2.6521,-1.375 -5.42631,-3.175 -6.16493,-4 -6.17381,-6.89588 -15.4481,-16 -16.29906,-16 -0.57604,0 -1.2131,0.49725 -1.41569,1.10501 -0.40078,1.20235 -7.2483,3.85566 -10.01315,3.87993 -0.94315,0.008 -2.12677,-0.77244 -2.63027,-1.73494 -1.23133,-2.35384 -0.25243,-8.25 1.3697,-8.25 1.74235,0 6.47716,-5.72907 6.46842,-7.82673 -0.004,-0.9203 -1.07925,-4.8323 -2.3898,-8.69333 -2.22162,-6.54513 -2.30072,-7.49871 -1.16925,-14.09508 1.4118,-8.2306 5.07959,-14.14942 10.7576,-17.35988 3.98303,-2.25207 8.20089,-2.23417 21.55581,0.0915 5.25236,0.91466 6.68166,0.86898 7.73574,-0.24725 C 373.18193,348.0113 383,330.42181 383,328.4447 383,326.66746 378.27125,322 376.47067,322 c -0.33568,0 -2.63416,-1.39244 -5.10774,-3.0943 -2.47358,-1.70187 -14.25465,-8.03564 -26.18017,-14.07504 -23.09382,-11.69534 -34.19981,-17.86635 -40.71929,-22.62555 -2.22009,-1.62066 -5.88784,-3.89112 -8.15055,-5.04547 -2.26271,-1.15435 -7.06573,-4.36118 -10.67337,-7.12629 -6.40006,-4.90537 -8.37318,-5.9772 -17.63955,-9.5821 -8.25387,-3.211 -12.81675,-5.53133 -13.28698,-6.75672 -0.25613,-0.66746 -2.60268,-1.78513 -5.21455,-2.4837 -2.61188,-0.69857 -7.18199,-2.88514 -10.15581,-4.85905 -4.13145,-2.7423 -6.07265,-3.45578 -8.22897,-3.02452 -1.55211,0.31042 -3.29736,0.0891 -3.87833,-0.4919 -3.11307,-3.11307 -25.48947,-4.66028 -27.20702,-1.88121 -0.36606,0.59229 -0.55175,4.21991 -0.41264,8.06137 0.1391,3.84147 -0.0196,6.98448 -0.35265,6.98448 -0.33306,0 -1.37739,-0.69849 -2.32073,-1.5522 -1.54899,-1.40182 -1.58084,-1.99853 -0.32874,-6.15893 0.76253,-2.5337 1.38642,-6.03416 1.38642,-7.7788 0,-2.62782 1.25761,-4.3915 7.32969,-10.27927 4.1385,-4.01288 8.60113,-7.41008 10.25,-7.80285 1.60617,-0.38261 5.54115,-1.78016 8.74441,-3.10567 3.20325,-1.32551 6.57825,-2.18557 7.5,-1.91124 0.92174,0.27433 5.9509,0.59178 11.1759,0.70545 9.45187,0.20563 31.05571,3.36212 42.5,6.20959 3.3,0.82108 10.30258,3.2676 15.5613,5.4367 5.25871,2.16911 11.33371,4.26784 13.5,4.66385 2.16628,0.39601 5.42692,1.58702 7.24586,2.6467 1.81894,1.05967 4.06894,1.92944 5,1.93283 0.93106,0.003 2.95154,0.6627 4.48996,1.46514 6.26535,3.26802 22.83004,6.35142 41.20288,7.66962 20.19122,1.44867 20.90656,1.52799 24.62324,2.73027 1.85722,0.60078 6.30176,1.97476 9.87676,3.0533 15.97894,4.82065 19.92475,6.39632 26.5,10.58214 3.85,2.45092 8.35,5.25207 10,6.22479 3.48627,2.05525 19.77765,18.19366 26.88435,26.63192 11.69664,13.8882 19.80359,30.70137 25.38029,52.63666 2.38475,9.38014 2.36078,30.69223 -0.0433,38.5 -0.84675,2.75 -2.29015,7.7 -3.20756,11 -2.6587,9.56361 -16.46677,28.4049 -25.65409,35.00533 -2.67283,1.92024 -4.85969,3.96505 -4.85969,4.54403 0,0.57898 -1.49832,1.67873 -3.32961,2.44389 -1.83128,0.76516 -3.82171,1.98415 -4.42318,2.70887 -1.84193,2.2194 -2.58686,13.13198 -1.29348,18.94839 2.2092,9.93489 5.08768,18.63897 6.57115,19.87014 2.04386,1.69625 1.84689,6.33293 -0.35362,8.32436 -1.90262,1.72185 -9.26483,2.11968 -14.17126,0.76576 -3.42516,-0.94516 -3.93907,-5.48228 -0.97797,-8.63422 2.12731,-2.26442 2.14158,-2.46489 0.65103,-9.14586 -0.83817,-3.75688 -1.83882,-9.45392 -2.22365,-12.6601 -0.43603,-3.63273 -1.24163,-6.03736 -2.13784,-6.38127 -0.79098,-0.30353 -3.91944,0.6631 -6.95213,2.14807 -3.0327,1.48496 -7.50422,3.55304 -9.93672,4.59573 -4.05943,1.74008 -4.42272,2.19132 -4.42272,5.49345 0,5.38922 2.95292,13.39647 5.5736,15.11361 2.55883,1.67661 4.18519,7.00103 2.61737,8.56885 -0.55624,0.55624 -3.05338,1.14902 -5.5492,1.31728 -2.49582,0.16826 -5.36254,0.56768 -6.37048,0.88759 -1.00795,0.31991 -2.83133,-0.11787 -4.05196,-0.97283 z m -28.0037,-29.6769 c -1.44983,-0.69844 -2.18048,-1.82707 -2,-3.08937 0.1564,-1.09389 -0.27813,-2.18072 -0.96563,-2.41518 -0.73641,-0.25114 -1.25,0.42969 -1.25,1.65705 0,1.50683 -0.62262,2.07118 -2.25,2.03944 -3.16309,-0.0617 -9.5955,-2.47818 -11.58052,-4.35047 -0.91821,-0.86607 -3.01948,-2.67533 -4.66948,-4.02059 -2.29977,-1.87502 -2.72697,-2.72352 -1.83024,-3.63525 0.90108,-0.91615 2.22178,-0.43382 5.75,2.09996 2.51913,1.8091 4.58024,3.663 4.58024,4.11976 C 369,455.62628 369.83086,456 370.84636,456 373.24352,456 379,453.12428 379,451.92676 379,451.41704 380.8,451 383,451 c 4.55057,0 4.62517,0.13309 2.29019,4.0859 -2.41401,4.08658 -0.85371,5.21884 4.60168,3.33931 4.5439,-1.5655 6.32073,-1.23781 4.29146,0.79146 C 393.5325,459.8675 393,461.21 393,462.2 c 0,1.42537 -0.78049,1.78591 -3.75,1.73232 -2.0625,-0.0372 -4.77797,-0.56289 -6.03437,-1.16815 z m 12.88895,0.36575 c -2.36535,-0.6623 -2.34905,-0.70608 1.29912,-3.48867 2.84645,-2.17109 3.44256,-3.12157 2.59686,-4.14058 -1.8089,-2.17959 0.84092,-2.9541 3.10298,-0.90697 1.86794,1.69046 2.13621,1.69589 4.84128,0.098 C 411.3704,452.66813 412,452.60114 412,454.26022 412,456.47099 407.00483,461 404.56652,461 c -1.2939,0 -2.61156,0.675 -2.92815,1.5 -0.61031,1.59045 -1.67179,1.71128 -5.53379,0.62992 z m -104.48114,-7.44461 c -3.26247,-3.47106 -2.6274,-6.18531 1.4472,-6.18531 3.07851,0 5.92677,4.69394 4.35792,7.18185 -1.60534,2.54577 -2.64314,2.36761 -5.80512,-0.99654 z m 21.06616,-7.83914 c -2.05642,-1.15083 -2.16432,-4.02748 -0.28722,-7.65739 0.77131,-1.49155 1.63874,-4.21163 1.92762,-6.04463 0.6513,-4.13254 1.0024,-4.49081 3.59464,-3.66807 2.59045,0.82218 2.68459,3.87271 0.36108,11.69968 -1.81786,6.12361 -2.87401,7.19378 -5.59612,5.67041 z M 241.03518,423.06574 C 240.46583,422.0019 240,420.64105 240,420.04163 c 0,-1.69534 6.75151,-11.09777 10.82803,-15.07956 2.01958,-1.97265 4.79697,-5.26934 6.17197,-7.32597 2.90647,-4.34729 16.97795,-16.37578 23.80135,-20.3457 2.58426,-1.50355 5.52105,-3.76182 6.5262,-5.01838 2.48464,-3.1061 4.92924,-4.27914 7.51078,-3.60405 1.67537,0.43812 2.16167,1.3224 2.16167,3.93071 0,2.99601 -0.74092,3.9124 -6.75,8.34854 -3.7125,2.74072 -8.566,5.85574 -10.78555,6.92227 -6.90738,3.31911 -25.63579,22.95675 -32.78867,34.38051 -2.01661,3.2207 -4.18563,3.53438 -5.6406,0.81574 z m 63.19092,-5.52071 c -1.10188,-1.26728 -2.61602,-2.51016 -3.36476,-2.76196 C 298.54424,414.00382 301.83041,411 305,411 c 3.46642,0 5.40388,2.25466 4.6203,5.37671 -0.85067,3.38935 -3.04904,3.86549 -5.3942,1.16832 z m -22.107,-69.73178 c -0.54765,-1.44043 -1.47349,-2.91424 -2.05742,-3.27513 C 278.48156,343.56155 278.75446,339 280.39301,339 c 0.76616,0 1.65203,0.675 1.96862,1.5 0.31658,0.825 1.62436,1.5 2.90618,1.5 2.07367,0 2.28565,0.38494 1.92292,3.49198 -0.23369,2.00171 -0.83586,3.22734 -1.411,2.87188 -0.55184,-0.34105 -1.37719,-0.0152 -1.83412,0.72414 -0.61894,1.00148 -1.08467,0.67644 -1.82651,-1.27475 z M 255.88221,317.2762 c -0.88393,-0.97691 -3.25844,-3.28885 -5.27669,-5.13764 -2.83581,-2.5977 -3.5159,-3.84556 -2.99329,-5.49216 0.57866,-1.8232 0.45632,-1.94818 -0.84763,-0.866 -1.2445,1.03285 -2.09483,0.93974 -4.63793,-0.50784 -3.25802,-1.85452 -3.68209,-2.84697 -2.20998,-5.172 0.66014,-1.04263 2.10217,-1.23276 5.65566,-0.7457 5.61735,0.76995 6.11566,1.11121 4.48739,3.07315 -0.98457,1.18634 -0.86524,1.97065 0.6075,3.99274 1.00802,1.38402 2.17026,2.53054 2.58276,2.54783 0.4125,0.0173 0.75,0.76931 0.75,1.67118 0,1.98746 2.82547,4.28487 5.32332,4.32844 1.18563,0.0207 1.70623,0.63984 1.48852,1.77032 -0.46189,2.39839 -2.99594,2.67479 -4.92963,0.53768 z M 219.75,288.65108 c -4.6105,-4.13421 -6.05099,-7.72899 -3.68347,-9.1922 1.58425,-0.97912 2.46743,0.53503 2.85696,4.89811 0.0421,0.47134 0.7392,0.60269 1.54914,0.29188 0.85251,-0.32713 2.13169,0.36475 3.03771,1.64302 l 1.56507,2.20811 1.77528,-2.3278 c 1.58485,-2.0781 1.91469,-2.15982 3.07492,-0.76183 1.08287,1.30478 1.03067,1.66918 -0.31299,2.18479 -1.78537,0.68511 -2.22758,3.40484 -0.5536,3.40484 0.58246,0 0.7809,0.45 0.44098,1 -1.29128,2.08934 -5.17156,0.75654 -9.75,-3.34892 z m -11.13393,-8.17787 c -2.02409,-2.02409 -2.07354,-4.08369 -0.11607,-4.83484 0.825,-0.31658 1.5,-1.45222 1.5,-2.52365 0,-2.33406 1.2855,-2.8732 5.40803,-2.26814 2.58183,0.37893 2.76469,0.56666 1.11548,1.14517 -1.27565,0.44748 -2.34547,2.22347 -3.02802,5.02676 -1.18822,4.88015 -2.51476,5.81937 -4.87942,3.4547 z m -3.11834,-10.47688 c -0.34116,-0.55202 -1.68136,-0.73736 -2.97822,-0.41187 -2.91123,0.73067 -5.64492,-2.90752 -5.86958,-7.81166 -0.13462,-2.93861 0.15641,-3.30565 2.85007,-3.5945 2.88858,-0.30975 2.92572,-0.26404 1,1.231 -1.52653,1.18511 -1.69937,1.75162 -0.73013,2.393 0.69843,0.46216 1.14843,1.93176 1,3.26576 -0.20984,1.88593 0.25629,2.50064 2.09547,2.76337 1.30093,0.18584 2.85343,-0.1502 3.45,-0.74677 C 208.06683,265.33317 209,265.82513 209,268.5 c 0,2.5143 -2.27295,3.4854 -3.50227,1.49633 z"
       style="fill:#86c634" />
    <path
       id="path11252"
       d="m 411.21933,492.44107 c -2.64778,-1.85458 -2.87574,-5.50963 -0.56369,-9.03826 1.54086,-2.35165 1.54086,-2.76754 0,-5.99875 C 409.74504,475.49451 409,472.47254 409,470.68858 c 0,-1.78396 -0.70052,-4.2437 -1.5567,-5.46607 -1.47384,-2.10419 -1.43391,-2.22262 0.75,-2.22465 2.65547,-0.002 13.00632,-5.20784 17.0513,-8.57499 1.50954,-1.25657 3.53454,-2.53541 4.5,-2.84187 1.75752,-0.55788 8.83091,-10.43922 11.51131,-16.081 2.39332,-5.03752 4.01683,-17.10452 3.27473,-24.33985 -1.53594,-14.97513 -5.03872,-25.77602 -11.0783,-34.16015 -1.38668,-1.925 -4.19324,-5.83956 -6.23679,-8.69902 -6.57053,-9.19389 -15.07017,-19.06269 -18.43837,-21.4085 -1.80245,-1.25532 -5.5757,-4.21968 -8.38499,-6.58745 C 397.58289,337.93727 394.78291,336 394.17001,336 c -0.61289,0 -2.50944,2.8125 -4.21455,6.25 -1.7051,3.4375 -3.7216,6.93721 -4.48111,7.77712 -0.75951,0.83992 -2.57053,3.98992 -4.0245,7 -1.45397,3.01009 -3.61289,7.38599 -4.79761,9.72424 -1.18471,2.33825 -5.97862,7.96611 -10.65313,12.50636 -4.67451,4.54025 -11.50745,11.41463 -15.18431,15.27642 C 343.88362,401.81392 333.19985,409 329.30794,409 c -2.90713,0 -4.59571,-3.1129 -3.39776,-6.26376 0.50076,-1.3171 3.86787,-5.10464 7.48247,-8.41676 3.6146,-3.31212 9.10781,-9.12647 12.20713,-12.92076 3.09932,-3.7943 6.01654,-7.04348 6.48272,-7.2204 1.19775,-0.45458 10.0323,-11.89667 12.87749,-16.67832 1.30905,-2.2 3.38895,-4.9 4.622,-6 C 372.66354,348.75097 383,330.99049 383,328.4447 383,326.66746 378.27125,322 376.47067,322 c -0.33568,0 -2.63416,-1.39244 -5.10774,-3.0943 -2.47358,-1.70187 -14.25465,-8.03564 -26.18017,-14.07504 -23.09382,-11.69534 -34.19981,-17.86635 -40.71929,-22.62555 -2.22009,-1.62066 -5.88784,-3.89112 -8.15055,-5.04547 -2.26271,-1.15435 -7.06573,-4.36118 -10.67337,-7.12629 -6.4926,-4.9763 -7.98308,-5.78307 -18.59018,-10.0625 -2.99784,-1.20949 -7.27284,-3.36642 -9.5,-4.7932 -7.27737,-4.66208 -23.36276,-12.16601 -27.10643,-12.64532 -2.01379,-0.25783 -4.18916,-0.90675 -4.83415,-1.44204 -1.66059,-1.37817 -16.98865,-3.15758 -20.86819,-2.42256 -1.78233,0.33769 -4.0281,1.01642 -4.9906,1.50831 -1.36099,0.69553 -1.75,0.47949 -1.75,-0.97186 0,-2.58231 13.97354,-15.91721 17.57969,-16.77623 1.60617,-0.38261 5.54115,-1.78016 8.74441,-3.10567 3.20325,-1.32551 6.57825,-2.18557 7.5,-1.91124 0.92174,0.27433 5.9509,0.59178 11.1759,0.70545 9.45187,0.20563 31.05571,3.36212 42.5,6.20959 3.3,0.82108 10.30258,3.2676 15.5613,5.4367 5.25871,2.16911 11.33371,4.26784 13.5,4.66385 2.16628,0.39601 5.42692,1.58702 7.24586,2.6467 1.81894,1.05967 4.06894,1.92944 5,1.93283 0.93106,0.003 2.95154,0.6627 4.48996,1.46514 6.26535,3.26802 22.83004,6.35142 41.20288,7.66962 20.19122,1.44867 20.90656,1.52799 24.62324,2.73027 1.85722,0.60078 6.30176,1.97476 9.87676,3.0533 15.97894,4.82065 19.92475,6.39632 26.5,10.58214 3.85,2.45092 8.35,5.25207 10,6.22479 3.48627,2.05525 19.77765,18.19366 26.88435,26.63192 11.69664,13.8882 19.80359,30.70137 25.38029,52.63666 2.38475,9.38014 2.36078,30.69223 -0.0433,38.5 -0.84675,2.75 -2.29015,7.7 -3.20756,11 -2.6587,9.56361 -16.46677,28.4049 -25.65409,35.00533 -2.67283,1.92024 -4.85969,3.96505 -4.85969,4.54403 0,0.57898 -1.49832,1.67873 -3.32961,2.44389 -1.83128,0.76516 -3.82171,1.98415 -4.42318,2.70887 -1.84193,2.2194 -2.58686,13.13198 -1.29348,18.94839 2.2092,9.93489 5.08768,18.63897 6.57115,19.87014 2.04386,1.69625 1.84689,6.33293 -0.35362,8.32436 -1.90262,1.72185 -9.26483,2.11968 -14.17126,0.76576 -3.42516,-0.94516 -3.93907,-5.48228 -0.97797,-8.63422 2.12731,-2.26442 2.14158,-2.46489 0.65103,-9.14586 -0.83817,-3.75688 -1.83882,-9.45392 -2.22365,-12.6601 -0.43603,-3.63273 -1.24163,-6.03736 -2.13784,-6.38127 -0.79098,-0.30353 -3.91944,0.6631 -6.95213,2.14807 -3.0327,1.48496 -7.50422,3.55304 -9.93672,4.59573 -4.05943,1.74008 -4.42272,2.19132 -4.42272,5.49345 0,5.38922 2.95292,13.39647 5.5736,15.11361 2.55883,1.67661 4.18519,7.00103 2.61737,8.56885 -0.55624,0.55624 -3.05338,1.14902 -5.5492,1.31728 -2.49582,0.16826 -5.36254,0.56768 -6.37048,0.88759 -1.00795,0.31991 -2.83133,-0.11787 -4.05196,-0.97283 z M 291.62344,455.68531 c -3.26247,-3.47106 -2.6274,-6.18531 1.4472,-6.18531 3.07851,0 5.92677,4.69394 4.35792,7.18185 -1.60534,2.54577 -2.64314,2.36761 -5.80512,-0.99654 z m 20.93461,-8.01921 c -2.04416,-1.49472 -1.9236,-2.64128 1.22667,-11.6661 1.05592,-3.025 2.43633,-5.455 3.06757,-5.4 0.63124,0.055 1.59771,0.1675 2.14771,0.25 1.4968,0.22452 1.20749,5.16554 -0.6278,10.72186 -2.17023,6.57036 -3.40008,7.85946 -5.81415,6.09424 z M 241.03518,423.06574 C 240.46583,422.0019 240,420.64105 240,420.04163 c 0,-1.69534 6.75151,-11.09777 10.82803,-15.07956 2.01958,-1.97265 4.79697,-5.26934 6.17197,-7.32597 2.89779,-4.33432 16.95105,-16.35449 23.80135,-20.35801 2.58426,-1.51031 5.75115,-3.99074 7.03754,-5.51206 3.54656,-4.19424 6.21882,-3.3686 7.65814,2.36612 0.59931,2.38783 -0.0384,3.10961 -7.1696,8.11439 -4.30509,3.02137 -8.7811,5.78858 -9.94669,6.14933 -4.53662,1.40409 -25.2057,23.47426 -31.70496,33.85413 -2.01661,3.2207 -4.18563,3.53438 -5.6406,0.81574 z m 63.19092,-5.52071 c -1.10188,-1.26728 -2.61602,-2.51016 -3.36476,-2.76196 C 298.54424,414.00382 301.83041,411 305,411 c 3.46642,0 5.40388,2.25466 4.6203,5.37671 -0.85067,3.38935 -3.04904,3.86549 -5.3942,1.16832 z"
       style="fill:#759249" />
    <path
       id="path11250"
       d="m 410.60878,491.46592 c -2.05384,-2.05384 -2.02689,-3.57533 0.12991,-7.33334 1.54219,-2.68711 1.58097,-3.40263 0.34307,-6.33104 -0.76759,-1.81585 -1.59019,-5.63878 -1.82799,-8.49541 -0.31033,-3.72793 -0.90109,-5.33055 -2.09307,-5.67811 -0.91338,-0.26632 -0.0134,-0.24905 1.99993,0.0384 3.90519,0.55755 7.45089,-1.09838 18.88986,-8.82202 5.49101,-3.70755 10.80917,-10.35237 14.68191,-18.3444 3.12613,-6.45128 4.55763,-19.03546 3.26886,-28.73633 -1.31268,-9.88091 -1.97998,-12.41614 -2.88331,-10.95452 -0.36487,0.59038 -0.66972,-0.58766 -0.67743,-2.61787 -0.008,-2.07017 -1.25956,-6.10673 -2.8501,-9.19128 -6.09535,-11.82069 -24.38831,-35.67992 -30.3286,-39.55711 -1.519,-0.99145 -5.39817,-3.99291 -8.62039,-6.66991 -3.22221,-2.677 -6.37221,-4.71622 -7,-4.53161 -0.62778,0.18462 -2.49143,3.01833 -4.14143,6.29715 -1.65,3.27881 -4.47143,8.20117 -6.26985,10.93856 -1.79842,2.73739 -3.04107,5.57327 -2.76145,6.30194 0.27961,0.72867 0.0908,1.06677 -0.4196,0.75133 -0.51039,-0.31544 -2.49618,2.10218 -4.41286,5.3725 -2.23889,3.82009 -9.67201,12.14059 -20.78968,23.27159 -9.51764,9.52906 -17.2071,17.64687 -17.08768,18.03957 0.11942,0.39271 -0.52629,0.42874 -1.43492,0.0801 -1.1009,-0.42245 -1.41318,-0.24746 -0.93607,0.52454 0.48251,0.78071 0.15642,0.94376 -1,0.5 -1.15641,-0.44376 -1.4825,-0.28072 -1,0.5 0.48251,0.78071 0.15642,0.94376 -1,0.5 -1.0958,-0.4205 -1.47549,-0.26936 -1.05056,0.41819 0.4241,0.6862 -0.0661,0.88539 -1.35153,0.54923 -1.10933,-0.29009 -2.18969,-0.81063 -2.4008,-1.15674 -0.75147,-1.23201 -1.07293,-6.03351 -0.39054,-5.83317 1.09867,0.32255 7.78273,-6.52401 7.23476,-7.41064 -0.27112,-0.43869 0.58951,-1.50687 1.91251,-2.37374 1.32301,-0.86686 5.27484,-5.15742 8.78187,-9.53458 3.50702,-4.37715 6.67282,-7.96267 7.03512,-7.96781 0.99596,-0.0141 10.0953,-11.8653 13.25175,-17.25935 1.52877,-2.6125 2.96939,-4.75 3.2014,-4.75 0.97184,0 -4.81166,9.85724 -8.31676,14.17485 -7.73236,9.52479 -21.39458,24.78142 -23.53271,26.27901 -1.22918,0.86096 -1.61351,1.54614 -0.86726,1.54614 2.48312,0 21.53709,-21.4835 29.78368,-33.58132 12.67931,-18.60068 15.84271,-23.8419 17.90268,-29.66174 1.28949,-3.64305 1.2393,-3.82328 -1.87831,-6.74537 -1.76175,-1.65127 -3.65319,-3.00547 -4.20319,-3.00933 -0.55,-0.004 -3.49963,-1.70507 -6.55473,-3.78049 -3.05511,-2.07542 -14.75511,-8.41968 -26,-14.09837 -22.10214,-11.16161 -33.1428,-17.29081 -39.4818,-21.91827 -2.22009,-1.62066 -6.00152,-3.94912 -8.40317,-5.17435 -2.40166,-1.22523 -7.56022,-4.66152 -11.46348,-7.6362 -3.90325,-2.97468 -10.24159,-6.64287 -14.08519,-8.15153 -3.8436,-1.50867 -7.39374,-2.91391 -7.8892,-3.12276 -0.49545,-0.20885 -0.55888,0.17354 -0.14095,0.84977 0.59066,0.9557 0.28762,0.97675 -1.3608,0.0945 -2.43114,-1.3011 -2.85946,-2.28531 -0.62068,-1.42621 3.01391,1.15655 1.38436,-0.5161 -3.01401,-3.09371 -2.4827,-1.45496 -5.02723,-2.32819 -5.6545,-1.94051 -0.69786,0.43129 -0.86612,0.26089 -0.43353,-0.43905 0.84432,-1.36613 -10.081,-6.50071 -12.14605,-5.70827 -0.74568,0.28614 -1.09989,0.10621 -0.78712,-0.39986 0.92477,-1.4963 -3.64304,-4.05697 -7.23696,-4.05697 -1.82993,0 -4.7673,-0.7643 -6.52749,-1.69844 -2.46236,-1.30679 -5.88803,-1.71033 -14.85592,-1.75 -8.01884,-0.0355 -11.45103,-0.38591 -11,-1.12313 C 201.64494,233.48543 215.41541,222 217.1434,222 c 1.09221,0 4.23566,-0.96785 6.98543,-2.15077 4.59695,-1.97755 6.06156,-2.09718 18.18539,-1.48545 7.25218,0.36593 15.66078,1.12306 18.68578,1.68252 3.025,0.55946 10.3432,1.8996 16.26266,2.9781 5.91947,1.07849 13.41124,3.07566 16.64838,4.43816 7.45649,3.13839 13.01384,5.15868 20.58896,7.48481 3.3,1.01335 9.15,3.06143 13,4.55129 12.74934,4.93369 31.43555,8.91229 40.44769,8.61198 11.21954,-0.37387 25.84832,1.97665 39.55231,6.35519 2.2,0.70292 6.7,2.09358 10,3.09037 6.82175,2.06055 19.00895,7.84025 20.0359,9.50188 0.37659,0.60934 3.06006,2.62738 5.96326,4.48454 8.16078,5.22038 26.06861,23.86412 32.617,33.95738 3.02612,4.66425 7.65089,12.38348 10.10196,16.86124 1.91283,3.49448 5.91777,15.42903 8.76732,26.12626 1.09139,4.09709 1.94101,10.96207 2.04361,16.5125 0.0966,5.225 0.19151,10.175 0.21096,11 0.0658,2.79183 -2.31853,15.2782 -3.2497,17.01811 -0.50877,0.95065 -1.40912,3.92298 -2.00077,6.60517 -0.93779,4.25139 -3.20444,8.18479 -11.98954,20.80588 -4.29638,6.17237 -8.83388,10.89745 -13.08373,13.62457 -2.60619,1.67239 -4.9816,3.67413 -5.27868,4.44831 -0.29708,0.77418 -2.32871,2.32006 -4.51473,3.43528 -3.72457,1.90014 -4.01798,2.37508 -4.66463,7.55067 -1.33266,10.66631 2.20035,28.28972 6.63092,33.07646 2.50361,2.70486 2.42241,5.92399 -0.21596,8.56236 -1.80768,1.80768 -2.92022,2.04493 -7.41419,1.58111 -9.04774,-0.93381 -11.95806,-4.13633 -7.459,-8.20792 2.14992,-1.94565 2.57229,-5.86458 1.06058,-9.84067 -0.51668,-1.35897 -1.4487,-6.22577 -2.07114,-10.8151 -0.62244,-4.58932 -1.4973,-8.71933 -1.94413,-9.17778 -0.44682,-0.45845 -4.71642,1.00405 -9.48799,3.25 -4.77157,2.24595 -9.02923,4.08355 -9.46146,4.08355 -0.43224,0 -1.57302,0.86978 -2.53508,1.93284 -1.30262,1.43938 -1.57224,2.77971 -1.05608,5.25 1.58192,7.57091 3.80866,12.79246 6.09392,14.28982 1.65433,1.08396 2.40138,2.50932 2.40138,4.58178 0,3.42648 -0.27236,3.56531 -8.64122,4.40447 -4.89544,0.49087 -6.46757,0.28944 -7.75,-0.99299 z M 311.7754,444.60718 c 0.28241,-1.15895 0.85447,-2.55718 1.27126,-3.10718 0.41679,-0.55 1.25525,-2.86092 1.86325,-5.13538 1.43165,-5.35566 4.59009,-6.59501 4.59009,-1.80112 0,1.78504 -0.40839,2.99312 -0.90752,2.68464 -0.50057,-0.30937 -0.64306,0.45043 -0.31776,1.6944 0.32438,1.24041 0.29391,1.95942 -0.0677,1.59781 -0.36161,-0.36162 -1.15854,0.83137 -1.77094,2.65108 -0.74665,2.21862 -1.78232,3.34388 -3.1438,3.41575 -1.57995,0.0834 -1.91644,-0.36024 -1.51687,-2 z M 241.59396,423.10382 C 240.71728,422.1351 240,420.97453 240,420.52476 c 0,-1.55373 7.36867,-11.91254 11.42753,-16.06472 2.23986,-2.29135 5.16838,-5.64162 6.50782,-7.44504 2.94434,-3.96423 18.83109,-17.33309 23.33341,-19.6353 1.77718,-0.90874 4.9512,-3.19408 7.05338,-5.07855 3.07015,-2.75218 4.10307,-3.19315 5.25,-2.24128 0.78532,0.65176 1.42786,1.66593 1.42786,2.2537 0,0.58778 -0.66145,0.19518 -1.4699,-0.87244 -1.3306,-1.75718 -1.35822,-1.63583 -0.29147,1.28049 0.78272,2.13984 1.43904,2.81141 1.95458,2 0.60724,-0.95575 0.7795,-0.95113 0.79148,0.0212 0.0161,1.30755 -13.55999,11.78813 -16.8814,13.03223 -5.38043,2.01535 -29.10742,26.75036 -32.22617,33.59526 -1.50816,3.31006 -3.31874,3.90414 -5.28316,1.73348 z m 103.42114,-24.2186 c 3.0333,-2.96187 8.01153,-8.08522 11.06273,-11.38522 3.0512,-3.3 8.21941,-8.49509 11.4849,-11.54464 3.2655,-3.04956 7.20156,-7.93527 8.7468,-10.85714 1.54524,-2.92188 3.07998,-5.04205 3.41053,-4.71149 0.33056,0.33055 -0.093,1.39127 -0.94124,2.35714 -0.84824,0.96587 -1.87386,2.88113 -2.27915,4.25613 -0.40529,1.375 -4.84602,6.55591 -9.86828,11.51314 -5.02227,4.95722 -11.78395,11.83541 -15.02597,15.28485 -3.24202,3.44945 -7.29202,7.21688 -9,8.37208 -1.84678,1.24908 -0.87013,-0.0823 2.40968,-3.28485 z"
       style="fill:#74a636" />
    <path
       id="path11248"
       d="m 410.60878,491.46592 c -2.05384,-2.05384 -2.02689,-3.57533 0.12991,-7.33334 1.54219,-2.68711 1.58097,-3.40263 0.34307,-6.33104 -0.76759,-1.81585 -1.59165,-5.66404 -1.83124,-8.55154 -0.40247,-4.85049 -0.27091,-5.25 1.72886,-5.25 2.31697,0 8.1237,-3.11427 17.07111,-9.1556 9.32961,-6.29939 15.92105,-17.60177 17.83441,-30.58073 1.87624,-12.72719 -0.62659,-27.72734 -6.63473,-39.76367 -5.46312,-10.94448 -24.09459,-35.21029 -29.98835,-39.05711 -1.519,-0.99145 -5.39817,-3.99291 -8.62039,-6.66991 -3.22221,-2.677 -6.37221,-4.71066 -7,-4.51925 -0.62778,0.1914 -2.71643,3.34994 -4.64143,7.01896 -10.80335,20.59101 -16.36106,28.08697 -33.79115,45.57582 -16.17167,16.22619 -23.60496,21.98094 -26.8058,20.75266 -3.00958,-1.15488 -1.4756,-5.25524 3.63253,-9.70984 C 348.26742,383.7362 358.83518,371.12801 374.691,347 c 5.03596,-7.66329 7.35024,-11.8915 8.8905,-16.24306 1.28949,-3.64305 1.2393,-3.82328 -1.87831,-6.74537 -1.76175,-1.65127 -3.65319,-3.00547 -4.20319,-3.00933 -0.55,-0.004 -3.49963,-1.70507 -6.55473,-3.78049 -3.05511,-2.07542 -14.75511,-8.41968 -26,-14.09837 -22.10214,-11.16161 -33.1428,-17.29081 -39.4818,-21.91827 -2.22009,-1.62066 -6.00152,-3.94912 -8.40317,-5.17435 -2.40166,-1.22523 -7.56022,-4.66508 -11.46348,-7.6441 -3.90325,-2.97901 -9.57182,-6.33448 -12.59682,-7.45659 -3.025,-1.1221 -9.55,-4.40548 -14.5,-7.29639 -4.95,-2.89091 -11.025,-6.10824 -13.5,-7.14962 -2.475,-1.04138 -5.57319,-2.70132 -6.88486,-3.68874 C 236.80347,241.80789 234.19362,241 232.31548,241 c -1.87814,0 -4.85495,-0.7643 -6.61514,-1.69844 -2.46236,-1.30679 -5.88803,-1.71033 -14.85592,-1.75 -8.01884,-0.0355 -11.45103,-0.38591 -11,-1.12313 C 201.64494,233.48543 215.41541,222 217.1434,222 c 1.09221,0 4.23566,-0.96785 6.98543,-2.15077 4.59695,-1.97755 6.06156,-2.09718 18.18539,-1.48545 7.25218,0.36593 15.66078,1.12306 18.68578,1.68252 3.025,0.55946 10.3432,1.8996 16.26266,2.9781 5.91947,1.07849 13.41124,3.07566 16.64838,4.43816 7.45649,3.13839 13.01384,5.15868 20.58896,7.48481 3.3,1.01335 9.15,3.06143 13,4.55129 12.74934,4.93369 31.43555,8.91229 40.44769,8.61198 11.21954,-0.37387 25.84832,1.97665 39.55231,6.35519 2.2,0.70292 6.7,2.09358 10,3.09037 6.82175,2.06055 19.00895,7.84025 20.0359,9.50188 0.37659,0.60934 3.06006,2.62738 5.96326,4.48454 8.16078,5.22038 26.06861,23.86412 32.617,33.95738 3.02612,4.66425 7.65089,12.38348 10.10196,16.86124 1.91283,3.49448 5.91777,15.42903 8.76732,26.12626 1.09139,4.09709 1.94101,10.96207 2.04361,16.5125 0.0966,5.225 0.19151,10.175 0.21096,11 0.0658,2.79183 -2.31853,15.2782 -3.2497,17.01811 -0.50877,0.95065 -1.40912,3.92298 -2.00077,6.60517 -0.93779,4.25139 -3.20444,8.18479 -11.98954,20.80588 -4.29638,6.17237 -8.83388,10.89745 -13.08373,13.62457 -2.60619,1.67239 -4.9816,3.67413 -5.27868,4.44831 -0.29708,0.77418 -2.32871,2.32006 -4.51473,3.43528 -3.72457,1.90014 -4.01798,2.37508 -4.66463,7.55067 -1.33266,10.66631 2.20035,28.28972 6.63092,33.07646 2.50361,2.70486 2.42241,5.92399 -0.21596,8.56236 -1.80768,1.80768 -2.92022,2.04493 -7.41419,1.58111 -9.04774,-0.93381 -11.95806,-4.13633 -7.459,-8.20792 2.14992,-1.94565 2.57229,-5.86458 1.06058,-9.84067 -0.51668,-1.35897 -1.4487,-6.22577 -2.07114,-10.8151 -0.62244,-4.58932 -1.4973,-8.71933 -1.94413,-9.17778 -0.44682,-0.45845 -4.71642,1.00405 -9.48799,3.25 -4.77157,2.24595 -9.02923,4.08355 -9.46146,4.08355 -0.43224,0 -1.57302,0.86978 -2.53508,1.93284 -1.30262,1.43938 -1.57224,2.77971 -1.05608,5.25 1.58192,7.57091 3.80866,12.79246 6.09392,14.28982 1.65433,1.08396 2.40138,2.50932 2.40138,4.58178 0,3.42648 -0.27236,3.56531 -8.64122,4.40447 -4.89544,0.49087 -6.46757,0.28944 -7.75,-0.99299 z m -98.26607,-46.01523 c -0.3621,-0.94359 -0.17071,-2.49645 0.42529,-3.4508 0.596,-0.95435 1.58436,-3.59474 2.19636,-5.86753 0.65985,-2.45052 1.70753,-4.13236 2.57418,-4.13236 1.9082,0 1.76147,3.20726 -0.43182,9.43859 -1.85335,5.26554 -3.6896,6.81198 -4.76401,4.0121 z M 241.59396,423.10382 C 240.71728,422.1351 240,420.97453 240,420.52476 c 0,-1.55373 7.36867,-11.91254 11.42753,-16.06472 2.23986,-2.29135 5.16838,-5.64162 6.50782,-7.44504 2.96805,-3.99615 18.87307,-17.36381 23.33341,-19.61098 1.77718,-0.89536 4.65486,-2.97814 6.39483,-4.62839 3.53607,-3.35373 4.6665,-3.13609 6.17413,1.18871 1.00807,2.89173 0.85487,3.09879 -5.96052,8.05589 -3.84736,2.79833 -7.83085,5.40104 -8.85222,5.78382 -5.31397,1.9915 -29.05658,26.78169 -32.14786,33.56629 -1.50816,3.31006 -3.31874,3.90414 -5.28316,1.73348 z"
       style="fill:#4e4c44" />
    <path
       id="path11246"
       d="m 411.06971,490.584 c -1.14739,-1.38253 -1.07494,-2.246 0.47732,-5.68829 1.6018,-3.55216 1.66305,-4.45356 0.49105,-7.22703 -0.73645,-1.74277 -1.53972,-5.30618 -1.78505,-7.91868 -0.37625,-4.00665 -0.17556,-4.75 1.28242,-4.75 0.95067,0 3.24431,-0.93683 5.09698,-2.08185 l 3.36849,-2.08184 -1.69433,2.95221 c -1.61506,2.81408 -1.59107,3.2975 0.51283,10.33185 1.51233,5.05644 2.99002,7.95681 4.69388,9.21304 3.44362,2.53893 3.52808,7.66659 0.12627,7.66659 -1.29823,0 -4.35318,0.27314 -6.78877,0.60697 -3.40577,0.46681 -4.74072,0.23059 -5.78109,-1.02297 z m 34.93554,0.52247 c -3.44866,-0.95959 -3.68213,-3.79052 -0.57968,-7.02878 2.52498,-2.63551 2.56347,-2.85731 1.17755,-6.78541 -0.78801,-2.23346 -2.00492,-8.43421 -2.70424,-13.77944 -0.73481,-5.61647 -1.78261,-9.91473 -2.48241,-10.18327 -0.666,-0.25557 -4.20924,0.93716 -7.87385,2.6505 -3.66462,1.71335 -7.87337,3.56835 -9.35278,4.12224 -2.48029,0.92861 -2.41718,0.7734 0.81016,-1.99235 1.925,-1.64967 4.69962,-3.51319 6.16582,-4.14114 2.79188,-1.19571 7.9094,-8.1984 12.09223,-16.54671 1.54598,-3.08555 2.9462,-8.48023 3.75268,-14.4581 1.1383,-8.43745 1.0854,-10.56864 -0.45923,-18.5 -2.73383,-14.03771 -3.15301,-15.64381 -5.47137,-20.96401 -1.19835,-2.75 -2.71647,-6.2375 -3.37359,-7.75 C 437.04942,374.2375 435.94663,373 435.25589,373 434.56515,373 434,372.6128 434,372.13955 c 0,-0.47325 -1.15086,-2.55634 -2.55746,-4.62908 -1.4066,-2.07274 -2.32072,-4.38554 -2.03138,-5.13955 C 429.7005,361.61692 429.36463,361 428.66478,361 427.17204,361 421,354.87166 421,353.38948 c 0,-0.55841 -1.35,-2.30868 -3,-3.88948 -1.65,-1.5808 -3,-3.46499 -3,-4.18709 0,-0.7221 -0.82754,-1.31291 -1.83897,-1.31291 -2.07557,0 -9.05992,-4.96642 -9.14104,-6.5 -0.0726,-1.37253 -10.94115,-6.31311 -14.00738,-6.36741 -1.85554,-0.0329 -2.12177,0.18191 -1.04807,0.8455 1.21605,0.75155 1.07123,1.67546 -0.93354,5.95573 -1.30508,2.7864 -2.77251,5.06618 -3.26095,5.06618 -0.48845,0 -0.58938,0.48331 -0.2243,1.07403 0.36508,0.59071 -0.22247,2.05321 -1.30567,3.25 -1.0832,1.19678 -3.24025,4.42597 -4.79344,7.17597 -1.55319,2.75 -3.78472,6.17771 -4.95896,7.61714 -1.17424,1.43943 -2.71893,4.02693 -3.43265,5.75 -0.71372,1.72307 -1.65719,3.13286 -2.09659,3.13286 -0.95447,0 -21.53353,20.27378 -22.07918,21.75164 C 345.42269,393.98822 334.44585,403 333.39619,403 c -0.40629,0 -1.56164,0.74474 -2.56745,1.65499 -1.59553,1.44393 -1.82874,1.45877 -1.82874,0.11636 0,-1.48104 3.18162,-4.58146 11.84453,-11.54224 2.2389,-1.79899 6.2273,-6.07379 8.8631,-9.49955 2.6358,-3.42576 6.36737,-7.80606 8.29237,-9.734 3.17726,-3.1821 8.99935,-11.31131 19.22303,-26.84049 C 381.73784,340.29732 387,329.68951 387,327.44599 387,325.06141 383.78535,320 382.27082,320 c -0.71388,0 -2.07935,-0.3975 -3.03439,-0.88333 -0.95504,-0.48583 -3.04482,-1.49833 -4.64396,-2.25 -1.59915,-0.75167 -3.11413,-2.15417 -3.36664,-3.11667 -0.2525,-0.9625 -1.10396,-1.75 -1.89212,-1.75 -2.23354,0 -7.98514,-3.27126 -6.58371,-3.74453 0.6875,-0.23218 1.25,-0.83464 1.25,-1.3388 0,-1.0594 -2.22131,-0.79348 -3.08096,0.36883 -0.65119,0.88046 -11.23954,-4.39451 -14.58343,-7.26526 -1.19041,-1.02197 -2.38082,-1.64169 -2.64536,-1.37715 -0.55614,0.55614 -20.8113,-9.25827 -21.63858,-10.48473 -0.30342,-0.44982 -3.25167,-2.12419 -6.55167,-3.72083 -3.3,-1.59664 -7.22233,-4.14825 -8.7163,-5.67026 -1.49396,-1.522 -3.12426,-2.76727 -3.62288,-2.76727 -1.92645,0 -9.9078,-4.24478 -15.16082,-8.06309 -6.41383,-4.66209 -12.87302,-8.13823 -18.5,-9.95617 -2.2,-0.71077 -7.20777,-3.41408 -11.12837,-6.00736 -3.9206,-2.59328 -9.24121,-5.52196 -11.82358,-6.50818 -2.58237,-0.98621 -5.78633,-2.65139 -7.11993,-3.7004 -1.33359,-1.049 -4.33798,-2.05408 -6.67641,-2.23351 -2.33844,-0.17942 -5.92421,-1.04713 -7.96837,-1.92825 -2.4533,-1.05746 -6.99315,-1.64756 -13.35568,-1.73599 l -9.63901,-0.13396 5.38894,-5.38895 c 4.42596,-4.42595 6.90193,-5.93831 13.85568,-8.46326 8.33301,-3.02577 8.67995,-3.06471 21.96673,-2.4659 7.425,0.33463 15.75,1.04183 18.5,1.57154 2.75,0.52972 10.175,1.92285 16.5,3.09585 6.325,1.173 13.25887,3.02989 15.40859,4.12641 2.14973,1.09653 9.34973,3.78948 16,5.98433 6.65028,2.19486 12.51891,4.39931 13.04141,4.89877 0.5225,0.49947 1.88985,0.90812 3.03856,0.90812 1.14871,0 3.72917,0.83643 5.73437,1.85874 2.0052,1.02231 7.61285,2.62693 12.46144,3.56582 4.8486,0.93889 10.44284,2.12745 12.43165,2.64125 1.98881,0.51381 7.38881,0.93122 12,0.92758 13.29631,-0.0105 25.23387,1.95136 39.38398,6.47244 2.2,0.70292 6.7,2.09358 10,3.09037 6.82175,2.06055 19.00895,7.84025 20.0359,9.50188 0.37659,0.60934 3.0388,2.61378 5.91604,4.45433 5.79021,3.70395 18.03708,15.64316 22.81063,22.23759 1.69206,2.3375 3.44454,4.25 3.89441,4.25 0.83423,0 5.02506,5.84619 7.98514,11.13924 0.90317,1.61499 2.74328,4.60684 4.08913,6.64855 3.89447,5.9081 7.95768,16.57272 11.8918,31.21221 2.64654,9.84818 2.87484,31.72763 0.41737,40 -0.89864,3.025 -2.36594,8.17765 -3.26068,11.45033 -1.46568,5.36099 -3.05134,8.03059 -12.77974,21.51586 -5.07153,7.03003 -7.1894,9.20839 -12.16378,12.51119 -2.93492,1.94868 -5.33622,4.01141 -5.33622,4.58386 0,0.57245 -1.49832,1.66685 -3.32961,2.43201 -1.83128,0.76516 -3.9143,2.09571 -4.62892,2.95678 -1.43555,1.72973 -1.96468,15.09219 -0.89294,22.54997 0.81908,5.69964 4.47374,15.44162 6.38923,17.03134 1.71214,1.42095 1.88729,4.30594 0.42706,7.0344 -0.81271,1.51857 -2.04846,1.91284 -5.75,1.83458 -2.59315,-0.0548 -5.83746,-0.41205 -7.20957,-0.79385 z M 242.25,422.85017 c -0.6875,-0.6876 -1.25,-1.65354 -1.25,-2.14654 0,-2.11556 7.71168,-12.59992 10.71662,-14.56971 1.80586,-1.18377 3.28338,-2.7798 3.28338,-3.54673 0,-3.46174 19.46331,-20.91451 27.57719,-24.72848 2.36443,-1.11141 5.03193,-3.1394 5.92779,-4.50665 1.31123,-2.00119 1.90825,-2.254 3.06192,-1.29654 1.54813,1.28484 1.99001,5.94448 0.56373,5.94448 -0.47816,0 -3.06566,1.74769 -5.75,3.88375 -2.68435,2.13606 -6.45563,4.57106 -8.38063,5.41109 -1.925,0.84004 -7.55,5.58171 -12.5,10.53705 -7.80887,7.81728 -11.03584,11.63171 -20.27698,23.96828 -1.37851,1.84025 -1.97295,2.05019 -2.97302,1.05 z"
       style="fill:#44433a" />
    <path
       id="path11244"
       d="m 411.60089,490.45803 c -1.41961,-1.4196 -1.42942,-1.88895 -0.0935,-4.47238 1.91123,-3.6959 1.89,-6.88173 -0.0721,-10.81478 -0.86056,-1.72502 -1.42306,-4.59077 -1.25,-6.36833 0.26763,-2.74908 0.80018,-3.33038 3.56464,-3.89093 3.03095,-0.61459 3.25,-0.47588 3.25,2.05814 0,4.39822 3.86181,14.34384 6.53136,16.82072 2.63117,2.44126 3.28574,6.0187 1.21864,6.66026 -0.6875,0.21338 -3.57044,0.65918 -6.40653,0.99066 -3.96776,0.46375 -5.52217,0.23705 -6.74258,-0.98336 z m 34.47808,0.30195 c -3.42536,-1.78266 -3.53024,-3.07023 -0.53959,-6.62441 2.43608,-2.89511 2.53508,-3.37993 1.39541,-6.83317 -0.67469,-2.04433 -1.96572,-8.23334 -2.86894,-13.75334 -1.91424,-11.69875 -2.23905,-11.94494 -10.56355,-8.00682 -6.31221,2.98615 -8.53373,2.66638 -3.36508,-0.48439 1.84953,-1.12745 3.61398,-2.1642 3.92099,-2.30388 1.03238,-0.4697 7.36409,-10.21239 9.5885,-14.75397 2.2321,-4.55727 5.35329,-19.02461 5.35329,-24.81358 0,-3.15498 -1.3575,-10.07041 -3.06911,-15.63481 -0.62691,-2.03807 -0.5491,-3.16953 0.25202,-3.66465 0.83966,-0.51894 0.68387,-1.44133 -0.56545,-3.34803 -1.6699,-2.5486 -1.65184,-2.6905 0.57145,-4.49081 1.61341,-1.30647 2.79873,-1.58992 3.98772,-0.95359 2.45236,1.31246 2.53707,1.24512 3.25628,-2.58862 0.6474,-3.45093 0.68583,-3.47421 3.11129,-1.88499 1.41,0.92386 2.4558,2.57261 2.4558,3.87165 0,1.2444 0.69063,2.83571 1.53474,3.53626 1.27582,1.05884 1.88325,0.89964 3.60055,-0.94367 1.1362,-1.21957 1.79556,-2.48764 1.46526,-2.81794 -0.3303,-0.33031 -0.60055,-0.28472 -0.60055,0.1013 0,0.38601 -0.83192,0.25662 -1.84871,-0.28755 -1.0249,-0.54851 -2.65174,-3.57207 -3.6508,-6.78519 -0.99115,-3.18768 -2.34988,-6.12242 -3.0194,-6.52166 -0.66951,-0.39923 -1.51973,-3.39903 -1.88937,-6.66622 -0.40844,-3.61008 -1.4667,-6.95053 -2.69774,-8.51556 l -2.02567,-2.57522 2.56584,-1.16907 C 454.9206,350.71515 456.02545,348 454,348 c -0.55,0 -1,0.45 -1,1 0,0.55 -0.85186,1 -1.89301,1 C 449.10372,350 448,348.15624 448,344.8098 c 0,-1.68443 0.44007,-1.91617 2.60631,-1.37247 1.88143,0.4722 2.9851,0.1547 3.9682,-1.14159 2.04853,-2.70113 1.70586,-3.58292 -1.11702,-2.87443 -2.30267,0.57794 -2.51491,0.37927 -2.25,-2.10605 0.39685,-3.72304 -2.45052,-4.27203 -4.04191,-0.77931 -0.65505,1.43765 -0.95293,2.99911 -0.66197,3.46989 0.29096,0.47078 0.0717,1.13862 -0.4873,1.48408 -0.55897,0.34546 -1.01631,0.002 -1.01631,-0.76336 0,-0.76531 -1.6875,-2.48141 -3.75,-3.81356 -4.4737,-2.88951 -5.9842,-7.5528 -2.08178,-6.427 1.28248,0.36998 3.11928,0.89231 4.08178,1.16073 2.50111,0.69752 2.17399,-1.37739 -0.34311,-2.17628 -1.80154,-0.57179 -1.99938,-1.17318 -1.42025,-4.31739 l 0.67284,-3.65306 -2.07677,2.205 -2.07677,2.205 -2.649,-2.455 C 433.9,322.10475 432.13775,321 431.44084,321 c -0.99287,0 -1.02204,-0.64928 -0.13474,-3 0.62281,-1.65 1.4696,-3 1.88175,-3 0.41216,0 0.49036,0.675 0.17378,1.5 -0.60702,1.58187 1.21576,1.98314 4.05658,0.89301 2.25573,-0.8656 1.9345,-2.52547 -1.03396,-5.34274 -2.34459,-2.22519 -2.66838,-2.29394 -3.53241,-0.75 C 432.32867,312.23512 431.0533,313 430.0177,313 c -1.03561,0 -2.16857,0.9 -2.5177,2 -0.34913,1.1 -1.05445,2 -1.56739,2 C 424.8418,317 421,313.32968 421,312.28756 c 0,-0.39183 -1.2375,-1.7399 -2.75,-2.9957 -2.44875,-2.03315 -2.57607,-2.42068 -1.16223,-3.53757 0.87327,-0.68986 1.38877,-1.84531 1.14554,-2.56767 -0.39805,-1.18217 2.31774,-4.07536 3.90006,-4.15482 0.34835,-0.0175 0.86872,0.8682 1.15638,1.9682 0.71894,2.74924 2.92241,2.53428 2.56267,-0.25 -0.15989,-1.2375 0.0837,-2.85171 0.5413,-3.58713 1.28813,-2.07016 -1.21168,-4.06451 -2.71104,-2.16287 -0.65047,0.825 -2.7736,1.63667 -4.71805,1.80371 -3.15913,0.2714 -3.51369,0.0585 -3.33156,-2 0.52925,-5.98204 2.90836,-9.04292 3.54738,-4.56393 0.17575,1.23189 1.04476,2.37789 1.93113,2.54667 1.16389,0.22163 1.77464,-0.69791 2.19854,-3.31005 1.21944,-7.51454 -3.84771,-12.03897 -5.85332,-5.2264 -0.66073,2.24431 -1.65645,3.34933 -3.2178,3.57099 -1.38157,0.19614 -3.1186,1.81112 -4.4659,4.1521 -2.03895,3.54274 -2.4709,3.79039 -5.739,3.29024 -1.94376,-0.29747 -4.142,-1.02119 -4.88498,-1.60826 -0.74299,-0.58707 -2.03255,-1.16746 -2.8657,-1.28974 -0.83314,-0.12228 -2.90705,-1.64634 -4.60867,-3.3868 -2.76843,-2.83161 -2.91404,-3.26511 -1.38431,-4.12119 2.35175,-1.31611 2.14708,-2.34064 -0.86135,-4.31184 -2.48558,-1.62862 -2.64993,-1.59925 -4.95225,0.88499 -2.70746,2.9214 -4.9807,3.30481 -5.86903,0.98987 -0.45455,-1.18455 -1.36694,-1.41254 -3.64794,-0.91155 -1.88359,0.41371 -3.61032,0.19626 -4.53492,-0.57109 -1.19106,-0.9885 -1.99435,-0.97094 -3.97068,0.0867 -2.15524,1.15345 -2.64229,1.10066 -3.74381,-0.40577 -0.80732,-1.10407 -2.9325,-1.8431 -5.86355,-2.03905 -5.93659,-0.39687 -7.1466,-1.12691 -5.70195,-3.44017 0.89199,-1.42829 0.59998,-2.31165 -1.52047,-4.59966 C 348.18102,268.98229 347,267.32366 347,266.85398 347,266.38429 346.53297,266 345.96215,266 c -0.57082,0 -0.90832,1.2375 -0.75,2.75 0.19233,1.8374 -0.18068,2.75 -1.12402,2.75 -0.77653,0 -2.73662,1.2375 -4.35576,2.75 -1.61913,1.5125 -3.58214,2.75 -4.36223,2.75 -0.7801,0 -3.60323,-1.50293 -6.27363,-3.33984 -3.88555,-2.67279 -4.66971,-3.67142 -3.9262,-5 C 325.6813,267.74707 326.75202,267 327.54969,267 328.34736,267 329,266.37748 329,265.61663 c 0,-1.44507 -3.45546,-2.97629 -5.9481,-2.63579 -0.79645,0.1088 -2.0293,-0.59703 -2.73967,-1.56851 -1.81752,-2.48561 -2.30233,-1.58205 -3.50733,6.53675 -0.85284,5.74605 -1.37913,7.08198 -2.68293,6.8104 -1.08816,-0.22666 -1.55717,-1.25079 -1.42507,-3.11177 0.1512,-2.12997 -0.19701,-2.6955 -1.5,-2.43616 -1.08661,0.21628 -1.58978,1.10623 -1.39905,2.47451 0.40202,2.88407 -1.35256,3.77614 -2.97943,1.51482 -0.72513,-1.00793 -2.13444,-2.13728 -3.1318,-2.50967 -0.99736,-0.3724 -1.5333,-1.13026 -1.19099,-1.68415 C 303.30138,267.70334 306,267.6979 306,269 c 0,0.55 0.45,1 1,1 0.55,0 1,-0.675 1,-1.5 0,-0.825 -0.61431,-1.5 -1.36514,-1.5 -0.75083,0 -2.50632,-0.89765 -3.9011,-1.99478 -1.85276,-1.45738 -3.3708,-1.82781 -5.63485,-1.375 C 294.25863,264.19827 292.66285,266 295,266 c 0.55,0 1,0.675 1,1.5 0,1.97289 -4.38426,1.97289 -6.35714,0 -0.825,-0.825 -1.97833,-1.5 -2.56296,-1.5 -0.58462,0 -1.62501,-0.9 -2.31197,-2 -0.68696,-1.1 -1.80374,-2 -2.48173,-2 -0.67798,0 -3.2955,-1.00219 -5.8167,-2.22708 -3.47852,-1.69 -4.46833,-2.66939 -4.10437,-4.06117 0.64558,-2.46872 -2.30384,-3.51606 -3.86998,-1.37423 -1.7204,2.35278 -2.60772,2.11735 -6.92543,-1.83752 -2.10161,-1.925 -4.23276,-3.5 -4.7359,-3.5 -0.50314,0 -2.22548,-0.96902 -3.82741,-2.15338 -2.30265,-1.70243 -2.71301,-2.52633 -1.95951,-3.93426 1.395,-2.60658 1.22275,-2.91236 -1.64052,-2.91236 -1.75262,0 -2.76321,0.64852 -3.11663,2 -0.67542,2.5828 -1.03026,2.51902 -5.71789,-1.02782 C 238.41138,239.33748 235.74682,238 234.6506,238 c -1.09621,0 -2.81605,-0.74474 -3.82186,-1.65499 C 229.10723,234.78707 229,234.82548 229,237 c 0,2.2154 -0.0787,2.23876 -1.92202,0.57057 -1.55393,-1.40628 -4.0361,-1.77112 -12.96057,-1.90499 L 203.07887,235.5 l 5.1077,-5.18043 c 4.21068,-4.27064 6.62823,-5.7287 13.76585,-8.30242 8.39782,-3.02811 9.01734,-3.10413 20.60287,-2.52803 6.56959,0.32668 14.41971,1.02474 17.44471,1.55126 23.30435,4.05623 29.10651,5.35635 33.5,7.50655 2.75,1.34587 9.5,3.96277 15,5.81533 11.21668,3.77812 17.87718,6.12948 24.5,8.64927 2.475,0.94167 7.425,2.25492 11,2.91833 3.575,0.66342 8.525,1.66714 11,2.2305 2.475,0.56336 9.225,1.18668 15,1.38515 14.52068,0.49904 18.86034,1.1287 31.5,4.57047 22.15326,6.03234 28.17662,8.5354 37,15.37573 2.2,1.70555 5.86795,4.34797 8.151,5.87204 4.48138,2.99158 13.38611,12.10384 22.66133,23.18944 16.31395,19.49817 26.46289,45.79517 26.60901,68.94681 0.0792,12.54125 -0.62886,17.52826 -4.18814,29.5 -2.24612,7.55491 -7.08591,16.51059 -11.34872,21 -0.78336,0.825 -3.22624,3.82813 -5.42863,6.67362 -2.20239,2.84548 -6.24344,6.78224 -8.9801,8.74833 -2.73666,1.9661 -4.97575,4.00844 -4.97575,4.53855 0,0.5301 -1.87998,1.78362 -4.17774,2.7856 -3.92268,1.71057 -4.24695,2.16845 -5.31157,7.50011 -1.91513,9.59105 2.19231,30.45316 7.05331,35.82451 1.39918,1.54607 1.43487,2.16089 0.26743,4.60674 -1.14636,2.40169 -2.01702,2.8613 -5.83933,3.08252 -2.47066,0.14299 -5.58156,-0.30701 -6.91313,-1 z M 462.71025,353 c 0.55183,-2.11018 2.74582,-2.68911 3.78975,-1 0.33992,0.55 1.29777,1 2.12857,1 2.39396,0 1.29569,-4.47838 -1.12857,-4.60194 -4.71997,-0.24058 -4.95568,-0.34238 -3.7,-1.59806 2.7858,-2.7858 -0.0231,-8.8 -4.10998,-8.8 -1.87422,0 -1.89592,0.115 -0.34501,1.82874 1.8066,1.99627 2.23034,5.17126 0.69017,5.17126 -2.22143,0 -3.00516,3.7529 -1.43924,6.89185 1.78087,3.56986 3.35938,3.99501 4.11431,1.10815 z m -4.02316,-21.80472 C 457.20919,329.65269 456,327.67471 456,326.79978 c 0,-0.87492 -1.8,-2.48134 -4,-3.56982 -3.98673,-1.97248 -4,-1.97247 -4,0.002 0,1.34449 0.47896,1.79774 1.48981,1.40984 1.50571,-0.5778 2.97366,2.69304 2.32203,5.1739 -0.3924,1.49394 3.90135,3.95606 7.12525,4.08576 l 2.43709,0.0981 -2.68709,-2.80472 z M 406.18554,291.25 c 0.23034,-0.9625 0.17033,-4.58209 -0.13337,-8.04353 l -0.55217,-6.29354 -1.35916,3.1008 c -0.97466,2.22358 -1.96481,3.04253 -3.5,2.89484 -3.58544,-0.34491 -7.57624,1.92716 -7.62553,4.34143 -0.0241,1.18065 3.81047,0.87575 5.9733,-0.47496 2.36455,-1.47669 4.20198,-0.1006 4.59256,3.43946 0.32081,2.90772 0.26368,2.7855 1.3022,2.7855 0.48585,0 1.07183,-0.7875 1.30217,-1.75 z M 309.14721,261.6 C 310.71625,261.545 312,261.1625 312,260.75 c 0,-0.4125 0,-1.34379 0,-2.06953 0,-0.72575 -1.4625,-1.96325 -3.25,-2.75 -2.95908,-1.30242 -3.52201,-1.25326 -6.28874,0.54921 l -3.03874,1.97969 2.53271,2.17855 c 1.393,1.1982 2.93918,1.92734 3.43596,1.62031 0.49678,-0.30703 2.18699,-0.60323 3.75602,-0.65823 z m -67.43785,160.08498 c -0.66912,-1.74368 5.16895,-10.89622 9.96512,-15.62268 2.10404,-2.07346 5.83059,-6.3107 8.28122,-9.41611 2.45064,-3.1054 4.77541,-5.64619 5.16615,-5.64619 0.39074,0 2.66068,-1.82604 5.0443,-4.05786 2.38362,-2.23182 6.80885,-5.44902 9.83385,-7.14934 3.025,-1.70032 6.7588,-4.25388 8.29733,-5.67458 2.35688,-2.17637 2.94492,-2.34968 3.73469,-1.10066 0.51554,0.81534 0.94424,1.93244 0.95265,2.48244 0.0186,1.2179 -11.84533,10.11633 -15.17617,11.38271 -2.47711,0.94179 -19.14256,17.15327 -26.50381,25.78182 -2.30742,2.70467 -4.65878,6.1366 -5.22525,7.62652 -1.08338,2.8495 -3.51402,3.6248 -4.37008,1.39393 z"
       style="fill:#403e38" />
    <path
       id="path11242"
       d="m 412.1367,490.7367 c -1.40428,-1.40428 -1.48261,-4.40488 -0.1367,-5.2367 1.48137,-0.91554 1.21253,-6.7471 -0.5,-10.84576 -0.825,-1.9745 -1.5,-4.72946 -1.5,-6.12212 0,-2.1468 0.45652,-2.53212 3,-2.53212 2.46377,0 3,0.41111 3,2.3 0,1.265 0.39564,2.7275 0.8792,3.25 0.48356,0.5225 1.44793,2.75 2.14306,4.95 0.69512,2.2 2.54948,5.47816 4.1208,7.2848 3.04082,3.4962 3.6528,6.03339 1.60694,6.66212 -3.67434,1.12918 -11.59199,1.31109 -12.6133,0.28978 z m 34.6133,0.10102 c -3.40792,-1.24468 -3.71507,-4.953 -0.58251,-7.03294 2.13866,-1.42001 2.14627,-1.52474 0.57185,-7.87197 -0.87761,-3.53805 -2.12537,-10.11535 -2.7728,-14.61623 -1.38546,-9.63157 -2.38534,-10.43327 -8.52496,-6.83521 -4.96749,2.91114 -7.38832,3.3643 -5.44158,1.01863 0.68469,-0.825 1.8,-1.5 2.47848,-1.5 1.46485,0 9.52152,-10.49768 9.52152,-12.40635 0,-0.72816 0.92123,-2.49508 2.04717,-3.92649 1.62058,-2.06024 3.91336,-10.70716 3.94704,-14.88578 0.003,-0.39523 0.677,-0.46104 1.49736,-0.14624 0.90287,0.34646 1.75105,-0.15928 2.14901,-1.28139 0.78798,-2.22181 4.37896,-6.35375 5.52192,-6.35375 0.44762,0 1.1017,1.8 1.45349,4 0.71351,4.46204 1.75873,5.03686 3.44147,1.89264 0.81563,-1.52402 0.82537,-2.40981 0.0352,-3.2 -1.44236,-1.44236 -1.39744,-4.42437 0.074,-4.91486 0.64166,-0.21389 1.16666,-1.80014 1.16666,-3.525 0,-2.87003 0.22797,-3.09052 2.68692,-2.59873 2.49436,0.49887 2.80922,0.16348 4.39342,-4.67993 1.68152,-5.14093 1.67451,-5.25135 -0.47834,-7.54296 -2.04098,-2.17252 -2.0614,-2.33102 -0.31009,-2.40705 8.09353,-0.35138 8.91573,-0.86145 4.87476,-3.02411 -3.28942,-1.76044 -3.17697,-3.81356 0.25,-4.56447 4.71511,-1.03317 5.25,-1.32905 5.25,-2.90415 0,-1.78632 -2.1075,-2.02388 -3.71287,-0.41851 -0.61207,0.61207 -1.60207,0.81052 -2.2,0.44098 -1.85764,-1.14808 -1.19577,-4.03193 1.16287,-5.06672 2.35517,-1.03327 3.57419,-5.06294 2.00598,-6.63115 -0.55112,-0.55112 -1.99363,-0.0636 -3.63732,1.22934 -1.49819,1.17848 -2.93788,1.9288 -3.1993,1.66737 -1.05979,-1.05979 1.57093,-5.51689 3.56385,-6.03805 1.85387,-0.4848 2.04782,-1.0323 1.46543,-4.13669 -0.59771,-3.1861 -0.44,-3.57795 1.44007,-3.57795 1.16121,0 2.11129,-0.46114 2.11129,-1.02475 0,-0.56361 1.125,-1.45248 2.5,-1.97525 1.375,-0.52277 2.5,-1.63664 2.5,-2.47525 0,-1.9054 0.21402,-1.9298 -4.94813,0.56428 -3.50995,1.69582 -4.48531,1.83699 -5.1819,0.75 -0.57214,-0.89279 -0.19357,-1.79625 1.13596,-2.711 2.58098,-1.77579 2.5424,-3.12803 -0.0893,-3.12803 -2.72794,0 -1.95255,-2.3981 0.91166,-2.81955 2.18857,-0.32204 2.77892,-2.4344 1.56468,-5.59866 C 476.62173,338.57185 474,338.50866 474,340.5 c 0,0.825 -0.44139,1.5 -0.98087,1.5 -0.58677,0 -0.73382,-1.80243 -0.36599,-4.48606 0.37231,-2.71629 0.17875,-5.01158 -0.49065,-5.81815 -0.82176,-0.99017 -0.71295,-1.89258 0.42392,-3.51569 1.83204,-2.61562 0.95826,-4.87702 -1.1942,-3.09065 -1.83012,1.51887 -4.95777,-1.11393 -6.92961,-5.83321 -0.75476,-1.80639 -2.06761,-3.55117 -2.91745,-3.87729 C 460.69532,315.05284 460,314.15189 460,313.37683 c 0,-0.77505 -1.575,-2.16025 -3.5,-3.07822 -1.925,-0.91797 -3.5,-2.16068 -3.5,-2.76158 0,-0.6009 -0.89064,-1.85514 -1.9792,-2.7872 -2.8247,-2.41858 -1.6084,-4.81735 2.06965,-4.08174 1.83339,0.36668 2.90955,0.1658 2.90955,-0.54309 0,-0.61875 -0.40122,-1.125 -0.89159,-1.125 -0.49038,0 -1.17395,-1.125 -1.51905,-2.5 -0.6443,-2.56707 -3.11477,-3.42376 -3.81504,-1.32295 -0.25199,0.75596 -0.90766,0.85858 -1.83274,0.28685 -0.79221,-0.48962 -2.67815,-0.76037 -4.19098,-0.60169 -3.71714,0.38991 -3.45997,-1.08377 0.7494,-4.29441 3.89007,-2.96711 4.45863,-4.5678 1.62244,-4.5678 -1.03265,0 -2.39715,-0.62608 -3.03222,-1.39129 -0.63506,-0.76521 -3.13665,-1.6885 -5.55909,-2.05177 -3.00624,-0.45081 -4.50833,-1.19959 -4.73176,-2.35871 -0.27831,-1.44392 -1.36171,-1.64584 -7.23465,-1.34836 -6.6987,0.33931 -6.85193,0.29449 -5.07348,-1.48396 1.00861,-1.00861 2.32319,-1.88502 2.9213,-1.94756 0.5981,-0.0625 2.09996,-0.18226 3.33746,-0.26604 1.2375,-0.0838 2.25,-0.59852 2.25,-1.14389 0,-1.11121 -4.88799,-0.81372 -6.88236,0.41887 -1.68102,1.03893 -3.35045,-0.65703 -2.59209,-2.63329 0.32512,-0.84724 1.56814,-1.97639 2.76226,-2.50922 l 2.17114,-0.96879 -2.2934,-1.22739 C 419.28852,265.54886 417,267.12544 417,270.6472 c 0,1.66313 -0.79505,2.70458 -2.58392,3.3847 C 411.18595,275.26 410,274.5642 410,271.44098 410,269.56054 409.47184,269 407.7,269 c -3.04515,0 -4.7,-1.79323 -4.7,-5.09301 0,-1.48116 -0.67891,-2.95353 -1.50868,-3.27195 C 399.62176,259.91763 395,261.58384 395,262.97525 395,263.53886 394.27492,264 393.38871,264 c -1.29288,0 -1.48443,-0.67623 -0.96932,-3.42202 0.68211,-3.63594 -1.00103,-6.04855 -2.01713,-2.89136 C 388.9177,262.29936 387.55166,264 385.33102,264 384.04505,264 383,263.397 383,262.65499 383,260.66722 379.66024,258 377.17126,258 375.66667,258 375,258.61408 375,260 c 0,2.34676 -2.78878,2.714 -3.646,0.48012 -0.32078,-0.83594 -1.54416,-1.44095 -2.71862,-1.34448 C 364.30766,259.49113 361,258.9712 361,257.93544 c 0,-0.58551 -1.35,-2.20051 -3,-3.58889 -1.65,-1.38839 -3,-3.15934 -3,-3.93544 C 355,249.635 354.625,249 354.16667,249 c -1.86051,0 -2.08624,1.47381 -0.57823,3.77532 1.76917,2.70009 2.27193,10.76431 0.76505,12.27119 -0.61936,0.61936 -1.74983,0.2329 -3.15901,-1.07995 -2.39586,-2.23208 -2.73826,-3.51245 -1.19448,-4.46656 0.55,-0.33992 1,-1.2968 1,-2.1264 0,-1.05454 -0.60324,-1.31691 -2.00493,-0.87204 -1.3325,0.42292 -2.20684,0.11014 -2.60698,-0.93261 C 345.49129,253.23194 342,253.57489 342,256 c 0,3.92889 -2.56132,1.47111 -4.34815,-4.17238 -0.35832,-1.13171 -1.21065,-1.49425 -2.63641,-1.12141 -1.36666,0.35739 -2.61705,-0.10906 -3.55892,-1.32762 -1.39481,-1.80458 -1.5563,-1.76142 -4.09931,1.09579 l -2.64729,2.97438 -1.51143,-2.27634 c -2.87501,-4.33 -11.24743,-6.05889 -13.40685,-2.76849 -1.18493,1.80552 -3.16845,-1.04443 -3.23312,-4.64541 -0.038,-2.11462 -0.51302,-3.16553 -1.35322,-2.99362 -0.71209,0.1457 -2.28709,0.22677 -3.5,0.18016 -1.21292,-0.0466 -4.3428,-0.0491 -6.9553,-0.005 -4.15618,0.0694 -4.75,-0.17843 -4.75,-1.98217 0,-1.39144 -0.97506,-2.40137 -3,-3.10726 -1.65,-0.5752 -3,-1.62571 -3,-2.33449 0,-2.07942 -6.28167,-2.62623 -7.69481,-0.66981 C 271.86411,238.99428 269,240.81901 269,237.5 c 0,-0.85333 0.89815,-1.5 2.08333,-1.5 2.72794,0 1.95255,-2.3981 -0.91166,-2.81955 C 268.97725,233.0047 268,232.2172 268,231.43045 268,230.6437 267.51968,230 266.93261,230 c -0.58706,0 -0.80186,0.83661 -0.47732,1.85912 1.10367,3.47736 -0.20913,4.71721 -4.55587,4.30268 -3.58485,-0.34187 -3.99627,-0.63979 -3.51754,-2.54718 0.42417,-1.69004 -0.10897,-2.44824 -2.45023,-3.48458 -3.66338,-1.62157 -5.40853,-0.49563 -6.32364,4.07989 -0.48033,2.40167 -0.91289,2.88519 -1.79338,2.0047 -0.87123,-0.87123 -0.87752,-1.78119 -0.0252,-3.65179 1.10413,-2.42331 2e-5,-4.6492 -1.27934,-2.57915 -0.34546,0.55897 -1.31231,1.01631 -2.14855,1.01631 -1.18197,0 -1.36797,-0.69421 -0.8355,-3.11849 0.52423,-2.38681 0.3669,-3.01268 -0.67055,-2.66751 -0.74551,0.24805 -1.5849,1.76387 -1.8653,3.3685 -0.44357,2.53835 -0.94332,2.9175 -3.84549,2.9175 -3.85434,0 -4.83004,-0.96928 -3.08828,-3.06797 1.86537,-2.24763 0.61799,-2.65234 -3.86377,-1.25359 -3.69753,1.15399 -4.00524,1.50858 -3.50024,4.03356 l 0.55367,2.76834 -5.37304,-0.35663 c -2.95516,-0.19614 -5.9171,0.0731 -6.58207,0.59828 -1.37821,1.08852 -6.95939,0.12352 -7.87752,-1.36204 -1.16833,-1.8904 7.25687,-8.30344 13.26634,-10.09799 8.66932,-2.58884 15.34954,-3.88396 17.18685,-3.33208 0.89835,0.26984 5.73328,0.728 10.74427,1.01812 8.13409,0.47094 22.90196,2.69566 36.7582,5.53748 2.678,0.54923 6.278,1.83236 8,2.8514 3.65207,2.16119 6.33678,3.16477 16.8809,6.3103 4.2625,1.27159 7.75,2.83606 7.75,3.47661 0,0.64055 1.0125,1.16669 2.25,1.1692 2.94687,0.006 10.88267,2.07223 12.21935,3.18158 1.26234,1.04765 13.75013,4.02543 16.88126,4.02543 1.22458,0 3.86347,0.83457 5.86419,1.8546 2.08027,1.06058 4.184,1.51696 4.9137,1.06598 0.70181,-0.43374 1.63641,-0.56588 2.0769,-0.29364 0.44048,0.27224 5.18697,0.49353 10.54774,0.49177 5.36077,-0.002 11.99686,0.61543 14.74686,1.37155 2.75,0.75611 4.5725,1.40512 4.05,1.44225 -0.5225,0.0371 -0.39126,0.62623 0.29164,1.30913 0.98886,0.98886 1.42368,0.9471 2.13576,-0.20507 0.76739,-1.24166 2.07253,-1.13042 9.20836,0.7849 20.24351,5.43353 27.80526,8.77577 37.31424,16.49263 3.3,2.67806 6.65802,5.13776 7.46227,5.46599 2.70324,1.10328 14.082,12.67498 17.17862,17.46991 1.68718,2.6125 3.4565,4.75 3.93181,4.75 0.96435,0 8.9273,10.45456 8.9273,11.72065 0,0.44333 1.50433,3.05004 3.34296,5.7927 3.33809,4.9794 8.74011,17.83211 10.56137,25.12806 0.52976,2.12222 1.63538,6.55859 2.45692,9.85859 1.06292,4.26961 1.40663,10.03758 1.19179,20 -0.25802,11.96454 -0.68364,15.13126 -2.92748,21.7809 -1.44406,4.27949 -2.62556,8.58572 -2.62556,9.56939 0,0.98367 -1.79887,4.23227 -3.99748,7.2191 -10.91485,14.82788 -15.16164,19.77014 -19.39592,22.57225 -2.25261,1.49071 -4.91828,3.75618 -5.92371,5.03437 -1.00544,1.27819 -2.42055,2.32399 -3.1447,2.32399 -2.98014,0 -5.80722,3.68133 -6.57735,8.56483 -1.36527,8.65723 3.53183,32.76753 7.10389,34.97518 1.33842,0.82719 1.15564,5.83961 -0.26474,7.25999 -1.42608,1.42608 -7.19477,1.44577 -11.05,0.0377 z M 242,420.62244 c 0,-1.30765 0.6833,-2.94464 1.51845,-3.63776 0.83515,-0.69311 2.26637,-2.8363 3.18048,-4.76265 0.91411,-1.92634 3.15884,-4.38559 4.98828,-5.46499 1.82945,-1.0794 3.59859,-3.04758 3.93144,-4.37374 0.64062,-2.55245 9.96051,-11.5879 19.76198,-19.15885 5.19227,-4.01067 6.11643,-4.39513 7.89499,-3.2844 1.75195,1.09412 1.93011,1.03846 1.36766,-0.42725 -0.47713,-1.24339 0.14033,-1.98231 2.35502,-2.81826 1.65093,-0.62316 3.0017,-1.70936 3.0017,-2.41378 0,-1.76942 1.65913,-1.61144 2.36387,0.22509 0.38257,0.99696 -0.67958,2.30829 -3.14301,3.88035 -2.04647,1.30598 -4.8118,3.55334 -6.14517,4.99415 -1.33338,1.44081 -3.23704,2.61965 -4.23037,2.61965 -2.10732,0 -14.82256,11.3566 -20.45724,18.27136 -2.13845,2.62424 -5.76081,6.98199 -8.0497,9.68387 -2.2889,2.70189 -4.45672,5.84227 -4.81739,6.97864 C 244.6102,423.8035 242,423.57263 242,420.62244 Z"
       style="fill:#383931" />
  </g>
</svg>
