<?xml version="1.0" encoding="UTF-8" standalone="no"?>
<svg
   xmlns:dc="http://purl.org/dc/elements/1.1/"
   xmlns:cc="http://creativecommons.org/ns#"
   xmlns:rdf="http://www.w3.org/1999/02/22-rdf-syntax-ns#"
   xmlns:svg="http://www.w3.org/2000/svg"
   xmlns="http://www.w3.org/2000/svg"
   viewBox="0 0 800 600"
   height="600"
   width="800"
   version="1.1"
   id="svg6907">
  <metadata
     id="metadata6913">
    <rdf:RDF>
      <cc:Work
         rdf:about="">
        <dc:format>image/svg+xml</dc:format>
        <dc:type
           rdf:resource="http://purl.org/dc/dcmitype/StillImage" />
        <dc:title></dc:title>
      </cc:Work>
    </rdf:RDF>
  </metadata>
  <defs
     id="defs6911" />
  <g
     id="g7457">
    <path
       id="path7487"
       d="m 278.63347,494.53975 c -11.14436,-1.16709 -13.42994,-2.24421 -13.75195,-6.48088 -0.36998,-4.86772 1.7438,-7.05887 6.80961,-7.05887 4.08386,0 4.17953,-1.20881 0.36467,-4.60787 -3.66323,-3.26395 -6.40718,-9.01259 -9.11322,-19.0924 -1.78051,-6.63228 -1.99346,-9.37135 -1.42272,-18.29973 0.7469,-11.68395 2.67707,-17.10732 9.63841,-27.08187 3.82403,-5.47927 5.6641,-7.14837 14.98947,-13.59675 6.62874,-4.5837 22.30212,-9.35078 28.21078,-8.58034 l 3.85852,0.50311 -0.73065,-4.37207 c -0.40185,-2.40465 -1.51333,-6.39708 -2.46994,-8.87208 -0.95661,-2.475 -2.31249,-8.24997 -3.01307,-12.83327 -0.70058,-4.58329 -1.80433,-8.53685 -2.45278,-8.78569 -1.21708,-0.46703 -9.9057,1.59208 -14.8657,3.52303 -1.5483,0.60276 -4.7358,1.09593 -7.08333,1.09593 -2.34753,0 -4.59004,0.3218 -4.98335,0.71512 -0.39332,0.39331 -2.60582,1.24513 -4.91667,1.89292 -2.31085,0.64779 -8.02655,2.65489 -12.70155,4.46021 -4.675,1.80533 -10.82622,3.46806 -13.66937,3.69496 -4.66074,0.37195 -5.33359,0.16191 -6.83838,-2.13469 -1.8001,-2.7473 -1.35656,-7.66631 0.85688,-9.50331 0.67132,-0.55715 4.43106,-2.17108 8.35498,-3.58651 3.92392,-1.41544 8.40823,-3.23791 9.96514,-4.04995 1.55691,-0.81204 3.39936,-1.4792 4.09432,-1.48259 0.69496,-0.003 2.04496,-0.40689 3,-0.89667 0.95504,-0.48978 6.23643,-1.90661 11.73643,-3.1485 5.5,-1.24189 11.89425,-3.06734 14.20945,-4.05656 2.31519,-0.98922 5.86162,-2.10854 7.88095,-2.48737 l 3.67152,-0.68878 -0.60219,-8.61414 c -2.85743,-40.8748 -2.51722,-38.42401 -7.80489,-56.22498 C 298.28468,268.60319 297,263.72994 297,263.05971 297,261.6185 292.69452,250.23682 289.93778,244.39047 288.872,242.13023 288,239.79912 288,239.21024 c 0,-0.58889 -1.30816,-3.9146 -2.90702,-7.39047 -6.28333,-13.65975 -9.94516,-25.26634 -11.14326,-35.31977 l -1.19172,-10 3.26093,-6.89301 c 9.35377,-19.77213 37.03395,-34.2616 53.48107,-27.99519 2.2,0.83821 5.35,1.9181 7,2.39976 6.81837,1.9904 12.5,4.27556 12.5,5.02752 0,0.44111 1.39478,1.10836 3.09952,1.48278 6.42053,1.41018 15.80362,9.84348 44.40048,39.90608 15.99021,16.8098 29.53771,28.57532 40.38398,35.07206 11.37718,6.81475 27.3351,17.72321 33.61602,22.97915 3.3,2.76147 7.88131,6.29794 10.18069,7.85882 4.76641,3.23557 18.35115,19.46094 23.16012,27.66203 1.77381,3.025 3.63937,6.175 4.1457,7 2.69072,4.38422 8.01349,16.36984 8.01349,18.04448 0,1.06396 1.06768,4.75171 2.37262,8.195 3.61266,9.53254 4.93651,18.83124 4.94884,34.76052 0.0109,14.02437 -0.11321,14.89363 -3.78213,26.5 -2.35497,7.44977 -5.16714,14.02936 -7.41634,17.35187 -1.99265,2.94353 -4.97299,7.47513 -6.62299,10.07022 -3.2281,5.07709 -13.34721,14.56143 -21.16743,19.8396 -2.65791,1.79393 -9.48018,5.56947 -15.16059,8.3901 -13.0929,6.50132 -13.19239,6.71505 -9.74156,20.92724 1.41327,5.82055 2.56958,11.56969 2.56958,12.77587 0,2.18166 0.0845,2.19126 16.25,1.84674 26.45695,-0.56387 31.75,0.83329 31.75,8.38077 0,5.52787 -3.80808,8.33605 -9.9845,7.36285 -2.48353,-0.39133 -14.6405,-0.60839 -27.0155,-0.48235 -12.375,0.12603 -29.7,0.18756 -38.5,0.13672 -8.8,-0.0508 -19.6,-0.0367 -24,0.0314 -4.4,0.0681 -8.9,0.11324 -10,0.10031 -1.1,-0.0129 -8.75,-0.0437 -17,-0.0683 -26.07492,-0.0779 -79.79722,-0.42236 -85,-0.5451 -2.75,-0.0649 -5.9,0.14704 -7,0.47092 -1.1,0.32388 -6.88994,0.0768 -12.86653,-0.54912 z m 130.55095,-21.19797 c -0.38688,-8.38736 -1.75533,-13.07082 -4.03009,-13.7928 -0.94715,-0.30061 -4.85685,-0.46951 -8.68821,-0.37533 -6.70876,0.16491 -14.58005,-1.52622 -22.25005,-4.78037 -4.4528,-1.8892 -6.21607,-1.75137 -6.21607,0.48588 0,3.38063 -5.20498,13.51197 -9.6484,18.78033 -2.39338,2.83772 -4.3516,5.48834 -4.3516,5.89026 0,0.40192 9.56309,0.51 21.2513,0.24018 11.68822,-0.26982 22.06948,-0.20358 23.06948,0.1472 1,0.35078 3.92441,0.54973 6.4987,0.4421 l 4.68052,-0.19568 -0.31558,-6.84177 z m 35.52944,5.35494 c -0.27506,-0.71681 -1.05651,-6.34181 -1.73655,-12.5 -1.39017,-12.58882 -1.08641,-12.28064 -9.56838,-9.70754 -2.69991,0.81904 -6.1295,1.49404 -7.6213,1.5 l -2.71238,0.0108 0.59746,6.75 c 0.53077,5.99647 1.87815,10.01896 4.68946,14 1.27743,1.80893 17.04657,1.75755 16.35169,-0.0533 z M 298.49467,457.23469 c -1.62697,-1.18898 -3.67863,-8.07972 -3.02182,-10.14915 1.67727,-5.28462 8.50222,-5.81462 11.92624,-0.92615 2.32253,3.31588 1.98188,5.61349 -1.32217,8.91753 -1.82536,1.82537 -2.38866,2.92308 -1.5,2.92308 0.7827,0 2.37532,-0.95224 3.53918,-2.1161 C 312.65482,451.34518 308.06794,441 301.51682,441 296.96244,441 292,445.91081 292,450.41779 c 0,2.1073 4.66614,7.59241 6.43709,7.5669 0.69857,-0.0101 0.71831,-0.26715 0.0576,-0.75 z"
       style="fill:#eeeed8" />
    <path
       id="path7485"
       d="m 312,494.22756 c -1.925,-0.14983 -6.55452,-0.71906 -10.28783,-1.26493 -4.50245,-0.65834 -7.41456,-0.65709 -8.64929,0.004 -1.25736,0.67292 -5.53844,0.58628 -13.19173,-0.26697 -10.7909,-1.20305 -11.40265,-1.39547 -12.85071,-4.04192 -1.43472,-2.62207 -1.38735,-2.88806 0.84034,-4.71809 1.30653,-1.07331 3.87431,-1.93937 5.75,-1.93937 4.4291,0 4.39871,-1.88533 -0.0988,-6.12746 -4.27277,-4.03019 -6.60235,-8.8485 -9.53195,-19.7151 -2.12822,-7.89411 -2.18168,-8.91544 -0.99458,-19 1.31633,-11.1824 3.19658,-15.88533 10.39395,-25.9976 3.45621,-4.85595 14.61888,-13.41098 20.36127,-15.60479 6.47908,-2.47553 16.2228,-4.55533 21.3401,-4.55533 5.69542,0 5.6462,0.167 2.8001,-9.5 -1.13349,-3.85 -3.0727,-11.61481 -4.30936,-17.25514 -1.23665,-5.64033 -2.50192,-10.50861 -2.81172,-10.8184 -0.3098,-0.3098 -5.43275,0.84378 -11.38435,2.5635 -5.95159,1.71972 -11.7099,2.89433 -12.79622,2.61025 -1.08633,-0.28408 -2.50907,-0.0734 -3.16165,0.4682 -0.65258,0.54159 -3.37599,1.59832 -6.05204,2.34828 -2.67604,0.74997 -8.69053,2.83676 -13.36553,4.63732 -10.66162,4.10629 -16.91175,4.46591 -18.61641,1.07114 -0.83071,-1.65434 -0.89734,-3.22156 -0.21962,-5.16566 0.8273,-2.3732 2.19716,-3.19426 9.15445,-5.48697 4.49987,-1.48289 8.63158,-3.02918 9.18158,-3.43621 1.57786,-1.16768 10.12619,-3.80064 21,-6.46819 5.5,-1.34925 12.57626,-3.37904 15.72502,-4.51065 3.14876,-1.13161 6.3847,-2.05747 7.19098,-2.05747 2.20001,0 2.30404,-0.73809 1.4799,-10.5 -0.4179,-4.95 -1.23437,-15.70129 -1.81439,-23.89176 -0.58002,-8.19047 -1.48608,-16.29047 -2.01347,-18 C 304.54066,285.89871 302.6951,279.1 300.9668,272.5 c -1.7283,-6.6 -6.0831,-19.425 -9.67733,-28.5 -12.62234,-31.86986 -14.00751,-35.7067 -15.19032,-42.07654 -2.9992,-16.15176 -0.59988,-23.58651 11.38123,-35.26687 7.64031,-7.44851 11.34917,-9.6974 21.9256,-13.29467 7.96613,-2.70946 13.39268,-2.92253 19.09402,-0.74971 2.2,0.83844 5.8,1.97107 8,2.51696 3.3394,0.8286 13.83251,5.28699 18.16398,7.71765 5.28451,2.96545 17.71563,13.8527 24.99512,21.89087 11.32678,12.50728 34.36959,35.24836 42.52396,41.96715 3.47432,2.86267 9.46694,7.09929 13.31694,9.41472 9.51539,5.72265 30.53794,19.83768 33,22.15697 1.1,1.03621 5.25106,4.33953 9.22457,7.34071 3.97351,3.00118 8.69851,7.29644 10.5,9.54503 1.80149,2.2486 4.93524,5.96475 6.9639,8.25812 6.16474,6.96915 18.01081,28.95546 19.70885,36.57961 0.55123,2.475 1.87208,6.75 2.93524,9.5 2.90738,7.52036 4.24541,17.50984 4.35317,32.5 0.0949,13.19999 0.004,13.79155 -4.07121,26.61933 -2.3866,7.51165 -5.01165,13.88258 -6.14139,14.90499 -1.08522,0.98211 -1.97313,2.09919 -1.97313,2.4824 0,0.38321 -1.92768,3.63168 -4.28372,7.21883 C 501.57578,419.52957 488.0967,433 485.92913,433 c -0.58442,0 -2.65481,1.2375 -4.60087,2.75 -1.94606,1.5125 -8.07701,5 -13.62435,7.75 -12.43405,6.16398 -12.77796,6.90817 -9.5638,20.69556 1.19299,5.11744 2.36827,10.95519 2.61173,12.97277 l 0.44265,3.66833 8.15276,0.55579 c 4.48401,0.30568 14.00275,0.47658 21.15275,0.37978 8.71997,-0.11806 13.73689,0.22919 15.23819,1.05474 2.87076,1.5786 3.89697,5.58383 2.11738,8.26403 -1.31354,1.9783 -2.49646,2.08223 -29.36213,2.57959 -29.5826,0.54767 -29.50874,0.54713 -41.99344,0.30791 -4.4,-0.0843 -10.7,-0.15171 -14,-0.14978 -3.3,0.002 -24.9,-0.0207 -48,-0.0504 -23.1,-0.0296 -45.825,0.12061 -50.5,0.33389 -4.675,0.21328 -10.075,0.26518 -12,0.11534 z m 98.67633,-13.49104 c 0.83003,-0.53873 0.90362,-1.71434 0.25,-3.9934 C 410.41685,474.96666 410,471.61891 410,469.30365 410,465.7585 408.70315,460.95974 407.21548,459 c -0.20876,-0.275 -4.95514,-0.78036 -10.54752,-1.12301 -7.56586,-0.46358 -12.50892,-1.42325 -19.31546,-3.75 C 372.32137,452.40714 367.98395,451 367.71379,451 c -0.27017,0 -0.76626,1.4625 -1.10244,3.25 -1.02704,5.46087 -6.25648,15.40969 -10.54585,20.06311 -4.43701,4.8136 -4.97039,6.36597 -2.36001,6.86869 3.57988,0.68942 55.85204,0.28086 56.97084,-0.44528 z m 33.65841,0.62166 c 1.29297,-0.3853 1.67737,-1.18331 1.30178,-2.70246 -0.29313,-1.18565 -1.03159,-7.10572 -1.64103,-13.15572 -0.60943,-6.05 -1.42023,-11.28904 -1.80178,-11.6423 -0.55038,-0.5096 -12.31811,1.80147 -18.95327,3.72224 -0.9446,0.27345 -1.09269,2.18446 -0.59222,7.64234 0.74064,8.07714 3.5076,14.52812 6.74767,15.73174 2.48199,0.92202 12.3089,1.18787 14.93885,0.40416 z m -135.66781,-24.9342 c 2.2001,-2.2001 2.49433,-3.18512 2.01629,-6.75 -0.79713,-5.94431 -5.5342,-10.11841 -10.5705,-9.31427 -4.05223,0.64702 -7.67991,4.39324 -8.68484,8.96863 -0.51632,2.35082 -0.0353,3.48145 2.66727,6.26983 2.75484,2.84227 4.01259,3.40183 7.64647,3.40183 3.34013,0 4.947,-0.59771 6.92531,-2.57602 z M 298.2,455.8 c -0.66,-0.66 -1.2,-1.92 -1.2,-2.8 0,-0.88 -0.49189,-2.09189 -1.0931,-2.6931 -1.4136,-1.4136 1.43432,-5.96304 4.30273,-6.87343 2.76664,-0.8781 7.20672,2.56441 7.60495,5.8963 0.58651,4.90717 -6.44543,9.63938 -9.61458,6.47023 z m 35.66301,-30.66301 c 2.78111,-2.78111 3.61681,-8.75575 1.64552,-11.76432 -3.25343,-4.96536 -10.77626,-5.83221 -14.89242,-1.71605 -4.91033,4.91033 -4.62796,10.14575 0.72318,13.40864 4.07832,2.48678 10.07433,2.52112 12.52372,0.0717 z M 324.33107,423.75 c -2.84955,-3.89788 -3.6399,-6.77678 -2.52949,-9.21387 2.18062,-4.78593 9.13257,-4.49793 11.70939,0.48508 1.97954,3.828 1.87796,6.31684 -0.33971,8.3238 -2.15226,1.94777 -7.53216,2.19423 -8.84019,0.40499 z"
       style="fill:#d6d5ab" />
    <path
       id="path7483"
       d="m 307,492.76587 c -3.575,-0.46605 -9.425,-0.99389 -13,-1.17298 -17.11331,-0.8573 -24.89781,-1.8842 -25.46377,-3.35908 -0.94661,-2.46683 1.36267,-4.11363 6.21527,-4.43227 2.52569,-0.16585 4.74332,-0.762 4.92808,-1.32478 0.18475,-0.56277 -1.90431,-3.37196 -4.64235,-6.24264 -6.0407,-6.33331 -7.18077,-8.46958 -9.99792,-18.73412 -2.86435,-10.43654 -2.20335,-25.01881 1.50878,-33.28507 5.08697,-11.32776 14.31233,-21.25321 25.14038,-27.0482 C 295.81602,394.95773 309.16831,392 315.013,392 c 4.06027,0 6.21482,-0.43012 6.55168,-1.30795 0.27604,-0.71937 -0.85887,-5.47206 -2.52203,-10.56153 -1.66316,-5.08948 -3.4886,-12.2634 -4.05653,-15.94206 -1.47995,-9.58612 -2.80494,-12.48987 -5.39328,-11.81947 -1.15106,0.29813 -5.46784,1.50613 -9.59284,2.68443 -4.125,1.17831 -9.75,2.48991 -12.5,2.91468 -5.18955,0.80158 -7.31028,1.45833 -24,7.4323 -12.15637,4.35129 -16.08547,4.6035 -17.66627,1.13403 -1.80936,-3.97111 0.61328,-6.27206 10.67047,-10.13448 13.33374,-5.12077 16.0819,-6.00028 26.4958,-8.47961 5.225,-1.24396 12.27675,-3.30993 15.67056,-4.59104 3.3938,-1.28112 6.8445,-2.3293 7.66821,-2.3293 3.46483,0 4.66127,-1.24537 4.66618,-4.85699 0.0136,-10.03061 -3.35494,-43.74095 -5.01065,-50.14301 -6.98192,-26.99673 -8.99306,-33.0157 -18.54445,-55.5 -6.68378,-15.73384 -9.30659,-24.26271 -10.49272,-34.12035 -1.18312,-9.83263 -1.17575,-9.90706 1.54868,-15.6393 3.54016,-7.44852 14.36518,-19.13454 20.69687,-22.34305 11.86599,-6.01296 22.61818,-7.71128 30.29732,-4.7855 2.2,0.83821 5.35,1.88001 7,2.31513 2.70018,0.71205 15.25251,6.16032 18.16398,7.88397 5.92235,3.50615 17.91022,14.08814 25.43951,22.45609 12.37986,13.75881 34.00181,35.08146 41.81178,41.23301 3.49139,2.75 9.77625,7.06774 13.96635,9.59499 25.2781,15.24635 46.05885,31.63484 57.75794,45.55008 7.51268,8.93581 19.43423,31.12639 20.79811,38.71329 0.38149,2.12209 1.5196,5.72209 2.52914,8 2.72696,6.15307 4.23599,16.56227 4.51348,31.13373 0.23899,12.54983 0.11548,13.43068 -3.62834,25.87654 -3.33446,11.08495 -4.81684,14.30343 -10.61386,23.04432 C 497.07595,424.73568 488.08701,432.27808 467.2095,443 l -10.7095,5.5 -0.30259,4.69619 c -0.16643,2.58291 0.44324,7.98291 1.35482,12 0.91158,4.0171 1.94774,9.55381 2.30259,12.30381 l 0.64518,5 7.5,0.70437 c 5.92476,0.55644 19.1807,0.37264 23.77036,-0.32958 0.4013,-0.0614 3.285,-0.0583 6.40821,0.007 6.29348,0.13124 8.82143,1.7517 8.82143,5.65466 0,3.36039 -3.07612,4.77849 -7.75418,3.5747 -5.68976,-1.46413 -21.02071,-1.26611 -38.14481,0.4927 -11.4272,1.17368 -16.01752,1.2998 -17.79706,0.48899 -3.11667,-1.42005 -14.51628,-1.40864 -17.64667,0.0177 -1.80078,0.82049 -4.48844,0.79722 -10.29705,-0.0892 -6.24974,-0.95371 -26.91379,-2.22169 -31.86023,-1.955 -0.55,0.0297 -12.2573,0.16033 -26.01621,0.2904 -13.75892,0.13006 -25.63093,0.6164 -26.38226,1.08074 -1.87989,1.16184 -16.21118,1.35724 -24.10153,0.32862 z m 102.75,-10.12791 c 2.59179,-0.89012 2.59536,-0.92387 1.19857,-11.3156 C 409.07665,457.39585 408.72051,457 398.06273,457 c -6.31406,0 -9.76664,-0.67463 -18.17857,-3.55206 -13.66628,-4.67477 -13.14849,-4.67669 -14.00632,0.0521 -1.16982,6.44858 -4.77985,13.60378 -9.83837,19.5 -2.59523,3.025 -5.24135,6.48395 -5.88026,7.68655 -1.07326,2.02016 -0.91425,2.2104 2.08956,2.5 6.77448,0.65313 55.3516,0.18968 57.50123,-0.54859 z m 33.85592,-0.11777 c 2.63437,-1.10071 3.4032,-1.93329 3.00115,-3.25 -0.29728,-0.9736 -1.04199,-6.94519 -1.65491,-13.27019 -0.61292,-6.325 -1.50468,-11.90429 -1.98169,-12.39841 -0.51163,-0.52999 -3.24645,-0.37631 -6.66888,0.37473 -3.19088,0.70024 -7.37659,1.49535 -9.30159,1.76692 -5.44318,0.76791 -6.01633,1.67971 -5.4107,8.60772 0.62954,7.20156 4.77355,17.02375 7.80157,18.49141 3.13374,1.51889 10.19159,1.35893 14.21505,-0.32218 z M 308.03308,457.31871 c 2.94515,-2.47818 3.15123,-3.04879 2.72039,-7.53264 -1.15192,-11.9882 -13.44178,-14.25856 -18.67423,-3.44976 -2.51699,5.1994 -2.08731,6.79623 2.97494,11.05583 4.13615,3.48033 8.78676,3.45402 12.9789,-0.0734 z m -10.50713,-4.91084 c -1.40773,-3.36918 -1.40557,-3.94264 0.023,-6.12298 2.06986,-3.15901 6.05693,-2.72161 8.79736,0.96511 l 2.04415,2.75 -2.04415,2.75 c -1.12428,1.5125 -3.21933,2.89067 -4.65567,3.0626 -2.18919,0.26205 -2.86271,-0.28856 -4.16473,-3.40473 z M 334.75,424.3413 c 2.45881,-2.68046 3.00626,-8.0597 1.16951,-11.4917 -1.16269,-2.1725 -6.60156,-4.8496 -9.8526,-4.8496 -1.09852,0 -3.58798,1.39662 -5.53211,3.10359 -2.8533,2.50523 -3.5348,3.81874 -3.5348,6.81291 0,8.6067 11.82296,12.88615 17.75,6.4248 z m -12.0166,-4.05506 c -1.50689,-3.32457 -1.52631,-3.95335 -0.1853,-6 2.05533,-3.13682 7.71718,-3.17328 9.8952,-0.0637 1.85341,2.64612 2.03047,6.90372 0.3567,8.57749 -0.66,0.66 -2.81624,1.2 -4.79165,1.2 -3.17529,0 -3.7868,-0.43052 -5.27495,-3.71376 z"
       style="fill:#f9d75d" />
    <path
       id="path7481"
       d="m 413.5,492.8917 c -3.96492,-0.73049 -25.34939,-2.05076 -30,-1.8522 -13.03179,0.55641 -37.43639,0.73389 -41.87094,0.30451 l -5.87094,-0.56846 5.24484,-2.86816 c 2.88467,-1.57749 5.7516,-3.28556 6.37095,-3.79571 0.65015,-0.53552 13.59416,-0.83004 30.62609,-0.69685 28.97173,0.22657 34,-0.21754 34,-3.00299 0,-2.07655 -2.06116,-16.77033 -2.61694,-18.65592 C 408.25083,457.91467 406.08817,457 398.13804,457 390.5071,457 376.59652,453.42832 369.07108,449.53675 365.85315,447.8727 365,448.33362 365,451.73618 c 0,4.30923 -5.87749,16.75404 -9.60465,20.33659 -1.96107,1.88498 -4.67236,5.30104 -6.0251,7.59125 -1.82802,3.09489 -4.09708,5.01306 -8.83743,7.47081 -3.50785,1.81874 -6.23074,3.54493 -6.05086,3.83598 0.35497,0.57436 -0.47623,0.67023 -10.98196,1.26673 -8.36355,0.47487 -22.15832,-0.84935 -28.76955,-2.76171 -6.10045,-1.76462 -12.01729,-6.03504 -18.38513,-13.26927 -6.6178,-7.5182 -7.92047,-10.21845 -10.42617,-21.61196 -1.75805,-7.99386 -1.92115,-10.35805 -1.00824,-14.6148 0.599,-2.79303 1.08909,-6.6806 1.08909,-8.63904 0,-2.05798 1.27961,-5.94114 3.03192,-9.20078 10.14184,-18.86589 23.45488,-27.33795 45.60457,-29.02153 L 322.77298,392.5 319.80577,383 c -1.63197,-5.225 -3.76494,-13.55 -4.73994,-18.5 -0.975,-4.95 -2.12729,-9.8278 -2.56063,-10.83956 -0.85971,-2.00718 -0.43718,-2.05425 -12.5052,1.39298 -4.125,1.17831 -9.75,2.48991 -12.5,2.91468 -5.18955,0.80158 -7.31028,1.45833 -24,7.4323 -12.15637,4.35129 -16.08547,4.6035 -17.66627,1.13403 -1.80936,-3.97111 0.61328,-6.27206 10.67047,-10.13448 13.33374,-5.12077 16.0819,-6.00028 26.4958,-8.47961 5.225,-1.24396 12.27675,-3.30993 15.67056,-4.59104 3.3938,-1.28112 6.8445,-2.3293 7.66821,-2.3293 3.46483,0 4.66127,-1.24537 4.66618,-4.85699 0.0136,-10.03061 -3.35494,-43.74095 -5.01065,-50.14301 -6.98192,-26.99673 -8.99306,-33.0157 -18.54445,-55.5 -6.68378,-15.73384 -9.30659,-24.26271 -10.49272,-34.12035 -1.18312,-9.83263 -1.17575,-9.90706 1.54868,-15.6393 3.54016,-7.44852 14.36518,-19.13454 20.69687,-22.34305 11.86599,-6.01296 22.61818,-7.71128 30.29732,-4.7855 2.2,0.83821 5.35,1.88001 7,2.31513 2.70018,0.71205 15.25251,6.16032 18.16398,7.88397 5.92235,3.50615 17.91022,14.08814 25.43951,22.45609 12.37986,13.75881 34.00181,35.08146 41.81178,41.23301 3.49139,2.75 9.77625,7.06774 13.96635,9.59499 25.2781,15.24635 46.05885,31.63484 57.75794,45.55008 7.51268,8.93581 19.43423,31.12639 20.79811,38.71329 0.38149,2.12209 1.5196,5.72209 2.52914,8 2.72696,6.15307 4.23599,16.56227 4.51348,31.13373 0.23899,12.54983 0.11548,13.43068 -3.62834,25.87654 -3.33446,11.08495 -4.81684,14.30343 -10.61386,23.04432 C 497.07595,424.73568 488.08701,432.27808 467.2095,443 l -10.7095,5.5 -0.30259,4.69619 c -0.16643,2.58291 0.44324,7.98291 1.35482,12 0.91158,4.0171 1.94774,9.55381 2.30259,12.30381 l 0.64518,5 7.5,0.70437 c 5.92476,0.55644 19.1807,0.37264 23.77036,-0.32958 0.4013,-0.0614 3.285,-0.0583 6.40821,0.007 6.29348,0.13124 8.82143,1.7517 8.82143,5.65466 0,3.36039 -3.07612,4.77849 -7.75418,3.5747 -5.67735,-1.46094 -21.03642,-1.27107 -37.74582,0.4666 -11.75539,1.22249 -15.76796,1.30836 -18.55034,0.39702 -3.25339,-1.06563 -8.85063,-0.96257 -20.44966,0.37653 -2.2,0.25398 -6.25,0.0473 -9,-0.45939 z m 30.10592,-10.37151 c 2.63437,-1.10071 3.4032,-1.93329 3.00115,-3.25 -0.29728,-0.9736 -1.04199,-6.94519 -1.65491,-13.27019 -0.61292,-6.325 -1.50468,-11.90429 -1.98169,-12.39841 -0.51163,-0.52999 -3.24645,-0.37631 -6.66888,0.37473 -3.19088,0.70024 -7.37659,1.49535 -9.30159,1.76692 -5.44318,0.76791 -6.01633,1.67971 -5.4107,8.60772 0.62954,7.20156 4.77355,17.02375 7.80157,18.49141 3.13374,1.51889 10.19159,1.35893 14.21505,-0.32218 z M 309.92308,457.92308 c 3.77177,-3.77178 4.00232,-7.66417 0.82692,-13.96119 -1.77078,-3.51157 -3.07731,-4.732 -6.13431,-5.73008 -3.37059,-1.10046 -4.36135,-1.03434 -7.4912,0.5 -3.93282,1.92798 -8.08098,8.18294 -8.10804,12.22603 -0.01,1.50036 1.42607,3.93511 3.6865,6.25 3.35159,3.43234 4.19826,3.79216 8.92307,3.79216 4.49582,0 5.64707,-0.42694 8.29706,-3.07692 z m -12.39713,-5.51521 c -1.40773,-3.36918 -1.40557,-3.94264 0.023,-6.12298 2.06986,-3.15901 6.05693,-2.72161 8.79736,0.96511 l 2.04415,2.75 -2.04415,2.75 c -1.12428,1.5125 -3.21933,2.89067 -4.65567,3.0626 -2.18919,0.26205 -2.86271,-0.28856 -4.16473,-3.40473 z m 34.43958,-24.2945 c 3.1344,-0.87371 6.04664,-5.81705 6.2252,-10.56689 0.10924,-2.90574 -0.53084,-4.34813 -3.04544,-6.86273 -2.73901,-2.739 -3.89026,-3.18375 -8.24136,-3.18375 -4.56319,0 -5.39225,0.36515 -8.48077,3.73531 -4.03468,4.4026 -4.48061,8.60065 -1.33917,12.60696 3.74873,4.78078 8.33303,6.0965 14.88154,4.2711 z m -9.23213,-7.82713 c -1.50689,-3.32457 -1.52631,-3.95335 -0.1853,-6 2.05533,-3.13682 7.71718,-3.17328 9.8952,-0.0637 1.85341,2.64612 2.03047,6.90372 0.3567,8.57749 -0.66,0.66 -2.81624,1.2 -4.79165,1.2 -3.17529,0 -3.7868,-0.43052 -5.27495,-3.71376 z M 283.5,490.95399 c -2.75,-0.42833 -7.08936,-0.8182 -9.64301,-0.86638 -8.139,-0.15357 -7.45038,-6.08761 0.70644,-6.08761 2.37519,0 4.58259,-0.42725 4.90532,-0.94944 0.32274,-0.52219 3.1239,0.82781 6.2248,3 3.10091,2.17219 6.57591,3.98107 7.72223,4.01973 2.04968,0.0691 2.05107,0.0845 0.0842,0.92971 -2.33317,1.0026 -3.29609,0.99817 -10,-0.046 z"
       style="fill:#fbd82b" />
    <path
       id="path7479"
       d="m 413.5,492.8917 c -3.96492,-0.73049 -25.34939,-2.05076 -30,-1.8522 -13.03179,0.55641 -37.43639,0.73389 -41.87094,0.30451 l -5.87094,-0.56846 5.24484,-2.86816 c 2.88467,-1.57749 5.7516,-3.28556 6.37095,-3.79571 0.65015,-0.53552 13.59416,-0.83004 30.62609,-0.69685 28.97173,0.22657 34,-0.21754 34,-3.00299 0,-2.07655 -2.06116,-16.77033 -2.61694,-18.65592 C 408.25083,457.91467 406.08817,457 398.13804,457 c -5.85512,0 -9.95643,-0.72519 -16.98428,-3.00313 -12.25999,-3.97384 -15.13144,-5.5315 -15.24984,-8.27255 -0.0529,-1.22338 -0.89725,1.60068 -1.87644,6.27568 -1.91089,9.12319 -4.45503,14.43814 -9.57355,20 -1.77155,1.925 -4.33706,5.3 -5.70114,7.5 -1.86698,3.0111 -4.33333,4.94947 -9.97617,7.84049 -7.02163,3.59744 -8.16979,3.86764 -18.14195,4.26939 -15.64407,0.63027 -27.89338,-2.02327 -35.13691,-7.61161 -2.94518,-2.27219 -6.13856,-5.33883 -7.0964,-6.81476 -0.95784,-1.47593 -2.61314,-3.30525 -3.67844,-4.06516 -2.01368,-1.4364 -7.00331,-11.17129 -6.15875,-12.01585 0.26501,-0.26501 1.18458,0.52148 2.0435,1.74776 2.5563,3.64963 5.25023,5.79535 11.37348,9.05901 5.05343,2.69345 6.80001,3.09073 13.58783,3.09073 4.28396,0 9.17097,-0.43439 10.86002,-0.96532 1.68905,-0.53092 4.29934,-1.2122 5.80064,-1.51394 1.50131,-0.30174 5.10131,-2.47852 8,-4.83728 4.19441,-3.41312 5.71756,-5.50282 7.46092,-10.23606 3.03284,-8.23422 2.892,-9.37971 -0.72693,-5.91255 -2.4363,2.33412 -3.37504,2.69576 -4.75,1.82991 -0.9425,-0.59352 -1.8414,-1.72634 -1.99756,-2.51738 -0.32915,-1.66735 3.81405,-7.68733 8.61197,-12.51299 2.7384,-2.75424 3.2166,-3.85464 2.69908,-6.21089 -0.50516,-2.29999 -0.24533,-2.96393 1.32012,-3.3733 4.81862,-1.2601 7.85129,-12.22829 4.70766,-17.02608 C 335.87535,409.16081 329.56072,406 326.11931,406 c -1.01212,0 -3.50545,1.13006 -5.54073,2.51124 l -3.70052,2.51124 -7.44341,-2.64247 c -9.66077,-3.42964 -19.19814,-3.08558 -27.18465,0.98069 -2.8875,1.47014 -5.25,2.22199 -5.25,1.67077 0,-1.57835 10.98214,-9.84053 16.5,-12.41343 2.75,-1.28229 7.7,-2.88211 11,-3.55517 6.26619,-1.27802 22.5482,-1.07969 26,0.31671 1.59308,0.64447 1.69481,0.58638 0.5,-0.28551 -0.825,-0.60203 -3.075,-1.53548 -5,-2.07435 -3.36379,-0.94162 -3.60985,-1.34051 -6.32258,-10.24974 C 318.125,377.67149 316.05345,369.45 315.07397,364.5 c -0.97948,-4.95 -2.13543,-9.8278 -2.56877,-10.83956 -0.85971,-2.00718 -0.43718,-2.05425 -12.5052,1.39298 -4.125,1.17831 -9.75,2.48991 -12.5,2.91468 -5.18955,0.80158 -7.31028,1.45833 -24,7.4323 -12.15637,4.35129 -16.08547,4.6035 -17.66627,1.13403 -1.80936,-3.97111 0.61328,-6.27206 10.67047,-10.13448 13.33374,-5.12077 16.0819,-6.00028 26.4958,-8.47961 5.225,-1.24396 12.27675,-3.30993 15.67056,-4.59104 3.3938,-1.28112 6.8445,-2.3293 7.66821,-2.3293 3.46483,0 4.66127,-1.24537 4.66618,-4.85699 0.0136,-10.03061 -3.35494,-43.74095 -5.01065,-50.14301 -6.98192,-26.99673 -8.99306,-33.0157 -18.54445,-55.5 -6.68378,-15.73384 -9.30659,-24.26271 -10.49272,-34.12035 -1.18312,-9.83263 -1.17575,-9.90706 1.54868,-15.6393 3.54016,-7.44852 14.36518,-19.13454 20.69687,-22.34305 11.86599,-6.01296 22.61818,-7.71128 30.29732,-4.7855 2.2,0.83821 5.35,1.88001 7,2.31513 2.70018,0.71205 15.25251,6.16032 18.16398,7.88397 5.92235,3.50615 17.91022,14.08814 25.43951,22.45609 12.37986,13.75881 34.00181,35.08146 41.81178,41.23301 3.49139,2.75 9.77625,7.06774 13.96635,9.59499 25.2781,15.24635 46.05885,31.63484 57.75794,45.55008 7.51268,8.93581 19.43423,31.12639 20.79811,38.71329 0.38149,2.12209 1.5196,5.72209 2.52914,8 2.72696,6.15307 4.23599,16.56227 4.51348,31.13373 0.23899,12.54983 0.11548,13.43068 -3.62834,25.87654 -3.33446,11.08495 -4.81684,14.30343 -10.61386,23.04432 C 497.07595,424.73568 488.08701,432.27808 467.2095,443 l -10.7095,5.5 -0.30259,4.69619 c -0.16643,2.58291 0.44324,7.98291 1.35482,12 0.91158,4.0171 1.94774,9.55381 2.30259,12.30381 l 0.64518,5 7.5,0.70437 c 5.92476,0.55644 19.1807,0.37264 23.77036,-0.32958 0.4013,-0.0614 3.285,-0.0583 6.40821,0.007 6.29348,0.13124 8.82143,1.7517 8.82143,5.65466 0,3.36039 -3.07612,4.77849 -7.75418,3.5747 -5.67735,-1.46094 -21.03642,-1.27107 -37.74582,0.4666 -11.75539,1.22249 -15.76796,1.30836 -18.55034,0.39702 -3.25339,-1.06563 -8.85063,-0.96257 -20.44966,0.37653 -2.2,0.25398 -6.25,0.0473 -9,-0.45939 z m 30.10592,-10.37151 c 2.63437,-1.10071 3.4032,-1.93329 3.00115,-3.25 -0.29728,-0.9736 -1.04199,-6.94519 -1.65491,-13.27019 -0.61292,-6.325 -1.50468,-11.90429 -1.98169,-12.39841 -0.51163,-0.52999 -3.24645,-0.37631 -6.66888,0.37473 -3.19088,0.70024 -7.37659,1.49535 -9.30159,1.76692 -5.44318,0.76791 -6.01633,1.67971 -5.4107,8.60772 0.62954,7.20156 4.77355,17.02375 7.80157,18.49141 3.13374,1.51889 10.19159,1.35893 14.21505,-0.32218 z M 283.5,490.95399 c -2.75,-0.42833 -7.08936,-0.8182 -9.64301,-0.86638 -8.139,-0.15357 -7.45038,-6.08761 0.70644,-6.08761 2.37519,0 4.58259,-0.42725 4.90532,-0.94944 0.32274,-0.52219 3.1239,0.82781 6.2248,3 3.10091,2.17219 6.57591,3.98107 7.72223,4.01973 2.04968,0.0691 2.05107,0.0845 0.0842,0.92971 -2.33317,1.0026 -3.29609,0.99817 -10,-0.046 z m 14.02595,-38.54612 c -1.40773,-3.36918 -1.40557,-3.94264 0.023,-6.12298 2.06986,-3.15901 6.05693,-2.72161 8.79736,0.96511 l 2.04415,2.75 -2.04415,2.75 c -1.12428,1.5125 -3.21933,2.89067 -4.65567,3.0626 -2.18919,0.26205 -2.86271,-0.28856 -4.16473,-3.40473 z m 25.20745,-32.12163 c -1.50689,-3.32457 -1.52631,-3.95335 -0.1853,-6 2.05533,-3.13682 7.71718,-3.17328 9.8952,-0.0637 1.85341,2.64612 2.03047,6.90372 0.3567,8.57749 -0.66,0.66 -2.81624,1.2 -4.79165,1.2 -3.17529,0 -3.7868,-0.43052 -5.27495,-3.71376 z"
       style="fill:#b0af94" />
    <path
       id="path7477"
       d="m 414.00401,492.25826 c -1.92279,-0.23192 -4.06029,-0.89 -4.75,-1.46241 -2.12668,-1.76499 -1.42976,-5.50101 1.41238,-7.57136 2.62889,-1.91502 2.64998,-2.024 1.5,-7.75019 C 411.52487,472.27997 411,468.14414 411,466.28356 c 0,-3.98609 -2.25696,-8.78445 -4.5448,-9.66238 C 405.56487,456.27953 401.75115,456 397.98027,456 c -12.75272,0 -30.97106,-5.77593 -32.03075,-10.15501 -0.38658,-1.59748 -0.96251,0.0772 -1.80675,5.25362 -1.37446,8.42738 -4.68216,15.60087 -9.63767,20.90139 -1.7997,1.925 -4.38823,5.3 -5.75231,7.5 -1.86698,3.0111 -4.33333,4.94947 -9.97617,7.84049 -7.02163,3.59744 -8.16979,3.86764 -18.14195,4.26939 -15.64407,0.63027 -27.89338,-2.02327 -35.13691,-7.61161 -2.94518,-2.27219 -6.13856,-5.33883 -7.0964,-6.81476 -0.95784,-1.47593 -2.61314,-3.30525 -3.67844,-4.06516 -2.01368,-1.4364 -7.00331,-11.17129 -6.15875,-12.01585 0.26501,-0.26501 1.18458,0.52148 2.0435,1.74776 2.5563,3.64963 5.25023,5.79535 11.37348,9.05901 5.05343,2.69345 6.80001,3.09073 13.58783,3.09073 4.28396,0 9.17097,-0.43439 10.86002,-0.96532 1.68905,-0.53092 4.29934,-1.2122 5.80064,-1.51394 1.50131,-0.30174 5.10131,-2.47852 8,-4.83728 4.19441,-3.41312 5.71756,-5.50282 7.46092,-10.23606 3.03284,-8.23422 2.892,-9.37971 -0.72693,-5.91255 -2.4363,2.33412 -3.37504,2.69576 -4.75,1.82991 -0.9425,-0.59352 -1.8414,-1.72634 -1.99756,-2.51738 -0.32915,-1.66735 3.81405,-7.68733 8.61197,-12.51299 2.7384,-2.75424 3.2166,-3.85464 2.69908,-6.21089 -0.50516,-2.29999 -0.24533,-2.96393 1.32012,-3.3733 4.81862,-1.2601 7.85129,-12.22829 4.70766,-17.02608 C 335.87535,409.16081 329.56072,406 326.11931,406 c -1.01212,0 -3.50545,1.13006 -5.54073,2.51124 l -3.70052,2.51124 -7.44341,-2.64247 c -9.66077,-3.42964 -19.19814,-3.08558 -27.18465,0.98069 -2.8875,1.47014 -5.25,2.22199 -5.25,1.67077 0,-1.57835 10.98214,-9.84053 16.5,-12.41343 2.75,-1.28229 7.7,-2.88211 11,-3.55517 6.26619,-1.27802 22.5482,-1.07969 26,0.31671 1.59308,0.64447 1.69481,0.58638 0.5,-0.28551 -0.825,-0.60203 -3.1875,-1.56182 -5.25,-2.13288 -2.6211,-0.72571 -3.75,-1.59952 -3.75,-2.90262 0,-1.02539 -1.32692,-5.84554 -2.9487,-10.71146 C 317.42951,374.4812 315.60299,367.575 314.99235,364 c -0.61063,-3.575 -1.63601,-7.9954 -2.27862,-9.82312 -1.30092,-3.70008 -0.62301,-3.68897 -12.21373,-0.20018 -3.85,1.15885 -9.475,2.48137 -12.5,2.93894 -3.025,0.45758 -8.2,1.81512 -11.5,3.01677 -3.3,1.20165 -8.475,3.02717 -11.5,4.05672 -3.025,1.02955 -7.46166,2.5929 -9.85924,3.47411 -5.2338,1.92362 -7.91698,1.27654 -8.76809,-2.11453 -0.85649,-3.41255 0.75973,-4.77729 9.12733,-7.70713 3.85,-1.34805 9.25,-3.3094 12,-4.35856 2.75,-1.04916 9.275,-2.93416 14.5,-4.18889 5.225,-1.25473 11.75,-3.11819 14.5,-4.14103 2.75,-1.02283 6.35,-2.14754 8,-2.49934 6.58908,-1.4049 6.49971,-1.31874 6.50495,-6.27115 0.0119,-11.27529 -3.38009,-45.85757 -4.97122,-50.68261 -0.54411,-1.65 -2.63262,-9.279 -4.64114,-16.95334 -2.00851,-7.67433 -5.10621,-17.34933 -6.88378,-21.5 -12.68706,-29.62462 -16.24527,-39.87587 -17.49774,-50.41132 l -1.17273,-9.86466 3.26099,-6.624 c 5.74475,-11.66926 18.28735,-21.62041 32.40067,-25.70631 7.48815,-2.16787 13.46901,-1.99002 19.26276,0.57284 2.47031,1.09273 5.0921,1.98679 5.8262,1.98679 1.16377,0 14.86937,5.92514 18.07502,7.81411 6.36684,3.75173 18.3605,14.60092 28.64254,25.90936 22.47947,24.72351 39.21676,39.87502 52.21912,47.27164 8.60287,4.89389 27.05773,17.52726 33.47436,22.91504 3.025,2.53997 7.45883,5.94258 9.85296,7.56134 2.39413,1.61877 5.98626,4.98741 7.98251,7.48586 1.99625,2.49846 5.53042,6.70713 7.85371,9.35261 2.32329,2.64548 4.85064,6.02048 5.61633,7.5 0.7657,1.47952 3.93519,7.49487 7.04333,13.36743 3.10814,5.87256 5.66184,11.72256 5.6749,13 0.0131,1.27744 1.13597,5.02261 2.49536,8.32261 1.3594,3.3 2.47372,7.06004 2.47627,8.35566 0.003,1.29561 0.63426,4.89561 1.4038,8 1.53045,6.1739 1.92913,28.64211 0.58552,32.99739 -0.44912,1.45582 -2.15355,7.01325 -3.7876,12.34984 -5.07856,16.58581 -18.66679,34.47096 -33.82849,44.52586 -2.67773,1.77581 -9.57509,5.50134 -15.32748,8.27895 -5.75238,2.77761 -10.80799,5.59968 -11.23468,6.27125 -1.34842,2.12227 -0.875,9.34957 1.19356,18.22105 1.1,4.7176 2,9.93337 2,11.59061 0,1.65723 1.0125,4.7733 2.25,6.92458 3.08924,5.37038 1.64543,6.58995 -8.8556,7.48022 -7.99016,0.6774 -8.13615,0.64836 -10.25,-2.03897 -1.17942,-1.49939 -2.1444,-3.12209 -2.1444,-3.606 0,-0.74068 4.95785,-4.26229 7.17501,-5.09647 0.64404,-0.24232 -0.17778,-8.2373 -2.3728,-23.08354 l -1.00975,-6.82956 -5.14623,0.6947 c -2.83043,0.38208 -5.90415,1.09289 -6.83049,1.57956 -0.92634,0.48668 -3.2567,0.88487 -5.17857,0.88487 -5.4233,0 -6.50113,1.77619 -5.8919,9.70952 0.39422,5.13344 1.35879,8.37664 3.95275,13.29048 6.77177,12.82799 4.33908,16.07147 -10.69401,14.25826 z M 298.25562,451.86627 c -2.33072,-6.1748 3.77165,-9.80667 7.33634,-4.36627 1.51741,2.31587 1.51741,2.68413 0,5 -2.36225,3.60524 -5.85002,3.30396 -7.33634,-0.63373 z m 27.92873,-28.73117 c -2.02548,-1.2844 -4.16727,-6.01605 -3.50471,-7.74264 0.84889,-2.21218 5.05296,-3.60593 7.28065,-2.41371 1.00614,0.53847 2.30932,2.35589 2.89595,4.03871 0.90239,2.58859 0.76461,3.36169 -0.89481,5.02111 -2.1132,2.1132 -3.6991,2.41421 -5.77708,1.09653 z"
       style="fill:#9dd352" />
    <path
       id="path7475"
       d="m 414.00401,492.25826 c -1.92279,-0.23192 -4.06029,-0.89 -4.75,-1.46241 -2.12668,-1.76499 -1.42976,-5.50101 1.41238,-7.57136 2.62889,-1.91502 2.64998,-2.024 1.5,-7.75019 C 411.52487,472.27997 411,468.14414 411,466.28356 c 0,-4.50081 -2.5075,-9.13863 -5.26819,-9.74393 -1.22749,-0.26913 -5.38181,-0.65034 -9.23181,-0.84712 -10.99406,-0.56192 -30.38215,-7.33383 -30.59608,-10.68666 -0.0529,-0.82822 -0.89725,2.31915 -1.87644,6.99415 -1.91089,9.12319 -4.45503,14.43814 -9.57355,20 -1.77155,1.925 -4.33706,5.3 -5.70114,7.5 -1.86698,3.0111 -4.33333,4.94947 -9.97617,7.84049 -7.02163,3.59744 -8.16979,3.86764 -18.14195,4.26939 -15.64407,0.63027 -27.89338,-2.02327 -35.13691,-7.61161 -2.94518,-2.27219 -6.13856,-5.33883 -7.0964,-6.81476 -0.95784,-1.47593 -2.61314,-3.30525 -3.67844,-4.06516 -2.01368,-1.4364 -7.00331,-11.17129 -6.15875,-12.01585 0.26501,-0.26501 1.18458,0.52148 2.0435,1.74776 2.5563,3.64963 5.25023,5.79535 11.37348,9.05901 5.05343,2.69345 6.80001,3.09073 13.58783,3.09073 4.28396,0 9.17097,-0.43439 10.86002,-0.96532 1.68905,-0.53092 4.29934,-1.2122 5.80064,-1.51394 1.50131,-0.30174 5.10131,-2.47852 8,-4.83728 4.19441,-3.41312 5.71756,-5.50282 7.46092,-10.23606 3.03284,-8.23422 2.892,-9.37971 -0.72693,-5.91255 -2.4363,2.33412 -3.37504,2.69576 -4.75,1.82991 -0.9425,-0.59352 -1.83657,-1.70589 -1.98683,-2.47194 -0.30469,-1.55333 6.78821,-11.51004 9.96143,-13.98346 1.5944,-1.24277 1.89517,-2.25314 1.37531,-4.62005 -0.54452,-2.47921 -0.31138,-3.12199 1.2837,-3.53911 4.81862,-1.2601 7.85129,-12.22829 4.70766,-17.02608 C 335.87535,409.16081 329.56072,406 326.11931,406 c -1.01212,0 -3.50545,1.13006 -5.54073,2.51124 l -3.70052,2.51124 -7.44341,-2.64247 c -9.66077,-3.42964 -19.19814,-3.08558 -27.18465,0.98069 -2.8875,1.47014 -5.25,2.22199 -5.25,1.67077 0,-1.57835 10.98214,-9.84053 16.5,-12.41343 2.75,-1.28229 7.7,-2.88211 11,-3.55517 6.47392,-1.32039 22.76303,-1.06149 25.96724,0.41273 1.75951,0.80953 1.81231,0.73726 0.5,-0.68439 -0.80698,-0.87422 -1.62979,-1.43483 -1.82846,-1.2458 -0.19867,0.18903 -1.39178,-0.88107 -2.65137,-2.378 -3.40301,-4.04425 -7.29607,-14.41671 -9.5361,-25.40747 -1.09182,-5.35703 -2.51704,-10.90747 -3.16715,-12.3343 -1.34232,-2.94609 -1.84632,-2.92567 -13.28416,0.53817 -3.85,1.16594 -9.475,2.49426 -12.5,2.95183 -3.025,0.45758 -8.2,1.81512 -11.5,3.01677 -3.3,1.20165 -8.475,3.02717 -11.5,4.05672 -3.025,1.02955 -7.46166,2.5929 -9.85924,3.47411 -5.2338,1.92362 -7.91698,1.27654 -8.76809,-2.11453 -0.85649,-3.41255 0.75973,-4.77729 9.12733,-7.70713 3.85,-1.34805 9.25,-3.3094 12,-4.35856 2.75,-1.04916 9.275,-2.93416 14.5,-4.18889 5.225,-1.25473 11.75,-3.13353 14.5,-4.17511 2.75,-1.04158 7.55468,-2.40499 10.67707,-3.02981 l 5.67707,-1.13602 -0.49653,-9.1266 c -0.27309,-5.01962 -0.91527,-11.28624 -1.42707,-13.92581 C 310.41874,315.06121 310,309.63135 310,305.63444 310,296.53293 308.85109,289.92686 304.41129,273.5 299.01621,253.53875 297.9799,250.50052 293.94041,242.80188 292.87318,240.76792 292,238.48964 292,237.73904 c 0,-0.75061 -1.18525,-3.81145 -2.6339,-6.80189 -7.07649,-14.60801 -10.4539,-26.19758 -11.09766,-38.08156 -0.5053,-9.32796 1.39885,-13.73776 10.34587,-23.95991 11.67658,-13.34072 29.84501,-19.32487 42.14845,-13.88247 2.47031,1.09273 5.0921,1.98679 5.8262,1.98679 1.16377,0 14.86937,5.92514 18.07502,7.81411 6.36684,3.75173 18.3605,14.60092 28.64254,25.90936 22.47947,24.72351 39.21676,39.87502 52.21912,47.27164 8.60287,4.89389 27.05773,17.52726 33.47436,22.91504 3.025,2.53997 7.45883,5.94258 9.85296,7.56134 2.39413,1.61877 5.98626,4.98741 7.98251,7.48586 1.99625,2.49846 5.53042,6.70713 7.85371,9.35261 2.32329,2.64548 4.85064,6.02048 5.61633,7.5 0.7657,1.47952 3.93519,7.49487 7.04333,13.36743 3.10814,5.87256 5.66184,11.72256 5.6749,13 0.0131,1.27744 1.13597,5.02261 2.49536,8.32261 1.3594,3.3 2.47372,7.06004 2.47627,8.35566 0.003,1.29561 0.63426,4.89561 1.4038,8 1.53045,6.1739 1.92913,28.64211 0.58552,32.99739 -0.44912,1.45582 -2.15355,7.01325 -3.7876,12.34984 -5.07856,16.58581 -18.66679,34.47096 -33.82849,44.52586 -2.67773,1.77581 -9.57509,5.50134 -15.32748,8.27895 -5.75238,2.77761 -10.80799,5.59968 -11.23468,6.27125 -1.34842,2.12227 -0.875,9.34957 1.19356,18.22105 1.1,4.7176 2,9.93337 2,11.59061 0,1.65723 1.0125,4.7733 2.25,6.92458 3.08924,5.37038 1.64543,6.58995 -8.8556,7.48022 -7.99016,0.6774 -8.13615,0.64836 -10.25,-2.03897 -1.17942,-1.49939 -2.1444,-3.12209 -2.1444,-3.606 0,-0.74068 4.95785,-4.26229 7.17501,-5.09647 0.64404,-0.24232 -0.17778,-8.2373 -2.3728,-23.08354 l -1.00975,-6.82956 -5.14623,0.6947 c -2.83043,0.38208 -5.90415,1.09289 -6.83049,1.57956 -0.92634,0.48668 -3.2567,0.88487 -5.17857,0.88487 -5.4233,0 -6.50113,1.77619 -5.8919,9.70952 0.39422,5.13344 1.35879,8.37664 3.95275,13.29048 6.77177,12.82799 4.33908,16.07147 -10.69401,14.25826 z m -52.97519,-72.44604 c -1.1749,-1.09458 -1.9702,-2.48808 -1.76734,-3.09666 0.60939,-1.82816 6.00194,-2.84948 8.41147,-1.5931 2.207,1.15078 7.32705,0.48928 7.32705,-0.94664 0,-0.43235 -2.27466,-2.96603 -5.05479,-5.63041 -6.69849,-6.41959 -9.80173,-11.08836 -16.04713,-24.14259 -5.52001,-11.53803 -6.26123,-15.23483 -5.96422,-29.74641 0.12141,-5.93188 0.71975,-7.99679 4.49138,-15.5 5.02474,-9.99611 5.92058,-10.94314 14.26867,-15.08405 6.59844,-3.27302 9.38216,-3.62286 17.00687,-2.13732 2.63957,0.51428 6.47347,1.20718 8.51978,1.53979 2.04631,0.33261 5.06098,1.73264 6.69927,3.11117 l 2.97871,2.50641 4.30073,-2.17177 C 415.89325,322.02539 428,311.92418 428,308.73131 c 0,-4.23332 -1.20207,-5.64976 -25.1159,-29.59494 -8.58875,-8.6 -16.36281,-17.09887 -17.27568,-18.88637 -0.91288,-1.7875 -2.44243,-3.25 -3.39901,-3.25 -0.95657,0 -2.97298,-1.2375 -4.4809,-2.75 -1.50792,-1.5125 -4.57255,-4.55 -6.81029,-6.75 -3.94472,-3.87818 -9.471,-9.59964 -15.20684,-15.7439 -1.53375,-1.64296 -3.73205,-4.83645 -4.88512,-7.09665 -1.15306,-2.2602 -3.38568,-5.31375 -4.96137,-6.78566 C 344.2892,216.40187 343,214.39212 343,213.40766 c 0,-1.65243 -0.11478,-1.64082 -1.49428,0.15121 -1.45081,1.88468 -1.58169,1.84615 -4.5,-1.32465 C 335.35258,210.43805 334,208.30055 334,207.48422 334,206.57715 333.05049,206 331.55819,206 c -1.47854,0 -4.59995,-1.87382 -7.91255,-4.75 -6.8623,-5.95823 -13.94843,-9.74975 -16.36067,-8.75398 -1.53358,0.63306 -1.39767,0.87301 0.96503,1.70374 2.262,0.79533 2.75,1.56273 2.75,4.32456 0,1.8467 0.45,3.63576 1,3.97568 0.55,0.33992 1,1.43079 1,2.42416 0,0.99337 0.93227,2.99131 2.07171,4.43988 1.13944,1.44856 1.93601,3.66928 1.77016,4.93493 -0.16586,1.26564 0.70417,3.57975 1.9334,5.14246 1.22923,1.56271 2.15922,4.01518 2.06666,5.44993 -0.0926,1.43475 0.83647,4.36563 2.06453,6.51306 1.43812,2.51475 2.01973,4.75352 1.6341,6.29002 -0.35624,1.41935 0.22309,4.2435 1.43035,6.97269 1.116,2.52291 2.02909,5.62835 2.02909,6.90097 0,1.27263 0.39691,2.55917 0.88201,2.85898 0.48511,0.29981 1.20644,3.58887 1.60296,7.30902 0.39651,3.72014 1.16047,7.58883 1.69769,8.59709 0.71372,1.33952 0.53972,2.3161 -0.64613,3.62644 -1.372,1.51604 -1.4014,1.87824 -0.19023,2.34302 1.06186,0.40747 1.45864,2.57462 1.5331,8.37355 0.0553,4.30309 0.62173,9.88976 1.25884,12.41483 0.69025,2.73571 0.83055,5.7666 0.34717,7.5 -0.44616,1.59993 -0.70334,3.53605 -0.57151,4.30249 0.13183,0.76644 -0.28634,1.71863 -0.92928,2.11598 -0.80803,0.4994 -0.86777,1.30417 -0.19346,2.60648 2.16581,4.18292 3.13858,7.03164 3.38291,9.90672 0.27882,3.2809 -1.87576,9.4773 -3.29539,9.4773 -0.48327,0 -0.87868,0.675 -0.87868,1.5 0,0.825 0.6521,1.5 1.44911,1.5 3.04227,0 9.7503,11.52145 8.80737,15.12721 -0.35908,1.37313 0.0281,2.60773 1.05285,3.35703 1.36588,0.99876 1.56995,2.98056 1.29749,12.60046 C 344.26281,379.23094 343.6552,382 341.33399,382 c -0.79861,0 -1.15495,0.48068 -0.79186,1.06817 0.3631,0.5875 1.2679,0.83497 2.01069,0.54994 2.34235,-0.89885 4.1849,4.49946 3.66707,10.7438 -0.52565,6.33865 -1.50922,7.59121 -4.11164,5.23605 C 341.1371,398.71908 339.81545,398 339.17126,398 338.52707,398 338,397.55 338,397 c 0,-0.55 -1.19688,-1 -2.65972,-1 -2.12189,0 -1.4148,0.6221 3.49668,3.07639 3.78119,1.88948 7.60449,4.81646 9.90972,7.58651 2.06433,2.48057 5.15148,6.15869 6.86035,8.17361 1.70887,2.01492 3.95887,5.46349 5,7.66349 1.67699,3.54363 1.93091,3.73202 2.22547,1.65119 0.20358,-1.4381 -0.49577,-3.12047 -1.80368,-4.33897 z m 46.98475,-2.05277 c 1.59871,-0.99841 2.41156,-0.97504 4.16451,0.11969 1.98631,1.24047 2.40452,1.08477 4.75,-1.76847 1.41456,-1.72078 2.99292,-3.12464 3.50747,-3.11968 0.51455,0.005 1.94903,-0.94311 3.18773,-2.10681 C 426.6463,408.0442 435,406.97566 435,409.42896 c 0,0.92899 0.45165,1.40994 1.00367,1.06877 0.55202,-0.34116 0.73613,-1.68627 0.40914,-2.98911 -0.49909,-1.98853 0.10234,-2.79984 3.74633,-5.05367 2.38747,-1.47667 5.05002,-3.57586 5.91678,-4.66485 0.86676,-1.089 2.77894,-2.04977 4.2493,-2.13505 1.96766,-0.11412 2.67355,-0.69033 2.67407,-2.18281 8.8e-4,-2.51784 3.3164,-5.47224 6.14113,-5.47224 2.05593,0 2.09654,-0.26857 1.39553,-9.22956 -0.39711,-5.07626 -1.38427,-10.51023 -2.19369,-12.07548 -0.80942,-1.56525 -1.87901,-5.34862 -2.37685,-8.40749 -0.49784,-3.05887 -2.28396,-8.31241 -3.96914,-11.67453 -5.27322,-10.5206 -9.42035,-18.06032 -11.50676,-20.91992 l -2.01049,-2.75554 -4.48951,3.20235 c -2.46923,1.7613 -5.83951,4.45199 -7.48951,5.97931 -1.65,1.52733 -5.5875,3.91966 -8.75,5.3163 -3.1625,1.39664 -5.75,3.03805 -5.75,3.64758 0,0.60953 0.7875,2.30464 1.75,3.7669 8.97455,13.63445 10.929,20.27193 10.49741,35.65008 -0.52085,18.55894 -4.59905,28.58414 -13.46417,33.09824 -2.59421,1.32097 -5.46181,2.40176 -6.37244,2.40176 -1.35834,0 -1.43212,0.26939 -0.4108,1.5 1.50413,1.81236 1.52482,1.8137 4.01357,0.25945 z m -109.75795,34.10682 c -2.33072,-6.1748 3.77165,-9.80667 7.33634,-4.36627 1.51741,2.31587 1.51741,2.68413 0,5 -2.36225,3.60524 -5.85002,3.30396 -7.33634,-0.63373 z m 27.92873,-28.73117 c -2.02548,-1.2844 -4.16727,-6.01605 -3.50471,-7.74264 0.84889,-2.21218 5.05296,-3.60593 7.28065,-2.41371 1.00614,0.53847 2.30932,2.35589 2.89595,4.03871 0.90239,2.58859 0.76461,3.36169 -0.89481,5.02111 -2.1132,2.1132 -3.6991,2.41421 -5.77708,1.09653 z"
       style="fill:#fcb402" />
    <path
       id="path7473"
       d="m 414.00401,492.25826 c -1.92279,-0.23192 -4.06029,-0.89 -4.75,-1.46241 -2.12668,-1.76499 -1.42976,-5.50101 1.41238,-7.57136 2.62889,-1.91502 2.64998,-2.024 1.5,-7.75019 C 411.52487,472.27997 411,468.14414 411,466.28356 c 0,-4.50081 -2.5075,-9.13863 -5.26819,-9.74393 -1.22749,-0.26913 -5.38181,-0.65034 -9.23181,-0.84712 -7.54686,-0.38573 -16.85176,-2.87225 -25.28704,-6.75739 l -5.28705,-2.43512 0.12516,-5 c 0.0688,-2.75 -0.5895,-7.60946 -1.46296,-10.79879 C 363.71465,427.51188 363,424.12438 363,423.17345 c 0,-0.95093 -0.93032,-2.52553 -2.06737,-3.4991 -1.13705,-0.97358 -1.89523,-2.28655 -1.68484,-2.91772 0.62073,-1.8622 5.99039,-2.90371 8.42516,-1.63417 2.207,1.15078 7.32705,0.48928 7.32705,-0.94664 0,-0.43235 -2.27466,-2.96603 -5.05479,-5.63041 -6.69849,-6.41959 -9.80173,-11.08836 -16.04713,-24.14259 -5.52001,-11.53803 -6.26123,-15.23483 -5.96422,-29.74641 0.12141,-5.93188 0.71975,-7.99679 4.49138,-15.5 5.02474,-9.99611 5.92058,-10.94314 14.26867,-15.08405 6.59844,-3.27302 9.38216,-3.62286 17.00687,-2.13732 2.63957,0.51428 6.47347,1.20718 8.51978,1.53979 2.04631,0.33261 5.06098,1.73264 6.69927,3.11117 l 2.97871,2.50641 4.30073,-2.17177 C 415.89325,322.02539 428,311.92418 428,308.73131 c 0,-4.23332 -1.20207,-5.64976 -25.1159,-29.59494 -8.58875,-8.6 -16.36281,-17.09887 -17.27568,-18.88637 -0.91288,-1.7875 -2.44243,-3.25 -3.39901,-3.25 -0.95657,0 -2.97298,-1.2375 -4.4809,-2.75 -1.50792,-1.5125 -4.57255,-4.55 -6.81029,-6.75 -3.94472,-3.87818 -9.471,-9.59964 -15.20684,-15.7439 -1.53375,-1.64296 -3.73205,-4.83645 -4.88512,-7.09665 -1.15306,-2.2602 -3.38568,-5.31375 -4.96137,-6.78566 C 344.2892,216.40187 343,214.39212 343,213.40766 c 0,-1.65243 -0.11478,-1.64082 -1.49428,0.15121 -1.45081,1.88468 -1.58169,1.84615 -4.5,-1.32465 C 335.35258,210.43805 334,208.30055 334,207.48422 334,206.57715 333.05049,206 331.55819,206 c -1.47854,0 -4.59995,-1.87382 -7.91255,-4.75 -6.8623,-5.95823 -13.94843,-9.74975 -16.36067,-8.75398 -1.53358,0.63306 -1.39767,0.87301 0.96503,1.70374 2.262,0.79533 2.75,1.56273 2.75,4.32456 0,1.8467 0.45,3.63576 1,3.97568 0.55,0.33992 1,1.43079 1,2.42416 0,0.99337 0.93227,2.99131 2.07171,4.43988 1.13944,1.44856 1.93601,3.66928 1.77016,4.93493 -0.16586,1.26564 0.70417,3.57975 1.9334,5.14246 1.22923,1.56271 2.15922,4.01518 2.06666,5.44993 -0.0926,1.43475 0.83647,4.36563 2.06453,6.51306 1.43812,2.51475 2.01973,4.75352 1.6341,6.29002 -0.35624,1.41935 0.22309,4.2435 1.43035,6.97269 1.116,2.52291 2.02909,5.62835 2.02909,6.90097 0,1.27263 0.39691,2.55917 0.88201,2.85898 0.48511,0.29981 1.20644,3.58887 1.60296,7.30902 0.39651,3.72014 1.16047,7.58883 1.69769,8.59709 0.71372,1.33952 0.53972,2.3161 -0.64613,3.62644 -1.372,1.51604 -1.4014,1.87824 -0.19023,2.34302 1.06186,0.40747 1.45864,2.57462 1.5331,8.37355 0.0553,4.30309 0.62173,9.88976 1.25884,12.41483 0.69025,2.73571 0.83055,5.7666 0.34717,7.5 -0.44616,1.59993 -0.70334,3.53605 -0.57151,4.30249 0.13183,0.76644 -0.28634,1.71863 -0.92928,2.11598 -0.80803,0.4994 -0.86777,1.30417 -0.19346,2.60648 2.16581,4.18292 3.13858,7.03164 3.38291,9.90672 0.27882,3.2809 -1.87576,9.4773 -3.29539,9.4773 -0.48327,0 -0.87868,0.675 -0.87868,1.5 0,0.825 0.6521,1.5 1.44911,1.5 3.04227,0 9.7503,11.52145 8.80737,15.12721 -0.35908,1.37313 0.0281,2.60773 1.05285,3.35703 1.36588,0.99876 1.56995,2.98056 1.29749,12.60046 C 344.26281,379.23094 343.6552,382 341.33399,382 c -0.79861,0 -1.15495,0.48068 -0.79186,1.06817 0.3631,0.5875 1.2679,0.83497 2.01069,0.54994 2.34235,-0.89885 4.1849,4.49946 3.66707,10.7438 -0.52565,6.33865 -1.50922,7.59121 -4.11164,5.23605 C 341.1371,398.71908 339.81545,398 339.17126,398 338.52707,398 338,397.55 338,397 c 0,-0.55 -1.31786,-1 -2.92857,-1 -1.61072,0 -3.63572,-0.70714 -4.5,-1.57143 C 329.70714,393.56429 329,393.14881 329,393.5053 c 0,0.35648 -1.08062,-0.63609 -2.40137,-2.20572 -3.50742,-4.16833 -7.38237,-14.4266 -9.64732,-25.53964 -1.09182,-5.35703 -2.51704,-10.90747 -3.16715,-12.3343 -1.34232,-2.94609 -1.84632,-2.92567 -13.28416,0.53817 -3.85,1.16594 -9.475,2.49426 -12.5,2.95183 -3.025,0.45758 -8.2,1.81512 -11.5,3.01677 -3.3,1.20165 -8.475,3.02717 -11.5,4.05672 -3.025,1.02955 -7.46166,2.5929 -9.85924,3.47411 -5.2338,1.92362 -7.91698,1.27654 -8.76809,-2.11453 -0.85649,-3.41255 0.75973,-4.77729 9.12733,-7.70713 3.85,-1.34805 9.25,-3.3094 12,-4.35856 2.75,-1.04916 9.275,-2.93416 14.5,-4.18889 5.225,-1.25473 11.75,-3.13353 14.5,-4.17511 2.75,-1.04158 7.55468,-2.40499 10.67707,-3.02981 l 5.67707,-1.13602 -0.49653,-9.1266 c -0.27309,-5.01962 -0.91527,-11.28624 -1.42707,-13.92581 C 310.41874,315.06121 310,309.63135 310,305.63444 310,296.53293 308.85109,289.92686 304.41129,273.5 299.01621,253.53875 297.9799,250.50052 293.94041,242.80188 292.87318,240.76792 292,238.48964 292,237.73904 c 0,-0.75061 -1.18525,-3.81145 -2.6339,-6.80189 -7.07649,-14.60801 -10.4539,-26.19758 -11.09766,-38.08156 -0.5053,-9.32796 1.39885,-13.73776 10.34587,-23.95991 11.67658,-13.34072 29.84501,-19.32487 42.14845,-13.88247 2.47031,1.09273 5.0921,1.98679 5.8262,1.98679 1.16377,0 14.86937,5.92514 18.07502,7.81411 6.36684,3.75173 18.3605,14.60092 28.64254,25.90936 22.47947,24.72351 39.21676,39.87502 52.21912,47.27164 8.60287,4.89389 27.05773,17.52726 33.47436,22.91504 3.025,2.53997 7.45883,5.94258 9.85296,7.56134 2.39413,1.61877 5.98626,4.98741 7.98251,7.48586 1.99625,2.49846 5.53042,6.70713 7.85371,9.35261 2.32329,2.64548 4.85064,6.02048 5.61633,7.5 0.7657,1.47952 3.93519,7.49487 7.04333,13.36743 3.10814,5.87256 5.66184,11.72256 5.6749,13 0.0131,1.27744 1.13597,5.02261 2.49536,8.32261 1.3594,3.3 2.47372,7.06004 2.47627,8.35566 0.003,1.29561 0.63426,4.89561 1.4038,8 1.53045,6.1739 1.92913,28.64211 0.58552,32.99739 -0.44912,1.45582 -2.15355,7.01325 -3.7876,12.34984 -5.07856,16.58581 -18.66679,34.47096 -33.82849,44.52586 -2.67773,1.77581 -9.57509,5.50134 -15.32748,8.27895 -5.75238,2.77761 -10.80799,5.59968 -11.23468,6.27125 -1.34842,2.12227 -0.875,9.34957 1.19356,18.22105 1.1,4.7176 2,9.93337 2,11.59061 0,1.65723 1.0125,4.7733 2.25,6.92458 3.08924,5.37038 1.64543,6.58995 -8.8556,7.48022 -7.99016,0.6774 -8.13615,0.64836 -10.25,-2.03897 -1.17942,-1.49939 -2.1444,-3.12209 -2.1444,-3.606 0,-0.74068 4.95785,-4.26229 7.17501,-5.09647 0.64404,-0.24232 -0.17778,-8.2373 -2.3728,-23.08354 l -1.00975,-6.82956 -5.14623,0.6947 c -2.83043,0.38208 -5.90415,1.09289 -6.83049,1.57956 -0.92634,0.48668 -3.2567,0.88487 -5.17857,0.88487 -5.4233,0 -6.50113,1.77619 -5.8919,9.70952 0.39422,5.13344 1.35879,8.37664 3.95275,13.29048 6.77177,12.82799 4.33908,16.07147 -10.69401,14.25826 z m -5.99044,-74.49881 c 1.59871,-0.99841 2.41156,-0.97504 4.16451,0.11969 1.98631,1.24047 2.40452,1.08477 4.75,-1.76847 1.41456,-1.72078 2.99292,-3.12464 3.50747,-3.11968 0.51455,0.005 1.94903,-0.94311 3.18773,-2.10681 C 426.6463,408.0442 435,406.97566 435,409.42896 c 0,0.92899 0.45165,1.40994 1.00367,1.06877 0.55202,-0.34116 0.73613,-1.68627 0.40914,-2.98911 -0.49909,-1.98853 0.10234,-2.79984 3.74633,-5.05367 2.38747,-1.47667 5.05002,-3.57586 5.91678,-4.66485 0.86676,-1.089 2.77894,-2.04977 4.2493,-2.13505 1.96766,-0.11412 2.67355,-0.69033 2.67407,-2.18281 8.8e-4,-2.51784 3.3164,-5.47224 6.14113,-5.47224 2.05593,0 2.09654,-0.26857 1.39553,-9.22956 -0.39711,-5.07626 -1.38427,-10.51023 -2.19369,-12.07548 -0.80942,-1.56525 -1.87901,-5.34862 -2.37685,-8.40749 -0.49784,-3.05887 -2.28396,-8.31241 -3.96914,-11.67453 -5.27322,-10.5206 -9.42035,-18.06032 -11.50676,-20.91992 l -2.01049,-2.75554 -4.48951,3.20235 c -2.46923,1.7613 -5.83951,4.45199 -7.48951,5.97931 -1.65,1.52733 -5.5875,3.91966 -8.75,5.3163 -3.1625,1.39664 -5.75,3.03805 -5.75,3.64758 0,0.60953 0.7875,2.30464 1.75,3.7669 8.97455,13.63445 10.929,20.27193 10.49741,35.65008 -0.52085,18.55894 -4.59905,28.58414 -13.46417,33.09824 -2.59421,1.32097 -5.46181,2.40176 -6.37244,2.40176 -1.35834,0 -1.43212,0.26939 -0.4108,1.5 1.50413,1.81236 1.52482,1.8137 4.01357,0.25945 z m -109.75795,34.10682 c -2.33072,-6.1748 3.77165,-9.80667 7.33634,-4.36627 1.51741,2.31587 1.51741,2.68413 0,5 -2.36225,3.60524 -5.85002,3.30396 -7.33634,-0.63373 z m 22.75495,0.64646 c -1.56867,-1.89013 -1.15011,-2.90654 4.0731,-9.89089 3.50834,-4.69127 4.73804,-5.66606 6.83839,-5.42083 4.00909,0.46808 3.55167,2.87494 -1.92002,10.10289 -5.19344,6.86037 -6.83269,7.81 -8.99147,5.20883 z m 5.17378,-29.37763 c -2.02548,-1.2844 -4.16727,-6.01605 -3.50471,-7.74264 0.84889,-2.21218 5.05296,-3.60593 7.28065,-2.41371 1.00614,0.53847 2.30932,2.35589 2.89595,4.03871 0.90239,2.58859 0.76461,3.36169 -0.89481,5.02111 -2.1132,2.1132 -3.6991,2.41421 -5.77708,1.09653 z"
       style="fill:#95d049" />
    <path
       id="path7471"
       d="m 414.00401,492.25826 c -1.92279,-0.23192 -4.06029,-0.89 -4.75,-1.46241 -2.12668,-1.76499 -1.42976,-5.50101 1.41238,-7.57136 2.62889,-1.91502 2.64998,-2.024 1.5,-7.75019 C 411.52487,472.27997 411,468.14414 411,466.28356 c 0,-3.98609 -2.25696,-8.78445 -4.5448,-9.66238 C 405.56487,456.27953 401.47167,456 397.3592,456 c -4.2455,0 -7.23378,-0.39391 -6.91397,-0.91138 0.3098,-0.50127 -1.35114,-1.22629 -3.69098,-1.61117 -2.33984,-0.38488 -6.14206,-1.54976 -8.44939,-2.58862 C 375.99754,449.84998 373.70478,449 373.20985,449 c -2.11799,0 -4.29602,-3.8085 -3.65001,-6.38241 0.5471,-2.17979 1.22423,-2.61759 4.04857,-2.61759 3.58033,0 7.39159,2.83592 7.39159,5.5 0,0.825 0.6382,1.5 1.41821,1.5 0.78002,0 2.13002,0.27314 3,0.60699 1.23322,0.47323 1.58179,-0.0777 1.58179,-2.5 0,-5.18617 3.99321,-3.81819 7.00292,2.39903 2.00393,4.13959 2.28758,4.32731 6.53843,4.32731 4.37133,0 6.47061,-1.08987 4.47496,-2.32325 -1.81531,-1.12192 -1.07436,-3.26583 1.28456,-3.71676 2.022,-0.38653 2.25156,-0.10394 1.8941,2.33165 -0.35453,2.41553 -0.10419,2.73607 1.94913,2.49575 1.29574,-0.15165 3.16281,-0.63394 4.14903,-1.07176 0.98622,-0.43782 2.04812,-0.54105 2.35977,-0.22939 0.31166,0.31165 2.19809,-0.30775 4.19206,-1.37646 1.99398,-1.06871 4.19459,-1.94311 4.89023,-1.94311 2.135,0 1.40128,-3.00554 -0.98519,-4.03564 -1.6131,-0.69628 -0.49189,-0.80218 3.96095,-0.37412 5.63145,0.54136 6.42453,0.37663 8.5,-1.7656 1.25898,-1.29947 3.97655,-3.61451 6.03905,-5.14455 2.0625,-1.53003 3.75,-3.55073 3.75,-4.49043 0,-0.93971 0.85953,-2.24535 1.91007,-2.90143 1.05054,-0.65607 2.20105,-2.51765 2.55668,-4.13685 0.35564,-1.6192 1.48579,-3.70344 2.51146,-4.63166 1.93252,-1.74891 8.68888,-21.18596 7.70595,-22.16889 -0.30606,-0.30606 -0.13918,-1.65404 0.37085,-2.99551 1.31003,-3.44565 -0.77828,-21.76635 -3.13927,-27.5407 C 457.86208,363.23766 457,359.99204 457,358.60213 457,354.73101 453.14931,345.2985 448.85936,338.66111 446.73671,335.37696 445,332.0907 445,331.35831 c 0,-1.61862 -5.1771,-9.26725 -6.30864,-9.32036 -0.81363,-0.0382 -6.24617,3.98134 -12.63775,9.35064 -1.89552,1.59235 -5.73853,3.90887 -8.54002,5.14782 -7.14837,3.16135 -8.2067,4.66055 -5.77333,8.17834 10.31389,14.91025 13.14421,29.76915 9.6294,50.55337 C 420.27238,401.75671 415.09292,409.21734 410,411.64527 398.21189,417.26497 393.72086,419 390.9627,419 c -4.44358,0 -13.17659,-5.38574 -20.87437,-12.87346 -5.86152,-5.70155 -7.67745,-8.40261 -13.00919,-19.35016 -5.42911,-11.1475 -6.30437,-13.76699 -7.06573,-21.14643 -1.15395,-11.18459 -0.10172,-17.67058 4.25758,-26.24405 3.61333,-7.10633 7.93397,-11.74383 12.70191,-13.63341 1.38991,-0.55083 3.50673,-1.45393 4.70406,-2.00689 4.0573,-1.87377 22.51315,1.14492 25.78346,4.21721 1.19266,1.12046 2.92106,2.03719 3.84087,2.03719 2.79978,0 15.5634,-8.16338 22.02233,-14.08508 l 6.09178,-5.58508 -1.23028,-4.10631 c -0.9845,-3.28595 -5.03585,-7.94972 -20.27893,-23.34437 -10.47675,-10.58093 -19.87376,-20.84481 -20.88224,-22.80861 -1.00849,-1.9638 -3.27183,-4.41031 -5.02966,-5.43668 -1.75783,-1.02637 -3.94934,-3.50137 -4.87002,-5.5 -2.02284,-4.39121 -6.69487,-11.75045 -7.95372,-12.52847 -0.50078,-0.30949 -2.20651,-3.14709 -3.79052,-6.30578 -1.58402,-3.15869 -4.68003,-7.64379 -6.88003,-9.96689 -4.49749,-4.74915 -5.1233,-5.61758 -9.59335,-13.31265 -4.55323,-7.83827 -10.59889,-15.81875 -15.93032,-21.02856 -2.53755,-2.47967 -5.42207,-5.74217 -6.41004,-7.25 C 325.57832,177.23368 323.99397,176 323.04551,176 c -0.94847,0 -2.21771,-1.08253 -2.82055,-2.40561 -1.79217,-3.93339 -12.45589,-8.40383 -19.64154,-8.23412 -6.23462,0.14724 -7.75627,1.32402 -5.12039,3.9599 2.02415,2.02415 0.806,2.68678 -3.36941,1.83281 l -3.35696,-0.68657 2.63167,-3.12756 C 292.81575,165.61869 294,163.77644 294,163.24497 c 0,-1.4541 10.69282,-6.83388 17.5,-8.8046 7.48815,-2.16787 13.46901,-1.99002 19.26276,0.57284 2.47031,1.09273 5.0921,1.98679 5.8262,1.98679 1.16377,0 14.86937,5.92514 18.07502,7.81411 6.36684,3.75173 18.3605,14.60092 28.64254,25.90936 22.47947,24.72351 39.21676,39.87502 52.21912,47.27164 8.60287,4.89389 27.05773,17.52726 33.47436,22.91504 3.025,2.53997 7.45883,5.94258 9.85296,7.56134 2.39413,1.61877 5.98626,4.98741 7.98251,7.48586 1.99625,2.49846 5.53042,6.70713 7.85371,9.35261 2.32329,2.64548 4.85064,6.02048 5.61633,7.5 0.7657,1.47952 3.93519,7.49487 7.04333,13.36743 3.10814,5.87256 5.66184,11.72256 5.6749,13 0.0131,1.27744 1.13597,5.02261 2.49536,8.32261 1.3594,3.3 2.47372,7.06004 2.47627,8.35566 0.003,1.29561 0.63426,4.89561 1.4038,8 1.53045,6.1739 1.92913,28.64211 0.58552,32.99739 -0.44912,1.45582 -2.15355,7.01325 -3.7876,12.34984 -5.07856,16.58581 -18.66679,34.47096 -33.82849,44.52586 -2.67773,1.77581 -9.57509,5.50134 -15.32748,8.27895 -5.75238,2.77761 -10.80799,5.59968 -11.23468,6.27125 -1.34842,2.12227 -0.875,9.34957 1.19356,18.22105 1.1,4.7176 2,9.93337 2,11.59061 0,1.65723 1.0125,4.7733 2.25,6.92458 3.08924,5.37038 1.64543,6.58995 -8.8556,7.48022 -7.99016,0.6774 -8.13615,0.64836 -10.25,-2.03897 -1.17942,-1.49939 -2.1444,-3.12209 -2.1444,-3.606 0,-0.74068 4.95785,-4.26229 7.17501,-5.09647 0.64404,-0.24232 -0.17778,-8.2373 -2.3728,-23.08354 l -1.00975,-6.82956 -5.14623,0.6947 c -2.83043,0.38208 -5.90415,1.09289 -6.83049,1.57956 -0.92634,0.48668 -3.2567,0.88487 -5.17857,0.88487 -5.4233,0 -6.50113,1.77619 -5.8919,9.70952 0.39422,5.13344 1.35879,8.37664 3.95275,13.29048 6.77177,12.82799 4.33908,16.07147 -10.69401,14.25826 z M 298.25562,451.86627 c -2.33072,-6.1748 3.77165,-9.80667 7.33634,-4.36627 1.51741,2.31587 1.51741,2.68413 0,5 -2.36225,3.60524 -5.85002,3.30396 -7.33634,-0.63373 z m 22.67755,0.009 c -0.93684,-1.75049 -0.76134,-2.5874 0.99603,-4.75 1.17328,-1.44381 3.06543,-4.09065 4.20477,-5.88186 2.84507,-4.47284 8.86603,-5.73927 8.86603,-1.86485 0,1.49327 -7.32799,11.57603 -9.71825,13.37159 -2.29964,1.72748 -3.03502,1.57953 -4.34858,-0.87488 z m 5.25118,-28.74002 c -2.02548,-1.2844 -4.16727,-6.01605 -3.50471,-7.74264 0.84889,-2.21218 5.05296,-3.60593 7.28065,-2.41371 1.00614,0.53847 2.30932,2.35589 2.89595,4.03871 0.90239,2.58859 0.76461,3.36169 -0.89481,5.02111 -2.1132,2.1132 -3.6991,2.41421 -5.77708,1.09653 z m -78.61292,-55.70653 c -1.91557,-1.91557 -2.0326,-4.80094 -0.25458,-6.27657 0.72427,-0.60109 4.43677,-2.18831 8.25,-3.52715 3.81323,-1.33885 9.18315,-3.29267 11.93315,-4.34183 2.75,-1.04916 9.275,-2.93416 14.5,-4.18889 5.225,-1.25473 11.75,-3.1232 14.5,-4.15216 7.14215,-2.67236 14.66244,-4.17953 15.69623,-3.14574 0.48201,0.48201 1.13315,2.45865 1.44698,4.39254 l 0.57059,3.51616 -7.3569,2.27582 c -4.04629,1.25171 -9.34956,2.8931 -11.78504,3.64754 -2.43548,0.75444 -5.81048,1.3812 -7.5,1.3928 -1.68952,0.0116 -6.22186,1.17273 -10.07186,2.58028 -3.85,1.40754 -9.475,3.39203 -12.5,4.40997 -3.025,1.01794 -7.3,2.53706 -9.5,3.37583 -5.11362,1.94962 -6.01564,1.95433 -7.92857,0.0414 z M 290.29156,230.25 c -0.35512,-0.9625 -0.9035,-1.975 -1.21862,-2.25 -1.16789,-1.01921 -4.14681,-11.07145 -3.56158,-12.01839 0.33367,-0.53988 1.687,-0.98161 3.0074,-0.98161 1.93876,0 2.41148,0.52918 2.45662,2.75 0.12649,6.22295 0.59293,10.15165 1.28777,10.84648 1.09267,1.09267 0.89269,3.40352 -0.29453,3.40352 -0.56727,0 -1.32194,-0.7875 -1.67706,-1.75 z"
       style="fill:#87a15e" />
    <path
       id="path7469"
       d="m 443.48157,490.57248 c -3.10182,-3.10182 -2.86177,-4.53792 1.09861,-6.57248 3.91139,-2.0094 4.34317,-2.78048 3.39949,-6.07089 -0.44215,-1.54167 -1.33958,-7.89391 -1.99429,-14.11608 -0.65472,-6.22217 -1.41545,-11.68228 -1.69051,-12.13359 -0.57612,-0.94525 -6.56255,-0.13583 -13.79487,1.8652 -2.75,0.76087 -6.30198,1.64935 -7.8933,1.9744 l -2.8933,0.591 0.63008,8.19707 c 0.4907,6.38388 1.30787,9.50345 3.69425,14.10297 2.12631,4.09827 2.97205,7.00531 2.76322,9.49791 -0.28666,3.42146 -0.49087,3.60475 -4.30095,3.86028 -2.2,0.14755 -6.025,-0.0882 -8.5,-0.52399 -3.73689,-0.6579 -4.55899,-1.20638 -4.84787,-3.23436 -0.2454,-1.72276 0.45961,-3.08597 2.39341,-4.62793 2.63724,-2.10286 2.69789,-2.35818 1.59787,-6.72673 C 412.51454,474.15777 412,470.2707 412,468.01734 c 0,-2.25336 -0.90915,-5.87909 -2.02032,-8.05718 -1.94188,-3.80639 -3.32464,-4.52652 -7.97968,-4.15576 -3.09323,0.24637 -21.61674,-3.69474 -24.5,-5.21268 -1.65,-0.86867 -3.49276,-1.58217 -4.09501,-1.58556 -2.29091,-0.0129 -4.51704,-3.71153 -3.84515,-6.38857 0.5471,-2.17979 1.22423,-2.61759 4.04857,-2.61759 3.58033,0 7.39159,2.83592 7.39159,5.5 0,0.825 0.6382,1.5 1.41821,1.5 0.78002,0 2.13002,0.27314 3,0.60699 1.23322,0.47323 1.58179,-0.0777 1.58179,-2.5 0,-5.18617 3.99321,-3.81819 7.00292,2.39903 2.00393,4.13959 2.28758,4.32731 6.53843,4.32731 4.37133,0 6.47061,-1.08987 4.47496,-2.32325 -1.81531,-1.12192 -1.07436,-3.26583 1.28456,-3.71676 2.022,-0.38653 2.25156,-0.10394 1.8941,2.33165 -0.35453,2.41553 -0.10419,2.73607 1.94913,2.49575 1.29574,-0.15165 3.16281,-0.63394 4.14903,-1.07176 0.98622,-0.43782 2.04812,-0.54105 2.35977,-0.22939 0.31166,0.31165 2.19809,-0.30775 4.19206,-1.37646 1.99398,-1.06871 4.19459,-1.94311 4.89023,-1.94311 2.135,0 1.40128,-3.00554 -0.98519,-4.03564 -1.6131,-0.69628 -0.49189,-0.80218 3.96095,-0.37412 5.63145,0.54136 6.42453,0.37663 8.5,-1.7656 1.25898,-1.29947 3.97655,-3.61451 6.03905,-5.14455 2.0625,-1.53003 3.75,-3.55073 3.75,-4.49043 0,-0.93971 0.85953,-2.24535 1.91007,-2.90143 1.05054,-0.65607 2.20105,-2.51765 2.55668,-4.13685 0.35564,-1.6192 1.53329,-3.74643 2.617,-4.72718 1.08372,-0.98074 2.92757,-5.07741 4.09746,-9.10369 1.16988,-4.02628 2.43025,-7.32051 2.80081,-7.32051 0.37056,0 0.80103,-2.1375 0.9566,-4.75 0.8701,-14.6119 0.14147,-23.60192 -2.58691,-31.91797 C 458.05827,361.38964 457,357.4409 457,356.55705 c 0,-2.96847 -3.76457,-12.35369 -6.70864,-16.7249 -1.60476,-2.38268 -4.12497,-6.84824 -5.60047,-9.92346 -1.47549,-3.07522 -3.4969,-6.32815 -4.49203,-7.22872 -1.69457,-1.53357 -2.14824,-1.38275 -7.1534,2.37805 -2.93924,2.2085 -6.71388,5.16808 -8.38808,6.57682 -1.6742,1.40875 -5.36259,3.58675 -8.1964,4.84 -6.05592,2.67821 -7.16984,4.69053 -4.63098,8.36594 10.22236,14.79855 13.0432,29.70973 9.53966,50.42734 C 420.27238,401.75671 415.09292,409.21734 410,411.64527 398.21189,417.26497 393.72086,419 390.9627,419 c -4.44358,0 -13.17659,-5.38574 -20.87437,-12.87346 -5.86152,-5.70155 -7.67745,-8.40261 -13.00919,-19.35016 -5.42911,-11.1475 -6.30437,-13.76699 -7.06573,-21.14643 -1.15395,-11.18459 -0.10172,-17.67058 4.25758,-26.24405 3.61333,-7.10633 7.93397,-11.74383 12.70191,-13.63341 1.38991,-0.55083 3.50673,-1.45393 4.70406,-2.00689 4.0573,-1.87377 22.51315,1.14492 25.78346,4.21721 C 398.65308,329.08327 400.5926,330 401.77044,330 407.10374,330 430,313.1718 430,309.25195 c 0,-3.74326 -5.55361,-10.52474 -23.40036,-28.574 C 395.81984,269.77582 387,260.2197 387,259.44214 c 0,-0.77757 -1.82944,-2.62443 -4.06543,-4.10414 -3.52775,-2.33455 -8.11519,-8.338 -6.37136,-8.338 0.33802,0 -0.55042,-1.38453 -1.97432,-3.07673 C 373.165,242.23108 372,240.38334 372,239.81719 c 0,-0.56614 -1.11637,-1.90749 -2.48083,-2.98077 -1.36446,-1.07329 -2.38215,-2.26305 -2.26153,-2.64392 0.39353,-1.24264 -7.26318,-13.01713 -10.04529,-15.44764 -2.87648,-2.51297 -3.31042,-3.12554 -8.3057,-11.72478 -4.55323,-7.83827 -10.59889,-15.81875 -15.93032,-21.02856 -2.53755,-2.47967 -5.42207,-5.74217 -6.41004,-7.25 C 325.57832,177.23368 323.99397,176 323.04551,176 c -0.94847,0 -2.21771,-1.08253 -2.82055,-2.40561 -1.79217,-3.93339 -12.45589,-8.40383 -19.64154,-8.23412 -6.23462,0.14724 -7.75627,1.32402 -5.12039,3.9599 2.05394,2.05395 0.77982,2.69419 -3.48774,1.75258 l -3.47529,-0.7668 5.59452,-5.52295 c 5.82085,-5.74639 12.14487,-8.85272 22.4924,-11.04816 4.21798,-0.89493 5.92615,-0.78464 10,0.64566 2.70219,0.94872 7.05688,2.33715 9.67707,3.0854 2.6202,0.74825 6.75033,2.52453 9.17807,3.94728 2.42775,1.42275 5.04237,2.58682 5.81029,2.58682 3.28046,0 19.4874,13.92835 31.22252,26.83285 23.213,25.52611 41.47825,41.86612 54.79057,49.01536 3.42901,1.84151 7.13456,4.12046 8.23456,5.06433 1.1,0.94387 5.14949,3.71218 8.99888,6.15179 3.84938,2.43962 9.69938,6.70611 13,9.48109 3.30061,2.77498 8.13437,6.50617 10.74167,8.29154 4.11566,2.81822 7.09638,6.05593 18.41687,20.00473 3.58253,4.4143 15.05655,26.81792 15.81075,30.87132 0.38755,2.08284 1.50749,5.81199 2.48875,8.28699 3.14822,7.9406 5.05385,20.83641 5.02422,34 -0.0262,11.62777 -0.2967,13.37223 -3.8768,25 -3.21352,10.43716 -4.90118,14.06937 -10.2265,22.00979 C 499.98031,417.8034 487.44874,431 484.99581,431 c -0.58006,0 -3.33182,1.8 -6.11503,4 -2.7832,2.2 -5.4601,4 -5.94864,4 -1.61321,0 -15.56864,6.85697 -16.67178,8.19165 -2.11084,2.55387 -2.41324,8.3375 -0.7997,15.29495 0.88178,3.80217 2.02659,9.89802 2.54401,13.54633 0.51742,3.64831 1.59244,7.88938 2.38892,9.4246 1.51907,2.92801 1.18489,5.45307 -0.75058,5.67142 -0.62865,0.0709 -2.26801,0.22814 -3.64301,0.34939 -1.375,0.12124 -4.16255,0.55861 -6.19456,0.97194 -3.19803,0.6505 -4.04793,0.39814 -6.32387,-1.8778 z m -144.53653,-39.239 c -1.06734,-3.2341 -0.9954,-3.82349 0.61004,-4.99742 1.51774,-1.1098 2.16272,-1.10463 3.88251,0.0311 2.94242,1.94318 3.12199,5.12747 0.3968,7.03626 -3.17489,2.22378 -3.52059,2.07743 -4.88935,-2.06996 z m 21.98813,0.54164 c -0.93684,-1.75049 -0.76134,-2.5874 0.99603,-4.75 1.17328,-1.44381 3.06543,-4.09065 4.20477,-5.88186 2.84507,-4.47284 8.86603,-5.73927 8.86603,-1.86485 0,1.49327 -7.32799,11.57603 -9.71825,13.37159 -2.29964,1.72748 -3.03502,1.57953 -4.34858,-0.87488 z m 3.43636,-32.50883 c -1.65248,-3.48234 -1.64648,-3.69061 0.14421,-5 2.6019,-1.90255 4.08496,-1.71341 6.4473,0.82227 3.43898,3.69131 2.06016,7.81144 -2.61412,7.81144 -1.60772,0 -2.74699,-1.04082 -3.97739,-3.63371 z M 247.74721,367.41388 C 247.33625,367.00291 247,365.60939 247,364.31715 c 0,-2.56283 1.27147,-3.30199 13.5,-7.84811 3.85,-1.43129 8.575,-3.19552 10.5,-3.92051 1.925,-0.72499 7.775,-2.31318 13,-3.52931 5.225,-1.21613 11.75,-3.04738 14.5,-4.06945 2.75,-1.02207 7.07414,-2.14548 9.6092,-2.49647 4.24087,-0.58716 4.65931,-0.45097 5.23634,1.70427 1.12465,4.20061 0.75222,5.84243 -1.3253,5.84243 -1.08887,0 -3.67637,0.61292 -5.75,1.36204 -9.31439,3.36492 -18.15824,5.61817 -19.71153,5.02212 -0.9315,-0.35745 -2.67577,-0.13953 -3.87617,0.48427 -1.2004,0.62381 -4.20754,1.77838 -6.68254,2.56571 -2.475,0.78734 -8.325,2.86973 -13,4.62753 -9.19634,3.45782 -14.07497,4.53003 -15.25279,3.35221 z M 290.29156,230.25 c -0.35512,-0.9625 -0.9035,-1.975 -1.21862,-2.25 -1.16789,-1.01921 -4.14681,-11.07145 -3.56158,-12.01839 0.33367,-0.53988 1.687,-0.98161 3.0074,-0.98161 1.93876,0 2.41148,0.52918 2.45662,2.75 0.12649,6.22295 0.59293,10.15165 1.28777,10.84648 1.09267,1.09267 0.89269,3.40352 -0.29453,3.40352 -0.56727,0 -1.32194,-0.7875 -1.67706,-1.75 z"
       style="fill:#86c534" />
    <path
       id="path7467"
       d="m 443.48157,490.57248 c -3.10182,-3.10182 -2.86177,-4.53792 1.09861,-6.57248 3.91139,-2.0094 4.34317,-2.78048 3.39949,-6.07089 -0.44215,-1.54167 -1.33958,-7.89391 -1.99429,-14.11608 -0.65472,-6.22217 -1.41545,-11.68228 -1.69051,-12.13359 -0.57612,-0.94525 -6.56255,-0.13583 -13.79487,1.8652 -2.75,0.76087 -6.30198,1.64935 -7.8933,1.9744 l -2.8933,0.591 0.63008,8.19707 c 0.4907,6.38388 1.30787,9.50345 3.69425,14.10297 2.12631,4.09827 2.97205,7.00531 2.76322,9.49791 -0.28666,3.42146 -0.49087,3.60475 -4.30095,3.86028 -2.2,0.14755 -6.025,-0.0882 -8.5,-0.52399 -3.73689,-0.6579 -4.55899,-1.20638 -4.84787,-3.23436 -0.2454,-1.72276 0.45961,-3.08597 2.39341,-4.62793 2.63724,-2.10286 2.69789,-2.35818 1.59787,-6.72673 C 412.51454,474.15777 412,470.2707 412,468.01734 c 0,-5.49116 -3.34578,-11.97536 -6.27032,-12.15205 -13.27608,-0.80209 -13.73543,-0.95611 -7.22968,-2.42413 3.3,-0.74464 8.38043,-1.37353 11.28984,-1.39753 3.2402,-0.0267 6.80883,-0.81856 9.21016,-2.04363 2.15618,-1.1 4.63118,-2 5.5,-2 5.94043,0 21.2611,-12.85862 27.21454,-22.84114 6.06465,-10.16897 10.37633,-23.60861 10.60287,-33.04949 0.29507,-12.29696 -0.46426,-19.15302 -2.9657,-26.77734 C 458.05827,361.38964 457,357.4409 457,356.55705 c 0,-2.96847 -3.76457,-12.35369 -6.70864,-16.7249 -1.60476,-2.38268 -4.12497,-6.84824 -5.60047,-9.92346 -1.47549,-3.07522 -3.4969,-6.32815 -4.49203,-7.22872 -1.69457,-1.53357 -2.14824,-1.38275 -7.1534,2.37805 -2.93924,2.2085 -6.71388,5.16808 -8.38808,6.57682 -1.6742,1.40875 -5.31952,3.65238 -8.10069,4.98584 -2.78118,1.33346 -7.53169,4.20901 -10.55669,6.39011 -3.025,2.18111 -7.54749,4.59496 -10.04998,5.36413 -2.50249,0.76917 -7.68539,2.97745 -11.51756,4.90729 -4.77592,2.40512 -9.05624,3.73249 -13.60777,4.21992 -6.05383,0.64831 -6.73665,0.53088 -7.73245,-1.32977 -3.30023,-6.16654 -0.44263,-9.39986 11.90776,-13.47339 8.34542,-2.75257 20.08154,-7.52238 22.65058,-9.20568 1.4033,-0.91947 5.09349,-3.04808 8.20043,-4.73024 C 416.85637,322.80455 430,312.18519 430,309.25195 430,305.53788 424.49591,298.78586 407.09377,281.15227 396.5922,270.51102 388,261.36511 388,260.82803 c 0,-0.53708 -2.36313,-3.5306 -5.2514,-6.65227 -2.88826,-3.12167 -6.09557,-7.25076 -7.12733,-9.17576 -1.03177,-1.925 -3.08384,-5.075 -4.56015,-7 -1.47631,-1.925 -4.18768,-6.14979 -6.02525,-9.38843 -1.83758,-3.23864 -5.28832,-8.08095 -7.66831,-10.76069 -2.37999,-2.67974 -4.98325,-6.14082 -5.78503,-7.69129 -2.94346,-5.69201 -12.92366,-19.40672 -17.44133,-23.96773 -2.55601,-2.58052 -5.43549,-5.9167 -6.39886,-7.41373 -2.01889,-3.13725 -10.34035,-9.51208 -16.55602,-12.68308 -2.34713,-1.19741 -6.83674,-2.50911 -9.97691,-2.91489 L 295.5,162.44239 300,159.80204 c 2.475,-1.45219 7.85105,-3.64745 11.94678,-4.87836 6.32539,-1.90101 8.13243,-2.07719 12,-1.17 7.20378,1.68974 14.06862,4.09857 20.55322,7.21198 3.3,1.58441 6.77461,3.12123 7.72136,3.41516 4.4625,1.38546 19.10506,14.19337 30.30014,26.50368 23.16705,25.47488 41.44143,41.81973 54.74394,48.96371 3.42901,1.84151 7.13456,4.12046 8.23456,5.06433 1.1,0.94387 5.14949,3.71218 8.99888,6.15179 3.84938,2.43962 9.69938,6.70611 13,9.48109 3.30061,2.77498 8.13437,6.50617 10.74167,8.29154 4.11566,2.81822 7.09638,6.05593 18.41687,20.00473 3.58253,4.4143 15.05655,26.81792 15.81075,30.87132 0.38755,2.08284 1.50749,5.81199 2.48875,8.28699 3.14822,7.9406 5.05385,20.83641 5.02422,34 -0.0262,11.62777 -0.2967,13.37223 -3.8768,25 -3.21352,10.43716 -4.90118,14.06937 -10.2265,22.00979 C 499.98031,417.8034 487.44874,431 484.99581,431 c -0.58006,0 -3.33182,1.8 -6.11503,4 -2.7832,2.2 -5.4601,4 -5.94864,4 -1.61321,0 -15.56864,6.85697 -16.67178,8.19165 -2.11084,2.55387 -2.41324,8.3375 -0.7997,15.29495 0.88178,3.80217 2.02659,9.89802 2.54401,13.54633 0.51742,3.64831 1.59244,7.88938 2.38892,9.4246 1.51907,2.92801 1.18489,5.45307 -0.75058,5.67142 -0.62865,0.0709 -2.26801,0.22814 -3.64301,0.34939 -1.375,0.12124 -4.16255,0.55861 -6.19456,0.97194 -3.19803,0.6505 -4.04793,0.39814 -6.32387,-1.8778 z m -144.53653,-39.239 c -1.06734,-3.2341 -0.9954,-3.82349 0.61004,-4.99742 1.51774,-1.1098 2.16272,-1.10463 3.88251,0.0311 2.94242,1.94318 3.12199,5.12747 0.3968,7.03626 -3.17489,2.22378 -3.52059,2.07743 -4.88935,-2.06996 z m 22.72163,0.99985 c -1.49579,-1.49578 -0.41986,-4.12494 3.92178,-9.58333 4.56525,-5.73952 7.64368,-7.19341 8.80781,-4.15976 0.74446,1.94004 0.40352,2.54097 -5.19695,9.15976 -4.21911,4.98628 -6.02866,6.08732 -7.53264,4.58333 z m 2.70286,-32.96704 c -1.65248,-3.48234 -1.64648,-3.69061 0.14421,-5 2.6019,-1.90255 4.08496,-1.71341 6.4473,0.82227 3.43898,3.69131 2.06016,7.81144 -2.61412,7.81144 -1.60772,0 -2.74699,-1.04082 -3.97739,-3.63371 z M 247.74721,367.41388 C 247.33625,367.00291 247,365.60939 247,364.31715 c 0,-2.56283 1.27147,-3.30199 13.5,-7.84811 3.85,-1.43129 8.575,-3.19552 10.5,-3.92051 1.925,-0.72499 7.775,-2.31318 13,-3.52931 5.225,-1.21613 11.75,-3.05989 14.5,-4.09726 2.75,-1.03736 7.025,-2.00668 9.5,-2.15404 4.48062,-0.26677 4.50122,-0.25285 4.78307,3.23208 0.2823,3.4904 0.26585,3.50507 -6,5.34979 -3.45569,1.01739 -9.02465,2.71797 -12.37548,3.77909 -3.35083,1.06111 -6.86868,1.63141 -7.81746,1.26733 -0.94878,-0.36408 -2.70719,-0.15158 -3.90759,0.47222 -1.2004,0.62381 -4.20754,1.77838 -6.68254,2.56571 -2.475,0.78734 -8.325,2.86973 -13,4.62753 -9.19634,3.45782 -14.07497,4.53003 -15.25279,3.35221 z"
       style="fill:#749942" />
    <path
       id="path7465"
       d="m 444.25,491.48919 c -3.58711,-2.55497 -2.96939,-6.29066 1.33777,-8.09031 2.71594,-1.13479 3.4275,-1.91214 2.92822,-3.19897 -0.36275,-0.93495 -1.11772,-5.52491 -1.67772,-10.19991 -0.56,-4.675 -1.33,-10.75 -1.71111,-13.5 l -0.69293,-5 -4.46711,0.27547 c -2.45692,0.15151 -6.49212,0.91709 -8.96712,1.7013 -2.475,0.7842 -5.85,1.56024 -7.5,1.72453 l -3,0.2987 0.1399,8.52395 c 0.1235,7.52453 0.51091,9.20973 3.3042,14.37273 3.41537,6.31283 3.75996,11.14812 0.92107,12.92471 -1.081,0.6765 -3.9605,0.71066 -8.5,0.10085 -6.23231,-0.83722 -6.89724,-1.14958 -7.21304,-3.38834 -0.24657,-1.74797 0.45039,-3.1026 2.39341,-4.65191 2.63724,-2.10286 2.69789,-2.35818 1.59787,-6.72673 -0.62887,-2.49749 -1.16502,-6.47913 -1.19144,-8.84808 -0.0694,-6.2242 -2.70893,-10.90336 -6.95197,-12.32396 l -3.5,-1.17182 4.57638,-0.69094 c 2.51702,-0.38001 5.24824,-0.43312 6.06938,-0.11802 0.82115,0.3151 3.93678,-0.56464 6.92362,-1.95499 2.98684,-1.39035 6.23974,-2.53231 7.22866,-2.53768 4.69814,-0.0255 23.47055,-15.86318 26.68088,-22.50977 0.79695,-1.65 2.18383,-4.125 3.08194,-5.5 3.08762,-4.72709 7.86715,-21.51753 8.01192,-28.14575 0.23743,-10.87056 -1.2115,-23.12542 -3.1999,-27.06441 -1.03008,-2.04059 -1.87775,-4.74059 -1.8837,-6 -0.0243,-5.14287 -4.73533,-16.66465 -9.93161,-24.28984 -1.12442,-1.65 -2.04736,-3.56773 -2.05098,-4.26161 -0.0106,-2.03063 -6.3842,-11.20075 -7.79863,-11.22042 -1.42543,-0.0198 -8.31164,4.70685 -14.12388,9.6946 -2.05899,1.76691 -5.7349,4.06613 -8.1687,5.10938 -2.4338,1.04325 -7.05409,3.73844 -10.26733,5.98931 -3.21323,2.25088 -8.16104,4.85179 -10.99514,5.7798 -2.8341,0.92802 -7.85291,3.04766 -11.15291,4.71032 -3.3,1.66266 -7.575,3.34081 -9.5,3.72923 -1.925,0.38842 -4.70114,1.03009 -6.1692,1.42593 -2.1698,0.58506 -2.96921,0.26185 -4.27269,-1.72751 -0.88191,-1.34597 -1.32002,-3.18592 -0.97356,-4.08877 C 364.2199,348.98458 372.04908,345 374.66696,345 c 0.77699,0 3.28564,-0.9555 5.57477,-2.12332 2.28914,-1.16783 6.55641,-2.9471 9.48284,-3.95394 C 401.26159,334.95342 431,314.13167 431,310.02318 c 0,-3.22148 -3.15303,-9.46997 -6.3538,-12.59157 -1.73041,-1.68762 -4.51924,-4.61262 -6.1974,-6.5 -1.67816,-1.88739 -8.13432,-8.38161 -14.34702,-14.43161 -6.21271,-6.05 -12.67683,-13.025 -14.36471,-15.5 -1.68788,-2.475 -4.90672,-6.56932 -7.15297,-9.09848 -2.24626,-2.52917 -6.3341,-8.27031 -9.0841,-12.75809 -6.51321,-10.62903 -12.08381,-18.85374 -16.81528,-24.8269 -2.0984,-2.64909 -6.49211,-8.86618 -9.76379,-13.81574 -6.13348,-9.27904 -13.79818,-18.48614 -22.24749,-26.72444 C 319.27833,168.51597 307.24451,162 302.92466,162 c -1.54364,0 -3.0729,-0.43084 -3.39834,-0.95741 -0.78428,-1.26899 3.32414,-3.26955 12.4458,-6.0604 6.36195,-1.94648 8.14485,-2.12824 12,-1.22332 7.18278,1.68601 14.05236,4.09774 20.52788,7.20679 3.3,1.58441 6.77461,3.12123 7.72136,3.41516 4.52227,1.40402 19.10375,14.21846 30.69471,26.97501 23.01527,25.32969 40.74289,41.13909 54.37621,48.49238 3.41425,1.84151 7.10772,4.12046 8.20772,5.06433 1.1,0.94387 5.14949,3.71218 8.99888,6.15179 3.84938,2.43962 9.69938,6.70611 13,9.48109 3.30061,2.77498 8.11016,6.48952 10.68789,8.25453 2.57772,1.76502 6.39485,5.34458 8.48251,7.95458 2.08766,2.61001 5.60361,6.81296 7.81323,9.33988 4.59086,5.25012 16.9935,28.65841 17.96452,33.90559 0.35623,1.925 1.47518,5.525 2.48655,8 3.14907,7.70632 5.0775,20.6961 5.04756,34 -0.0262,11.62777 -0.2967,13.37223 -3.8768,25 -3.20811,10.41958 -4.91125,14.08903 -10.23314,22.04752 C 500.01657,417.80268 487.34444,431 484.79233,431 c -0.55331,0 -3.26671,1.8 -6.0298,4 -2.76308,2.2 -5.40513,4 -5.87122,4 -1.59775,0 -15.54888,6.88245 -16.60497,8.19165 -2.91894,3.61854 -2.30543,10.93481 2.83505,33.80835 2.10695,9.37527 2.15273,9.99719 0.74211,10.08124 -3.16052,0.18832 -6.58085,0.64032 -9.8635,1.30348 -2.51302,0.50768 -4.13449,0.25514 -5.75,-0.89553 z M 298.94504,451.33348 c -1.06734,-3.2341 -0.9954,-3.82349 0.61004,-4.99742 1.51774,-1.1098 2.16272,-1.10463 3.88251,0.0311 2.94242,1.94318 3.12199,5.12747 0.3968,7.03626 -3.17489,2.22378 -3.52059,2.07743 -4.88935,-2.06996 z M 322,450.54121 C 322,448.4873 330.01519,438 331.58495,438 c 2.92259,0 2.29221,2.32527 -2.17022,8.00522 C 324.85688,451.80664 322,453.55435 322,450.54121 Z m 2.36953,-31.17492 c -1.65248,-3.48234 -1.64648,-3.69061 0.14421,-5 2.6019,-1.90255 4.08496,-1.71341 6.4473,0.82227 3.43898,3.69131 2.06016,7.81144 -2.61412,7.81144 -1.60772,0 -2.74699,-1.04082 -3.97739,-3.63371 z M 247.74721,367.41388 C 247.33625,367.00291 247,365.60939 247,364.31715 c 0,-2.71111 0.56564,-2.98963 24,-11.81775 1.925,-0.72518 8,-2.33808 13.5,-3.58422 5.5,-1.24615 11.85146,-3.0447 14.11436,-3.99677 2.26289,-0.95208 5.82562,-1.8857 7.91716,-2.07473 3.42813,-0.30982 3.87666,-0.0716 4.55234,2.4182 0.91903,3.38645 -0.40565,4.89985 -5.70157,6.51388 -13.52575,4.12222 -17.56079,5.09297 -18.95141,4.55934 -0.86119,-0.33047 -2.54794,-0.0905 -3.74834,0.53333 -1.2004,0.62381 -4.20754,1.7684 -6.68254,2.54355 -2.475,0.77515 -8.325,2.85462 -13,4.62105 -9.20186,3.47689 -14.0763,4.55733 -15.25279,3.38085 z"
       style="fill:#535247" />
    <path
       id="path7463"
       d="m 444.60878,490.46592 c -2.42217,-2.42217 -2.01374,-5.32618 0.8502,-6.04498 3.589,-0.90078 4.75941,-2.71634 3.64338,-5.65171 -0.51735,-1.36073 -1.45094,-7.82796 -2.07465,-14.37164 -1.43868,-15.09386 -1.63555,-15.76459 -4.37411,-14.90246 -1.18448,0.37289 -3.9536,1.02741 -6.1536,1.4545 -2.2,0.42709 -5.26679,1.28814 -6.8151,1.91345 -1.5483,0.6253 -4.0807,1.13692 -5.62755,1.13692 -4.49574,0 -5.23095,1.80615 -4.50585,11.06915 0.50368,6.4344 1.29643,9.45305 3.60138,13.71342 1.90948,3.52941 2.84786,6.56972 2.65132,8.59016 -0.2782,2.85999 -0.64231,3.15485 -4.2602,3.44992 -5.49353,0.44804 -10.53959,-0.64757 -11.22645,-2.43752 -0.33517,-0.87343 0.58156,-2.71416 2.1855,-4.38831 2.62627,-2.74124 2.70684,-3.10619 1.6299,-7.38312 C 413.50983,474.13906 413,470.31792 413,468.12228 c 0,-4.87852 -1.42605,-8.84757 -4.31661,-12.01418 l -2.18339,-2.3919 3.86915,0.59837 c 2.96001,0.45776 5.00822,0.0211 8.71676,-1.8581 2.66618,-1.35106 5.67654,-2.45647 6.68967,-2.45647 3.41584,0 13.61338,-7.06814 20.69261,-14.3425 7.37554,-7.57883 11.28612,-14.25542 16.19941,-27.6575 2.51153,-6.85073 2.73842,-8.62541 2.62099,-20.5 -0.13935,-14.09039 -0.6447,-18.31068 -2.67829,-22.36715 -0.72595,-1.44807 -1.85576,-5.43453 -2.51069,-8.8588 -1.36924,-7.15897 -3.75885,-12.86959 -8.06523,-19.27405 -1.6642,-2.475 -3.03202,-5.175 -3.0396,-6 -0.008,-0.825 -1.81595,-4.34078 -4.0186,-7.81284 -3.46416,-5.4606 -4.30468,-6.21767 -6.22601,-5.60787 -2.30078,0.73024 -7.42763,4.46011 -14.12513,10.27626 -2.13123,1.85077 -6.18123,4.39652 -9,5.65722 -2.81877,1.2607 -8.24702,4.35653 -12.06278,6.87961 -3.81576,2.52309 -8.45284,4.87167 -10.30464,5.21907 -1.85179,0.3474 -5.88039,1.91708 -8.95244,3.48818 -7.68532,3.93042 -17.3805,6.38482 -18.46578,4.67475 -0.44483,-0.70091 -0.81567,-1.61849 -0.82409,-2.03908 -0.0246,-1.22705 6.29211,-4.72747 8.53835,-4.73156 1.12951,-0.002 4.27951,-1.10249 7,-2.44542 2.72049,-1.34292 7.64634,-3.43421 10.94634,-4.64731 3.3,-1.21311 7.8,-3.42383 10,-4.91272 2.2,-1.4889 7.71385,-5.00134 12.253,-7.80542 10.15335,-6.27229 16.96519,-11.83617 18.81973,-15.37186 2.57796,-4.91488 -1.7989,-11.06726 -22.63772,-31.82101 -10.21672,-10.175 -19.52697,-20.075 -20.68946,-22 -1.16249,-1.925 -3.75848,-5.075 -5.76887,-7 -2.0104,-1.925 -4.76294,-5.525 -6.11677,-8 -1.35382,-2.475 -4.24976,-7.2 -6.43541,-10.5 -2.18565,-3.3 -4.75029,-7.30949 -5.6992,-8.90999 -0.94892,-1.60049 -3.7503,-5.26826 -6.2253,-8.15059 -2.475,-2.88234 -6.97068,-9.1574 -9.9904,-13.94457 -6.4189,-10.17592 -7.5878,-11.60264 -19.5204,-23.82607 -9.2438,-9.46908 -15.7706,-13.94764 -23.2392,-15.94627 -2.3375,-0.62553 -4.25,-1.46676 -4.25,-1.8694 0,-0.40264 3.9375,-1.94182 8.75,-3.42038 7.56409,-2.32395 9.35989,-2.54754 13.25,-1.64967 7.09668,1.63797 14.01628,4.12085 20.3182,7.29054 3.20001,1.60952 6.37081,2.9264 7.04621,2.9264 1.87584,0 15.70016,10.91715 21.75275,17.17828 2.96056,3.06257 12.55263,13.08217 21.3157,22.26579 16.66697,17.46684 31.71963,30.50994 41.40985,35.88159 8.60567,4.77044 26.93412,17.2301 33.15729,22.54028 3.025,2.58122 6.63656,5.41157 8.0257,6.28967 2.79149,1.76457 7.16319,6.21765 15.17432,15.45679 6.15372,7.09701 17.49416,28.1231 19.89535,36.8876 0.9041,3.3 2.12293,7.35 2.70852,9 2.67453,7.53595 4.19746,18.7948 4.28151,31.65259 0.0491,7.50892 -0.34374,14.48392 -0.87292,15.5 -0.52918,1.01608 -2.19748,6.12241 -3.70732,11.34741 -2.12785,7.3637 -4.16524,11.65921 -9.06017,19.10186 C 499.65271,416.90891 487.256,430 484.70837,430 c -0.55131,0 -2.87132,1.53145 -5.15556,3.40322 -2.28425,1.87177 -6.8306,4.53036 -10.103,5.90798 -13.09489,5.51272 -14.82559,6.78538 -15.62923,11.49292 -0.50939,2.98391 -0.11951,7.1224 1.27175,13.49949 1.10349,5.05801 2.2312,10.99639 2.50602,13.19639 0.27482,2.2 1.00411,5.70101 1.62063,7.78003 0.67967,2.29193 0.75879,4.11412 0.20099,4.62867 -0.50598,0.46675 -3.68352,1.14505 -7.06119,1.50732 -4.93226,0.52901 -6.45793,0.34198 -7.75,-0.9501 z M 248.66667,366.33333 C 248.3,365.96667 248,364.88981 248,363.94032 c 0,-1.79854 0.319,-1.98506 8.5,-4.97004 2.75,-1.00338 7.475,-2.79152 10.5,-3.97364 3.025,-1.18211 10.675,-3.40604 17,-4.94207 6.325,-1.53602 13.1525,-3.48909 15.17222,-4.34014 7.03842,-2.96581 11.82778,-2.44385 11.82778,1.28902 0,1.53078 -2.18265,2.56677 -11.6043,5.50795 -6.38236,1.99239 -12.26087,3.37058 -13.06334,3.06264 -0.80248,-0.30794 -2.7582,0.11193 -4.34605,0.93304 -1.58784,0.8211 -3.58924,1.49292 -4.44755,1.49292 -0.85831,0 -3.46815,0.84727 -5.79966,1.88283 C 266.02116,362.42249 252.52771,367 250.7593,367 c -0.78428,0 -1.72597,-0.3 -2.09263,-0.66667 z"
       style="fill:#44453a" />
    <path
       id="path7461"
       d="m 445.05115,490.05115 c -2.85896,-2.85896 -2.58229,-3.93128 1.44885,-5.6156 1.925,-0.80431 3.49992,-1.79385 3.49983,-2.19897 -10e-5,-0.40512 -0.62901,-4.11158 -1.39758,-8.23658 -0.76857,-4.125 -1.71261,-11.4821 -2.09785,-16.34911 l -0.70045,-8.84911 -2.65198,0.55434 c -1.45858,0.30489 -4.67697,1.00493 -7.15197,1.55564 -2.475,0.55071 -6.97411,1.46138 -9.99802,2.02371 -3.02391,0.56233 -6.03145,1.75193 -6.68343,2.64356 -0.77674,1.06226 -1.01155,4.08604 -0.68111,8.77106 0.39499,5.60016 1.28316,8.67314 4.09766,14.17747 4.46064,8.72369 4.15804,12.47902 -1.00415,12.46143 -5.6142,-0.0191 -10.59097,-1.18183 -11.1358,-2.60162 -0.28927,-0.75383 0.66566,-2.47552 2.12207,-3.82598 2.61348,-2.42336 2.63259,-2.53909 1.4654,-8.87368 -0.65044,-3.53007 -1.1843,-8.16642 -1.18636,-10.30301 -0.002,-2.13658 -0.89544,-5.3472 -1.9853,-7.1347 l -1.98156,-3.25 3.7353,-0.004 c 2.05441,-0.002 5.0853,-0.82491 6.7353,-1.82857 1.65,-1.00365 4.40366,-2.10395 6.11924,-2.44511 7.83481,-1.558 23.91506,-14.65966 29.1158,-23.72258 1.42027,-2.475 3.27059,-5.06153 4.11181,-5.74784 0.84122,-0.68631 1.67079,-2.26131 1.84349,-3.5 0.1727,-1.23869 0.69572,-3.15216 1.16228,-4.25216 3.34362,-7.88321 4.99236,-15.21778 5.08777,-22.63337 0.0484,-3.76437 0.43471,-4.73146 2.05961,-5.15638 1.1,-0.28766 2,-1.24014 2,-2.11663 0,-1.82955 -1.12862,-2.065 -2.64238,-0.55124 -1.52532,1.52532 -3.67576,-1.46464 -2.87285,-3.99439 0.71774,-2.2614 2.50973,-2.65349 4.23631,-0.92691 0.82812,0.82812 0.9842,0.10051 0.59727,-2.78426 -0.45529,-3.39448 -0.0989,-4.35872 2.72422,-7.37109 2.25925,-2.41067 3.39244,-4.73138 3.72236,-7.62323 0.46053,-4.03665 0.57333,-4.14964 3.8805,-3.88724 3.88031,0.30789 4.77697,-0.54904 3.79892,-3.63059 l -0.68474,-2.15744 -1.75185,2.32248 C 479.91077,355.76976 477,355.11319 477,351.86013 c 0,-1.21146 -0.6379,-2.91308 -1.41755,-3.78139 -0.77966,-0.86831 -1.64795,-3.82874 -1.92954,-6.57874 -0.28158,-2.75 -0.54369,-5.1125 -0.58244,-5.25 C 473.03171,336.1125 472.325,336 471.5,336 c -0.825,0 -1.5,-0.45 -1.5,-1 0,-0.55 0.675,-1 1.5,-1 0.825,0 1.5,-0.45857 1.5,-1.01905 0,-0.58765 -1.05835,-0.75342 -2.5,-0.39159 -2.47541,0.62128 -3.52358,-0.83872 -1.5,-2.08936 0.55,-0.33992 1,-1.32158 1,-2.18146 0,-1.25543 -0.28687,-1.32535 -1.4562,-0.35489 C 466.60874,329.56961 465,328.44578 465,325.48804 465,322.93335 463.07612,318 462.07986,318 461.00869,318 451,308.29281 451,307.25391 c 0,-0.55496 -0.675,-1.56922 -1.5,-2.25391 -0.825,-0.68469 -1.5,-2.10391 -1.5,-3.15383 0,-2.30451 2.69284,-3.55333 4.26722,-1.97895 1.33616,1.33616 4.73278,1.51933 4.73278,0.25522 0,-0.48265 -0.675,-1.43775 -1.5,-2.12244 -0.825,-0.68469 -1.5,-2.06323 -1.5,-3.06343 0,-3.30141 -2.00062,-3.13595 -5.59967,0.4631 -3.41457,3.41457 -3.6409,3.48881 -5.97467,1.95966 -1.33411,-0.87414 -2.40485,-1.8751 -2.37942,-2.22434 0.0458,-0.62892 2.64844,-2.87475 6.3942,-5.51758 1.85923,-1.31179 1.809,-1.43706 -1.20034,-2.99325 C 441.31796,284.59594 439,284.54982 439,286.5 c 0,0.825 0.45,1.5 1,1.5 0.55,0 1,0.39754 1,0.88342 0,1.65689 -5.34806,1.93463 -7.69108,0.39942 -3.23976,-2.12277 -2.99598,-4.35386 0.44108,-4.03665 3.92579,0.36233 3.479,-1.52225 -0.70676,-2.98113 -1.94878,-0.67922 -3.60326,-1.24172 -3.67661,-1.25 -0.0734,-0.008 -0.37896,0.92408 -0.67912,2.07191 -0.73097,2.79522 -4.08355,2.12275 -4.51471,-0.90556 -0.24988,-1.75508 -0.63347,-2.04398 -1.62325,-1.22253 -1.7352,1.44008 -3.87337,0.50058 -5.07067,-2.22804 -0.58465,-1.3324 -2.03684,-2.35349 -3.60581,-2.53539 -1.44481,-0.1675 -3.66075,-1.405 -4.92431,-2.75 C 407.68519,272.10045 405.68596,271 404.50602,271 402.72851,271 398,267.0454 398,265.55882 c 0,-0.23429 1.2375,-0.56837 2.75,-0.7424 1.98553,-0.22846 2.66746,-0.80662 2.45309,-2.0798 -0.1633,-0.96986 0.4098,-2.03458 1.27355,-2.36603 1.18935,-0.45639 1.4164,-1.42384 0.93562,-3.98661 -0.65109,-3.47057 0.26408,-4.30764 2.38774,-2.18398 0.93333,0.93333 1.2,0.83088 1.2,-0.46104 0,-0.91358 -0.82795,-2.46608 -1.8399,-3.45 -1.01194,-0.98393 -2.12281,-2.57646 -2.46861,-3.53896 -1.13819,-3.16807 -2.99237,-1.99156 -2.42001,1.53553 0.29325,1.80705 0.30179,4.49594 0.019,5.97532 -0.43566,2.279 -0.80255,2.53546 -2.40233,1.67928 C 398.26808,255.0731 398,255.28957 398,257.46482 c 0,1.64613 0.55525,2.53518 1.58333,2.53518 2.90555,0 0.80936,2.49537 -2.36016,2.80962 -2.71541,0.26922 -3.46493,-0.23233 -5.74518,-3.84448 -1.4423,-2.28476 -2.37547,-4.40099 -2.07372,-4.70275 0.30176,-0.30175 0.82149,0.16235 1.15495,1.03134 C 391.26929,257.14415 394,256.42931 394,254.39301 394,253.5738 392.97022,253 391.5,253 c -3.17367,0 -3.49807,-3.50574 -0.39938,-4.31606 1.16028,-0.30342 1.80458,-1.02831 1.43931,-1.61934 -0.93767,-1.51717 -4.64313,0.61403 -5.27611,3.03457 -0.59121,2.26078 -1.59258,2.41456 -3.18993,0.48986 -0.90151,-1.08625 -0.87447,-1.59424 0.11747,-2.2073 0.90726,-0.56071 0.55179,-0.96942 -1.20144,-1.38139 -1.61581,-0.37968 -3.19204,-2.00099 -4.48992,-4.61833 -1.1,-2.21829 -3.2375,-5.61669 -4.75,-7.55202 -1.5125,-1.93532 -2.75,-3.97309 -2.75,-4.52836 0,-0.55527 -1.125,-2.22348 -2.5,-3.70713 -1.375,-1.48365 -2.5,-3.08837 -2.5,-3.56604 0,-0.47768 -2.39671,-3.71699 -5.32601,-7.19848 -2.92931,-3.48149 -6.37503,-8.07252 -7.65715,-10.20228 -2.13069,-3.53934 -2.18683,-3.95306 -0.65296,-4.81146 0.923,-0.51654 1.40366,-1.38335 1.06812,-1.92626 -0.38264,-0.61914 -1.17636,-0.51711 -2.12924,0.27371 -1.25119,1.0384 -1.76554,0.92391 -2.91566,-0.64898 -0.76806,-1.05039 -1.13904,-2.7209 -0.8244,-3.71225 C 347.89407,193.75839 347.63643,193 346.95037,193 345.24891,193 338,185.28497 338,183.4741 c 0,-0.83798 -1.05146,-1.92336 -2.33657,-2.41196 -1.28511,-0.4886 -4.29416,-3.17747 -6.68677,-5.97525 C 326.58405,172.2891 324.09061,170 323.43568,170 c -0.65494,0 -1.78147,-0.71172 -2.5034,-1.5816 C 319.17758,166.30412 308.56366,161 306.08753,161 c -4.23648,0 -2.831,-1.939 2.64962,-3.6554 7.36882,-2.30774 18.64424,-2.32146 22.76285,-0.0277 1.65,0.91893 3.72415,1.67355 4.60923,1.67694 0.88508,0.003 4.13908,1.35616 7.23111,3.00616 3.09203,1.65 6.20557,3 6.91898,3 1.35712,0 3.92473,1.73151 12.86484,8.6756 5.5682,4.325 10.26237,8.94797 18.54231,18.26103 7.88529,8.86917 30.45576,31.25269 35.83959,35.54273 2.74667,2.18865 5.66116,4.62373 6.47666,5.41129 2.09003,2.01844 11.5155,7.96807 14.30061,9.02697 1.28118,0.4871 3.65404,1.95893 5.27304,3.27073 1.619,1.3118 6.76863,4.81312 11.44363,7.78071 4.675,2.96759 10.525,7.28741 13,9.5996 2.475,2.31219 6.30294,5.31662 8.50653,6.67651 2.20359,1.35989 5.57859,4.35089 7.5,6.64667 1.92141,2.29578 5.56397,6.52179 8.09457,9.39115 2.53061,2.86936 6.20901,8.14201 8.17422,11.71701 6.84778,12.45708 10.71495,20.51242 10.7198,22.32944 0.003,1.0062 1.06354,4.6062 2.35746,8 3.65849,9.59582 5.01709,18.0241 5.26595,32.66812 0.22229,13.08016 0.11136,13.8887 -3.58727,26.14537 -2.09917,6.95629 -4.70908,13.93238 -5.79982,15.50243 -1.09074,1.57005 -3.78467,5.6927 -5.98651,9.16144 -3.53,5.56108 -17.06393,19.1932 -19.05496,19.1932 -0.40909,0 -3.13937,1.8 -6.06729,4 -2.92793,2.2 -5.78022,4 -6.33844,4 -2.47749,0 -15.68646,7.02231 -17.15635,9.12087 -0.89534,1.27828 -1.62842,3.91151 -1.62906,5.85164 -10e-4,3.3583 3.05716,20.99792 5.11934,29.52749 1.66781,6.89841 1.68957,6.8423 -2.97209,7.66386 -2.39465,0.42203 -5.18413,1.03083 -6.19884,1.35289 -1.1371,0.3609 -2.63189,-0.2014 -3.89609,-1.4656 z M 465,304.63486 c 0,-2.30783 4.1259,-6.80053 5.69305,-6.19916 0.98772,0.37903 1.34209,-10e-4 1.10787,-1.18921 -0.21972,-1.11426 -1.26564,-1.74649 -2.8893,-1.74649 -1.39971,0 -3.31545,-0.76838 -4.25721,-1.70751 -1.6717,-1.66704 -4.65441,-1.4655 -4.65441,0.3145 0,0.49115 -0.72378,0.89301 -1.60841,0.89301 -1.21629,0 -1.45544,-0.60948 -0.98095,-2.5 0.60162,-2.39702 -0.68085,-3.48985 -1.85878,-1.58392 -0.90711,1.46775 1.25934,6.08392 2.85529,6.08392 1.96804,0 5.91938,5.7067 5.2176,7.53549 C 463.31566,305.34097 463.49865,306 464.03138,306 464.56412,306 465,305.38569 465,304.63486 Z m -216.33333,61.69847 c -1.51319,-1.51318 -0.47265,-3.45214 2.58333,-4.81382 1.7875,-0.79647 6.4,-2.61918 10.25,-4.05047 3.85,-1.43129 8.575,-3.2032 10.5,-3.93757 1.925,-0.73437 7.775,-2.3099 13,-3.50119 5.225,-1.19129 11.87938,-3.03545 14.78751,-4.09813 7.35166,-2.68643 10.21249,-2.57078 10.21249,0.41284 0,2.08667 -1.08196,2.69252 -9.8221,5.5 -5.40215,1.73525 -11.13965,3.1645 -12.75,3.1761 -1.61034,0.0116 -6.0779,1.1842 -9.9279,2.60577 -3.85,1.42158 -9.025,3.25539 -11.5,4.07515 -2.475,0.81976 -6.60842,2.34716 -9.18538,3.39423 -4.94909,2.01091 -7.05448,2.33057 -8.14795,1.23709 z"
       style="fill:#403e38" />
    <path
       id="path7459"
       d="m 414.5,490.14807 c -3.71141,-0.81766 -4.76192,-4.61278 -1.5583,-5.62957 1.42629,-0.45268 2.04128,-1.47698 2.00286,-3.33589 -0.11919,-5.7667 -2.55041,-20.79466 -3.69224,-22.82259 -1.08811,-1.93251 -0.94062,-2.18541 1.52138,-2.60857 1.49946,-0.25773 3.4013,-0.76107 4.2263,-1.11855 1.26505,-0.54816 1.54483,0.87855 1.78621,9.10857 0.21466,7.3192 0.72295,10.38345 2.0334,12.25853 3.49127,4.99555 5.62851,11.06524 4.51976,12.83598 -1.12886,1.80286 -5.95823,2.38745 -10.83937,1.31209 z m 29.46563,-1.21229 c -1.03185,-1.92803 -0.93997,-2.48138 0.59889,-3.60661 0.99976,-0.73105 2.63173,-1.32917 3.62661,-1.32917 2.09946,0 2.14314,-0.48323 0.76835,-8.5 -0.9639,-5.62079 -1.741,-13.3375 -2.33985,-23.23497 -0.14093,-2.32923 -0.52118,-4.49991 -0.845,-4.82373 -0.32382,-0.32383 -1.95824,0.11941 -3.63204,0.98496 -1.6738,0.86556 -4.58552,1.57374 -6.47049,1.57374 -1.88496,0 -3.98971,0.67777 -4.67722,1.50616 -0.6875,0.8284 -2.4301,1.42633 -3.87244,1.32875 -1.44234,-0.0976 -3.74744,0.14795 -5.12244,0.54562 -2.39927,0.6939 -2.42179,0.6605 -0.55887,-0.82875 1.06762,-0.85348 2.81379,-1.55178 3.88039,-1.55178 2.26426,0 15.98427,-7.02914 16.59094,-8.5 0.76083,-1.84459 9.49323,-9.3673 10.29699,-8.87055 0.43686,0.26999 1.25588,-0.72317 1.82005,-2.20703 1.14847,-3.02071 4.93955,-7.36952 6.4705,-7.42242 1.72944,-0.0598 5.64223,-4.79406 4.5302,-5.48134 -1.99578,-1.23346 -0.99601,-2.38392 1.9977,-2.2988 1.82695,0.0519 3.54402,-0.61975 4.32917,-1.6935 1.04286,-1.4262 1.70623,-1.56285 3.34061,-0.68816 2.76834,1.48157 3.38831,0.55173 2.66172,-3.99208 -0.66958,-4.18735 -0.36677,-4.47644 2.7193,-2.59612 1.7754,1.08174 2.31201,0.93222 3.98643,-1.11078 C 485.12931,404.84078 486,402.45 486,400.82636 c 0,-2.22733 0.42963,-2.89891 1.75,-2.73553 2.81199,0.34796 5.25,-1.15163 5.25,-3.2292 0,-1.05842 0.7875,-2.21989 1.75,-2.58104 3.91745,-1.46993 5.4614,-5.73054 2.36961,-6.53906 -1.42489,-0.37262 -1.89353,-1.44342 -1.93462,-4.42047 -0.0298,-2.16081 -0.18371,-4.35451 -0.34199,-4.8749 -0.15827,-0.52039 0.5998,-2.2783 1.68462,-3.90647 1.08481,-1.62817 1.97238,-4.28633 1.97238,-5.90703 0,-3.97413 2.08324,-4.46648 2.84219,-0.67172 0.72653,3.63267 2.29917,3.9203 3.77112,0.68971 0.9034,-1.98273 0.66598,-2.78576 -1.52144,-5.14602 C 502.16634,359.96646 501,358.25392 501,357.69899 c 0,-0.55493 -0.82293,-0.26422 -1.82874,0.64602 -2.20199,1.99278 -4.76831,2.14745 -5.46594,0.32944 -0.30112,-0.78469 0.8793,-2.07301 2.89301,-3.15747 3.82108,-2.05779 4.39447,-4.02409 1.40167,-4.80673 -1.51544,-0.39629 -2,-1.36401 -2,-3.99419 0,-1.90914 0.675,-4.03137 1.5,-4.71606 2.00119,-1.66084 1.89647,-4.56314 -0.25,-6.92832 -3.0163,-3.32367 -4.25,-4.96431 -4.25,-5.65192 0,-0.36556 0.5625,-0.23101 1.25,0.29899 1.80737,1.39333 6.18018,0.002 6.58405,-2.09557 0.28607,-1.48545 0.0159,-1.61326 -1.59155,-0.75296 -1.38816,0.74292 -2.27663,0.69565 -3.1393,-0.16702 -1.2718,-1.2718 -1.65296,-1.37977 -5.57182,-1.5782 -1.69558,-0.0859 -2.29775,-0.57024 -1.92299,-1.54686 0.30009,-0.78202 0.0245,-2.39556 -0.61241,-3.58565 -0.63691,-1.19008 -0.9224,-2.3994 -0.63443,-2.68737 0.68289,-0.68289 6.63845,1.95378 6.63845,2.93899 0,0.41574 0.45,0.75589 1,0.75589 0.55,0 1,-1.125 1,-2.5 0,-1.375 -0.49774,-2.5 -1.1061,-2.5 -0.60835,0 -2.87266,-1.39915 -5.0318,-3.10922 -2.95334,-2.33909 -3.66278,-3.42602 -2.86421,-4.38823 0.6194,-0.74634 0.7945,-2.94869 0.42042,-5.28806 -0.55142,-3.44836 -1.05942,-4.09271 -3.6324,-4.60731 -1.64523,-0.32904 -3.45348,-0.31263 -4.01835,0.0365 -0.5732,0.35427 -0.82044,0.0209 -0.55952,-0.75445 0.25713,-0.76406 -0.20761,-1.88663 -1.03275,-2.49459 C 476.37718,294.06975 477.2806,291 479.46862,291 c 0.96161,0 1.53138,0.91847 1.53138,2.46862 0,1.78348 0.41631,2.30886 1.5,1.89301 2.16732,-0.83168 1.85842,-4.45514 -0.43083,-5.05379 -1.06195,-0.27771 -2.17283,-1.13558 -2.46861,-1.90638 C 479.30478,287.63066 478.3255,287 477.4244,287 c -1.00692,0 -1.42769,0.54904 -1.09173,1.42453 0.46484,1.21137 -3.05695,4.57547 -4.78995,4.57547 -0.29021,0 -0.41854,-2.1375 -0.28519,-4.75 l 0.24247,-4.75 -4.09786,-10e-4 c -2.25383,-7.1e-4 -4.74737,-0.54034 -5.54121,-1.19916 -1.15585,-0.95927 -1.6858,-0.80963 -2.66061,0.75129 -1.5585,2.49555 -3.20032,2.50515 -3.20032,0.0187 0,-1.2406 0.80404,-2.04464 2.25,-2.25 2.04111,-0.28988 2.22087,-0.78374 1.93621,-5.31955 -0.43133,-6.87277 -1.05948,-8.59882 -3.01199,-8.27644 -1.32197,0.21828 -1.65285,-0.48292 -1.57265,-3.33273 0.10071,-3.57821 0.0683,-3.6073 -3.77629,-3.39038 -2.13283,0.12035 -4.06617,0.40711 -4.29632,0.63725 -0.23014,0.23015 -0.0264,2.20582 0.4528,4.39037 L 448.853,269.5 445.57052,265.75 C 442.13395,261.82395 440,260.96203 440,263.5 c 0,0.825 -0.50625,1.5 -1.125,1.5 -0.72465,0 -0.90444,-1.10281 -0.50522,-3.09891 0.45281,-2.26405 0.0824,-3.78209 -1.375,-5.63485 C 435.08325,253.83612 435,253.81938 435,255.86514 c 0,2.31462 -0.70891,2.60487 -2.92967,1.19949 -1.17336,-0.74255 -0.90445,-1.56687 1.5,-4.59816 4.69321,-5.9167 4.785,-6.10265 3.98866,-8.08055 -0.71923,-1.78637 -0.80311,-1.77256 -1.58907,0.26175 -1.38738,3.59094 -3.02717,3.80555 -5.57641,0.72981 -2.20181,-2.65655 -2.48773,-2.7458 -3.7239,-1.16244 -1.15415,1.47831 -1.8794,1.55752 -5.25429,0.57385 -2.15343,-0.62766 -4.70282,-1.03364 -5.66532,-0.90218 -1.16131,0.15861 -1.75,-0.43153 -1.75,-1.7543 0,-1.30579 -0.77606,-2.10353 -2.25,-2.31286 -1.98146,-0.28141 -2.218,-0.8268 -1.98186,-4.56955 0.20068,-3.18071 -0.099,-4.25 -1.19098,-4.25 -0.80252,0 -1.74178,0.45734 -2.08724,1.01631 -0.9149,1.48034 -2.5902,0.11898 -2.26644,-1.84172 0.3581,-2.16863 -3.6797,-2.80357 -6.89293,-1.0839 -1.53263,0.82024 -2.71412,0.92574 -3.34149,0.29837 C 392.61083,228.01083 395.63818,224 398.0567,224 c 1.20466,0 1.9433,-0.68417 1.9433,-1.8 0,-2.74297 -2.03521,-4.2 -5.86667,-4.2 -1.90666,0 -3.17057,-0.2961 -2.80867,-0.65799 C 392.35181,216.31486 389.96416,214 387.87756,214 386.8449,214 386,213.49075 386,212.86833 c 0,-0.74927 -1.39787,-0.94417 -4.13689,-0.57679 -7.52545,1.00937 -10.89488,-1.74891 -8.28398,-6.78142 C 375.49141,201.8242 375.44655,197 373.5,197 c -0.825,0 -1.5,0.45 -1.5,1 0,1.45463 -4.98283,1.22816 -5.50072,-0.25 -0.24087,-0.6875 -0.60187,-2.6 -0.80222,-4.25 -0.42548,-3.50402 -3.1819,-4.57799 -3.97415,-1.54842 C 361.09674,194.34608 357,194.8218 357,192.5 c 0,-0.825 0.675,-1.5 1.5,-1.5 1.81287,0 2.00386,-3.56548 0.25,-4.66712 -1.61408,-1.01385 -7.75979,-1.43276 -7.7182,-0.5261 0.0175,0.38127 0.6925,1.56673 1.5,2.63435 0.80751,1.06762 1.4682,2.53012 1.4682,3.25 0,1.8284 -2.65851,1.64115 -3.37963,-0.23804 -0.32648,-0.8508 -1.38713,-1.4133 -2.35699,-1.25 -1.41817,0.23879 -1.69475,-0.29038 -1.4128,-2.70309 0.47383,-4.05463 0.98773,-4.68609 3.23358,-3.97329 2.41333,0.76596 2.43254,-0.0557 0.0608,-2.60148 -1.23137,-1.32172 -1.68676,-2.9046 -1.35453,-4.70818 l 0.50051,-2.71705 -2.18336,1.93927 c -1.65761,1.4723 -2.0347,2.61609 -1.56602,4.75 C 345.92074,181.91562 345.74245,183 345.07946,183 344.48575,183 344,182.51998 344,181.93328 c 0,-0.5867 -1.125,-2.54167 -2.5,-4.34439 -3.85863,-5.05893 -2.93102,-8.9603 1.55909,-6.55727 1.88078,1.00657 2.06345,0.88069 1.74692,-1.20375 -0.20089,-1.32294 -0.93944,-2.20109 -1.71082,-2.03418 -2.7812,0.60178 -12.65828,-2.07789 -14.38415,-3.90244 -2.25776,-2.38687 -3.22856,-2.37099 -6.71245,0.10975 l -2.81015,2.00101 -4.84422,-2.41346 c -2.66432,-1.32739 -6.19422,-2.73544 -7.84422,-3.129 -2.8224,-0.67318 -2.58559,-0.85199 4,-3.02024 3.85,-1.26758 8.68277,-2.33498 10.73948,-2.372 3.27299,-0.0589 13.95678,3.31928 18.99695,6.00679 0.95504,0.50925 2.2696,0.9259 2.92126,0.9259 0.65166,0 1.89526,0.61128 2.76357,1.3584 0.86831,0.74711 2.93189,1.81059 4.58574,2.36327 5.86422,1.95969 19.65176,13.56398 30.47007,25.64515 19.95327,22.28248 44.32605,44.5694 54.37516,49.72165 5.25102,2.69223 7.81087,4.25445 16.84742,10.28163 5.66519,3.77855 12.77535,8.96684 15.80035,11.52953 3.025,2.56268 6.66455,5.39621 8.08788,6.29673 3.43194,2.17132 11.91212,10.69283 11.91212,11.97018 0,0.55475 2.01006,2.88173 4.4668,5.17105 3.18264,2.96577 6.48876,8.06801 11.5,17.74765 3.86826,7.47189 7.0332,14.55048 7.0332,15.7302 0,1.17973 1.08101,4.96637 2.40225,8.41476 3.57077,9.31962 4.91781,17.79079 5.13137,32.2698 0.17533,11.8868 -0.0558,13.77068 -2.69868,22 -1.58973,4.95 -3.33142,10.636 -3.87041,12.63555 -2.50077,9.27739 -17.38222,27.63712 -27.78111,34.27445 -2.02588,1.29306 -5.4328,3.7548 -7.57092,5.47051 -2.13813,1.71572 -4.4757,3.11949 -5.1946,3.11949 -2.75608,0 -16.29661,6.90485 -17.3311,8.83781 -1.64006,3.06449 -1.31253,10.11664 0.9132,19.66219 1.1,4.7176 2,10.08007 2,11.9166 0,1.83653 0.67098,4.94503 1.49107,6.90778 0.82008,1.96274 1.15758,3.7719 0.75,4.02035 -0.40759,0.24845 -3.73706,0.7705 -7.39883,1.16012 -6.26099,0.66617 -6.73039,0.57266 -7.87661,-1.56907 z M 249.25,366.33772 c -2.30306,-0.92931 -1.28159,-3.35664 2,-4.75263 1.7875,-0.7604 6.625,-2.59946 10.75,-4.08679 4.125,-1.48733 8.19943,-3.05672 9.05429,-3.48752 0.85485,-0.4308 5.57985,-1.74559 10.5,-2.92175 4.92014,-1.17616 12.86172,-3.29219 17.64796,-4.70228 4.78624,-1.41009 9.17374,-2.27241 9.75,-1.91626 3.20779,1.98252 -1.2458,6.17462 -5.44113,5.12166 -1.48103,-0.37172 -2.49467,-0.0774 -2.84089,0.82483 C 300.01937,352.11311 290.56119,355 285.65511,355 c -1.94539,0 -3.77927,0.39188 -4.07528,0.87084 -0.29602,0.47896 -1.9335,1.14989 -3.63886,1.49097 -1.70535,0.34107 -4.52721,1.26868 -6.27081,2.06136 -2.69895,1.22701 -21.02215,7.72818 -21.13237,7.49788 -0.0208,-0.0434 -0.60029,-0.30592 -1.28779,-0.58333 z"
       style="fill:#373930" />
  </g>
</svg>
